solid OpenSCAD_Model
  facet normal 0 0 -1
    outer loop
      vertex -17.8631 -55.9437 0
      vertex -6.46025 -33.7571 0
      vertex -6.46025 -55.9437 0
    endloop
  endfacet
  facet normal 0 0 -1
    outer loop
      vertex -17.8631 -3.80072 0
      vertex -6.46025 -33.7571 0
      vertex -17.8631 -55.9437 0
    endloop
  endfacet
  facet normal 0 0 -1
    outer loop
      vertex -6.46025 -33.7571 0
      vertex -17.8631 -3.80072 0
      vertex -6.46025 -24.3253 0
    endloop
  endfacet
  facet normal 0 0 -1
    outer loop
      vertex -6.46025 -24.3253 0
      vertex -17.8631 -3.80072 0
      vertex -6.46025 -3.80072 0
    endloop
  endfacet
  facet normal 0 0 -1
    outer loop
      vertex -6.46025 -33.7571 0
      vertex 7.57086 -24.3253 0
      vertex 7.57086 -33.7571 0
    endloop
  endfacet
  facet normal -0 0 -1
    outer loop
      vertex 7.57086 -24.3253 0
      vertex -6.46025 -33.7571 0
      vertex -6.46025 -24.3253 0
    endloop
  endfacet
  facet normal 0 0 -1
    outer loop
      vertex 7.57086 -33.7571 0
      vertex 18.9731 -55.9437 0
      vertex 7.57086 -55.9437 0
    endloop
  endfacet
  facet normal 0 0 -1
    outer loop
      vertex 18.9731 -55.9437 0
      vertex 7.57086 -33.7571 0
      vertex 18.9731 -3.80072 0
    endloop
  endfacet
  facet normal 0 0 -1
    outer loop
      vertex 7.57086 -24.3253 0
      vertex 18.9731 -3.80072 0
      vertex 7.57086 -33.7571 0
    endloop
  endfacet
  facet normal -0 0 -1
    outer loop
      vertex 18.9731 -3.80072 0
      vertex 7.57086 -24.3253 0
      vertex 7.57086 -3.80072 0
    endloop
  endfacet
  facet normal -0 0 1
    outer loop
      vertex -17.8631 -3.80072 1
      vertex -6.46025 -24.3253 1
      vertex -6.46025 -3.80072 1
    endloop
  endfacet
  facet normal 0 0 1
    outer loop
      vertex -6.46025 -24.3253 1
      vertex -17.8631 -3.80072 1
      vertex -6.46025 -33.7571 1
    endloop
  endfacet
  facet normal 0 0 1
    outer loop
      vertex -17.8631 -55.9437 1
      vertex -6.46025 -33.7571 1
      vertex -17.8631 -3.80072 1
    endloop
  endfacet
  facet normal 0 0 1
    outer loop
      vertex -6.46025 -33.7571 1
      vertex -17.8631 -55.9437 1
      vertex -6.46025 -55.9437 1
    endloop
  endfacet
  facet normal -0 0 1
    outer loop
      vertex -6.46025 -24.3253 1
      vertex 7.57086 -33.7571 1
      vertex 7.57086 -24.3253 1
    endloop
  endfacet
  facet normal 0 0 1
    outer loop
      vertex 7.57086 -33.7571 1
      vertex -6.46025 -24.3253 1
      vertex -6.46025 -33.7571 1
    endloop
  endfacet
  facet normal 0 0 1
    outer loop
      vertex 7.57086 -24.3253 1
      vertex 18.9731 -3.80072 1
      vertex 7.57086 -3.80072 1
    endloop
  endfacet
  facet normal 0 0 1
    outer loop
      vertex 7.57086 -33.7571 1
      vertex 18.9731 -3.80072 1
      vertex 7.57086 -24.3253 1
    endloop
  endfacet
  facet normal 0 0 1
    outer loop
      vertex 18.9731 -3.80072 1
      vertex 7.57086 -33.7571 1
      vertex 18.9731 -55.9437 1
    endloop
  endfacet
  facet normal 0 0 1
    outer loop
      vertex 18.9731 -55.9437 1
      vertex 7.57086 -33.7571 1
      vertex 7.57086 -55.9437 1
    endloop
  endfacet
  facet normal 0 -1 0
    outer loop
      vertex -6.46025 -33.7571 0
      vertex 7.57086 -33.7571 1
      vertex -6.46025 -33.7571 1
    endloop
  endfacet
  facet normal 0 -1 -0
    outer loop
      vertex 7.57086 -33.7571 1
      vertex -6.46025 -33.7571 0
      vertex 7.57086 -33.7571 0
    endloop
  endfacet
  facet normal -1 0 0
    outer loop
      vertex 7.57086 -55.9437 0
      vertex 7.57086 -33.7571 1
      vertex 7.57086 -33.7571 0
    endloop
  endfacet
  facet normal -1 -0 0
    outer loop
      vertex 7.57086 -33.7571 1
      vertex 7.57086 -55.9437 0
      vertex 7.57086 -55.9437 1
    endloop
  endfacet
  facet normal 0 -1 0
    outer loop
      vertex 7.57086 -55.9437 0
      vertex 18.9731 -55.9437 1
      vertex 7.57086 -55.9437 1
    endloop
  endfacet
  facet normal 0 -1 -0
    outer loop
      vertex 18.9731 -55.9437 1
      vertex 7.57086 -55.9437 0
      vertex 18.9731 -55.9437 0
    endloop
  endfacet
  facet normal 1 -0 0
    outer loop
      vertex 18.9731 -55.9437 1
      vertex 18.9731 -3.80072 0
      vertex 18.9731 -3.80072 1
    endloop
  endfacet
  facet normal 1 0 0
    outer loop
      vertex 18.9731 -3.80072 0
      vertex 18.9731 -55.9437 1
      vertex 18.9731 -55.9437 0
    endloop
  endfacet
  facet normal 0 1 -0
    outer loop
      vertex 18.9731 -3.80072 0
      vertex 7.57086 -3.80072 1
      vertex 18.9731 -3.80072 1
    endloop
  endfacet
  facet normal 0 1 0
    outer loop
      vertex 7.57086 -3.80072 1
      vertex 18.9731 -3.80072 0
      vertex 7.57086 -3.80072 0
    endloop
  endfacet
  facet normal -1 0 0
    outer loop
      vertex 7.57086 -24.3253 0
      vertex 7.57086 -3.80072 1
      vertex 7.57086 -3.80072 0
    endloop
  endfacet
  facet normal -1 -0 0
    outer loop
      vertex 7.57086 -3.80072 1
      vertex 7.57086 -24.3253 0
      vertex 7.57086 -24.3253 1
    endloop
  endfacet
  facet normal 0 1 -0
    outer loop
      vertex 7.57086 -24.3253 0
      vertex -6.46025 -24.3253 1
      vertex 7.57086 -24.3253 1
    endloop
  endfacet
  facet normal 0 1 0
    outer loop
      vertex -6.46025 -24.3253 1
      vertex 7.57086 -24.3253 0
      vertex -6.46025 -24.3253 0
    endloop
  endfacet
  facet normal 1 -0 0
    outer loop
      vertex -6.46025 -24.3253 1
      vertex -6.46025 -3.80072 0
      vertex -6.46025 -3.80072 1
    endloop
  endfacet
  facet normal 1 0 0
    outer loop
      vertex -6.46025 -3.80072 0
      vertex -6.46025 -24.3253 1
      vertex -6.46025 -24.3253 0
    endloop
  endfacet
  facet normal 0 1 -0
    outer loop
      vertex -6.46025 -3.80072 0
      vertex -17.8631 -3.80072 1
      vertex -6.46025 -3.80072 1
    endloop
  endfacet
  facet normal 0 1 0
    outer loop
      vertex -17.8631 -3.80072 1
      vertex -6.46025 -3.80072 0
      vertex -17.8631 -3.80072 0
    endloop
  endfacet
  facet normal -1 0 0
    outer loop
      vertex -17.8631 -55.9437 0
      vertex -17.8631 -3.80072 1
      vertex -17.8631 -3.80072 0
    endloop
  endfacet
  facet normal -1 -0 0
    outer loop
      vertex -17.8631 -3.80072 1
      vertex -17.8631 -55.9437 0
      vertex -17.8631 -55.9437 1
    endloop
  endfacet
  facet normal 0 -1 0
    outer loop
      vertex -17.8631 -55.9437 0
      vertex -6.46025 -55.9437 1
      vertex -17.8631 -55.9437 1
    endloop
  endfacet
  facet normal 0 -1 -0
    outer loop
      vertex -6.46025 -55.9437 1
      vertex -17.8631 -55.9437 0
      vertex -6.46025 -55.9437 0
    endloop
  endfacet
  facet normal 1 -0 0
    outer loop
      vertex -6.46025 -55.9437 1
      vertex -6.46025 -33.7571 0
      vertex -6.46025 -33.7571 1
    endloop
  endfacet
  facet normal 1 0 0
    outer loop
      vertex -6.46025 -33.7571 0
      vertex -6.46025 -55.9437 1
      vertex -6.46025 -55.9437 0
    endloop
  endfacet
endsolid OpenSCAD_Model
