<?xml version="1.0" standalone="no"?>
<!DOCTYPE svg PUBLIC "-//W3C//DTD SVG 1.1//EN" "http://www.w3.org/Graphics/SVG/1.1/DTD/svg11.dtd">
<svg width="14mm" height="19mm" viewBox="-7 4 14 19" xmlns="http://www.w3.org/2000/svg" version="1.1">
<title>OpenSCAD Model</title>
<path d="
M 6.55637,19.2661 L -1.86993,19.2661 L -1.74979,19.0164 L -1.61018,18.7676 L -1.45113,18.52 L -1.2726,18.2733
 L -1.07463,18.0278 L -0.857193,17.7833 L -0.6203,17.5398 L -0.340225,17.2747 L 0.00660706,16.9655 L 0.420242,16.6121
 L 0.900681,16.2145 L 1.44789,15.7727 L 2.06189,15.2868 L 2.74269,14.7567 L 3.22899,14.3637 L 3.67928,13.9726
 L 4.09352,13.5833 L 4.47176,13.1959 L 4.81398,12.8103 L 5.12016,12.4265 L 5.39034,12.0446 L 5.62448,11.6621
 L 5.8226,11.2768 L 5.98471,10.8885 L 6.11078,10.4974 L 6.20084,10.1033 L 6.25487,9.70636 L 6.27289,9.30653
 L 6.23949,8.70955 L 6.13931,8.14806 L 5.97235,7.62207 L 5.73859,7.13156 L 5.43805,6.67656 L 5.07072,6.25705
 L 4.63661,5.87305 L 4.14517,5.53288 L 3.60588,5.24507 L 3.01872,5.00957 L 2.38371,4.82643 L 1.70085,4.6956
 L 0.970139,4.6171 L 0.191559,4.59094 L -0.561935,4.61803 L -1.26889,4.69928 L -1.92929,4.8347 L -2.54315,5.02428
 L -3.11047,5.26804 L -3.63124,5.56596 L -4.10547,5.91808 L -4.53052,6.32166 L -4.90376,6.77415 L -5.2252,7.27557
 L -5.49484,7.82588 L -5.71268,8.42513 L -5.87871,9.07327 L -5.99294,9.77032 L -2.34663,9.97647 L -2.28632,9.63219
 L -2.20837,9.3134 L -2.11279,9.02011 L -1.99962,8.75232 L -1.8688,8.51003 L -1.72038,8.29323 L -1.55434,8.10193
 L -1.36832,7.93614 L -1.15993,7.79585 L -0.929199,7.68108 L -0.676117,7.5918 L -0.400696,7.52803 L -0.102905,7.48978
 L 0.217209,7.47702 L 0.540634,7.48781 L 0.840912,7.52014 L 1.11806,7.57404 L 1.37207,7.64949 L 1.60292,7.74651
 L 1.81064,7.86508 L 1.99522,8.00522 L 2.15593,8.16429 L 2.2919,8.33968 L 2.40315,8.53136 L 2.48969,8.73935
 L 2.5515,8.96365 L 2.58858,9.20427 L 2.60095,9.4612 L 2.59476,9.6154 L 2.57622,9.76884 L 2.54532,9.92148
 L 2.50204,10.0733 L 2.44643,10.2244 L 2.37843,10.3747 L 2.29808,10.5242 L 2.20695,10.674 L 2.10663,10.825
 L 1.9971,10.9774 L 1.87837,11.1311 L 1.75046,11.2861 L 1.61334,11.4424 L 1.46703,11.6 L 1.2906,11.7767
 L 1.06317,11.9902 L 0.784729,12.2406 L 0.455261,12.5277 L 0.0747833,12.8517 L -0.356674,13.2124 L -0.839188,13.61
 L -1.46855,14.1313 L -2.05348,14.635 L -2.59399,15.121 L -3.09006,15.5895 L -3.54167,16.0403 L -3.94887,16.4735
 L -4.31161,16.8891 L -4.64093,17.2957 L -4.94789,17.7021 L -5.23251,18.1082 L -5.4948,18.5141 L -5.73474,18.9197
 L -5.95233,19.325 L -6.14758,19.7301 L -6.14758,22.2425 L 6.55637,22.2425 z
" stroke="black" fill="lightgray" stroke-width="0.5"/>
</svg>
