  0
SECTION
  2
BLOCKS
  0
ENDSEC
  0
SECTION
  2
ENTITIES
  0
LINE
  8
0
 10
1.99608
 20
-80.1877
 11
2.40625
 21
-75.4559
  0
LINE
  8
0
 10
2.40625
 20
-75.4559
 11
3.08986
 21
-70.7111
  0
LINE
  8
0
 10
3.08986
 20
-70.7111
 11
4.04691
 21
-65.9531
  0
LINE
  8
0
 10
4.04691
 20
-65.9531
 11
5.27742
 21
-61.1819
  0
LINE
  8
0
 10
5.27742
 20
-61.1819
 11
6.78136
 21
-56.3976
  0
LINE
  8
0
 10
6.78136
 20
-56.3976
 11
8.55875
 21
-51.6002
  0
LINE
  8
0
 10
8.55875
 20
-51.6002
 11
10.6716
 21
-46.6818
  0
LINE
  8
0
 10
10.6716
 20
-46.6818
 11
13.1816
 21
-41.5346
  0
LINE
  8
0
 10
13.1816
 20
-41.5346
 11
16.0885
 21
-36.1587
  0
LINE
  8
0
 10
16.0885
 20
-36.1587
 11
19.3925
 21
-30.5539
  0
LINE
  8
0
 10
19.3925
 20
-30.5539
 11
23.0935
 21
-24.7204
  0
LINE
  8
0
 10
23.0935
 20
-24.7204
 11
27.1915
 21
-18.6581
  0
LINE
  8
0
 10
27.1915
 20
-18.6581
 11
31.6865
 21
-12.3671
  0
LINE
  8
0
 10
31.6865
 20
-12.3671
 11
31.6865
 21
1.99879
  0
LINE
  8
0
 10
31.6865
 20
1.99879
 11
-30.2231
 21
1.99879
  0
LINE
  8
0
 10
-30.2231
 20
1.99879
 11
-30.2231
 21
-12.8829
  0
LINE
  8
0
 10
-30.2231
 20
-12.8829
 11
14.8725
 21
-12.8829
  0
LINE
  8
0
 10
14.8725
 20
-12.8829
 11
10.3399
 21
-18.5578
  0
LINE
  8
0
 10
10.3399
 20
-18.5578
 11
6.16626
 21
-24.1341
  0
LINE
  8
0
 10
6.16626
 20
-24.1341
 11
2.35153
 21
-29.6119
  0
LINE
  8
0
 10
2.35153
 20
-29.6119
 11
-1.10428
 21
-34.991
  0
LINE
  8
0
 10
-1.10428
 20
-34.991
 11
-4.2012
 21
-40.2716
  0
LINE
  8
0
 10
-4.2012
 20
-40.2716
 11
-6.93922
 21
-45.4537
  0
LINE
  8
0
 10
-6.93922
 20
-45.4537
 11
-9.31833
 21
-50.5371
  0
LINE
  8
0
 10
-9.31833
 20
-50.5371
 11
-11.3606
 21
-55.5536
  0
LINE
  8
0
 10
-11.3606
 20
-55.5536
 11
-13.0887
 21
-60.5345
  0
LINE
  8
0
 10
-13.0887
 20
-60.5345
 11
-14.5026
 21
-65.4799
  0
LINE
  8
0
 10
-14.5026
 20
-65.4799
 11
-15.6023
 21
-70.3897
  0
LINE
  8
0
 10
-15.6023
 20
-70.3897
 11
-16.3878
 21
-75.2641
  0
LINE
  8
0
 10
-16.3878
 20
-75.2641
 11
-16.8591
 21
-80.1029
  0
LINE
  8
0
 10
-16.8591
 20
-80.1029
 11
-17.0162
 21
-84.9062
  0
LINE
  8
0
 10
-17.0162
 20
-84.9062
 11
1.85936
 21
-84.9062
  0
LINE
  8
0
 10
1.85936
 20
-84.9062
 11
1.99608
 21
-80.1877
  0
ENDSEC
  0
SECTION
  2
OBJECTS
  0
DICTIONARY
  0
ENDSEC
  0
EOF
