<?xml version="1.0" standalone="no"?>
<!DOCTYPE svg PUBLIC "-//W3C//DTD SVG 1.1//EN" "http://www.w3.org/Graphics/SVG/1.1/DTD/svg11.dtd">
<svg width="63mm" height="87mm" viewBox="-31 -2 63 87" xmlns="http://www.w3.org/2000/svg" version="1.1">
<title>OpenSCAD Model</title>
<path d="
M 1.99608,80.1877 L 2.40625,75.4559 L 3.08986,70.7111 L 4.04691,65.9531 L 5.27742,61.1819 L 6.78136,56.3976
 L 8.55875,51.6002 L 10.6716,46.6818 L 13.1816,41.5346 L 16.0885,36.1587 L 19.3925,30.5539 L 23.0935,24.7204
 L 27.1915,18.6581 L 31.6865,12.3671 L 31.6865,-1.99879 L -30.2231,-1.99879 L -30.2231,12.8829 L 14.8725,12.8829
 L 10.3399,18.5578 L 6.16626,24.1341 L 2.35153,29.6119 L -1.10428,34.991 L -4.2012,40.2716 L -6.93922,45.4537
 L -9.31833,50.5371 L -11.3606,55.5536 L -13.0887,60.5345 L -14.5026,65.4799 L -15.6023,70.3897 L -16.3878,75.2641
 L -16.8591,80.1029 L -17.0162,84.9062 L 1.85936,84.9062 z
" stroke="black" fill="lightgray" stroke-width="0.5"/>
</svg>
