solid OpenSCAD_Model
  facet normal 0 0 -1
    outer loop
      vertex 33.6198 -84.9062 0
      vertex -6.06458 -70.2183 0
      vertex 33.6198 -70.2183 0
    endloop
  endfacet
  facet normal 0 0 -1
    outer loop
      vertex -25.0693 -84.9062 0
      vertex -6.06458 -70.2183 0
      vertex 33.6198 -84.9062 0
    endloop
  endfacet
  facet normal 0 0 -1
    outer loop
      vertex -25.0693 1.99879 0
      vertex -6.06458 -70.2183 0
      vertex -25.0693 -84.9062 0
    endloop
  endfacet
  facet normal 0 0 -1
    outer loop
      vertex -6.06458 -70.2183 0
      vertex -25.0693 1.99879 0
      vertex -6.06458 1.99879 0
    endloop
  endfacet
  facet normal 0 0 1
    outer loop
      vertex -6.06458 1.99879 1
      vertex -25.0693 1.99879 1
      vertex -6.06458 -70.2183 1
    endloop
  endfacet
  facet normal -0 0 1
    outer loop
      vertex -6.06458 -70.2183 1
      vertex 33.6198 -84.9062 1
      vertex 33.6198 -70.2183 1
    endloop
  endfacet
  facet normal 0 0 1
    outer loop
      vertex -6.06458 -70.2183 1
      vertex -25.0693 -84.9062 1
      vertex 33.6198 -84.9062 1
    endloop
  endfacet
  facet normal 0 0 1
    outer loop
      vertex -25.0693 -84.9062 1
      vertex -6.06458 -70.2183 1
      vertex -25.0693 1.99879 1
    endloop
  endfacet
  facet normal 0 1 -0
    outer loop
      vertex 33.6198 -70.2183 0
      vertex -6.06458 -70.2183 1
      vertex 33.6198 -70.2183 1
    endloop
  endfacet
  facet normal 0 1 0
    outer loop
      vertex -6.06458 -70.2183 1
      vertex 33.6198 -70.2183 0
      vertex -6.06458 -70.2183 0
    endloop
  endfacet
  facet normal 1 -0 0
    outer loop
      vertex -6.06458 -70.2183 1
      vertex -6.06458 1.99879 0
      vertex -6.06458 1.99879 1
    endloop
  endfacet
  facet normal 1 0 0
    outer loop
      vertex -6.06458 1.99879 0
      vertex -6.06458 -70.2183 1
      vertex -6.06458 -70.2183 0
    endloop
  endfacet
  facet normal 0 1 -0
    outer loop
      vertex -6.06458 1.99879 0
      vertex -25.0693 1.99879 1
      vertex -6.06458 1.99879 1
    endloop
  endfacet
  facet normal 0 1 0
    outer loop
      vertex -25.0693 1.99879 1
      vertex -6.06458 1.99879 0
      vertex -25.0693 1.99879 0
    endloop
  endfacet
  facet normal -1 0 0
    outer loop
      vertex -25.0693 -84.9062 0
      vertex -25.0693 1.99879 1
      vertex -25.0693 1.99879 0
    endloop
  endfacet
  facet normal -1 -0 0
    outer loop
      vertex -25.0693 1.99879 1
      vertex -25.0693 -84.9062 0
      vertex -25.0693 -84.9062 1
    endloop
  endfacet
  facet normal 0 -1 0
    outer loop
      vertex -25.0693 -84.9062 0
      vertex 33.6198 -84.9062 1
      vertex -25.0693 -84.9062 1
    endloop
  endfacet
  facet normal 0 -1 -0
    outer loop
      vertex 33.6198 -84.9062 1
      vertex -25.0693 -84.9062 0
      vertex 33.6198 -84.9062 0
    endloop
  endfacet
  facet normal 1 -0 0
    outer loop
      vertex 33.6198 -84.9062 1
      vertex 33.6198 -70.2183 0
      vertex 33.6198 -70.2183 1
    endloop
  endfacet
  facet normal 1 0 0
    outer loop
      vertex 33.6198 -70.2183 0
      vertex 33.6198 -84.9062 1
      vertex 33.6198 -84.9062 0
    endloop
  endfacet
endsolid OpenSCAD_Model
