  0
SECTION
  2
BLOCKS
  0
ENDSEC
  0
SECTION
  2
ENTITIES
  0
LINE
  8
0
 10
-10.8669
 20
-22.393
 11
-10.8724
 21
-21.3257
  0
LINE
  8
0
 10
-10.8724
 20
-21.3257
 11
-10.889
 21
-20.2441
  0
LINE
  8
0
 10
-10.889
 20
-20.2441
 11
-10.9165
 21
-19.1484
  0
LINE
  8
0
 10
-10.9165
 20
-19.1484
 11
-10.9551
 21
-18.0385
  0
LINE
  8
0
 10
-10.9551
 20
-18.0385
 11
-11.0048
 21
-16.9143
  0
LINE
  8
0
 10
-11.0048
 20
-16.9143
 11
-11.0654
 21
-15.7759
  0
LINE
  8
0
 10
-11.0654
 20
-15.7759
 11
-11.1371
 21
-14.6233
  0
LINE
  8
0
 10
-11.1371
 20
-14.6233
 11
-11.4079
 21
-10.7581
  0
LINE
  8
0
 10
-11.4079
 20
-10.7581
 11
-10.903
 21
-13.2327
  0
LINE
  8
0
 10
-10.903
 20
-13.2327
 11
-10.4266
 21
-15.51
  0
LINE
  8
0
 10
-10.4266
 20
-15.51
 11
-9.9785
 21
-17.5902
  0
LINE
  8
0
 10
-9.9785
 20
-17.5902
 11
-9.55881
 21
-19.4731
  0
LINE
  8
0
 10
-9.55881
 20
-19.4731
 11
-9.16751
 21
-21.1589
  0
LINE
  8
0
 10
-9.16751
 20
-21.1589
 11
-8.8046
 21
-22.6474
  0
LINE
  8
0
 10
-8.8046
 20
-22.6474
 11
-8.47006
 21
-23.9388
  0
LINE
  8
0
 10
-8.47006
 20
-23.9388
 11
-3.59999
 21
-42.0283
  0
LINE
  8
0
 10
-3.59999
 20
-42.0283
 11
4.82631
 21
-42.0283
  0
LINE
  8
0
 10
4.82631
 20
-42.0283
 11
9.61945
 21
-23.9388
  0
LINE
  8
0
 10
9.61945
 20
-23.9388
 11
9.83006
 21
-23.1871
  0
LINE
  8
0
 10
9.83006
 20
-23.1871
 11
10.1085
 21
-22.0583
  0
LINE
  8
0
 10
10.1085
 20
-22.0583
 11
10.4548
 21
-20.5525
  0
LINE
  8
0
 10
10.4548
 20
-20.5525
 11
10.869
 21
-18.6695
  0
LINE
  8
0
 10
10.869
 20
-18.6695
 11
11.351
 21
-16.4095
  0
LINE
  8
0
 10
11.351
 20
-16.4095
 11
11.9008
 21
-13.7723
  0
LINE
  8
0
 10
11.9008
 20
-13.7723
 11
12.5185
 21
-10.7581
  0
LINE
  8
0
 10
12.5185
 20
-10.7581
 11
12.3544
 21
-12.8509
  0
LINE
  8
0
 10
12.3544
 20
-12.8509
 11
12.2155
 21
-14.8001
  0
LINE
  8
0
 10
12.2155
 20
-14.8001
 11
12.102
 21
-16.6058
  0
LINE
  8
0
 10
12.102
 20
-16.6058
 11
12.0136
 21
-18.2679
  0
LINE
  8
0
 10
12.0136
 20
-18.2679
 11
11.9505
 21
-19.7865
  0
LINE
  8
0
 10
11.9505
 20
-19.7865
 11
11.9126
 21
-21.1615
  0
LINE
  8
0
 10
11.9126
 20
-21.1615
 11
11.9
 21
-22.393
  0
LINE
  8
0
 10
11.9
 20
-22.393
 11
11.9
 21
-55.9437
  0
LINE
  8
0
 10
11.9
 20
-55.9437
 11
20.4808
 21
-55.9437
  0
LINE
  8
0
 10
20.4808
 20
-55.9437
 11
20.4808
 21
-3.80072
  0
LINE
  8
0
 10
20.4808
 20
-3.80072
 11
7.5321
 21
-3.80072
  0
LINE
  8
0
 10
7.5321
 20
-3.80072
 11
2.27499
 21
-23.1271
  0
LINE
  8
0
 10
2.27499
 20
-23.1271
 11
2.05415
 21
-24.0185
  0
LINE
  8
0
 10
2.05415
 20
-24.0185
 11
1.83333
 21
-25.0361
  0
LINE
  8
0
 10
1.83333
 20
-25.0361
 11
1.61249
 21
-26.18
  0
LINE
  8
0
 10
1.61249
 20
-26.18
 11
1.39165
 21
-27.45
  0
LINE
  8
0
 10
1.39165
 20
-27.45
 11
1.17082
 21
-28.8463
  0
LINE
  8
0
 10
1.17082
 20
-28.8463
 11
0.949982
 21
-30.3687
  0
LINE
  8
0
 10
0.949982
 20
-30.3687
 11
0.729156
 21
-32.0174
  0
LINE
  8
0
 10
0.729156
 20
-32.0174
 11
0.481415
 21
-30.0935
  0
LINE
  8
0
 10
0.481415
 20
-30.0935
 11
0.246307
 21
-28.3857
  0
LINE
  8
0
 10
0.246307
 20
-28.3857
 11
0.0238342
 21
-26.894
  0
LINE
  8
0
 10
0.0238342
 20
-26.894
 11
-0.186005
 21
-25.6184
  0
LINE
  8
0
 10
-0.186005
 20
-25.6184
 11
-0.383209
 21
-24.559
  0
LINE
  8
0
 10
-0.383209
 20
-24.559
 11
-0.56778
 21
-23.7156
  0
LINE
  8
0
 10
-0.56778
 20
-23.7156
 11
-0.739731
 21
-23.0884
  0
LINE
  8
0
 10
-0.739731
 20
-23.0884
 11
-5.95807
 21
-3.80072
  0
LINE
  8
0
 10
-5.95807
 20
-3.80072
 11
-19.3707
 21
-3.80072
  0
LINE
  8
0
 10
-19.3707
 20
-3.80072
 11
-19.3707
 21
-55.9437
  0
LINE
  8
0
 10
-19.3707
 20
-55.9437
 11
-10.8669
 21
-55.9437
  0
LINE
  8
0
 10
-10.8669
 20
-55.9437
 11
-10.8669
 21
-22.393
  0
ENDSEC
  0
SECTION
  2
OBJECTS
  0
DICTIONARY
  0
ENDSEC
  0
EOF
