solid OpenSCAD_Model
  facet normal 0 0 -1
    outer loop
      vertex 3.24504 -13.1554 0
      vertex 7.07184 -13.1554 0
      vertex 7.03134 -14.3301 0
    endloop
  endfacet
  facet normal 0 0 -1
    outer loop
      vertex 3.1609 -14.7176 0
      vertex 7.03134 -14.3301 0
      vertex 6.90985 -15.4247 0
    endloop
  endfacet
  facet normal 0 0 -1
    outer loop
      vertex 3.22256 -12.352 0
      vertex 7.07184 -13.1554 0
      vertex 3.24504 -13.1554 0
    endloop
  endfacet
  facet normal 0 0 -1
    outer loop
      vertex 3.1609 -14.7176 0
      vertex 6.90985 -15.4247 0
      vertex 6.70737 -16.439 0
    endloop
  endfacet
  facet normal 0 0 -1
    outer loop
      vertex 7.07184 -13.1554 0
      vertex 3.22256 -12.352 0
      vertex 7.0291 -11.967 0
    endloop
  endfacet
  facet normal 0 0 -1
    outer loop
      vertex 2.90848 -16.0394 0
      vertex 6.70737 -16.439 0
      vertex 6.42387 -17.3732 0
    endloop
  endfacet
  facet normal 0 0 -1
    outer loop
      vertex 3.15512 -11.613 0
      vertex 7.0291 -11.967 0
      vertex 3.22256 -12.352 0
    endloop
  endfacet
  facet normal 0 0 -1
    outer loop
      vertex 2.90848 -16.0394 0
      vertex 6.42387 -17.3732 0
      vertex 6.0594 -18.2271 0
    endloop
  endfacet
  facet normal 0 0 -1
    outer loop
      vertex 7.0291 -11.967 0
      vertex 3.15512 -11.613 0
      vertex 6.90091 -10.8683 0
    endloop
  endfacet
  facet normal 0 0 -1
    outer loop
      vertex 2.48776 -17.1209 0
      vertex 6.0594 -18.2271 0
      vertex 5.61394 -19.0009 0
    endloop
  endfacet
  facet normal 0 0 -1
    outer loop
      vertex 3.04271 -10.9384 0
      vertex 6.90091 -10.8683 0
      vertex 3.15512 -11.613 0
    endloop
  endfacet
  facet normal 0 0 -1
    outer loop
      vertex 2.48776 -17.1209 0
      vertex 5.61394 -19.0009 0
      vertex 5.08748 -19.6944 0
    endloop
  endfacet
  facet normal -0 0 -1
    outer loop
      vertex 6.90091 -10.8683 0
      vertex 3.04271 -10.9384 0
      vertex 6.68726 -9.85922 0
    endloop
  endfacet
  facet normal 0 0 -1
    outer loop
      vertex 1.89876 -17.9621 0
      vertex 5.08748 -19.6944 0
      vertex 4.48613 -20.3011 0
    endloop
  endfacet
  facet normal 0 0 -1
    outer loop
      vertex 2.88533 -10.3283 0
      vertex 6.68726 -9.85922 0
      vertex 3.04271 -10.9384 0
    endloop
  endfacet
  facet normal 0 0 -1
    outer loop
      vertex 1.89876 -17.9621 0
      vertex 4.48613 -20.3011 0
      vertex 3.81589 -20.8145 0
    endloop
  endfacet
  facet normal -0 0 -1
    outer loop
      vertex 6.68726 -9.85922 0
      vertex 2.88533 -10.3283 0
      vertex 6.38814 -8.93985 0
    endloop
  endfacet
  facet normal 0 0 -1
    outer loop
      vertex 2.683 -9.78253 0
      vertex 6.38814 -8.93985 0
      vertex 2.88533 -10.3283 0
    endloop
  endfacet
  facet normal -0 0 -1
    outer loop
      vertex 7.03134 -14.3301 0
      vertex 3.1609 -14.7176 0
      vertex 3.24504 -13.1554 0
    endloop
  endfacet
  facet normal 0 0 -1
    outer loop
      vertex 1.89876 -17.9621 0
      vertex 3.81589 -20.8145 0
      vertex 3.07675 -21.2345 0
    endloop
  endfacet
  facet normal 0 0 -1
    outer loop
      vertex 6.70737 -16.439 0
      vertex 2.90848 -16.0394 0
      vertex 3.1609 -14.7176 0
    endloop
  endfacet
  facet normal 0 0 -1
    outer loop
      vertex 6.0594 -18.2271 0
      vertex 2.48776 -17.1209 0
      vertex 2.90848 -16.0394 0
    endloop
  endfacet
  facet normal 0 0 -1
    outer loop
      vertex 1.14148 -18.563 0
      vertex 3.07675 -21.2345 0
      vertex 2.26874 -21.5612 0
    endloop
  endfacet
  facet normal 0 0 -1
    outer loop
      vertex 5.08748 -19.6944 0
      vertex 1.89876 -17.9621 0
      vertex 2.48776 -17.1209 0
    endloop
  endfacet
  facet normal 0 0 -1
    outer loop
      vertex 1.14148 -18.563 0
      vertex 2.26874 -21.5612 0
      vertex 1.39185 -21.7946 0
    endloop
  endfacet
  facet normal 0 0 -1
    outer loop
      vertex 3.07675 -21.2345 0
      vertex 1.14148 -18.563 0
      vertex 1.89876 -17.9621 0
    endloop
  endfacet
  facet normal 0 0 -1
    outer loop
      vertex 0.215897 -18.9235 0
      vertex 1.39185 -21.7946 0
      vertex 0.446045 -21.9346 0
    endloop
  endfacet
  facet normal 0 0 -1
    outer loop
      vertex 1.39185 -21.7946 0
      vertex 0.215897 -18.9235 0
      vertex 1.14148 -18.563 0
    endloop
  endfacet
  facet normal 0 0 -1
    outer loop
      vertex -0.568619 -21.9812 0
      vertex 0.215897 -18.9235 0
      vertex 0.446045 -21.9346 0
    endloop
  endfacet
  facet normal 0 0 -1
    outer loop
      vertex -0.568619 -21.9812 0
      vertex -0.877945 -19.0437 0
      vertex 0.215897 -18.9235 0
    endloop
  endfacet
  facet normal 0 0 -1
    outer loop
      vertex -0.568619 -21.9812 0
      vertex -2.19217 -19.0437 0
      vertex -0.877945 -19.0437 0
    endloop
  endfacet
  facet normal -0 0 -1
    outer loop
      vertex -2.19217 -19.0437 0
      vertex -5.99294 -21.9812 0
      vertex -2.19217 -7.53783 0
    endloop
  endfacet
  facet normal 0 0 -1
    outer loop
      vertex -5.99294 -21.9812 0
      vertex -2.19217 -19.0437 0
      vertex -0.568619 -21.9812 0
    endloop
  endfacet
  facet normal -0 0 -1
    outer loop
      vertex 6.38814 -8.93985 0
      vertex 2.683 -9.78253 0
      vertex 6.00357 -8.11012 0
    endloop
  endfacet
  facet normal -0 0 -1
    outer loop
      vertex 6.00357 -8.11012 0
      vertex 2.683 -9.78253 0
      vertex 5.53354 -7.37007 0
    endloop
  endfacet
  facet normal 0 0 -1
    outer loop
      vertex 2.43568 -9.30124 0
      vertex 5.53354 -7.37007 0
      vertex 2.683 -9.78253 0
    endloop
  endfacet
  facet normal -0 0 -1
    outer loop
      vertex 5.53354 -7.37007 0
      vertex 2.43568 -9.30124 0
      vertex 4.97803 -6.71968 0
    endloop
  endfacet
  facet normal 0 0 -1
    outer loop
      vertex 2.14342 -8.88435 0
      vertex 4.97803 -6.71968 0
      vertex 2.43568 -9.30124 0
    endloop
  endfacet
  facet normal -0 0 -1
    outer loop
      vertex 4.97803 -6.71968 0
      vertex 2.14342 -8.88435 0
      vertex 4.33633 -6.15738 0
    endloop
  endfacet
  facet normal 0 0 -1
    outer loop
      vertex 1.80119 -8.52711 0
      vertex 4.33633 -6.15738 0
      vertex 2.14342 -8.88435 0
    endloop
  endfacet
  facet normal -0 0 -1
    outer loop
      vertex 4.33633 -6.15738 0
      vertex 1.80119 -8.52711 0
      vertex 3.6076 -5.68158 0
    endloop
  endfacet
  facet normal 0 0 -1
    outer loop
      vertex 1.40402 -8.22482 0
      vertex 3.6076 -5.68158 0
      vertex 1.80119 -8.52711 0
    endloop
  endfacet
  facet normal -0 0 -1
    outer loop
      vertex 3.6076 -5.68158 0
      vertex 1.40402 -8.22482 0
      vertex 2.79182 -5.2923 0
    endloop
  endfacet
  facet normal 0 0 -1
    outer loop
      vertex 0.951889 -7.97751 0
      vertex 2.79182 -5.2923 0
      vertex 1.40402 -8.22482 0
    endloop
  endfacet
  facet normal -0 0 -1
    outer loop
      vertex 2.79182 -5.2923 0
      vertex 0.951889 -7.97751 0
      vertex 1.88899 -4.98953 0
    endloop
  endfacet
  facet normal 0 0 -1
    outer loop
      vertex 0.444809 -7.78514 0
      vertex 1.88899 -4.98953 0
      vertex 0.951889 -7.97751 0
    endloop
  endfacet
  facet normal -0 0 -1
    outer loop
      vertex 1.88899 -4.98953 0
      vertex 0.444809 -7.78514 0
      vertex 0.899124 -4.77327 0
    endloop
  endfacet
  facet normal 0 0 -1
    outer loop
      vertex -0.117218 -7.64774 0
      vertex 0.899124 -4.77327 0
      vertex 0.444809 -7.78514 0
    endloop
  endfacet
  facet normal 0 0 -1
    outer loop
      vertex -0.117218 -7.64774 0
      vertex -0.17778 -4.64351 0
      vertex 0.899124 -4.77327 0
    endloop
  endfacet
  facet normal 0 0 -1
    outer loop
      vertex -0.734192 -7.56531 0
      vertex -0.17778 -4.64351 0
      vertex -0.117218 -7.64774 0
    endloop
  endfacet
  facet normal 0 0 -1
    outer loop
      vertex -0.734192 -7.56531 0
      vertex -1.34174 -4.60025 0
      vertex -0.17778 -4.64351 0
    endloop
  endfacet
  facet normal 0 0 -1
    outer loop
      vertex -1.40614 -7.53783 0
      vertex -1.34174 -4.60025 0
      vertex -0.734192 -7.56531 0
    endloop
  endfacet
  facet normal 0 0 -1
    outer loop
      vertex -2.19217 -7.53783 0
      vertex -1.34174 -4.60025 0
      vertex -1.40614 -7.53783 0
    endloop
  endfacet
  facet normal 0 0 -1
    outer loop
      vertex -2.19217 -7.53783 0
      vertex -5.99294 -4.60025 0
      vertex -1.34174 -4.60025 0
    endloop
  endfacet
  facet normal 0 0 -1
    outer loop
      vertex -5.99294 -4.60025 0
      vertex -2.19217 -7.53783 0
      vertex -5.99294 -21.9812 0
    endloop
  endfacet
  facet normal 0 0 1
    outer loop
      vertex 7.07184 -13.1554 1
      vertex 3.22256 -12.352 1
      vertex 3.24504 -13.1554 1
    endloop
  endfacet
  facet normal 0 0 1
    outer loop
      vertex 4.33633 -6.15738 1
      vertex 3.15512 -11.613 1
      vertex 3.22256 -12.352 1
    endloop
  endfacet
  facet normal 0 0 1
    outer loop
      vertex 4.33633 -6.15738 1
      vertex 3.04271 -10.9384 1
      vertex 3.15512 -11.613 1
    endloop
  endfacet
  facet normal 0 0 1
    outer loop
      vertex 4.33633 -6.15738 1
      vertex 2.88533 -10.3283 1
      vertex 3.04271 -10.9384 1
    endloop
  endfacet
  facet normal 0 0 1
    outer loop
      vertex 1.40402 -8.22482 1
      vertex 3.6076 -5.68158 1
      vertex 2.79182 -5.2923 1
    endloop
  endfacet
  facet normal 0 0 1
    outer loop
      vertex 4.33633 -6.15738 1
      vertex 2.683 -9.78253 1
      vertex 2.88533 -10.3283 1
    endloop
  endfacet
  facet normal 0 0 1
    outer loop
      vertex 4.33633 -6.15738 1
      vertex 2.43568 -9.30124 1
      vertex 2.683 -9.78253 1
    endloop
  endfacet
  facet normal 0 0 1
    outer loop
      vertex 4.33633 -6.15738 1
      vertex 2.14342 -8.88435 1
      vertex 2.43568 -9.30124 1
    endloop
  endfacet
  facet normal 0 0 1
    outer loop
      vertex 0.951889 -7.97751 1
      vertex 2.79182 -5.2923 1
      vertex 1.88899 -4.98953 1
    endloop
  endfacet
  facet normal 0 0 1
    outer loop
      vertex 4.33633 -6.15738 1
      vertex 1.80119 -8.52711 1
      vertex 2.14342 -8.88435 1
    endloop
  endfacet
  facet normal 0 0 1
    outer loop
      vertex 3.6076 -5.68158 1
      vertex 1.40402 -8.22482 1
      vertex 1.80119 -8.52711 1
    endloop
  endfacet
  facet normal 0 0 1
    outer loop
      vertex 2.79182 -5.2923 1
      vertex 0.951889 -7.97751 1
      vertex 1.40402 -8.22482 1
    endloop
  endfacet
  facet normal 0 0 1
    outer loop
      vertex 0.444809 -7.78514 1
      vertex 1.88899 -4.98953 1
      vertex 0.899124 -4.77327 1
    endloop
  endfacet
  facet normal 0 0 1
    outer loop
      vertex 1.88899 -4.98953 1
      vertex 0.444809 -7.78514 1
      vertex 0.951889 -7.97751 1
    endloop
  endfacet
  facet normal 0 0 1
    outer loop
      vertex 0.899124 -4.77327 1
      vertex -0.117218 -7.64774 1
      vertex 0.444809 -7.78514 1
    endloop
  endfacet
  facet normal 0 0 1
    outer loop
      vertex -0.17778 -4.64351 1
      vertex -0.117218 -7.64774 1
      vertex 0.899124 -4.77327 1
    endloop
  endfacet
  facet normal 0 0 1
    outer loop
      vertex -0.17778 -4.64351 1
      vertex -0.734192 -7.56531 1
      vertex -0.117218 -7.64774 1
    endloop
  endfacet
  facet normal 0 0 1
    outer loop
      vertex -1.34174 -4.60025 1
      vertex -0.734192 -7.56531 1
      vertex -0.17778 -4.64351 1
    endloop
  endfacet
  facet normal 0 0 1
    outer loop
      vertex -1.34174 -4.60025 1
      vertex -1.40614 -7.53783 1
      vertex -0.734192 -7.56531 1
    endloop
  endfacet
  facet normal 0 0 1
    outer loop
      vertex -1.34174 -4.60025 1
      vertex -2.19217 -7.53783 1
      vertex -1.40614 -7.53783 1
    endloop
  endfacet
  facet normal 0 0 1
    outer loop
      vertex -2.19217 -7.53783 1
      vertex -5.99294 -4.60025 1
      vertex -2.19217 -19.0437 1
    endloop
  endfacet
  facet normal -0 0 1
    outer loop
      vertex -5.99294 -4.60025 1
      vertex -2.19217 -7.53783 1
      vertex -1.34174 -4.60025 1
    endloop
  endfacet
  facet normal -0 0 1
    outer loop
      vertex 3.22256 -12.352 1
      vertex 7.07184 -13.1554 1
      vertex 7.0291 -11.967 1
    endloop
  endfacet
  facet normal 0 0 1
    outer loop
      vertex 7.07184 -13.1554 1
      vertex 3.24504 -13.1554 1
      vertex 7.03134 -14.3301 1
    endloop
  endfacet
  facet normal 0 0 1
    outer loop
      vertex 3.22256 -12.352 1
      vertex 7.0291 -11.967 1
      vertex 6.90091 -10.8683 1
    endloop
  endfacet
  facet normal 0 0 1
    outer loop
      vertex 3.1609 -14.7176 1
      vertex 7.03134 -14.3301 1
      vertex 3.24504 -13.1554 1
    endloop
  endfacet
  facet normal 0 0 1
    outer loop
      vertex 3.22256 -12.352 1
      vertex 6.90091 -10.8683 1
      vertex 6.68726 -9.85922 1
    endloop
  endfacet
  facet normal 0 0 1
    outer loop
      vertex 7.03134 -14.3301 1
      vertex 3.1609 -14.7176 1
      vertex 6.90985 -15.4247 1
    endloop
  endfacet
  facet normal 0 0 1
    outer loop
      vertex 3.22256 -12.352 1
      vertex 6.68726 -9.85922 1
      vertex 6.38814 -8.93985 1
    endloop
  endfacet
  facet normal 0 0 1
    outer loop
      vertex 6.90985 -15.4247 1
      vertex 3.1609 -14.7176 1
      vertex 6.70737 -16.439 1
    endloop
  endfacet
  facet normal 0 0 1
    outer loop
      vertex 3.22256 -12.352 1
      vertex 6.38814 -8.93985 1
      vertex 6.00357 -8.11012 1
    endloop
  endfacet
  facet normal -0 0 1
    outer loop
      vertex 2.90848 -16.0394 1
      vertex 6.70737 -16.439 1
      vertex 3.1609 -14.7176 1
    endloop
  endfacet
  facet normal 0 0 1
    outer loop
      vertex 3.22256 -12.352 1
      vertex 6.00357 -8.11012 1
      vertex 5.53354 -7.37007 1
    endloop
  endfacet
  facet normal 0 0 1
    outer loop
      vertex 6.70737 -16.439 1
      vertex 2.90848 -16.0394 1
      vertex 6.42387 -17.3732 1
    endloop
  endfacet
  facet normal 0 0 1
    outer loop
      vertex 3.22256 -12.352 1
      vertex 5.53354 -7.37007 1
      vertex 4.97803 -6.71968 1
    endloop
  endfacet
  facet normal 0 0 1
    outer loop
      vertex 6.42387 -17.3732 1
      vertex 2.90848 -16.0394 1
      vertex 6.0594 -18.2271 1
    endloop
  endfacet
  facet normal 0 0 1
    outer loop
      vertex 3.22256 -12.352 1
      vertex 4.97803 -6.71968 1
      vertex 4.33633 -6.15738 1
    endloop
  endfacet
  facet normal -0 0 1
    outer loop
      vertex 2.48776 -17.1209 1
      vertex 6.0594 -18.2271 1
      vertex 2.90848 -16.0394 1
    endloop
  endfacet
  facet normal 0 0 1
    outer loop
      vertex 1.80119 -8.52711 1
      vertex 4.33633 -6.15738 1
      vertex 3.6076 -5.68158 1
    endloop
  endfacet
  facet normal 0 0 1
    outer loop
      vertex 6.0594 -18.2271 1
      vertex 2.48776 -17.1209 1
      vertex 5.61394 -19.0009 1
    endloop
  endfacet
  facet normal 0 0 1
    outer loop
      vertex 5.61394 -19.0009 1
      vertex 2.48776 -17.1209 1
      vertex 5.08748 -19.6944 1
    endloop
  endfacet
  facet normal -0 0 1
    outer loop
      vertex 1.89876 -17.9621 1
      vertex 5.08748 -19.6944 1
      vertex 2.48776 -17.1209 1
    endloop
  endfacet
  facet normal 0 0 1
    outer loop
      vertex 5.08748 -19.6944 1
      vertex 1.89876 -17.9621 1
      vertex 4.48613 -20.3011 1
    endloop
  endfacet
  facet normal 0 0 1
    outer loop
      vertex 4.48613 -20.3011 1
      vertex 1.89876 -17.9621 1
      vertex 3.81589 -20.8145 1
    endloop
  endfacet
  facet normal 0 0 1
    outer loop
      vertex 3.81589 -20.8145 1
      vertex 1.89876 -17.9621 1
      vertex 3.07675 -21.2345 1
    endloop
  endfacet
  facet normal -0 0 1
    outer loop
      vertex 1.14148 -18.563 1
      vertex 3.07675 -21.2345 1
      vertex 1.89876 -17.9621 1
    endloop
  endfacet
  facet normal 0 0 1
    outer loop
      vertex 3.07675 -21.2345 1
      vertex 1.14148 -18.563 1
      vertex 2.26874 -21.5612 1
    endloop
  endfacet
  facet normal 0 0 1
    outer loop
      vertex 2.26874 -21.5612 1
      vertex 1.14148 -18.563 1
      vertex 1.39185 -21.7946 1
    endloop
  endfacet
  facet normal -0 0 1
    outer loop
      vertex 0.215897 -18.9235 1
      vertex 1.39185 -21.7946 1
      vertex 1.14148 -18.563 1
    endloop
  endfacet
  facet normal 0 0 1
    outer loop
      vertex 1.39185 -21.7946 1
      vertex 0.215897 -18.9235 1
      vertex 0.446045 -21.9346 1
    endloop
  endfacet
  facet normal 0 0 1
    outer loop
      vertex 0.215897 -18.9235 1
      vertex -0.568619 -21.9812 1
      vertex 0.446045 -21.9346 1
    endloop
  endfacet
  facet normal -0 0 1
    outer loop
      vertex -0.877945 -19.0437 1
      vertex -0.568619 -21.9812 1
      vertex 0.215897 -18.9235 1
    endloop
  endfacet
  facet normal -0 0 1
    outer loop
      vertex -2.19217 -19.0437 1
      vertex -0.568619 -21.9812 1
      vertex -0.877945 -19.0437 1
    endloop
  endfacet
  facet normal 0 0 1
    outer loop
      vertex -2.19217 -19.0437 1
      vertex -5.99294 -21.9812 1
      vertex -0.568619 -21.9812 1
    endloop
  endfacet
  facet normal 0 0 1
    outer loop
      vertex -5.99294 -21.9812 1
      vertex -2.19217 -19.0437 1
      vertex -5.99294 -4.60025 1
    endloop
  endfacet
  facet normal 0.146427 -0.989222 0
    outer loop
      vertex 0.446045 -21.9346 0
      vertex 1.39185 -21.7946 1
      vertex 0.446045 -21.9346 1
    endloop
  endfacet
  facet normal 0.146427 -0.989222 0
    outer loop
      vertex 1.39185 -21.7946 1
      vertex 0.446045 -21.9346 0
      vertex 1.39185 -21.7946 0
    endloop
  endfacet
  facet normal 0.257213 -0.966355 0
    outer loop
      vertex 1.39185 -21.7946 0
      vertex 2.26874 -21.5612 1
      vertex 1.39185 -21.7946 1
    endloop
  endfacet
  facet normal 0.257213 -0.966355 0
    outer loop
      vertex 2.26874 -21.5612 1
      vertex 1.39185 -21.7946 0
      vertex 2.26874 -21.5612 0
    endloop
  endfacet
  facet normal 0.374846 -0.927087 0
    outer loop
      vertex 2.26874 -21.5612 0
      vertex 3.07675 -21.2345 1
      vertex 2.26874 -21.5612 1
    endloop
  endfacet
  facet normal 0.374846 -0.927087 0
    outer loop
      vertex 3.07675 -21.2345 1
      vertex 2.26874 -21.5612 0
      vertex 3.07675 -21.2345 0
    endloop
  endfacet
  facet normal 0.49404 -0.869439 0
    outer loop
      vertex 3.07675 -21.2345 0
      vertex 3.81589 -20.8145 1
      vertex 3.07675 -21.2345 1
    endloop
  endfacet
  facet normal 0.49404 -0.869439 0
    outer loop
      vertex 3.81589 -20.8145 1
      vertex 3.07675 -21.2345 0
      vertex 3.81589 -20.8145 0
    endloop
  endfacet
  facet normal 0.608095 -0.793864 0
    outer loop
      vertex 3.81589 -20.8145 0
      vertex 4.48613 -20.3011 1
      vertex 3.81589 -20.8145 1
    endloop
  endfacet
  facet normal 0.608095 -0.793864 0
    outer loop
      vertex 4.48613 -20.3011 1
      vertex 3.81589 -20.8145 0
      vertex 4.48613 -20.3011 0
    endloop
  endfacet
  facet normal 0.710231 -0.703968 0
    outer loop
      vertex 4.48613 -20.3011 1
      vertex 5.08748 -19.6944 0
      vertex 5.08748 -19.6944 1
    endloop
  endfacet
  facet normal 0.710231 -0.703968 0
    outer loop
      vertex 5.08748 -19.6944 0
      vertex 4.48613 -20.3011 1
      vertex 4.48613 -20.3011 0
    endloop
  endfacet
  facet normal 0.796494 -0.604646 0
    outer loop
      vertex 5.08748 -19.6944 1
      vertex 5.61394 -19.0009 0
      vertex 5.61394 -19.0009 1
    endloop
  endfacet
  facet normal 0.796494 -0.604646 0
    outer loop
      vertex 5.61394 -19.0009 0
      vertex 5.08748 -19.6944 1
      vertex 5.08748 -19.6944 0
    endloop
  endfacet
  facet normal 0.866652 -0.498913 0
    outer loop
      vertex 5.61394 -19.0009 1
      vertex 6.0594 -18.2271 0
      vertex 6.0594 -18.2271 1
    endloop
  endfacet
  facet normal 0.866652 -0.498913 0
    outer loop
      vertex 6.0594 -18.2271 0
      vertex 5.61394 -19.0009 1
      vertex 5.61394 -19.0009 0
    endloop
  endfacet
  facet normal 0.919724 -0.392566 0
    outer loop
      vertex 6.0594 -18.2271 1
      vertex 6.42387 -17.3732 0
      vertex 6.42387 -17.3732 1
    endloop
  endfacet
  facet normal 0.919724 -0.392566 0
    outer loop
      vertex 6.42387 -17.3732 0
      vertex 6.0594 -18.2271 1
      vertex 6.0594 -18.2271 0
    endloop
  endfacet
  facet normal 0.956908 -0.290391 0
    outer loop
      vertex 6.42387 -17.3732 1
      vertex 6.70737 -16.439 0
      vertex 6.70737 -16.439 1
    endloop
  endfacet
  facet normal 0.956908 -0.290391 0
    outer loop
      vertex 6.70737 -16.439 0
      vertex 6.42387 -17.3732 1
      vertex 6.42387 -17.3732 0
    endloop
  endfacet
  facet normal 0.980651 -0.195763 0
    outer loop
      vertex 6.70737 -16.439 1
      vertex 6.90985 -15.4247 0
      vertex 6.90985 -15.4247 1
    endloop
  endfacet
  facet normal 0.980651 -0.195763 0
    outer loop
      vertex 6.90985 -15.4247 0
      vertex 6.70737 -16.439 1
      vertex 6.70737 -16.439 0
    endloop
  endfacet
  facet normal 0.993897 -0.110313 0
    outer loop
      vertex 6.90985 -15.4247 1
      vertex 7.03134 -14.3301 0
      vertex 7.03134 -14.3301 1
    endloop
  endfacet
  facet normal 0.993897 -0.110313 0
    outer loop
      vertex 7.03134 -14.3301 0
      vertex 6.90985 -15.4247 1
      vertex 6.90985 -15.4247 0
    endloop
  endfacet
  facet normal 0.999406 -0.0344564 0
    outer loop
      vertex 7.03134 -14.3301 1
      vertex 7.07184 -13.1554 0
      vertex 7.07184 -13.1554 1
    endloop
  endfacet
  facet normal 0.999406 -0.0344564 0
    outer loop
      vertex 7.07184 -13.1554 0
      vertex 7.03134 -14.3301 1
      vertex 7.03134 -14.3301 0
    endloop
  endfacet
  facet normal 0.999354 0.0359411 0
    outer loop
      vertex 7.07184 -13.1554 1
      vertex 7.0291 -11.967 0
      vertex 7.0291 -11.967 1
    endloop
  endfacet
  facet normal 0.999354 0.0359411 0
    outer loop
      vertex 7.0291 -11.967 0
      vertex 7.07184 -13.1554 1
      vertex 7.07184 -13.1554 0
    endloop
  endfacet
  facet normal 0.993262 0.115888 0
    outer loop
      vertex 7.0291 -11.967 1
      vertex 6.90091 -10.8683 0
      vertex 6.90091 -10.8683 1
    endloop
  endfacet
  facet normal 0.993262 0.115888 0
    outer loop
      vertex 6.90091 -10.8683 0
      vertex 7.0291 -11.967 1
      vertex 7.0291 -11.967 0
    endloop
  endfacet
  facet normal 0.978312 0.207136 0
    outer loop
      vertex 6.90091 -10.8683 1
      vertex 6.68726 -9.85922 0
      vertex 6.68726 -9.85922 1
    endloop
  endfacet
  facet normal 0.978312 0.207136 0
    outer loop
      vertex 6.68726 -9.85922 0
      vertex 6.90091 -10.8683 1
      vertex 6.90091 -10.8683 0
    endloop
  endfacet
  facet normal 0.950935 0.30939 0
    outer loop
      vertex 6.68726 -9.85922 1
      vertex 6.38814 -8.93985 0
      vertex 6.38814 -8.93985 1
    endloop
  endfacet
  facet normal 0.950935 0.30939 0
    outer loop
      vertex 6.38814 -8.93985 0
      vertex 6.68726 -9.85922 1
      vertex 6.68726 -9.85922 0
    endloop
  endfacet
  facet normal 0.907285 0.420516 0
    outer loop
      vertex 6.38814 -8.93985 1
      vertex 6.00357 -8.11012 0
      vertex 6.00357 -8.11012 1
    endloop
  endfacet
  facet normal 0.907285 0.420516 0
    outer loop
      vertex 6.00357 -8.11012 0
      vertex 6.38814 -8.93985 1
      vertex 6.38814 -8.93985 0
    endloop
  endfacet
  facet normal 0.844132 0.536136 0
    outer loop
      vertex 6.00357 -8.11012 1
      vertex 5.53354 -7.37007 0
      vertex 5.53354 -7.37007 1
    endloop
  endfacet
  facet normal 0.844132 0.536136 0
    outer loop
      vertex 5.53354 -7.37007 0
      vertex 6.00357 -8.11012 1
      vertex 6.00357 -8.11012 0
    endloop
  endfacet
  facet normal 0.760392 0.649465 0
    outer loop
      vertex 5.53354 -7.37007 1
      vertex 4.97803 -6.71968 0
      vertex 4.97803 -6.71968 1
    endloop
  endfacet
  facet normal 0.760392 0.649465 0
    outer loop
      vertex 4.97803 -6.71968 0
      vertex 5.53354 -7.37007 1
      vertex 5.53354 -7.37007 0
    endloop
  endfacet
  facet normal 0.659044 0.752105 -0
    outer loop
      vertex 4.97803 -6.71968 0
      vertex 4.33633 -6.15738 1
      vertex 4.97803 -6.71968 1
    endloop
  endfacet
  facet normal 0.659044 0.752105 0
    outer loop
      vertex 4.33633 -6.15738 1
      vertex 4.97803 -6.71968 0
      vertex 4.33633 -6.15738 0
    endloop
  endfacet
  facet normal 0.546704 0.837326 -0
    outer loop
      vertex 4.33633 -6.15738 0
      vertex 3.6076 -5.68158 1
      vertex 4.33633 -6.15738 1
    endloop
  endfacet
  facet normal 0.546704 0.837326 0
    outer loop
      vertex 3.6076 -5.68158 1
      vertex 4.33633 -6.15738 0
      vertex 3.6076 -5.68158 0
    endloop
  endfacet
  facet normal 0.430667 0.902511 -0
    outer loop
      vertex 3.6076 -5.68158 0
      vertex 2.79182 -5.2923 1
      vertex 3.6076 -5.68158 1
    endloop
  endfacet
  facet normal 0.430667 0.902511 0
    outer loop
      vertex 2.79182 -5.2923 1
      vertex 3.6076 -5.68158 0
      vertex 2.79182 -5.2923 0
    endloop
  endfacet
  facet normal 0.317954 0.948106 -0
    outer loop
      vertex 2.79182 -5.2923 0
      vertex 1.88899 -4.98953 1
      vertex 2.79182 -5.2923 1
    endloop
  endfacet
  facet normal 0.317954 0.948106 0
    outer loop
      vertex 1.88899 -4.98953 1
      vertex 2.79182 -5.2923 0
      vertex 1.88899 -4.98953 0
    endloop
  endfacet
  facet normal 0.21344 0.976956 -0
    outer loop
      vertex 1.88899 -4.98953 0
      vertex 0.899124 -4.77327 1
      vertex 1.88899 -4.98953 1
    endloop
  endfacet
  facet normal 0.21344 0.976956 0
    outer loop
      vertex 0.899124 -4.77327 1
      vertex 1.88899 -4.98953 0
      vertex 0.899124 -4.77327 0
    endloop
  endfacet
  facet normal 0.119628 0.992819 -0
    outer loop
      vertex 0.899124 -4.77327 0
      vertex -0.17778 -4.64351 1
      vertex 0.899124 -4.77327 1
    endloop
  endfacet
  facet normal 0.119628 0.992819 0
    outer loop
      vertex -0.17778 -4.64351 1
      vertex 0.899124 -4.77327 0
      vertex -0.17778 -4.64351 0
    endloop
  endfacet
  facet normal 0.0371406 0.99931 -0
    outer loop
      vertex -0.17778 -4.64351 0
      vertex -1.34174 -4.60025 1
      vertex -0.17778 -4.64351 1
    endloop
  endfacet
  facet normal 0.0371406 0.99931 0
    outer loop
      vertex -1.34174 -4.60025 1
      vertex -0.17778 -4.64351 0
      vertex -1.34174 -4.60025 0
    endloop
  endfacet
  facet normal 0 1 -0
    outer loop
      vertex -1.34174 -4.60025 0
      vertex -5.99294 -4.60025 1
      vertex -1.34174 -4.60025 1
    endloop
  endfacet
  facet normal 0 1 0
    outer loop
      vertex -5.99294 -4.60025 1
      vertex -1.34174 -4.60025 0
      vertex -5.99294 -4.60025 0
    endloop
  endfacet
  facet normal -1 0 0
    outer loop
      vertex -5.99294 -21.9812 0
      vertex -5.99294 -4.60025 1
      vertex -5.99294 -4.60025 0
    endloop
  endfacet
  facet normal -1 -0 0
    outer loop
      vertex -5.99294 -4.60025 1
      vertex -5.99294 -21.9812 0
      vertex -5.99294 -21.9812 1
    endloop
  endfacet
  facet normal 0 -1 0
    outer loop
      vertex -5.99294 -21.9812 0
      vertex -0.568619 -21.9812 1
      vertex -5.99294 -21.9812 1
    endloop
  endfacet
  facet normal 0 -1 -0
    outer loop
      vertex -0.568619 -21.9812 1
      vertex -5.99294 -21.9812 0
      vertex -0.568619 -21.9812 0
    endloop
  endfacet
  facet normal 0.0458782 -0.998947 0
    outer loop
      vertex -0.568619 -21.9812 0
      vertex 0.446045 -21.9346 1
      vertex -0.568619 -21.9812 1
    endloop
  endfacet
  facet normal 0.0458782 -0.998947 0
    outer loop
      vertex 0.446045 -21.9346 1
      vertex -0.568619 -21.9812 0
      vertex 0.446045 -21.9346 0
    endloop
  endfacet
  facet normal 1 -0 0
    outer loop
      vertex -2.19217 -19.0437 1
      vertex -2.19217 -7.53783 0
      vertex -2.19217 -7.53783 1
    endloop
  endfacet
  facet normal 1 0 0
    outer loop
      vertex -2.19217 -7.53783 0
      vertex -2.19217 -19.0437 1
      vertex -2.19217 -19.0437 0
    endloop
  endfacet
  facet normal 0 -1 0
    outer loop
      vertex -2.19217 -7.53783 0
      vertex -1.40614 -7.53783 1
      vertex -2.19217 -7.53783 1
    endloop
  endfacet
  facet normal 0 -1 -0
    outer loop
      vertex -1.40614 -7.53783 1
      vertex -2.19217 -7.53783 0
      vertex -1.40614 -7.53783 0
    endloop
  endfacet
  facet normal -0.0408619 -0.999165 0
    outer loop
      vertex -1.40614 -7.53783 0
      vertex -0.734192 -7.56531 1
      vertex -1.40614 -7.53783 1
    endloop
  endfacet
  facet normal -0.0408619 -0.999165 -0
    outer loop
      vertex -0.734192 -7.56531 1
      vertex -1.40614 -7.53783 0
      vertex -0.734192 -7.56531 0
    endloop
  endfacet
  facet normal -0.132427 -0.991193 0
    outer loop
      vertex -0.734192 -7.56531 0
      vertex -0.117218 -7.64774 1
      vertex -0.734192 -7.56531 1
    endloop
  endfacet
  facet normal -0.132427 -0.991193 -0
    outer loop
      vertex -0.117218 -7.64774 1
      vertex -0.734192 -7.56531 0
      vertex -0.117218 -7.64774 0
    endloop
  endfacet
  facet normal -0.237479 -0.971393 0
    outer loop
      vertex -0.117218 -7.64774 0
      vertex 0.444809 -7.78514 1
      vertex -0.117218 -7.64774 1
    endloop
  endfacet
  facet normal -0.237479 -0.971393 -0
    outer loop
      vertex 0.444809 -7.78514 1
      vertex -0.117218 -7.64774 0
      vertex 0.444809 -7.78514 0
    endloop
  endfacet
  facet normal -0.354701 -0.93498 0
    outer loop
      vertex 0.444809 -7.78514 0
      vertex 0.951889 -7.97751 1
      vertex 0.444809 -7.78514 1
    endloop
  endfacet
  facet normal -0.354701 -0.93498 -0
    outer loop
      vertex 0.951889 -7.97751 1
      vertex 0.444809 -7.78514 0
      vertex 0.951889 -7.97751 0
    endloop
  endfacet
  facet normal -0.479888 -0.87733 0
    outer loop
      vertex 0.951889 -7.97751 0
      vertex 1.40402 -8.22482 1
      vertex 0.951889 -7.97751 1
    endloop
  endfacet
  facet normal -0.479888 -0.87733 -0
    outer loop
      vertex 1.40402 -8.22482 1
      vertex 0.951889 -7.97751 0
      vertex 1.40402 -8.22482 0
    endloop
  endfacet
  facet normal -0.605643 -0.795737 0
    outer loop
      vertex 1.40402 -8.22482 0
      vertex 1.80119 -8.52711 1
      vertex 1.40402 -8.22482 1
    endloop
  endfacet
  facet normal -0.605643 -0.795737 -0
    outer loop
      vertex 1.80119 -8.52711 1
      vertex 1.40402 -8.22482 0
      vertex 1.80119 -8.52711 0
    endloop
  endfacet
  facet normal -0.722114 -0.691774 0
    outer loop
      vertex 2.14342 -8.88435 0
      vertex 1.80119 -8.52711 1
      vertex 1.80119 -8.52711 0
    endloop
  endfacet
  facet normal -0.722114 -0.691774 0
    outer loop
      vertex 1.80119 -8.52711 1
      vertex 2.14342 -8.88435 0
      vertex 2.14342 -8.88435 1
    endloop
  endfacet
  facet normal -0.818828 -0.574038 0
    outer loop
      vertex 2.43568 -9.30124 0
      vertex 2.14342 -8.88435 1
      vertex 2.14342 -8.88435 0
    endloop
  endfacet
  facet normal -0.818828 -0.574038 0
    outer loop
      vertex 2.14342 -8.88435 1
      vertex 2.43568 -9.30124 0
      vertex 2.43568 -9.30124 1
    endloop
  endfacet
  facet normal -0.889439 -0.457055 0
    outer loop
      vertex 2.683 -9.78253 0
      vertex 2.43568 -9.30124 1
      vertex 2.43568 -9.30124 0
    endloop
  endfacet
  facet normal -0.889439 -0.457055 0
    outer loop
      vertex 2.43568 -9.30124 1
      vertex 2.683 -9.78253 0
      vertex 2.683 -9.78253 1
    endloop
  endfacet
  facet normal -0.937641 -0.347606 0
    outer loop
      vertex 2.88533 -10.3283 0
      vertex 2.683 -9.78253 1
      vertex 2.683 -9.78253 0
    endloop
  endfacet
  facet normal -0.937641 -0.347606 0
    outer loop
      vertex 2.683 -9.78253 1
      vertex 2.88533 -10.3283 0
      vertex 2.88533 -10.3283 1
    endloop
  endfacet
  facet normal -0.968302 -0.249781 0
    outer loop
      vertex 3.04271 -10.9384 0
      vertex 2.88533 -10.3283 1
      vertex 2.88533 -10.3283 0
    endloop
  endfacet
  facet normal -0.968302 -0.249781 0
    outer loop
      vertex 2.88533 -10.3283 1
      vertex 3.04271 -10.9384 0
      vertex 3.04271 -10.9384 1
    endloop
  endfacet
  facet normal -0.986399 -0.164366 0
    outer loop
      vertex 3.15512 -11.613 0
      vertex 3.04271 -10.9384 1
      vertex 3.04271 -10.9384 0
    endloop
  endfacet
  facet normal -0.986399 -0.164366 0
    outer loop
      vertex 3.04271 -10.9384 1
      vertex 3.15512 -11.613 0
      vertex 3.15512 -11.613 1
    endloop
  endfacet
  facet normal -0.995862 -0.0908808 0
    outer loop
      vertex 3.22256 -12.352 0
      vertex 3.15512 -11.613 1
      vertex 3.15512 -11.613 0
    endloop
  endfacet
  facet normal -0.995862 -0.0908808 0
    outer loop
      vertex 3.15512 -11.613 1
      vertex 3.22256 -12.352 0
      vertex 3.22256 -12.352 1
    endloop
  endfacet
  facet normal -0.999609 -0.0279701 0
    outer loop
      vertex 3.24504 -13.1554 0
      vertex 3.22256 -12.352 1
      vertex 3.22256 -12.352 0
    endloop
  endfacet
  facet normal -0.999609 -0.0279701 0
    outer loop
      vertex 3.22256 -12.352 1
      vertex 3.24504 -13.1554 0
      vertex 3.24504 -13.1554 1
    endloop
  endfacet
  facet normal -0.998553 0.053782 0
    outer loop
      vertex 3.1609 -14.7176 0
      vertex 3.24504 -13.1554 1
      vertex 3.24504 -13.1554 0
    endloop
  endfacet
  facet normal -0.998553 0.053782 0
    outer loop
      vertex 3.24504 -13.1554 1
      vertex 3.1609 -14.7176 0
      vertex 3.1609 -14.7176 1
    endloop
  endfacet
  facet normal -0.98225 0.187577 0
    outer loop
      vertex 2.90848 -16.0394 0
      vertex 3.1609 -14.7176 1
      vertex 3.1609 -14.7176 0
    endloop
  endfacet
  facet normal -0.98225 0.187577 0
    outer loop
      vertex 3.1609 -14.7176 1
      vertex 2.90848 -16.0394 0
      vertex 2.90848 -16.0394 1
    endloop
  endfacet
  facet normal -0.931965 0.362549 0
    outer loop
      vertex 2.48776 -17.1209 0
      vertex 2.90848 -16.0394 1
      vertex 2.90848 -16.0394 0
    endloop
  endfacet
  facet normal -0.931965 0.362549 0
    outer loop
      vertex 2.90848 -16.0394 1
      vertex 2.48776 -17.1209 0
      vertex 2.48776 -17.1209 1
    endloop
  endfacet
  facet normal -0.819159 0.573567 0
    outer loop
      vertex 1.89876 -17.9621 0
      vertex 2.48776 -17.1209 1
      vertex 2.48776 -17.1209 0
    endloop
  endfacet
  facet normal -0.819159 0.573567 0
    outer loop
      vertex 2.48776 -17.1209 1
      vertex 1.89876 -17.9621 0
      vertex 1.89876 -17.9621 1
    endloop
  endfacet
  facet normal -0.621584 0.783347 0
    outer loop
      vertex 1.89876 -17.9621 0
      vertex 1.14148 -18.563 1
      vertex 1.89876 -17.9621 1
    endloop
  endfacet
  facet normal -0.621584 0.783347 0
    outer loop
      vertex 1.14148 -18.563 1
      vertex 1.89876 -17.9621 0
      vertex 1.14148 -18.563 0
    endloop
  endfacet
  facet normal -0.362928 0.931817 0
    outer loop
      vertex 1.14148 -18.563 0
      vertex 0.215897 -18.9235 1
      vertex 1.14148 -18.563 1
    endloop
  endfacet
  facet normal -0.362928 0.931817 0
    outer loop
      vertex 0.215897 -18.9235 1
      vertex 1.14148 -18.563 0
      vertex 0.215897 -18.9235 0
    endloop
  endfacet
  facet normal -0.10923 0.994016 0
    outer loop
      vertex 0.215897 -18.9235 0
      vertex -0.877945 -19.0437 1
      vertex 0.215897 -18.9235 1
    endloop
  endfacet
  facet normal -0.10923 0.994016 0
    outer loop
      vertex -0.877945 -19.0437 1
      vertex 0.215897 -18.9235 0
      vertex -0.877945 -19.0437 0
    endloop
  endfacet
  facet normal 0 1 -0
    outer loop
      vertex -0.877945 -19.0437 0
      vertex -2.19217 -19.0437 1
      vertex -0.877945 -19.0437 1
    endloop
  endfacet
  facet normal 0 1 0
    outer loop
      vertex -2.19217 -19.0437 1
      vertex -0.877945 -19.0437 0
      vertex -2.19217 -19.0437 0
    endloop
  endfacet
endsolid OpenSCAD_Model
