solid OpenSCAD_Model
  facet normal 0 0 -1
    outer loop
      vertex 21.0992 -55.9437 0
      vertex -6.49901 -47.131 0
      vertex 21.0992 -47.131 0
    endloop
  endfacet
  facet normal 0 0 -1
    outer loop
      vertex -17.9019 -55.9437 0
      vertex -6.49901 -33.9503 0
      vertex -6.49901 -47.131 0
    endloop
  endfacet
  facet normal 0 0 -1
    outer loop
      vertex -17.9019 -3.80072 0
      vertex -6.49901 -33.9503 0
      vertex -17.9019 -55.9437 0
    endloop
  endfacet
  facet normal 0 0 -1
    outer loop
      vertex -6.49901 -33.9503 0
      vertex -17.9019 -3.80072 0
      vertex -6.49901 -25.1369 0
    endloop
  endfacet
  facet normal 0 0 -1
    outer loop
      vertex -17.9019 -55.9437 0
      vertex -6.49901 -47.131 0
      vertex 21.0992 -55.9437 0
    endloop
  endfacet
  facet normal 0 0 -1
    outer loop
      vertex -6.49901 -33.9503 0
      vertex 17.1566 -25.1369 0
      vertex 17.1566 -33.9503 0
    endloop
  endfacet
  facet normal -0 0 -1
    outer loop
      vertex 17.1566 -25.1369 0
      vertex -6.49901 -33.9503 0
      vertex -6.49901 -25.1369 0
    endloop
  endfacet
  facet normal 0 0 -1
    outer loop
      vertex -6.49901 -12.6135 0
      vertex 19.5146 -3.80072 0
      vertex 19.5146 -12.6135 0
    endloop
  endfacet
  facet normal 0 0 -1
    outer loop
      vertex -6.49901 -12.6135 0
      vertex -17.9019 -3.80072 0
      vertex 19.5146 -3.80072 0
    endloop
  endfacet
  facet normal 0 0 -1
    outer loop
      vertex -6.49901 -25.1369 0
      vertex -17.9019 -3.80072 0
      vertex -6.49901 -12.6135 0
    endloop
  endfacet
  facet normal 0 0 1
    outer loop
      vertex 19.5146 -3.80072 1
      vertex -6.49901 -12.6135 1
      vertex 19.5146 -12.6135 1
    endloop
  endfacet
  facet normal 0 0 1
    outer loop
      vertex -17.9019 -3.80072 1
      vertex -6.49901 -25.1369 1
      vertex -6.49901 -12.6135 1
    endloop
  endfacet
  facet normal 0 0 1
    outer loop
      vertex -6.49901 -25.1369 1
      vertex -17.9019 -3.80072 1
      vertex -6.49901 -33.9503 1
    endloop
  endfacet
  facet normal 0 0 1
    outer loop
      vertex -17.9019 -55.9437 1
      vertex -6.49901 -33.9503 1
      vertex -17.9019 -3.80072 1
    endloop
  endfacet
  facet normal -0 0 1
    outer loop
      vertex -17.9019 -3.80072 1
      vertex -6.49901 -12.6135 1
      vertex 19.5146 -3.80072 1
    endloop
  endfacet
  facet normal -0 0 1
    outer loop
      vertex -6.49901 -25.1369 1
      vertex 17.1566 -33.9503 1
      vertex 17.1566 -25.1369 1
    endloop
  endfacet
  facet normal 0 0 1
    outer loop
      vertex 17.1566 -33.9503 1
      vertex -6.49901 -25.1369 1
      vertex -6.49901 -33.9503 1
    endloop
  endfacet
  facet normal -0 0 1
    outer loop
      vertex -6.49901 -47.131 1
      vertex 21.0992 -55.9437 1
      vertex 21.0992 -47.131 1
    endloop
  endfacet
  facet normal 0 0 1
    outer loop
      vertex -6.49901 -47.131 1
      vertex -17.9019 -55.9437 1
      vertex 21.0992 -55.9437 1
    endloop
  endfacet
  facet normal 0 0 1
    outer loop
      vertex -6.49901 -33.9503 1
      vertex -17.9019 -55.9437 1
      vertex -6.49901 -47.131 1
    endloop
  endfacet
  facet normal 0 1 -0
    outer loop
      vertex 21.0992 -47.131 0
      vertex -6.49901 -47.131 1
      vertex 21.0992 -47.131 1
    endloop
  endfacet
  facet normal 0 1 0
    outer loop
      vertex -6.49901 -47.131 1
      vertex 21.0992 -47.131 0
      vertex -6.49901 -47.131 0
    endloop
  endfacet
  facet normal 1 -0 0
    outer loop
      vertex -6.49901 -47.131 1
      vertex -6.49901 -33.9503 0
      vertex -6.49901 -33.9503 1
    endloop
  endfacet
  facet normal 1 0 0
    outer loop
      vertex -6.49901 -33.9503 0
      vertex -6.49901 -47.131 1
      vertex -6.49901 -47.131 0
    endloop
  endfacet
  facet normal 0 -1 0
    outer loop
      vertex -6.49901 -33.9503 0
      vertex 17.1566 -33.9503 1
      vertex -6.49901 -33.9503 1
    endloop
  endfacet
  facet normal 0 -1 -0
    outer loop
      vertex 17.1566 -33.9503 1
      vertex -6.49901 -33.9503 0
      vertex 17.1566 -33.9503 0
    endloop
  endfacet
  facet normal 1 -0 0
    outer loop
      vertex 17.1566 -33.9503 1
      vertex 17.1566 -25.1369 0
      vertex 17.1566 -25.1369 1
    endloop
  endfacet
  facet normal 1 0 0
    outer loop
      vertex 17.1566 -25.1369 0
      vertex 17.1566 -33.9503 1
      vertex 17.1566 -33.9503 0
    endloop
  endfacet
  facet normal 0 1 -0
    outer loop
      vertex 17.1566 -25.1369 0
      vertex -6.49901 -25.1369 1
      vertex 17.1566 -25.1369 1
    endloop
  endfacet
  facet normal 0 1 0
    outer loop
      vertex -6.49901 -25.1369 1
      vertex 17.1566 -25.1369 0
      vertex -6.49901 -25.1369 0
    endloop
  endfacet
  facet normal 1 -0 0
    outer loop
      vertex -6.49901 -25.1369 1
      vertex -6.49901 -12.6135 0
      vertex -6.49901 -12.6135 1
    endloop
  endfacet
  facet normal 1 0 0
    outer loop
      vertex -6.49901 -12.6135 0
      vertex -6.49901 -25.1369 1
      vertex -6.49901 -25.1369 0
    endloop
  endfacet
  facet normal 0 -1 0
    outer loop
      vertex -6.49901 -12.6135 0
      vertex 19.5146 -12.6135 1
      vertex -6.49901 -12.6135 1
    endloop
  endfacet
  facet normal 0 -1 -0
    outer loop
      vertex 19.5146 -12.6135 1
      vertex -6.49901 -12.6135 0
      vertex 19.5146 -12.6135 0
    endloop
  endfacet
  facet normal 1 -0 0
    outer loop
      vertex 19.5146 -12.6135 1
      vertex 19.5146 -3.80072 0
      vertex 19.5146 -3.80072 1
    endloop
  endfacet
  facet normal 1 0 0
    outer loop
      vertex 19.5146 -3.80072 0
      vertex 19.5146 -12.6135 1
      vertex 19.5146 -12.6135 0
    endloop
  endfacet
  facet normal 0 1 -0
    outer loop
      vertex 19.5146 -3.80072 0
      vertex -17.9019 -3.80072 1
      vertex 19.5146 -3.80072 1
    endloop
  endfacet
  facet normal 0 1 0
    outer loop
      vertex -17.9019 -3.80072 1
      vertex 19.5146 -3.80072 0
      vertex -17.9019 -3.80072 0
    endloop
  endfacet
  facet normal -1 0 0
    outer loop
      vertex -17.9019 -55.9437 0
      vertex -17.9019 -3.80072 1
      vertex -17.9019 -3.80072 0
    endloop
  endfacet
  facet normal -1 -0 0
    outer loop
      vertex -17.9019 -3.80072 1
      vertex -17.9019 -55.9437 0
      vertex -17.9019 -55.9437 1
    endloop
  endfacet
  facet normal 0 -1 0
    outer loop
      vertex -17.9019 -55.9437 0
      vertex 21.0992 -55.9437 1
      vertex -17.9019 -55.9437 1
    endloop
  endfacet
  facet normal 0 -1 -0
    outer loop
      vertex 21.0992 -55.9437 1
      vertex -17.9019 -55.9437 0
      vertex 21.0992 -55.9437 0
    endloop
  endfacet
  facet normal 1 -0 0
    outer loop
      vertex 21.0992 -55.9437 1
      vertex 21.0992 -47.131 0
      vertex 21.0992 -47.131 1
    endloop
  endfacet
  facet normal 1 0 0
    outer loop
      vertex 21.0992 -47.131 0
      vertex 21.0992 -55.9437 1
      vertex 21.0992 -55.9437 0
    endloop
  endfacet
endsolid OpenSCAD_Model
