solid OpenSCAD_Model
  facet normal 0 0 -1
    outer loop
      vertex 12.2698 -70.1989 0
      vertex 20.5051 -83.1886 0
      vertex 15.9679 -85.0751 0
    endloop
  endfacet
  facet normal 0 0 -1
    outer loop
      vertex 20.5051 -83.1886 0
      vertex 15.8198 -68.1373 0
      vertex 16.6119 -67.5298 0
    endloop
  endfacet
  facet normal 0 0 -1
    outer loop
      vertex 20.5051 -83.1886 0
      vertex 14.9895 -68.7079 0
      vertex 15.8198 -68.1373 0
    endloop
  endfacet
  facet normal 0 0 -1
    outer loop
      vertex 20.5051 -83.1886 0
      vertex 14.1211 -69.2418 0
      vertex 14.9895 -68.7079 0
    endloop
  endfacet
  facet normal 0 0 -1
    outer loop
      vertex 20.5051 -83.1886 0
      vertex 13.2146 -69.7388 0
      vertex 14.1211 -69.2418 0
    endloop
  endfacet
  facet normal 0 0 -1
    outer loop
      vertex 20.5051 -83.1886 0
      vertex 12.2698 -70.1989 0
      vertex 13.2146 -69.7388 0
    endloop
  endfacet
  facet normal 0 0 -1
    outer loop
      vertex 9.23065 -71.3505 0
      vertex 15.9679 -85.0751 0
      vertex 11.4123 -86.4227 0
    endloop
  endfacet
  facet normal 0 0 -1
    outer loop
      vertex 15.9679 -85.0751 0
      vertex 11.2869 -70.6222 0
      vertex 12.2698 -70.1989 0
    endloop
  endfacet
  facet normal 0 0 -1
    outer loop
      vertex 15.9679 -85.0751 0
      vertex 10.2659 -71.0087 0
      vertex 11.2869 -70.6222 0
    endloop
  endfacet
  facet normal 0 0 -1
    outer loop
      vertex 15.9679 -85.0751 0
      vertex 9.23065 -71.3505 0
      vertex 10.2659 -71.0087 0
    endloop
  endfacet
  facet normal 0 0 -1
    outer loop
      vertex 11.4123 -86.4227 0
      vertex 8.20461 -71.6396 0
      vertex 9.23065 -71.3505 0
    endloop
  endfacet
  facet normal 0 0 -1
    outer loop
      vertex 11.4123 -86.4227 0
      vertex 7.18773 -71.8763 0
      vertex 8.20461 -71.6396 0
    endloop
  endfacet
  facet normal 0 0 -1
    outer loop
      vertex 6.18005 -72.0603 0
      vertex 11.4123 -86.4227 0
      vertex 6.83835 -87.2312 0
    endloop
  endfacet
  facet normal 0 0 -1
    outer loop
      vertex 11.4123 -86.4227 0
      vertex 6.18005 -72.0603 0
      vertex 7.18773 -71.8763 0
    endloop
  endfacet
  facet normal 0 0 -1
    outer loop
      vertex 6.83835 -87.2312 0
      vertex 5.18156 -72.1917 0
      vertex 6.18005 -72.0603 0
    endloop
  endfacet
  facet normal 0 0 -1
    outer loop
      vertex 6.83835 -87.2312 0
      vertex 4.19226 -72.2706 0
      vertex 5.18156 -72.1917 0
    endloop
  endfacet
  facet normal 0 0 -1
    outer loop
      vertex 2.246 -87.5007 0
      vertex 4.19226 -72.2706 0
      vertex 6.83835 -87.2312 0
    endloop
  endfacet
  facet normal 0 0 -1
    outer loop
      vertex 4.19226 -72.2706 0
      vertex 2.246 -87.5007 0
      vertex 3.21216 -72.2969 0
    endloop
  endfacet
  facet normal 0 0 -1
    outer loop
      vertex 2.246 -87.5007 0
      vertex 0.782593 -72.1378 0
      vertex 3.21216 -72.2969 0
    endloop
  endfacet
  facet normal 0 0 -1
    outer loop
      vertex -2.40813 -87.2594 0
      vertex 0.782593 -72.1378 0
      vertex 2.246 -87.5007 0
    endloop
  endfacet
  facet normal -0 0 -1
    outer loop
      vertex 0.782593 -72.1378 0
      vertex -2.40813 -87.2594 0
      vertex -1.46292 -71.6606 0
    endloop
  endfacet
  facet normal 0 0 -1
    outer loop
      vertex -6.76254 -86.5357 0
      vertex -1.46292 -71.6606 0
      vertex -2.40813 -87.2594 0
    endloop
  endfacet
  facet normal -0 0 -1
    outer loop
      vertex -1.46292 -71.6606 0
      vertex -6.76254 -86.5357 0
      vertex -3.52441 -70.8652 0
    endloop
  endfacet
  facet normal 0 0 -1
    outer loop
      vertex -10.8172 -85.3295 0
      vertex -3.52441 -70.8652 0
      vertex -6.76254 -86.5357 0
    endloop
  endfacet
  facet normal -0 0 -1
    outer loop
      vertex -3.52441 -70.8652 0
      vertex -10.8172 -85.3295 0
      vertex -5.40189 -69.7517 0
    endloop
  endfacet
  facet normal 0 0 -1
    outer loop
      vertex -14.5722 -83.6408 0
      vertex -5.40189 -69.7517 0
      vertex -10.8172 -85.3295 0
    endloop
  endfacet
  facet normal -0 0 -1
    outer loop
      vertex -5.40189 -69.7517 0
      vertex -14.5722 -83.6408 0
      vertex -7.09534 -68.32 0
    endloop
  endfacet
  facet normal 0 0 -1
    outer loop
      vertex -18.0274 -81.4697 0
      vertex -7.09534 -68.32 0
      vertex -14.5722 -83.6408 0
    endloop
  endfacet
  facet normal 0 0 -1
    outer loop
      vertex -21.1828 -78.816 0
      vertex -7.09534 -68.32 0
      vertex -18.0274 -81.4697 0
    endloop
  endfacet
  facet normal -0 0 -1
    outer loop
      vertex -7.09534 -68.32 0
      vertex -21.1828 -78.816 0
      vertex -8.60475 -66.5701 0
    endloop
  endfacet
  facet normal 0 0 -1
    outer loop
      vertex -24.0386 -75.6798 0
      vertex -8.60475 -66.5701 0
      vertex -21.1828 -78.816 0
    endloop
  endfacet
  facet normal -0 0 -1
    outer loop
      vertex -8.60475 -66.5701 0
      vertex -24.0386 -75.6798 0
      vertex -9.93013 -64.5021 0
    endloop
  endfacet
  facet normal 0 0 -1
    outer loop
      vertex -26.5509 -72.1043 0
      vertex -9.93013 -64.5021 0
      vertex -24.0386 -75.6798 0
    endloop
  endfacet
  facet normal -0 0 -1
    outer loop
      vertex -11.0751 -62.141 0
      vertex -28.6768 -68.1331 0
      vertex -12.044 -59.5116 0
    endloop
  endfacet
  facet normal 0 0 -1
    outer loop
      vertex -28.6768 -68.1331 0
      vertex -11.0751 -62.141 0
      vertex -26.5509 -72.1043 0
    endloop
  endfacet
  facet normal -0 0 -1
    outer loop
      vertex -9.93013 -64.5021 0
      vertex -26.5509 -72.1043 0
      vertex -11.0751 -62.141 0
    endloop
  endfacet
  facet normal 0 0 -1
    outer loop
      vertex 16.6119 -67.5298 0
      vertex 34.0064 -74.2947 0
      vertex 29.5243 -77.7984 0
    endloop
  endfacet
  facet normal 0 0 -1
    outer loop
      vertex 16.6119 -67.5298 0
      vertex 29.5243 -77.7984 0
      vertex 25.0239 -80.763 0
    endloop
  endfacet
  facet normal 0 0 -1
    outer loop
      vertex 16.6119 -67.5298 0
      vertex 25.0239 -80.763 0
      vertex 20.5051 -83.1886 0
    endloop
  endfacet
  facet normal 0 0 -1
    outer loop
      vertex 34.0064 -74.2947 0
      vertex 16.6119 -67.5298 0
      vertex 16.6119 -52.3906 0
    endloop
  endfacet
  facet normal 0 0 -1
    outer loop
      vertex 34.0064 -74.2947 0
      vertex 16.6119 -52.3906 0
      vertex 34.0064 -38.3467 0
    endloop
  endfacet
  facet normal 0 0 -1
    outer loop
      vertex -1.03908 -38.3467 0
      vertex 16.6119 -52.3906 0
      vertex -1.03908 -52.3906 0
    endloop
  endfacet
  facet normal 0 0 -1
    outer loop
      vertex 16.6119 -52.3906 0
      vertex -1.03908 -38.3467 0
      vertex 34.0064 -38.3467 0
    endloop
  endfacet
  facet normal 0 0 -1
    outer loop
      vertex 14.5504 -25.5911 0
      vertex 31.1295 -18.7605 0
      vertex 32.2023 -22.1131 0
    endloop
  endfacet
  facet normal 0 0 -1
    outer loop
      vertex 13.471 -22.2241 0
      vertex 31.1295 -18.7605 0
      vertex 14.5504 -25.5911 0
    endloop
  endfacet
  facet normal -0 0 -1
    outer loop
      vertex 29.8988 -15.6603 0
      vertex 13.471 -22.2241 0
      vertex 28.5104 -12.8125 0
    endloop
  endfacet
  facet normal 0 0 -1
    outer loop
      vertex 12.1839 -19.3751 0
      vertex 28.5104 -12.8125 0
      vertex 13.471 -22.2241 0
    endloop
  endfacet
  facet normal -0 0 -1
    outer loop
      vertex 28.5104 -12.8125 0
      vertex 12.1839 -19.3751 0
      vertex 26.9642 -10.2173 0
    endloop
  endfacet
  facet normal -0 0 -1
    outer loop
      vertex 26.9642 -10.2173 0
      vertex 12.1839 -19.3751 0
      vertex 25.2603 -7.87448 0
    endloop
  endfacet
  facet normal -0 0 -1
    outer loop
      vertex 25.2603 -7.87448 0
      vertex 10.6891 -17.0441 0
      vertex 23.3985 -5.78415 0
    endloop
  endfacet
  facet normal -0 0 -1
    outer loop
      vertex 23.3985 -5.78415 0
      vertex 10.6891 -17.0441 0
      vertex 21.379 -3.94629 0
    endloop
  endfacet
  facet normal -0 0 -1
    outer loop
      vertex 31.1295 -18.7605 0
      vertex 13.471 -22.2241 0
      vertex 29.8988 -15.6603 0
    endloop
  endfacet
  facet normal 0 0 -1
    outer loop
      vertex 10.6891 -17.0441 0
      vertex 25.2603 -7.87448 0
      vertex 12.1839 -19.3751 0
    endloop
  endfacet
  facet normal 0 0 -1
    outer loop
      vertex 8.98659 -15.231 0
      vertex 21.379 -3.94629 0
      vertex 10.6891 -17.0441 0
    endloop
  endfacet
  facet normal -0 0 -1
    outer loop
      vertex 21.379 -3.94629 0
      vertex 8.98659 -15.231 0
      vertex 19.1941 -2.35667 0
    endloop
  endfacet
  facet normal -0 0 -1
    outer loop
      vertex 19.1941 -2.35667 0
      vertex 8.98659 -15.231 0
      vertex 16.8355 -1.01161 0
    endloop
  endfacet
  facet normal 0 0 -1
    outer loop
      vertex 7.07632 -13.9361 0
      vertex 16.8355 -1.01161 0
      vertex 8.98659 -15.231 0
    endloop
  endfacet
  facet normal -0 0 -1
    outer loop
      vertex 16.8355 -1.01161 0
      vertex 7.07632 -13.9361 0
      vertex 14.3034 0.0888824 0
    endloop
  endfacet
  facet normal -0 0 -1
    outer loop
      vertex 14.3034 0.0888824 0
      vertex 7.07632 -13.9361 0
      vertex 11.5977 0.944839 0
    endloop
  endfacet
  facet normal 0 0 -1
    outer loop
      vertex 4.95834 -13.159 0
      vertex 11.5977 0.944839 0
      vertex 7.07632 -13.9361 0
    endloop
  endfacet
  facet normal -0 0 -1
    outer loop
      vertex 11.5977 0.944839 0
      vertex 4.95834 -13.159 0
      vertex 8.71831 1.55623 0
    endloop
  endfacet
  facet normal -0 0 -1
    outer loop
      vertex 8.71831 1.55623 0
      vertex 4.95834 -13.159 0
      vertex 5.66539 1.92307 0
    endloop
  endfacet
  facet normal 0 0 -1
    outer loop
      vertex 2.63266 -12.9 0
      vertex 5.66539 1.92307 0
      vertex 4.95834 -13.159 0
    endloop
  endfacet
  facet normal 0 0 -1
    outer loop
      vertex 2.63266 -12.9 0
      vertex 2.43886 2.04535 0
      vertex 5.66539 1.92307 0
    endloop
  endfacet
  facet normal 0 0 -1
    outer loop
      vertex 0.24173 -13.042 0
      vertex 2.43886 2.04535 0
      vertex 2.63266 -12.9 0
    endloop
  endfacet
  facet normal 0 0 -1
    outer loop
      vertex -7.0981 1.1395 0
      vertex 0.24173 -13.042 0
      vertex -1.96114 -13.468 0
    endloop
  endfacet
  facet normal 0 0 -1
    outer loop
      vertex -7.0981 1.1395 0
      vertex -1.96114 -13.468 0
      vertex -3.97601 -14.178 0
    endloop
  endfacet
  facet normal 0 0 -1
    outer loop
      vertex -15.1678 -1.57806 0
      vertex -3.97601 -14.178 0
      vertex -5.80287 -15.172 0
    endloop
  endfacet
  facet normal 0 0 -1
    outer loop
      vertex 0.24173 -13.042 0
      vertex -7.0981 1.1395 0
      vertex 2.43886 2.04535 0
    endloop
  endfacet
  facet normal 0 0 -1
    outer loop
      vertex -15.1678 -1.57806 0
      vertex -5.80287 -15.172 0
      vertex -7.4417 -16.4499 0
    endloop
  endfacet
  facet normal 0 0 -1
    outer loop
      vertex -21.7704 -6.10733 0
      vertex -7.4417 -16.4499 0
      vertex -8.8925 -18.0119 0
    endloop
  endfacet
  facet normal 0 0 -1
    outer loop
      vertex -21.7704 -6.10733 0
      vertex -8.8925 -18.0119 0
      vertex -10.1553 -19.8578 0
    endloop
  endfacet
  facet normal 0 0 -1
    outer loop
      vertex -26.9057 -12.4483 0
      vertex -10.1553 -19.8578 0
      vertex -11.2406 -22.0206 0
    endloop
  endfacet
  facet normal 0 0 -1
    outer loop
      vertex -26.9057 -12.4483 0
      vertex -11.2406 -22.0206 0
      vertex -12.1589 -24.5332 0
    endloop
  endfacet
  facet normal 0 0 -1
    outer loop
      vertex -30.5737 -20.601 0
      vertex -12.1589 -24.5332 0
      vertex -12.9102 -27.3954 0
    endloop
  endfacet
  facet normal 0 0 -1
    outer loop
      vertex -3.97601 -14.178 0
      vertex -15.1678 -1.57806 0
      vertex -7.0981 1.1395 0
    endloop
  endfacet
  facet normal 0 0 -1
    outer loop
      vertex -30.5737 -20.601 0
      vertex -12.9102 -27.3954 0
      vertex -13.4946 -30.6073 0
    endloop
  endfacet
  facet normal 0 0 -1
    outer loop
      vertex -32.7746 -30.5654 0
      vertex -13.4946 -30.6073 0
      vertex -13.912 -34.169 0
    endloop
  endfacet
  facet normal 0 0 -1
    outer loop
      vertex -32.7746 -30.5654 0
      vertex -13.912 -34.169 0
      vertex -14.1625 -38.0804 0
    endloop
  endfacet
  facet normal 0 0 -1
    outer loop
      vertex -33.5082 -42.3415 0
      vertex -14.1625 -38.0804 0
      vertex -14.246 -42.3415 0
    endloop
  endfacet
  facet normal 0 0 -1
    outer loop
      vertex -30.4161 -63.7662 0
      vertex -12.044 -59.5116 0
      vertex -28.6768 -68.1331 0
    endloop
  endfacet
  facet normal -0 0 -1
    outer loop
      vertex -12.044 -59.5116 0
      vertex -30.4161 -63.7662 0
      vertex -12.8367 -56.614 0
    endloop
  endfacet
  facet normal 0 0 -1
    outer loop
      vertex -31.7689 -59.0036 0
      vertex -12.8367 -56.614 0
      vertex -30.4161 -63.7662 0
    endloop
  endfacet
  facet normal -0 0 -1
    outer loop
      vertex -14.1625 -38.0804 0
      vertex -33.5082 -42.3415 0
      vertex -32.7746 -30.5654 0
    endloop
  endfacet
  facet normal -0 0 -1
    outer loop
      vertex -12.8367 -56.614 0
      vertex -31.7689 -59.0036 0
      vertex -13.4533 -53.4482 0
    endloop
  endfacet
  facet normal 0 0 -1
    outer loop
      vertex -32.7352 -53.8453 0
      vertex -13.4533 -53.4482 0
      vertex -31.7689 -59.0036 0
    endloop
  endfacet
  facet normal 0 0 -1
    outer loop
      vertex -13.4946 -30.6073 0
      vertex -32.7746 -30.5654 0
      vertex -30.5737 -20.601 0
    endloop
  endfacet
  facet normal -0 0 -1
    outer loop
      vertex -13.4533 -53.4482 0
      vertex -32.7352 -53.8453 0
      vertex -13.8937 -50.0142 0
    endloop
  endfacet
  facet normal 0 0 -1
    outer loop
      vertex -33.3149 -48.2912 0
      vertex -13.8937 -50.0142 0
      vertex -32.7352 -53.8453 0
    endloop
  endfacet
  facet normal 0 0 -1
    outer loop
      vertex -12.1589 -24.5332 0
      vertex -30.5737 -20.601 0
      vertex -26.9057 -12.4483 0
    endloop
  endfacet
  facet normal 0 0 -1
    outer loop
      vertex -13.8937 -50.0142 0
      vertex -33.3149 -48.2912 0
      vertex -14.1579 -46.3119 0
    endloop
  endfacet
  facet normal 0 0 -1
    outer loop
      vertex -33.5082 -42.3415 0
      vertex -14.1579 -46.3119 0
      vertex -33.3149 -48.2912 0
    endloop
  endfacet
  facet normal 0 0 -1
    outer loop
      vertex -14.1579 -46.3119 0
      vertex -33.5082 -42.3415 0
      vertex -14.246 -42.3415 0
    endloop
  endfacet
  facet normal 0 0 -1
    outer loop
      vertex -10.1553 -19.8578 0
      vertex -26.9057 -12.4483 0
      vertex -21.7704 -6.10733 0
    endloop
  endfacet
  facet normal 0 0 -1
    outer loop
      vertex -7.4417 -16.4499 0
      vertex -21.7704 -6.10733 0
      vertex -15.1678 -1.57806 0
    endloop
  endfacet
  facet normal 0 0 1
    outer loop
      vertex 13.471 -22.2241 1
      vertex 31.1295 -18.7605 1
      vertex 29.8988 -15.6603 1
    endloop
  endfacet
  facet normal 0 0 1
    outer loop
      vertex 13.471 -22.2241 1
      vertex 29.8988 -15.6603 1
      vertex 28.5104 -12.8125 1
    endloop
  endfacet
  facet normal 0 0 1
    outer loop
      vertex 12.1839 -19.3751 1
      vertex 28.5104 -12.8125 1
      vertex 26.9642 -10.2173 1
    endloop
  endfacet
  facet normal 0 0 1
    outer loop
      vertex 12.1839 -19.3751 1
      vertex 26.9642 -10.2173 1
      vertex 25.2603 -7.87448 1
    endloop
  endfacet
  facet normal 0 0 1
    outer loop
      vertex 10.6891 -17.0441 1
      vertex 25.2603 -7.87448 1
      vertex 23.3985 -5.78415 1
    endloop
  endfacet
  facet normal 0 0 1
    outer loop
      vertex 10.6891 -17.0441 1
      vertex 23.3985 -5.78415 1
      vertex 21.379 -3.94629 1
    endloop
  endfacet
  facet normal 0 0 1
    outer loop
      vertex 8.98659 -15.231 1
      vertex 21.379 -3.94629 1
      vertex 19.1941 -2.35667 1
    endloop
  endfacet
  facet normal 0 0 1
    outer loop
      vertex 8.98659 -15.231 1
      vertex 19.1941 -2.35667 1
      vertex 16.8355 -1.01161 1
    endloop
  endfacet
  facet normal 0 0 1
    outer loop
      vertex 28.5104 -12.8125 1
      vertex 12.1839 -19.3751 1
      vertex 13.471 -22.2241 1
    endloop
  endfacet
  facet normal 0 0 1
    outer loop
      vertex 7.07632 -13.9361 1
      vertex 16.8355 -1.01161 1
      vertex 14.3034 0.0888824 1
    endloop
  endfacet
  facet normal 0 0 1
    outer loop
      vertex 31.1295 -18.7605 1
      vertex 14.5504 -25.5911 1
      vertex 32.2023 -22.1131 1
    endloop
  endfacet
  facet normal 0 0 1
    outer loop
      vertex 31.1295 -18.7605 1
      vertex 13.471 -22.2241 1
      vertex 14.5504 -25.5911 1
    endloop
  endfacet
  facet normal 0 0 1
    outer loop
      vertex 7.07632 -13.9361 1
      vertex 14.3034 0.0888824 1
      vertex 11.5977 0.944839 1
    endloop
  endfacet
  facet normal 0 0 1
    outer loop
      vertex 25.2603 -7.87448 1
      vertex 10.6891 -17.0441 1
      vertex 12.1839 -19.3751 1
    endloop
  endfacet
  facet normal 0 0 1
    outer loop
      vertex 21.379 -3.94629 1
      vertex 8.98659 -15.231 1
      vertex 10.6891 -17.0441 1
    endloop
  endfacet
  facet normal 0 0 1
    outer loop
      vertex 4.95834 -13.159 1
      vertex 11.5977 0.944839 1
      vertex 8.71831 1.55623 1
    endloop
  endfacet
  facet normal 0 0 1
    outer loop
      vertex 16.8355 -1.01161 1
      vertex 7.07632 -13.9361 1
      vertex 8.98659 -15.231 1
    endloop
  endfacet
  facet normal 0 0 1
    outer loop
      vertex 4.95834 -13.159 1
      vertex 8.71831 1.55623 1
      vertex 5.66539 1.92307 1
    endloop
  endfacet
  facet normal 0 0 1
    outer loop
      vertex 11.5977 0.944839 1
      vertex 4.95834 -13.159 1
      vertex 7.07632 -13.9361 1
    endloop
  endfacet
  facet normal 0 0 1
    outer loop
      vertex 5.66539 1.92307 1
      vertex 2.63266 -12.9 1
      vertex 4.95834 -13.159 1
    endloop
  endfacet
  facet normal 0 0 1
    outer loop
      vertex 2.43886 2.04535 1
      vertex 2.63266 -12.9 1
      vertex 5.66539 1.92307 1
    endloop
  endfacet
  facet normal 0 0 1
    outer loop
      vertex 2.43886 2.04535 1
      vertex 0.24173 -13.042 1
      vertex 2.63266 -12.9 1
    endloop
  endfacet
  facet normal -0 0 1
    outer loop
      vertex -7.0981 1.1395 1
      vertex 0.24173 -13.042 1
      vertex 2.43886 2.04535 1
    endloop
  endfacet
  facet normal 0 0 1
    outer loop
      vertex 0.24173 -13.042 1
      vertex -7.0981 1.1395 1
      vertex -1.96114 -13.468 1
    endloop
  endfacet
  facet normal 0 0 1
    outer loop
      vertex -1.96114 -13.468 1
      vertex -7.0981 1.1395 1
      vertex -3.97601 -14.178 1
    endloop
  endfacet
  facet normal -0 0 1
    outer loop
      vertex -15.1678 -1.57806 1
      vertex -3.97601 -14.178 1
      vertex -7.0981 1.1395 1
    endloop
  endfacet
  facet normal 0 0 1
    outer loop
      vertex -3.97601 -14.178 1
      vertex -15.1678 -1.57806 1
      vertex -5.80287 -15.172 1
    endloop
  endfacet
  facet normal 0 0 1
    outer loop
      vertex -5.80287 -15.172 1
      vertex -15.1678 -1.57806 1
      vertex -7.4417 -16.4499 1
    endloop
  endfacet
  facet normal -0 0 1
    outer loop
      vertex -21.7704 -6.10733 1
      vertex -7.4417 -16.4499 1
      vertex -15.1678 -1.57806 1
    endloop
  endfacet
  facet normal 0 0 1
    outer loop
      vertex -7.4417 -16.4499 1
      vertex -21.7704 -6.10733 1
      vertex -8.8925 -18.0119 1
    endloop
  endfacet
  facet normal 0 0 1
    outer loop
      vertex -8.8925 -18.0119 1
      vertex -21.7704 -6.10733 1
      vertex -10.1553 -19.8578 1
    endloop
  endfacet
  facet normal -0 0 1
    outer loop
      vertex -26.9057 -12.4483 1
      vertex -10.1553 -19.8578 1
      vertex -21.7704 -6.10733 1
    endloop
  endfacet
  facet normal 0 0 1
    outer loop
      vertex -10.1553 -19.8578 1
      vertex -26.9057 -12.4483 1
      vertex -11.2406 -22.0206 1
    endloop
  endfacet
  facet normal 0 0 1
    outer loop
      vertex -11.2406 -22.0206 1
      vertex -26.9057 -12.4483 1
      vertex -12.1589 -24.5332 1
    endloop
  endfacet
  facet normal -0 0 1
    outer loop
      vertex -30.5737 -20.601 1
      vertex -12.1589 -24.5332 1
      vertex -26.9057 -12.4483 1
    endloop
  endfacet
  facet normal 0 0 1
    outer loop
      vertex -12.1589 -24.5332 1
      vertex -30.5737 -20.601 1
      vertex -12.9102 -27.3954 1
    endloop
  endfacet
  facet normal 0 0 1
    outer loop
      vertex -12.9102 -27.3954 1
      vertex -30.5737 -20.601 1
      vertex -13.4946 -30.6073 1
    endloop
  endfacet
  facet normal -0 0 1
    outer loop
      vertex -32.7746 -30.5654 1
      vertex -13.4946 -30.6073 1
      vertex -30.5737 -20.601 1
    endloop
  endfacet
  facet normal 0 -0 1
    outer loop
      vertex -33.3149 -48.2912 1
      vertex -14.246 -42.3415 1
      vertex -33.5082 -42.3415 1
    endloop
  endfacet
  facet normal 0 -0 1
    outer loop
      vertex -32.7352 -53.8453 1
      vertex -14.246 -42.3415 1
      vertex -33.3149 -48.2912 1
    endloop
  endfacet
  facet normal 0 0 1
    outer loop
      vertex -13.4946 -30.6073 1
      vertex -32.7746 -30.5654 1
      vertex -13.912 -34.169 1
    endloop
  endfacet
  facet normal 0 -0 1
    outer loop
      vertex -31.7689 -59.0036 1
      vertex -14.246 -42.3415 1
      vertex -32.7352 -53.8453 1
    endloop
  endfacet
  facet normal 0 -0 1
    outer loop
      vertex -30.4161 -63.7662 1
      vertex -14.246 -42.3415 1
      vertex -31.7689 -59.0036 1
    endloop
  endfacet
  facet normal 0 0 1
    outer loop
      vertex -13.912 -34.169 1
      vertex -32.7746 -30.5654 1
      vertex -14.1625 -38.0804 1
    endloop
  endfacet
  facet normal 0 -0 1
    outer loop
      vertex -28.6768 -68.1331 1
      vertex -14.246 -42.3415 1
      vertex -30.4161 -63.7662 1
    endloop
  endfacet
  facet normal 0 -0 1
    outer loop
      vertex -26.5509 -72.1043 1
      vertex -14.246 -42.3415 1
      vertex -28.6768 -68.1331 1
    endloop
  endfacet
  facet normal 0 0 1
    outer loop
      vertex -33.5082 -42.3415 1
      vertex -14.1625 -38.0804 1
      vertex -32.7746 -30.5654 1
    endloop
  endfacet
  facet normal 0 -0 1
    outer loop
      vertex -24.0386 -75.6798 1
      vertex -14.246 -42.3415 1
      vertex -26.5509 -72.1043 1
    endloop
  endfacet
  facet normal 0 0 1
    outer loop
      vertex -14.246 -42.3415 1
      vertex -18.0274 -81.4697 1
      vertex -14.5722 -83.6408 1
    endloop
  endfacet
  facet normal 0 0 1
    outer loop
      vertex -14.1625 -38.0804 1
      vertex -33.5082 -42.3415 1
      vertex -14.246 -42.3415 1
    endloop
  endfacet
  facet normal 0 -0 1
    outer loop
      vertex -21.1828 -78.816 1
      vertex -14.246 -42.3415 1
      vertex -24.0386 -75.6798 1
    endloop
  endfacet
  facet normal 0 0 1
    outer loop
      vertex -14.246 -42.3415 1
      vertex -21.1828 -78.816 1
      vertex -18.0274 -81.4697 1
    endloop
  endfacet
  facet normal -0 0 1
    outer loop
      vertex 16.6119 -52.3906 1
      vertex 34.0064 -74.2947 1
      vertex 34.0064 -38.3467 1
    endloop
  endfacet
  facet normal -0 0 1
    outer loop
      vertex 16.6119 -67.5298 1
      vertex 34.0064 -74.2947 1
      vertex 16.6119 -52.3906 1
    endloop
  endfacet
  facet normal 0 0 1
    outer loop
      vertex 29.5243 -77.7984 1
      vertex 16.6119 -67.5298 1
      vertex 25.0239 -80.763 1
    endloop
  endfacet
  facet normal 0 0 1
    outer loop
      vertex 34.0064 -74.2947 1
      vertex 16.6119 -67.5298 1
      vertex 29.5243 -77.7984 1
    endloop
  endfacet
  facet normal -0 0 1
    outer loop
      vertex -1.03908 -38.3467 1
      vertex 16.6119 -52.3906 1
      vertex 34.0064 -38.3467 1
    endloop
  endfacet
  facet normal 0 0 1
    outer loop
      vertex 16.6119 -52.3906 1
      vertex -1.03908 -38.3467 1
      vertex -1.03908 -52.3906 1
    endloop
  endfacet
  facet normal -0 0 1
    outer loop
      vertex 15.8198 -68.1373 1
      vertex 25.0239 -80.763 1
      vertex 16.6119 -67.5298 1
    endloop
  endfacet
  facet normal -0 0 1
    outer loop
      vertex 14.9895 -68.7079 1
      vertex 25.0239 -80.763 1
      vertex 15.8198 -68.1373 1
    endloop
  endfacet
  facet normal 0 0 1
    outer loop
      vertex 25.0239 -80.763 1
      vertex 14.9895 -68.7079 1
      vertex 20.5051 -83.1886 1
    endloop
  endfacet
  facet normal -0 0 1
    outer loop
      vertex 14.1211 -69.2418 1
      vertex 20.5051 -83.1886 1
      vertex 14.9895 -68.7079 1
    endloop
  endfacet
  facet normal -0 0 1
    outer loop
      vertex 13.2146 -69.7388 1
      vertex 20.5051 -83.1886 1
      vertex 14.1211 -69.2418 1
    endloop
  endfacet
  facet normal -0 0 1
    outer loop
      vertex 12.2698 -70.1989 1
      vertex 20.5051 -83.1886 1
      vertex 13.2146 -69.7388 1
    endloop
  endfacet
  facet normal 0 0 1
    outer loop
      vertex 20.5051 -83.1886 1
      vertex 12.2698 -70.1989 1
      vertex 15.9679 -85.0751 1
    endloop
  endfacet
  facet normal -0 0 1
    outer loop
      vertex 11.2869 -70.6222 1
      vertex 15.9679 -85.0751 1
      vertex 12.2698 -70.1989 1
    endloop
  endfacet
  facet normal -0 0 1
    outer loop
      vertex 10.2659 -71.0087 1
      vertex 15.9679 -85.0751 1
      vertex 11.2869 -70.6222 1
    endloop
  endfacet
  facet normal -0 0 1
    outer loop
      vertex 9.23065 -71.3505 1
      vertex 15.9679 -85.0751 1
      vertex 10.2659 -71.0087 1
    endloop
  endfacet
  facet normal 0 0 1
    outer loop
      vertex 15.9679 -85.0751 1
      vertex 9.23065 -71.3505 1
      vertex 11.4123 -86.4227 1
    endloop
  endfacet
  facet normal -0 0 1
    outer loop
      vertex 8.20461 -71.6396 1
      vertex 11.4123 -86.4227 1
      vertex 9.23065 -71.3505 1
    endloop
  endfacet
  facet normal -0 0 1
    outer loop
      vertex 7.18773 -71.8763 1
      vertex 11.4123 -86.4227 1
      vertex 8.20461 -71.6396 1
    endloop
  endfacet
  facet normal -0 0 1
    outer loop
      vertex 6.18005 -72.0603 1
      vertex 11.4123 -86.4227 1
      vertex 7.18773 -71.8763 1
    endloop
  endfacet
  facet normal 0 0 1
    outer loop
      vertex 11.4123 -86.4227 1
      vertex 6.18005 -72.0603 1
      vertex 6.83835 -87.2312 1
    endloop
  endfacet
  facet normal -0 0 1
    outer loop
      vertex 5.18156 -72.1917 1
      vertex 6.83835 -87.2312 1
      vertex 6.18005 -72.0603 1
    endloop
  endfacet
  facet normal -0 0 1
    outer loop
      vertex 4.19226 -72.2706 1
      vertex 6.83835 -87.2312 1
      vertex 5.18156 -72.1917 1
    endloop
  endfacet
  facet normal 0 0 1
    outer loop
      vertex 2.246 -87.5007 1
      vertex 4.19226 -72.2706 1
      vertex 3.21216 -72.2969 1
    endloop
  endfacet
  facet normal 0 0 1
    outer loop
      vertex 4.19226 -72.2706 1
      vertex 2.246 -87.5007 1
      vertex 6.83835 -87.2312 1
    endloop
  endfacet
  facet normal 0 0 1
    outer loop
      vertex 0.782593 -72.1378 1
      vertex 2.246 -87.5007 1
      vertex 3.21216 -72.2969 1
    endloop
  endfacet
  facet normal 0 0 1
    outer loop
      vertex -2.40813 -87.2594 1
      vertex 0.782593 -72.1378 1
      vertex -1.46292 -71.6606 1
    endloop
  endfacet
  facet normal 0 0 1
    outer loop
      vertex 0.782593 -72.1378 1
      vertex -2.40813 -87.2594 1
      vertex 2.246 -87.5007 1
    endloop
  endfacet
  facet normal 0 0 1
    outer loop
      vertex -6.76254 -86.5357 1
      vertex -1.46292 -71.6606 1
      vertex -3.52441 -70.8652 1
    endloop
  endfacet
  facet normal 0 0 1
    outer loop
      vertex -10.8172 -85.3295 1
      vertex -3.52441 -70.8652 1
      vertex -5.40189 -69.7517 1
    endloop
  endfacet
  facet normal 0 0 1
    outer loop
      vertex -1.46292 -71.6606 1
      vertex -6.76254 -86.5357 1
      vertex -2.40813 -87.2594 1
    endloop
  endfacet
  facet normal 0 0 1
    outer loop
      vertex -14.5722 -83.6408 1
      vertex -5.40189 -69.7517 1
      vertex -7.09534 -68.32 1
    endloop
  endfacet
  facet normal 0 0 1
    outer loop
      vertex -14.5722 -83.6408 1
      vertex -7.09534 -68.32 1
      vertex -8.60475 -66.5701 1
    endloop
  endfacet
  facet normal 0 0 1
    outer loop
      vertex -14.5722 -83.6408 1
      vertex -8.60475 -66.5701 1
      vertex -9.93013 -64.5021 1
    endloop
  endfacet
  facet normal 0 0 1
    outer loop
      vertex -3.52441 -70.8652 1
      vertex -10.8172 -85.3295 1
      vertex -6.76254 -86.5357 1
    endloop
  endfacet
  facet normal 0 0 1
    outer loop
      vertex -14.5722 -83.6408 1
      vertex -9.93013 -64.5021 1
      vertex -11.0751 -62.141 1
    endloop
  endfacet
  facet normal 0 0 1
    outer loop
      vertex -14.5722 -83.6408 1
      vertex -11.0751 -62.141 1
      vertex -12.044 -59.5116 1
    endloop
  endfacet
  facet normal 0 0 1
    outer loop
      vertex -14.5722 -83.6408 1
      vertex -12.044 -59.5116 1
      vertex -12.8367 -56.614 1
    endloop
  endfacet
  facet normal 0 0 1
    outer loop
      vertex -14.5722 -83.6408 1
      vertex -12.8367 -56.614 1
      vertex -13.4533 -53.4482 1
    endloop
  endfacet
  facet normal 0 0 1
    outer loop
      vertex -14.5722 -83.6408 1
      vertex -13.4533 -53.4482 1
      vertex -13.8937 -50.0142 1
    endloop
  endfacet
  facet normal 0 0 1
    outer loop
      vertex -5.40189 -69.7517 1
      vertex -14.5722 -83.6408 1
      vertex -10.8172 -85.3295 1
    endloop
  endfacet
  facet normal 0 0 1
    outer loop
      vertex -14.1579 -46.3119 1
      vertex -14.5722 -83.6408 1
      vertex -13.8937 -50.0142 1
    endloop
  endfacet
  facet normal 0 0 1
    outer loop
      vertex -14.5722 -83.6408 1
      vertex -14.1579 -46.3119 1
      vertex -14.246 -42.3415 1
    endloop
  endfacet
  facet normal 0.174064 -0.984734 0
    outer loop
      vertex 6.83835 -87.2312 0
      vertex 11.4123 -86.4227 1
      vertex 6.83835 -87.2312 1
    endloop
  endfacet
  facet normal 0.174064 -0.984734 0
    outer loop
      vertex 11.4123 -86.4227 1
      vertex 6.83835 -87.2312 0
      vertex 11.4123 -86.4227 0
    endloop
  endfacet
  facet normal 0.283661 -0.958925 0
    outer loop
      vertex 11.4123 -86.4227 0
      vertex 15.9679 -85.0751 1
      vertex 11.4123 -86.4227 1
    endloop
  endfacet
  facet normal 0.283661 -0.958925 0
    outer loop
      vertex 15.9679 -85.0751 1
      vertex 11.4123 -86.4227 0
      vertex 15.9679 -85.0751 0
    endloop
  endfacet
  facet normal 0.383922 -0.923366 0
    outer loop
      vertex 15.9679 -85.0751 0
      vertex 20.5051 -83.1886 1
      vertex 15.9679 -85.0751 1
    endloop
  endfacet
  facet normal 0.383922 -0.923366 0
    outer loop
      vertex 20.5051 -83.1886 1
      vertex 15.9679 -85.0751 0
      vertex 20.5051 -83.1886 0
    endloop
  endfacet
  facet normal 0.472951 -0.881089 0
    outer loop
      vertex 20.5051 -83.1886 0
      vertex 25.0239 -80.763 1
      vertex 20.5051 -83.1886 1
    endloop
  endfacet
  facet normal 0.472951 -0.881089 0
    outer loop
      vertex 25.0239 -80.763 1
      vertex 20.5051 -83.1886 0
      vertex 25.0239 -80.763 0
    endloop
  endfacet
  facet normal 0.55011 -0.835092 0
    outer loop
      vertex 25.0239 -80.763 0
      vertex 29.5243 -77.7984 1
      vertex 25.0239 -80.763 1
    endloop
  endfacet
  facet normal 0.55011 -0.835092 0
    outer loop
      vertex 29.5243 -77.7984 1
      vertex 25.0239 -80.763 0
      vertex 29.5243 -77.7984 0
    endloop
  endfacet
  facet normal 0.615869 -0.787849 0
    outer loop
      vertex 29.5243 -77.7984 0
      vertex 34.0064 -74.2947 1
      vertex 29.5243 -77.7984 1
    endloop
  endfacet
  facet normal 0.615869 -0.787849 0
    outer loop
      vertex 34.0064 -74.2947 1
      vertex 29.5243 -77.7984 0
      vertex 34.0064 -74.2947 0
    endloop
  endfacet
  facet normal 1 -0 0
    outer loop
      vertex 34.0064 -74.2947 1
      vertex 34.0064 -38.3467 0
      vertex 34.0064 -38.3467 1
    endloop
  endfacet
  facet normal 1 0 0
    outer loop
      vertex 34.0064 -38.3467 0
      vertex 34.0064 -74.2947 1
      vertex 34.0064 -74.2947 0
    endloop
  endfacet
  facet normal 0 1 -0
    outer loop
      vertex 34.0064 -38.3467 0
      vertex -1.03908 -38.3467 1
      vertex 34.0064 -38.3467 1
    endloop
  endfacet
  facet normal 0 1 0
    outer loop
      vertex -1.03908 -38.3467 1
      vertex 34.0064 -38.3467 0
      vertex -1.03908 -38.3467 0
    endloop
  endfacet
  facet normal -1 0 0
    outer loop
      vertex -1.03908 -52.3906 0
      vertex -1.03908 -38.3467 1
      vertex -1.03908 -38.3467 0
    endloop
  endfacet
  facet normal -1 -0 0
    outer loop
      vertex -1.03908 -38.3467 1
      vertex -1.03908 -52.3906 0
      vertex -1.03908 -52.3906 1
    endloop
  endfacet
  facet normal 0 -1 0
    outer loop
      vertex -1.03908 -52.3906 0
      vertex 16.6119 -52.3906 1
      vertex -1.03908 -52.3906 1
    endloop
  endfacet
  facet normal 0 -1 -0
    outer loop
      vertex 16.6119 -52.3906 1
      vertex -1.03908 -52.3906 0
      vertex 16.6119 -52.3906 0
    endloop
  endfacet
  facet normal -1 0 0
    outer loop
      vertex 16.6119 -67.5298 0
      vertex 16.6119 -52.3906 1
      vertex 16.6119 -52.3906 0
    endloop
  endfacet
  facet normal -1 -0 0
    outer loop
      vertex 16.6119 -52.3906 1
      vertex 16.6119 -67.5298 0
      vertex 16.6119 -67.5298 1
    endloop
  endfacet
  facet normal -0.608572 0.793498 0
    outer loop
      vertex 16.6119 -67.5298 0
      vertex 15.8198 -68.1373 1
      vertex 16.6119 -67.5298 1
    endloop
  endfacet
  facet normal -0.608572 0.793498 0
    outer loop
      vertex 15.8198 -68.1373 1
      vertex 16.6119 -67.5298 0
      vertex 15.8198 -68.1373 0
    endloop
  endfacet
  facet normal -0.566373 0.824149 0
    outer loop
      vertex 15.8198 -68.1373 0
      vertex 14.9895 -68.7079 1
      vertex 15.8198 -68.1373 1
    endloop
  endfacet
  facet normal -0.566373 0.824149 0
    outer loop
      vertex 14.9895 -68.7079 1
      vertex 15.8198 -68.1373 0
      vertex 14.9895 -68.7079 0
    endloop
  endfacet
  facet normal -0.523742 0.851877 0
    outer loop
      vertex 14.9895 -68.7079 0
      vertex 14.1211 -69.2418 1
      vertex 14.9895 -68.7079 1
    endloop
  endfacet
  facet normal -0.523742 0.851877 0
    outer loop
      vertex 14.1211 -69.2418 1
      vertex 14.9895 -68.7079 0
      vertex 14.1211 -69.2418 0
    endloop
  endfacet
  facet normal -0.480749 0.876858 0
    outer loop
      vertex 14.1211 -69.2418 0
      vertex 13.2146 -69.7388 1
      vertex 14.1211 -69.2418 1
    endloop
  endfacet
  facet normal -0.480749 0.876858 0
    outer loop
      vertex 13.2146 -69.7388 1
      vertex 14.1211 -69.2418 0
      vertex 13.2146 -69.7388 0
    endloop
  endfacet
  facet normal -0.437825 0.89906 0
    outer loop
      vertex 13.2146 -69.7388 0
      vertex 12.2698 -70.1989 1
      vertex 13.2146 -69.7388 1
    endloop
  endfacet
  facet normal -0.437825 0.89906 0
    outer loop
      vertex 12.2698 -70.1989 1
      vertex 13.2146 -69.7388 0
      vertex 12.2698 -70.1989 0
    endloop
  endfacet
  facet normal -0.395543 0.918448 0
    outer loop
      vertex 12.2698 -70.1989 0
      vertex 11.2869 -70.6222 1
      vertex 12.2698 -70.1989 1
    endloop
  endfacet
  facet normal -0.395543 0.918448 0
    outer loop
      vertex 11.2869 -70.6222 1
      vertex 12.2698 -70.1989 0
      vertex 11.2869 -70.6222 0
    endloop
  endfacet
  facet normal -0.354033 0.935233 0
    outer loop
      vertex 11.2869 -70.6222 0
      vertex 10.2659 -71.0087 1
      vertex 11.2869 -70.6222 1
    endloop
  endfacet
  facet normal -0.354033 0.935233 0
    outer loop
      vertex 10.2659 -71.0087 1
      vertex 11.2869 -70.6222 0
      vertex 10.2659 -71.0087 0
    endloop
  endfacet
  facet normal -0.313516 0.949583 0
    outer loop
      vertex 10.2659 -71.0087 0
      vertex 9.23065 -71.3505 1
      vertex 10.2659 -71.0087 1
    endloop
  endfacet
  facet normal -0.313516 0.949583 0
    outer loop
      vertex 9.23065 -71.3505 1
      vertex 10.2659 -71.0087 0
      vertex 9.23065 -71.3505 0
    endloop
  endfacet
  facet normal -0.271203 0.962522 0
    outer loop
      vertex 9.23065 -71.3505 0
      vertex 8.20461 -71.6396 1
      vertex 9.23065 -71.3505 1
    endloop
  endfacet
  facet normal -0.271203 0.962522 0
    outer loop
      vertex 8.20461 -71.6396 1
      vertex 9.23065 -71.3505 0
      vertex 8.20461 -71.6396 0
    endloop
  endfacet
  facet normal -0.22671 0.973962 0
    outer loop
      vertex 8.20461 -71.6396 0
      vertex 7.18773 -71.8763 1
      vertex 8.20461 -71.6396 1
    endloop
  endfacet
  facet normal -0.22671 0.973962 0
    outer loop
      vertex 7.18773 -71.8763 1
      vertex 8.20461 -71.6396 0
      vertex 7.18773 -71.8763 0
    endloop
  endfacet
  facet normal -0.179628 0.983735 0
    outer loop
      vertex 7.18773 -71.8763 0
      vertex 6.18005 -72.0603 1
      vertex 7.18773 -71.8763 1
    endloop
  endfacet
  facet normal -0.179628 0.983735 0
    outer loop
      vertex 6.18005 -72.0603 1
      vertex 7.18773 -71.8763 0
      vertex 6.18005 -72.0603 0
    endloop
  endfacet
  facet normal -0.130474 0.991452 0
    outer loop
      vertex 6.18005 -72.0603 0
      vertex 5.18156 -72.1917 1
      vertex 6.18005 -72.0603 1
    endloop
  endfacet
  facet normal -0.130474 0.991452 0
    outer loop
      vertex 5.18156 -72.1917 1
      vertex 6.18005 -72.0603 0
      vertex 5.18156 -72.1917 0
    endloop
  endfacet
  facet normal -0.0795009 0.996835 0
    outer loop
      vertex 5.18156 -72.1917 0
      vertex 4.19226 -72.2706 1
      vertex 5.18156 -72.1917 1
    endloop
  endfacet
  facet normal -0.0795009 0.996835 0
    outer loop
      vertex 4.19226 -72.2706 1
      vertex 5.18156 -72.1917 0
      vertex 4.19226 -72.2706 0
    endloop
  endfacet
  facet normal -0.0268243 0.99964 0
    outer loop
      vertex 4.19226 -72.2706 0
      vertex 3.21216 -72.2969 1
      vertex 4.19226 -72.2706 1
    endloop
  endfacet
  facet normal -0.0268243 0.99964 0
    outer loop
      vertex 3.21216 -72.2969 1
      vertex 4.19226 -72.2706 0
      vertex 3.21216 -72.2969 0
    endloop
  endfacet
  facet normal 0.065345 0.997863 -0
    outer loop
      vertex 3.21216 -72.2969 0
      vertex 0.782593 -72.1378 1
      vertex 3.21216 -72.2969 1
    endloop
  endfacet
  facet normal 0.065345 0.997863 0
    outer loop
      vertex 0.782593 -72.1378 1
      vertex 3.21216 -72.2969 0
      vertex 0.782593 -72.1378 0
    endloop
  endfacet
  facet normal 0.207871 0.978156 -0
    outer loop
      vertex 0.782593 -72.1378 0
      vertex -1.46292 -71.6606 1
      vertex 0.782593 -72.1378 1
    endloop
  endfacet
  facet normal 0.207871 0.978156 0
    outer loop
      vertex -1.46292 -71.6606 1
      vertex 0.782593 -72.1378 0
      vertex -1.46292 -71.6606 0
    endloop
  endfacet
  facet normal 0.359972 0.932963 -0
    outer loop
      vertex -1.46292 -71.6606 0
      vertex -3.52441 -70.8652 1
      vertex -1.46292 -71.6606 1
    endloop
  endfacet
  facet normal 0.359972 0.932963 0
    outer loop
      vertex -3.52441 -70.8652 1
      vertex -1.46292 -71.6606 0
      vertex -3.52441 -70.8652 0
    endloop
  endfacet
  facet normal 0.510114 0.860107 -0
    outer loop
      vertex -3.52441 -70.8652 0
      vertex -5.40189 -69.7517 1
      vertex -3.52441 -70.8652 1
    endloop
  endfacet
  facet normal 0.510114 0.860107 0
    outer loop
      vertex -5.40189 -69.7517 1
      vertex -3.52441 -70.8652 0
      vertex -5.40189 -69.7517 0
    endloop
  endfacet
  facet normal 0.645622 0.763657 -0
    outer loop
      vertex -5.40189 -69.7517 0
      vertex -7.09534 -68.32 1
      vertex -5.40189 -69.7517 1
    endloop
  endfacet
  facet normal 0.645622 0.763657 0
    outer loop
      vertex -7.09534 -68.32 1
      vertex -5.40189 -69.7517 0
      vertex -7.09534 -68.32 0
    endloop
  endfacet
  facet normal 0.757223 0.653157 0
    outer loop
      vertex -7.09534 -68.32 1
      vertex -8.60475 -66.5701 0
      vertex -8.60475 -66.5701 1
    endloop
  endfacet
  facet normal 0.757223 0.653157 0
    outer loop
      vertex -8.60475 -66.5701 0
      vertex -7.09534 -68.32 1
      vertex -7.09534 -68.32 0
    endloop
  endfacet
  facet normal 0.841927 0.539591 0
    outer loop
      vertex -8.60475 -66.5701 1
      vertex -9.93013 -64.5021 0
      vertex -9.93013 -64.5021 1
    endloop
  endfacet
  facet normal 0.841927 0.539591 0
    outer loop
      vertex -9.93013 -64.5021 0
      vertex -8.60475 -66.5701 1
      vertex -8.60475 -66.5701 0
    endloop
  endfacet
  facet normal 0.899785 0.436333 0
    outer loop
      vertex -9.93013 -64.5021 1
      vertex -11.0751 -62.141 0
      vertex -11.0751 -62.141 1
    endloop
  endfacet
  facet normal 0.899785 0.436333 0
    outer loop
      vertex -11.0751 -62.141 0
      vertex -9.93013 -64.5021 1
      vertex -9.93013 -64.5021 0
    endloop
  endfacet
  facet normal 0.938323 0.34576 0
    outer loop
      vertex -11.0751 -62.141 1
      vertex -12.044 -59.5116 0
      vertex -12.044 -59.5116 1
    endloop
  endfacet
  facet normal 0.938323 0.34576 0
    outer loop
      vertex -12.044 -59.5116 0
      vertex -11.0751 -62.141 1
      vertex -11.0751 -62.141 0
    endloop
  endfacet
  facet normal 0.964557 0.263875 0
    outer loop
      vertex -12.044 -59.5116 1
      vertex -12.8367 -56.614 0
      vertex -12.8367 -56.614 1
    endloop
  endfacet
  facet normal 0.964557 0.263875 0
    outer loop
      vertex -12.8367 -56.614 0
      vertex -12.044 -59.5116 1
      vertex -12.044 -59.5116 0
    endloop
  endfacet
  facet normal 0.981556 0.191177 0
    outer loop
      vertex -12.8367 -56.614 1
      vertex -13.4533 -53.4482 0
      vertex -13.4533 -53.4482 1
    endloop
  endfacet
  facet normal 0.981556 0.191177 0
    outer loop
      vertex -13.4533 -53.4482 0
      vertex -12.8367 -56.614 1
      vertex -12.8367 -56.614 0
    endloop
  endfacet
  facet normal 0.991876 0.127205 0
    outer loop
      vertex -13.4533 -53.4482 1
      vertex -13.8937 -50.0142 0
      vertex -13.8937 -50.0142 1
    endloop
  endfacet
  facet normal 0.991876 0.127205 0
    outer loop
      vertex -13.8937 -50.0142 0
      vertex -13.4533 -53.4482 1
      vertex -13.4533 -53.4482 0
    endloop
  endfacet
  facet normal 0.997463 0.07118 0
    outer loop
      vertex -13.8937 -50.0142 1
      vertex -14.1579 -46.3119 0
      vertex -14.1579 -46.3119 1
    endloop
  endfacet
  facet normal 0.997463 0.07118 0
    outer loop
      vertex -14.1579 -46.3119 0
      vertex -13.8937 -50.0142 1
      vertex -13.8937 -50.0142 0
    endloop
  endfacet
  facet normal 0.999754 0.0221837 0
    outer loop
      vertex -14.1579 -46.3119 1
      vertex -14.246 -42.3415 0
      vertex -14.246 -42.3415 1
    endloop
  endfacet
  facet normal 0.999754 0.0221837 0
    outer loop
      vertex -14.246 -42.3415 0
      vertex -14.1579 -46.3119 1
      vertex -14.1579 -46.3119 0
    endloop
  endfacet
  facet normal 0.999808 -0.0195921 0
    outer loop
      vertex -14.246 -42.3415 1
      vertex -14.1625 -38.0804 0
      vertex -14.1625 -38.0804 1
    endloop
  endfacet
  facet normal 0.999808 -0.0195921 0
    outer loop
      vertex -14.1625 -38.0804 0
      vertex -14.246 -42.3415 1
      vertex -14.246 -42.3415 0
    endloop
  endfacet
  facet normal 0.997955 -0.0639126 0
    outer loop
      vertex -14.1625 -38.0804 1
      vertex -13.912 -34.169 0
      vertex -13.912 -34.169 1
    endloop
  endfacet
  facet normal 0.997955 -0.0639126 0
    outer loop
      vertex -13.912 -34.169 0
      vertex -14.1625 -38.0804 1
      vertex -14.1625 -38.0804 0
    endloop
  endfacet
  facet normal 0.993203 -0.116395 0
    outer loop
      vertex -13.912 -34.169 1
      vertex -13.4946 -30.6073 0
      vertex -13.4946 -30.6073 1
    endloop
  endfacet
  facet normal 0.993203 -0.116395 0
    outer loop
      vertex -13.4946 -30.6073 0
      vertex -13.912 -34.169 1
      vertex -13.912 -34.169 0
    endloop
  endfacet
  facet normal 0.983847 -0.179009 0
    outer loop
      vertex -13.4946 -30.6073 1
      vertex -12.9102 -27.3954 0
      vertex -12.9102 -27.3954 1
    endloop
  endfacet
  facet normal 0.983847 -0.179009 0
    outer loop
      vertex -12.9102 -27.3954 0
      vertex -13.4946 -30.6073 1
      vertex -13.4946 -30.6073 0
    endloop
  endfacet
  facet normal 0.967233 -0.253889 0
    outer loop
      vertex -12.9102 -27.3954 1
      vertex -12.1589 -24.5332 0
      vertex -12.1589 -24.5332 1
    endloop
  endfacet
  facet normal 0.967233 -0.253889 0
    outer loop
      vertex -12.1589 -24.5332 0
      vertex -12.9102 -27.3954 1
      vertex -12.9102 -27.3954 0
    endloop
  endfacet
  facet normal 0.939237 -0.34327 0
    outer loop
      vertex -12.1589 -24.5332 1
      vertex -11.2406 -22.0206 0
      vertex -11.2406 -22.0206 1
    endloop
  endfacet
  facet normal 0.939237 -0.34327 0
    outer loop
      vertex -11.2406 -22.0206 0
      vertex -12.1589 -24.5332 1
      vertex -12.1589 -24.5332 0
    endloop
  endfacet
  facet normal 0.893782 -0.448502 0
    outer loop
      vertex -11.2406 -22.0206 1
      vertex -10.1553 -19.8578 0
      vertex -10.1553 -19.8578 1
    endloop
  endfacet
  facet normal 0.893782 -0.448502 0
    outer loop
      vertex -10.1553 -19.8578 0
      vertex -11.2406 -22.0206 1
      vertex -11.2406 -22.0206 0
    endloop
  endfacet
  facet normal 0.825346 -0.564628 0
    outer loop
      vertex -10.1553 -19.8578 1
      vertex -8.8925 -18.0119 0
      vertex -8.8925 -18.0119 1
    endloop
  endfacet
  facet normal 0.825346 -0.564628 0
    outer loop
      vertex -8.8925 -18.0119 0
      vertex -10.1553 -19.8578 1
      vertex -10.1553 -19.8578 0
    endloop
  endfacet
  facet normal 0.732707 -0.680545 0
    outer loop
      vertex -8.8925 -18.0119 1
      vertex -7.4417 -16.4499 0
      vertex -7.4417 -16.4499 1
    endloop
  endfacet
  facet normal 0.732707 -0.680545 0
    outer loop
      vertex -7.4417 -16.4499 0
      vertex -8.8925 -18.0119 1
      vertex -8.8925 -18.0119 0
    endloop
  endfacet
  facet normal 0.614916 -0.788593 0
    outer loop
      vertex -7.4417 -16.4499 0
      vertex -5.80287 -15.172 1
      vertex -7.4417 -16.4499 1
    endloop
  endfacet
  facet normal 0.614916 -0.788593 0
    outer loop
      vertex -5.80287 -15.172 1
      vertex -7.4417 -16.4499 0
      vertex -5.80287 -15.172 0
    endloop
  endfacet
  facet normal 0.477937 -0.878394 0
    outer loop
      vertex -5.80287 -15.172 0
      vertex -3.97601 -14.178 1
      vertex -5.80287 -15.172 1
    endloop
  endfacet
  facet normal 0.477937 -0.878394 0
    outer loop
      vertex -3.97601 -14.178 1
      vertex -5.80287 -15.172 0
      vertex -3.97601 -14.178 0
    endloop
  endfacet
  facet normal 0.332349 -0.943156 0
    outer loop
      vertex -3.97601 -14.178 0
      vertex -1.96114 -13.468 1
      vertex -3.97601 -14.178 1
    endloop
  endfacet
  facet normal 0.332349 -0.943156 0
    outer loop
      vertex -1.96114 -13.468 1
      vertex -3.97601 -14.178 0
      vertex -1.96114 -13.468 0
    endloop
  endfacet
  facet normal 0.189866 -0.98181 0
    outer loop
      vertex -1.96114 -13.468 0
      vertex 0.24173 -13.042 1
      vertex -1.96114 -13.468 1
    endloop
  endfacet
  facet normal 0.189866 -0.98181 0
    outer loop
      vertex 0.24173 -13.042 1
      vertex -1.96114 -13.468 0
      vertex 0.24173 -13.042 0
    endloop
  endfacet
  facet normal 0.0592866 -0.998241 0
    outer loop
      vertex 0.24173 -13.042 0
      vertex 2.63266 -12.9 1
      vertex 0.24173 -13.042 1
    endloop
  endfacet
  facet normal 0.0592866 -0.998241 0
    outer loop
      vertex 2.63266 -12.9 1
      vertex 0.24173 -13.042 0
      vertex 2.63266 -12.9 0
    endloop
  endfacet
  facet normal -0.110681 -0.993856 0
    outer loop
      vertex 2.63266 -12.9 0
      vertex 4.95834 -13.159 1
      vertex 2.63266 -12.9 1
    endloop
  endfacet
  facet normal -0.110681 -0.993856 -0
    outer loop
      vertex 4.95834 -13.159 1
      vertex 2.63266 -12.9 0
      vertex 4.95834 -13.159 0
    endloop
  endfacet
  facet normal -0.344453 -0.938804 0
    outer loop
      vertex 4.95834 -13.159 0
      vertex 7.07632 -13.9361 1
      vertex 4.95834 -13.159 1
    endloop
  endfacet
  facet normal -0.344453 -0.938804 -0
    outer loop
      vertex 7.07632 -13.9361 1
      vertex 4.95834 -13.159 0
      vertex 7.07632 -13.9361 0
    endloop
  endfacet
  facet normal -0.561099 -0.827748 0
    outer loop
      vertex 7.07632 -13.9361 0
      vertex 8.98659 -15.231 1
      vertex 7.07632 -13.9361 1
    endloop
  endfacet
  facet normal -0.561099 -0.827748 -0
    outer loop
      vertex 8.98659 -15.231 1
      vertex 7.07632 -13.9361 0
      vertex 8.98659 -15.231 0
    endloop
  endfacet
  facet normal -0.72899 -0.684525 0
    outer loop
      vertex 10.6891 -17.0441 0
      vertex 8.98659 -15.231 1
      vertex 8.98659 -15.231 0
    endloop
  endfacet
  facet normal -0.72899 -0.684525 0
    outer loop
      vertex 8.98659 -15.231 1
      vertex 10.6891 -17.0441 0
      vertex 10.6891 -17.0441 1
    endloop
  endfacet
  facet normal -0.841786 -0.539812 0
    outer loop
      vertex 12.1839 -19.3751 0
      vertex 10.6891 -17.0441 1
      vertex 10.6891 -17.0441 0
    endloop
  endfacet
  facet normal -0.841786 -0.539812 0
    outer loop
      vertex 10.6891 -17.0441 1
      vertex 12.1839 -19.3751 0
      vertex 12.1839 -19.3751 1
    endloop
  endfacet
  facet normal -0.911316 -0.411708 0
    outer loop
      vertex 13.471 -22.2241 0
      vertex 12.1839 -19.3751 1
      vertex 12.1839 -19.3751 0
    endloop
  endfacet
  facet normal -0.911316 -0.411708 0
    outer loop
      vertex 12.1839 -19.3751 1
      vertex 13.471 -22.2241 0
      vertex 13.471 -22.2241 1
    endloop
  endfacet
  facet normal -0.952263 -0.305279 0
    outer loop
      vertex 14.5504 -25.5911 0
      vertex 13.471 -22.2241 1
      vertex 13.471 -22.2241 0
    endloop
  endfacet
  facet normal -0.952263 -0.305279 0
    outer loop
      vertex 13.471 -22.2241 1
      vertex 14.5504 -25.5911 0
      vertex 14.5504 -25.5911 1
    endloop
  endfacet
  facet normal 0.193316 -0.981137 0
    outer loop
      vertex 14.5504 -25.5911 0
      vertex 32.2023 -22.1131 1
      vertex 14.5504 -25.5911 1
    endloop
  endfacet
  facet normal 0.193316 -0.981137 0
    outer loop
      vertex 32.2023 -22.1131 1
      vertex 14.5504 -25.5911 0
      vertex 32.2023 -22.1131 0
    endloop
  endfacet
  facet normal 0.952427 0.304767 0
    outer loop
      vertex 32.2023 -22.1131 1
      vertex 31.1295 -18.7605 0
      vertex 31.1295 -18.7605 1
    endloop
  endfacet
  facet normal 0.952427 0.304767 0
    outer loop
      vertex 31.1295 -18.7605 0
      vertex 32.2023 -22.1131 1
      vertex 32.2023 -22.1131 0
    endloop
  endfacet
  facet normal 0.929443 0.368965 0
    outer loop
      vertex 31.1295 -18.7605 1
      vertex 29.8988 -15.6603 0
      vertex 29.8988 -15.6603 1
    endloop
  endfacet
  facet normal 0.929443 0.368965 0
    outer loop
      vertex 29.8988 -15.6603 0
      vertex 31.1295 -18.7605 1
      vertex 31.1295 -18.7605 0
    endloop
  endfacet
  facet normal 0.898864 0.438227 0
    outer loop
      vertex 29.8988 -15.6603 1
      vertex 28.5104 -12.8125 0
      vertex 28.5104 -12.8125 1
    endloop
  endfacet
  facet normal 0.898864 0.438227 0
    outer loop
      vertex 28.5104 -12.8125 0
      vertex 29.8988 -15.6603 1
      vertex 29.8988 -15.6603 0
    endloop
  endfacet
  facet normal 0.859084 0.511835 0
    outer loop
      vertex 28.5104 -12.8125 1
      vertex 26.9642 -10.2173 0
      vertex 26.9642 -10.2173 1
    endloop
  endfacet
  facet normal 0.859084 0.511835 0
    outer loop
      vertex 26.9642 -10.2173 0
      vertex 28.5104 -12.8125 1
      vertex 28.5104 -12.8125 0
    endloop
  endfacet
  facet normal 0.808731 0.588179 0
    outer loop
      vertex 26.9642 -10.2173 1
      vertex 25.2603 -7.87448 0
      vertex 25.2603 -7.87448 1
    endloop
  endfacet
  facet normal 0.808731 0.588179 0
    outer loop
      vertex 25.2603 -7.87448 0
      vertex 26.9642 -10.2173 1
      vertex 26.9642 -10.2173 0
    endloop
  endfacet
  facet normal 0.746747 0.665108 0
    outer loop
      vertex 25.2603 -7.87448 1
      vertex 23.3985 -5.78415 0
      vertex 23.3985 -5.78415 1
    endloop
  endfacet
  facet normal 0.746747 0.665108 0
    outer loop
      vertex 23.3985 -5.78415 0
      vertex 25.2603 -7.87448 1
      vertex 25.2603 -7.87448 0
    endloop
  endfacet
  facet normal 0.673064 0.739584 -0
    outer loop
      vertex 23.3985 -5.78415 0
      vertex 21.379 -3.94629 1
      vertex 23.3985 -5.78415 1
    endloop
  endfacet
  facet normal 0.673064 0.739584 0
    outer loop
      vertex 21.379 -3.94629 1
      vertex 23.3985 -5.78415 0
      vertex 21.379 -3.94629 0
    endloop
  endfacet
  facet normal 0.588317 0.80863 -0
    outer loop
      vertex 21.379 -3.94629 0
      vertex 19.1941 -2.35667 1
      vertex 21.379 -3.94629 1
    endloop
  endfacet
  facet normal 0.588317 0.80863 0
    outer loop
      vertex 19.1941 -2.35667 1
      vertex 21.379 -3.94629 0
      vertex 19.1941 -2.35667 0
    endloop
  endfacet
  facet normal 0.495386 0.868673 -0
    outer loop
      vertex 19.1941 -2.35667 0
      vertex 16.8355 -1.01161 1
      vertex 19.1941 -2.35667 1
    endloop
  endfacet
  facet normal 0.495386 0.868673 0
    outer loop
      vertex 16.8355 -1.01161 1
      vertex 19.1941 -2.35667 0
      vertex 16.8355 -1.01161 0
    endloop
  endfacet
  facet normal 0.398598 0.917126 -0
    outer loop
      vertex 16.8355 -1.01161 0
      vertex 14.3034 0.0888824 1
      vertex 16.8355 -1.01161 1
    endloop
  endfacet
  facet normal 0.398598 0.917126 0
    outer loop
      vertex 14.3034 0.0888824 1
      vertex 16.8355 -1.01161 0
      vertex 14.3034 0.0888824 0
    endloop
  endfacet
  facet normal 0.30162 0.953428 -0
    outer loop
      vertex 14.3034 0.0888824 0
      vertex 11.5977 0.944839 1
      vertex 14.3034 0.0888824 1
    endloop
  endfacet
  facet normal 0.30162 0.953428 0
    outer loop
      vertex 11.5977 0.944839 1
      vertex 14.3034 0.0888824 0
      vertex 11.5977 0.944839 0
    endloop
  endfacet
  facet normal 0.207703 0.978192 -0
    outer loop
      vertex 11.5977 0.944839 0
      vertex 8.71831 1.55623 1
      vertex 11.5977 0.944839 1
    endloop
  endfacet
  facet normal 0.207703 0.978192 0
    outer loop
      vertex 8.71831 1.55623 1
      vertex 11.5977 0.944839 0
      vertex 8.71831 1.55623 0
    endloop
  endfacet
  facet normal 0.119302 0.992858 -0
    outer loop
      vertex 8.71831 1.55623 0
      vertex 5.66539 1.92307 1
      vertex 8.71831 1.55623 1
    endloop
  endfacet
  facet normal 0.119302 0.992858 0
    outer loop
      vertex 5.66539 1.92307 1
      vertex 8.71831 1.55623 0
      vertex 5.66539 1.92307 0
    endloop
  endfacet
  facet normal 0.0378711 0.999283 -0
    outer loop
      vertex 5.66539 1.92307 0
      vertex 2.43886 2.04535 1
      vertex 5.66539 1.92307 1
    endloop
  endfacet
  facet normal 0.0378711 0.999283 0
    outer loop
      vertex 2.43886 2.04535 1
      vertex 5.66539 1.92307 0
      vertex 2.43886 2.04535 0
    endloop
  endfacet
  facet normal -0.0945575 0.995519 0
    outer loop
      vertex 2.43886 2.04535 0
      vertex -7.0981 1.1395 1
      vertex 2.43886 2.04535 1
    endloop
  endfacet
  facet normal -0.0945575 0.995519 0
    outer loop
      vertex -7.0981 1.1395 1
      vertex 2.43886 2.04535 0
      vertex -7.0981 1.1395 0
    endloop
  endfacet
  facet normal -0.31915 0.947704 0
    outer loop
      vertex -7.0981 1.1395 0
      vertex -15.1678 -1.57806 1
      vertex -7.0981 1.1395 1
    endloop
  endfacet
  facet normal -0.31915 0.947704 0
    outer loop
      vertex -15.1678 -1.57806 1
      vertex -7.0981 1.1395 0
      vertex -15.1678 -1.57806 0
    endloop
  endfacet
  facet normal -0.565679 0.824626 0
    outer loop
      vertex -15.1678 -1.57806 0
      vertex -21.7704 -6.10733 1
      vertex -15.1678 -1.57806 1
    endloop
  endfacet
  facet normal -0.565679 0.824626 0
    outer loop
      vertex -21.7704 -6.10733 1
      vertex -15.1678 -1.57806 0
      vertex -21.7704 -6.10733 0
    endloop
  endfacet
  facet normal -0.777117 0.629356 0
    outer loop
      vertex -26.9057 -12.4483 0
      vertex -21.7704 -6.10733 1
      vertex -21.7704 -6.10733 0
    endloop
  endfacet
  facet normal -0.777117 0.629356 0
    outer loop
      vertex -21.7704 -6.10733 1
      vertex -26.9057 -12.4483 0
      vertex -26.9057 -12.4483 1
    endloop
  endfacet
  facet normal -0.911951 0.410298 0
    outer loop
      vertex -30.5737 -20.601 0
      vertex -26.9057 -12.4483 1
      vertex -26.9057 -12.4483 0
    endloop
  endfacet
  facet normal -0.911951 0.410298 0
    outer loop
      vertex -26.9057 -12.4483 1
      vertex -30.5737 -20.601 0
      vertex -30.5737 -20.601 1
    endloop
  endfacet
  facet normal -0.976465 0.215678 0
    outer loop
      vertex -32.7746 -30.5654 0
      vertex -30.5737 -20.601 1
      vertex -30.5737 -20.601 0
    endloop
  endfacet
  facet normal -0.976465 0.215678 0
    outer loop
      vertex -30.5737 -20.601 1
      vertex -32.7746 -30.5654 0
      vertex -32.7746 -30.5654 1
    endloop
  endfacet
  facet normal -0.998065 0.0621751 0
    outer loop
      vertex -33.5082 -42.3415 0
      vertex -32.7746 -30.5654 1
      vertex -32.7746 -30.5654 0
    endloop
  endfacet
  facet normal -0.998065 0.0621751 0
    outer loop
      vertex -32.7746 -30.5654 1
      vertex -33.5082 -42.3415 0
      vertex -33.5082 -42.3415 1
    endloop
  endfacet
  facet normal -0.999473 -0.0324719 0
    outer loop
      vertex -33.3149 -48.2912 0
      vertex -33.5082 -42.3415 1
      vertex -33.5082 -42.3415 0
    endloop
  endfacet
  facet normal -0.999473 -0.0324719 0
    outer loop
      vertex -33.5082 -42.3415 1
      vertex -33.3149 -48.2912 0
      vertex -33.3149 -48.2912 1
    endloop
  endfacet
  facet normal -0.994597 -0.103809 0
    outer loop
      vertex -32.7352 -53.8453 0
      vertex -33.3149 -48.2912 1
      vertex -33.3149 -48.2912 0
    endloop
  endfacet
  facet normal -0.994597 -0.103809 0
    outer loop
      vertex -33.3149 -48.2912 1
      vertex -32.7352 -53.8453 0
      vertex -32.7352 -53.8453 1
    endloop
  endfacet
  facet normal -0.982903 -0.184126 0
    outer loop
      vertex -31.7689 -59.0036 0
      vertex -32.7352 -53.8453 1
      vertex -32.7352 -53.8453 0
    endloop
  endfacet
  facet normal -0.982903 -0.184126 0
    outer loop
      vertex -32.7352 -53.8453 1
      vertex -31.7689 -59.0036 0
      vertex -31.7689 -59.0036 1
    endloop
  endfacet
  facet normal -0.961947 -0.273238 0
    outer loop
      vertex -30.4161 -63.7662 0
      vertex -31.7689 -59.0036 1
      vertex -31.7689 -59.0036 0
    endloop
  endfacet
  facet normal -0.961947 -0.273238 0
    outer loop
      vertex -31.7689 -59.0036 1
      vertex -30.4161 -63.7662 0
      vertex -30.4161 -63.7662 1
    endloop
  endfacet
  facet normal -0.929023 -0.370022 0
    outer loop
      vertex -28.6768 -68.1331 0
      vertex -30.4161 -63.7662 1
      vertex -30.4161 -63.7662 0
    endloop
  endfacet
  facet normal -0.929023 -0.370022 0
    outer loop
      vertex -30.4161 -63.7662 1
      vertex -28.6768 -68.1331 0
      vertex -28.6768 -68.1331 1
    endloop
  endfacet
  facet normal -0.881621 -0.471958 0
    outer loop
      vertex -26.5509 -72.1043 0
      vertex -28.6768 -68.1331 1
      vertex -28.6768 -68.1331 0
    endloop
  endfacet
  facet normal -0.881621 -0.471958 0
    outer loop
      vertex -28.6768 -68.1331 1
      vertex -26.5509 -72.1043 0
      vertex -26.5509 -72.1043 1
    endloop
  endfacet
  facet normal -0.818215 -0.574913 0
    outer loop
      vertex -24.0386 -75.6798 0
      vertex -26.5509 -72.1043 1
      vertex -26.5509 -72.1043 0
    endloop
  endfacet
  facet normal -0.818215 -0.574913 0
    outer loop
      vertex -26.5509 -72.1043 1
      vertex -24.0386 -75.6798 0
      vertex -24.0386 -75.6798 1
    endloop
  endfacet
  facet normal -0.739387 -0.67328 0
    outer loop
      vertex -21.1828 -78.816 0
      vertex -24.0386 -75.6798 1
      vertex -24.0386 -75.6798 0
    endloop
  endfacet
  facet normal -0.739387 -0.67328 0
    outer loop
      vertex -24.0386 -75.6798 1
      vertex -21.1828 -78.816 0
      vertex -21.1828 -78.816 1
    endloop
  endfacet
  facet normal -0.643642 -0.765327 0
    outer loop
      vertex -21.1828 -78.816 0
      vertex -18.0274 -81.4697 1
      vertex -21.1828 -78.816 1
    endloop
  endfacet
  facet normal -0.643642 -0.765327 -0
    outer loop
      vertex -18.0274 -81.4697 1
      vertex -21.1828 -78.816 0
      vertex -18.0274 -81.4697 0
    endloop
  endfacet
  facet normal -0.532042 -0.846718 0
    outer loop
      vertex -18.0274 -81.4697 0
      vertex -14.5722 -83.6408 1
      vertex -18.0274 -81.4697 1
    endloop
  endfacet
  facet normal -0.532042 -0.846718 -0
    outer loop
      vertex -14.5722 -83.6408 1
      vertex -18.0274 -81.4697 0
      vertex -14.5722 -83.6408 0
    endloop
  endfacet
  facet normal -0.410153 -0.912017 0
    outer loop
      vertex -14.5722 -83.6408 0
      vertex -10.8172 -85.3295 1
      vertex -14.5722 -83.6408 1
    endloop
  endfacet
  facet normal -0.410153 -0.912017 -0
    outer loop
      vertex -10.8172 -85.3295 1
      vertex -14.5722 -83.6408 0
      vertex -10.8172 -85.3295 0
    endloop
  endfacet
  facet normal -0.285135 -0.958487 0
    outer loop
      vertex -10.8172 -85.3295 0
      vertex -6.76254 -86.5357 1
      vertex -10.8172 -85.3295 1
    endloop
  endfacet
  facet normal -0.285135 -0.958487 -0
    outer loop
      vertex -6.76254 -86.5357 1
      vertex -10.8172 -85.3295 0
      vertex -6.76254 -86.5357 0
    endloop
  endfacet
  facet normal -0.16395 -0.986469 0
    outer loop
      vertex -6.76254 -86.5357 0
      vertex -2.40813 -87.2594 1
      vertex -6.76254 -86.5357 1
    endloop
  endfacet
  facet normal -0.16395 -0.986469 -0
    outer loop
      vertex -2.40813 -87.2594 1
      vertex -6.76254 -86.5357 0
      vertex -2.40813 -87.2594 0
    endloop
  endfacet
  facet normal -0.0517769 -0.998659 0
    outer loop
      vertex -2.40813 -87.2594 0
      vertex 2.246 -87.5007 1
      vertex -2.40813 -87.2594 1
    endloop
  endfacet
  facet normal -0.0517769 -0.998659 -0
    outer loop
      vertex 2.246 -87.5007 1
      vertex -2.40813 -87.2594 0
      vertex 2.246 -87.5007 0
    endloop
  endfacet
  facet normal 0.0585838 -0.998282 0
    outer loop
      vertex 2.246 -87.5007 0
      vertex 6.83835 -87.2312 1
      vertex 2.246 -87.5007 1
    endloop
  endfacet
  facet normal 0.0585838 -0.998282 0
    outer loop
      vertex 6.83835 -87.2312 1
      vertex 2.246 -87.5007 0
      vertex 6.83835 -87.2312 0
    endloop
  endfacet
endsolid OpenSCAD_Model
