solid OpenSCAD_Model
  facet normal 0 0 -1
    outer loop
      vertex 2.35153 -29.6119 0
      vertex 16.0885 -36.1587 0
      vertex 13.1816 -41.5346 0
    endloop
  endfacet
  facet normal 0 0 -1
    outer loop
      vertex -1.10428 -34.991 0
      vertex 13.1816 -41.5346 0
      vertex 10.6716 -46.6818 0
    endloop
  endfacet
  facet normal 0 0 -1
    outer loop
      vertex 16.0885 -36.1587 0
      vertex 10.3399 -18.5578 0
      vertex 14.8725 -12.8829 0
    endloop
  endfacet
  facet normal 0 0 -1
    outer loop
      vertex -4.2012 -40.2716 0
      vertex 10.6716 -46.6818 0
      vertex 8.55875 -51.6002 0
    endloop
  endfacet
  facet normal 0 0 -1
    outer loop
      vertex -6.93922 -45.4537 0
      vertex 8.55875 -51.6002 0
      vertex 6.78136 -56.3976 0
    endloop
  endfacet
  facet normal 0 0 -1
    outer loop
      vertex 16.0885 -36.1587 0
      vertex 6.16626 -24.1341 0
      vertex 10.3399 -18.5578 0
    endloop
  endfacet
  facet normal 0 0 -1
    outer loop
      vertex -9.31833 -50.5371 0
      vertex 6.78136 -56.3976 0
      vertex 5.27742 -61.1819 0
    endloop
  endfacet
  facet normal 0 0 -1
    outer loop
      vertex -13.0887 -60.5345 0
      vertex 5.27742 -61.1819 0
      vertex 4.04691 -65.9531 0
    endloop
  endfacet
  facet normal 0 0 -1
    outer loop
      vertex -14.5026 -65.4799 0
      vertex 4.04691 -65.9531 0
      vertex 3.08986 -70.7111 0
    endloop
  endfacet
  facet normal 0 0 -1
    outer loop
      vertex -15.6023 -70.3897 0
      vertex 3.08986 -70.7111 0
      vertex 2.40625 -75.4559 0
    endloop
  endfacet
  facet normal 0 0 -1
    outer loop
      vertex 16.0885 -36.1587 0
      vertex 2.35153 -29.6119 0
      vertex 6.16626 -24.1341 0
    endloop
  endfacet
  facet normal 0 0 -1
    outer loop
      vertex -16.3878 -75.2641 0
      vertex 2.40625 -75.4559 0
      vertex 1.99608 -80.1877 0
    endloop
  endfacet
  facet normal 0 0 -1
    outer loop
      vertex -16.8591 -80.1029 0
      vertex 1.99608 -80.1877 0
      vertex 1.85936 -84.9062 0
    endloop
  endfacet
  facet normal 0 0 -1
    outer loop
      vertex 13.1816 -41.5346 0
      vertex -1.10428 -34.991 0
      vertex 2.35153 -29.6119 0
    endloop
  endfacet
  facet normal 0 0 -1
    outer loop
      vertex 10.6716 -46.6818 0
      vertex -4.2012 -40.2716 0
      vertex -1.10428 -34.991 0
    endloop
  endfacet
  facet normal 0 0 -1
    outer loop
      vertex 8.55875 -51.6002 0
      vertex -6.93922 -45.4537 0
      vertex -4.2012 -40.2716 0
    endloop
  endfacet
  facet normal 0 0 -1
    outer loop
      vertex 6.78136 -56.3976 0
      vertex -9.31833 -50.5371 0
      vertex -6.93922 -45.4537 0
    endloop
  endfacet
  facet normal 0 0 -1
    outer loop
      vertex 5.27742 -61.1819 0
      vertex -11.3606 -55.5536 0
      vertex -9.31833 -50.5371 0
    endloop
  endfacet
  facet normal 0 0 -1
    outer loop
      vertex 5.27742 -61.1819 0
      vertex -13.0887 -60.5345 0
      vertex -11.3606 -55.5536 0
    endloop
  endfacet
  facet normal 0 0 -1
    outer loop
      vertex 4.04691 -65.9531 0
      vertex -14.5026 -65.4799 0
      vertex -13.0887 -60.5345 0
    endloop
  endfacet
  facet normal 0 0 -1
    outer loop
      vertex 3.08986 -70.7111 0
      vertex -15.6023 -70.3897 0
      vertex -14.5026 -65.4799 0
    endloop
  endfacet
  facet normal 0 0 -1
    outer loop
      vertex 2.40625 -75.4559 0
      vertex -16.3878 -75.2641 0
      vertex -15.6023 -70.3897 0
    endloop
  endfacet
  facet normal 0 0 -1
    outer loop
      vertex 1.99608 -80.1877 0
      vertex -16.8591 -80.1029 0
      vertex -16.3878 -75.2641 0
    endloop
  endfacet
  facet normal 0 -0 -1
    outer loop
      vertex -16.8591 -80.1029 0
      vertex 1.85936 -84.9062 0
      vertex -17.0162 -84.9062 0
    endloop
  endfacet
  facet normal 0 0 -1
    outer loop
      vertex 14.8725 -12.8829 0
      vertex 31.6865 -12.3671 0
      vertex 27.1915 -18.6581 0
    endloop
  endfacet
  facet normal 0 0 -1
    outer loop
      vertex 14.8725 -12.8829 0
      vertex 27.1915 -18.6581 0
      vertex 23.0935 -24.7204 0
    endloop
  endfacet
  facet normal 0 0 -1
    outer loop
      vertex 14.8725 -12.8829 0
      vertex 23.0935 -24.7204 0
      vertex 19.3925 -30.5539 0
    endloop
  endfacet
  facet normal 0 0 -1
    outer loop
      vertex 14.8725 -12.8829 0
      vertex 19.3925 -30.5539 0
      vertex 16.0885 -36.1587 0
    endloop
  endfacet
  facet normal -0 0 -1
    outer loop
      vertex 31.6865 -12.3671 0
      vertex 14.8725 -12.8829 0
      vertex 31.6865 1.99879 0
    endloop
  endfacet
  facet normal 0 0 -1
    outer loop
      vertex -30.2231 1.99879 0
      vertex 14.8725 -12.8829 0
      vertex -30.2231 -12.8829 0
    endloop
  endfacet
  facet normal 0 0 -1
    outer loop
      vertex 14.8725 -12.8829 0
      vertex -30.2231 1.99879 0
      vertex 31.6865 1.99879 0
    endloop
  endfacet
  facet normal 0 0 1
    outer loop
      vertex 14.8725 -12.8829 1
      vertex 31.6865 -12.3671 1
      vertex 31.6865 1.99879 1
    endloop
  endfacet
  facet normal 0 0 1
    outer loop
      vertex 31.6865 -12.3671 1
      vertex 14.8725 -12.8829 1
      vertex 27.1915 -18.6581 1
    endloop
  endfacet
  facet normal 0 0 1
    outer loop
      vertex 27.1915 -18.6581 1
      vertex 14.8725 -12.8829 1
      vertex 23.0935 -24.7204 1
    endloop
  endfacet
  facet normal -0 0 1
    outer loop
      vertex 10.3399 -18.5578 1
      vertex 23.0935 -24.7204 1
      vertex 14.8725 -12.8829 1
    endloop
  endfacet
  facet normal 0 0 1
    outer loop
      vertex 23.0935 -24.7204 1
      vertex 10.3399 -18.5578 1
      vertex 19.3925 -30.5539 1
    endloop
  endfacet
  facet normal -0 0 1
    outer loop
      vertex -30.2231 1.99879 1
      vertex 14.8725 -12.8829 1
      vertex 31.6865 1.99879 1
    endloop
  endfacet
  facet normal 0 0 1
    outer loop
      vertex 14.8725 -12.8829 1
      vertex -30.2231 1.99879 1
      vertex -30.2231 -12.8829 1
    endloop
  endfacet
  facet normal -0 0 1
    outer loop
      vertex 6.16626 -24.1341 1
      vertex 19.3925 -30.5539 1
      vertex 10.3399 -18.5578 1
    endloop
  endfacet
  facet normal 0 0 1
    outer loop
      vertex 19.3925 -30.5539 1
      vertex 6.16626 -24.1341 1
      vertex 16.0885 -36.1587 1
    endloop
  endfacet
  facet normal -0 0 1
    outer loop
      vertex 2.35153 -29.6119 1
      vertex 16.0885 -36.1587 1
      vertex 6.16626 -24.1341 1
    endloop
  endfacet
  facet normal 0 0 1
    outer loop
      vertex 16.0885 -36.1587 1
      vertex 2.35153 -29.6119 1
      vertex 13.1816 -41.5346 1
    endloop
  endfacet
  facet normal -0 0 1
    outer loop
      vertex -1.10428 -34.991 1
      vertex 13.1816 -41.5346 1
      vertex 2.35153 -29.6119 1
    endloop
  endfacet
  facet normal 0 0 1
    outer loop
      vertex 13.1816 -41.5346 1
      vertex -1.10428 -34.991 1
      vertex 10.6716 -46.6818 1
    endloop
  endfacet
  facet normal -0 0 1
    outer loop
      vertex -4.2012 -40.2716 1
      vertex 10.6716 -46.6818 1
      vertex -1.10428 -34.991 1
    endloop
  endfacet
  facet normal 0 0 1
    outer loop
      vertex 10.6716 -46.6818 1
      vertex -4.2012 -40.2716 1
      vertex 8.55875 -51.6002 1
    endloop
  endfacet
  facet normal -0 0 1
    outer loop
      vertex -6.93922 -45.4537 1
      vertex 8.55875 -51.6002 1
      vertex -4.2012 -40.2716 1
    endloop
  endfacet
  facet normal 0 0 1
    outer loop
      vertex 8.55875 -51.6002 1
      vertex -6.93922 -45.4537 1
      vertex 6.78136 -56.3976 1
    endloop
  endfacet
  facet normal -0 0 1
    outer loop
      vertex -9.31833 -50.5371 1
      vertex 6.78136 -56.3976 1
      vertex -6.93922 -45.4537 1
    endloop
  endfacet
  facet normal 0 0 1
    outer loop
      vertex 6.78136 -56.3976 1
      vertex -9.31833 -50.5371 1
      vertex 5.27742 -61.1819 1
    endloop
  endfacet
  facet normal -0 0 1
    outer loop
      vertex -11.3606 -55.5536 1
      vertex 5.27742 -61.1819 1
      vertex -9.31833 -50.5371 1
    endloop
  endfacet
  facet normal -0 0 1
    outer loop
      vertex -13.0887 -60.5345 1
      vertex 5.27742 -61.1819 1
      vertex -11.3606 -55.5536 1
    endloop
  endfacet
  facet normal 0 0 1
    outer loop
      vertex 5.27742 -61.1819 1
      vertex -13.0887 -60.5345 1
      vertex 4.04691 -65.9531 1
    endloop
  endfacet
  facet normal -0 0 1
    outer loop
      vertex -14.5026 -65.4799 1
      vertex 4.04691 -65.9531 1
      vertex -13.0887 -60.5345 1
    endloop
  endfacet
  facet normal 0 0 1
    outer loop
      vertex 4.04691 -65.9531 1
      vertex -14.5026 -65.4799 1
      vertex 3.08986 -70.7111 1
    endloop
  endfacet
  facet normal -0 0 1
    outer loop
      vertex -15.6023 -70.3897 1
      vertex 3.08986 -70.7111 1
      vertex -14.5026 -65.4799 1
    endloop
  endfacet
  facet normal 0 0 1
    outer loop
      vertex 3.08986 -70.7111 1
      vertex -15.6023 -70.3897 1
      vertex 2.40625 -75.4559 1
    endloop
  endfacet
  facet normal -0 0 1
    outer loop
      vertex -16.3878 -75.2641 1
      vertex 2.40625 -75.4559 1
      vertex -15.6023 -70.3897 1
    endloop
  endfacet
  facet normal 0 0 1
    outer loop
      vertex 2.40625 -75.4559 1
      vertex -16.3878 -75.2641 1
      vertex 1.99608 -80.1877 1
    endloop
  endfacet
  facet normal -0 0 1
    outer loop
      vertex -16.8591 -80.1029 1
      vertex 1.99608 -80.1877 1
      vertex -16.3878 -75.2641 1
    endloop
  endfacet
  facet normal 0 0 1
    outer loop
      vertex 1.99608 -80.1877 1
      vertex -16.8591 -80.1029 1
      vertex 1.85936 -84.9062 1
    endloop
  endfacet
  facet normal 0 0 1
    outer loop
      vertex 1.85936 -84.9062 1
      vertex -16.8591 -80.1029 1
      vertex -17.0162 -84.9062 1
    endloop
  endfacet
  facet normal 0.996264 -0.0863599 0
    outer loop
      vertex 1.99608 -80.1877 1
      vertex 2.40625 -75.4559 0
      vertex 2.40625 -75.4559 1
    endloop
  endfacet
  facet normal 0.996264 -0.0863599 0
    outer loop
      vertex 2.40625 -75.4559 0
      vertex 1.99608 -80.1877 1
      vertex 1.99608 -80.1877 0
    endloop
  endfacet
  facet normal 0.98978 -0.142603 0
    outer loop
      vertex 2.40625 -75.4559 1
      vertex 3.08986 -70.7111 0
      vertex 3.08986 -70.7111 1
    endloop
  endfacet
  facet normal 0.98978 -0.142603 0
    outer loop
      vertex 3.08986 -70.7111 0
      vertex 2.40625 -75.4559 1
      vertex 2.40625 -75.4559 0
    endloop
  endfacet
  facet normal 0.980364 -0.197196 0
    outer loop
      vertex 3.08986 -70.7111 1
      vertex 4.04691 -65.9531 0
      vertex 4.04691 -65.9531 1
    endloop
  endfacet
  facet normal 0.980364 -0.197196 0
    outer loop
      vertex 4.04691 -65.9531 0
      vertex 3.08986 -70.7111 1
      vertex 3.08986 -70.7111 0
    endloop
  endfacet
  facet normal 0.968315 -0.249732 0
    outer loop
      vertex 4.04691 -65.9531 1
      vertex 5.27742 -61.1819 0
      vertex 5.27742 -61.1819 1
    endloop
  endfacet
  facet normal 0.968315 -0.249732 0
    outer loop
      vertex 5.27742 -61.1819 0
      vertex 4.04691 -65.9531 1
      vertex 4.04691 -65.9531 0
    endloop
  endfacet
  facet normal 0.953976 -0.299882 0
    outer loop
      vertex 5.27742 -61.1819 1
      vertex 6.78136 -56.3976 0
      vertex 6.78136 -56.3976 1
    endloop
  endfacet
  facet normal 0.953976 -0.299882 0
    outer loop
      vertex 6.78136 -56.3976 0
      vertex 5.27742 -61.1819 1
      vertex 5.27742 -61.1819 0
    endloop
  endfacet
  facet normal 0.937712 -0.347413 0
    outer loop
      vertex 6.78136 -56.3976 1
      vertex 8.55875 -51.6002 0
      vertex 8.55875 -51.6002 1
    endloop
  endfacet
  facet normal 0.937712 -0.347413 0
    outer loop
      vertex 8.55875 -51.6002 0
      vertex 6.78136 -56.3976 1
      vertex 6.78136 -56.3976 0
    endloop
  endfacet
  facet normal 0.918809 -0.394703 0
    outer loop
      vertex 8.55875 -51.6002 1
      vertex 10.6716 -46.6818 0
      vertex 10.6716 -46.6818 1
    endloop
  endfacet
  facet normal 0.918809 -0.394703 0
    outer loop
      vertex 10.6716 -46.6818 0
      vertex 8.55875 -51.6002 1
      vertex 8.55875 -51.6002 0
    endloop
  endfacet
  facet normal 0.898825 -0.438307 0
    outer loop
      vertex 10.6716 -46.6818 1
      vertex 13.1816 -41.5346 0
      vertex 13.1816 -41.5346 1
    endloop
  endfacet
  facet normal 0.898825 -0.438307 0
    outer loop
      vertex 13.1816 -41.5346 0
      vertex 10.6716 -46.6818 1
      vertex 10.6716 -46.6818 0
    endloop
  endfacet
  facet normal 0.879638 -0.475645 0
    outer loop
      vertex 13.1816 -41.5346 1
      vertex 16.0885 -36.1587 0
      vertex 16.0885 -36.1587 1
    endloop
  endfacet
  facet normal 0.879638 -0.475645 0
    outer loop
      vertex 16.0885 -36.1587 0
      vertex 13.1816 -41.5346 1
      vertex 13.1816 -41.5346 0
    endloop
  endfacet
  facet normal 0.86146 -0.507826 0
    outer loop
      vertex 16.0885 -36.1587 1
      vertex 19.3925 -30.5539 0
      vertex 19.3925 -30.5539 1
    endloop
  endfacet
  facet normal 0.86146 -0.507826 0
    outer loop
      vertex 19.3925 -30.5539 0
      vertex 16.0885 -36.1587 1
      vertex 16.0885 -36.1587 0
    endloop
  endfacet
  facet normal 0.844397 -0.535718 0
    outer loop
      vertex 19.3925 -30.5539 1
      vertex 23.0935 -24.7204 0
      vertex 23.0935 -24.7204 1
    endloop
  endfacet
  facet normal 0.844397 -0.535718 0
    outer loop
      vertex 23.0935 -24.7204 0
      vertex 19.3925 -30.5539 1
      vertex 19.3925 -30.5539 0
    endloop
  endfacet
  facet normal 0.828472 -0.560031 0
    outer loop
      vertex 23.0935 -24.7204 1
      vertex 27.1915 -18.6581 0
      vertex 27.1915 -18.6581 1
    endloop
  endfacet
  facet normal 0.828472 -0.560031 0
    outer loop
      vertex 27.1915 -18.6581 0
      vertex 23.0935 -24.7204 1
      vertex 23.0935 -24.7204 0
    endloop
  endfacet
  facet normal 0.813646 -0.581361 0
    outer loop
      vertex 27.1915 -18.6581 1
      vertex 31.6865 -12.3671 0
      vertex 31.6865 -12.3671 1
    endloop
  endfacet
  facet normal 0.813646 -0.581361 0
    outer loop
      vertex 31.6865 -12.3671 0
      vertex 27.1915 -18.6581 1
      vertex 27.1915 -18.6581 0
    endloop
  endfacet
  facet normal 1 -0 0
    outer loop
      vertex 31.6865 -12.3671 1
      vertex 31.6865 1.99879 0
      vertex 31.6865 1.99879 1
    endloop
  endfacet
  facet normal 1 0 0
    outer loop
      vertex 31.6865 1.99879 0
      vertex 31.6865 -12.3671 1
      vertex 31.6865 -12.3671 0
    endloop
  endfacet
  facet normal 0 1 -0
    outer loop
      vertex 31.6865 1.99879 0
      vertex -30.2231 1.99879 1
      vertex 31.6865 1.99879 1
    endloop
  endfacet
  facet normal 0 1 0
    outer loop
      vertex -30.2231 1.99879 1
      vertex 31.6865 1.99879 0
      vertex -30.2231 1.99879 0
    endloop
  endfacet
  facet normal -1 0 0
    outer loop
      vertex -30.2231 -12.8829 0
      vertex -30.2231 1.99879 1
      vertex -30.2231 1.99879 0
    endloop
  endfacet
  facet normal -1 -0 0
    outer loop
      vertex -30.2231 1.99879 1
      vertex -30.2231 -12.8829 0
      vertex -30.2231 -12.8829 1
    endloop
  endfacet
  facet normal 0 -1 0
    outer loop
      vertex -30.2231 -12.8829 0
      vertex 14.8725 -12.8829 1
      vertex -30.2231 -12.8829 1
    endloop
  endfacet
  facet normal 0 -1 -0
    outer loop
      vertex 14.8725 -12.8829 1
      vertex -30.2231 -12.8829 0
      vertex 14.8725 -12.8829 0
    endloop
  endfacet
  facet normal -0.78136 0.62408 0
    outer loop
      vertex 10.3399 -18.5578 0
      vertex 14.8725 -12.8829 1
      vertex 14.8725 -12.8829 0
    endloop
  endfacet
  facet normal -0.78136 0.62408 0
    outer loop
      vertex 14.8725 -12.8829 1
      vertex 10.3399 -18.5578 0
      vertex 10.3399 -18.5578 1
    endloop
  endfacet
  facet normal -0.800591 0.599211 0
    outer loop
      vertex 6.16626 -24.1341 0
      vertex 10.3399 -18.5578 1
      vertex 10.3399 -18.5578 0
    endloop
  endfacet
  facet normal -0.800591 0.599211 0
    outer loop
      vertex 10.3399 -18.5578 1
      vertex 6.16626 -24.1341 0
      vertex 6.16626 -24.1341 1
    endloop
  endfacet
  facet normal -0.820618 0.571477 0
    outer loop
      vertex 2.35153 -29.6119 0
      vertex 6.16626 -24.1341 1
      vertex 6.16626 -24.1341 0
    endloop
  endfacet
  facet normal -0.820618 0.571477 0
    outer loop
      vertex 6.16626 -24.1341 1
      vertex 2.35153 -29.6119 0
      vertex 2.35153 -29.6119 1
    endloop
  endfacet
  facet normal -0.841334 0.540516 0
    outer loop
      vertex -1.10428 -34.991 0
      vertex 2.35153 -29.6119 1
      vertex 2.35153 -29.6119 0
    endloop
  endfacet
  facet normal -0.841334 0.540516 0
    outer loop
      vertex 2.35153 -29.6119 1
      vertex -1.10428 -34.991 0
      vertex -1.10428 -34.991 1
    endloop
  endfacet
  facet normal -0.862598 0.505889 0
    outer loop
      vertex -4.2012 -40.2716 0
      vertex -1.10428 -34.991 1
      vertex -1.10428 -34.991 0
    endloop
  endfacet
  facet normal -0.862598 0.505889 0
    outer loop
      vertex -1.10428 -34.991 1
      vertex -4.2012 -40.2716 0
      vertex -4.2012 -40.2716 1
    endloop
  endfacet
  facet normal -0.884172 0.467162 0
    outer loop
      vertex -6.93922 -45.4537 0
      vertex -4.2012 -40.2716 1
      vertex -4.2012 -40.2716 0
    endloop
  endfacet
  facet normal -0.884172 0.467162 0
    outer loop
      vertex -4.2012 -40.2716 1
      vertex -6.93922 -45.4537 0
      vertex -6.93922 -45.4537 1
    endloop
  endfacet
  facet normal -0.905714 0.423888 0
    outer loop
      vertex -9.31833 -50.5371 0
      vertex -6.93922 -45.4537 1
      vertex -6.93922 -45.4537 0
    endloop
  endfacet
  facet normal -0.905714 0.423888 0
    outer loop
      vertex -6.93922 -45.4537 1
      vertex -9.31833 -50.5371 0
      vertex -9.31833 -50.5371 1
    endloop
  endfacet
  facet normal -0.926188 0.377061 0
    outer loop
      vertex -11.3606 -55.5536 0
      vertex -9.31833 -50.5371 1
      vertex -9.31833 -50.5371 0
    endloop
  endfacet
  facet normal -0.926188 0.377061 0
    outer loop
      vertex -9.31833 -50.5371 1
      vertex -11.3606 -55.5536 0
      vertex -11.3606 -55.5536 1
    endloop
  endfacet
  facet normal -0.944755 0.327778 0
    outer loop
      vertex -13.0887 -60.5345 0
      vertex -11.3606 -55.5536 1
      vertex -11.3606 -55.5536 0
    endloop
  endfacet
  facet normal -0.944755 0.327778 0
    outer loop
      vertex -11.3606 -55.5536 1
      vertex -13.0887 -60.5345 0
      vertex -13.0887 -60.5345 1
    endloop
  endfacet
  facet normal -0.961476 0.274888 0
    outer loop
      vertex -14.5026 -65.4799 0
      vertex -13.0887 -60.5345 1
      vertex -13.0887 -60.5345 0
    endloop
  endfacet
  facet normal -0.961476 0.274888 0
    outer loop
      vertex -13.0887 -60.5345 1
      vertex -14.5026 -65.4799 0
      vertex -14.5026 -65.4799 1
    endloop
  endfacet
  facet normal -0.975822 0.218565 0
    outer loop
      vertex -15.6023 -70.3897 0
      vertex -14.5026 -65.4799 1
      vertex -14.5026 -65.4799 0
    endloop
  endfacet
  facet normal -0.975822 0.218565 0
    outer loop
      vertex -14.5026 -65.4799 1
      vertex -15.6023 -70.3897 0
      vertex -15.6023 -70.3897 1
    endloop
  endfacet
  facet normal -0.987263 0.159096 0
    outer loop
      vertex -16.3878 -75.2641 0
      vertex -15.6023 -70.3897 1
      vertex -15.6023 -70.3897 0
    endloop
  endfacet
  facet normal -0.987263 0.159096 0
    outer loop
      vertex -15.6023 -70.3897 1
      vertex -16.3878 -75.2641 0
      vertex -16.3878 -75.2641 1
    endloop
  endfacet
  facet normal -0.99529 0.0969414 0
    outer loop
      vertex -16.8591 -80.1029 0
      vertex -16.3878 -75.2641 1
      vertex -16.3878 -75.2641 0
    endloop
  endfacet
  facet normal -0.99529 0.0969414 0
    outer loop
      vertex -16.3878 -75.2641 1
      vertex -16.8591 -80.1029 0
      vertex -16.8591 -80.1029 1
    endloop
  endfacet
  facet normal -0.999466 0.0326892 0
    outer loop
      vertex -17.0162 -84.9062 0
      vertex -16.8591 -80.1029 1
      vertex -16.8591 -80.1029 0
    endloop
  endfacet
  facet normal -0.999466 0.0326892 0
    outer loop
      vertex -16.8591 -80.1029 1
      vertex -17.0162 -84.9062 0
      vertex -17.0162 -84.9062 1
    endloop
  endfacet
  facet normal 0 -1 0
    outer loop
      vertex -17.0162 -84.9062 0
      vertex 1.85936 -84.9062 1
      vertex -17.0162 -84.9062 1
    endloop
  endfacet
  facet normal 0 -1 -0
    outer loop
      vertex 1.85936 -84.9062 1
      vertex -17.0162 -84.9062 0
      vertex 1.85936 -84.9062 0
    endloop
  endfacet
  facet normal 0.99958 -0.0289632 0
    outer loop
      vertex 1.85936 -84.9062 1
      vertex 1.99608 -80.1877 0
      vertex 1.99608 -80.1877 1
    endloop
  endfacet
  facet normal 0.99958 -0.0289632 0
    outer loop
      vertex 1.99608 -80.1877 0
      vertex 1.85936 -84.9062 1
      vertex 1.85936 -84.9062 0
    endloop
  endfacet
endsolid OpenSCAD_Model
