solid OpenSCAD_Model
  facet normal 0 0 -1
    outer loop
      vertex 9.73515 -29.4661 0
      vertex 21.2155 -29.4661 0
      vertex 21.094 -32.9904 0
    endloop
  endfacet
  facet normal 0 0 -1
    outer loop
      vertex 9.48273 -34.1527 0
      vertex 21.094 -32.9904 0
      vertex 20.7296 -36.274 0
    endloop
  endfacet
  facet normal 0 0 -1
    outer loop
      vertex 9.66771 -27.0559 0
      vertex 21.2155 -29.4661 0
      vertex 9.73515 -29.4661 0
    endloop
  endfacet
  facet normal 0 0 -1
    outer loop
      vertex 9.48273 -34.1527 0
      vertex 20.7296 -36.274 0
      vertex 20.1221 -39.3171 0
    endloop
  endfacet
  facet normal 0 0 -1
    outer loop
      vertex 21.2155 -29.4661 0
      vertex 9.66771 -27.0559 0
      vertex 21.0873 -25.901 0
    endloop
  endfacet
  facet normal 0 0 -1
    outer loop
      vertex 8.72543 -38.1183 0
      vertex 20.1221 -39.3171 0
      vertex 19.2717 -42.1195 0
    endloop
  endfacet
  facet normal 0 0 -1
    outer loop
      vertex 9.46536 -24.8389 0
      vertex 21.0873 -25.901 0
      vertex 9.66771 -27.0559 0
    endloop
  endfacet
  facet normal 0 0 -1
    outer loop
      vertex 8.72543 -38.1183 0
      vertex 19.2717 -42.1195 0
      vertex 18.1782 -44.6814 0
    endloop
  endfacet
  facet normal 0 0 -1
    outer loop
      vertex 21.0873 -25.901 0
      vertex 9.46536 -24.8389 0
      vertex 20.7028 -22.6048 0
    endloop
  endfacet
  facet normal 0 0 -1
    outer loop
      vertex 7.46329 -41.3629 0
      vertex 18.1782 -44.6814 0
      vertex 16.8418 -47.0026 0
    endloop
  endfacet
  facet normal 0 0 -1
    outer loop
      vertex 9.12813 -22.8152 0
      vertex 20.7028 -22.6048 0
      vertex 9.46536 -24.8389 0
    endloop
  endfacet
  facet normal 0 0 -1
    outer loop
      vertex 7.46329 -41.3629 0
      vertex 16.8418 -47.0026 0
      vertex 15.2624 -49.0832 0
    endloop
  endfacet
  facet normal -0 0 -1
    outer loop
      vertex 20.7028 -22.6048 0
      vertex 9.12813 -22.8152 0
      vertex 20.0618 -19.5777 0
    endloop
  endfacet
  facet normal 0 0 -1
    outer loop
      vertex 5.69629 -43.8864 0
      vertex 15.2624 -49.0832 0
      vertex 13.4584 -50.9034 0
    endloop
  endfacet
  facet normal 0 0 -1
    outer loop
      vertex 8.65601 -20.9848 0
      vertex 20.0618 -19.5777 0
      vertex 9.12813 -22.8152 0
    endloop
  endfacet
  facet normal 0 0 -1
    outer loop
      vertex 5.69629 -43.8864 0
      vertex 13.4584 -50.9034 0
      vertex 11.4477 -52.4435 0
    endloop
  endfacet
  facet normal -0 0 -1
    outer loop
      vertex 20.0618 -19.5777 0
      vertex 8.65601 -20.9848 0
      vertex 19.1644 -16.8195 0
    endloop
  endfacet
  facet normal 0 0 -1
    outer loop
      vertex 8.049 -19.3476 0
      vertex 19.1644 -16.8195 0
      vertex 8.65601 -20.9848 0
    endloop
  endfacet
  facet normal -0 0 -1
    outer loop
      vertex 21.094 -32.9904 0
      vertex 9.48273 -34.1527 0
      vertex 9.73515 -29.4661 0
    endloop
  endfacet
  facet normal 0 0 -1
    outer loop
      vertex 5.69629 -43.8864 0
      vertex 11.4477 -52.4435 0
      vertex 9.23029 -53.7036 0
    endloop
  endfacet
  facet normal 0 0 -1
    outer loop
      vertex 20.1221 -39.3171 0
      vertex 8.72543 -38.1183 0
      vertex 9.48273 -34.1527 0
    endloop
  endfacet
  facet normal 0 0 -1
    outer loop
      vertex 18.1782 -44.6814 0
      vertex 7.46329 -41.3629 0
      vertex 8.72543 -38.1183 0
    endloop
  endfacet
  facet normal 0 0 -1
    outer loop
      vertex 3.42444 -45.6889 0
      vertex 9.23029 -53.7036 0
      vertex 6.80624 -54.6836 0
    endloop
  endfacet
  facet normal 0 0 -1
    outer loop
      vertex 15.2624 -49.0832 0
      vertex 5.69629 -43.8864 0
      vertex 7.46329 -41.3629 0
    endloop
  endfacet
  facet normal 0 0 -1
    outer loop
      vertex 3.42444 -45.6889 0
      vertex 6.80624 -54.6836 0
      vertex 4.17554 -55.3837 0
    endloop
  endfacet
  facet normal 0 0 -1
    outer loop
      vertex 9.23029 -53.7036 0
      vertex 3.42444 -45.6889 0
      vertex 5.69629 -43.8864 0
    endloop
  endfacet
  facet normal 0 0 -1
    outer loop
      vertex 0.64772 -46.7705 0
      vertex 4.17554 -55.3837 0
      vertex 1.33815 -55.8037 0
    endloop
  endfacet
  facet normal 0 0 -1
    outer loop
      vertex 4.17554 -55.3837 0
      vertex 0.64772 -46.7705 0
      vertex 3.42444 -45.6889 0
    endloop
  endfacet
  facet normal 0 0 -1
    outer loop
      vertex -1.70587 -55.9437 0
      vertex 0.64772 -46.7705 0
      vertex 1.33815 -55.8037 0
    endloop
  endfacet
  facet normal 0 0 -1
    outer loop
      vertex -1.70587 -55.9437 0
      vertex -2.63383 -47.131 0
      vertex 0.64772 -46.7705 0
    endloop
  endfacet
  facet normal 0 0 -1
    outer loop
      vertex -1.70587 -55.9437 0
      vertex -6.57652 -47.131 0
      vertex -2.63383 -47.131 0
    endloop
  endfacet
  facet normal -0 0 -1
    outer loop
      vertex -6.57652 -47.131 0
      vertex -17.9788 -55.9437 0
      vertex -6.57652 -12.6135 0
    endloop
  endfacet
  facet normal 0 0 -1
    outer loop
      vertex -17.9788 -55.9437 0
      vertex -6.57652 -47.131 0
      vertex -1.70587 -55.9437 0
    endloop
  endfacet
  facet normal -0 0 -1
    outer loop
      vertex 19.1644 -16.8195 0
      vertex 8.049 -19.3476 0
      vertex 18.0107 -14.3304 0
    endloop
  endfacet
  facet normal -0 0 -1
    outer loop
      vertex 18.0107 -14.3304 0
      vertex 8.049 -19.3476 0
      vertex 16.6006 -12.1102 0
    endloop
  endfacet
  facet normal 0 0 -1
    outer loop
      vertex 7.30708 -17.9037 0
      vertex 16.6006 -12.1102 0
      vertex 8.049 -19.3476 0
    endloop
  endfacet
  facet normal -0 0 -1
    outer loop
      vertex 16.6006 -12.1102 0
      vertex 7.30708 -17.9037 0
      vertex 14.9341 -10.1591 0
    endloop
  endfacet
  facet normal 0 0 -1
    outer loop
      vertex 6.43028 -16.6531 0
      vertex 14.9341 -10.1591 0
      vertex 7.30708 -17.9037 0
    endloop
  endfacet
  facet normal -0 0 -1
    outer loop
      vertex 14.9341 -10.1591 0
      vertex 6.43028 -16.6531 0
      vertex 13.009 -8.47215 0
    endloop
  endfacet
  facet normal 0 0 -1
    outer loop
      vertex 5.40361 -15.5813 0
      vertex 13.009 -8.47215 0
      vertex 6.43028 -16.6531 0
    endloop
  endfacet
  facet normal -0 0 -1
    outer loop
      vertex 13.009 -8.47215 0
      vertex 5.40361 -15.5813 0
      vertex 10.8228 -7.04477 0
    endloop
  endfacet
  facet normal 0 0 -1
    outer loop
      vertex 4.21208 -14.6745 0
      vertex 10.8228 -7.04477 0
      vertex 5.40361 -15.5813 0
    endloop
  endfacet
  facet normal -0 0 -1
    outer loop
      vertex 10.8228 -7.04477 0
      vertex 4.21208 -14.6745 0
      vertex 8.37547 -5.87691 0
    endloop
  endfacet
  facet normal 0 0 -1
    outer loop
      vertex 2.8557 -13.9325 0
      vertex 8.37547 -5.87691 0
      vertex 4.21208 -14.6745 0
    endloop
  endfacet
  facet normal -0 0 -1
    outer loop
      vertex 8.37547 -5.87691 0
      vertex 2.8557 -13.9325 0
      vertex 5.66699 -4.96858 0
    endloop
  endfacet
  facet normal 0 0 -1
    outer loop
      vertex 1.33444 -13.3555 0
      vertex 5.66699 -4.96858 0
      vertex 2.8557 -13.9325 0
    endloop
  endfacet
  facet normal -0 0 -1
    outer loop
      vertex 5.66699 -4.96858 0
      vertex 1.33444 -13.3555 0
      vertex 2.69739 -4.31978 0
    endloop
  endfacet
  facet normal 0 0 -1
    outer loop
      vertex -0.351654 -12.9432 0
      vertex 2.69739 -4.31978 0
      vertex 1.33444 -13.3555 0
    endloop
  endfacet
  facet normal 0 0 -1
    outer loop
      vertex -0.351654 -12.9432 0
      vertex -0.53334 -3.9305 0
      vertex 2.69739 -4.31978 0
    endloop
  endfacet
  facet normal 0 0 -1
    outer loop
      vertex -2.20261 -12.6959 0
      vertex -0.53334 -3.9305 0
      vertex -0.351654 -12.9432 0
    endloop
  endfacet
  facet normal 0 0 -1
    outer loop
      vertex -2.20261 -12.6959 0
      vertex -4.02521 -3.80072 0
      vertex -0.53334 -3.9305 0
    endloop
  endfacet
  facet normal 0 0 -1
    outer loop
      vertex -4.21843 -12.6135 0
      vertex -4.02521 -3.80072 0
      vertex -2.20261 -12.6959 0
    endloop
  endfacet
  facet normal 0 0 -1
    outer loop
      vertex -6.57652 -12.6135 0
      vertex -4.02521 -3.80072 0
      vertex -4.21843 -12.6135 0
    endloop
  endfacet
  facet normal 0 0 -1
    outer loop
      vertex -6.57652 -12.6135 0
      vertex -17.9788 -3.80072 0
      vertex -4.02521 -3.80072 0
    endloop
  endfacet
  facet normal 0 0 -1
    outer loop
      vertex -17.9788 -3.80072 0
      vertex -6.57652 -12.6135 0
      vertex -17.9788 -55.9437 0
    endloop
  endfacet
  facet normal 0 0 1
    outer loop
      vertex 21.2155 -29.4661 1
      vertex 9.66771 -27.0559 1
      vertex 9.73515 -29.4661 1
    endloop
  endfacet
  facet normal 0 0 1
    outer loop
      vertex 13.009 -8.47215 1
      vertex 9.46536 -24.8389 1
      vertex 9.66771 -27.0559 1
    endloop
  endfacet
  facet normal 0 0 1
    outer loop
      vertex 13.009 -8.47215 1
      vertex 9.12813 -22.8152 1
      vertex 9.46536 -24.8389 1
    endloop
  endfacet
  facet normal 0 0 1
    outer loop
      vertex 13.009 -8.47215 1
      vertex 8.65601 -20.9848 1
      vertex 9.12813 -22.8152 1
    endloop
  endfacet
  facet normal 0 0 1
    outer loop
      vertex 4.21208 -14.6745 1
      vertex 10.8228 -7.04477 1
      vertex 8.37547 -5.87691 1
    endloop
  endfacet
  facet normal 0 0 1
    outer loop
      vertex 13.009 -8.47215 1
      vertex 8.049 -19.3476 1
      vertex 8.65601 -20.9848 1
    endloop
  endfacet
  facet normal 0 0 1
    outer loop
      vertex 13.009 -8.47215 1
      vertex 7.30708 -17.9037 1
      vertex 8.049 -19.3476 1
    endloop
  endfacet
  facet normal 0 0 1
    outer loop
      vertex 13.009 -8.47215 1
      vertex 6.43028 -16.6531 1
      vertex 7.30708 -17.9037 1
    endloop
  endfacet
  facet normal 0 0 1
    outer loop
      vertex 2.8557 -13.9325 1
      vertex 8.37547 -5.87691 1
      vertex 5.66699 -4.96858 1
    endloop
  endfacet
  facet normal 0 0 1
    outer loop
      vertex 13.009 -8.47215 1
      vertex 5.40361 -15.5813 1
      vertex 6.43028 -16.6531 1
    endloop
  endfacet
  facet normal 0 0 1
    outer loop
      vertex 10.8228 -7.04477 1
      vertex 4.21208 -14.6745 1
      vertex 5.40361 -15.5813 1
    endloop
  endfacet
  facet normal 0 0 1
    outer loop
      vertex 8.37547 -5.87691 1
      vertex 2.8557 -13.9325 1
      vertex 4.21208 -14.6745 1
    endloop
  endfacet
  facet normal 0 0 1
    outer loop
      vertex 1.33444 -13.3555 1
      vertex 5.66699 -4.96858 1
      vertex 2.69739 -4.31978 1
    endloop
  endfacet
  facet normal 0 0 1
    outer loop
      vertex 5.66699 -4.96858 1
      vertex 1.33444 -13.3555 1
      vertex 2.8557 -13.9325 1
    endloop
  endfacet
  facet normal 0 0 1
    outer loop
      vertex 2.69739 -4.31978 1
      vertex -0.351654 -12.9432 1
      vertex 1.33444 -13.3555 1
    endloop
  endfacet
  facet normal 0 0 1
    outer loop
      vertex -0.53334 -3.9305 1
      vertex -0.351654 -12.9432 1
      vertex 2.69739 -4.31978 1
    endloop
  endfacet
  facet normal 0 0 1
    outer loop
      vertex -0.53334 -3.9305 1
      vertex -2.20261 -12.6959 1
      vertex -0.351654 -12.9432 1
    endloop
  endfacet
  facet normal 0 0 1
    outer loop
      vertex -4.02521 -3.80072 1
      vertex -2.20261 -12.6959 1
      vertex -0.53334 -3.9305 1
    endloop
  endfacet
  facet normal 0 0 1
    outer loop
      vertex -4.02521 -3.80072 1
      vertex -4.21843 -12.6135 1
      vertex -2.20261 -12.6959 1
    endloop
  endfacet
  facet normal 0 0 1
    outer loop
      vertex -4.02521 -3.80072 1
      vertex -6.57652 -12.6135 1
      vertex -4.21843 -12.6135 1
    endloop
  endfacet
  facet normal 0 0 1
    outer loop
      vertex -6.57652 -12.6135 1
      vertex -17.9788 -3.80072 1
      vertex -6.57652 -47.131 1
    endloop
  endfacet
  facet normal -0 0 1
    outer loop
      vertex -17.9788 -3.80072 1
      vertex -6.57652 -12.6135 1
      vertex -4.02521 -3.80072 1
    endloop
  endfacet
  facet normal -0 0 1
    outer loop
      vertex 9.66771 -27.0559 1
      vertex 21.2155 -29.4661 1
      vertex 21.0873 -25.901 1
    endloop
  endfacet
  facet normal 0 0 1
    outer loop
      vertex 21.2155 -29.4661 1
      vertex 9.73515 -29.4661 1
      vertex 21.094 -32.9904 1
    endloop
  endfacet
  facet normal 0 0 1
    outer loop
      vertex 9.66771 -27.0559 1
      vertex 21.0873 -25.901 1
      vertex 20.7028 -22.6048 1
    endloop
  endfacet
  facet normal 0 0 1
    outer loop
      vertex 9.48273 -34.1527 1
      vertex 21.094 -32.9904 1
      vertex 9.73515 -29.4661 1
    endloop
  endfacet
  facet normal 0 0 1
    outer loop
      vertex 9.66771 -27.0559 1
      vertex 20.7028 -22.6048 1
      vertex 20.0618 -19.5777 1
    endloop
  endfacet
  facet normal 0 0 1
    outer loop
      vertex 21.094 -32.9904 1
      vertex 9.48273 -34.1527 1
      vertex 20.7296 -36.274 1
    endloop
  endfacet
  facet normal 0 0 1
    outer loop
      vertex 9.66771 -27.0559 1
      vertex 20.0618 -19.5777 1
      vertex 19.1644 -16.8195 1
    endloop
  endfacet
  facet normal 0 0 1
    outer loop
      vertex 20.7296 -36.274 1
      vertex 9.48273 -34.1527 1
      vertex 20.1221 -39.3171 1
    endloop
  endfacet
  facet normal 0 0 1
    outer loop
      vertex 9.66771 -27.0559 1
      vertex 19.1644 -16.8195 1
      vertex 18.0107 -14.3304 1
    endloop
  endfacet
  facet normal -0 0 1
    outer loop
      vertex 8.72543 -38.1183 1
      vertex 20.1221 -39.3171 1
      vertex 9.48273 -34.1527 1
    endloop
  endfacet
  facet normal 0 0 1
    outer loop
      vertex 9.66771 -27.0559 1
      vertex 18.0107 -14.3304 1
      vertex 16.6006 -12.1102 1
    endloop
  endfacet
  facet normal 0 0 1
    outer loop
      vertex 20.1221 -39.3171 1
      vertex 8.72543 -38.1183 1
      vertex 19.2717 -42.1195 1
    endloop
  endfacet
  facet normal 0 0 1
    outer loop
      vertex 9.66771 -27.0559 1
      vertex 16.6006 -12.1102 1
      vertex 14.9341 -10.1591 1
    endloop
  endfacet
  facet normal 0 0 1
    outer loop
      vertex 19.2717 -42.1195 1
      vertex 8.72543 -38.1183 1
      vertex 18.1782 -44.6814 1
    endloop
  endfacet
  facet normal 0 0 1
    outer loop
      vertex 9.66771 -27.0559 1
      vertex 14.9341 -10.1591 1
      vertex 13.009 -8.47215 1
    endloop
  endfacet
  facet normal -0 0 1
    outer loop
      vertex 7.46329 -41.3629 1
      vertex 18.1782 -44.6814 1
      vertex 8.72543 -38.1183 1
    endloop
  endfacet
  facet normal 0 0 1
    outer loop
      vertex 5.40361 -15.5813 1
      vertex 13.009 -8.47215 1
      vertex 10.8228 -7.04477 1
    endloop
  endfacet
  facet normal 0 0 1
    outer loop
      vertex 18.1782 -44.6814 1
      vertex 7.46329 -41.3629 1
      vertex 16.8418 -47.0026 1
    endloop
  endfacet
  facet normal 0 0 1
    outer loop
      vertex 16.8418 -47.0026 1
      vertex 7.46329 -41.3629 1
      vertex 15.2624 -49.0832 1
    endloop
  endfacet
  facet normal -0 0 1
    outer loop
      vertex 5.69629 -43.8864 1
      vertex 15.2624 -49.0832 1
      vertex 7.46329 -41.3629 1
    endloop
  endfacet
  facet normal 0 0 1
    outer loop
      vertex 15.2624 -49.0832 1
      vertex 5.69629 -43.8864 1
      vertex 13.4584 -50.9034 1
    endloop
  endfacet
  facet normal 0 0 1
    outer loop
      vertex 13.4584 -50.9034 1
      vertex 5.69629 -43.8864 1
      vertex 11.4477 -52.4435 1
    endloop
  endfacet
  facet normal 0 0 1
    outer loop
      vertex 11.4477 -52.4435 1
      vertex 5.69629 -43.8864 1
      vertex 9.23029 -53.7036 1
    endloop
  endfacet
  facet normal -0 0 1
    outer loop
      vertex 3.42444 -45.6889 1
      vertex 9.23029 -53.7036 1
      vertex 5.69629 -43.8864 1
    endloop
  endfacet
  facet normal 0 0 1
    outer loop
      vertex 9.23029 -53.7036 1
      vertex 3.42444 -45.6889 1
      vertex 6.80624 -54.6836 1
    endloop
  endfacet
  facet normal 0 0 1
    outer loop
      vertex 6.80624 -54.6836 1
      vertex 3.42444 -45.6889 1
      vertex 4.17554 -55.3837 1
    endloop
  endfacet
  facet normal -0 0 1
    outer loop
      vertex 0.64772 -46.7705 1
      vertex 4.17554 -55.3837 1
      vertex 3.42444 -45.6889 1
    endloop
  endfacet
  facet normal 0 0 1
    outer loop
      vertex 4.17554 -55.3837 1
      vertex 0.64772 -46.7705 1
      vertex 1.33815 -55.8037 1
    endloop
  endfacet
  facet normal 0 0 1
    outer loop
      vertex 0.64772 -46.7705 1
      vertex -1.70587 -55.9437 1
      vertex 1.33815 -55.8037 1
    endloop
  endfacet
  facet normal -0 0 1
    outer loop
      vertex -2.63383 -47.131 1
      vertex -1.70587 -55.9437 1
      vertex 0.64772 -46.7705 1
    endloop
  endfacet
  facet normal -0 0 1
    outer loop
      vertex -6.57652 -47.131 1
      vertex -1.70587 -55.9437 1
      vertex -2.63383 -47.131 1
    endloop
  endfacet
  facet normal 0 0 1
    outer loop
      vertex -6.57652 -47.131 1
      vertex -17.9788 -55.9437 1
      vertex -1.70587 -55.9437 1
    endloop
  endfacet
  facet normal 0 0 1
    outer loop
      vertex -17.9788 -55.9437 1
      vertex -6.57652 -47.131 1
      vertex -17.9788 -3.80072 1
    endloop
  endfacet
  facet normal 0.146428 -0.989221 0
    outer loop
      vertex 1.33815 -55.8037 0
      vertex 4.17554 -55.3837 1
      vertex 1.33815 -55.8037 1
    endloop
  endfacet
  facet normal 0.146428 -0.989221 0
    outer loop
      vertex 4.17554 -55.3837 1
      vertex 1.33815 -55.8037 0
      vertex 4.17554 -55.3837 0
    endloop
  endfacet
  facet normal 0.257176 -0.966365 0
    outer loop
      vertex 4.17554 -55.3837 0
      vertex 6.80624 -54.6836 1
      vertex 4.17554 -55.3837 1
    endloop
  endfacet
  facet normal 0.257176 -0.966365 0
    outer loop
      vertex 6.80624 -54.6836 1
      vertex 4.17554 -55.3837 0
      vertex 6.80624 -54.6836 0
    endloop
  endfacet
  facet normal 0.374811 -0.927101 0
    outer loop
      vertex 6.80624 -54.6836 0
      vertex 9.23029 -53.7036 1
      vertex 6.80624 -54.6836 1
    endloop
  endfacet
  facet normal 0.374811 -0.927101 0
    outer loop
      vertex 9.23029 -53.7036 1
      vertex 6.80624 -54.6836 0
      vertex 9.23029 -53.7036 0
    endloop
  endfacet
  facet normal 0.494071 -0.869422 0
    outer loop
      vertex 9.23029 -53.7036 0
      vertex 11.4477 -52.4435 1
      vertex 9.23029 -53.7036 1
    endloop
  endfacet
  facet normal 0.494071 -0.869422 0
    outer loop
      vertex 11.4477 -52.4435 1
      vertex 9.23029 -53.7036 0
      vertex 11.4477 -52.4435 0
    endloop
  endfacet
  facet normal 0.608074 -0.79388 0
    outer loop
      vertex 11.4477 -52.4435 0
      vertex 13.4584 -50.9034 1
      vertex 11.4477 -52.4435 1
    endloop
  endfacet
  facet normal 0.608074 -0.79388 0
    outer loop
      vertex 13.4584 -50.9034 1
      vertex 11.4477 -52.4435 0
      vertex 13.4584 -50.9034 0
    endloop
  endfacet
  facet normal 0.71026 -0.703939 0
    outer loop
      vertex 13.4584 -50.9034 1
      vertex 15.2624 -49.0832 0
      vertex 15.2624 -49.0832 1
    endloop
  endfacet
  facet normal 0.71026 -0.703939 0
    outer loop
      vertex 15.2624 -49.0832 0
      vertex 13.4584 -50.9034 1
      vertex 13.4584 -50.9034 0
    endloop
  endfacet
  facet normal 0.796504 -0.604633 0
    outer loop
      vertex 15.2624 -49.0832 1
      vertex 16.8418 -47.0026 0
      vertex 16.8418 -47.0026 1
    endloop
  endfacet
  facet normal 0.796504 -0.604633 0
    outer loop
      vertex 16.8418 -47.0026 0
      vertex 15.2624 -49.0832 1
      vertex 15.2624 -49.0832 0
    endloop
  endfacet
  facet normal 0.86663 -0.498951 0
    outer loop
      vertex 16.8418 -47.0026 1
      vertex 18.1782 -44.6814 0
      vertex 18.1782 -44.6814 1
    endloop
  endfacet
  facet normal 0.86663 -0.498951 0
    outer loop
      vertex 18.1782 -44.6814 0
      vertex 16.8418 -47.0026 1
      vertex 16.8418 -47.0026 0
    endloop
  endfacet
  facet normal 0.919723 -0.392567 0
    outer loop
      vertex 18.1782 -44.6814 1
      vertex 19.2717 -42.1195 0
      vertex 19.2717 -42.1195 1
    endloop
  endfacet
  facet normal 0.919723 -0.392567 0
    outer loop
      vertex 19.2717 -42.1195 0
      vertex 18.1782 -44.6814 1
      vertex 18.1782 -44.6814 0
    endloop
  endfacet
  facet normal 0.956912 -0.290379 0
    outer loop
      vertex 19.2717 -42.1195 1
      vertex 20.1221 -39.3171 0
      vertex 20.1221 -39.3171 1
    endloop
  endfacet
  facet normal 0.956912 -0.290379 0
    outer loop
      vertex 20.1221 -39.3171 0
      vertex 19.2717 -42.1195 1
      vertex 19.2717 -42.1195 0
    endloop
  endfacet
  facet normal 0.98065 -0.195769 0
    outer loop
      vertex 20.1221 -39.3171 1
      vertex 20.7296 -36.274 0
      vertex 20.7296 -36.274 1
    endloop
  endfacet
  facet normal 0.98065 -0.195769 0
    outer loop
      vertex 20.7296 -36.274 0
      vertex 20.1221 -39.3171 1
      vertex 20.1221 -39.3171 0
    endloop
  endfacet
  facet normal 0.993898 -0.110299 0
    outer loop
      vertex 20.7296 -36.274 1
      vertex 21.094 -32.9904 0
      vertex 21.094 -32.9904 1
    endloop
  endfacet
  facet normal 0.993898 -0.110299 0
    outer loop
      vertex 21.094 -32.9904 0
      vertex 20.7296 -36.274 1
      vertex 20.7296 -36.274 0
    endloop
  endfacet
  facet normal 0.999406 -0.0344545 0
    outer loop
      vertex 21.094 -32.9904 1
      vertex 21.2155 -29.4661 0
      vertex 21.2155 -29.4661 1
    endloop
  endfacet
  facet normal 0.999406 -0.0344545 0
    outer loop
      vertex 21.2155 -29.4661 0
      vertex 21.094 -32.9904 1
      vertex 21.094 -32.9904 0
    endloop
  endfacet
  facet normal 0.999354 0.0359365 0
    outer loop
      vertex 21.2155 -29.4661 1
      vertex 21.0873 -25.901 0
      vertex 21.0873 -25.901 1
    endloop
  endfacet
  facet normal 0.999354 0.0359365 0
    outer loop
      vertex 21.0873 -25.901 0
      vertex 21.2155 -29.4661 1
      vertex 21.2155 -29.4661 0
    endloop
  endfacet
  facet normal 0.993265 0.115864 0
    outer loop
      vertex 21.0873 -25.901 1
      vertex 20.7028 -22.6048 0
      vertex 20.7028 -22.6048 1
    endloop
  endfacet
  facet normal 0.993265 0.115864 0
    outer loop
      vertex 20.7028 -22.6048 0
      vertex 21.0873 -25.901 1
      vertex 21.0873 -25.901 0
    endloop
  endfacet
  facet normal 0.978307 0.20716 0
    outer loop
      vertex 20.7028 -22.6048 1
      vertex 20.0618 -19.5777 0
      vertex 20.0618 -19.5777 1
    endloop
  endfacet
  facet normal 0.978307 0.20716 0
    outer loop
      vertex 20.0618 -19.5777 0
      vertex 20.7028 -22.6048 1
      vertex 20.7028 -22.6048 0
    endloop
  endfacet
  facet normal 0.950934 0.309393 0
    outer loop
      vertex 20.0618 -19.5777 1
      vertex 19.1644 -16.8195 0
      vertex 19.1644 -16.8195 1
    endloop
  endfacet
  facet normal 0.950934 0.309393 0
    outer loop
      vertex 19.1644 -16.8195 0
      vertex 20.0618 -19.5777 1
      vertex 20.0618 -19.5777 0
    endloop
  endfacet
  facet normal 0.907281 0.420525 0
    outer loop
      vertex 19.1644 -16.8195 1
      vertex 18.0107 -14.3304 0
      vertex 18.0107 -14.3304 1
    endloop
  endfacet
  facet normal 0.907281 0.420525 0
    outer loop
      vertex 18.0107 -14.3304 0
      vertex 19.1644 -16.8195 1
      vertex 19.1644 -16.8195 0
    endloop
  endfacet
  facet normal 0.844136 0.53613 0
    outer loop
      vertex 18.0107 -14.3304 1
      vertex 16.6006 -12.1102 0
      vertex 16.6006 -12.1102 1
    endloop
  endfacet
  facet normal 0.844136 0.53613 0
    outer loop
      vertex 16.6006 -12.1102 0
      vertex 18.0107 -14.3304 1
      vertex 18.0107 -14.3304 0
    endloop
  endfacet
  facet normal 0.760386 0.649471 0
    outer loop
      vertex 16.6006 -12.1102 1
      vertex 14.9341 -10.1591 0
      vertex 14.9341 -10.1591 1
    endloop
  endfacet
  facet normal 0.760386 0.649471 0
    outer loop
      vertex 14.9341 -10.1591 0
      vertex 16.6006 -12.1102 1
      vertex 16.6006 -12.1102 0
    endloop
  endfacet
  facet normal 0.659055 0.752095 -0
    outer loop
      vertex 14.9341 -10.1591 0
      vertex 13.009 -8.47215 1
      vertex 14.9341 -10.1591 1
    endloop
  endfacet
  facet normal 0.659055 0.752095 0
    outer loop
      vertex 13.009 -8.47215 1
      vertex 14.9341 -10.1591 0
      vertex 13.009 -8.47215 0
    endloop
  endfacet
  facet normal 0.546697 0.837331 -0
    outer loop
      vertex 13.009 -8.47215 0
      vertex 10.8228 -7.04477 1
      vertex 13.009 -8.47215 1
    endloop
  endfacet
  facet normal 0.546697 0.837331 0
    outer loop
      vertex 10.8228 -7.04477 1
      vertex 13.009 -8.47215 0
      vertex 10.8228 -7.04477 0
    endloop
  endfacet
  facet normal 0.430674 0.902507 -0
    outer loop
      vertex 10.8228 -7.04477 0
      vertex 8.37547 -5.87691 1
      vertex 10.8228 -7.04477 1
    endloop
  endfacet
  facet normal 0.430674 0.902507 0
    outer loop
      vertex 8.37547 -5.87691 1
      vertex 10.8228 -7.04477 0
      vertex 8.37547 -5.87691 0
    endloop
  endfacet
  facet normal 0.317961 0.948104 -0
    outer loop
      vertex 8.37547 -5.87691 0
      vertex 5.66699 -4.96858 1
      vertex 8.37547 -5.87691 1
    endloop
  endfacet
  facet normal 0.317961 0.948104 0
    outer loop
      vertex 5.66699 -4.96858 1
      vertex 8.37547 -5.87691 0
      vertex 5.66699 -4.96858 0
    endloop
  endfacet
  facet normal 0.213446 0.976955 -0
    outer loop
      vertex 5.66699 -4.96858 0
      vertex 2.69739 -4.31978 1
      vertex 5.66699 -4.96858 1
    endloop
  endfacet
  facet normal 0.213446 0.976955 0
    outer loop
      vertex 2.69739 -4.31978 1
      vertex 5.66699 -4.96858 0
      vertex 2.69739 -4.31978 0
    endloop
  endfacet
  facet normal 0.119628 0.992819 -0
    outer loop
      vertex 2.69739 -4.31978 0
      vertex -0.53334 -3.9305 1
      vertex 2.69739 -4.31978 1
    endloop
  endfacet
  facet normal 0.119628 0.992819 0
    outer loop
      vertex -0.53334 -3.9305 1
      vertex 2.69739 -4.31978 0
      vertex -0.53334 -3.9305 0
    endloop
  endfacet
  facet normal 0.0371407 0.99931 -0
    outer loop
      vertex -0.53334 -3.9305 0
      vertex -4.02521 -3.80072 1
      vertex -0.53334 -3.9305 1
    endloop
  endfacet
  facet normal 0.0371407 0.99931 0
    outer loop
      vertex -4.02521 -3.80072 1
      vertex -0.53334 -3.9305 0
      vertex -4.02521 -3.80072 0
    endloop
  endfacet
  facet normal 0 1 -0
    outer loop
      vertex -4.02521 -3.80072 0
      vertex -17.9788 -3.80072 1
      vertex -4.02521 -3.80072 1
    endloop
  endfacet
  facet normal 0 1 0
    outer loop
      vertex -17.9788 -3.80072 1
      vertex -4.02521 -3.80072 0
      vertex -17.9788 -3.80072 0
    endloop
  endfacet
  facet normal -1 0 0
    outer loop
      vertex -17.9788 -55.9437 0
      vertex -17.9788 -3.80072 1
      vertex -17.9788 -3.80072 0
    endloop
  endfacet
  facet normal -1 -0 0
    outer loop
      vertex -17.9788 -3.80072 1
      vertex -17.9788 -55.9437 0
      vertex -17.9788 -55.9437 1
    endloop
  endfacet
  facet normal 0 -1 0
    outer loop
      vertex -17.9788 -55.9437 0
      vertex -1.70587 -55.9437 1
      vertex -17.9788 -55.9437 1
    endloop
  endfacet
  facet normal 0 -1 -0
    outer loop
      vertex -1.70587 -55.9437 1
      vertex -17.9788 -55.9437 0
      vertex -1.70587 -55.9437 0
    endloop
  endfacet
  facet normal 0.0459432 -0.998944 0
    outer loop
      vertex -1.70587 -55.9437 0
      vertex 1.33815 -55.8037 1
      vertex -1.70587 -55.9437 1
    endloop
  endfacet
  facet normal 0.0459432 -0.998944 0
    outer loop
      vertex 1.33815 -55.8037 1
      vertex -1.70587 -55.9437 0
      vertex 1.33815 -55.8037 0
    endloop
  endfacet
  facet normal 1 -0 0
    outer loop
      vertex -6.57652 -47.131 1
      vertex -6.57652 -12.6135 0
      vertex -6.57652 -12.6135 1
    endloop
  endfacet
  facet normal 1 0 0
    outer loop
      vertex -6.57652 -12.6135 0
      vertex -6.57652 -47.131 1
      vertex -6.57652 -47.131 0
    endloop
  endfacet
  facet normal 0 -1 0
    outer loop
      vertex -6.57652 -12.6135 0
      vertex -4.21843 -12.6135 1
      vertex -6.57652 -12.6135 1
    endloop
  endfacet
  facet normal 0 -1 -0
    outer loop
      vertex -4.21843 -12.6135 1
      vertex -6.57652 -12.6135 0
      vertex -4.21843 -12.6135 0
    endloop
  endfacet
  facet normal -0.0408426 -0.999166 0
    outer loop
      vertex -4.21843 -12.6135 0
      vertex -2.20261 -12.6959 1
      vertex -4.21843 -12.6135 1
    endloop
  endfacet
  facet normal -0.0408426 -0.999166 -0
    outer loop
      vertex -2.20261 -12.6959 1
      vertex -4.21843 -12.6135 0
      vertex -2.20261 -12.6959 0
    endloop
  endfacet
  facet normal -0.13243 -0.991192 0
    outer loop
      vertex -2.20261 -12.6959 0
      vertex -0.351654 -12.9432 1
      vertex -2.20261 -12.6959 1
    endloop
  endfacet
  facet normal -0.13243 -0.991192 -0
    outer loop
      vertex -0.351654 -12.9432 1
      vertex -2.20261 -12.6959 0
      vertex -0.351654 -12.9432 0
    endloop
  endfacet
  facet normal -0.237531 -0.97138 0
    outer loop
      vertex -0.351654 -12.9432 0
      vertex 1.33444 -13.3555 1
      vertex -0.351654 -12.9432 1
    endloop
  endfacet
  facet normal -0.237531 -0.97138 -0
    outer loop
      vertex 1.33444 -13.3555 1
      vertex -0.351654 -12.9432 0
      vertex 1.33444 -13.3555 0
    endloop
  endfacet
  facet normal -0.354638 -0.935004 0
    outer loop
      vertex 1.33444 -13.3555 0
      vertex 2.8557 -13.9325 1
      vertex 1.33444 -13.3555 1
    endloop
  endfacet
  facet normal -0.354638 -0.935004 -0
    outer loop
      vertex 2.8557 -13.9325 1
      vertex 1.33444 -13.3555 0
      vertex 2.8557 -13.9325 0
    endloop
  endfacet
  facet normal -0.479927 -0.877309 0
    outer loop
      vertex 2.8557 -13.9325 0
      vertex 4.21208 -14.6745 1
      vertex 2.8557 -13.9325 1
    endloop
  endfacet
  facet normal -0.479927 -0.877309 -0
    outer loop
      vertex 4.21208 -14.6745 1
      vertex 2.8557 -13.9325 0
      vertex 4.21208 -14.6745 0
    endloop
  endfacet
  facet normal -0.605607 -0.795764 0
    outer loop
      vertex 4.21208 -14.6745 0
      vertex 5.40361 -15.5813 1
      vertex 4.21208 -14.6745 1
    endloop
  endfacet
  facet normal -0.605607 -0.795764 -0
    outer loop
      vertex 5.40361 -15.5813 1
      vertex 4.21208 -14.6745 0
      vertex 5.40361 -15.5813 0
    endloop
  endfacet
  facet normal -0.722147 -0.69174 0
    outer loop
      vertex 6.43028 -16.6531 0
      vertex 5.40361 -15.5813 1
      vertex 5.40361 -15.5813 0
    endloop
  endfacet
  facet normal -0.722147 -0.69174 0
    outer loop
      vertex 5.40361 -15.5813 1
      vertex 6.43028 -16.6531 0
      vertex 6.43028 -16.6531 1
    endloop
  endfacet
  facet normal -0.818807 -0.574069 0
    outer loop
      vertex 7.30708 -17.9037 0
      vertex 6.43028 -16.6531 1
      vertex 6.43028 -16.6531 0
    endloop
  endfacet
  facet normal -0.818807 -0.574069 0
    outer loop
      vertex 6.43028 -16.6531 1
      vertex 7.30708 -17.9037 0
      vertex 7.30708 -17.9037 1
    endloop
  endfacet
  facet normal -0.889452 -0.457028 0
    outer loop
      vertex 8.049 -19.3476 0
      vertex 7.30708 -17.9037 1
      vertex 7.30708 -17.9037 0
    endloop
  endfacet
  facet normal -0.889452 -0.457028 0
    outer loop
      vertex 7.30708 -17.9037 1
      vertex 8.049 -19.3476 0
      vertex 8.049 -19.3476 1
    endloop
  endfacet
  facet normal -0.937629 -0.347636 0
    outer loop
      vertex 8.65601 -20.9848 0
      vertex 8.049 -19.3476 1
      vertex 8.049 -19.3476 0
    endloop
  endfacet
  facet normal -0.937629 -0.347636 0
    outer loop
      vertex 8.049 -19.3476 1
      vertex 8.65601 -20.9848 0
      vertex 8.65601 -20.9848 1
    endloop
  endfacet
  facet normal -0.968308 -0.249758 0
    outer loop
      vertex 9.12813 -22.8152 0
      vertex 8.65601 -20.9848 1
      vertex 8.65601 -20.9848 0
    endloop
  endfacet
  facet normal -0.968308 -0.249758 0
    outer loop
      vertex 8.65601 -20.9848 1
      vertex 9.12813 -22.8152 0
      vertex 9.12813 -22.8152 1
    endloop
  endfacet
  facet normal -0.986398 -0.164374 0
    outer loop
      vertex 9.46536 -24.8389 0
      vertex 9.12813 -22.8152 1
      vertex 9.12813 -22.8152 0
    endloop
  endfacet
  facet normal -0.986398 -0.164374 0
    outer loop
      vertex 9.12813 -22.8152 1
      vertex 9.46536 -24.8389 0
      vertex 9.46536 -24.8389 1
    endloop
  endfacet
  facet normal -0.995861 -0.0908942 0
    outer loop
      vertex 9.66771 -27.0559 0
      vertex 9.46536 -24.8389 1
      vertex 9.46536 -24.8389 0
    endloop
  endfacet
  facet normal -0.995861 -0.0908942 0
    outer loop
      vertex 9.46536 -24.8389 1
      vertex 9.66771 -27.0559 0
      vertex 9.66771 -27.0559 1
    endloop
  endfacet
  facet normal -0.999609 -0.0279701 0
    outer loop
      vertex 9.73515 -29.4661 0
      vertex 9.66771 -27.0559 1
      vertex 9.66771 -27.0559 0
    endloop
  endfacet
  facet normal -0.999609 -0.0279701 0
    outer loop
      vertex 9.66771 -27.0559 1
      vertex 9.73515 -29.4661 0
      vertex 9.73515 -29.4661 1
    endloop
  endfacet
  facet normal -0.998553 0.053782 0
    outer loop
      vertex 9.48273 -34.1527 0
      vertex 9.73515 -29.4661 1
      vertex 9.73515 -29.4661 0
    endloop
  endfacet
  facet normal -0.998553 0.053782 0
    outer loop
      vertex 9.73515 -29.4661 1
      vertex 9.48273 -34.1527 0
      vertex 9.48273 -34.1527 1
    endloop
  endfacet
  facet normal -0.98225 0.187578 0
    outer loop
      vertex 8.72543 -38.1183 0
      vertex 9.48273 -34.1527 1
      vertex 9.48273 -34.1527 0
    endloop
  endfacet
  facet normal -0.98225 0.187578 0
    outer loop
      vertex 9.48273 -34.1527 1
      vertex 8.72543 -38.1183 0
      vertex 8.72543 -38.1183 1
    endloop
  endfacet
  facet normal -0.931971 0.362534 0
    outer loop
      vertex 7.46329 -41.3629 0
      vertex 8.72543 -38.1183 1
      vertex 8.72543 -38.1183 0
    endloop
  endfacet
  facet normal -0.931971 0.362534 0
    outer loop
      vertex 8.72543 -38.1183 1
      vertex 7.46329 -41.3629 0
      vertex 7.46329 -41.3629 1
    endloop
  endfacet
  facet normal -0.819148 0.573582 0
    outer loop
      vertex 5.69629 -43.8864 0
      vertex 7.46329 -41.3629 1
      vertex 7.46329 -41.3629 0
    endloop
  endfacet
  facet normal -0.819148 0.573582 0
    outer loop
      vertex 7.46329 -41.3629 1
      vertex 5.69629 -43.8864 0
      vertex 5.69629 -43.8864 1
    endloop
  endfacet
  facet normal -0.62154 0.783382 0
    outer loop
      vertex 5.69629 -43.8864 0
      vertex 3.42444 -45.6889 1
      vertex 5.69629 -43.8864 1
    endloop
  endfacet
  facet normal -0.62154 0.783382 0
    outer loop
      vertex 3.42444 -45.6889 1
      vertex 5.69629 -43.8864 0
      vertex 3.42444 -45.6889 0
    endloop
  endfacet
  facet normal -0.362961 0.931805 0
    outer loop
      vertex 3.42444 -45.6889 0
      vertex 0.64772 -46.7705 1
      vertex 3.42444 -45.6889 1
    endloop
  endfacet
  facet normal -0.362961 0.931805 0
    outer loop
      vertex 0.64772 -46.7705 1
      vertex 3.42444 -45.6889 0
      vertex 0.64772 -46.7705 0
    endloop
  endfacet
  facet normal -0.1092 0.99402 0
    outer loop
      vertex 0.64772 -46.7705 0
      vertex -2.63383 -47.131 1
      vertex 0.64772 -46.7705 1
    endloop
  endfacet
  facet normal -0.1092 0.99402 0
    outer loop
      vertex -2.63383 -47.131 1
      vertex 0.64772 -46.7705 0
      vertex -2.63383 -47.131 0
    endloop
  endfacet
  facet normal 0 1 -0
    outer loop
      vertex -2.63383 -47.131 0
      vertex -6.57652 -47.131 1
      vertex -2.63383 -47.131 1
    endloop
  endfacet
  facet normal 0 1 0
    outer loop
      vertex -6.57652 -47.131 1
      vertex -2.63383 -47.131 0
      vertex -6.57652 -47.131 0
    endloop
  endfacet
endsolid OpenSCAD_Model
