solid OpenSCAD_Model
  facet normal 0 0 -1
    outer loop
      vertex 19.6691 -56.7275 0
      vertex -5.6098 -47.7984 0
      vertex 19.6691 -47.7984 0
    endloop
  endfacet
  facet normal 0 0 -1
    outer loop
      vertex -1.02071 -41.8242 0
      vertex -7.78198 -35.3631 0
      vertex -6.16048 -33.905 0
    endloop
  endfacet
  facet normal 0 0 -1
    outer loop
      vertex -5.24937 -47.0491 0
      vertex -9.27017 -36.7684 0
      vertex -7.78198 -35.3631 0
    endloop
  endfacet
  facet normal 0 0 -1
    outer loop
      vertex -5.24937 -47.0491 0
      vertex -10.625 -38.1209 0
      vertex -9.27017 -36.7684 0
    endloop
  endfacet
  facet normal 0 0 -1
    outer loop
      vertex -5.24937 -47.0491 0
      vertex -11.8466 -39.4205 0
      vertex -10.625 -38.1209 0
    endloop
  endfacet
  facet normal 0 0 -1
    outer loop
      vertex -5.24937 -47.0491 0
      vertex -12.9349 -40.6672 0
      vertex -11.8466 -39.4205 0
    endloop
  endfacet
  facet normal 0 0 -1
    outer loop
      vertex -5.24937 -47.0491 0
      vertex -13.9228 -41.8871 0
      vertex -12.9349 -40.6672 0
    endloop
  endfacet
  facet normal 0 0 -1
    outer loop
      vertex -5.6098 -47.7984 0
      vertex -14.8437 -43.1062 0
      vertex -13.9228 -41.8871 0
    endloop
  endfacet
  facet normal 0 0 -1
    outer loop
      vertex -5.6098 -47.7984 0
      vertex -15.6976 -44.3246 0
      vertex -14.8437 -43.1062 0
    endloop
  endfacet
  facet normal 0 0 -1
    outer loop
      vertex -18.4428 -56.7275 0
      vertex -5.6098 -47.7984 0
      vertex 19.6691 -56.7275 0
    endloop
  endfacet
  facet normal 0 0 -1
    outer loop
      vertex -18.4428 -49.1904 0
      vertex -5.6098 -47.7984 0
      vertex -18.4428 -56.7275 0
    endloop
  endfacet
  facet normal 0 0 -1
    outer loop
      vertex -5.6098 -47.7984 0
      vertex -16.4844 -45.5422 0
      vertex -15.6976 -44.3246 0
    endloop
  endfacet
  facet normal 0 0 -1
    outer loop
      vertex -5.6098 -47.7984 0
      vertex -17.2042 -46.759 0
      vertex -16.4844 -45.5422 0
    endloop
  endfacet
  facet normal -0 0 -1
    outer loop
      vertex -5.6098 -47.7984 0
      vertex -17.857 -47.9751 0
      vertex -17.2042 -46.759 0
    endloop
  endfacet
  facet normal 0 0 -1
    outer loop
      vertex -5.6098 -47.7984 0
      vertex -18.4428 -49.1904 0
      vertex -17.857 -47.9751 0
    endloop
  endfacet
  facet normal 0 0 -1
    outer loop
      vertex 18.7646 -19.1191 0
      vertex 7.7843 -18.8462 0
      vertex 7.80286 -18.3836 0
    endloop
  endfacet
  facet normal 0 0 -1
    outer loop
      vertex 9.68698 -33.0911 0
      vertex 7.72868 -19.3065 0
      vertex 7.7843 -18.8462 0
    endloop
  endfacet
  facet normal 0 0 -1
    outer loop
      vertex 9.68698 -33.0911 0
      vertex 7.63597 -19.7645 0
      vertex 7.72868 -19.3065 0
    endloop
  endfacet
  facet normal 0 0 -1
    outer loop
      vertex 9.68698 -33.0911 0
      vertex 7.50616 -20.2201 0
      vertex 7.63597 -19.7645 0
    endloop
  endfacet
  facet normal 0 0 -1
    outer loop
      vertex 9.68698 -33.0911 0
      vertex 7.33929 -20.6733 0
      vertex 7.50616 -20.2201 0
    endloop
  endfacet
  facet normal 0 0 -1
    outer loop
      vertex 9.68698 -33.0911 0
      vertex 7.13531 -21.1242 0
      vertex 7.33929 -20.6733 0
    endloop
  endfacet
  facet normal 0 0 -1
    outer loop
      vertex 9.68698 -33.0911 0
      vertex 6.89427 -21.5727 0
      vertex 7.13531 -21.1242 0
    endloop
  endfacet
  facet normal 0 0 -1
    outer loop
      vertex 9.68698 -33.0911 0
      vertex 6.62088 -22.0219 0
      vertex 6.89427 -21.5727 0
    endloop
  endfacet
  facet normal 0 0 -1
    outer loop
      vertex 9.68698 -33.0911 0
      vertex 6.3199 -22.4751 0
      vertex 6.62088 -22.0219 0
    endloop
  endfacet
  facet normal 0 0 -1
    outer loop
      vertex 1.3658 -27.5832 0
      vertex 8.22807 -34.2701 0
      vertex 6.1857 -35.8604 0
    endloop
  endfacet
  facet normal 0 0 -1
    outer loop
      vertex 9.68698 -33.0911 0
      vertex 5.99132 -22.9322 0
      vertex 6.3199 -22.4751 0
    endloop
  endfacet
  facet normal 0 0 -1
    outer loop
      vertex 9.68698 -33.0911 0
      vertex 5.63515 -23.3932 0
      vertex 5.99132 -22.9322 0
    endloop
  endfacet
  facet normal 0 0 -1
    outer loop
      vertex 9.68698 -33.0911 0
      vertex 5.25139 -23.8582 0
      vertex 5.63515 -23.3932 0
    endloop
  endfacet
  facet normal 0 0 -1
    outer loop
      vertex 9.68698 -33.0911 0
      vertex 4.84004 -24.3272 0
      vertex 5.25139 -23.8582 0
    endloop
  endfacet
  facet normal 0 0 -1
    outer loop
      vertex 9.68698 -33.0911 0
      vertex 4.40109 -24.8001 0
      vertex 4.84004 -24.3272 0
    endloop
  endfacet
  facet normal 0 0 -1
    outer loop
      vertex -1.07005 -29.6374 0
      vertex 6.1857 -35.8604 0
      vertex 4.34369 -37.3182 0
    endloop
  endfacet
  facet normal 0 0 -1
    outer loop
      vertex 9.68698 -33.0911 0
      vertex 3.87183 -25.3302 0
      vertex 4.40109 -24.8001 0
    endloop
  endfacet
  facet normal 0 0 -1
    outer loop
      vertex 9.68698 -33.0911 0
      vertex 3.18953 -25.9707 0
      vertex 3.87183 -25.3302 0
    endloop
  endfacet
  facet normal 0 0 -1
    outer loop
      vertex -2.51756 -30.8301 0
      vertex 4.34369 -37.3182 0
      vertex 2.70204 -38.6435 0
    endloop
  endfacet
  facet normal 0 0 -1
    outer loop
      vertex 9.68698 -33.0911 0
      vertex 2.35419 -26.7217 0
      vertex 3.18953 -25.9707 0
    endloop
  endfacet
  facet normal 0 0 -1
    outer loop
      vertex 8.22807 -34.2701 0
      vertex 1.3658 -27.5832 0
      vertex 2.35419 -26.7217 0
    endloop
  endfacet
  facet normal 0 0 -1
    outer loop
      vertex -4.40567 -32.394 0
      vertex 2.70204 -38.6435 0
      vertex 1.26076 -39.8362 0
    endloop
  endfacet
  facet normal 0 0 -1
    outer loop
      vertex 6.1857 -35.8604 0
      vertex 0.22438 -28.555 0
      vertex 1.3658 -27.5832 0
    endloop
  endfacet
  facet normal 0 0 -1
    outer loop
      vertex -6.16048 -33.905 0
      vertex 1.26076 -39.8362 0
      vertex 0.0198364 -40.8965 0
    endloop
  endfacet
  facet normal 0 0 -1
    outer loop
      vertex -6.16048 -33.905 0
      vertex 0.0198364 -40.8965 0
      vertex -1.02071 -41.8242 0
    endloop
  endfacet
  facet normal 0 0 -1
    outer loop
      vertex 6.1857 -35.8604 0
      vertex -1.07005 -29.6374 0
      vertex 0.22438 -28.555 0
    endloop
  endfacet
  facet normal 0 0 -1
    outer loop
      vertex -7.78198 -35.3631 0
      vertex -1.02071 -41.8242 0
      vertex -1.86092 -42.6194 0
    endloop
  endfacet
  facet normal 0 0 -1
    outer loop
      vertex 4.34369 -37.3182 0
      vertex -2.51756 -30.8301 0
      vertex -1.07005 -29.6374 0
    endloop
  endfacet
  facet normal 0 0 -1
    outer loop
      vertex -7.78198 -35.3631 0
      vertex -1.86092 -42.6194 0
      vertex -2.57159 -43.3498 0
    endloop
  endfacet
  facet normal 0 0 -1
    outer loop
      vertex -7.78198 -35.3631 0
      vertex -2.57159 -43.3498 0
      vertex -3.22389 -44.0833 0
    endloop
  endfacet
  facet normal 0 0 -1
    outer loop
      vertex -7.78198 -35.3631 0
      vertex -3.22389 -44.0833 0
      vertex -3.81783 -44.82 0
    endloop
  endfacet
  facet normal 0 0 -1
    outer loop
      vertex -7.78198 -35.3631 0
      vertex -3.81783 -44.82 0
      vertex -4.35338 -45.5599 0
    endloop
  endfacet
  facet normal 0 0 -1
    outer loop
      vertex 2.70204 -38.6435 0
      vertex -4.40567 -32.394 0
      vertex -2.51756 -30.8301 0
    endloop
  endfacet
  facet normal 0 0 -1
    outer loop
      vertex -7.78198 -35.3631 0
      vertex -4.35338 -45.5599 0
      vertex -4.83055 -46.3029 0
    endloop
  endfacet
  facet normal 0 0 -1
    outer loop
      vertex -7.78198 -35.3631 0
      vertex -4.83055 -46.3029 0
      vertex -5.24937 -47.0491 0
    endloop
  endfacet
  facet normal 0 0 -1
    outer loop
      vertex -13.9228 -41.8871 0
      vertex -5.24937 -47.0491 0
      vertex -5.6098 -47.7984 0
    endloop
  endfacet
  facet normal 0 0 -1
    outer loop
      vertex 1.26076 -39.8362 0
      vertex -6.16048 -33.905 0
      vertex -4.40567 -32.394 0
    endloop
  endfacet
  facet normal 0 0 -1
    outer loop
      vertex 7.80286 -18.3836 0
      vertex 18.8187 -17.9196 0
      vertex 18.7646 -19.1191 0
    endloop
  endfacet
  facet normal 0 0 -1
    outer loop
      vertex 7.7843 -18.8462 0
      vertex 18.7646 -19.1191 0
      vertex 18.6025 -20.3099 0
    endloop
  endfacet
  facet normal 0 0 -1
    outer loop
      vertex 7.76576 -17.6128 0
      vertex 18.8187 -17.9196 0
      vertex 7.80286 -18.3836 0
    endloop
  endfacet
  facet normal 0 0 -1
    outer loop
      vertex 7.7843 -18.8462 0
      vertex 18.6025 -20.3099 0
      vertex 18.3324 -21.4921 0
    endloop
  endfacet
  facet normal 0 0 -1
    outer loop
      vertex 7.7843 -18.8462 0
      vertex 18.3324 -21.4921 0
      vertex 17.9541 -22.6655 0
    endloop
  endfacet
  facet normal 0 0 -1
    outer loop
      vertex 18.8187 -17.9196 0
      vertex 7.76576 -17.6128 0
      vertex 18.7185 -16.1287 0
    endloop
  endfacet
  facet normal 0 0 -1
    outer loop
      vertex 7.7843 -18.8462 0
      vertex 17.9541 -22.6655 0
      vertex 17.4678 -23.8303 0
    endloop
  endfacet
  facet normal 0 0 -1
    outer loop
      vertex 7.65451 -16.891 0
      vertex 18.7185 -16.1287 0
      vertex 7.76576 -17.6128 0
    endloop
  endfacet
  facet normal 0 0 -1
    outer loop
      vertex 7.7843 -18.8462 0
      vertex 17.4678 -23.8303 0
      vertex 16.8735 -24.9865 0
    endloop
  endfacet
  facet normal -0 0 -1
    outer loop
      vertex 18.7185 -16.1287 0
      vertex 7.65451 -16.891 0
      vertex 18.418 -14.4442 0
    endloop
  endfacet
  facet normal 0 0 -1
    outer loop
      vertex 7.7843 -18.8462 0
      vertex 16.8735 -24.9865 0
      vertex 16.171 -26.1339 0
    endloop
  endfacet
  facet normal 0 0 -1
    outer loop
      vertex 7.7843 -18.8462 0
      vertex 16.171 -26.1339 0
      vertex 15.3605 -27.2796 0
    endloop
  endfacet
  facet normal -0 0 -1
    outer loop
      vertex 18.418 -14.4442 0
      vertex 7.65451 -16.891 0
      vertex 17.9171 -12.8662 0
    endloop
  endfacet
  facet normal 0 0 -1
    outer loop
      vertex 7.7843 -18.8462 0
      vertex 15.3605 -27.2796 0
      vertex 14.4419 -28.4308 0
    endloop
  endfacet
  facet normal 0 0 -1
    outer loop
      vertex 7.46909 -16.2181 0
      vertex 17.9171 -12.8662 0
      vertex 7.65451 -16.891 0
    endloop
  endfacet
  facet normal 0 0 -1
    outer loop
      vertex 7.7843 -18.8462 0
      vertex 14.4419 -28.4308 0
      vertex 13.4153 -29.5876 0
    endloop
  endfacet
  facet normal -0 0 -1
    outer loop
      vertex 17.9171 -12.8662 0
      vertex 7.46909 -16.2181 0
      vertex 17.2158 -11.3947 0
    endloop
  endfacet
  facet normal 0 0 -1
    outer loop
      vertex 7.7843 -18.8462 0
      vertex 13.4153 -29.5876 0
      vertex 12.2806 -30.7499 0
    endloop
  endfacet
  facet normal 0 0 -1
    outer loop
      vertex 7.7843 -18.8462 0
      vertex 12.2806 -30.7499 0
      vertex 11.0378 -31.9178 0
    endloop
  endfacet
  facet normal 0 0 -1
    outer loop
      vertex 7.20949 -15.5941 0
      vertex 17.2158 -11.3947 0
      vertex 7.46909 -16.2181 0
    endloop
  endfacet
  facet normal 0 0 -1
    outer loop
      vertex 7.7843 -18.8462 0
      vertex 11.0378 -31.9178 0
      vertex 9.68698 -33.0911 0
    endloop
  endfacet
  facet normal -0 0 -1
    outer loop
      vertex 17.2158 -11.3947 0
      vertex 7.20949 -15.5941 0
      vertex 16.3142 -10.0297 0
    endloop
  endfacet
  facet normal 0 0 -1
    outer loop
      vertex 2.35419 -26.7217 0
      vertex 9.68698 -33.0911 0
      vertex 8.22807 -34.2701 0
    endloop
  endfacet
  facet normal -0 0 -1
    outer loop
      vertex 16.3142 -10.0297 0
      vertex 7.20949 -15.5941 0
      vertex 15.2122 -8.77118 0
    endloop
  endfacet
  facet normal 0 0 -1
    outer loop
      vertex 6.87573 -15.019 0
      vertex 15.2122 -8.77118 0
      vertex 7.20949 -15.5941 0
    endloop
  endfacet
  facet normal -0 0 -1
    outer loop
      vertex 15.2122 -8.77118 0
      vertex 6.87573 -15.019 0
      vertex 13.9098 -7.61914 0
    endloop
  endfacet
  facet normal 0 0 -1
    outer loop
      vertex 6.46779 -14.4929 0
      vertex 13.9098 -7.61914 0
      vertex 6.87573 -15.019 0
    endloop
  endfacet
  facet normal -0 0 -1
    outer loop
      vertex 13.9098 -7.61914 0
      vertex 6.46779 -14.4929 0
      vertex 12.4355 -6.59868 0
    endloop
  endfacet
  facet normal 0 0 -1
    outer loop
      vertex 5.98569 -14.0157 0
      vertex 12.4355 -6.59868 0
      vertex 6.46779 -14.4929 0
    endloop
  endfacet
  facet normal -0 0 -1
    outer loop
      vertex 12.4355 -6.59868 0
      vertex 5.98569 -14.0157 0
      vertex 10.8176 -5.73521 0
    endloop
  endfacet
  facet normal 0 0 -1
    outer loop
      vertex 5.43195 -13.5953 0
      vertex 10.8176 -5.73521 0
      vertex 5.98569 -14.0157 0
    endloop
  endfacet
  facet normal -0 0 -1
    outer loop
      vertex 10.8176 -5.73521 0
      vertex 5.43195 -13.5953 0
      vertex 9.05618 -5.02873 0
    endloop
  endfacet
  facet normal 0 0 -1
    outer loop
      vertex 4.80879 -13.2395 0
      vertex 9.05618 -5.02873 0
      vertex 5.43195 -13.5953 0
    endloop
  endfacet
  facet normal -0 0 -1
    outer loop
      vertex 9.05618 -5.02873 0
      vertex 4.80879 -13.2395 0
      vertex 7.15117 -4.47928 0
    endloop
  endfacet
  facet normal 0 0 -1
    outer loop
      vertex 4.11621 -12.9485 0
      vertex 7.15117 -4.47928 0
      vertex 4.80879 -13.2395 0
    endloop
  endfacet
  facet normal -0 0 -1
    outer loop
      vertex 7.15117 -4.47928 0
      vertex 4.11621 -12.9485 0
      vertex 5.10257 -4.08679 0
    endloop
  endfacet
  facet normal 0 0 -1
    outer loop
      vertex 3.3542 -12.7221 0
      vertex 5.10257 -4.08679 0
      vertex 4.11621 -12.9485 0
    endloop
  endfacet
  facet normal 0 0 -1
    outer loop
      vertex 2.52277 -12.5604 0
      vertex 5.10257 -4.08679 0
      vertex 3.3542 -12.7221 0
    endloop
  endfacet
  facet normal -0 0 -1
    outer loop
      vertex 5.10257 -4.08679 0
      vertex 2.52277 -12.5604 0
      vertex 2.91042 -3.85129 0
    endloop
  endfacet
  facet normal 0 0 -1
    outer loop
      vertex 1.6219 -12.4634 0
      vertex 2.91042 -3.85129 0
      vertex 2.52277 -12.5604 0
    endloop
  endfacet
  facet normal 0 0 -1
    outer loop
      vertex 0.574677 -3.7728 0
      vertex 1.6219 -12.4634 0
      vertex 0.651627 -12.4311 0
    endloop
  endfacet
  facet normal 0 0 -1
    outer loop
      vertex 1.6219 -12.4634 0
      vertex 0.574677 -3.7728 0
      vertex 2.91042 -3.85129 0
    endloop
  endfacet
  facet normal 0 0 -1
    outer loop
      vertex -0.308746 -12.4693 0
      vertex 0.574677 -3.7728 0
      vertex 0.651627 -12.4311 0
    endloop
  endfacet
  facet normal 0 0 -1
    outer loop
      vertex -1.68581 -3.85405 0
      vertex -0.308746 -12.4693 0
      vertex -1.20209 -12.5841 0
    endloop
  endfacet
  facet normal 0 0 -1
    outer loop
      vertex -0.308746 -12.4693 0
      vertex -1.68581 -3.85405 0
      vertex 0.574677 -3.7728 0
    endloop
  endfacet
  facet normal 0 0 -1
    outer loop
      vertex -3.80667 -4.09781 0
      vertex -1.20209 -12.5841 0
      vertex -2.02838 -12.7754 0
    endloop
  endfacet
  facet normal 0 0 -1
    outer loop
      vertex -3.80667 -4.09781 0
      vertex -2.02838 -12.7754 0
      vertex -2.78761 -13.0432 0
    endloop
  endfacet
  facet normal 0 0 -1
    outer loop
      vertex -5.7879 -4.50409 0
      vertex -2.78761 -13.0432 0
      vertex -3.47981 -13.3876 0
    endloop
  endfacet
  facet normal 0 0 -1
    outer loop
      vertex -1.20209 -12.5841 0
      vertex -3.80667 -4.09781 0
      vertex -1.68581 -3.85405 0
    endloop
  endfacet
  facet normal 0 0 -1
    outer loop
      vertex -7.62949 -5.07285 0
      vertex -3.47981 -13.3876 0
      vertex -4.10495 -13.8084 0
    endloop
  endfacet
  facet normal 0 0 -1
    outer loop
      vertex -9.33144 -5.80414 0
      vertex -4.10495 -13.8084 0
      vertex -4.66304 -14.3058 0
    endloop
  endfacet
  facet normal 0 0 -1
    outer loop
      vertex -12.3164 -7.75423 0
      vertex -4.66304 -14.3058 0
      vertex -5.16116 -14.8797 0
    endloop
  endfacet
  facet normal 0 0 -1
    outer loop
      vertex -13.5916 -8.965 0
      vertex -5.16116 -14.8797 0
      vertex -5.60645 -15.5301 0
    endloop
  endfacet
  facet normal 0 0 -1
    outer loop
      vertex -2.78761 -13.0432 0
      vertex -5.7879 -4.50409 0
      vertex -3.80667 -4.09781 0
    endloop
  endfacet
  facet normal 0 0 -1
    outer loop
      vertex -14.7113 -10.3225 0
      vertex -5.60645 -15.5301 0
      vertex -5.99886 -16.257 0
    endloop
  endfacet
  facet normal 0 0 -1
    outer loop
      vertex -15.6756 -11.8267 0
      vertex -5.99886 -16.257 0
      vertex -6.33841 -17.0603 0
    endloop
  endfacet
  facet normal 0 0 -1
    outer loop
      vertex -16.4845 -13.4777 0
      vertex -6.33841 -17.0603 0
      vertex -6.62512 -17.9402 0
    endloop
  endfacet
  facet normal 0 0 -1
    outer loop
      vertex -17.138 -15.2754 0
      vertex -6.62512 -17.9402 0
      vertex -6.85895 -18.8966 0
    endloop
  endfacet
  facet normal 0 0 -1
    outer loop
      vertex -17.6361 -17.2198 0
      vertex -6.85895 -18.8966 0
      vertex -7.03993 -19.9294 0
    endloop
  endfacet
  facet normal 0 0 -1
    outer loop
      vertex -3.47981 -13.3876 0
      vertex -7.62949 -5.07285 0
      vertex -5.7879 -4.50409 0
    endloop
  endfacet
  facet normal 0 0 -1
    outer loop
      vertex -4.10495 -13.8084 0
      vertex -9.33144 -5.80414 0
      vertex -7.62949 -5.07285 0
    endloop
  endfacet
  facet normal 0 0 -1
    outer loop
      vertex -4.66304 -14.3058 0
      vertex -10.8938 -6.69792 0
      vertex -9.33144 -5.80414 0
    endloop
  endfacet
  facet normal 0 0 -1
    outer loop
      vertex -4.66304 -14.3058 0
      vertex -12.3164 -7.75423 0
      vertex -10.8938 -6.69792 0
    endloop
  endfacet
  facet normal 0 0 -1
    outer loop
      vertex -5.16116 -14.8797 0
      vertex -13.5916 -8.965 0
      vertex -12.3164 -7.75423 0
    endloop
  endfacet
  facet normal 0 0 -1
    outer loop
      vertex -5.60645 -15.5301 0
      vertex -14.7113 -10.3225 0
      vertex -13.5916 -8.965 0
    endloop
  endfacet
  facet normal 0 0 -1
    outer loop
      vertex -5.99886 -16.257 0
      vertex -15.6756 -11.8267 0
      vertex -14.7113 -10.3225 0
    endloop
  endfacet
  facet normal 0 0 -1
    outer loop
      vertex -6.33841 -17.0603 0
      vertex -16.4845 -13.4777 0
      vertex -15.6756 -11.8267 0
    endloop
  endfacet
  facet normal 0 0 -1
    outer loop
      vertex -6.62512 -17.9402 0
      vertex -17.138 -15.2754 0
      vertex -16.4845 -13.4777 0
    endloop
  endfacet
  facet normal 0 0 -1
    outer loop
      vertex -6.85895 -18.8966 0
      vertex -17.6361 -17.2198 0
      vertex -17.138 -15.2754 0
    endloop
  endfacet
  facet normal 0 -0 -1
    outer loop
      vertex -17.6361 -17.2198 0
      vertex -7.03993 -19.9294 0
      vertex -17.9788 -19.311 0
    endloop
  endfacet
  facet normal -0 0 1
    outer loop
      vertex 7.76576 -17.6128 1
      vertex 18.8187 -17.9196 1
      vertex 18.7185 -16.1287 1
    endloop
  endfacet
  facet normal 0 0 1
    outer loop
      vertex 18.8187 -17.9196 1
      vertex 7.80286 -18.3836 1
      vertex 18.7646 -19.1191 1
    endloop
  endfacet
  facet normal 0 0 1
    outer loop
      vertex 7.65451 -16.891 1
      vertex 18.7185 -16.1287 1
      vertex 18.418 -14.4442 1
    endloop
  endfacet
  facet normal 0 0 1
    outer loop
      vertex 18.8187 -17.9196 1
      vertex 7.76576 -17.6128 1
      vertex 7.80286 -18.3836 1
    endloop
  endfacet
  facet normal 0 0 1
    outer loop
      vertex 18.7646 -19.1191 1
      vertex 7.7843 -18.8462 1
      vertex 18.6025 -20.3099 1
    endloop
  endfacet
  facet normal 0 0 1
    outer loop
      vertex 7.65451 -16.891 1
      vertex 18.418 -14.4442 1
      vertex 17.9171 -12.8662 1
    endloop
  endfacet
  facet normal 0 0 1
    outer loop
      vertex 18.6025 -20.3099 1
      vertex 7.7843 -18.8462 1
      vertex 18.3324 -21.4921 1
    endloop
  endfacet
  facet normal 0 0 1
    outer loop
      vertex 7.46909 -16.2181 1
      vertex 17.9171 -12.8662 1
      vertex 17.2158 -11.3947 1
    endloop
  endfacet
  facet normal -0 0 1
    outer loop
      vertex 7.72868 -19.3065 1
      vertex 18.3324 -21.4921 1
      vertex 7.7843 -18.8462 1
    endloop
  endfacet
  facet normal 0 0 1
    outer loop
      vertex 7.20949 -15.5941 1
      vertex 17.2158 -11.3947 1
      vertex 16.3142 -10.0297 1
    endloop
  endfacet
  facet normal -0 0 1
    outer loop
      vertex 7.7843 -18.8462 1
      vertex 18.7646 -19.1191 1
      vertex 7.80286 -18.3836 1
    endloop
  endfacet
  facet normal -0 0 1
    outer loop
      vertex 7.63597 -19.7645 1
      vertex 17.9541 -22.6655 1
      vertex 7.72868 -19.3065 1
    endloop
  endfacet
  facet normal 0 0 1
    outer loop
      vertex 7.20949 -15.5941 1
      vertex 16.3142 -10.0297 1
      vertex 15.2122 -8.77118 1
    endloop
  endfacet
  facet normal 0 0 1
    outer loop
      vertex 17.9541 -22.6655 1
      vertex 7.63597 -19.7645 1
      vertex 17.4678 -23.8303 1
    endloop
  endfacet
  facet normal 0 0 1
    outer loop
      vertex 6.87573 -15.019 1
      vertex 15.2122 -8.77118 1
      vertex 13.9098 -7.61914 1
    endloop
  endfacet
  facet normal -0 0 1
    outer loop
      vertex 7.50616 -20.2201 1
      vertex 17.4678 -23.8303 1
      vertex 7.63597 -19.7645 1
    endloop
  endfacet
  facet normal 0 0 1
    outer loop
      vertex 6.46779 -14.4929 1
      vertex 13.9098 -7.61914 1
      vertex 12.4355 -6.59868 1
    endloop
  endfacet
  facet normal 0 0 1
    outer loop
      vertex 17.4678 -23.8303 1
      vertex 7.50616 -20.2201 1
      vertex 16.8735 -24.9865 1
    endloop
  endfacet
  facet normal -0 0 1
    outer loop
      vertex 7.33929 -20.6733 1
      vertex 16.8735 -24.9865 1
      vertex 7.50616 -20.2201 1
    endloop
  endfacet
  facet normal 0 0 1
    outer loop
      vertex 5.98569 -14.0157 1
      vertex 12.4355 -6.59868 1
      vertex 10.8176 -5.73521 1
    endloop
  endfacet
  facet normal 0 0 1
    outer loop
      vertex 16.8735 -24.9865 1
      vertex 7.33929 -20.6733 1
      vertex 16.171 -26.1339 1
    endloop
  endfacet
  facet normal 0 0 1
    outer loop
      vertex 5.43195 -13.5953 1
      vertex 10.8176 -5.73521 1
      vertex 9.05618 -5.02873 1
    endloop
  endfacet
  facet normal -0 0 1
    outer loop
      vertex 7.13531 -21.1242 1
      vertex 16.171 -26.1339 1
      vertex 7.33929 -20.6733 1
    endloop
  endfacet
  facet normal 0 0 1
    outer loop
      vertex 16.171 -26.1339 1
      vertex 7.13531 -21.1242 1
      vertex 15.3605 -27.2796 1
    endloop
  endfacet
  facet normal 0 0 1
    outer loop
      vertex 18.3324 -21.4921 1
      vertex 7.72868 -19.3065 1
      vertex 17.9541 -22.6655 1
    endloop
  endfacet
  facet normal 0 0 1
    outer loop
      vertex 18.7185 -16.1287 1
      vertex 7.65451 -16.891 1
      vertex 7.76576 -17.6128 1
    endloop
  endfacet
  facet normal 0 0 1
    outer loop
      vertex 17.9171 -12.8662 1
      vertex 7.46909 -16.2181 1
      vertex 7.65451 -16.891 1
    endloop
  endfacet
  facet normal 0 0 1
    outer loop
      vertex 17.2158 -11.3947 1
      vertex 7.20949 -15.5941 1
      vertex 7.46909 -16.2181 1
    endloop
  endfacet
  facet normal 0 0 1
    outer loop
      vertex 4.80879 -13.2395 1
      vertex 9.05618 -5.02873 1
      vertex 7.15117 -4.47928 1
    endloop
  endfacet
  facet normal 0 0 1
    outer loop
      vertex 15.2122 -8.77118 1
      vertex 6.87573 -15.019 1
      vertex 7.20949 -15.5941 1
    endloop
  endfacet
  facet normal 0 0 1
    outer loop
      vertex 13.9098 -7.61914 1
      vertex 6.46779 -14.4929 1
      vertex 6.87573 -15.019 1
    endloop
  endfacet
  facet normal 0 0 1
    outer loop
      vertex 12.4355 -6.59868 1
      vertex 5.98569 -14.0157 1
      vertex 6.46779 -14.4929 1
    endloop
  endfacet
  facet normal 0 0 1
    outer loop
      vertex 10.8176 -5.73521 1
      vertex 5.43195 -13.5953 1
      vertex 5.98569 -14.0157 1
    endloop
  endfacet
  facet normal 0 0 1
    outer loop
      vertex 4.11621 -12.9485 1
      vertex 7.15117 -4.47928 1
      vertex 5.10257 -4.08679 1
    endloop
  endfacet
  facet normal 0 0 1
    outer loop
      vertex 9.05618 -5.02873 1
      vertex 4.80879 -13.2395 1
      vertex 5.43195 -13.5953 1
    endloop
  endfacet
  facet normal 0 0 1
    outer loop
      vertex 7.15117 -4.47928 1
      vertex 4.11621 -12.9485 1
      vertex 4.80879 -13.2395 1
    endloop
  endfacet
  facet normal 0 0 1
    outer loop
      vertex 5.10257 -4.08679 1
      vertex 3.3542 -12.7221 1
      vertex 4.11621 -12.9485 1
    endloop
  endfacet
  facet normal 0 0 1
    outer loop
      vertex 2.52277 -12.5604 1
      vertex 5.10257 -4.08679 1
      vertex 2.91042 -3.85129 1
    endloop
  endfacet
  facet normal 0 0 1
    outer loop
      vertex 5.10257 -4.08679 1
      vertex 2.52277 -12.5604 1
      vertex 3.3542 -12.7221 1
    endloop
  endfacet
  facet normal 0 0 1
    outer loop
      vertex 2.91042 -3.85129 1
      vertex 1.6219 -12.4634 1
      vertex 2.52277 -12.5604 1
    endloop
  endfacet
  facet normal 0 0 1
    outer loop
      vertex 0.574677 -3.7728 1
      vertex 1.6219 -12.4634 1
      vertex 2.91042 -3.85129 1
    endloop
  endfacet
  facet normal 0 0 1
    outer loop
      vertex 1.6219 -12.4634 1
      vertex 0.574677 -3.7728 1
      vertex 0.651627 -12.4311 1
    endloop
  endfacet
  facet normal 0 0 1
    outer loop
      vertex 0.574677 -3.7728 1
      vertex -0.308746 -12.4693 1
      vertex 0.651627 -12.4311 1
    endloop
  endfacet
  facet normal -0 0 1
    outer loop
      vertex -1.68581 -3.85405 1
      vertex -0.308746 -12.4693 1
      vertex 0.574677 -3.7728 1
    endloop
  endfacet
  facet normal 0 0 1
    outer loop
      vertex -0.308746 -12.4693 1
      vertex -1.68581 -3.85405 1
      vertex -1.20209 -12.5841 1
    endloop
  endfacet
  facet normal -0 0 1
    outer loop
      vertex -3.80667 -4.09781 1
      vertex -1.20209 -12.5841 1
      vertex -1.68581 -3.85405 1
    endloop
  endfacet
  facet normal 0 0 1
    outer loop
      vertex -1.20209 -12.5841 1
      vertex -3.80667 -4.09781 1
      vertex -2.02838 -12.7754 1
    endloop
  endfacet
  facet normal 0 0 1
    outer loop
      vertex -2.02838 -12.7754 1
      vertex -3.80667 -4.09781 1
      vertex -2.78761 -13.0432 1
    endloop
  endfacet
  facet normal -0 0 1
    outer loop
      vertex -5.7879 -4.50409 1
      vertex -2.78761 -13.0432 1
      vertex -3.80667 -4.09781 1
    endloop
  endfacet
  facet normal 0 0 1
    outer loop
      vertex -2.78761 -13.0432 1
      vertex -5.7879 -4.50409 1
      vertex -3.47981 -13.3876 1
    endloop
  endfacet
  facet normal -0 0 1
    outer loop
      vertex -7.62949 -5.07285 1
      vertex -3.47981 -13.3876 1
      vertex -5.7879 -4.50409 1
    endloop
  endfacet
  facet normal 0 0 1
    outer loop
      vertex -3.47981 -13.3876 1
      vertex -7.62949 -5.07285 1
      vertex -4.10495 -13.8084 1
    endloop
  endfacet
  facet normal -0 0 1
    outer loop
      vertex -9.33144 -5.80414 1
      vertex -4.10495 -13.8084 1
      vertex -7.62949 -5.07285 1
    endloop
  endfacet
  facet normal 0 0 1
    outer loop
      vertex -4.10495 -13.8084 1
      vertex -9.33144 -5.80414 1
      vertex -4.66304 -14.3058 1
    endloop
  endfacet
  facet normal -0 0 1
    outer loop
      vertex -10.8938 -6.69792 1
      vertex -4.66304 -14.3058 1
      vertex -9.33144 -5.80414 1
    endloop
  endfacet
  facet normal -0 0 1
    outer loop
      vertex -12.3164 -7.75423 1
      vertex -4.66304 -14.3058 1
      vertex -10.8938 -6.69792 1
    endloop
  endfacet
  facet normal 0 0 1
    outer loop
      vertex -4.66304 -14.3058 1
      vertex -12.3164 -7.75423 1
      vertex -5.16116 -14.8797 1
    endloop
  endfacet
  facet normal -0 0 1
    outer loop
      vertex -13.5916 -8.965 1
      vertex -5.16116 -14.8797 1
      vertex -12.3164 -7.75423 1
    endloop
  endfacet
  facet normal 0 0 1
    outer loop
      vertex -5.16116 -14.8797 1
      vertex -13.5916 -8.965 1
      vertex -5.60645 -15.5301 1
    endloop
  endfacet
  facet normal -0 0 1
    outer loop
      vertex -14.7113 -10.3225 1
      vertex -5.60645 -15.5301 1
      vertex -13.5916 -8.965 1
    endloop
  endfacet
  facet normal 0 0 1
    outer loop
      vertex -5.60645 -15.5301 1
      vertex -14.7113 -10.3225 1
      vertex -5.99886 -16.257 1
    endloop
  endfacet
  facet normal -0 0 1
    outer loop
      vertex -15.6756 -11.8267 1
      vertex -5.99886 -16.257 1
      vertex -14.7113 -10.3225 1
    endloop
  endfacet
  facet normal 0 0 1
    outer loop
      vertex -5.99886 -16.257 1
      vertex -15.6756 -11.8267 1
      vertex -6.33841 -17.0603 1
    endloop
  endfacet
  facet normal -0 0 1
    outer loop
      vertex -16.4845 -13.4777 1
      vertex -6.33841 -17.0603 1
      vertex -15.6756 -11.8267 1
    endloop
  endfacet
  facet normal 0 0 1
    outer loop
      vertex -6.33841 -17.0603 1
      vertex -16.4845 -13.4777 1
      vertex -6.62512 -17.9402 1
    endloop
  endfacet
  facet normal -0 0 1
    outer loop
      vertex -17.138 -15.2754 1
      vertex -6.62512 -17.9402 1
      vertex -16.4845 -13.4777 1
    endloop
  endfacet
  facet normal 0 0 1
    outer loop
      vertex -6.62512 -17.9402 1
      vertex -17.138 -15.2754 1
      vertex -6.85895 -18.8966 1
    endloop
  endfacet
  facet normal -0 0 1
    outer loop
      vertex -17.6361 -17.2198 1
      vertex -6.85895 -18.8966 1
      vertex -17.138 -15.2754 1
    endloop
  endfacet
  facet normal 0 0 1
    outer loop
      vertex -6.85895 -18.8966 1
      vertex -17.6361 -17.2198 1
      vertex -7.03993 -19.9294 1
    endloop
  endfacet
  facet normal 0 0 1
    outer loop
      vertex -7.03993 -19.9294 1
      vertex -17.6361 -17.2198 1
      vertex -17.9788 -19.311 1
    endloop
  endfacet
  facet normal -0 0 1
    outer loop
      vertex 6.89427 -21.5727 1
      vertex 15.3605 -27.2796 1
      vertex 7.13531 -21.1242 1
    endloop
  endfacet
  facet normal -0 0 1
    outer loop
      vertex 6.62088 -22.0219 1
      vertex 15.3605 -27.2796 1
      vertex 6.89427 -21.5727 1
    endloop
  endfacet
  facet normal 0 0 1
    outer loop
      vertex 15.3605 -27.2796 1
      vertex 6.62088 -22.0219 1
      vertex 14.4419 -28.4308 1
    endloop
  endfacet
  facet normal -0 0 1
    outer loop
      vertex 6.3199 -22.4751 1
      vertex 14.4419 -28.4308 1
      vertex 6.62088 -22.0219 1
    endloop
  endfacet
  facet normal -0 0 1
    outer loop
      vertex 5.99132 -22.9322 1
      vertex 14.4419 -28.4308 1
      vertex 6.3199 -22.4751 1
    endloop
  endfacet
  facet normal 0 0 1
    outer loop
      vertex 14.4419 -28.4308 1
      vertex 5.99132 -22.9322 1
      vertex 13.4153 -29.5876 1
    endloop
  endfacet
  facet normal -0 0 1
    outer loop
      vertex 5.63515 -23.3932 1
      vertex 13.4153 -29.5876 1
      vertex 5.99132 -22.9322 1
    endloop
  endfacet
  facet normal 0 0 1
    outer loop
      vertex 13.4153 -29.5876 1
      vertex 5.63515 -23.3932 1
      vertex 12.2806 -30.7499 1
    endloop
  endfacet
  facet normal -0 0 1
    outer loop
      vertex 5.25139 -23.8582 1
      vertex 12.2806 -30.7499 1
      vertex 5.63515 -23.3932 1
    endloop
  endfacet
  facet normal -0 0 1
    outer loop
      vertex 4.84004 -24.3272 1
      vertex 12.2806 -30.7499 1
      vertex 5.25139 -23.8582 1
    endloop
  endfacet
  facet normal 0 0 1
    outer loop
      vertex 12.2806 -30.7499 1
      vertex 4.84004 -24.3272 1
      vertex 11.0378 -31.9178 1
    endloop
  endfacet
  facet normal -0 0 1
    outer loop
      vertex 4.40109 -24.8001 1
      vertex 11.0378 -31.9178 1
      vertex 4.84004 -24.3272 1
    endloop
  endfacet
  facet normal -0 0 1
    outer loop
      vertex 3.87183 -25.3302 1
      vertex 11.0378 -31.9178 1
      vertex 4.40109 -24.8001 1
    endloop
  endfacet
  facet normal 0 0 1
    outer loop
      vertex 11.0378 -31.9178 1
      vertex 3.87183 -25.3302 1
      vertex 9.68698 -33.0911 1
    endloop
  endfacet
  facet normal -0 0 1
    outer loop
      vertex 3.18953 -25.9707 1
      vertex 9.68698 -33.0911 1
      vertex 3.87183 -25.3302 1
    endloop
  endfacet
  facet normal -0 0 1
    outer loop
      vertex 2.35419 -26.7217 1
      vertex 9.68698 -33.0911 1
      vertex 3.18953 -25.9707 1
    endloop
  endfacet
  facet normal 0 0 1
    outer loop
      vertex 9.68698 -33.0911 1
      vertex 2.35419 -26.7217 1
      vertex 8.22807 -34.2701 1
    endloop
  endfacet
  facet normal -0 0 1
    outer loop
      vertex 1.3658 -27.5832 1
      vertex 8.22807 -34.2701 1
      vertex 2.35419 -26.7217 1
    endloop
  endfacet
  facet normal 0 0 1
    outer loop
      vertex 8.22807 -34.2701 1
      vertex 1.3658 -27.5832 1
      vertex 6.1857 -35.8604 1
    endloop
  endfacet
  facet normal -0 0 1
    outer loop
      vertex 0.22438 -28.555 1
      vertex 6.1857 -35.8604 1
      vertex 1.3658 -27.5832 1
    endloop
  endfacet
  facet normal -0 0 1
    outer loop
      vertex -1.07005 -29.6374 1
      vertex 6.1857 -35.8604 1
      vertex 0.22438 -28.555 1
    endloop
  endfacet
  facet normal 0 0 1
    outer loop
      vertex 6.1857 -35.8604 1
      vertex -1.07005 -29.6374 1
      vertex 4.34369 -37.3182 1
    endloop
  endfacet
  facet normal -0 0 1
    outer loop
      vertex -2.51756 -30.8301 1
      vertex 4.34369 -37.3182 1
      vertex -1.07005 -29.6374 1
    endloop
  endfacet
  facet normal 0 0 1
    outer loop
      vertex 4.34369 -37.3182 1
      vertex -2.51756 -30.8301 1
      vertex 2.70204 -38.6435 1
    endloop
  endfacet
  facet normal -0 0 1
    outer loop
      vertex -4.40567 -32.394 1
      vertex 2.70204 -38.6435 1
      vertex -2.51756 -30.8301 1
    endloop
  endfacet
  facet normal 0 0 1
    outer loop
      vertex 2.70204 -38.6435 1
      vertex -4.40567 -32.394 1
      vertex 1.26076 -39.8362 1
    endloop
  endfacet
  facet normal -0 0 1
    outer loop
      vertex -6.16048 -33.905 1
      vertex 1.26076 -39.8362 1
      vertex -4.40567 -32.394 1
    endloop
  endfacet
  facet normal 0 0 1
    outer loop
      vertex 1.26076 -39.8362 1
      vertex -6.16048 -33.905 1
      vertex 0.0198364 -40.8965 1
    endloop
  endfacet
  facet normal 0 0 1
    outer loop
      vertex 0.0198364 -40.8965 1
      vertex -6.16048 -33.905 1
      vertex -1.02071 -41.8242 1
    endloop
  endfacet
  facet normal -0 0 1
    outer loop
      vertex -7.78198 -35.3631 1
      vertex -1.02071 -41.8242 1
      vertex -6.16048 -33.905 1
    endloop
  endfacet
  facet normal 0 0 1
    outer loop
      vertex -1.02071 -41.8242 1
      vertex -7.78198 -35.3631 1
      vertex -1.86092 -42.6194 1
    endloop
  endfacet
  facet normal -0 0 1
    outer loop
      vertex -9.27017 -36.7684 1
      vertex -1.86092 -42.6194 1
      vertex -7.78198 -35.3631 1
    endloop
  endfacet
  facet normal 0 0 1
    outer loop
      vertex -1.86092 -42.6194 1
      vertex -9.27017 -36.7684 1
      vertex -2.57159 -43.3498 1
    endloop
  endfacet
  facet normal 0 0 1
    outer loop
      vertex -2.57159 -43.3498 1
      vertex -9.27017 -36.7684 1
      vertex -3.22389 -44.0833 1
    endloop
  endfacet
  facet normal -0 0 1
    outer loop
      vertex -10.625 -38.1209 1
      vertex -3.22389 -44.0833 1
      vertex -9.27017 -36.7684 1
    endloop
  endfacet
  facet normal 0 0 1
    outer loop
      vertex -3.22389 -44.0833 1
      vertex -10.625 -38.1209 1
      vertex -3.81783 -44.82 1
    endloop
  endfacet
  facet normal -0 0 1
    outer loop
      vertex -11.8466 -39.4205 1
      vertex -3.81783 -44.82 1
      vertex -10.625 -38.1209 1
    endloop
  endfacet
  facet normal -0 0 1
    outer loop
      vertex -5.6098 -47.7984 1
      vertex 19.6691 -56.7275 1
      vertex 19.6691 -47.7984 1
    endloop
  endfacet
  facet normal 0 0 1
    outer loop
      vertex -3.81783 -44.82 1
      vertex -11.8466 -39.4205 1
      vertex -4.35338 -45.5599 1
    endloop
  endfacet
  facet normal 0 0 1
    outer loop
      vertex -4.35338 -45.5599 1
      vertex -11.8466 -39.4205 1
      vertex -4.83055 -46.3029 1
    endloop
  endfacet
  facet normal -0 0 1
    outer loop
      vertex -12.9349 -40.6672 1
      vertex -4.83055 -46.3029 1
      vertex -11.8466 -39.4205 1
    endloop
  endfacet
  facet normal 0 0 1
    outer loop
      vertex -4.83055 -46.3029 1
      vertex -12.9349 -40.6672 1
      vertex -5.24937 -47.0491 1
    endloop
  endfacet
  facet normal -0 0 1
    outer loop
      vertex -13.9228 -41.8871 1
      vertex -5.24937 -47.0491 1
      vertex -12.9349 -40.6672 1
    endloop
  endfacet
  facet normal 0 0 1
    outer loop
      vertex -5.24937 -47.0491 1
      vertex -13.9228 -41.8871 1
      vertex -5.6098 -47.7984 1
    endloop
  endfacet
  facet normal -0 0 1
    outer loop
      vertex -14.8437 -43.1062 1
      vertex -5.6098 -47.7984 1
      vertex -13.9228 -41.8871 1
    endloop
  endfacet
  facet normal -0 0 1
    outer loop
      vertex -15.6976 -44.3246 1
      vertex -5.6098 -47.7984 1
      vertex -14.8437 -43.1062 1
    endloop
  endfacet
  facet normal -0 0 1
    outer loop
      vertex -16.4844 -45.5422 1
      vertex -5.6098 -47.7984 1
      vertex -15.6976 -44.3246 1
    endloop
  endfacet
  facet normal -0 0 1
    outer loop
      vertex -17.2042 -46.759 1
      vertex -5.6098 -47.7984 1
      vertex -16.4844 -45.5422 1
    endloop
  endfacet
  facet normal 0 0 1
    outer loop
      vertex -17.857 -47.9751 1
      vertex -5.6098 -47.7984 1
      vertex -17.2042 -46.759 1
    endloop
  endfacet
  facet normal 0 0 1
    outer loop
      vertex -18.4428 -49.1904 1
      vertex -5.6098 -47.7984 1
      vertex -17.857 -47.9751 1
    endloop
  endfacet
  facet normal 0 0 1
    outer loop
      vertex -5.6098 -47.7984 1
      vertex -18.4428 -49.1904 1
      vertex -18.4428 -56.7275 1
    endloop
  endfacet
  facet normal 0 0 1
    outer loop
      vertex -5.6098 -47.7984 1
      vertex -18.4428 -56.7275 1
      vertex 19.6691 -56.7275 1
    endloop
  endfacet
  facet normal 0 1 -0
    outer loop
      vertex 19.6691 -47.7984 0
      vertex -5.6098 -47.7984 1
      vertex 19.6691 -47.7984 1
    endloop
  endfacet
  facet normal 0 1 0
    outer loop
      vertex -5.6098 -47.7984 1
      vertex 19.6691 -47.7984 0
      vertex -5.6098 -47.7984 0
    endloop
  endfacet
  facet normal 0.901163 -0.43348 0
    outer loop
      vertex -5.6098 -47.7984 1
      vertex -5.24937 -47.0491 0
      vertex -5.24937 -47.0491 1
    endloop
  endfacet
  facet normal 0.901163 -0.43348 0
    outer loop
      vertex -5.24937 -47.0491 0
      vertex -5.6098 -47.7984 1
      vertex -5.6098 -47.7984 0
    endloop
  endfacet
  facet normal 0.872033 -0.489447 0
    outer loop
      vertex -5.24937 -47.0491 1
      vertex -4.83055 -46.3029 0
      vertex -4.83055 -46.3029 1
    endloop
  endfacet
  facet normal 0.872033 -0.489447 0
    outer loop
      vertex -4.83055 -46.3029 0
      vertex -5.24937 -47.0491 1
      vertex -5.24937 -47.0491 0
    endloop
  endfacet
  facet normal 0.841422 -0.540379 0
    outer loop
      vertex -4.83055 -46.3029 1
      vertex -4.35338 -45.5599 0
      vertex -4.35338 -45.5599 1
    endloop
  endfacet
  facet normal 0.841422 -0.540379 0
    outer loop
      vertex -4.35338 -45.5599 0
      vertex -4.83055 -46.3029 1
      vertex -4.83055 -46.3029 0
    endloop
  endfacet
  facet normal 0.810067 -0.586338 0
    outer loop
      vertex -4.35338 -45.5599 1
      vertex -3.81783 -44.82 0
      vertex -3.81783 -44.82 1
    endloop
  endfacet
  facet normal 0.810067 -0.586338 0
    outer loop
      vertex -3.81783 -44.82 0
      vertex -4.35338 -45.5599 1
      vertex -4.35338 -45.5599 0
    endloop
  endfacet
  facet normal 0.778502 -0.627642 0
    outer loop
      vertex -3.81783 -44.82 1
      vertex -3.22389 -44.0833 0
      vertex -3.22389 -44.0833 1
    endloop
  endfacet
  facet normal 0.778502 -0.627642 0
    outer loop
      vertex -3.22389 -44.0833 0
      vertex -3.81783 -44.82 1
      vertex -3.81783 -44.82 0
    endloop
  endfacet
  facet normal 0.747258 -0.664535 0
    outer loop
      vertex -3.22389 -44.0833 1
      vertex -2.57159 -43.3498 0
      vertex -2.57159 -43.3498 1
    endloop
  endfacet
  facet normal 0.747258 -0.664535 0
    outer loop
      vertex -2.57159 -43.3498 0
      vertex -3.22389 -44.0833 1
      vertex -3.22389 -44.0833 0
    endloop
  endfacet
  facet normal 0.716721 -0.69736 0
    outer loop
      vertex -2.57159 -43.3498 1
      vertex -1.86092 -42.6194 0
      vertex -1.86092 -42.6194 1
    endloop
  endfacet
  facet normal 0.716721 -0.69736 0
    outer loop
      vertex -1.86092 -42.6194 0
      vertex -2.57159 -43.3498 1
      vertex -2.57159 -43.3498 0
    endloop
  endfacet
  facet normal 0.687385 -0.726293 0
    outer loop
      vertex -1.86092 -42.6194 0
      vertex -1.02071 -41.8242 1
      vertex -1.86092 -42.6194 1
    endloop
  endfacet
  facet normal 0.687385 -0.726293 0
    outer loop
      vertex -1.02071 -41.8242 1
      vertex -1.86092 -42.6194 0
      vertex -1.02071 -41.8242 0
    endloop
  endfacet
  facet normal 0.665473 -0.746422 0
    outer loop
      vertex -1.02071 -41.8242 0
      vertex 0.0198364 -40.8965 1
      vertex -1.02071 -41.8242 1
    endloop
  endfacet
  facet normal 0.665473 -0.746422 0
    outer loop
      vertex 0.0198364 -40.8965 1
      vertex -1.02071 -41.8242 0
      vertex 0.0198364 -40.8965 0
    endloop
  endfacet
  facet normal 0.649608 -0.760269 0
    outer loop
      vertex 0.0198364 -40.8965 0
      vertex 1.26076 -39.8362 1
      vertex 0.0198364 -40.8965 1
    endloop
  endfacet
  facet normal 0.649608 -0.760269 0
    outer loop
      vertex 1.26076 -39.8362 1
      vertex 0.0198364 -40.8965 0
      vertex 1.26076 -39.8362 0
    endloop
  endfacet
  facet normal 0.637541 -0.770416 0
    outer loop
      vertex 1.26076 -39.8362 0
      vertex 2.70204 -38.6435 1
      vertex 1.26076 -39.8362 1
    endloop
  endfacet
  facet normal 0.637541 -0.770416 0
    outer loop
      vertex 2.70204 -38.6435 1
      vertex 1.26076 -39.8362 0
      vertex 2.70204 -38.6435 0
    endloop
  endfacet
  facet normal 0.628151 -0.778091 0
    outer loop
      vertex 2.70204 -38.6435 0
      vertex 4.34369 -37.3182 1
      vertex 2.70204 -38.6435 1
    endloop
  endfacet
  facet normal 0.628151 -0.778091 0
    outer loop
      vertex 4.34369 -37.3182 1
      vertex 2.70204 -38.6435 0
      vertex 4.34369 -37.3182 0
    endloop
  endfacet
  facet normal 0.620583 -0.784141 0
    outer loop
      vertex 4.34369 -37.3182 0
      vertex 6.1857 -35.8604 1
      vertex 4.34369 -37.3182 1
    endloop
  endfacet
  facet normal 0.620583 -0.784141 0
    outer loop
      vertex 6.1857 -35.8604 1
      vertex 4.34369 -37.3182 0
      vertex 6.1857 -35.8604 0
    endloop
  endfacet
  facet normal 0.614371 -0.789017 0
    outer loop
      vertex 6.1857 -35.8604 0
      vertex 8.22807 -34.2701 1
      vertex 6.1857 -35.8604 1
    endloop
  endfacet
  facet normal 0.614371 -0.789017 0
    outer loop
      vertex 8.22807 -34.2701 1
      vertex 6.1857 -35.8604 0
      vertex 8.22807 -34.2701 0
    endloop
  endfacet
  facet normal 0.628547 -0.777772 0
    outer loop
      vertex 8.22807 -34.2701 0
      vertex 9.68698 -33.0911 1
      vertex 8.22807 -34.2701 1
    endloop
  endfacet
  facet normal 0.628547 -0.777772 0
    outer loop
      vertex 9.68698 -33.0911 1
      vertex 8.22807 -34.2701 0
      vertex 9.68698 -33.0911 0
    endloop
  endfacet
  facet normal 0.655757 -0.754972 0
    outer loop
      vertex 9.68698 -33.0911 0
      vertex 11.0378 -31.9178 1
      vertex 9.68698 -33.0911 1
    endloop
  endfacet
  facet normal 0.655757 -0.754972 0
    outer loop
      vertex 11.0378 -31.9178 1
      vertex 9.68698 -33.0911 0
      vertex 11.0378 -31.9178 0
    endloop
  endfacet
  facet normal 0.684807 -0.728725 0
    outer loop
      vertex 11.0378 -31.9178 0
      vertex 12.2806 -30.7499 1
      vertex 11.0378 -31.9178 1
    endloop
  endfacet
  facet normal 0.684807 -0.728725 0
    outer loop
      vertex 12.2806 -30.7499 1
      vertex 11.0378 -31.9178 0
      vertex 12.2806 -30.7499 0
    endloop
  endfacet
  facet normal 0.715551 -0.69856 0
    outer loop
      vertex 12.2806 -30.7499 1
      vertex 13.4153 -29.5876 0
      vertex 13.4153 -29.5876 1
    endloop
  endfacet
  facet normal 0.715551 -0.69856 0
    outer loop
      vertex 13.4153 -29.5876 0
      vertex 12.2806 -30.7499 1
      vertex 12.2806 -30.7499 0
    endloop
  endfacet
  facet normal 0.747944 -0.663762 0
    outer loop
      vertex 13.4153 -29.5876 1
      vertex 14.4419 -28.4308 0
      vertex 14.4419 -28.4308 1
    endloop
  endfacet
  facet normal 0.747944 -0.663762 0
    outer loop
      vertex 14.4419 -28.4308 0
      vertex 13.4153 -29.5876 1
      vertex 13.4153 -29.5876 0
    endloop
  endfacet
  facet normal 0.78165 -0.623717 0
    outer loop
      vertex 14.4419 -28.4308 1
      vertex 15.3605 -27.2796 0
      vertex 15.3605 -27.2796 1
    endloop
  endfacet
  facet normal 0.78165 -0.623717 0
    outer loop
      vertex 15.3605 -27.2796 0
      vertex 14.4419 -28.4308 1
      vertex 14.4419 -28.4308 0
    endloop
  endfacet
  facet normal 0.816373 -0.577525 0
    outer loop
      vertex 15.3605 -27.2796 1
      vertex 16.171 -26.1339 0
      vertex 16.171 -26.1339 1
    endloop
  endfacet
  facet normal 0.816373 -0.577525 0
    outer loop
      vertex 16.171 -26.1339 0
      vertex 15.3605 -27.2796 1
      vertex 15.3605 -27.2796 0
    endloop
  endfacet
  facet normal 0.852848 -0.522159 0
    outer loop
      vertex 16.171 -26.1339 1
      vertex 16.8735 -24.9865 0
      vertex 16.8735 -24.9865 1
    endloop
  endfacet
  facet normal 0.852848 -0.522159 0
    outer loop
      vertex 16.8735 -24.9865 0
      vertex 16.171 -26.1339 1
      vertex 16.171 -26.1339 0
    endloop
  endfacet
  facet normal 0.889387 -0.457155 0
    outer loop
      vertex 16.8735 -24.9865 1
      vertex 17.4678 -23.8303 0
      vertex 17.4678 -23.8303 1
    endloop
  endfacet
  facet normal 0.889387 -0.457155 0
    outer loop
      vertex 17.4678 -23.8303 0
      vertex 16.8735 -24.9865 1
      vertex 16.8735 -24.9865 0
    endloop
  endfacet
  facet normal 0.922805 -0.385268 0
    outer loop
      vertex 17.4678 -23.8303 1
      vertex 17.9541 -22.6655 0
      vertex 17.9541 -22.6655 1
    endloop
  endfacet
  facet normal 0.922805 -0.385268 0
    outer loop
      vertex 17.9541 -22.6655 0
      vertex 17.4678 -23.8303 1
      vertex 17.4678 -23.8303 0
    endloop
  endfacet
  facet normal 0.95176 -0.306844 0
    outer loop
      vertex 17.9541 -22.6655 1
      vertex 18.3324 -21.4921 0
      vertex 18.3324 -21.4921 1
    endloop
  endfacet
  facet normal 0.95176 -0.306844 0
    outer loop
      vertex 18.3324 -21.4921 0
      vertex 17.9541 -22.6655 1
      vertex 17.9541 -22.6655 0
    endloop
  endfacet
  facet normal 0.974879 -0.222733 0
    outer loop
      vertex 18.3324 -21.4921 1
      vertex 18.6025 -20.3099 0
      vertex 18.6025 -20.3099 1
    endloop
  endfacet
  facet normal 0.974879 -0.222733 0
    outer loop
      vertex 18.6025 -20.3099 0
      vertex 18.3324 -21.4921 1
      vertex 18.3324 -21.4921 0
    endloop
  endfacet
  facet normal 0.990862 -0.134883 0
    outer loop
      vertex 18.6025 -20.3099 1
      vertex 18.7646 -19.1191 0
      vertex 18.7646 -19.1191 1
    endloop
  endfacet
  facet normal 0.990862 -0.134883 0
    outer loop
      vertex 18.7646 -19.1191 0
      vertex 18.6025 -20.3099 1
      vertex 18.6025 -20.3099 0
    endloop
  endfacet
  facet normal 0.998984 -0.0450563 0
    outer loop
      vertex 18.7646 -19.1191 1
      vertex 18.8187 -17.9196 0
      vertex 18.8187 -17.9196 1
    endloop
  endfacet
  facet normal 0.998984 -0.0450563 0
    outer loop
      vertex 18.8187 -17.9196 0
      vertex 18.7646 -19.1191 1
      vertex 18.7646 -19.1191 0
    endloop
  endfacet
  facet normal 0.998438 0.0558622 0
    outer loop
      vertex 18.8187 -17.9196 1
      vertex 18.7185 -16.1287 0
      vertex 18.7185 -16.1287 1
    endloop
  endfacet
  facet normal 0.998438 0.0558622 0
    outer loop
      vertex 18.7185 -16.1287 0
      vertex 18.8187 -17.9196 1
      vertex 18.8187 -17.9196 0
    endloop
  endfacet
  facet normal 0.984458 0.175619 0
    outer loop
      vertex 18.7185 -16.1287 1
      vertex 18.418 -14.4442 0
      vertex 18.418 -14.4442 1
    endloop
  endfacet
  facet normal 0.984458 0.175619 0
    outer loop
      vertex 18.418 -14.4442 0
      vertex 18.7185 -16.1287 1
      vertex 18.7185 -16.1287 0
    endloop
  endfacet
  facet normal 0.953133 0.30255 0
    outer loop
      vertex 18.418 -14.4442 1
      vertex 17.9171 -12.8662 0
      vertex 17.9171 -12.8662 1
    endloop
  endfacet
  facet normal 0.953133 0.30255 0
    outer loop
      vertex 17.9171 -12.8662 0
      vertex 18.418 -14.4442 1
      vertex 18.418 -14.4442 0
    endloop
  endfacet
  facet normal 0.902721 0.430226 0
    outer loop
      vertex 17.9171 -12.8662 1
      vertex 17.2158 -11.3947 0
      vertex 17.2158 -11.3947 1
    endloop
  endfacet
  facet normal 0.902721 0.430226 0
    outer loop
      vertex 17.2158 -11.3947 0
      vertex 17.9171 -12.8662 1
      vertex 17.9171 -12.8662 0
    endloop
  endfacet
  facet normal 0.834413 0.55114 0
    outer loop
      vertex 17.2158 -11.3947 1
      vertex 16.3142 -10.0297 0
      vertex 16.3142 -10.0297 1
    endloop
  endfacet
  facet normal 0.834413 0.55114 0
    outer loop
      vertex 16.3142 -10.0297 0
      vertex 17.2158 -11.3947 1
      vertex 17.2158 -11.3947 0
    endloop
  endfacet
  facet normal 0.752341 0.658774 0
    outer loop
      vertex 16.3142 -10.0297 1
      vertex 15.2122 -8.77118 0
      vertex 15.2122 -8.77118 1
    endloop
  endfacet
  facet normal 0.752341 0.658774 0
    outer loop
      vertex 15.2122 -8.77118 0
      vertex 16.3142 -10.0297 1
      vertex 16.3142 -10.0297 0
    endloop
  endfacet
  facet normal 0.662547 0.74902 -0
    outer loop
      vertex 15.2122 -8.77118 0
      vertex 13.9098 -7.61914 1
      vertex 15.2122 -8.77118 1
    endloop
  endfacet
  facet normal 0.662547 0.74902 0
    outer loop
      vertex 13.9098 -7.61914 1
      vertex 15.2122 -8.77118 0
      vertex 13.9098 -7.61914 0
    endloop
  endfacet
  facet normal 0.569131 0.822247 -0
    outer loop
      vertex 13.9098 -7.61914 0
      vertex 12.4355 -6.59868 1
      vertex 13.9098 -7.61914 1
    endloop
  endfacet
  facet normal 0.569131 0.822247 0
    outer loop
      vertex 12.4355 -6.59868 1
      vertex 13.9098 -7.61914 0
      vertex 12.4355 -6.59868 0
    endloop
  endfacet
  facet normal 0.470839 0.882219 -0
    outer loop
      vertex 12.4355 -6.59868 0
      vertex 10.8176 -5.73521 1
      vertex 12.4355 -6.59868 1
    endloop
  endfacet
  facet normal 0.470839 0.882219 0
    outer loop
      vertex 10.8176 -5.73521 1
      vertex 12.4355 -6.59868 0
      vertex 10.8176 -5.73521 0
    endloop
  endfacet
  facet normal 0.372259 0.928129 -0
    outer loop
      vertex 10.8176 -5.73521 0
      vertex 9.05618 -5.02873 1
      vertex 10.8176 -5.73521 1
    endloop
  endfacet
  facet normal 0.372259 0.928129 0
    outer loop
      vertex 9.05618 -5.02873 1
      vertex 10.8176 -5.73521 0
      vertex 9.05618 -5.02873 0
    endloop
  endfacet
  facet normal 0.277127 0.960833 -0
    outer loop
      vertex 9.05618 -5.02873 0
      vertex 7.15117 -4.47928 1
      vertex 9.05618 -5.02873 1
    endloop
  endfacet
  facet normal 0.277127 0.960833 0
    outer loop
      vertex 7.15117 -4.47928 1
      vertex 9.05618 -5.02873 0
      vertex 7.15117 -4.47928 0
    endloop
  endfacet
  facet normal 0.188167 0.982137 -0
    outer loop
      vertex 7.15117 -4.47928 0
      vertex 5.10257 -4.08679 1
      vertex 7.15117 -4.47928 1
    endloop
  endfacet
  facet normal 0.188167 0.982137 0
    outer loop
      vertex 5.10257 -4.08679 1
      vertex 7.15117 -4.47928 0
      vertex 5.10257 -4.08679 0
    endloop
  endfacet
  facet normal 0.106814 0.994279 -0
    outer loop
      vertex 5.10257 -4.08679 0
      vertex 2.91042 -3.85129 1
      vertex 5.10257 -4.08679 1
    endloop
  endfacet
  facet normal 0.106814 0.994279 0
    outer loop
      vertex 2.91042 -3.85129 1
      vertex 5.10257 -4.08679 0
      vertex 2.91042 -3.85129 0
    endloop
  endfacet
  facet normal 0.0335849 0.999436 -0
    outer loop
      vertex 2.91042 -3.85129 0
      vertex 0.574677 -3.7728 1
      vertex 2.91042 -3.85129 1
    endloop
  endfacet
  facet normal 0.0335849 0.999436 0
    outer loop
      vertex 0.574677 -3.7728 1
      vertex 2.91042 -3.85129 0
      vertex 0.574677 -3.7728 0
    endloop
  endfacet
  facet normal -0.0359204 0.999355 0
    outer loop
      vertex 0.574677 -3.7728 0
      vertex -1.68581 -3.85405 1
      vertex 0.574677 -3.7728 1
    endloop
  endfacet
  facet normal -0.0359204 0.999355 0
    outer loop
      vertex -1.68581 -3.85405 1
      vertex 0.574677 -3.7728 0
      vertex -1.68581 -3.85405 0
    endloop
  endfacet
  facet normal -0.114183 0.99346 0
    outer loop
      vertex -1.68581 -3.85405 0
      vertex -3.80667 -4.09781 1
      vertex -1.68581 -3.85405 1
    endloop
  endfacet
  facet normal -0.114183 0.99346 0
    outer loop
      vertex -3.80667 -4.09781 1
      vertex -1.68581 -3.85405 0
      vertex -3.80667 -4.09781 0
    endloop
  endfacet
  facet normal -0.200884 0.979615 0
    outer loop
      vertex -3.80667 -4.09781 0
      vertex -5.7879 -4.50409 1
      vertex -3.80667 -4.09781 1
    endloop
  endfacet
  facet normal -0.200884 0.979615 0
    outer loop
      vertex -5.7879 -4.50409 1
      vertex -3.80667 -4.09781 0
      vertex -5.7879 -4.50409 0
    endloop
  endfacet
  facet normal -0.295089 0.95547 0
    outer loop
      vertex -5.7879 -4.50409 0
      vertex -7.62949 -5.07285 1
      vertex -5.7879 -4.50409 1
    endloop
  endfacet
  facet normal -0.295089 0.95547 0
    outer loop
      vertex -7.62949 -5.07285 1
      vertex -5.7879 -4.50409 0
      vertex -7.62949 -5.07285 0
    endloop
  endfacet
  facet normal -0.394778 0.918777 0
    outer loop
      vertex -7.62949 -5.07285 0
      vertex -9.33144 -5.80414 1
      vertex -7.62949 -5.07285 1
    endloop
  endfacet
  facet normal -0.394778 0.918777 0
    outer loop
      vertex -9.33144 -5.80414 1
      vertex -7.62949 -5.07285 0
      vertex -9.33144 -5.80414 0
    endloop
  endfacet
  facet normal -0.496559 0.868003 0
    outer loop
      vertex -9.33144 -5.80414 0
      vertex -10.8938 -6.69792 1
      vertex -9.33144 -5.80414 1
    endloop
  endfacet
  facet normal -0.496559 0.868003 0
    outer loop
      vertex -10.8938 -6.69792 1
      vertex -9.33144 -5.80414 0
      vertex -10.8938 -6.69792 0
    endloop
  endfacet
  facet normal -0.59615 0.802873 0
    outer loop
      vertex -10.8938 -6.69792 0
      vertex -12.3164 -7.75423 1
      vertex -10.8938 -6.69792 1
    endloop
  endfacet
  facet normal -0.59615 0.802873 0
    outer loop
      vertex -12.3164 -7.75423 1
      vertex -10.8938 -6.69792 0
      vertex -12.3164 -7.75423 0
    endloop
  endfacet
  facet normal -0.688549 0.72519 0
    outer loop
      vertex -12.3164 -7.75423 0
      vertex -13.5916 -8.965 1
      vertex -12.3164 -7.75423 1
    endloop
  endfacet
  facet normal -0.688549 0.72519 0
    outer loop
      vertex -13.5916 -8.965 1
      vertex -12.3164 -7.75423 0
      vertex -13.5916 -8.965 0
    endloop
  endfacet
  facet normal -0.77144 0.636303 0
    outer loop
      vertex -14.7113 -10.3225 0
      vertex -13.5916 -8.965 1
      vertex -13.5916 -8.965 0
    endloop
  endfacet
  facet normal -0.77144 0.636303 0
    outer loop
      vertex -13.5916 -8.965 1
      vertex -14.7113 -10.3225 0
      vertex -14.7113 -10.3225 1
    endloop
  endfacet
  facet normal -0.841862 0.539694 0
    outer loop
      vertex -15.6756 -11.8267 0
      vertex -14.7113 -10.3225 1
      vertex -14.7113 -10.3225 0
    endloop
  endfacet
  facet normal -0.841862 0.539694 0
    outer loop
      vertex -14.7113 -10.3225 1
      vertex -15.6756 -11.8267 0
      vertex -15.6756 -11.8267 1
    endloop
  endfacet
  facet normal -0.89801 0.439976 0
    outer loop
      vertex -16.4845 -13.4777 0
      vertex -15.6756 -11.8267 1
      vertex -15.6756 -11.8267 0
    endloop
  endfacet
  facet normal -0.89801 0.439976 0
    outer loop
      vertex -15.6756 -11.8267 1
      vertex -16.4845 -13.4777 0
      vertex -16.4845 -13.4777 1
    endloop
  endfacet
  facet normal -0.939829 0.341647 0
    outer loop
      vertex -17.138 -15.2754 0
      vertex -16.4845 -13.4777 1
      vertex -16.4845 -13.4777 0
    endloop
  endfacet
  facet normal -0.939829 0.341647 0
    outer loop
      vertex -16.4845 -13.4777 1
      vertex -17.138 -15.2754 0
      vertex -17.138 -15.2754 1
    endloop
  endfacet
  facet normal -0.968719 0.248158 0
    outer loop
      vertex -17.6361 -17.2198 0
      vertex -17.138 -15.2754 1
      vertex -17.138 -15.2754 0
    endloop
  endfacet
  facet normal -0.968719 0.248158 0
    outer loop
      vertex -17.138 -15.2754 1
      vertex -17.6361 -17.2198 0
      vertex -17.6361 -17.2198 1
    endloop
  endfacet
  facet normal -0.986837 0.16172 0
    outer loop
      vertex -17.9788 -19.311 0
      vertex -17.6361 -17.2198 1
      vertex -17.6361 -17.2198 0
    endloop
  endfacet
  facet normal -0.986837 0.16172 0
    outer loop
      vertex -17.6361 -17.2198 1
      vertex -17.9788 -19.311 0
      vertex -17.9788 -19.311 1
    endloop
  endfacet
  facet normal -0.0564422 -0.998406 0
    outer loop
      vertex -17.9788 -19.311 0
      vertex -7.03993 -19.9294 1
      vertex -17.9788 -19.311 1
    endloop
  endfacet
  facet normal -0.0564422 -0.998406 -0
    outer loop
      vertex -7.03993 -19.9294 1
      vertex -17.9788 -19.311 0
      vertex -7.03993 -19.9294 0
    endloop
  endfacet
  facet normal 0.984992 -0.172602 0
    outer loop
      vertex -7.03993 -19.9294 1
      vertex -6.85895 -18.8966 0
      vertex -6.85895 -18.8966 1
    endloop
  endfacet
  facet normal 0.984992 -0.172602 0
    outer loop
      vertex -6.85895 -18.8966 0
      vertex -7.03993 -19.9294 1
      vertex -7.03993 -19.9294 0
    endloop
  endfacet
  facet normal 0.971389 -0.237495 0
    outer loop
      vertex -6.85895 -18.8966 1
      vertex -6.62512 -17.9402 0
      vertex -6.62512 -17.9402 1
    endloop
  endfacet
  facet normal 0.971389 -0.237495 0
    outer loop
      vertex -6.62512 -17.9402 0
      vertex -6.85895 -18.8966 1
      vertex -6.85895 -18.8966 0
    endloop
  endfacet
  facet normal 0.950798 -0.309812 0
    outer loop
      vertex -6.62512 -17.9402 1
      vertex -6.33841 -17.0603 0
      vertex -6.33841 -17.0603 1
    endloop
  endfacet
  facet normal 0.950798 -0.309812 0
    outer loop
      vertex -6.33841 -17.0603 0
      vertex -6.62512 -17.9402 1
      vertex -6.62512 -17.9402 0
    endloop
  endfacet
  facet normal 0.921094 -0.389341 0
    outer loop
      vertex -6.33841 -17.0603 1
      vertex -5.99886 -16.257 0
      vertex -5.99886 -16.257 1
    endloop
  endfacet
  facet normal 0.921094 -0.389341 0
    outer loop
      vertex -5.99886 -16.257 0
      vertex -6.33841 -17.0603 1
      vertex -6.33841 -17.0603 0
    endloop
  endfacet
  facet normal 0.879964 -0.47504 0
    outer loop
      vertex -5.99886 -16.257 1
      vertex -5.60645 -15.5301 0
      vertex -5.60645 -15.5301 1
    endloop
  endfacet
  facet normal 0.879964 -0.47504 0
    outer loop
      vertex -5.60645 -15.5301 0
      vertex -5.99886 -16.257 1
      vertex -5.99886 -16.257 0
    endloop
  endfacet
  facet normal 0.825142 -0.564925 0
    outer loop
      vertex -5.60645 -15.5301 1
      vertex -5.16116 -14.8797 0
      vertex -5.16116 -14.8797 1
    endloop
  endfacet
  facet normal 0.825142 -0.564925 0
    outer loop
      vertex -5.16116 -14.8797 0
      vertex -5.60645 -15.5301 1
      vertex -5.60645 -15.5301 0
    endloop
  endfacet
  facet normal 0.755207 -0.655486 0
    outer loop
      vertex -5.16116 -14.8797 1
      vertex -4.66304 -14.3058 0
      vertex -4.66304 -14.3058 1
    endloop
  endfacet
  facet normal 0.755207 -0.655486 0
    outer loop
      vertex -4.66304 -14.3058 0
      vertex -5.16116 -14.8797 1
      vertex -5.16116 -14.8797 0
    endloop
  endfacet
  facet normal 0.66535 -0.746532 0
    outer loop
      vertex -4.66304 -14.3058 0
      vertex -4.10495 -13.8084 1
      vertex -4.66304 -14.3058 1
    endloop
  endfacet
  facet normal 0.66535 -0.746532 0
    outer loop
      vertex -4.10495 -13.8084 1
      vertex -4.66304 -14.3058 0
      vertex -4.10495 -13.8084 0
    endloop
  endfacet
  facet normal 0.558406 -0.829568 0
    outer loop
      vertex -4.10495 -13.8084 0
      vertex -3.47981 -13.3876 1
      vertex -4.10495 -13.8084 1
    endloop
  endfacet
  facet normal 0.558406 -0.829568 0
    outer loop
      vertex -3.47981 -13.3876 1
      vertex -4.10495 -13.8084 0
      vertex -3.47981 -13.3876 0
    endloop
  endfacet
  facet normal 0.445454 -0.895305 0
    outer loop
      vertex -3.47981 -13.3876 0
      vertex -2.78761 -13.0432 1
      vertex -3.47981 -13.3876 1
    endloop
  endfacet
  facet normal 0.445454 -0.895305 0
    outer loop
      vertex -2.78761 -13.0432 1
      vertex -3.47981 -13.3876 0
      vertex -2.78761 -13.0432 0
    endloop
  endfacet
  facet normal 0.332639 -0.943054 0
    outer loop
      vertex -2.78761 -13.0432 0
      vertex -2.02838 -12.7754 1
      vertex -2.78761 -13.0432 1
    endloop
  endfacet
  facet normal 0.332639 -0.943054 0
    outer loop
      vertex -2.02838 -12.7754 1
      vertex -2.78761 -13.0432 0
      vertex -2.02838 -12.7754 0
    endloop
  endfacet
  facet normal 0.225551 -0.974231 0
    outer loop
      vertex -2.02838 -12.7754 0
      vertex -1.20209 -12.5841 1
      vertex -2.02838 -12.7754 1
    endloop
  endfacet
  facet normal 0.225551 -0.974231 0
    outer loop
      vertex -1.20209 -12.5841 1
      vertex -2.02838 -12.7754 0
      vertex -1.20209 -12.5841 0
    endloop
  endfacet
  facet normal 0.127458 -0.991844 0
    outer loop
      vertex -1.20209 -12.5841 0
      vertex -0.308746 -12.4693 1
      vertex -1.20209 -12.5841 1
    endloop
  endfacet
  facet normal 0.127458 -0.991844 0
    outer loop
      vertex -0.308746 -12.4693 1
      vertex -1.20209 -12.5841 0
      vertex -0.308746 -12.4693 0
    endloop
  endfacet
  facet normal 0.0397448 -0.99921 0
    outer loop
      vertex -0.308746 -12.4693 0
      vertex 0.651627 -12.4311 1
      vertex -0.308746 -12.4693 1
    endloop
  endfacet
  facet normal 0.0397448 -0.99921 0
    outer loop
      vertex 0.651627 -12.4311 1
      vertex -0.308746 -12.4693 0
      vertex 0.651627 -12.4311 0
    endloop
  endfacet
  facet normal -0.0332712 -0.999446 0
    outer loop
      vertex 0.651627 -12.4311 0
      vertex 1.6219 -12.4634 1
      vertex 0.651627 -12.4311 1
    endloop
  endfacet
  facet normal -0.0332712 -0.999446 -0
    outer loop
      vertex 1.6219 -12.4634 1
      vertex 0.651627 -12.4311 0
      vertex 1.6219 -12.4634 0
    endloop
  endfacet
  facet normal -0.107055 -0.994253 0
    outer loop
      vertex 1.6219 -12.4634 0
      vertex 2.52277 -12.5604 1
      vertex 1.6219 -12.4634 1
    endloop
  endfacet
  facet normal -0.107055 -0.994253 -0
    outer loop
      vertex 2.52277 -12.5604 1
      vertex 1.6219 -12.4634 0
      vertex 2.52277 -12.5604 0
    endloop
  endfacet
  facet normal -0.190907 -0.981608 0
    outer loop
      vertex 2.52277 -12.5604 0
      vertex 3.3542 -12.7221 1
      vertex 2.52277 -12.5604 1
    endloop
  endfacet
  facet normal -0.190907 -0.981608 -0
    outer loop
      vertex 3.3542 -12.7221 1
      vertex 2.52277 -12.5604 0
      vertex 3.3542 -12.7221 0
    endloop
  endfacet
  facet normal -0.284804 -0.958586 0
    outer loop
      vertex 3.3542 -12.7221 0
      vertex 4.11621 -12.9485 1
      vertex 3.3542 -12.7221 1
    endloop
  endfacet
  facet normal -0.284804 -0.958586 -0
    outer loop
      vertex 4.11621 -12.9485 1
      vertex 3.3542 -12.7221 0
      vertex 4.11621 -12.9485 0
    endloop
  endfacet
  facet normal -0.387364 -0.921927 0
    outer loop
      vertex 4.11621 -12.9485 0
      vertex 4.80879 -13.2395 1
      vertex 4.11621 -12.9485 1
    endloop
  endfacet
  facet normal -0.387364 -0.921927 -0
    outer loop
      vertex 4.80879 -13.2395 1
      vertex 4.11621 -12.9485 0
      vertex 4.80879 -13.2395 0
    endloop
  endfacet
  facet normal -0.495833 -0.868418 0
    outer loop
      vertex 4.80879 -13.2395 0
      vertex 5.43195 -13.5953 1
      vertex 4.80879 -13.2395 1
    endloop
  endfacet
  facet normal -0.495833 -0.868418 -0
    outer loop
      vertex 5.43195 -13.5953 1
      vertex 4.80879 -13.2395 0
      vertex 5.43195 -13.5953 0
    endloop
  endfacet
  facet normal -0.60468 -0.796469 0
    outer loop
      vertex 5.43195 -13.5953 0
      vertex 5.98569 -14.0157 1
      vertex 5.43195 -13.5953 1
    endloop
  endfacet
  facet normal -0.60468 -0.796469 -0
    outer loop
      vertex 5.98569 -14.0157 1
      vertex 5.43195 -13.5953 0
      vertex 5.98569 -14.0157 0
    endloop
  endfacet
  facet normal -0.703486 -0.710709 0
    outer loop
      vertex 5.98569 -14.0157 0
      vertex 6.46779 -14.4929 1
      vertex 5.98569 -14.0157 1
    endloop
  endfacet
  facet normal -0.703486 -0.710709 -0
    outer loop
      vertex 6.46779 -14.4929 1
      vertex 5.98569 -14.0157 0
      vertex 6.46779 -14.4929 0
    endloop
  endfacet
  facet normal -0.79026 -0.612771 0
    outer loop
      vertex 6.87573 -15.019 0
      vertex 6.46779 -14.4929 1
      vertex 6.46779 -14.4929 0
    endloop
  endfacet
  facet normal -0.79026 -0.612771 0
    outer loop
      vertex 6.46779 -14.4929 1
      vertex 6.87573 -15.019 0
      vertex 6.87573 -15.019 1
    endloop
  endfacet
  facet normal -0.864899 -0.501945 0
    outer loop
      vertex 7.20949 -15.5941 0
      vertex 6.87573 -15.019 1
      vertex 6.87573 -15.019 0
    endloop
  endfacet
  facet normal -0.864899 -0.501945 0
    outer loop
      vertex 6.87573 -15.019 1
      vertex 7.20949 -15.5941 0
      vertex 7.20949 -15.5941 1
    endloop
  endfacet
  facet normal -0.923287 -0.384111 0
    outer loop
      vertex 7.46909 -16.2181 0
      vertex 7.20949 -15.5941 1
      vertex 7.20949 -15.5941 0
    endloop
  endfacet
  facet normal -0.923287 -0.384111 0
    outer loop
      vertex 7.20949 -15.5941 1
      vertex 7.46909 -16.2181 0
      vertex 7.46909 -16.2181 1
    endloop
  endfacet
  facet normal -0.964069 -0.265653 0
    outer loop
      vertex 7.65451 -16.891 0
      vertex 7.46909 -16.2181 1
      vertex 7.46909 -16.2181 0
    endloop
  endfacet
  facet normal -0.964069 -0.265653 0
    outer loop
      vertex 7.46909 -16.2181 1
      vertex 7.65451 -16.891 0
      vertex 7.65451 -16.891 1
    endloop
  endfacet
  facet normal -0.98833 -0.15233 0
    outer loop
      vertex 7.76576 -17.6128 0
      vertex 7.65451 -16.891 1
      vertex 7.65451 -16.891 0
    endloop
  endfacet
  facet normal -0.98833 -0.15233 0
    outer loop
      vertex 7.65451 -16.891 1
      vertex 7.76576 -17.6128 0
      vertex 7.76576 -17.6128 1
    endloop
  endfacet
  facet normal -0.998844 -0.0480762 0
    outer loop
      vertex 7.80286 -18.3836 0
      vertex 7.76576 -17.6128 1
      vertex 7.76576 -17.6128 0
    endloop
  endfacet
  facet normal -0.998844 -0.0480762 0
    outer loop
      vertex 7.76576 -17.6128 1
      vertex 7.80286 -18.3836 0
      vertex 7.80286 -18.3836 1
    endloop
  endfacet
  facet normal -0.999196 0.0400888 0
    outer loop
      vertex 7.7843 -18.8462 0
      vertex 7.80286 -18.3836 1
      vertex 7.80286 -18.3836 0
    endloop
  endfacet
  facet normal -0.999196 0.0400888 0
    outer loop
      vertex 7.80286 -18.3836 1
      vertex 7.7843 -18.8462 0
      vertex 7.7843 -18.8462 1
    endloop
  endfacet
  facet normal -0.992779 0.119962 0
    outer loop
      vertex 7.72868 -19.3065 0
      vertex 7.7843 -18.8462 1
      vertex 7.7843 -18.8462 0
    endloop
  endfacet
  facet normal -0.992779 0.119962 0
    outer loop
      vertex 7.7843 -18.8462 1
      vertex 7.72868 -19.3065 0
      vertex 7.72868 -19.3065 1
    endloop
  endfacet
  facet normal -0.980121 0.1984 0
    outer loop
      vertex 7.63597 -19.7645 0
      vertex 7.72868 -19.3065 1
      vertex 7.72868 -19.3065 0
    endloop
  endfacet
  facet normal -0.980121 0.1984 0
    outer loop
      vertex 7.72868 -19.3065 1
      vertex 7.63597 -19.7645 0
      vertex 7.63597 -19.7645 1
    endloop
  endfacet
  facet normal -0.961725 0.274016 0
    outer loop
      vertex 7.50616 -20.2201 0
      vertex 7.63597 -19.7645 1
      vertex 7.63597 -19.7645 0
    endloop
  endfacet
  facet normal -0.961725 0.274016 0
    outer loop
      vertex 7.63597 -19.7645 1
      vertex 7.50616 -20.2201 0
      vertex 7.50616 -20.2201 1
    endloop
  endfacet
  facet normal -0.938409 0.345526 0
    outer loop
      vertex 7.33929 -20.6733 0
      vertex 7.50616 -20.2201 1
      vertex 7.50616 -20.2201 0
    endloop
  endfacet
  facet normal -0.938409 0.345526 0
    outer loop
      vertex 7.50616 -20.2201 1
      vertex 7.33929 -20.6733 0
      vertex 7.33929 -20.6733 1
    endloop
  endfacet
  facet normal -0.911107 0.41217 0
    outer loop
      vertex 7.13531 -21.1242 0
      vertex 7.33929 -20.6733 1
      vertex 7.33929 -20.6733 0
    endloop
  endfacet
  facet normal -0.911107 0.41217 0
    outer loop
      vertex 7.33929 -20.6733 1
      vertex 7.13531 -21.1242 0
      vertex 7.13531 -21.1242 1
    endloop
  endfacet
  facet normal -0.880848 0.473399 0
    outer loop
      vertex 6.89427 -21.5727 0
      vertex 7.13531 -21.1242 1
      vertex 7.13531 -21.1242 0
    endloop
  endfacet
  facet normal -0.880848 0.473399 0
    outer loop
      vertex 7.13531 -21.1242 1
      vertex 6.89427 -21.5727 0
      vertex 6.89427 -21.5727 1
    endloop
  endfacet
  facet normal -0.854229 0.519897 0
    outer loop
      vertex 6.62088 -22.0219 0
      vertex 6.89427 -21.5727 1
      vertex 6.89427 -21.5727 0
    endloop
  endfacet
  facet normal -0.854229 0.519897 0
    outer loop
      vertex 6.89427 -21.5727 1
      vertex 6.62088 -22.0219 0
      vertex 6.62088 -22.0219 1
    endloop
  endfacet
  facet normal -0.833027 0.553232 0
    outer loop
      vertex 6.3199 -22.4751 0
      vertex 6.62088 -22.0219 1
      vertex 6.62088 -22.0219 0
    endloop
  endfacet
  facet normal -0.833027 0.553232 0
    outer loop
      vertex 6.62088 -22.0219 1
      vertex 6.3199 -22.4751 0
      vertex 6.3199 -22.4751 1
    endloop
  endfacet
  facet normal -0.811982 0.583682 0
    outer loop
      vertex 5.99132 -22.9322 0
      vertex 6.3199 -22.4751 1
      vertex 6.3199 -22.4751 0
    endloop
  endfacet
  facet normal -0.811982 0.583682 0
    outer loop
      vertex 6.3199 -22.4751 1
      vertex 5.99132 -22.9322 0
      vertex 5.99132 -22.9322 1
    endloop
  endfacet
  facet normal -0.791333 0.611386 0
    outer loop
      vertex 5.63515 -23.3932 0
      vertex 5.99132 -22.9322 1
      vertex 5.99132 -22.9322 0
    endloop
  endfacet
  facet normal -0.791333 0.611386 0
    outer loop
      vertex 5.99132 -22.9322 1
      vertex 5.63515 -23.3932 0
      vertex 5.63515 -23.3932 1
    endloop
  endfacet
  facet normal -0.771263 0.636516 0
    outer loop
      vertex 5.25139 -23.8582 0
      vertex 5.63515 -23.3932 1
      vertex 5.63515 -23.3932 0
    endloop
  endfacet
  facet normal -0.771263 0.636516 0
    outer loop
      vertex 5.63515 -23.3932 1
      vertex 5.25139 -23.8582 0
      vertex 5.25139 -23.8582 1
    endloop
  endfacet
  facet normal -0.751802 0.659389 0
    outer loop
      vertex 4.84004 -24.3272 0
      vertex 5.25139 -23.8582 1
      vertex 5.25139 -23.8582 0
    endloop
  endfacet
  facet normal -0.751802 0.659389 0
    outer loop
      vertex 5.25139 -23.8582 1
      vertex 4.84004 -24.3272 0
      vertex 4.84004 -24.3272 1
    endloop
  endfacet
  facet normal -0.732926 0.680308 0
    outer loop
      vertex 4.40109 -24.8001 0
      vertex 4.84004 -24.3272 1
      vertex 4.84004 -24.3272 0
    endloop
  endfacet
  facet normal -0.732926 0.680308 0
    outer loop
      vertex 4.84004 -24.3272 1
      vertex 4.40109 -24.8001 0
      vertex 4.40109 -24.8001 1
    endloop
  endfacet
  facet normal -0.707667 0.706546 0
    outer loop
      vertex 3.87183 -25.3302 0
      vertex 4.40109 -24.8001 1
      vertex 4.40109 -24.8001 0
    endloop
  endfacet
  facet normal -0.707667 0.706546 0
    outer loop
      vertex 4.40109 -24.8001 1
      vertex 3.87183 -25.3302 0
      vertex 3.87183 -25.3302 1
    endloop
  endfacet
  facet normal -0.684421 0.729087 0
    outer loop
      vertex 3.87183 -25.3302 0
      vertex 3.18953 -25.9707 1
      vertex 3.87183 -25.3302 1
    endloop
  endfacet
  facet normal -0.684421 0.729087 0
    outer loop
      vertex 3.18953 -25.9707 1
      vertex 3.87183 -25.3302 0
      vertex 3.18953 -25.9707 0
    endloop
  endfacet
  facet normal -0.668568 0.743651 0
    outer loop
      vertex 3.18953 -25.9707 0
      vertex 2.35419 -26.7217 1
      vertex 3.18953 -25.9707 1
    endloop
  endfacet
  facet normal -0.668568 0.743651 0
    outer loop
      vertex 2.35419 -26.7217 1
      vertex 3.18953 -25.9707 0
      vertex 2.35419 -26.7217 0
    endloop
  endfacet
  facet normal -0.65706 0.753838 0
    outer loop
      vertex 2.35419 -26.7217 0
      vertex 1.3658 -27.5832 1
      vertex 2.35419 -26.7217 1
    endloop
  endfacet
  facet normal -0.65706 0.753838 0
    outer loop
      vertex 1.3658 -27.5832 1
      vertex 2.35419 -26.7217 0
      vertex 1.3658 -27.5832 0
    endloop
  endfacet
  facet normal -0.648265 0.761415 0
    outer loop
      vertex 1.3658 -27.5832 0
      vertex 0.22438 -28.555 1
      vertex 1.3658 -27.5832 1
    endloop
  endfacet
  facet normal -0.648265 0.761415 0
    outer loop
      vertex 0.22438 -28.555 1
      vertex 1.3658 -27.5832 0
      vertex 0.22438 -28.555 0
    endloop
  endfacet
  facet normal -0.641481 0.767139 0
    outer loop
      vertex 0.22438 -28.555 0
      vertex -1.07005 -29.6374 1
      vertex 0.22438 -28.555 1
    endloop
  endfacet
  facet normal -0.641481 0.767139 0
    outer loop
      vertex -1.07005 -29.6374 1
      vertex 0.22438 -28.555 0
      vertex -1.07005 -29.6374 0
    endloop
  endfacet
  facet normal -0.635908 0.771765 0
    outer loop
      vertex -1.07005 -29.6374 0
      vertex -2.51756 -30.8301 1
      vertex -1.07005 -29.6374 1
    endloop
  endfacet
  facet normal -0.635908 0.771765 0
    outer loop
      vertex -2.51756 -30.8301 1
      vertex -1.07005 -29.6374 0
      vertex -2.51756 -30.8301 0
    endloop
  endfacet
  facet normal -0.637889 0.770129 0
    outer loop
      vertex -2.51756 -30.8301 0
      vertex -4.40567 -32.394 1
      vertex -2.51756 -30.8301 1
    endloop
  endfacet
  facet normal -0.637889 0.770129 0
    outer loop
      vertex -4.40567 -32.394 1
      vertex -2.51756 -30.8301 0
      vertex -4.40567 -32.394 0
    endloop
  endfacet
  facet normal -0.652502 0.757787 0
    outer loop
      vertex -4.40567 -32.394 0
      vertex -6.16048 -33.905 1
      vertex -4.40567 -32.394 1
    endloop
  endfacet
  facet normal -0.652502 0.757787 0
    outer loop
      vertex -6.16048 -33.905 1
      vertex -4.40567 -32.394 0
      vertex -6.16048 -33.905 0
    endloop
  endfacet
  facet normal -0.668648 0.743579 0
    outer loop
      vertex -6.16048 -33.905 0
      vertex -7.78198 -35.3631 1
      vertex -6.16048 -33.905 1
    endloop
  endfacet
  facet normal -0.668648 0.743579 0
    outer loop
      vertex -7.78198 -35.3631 1
      vertex -6.16048 -33.905 0
      vertex -7.78198 -35.3631 0
    endloop
  endfacet
  facet normal -0.686569 0.727065 0
    outer loop
      vertex -7.78198 -35.3631 0
      vertex -9.27017 -36.7684 1
      vertex -7.78198 -35.3631 1
    endloop
  endfacet
  facet normal -0.686569 0.727065 0
    outer loop
      vertex -9.27017 -36.7684 1
      vertex -7.78198 -35.3631 0
      vertex -9.27017 -36.7684 0
    endloop
  endfacet
  facet normal -0.706498 0.707715 0
    outer loop
      vertex -9.27017 -36.7684 0
      vertex -10.625 -38.1209 1
      vertex -9.27017 -36.7684 1
    endloop
  endfacet
  facet normal -0.706498 0.707715 0
    outer loop
      vertex -10.625 -38.1209 1
      vertex -9.27017 -36.7684 0
      vertex -10.625 -38.1209 0
    endloop
  endfacet
  facet normal -0.728634 0.684903 0
    outer loop
      vertex -11.8466 -39.4205 0
      vertex -10.625 -38.1209 1
      vertex -10.625 -38.1209 0
    endloop
  endfacet
  facet normal -0.728634 0.684903 0
    outer loop
      vertex -10.625 -38.1209 1
      vertex -11.8466 -39.4205 0
      vertex -11.8466 -39.4205 1
    endloop
  endfacet
  facet normal -0.753344 0.657627 0
    outer loop
      vertex -12.9349 -40.6672 0
      vertex -11.8466 -39.4205 1
      vertex -11.8466 -39.4205 0
    endloop
  endfacet
  facet normal -0.753344 0.657627 0
    outer loop
      vertex -11.8466 -39.4205 1
      vertex -12.9349 -40.6672 0
      vertex -12.9349 -40.6672 1
    endloop
  endfacet
  facet normal -0.777132 0.629337 0
    outer loop
      vertex -13.9228 -41.8871 0
      vertex -12.9349 -40.6672 1
      vertex -12.9349 -40.6672 0
    endloop
  endfacet
  facet normal -0.777132 0.629337 0
    outer loop
      vertex -12.9349 -40.6672 1
      vertex -13.9228 -41.8871 0
      vertex -13.9228 -41.8871 1
    endloop
  endfacet
  facet normal -0.79793 0.602751 0
    outer loop
      vertex -14.8437 -43.1062 0
      vertex -13.9228 -41.8871 1
      vertex -13.9228 -41.8871 0
    endloop
  endfacet
  facet normal -0.79793 0.602751 0
    outer loop
      vertex -13.9228 -41.8871 1
      vertex -14.8437 -43.1062 0
      vertex -14.8437 -43.1062 1
    endloop
  endfacet
  facet normal -0.81891 0.573922 0
    outer loop
      vertex -15.6976 -44.3246 0
      vertex -14.8437 -43.1062 1
      vertex -14.8437 -43.1062 0
    endloop
  endfacet
  facet normal -0.81891 0.573922 0
    outer loop
      vertex -14.8437 -43.1062 1
      vertex -15.6976 -44.3246 0
      vertex -15.6976 -44.3246 1
    endloop
  endfacet
  facet normal -0.839903 0.542736 0
    outer loop
      vertex -16.4844 -45.5422 0
      vertex -15.6976 -44.3246 1
      vertex -15.6976 -44.3246 0
    endloop
  endfacet
  facet normal -0.839903 0.542736 0
    outer loop
      vertex -15.6976 -44.3246 1
      vertex -16.4844 -45.5422 0
      vertex -16.4844 -45.5422 1
    endloop
  endfacet
  facet normal -0.860684 0.509139 0
    outer loop
      vertex -17.2042 -46.759 0
      vertex -16.4844 -45.5422 1
      vertex -16.4844 -45.5422 0
    endloop
  endfacet
  facet normal -0.860684 0.509139 0
    outer loop
      vertex -16.4844 -45.5422 1
      vertex -17.2042 -46.759 0
      vertex -17.2042 -46.759 1
    endloop
  endfacet
  facet normal -0.881082 0.472963 0
    outer loop
      vertex -17.857 -47.9751 0
      vertex -17.2042 -46.759 1
      vertex -17.2042 -46.759 0
    endloop
  endfacet
  facet normal -0.881082 0.472963 0
    outer loop
      vertex -17.2042 -46.759 1
      vertex -17.857 -47.9751 0
      vertex -17.857 -47.9751 1
    endloop
  endfacet
  facet normal -0.900812 0.43421 0
    outer loop
      vertex -18.4428 -49.1904 0
      vertex -17.857 -47.9751 1
      vertex -17.857 -47.9751 0
    endloop
  endfacet
  facet normal -0.900812 0.43421 0
    outer loop
      vertex -17.857 -47.9751 1
      vertex -18.4428 -49.1904 0
      vertex -18.4428 -49.1904 1
    endloop
  endfacet
  facet normal -1 0 0
    outer loop
      vertex -18.4428 -56.7275 0
      vertex -18.4428 -49.1904 1
      vertex -18.4428 -49.1904 0
    endloop
  endfacet
  facet normal -1 -0 0
    outer loop
      vertex -18.4428 -49.1904 1
      vertex -18.4428 -56.7275 0
      vertex -18.4428 -56.7275 1
    endloop
  endfacet
  facet normal 0 -1 0
    outer loop
      vertex -18.4428 -56.7275 0
      vertex 19.6691 -56.7275 1
      vertex -18.4428 -56.7275 1
    endloop
  endfacet
  facet normal 0 -1 -0
    outer loop
      vertex 19.6691 -56.7275 1
      vertex -18.4428 -56.7275 0
      vertex 19.6691 -56.7275 0
    endloop
  endfacet
  facet normal 1 -0 0
    outer loop
      vertex 19.6691 -56.7275 1
      vertex 19.6691 -47.7984 0
      vertex 19.6691 -47.7984 1
    endloop
  endfacet
  facet normal 1 0 0
    outer loop
      vertex 19.6691 -47.7984 0
      vertex 19.6691 -56.7275 1
      vertex 19.6691 -56.7275 0
    endloop
  endfacet
endsolid OpenSCAD_Model
