  0
SECTION
  2
BLOCKS
  0
ENDSEC
  0
SECTION
  2
ENTITIES
  0
LINE
  8
0
 10
5.35312
 20
-87.3567
 11
9.70572
 21
-86.9249
  0
LINE
  8
0
 10
9.70572
 20
-86.9249
 11
13.7572
 21
-86.2051
  0
LINE
  8
0
 10
13.7572
 20
-86.2051
 11
17.5075
 21
-85.1974
  0
LINE
  8
0
 10
17.5075
 20
-85.1974
 11
20.9567
 21
-83.9018
  0
LINE
  8
0
 10
20.9567
 20
-83.9018
 11
24.1048
 21
-82.3183
  0
LINE
  8
0
 10
24.1048
 20
-82.3183
 11
26.9517
 21
-80.4469
  0
LINE
  8
0
 10
26.9517
 20
-80.4469
 11
29.4557
 21
-78.3229
  0
LINE
  8
0
 10
29.4557
 20
-78.3229
 11
31.5745
 21
-75.9819
  0
LINE
  8
0
 10
31.5745
 20
-75.9819
 11
33.3081
 21
-73.424
  0
LINE
  8
0
 10
33.3081
 20
-73.424
 11
34.6564
 21
-70.6491
  0
LINE
  8
0
 10
34.6564
 20
-70.6491
 11
35.6195
 21
-67.6574
  0
LINE
  8
0
 10
35.6195
 20
-67.6574
 11
36.1973
 21
-64.4488
  0
LINE
  8
0
 10
36.1973
 20
-64.4488
 11
36.39
 21
-61.0232
  0
LINE
  8
0
 10
36.39
 20
-61.0232
 11
36.3281
 21
-59.1747
  0
LINE
  8
0
 10
36.3281
 20
-59.1747
 11
36.1427
 21
-57.384
  0
LINE
  8
0
 10
36.1427
 20
-57.384
 11
35.8337
 21
-55.6512
  0
LINE
  8
0
 10
35.8337
 20
-55.6512
 11
35.401
 21
-53.9762
  0
LINE
  8
0
 10
35.401
 20
-53.9762
 11
34.8448
 21
-52.3591
  0
LINE
  8
0
 10
34.8448
 20
-52.3591
 11
34.1649
 21
-50.7998
  0
LINE
  8
0
 10
34.1649
 20
-50.7998
 11
33.3614
 21
-49.2983
  0
LINE
  8
0
 10
33.3614
 20
-49.2983
 11
32.4253
 21
-47.8568
  0
LINE
  8
0
 10
32.4253
 20
-47.8568
 11
31.3473
 21
-46.477
  0
LINE
  8
0
 10
31.3473
 20
-46.477
 11
30.1272
 21
-45.159
  0
LINE
  8
0
 10
30.1272
 20
-45.159
 11
28.7652
 21
-43.9028
  0
LINE
  8
0
 10
28.7652
 20
-43.9028
 11
27.2612
 21
-42.7085
  0
LINE
  8
0
 10
27.2612
 20
-42.7085
 11
25.6152
 21
-41.5759
  0
LINE
  8
0
 10
25.6152
 20
-41.5759
 11
23.8271
 21
-40.5051
  0
LINE
  8
0
 10
23.8271
 20
-40.5051
 11
21.8537
 21
-39.4791
  0
LINE
  8
0
 10
21.8537
 20
-39.4791
 11
19.6516
 21
-38.4806
  0
LINE
  8
0
 10
19.6516
 20
-38.4806
 11
17.2206
 21
-37.5097
  0
LINE
  8
0
 10
17.2206
 20
-37.5097
 11
14.5609
 21
-36.5663
  0
LINE
  8
0
 10
14.5609
 20
-36.5663
 11
11.6724
 21
-35.6505
  0
LINE
  8
0
 10
11.6724
 20
-35.6505
 11
8.55511
 21
-34.7623
  0
LINE
  8
0
 10
8.55511
 20
-34.7623
 11
5.20906
 21
-33.9017
  0
LINE
  8
0
 10
5.20906
 20
-33.9017
 11
2.70389
 21
-33.2398
  0
LINE
  8
0
 10
2.70389
 20
-33.2398
 11
0.452469
 21
-32.616
  0
LINE
  8
0
 10
0.452469
 20
-32.616
 11
-1.5452
 21
-32.0303
  0
LINE
  8
0
 10
-1.5452
 20
-32.0303
 11
-3.28912
 21
-31.4829
  0
LINE
  8
0
 10
-3.28912
 20
-31.4829
 11
-4.77931
 21
-30.9736
  0
LINE
  8
0
 10
-4.77931
 20
-30.9736
 11
-6.01575
 21
-30.5024
  0
LINE
  8
0
 10
-6.01575
 20
-30.5024
 11
-6.99843
 21
-30.0694
  0
LINE
  8
0
 10
-6.99843
 20
-30.0694
 11
-7.82861
 21
-29.642
  0
LINE
  8
0
 10
-7.82861
 20
-29.642
 11
-8.60754
 21
-29.1884
  0
LINE
  8
0
 10
-8.60754
 20
-29.1884
 11
-9.33521
 21
-28.7085
  0
LINE
  8
0
 10
-9.33521
 20
-28.7085
 11
-10.0116
 21
-28.2023
  0
LINE
  8
0
 10
-10.0116
 20
-28.2023
 11
-10.6367
 21
-27.6698
  0
LINE
  8
0
 10
-10.6367
 20
-27.6698
 11
-11.2106
 21
-27.111
  0
LINE
  8
0
 10
-11.2106
 20
-27.111
 11
-11.7332
 21
-26.5259
  0
LINE
  8
0
 10
-11.7332
 20
-26.5259
 11
-12.1947
 21
-25.906
  0
LINE
  8
0
 10
-12.1947
 20
-25.906
 11
-12.5852
 21
-25.2427
  0
LINE
  8
0
 10
-12.5852
 20
-25.2427
 11
-12.9047
 21
-24.5359
  0
LINE
  8
0
 10
-12.9047
 20
-24.5359
 11
-13.1532
 21
-23.7859
  0
LINE
  8
0
 10
-13.1532
 20
-23.7859
 11
-13.3307
 21
-22.9924
  0
LINE
  8
0
 10
-13.3307
 20
-22.9924
 11
-13.4372
 21
-22.1555
  0
LINE
  8
0
 10
-13.4372
 20
-22.1555
 11
-13.4727
 21
-21.2752
  0
LINE
  8
0
 10
-13.4727
 20
-21.2752
 11
-13.3991
 21
-19.9586
  0
LINE
  8
0
 10
-13.3991
 20
-19.9586
 11
-13.1782
 21
-18.7327
  0
LINE
  8
0
 10
-13.1782
 20
-18.7327
 11
-12.8102
 21
-17.5975
  0
LINE
  8
0
 10
-12.8102
 20
-17.5975
 11
-12.2948
 21
-16.553
  0
LINE
  8
0
 10
-12.2948
 20
-16.553
 11
-11.6323
 21
-15.5993
  0
LINE
  8
0
 10
-11.6323
 20
-15.5993
 11
-10.8225
 21
-14.7363
  0
LINE
  8
0
 10
-10.8225
 20
-14.7363
 11
-9.86552
 21
-13.964
  0
LINE
  8
0
 10
-9.86552
 20
-13.964
 11
-8.76892
 21
-13.2888
  0
LINE
  8
0
 10
-8.76892
 20
-13.2888
 11
-7.54086
 21
-12.7175
  0
LINE
  8
0
 10
-7.54086
 20
-12.7175
 11
-6.18135
 21
-12.25
  0
LINE
  8
0
 10
-6.18135
 20
-12.25
 11
-4.6904
 21
-11.8864
  0
LINE
  8
0
 10
-4.6904
 20
-11.8864
 11
-3.06799
 21
-11.6268
  0
LINE
  8
0
 10
-3.06799
 20
-11.6268
 11
-1.31413
 21
-11.4709
  0
LINE
  8
0
 10
-1.31413
 20
-11.4709
 11
0.571152
 21
-11.419
  0
LINE
  8
0
 10
0.571152
 20
-11.419
 11
3.85916
 21
-11.6596
  0
LINE
  8
0
 10
3.85916
 20
-11.6596
 11
6.76593
 21
-12.3813
  0
LINE
  8
0
 10
6.76593
 20
-12.3813
 11
9.29146
 21
-13.5842
  0
LINE
  8
0
 10
9.29146
 20
-13.5842
 11
11.4357
 21
-15.2683
  0
LINE
  8
0
 10
11.4357
 20
-15.2683
 11
13.1988
 21
-17.4336
  0
LINE
  8
0
 10
13.1988
 20
-17.4336
 11
14.5806
 21
-20.08
  0
LINE
  8
0
 10
14.5806
 20
-20.08
 11
15.5812
 21
-23.2075
  0
LINE
  8
0
 10
15.5812
 20
-23.2075
 11
34.0064
 21
-21.3398
  0
LINE
  8
0
 10
34.0064
 20
-21.3398
 11
33.2081
 21
-18.0445
  0
LINE
  8
0
 10
33.2081
 20
-18.0445
 11
32.1759
 21
-15.0056
  0
LINE
  8
0
 10
32.1759
 20
-15.0056
 11
30.9097
 21
-12.223
  0
LINE
  8
0
 10
30.9097
 20
-12.223
 11
29.4095
 21
-9.69679
  0
LINE
  8
0
 10
29.4095
 20
-9.69679
 11
27.6753
 21
-7.427
  0
LINE
  8
0
 10
27.6753
 20
-7.427
 11
25.7072
 21
-5.41357
  0
LINE
  8
0
 10
25.7072
 20
-5.41357
 11
23.5051
 21
-3.65654
  0
LINE
  8
0
 10
23.5051
 20
-3.65654
 11
21.0572
 21
-2.1438
  0
LINE
  8
0
 10
21.0572
 20
-2.1438
 11
18.3515
 21
-0.86377
  0
LINE
  8
0
 10
18.3515
 20
-0.86377
 11
15.3882
 21
0.183502
  0
LINE
  8
0
 10
15.3882
 20
0.183502
 11
12.1671
 21
0.998062
  0
LINE
  8
0
 10
12.1671
 20
0.998062
 11
8.6884
 21
1.57988
  0
LINE
  8
0
 10
8.6884
 20
1.57988
 11
4.95195
 21
1.92897
  0
LINE
  8
0
 10
4.95195
 20
1.92897
 11
0.957809
 21
2.04535
  0
LINE
  8
0
 10
0.957809
 20
2.04535
 11
-3.15799
 21
1.91124
  0
LINE
  8
0
 10
-3.15799
 20
1.91124
 11
-7.03847
 21
1.50893
  0
LINE
  8
0
 10
-7.03847
 20
1.50893
 11
-10.6836
 21
0.838394
  0
LINE
  8
0
 10
-10.6836
 20
0.838394
 11
-14.0934
 21
-0.100327
  0
LINE
  8
0
 10
-14.0934
 20
-0.100327
 11
-17.2679
 21
-1.30727
  0
LINE
  8
0
 10
-17.2679
 20
-1.30727
 11
-20.2071
 21
-2.78242
  0
LINE
  8
0
 10
-20.2071
 20
-2.78242
 11
-22.9109
 21
-4.52579
  0
LINE
  8
0
 10
-22.9109
 20
-4.52579
 11
-25.3121
 21
-6.49924
  0
LINE
  8
0
 10
-25.3121
 20
-6.49924
 11
-27.3439
 21
-8.66461
  0
LINE
  8
0
 10
-27.3439
 20
-8.66461
 11
-29.0063
 21
-11.0219
  0
LINE
  8
0
 10
-29.0063
 20
-11.0219
 11
-30.2992
 21
-13.5712
  0
LINE
  8
0
 10
-30.2992
 20
-13.5712
 11
-31.2227
 21
-16.3124
  0
LINE
  8
0
 10
-31.2227
 20
-16.3124
 11
-31.7769
 21
-19.2455
  0
LINE
  8
0
 10
-31.7769
 20
-19.2455
 11
-31.9616
 21
-22.3706
  0
LINE
  8
0
 10
-31.9616
 20
-22.3706
 11
-31.9241
 21
-23.8227
  0
LINE
  8
0
 10
-31.9241
 20
-23.8227
 11
-31.8118
 21
-25.2341
  0
LINE
  8
0
 10
-31.8118
 20
-25.2341
 11
-31.6245
 21
-26.6047
  0
LINE
  8
0
 10
-31.6245
 20
-26.6047
 11
-31.3623
 21
-27.9346
  0
LINE
  8
0
 10
-31.3623
 20
-27.9346
 11
-31.0251
 21
-29.2237
  0
LINE
  8
0
 10
-31.0251
 20
-29.2237
 11
-30.6131
 21
-30.472
  0
LINE
  8
0
 10
-30.6131
 20
-30.472
 11
-30.1262
 21
-31.6796
  0
LINE
  8
0
 10
-30.1262
 20
-31.6796
 11
-29.5693
 21
-32.8452
  0
LINE
  8
0
 10
-29.5693
 20
-32.8452
 11
-28.948
 21
-33.9673
  0
LINE
  8
0
 10
-28.948
 20
-33.9673
 11
-28.2623
 21
-35.0461
  0
LINE
  8
0
 10
-28.2623
 20
-35.0461
 11
-27.5123
 21
-36.0814
  0
LINE
  8
0
 10
-27.5123
 20
-36.0814
 11
-26.6978
 21
-37.0734
  0
LINE
  8
0
 10
-26.6978
 20
-37.0734
 11
-25.8188
 21
-38.022
  0
LINE
  8
0
 10
-25.8188
 20
-38.022
 11
-24.8755
 21
-38.9272
  0
LINE
  8
0
 10
-24.8755
 20
-38.9272
 11
-23.8533
 21
-39.7982
  0
LINE
  8
0
 10
-23.8533
 20
-39.7982
 11
-22.7378
 21
-40.6443
  0
LINE
  8
0
 10
-22.7378
 20
-40.6443
 11
-21.529
 21
-41.4653
  0
LINE
  8
0
 10
-21.529
 20
-41.4653
 11
-20.2268
 21
-42.2614
  0
LINE
  8
0
 10
-20.2268
 20
-42.2614
 11
-18.8313
 21
-43.0325
  0
LINE
  8
0
 10
-18.8313
 20
-43.0325
 11
-17.3425
 21
-43.7787
  0
LINE
  8
0
 10
-17.3425
 20
-43.7787
 11
-15.7603
 21
-44.4999
  0
LINE
  8
0
 10
-15.7603
 20
-44.4999
 11
-13.9649
 21
-45.2261
  0
LINE
  8
0
 10
-13.9649
 20
-45.2261
 11
-11.8369
 21
-45.9878
  0
LINE
  8
0
 10
-11.8369
 20
-45.9878
 11
-9.37634
 21
-46.785
  0
LINE
  8
0
 10
-9.37634
 20
-46.785
 11
-6.58321
 21
-47.6178
  0
LINE
  8
0
 10
-6.58321
 20
-47.6178
 11
-3.45749
 21
-48.486
  0
LINE
  8
0
 10
-3.45749
 20
-48.486
 11
0.000778198
 21
-49.3898
  0
LINE
  8
0
 10
0.000778198
 20
-49.3898
 11
3.79166
 21
-50.3291
  0
LINE
  8
0
 10
3.79166
 20
-50.3291
 11
5.69408
 21
-50.8335
  0
LINE
  8
0
 10
5.69408
 20
-50.8335
 11
7.46237
 21
-51.3891
  0
LINE
  8
0
 10
7.46237
 20
-51.3891
 11
9.09656
 21
-51.996
  0
LINE
  8
0
 10
9.09656
 20
-51.996
 11
10.5966
 21
-52.6541
  0
LINE
  8
0
 10
10.5966
 20
-52.6541
 11
11.9625
 21
-53.3634
  0
LINE
  8
0
 10
11.9625
 20
-53.3634
 11
13.1943
 21
-54.1239
  0
LINE
  8
0
 10
13.1943
 20
-54.1239
 11
14.292
 21
-54.9356
  0
LINE
  8
0
 10
14.292
 20
-54.9356
 11
15.2493
 21
-55.8
  0
LINE
  8
0
 10
15.2493
 20
-55.8
 11
16.0592
 21
-56.7182
  0
LINE
  8
0
 10
16.0592
 20
-56.7182
 11
16.722
 21
-57.6904
  0
LINE
  8
0
 10
16.722
 20
-57.6904
 11
17.2374
 21
-58.7166
  0
LINE
  8
0
 10
17.2374
 20
-58.7166
 11
17.6056
 21
-59.7966
  0
LINE
  8
0
 10
17.6056
 20
-59.7966
 11
17.8265
 21
-60.9306
  0
LINE
  8
0
 10
17.8265
 20
-60.9306
 11
17.9001
 21
-62.1186
  0
LINE
  8
0
 10
17.9001
 20
-62.1186
 11
17.8166
 21
-63.6949
  0
LINE
  8
0
 10
17.8166
 20
-63.6949
 11
17.5662
 21
-65.1477
  0
LINE
  8
0
 10
17.5662
 20
-65.1477
 11
17.1488
 21
-66.4769
  0
LINE
  8
0
 10
17.1488
 20
-66.4769
 11
16.5644
 21
-67.6826
  0
LINE
  8
0
 10
16.5644
 20
-67.6826
 11
15.813
 21
-68.7647
  0
LINE
  8
0
 10
15.813
 20
-68.7647
 11
14.8947
 21
-69.7233
  0
LINE
  8
0
 10
14.8947
 20
-69.7233
 11
13.8094
 21
-70.5584
  0
LINE
  8
0
 10
13.8094
 20
-70.5584
 11
12.5506
 21
-71.2762
  0
LINE
  8
0
 10
12.5506
 20
-71.2762
 11
11.1116
 21
-71.8836
  0
LINE
  8
0
 10
11.1116
 20
-71.8836
 11
9.49258
 21
-72.3805
  0
LINE
  8
0
 10
9.49258
 20
-72.3805
 11
7.69342
 21
-72.767
  0
LINE
  8
0
 10
7.69342
 20
-72.767
 11
5.71414
 21
-73.0431
  0
LINE
  8
0
 10
5.71414
 20
-73.0431
 11
3.55475
 21
-73.2088
  0
LINE
  8
0
 10
3.55475
 20
-73.2088
 11
1.21526
 21
-73.264
  0
LINE
  8
0
 10
1.21526
 20
-73.264
 11
-1.0513
 21
-73.1923
  0
LINE
  8
0
 10
-1.0513
 20
-73.1923
 11
-3.1759
 21
-72.9774
  0
LINE
  8
0
 10
-3.1759
 20
-72.9774
 11
-5.15855
 21
-72.6191
  0
LINE
  8
0
 10
-5.15855
 20
-72.6191
 11
-6.99925
 21
-72.1175
  0
LINE
  8
0
 10
-6.99925
 20
-72.1175
 11
-8.69798
 21
-71.4726
  0
LINE
  8
0
 10
-8.69798
 20
-71.4726
 11
-10.2548
 21
-70.6843
  0
LINE
  8
0
 10
-10.2548
 20
-70.6843
 11
-11.6696
 21
-69.7528
  0
LINE
  8
0
 10
-11.6696
 20
-69.7528
 11
-12.9474
 21
-68.6977
  0
LINE
  8
0
 10
-12.9474
 20
-68.6977
 11
-14.0938
 21
-67.5387
  0
LINE
  8
0
 10
-14.0938
 20
-67.5387
 11
-15.1088
 21
-66.2759
  0
LINE
  8
0
 10
-15.1088
 20
-66.2759
 11
-15.9923
 21
-64.9093
  0
LINE
  8
0
 10
-15.9923
 20
-64.9093
 11
-16.7443
 21
-63.4388
  0
LINE
  8
0
 10
-16.7443
 20
-63.4388
 11
-17.3649
 21
-61.8645
  0
LINE
  8
0
 10
-17.3649
 20
-61.8645
 11
-17.8541
 21
-60.1863
  0
LINE
  8
0
 10
-17.8541
 20
-60.1863
 11
-36.2138
 21
-62.5698
  0
LINE
  8
0
 10
-36.2138
 20
-62.5698
 11
-35.3014
 21
-65.9302
  0
LINE
  8
0
 10
-35.3014
 20
-65.9302
 11
-34.1103
 21
-69.0539
  0
LINE
  8
0
 10
-34.1103
 20
-69.0539
 11
-32.6405
 21
-71.941
  0
LINE
  8
0
 10
-32.6405
 20
-71.941
 11
-30.8919
 21
-74.5915
  0
LINE
  8
0
 10
-30.8919
 20
-74.5915
 11
-28.8647
 21
-77.0054
  0
LINE
  8
0
 10
-28.8647
 20
-77.0054
 11
-26.5587
 21
-79.1827
  0
LINE
  8
0
 10
-26.5587
 20
-79.1827
 11
-23.974
 21
-81.1233
  0
LINE
  8
0
 10
-23.974
 20
-81.1233
 11
-21.1353
 21
-82.8153
  0
LINE
  8
0
 10
-21.1353
 20
-82.8153
 11
-18.0679
 21
-84.2469
  0
LINE
  8
0
 10
-18.0679
 20
-84.2469
 11
-14.7719
 21
-85.4183
  0
LINE
  8
0
 10
-14.7719
 20
-85.4183
 11
-11.2471
 21
-86.3293
  0
LINE
  8
0
 10
-11.2471
 20
-86.3293
 11
-7.49361
 21
-86.9801
  0
LINE
  8
0
 10
-7.49361
 20
-86.9801
 11
-3.51144
 21
-87.3705
  0
LINE
  8
0
 10
-3.51144
 20
-87.3705
 11
0.699402
 21
-87.5007
  0
LINE
  8
0
 10
0.699402
 20
-87.5007
 11
5.35312
 21
-87.3567
  0
ENDSEC
  0
SECTION
  2
OBJECTS
  0
DICTIONARY
  0
ENDSEC
  0
EOF
