<?xml version="1.0" standalone="no"?>
<!DOCTYPE svg PUBLIC "-//W3C//DTD SVG 1.1//EN" "http://www.w3.org/Graphics/SVG/1.1/DTD/svg11.dtd">
<svg width="74mm" height="91mm" viewBox="-37 -3 74 91" xmlns="http://www.w3.org/2000/svg" version="1.1">
<title>OpenSCAD Model</title>
<path d="
M 5.35312,87.3567 L 9.70572,86.9249 L 13.7572,86.2051 L 17.5075,85.1974 L 20.9567,83.9018 L 24.1048,82.3183
 L 26.9517,80.4469 L 29.4557,78.3229 L 31.5745,75.9819 L 33.3081,73.424 L 34.6564,70.6491 L 35.6195,67.6574
 L 36.1973,64.4488 L 36.39,61.0232 L 36.3281,59.1747 L 36.1427,57.384 L 35.8337,55.6512 L 35.401,53.9762
 L 34.8448,52.3591 L 34.1649,50.7998 L 33.3614,49.2983 L 32.4253,47.8568 L 31.3473,46.477 L 30.1272,45.159
 L 28.7652,43.9028 L 27.2612,42.7085 L 25.6152,41.5759 L 23.8271,40.5051 L 21.8537,39.4791 L 19.6516,38.4806
 L 17.2206,37.5097 L 14.5609,36.5663 L 11.6724,35.6505 L 8.55511,34.7623 L 5.20906,33.9017 L 2.70389,33.2398
 L 0.452469,32.616 L -1.5452,32.0303 L -3.28912,31.4829 L -4.77931,30.9736 L -6.01575,30.5024 L -6.99843,30.0694
 L -7.82861,29.642 L -8.60754,29.1884 L -9.33521,28.7085 L -10.0116,28.2023 L -10.6367,27.6698 L -11.2106,27.111
 L -11.7332,26.5259 L -12.1947,25.906 L -12.5852,25.2427 L -12.9047,24.5359 L -13.1532,23.7859 L -13.3307,22.9924
 L -13.4372,22.1555 L -13.4727,21.2752 L -13.3991,19.9586 L -13.1782,18.7327 L -12.8102,17.5975 L -12.2948,16.553
 L -11.6323,15.5993 L -10.8225,14.7363 L -9.86552,13.964 L -8.76892,13.2888 L -7.54086,12.7175 L -6.18135,12.25
 L -4.6904,11.8864 L -3.06799,11.6268 L -1.31413,11.4709 L 0.571152,11.419 L 3.85916,11.6596 L 6.76593,12.3813
 L 9.29146,13.5842 L 11.4357,15.2683 L 13.1988,17.4336 L 14.5806,20.08 L 15.5812,23.2075 L 34.0064,21.3398
 L 33.2081,18.0445 L 32.1759,15.0056 L 30.9097,12.223 L 29.4095,9.69679 L 27.6753,7.427 L 25.7072,5.41357
 L 23.5051,3.65654 L 21.0572,2.1438 L 18.3515,0.86377 L 15.3882,-0.183502 L 12.1671,-0.998062 L 8.6884,-1.57988
 L 4.95195,-1.92897 L 0.957809,-2.04535 L -3.15799,-1.91124 L -7.03847,-1.50893 L -10.6836,-0.838394 L -14.0934,0.100327
 L -17.2679,1.30727 L -20.2071,2.78242 L -22.9109,4.52579 L -25.3121,6.49924 L -27.3439,8.66461 L -29.0063,11.0219
 L -30.2992,13.5712 L -31.2227,16.3124 L -31.7769,19.2455 L -31.9616,22.3706 L -31.9241,23.8227 L -31.8118,25.2341
 L -31.6245,26.6047 L -31.3623,27.9346 L -31.0251,29.2237 L -30.6131,30.472 L -30.1262,31.6796 L -29.5693,32.8452
 L -28.948,33.9673 L -28.2623,35.0461 L -27.5123,36.0814 L -26.6978,37.0734 L -25.8188,38.022 L -24.8755,38.9272
 L -23.8533,39.7982 L -22.7378,40.6443 L -21.529,41.4653 L -20.2268,42.2614 L -18.8313,43.0325 L -17.3425,43.7787
 L -15.7603,44.4999 L -13.9649,45.2261 L -11.8369,45.9878 L -9.37634,46.785 L -6.58321,47.6178 L -3.45749,48.486
 L 0.000778198,49.3898 L 3.79166,50.3291 L 5.69408,50.8335 L 7.46237,51.3891 L 9.09656,51.996 L 10.5966,52.6541
 L 11.9625,53.3634 L 13.1943,54.1239 L 14.292,54.9356 L 15.2493,55.8 L 16.0592,56.7182 L 16.722,57.6904
 L 17.2374,58.7166 L 17.6056,59.7966 L 17.8265,60.9306 L 17.9001,62.1186 L 17.8166,63.6949 L 17.5662,65.1477
 L 17.1488,66.4769 L 16.5644,67.6826 L 15.813,68.7647 L 14.8947,69.7233 L 13.8094,70.5584 L 12.5506,71.2762
 L 11.1116,71.8836 L 9.49258,72.3805 L 7.69342,72.767 L 5.71414,73.0431 L 3.55475,73.2088 L 1.21526,73.264
 L -1.0513,73.1923 L -3.1759,72.9774 L -5.15855,72.6191 L -6.99925,72.1175 L -8.69798,71.4726 L -10.2548,70.6843
 L -11.6696,69.7528 L -12.9474,68.6977 L -14.0938,67.5387 L -15.1088,66.2759 L -15.9923,64.9093 L -16.7443,63.4388
 L -17.3649,61.8645 L -17.8541,60.1863 L -36.2138,62.5698 L -35.3014,65.9302 L -34.1103,69.0539 L -32.6405,71.941
 L -30.8919,74.5915 L -28.8647,77.0054 L -26.5587,79.1827 L -23.974,81.1233 L -21.1353,82.8153 L -18.0679,84.2469
 L -14.7719,85.4183 L -11.2471,86.3293 L -7.49361,86.9801 L -3.51144,87.3705 L 0.699402,87.5007 z
" stroke="black" fill="lightgray" stroke-width="0.5"/>
</svg>
