  0
SECTION
  2
BLOCKS
  0
ENDSEC
  0
SECTION
  2
ENTITIES
  0
LINE
  8
0
 10
0.446045
 20
-21.9346
 11
1.39185
 21
-21.7946
  0
LINE
  8
0
 10
1.39185
 20
-21.7946
 11
2.26874
 21
-21.5612
  0
LINE
  8
0
 10
2.26874
 20
-21.5612
 11
3.07675
 21
-21.2345
  0
LINE
  8
0
 10
3.07675
 20
-21.2345
 11
3.81589
 21
-20.8145
  0
LINE
  8
0
 10
3.81589
 20
-20.8145
 11
4.48613
 21
-20.3011
  0
LINE
  8
0
 10
4.48613
 20
-20.3011
 11
5.08748
 21
-19.6944
  0
LINE
  8
0
 10
5.08748
 20
-19.6944
 11
5.61394
 21
-19.0009
  0
LINE
  8
0
 10
5.61394
 20
-19.0009
 11
6.0594
 21
-18.2271
  0
LINE
  8
0
 10
6.0594
 20
-18.2271
 11
6.42387
 21
-17.3732
  0
LINE
  8
0
 10
6.42387
 20
-17.3732
 11
6.70737
 21
-16.439
  0
LINE
  8
0
 10
6.70737
 20
-16.439
 11
6.90985
 21
-15.4247
  0
LINE
  8
0
 10
6.90985
 20
-15.4247
 11
7.03134
 21
-14.3301
  0
LINE
  8
0
 10
7.03134
 20
-14.3301
 11
7.07184
 21
-13.1554
  0
LINE
  8
0
 10
7.07184
 20
-13.1554
 11
7.0291
 21
-11.967
  0
LINE
  8
0
 10
7.0291
 20
-11.967
 11
6.90091
 21
-10.8683
  0
LINE
  8
0
 10
6.90091
 20
-10.8683
 11
6.68726
 21
-9.85922
  0
LINE
  8
0
 10
6.68726
 20
-9.85922
 11
6.38814
 21
-8.93985
  0
LINE
  8
0
 10
6.38814
 20
-8.93985
 11
6.00357
 21
-8.11012
  0
LINE
  8
0
 10
6.00357
 20
-8.11012
 11
5.53354
 21
-7.37007
  0
LINE
  8
0
 10
5.53354
 20
-7.37007
 11
4.97803
 21
-6.71968
  0
LINE
  8
0
 10
4.97803
 20
-6.71968
 11
4.33633
 21
-6.15738
  0
LINE
  8
0
 10
4.33633
 20
-6.15738
 11
3.6076
 21
-5.68158
  0
LINE
  8
0
 10
3.6076
 20
-5.68158
 11
2.79182
 21
-5.2923
  0
LINE
  8
0
 10
2.79182
 20
-5.2923
 11
1.88899
 21
-4.98953
  0
LINE
  8
0
 10
1.88899
 20
-4.98953
 11
0.899124
 21
-4.77327
  0
LINE
  8
0
 10
0.899124
 20
-4.77327
 11
-0.17778
 21
-4.64351
  0
LINE
  8
0
 10
-0.17778
 20
-4.64351
 11
-1.34174
 21
-4.60025
  0
LINE
  8
0
 10
-1.34174
 20
-4.60025
 11
-5.99294
 21
-4.60025
  0
LINE
  8
0
 10
-5.99294
 20
-4.60025
 11
-5.99294
 21
-21.9812
  0
LINE
  8
0
 10
-5.99294
 20
-21.9812
 11
-0.568619
 21
-21.9812
  0
LINE
  8
0
 10
-0.568619
 20
-21.9812
 11
0.446045
 21
-21.9346
  0
LINE
  8
0
 10
-2.19217
 20
-19.0437
 11
-2.19217
 21
-7.53783
  0
LINE
  8
0
 10
-2.19217
 20
-7.53783
 11
-1.40614
 21
-7.53783
  0
LINE
  8
0
 10
-1.40614
 20
-7.53783
 11
-0.734192
 21
-7.56531
  0
LINE
  8
0
 10
-0.734192
 20
-7.56531
 11
-0.117218
 21
-7.64774
  0
LINE
  8
0
 10
-0.117218
 20
-7.64774
 11
0.444809
 21
-7.78514
  0
LINE
  8
0
 10
0.444809
 20
-7.78514
 11
0.951889
 21
-7.97751
  0
LINE
  8
0
 10
0.951889
 20
-7.97751
 11
1.40402
 21
-8.22482
  0
LINE
  8
0
 10
1.40402
 20
-8.22482
 11
1.80119
 21
-8.52711
  0
LINE
  8
0
 10
1.80119
 20
-8.52711
 11
2.14342
 21
-8.88435
  0
LINE
  8
0
 10
2.14342
 20
-8.88435
 11
2.43568
 21
-9.30124
  0
LINE
  8
0
 10
2.43568
 20
-9.30124
 11
2.683
 21
-9.78253
  0
LINE
  8
0
 10
2.683
 20
-9.78253
 11
2.88533
 21
-10.3283
  0
LINE
  8
0
 10
2.88533
 20
-10.3283
 11
3.04271
 21
-10.9384
  0
LINE
  8
0
 10
3.04271
 20
-10.9384
 11
3.15512
 21
-11.613
  0
LINE
  8
0
 10
3.15512
 20
-11.613
 11
3.22256
 21
-12.352
  0
LINE
  8
0
 10
3.22256
 20
-12.352
 11
3.24504
 21
-13.1554
  0
LINE
  8
0
 10
3.24504
 20
-13.1554
 11
3.1609
 21
-14.7176
  0
LINE
  8
0
 10
3.1609
 20
-14.7176
 11
2.90848
 21
-16.0394
  0
LINE
  8
0
 10
2.90848
 20
-16.0394
 11
2.48776
 21
-17.1209
  0
LINE
  8
0
 10
2.48776
 20
-17.1209
 11
1.89876
 21
-17.9621
  0
LINE
  8
0
 10
1.89876
 20
-17.9621
 11
1.14148
 21
-18.563
  0
LINE
  8
0
 10
1.14148
 20
-18.563
 11
0.215897
 21
-18.9235
  0
LINE
  8
0
 10
0.215897
 20
-18.9235
 11
-0.877945
 21
-19.0437
  0
LINE
  8
0
 10
-0.877945
 20
-19.0437
 11
-2.19217
 21
-19.0437
  0
ENDSEC
  0
SECTION
  2
OBJECTS
  0
DICTIONARY
  0
ENDSEC
  0
EOF
