<?xml version="1.0" standalone="no"?>
<!DOCTYPE svg PUBLIC "-//W3C//DTD SVG 1.1//EN" "http://www.w3.org/Graphics/SVG/1.1/DTD/svg11.dtd">
<svg width="15mm" height="19mm" viewBox="-7 4 15 19" xmlns="http://www.w3.org/2000/svg" version="1.1">
<title>OpenSCAD Model</title>
<path d="
M 2.06393,22.3886 L 3.27663,22.0542 L 4.35785,21.4967 L 5.30762,20.7163 L 6.1259,19.713 L 6.8127,18.4866
 L 7.36804,17.0372 L 3.85057,16.3671 L 3.54137,17.2012 L 3.18797,17.907 L 2.79041,18.4845 L 2.34866,18.9336
 L 1.86273,19.2544 L 1.33261,19.4469 L 0.758331,19.511 L 0.264816,19.479 L -0.192383,19.3827 L -0.613342,19.2223
 L -0.998001,18.9978 L -1.34639,18.7091 L -1.65851,18.3562 L -1.93434,17.9392 L -2.17363,17.463 L -2.3761,16.9326
 L -2.54176,16.348 L -2.67061,15.7093 L -2.76265,15.0165 L -2.81786,14.2695 L -2.83627,13.4683 L -2.76476,11.9061
 L -2.55019,10.5842 L -2.19258,9.50272 L -1.69193,8.66153 L -1.04823,8.06068 L -0.261505,7.70016 L 0.668259,7.58
 L 0.939896,7.59538 L 1.20258,7.64153 L 1.45631,7.71844 L 1.70113,7.82611 L 1.93698,7.96455 L 2.16389,8.13376
 L 2.38188,8.33372 L 2.58775,8.56158 L 2.7784,8.81441 L 2.95378,9.09222 L 3.11392,9.39503 L 3.25882,9.72282
 L 3.38847,10.0756 L 3.50287,10.4534 L 7.00743,9.60294 L 6.77274,8.91742 L 6.50308,8.28188 L 6.19844,7.6963
 L 5.85883,7.16069 L 5.48424,6.67505 L 5.07468,6.23938 L 4.63014,5.85367 L 4.15227,5.51865 L 3.64256,5.23518
 L 3.10104,5.00325 L 2.52771,4.82288 L 1.92255,4.69402 L 1.28557,4.61671 L 0.616776,4.59094 L -1.32483,4.77211
 L -2.96774,5.31561 L -4.31194,6.22147 L -5.35744,7.48965 L -6.1042,9.12019 L -6.55228,11.1131 L -6.70163,13.4683
 L -6.66284,14.6911 L -6.54649,15.8269 L -6.35258,16.8756 L -6.0811,17.8374 L -5.73206,18.7121 L -5.30544,19.4997
 L -4.80125,20.2004 L -4.22313,20.8105 L -3.57481,21.3268 L -2.85629,21.7492 L -2.06758,22.0777 L -1.20866,22.3124
 L -0.279541,22.4532 L 0.719757,22.5001 z
" stroke="black" fill="lightgray" stroke-width="0.5"/>
</svg>
