  0
SECTION
  2
BLOCKS
  0
ENDSEC
  0
SECTION
  2
ENTITIES
  0
LINE
  8
0
 10
2.06393
 20
-22.3886
 11
3.27663
 21
-22.0542
  0
LINE
  8
0
 10
3.27663
 20
-22.0542
 11
4.35785
 21
-21.4967
  0
LINE
  8
0
 10
4.35785
 20
-21.4967
 11
5.30762
 21
-20.7163
  0
LINE
  8
0
 10
5.30762
 20
-20.7163
 11
6.1259
 21
-19.713
  0
LINE
  8
0
 10
6.1259
 20
-19.713
 11
6.8127
 21
-18.4866
  0
LINE
  8
0
 10
6.8127
 20
-18.4866
 11
7.36804
 21
-17.0372
  0
LINE
  8
0
 10
7.36804
 20
-17.0372
 11
3.85057
 21
-16.3671
  0
LINE
  8
0
 10
3.85057
 20
-16.3671
 11
3.54137
 21
-17.2012
  0
LINE
  8
0
 10
3.54137
 20
-17.2012
 11
3.18797
 21
-17.907
  0
LINE
  8
0
 10
3.18797
 20
-17.907
 11
2.79041
 21
-18.4845
  0
LINE
  8
0
 10
2.79041
 20
-18.4845
 11
2.34866
 21
-18.9336
  0
LINE
  8
0
 10
2.34866
 20
-18.9336
 11
1.86273
 21
-19.2544
  0
LINE
  8
0
 10
1.86273
 20
-19.2544
 11
1.33261
 21
-19.4469
  0
LINE
  8
0
 10
1.33261
 20
-19.4469
 11
0.758331
 21
-19.511
  0
LINE
  8
0
 10
0.758331
 20
-19.511
 11
0.264816
 21
-19.479
  0
LINE
  8
0
 10
0.264816
 20
-19.479
 11
-0.192383
 21
-19.3827
  0
LINE
  8
0
 10
-0.192383
 20
-19.3827
 11
-0.613342
 21
-19.2223
  0
LINE
  8
0
 10
-0.613342
 20
-19.2223
 11
-0.998001
 21
-18.9978
  0
LINE
  8
0
 10
-0.998001
 20
-18.9978
 11
-1.34639
 21
-18.7091
  0
LINE
  8
0
 10
-1.34639
 20
-18.7091
 11
-1.65851
 21
-18.3562
  0
LINE
  8
0
 10
-1.65851
 20
-18.3562
 11
-1.93434
 21
-17.9392
  0
LINE
  8
0
 10
-1.93434
 20
-17.9392
 11
-2.17363
 21
-17.463
  0
LINE
  8
0
 10
-2.17363
 20
-17.463
 11
-2.3761
 21
-16.9326
  0
LINE
  8
0
 10
-2.3761
 20
-16.9326
 11
-2.54176
 21
-16.348
  0
LINE
  8
0
 10
-2.54176
 20
-16.348
 11
-2.67061
 21
-15.7093
  0
LINE
  8
0
 10
-2.67061
 20
-15.7093
 11
-2.76265
 21
-15.0165
  0
LINE
  8
0
 10
-2.76265
 20
-15.0165
 11
-2.81786
 21
-14.2695
  0
LINE
  8
0
 10
-2.81786
 20
-14.2695
 11
-2.83627
 21
-13.4683
  0
LINE
  8
0
 10
-2.83627
 20
-13.4683
 11
-2.76476
 21
-11.9061
  0
LINE
  8
0
 10
-2.76476
 20
-11.9061
 11
-2.55019
 21
-10.5842
  0
LINE
  8
0
 10
-2.55019
 20
-10.5842
 11
-2.19258
 21
-9.50272
  0
LINE
  8
0
 10
-2.19258
 20
-9.50272
 11
-1.69193
 21
-8.66153
  0
LINE
  8
0
 10
-1.69193
 20
-8.66153
 11
-1.04823
 21
-8.06068
  0
LINE
  8
0
 10
-1.04823
 20
-8.06068
 11
-0.261505
 21
-7.70016
  0
LINE
  8
0
 10
-0.261505
 20
-7.70016
 11
0.668259
 21
-7.58
  0
LINE
  8
0
 10
0.668259
 20
-7.58
 11
0.939896
 21
-7.59538
  0
LINE
  8
0
 10
0.939896
 20
-7.59538
 11
1.20258
 21
-7.64153
  0
LINE
  8
0
 10
1.20258
 20
-7.64153
 11
1.45631
 21
-7.71844
  0
LINE
  8
0
 10
1.45631
 20
-7.71844
 11
1.70113
 21
-7.82611
  0
LINE
  8
0
 10
1.70113
 20
-7.82611
 11
1.93698
 21
-7.96455
  0
LINE
  8
0
 10
1.93698
 20
-7.96455
 11
2.16389
 21
-8.13376
  0
LINE
  8
0
 10
2.16389
 20
-8.13376
 11
2.38188
 21
-8.33372
  0
LINE
  8
0
 10
2.38188
 20
-8.33372
 11
2.58775
 21
-8.56158
  0
LINE
  8
0
 10
2.58775
 20
-8.56158
 11
2.7784
 21
-8.81441
  0
LINE
  8
0
 10
2.7784
 20
-8.81441
 11
2.95378
 21
-9.09222
  0
LINE
  8
0
 10
2.95378
 20
-9.09222
 11
3.11392
 21
-9.39503
  0
LINE
  8
0
 10
3.11392
 20
-9.39503
 11
3.25882
 21
-9.72282
  0
LINE
  8
0
 10
3.25882
 20
-9.72282
 11
3.38847
 21
-10.0756
  0
LINE
  8
0
 10
3.38847
 20
-10.0756
 11
3.50287
 21
-10.4534
  0
LINE
  8
0
 10
3.50287
 20
-10.4534
 11
7.00743
 21
-9.60294
  0
LINE
  8
0
 10
7.00743
 20
-9.60294
 11
6.77274
 21
-8.91742
  0
LINE
  8
0
 10
6.77274
 20
-8.91742
 11
6.50308
 21
-8.28188
  0
LINE
  8
0
 10
6.50308
 20
-8.28188
 11
6.19844
 21
-7.6963
  0
LINE
  8
0
 10
6.19844
 20
-7.6963
 11
5.85883
 21
-7.16069
  0
LINE
  8
0
 10
5.85883
 20
-7.16069
 11
5.48424
 21
-6.67505
  0
LINE
  8
0
 10
5.48424
 20
-6.67505
 11
5.07468
 21
-6.23938
  0
LINE
  8
0
 10
5.07468
 20
-6.23938
 11
4.63014
 21
-5.85367
  0
LINE
  8
0
 10
4.63014
 20
-5.85367
 11
4.15227
 21
-5.51865
  0
LINE
  8
0
 10
4.15227
 20
-5.51865
 11
3.64256
 21
-5.23518
  0
LINE
  8
0
 10
3.64256
 20
-5.23518
 11
3.10104
 21
-5.00325
  0
LINE
  8
0
 10
3.10104
 20
-5.00325
 11
2.52771
 21
-4.82288
  0
LINE
  8
0
 10
2.52771
 20
-4.82288
 11
1.92255
 21
-4.69402
  0
LINE
  8
0
 10
1.92255
 20
-4.69402
 11
1.28557
 21
-4.61671
  0
LINE
  8
0
 10
1.28557
 20
-4.61671
 11
0.616776
 21
-4.59094
  0
LINE
  8
0
 10
0.616776
 20
-4.59094
 11
-1.32483
 21
-4.77211
  0
LINE
  8
0
 10
-1.32483
 20
-4.77211
 11
-2.96774
 21
-5.31561
  0
LINE
  8
0
 10
-2.96774
 20
-5.31561
 11
-4.31194
 21
-6.22147
  0
LINE
  8
0
 10
-4.31194
 20
-6.22147
 11
-5.35744
 21
-7.48965
  0
LINE
  8
0
 10
-5.35744
 20
-7.48965
 11
-6.1042
 21
-9.12019
  0
LINE
  8
0
 10
-6.1042
 20
-9.12019
 11
-6.55228
 21
-11.1131
  0
LINE
  8
0
 10
-6.55228
 20
-11.1131
 11
-6.70163
 21
-13.4683
  0
LINE
  8
0
 10
-6.70163
 20
-13.4683
 11
-6.66284
 21
-14.6911
  0
LINE
  8
0
 10
-6.66284
 20
-14.6911
 11
-6.54649
 21
-15.8269
  0
LINE
  8
0
 10
-6.54649
 20
-15.8269
 11
-6.35258
 21
-16.8756
  0
LINE
  8
0
 10
-6.35258
 20
-16.8756
 11
-6.0811
 21
-17.8374
  0
LINE
  8
0
 10
-6.0811
 20
-17.8374
 11
-5.73206
 21
-18.7121
  0
LINE
  8
0
 10
-5.73206
 20
-18.7121
 11
-5.30544
 21
-19.4997
  0
LINE
  8
0
 10
-5.30544
 20
-19.4997
 11
-4.80125
 21
-20.2004
  0
LINE
  8
0
 10
-4.80125
 20
-20.2004
 11
-4.22313
 21
-20.8105
  0
LINE
  8
0
 10
-4.22313
 20
-20.8105
 11
-3.57481
 21
-21.3268
  0
LINE
  8
0
 10
-3.57481
 20
-21.3268
 11
-2.85629
 21
-21.7492
  0
LINE
  8
0
 10
-2.85629
 20
-21.7492
 11
-2.06758
 21
-22.0777
  0
LINE
  8
0
 10
-2.06758
 20
-22.0777
 11
-1.20866
 21
-22.3124
  0
LINE
  8
0
 10
-1.20866
 20
-22.3124
 11
-0.279541
 21
-22.4532
  0
LINE
  8
0
 10
-0.279541
 20
-22.4532
 11
0.719757
 21
-22.5001
  0
LINE
  8
0
 10
0.719757
 20
-22.5001
 11
2.06393
 21
-22.3886
  0
ENDSEC
  0
SECTION
  2
OBJECTS
  0
DICTIONARY
  0
ENDSEC
  0
EOF
