<?xml version="1.0" standalone="no"?>
<!DOCTYPE svg PUBLIC "-//W3C//DTD SVG 1.1//EN" "http://www.w3.org/Graphics/SVG/1.1/DTD/svg11.dtd">
<svg width="68mm" height="87mm" viewBox="-30 -2 68 87" xmlns="http://www.w3.org/2000/svg" version="1.1">
<title>OpenSCAD Model</title>
<path d="
M 11.5633,84.7721 L 15.2196,84.3698 L 18.6261,83.6993 L 21.7828,82.7606 L 24.6897,81.5536 L 27.3469,80.0785
 L 29.7542,78.3351 L 31.8736,76.3538 L 33.667,74.1647 L 35.1342,71.7679 L 36.2755,69.1634 L 37.0906,66.3512
 L 37.5797,63.3313 L 37.7428,60.1036 L 37.6251,57.6346 L 37.272,55.3076 L 36.6836,53.1225 L 35.8598,51.0795
 L 34.8007,49.1785 L 33.5061,47.4194 L 31.9763,45.8023 L 30.2218,44.343 L 28.253,43.0573 L 26.0699,41.945
 L 23.6726,41.0063 L 21.0609,40.2411 L 18.2348,39.6494 L 15.1945,39.2312 L 17.623,38.6322 L 19.8647,37.9031
 L 21.9197,37.0439 L 23.7879,36.0546 L 25.4694,34.9351 L 26.9642,33.6854 L 28.2722,32.3057 L 29.4003,30.8129
 L 30.3549,29.224 L 31.1359,27.5392 L 31.7434,25.7584 L 32.1773,23.8815 L 32.4376,21.9087 L 32.5244,19.8398
 L 32.3765,16.9218 L 31.9328,14.205 L 31.1932,11.6894 L 30.1579,9.37491 L 28.8267,7.2616 L 27.1997,5.34946
 L 25.2769,3.63849 L 23.0674,2.14288 L 20.5806,0.877365 L 17.8164,-0.158035 L 14.7747,-0.963364 L 11.4557,-1.5386
 L 7.85928,-1.88374 L 3.98546,-1.99879 L -29.8364,-1.99879 L -29.8364,84.9062 L 7.65721,84.9062 z
M -10.8317,32.66 L -10.8317,12.1096 L 2.63266,12.1096 L 5.48701,12.32 L 7.90225,12.9511 L 9.87834,14.0029
 L 11.4153,15.4754 L 12.5131,17.3686 L 13.1718,19.6825 L 13.3914,22.4171 L 13.1745,25.1346 L 12.5236,27.4341
 L 11.4389,29.3154 L 9.92023,30.7787 L 7.96768,31.8239 L 5.58124,32.451 L 2.76091,32.66 z
M -10.8317,70.7978 L -10.8317,46.7039 L 5.27365,46.7039 L 7.06956,46.7663 L 8.73926,46.9537 L 10.2827,47.2659
 L 11.7,47.7031 L 12.991,48.2651 L 14.1559,48.952 L 15.1945,49.7638 L 16.1003,50.6914 L 16.8668,51.7254
 L 17.4939,52.866 L 17.9817,54.1131 L 18.3301,55.4667 L 18.5391,56.9268 L 18.6088,58.4934 L 18.3459,61.7578
 L 17.5571,64.52 L 16.2424,66.78 L 14.4018,68.5378 L 12.0354,69.7934 L 9.14308,70.5467 L 5.7249,70.7978
 z
" stroke="black" fill="lightgray" stroke-width="0.5"/>
</svg>
