  0
SECTION
  2
BLOCKS
  0
ENDSEC
  0
SECTION
  2
ENTITIES
  0
LINE
  8
0
 10
11.5633
 20
-84.7721
 11
15.2196
 21
-84.3698
  0
LINE
  8
0
 10
15.2196
 20
-84.3698
 11
18.6261
 21
-83.6993
  0
LINE
  8
0
 10
18.6261
 20
-83.6993
 11
21.7828
 21
-82.7606
  0
LINE
  8
0
 10
21.7828
 20
-82.7606
 11
24.6897
 21
-81.5536
  0
LINE
  8
0
 10
24.6897
 20
-81.5536
 11
27.3469
 21
-80.0785
  0
LINE
  8
0
 10
27.3469
 20
-80.0785
 11
29.7542
 21
-78.3351
  0
LINE
  8
0
 10
29.7542
 20
-78.3351
 11
31.8736
 21
-76.3538
  0
LINE
  8
0
 10
31.8736
 20
-76.3538
 11
33.667
 21
-74.1647
  0
LINE
  8
0
 10
33.667
 20
-74.1647
 11
35.1342
 21
-71.7679
  0
LINE
  8
0
 10
35.1342
 20
-71.7679
 11
36.2755
 21
-69.1634
  0
LINE
  8
0
 10
36.2755
 20
-69.1634
 11
37.0906
 21
-66.3512
  0
LINE
  8
0
 10
37.0906
 20
-66.3512
 11
37.5797
 21
-63.3313
  0
LINE
  8
0
 10
37.5797
 20
-63.3313
 11
37.7428
 21
-60.1036
  0
LINE
  8
0
 10
37.7428
 20
-60.1036
 11
37.6251
 21
-57.6346
  0
LINE
  8
0
 10
37.6251
 20
-57.6346
 11
37.272
 21
-55.3076
  0
LINE
  8
0
 10
37.272
 20
-55.3076
 11
36.6836
 21
-53.1225
  0
LINE
  8
0
 10
36.6836
 20
-53.1225
 11
35.8598
 21
-51.0795
  0
LINE
  8
0
 10
35.8598
 20
-51.0795
 11
34.8007
 21
-49.1785
  0
LINE
  8
0
 10
34.8007
 20
-49.1785
 11
33.5061
 21
-47.4194
  0
LINE
  8
0
 10
33.5061
 20
-47.4194
 11
31.9763
 21
-45.8023
  0
LINE
  8
0
 10
31.9763
 20
-45.8023
 11
30.2218
 21
-44.343
  0
LINE
  8
0
 10
30.2218
 20
-44.343
 11
28.253
 21
-43.0573
  0
LINE
  8
0
 10
28.253
 20
-43.0573
 11
26.0699
 21
-41.945
  0
LINE
  8
0
 10
26.0699
 20
-41.945
 11
23.6726
 21
-41.0063
  0
LINE
  8
0
 10
23.6726
 20
-41.0063
 11
21.0609
 21
-40.2411
  0
LINE
  8
0
 10
21.0609
 20
-40.2411
 11
18.2348
 21
-39.6494
  0
LINE
  8
0
 10
18.2348
 20
-39.6494
 11
15.1945
 21
-39.2312
  0
LINE
  8
0
 10
15.1945
 20
-39.2312
 11
17.623
 21
-38.6322
  0
LINE
  8
0
 10
17.623
 20
-38.6322
 11
19.8647
 21
-37.9031
  0
LINE
  8
0
 10
19.8647
 20
-37.9031
 11
21.9197
 21
-37.0439
  0
LINE
  8
0
 10
21.9197
 20
-37.0439
 11
23.7879
 21
-36.0546
  0
LINE
  8
0
 10
23.7879
 20
-36.0546
 11
25.4694
 21
-34.9351
  0
LINE
  8
0
 10
25.4694
 20
-34.9351
 11
26.9642
 21
-33.6854
  0
LINE
  8
0
 10
26.9642
 20
-33.6854
 11
28.2722
 21
-32.3057
  0
LINE
  8
0
 10
28.2722
 20
-32.3057
 11
29.4003
 21
-30.8129
  0
LINE
  8
0
 10
29.4003
 20
-30.8129
 11
30.3549
 21
-29.224
  0
LINE
  8
0
 10
30.3549
 20
-29.224
 11
31.1359
 21
-27.5392
  0
LINE
  8
0
 10
31.1359
 20
-27.5392
 11
31.7434
 21
-25.7584
  0
LINE
  8
0
 10
31.7434
 20
-25.7584
 11
32.1773
 21
-23.8815
  0
LINE
  8
0
 10
32.1773
 20
-23.8815
 11
32.4376
 21
-21.9087
  0
LINE
  8
0
 10
32.4376
 20
-21.9087
 11
32.5244
 21
-19.8398
  0
LINE
  8
0
 10
32.5244
 20
-19.8398
 11
32.3765
 21
-16.9218
  0
LINE
  8
0
 10
32.3765
 20
-16.9218
 11
31.9328
 21
-14.205
  0
LINE
  8
0
 10
31.9328
 20
-14.205
 11
31.1932
 21
-11.6894
  0
LINE
  8
0
 10
31.1932
 20
-11.6894
 11
30.1579
 21
-9.37491
  0
LINE
  8
0
 10
30.1579
 20
-9.37491
 11
28.8267
 21
-7.2616
  0
LINE
  8
0
 10
28.8267
 20
-7.2616
 11
27.1997
 21
-5.34946
  0
LINE
  8
0
 10
27.1997
 20
-5.34946
 11
25.2769
 21
-3.63849
  0
LINE
  8
0
 10
25.2769
 20
-3.63849
 11
23.0674
 21
-2.14288
  0
LINE
  8
0
 10
23.0674
 20
-2.14288
 11
20.5806
 21
-0.877365
  0
LINE
  8
0
 10
20.5806
 20
-0.877365
 11
17.8164
 21
0.158035
  0
LINE
  8
0
 10
17.8164
 20
0.158035
 11
14.7747
 21
0.963364
  0
LINE
  8
0
 10
14.7747
 20
0.963364
 11
11.4557
 21
1.5386
  0
LINE
  8
0
 10
11.4557
 20
1.5386
 11
7.85928
 21
1.88374
  0
LINE
  8
0
 10
7.85928
 20
1.88374
 11
3.98546
 21
1.99879
  0
LINE
  8
0
 10
3.98546
 20
1.99879
 11
-29.8364
 21
1.99879
  0
LINE
  8
0
 10
-29.8364
 20
1.99879
 11
-29.8364
 21
-84.9062
  0
LINE
  8
0
 10
-29.8364
 20
-84.9062
 11
7.65721
 21
-84.9062
  0
LINE
  8
0
 10
7.65721
 20
-84.9062
 11
11.5633
 21
-84.7721
  0
LINE
  8
0
 10
-10.8317
 20
-32.66
 11
-10.8317
 21
-12.1096
  0
LINE
  8
0
 10
-10.8317
 20
-12.1096
 11
2.63266
 21
-12.1096
  0
LINE
  8
0
 10
2.63266
 20
-12.1096
 11
5.48701
 21
-12.32
  0
LINE
  8
0
 10
5.48701
 20
-12.32
 11
7.90225
 21
-12.9511
  0
LINE
  8
0
 10
7.90225
 20
-12.9511
 11
9.87834
 21
-14.0029
  0
LINE
  8
0
 10
9.87834
 20
-14.0029
 11
11.4153
 21
-15.4754
  0
LINE
  8
0
 10
11.4153
 20
-15.4754
 11
12.5131
 21
-17.3686
  0
LINE
  8
0
 10
12.5131
 20
-17.3686
 11
13.1718
 21
-19.6825
  0
LINE
  8
0
 10
13.1718
 20
-19.6825
 11
13.3914
 21
-22.4171
  0
LINE
  8
0
 10
13.3914
 20
-22.4171
 11
13.1745
 21
-25.1346
  0
LINE
  8
0
 10
13.1745
 20
-25.1346
 11
12.5236
 21
-27.4341
  0
LINE
  8
0
 10
12.5236
 20
-27.4341
 11
11.4389
 21
-29.3154
  0
LINE
  8
0
 10
11.4389
 20
-29.3154
 11
9.92023
 21
-30.7787
  0
LINE
  8
0
 10
9.92023
 20
-30.7787
 11
7.96768
 21
-31.8239
  0
LINE
  8
0
 10
7.96768
 20
-31.8239
 11
5.58124
 21
-32.451
  0
LINE
  8
0
 10
5.58124
 20
-32.451
 11
2.76091
 21
-32.66
  0
LINE
  8
0
 10
2.76091
 20
-32.66
 11
-10.8317
 21
-32.66
  0
LINE
  8
0
 10
-10.8317
 20
-70.7978
 11
-10.8317
 21
-46.7039
  0
LINE
  8
0
 10
-10.8317
 20
-46.7039
 11
5.27365
 21
-46.7039
  0
LINE
  8
0
 10
5.27365
 20
-46.7039
 11
7.06956
 21
-46.7663
  0
LINE
  8
0
 10
7.06956
 20
-46.7663
 11
8.73926
 21
-46.9537
  0
LINE
  8
0
 10
8.73926
 20
-46.9537
 11
10.2827
 21
-47.2659
  0
LINE
  8
0
 10
10.2827
 20
-47.2659
 11
11.7
 21
-47.7031
  0
LINE
  8
0
 10
11.7
 20
-47.7031
 11
12.991
 21
-48.2651
  0
LINE
  8
0
 10
12.991
 20
-48.2651
 11
14.1559
 21
-48.952
  0
LINE
  8
0
 10
14.1559
 20
-48.952
 11
15.1945
 21
-49.7638
  0
LINE
  8
0
 10
15.1945
 20
-49.7638
 11
16.1003
 21
-50.6914
  0
LINE
  8
0
 10
16.1003
 20
-50.6914
 11
16.8668
 21
-51.7254
  0
LINE
  8
0
 10
16.8668
 20
-51.7254
 11
17.4939
 21
-52.866
  0
LINE
  8
0
 10
17.4939
 20
-52.866
 11
17.9817
 21
-54.1131
  0
LINE
  8
0
 10
17.9817
 20
-54.1131
 11
18.3301
 21
-55.4667
  0
LINE
  8
0
 10
18.3301
 20
-55.4667
 11
18.5391
 21
-56.9268
  0
LINE
  8
0
 10
18.5391
 20
-56.9268
 11
18.6088
 21
-58.4934
  0
LINE
  8
0
 10
18.6088
 20
-58.4934
 11
18.3459
 21
-61.7578
  0
LINE
  8
0
 10
18.3459
 20
-61.7578
 11
17.5571
 21
-64.52
  0
LINE
  8
0
 10
17.5571
 20
-64.52
 11
16.2424
 21
-66.78
  0
LINE
  8
0
 10
16.2424
 20
-66.78
 11
14.4018
 21
-68.5378
  0
LINE
  8
0
 10
14.4018
 20
-68.5378
 11
12.0354
 21
-69.7934
  0
LINE
  8
0
 10
12.0354
 20
-69.7934
 11
9.14308
 21
-70.5467
  0
LINE
  8
0
 10
9.14308
 20
-70.5467
 11
5.7249
 21
-70.7978
  0
LINE
  8
0
 10
5.7249
 20
-70.7978
 11
-10.8317
 21
-70.7978
  0
ENDSEC
  0
SECTION
  2
OBJECTS
  0
DICTIONARY
  0
ENDSEC
  0
EOF
