solid OpenSCAD_Model
  facet normal -0 0 -1
    outer loop
      vertex 32.9111 -42.7281 0
      vertex 14.6785 -47.2469 0
      vertex 14.7442 -42.7281 0
    endloop
  endfacet
  facet normal 0 0 -1
    outer loop
      vertex 19.343 -81.6504 0
      vertex 14.4812 -51.3791 0
      vertex 14.6785 -47.2469 0
    endloop
  endfacet
  facet normal 0 0 -1
    outer loop
      vertex 19.343 -81.6504 0
      vertex 14.1525 -55.1248 0
      vertex 14.4812 -51.3791 0
    endloop
  endfacet
  facet normal 0 0 -1
    outer loop
      vertex 19.343 -81.6504 0
      vertex 13.6923 -58.484 0
      vertex 14.1525 -55.1248 0
    endloop
  endfacet
  facet normal 0 0 -1
    outer loop
      vertex 19.343 -81.6504 0
      vertex 13.1006 -61.4567 0
      vertex 13.6923 -58.484 0
    endloop
  endfacet
  facet normal 0 0 -1
    outer loop
      vertex 6.45293 -71.9743 0
      vertex 16.2243 -83.7565 0
      vertex 12.8007 -85.3946 0
    endloop
  endfacet
  facet normal 0 0 -1
    outer loop
      vertex 19.343 -81.6504 0
      vertex 12.3774 -64.0429 0
      vertex 13.1006 -61.4567 0
    endloop
  endfacet
  facet normal 0 0 -1
    outer loop
      vertex 19.343 -81.6504 0
      vertex 11.5228 -66.2425 0
      vertex 12.3774 -64.0429 0
    endloop
  endfacet
  facet normal 0 0 -1
    outer loop
      vertex 19.343 -81.6504 0
      vertex 10.5156 -68.1054 0
      vertex 11.5228 -66.2425 0
    endloop
  endfacet
  facet normal 0 0 -1
    outer loop
      vertex 19.343 -81.6504 0
      vertex 9.33488 -69.6816 0
      vertex 10.5156 -68.1054 0
    endloop
  endfacet
  facet normal 0 0 -1
    outer loop
      vertex 6.45293 -71.9743 0
      vertex 12.8007 -85.3946 0
      vertex 9.07196 -86.5647 0
    endloop
  endfacet
  facet normal 0 0 -1
    outer loop
      vertex 19.343 -81.6504 0
      vertex 7.98067 -70.9713 0
      vertex 9.33488 -69.6816 0
    endloop
  endfacet
  facet normal 0 0 -1
    outer loop
      vertex 16.2243 -83.7565 0
      vertex 6.45293 -71.9743 0
      vertex 7.98067 -70.9713 0
    endloop
  endfacet
  facet normal 0 0 -1
    outer loop
      vertex 4.75168 -72.6908 0
      vertex 9.07196 -86.5647 0
      vertex 5.03821 -87.2667 0
    endloop
  endfacet
  facet normal 0 0 -1
    outer loop
      vertex 9.07196 -86.5647 0
      vertex 4.75168 -72.6908 0
      vertex 6.45293 -71.9743 0
    endloop
  endfacet
  facet normal 0 0 -1
    outer loop
      vertex 5.03821 -87.2667 0
      vertex 2.87691 -73.1207 0
      vertex 4.75168 -72.6908 0
    endloop
  endfacet
  facet normal 0 0 -1
    outer loop
      vertex 0.699402 -87.5007 0
      vertex 2.87691 -73.1207 0
      vertex 5.03821 -87.2667 0
    endloop
  endfacet
  facet normal 0 0 -1
    outer loop
      vertex 2.87691 -73.1207 0
      vertex 0.699402 -87.5007 0
      vertex 0.828598 -73.264 0
    endloop
  endfacet
  facet normal 0 0 -1
    outer loop
      vertex 0.699402 -87.5007 0
      vertex -0.632156 -73.2022 0
      vertex 0.828598 -73.264 0
    endloop
  endfacet
  facet normal 0 0 -1
    outer loop
      vertex -3.65167 -87.2673 0
      vertex -0.632156 -73.2022 0
      vertex 0.699402 -87.5007 0
    endloop
  endfacet
  facet normal -0 0 -1
    outer loop
      vertex -0.632156 -73.2022 0
      vertex -3.65167 -87.2673 0
      vertex -1.99564 -73.0168 0
    endloop
  endfacet
  facet normal -0 0 -1
    outer loop
      vertex -1.99564 -73.0168 0
      vertex -3.65167 -87.2673 0
      vertex -3.26183 -72.7079 0
    endloop
  endfacet
  facet normal 0 0 -1
    outer loop
      vertex -7.68594 -86.5673 0
      vertex -3.26183 -72.7079 0
      vertex -3.65167 -87.2673 0
    endloop
  endfacet
  facet normal -0 0 -1
    outer loop
      vertex -3.26183 -72.7079 0
      vertex -7.68594 -86.5673 0
      vertex -4.43074 -72.2754 0
    endloop
  endfacet
  facet normal 0 0 -1
    outer loop
      vertex -11.4034 -85.4005 0
      vertex -4.43074 -72.2754 0
      vertex -7.68594 -86.5673 0
    endloop
  endfacet
  facet normal -0 0 -1
    outer loop
      vertex -4.43074 -72.2754 0
      vertex -11.4034 -85.4005 0
      vertex -5.50235 -71.7193 0
    endloop
  endfacet
  facet normal 0 0 -1
    outer loop
      vertex -14.804 -83.7671 0
      vertex -5.50235 -71.7193 0
      vertex -11.4034 -85.4005 0
    endloop
  endfacet
  facet normal -0 0 -1
    outer loop
      vertex -5.50235 -71.7193 0
      vertex -14.804 -83.7671 0
      vertex -6.47668 -71.0396 0
    endloop
  endfacet
  facet normal 0 0 -1
    outer loop
      vertex -17.8877 -81.6669 0
      vertex -6.47668 -71.0396 0
      vertex -14.804 -83.7671 0
    endloop
  endfacet
  facet normal -0 0 -1
    outer loop
      vertex -6.47668 -71.0396 0
      vertex -17.8877 -81.6669 0
      vertex -7.35373 -70.2363 0
    endloop
  endfacet
  facet normal -0 0 -1
    outer loop
      vertex -7.35373 -70.2363 0
      vertex -17.8877 -81.6669 0
      vertex -8.15097 -69.2974 0
    endloop
  endfacet
  facet normal 0 0 -1
    outer loop
      vertex -20.6546 -79.1001 0
      vertex -8.15097 -69.2974 0
      vertex -17.8877 -81.6669 0
    endloop
  endfacet
  facet normal -0 0 -1
    outer loop
      vertex -8.15097 -69.2974 0
      vertex -20.6546 -79.1001 0
      vertex -8.88644 -68.2113 0
    endloop
  endfacet
  facet normal 0 0 -1
    outer loop
      vertex -23.1047 -76.0665 0
      vertex -8.88644 -68.2113 0
      vertex -20.6546 -79.1001 0
    endloop
  endfacet
  facet normal -0 0 -1
    outer loop
      vertex -8.88644 -68.2113 0
      vertex -23.1047 -76.0665 0
      vertex -9.56015 -66.978 0
    endloop
  endfacet
  facet normal 0 0 -1
    outer loop
      vertex -25.2325 -72.5857 0
      vertex -9.56015 -66.978 0
      vertex -23.1047 -76.0665 0
    endloop
  endfacet
  facet normal -0 0 -1
    outer loop
      vertex -9.56015 -66.978 0
      vertex -25.2325 -72.5857 0
      vertex -10.1721 -65.5975 0
    endloop
  endfacet
  facet normal -0 0 -1
    outer loop
      vertex -10.1721 -65.5975 0
      vertex -25.2325 -72.5857 0
      vertex -10.7223 -64.0699 0
    endloop
  endfacet
  facet normal 0 0 -1
    outer loop
      vertex -27.0329 -68.6776 0
      vertex -10.7223 -64.0699 0
      vertex -25.2325 -72.5857 0
    endloop
  endfacet
  facet normal -0 0 -1
    outer loop
      vertex -10.7223 -64.0699 0
      vertex -27.0329 -68.6776 0
      vertex -11.2106 -62.395 0
    endloop
  endfacet
  facet normal -0 0 -1
    outer loop
      vertex -11.6373 -60.5729 0
      vertex -28.5059 -64.3422 0
      vertex -12.0048 -58.5837 0
    endloop
  endfacet
  facet normal -0 0 -1
    outer loop
      vertex -11.2106 -62.395 0
      vertex -28.5059 -64.3422 0
      vertex -11.6373 -60.5729 0
    endloop
  endfacet
  facet normal 0 0 -1
    outer loop
      vertex -28.5059 -64.3422 0
      vertex -11.2106 -62.395 0
      vertex -27.0329 -68.6776 0
    endloop
  endfacet
  facet normal 0 0 -1
    outer loop
      vertex 14.6785 -47.2469 0
      vertex 32.9111 -42.7281 0
      vertex 32.7428 -48.7561 0
    endloop
  endfacet
  facet normal 0 0 -1
    outer loop
      vertex 14.7166 -39.5853 0
      vertex 32.9111 -42.7281 0
      vertex 14.7442 -42.7281 0
    endloop
  endfacet
  facet normal 0 0 -1
    outer loop
      vertex 14.6785 -47.2469 0
      vertex 32.7428 -48.7561 0
      vertex 32.2379 -54.3607 0
    endloop
  endfacet
  facet normal 0 0 -1
    outer loop
      vertex 32.9111 -42.7281 0
      vertex 14.7166 -39.5853 0
      vertex 32.752 -36.5686 0
    endloop
  endfacet
  facet normal 0 0 -1
    outer loop
      vertex 14.6785 -47.2469 0
      vertex 32.2379 -54.3607 0
      vertex 31.3965 -59.542 0
    endloop
  endfacet
  facet normal 0 0 -1
    outer loop
      vertex 14.6337 -36.6357 0
      vertex 32.752 -36.5686 0
      vertex 14.7166 -39.5853 0
    endloop
  endfacet
  facet normal 0 0 -1
    outer loop
      vertex 14.6785 -47.2469 0
      vertex 31.3965 -59.542 0
      vertex 30.2185 -64.3 0
    endloop
  endfacet
  facet normal 0 0 -1
    outer loop
      vertex 14.4956 -33.8793 0
      vertex 32.752 -36.5686 0
      vertex 14.6337 -36.6357 0
    endloop
  endfacet
  facet normal 0 0 -1
    outer loop
      vertex 14.6785 -47.2469 0
      vertex 30.2185 -64.3 0
      vertex 28.7039 -68.6347 0
    endloop
  endfacet
  facet normal 0 0 -1
    outer loop
      vertex 32.752 -36.5686 0
      vertex 14.4956 -33.8793 0
      vertex 32.2747 -30.864 0
    endloop
  endfacet
  facet normal 0 0 -1
    outer loop
      vertex 14.6785 -47.2469 0
      vertex 28.7039 -68.6347 0
      vertex 26.8528 -72.5461 0
    endloop
  endfacet
  facet normal 0 0 -1
    outer loop
      vertex 14.3022 -31.3162 0
      vertex 32.2747 -30.864 0
      vertex 14.4956 -33.8793 0
    endloop
  endfacet
  facet normal 0 0 -1
    outer loop
      vertex 14.6785 -47.2469 0
      vertex 26.8528 -72.5461 0
      vertex 24.6651 -76.0342 0
    endloop
  endfacet
  facet normal -0 0 -1
    outer loop
      vertex 32.2747 -30.864 0
      vertex 14.3022 -31.3162 0
      vertex 31.4792 -25.6143 0
    endloop
  endfacet
  facet normal 0 0 -1
    outer loop
      vertex 14.6785 -47.2469 0
      vertex 24.6651 -76.0342 0
      vertex 22.1565 -79.0763 0
    endloop
  endfacet
  facet normal 0 0 -1
    outer loop
      vertex 14.0535 -28.9464 0
      vertex 31.4792 -25.6143 0
      vertex 14.3022 -31.3162 0
    endloop
  endfacet
  facet normal 0 0 -1
    outer loop
      vertex 14.6785 -47.2469 0
      vertex 22.1565 -79.0763 0
      vertex 19.343 -81.6504 0
    endloop
  endfacet
  facet normal 0 0 -1
    outer loop
      vertex 13.7496 -26.7698 0
      vertex 31.4792 -25.6143 0
      vertex 14.0535 -28.9464 0
    endloop
  endfacet
  facet normal 0 0 -1
    outer loop
      vertex 7.98067 -70.9713 0
      vertex 19.343 -81.6504 0
      vertex 16.2243 -83.7565 0
    endloop
  endfacet
  facet normal -0 0 -1
    outer loop
      vertex 31.4792 -25.6143 0
      vertex 13.7496 -26.7698 0
      vertex 30.3655 -20.8195 0
    endloop
  endfacet
  facet normal 0 0 -1
    outer loop
      vertex 13.3905 -24.7864 0
      vertex 30.3655 -20.8195 0
      vertex 13.7496 -26.7698 0
    endloop
  endfacet
  facet normal 0 0 -1
    outer loop
      vertex 12.9737 -22.9727 0
      vertex 30.3655 -20.8195 0
      vertex 13.3905 -24.7864 0
    endloop
  endfacet
  facet normal -0 0 -1
    outer loop
      vertex 30.3655 -20.8195 0
      vertex 12.9737 -22.9727 0
      vertex 28.9337 -16.4796 0
    endloop
  endfacet
  facet normal 0 0 -1
    outer loop
      vertex 12.4964 -21.3049 0
      vertex 28.9337 -16.4796 0
      vertex 12.9737 -22.9727 0
    endloop
  endfacet
  facet normal -0 0 -1
    outer loop
      vertex 28.9337 -16.4796 0
      vertex 12.4964 -21.3049 0
      vertex 27.1836 -12.5947 0
    endloop
  endfacet
  facet normal 0 0 -1
    outer loop
      vertex 11.9587 -19.7831 0
      vertex 27.1836 -12.5947 0
      vertex 12.4964 -21.3049 0
    endloop
  endfacet
  facet normal 0 0 -1
    outer loop
      vertex 11.3605 -18.4073 0
      vertex 27.1836 -12.5947 0
      vertex 11.9587 -19.7831 0
    endloop
  endfacet
  facet normal -0 0 -1
    outer loop
      vertex 27.1836 -12.5947 0
      vertex 11.3605 -18.4073 0
      vertex 25.1154 -9.16464 0
    endloop
  endfacet
  facet normal 0 0 -1
    outer loop
      vertex 10.7018 -17.1773 0
      vertex 25.1154 -9.16464 0
      vertex 11.3605 -18.4073 0
    endloop
  endfacet
  facet normal -0 0 -1
    outer loop
      vertex 25.1154 -9.16464 0
      vertex 10.7018 -17.1773 0
      vertex 22.7187 -6.19057 0
    endloop
  endfacet
  facet normal 0 0 -1
    outer loop
      vertex 9.98256 -16.0934 0
      vertex 22.7187 -6.19057 0
      vertex 10.7018 -17.1773 0
    endloop
  endfacet
  facet normal -0 0 -1
    outer loop
      vertex 22.7187 -6.19057 0
      vertex 9.98256 -16.0934 0
      vertex 19.9828 -3.67403 0
    endloop
  endfacet
  facet normal 0 0 -1
    outer loop
      vertex 9.20285 -15.1553 0
      vertex 19.9828 -3.67403 0
      vertex 9.98256 -16.0934 0
    endloop
  endfacet
  facet normal -0 0 -1
    outer loop
      vertex 19.9828 -3.67403 0
      vertex 9.20285 -15.1553 0
      vertex 16.9077 -1.61505 0
    endloop
  endfacet
  facet normal 0 0 -1
    outer loop
      vertex 8.3432 -14.3521 0
      vertex 16.9077 -1.61505 0
      vertex 9.20285 -15.1553 0
    endloop
  endfacet
  facet normal 0 0 -1
    outer loop
      vertex 7.38359 -13.6724 0
      vertex 16.9077 -1.61505 0
      vertex 8.3432 -14.3521 0
    endloop
  endfacet
  facet normal -0 0 -1
    outer loop
      vertex 16.9077 -1.61505 0
      vertex 7.38359 -13.6724 0
      vertex 13.4934 -0.0136261 0
    endloop
  endfacet
  facet normal 0 0 -1
    outer loop
      vertex 6.32401 -13.1163 0
      vertex 13.4934 -0.0136261 0
      vertex 7.38359 -13.6724 0
    endloop
  endfacet
  facet normal -0 0 -1
    outer loop
      vertex 13.4934 -0.0136261 0
      vertex 6.32401 -13.1163 0
      vertex 9.7399 1.13023 0
    endloop
  endfacet
  facet normal 0 0 -1
    outer loop
      vertex 5.16446 -12.6838 0
      vertex 9.7399 1.13023 0
      vertex 6.32401 -13.1163 0
    endloop
  endfacet
  facet normal -0 0 -1
    outer loop
      vertex 9.7399 1.13023 0
      vertex 5.16446 -12.6838 0
      vertex 5.64717 1.81657 0
    endloop
  endfacet
  facet normal 0 0 -1
    outer loop
      vertex 3.90495 -12.3748 0
      vertex 5.64717 1.81657 0
      vertex 5.16446 -12.6838 0
    endloop
  endfacet
  facet normal 0 0 -1
    outer loop
      vertex 2.54549 -12.1895 0
      vertex 5.64717 1.81657 0
      vertex 3.90495 -12.3748 0
    endloop
  endfacet
  facet normal 0 0 -1
    outer loop
      vertex 2.54549 -12.1895 0
      vertex 1.21526 2.04535 0
      vertex 5.64717 1.81657 0
    endloop
  endfacet
  facet normal 0 0 -1
    outer loop
      vertex 1.08606 -12.1277 0
      vertex 1.21526 2.04535 0
      vertex 2.54549 -12.1895 0
    endloop
  endfacet
  facet normal 0 0 -1
    outer loop
      vertex -0.444305 -12.1895 0
      vertex 1.21526 2.04535 0
      vertex 1.08606 -12.1277 0
    endloop
  endfacet
  facet normal 0 0 -1
    outer loop
      vertex -3.37108 1.81987 0
      vertex -0.444305 -12.1895 0
      vertex -1.86948 -12.3748 0
    endloop
  endfacet
  facet normal 0 0 -1
    outer loop
      vertex -3.37108 1.81987 0
      vertex -1.86948 -12.3748 0
      vertex -3.18945 -12.6838 0
    endloop
  endfacet
  facet normal 0 0 -1
    outer loop
      vertex -0.444305 -12.1895 0
      vertex -3.37108 1.81987 0
      vertex 1.21526 2.04535 0
    endloop
  endfacet
  facet normal 0 0 -1
    outer loop
      vertex -7.59592 1.14342 0
      vertex -3.18945 -12.6838 0
      vertex -4.40424 -13.1163 0
    endloop
  endfacet
  facet normal 0 0 -1
    outer loop
      vertex -11.4593 0.0160217 0
      vertex -4.40424 -13.1163 0
      vertex -5.51381 -13.6724 0
    endloop
  endfacet
  facet normal 0 0 -1
    outer loop
      vertex -14.9611 -1.56232 0
      vertex -5.51381 -13.6724 0
      vertex -6.5182 -14.3521 0
    endloop
  endfacet
  facet normal 0 0 -1
    outer loop
      vertex -14.9611 -1.56232 0
      vertex -6.5182 -14.3521 0
      vertex -7.41737 -15.1553 0
    endloop
  endfacet
  facet normal 0 0 -1
    outer loop
      vertex -3.18945 -12.6838 0
      vertex -7.59592 1.14342 0
      vertex -3.37108 1.81987 0
    endloop
  endfacet
  facet normal 0 0 -1
    outer loop
      vertex -18.1014 -3.59163 0
      vertex -7.41737 -15.1553 0
      vertex -8.23047 -16.0934 0
    endloop
  endfacet
  facet normal 0 0 -1
    outer loop
      vertex -20.8803 -6.07191 0
      vertex -8.23047 -16.0934 0
      vertex -8.97655 -17.1773 0
    endloop
  endfacet
  facet normal 0 0 -1
    outer loop
      vertex -23.2976 -9.00314 0
      vertex -8.97655 -17.1773 0
      vertex -9.65562 -18.4073 0
    endloop
  endfacet
  facet normal 0 0 -1
    outer loop
      vertex -25.3741 -12.3972 0
      vertex -9.65562 -18.4073 0
      vertex -10.2677 -19.7831 0
    endloop
  endfacet
  facet normal 0 0 -1
    outer loop
      vertex -25.3741 -12.3972 0
      vertex -10.2677 -19.7831 0
      vertex -10.8128 -21.3049 0
    endloop
  endfacet
  facet normal 0 0 -1
    outer loop
      vertex -27.1312 -16.2658 0
      vertex -10.8128 -21.3049 0
      vertex -11.2908 -22.9727 0
    endloop
  endfacet
  facet normal 0 0 -1
    outer loop
      vertex -4.40424 -13.1163 0
      vertex -11.4593 0.0160217 0
      vertex -7.59592 1.14342 0
    endloop
  endfacet
  facet normal 0 0 -1
    outer loop
      vertex -28.5689 -20.609 0
      vertex -11.2908 -22.9727 0
      vertex -11.7019 -24.7864 0
    endloop
  endfacet
  facet normal 0 0 -1
    outer loop
      vertex -28.5689 -20.609 0
      vertex -11.7019 -24.7864 0
      vertex -12.0522 -26.7698 0
    endloop
  endfacet
  facet normal 0 0 -1
    outer loop
      vertex -29.687 -25.4269 0
      vertex -12.0522 -26.7698 0
      vertex -12.3487 -28.9464 0
    endloop
  endfacet
  facet normal 0 0 -1
    outer loop
      vertex -29.687 -25.4269 0
      vertex -12.3487 -28.9464 0
      vertex -12.5912 -31.3162 0
    endloop
  endfacet
  facet normal 0 0 -1
    outer loop
      vertex -30.4857 -30.7194 0
      vertex -12.5912 -31.3162 0
      vertex -12.7798 -33.8793 0
    endloop
  endfacet
  facet normal 0 0 -1
    outer loop
      vertex -30.9649 -36.4865 0
      vertex -12.7798 -33.8793 0
      vertex -12.9146 -36.6357 0
    endloop
  endfacet
  facet normal 0 0 -1
    outer loop
      vertex -29.6516 -59.5796 0
      vertex -12.0048 -58.5837 0
      vertex -28.5059 -64.3422 0
    endloop
  endfacet
  facet normal 0 0 -1
    outer loop
      vertex -30.4699 -54.3897 0
      vertex -12.5701 -54.0452 0
      vertex -29.6516 -59.5796 0
    endloop
  endfacet
  facet normal -0 0 -1
    outer loop
      vertex -12.5701 -54.0452 0
      vertex -30.4699 -54.3897 0
      vertex -12.768 -51.4959 0
    endloop
  endfacet
  facet normal 0 0 -1
    outer loop
      vertex -12.9954 -39.5853 0
      vertex -30.9649 -36.4865 0
      vertex -12.9146 -36.6357 0
    endloop
  endfacet
  facet normal -0 0 -1
    outer loop
      vertex -12.0048 -58.5837 0
      vertex -29.6516 -59.5796 0
      vertex -12.3157 -56.4078 0
    endloop
  endfacet
  facet normal -0 0 -1
    outer loop
      vertex -12.7798 -33.8793 0
      vertex -30.9649 -36.4865 0
      vertex -30.4857 -30.7194 0
    endloop
  endfacet
  facet normal -0 0 -1
    outer loop
      vertex -12.3157 -56.4078 0
      vertex -29.6516 -59.5796 0
      vertex -12.5701 -54.0452 0
    endloop
  endfacet
  facet normal 0 0 -1
    outer loop
      vertex -12.5912 -31.3162 0
      vertex -30.4857 -30.7194 0
      vertex -29.687 -25.4269 0
    endloop
  endfacet
  facet normal 0 0 -1
    outer loop
      vertex -30.961 -48.7726 0
      vertex -12.768 -51.4959 0
      vertex -30.4699 -54.3897 0
    endloop
  endfacet
  facet normal 0 0 -1
    outer loop
      vertex -12.0522 -26.7698 0
      vertex -29.687 -25.4269 0
      vertex -28.5689 -20.609 0
    endloop
  endfacet
  facet normal 0 0 -1
    outer loop
      vertex -12.768 -51.4959 0
      vertex -30.961 -48.7726 0
      vertex -12.9093 -48.76 0
    endloop
  endfacet
  facet normal 0 0 -1
    outer loop
      vertex -11.2908 -22.9727 0
      vertex -28.5689 -20.609 0
      vertex -27.1312 -16.2658 0
    endloop
  endfacet
  facet normal -0 0 -1
    outer loop
      vertex -12.9093 -48.76 0
      vertex -30.961 -48.7726 0
      vertex -12.9941 -45.8374 0
    endloop
  endfacet
  facet normal 0 0 -1
    outer loop
      vertex -10.8128 -21.3049 0
      vertex -27.1312 -16.2658 0
      vertex -25.3741 -12.3972 0
    endloop
  endfacet
  facet normal 0 0 -1
    outer loop
      vertex -31.1246 -42.7281 0
      vertex -12.9941 -45.8374 0
      vertex -30.961 -48.7726 0
    endloop
  endfacet
  facet normal 0 0 -1
    outer loop
      vertex -9.65562 -18.4073 0
      vertex -25.3741 -12.3972 0
      vertex -23.2976 -9.00314 0
    endloop
  endfacet
  facet normal 0 0 -1
    outer loop
      vertex -12.9941 -45.8374 0
      vertex -31.1246 -42.7281 0
      vertex -13.0224 -42.7281 0
    endloop
  endfacet
  facet normal 0 0 -1
    outer loop
      vertex -13.0224 -42.7281 0
      vertex -31.1246 -42.7281 0
      vertex -12.9954 -39.5853 0
    endloop
  endfacet
  facet normal 0 -0 -1
    outer loop
      vertex -30.9649 -36.4865 0
      vertex -12.9954 -39.5853 0
      vertex -31.1246 -42.7281 0
    endloop
  endfacet
  facet normal 0 0 -1
    outer loop
      vertex -8.23047 -16.0934 0
      vertex -20.8803 -6.07191 0
      vertex -18.1014 -3.59163 0
    endloop
  endfacet
  facet normal 0 0 -1
    outer loop
      vertex -8.97655 -17.1773 0
      vertex -23.2976 -9.00314 0
      vertex -20.8803 -6.07191 0
    endloop
  endfacet
  facet normal 0 0 -1
    outer loop
      vertex -7.41737 -15.1553 0
      vertex -18.1014 -3.59163 0
      vertex -14.9611 -1.56232 0
    endloop
  endfacet
  facet normal 0 0 -1
    outer loop
      vertex -5.51381 -13.6724 0
      vertex -14.9611 -1.56232 0
      vertex -11.4593 0.0160217 0
    endloop
  endfacet
  facet normal 0 0 -1
    outer loop
      vertex -6.06458 -50.4583 0
      vertex 7.78641 -34.4175 0
      vertex 7.78641 -50.4583 0
    endloop
  endfacet
  facet normal -0 0 -1
    outer loop
      vertex 7.78641 -34.4175 0
      vertex -6.06458 -50.4583 0
      vertex -6.06458 -34.4175 0
    endloop
  endfacet
  facet normal -0 0 1
    outer loop
      vertex 14.7166 -39.5853 1
      vertex 32.9111 -42.7281 1
      vertex 32.752 -36.5686 1
    endloop
  endfacet
  facet normal -0 0 1
    outer loop
      vertex 14.4956 -33.8793 1
      vertex 32.752 -36.5686 1
      vertex 32.2747 -30.864 1
    endloop
  endfacet
  facet normal 0 0 1
    outer loop
      vertex 32.9111 -42.7281 1
      vertex 14.7166 -39.5853 1
      vertex 14.7442 -42.7281 1
    endloop
  endfacet
  facet normal 0 0 1
    outer loop
      vertex 14.3022 -31.3162 1
      vertex 32.2747 -30.864 1
      vertex 31.4792 -25.6143 1
    endloop
  endfacet
  facet normal 0 0 1
    outer loop
      vertex 14.6785 -47.2469 1
      vertex 32.9111 -42.7281 1
      vertex 14.7442 -42.7281 1
    endloop
  endfacet
  facet normal 0 0 1
    outer loop
      vertex 13.7496 -26.7698 1
      vertex 31.4792 -25.6143 1
      vertex 30.3655 -20.8195 1
    endloop
  endfacet
  facet normal 0 0 1
    outer loop
      vertex 32.9111 -42.7281 1
      vertex 14.6785 -47.2469 1
      vertex 32.7428 -48.7561 1
    endloop
  endfacet
  facet normal 0 0 1
    outer loop
      vertex 12.9737 -22.9727 1
      vertex 30.3655 -20.8195 1
      vertex 28.9337 -16.4796 1
    endloop
  endfacet
  facet normal 0 0 1
    outer loop
      vertex 14.4812 -51.3791 1
      vertex 32.7428 -48.7561 1
      vertex 14.6785 -47.2469 1
    endloop
  endfacet
  facet normal 0 0 1
    outer loop
      vertex 12.4964 -21.3049 1
      vertex 28.9337 -16.4796 1
      vertex 27.1836 -12.5947 1
    endloop
  endfacet
  facet normal 0 0 1
    outer loop
      vertex 32.7428 -48.7561 1
      vertex 14.4812 -51.3791 1
      vertex 32.2379 -54.3607 1
    endloop
  endfacet
  facet normal 0 0 1
    outer loop
      vertex 11.3605 -18.4073 1
      vertex 27.1836 -12.5947 1
      vertex 25.1154 -9.16464 1
    endloop
  endfacet
  facet normal 0 0 1
    outer loop
      vertex 14.1525 -55.1248 1
      vertex 32.2379 -54.3607 1
      vertex 14.4812 -51.3791 1
    endloop
  endfacet
  facet normal 0 0 1
    outer loop
      vertex 10.7018 -17.1773 1
      vertex 25.1154 -9.16464 1
      vertex 22.7187 -6.19057 1
    endloop
  endfacet
  facet normal 0 0 1
    outer loop
      vertex 32.2379 -54.3607 1
      vertex 14.1525 -55.1248 1
      vertex 31.3965 -59.542 1
    endloop
  endfacet
  facet normal 0 0 1
    outer loop
      vertex 9.98256 -16.0934 1
      vertex 22.7187 -6.19057 1
      vertex 19.9828 -3.67403 1
    endloop
  endfacet
  facet normal -0 0 1
    outer loop
      vertex 13.6923 -58.484 1
      vertex 31.3965 -59.542 1
      vertex 14.1525 -55.1248 1
    endloop
  endfacet
  facet normal 0 0 1
    outer loop
      vertex 9.20285 -15.1553 1
      vertex 19.9828 -3.67403 1
      vertex 16.9077 -1.61505 1
    endloop
  endfacet
  facet normal 0 0 1
    outer loop
      vertex 31.3965 -59.542 1
      vertex 13.6923 -58.484 1
      vertex 30.2185 -64.3 1
    endloop
  endfacet
  facet normal 0 0 1
    outer loop
      vertex 30.2185 -64.3 1
      vertex 13.1006 -61.4567 1
      vertex 28.7039 -68.6347 1
    endloop
  endfacet
  facet normal -0 0 1
    outer loop
      vertex 13.1006 -61.4567 1
      vertex 30.2185 -64.3 1
      vertex 13.6923 -58.484 1
    endloop
  endfacet
  facet normal 0 0 1
    outer loop
      vertex 32.752 -36.5686 1
      vertex 14.6337 -36.6357 1
      vertex 14.7166 -39.5853 1
    endloop
  endfacet
  facet normal 0 0 1
    outer loop
      vertex 32.752 -36.5686 1
      vertex 14.4956 -33.8793 1
      vertex 14.6337 -36.6357 1
    endloop
  endfacet
  facet normal 0 0 1
    outer loop
      vertex 32.2747 -30.864 1
      vertex 14.3022 -31.3162 1
      vertex 14.4956 -33.8793 1
    endloop
  endfacet
  facet normal 0 0 1
    outer loop
      vertex 31.4792 -25.6143 1
      vertex 14.0535 -28.9464 1
      vertex 14.3022 -31.3162 1
    endloop
  endfacet
  facet normal 0 0 1
    outer loop
      vertex 31.4792 -25.6143 1
      vertex 13.7496 -26.7698 1
      vertex 14.0535 -28.9464 1
    endloop
  endfacet
  facet normal 0 0 1
    outer loop
      vertex 7.38359 -13.6724 1
      vertex 16.9077 -1.61505 1
      vertex 13.4934 -0.0136261 1
    endloop
  endfacet
  facet normal 0 0 1
    outer loop
      vertex 30.3655 -20.8195 1
      vertex 13.3905 -24.7864 1
      vertex 13.7496 -26.7698 1
    endloop
  endfacet
  facet normal 0 0 1
    outer loop
      vertex 30.3655 -20.8195 1
      vertex 12.9737 -22.9727 1
      vertex 13.3905 -24.7864 1
    endloop
  endfacet
  facet normal 0 0 1
    outer loop
      vertex 28.9337 -16.4796 1
      vertex 12.4964 -21.3049 1
      vertex 12.9737 -22.9727 1
    endloop
  endfacet
  facet normal 0 0 1
    outer loop
      vertex 27.1836 -12.5947 1
      vertex 11.9587 -19.7831 1
      vertex 12.4964 -21.3049 1
    endloop
  endfacet
  facet normal 0 0 1
    outer loop
      vertex 27.1836 -12.5947 1
      vertex 11.3605 -18.4073 1
      vertex 11.9587 -19.7831 1
    endloop
  endfacet
  facet normal 0 0 1
    outer loop
      vertex 25.1154 -9.16464 1
      vertex 10.7018 -17.1773 1
      vertex 11.3605 -18.4073 1
    endloop
  endfacet
  facet normal 0 0 1
    outer loop
      vertex 22.7187 -6.19057 1
      vertex 9.98256 -16.0934 1
      vertex 10.7018 -17.1773 1
    endloop
  endfacet
  facet normal 0 0 1
    outer loop
      vertex 6.32401 -13.1163 1
      vertex 13.4934 -0.0136261 1
      vertex 9.7399 1.13023 1
    endloop
  endfacet
  facet normal 0 0 1
    outer loop
      vertex 19.9828 -3.67403 1
      vertex 9.20285 -15.1553 1
      vertex 9.98256 -16.0934 1
    endloop
  endfacet
  facet normal 0 0 1
    outer loop
      vertex 16.9077 -1.61505 1
      vertex 8.3432 -14.3521 1
      vertex 9.20285 -15.1553 1
    endloop
  endfacet
  facet normal 0 0 1
    outer loop
      vertex 16.9077 -1.61505 1
      vertex 7.38359 -13.6724 1
      vertex 8.3432 -14.3521 1
    endloop
  endfacet
  facet normal 0 0 1
    outer loop
      vertex 13.4934 -0.0136261 1
      vertex 6.32401 -13.1163 1
      vertex 7.38359 -13.6724 1
    endloop
  endfacet
  facet normal 0 0 1
    outer loop
      vertex 5.16446 -12.6838 1
      vertex 9.7399 1.13023 1
      vertex 5.64717 1.81657 1
    endloop
  endfacet
  facet normal 0 0 1
    outer loop
      vertex 9.7399 1.13023 1
      vertex 5.16446 -12.6838 1
      vertex 6.32401 -13.1163 1
    endloop
  endfacet
  facet normal 0 0 1
    outer loop
      vertex 5.64717 1.81657 1
      vertex 3.90495 -12.3748 1
      vertex 5.16446 -12.6838 1
    endloop
  endfacet
  facet normal 0 0 1
    outer loop
      vertex 5.64717 1.81657 1
      vertex 2.54549 -12.1895 1
      vertex 3.90495 -12.3748 1
    endloop
  endfacet
  facet normal 0 0 1
    outer loop
      vertex 1.21526 2.04535 1
      vertex 2.54549 -12.1895 1
      vertex 5.64717 1.81657 1
    endloop
  endfacet
  facet normal 0 0 1
    outer loop
      vertex 1.21526 2.04535 1
      vertex 1.08606 -12.1277 1
      vertex 2.54549 -12.1895 1
    endloop
  endfacet
  facet normal 0 0 1
    outer loop
      vertex 1.21526 2.04535 1
      vertex -0.444305 -12.1895 1
      vertex 1.08606 -12.1277 1
    endloop
  endfacet
  facet normal -0 0 1
    outer loop
      vertex -3.37108 1.81987 1
      vertex -0.444305 -12.1895 1
      vertex 1.21526 2.04535 1
    endloop
  endfacet
  facet normal 0 0 1
    outer loop
      vertex -0.444305 -12.1895 1
      vertex -3.37108 1.81987 1
      vertex -1.86948 -12.3748 1
    endloop
  endfacet
  facet normal 0 0 1
    outer loop
      vertex -1.86948 -12.3748 1
      vertex -3.37108 1.81987 1
      vertex -3.18945 -12.6838 1
    endloop
  endfacet
  facet normal -0 0 1
    outer loop
      vertex -7.59592 1.14342 1
      vertex -3.18945 -12.6838 1
      vertex -3.37108 1.81987 1
    endloop
  endfacet
  facet normal 0 0 1
    outer loop
      vertex -3.18945 -12.6838 1
      vertex -7.59592 1.14342 1
      vertex -4.40424 -13.1163 1
    endloop
  endfacet
  facet normal -0 0 1
    outer loop
      vertex -11.4593 0.0160217 1
      vertex -4.40424 -13.1163 1
      vertex -7.59592 1.14342 1
    endloop
  endfacet
  facet normal 0 0 1
    outer loop
      vertex -4.40424 -13.1163 1
      vertex -11.4593 0.0160217 1
      vertex -5.51381 -13.6724 1
    endloop
  endfacet
  facet normal -0 0 1
    outer loop
      vertex -14.9611 -1.56232 1
      vertex -5.51381 -13.6724 1
      vertex -11.4593 0.0160217 1
    endloop
  endfacet
  facet normal 0 0 1
    outer loop
      vertex -5.51381 -13.6724 1
      vertex -14.9611 -1.56232 1
      vertex -6.5182 -14.3521 1
    endloop
  endfacet
  facet normal 0 0 1
    outer loop
      vertex -6.5182 -14.3521 1
      vertex -14.9611 -1.56232 1
      vertex -7.41737 -15.1553 1
    endloop
  endfacet
  facet normal -0 0 1
    outer loop
      vertex -18.1014 -3.59163 1
      vertex -7.41737 -15.1553 1
      vertex -14.9611 -1.56232 1
    endloop
  endfacet
  facet normal 0 0 1
    outer loop
      vertex -7.41737 -15.1553 1
      vertex -18.1014 -3.59163 1
      vertex -8.23047 -16.0934 1
    endloop
  endfacet
  facet normal -0 0 1
    outer loop
      vertex -20.8803 -6.07191 1
      vertex -8.23047 -16.0934 1
      vertex -18.1014 -3.59163 1
    endloop
  endfacet
  facet normal 0 0 1
    outer loop
      vertex -8.23047 -16.0934 1
      vertex -20.8803 -6.07191 1
      vertex -8.97655 -17.1773 1
    endloop
  endfacet
  facet normal -0 0 1
    outer loop
      vertex -23.2976 -9.00314 1
      vertex -8.97655 -17.1773 1
      vertex -20.8803 -6.07191 1
    endloop
  endfacet
  facet normal 0 0 1
    outer loop
      vertex -8.97655 -17.1773 1
      vertex -23.2976 -9.00314 1
      vertex -9.65562 -18.4073 1
    endloop
  endfacet
  facet normal -0 0 1
    outer loop
      vertex -25.3741 -12.3972 1
      vertex -9.65562 -18.4073 1
      vertex -23.2976 -9.00314 1
    endloop
  endfacet
  facet normal 0 0 1
    outer loop
      vertex -9.65562 -18.4073 1
      vertex -25.3741 -12.3972 1
      vertex -10.2677 -19.7831 1
    endloop
  endfacet
  facet normal 0 0 1
    outer loop
      vertex -10.2677 -19.7831 1
      vertex -25.3741 -12.3972 1
      vertex -10.8128 -21.3049 1
    endloop
  endfacet
  facet normal -0 0 1
    outer loop
      vertex -27.1312 -16.2658 1
      vertex -10.8128 -21.3049 1
      vertex -25.3741 -12.3972 1
    endloop
  endfacet
  facet normal 0 0 1
    outer loop
      vertex -10.8128 -21.3049 1
      vertex -27.1312 -16.2658 1
      vertex -11.2908 -22.9727 1
    endloop
  endfacet
  facet normal 0 0 1
    outer loop
      vertex -31.1246 -42.7281 1
      vertex -13.0224 -42.7281 1
      vertex -12.9954 -39.5853 1
    endloop
  endfacet
  facet normal 0 0 1
    outer loop
      vertex -30.9649 -36.4865 1
      vertex -12.9954 -39.5853 1
      vertex -12.9146 -36.6357 1
    endloop
  endfacet
  facet normal -0 0 1
    outer loop
      vertex -28.5689 -20.609 1
      vertex -11.2908 -22.9727 1
      vertex -27.1312 -16.2658 1
    endloop
  endfacet
  facet normal 0 0 1
    outer loop
      vertex -11.2908 -22.9727 1
      vertex -28.5689 -20.609 1
      vertex -11.7019 -24.7864 1
    endloop
  endfacet
  facet normal 0 0 1
    outer loop
      vertex -13.0224 -42.7281 1
      vertex -31.1246 -42.7281 1
      vertex -30.961 -48.7726 1
    endloop
  endfacet
  facet normal 0 0 1
    outer loop
      vertex -11.7019 -24.7864 1
      vertex -28.5689 -20.609 1
      vertex -12.0522 -26.7698 1
    endloop
  endfacet
  facet normal 0 0 1
    outer loop
      vertex -13.0224 -42.7281 1
      vertex -30.961 -48.7726 1
      vertex -30.4699 -54.3897 1
    endloop
  endfacet
  facet normal -0 0 1
    outer loop
      vertex -29.687 -25.4269 1
      vertex -12.0522 -26.7698 1
      vertex -28.5689 -20.609 1
    endloop
  endfacet
  facet normal 0 0 1
    outer loop
      vertex -13.0224 -42.7281 1
      vertex -30.4699 -54.3897 1
      vertex -29.6516 -59.5796 1
    endloop
  endfacet
  facet normal 0 0 1
    outer loop
      vertex -12.0522 -26.7698 1
      vertex -29.687 -25.4269 1
      vertex -12.3487 -28.9464 1
    endloop
  endfacet
  facet normal 0 0 1
    outer loop
      vertex -13.0224 -42.7281 1
      vertex -29.6516 -59.5796 1
      vertex -28.5059 -64.3422 1
    endloop
  endfacet
  facet normal 0 0 1
    outer loop
      vertex -12.3487 -28.9464 1
      vertex -29.687 -25.4269 1
      vertex -12.5912 -31.3162 1
    endloop
  endfacet
  facet normal 0 0 1
    outer loop
      vertex -13.0224 -42.7281 1
      vertex -28.5059 -64.3422 1
      vertex -27.0329 -68.6776 1
    endloop
  endfacet
  facet normal -0 0 1
    outer loop
      vertex -30.4857 -30.7194 1
      vertex -12.5912 -31.3162 1
      vertex -29.687 -25.4269 1
    endloop
  endfacet
  facet normal 0 0 1
    outer loop
      vertex -13.0224 -42.7281 1
      vertex -27.0329 -68.6776 1
      vertex -25.2325 -72.5857 1
    endloop
  endfacet
  facet normal 0 0 1
    outer loop
      vertex -12.5912 -31.3162 1
      vertex -30.4857 -30.7194 1
      vertex -12.7798 -33.8793 1
    endloop
  endfacet
  facet normal 0 0 1
    outer loop
      vertex -13.0224 -42.7281 1
      vertex -25.2325 -72.5857 1
      vertex -23.1047 -76.0665 1
    endloop
  endfacet
  facet normal 0 0 1
    outer loop
      vertex -30.9649 -36.4865 1
      vertex -12.7798 -33.8793 1
      vertex -30.4857 -30.7194 1
    endloop
  endfacet
  facet normal 0 0 1
    outer loop
      vertex -13.0224 -42.7281 1
      vertex -20.6546 -79.1001 1
      vertex -17.8877 -81.6669 1
    endloop
  endfacet
  facet normal 0 0 1
    outer loop
      vertex -12.7798 -33.8793 1
      vertex -30.9649 -36.4865 1
      vertex -12.9146 -36.6357 1
    endloop
  endfacet
  facet normal 0 0 1
    outer loop
      vertex -13.0224 -42.7281 1
      vertex -17.8877 -81.6669 1
      vertex -14.804 -83.7671 1
    endloop
  endfacet
  facet normal 0 0 1
    outer loop
      vertex -12.9954 -39.5853 1
      vertex -30.9649 -36.4865 1
      vertex -31.1246 -42.7281 1
    endloop
  endfacet
  facet normal 0 -0 1
    outer loop
      vertex -20.6546 -79.1001 1
      vertex -13.0224 -42.7281 1
      vertex -23.1047 -76.0665 1
    endloop
  endfacet
  facet normal -0 0 1
    outer loop
      vertex 12.3774 -64.0429 1
      vertex 28.7039 -68.6347 1
      vertex 13.1006 -61.4567 1
    endloop
  endfacet
  facet normal 0 0 1
    outer loop
      vertex 28.7039 -68.6347 1
      vertex 12.3774 -64.0429 1
      vertex 26.8528 -72.5461 1
    endloop
  endfacet
  facet normal -0 0 1
    outer loop
      vertex 11.5228 -66.2425 1
      vertex 26.8528 -72.5461 1
      vertex 12.3774 -64.0429 1
    endloop
  endfacet
  facet normal 0 0 1
    outer loop
      vertex 26.8528 -72.5461 1
      vertex 11.5228 -66.2425 1
      vertex 24.6651 -76.0342 1
    endloop
  endfacet
  facet normal -0 0 1
    outer loop
      vertex 10.5156 -68.1054 1
      vertex 24.6651 -76.0342 1
      vertex 11.5228 -66.2425 1
    endloop
  endfacet
  facet normal 0 0 1
    outer loop
      vertex 24.6651 -76.0342 1
      vertex 10.5156 -68.1054 1
      vertex 22.1565 -79.0763 1
    endloop
  endfacet
  facet normal -0 0 1
    outer loop
      vertex 9.33488 -69.6816 1
      vertex 22.1565 -79.0763 1
      vertex 10.5156 -68.1054 1
    endloop
  endfacet
  facet normal 0 0 1
    outer loop
      vertex 22.1565 -79.0763 1
      vertex 9.33488 -69.6816 1
      vertex 19.343 -81.6504 1
    endloop
  endfacet
  facet normal -0 0 1
    outer loop
      vertex 7.98067 -70.9713 1
      vertex 19.343 -81.6504 1
      vertex 9.33488 -69.6816 1
    endloop
  endfacet
  facet normal 0 0 1
    outer loop
      vertex 19.343 -81.6504 1
      vertex 7.98067 -70.9713 1
      vertex 16.2243 -83.7565 1
    endloop
  endfacet
  facet normal -0 0 1
    outer loop
      vertex 6.45293 -71.9743 1
      vertex 16.2243 -83.7565 1
      vertex 7.98067 -70.9713 1
    endloop
  endfacet
  facet normal 0 0 1
    outer loop
      vertex 16.2243 -83.7565 1
      vertex 6.45293 -71.9743 1
      vertex 12.8007 -85.3946 1
    endloop
  endfacet
  facet normal 0 0 1
    outer loop
      vertex 12.8007 -85.3946 1
      vertex 6.45293 -71.9743 1
      vertex 9.07196 -86.5647 1
    endloop
  endfacet
  facet normal -0 0 1
    outer loop
      vertex 4.75168 -72.6908 1
      vertex 9.07196 -86.5647 1
      vertex 6.45293 -71.9743 1
    endloop
  endfacet
  facet normal 0 0 1
    outer loop
      vertex 9.07196 -86.5647 1
      vertex 4.75168 -72.6908 1
      vertex 5.03821 -87.2667 1
    endloop
  endfacet
  facet normal -0 0 1
    outer loop
      vertex 2.87691 -73.1207 1
      vertex 5.03821 -87.2667 1
      vertex 4.75168 -72.6908 1
    endloop
  endfacet
  facet normal 0 0 1
    outer loop
      vertex 0.699402 -87.5007 1
      vertex 2.87691 -73.1207 1
      vertex 0.828598 -73.264 1
    endloop
  endfacet
  facet normal 0 0 1
    outer loop
      vertex 2.87691 -73.1207 1
      vertex 0.699402 -87.5007 1
      vertex 5.03821 -87.2667 1
    endloop
  endfacet
  facet normal 0 0 1
    outer loop
      vertex -0.632156 -73.2022 1
      vertex 0.699402 -87.5007 1
      vertex 0.828598 -73.264 1
    endloop
  endfacet
  facet normal 0 0 1
    outer loop
      vertex -3.65167 -87.2673 1
      vertex -0.632156 -73.2022 1
      vertex -1.99564 -73.0168 1
    endloop
  endfacet
  facet normal 0 0 1
    outer loop
      vertex -3.65167 -87.2673 1
      vertex -1.99564 -73.0168 1
      vertex -3.26183 -72.7079 1
    endloop
  endfacet
  facet normal 0 0 1
    outer loop
      vertex -0.632156 -73.2022 1
      vertex -3.65167 -87.2673 1
      vertex 0.699402 -87.5007 1
    endloop
  endfacet
  facet normal 0 0 1
    outer loop
      vertex -7.68594 -86.5673 1
      vertex -3.26183 -72.7079 1
      vertex -4.43074 -72.2754 1
    endloop
  endfacet
  facet normal 0 0 1
    outer loop
      vertex -11.4034 -85.4005 1
      vertex -4.43074 -72.2754 1
      vertex -5.50235 -71.7193 1
    endloop
  endfacet
  facet normal 0 0 1
    outer loop
      vertex -14.804 -83.7671 1
      vertex -5.50235 -71.7193 1
      vertex -6.47668 -71.0396 1
    endloop
  endfacet
  facet normal 0 0 1
    outer loop
      vertex -14.804 -83.7671 1
      vertex -6.47668 -71.0396 1
      vertex -7.35373 -70.2363 1
    endloop
  endfacet
  facet normal 0 0 1
    outer loop
      vertex -3.26183 -72.7079 1
      vertex -7.68594 -86.5673 1
      vertex -3.65167 -87.2673 1
    endloop
  endfacet
  facet normal 0 0 1
    outer loop
      vertex -14.804 -83.7671 1
      vertex -7.35373 -70.2363 1
      vertex -8.15097 -69.2974 1
    endloop
  endfacet
  facet normal 0 0 1
    outer loop
      vertex -14.804 -83.7671 1
      vertex -8.15097 -69.2974 1
      vertex -8.88644 -68.2113 1
    endloop
  endfacet
  facet normal 0 0 1
    outer loop
      vertex -14.804 -83.7671 1
      vertex -8.88644 -68.2113 1
      vertex -9.56015 -66.978 1
    endloop
  endfacet
  facet normal 0 0 1
    outer loop
      vertex -14.804 -83.7671 1
      vertex -9.56015 -66.978 1
      vertex -10.1721 -65.5975 1
    endloop
  endfacet
  facet normal 0 0 1
    outer loop
      vertex -14.804 -83.7671 1
      vertex -10.1721 -65.5975 1
      vertex -10.7223 -64.0699 1
    endloop
  endfacet
  facet normal 0 0 1
    outer loop
      vertex -14.804 -83.7671 1
      vertex -10.7223 -64.0699 1
      vertex -11.2106 -62.395 1
    endloop
  endfacet
  facet normal 0 0 1
    outer loop
      vertex -4.43074 -72.2754 1
      vertex -11.4034 -85.4005 1
      vertex -7.68594 -86.5673 1
    endloop
  endfacet
  facet normal 0 0 1
    outer loop
      vertex -14.804 -83.7671 1
      vertex -11.2106 -62.395 1
      vertex -11.6373 -60.5729 1
    endloop
  endfacet
  facet normal 0 0 1
    outer loop
      vertex -14.804 -83.7671 1
      vertex -11.6373 -60.5729 1
      vertex -12.0048 -58.5837 1
    endloop
  endfacet
  facet normal 0 0 1
    outer loop
      vertex -14.804 -83.7671 1
      vertex -12.0048 -58.5837 1
      vertex -12.3157 -56.4078 1
    endloop
  endfacet
  facet normal 0 0 1
    outer loop
      vertex -14.804 -83.7671 1
      vertex -12.3157 -56.4078 1
      vertex -12.5701 -54.0452 1
    endloop
  endfacet
  facet normal 0 0 1
    outer loop
      vertex -14.804 -83.7671 1
      vertex -12.5701 -54.0452 1
      vertex -12.768 -51.4959 1
    endloop
  endfacet
  facet normal 0 0 1
    outer loop
      vertex -14.804 -83.7671 1
      vertex -12.768 -51.4959 1
      vertex -12.9093 -48.76 1
    endloop
  endfacet
  facet normal 0 0 1
    outer loop
      vertex -5.50235 -71.7193 1
      vertex -14.804 -83.7671 1
      vertex -11.4034 -85.4005 1
    endloop
  endfacet
  facet normal 0 0 1
    outer loop
      vertex -12.9941 -45.8374 1
      vertex -14.804 -83.7671 1
      vertex -12.9093 -48.76 1
    endloop
  endfacet
  facet normal 0 0 1
    outer loop
      vertex -14.804 -83.7671 1
      vertex -12.9941 -45.8374 1
      vertex -13.0224 -42.7281 1
    endloop
  endfacet
  facet normal -0 0 1
    outer loop
      vertex -6.06458 -34.4175 1
      vertex 7.78641 -50.4583 1
      vertex 7.78641 -34.4175 1
    endloop
  endfacet
  facet normal 0 0 1
    outer loop
      vertex 7.78641 -50.4583 1
      vertex -6.06458 -34.4175 1
      vertex -6.06458 -50.4583 1
    endloop
  endfacet
  facet normal 0.171455 -0.985192 0
    outer loop
      vertex 5.03821 -87.2667 0
      vertex 9.07196 -86.5647 1
      vertex 5.03821 -87.2667 1
    endloop
  endfacet
  facet normal 0.171455 -0.985192 0
    outer loop
      vertex 9.07196 -86.5647 1
      vertex 5.03821 -87.2667 0
      vertex 9.07196 -86.5647 0
    endloop
  endfacet
  facet normal 0.29941 -0.954125 0
    outer loop
      vertex 9.07196 -86.5647 0
      vertex 12.8007 -85.3946 1
      vertex 9.07196 -86.5647 1
    endloop
  endfacet
  facet normal 0.29941 -0.954125 0
    outer loop
      vertex 12.8007 -85.3946 1
      vertex 9.07196 -86.5647 0
      vertex 12.8007 -85.3946 0
    endloop
  endfacet
  facet normal 0.431611 -0.90206 0
    outer loop
      vertex 12.8007 -85.3946 0
      vertex 16.2243 -83.7565 1
      vertex 12.8007 -85.3946 1
    endloop
  endfacet
  facet normal 0.431611 -0.90206 0
    outer loop
      vertex 16.2243 -83.7565 1
      vertex 12.8007 -85.3946 0
      vertex 16.2243 -83.7565 0
    endloop
  endfacet
  facet normal 0.559651 -0.828728 0
    outer loop
      vertex 16.2243 -83.7565 0
      vertex 19.343 -81.6504 1
      vertex 16.2243 -83.7565 1
    endloop
  endfacet
  facet normal 0.559651 -0.828728 0
    outer loop
      vertex 19.343 -81.6504 1
      vertex 16.2243 -83.7565 0
      vertex 19.343 -81.6504 0
    endloop
  endfacet
  facet normal 0.67502 -0.737799 0
    outer loop
      vertex 19.343 -81.6504 0
      vertex 22.1565 -79.0763 1
      vertex 19.343 -81.6504 1
    endloop
  endfacet
  facet normal 0.67502 -0.737799 0
    outer loop
      vertex 22.1565 -79.0763 1
      vertex 19.343 -81.6504 0
      vertex 22.1565 -79.0763 0
    endloop
  endfacet
  facet normal 0.771514 -0.636212 0
    outer loop
      vertex 22.1565 -79.0763 1
      vertex 24.6651 -76.0342 0
      vertex 24.6651 -76.0342 1
    endloop
  endfacet
  facet normal 0.771514 -0.636212 0
    outer loop
      vertex 24.6651 -76.0342 0
      vertex 22.1565 -79.0763 1
      vertex 22.1565 -79.0763 0
    endloop
  endfacet
  facet normal 0.847164 -0.531332 0
    outer loop
      vertex 24.6651 -76.0342 1
      vertex 26.8528 -72.5461 0
      vertex 26.8528 -72.5461 1
    endloop
  endfacet
  facet normal 0.847164 -0.531332 0
    outer loop
      vertex 26.8528 -72.5461 0
      vertex 24.6651 -76.0342 1
      vertex 24.6651 -76.0342 0
    endloop
  endfacet
  facet normal 0.903887 -0.427771 0
    outer loop
      vertex 26.8528 -72.5461 1
      vertex 28.7039 -68.6347 0
      vertex 28.7039 -68.6347 1
    endloop
  endfacet
  facet normal 0.903887 -0.427771 0
    outer loop
      vertex 28.7039 -68.6347 0
      vertex 26.8528 -72.5461 1
      vertex 26.8528 -72.5461 0
    endloop
  endfacet
  facet normal 0.944031 -0.329857 0
    outer loop
      vertex 28.7039 -68.6347 1
      vertex 30.2185 -64.3 0
      vertex 30.2185 -64.3 1
    endloop
  endfacet
  facet normal 0.944031 -0.329857 0
    outer loop
      vertex 30.2185 -64.3 0
      vertex 28.7039 -68.6347 1
      vertex 28.7039 -68.6347 0
    endloop
  endfacet
  facet normal 0.970692 -0.240327 0
    outer loop
      vertex 30.2185 -64.3 1
      vertex 31.3965 -59.542 0
      vertex 31.3965 -59.542 1
    endloop
  endfacet
  facet normal 0.970692 -0.240327 0
    outer loop
      vertex 31.3965 -59.542 0
      vertex 30.2185 -64.3 1
      vertex 30.2185 -64.3 0
    endloop
  endfacet
  facet normal 0.98707 -0.160292 0
    outer loop
      vertex 31.3965 -59.542 1
      vertex 32.2379 -54.3607 0
      vertex 32.2379 -54.3607 1
    endloop
  endfacet
  facet normal 0.98707 -0.160292 0
    outer loop
      vertex 32.2379 -54.3607 0
      vertex 31.3965 -59.542 1
      vertex 31.3965 -59.542 0
    endloop
  endfacet
  facet normal 0.995967 -0.0897234 0
    outer loop
      vertex 32.2379 -54.3607 1
      vertex 32.7428 -48.7561 0
      vertex 32.7428 -48.7561 1
    endloop
  endfacet
  facet normal 0.995967 -0.0897234 0
    outer loop
      vertex 32.7428 -48.7561 0
      vertex 32.2379 -54.3607 1
      vertex 32.2379 -54.3607 0
    endloop
  endfacet
  facet normal 0.99961 -0.0279088 0
    outer loop
      vertex 32.7428 -48.7561 1
      vertex 32.9111 -42.7281 0
      vertex 32.9111 -42.7281 1
    endloop
  endfacet
  facet normal 0.99961 -0.0279088 0
    outer loop
      vertex 32.9111 -42.7281 0
      vertex 32.7428 -48.7561 1
      vertex 32.7428 -48.7561 0
    endloop
  endfacet
  facet normal 0.999667 0.0258214 0
    outer loop
      vertex 32.9111 -42.7281 1
      vertex 32.752 -36.5686 0
      vertex 32.752 -36.5686 1
    endloop
  endfacet
  facet normal 0.999667 0.0258214 0
    outer loop
      vertex 32.752 -36.5686 0
      vertex 32.9111 -42.7281 1
      vertex 32.9111 -42.7281 0
    endloop
  endfacet
  facet normal 0.996518 0.083378 0
    outer loop
      vertex 32.752 -36.5686 1
      vertex 32.2747 -30.864 0
      vertex 32.2747 -30.864 1
    endloop
  endfacet
  facet normal 0.996518 0.083378 0
    outer loop
      vertex 32.2747 -30.864 0
      vertex 32.752 -36.5686 1
      vertex 32.752 -36.5686 0
    endloop
  endfacet
  facet normal 0.988713 0.149822 0
    outer loop
      vertex 32.2747 -30.864 1
      vertex 31.4792 -25.6143 0
      vertex 31.4792 -25.6143 1
    endloop
  endfacet
  facet normal 0.988713 0.149822 0
    outer loop
      vertex 31.4792 -25.6143 0
      vertex 32.2747 -30.864 1
      vertex 32.2747 -30.864 0
    endloop
  endfacet
  facet normal 0.974069 0.226249 0
    outer loop
      vertex 31.4792 -25.6143 1
      vertex 30.3655 -20.8195 0
      vertex 30.3655 -20.8195 1
    endloop
  endfacet
  facet normal 0.974069 0.226249 0
    outer loop
      vertex 30.3655 -20.8195 0
      vertex 31.4792 -25.6143 1
      vertex 31.4792 -25.6143 0
    endloop
  endfacet
  facet normal 0.949653 0.313305 0
    outer loop
      vertex 30.3655 -20.8195 1
      vertex 28.9337 -16.4796 0
      vertex 28.9337 -16.4796 1
    endloop
  endfacet
  facet normal 0.949653 0.313305 0
    outer loop
      vertex 28.9337 -16.4796 0
      vertex 30.3655 -20.8195 1
      vertex 30.3655 -20.8195 0
    endloop
  endfacet
  facet normal 0.911755 0.410734 0
    outer loop
      vertex 28.9337 -16.4796 1
      vertex 27.1836 -12.5947 0
      vertex 27.1836 -12.5947 1
    endloop
  endfacet
  facet normal 0.911755 0.410734 0
    outer loop
      vertex 27.1836 -12.5947 0
      vertex 28.9337 -16.4796 1
      vertex 28.9337 -16.4796 0
    endloop
  endfacet
  facet normal 0.856371 0.51636 0
    outer loop
      vertex 27.1836 -12.5947 1
      vertex 25.1154 -9.16464 0
      vertex 25.1154 -9.16464 1
    endloop
  endfacet
  facet normal 0.856371 0.51636 0
    outer loop
      vertex 25.1154 -9.16464 0
      vertex 27.1836 -12.5947 1
      vertex 27.1836 -12.5947 0
    endloop
  endfacet
  facet normal 0.778636 0.627476 0
    outer loop
      vertex 25.1154 -9.16464 1
      vertex 22.7187 -6.19057 0
      vertex 22.7187 -6.19057 1
    endloop
  endfacet
  facet normal 0.778636 0.627476 0
    outer loop
      vertex 22.7187 -6.19057 0
      vertex 25.1154 -9.16464 1
      vertex 25.1154 -9.16464 0
    endloop
  endfacet
  facet normal 0.676985 0.735996 -0
    outer loop
      vertex 22.7187 -6.19057 0
      vertex 19.9828 -3.67403 1
      vertex 22.7187 -6.19057 1
    endloop
  endfacet
  facet normal 0.676985 0.735996 0
    outer loop
      vertex 19.9828 -3.67403 1
      vertex 22.7187 -6.19057 0
      vertex 19.9828 -3.67403 0
    endloop
  endfacet
  facet normal 0.556367 0.830937 -0
    outer loop
      vertex 19.9828 -3.67403 0
      vertex 16.9077 -1.61505 1
      vertex 19.9828 -3.67403 1
    endloop
  endfacet
  facet normal 0.556367 0.830937 0
    outer loop
      vertex 16.9077 -1.61505 1
      vertex 19.9828 -3.67403 0
      vertex 16.9077 -1.61505 0
    endloop
  endfacet
  facet normal 0.424645 0.90536 -0
    outer loop
      vertex 16.9077 -1.61505 0
      vertex 13.4934 -0.0136261 1
      vertex 16.9077 -1.61505 1
    endloop
  endfacet
  facet normal 0.424645 0.90536 0
    outer loop
      vertex 13.4934 -0.0136261 1
      vertex 16.9077 -1.61505 0
      vertex 13.4934 -0.0136261 0
    endloop
  endfacet
  facet normal 0.291508 0.956568 -0
    outer loop
      vertex 13.4934 -0.0136261 0
      vertex 9.7399 1.13023 1
      vertex 13.4934 -0.0136261 1
    endloop
  endfacet
  facet normal 0.291508 0.956568 0
    outer loop
      vertex 9.7399 1.13023 1
      vertex 13.4934 -0.0136261 0
      vertex 9.7399 1.13023 0
    endloop
  endfacet
  facet normal 0.165388 0.986229 -0
    outer loop
      vertex 9.7399 1.13023 0
      vertex 5.64717 1.81657 1
      vertex 9.7399 1.13023 1
    endloop
  endfacet
  facet normal 0.165388 0.986229 0
    outer loop
      vertex 5.64717 1.81657 1
      vertex 9.7399 1.13023 0
      vertex 5.64717 1.81657 0
    endloop
  endfacet
  facet normal 0.0515524 0.99867 -0
    outer loop
      vertex 5.64717 1.81657 0
      vertex 1.21526 2.04535 1
      vertex 5.64717 1.81657 1
    endloop
  endfacet
  facet normal 0.0515524 0.99867 0
    outer loop
      vertex 1.21526 2.04535 1
      vertex 5.64717 1.81657 0
      vertex 1.21526 2.04535 0
    endloop
  endfacet
  facet normal -0.0491041 0.998794 0
    outer loop
      vertex 1.21526 2.04535 0
      vertex -3.37108 1.81987 1
      vertex 1.21526 2.04535 1
    endloop
  endfacet
  facet normal -0.0491041 0.998794 0
    outer loop
      vertex -3.37108 1.81987 1
      vertex 1.21526 2.04535 0
      vertex -3.37108 1.81987 0
    endloop
  endfacet
  facet normal -0.158099 0.987423 0
    outer loop
      vertex -3.37108 1.81987 0
      vertex -7.59592 1.14342 1
      vertex -3.37108 1.81987 1
    endloop
  endfacet
  facet normal -0.158099 0.987423 0
    outer loop
      vertex -7.59592 1.14342 1
      vertex -3.37108 1.81987 0
      vertex -7.59592 1.14342 0
    endloop
  endfacet
  facet normal -0.280133 0.959961 0
    outer loop
      vertex -7.59592 1.14342 0
      vertex -11.4593 0.0160217 1
      vertex -7.59592 1.14342 1
    endloop
  endfacet
  facet normal -0.280133 0.959961 0
    outer loop
      vertex -11.4593 0.0160217 1
      vertex -7.59592 1.14342 0
      vertex -11.4593 0.0160217 0
    endloop
  endfacet
  facet normal -0.410913 0.911675 0
    outer loop
      vertex -11.4593 0.0160217 0
      vertex -14.9611 -1.56232 1
      vertex -11.4593 0.0160217 1
    endloop
  endfacet
  facet normal -0.410913 0.911675 0
    outer loop
      vertex -14.9611 -1.56232 1
      vertex -11.4593 0.0160217 0
      vertex -14.9611 -1.56232 0
    endloop
  endfacet
  facet normal -0.542752 0.839893 0
    outer loop
      vertex -14.9611 -1.56232 0
      vertex -18.1014 -3.59163 1
      vertex -14.9611 -1.56232 1
    endloop
  endfacet
  facet normal -0.542752 0.839893 0
    outer loop
      vertex -18.1014 -3.59163 1
      vertex -14.9611 -1.56232 0
      vertex -18.1014 -3.59163 0
    endloop
  endfacet
  facet normal -0.665884 0.746055 0
    outer loop
      vertex -18.1014 -3.59163 0
      vertex -20.8803 -6.07191 1
      vertex -18.1014 -3.59163 1
    endloop
  endfacet
  facet normal -0.665884 0.746055 0
    outer loop
      vertex -20.8803 -6.07191 1
      vertex -18.1014 -3.59163 0
      vertex -20.8803 -6.07191 0
    endloop
  endfacet
  facet normal -0.771498 0.636232 0
    outer loop
      vertex -23.2976 -9.00314 0
      vertex -20.8803 -6.07191 1
      vertex -20.8803 -6.07191 0
    endloop
  endfacet
  facet normal -0.771498 0.636232 0
    outer loop
      vertex -20.8803 -6.07191 1
      vertex -23.2976 -9.00314 0
      vertex -23.2976 -9.00314 1
    endloop
  endfacet
  facet normal -0.853019 0.52188 0
    outer loop
      vertex -25.3741 -12.3972 0
      vertex -23.2976 -9.00314 1
      vertex -23.2976 -9.00314 0
    endloop
  endfacet
  facet normal -0.853019 0.52188 0
    outer loop
      vertex -23.2976 -9.00314 1
      vertex -25.3741 -12.3972 0
      vertex -25.3741 -12.3972 1
    endloop
  endfacet
  facet normal -0.910487 0.413539 0
    outer loop
      vertex -27.1312 -16.2658 0
      vertex -25.3741 -12.3972 1
      vertex -25.3741 -12.3972 0
    endloop
  endfacet
  facet normal -0.910487 0.413539 0
    outer loop
      vertex -25.3741 -12.3972 1
      vertex -27.1312 -16.2658 0
      vertex -27.1312 -16.2658 1
    endloop
  endfacet
  facet normal -0.949339 0.314253 0
    outer loop
      vertex -28.5689 -20.609 0
      vertex -27.1312 -16.2658 1
      vertex -27.1312 -16.2658 0
    endloop
  endfacet
  facet normal -0.949339 0.314253 0
    outer loop
      vertex -27.1312 -16.2658 1
      vertex -28.5689 -20.609 0
      vertex -28.5689 -20.609 1
    endloop
  endfacet
  facet normal -0.974112 0.226064 0
    outer loop
      vertex -29.687 -25.4269 0
      vertex -28.5689 -20.609 1
      vertex -28.5689 -20.609 0
    endloop
  endfacet
  facet normal -0.974112 0.226064 0
    outer loop
      vertex -28.5689 -20.609 1
      vertex -29.687 -25.4269 0
      vertex -29.687 -25.4269 1
    endloop
  endfacet
  facet normal -0.988804 0.149222 0
    outer loop
      vertex -30.4857 -30.7194 0
      vertex -29.687 -25.4269 1
      vertex -29.687 -25.4269 0
    endloop
  endfacet
  facet normal -0.988804 0.149222 0
    outer loop
      vertex -29.687 -25.4269 1
      vertex -30.4857 -30.7194 0
      vertex -30.4857 -30.7194 1
    endloop
  endfacet
  facet normal -0.996566 0.0828067 0
    outer loop
      vertex -30.9649 -36.4865 0
      vertex -30.4857 -30.7194 1
      vertex -30.4857 -30.7194 0
    endloop
  endfacet
  facet normal -0.996566 0.0828067 0
    outer loop
      vertex -30.4857 -30.7194 1
      vertex -30.9649 -36.4865 0
      vertex -30.9649 -36.4865 1
    endloop
  endfacet
  facet normal -0.999673 0.025578 0
    outer loop
      vertex -31.1246 -42.7281 0
      vertex -30.9649 -36.4865 1
      vertex -30.9649 -36.4865 0
    endloop
  endfacet
  facet normal -0.999673 0.025578 0
    outer loop
      vertex -30.9649 -36.4865 1
      vertex -31.1246 -42.7281 0
      vertex -31.1246 -42.7281 1
    endloop
  endfacet
  facet normal -0.999634 -0.027056 0
    outer loop
      vertex -30.961 -48.7726 0
      vertex -31.1246 -42.7281 1
      vertex -31.1246 -42.7281 0
    endloop
  endfacet
  facet normal -0.999634 -0.027056 0
    outer loop
      vertex -31.1246 -42.7281 1
      vertex -30.961 -48.7726 0
      vertex -30.961 -48.7726 1
    endloop
  endfacet
  facet normal -0.9962 -0.0870972 0
    outer loop
      vertex -30.4699 -54.3897 0
      vertex -30.961 -48.7726 1
      vertex -30.961 -48.7726 0
    endloop
  endfacet
  facet normal -0.9962 -0.0870972 0
    outer loop
      vertex -30.961 -48.7726 1
      vertex -30.4699 -54.3897 0
      vertex -30.4699 -54.3897 1
    endloop
  endfacet
  facet normal -0.987797 -0.155748 0
    outer loop
      vertex -29.6516 -59.5796 0
      vertex -30.4699 -54.3897 1
      vertex -30.4699 -54.3897 0
    endloop
  endfacet
  facet normal -0.987797 -0.155748 0
    outer loop
      vertex -30.4699 -54.3897 1
      vertex -29.6516 -59.5796 0
      vertex -29.6516 -59.5796 1
    endloop
  endfacet
  facet normal -0.972263 -0.233889 0
    outer loop
      vertex -28.5059 -64.3422 0
      vertex -29.6516 -59.5796 1
      vertex -29.6516 -59.5796 0
    endloop
  endfacet
  facet normal -0.972263 -0.233889 0
    outer loop
      vertex -29.6516 -59.5796 1
      vertex -28.5059 -64.3422 0
      vertex -28.5059 -64.3422 1
    endloop
  endfacet
  facet normal -0.946842 -0.3217 0
    outer loop
      vertex -27.0329 -68.6776 0
      vertex -28.5059 -64.3422 1
      vertex -28.5059 -64.3422 0
    endloop
  endfacet
  facet normal -0.946842 -0.3217 0
    outer loop
      vertex -28.5059 -64.3422 1
      vertex -27.0329 -68.6776 0
      vertex -27.0329 -68.6776 1
    endloop
  endfacet
  facet normal -0.908254 -0.418418 0
    outer loop
      vertex -25.2325 -72.5857 0
      vertex -27.0329 -68.6776 1
      vertex -27.0329 -68.6776 0
    endloop
  endfacet
  facet normal -0.908254 -0.418418 0
    outer loop
      vertex -27.0329 -68.6776 1
      vertex -25.2325 -72.5857 0
      vertex -25.2325 -72.5857 1
    endloop
  endfacet
  facet normal -0.853212 -0.521565 0
    outer loop
      vertex -23.1047 -76.0665 0
      vertex -25.2325 -72.5857 1
      vertex -25.2325 -72.5857 0
    endloop
  endfacet
  facet normal -0.853212 -0.521565 0
    outer loop
      vertex -25.2325 -72.5857 1
      vertex -23.1047 -76.0665 0
      vertex -23.1047 -76.0665 1
    endloop
  endfacet
  facet normal -0.777956 -0.628319 0
    outer loop
      vertex -20.6546 -79.1001 0
      vertex -23.1047 -76.0665 1
      vertex -23.1047 -76.0665 0
    endloop
  endfacet
  facet normal -0.777956 -0.628319 0
    outer loop
      vertex -23.1047 -76.0665 1
      vertex -20.6546 -79.1001 0
      vertex -20.6546 -79.1001 1
    endloop
  endfacet
  facet normal -0.6801 -0.733119 0
    outer loop
      vertex -20.6546 -79.1001 0
      vertex -17.8877 -81.6669 1
      vertex -20.6546 -79.1001 1
    endloop
  endfacet
  facet normal -0.6801 -0.733119 -0
    outer loop
      vertex -17.8877 -81.6669 1
      vertex -20.6546 -79.1001 0
      vertex -17.8877 -81.6669 0
    endloop
  endfacet
  facet normal -0.562912 -0.826517 0
    outer loop
      vertex -17.8877 -81.6669 0
      vertex -14.804 -83.7671 1
      vertex -17.8877 -81.6669 1
    endloop
  endfacet
  facet normal -0.562912 -0.826517 -0
    outer loop
      vertex -14.804 -83.7671 1
      vertex -17.8877 -81.6669 0
      vertex -14.804 -83.7671 0
    endloop
  endfacet
  facet normal -0.432971 -0.901408 0
    outer loop
      vertex -14.804 -83.7671 0
      vertex -11.4034 -85.4005 1
      vertex -14.804 -83.7671 1
    endloop
  endfacet
  facet normal -0.432971 -0.901408 -0
    outer loop
      vertex -11.4034 -85.4005 1
      vertex -14.804 -83.7671 0
      vertex -11.4034 -85.4005 0
    endloop
  endfacet
  facet normal -0.299466 -0.954107 0
    outer loop
      vertex -11.4034 -85.4005 0
      vertex -7.68594 -86.5673 1
      vertex -11.4034 -85.4005 1
    endloop
  endfacet
  facet normal -0.299466 -0.954107 -0
    outer loop
      vertex -7.68594 -86.5673 1
      vertex -11.4034 -85.4005 0
      vertex -7.68594 -86.5673 0
    endloop
  endfacet
  facet normal -0.170959 -0.985278 0
    outer loop
      vertex -7.68594 -86.5673 0
      vertex -3.65167 -87.2673 1
      vertex -7.68594 -86.5673 1
    endloop
  endfacet
  facet normal -0.170959 -0.985278 -0
    outer loop
      vertex -3.65167 -87.2673 1
      vertex -7.68594 -86.5673 0
      vertex -3.65167 -87.2673 0
    endloop
  endfacet
  facet normal -0.0535649 -0.998564 0
    outer loop
      vertex -3.65167 -87.2673 0
      vertex 0.699402 -87.5007 1
      vertex -3.65167 -87.2673 1
    endloop
  endfacet
  facet normal -0.0535649 -0.998564 -0
    outer loop
      vertex 0.699402 -87.5007 1
      vertex -3.65167 -87.2673 0
      vertex 0.699402 -87.5007 0
    endloop
  endfacet
  facet normal 0.0538536 -0.998549 0
    outer loop
      vertex 0.699402 -87.5007 0
      vertex 5.03821 -87.2667 1
      vertex 0.699402 -87.5007 1
    endloop
  endfacet
  facet normal 0.0538536 -0.998549 0
    outer loop
      vertex 5.03821 -87.2667 1
      vertex 0.699402 -87.5007 0
      vertex 5.03821 -87.2667 0
    endloop
  endfacet
  facet normal 0.134735 0.990882 -0
    outer loop
      vertex -0.632156 -73.2022 0
      vertex -1.99564 -73.0168 1
      vertex -0.632156 -73.2022 1
    endloop
  endfacet
  facet normal 0.134735 0.990882 0
    outer loop
      vertex -1.99564 -73.0168 1
      vertex -0.632156 -73.2022 0
      vertex -1.99564 -73.0168 0
    endloop
  endfacet
  facet normal 0.237009 0.971507 -0
    outer loop
      vertex -1.99564 -73.0168 0
      vertex -3.26183 -72.7079 1
      vertex -1.99564 -73.0168 1
    endloop
  endfacet
  facet normal 0.237009 0.971507 0
    outer loop
      vertex -3.26183 -72.7079 1
      vertex -1.99564 -73.0168 0
      vertex -3.26183 -72.7079 0
    endloop
  endfacet
  facet normal 0.347011 0.937861 -0
    outer loop
      vertex -3.26183 -72.7079 0
      vertex -4.43074 -72.2754 1
      vertex -3.26183 -72.7079 1
    endloop
  endfacet
  facet normal 0.347011 0.937861 0
    outer loop
      vertex -4.43074 -72.2754 1
      vertex -3.26183 -72.7079 0
      vertex -4.43074 -72.2754 0
    endloop
  endfacet
  facet normal 0.460611 0.887602 -0
    outer loop
      vertex -4.43074 -72.2754 0
      vertex -5.50235 -71.7193 1
      vertex -4.43074 -72.2754 1
    endloop
  endfacet
  facet normal 0.460611 0.887602 0
    outer loop
      vertex -5.50235 -71.7193 1
      vertex -4.43074 -72.2754 0
      vertex -5.50235 -71.7193 0
    endloop
  endfacet
  facet normal 0.572145 0.820153 -0
    outer loop
      vertex -5.50235 -71.7193 0
      vertex -6.47668 -71.0396 1
      vertex -5.50235 -71.7193 1
    endloop
  endfacet
  facet normal 0.572145 0.820153 0
    outer loop
      vertex -6.47668 -71.0396 1
      vertex -5.50235 -71.7193 0
      vertex -6.47668 -71.0396 0
    endloop
  endfacet
  facet normal 0.675422 0.737432 -0
    outer loop
      vertex -6.47668 -71.0396 0
      vertex -7.35373 -70.2363 1
      vertex -6.47668 -71.0396 1
    endloop
  endfacet
  facet normal 0.675422 0.737432 0
    outer loop
      vertex -7.35373 -70.2363 1
      vertex -6.47668 -71.0396 0
      vertex -7.35373 -70.2363 0
    endloop
  endfacet
  facet normal 0.76227 0.647259 0
    outer loop
      vertex -7.35373 -70.2363 1
      vertex -8.15097 -69.2974 0
      vertex -8.15097 -69.2974 1
    endloop
  endfacet
  facet normal 0.76227 0.647259 0
    outer loop
      vertex -8.15097 -69.2974 0
      vertex -7.35373 -70.2363 1
      vertex -7.35373 -70.2363 0
    endloop
  endfacet
  facet normal 0.828016 0.560704 0
    outer loop
      vertex -8.15097 -69.2974 1
      vertex -8.88644 -68.2113 0
      vertex -8.88644 -68.2113 1
    endloop
  endfacet
  facet normal 0.828016 0.560704 0
    outer loop
      vertex -8.88644 -68.2113 0
      vertex -8.15097 -69.2974 1
      vertex -8.15097 -69.2974 0
    endloop
  endfacet
  facet normal 0.877596 0.479401 0
    outer loop
      vertex -8.88644 -68.2113 1
      vertex -9.56015 -66.978 0
      vertex -9.56015 -66.978 1
    endloop
  endfacet
  facet normal 0.877596 0.479401 0
    outer loop
      vertex -9.56015 -66.978 0
      vertex -8.88644 -68.2113 1
      vertex -8.88644 -68.2113 0
    endloop
  endfacet
  facet normal 0.914206 0.40525 0
    outer loop
      vertex -9.56015 -66.978 1
      vertex -10.1721 -65.5975 0
      vertex -10.1721 -65.5975 1
    endloop
  endfacet
  facet normal 0.914206 0.40525 0
    outer loop
      vertex -10.1721 -65.5975 0
      vertex -9.56015 -66.978 1
      vertex -9.56015 -66.978 0
    endloop
  endfacet
  facet normal 0.940836 0.338863 0
    outer loop
      vertex -10.1721 -65.5975 1
      vertex -10.7223 -64.0699 0
      vertex -10.7223 -64.0699 1
    endloop
  endfacet
  facet normal 0.940836 0.338863 0
    outer loop
      vertex -10.7223 -64.0699 0
      vertex -10.1721 -65.5975 1
      vertex -10.1721 -65.5975 0
    endloop
  endfacet
  facet normal 0.960033 0.279888 0
    outer loop
      vertex -10.7223 -64.0699 1
      vertex -11.2106 -62.395 0
      vertex -11.2106 -62.395 1
    endloop
  endfacet
  facet normal 0.960033 0.279888 0
    outer loop
      vertex -11.2106 -62.395 0
      vertex -10.7223 -64.0699 1
      vertex -10.7223 -64.0699 0
    endloop
  endfacet
  facet normal 0.973658 0.228012 0
    outer loop
      vertex -11.2106 -62.395 1
      vertex -11.6373 -60.5729 0
      vertex -11.6373 -60.5729 1
    endloop
  endfacet
  facet normal 0.973658 0.228012 0
    outer loop
      vertex -11.6373 -60.5729 0
      vertex -11.2106 -62.395 1
      vertex -11.2106 -62.395 0
    endloop
  endfacet
  facet normal 0.983359 0.181673 0
    outer loop
      vertex -11.6373 -60.5729 1
      vertex -12.0048 -58.5837 0
      vertex -12.0048 -58.5837 1
    endloop
  endfacet
  facet normal 0.983359 0.181673 0
    outer loop
      vertex -12.0048 -58.5837 0
      vertex -11.6373 -60.5729 1
      vertex -11.6373 -60.5729 0
    endloop
  endfacet
  facet normal 0.989946 0.141447 0
    outer loop
      vertex -12.0048 -58.5837 1
      vertex -12.3157 -56.4078 0
      vertex -12.3157 -56.4078 1
    endloop
  endfacet
  facet normal 0.989946 0.141447 0
    outer loop
      vertex -12.3157 -56.4078 0
      vertex -12.0048 -58.5837 1
      vertex -12.0048 -58.5837 0
    endloop
  endfacet
  facet normal 0.994253 0.107059 0
    outer loop
      vertex -12.3157 -56.4078 1
      vertex -12.5701 -54.0452 0
      vertex -12.5701 -54.0452 1
    endloop
  endfacet
  facet normal 0.994253 0.107059 0
    outer loop
      vertex -12.5701 -54.0452 0
      vertex -12.3157 -56.4078 1
      vertex -12.3157 -56.4078 0
    endloop
  endfacet
  facet normal 0.997 0.0773963 0
    outer loop
      vertex -12.5701 -54.0452 1
      vertex -12.768 -51.4959 0
      vertex -12.768 -51.4959 1
    endloop
  endfacet
  facet normal 0.997 0.0773963 0
    outer loop
      vertex -12.768 -51.4959 0
      vertex -12.5701 -54.0452 1
      vertex -12.5701 -54.0452 0
    endloop
  endfacet
  facet normal 0.998669 0.0515779 0
    outer loop
      vertex -12.768 -51.4959 1
      vertex -12.9093 -48.76 0
      vertex -12.9093 -48.76 1
    endloop
  endfacet
  facet normal 0.998669 0.0515779 0
    outer loop
      vertex -12.9093 -48.76 0
      vertex -12.768 -51.4959 1
      vertex -12.768 -51.4959 0
    endloop
  endfacet
  facet normal 0.999579 0.0290031 0
    outer loop
      vertex -12.9093 -48.76 1
      vertex -12.9941 -45.8374 0
      vertex -12.9941 -45.8374 1
    endloop
  endfacet
  facet normal 0.999579 0.0290031 0
    outer loop
      vertex -12.9941 -45.8374 0
      vertex -12.9093 -48.76 1
      vertex -12.9093 -48.76 0
    endloop
  endfacet
  facet normal 0.999959 0.00910135 0
    outer loop
      vertex -12.9941 -45.8374 1
      vertex -13.0224 -42.7281 0
      vertex -13.0224 -42.7281 1
    endloop
  endfacet
  facet normal 0.999959 0.00910135 0
    outer loop
      vertex -13.0224 -42.7281 0
      vertex -12.9941 -45.8374 1
      vertex -12.9941 -45.8374 0
    endloop
  endfacet
  facet normal 0.999963 -0.00859075 0
    outer loop
      vertex -13.0224 -42.7281 1
      vertex -12.9954 -39.5853 0
      vertex -12.9954 -39.5853 1
    endloop
  endfacet
  facet normal 0.999963 -0.00859075 0
    outer loop
      vertex -12.9954 -39.5853 0
      vertex -13.0224 -42.7281 1
      vertex -13.0224 -42.7281 0
    endloop
  endfacet
  facet normal 0.999625 -0.0273833 0
    outer loop
      vertex -12.9954 -39.5853 1
      vertex -12.9146 -36.6357 0
      vertex -12.9146 -36.6357 1
    endloop
  endfacet
  facet normal 0.999625 -0.0273833 0
    outer loop
      vertex -12.9146 -36.6357 0
      vertex -12.9954 -39.5853 1
      vertex -12.9954 -39.5853 0
    endloop
  endfacet
  facet normal 0.998806 -0.048846 0
    outer loop
      vertex -12.9146 -36.6357 1
      vertex -12.7798 -33.8793 0
      vertex -12.7798 -33.8793 1
    endloop
  endfacet
  facet normal 0.998806 -0.048846 0
    outer loop
      vertex -12.7798 -33.8793 0
      vertex -12.9146 -36.6357 1
      vertex -12.9146 -36.6357 0
    endloop
  endfacet
  facet normal 0.997304 -0.0733844 0
    outer loop
      vertex -12.7798 -33.8793 1
      vertex -12.5912 -31.3162 0
      vertex -12.5912 -31.3162 1
    endloop
  endfacet
  facet normal 0.997304 -0.0733844 0
    outer loop
      vertex -12.5912 -31.3162 0
      vertex -12.7798 -33.8793 1
      vertex -12.7798 -33.8793 0
    endloop
  endfacet
  facet normal 0.994805 -0.101798 0
    outer loop
      vertex -12.5912 -31.3162 1
      vertex -12.3487 -28.9464 0
      vertex -12.3487 -28.9464 1
    endloop
  endfacet
  facet normal 0.994805 -0.101798 0
    outer loop
      vertex -12.3487 -28.9464 0
      vertex -12.5912 -31.3162 1
      vertex -12.5912 -31.3162 0
    endloop
  endfacet
  facet normal 0.990849 -0.134975 0
    outer loop
      vertex -12.3487 -28.9464 1
      vertex -12.0522 -26.7698 0
      vertex -12.0522 -26.7698 1
    endloop
  endfacet
  facet normal 0.990849 -0.134975 0
    outer loop
      vertex -12.0522 -26.7698 0
      vertex -12.3487 -28.9464 1
      vertex -12.3487 -28.9464 0
    endloop
  endfacet
  facet normal 0.984759 -0.173924 0
    outer loop
      vertex -12.0522 -26.7698 1
      vertex -11.7019 -24.7864 0
      vertex -11.7019 -24.7864 1
    endloop
  endfacet
  facet normal 0.984759 -0.173924 0
    outer loop
      vertex -11.7019 -24.7864 0
      vertex -12.0522 -26.7698 1
      vertex -12.0522 -26.7698 0
    endloop
  endfacet
  facet normal 0.975261 -0.221056 0
    outer loop
      vertex -11.7019 -24.7864 1
      vertex -11.2908 -22.9727 0
      vertex -11.2908 -22.9727 1
    endloop
  endfacet
  facet normal 0.975261 -0.221056 0
    outer loop
      vertex -11.2908 -22.9727 0
      vertex -11.7019 -24.7864 1
      vertex -11.7019 -24.7864 0
    endloop
  endfacet
  facet normal 0.961297 -0.275513 0
    outer loop
      vertex -11.2908 -22.9727 1
      vertex -10.8128 -21.3049 0
      vertex -10.8128 -21.3049 1
    endloop
  endfacet
  facet normal 0.961297 -0.275513 0
    outer loop
      vertex -10.8128 -21.3049 0
      vertex -11.2908 -22.9727 1
      vertex -11.2908 -22.9727 0
    endloop
  endfacet
  facet normal 0.941428 -0.337214 0
    outer loop
      vertex -10.8128 -21.3049 1
      vertex -10.2677 -19.7831 0
      vertex -10.2677 -19.7831 1
    endloop
  endfacet
  facet normal 0.941428 -0.337214 0
    outer loop
      vertex -10.2677 -19.7831 0
      vertex -10.8128 -21.3049 1
      vertex -10.8128 -21.3049 0
    endloop
  endfacet
  facet normal 0.91366 -0.406479 0
    outer loop
      vertex -10.2677 -19.7831 1
      vertex -9.65562 -18.4073 0
      vertex -9.65562 -18.4073 1
    endloop
  endfacet
  facet normal 0.91366 -0.406479 0
    outer loop
      vertex -9.65562 -18.4073 0
      vertex -10.2677 -19.7831 1
      vertex -10.2677 -19.7831 0
    endloop
  endfacet
  facet normal 0.875442 -0.483322 0
    outer loop
      vertex -9.65562 -18.4073 1
      vertex -8.97655 -17.1773 0
      vertex -8.97655 -17.1773 1
    endloop
  endfacet
  facet normal 0.875442 -0.483322 0
    outer loop
      vertex -8.97655 -17.1773 0
      vertex -9.65562 -18.4073 1
      vertex -9.65562 -18.4073 0
    endloop
  endfacet
  facet normal 0.823723 -0.566993 0
    outer loop
      vertex -8.97655 -17.1773 1
      vertex -8.23047 -16.0934 0
      vertex -8.23047 -16.0934 1
    endloop
  endfacet
  facet normal 0.823723 -0.566993 0
    outer loop
      vertex -8.23047 -16.0934 0
      vertex -8.97655 -17.1773 1
      vertex -8.97655 -17.1773 0
    endloop
  endfacet
  facet normal 0.755657 -0.654967 0
    outer loop
      vertex -8.23047 -16.0934 1
      vertex -7.41737 -15.1553 0
      vertex -7.41737 -15.1553 1
    endloop
  endfacet
  facet normal 0.755657 -0.654967 0
    outer loop
      vertex -7.41737 -15.1553 0
      vertex -8.23047 -16.0934 1
      vertex -8.23047 -16.0934 0
    endloop
  endfacet
  facet normal 0.666186 -0.745785 0
    outer loop
      vertex -7.41737 -15.1553 0
      vertex -6.5182 -14.3521 1
      vertex -7.41737 -15.1553 1
    endloop
  endfacet
  facet normal 0.666186 -0.745785 0
    outer loop
      vertex -6.5182 -14.3521 1
      vertex -7.41737 -15.1553 0
      vertex -6.5182 -14.3521 0
    endloop
  endfacet
  facet normal 0.560456 -0.828184 0
    outer loop
      vertex -6.5182 -14.3521 0
      vertex -5.51381 -13.6724 1
      vertex -6.5182 -14.3521 1
    endloop
  endfacet
  facet normal 0.560456 -0.828184 0
    outer loop
      vertex -5.51381 -13.6724 1
      vertex -6.5182 -14.3521 0
      vertex -5.51381 -13.6724 0
    endloop
  endfacet
  facet normal 0.448061 -0.894003 0
    outer loop
      vertex -5.51381 -13.6724 0
      vertex -4.40424 -13.1163 1
      vertex -5.51381 -13.6724 1
    endloop
  endfacet
  facet normal 0.448061 -0.894003 0
    outer loop
      vertex -4.40424 -13.1163 1
      vertex -5.51381 -13.6724 0
      vertex -4.40424 -13.1163 0
    endloop
  endfacet
  facet normal 0.335405 -0.942074 0
    outer loop
      vertex -4.40424 -13.1163 0
      vertex -3.18945 -12.6838 1
      vertex -4.40424 -13.1163 1
    endloop
  endfacet
  facet normal 0.335405 -0.942074 0
    outer loop
      vertex -3.18945 -12.6838 1
      vertex -4.40424 -13.1163 0
      vertex -3.18945 -12.6838 0
    endloop
  endfacet
  facet normal 0.227934 -0.973677 0
    outer loop
      vertex -3.18945 -12.6838 0
      vertex -1.86948 -12.3748 1
      vertex -3.18945 -12.6838 1
    endloop
  endfacet
  facet normal 0.227934 -0.973677 0
    outer loop
      vertex -1.86948 -12.3748 1
      vertex -3.18945 -12.6838 0
      vertex -1.86948 -12.3748 0
    endloop
  endfacet
  facet normal 0.128934 -0.991653 0
    outer loop
      vertex -1.86948 -12.3748 0
      vertex -0.444305 -12.1895 1
      vertex -1.86948 -12.3748 1
    endloop
  endfacet
  facet normal 0.128934 -0.991653 0
    outer loop
      vertex -0.444305 -12.1895 1
      vertex -1.86948 -12.3748 0
      vertex -0.444305 -12.1895 0
    endloop
  endfacet
  facet normal 0.0403496 -0.999186 0
    outer loop
      vertex -0.444305 -12.1895 0
      vertex 1.08606 -12.1277 1
      vertex -0.444305 -12.1895 1
    endloop
  endfacet
  facet normal 0.0403496 -0.999186 0
    outer loop
      vertex 1.08606 -12.1277 1
      vertex -0.444305 -12.1895 0
      vertex 1.08606 -12.1277 0
    endloop
  endfacet
  facet normal -0.0423074 -0.999105 0
    outer loop
      vertex 1.08606 -12.1277 0
      vertex 2.54549 -12.1895 1
      vertex 1.08606 -12.1277 1
    endloop
  endfacet
  facet normal -0.0423074 -0.999105 -0
    outer loop
      vertex 2.54549 -12.1895 1
      vertex 1.08606 -12.1277 0
      vertex 2.54549 -12.1895 0
    endloop
  endfacet
  facet normal -0.135055 -0.990838 0
    outer loop
      vertex 2.54549 -12.1895 0
      vertex 3.90495 -12.3748 1
      vertex 2.54549 -12.1895 1
    endloop
  endfacet
  facet normal -0.135055 -0.990838 -0
    outer loop
      vertex 3.90495 -12.3748 1
      vertex 2.54549 -12.1895 0
      vertex 3.90495 -12.3748 0
    endloop
  endfacet
  facet normal -0.238268 -0.971199 0
    outer loop
      vertex 3.90495 -12.3748 0
      vertex 5.16446 -12.6838 1
      vertex 3.90495 -12.3748 1
    endloop
  endfacet
  facet normal -0.238268 -0.971199 -0
    outer loop
      vertex 5.16446 -12.6838 1
      vertex 3.90495 -12.3748 0
      vertex 5.16446 -12.6838 0
    endloop
  endfacet
  facet normal -0.349471 -0.936947 0
    outer loop
      vertex 5.16446 -12.6838 0
      vertex 6.32401 -13.1163 1
      vertex 5.16446 -12.6838 1
    endloop
  endfacet
  facet normal -0.349471 -0.936947 -0
    outer loop
      vertex 6.32401 -13.1163 1
      vertex 5.16446 -12.6838 0
      vertex 6.32401 -13.1163 0
    endloop
  endfacet
  facet normal -0.464716 -0.88546 0
    outer loop
      vertex 6.32401 -13.1163 0
      vertex 7.38359 -13.6724 1
      vertex 6.32401 -13.1163 1
    endloop
  endfacet
  facet normal -0.464716 -0.88546 -0
    outer loop
      vertex 7.38359 -13.6724 1
      vertex 6.32401 -13.1163 0
      vertex 7.38359 -13.6724 0
    endloop
  endfacet
  facet normal -0.578004 -0.816034 0
    outer loop
      vertex 7.38359 -13.6724 0
      vertex 8.3432 -14.3521 1
      vertex 7.38359 -13.6724 1
    endloop
  endfacet
  facet normal -0.578004 -0.816034 -0
    outer loop
      vertex 8.3432 -14.3521 1
      vertex 7.38359 -13.6724 0
      vertex 8.3432 -14.3521 0
    endloop
  endfacet
  facet normal -0.682709 -0.730691 0
    outer loop
      vertex 8.3432 -14.3521 0
      vertex 9.20285 -15.1553 1
      vertex 8.3432 -14.3521 1
    endloop
  endfacet
  facet normal -0.682709 -0.730691 -0
    outer loop
      vertex 9.20285 -15.1553 1
      vertex 8.3432 -14.3521 0
      vertex 9.20285 -15.1553 0
    endloop
  endfacet
  facet normal -0.769043 -0.639197 0
    outer loop
      vertex 9.98256 -16.0934 0
      vertex 9.20285 -15.1553 1
      vertex 9.20285 -15.1553 0
    endloop
  endfacet
  facet normal -0.769043 -0.639197 0
    outer loop
      vertex 9.20285 -15.1553 1
      vertex 9.98256 -16.0934 0
      vertex 9.98256 -16.0934 1
    endloop
  endfacet
  facet normal -0.833241 -0.552911 0
    outer loop
      vertex 10.7018 -17.1773 0
      vertex 9.98256 -16.0934 1
      vertex 9.98256 -16.0934 0
    endloop
  endfacet
  facet normal -0.833241 -0.552911 0
    outer loop
      vertex 9.98256 -16.0934 1
      vertex 10.7018 -17.1773 0
      vertex 10.7018 -17.1773 1
    endloop
  endfacet
  facet normal -0.881548 -0.472094 0
    outer loop
      vertex 11.3605 -18.4073 0
      vertex 10.7018 -17.1773 1
      vertex 10.7018 -17.1773 0
    endloop
  endfacet
  facet normal -0.881548 -0.472094 0
    outer loop
      vertex 10.7018 -17.1773 1
      vertex 11.3605 -18.4073 0
      vertex 11.3605 -18.4073 1
    endloop
  endfacet
  facet normal -0.917064 -0.398741 0
    outer loop
      vertex 11.9587 -19.7831 0
      vertex 11.3605 -18.4073 1
      vertex 11.3605 -18.4073 0
    endloop
  endfacet
  facet normal -0.917064 -0.398741 0
    outer loop
      vertex 11.3605 -18.4073 1
      vertex 11.9587 -19.7831 0
      vertex 11.9587 -19.7831 1
    endloop
  endfacet
  facet normal -0.942875 -0.333147 0
    outer loop
      vertex 12.4964 -21.3049 0
      vertex 11.9587 -19.7831 1
      vertex 11.9587 -19.7831 0
    endloop
  endfacet
  facet normal -0.942875 -0.333147 0
    outer loop
      vertex 11.9587 -19.7831 1
      vertex 12.4964 -21.3049 0
      vertex 12.4964 -21.3049 1
    endloop
  endfacet
  facet normal -0.961404 -0.27514 0
    outer loop
      vertex 12.9737 -22.9727 0
      vertex 12.4964 -21.3049 1
      vertex 12.4964 -21.3049 0
    endloop
  endfacet
  facet normal -0.961404 -0.27514 0
    outer loop
      vertex 12.4964 -21.3049 1
      vertex 12.9737 -22.9727 0
      vertex 12.9737 -22.9727 1
    endloop
  endfacet
  facet normal -0.974596 -0.223969 0
    outer loop
      vertex 13.3905 -24.7864 0
      vertex 12.9737 -22.9727 1
      vertex 12.9737 -22.9727 0
    endloop
  endfacet
  facet normal -0.974596 -0.223969 0
    outer loop
      vertex 12.9737 -22.9727 1
      vertex 13.3905 -24.7864 0
      vertex 13.3905 -24.7864 1
    endloop
  endfacet
  facet normal -0.984002 -0.178156 0
    outer loop
      vertex 13.7496 -26.7698 0
      vertex 13.3905 -24.7864 1
      vertex 13.3905 -24.7864 0
    endloop
  endfacet
  facet normal -0.984002 -0.178156 0
    outer loop
      vertex 13.3905 -24.7864 1
      vertex 13.7496 -26.7698 0
      vertex 13.7496 -26.7698 1
    endloop
  endfacet
  facet normal -0.990393 -0.13828 0
    outer loop
      vertex 14.0535 -28.9464 0
      vertex 13.7496 -26.7698 1
      vertex 13.7496 -26.7698 0
    endloop
  endfacet
  facet normal -0.990393 -0.13828 0
    outer loop
      vertex 13.7496 -26.7698 1
      vertex 14.0535 -28.9464 0
      vertex 14.0535 -28.9464 1
    endloop
  endfacet
  facet normal -0.994538 -0.104372 0
    outer loop
      vertex 14.3022 -31.3162 0
      vertex 14.0535 -28.9464 1
      vertex 14.0535 -28.9464 0
    endloop
  endfacet
  facet normal -0.994538 -0.104372 0
    outer loop
      vertex 14.0535 -28.9464 1
      vertex 14.3022 -31.3162 0
      vertex 14.3022 -31.3162 1
    endloop
  endfacet
  facet normal -0.997165 -0.0752416 0
    outer loop
      vertex 14.4956 -33.8793 0
      vertex 14.3022 -31.3162 1
      vertex 14.3022 -31.3162 0
    endloop
  endfacet
  facet normal -0.997165 -0.0752416 0
    outer loop
      vertex 14.3022 -31.3162 1
      vertex 14.4956 -33.8793 0
      vertex 14.4956 -33.8793 1
    endloop
  endfacet
  facet normal -0.998747 -0.0500388 0
    outer loop
      vertex 14.6337 -36.6357 0
      vertex 14.4956 -33.8793 1
      vertex 14.4956 -33.8793 0
    endloop
  endfacet
  facet normal -0.998747 -0.0500388 0
    outer loop
      vertex 14.4956 -33.8793 1
      vertex 14.6337 -36.6357 0
      vertex 14.6337 -36.6357 1
    endloop
  endfacet
  facet normal -0.999605 -0.0280944 0
    outer loop
      vertex 14.7166 -39.5853 0
      vertex 14.6337 -36.6357 1
      vertex 14.6337 -36.6357 0
    endloop
  endfacet
  facet normal -0.999605 -0.0280944 0
    outer loop
      vertex 14.6337 -36.6357 1
      vertex 14.7166 -39.5853 0
      vertex 14.7166 -39.5853 1
    endloop
  endfacet
  facet normal -0.999961 -0.00878164 0
    outer loop
      vertex 14.7442 -42.7281 0
      vertex 14.7166 -39.5853 1
      vertex 14.7166 -39.5853 0
    endloop
  endfacet
  facet normal -0.999961 -0.00878164 0
    outer loop
      vertex 14.7166 -39.5853 1
      vertex 14.7442 -42.7281 0
      vertex 14.7442 -42.7281 1
    endloop
  endfacet
  facet normal -0.999894 0.0145377 0
    outer loop
      vertex 14.6785 -47.2469 0
      vertex 14.7442 -42.7281 1
      vertex 14.7442 -42.7281 0
    endloop
  endfacet
  facet normal -0.999894 0.0145377 0
    outer loop
      vertex 14.7442 -42.7281 1
      vertex 14.6785 -47.2469 0
      vertex 14.6785 -47.2469 1
    endloop
  endfacet
  facet normal -0.998862 0.0476926 0
    outer loop
      vertex 14.4812 -51.3791 0
      vertex 14.6785 -47.2469 1
      vertex 14.6785 -47.2469 0
    endloop
  endfacet
  facet normal -0.998862 0.0476926 0
    outer loop
      vertex 14.6785 -47.2469 1
      vertex 14.4812 -51.3791 0
      vertex 14.4812 -51.3791 1
    endloop
  endfacet
  facet normal -0.996172 0.087418 0
    outer loop
      vertex 14.1525 -55.1248 0
      vertex 14.4812 -51.3791 1
      vertex 14.4812 -51.3791 0
    endloop
  endfacet
  facet normal -0.996172 0.087418 0
    outer loop
      vertex 14.4812 -51.3791 1
      vertex 14.1525 -55.1248 0
      vertex 14.1525 -55.1248 1
    endloop
  endfacet
  facet normal -0.990746 0.135729 0
    outer loop
      vertex 13.6923 -58.484 0
      vertex 14.1525 -55.1248 1
      vertex 14.1525 -55.1248 0
    endloop
  endfacet
  facet normal -0.990746 0.135729 0
    outer loop
      vertex 14.1525 -55.1248 1
      vertex 13.6923 -58.484 0
      vertex 13.6923 -58.484 1
    endloop
  endfacet
  facet normal -0.98076 0.195215 0
    outer loop
      vertex 13.1006 -61.4567 0
      vertex 13.6923 -58.484 1
      vertex 13.6923 -58.484 0
    endloop
  endfacet
  facet normal -0.98076 0.195215 0
    outer loop
      vertex 13.6923 -58.484 1
      vertex 13.1006 -61.4567 0
      vertex 13.1006 -61.4567 1
    endloop
  endfacet
  facet normal -0.963054 0.269307 0
    outer loop
      vertex 12.3774 -64.0429 0
      vertex 13.1006 -61.4567 1
      vertex 13.1006 -61.4567 0
    endloop
  endfacet
  facet normal -0.963054 0.269307 0
    outer loop
      vertex 13.1006 -61.4567 1
      vertex 12.3774 -64.0429 0
      vertex 12.3774 -64.0429 1
    endloop
  endfacet
  facet normal -0.932119 0.362152 0
    outer loop
      vertex 11.5228 -66.2425 0
      vertex 12.3774 -64.0429 1
      vertex 12.3774 -64.0429 0
    endloop
  endfacet
  facet normal -0.932119 0.362152 0
    outer loop
      vertex 12.3774 -64.0429 1
      vertex 11.5228 -66.2425 0
      vertex 11.5228 -66.2425 1
    endloop
  endfacet
  facet normal -0.879662 0.4756 0
    outer loop
      vertex 10.5156 -68.1054 0
      vertex 11.5228 -66.2425 1
      vertex 11.5228 -66.2425 0
    endloop
  endfacet
  facet normal -0.879662 0.4756 0
    outer loop
      vertex 11.5228 -66.2425 1
      vertex 10.5156 -68.1054 0
      vertex 10.5156 -68.1054 1
    endloop
  endfacet
  facet normal -0.800348 0.599535 0
    outer loop
      vertex 9.33488 -69.6816 0
      vertex 10.5156 -68.1054 1
      vertex 10.5156 -68.1054 0
    endloop
  endfacet
  facet normal -0.800348 0.599535 0
    outer loop
      vertex 10.5156 -68.1054 1
      vertex 9.33488 -69.6816 0
      vertex 9.33488 -69.6816 1
    endloop
  endfacet
  facet normal -0.689648 0.724144 0
    outer loop
      vertex 9.33488 -69.6816 0
      vertex 7.98067 -70.9713 1
      vertex 9.33488 -69.6816 1
    endloop
  endfacet
  facet normal -0.689648 0.724144 0
    outer loop
      vertex 7.98067 -70.9713 1
      vertex 9.33488 -69.6816 0
      vertex 7.98067 -70.9713 0
    endloop
  endfacet
  facet normal -0.548817 0.835942 0
    outer loop
      vertex 7.98067 -70.9713 0
      vertex 6.45293 -71.9743 1
      vertex 7.98067 -70.9713 1
    endloop
  endfacet
  facet normal -0.548817 0.835942 0
    outer loop
      vertex 6.45293 -71.9743 1
      vertex 7.98067 -70.9713 0
      vertex 6.45293 -71.9743 0
    endloop
  endfacet
  facet normal -0.388142 0.9216 0
    outer loop
      vertex 6.45293 -71.9743 0
      vertex 4.75168 -72.6908 1
      vertex 6.45293 -71.9743 1
    endloop
  endfacet
  facet normal -0.388142 0.9216 0
    outer loop
      vertex 4.75168 -72.6908 1
      vertex 6.45293 -71.9743 0
      vertex 4.75168 -72.6908 0
    endloop
  endfacet
  facet normal -0.223507 0.974702 0
    outer loop
      vertex 4.75168 -72.6908 0
      vertex 2.87691 -73.1207 1
      vertex 4.75168 -72.6908 1
    endloop
  endfacet
  facet normal -0.223507 0.974702 0
    outer loop
      vertex 2.87691 -73.1207 1
      vertex 4.75168 -72.6908 0
      vertex 2.87691 -73.1207 0
    endloop
  endfacet
  facet normal -0.0697895 0.997562 0
    outer loop
      vertex 2.87691 -73.1207 0
      vertex 0.828598 -73.264 1
      vertex 2.87691 -73.1207 1
    endloop
  endfacet
  facet normal -0.0697895 0.997562 0
    outer loop
      vertex 0.828598 -73.264 1
      vertex 2.87691 -73.1207 0
      vertex 0.828598 -73.264 0
    endloop
  endfacet
  facet normal 0.0422691 0.999106 -0
    outer loop
      vertex 0.828598 -73.264 0
      vertex -0.632156 -73.2022 1
      vertex 0.828598 -73.264 1
    endloop
  endfacet
  facet normal 0.0422691 0.999106 0
    outer loop
      vertex -0.632156 -73.2022 1
      vertex 0.828598 -73.264 0
      vertex -0.632156 -73.2022 0
    endloop
  endfacet
  facet normal 0 1 -0
    outer loop
      vertex 7.78641 -34.4175 0
      vertex -6.06458 -34.4175 1
      vertex 7.78641 -34.4175 1
    endloop
  endfacet
  facet normal 0 1 0
    outer loop
      vertex -6.06458 -34.4175 1
      vertex 7.78641 -34.4175 0
      vertex -6.06458 -34.4175 0
    endloop
  endfacet
  facet normal -1 0 0
    outer loop
      vertex -6.06458 -50.4583 0
      vertex -6.06458 -34.4175 1
      vertex -6.06458 -34.4175 0
    endloop
  endfacet
  facet normal -1 -0 0
    outer loop
      vertex -6.06458 -34.4175 1
      vertex -6.06458 -50.4583 0
      vertex -6.06458 -50.4583 1
    endloop
  endfacet
  facet normal 0 -1 0
    outer loop
      vertex -6.06458 -50.4583 0
      vertex 7.78641 -50.4583 1
      vertex -6.06458 -50.4583 1
    endloop
  endfacet
  facet normal 0 -1 -0
    outer loop
      vertex 7.78641 -50.4583 1
      vertex -6.06458 -50.4583 0
      vertex 7.78641 -50.4583 0
    endloop
  endfacet
  facet normal 1 -0 0
    outer loop
      vertex 7.78641 -50.4583 1
      vertex 7.78641 -34.4175 0
      vertex 7.78641 -34.4175 1
    endloop
  endfacet
  facet normal 1 0 0
    outer loop
      vertex 7.78641 -34.4175 0
      vertex 7.78641 -50.4583 1
      vertex 7.78641 -50.4583 0
    endloop
  endfacet
endsolid OpenSCAD_Model
