solid OpenSCAD_Model
  facet normal 0 0 -1
    outer loop
      vertex -29.9001 -84.9062 0
      vertex -10.8963 -54.2412 0
      vertex -10.8963 -84.9062 0
    endloop
  endfacet
  facet normal -0 0 -1
    outer loop
      vertex -10.8963 -54.2412 0
      vertex -29.9001 -84.9062 0
      vertex -10.8963 -39.6178 0
    endloop
  endfacet
  facet normal 0 0 -1
    outer loop
      vertex -29.9001 1.99879 0
      vertex -10.8963 -39.6178 0
      vertex -29.9001 -84.9062 0
    endloop
  endfacet
  facet normal 0 0 -1
    outer loop
      vertex 15.7749 -25.7668 0
      vertex 34.908 -25.4448 0
      vertex 34.8277 -27.8685 0
    endloop
  endfacet
  facet normal 0 0 -1
    outer loop
      vertex 15.6947 -27.6502 0
      vertex 34.8277 -27.8685 0
      vertex 34.5871 -30.2068 0
    endloop
  endfacet
  facet normal 0 0 -1
    outer loop
      vertex 15.6888 -23.8429 0
      vertex 34.908 -25.4448 0
      vertex 15.7749 -25.7668 0
    endloop
  endfacet
  facet normal 0 0 -1
    outer loop
      vertex 15.6947 -27.6502 0
      vertex 34.5871 -30.2068 0
      vertex 34.1861 -32.4596 0
    endloop
  endfacet
  facet normal 0 0 -1
    outer loop
      vertex 15.4541 -29.3981 0
      vertex 34.1861 -32.4596 0
      vertex 33.6246 -34.627 0
    endloop
  endfacet
  facet normal 0 0 -1
    outer loop
      vertex 34.908 -25.4448 0
      vertex 15.6888 -23.8429 0
      vertex 34.7311 -21.73 0
    endloop
  endfacet
  facet normal 0 0 -1
    outer loop
      vertex 15.0531 -31.0106 0
      vertex 33.6246 -34.627 0
      vertex 32.9028 -36.7089 0
    endloop
  endfacet
  facet normal 0 0 -1
    outer loop
      vertex 15.4305 -22.0833 0
      vertex 34.7311 -21.73 0
      vertex 15.6888 -23.8429 0
    endloop
  endfacet
  facet normal 0 0 -1
    outer loop
      vertex 15.0531 -31.0106 0
      vertex 32.9028 -36.7089 0
      vertex 32.0205 -38.7053 0
    endloop
  endfacet
  facet normal 0 0 -1
    outer loop
      vertex 14.4916 -32.4877 0
      vertex 32.0205 -38.7053 0
      vertex 30.9778 -40.6163 0
    endloop
  endfacet
  facet normal -0 0 -1
    outer loop
      vertex 34.7311 -21.73 0
      vertex 15.4305 -22.0833 0
      vertex 34.2006 -18.2795 0
    endloop
  endfacet
  facet normal 0 0 -1
    outer loop
      vertex 14.4916 -32.4877 0
      vertex 30.9778 -40.6163 0
      vertex 29.7835 -42.4234 0
    endloop
  endfacet
  facet normal -0 0 -1
    outer loop
      vertex 34.2006 -18.2795 0
      vertex 15.4305 -22.0833 0
      vertex 33.3164 -15.0932 0
    endloop
  endfacet
  facet normal 0 0 -1
    outer loop
      vertex 13.7698 -33.8294 0
      vertex 29.7835 -42.4234 0
      vertex 28.4458 -44.1083 0
    endloop
  endfacet
  facet normal 0 0 -1
    outer loop
      vertex 13.7698 -33.8294 0
      vertex 28.4458 -44.1083 0
      vertex 26.9648 -45.6709 0
    endloop
  endfacet
  facet normal 0 0 -1
    outer loop
      vertex 14.9999 -20.4879 0
      vertex 33.3164 -15.0932 0
      vertex 15.4305 -22.0833 0
    endloop
  endfacet
  facet normal 0 0 -1
    outer loop
      vertex 12.8875 -35.0357 0
      vertex 26.9648 -45.6709 0
      vertex 25.3405 -47.1112 0
    endloop
  endfacet
  facet normal -0 0 -1
    outer loop
      vertex 33.3164 -15.0932 0
      vertex 14.9999 -20.4879 0
      vertex 32.0786 -12.1713 0
    endloop
  endfacet
  facet normal 0 0 -1
    outer loop
      vertex 12.8875 -35.0357 0
      vertex 25.3405 -47.1112 0
      vertex 23.5728 -48.4293 0
    endloop
  endfacet
  facet normal 0 0 -1
    outer loop
      vertex 11.8448 -36.1066 0
      vertex 23.5728 -48.4293 0
      vertex 21.6617 -49.6251 0
    endloop
  endfacet
  facet normal 0 0 -1
    outer loop
      vertex 14.397 -19.057 0
      vertex 32.0786 -12.1713 0
      vertex 14.9999 -20.4879 0
    endloop
  endfacet
  facet normal 0 0 -1
    outer loop
      vertex 11.8448 -36.1066 0
      vertex 21.6617 -49.6251 0
      vertex 19.6073 -50.6986 0
    endloop
  endfacet
  facet normal 0 0 -1
    outer loop
      vertex 10.6286 -37.0382 0
      vertex 19.6073 -50.6986 0
      vertex 17.4216 -51.6385 0
    endloop
  endfacet
  facet normal 0 0 -1
    outer loop
      vertex 34.8277 -27.8685 0
      vertex 15.6947 -27.6502 0
      vertex 15.7749 -25.7668 0
    endloop
  endfacet
  facet normal -0 0 -1
    outer loop
      vertex 30.4871 -9.51369 0
      vertex 14.397 -19.057 0
      vertex 28.5419 -7.12035 0
    endloop
  endfacet
  facet normal -0 0 -1
    outer loop
      vertex 32.0786 -12.1713 0
      vertex 14.397 -19.057 0
      vertex 30.4871 -9.51369 0
    endloop
  endfacet
  facet normal 0 0 -1
    outer loop
      vertex 34.1861 -32.4596 0
      vertex 15.4541 -29.3981 0
      vertex 15.6947 -27.6502 0
    endloop
  endfacet
  facet normal 0 0 -1
    outer loop
      vertex 9.22568 -37.8264 0
      vertex 17.4216 -51.6385 0
      vertex 15.1163 -52.4338 0
    endloop
  endfacet
  facet normal 0 0 -1
    outer loop
      vertex 33.6246 -34.627 0
      vertex 15.0531 -31.0106 0
      vertex 15.4541 -29.3981 0
    endloop
  endfacet
  facet normal 0 0 -1
    outer loop
      vertex 32.0205 -38.7053 0
      vertex 14.4916 -32.4877 0
      vertex 15.0531 -31.0106 0
    endloop
  endfacet
  facet normal 0 0 -1
    outer loop
      vertex 29.7835 -42.4234 0
      vertex 13.7698 -33.8294 0
      vertex 14.4916 -32.4877 0
    endloop
  endfacet
  facet normal 0 0 -1
    outer loop
      vertex 26.9648 -45.6709 0
      vertex 12.8875 -35.0357 0
      vertex 13.7698 -33.8294 0
    endloop
  endfacet
  facet normal 0 0 -1
    outer loop
      vertex 9.22568 -37.8264 0
      vertex 15.1163 -52.4338 0
      vertex 12.6913 -53.0844 0
    endloop
  endfacet
  facet normal 0 0 -1
    outer loop
      vertex 23.5728 -48.4293 0
      vertex 11.8448 -36.1066 0
      vertex 12.8875 -35.0357 0
    endloop
  endfacet
  facet normal 0 0 -1
    outer loop
      vertex 19.6073 -50.6986 0
      vertex 10.6286 -37.0382 0
      vertex 11.8448 -36.1066 0
    endloop
  endfacet
  facet normal 0 0 -1
    outer loop
      vertex 7.63611 -38.4713 0
      vertex 12.6913 -53.0844 0
      vertex 10.1467 -53.5905 0
    endloop
  endfacet
  facet normal 0 0 -1
    outer loop
      vertex 17.4216 -51.6385 0
      vertex 9.22568 -37.8264 0
      vertex 10.6286 -37.0382 0
    endloop
  endfacet
  facet normal 0 0 -1
    outer loop
      vertex 12.6913 -53.0844 0
      vertex 7.63611 -38.4713 0
      vertex 9.22568 -37.8264 0
    endloop
  endfacet
  facet normal 0 0 -1
    outer loop
      vertex 5.85988 -38.9729 0
      vertex 10.1467 -53.5905 0
      vertex 7.48235 -53.952 0
    endloop
  endfacet
  facet normal 0 0 -1
    outer loop
      vertex 10.1467 -53.5905 0
      vertex 5.85988 -38.9729 0
      vertex 7.63611 -38.4713 0
    endloop
  endfacet
  facet normal 0 0 -1
    outer loop
      vertex 3.89699 -39.3312 0
      vertex 7.48235 -53.952 0
      vertex 4.69838 -54.1689 0
    endloop
  endfacet
  facet normal 0 0 -1
    outer loop
      vertex 7.48235 -53.952 0
      vertex 3.89699 -39.3312 0
      vertex 5.85988 -38.9729 0
    endloop
  endfacet
  facet normal 0 0 -1
    outer loop
      vertex 1.74742 -39.5462 0
      vertex 4.69838 -54.1689 0
      vertex 1.79475 -54.2412 0
    endloop
  endfacet
  facet normal 0 0 -1
    outer loop
      vertex 4.69838 -54.1689 0
      vertex 1.74742 -39.5462 0
      vertex 3.89699 -39.3312 0
    endloop
  endfacet
  facet normal 0 0 -1
    outer loop
      vertex 1.79475 -54.2412 0
      vertex -0.588776 -39.6178 0
      vertex 1.74742 -39.5462 0
    endloop
  endfacet
  facet normal 0 0 -1
    outer loop
      vertex -10.8963 -54.2412 0
      vertex -0.588776 -39.6178 0
      vertex 1.79475 -54.2412 0
    endloop
  endfacet
  facet normal -0 0 -1
    outer loop
      vertex -0.588776 -39.6178 0
      vertex -10.8963 -54.2412 0
      vertex -10.8963 -39.6178 0
    endloop
  endfacet
  facet normal 0 0 -1
    outer loop
      vertex 13.6219 -17.7903 0
      vertex 28.5419 -7.12035 0
      vertex 14.397 -19.057 0
    endloop
  endfacet
  facet normal -0 0 -1
    outer loop
      vertex 28.5419 -7.12035 0
      vertex 13.6219 -17.7903 0
      vertex 26.243 -4.99129 0
    endloop
  endfacet
  facet normal 0 0 -1
    outer loop
      vertex 12.6746 -16.688 0
      vertex 26.243 -4.99129 0
      vertex 13.6219 -17.7903 0
    endloop
  endfacet
  facet normal -0 0 -1
    outer loop
      vertex 26.243 -4.99129 0
      vertex 12.6746 -16.688 0
      vertex 23.6063 -3.13678 0
    endloop
  endfacet
  facet normal -0 0 -1
    outer loop
      vertex 23.6063 -3.13678 0
      vertex 12.6746 -16.688 0
      vertex 20.6475 -1.56757 0
    endloop
  endfacet
  facet normal 0 0 -1
    outer loop
      vertex 11.5551 -15.75 0
      vertex 20.6475 -1.56757 0
      vertex 12.6746 -16.688 0
    endloop
  endfacet
  facet normal -0 0 -1
    outer loop
      vertex 20.6475 -1.56757 0
      vertex 11.5551 -15.75 0
      vertex 17.3666 -0.283676 0
    endloop
  endfacet
  facet normal 0 0 -1
    outer loop
      vertex 10.2633 -14.9551 0
      vertex 17.3666 -0.283676 0
      vertex 11.5551 -15.75 0
    endloop
  endfacet
  facet normal -0 0 -1
    outer loop
      vertex 17.3666 -0.283676 0
      vertex 10.2633 -14.9551 0
      vertex 13.7636 0.71489 0
    endloop
  endfacet
  facet normal 0 0 -1
    outer loop
      vertex 8.79929 -14.2825 0
      vertex 13.7636 0.71489 0
      vertex 10.2633 -14.9551 0
    endloop
  endfacet
  facet normal -0 0 -1
    outer loop
      vertex 13.7636 0.71489 0
      vertex 8.79929 -14.2825 0
      vertex 9.83864 1.42818 0
    endloop
  endfacet
  facet normal 0 0 -1
    outer loop
      vertex 7.16309 -13.7321 0
      vertex 9.83864 1.42818 0
      vertex 8.79929 -14.2825 0
    endloop
  endfacet
  facet normal 0 0 -1
    outer loop
      vertex 5.35469 -13.3041 0
      vertex 9.83864 1.42818 0
      vertex 7.16309 -13.7321 0
    endloop
  endfacet
  facet normal -0 0 -1
    outer loop
      vertex 9.83864 1.42818 0
      vertex 5.35469 -13.3041 0
      vertex 5.59155 1.85614 0
    endloop
  endfacet
  facet normal 0 0 -1
    outer loop
      vertex 3.3741 -12.9983 0
      vertex 5.59155 1.85614 0
      vertex 5.35469 -13.3041 0
    endloop
  endfacet
  facet normal 0 0 -1
    outer loop
      vertex 1.0224 1.99879 0
      vertex 3.3741 -12.9983 0
      vertex 1.2213 -12.8149 0
    endloop
  endfacet
  facet normal 0 0 -1
    outer loop
      vertex 3.3741 -12.9983 0
      vertex 1.0224 1.99879 0
      vertex 5.59155 1.85614 0
    endloop
  endfacet
  facet normal 0 0 -1
    outer loop
      vertex -1.10368 -12.7537 0
      vertex 1.0224 1.99879 0
      vertex 1.2213 -12.8149 0
    endloop
  endfacet
  facet normal 0 0 -1
    outer loop
      vertex -10.8963 -12.7537 0
      vertex 1.0224 1.99879 0
      vertex -1.10368 -12.7537 0
    endloop
  endfacet
  facet normal 0 0 -1
    outer loop
      vertex -10.8963 -12.7537 0
      vertex -29.9001 1.99879 0
      vertex 1.0224 1.99879 0
    endloop
  endfacet
  facet normal 0 0 -1
    outer loop
      vertex -10.8963 -39.6178 0
      vertex -29.9001 1.99879 0
      vertex -10.8963 -12.7537 0
    endloop
  endfacet
  facet normal 0 0 1
    outer loop
      vertex 34.908 -25.4448 1
      vertex 15.6888 -23.8429 1
      vertex 15.7749 -25.7668 1
    endloop
  endfacet
  facet normal 0 0 1
    outer loop
      vertex 20.6475 -1.56757 1
      vertex 15.4305 -22.0833 1
      vertex 15.6888 -23.8429 1
    endloop
  endfacet
  facet normal 0 0 1
    outer loop
      vertex 20.6475 -1.56757 1
      vertex 14.9999 -20.4879 1
      vertex 15.4305 -22.0833 1
    endloop
  endfacet
  facet normal 0 0 1
    outer loop
      vertex 20.6475 -1.56757 1
      vertex 14.397 -19.057 1
      vertex 14.9999 -20.4879 1
    endloop
  endfacet
  facet normal 0 0 1
    outer loop
      vertex 10.2633 -14.9551 1
      vertex 17.3666 -0.283676 1
      vertex 13.7636 0.71489 1
    endloop
  endfacet
  facet normal 0 0 1
    outer loop
      vertex 20.6475 -1.56757 1
      vertex 13.6219 -17.7903 1
      vertex 14.397 -19.057 1
    endloop
  endfacet
  facet normal 0 0 1
    outer loop
      vertex 20.6475 -1.56757 1
      vertex 12.6746 -16.688 1
      vertex 13.6219 -17.7903 1
    endloop
  endfacet
  facet normal 0 0 1
    outer loop
      vertex 20.6475 -1.56757 1
      vertex 11.5551 -15.75 1
      vertex 12.6746 -16.688 1
    endloop
  endfacet
  facet normal 0 0 1
    outer loop
      vertex 17.3666 -0.283676 1
      vertex 10.2633 -14.9551 1
      vertex 11.5551 -15.75 1
    endloop
  endfacet
  facet normal 0 0 1
    outer loop
      vertex 8.79929 -14.2825 1
      vertex 13.7636 0.71489 1
      vertex 9.83864 1.42818 1
    endloop
  endfacet
  facet normal 0 0 1
    outer loop
      vertex 13.7636 0.71489 1
      vertex 8.79929 -14.2825 1
      vertex 10.2633 -14.9551 1
    endloop
  endfacet
  facet normal 0 0 1
    outer loop
      vertex 9.83864 1.42818 1
      vertex 7.16309 -13.7321 1
      vertex 8.79929 -14.2825 1
    endloop
  endfacet
  facet normal 0 0 1
    outer loop
      vertex 5.35469 -13.3041 1
      vertex 9.83864 1.42818 1
      vertex 5.59155 1.85614 1
    endloop
  endfacet
  facet normal 0 0 1
    outer loop
      vertex 9.83864 1.42818 1
      vertex 5.35469 -13.3041 1
      vertex 7.16309 -13.7321 1
    endloop
  endfacet
  facet normal 0 0 1
    outer loop
      vertex 5.59155 1.85614 1
      vertex 3.3741 -12.9983 1
      vertex 5.35469 -13.3041 1
    endloop
  endfacet
  facet normal 0 0 1
    outer loop
      vertex 1.0224 1.99879 1
      vertex 3.3741 -12.9983 1
      vertex 5.59155 1.85614 1
    endloop
  endfacet
  facet normal 0 0 1
    outer loop
      vertex 3.3741 -12.9983 1
      vertex 1.0224 1.99879 1
      vertex 1.2213 -12.8149 1
    endloop
  endfacet
  facet normal 0 0 1
    outer loop
      vertex 1.0224 1.99879 1
      vertex -1.10368 -12.7537 1
      vertex 1.2213 -12.8149 1
    endloop
  endfacet
  facet normal 0 0 1
    outer loop
      vertex 1.0224 1.99879 1
      vertex -10.8963 -12.7537 1
      vertex -1.10368 -12.7537 1
    endloop
  endfacet
  facet normal 0 0 1
    outer loop
      vertex -29.9001 1.99879 1
      vertex -10.8963 -39.6178 1
      vertex -10.8963 -12.7537 1
    endloop
  endfacet
  facet normal 0 0 1
    outer loop
      vertex -29.9001 -84.9062 1
      vertex -10.8963 -39.6178 1
      vertex -29.9001 1.99879 1
    endloop
  endfacet
  facet normal -0 0 1
    outer loop
      vertex -29.9001 1.99879 1
      vertex -10.8963 -12.7537 1
      vertex 1.0224 1.99879 1
    endloop
  endfacet
  facet normal 0 0 1
    outer loop
      vertex -10.8963 -39.6178 1
      vertex -29.9001 -84.9062 1
      vertex -10.8963 -54.2412 1
    endloop
  endfacet
  facet normal 0 0 1
    outer loop
      vertex -10.8963 -54.2412 1
      vertex -29.9001 -84.9062 1
      vertex -10.8963 -84.9062 1
    endloop
  endfacet
  facet normal -0 0 1
    outer loop
      vertex 15.6888 -23.8429 1
      vertex 34.908 -25.4448 1
      vertex 34.7311 -21.73 1
    endloop
  endfacet
  facet normal 0 0 1
    outer loop
      vertex 34.908 -25.4448 1
      vertex 15.7749 -25.7668 1
      vertex 34.8277 -27.8685 1
    endloop
  endfacet
  facet normal 0 0 1
    outer loop
      vertex 15.6888 -23.8429 1
      vertex 34.7311 -21.73 1
      vertex 34.2006 -18.2795 1
    endloop
  endfacet
  facet normal -0 0 1
    outer loop
      vertex 15.6947 -27.6502 1
      vertex 34.8277 -27.8685 1
      vertex 15.7749 -25.7668 1
    endloop
  endfacet
  facet normal 0 0 1
    outer loop
      vertex 34.8277 -27.8685 1
      vertex 15.6947 -27.6502 1
      vertex 34.5871 -30.2068 1
    endloop
  endfacet
  facet normal 0 0 1
    outer loop
      vertex 15.6888 -23.8429 1
      vertex 34.2006 -18.2795 1
      vertex 33.3164 -15.0932 1
    endloop
  endfacet
  facet normal 0 0 1
    outer loop
      vertex 34.5871 -30.2068 1
      vertex 15.6947 -27.6502 1
      vertex 34.1861 -32.4596 1
    endloop
  endfacet
  facet normal 0 0 1
    outer loop
      vertex 15.6888 -23.8429 1
      vertex 33.3164 -15.0932 1
      vertex 32.0786 -12.1713 1
    endloop
  endfacet
  facet normal -0 0 1
    outer loop
      vertex 15.4541 -29.3981 1
      vertex 34.1861 -32.4596 1
      vertex 15.6947 -27.6502 1
    endloop
  endfacet
  facet normal 0 0 1
    outer loop
      vertex 34.1861 -32.4596 1
      vertex 15.4541 -29.3981 1
      vertex 33.6246 -34.627 1
    endloop
  endfacet
  facet normal 0 0 1
    outer loop
      vertex 15.6888 -23.8429 1
      vertex 32.0786 -12.1713 1
      vertex 30.4871 -9.51369 1
    endloop
  endfacet
  facet normal -0 0 1
    outer loop
      vertex 15.0531 -31.0106 1
      vertex 33.6246 -34.627 1
      vertex 15.4541 -29.3981 1
    endloop
  endfacet
  facet normal 0 0 1
    outer loop
      vertex 15.6888 -23.8429 1
      vertex 30.4871 -9.51369 1
      vertex 28.5419 -7.12035 1
    endloop
  endfacet
  facet normal 0 0 1
    outer loop
      vertex 33.6246 -34.627 1
      vertex 15.0531 -31.0106 1
      vertex 32.9028 -36.7089 1
    endloop
  endfacet
  facet normal 0 0 1
    outer loop
      vertex 32.9028 -36.7089 1
      vertex 15.0531 -31.0106 1
      vertex 32.0205 -38.7053 1
    endloop
  endfacet
  facet normal 0 0 1
    outer loop
      vertex 15.6888 -23.8429 1
      vertex 28.5419 -7.12035 1
      vertex 26.243 -4.99129 1
    endloop
  endfacet
  facet normal -0 0 1
    outer loop
      vertex 14.4916 -32.4877 1
      vertex 32.0205 -38.7053 1
      vertex 15.0531 -31.0106 1
    endloop
  endfacet
  facet normal 0 0 1
    outer loop
      vertex 15.6888 -23.8429 1
      vertex 26.243 -4.99129 1
      vertex 23.6063 -3.13678 1
    endloop
  endfacet
  facet normal 0 0 1
    outer loop
      vertex 32.0205 -38.7053 1
      vertex 14.4916 -32.4877 1
      vertex 30.9778 -40.6163 1
    endloop
  endfacet
  facet normal 0 0 1
    outer loop
      vertex 30.9778 -40.6163 1
      vertex 14.4916 -32.4877 1
      vertex 29.7835 -42.4234 1
    endloop
  endfacet
  facet normal 0 0 1
    outer loop
      vertex 15.6888 -23.8429 1
      vertex 23.6063 -3.13678 1
      vertex 20.6475 -1.56757 1
    endloop
  endfacet
  facet normal -0 0 1
    outer loop
      vertex 13.7698 -33.8294 1
      vertex 29.7835 -42.4234 1
      vertex 14.4916 -32.4877 1
    endloop
  endfacet
  facet normal 0 0 1
    outer loop
      vertex 29.7835 -42.4234 1
      vertex 13.7698 -33.8294 1
      vertex 28.4458 -44.1083 1
    endloop
  endfacet
  facet normal 0 0 1
    outer loop
      vertex 11.5551 -15.75 1
      vertex 20.6475 -1.56757 1
      vertex 17.3666 -0.283676 1
    endloop
  endfacet
  facet normal 0 0 1
    outer loop
      vertex 28.4458 -44.1083 1
      vertex 13.7698 -33.8294 1
      vertex 26.9648 -45.6709 1
    endloop
  endfacet
  facet normal -0 0 1
    outer loop
      vertex 12.8875 -35.0357 1
      vertex 26.9648 -45.6709 1
      vertex 13.7698 -33.8294 1
    endloop
  endfacet
  facet normal 0 0 1
    outer loop
      vertex 26.9648 -45.6709 1
      vertex 12.8875 -35.0357 1
      vertex 25.3405 -47.1112 1
    endloop
  endfacet
  facet normal 0 0 1
    outer loop
      vertex 25.3405 -47.1112 1
      vertex 12.8875 -35.0357 1
      vertex 23.5728 -48.4293 1
    endloop
  endfacet
  facet normal -0 0 1
    outer loop
      vertex 11.8448 -36.1066 1
      vertex 23.5728 -48.4293 1
      vertex 12.8875 -35.0357 1
    endloop
  endfacet
  facet normal 0 0 1
    outer loop
      vertex 23.5728 -48.4293 1
      vertex 11.8448 -36.1066 1
      vertex 21.6617 -49.6251 1
    endloop
  endfacet
  facet normal 0 0 1
    outer loop
      vertex 21.6617 -49.6251 1
      vertex 11.8448 -36.1066 1
      vertex 19.6073 -50.6986 1
    endloop
  endfacet
  facet normal -0 0 1
    outer loop
      vertex 10.6286 -37.0382 1
      vertex 19.6073 -50.6986 1
      vertex 11.8448 -36.1066 1
    endloop
  endfacet
  facet normal 0 0 1
    outer loop
      vertex 19.6073 -50.6986 1
      vertex 10.6286 -37.0382 1
      vertex 17.4216 -51.6385 1
    endloop
  endfacet
  facet normal -0 0 1
    outer loop
      vertex 9.22568 -37.8264 1
      vertex 17.4216 -51.6385 1
      vertex 10.6286 -37.0382 1
    endloop
  endfacet
  facet normal 0 0 1
    outer loop
      vertex 17.4216 -51.6385 1
      vertex 9.22568 -37.8264 1
      vertex 15.1163 -52.4338 1
    endloop
  endfacet
  facet normal 0 0 1
    outer loop
      vertex 15.1163 -52.4338 1
      vertex 9.22568 -37.8264 1
      vertex 12.6913 -53.0844 1
    endloop
  endfacet
  facet normal -0 0 1
    outer loop
      vertex 7.63611 -38.4713 1
      vertex 12.6913 -53.0844 1
      vertex 9.22568 -37.8264 1
    endloop
  endfacet
  facet normal 0 0 1
    outer loop
      vertex 12.6913 -53.0844 1
      vertex 7.63611 -38.4713 1
      vertex 10.1467 -53.5905 1
    endloop
  endfacet
  facet normal -0 0 1
    outer loop
      vertex 5.85988 -38.9729 1
      vertex 10.1467 -53.5905 1
      vertex 7.63611 -38.4713 1
    endloop
  endfacet
  facet normal 0 0 1
    outer loop
      vertex 10.1467 -53.5905 1
      vertex 5.85988 -38.9729 1
      vertex 7.48235 -53.952 1
    endloop
  endfacet
  facet normal -0 0 1
    outer loop
      vertex 3.89699 -39.3312 1
      vertex 7.48235 -53.952 1
      vertex 5.85988 -38.9729 1
    endloop
  endfacet
  facet normal 0 0 1
    outer loop
      vertex 7.48235 -53.952 1
      vertex 3.89699 -39.3312 1
      vertex 4.69838 -54.1689 1
    endloop
  endfacet
  facet normal -0 0 1
    outer loop
      vertex 1.74742 -39.5462 1
      vertex 4.69838 -54.1689 1
      vertex 3.89699 -39.3312 1
    endloop
  endfacet
  facet normal 0 0 1
    outer loop
      vertex 4.69838 -54.1689 1
      vertex 1.74742 -39.5462 1
      vertex 1.79475 -54.2412 1
    endloop
  endfacet
  facet normal -0 0 1
    outer loop
      vertex -0.588776 -39.6178 1
      vertex 1.79475 -54.2412 1
      vertex 1.74742 -39.5462 1
    endloop
  endfacet
  facet normal 0 0 1
    outer loop
      vertex -10.8963 -54.2412 1
      vertex -0.588776 -39.6178 1
      vertex -10.8963 -39.6178 1
    endloop
  endfacet
  facet normal 0 0 1
    outer loop
      vertex -0.588776 -39.6178 1
      vertex -10.8963 -54.2412 1
      vertex 1.79475 -54.2412 1
    endloop
  endfacet
  facet normal 0 -1 0
    outer loop
      vertex -10.8963 -54.2412 0
      vertex 1.79475 -54.2412 1
      vertex -10.8963 -54.2412 1
    endloop
  endfacet
  facet normal 0 -1 -0
    outer loop
      vertex 1.79475 -54.2412 1
      vertex -10.8963 -54.2412 0
      vertex 1.79475 -54.2412 0
    endloop
  endfacet
  facet normal 0.0248922 -0.99969 0
    outer loop
      vertex 1.79475 -54.2412 0
      vertex 4.69838 -54.1689 1
      vertex 1.79475 -54.2412 1
    endloop
  endfacet
  facet normal 0.0248922 -0.99969 0
    outer loop
      vertex 4.69838 -54.1689 1
      vertex 1.79475 -54.2412 0
      vertex 4.69838 -54.1689 0
    endloop
  endfacet
  facet normal 0.0776749 -0.996979 0
    outer loop
      vertex 4.69838 -54.1689 0
      vertex 7.48235 -53.952 1
      vertex 4.69838 -54.1689 1
    endloop
  endfacet
  facet normal 0.0776749 -0.996979 0
    outer loop
      vertex 7.48235 -53.952 1
      vertex 4.69838 -54.1689 0
      vertex 7.48235 -53.952 0
    endloop
  endfacet
  facet normal 0.134448 -0.990921 0
    outer loop
      vertex 7.48235 -53.952 0
      vertex 10.1467 -53.5905 1
      vertex 7.48235 -53.952 1
    endloop
  endfacet
  facet normal 0.134448 -0.990921 0
    outer loop
      vertex 10.1467 -53.5905 1
      vertex 7.48235 -53.952 0
      vertex 10.1467 -53.5905 0
    endloop
  endfacet
  facet normal 0.195071 -0.980789 0
    outer loop
      vertex 10.1467 -53.5905 0
      vertex 12.6913 -53.0844 1
      vertex 10.1467 -53.5905 1
    endloop
  endfacet
  facet normal 0.195071 -0.980789 0
    outer loop
      vertex 12.6913 -53.0844 1
      vertex 10.1467 -53.5905 0
      vertex 12.6913 -53.0844 0
    endloop
  endfacet
  facet normal 0.259125 -0.965844 0
    outer loop
      vertex 12.6913 -53.0844 0
      vertex 15.1163 -52.4338 1
      vertex 12.6913 -53.0844 1
    endloop
  endfacet
  facet normal 0.259125 -0.965844 0
    outer loop
      vertex 15.1163 -52.4338 1
      vertex 12.6913 -53.0844 0
      vertex 15.1163 -52.4338 0
    endloop
  endfacet
  facet normal 0.326126 -0.945326 0
    outer loop
      vertex 15.1163 -52.4338 0
      vertex 17.4216 -51.6385 1
      vertex 15.1163 -52.4338 1
    endloop
  endfacet
  facet normal 0.326126 -0.945326 0
    outer loop
      vertex 17.4216 -51.6385 1
      vertex 15.1163 -52.4338 0
      vertex 17.4216 -51.6385 0
    endloop
  endfacet
  facet normal 0.395045 -0.918662 0
    outer loop
      vertex 17.4216 -51.6385 0
      vertex 19.6073 -50.6986 1
      vertex 17.4216 -51.6385 1
    endloop
  endfacet
  facet normal 0.395045 -0.918662 0
    outer loop
      vertex 19.6073 -50.6986 1
      vertex 17.4216 -51.6385 0
      vertex 19.6073 -50.6986 0
    endloop
  endfacet
  facet normal 0.463122 -0.886295 0
    outer loop
      vertex 19.6073 -50.6986 0
      vertex 21.6617 -49.6251 1
      vertex 19.6073 -50.6986 1
    endloop
  endfacet
  facet normal 0.463122 -0.886295 0
    outer loop
      vertex 21.6617 -49.6251 1
      vertex 19.6073 -50.6986 0
      vertex 21.6617 -49.6251 0
    endloop
  endfacet
  facet normal 0.530433 -0.847727 0
    outer loop
      vertex 21.6617 -49.6251 0
      vertex 23.5728 -48.4293 1
      vertex 21.6617 -49.6251 1
    endloop
  endfacet
  facet normal 0.530433 -0.847727 0
    outer loop
      vertex 23.5728 -48.4293 1
      vertex 21.6617 -49.6251 0
      vertex 23.5728 -48.4293 0
    endloop
  endfacet
  facet normal 0.59777 -0.801668 0
    outer loop
      vertex 23.5728 -48.4293 0
      vertex 25.3405 -47.1112 1
      vertex 23.5728 -48.4293 1
    endloop
  endfacet
  facet normal 0.59777 -0.801668 0
    outer loop
      vertex 25.3405 -47.1112 1
      vertex 23.5728 -48.4293 0
      vertex 25.3405 -47.1112 0
    endloop
  endfacet
  facet normal 0.663457 -0.748214 0
    outer loop
      vertex 25.3405 -47.1112 0
      vertex 26.9648 -45.6709 1
      vertex 25.3405 -47.1112 1
    endloop
  endfacet
  facet normal 0.663457 -0.748214 0
    outer loop
      vertex 26.9648 -45.6709 1
      vertex 25.3405 -47.1112 0
      vertex 26.9648 -45.6709 0
    endloop
  endfacet
  facet normal 0.725804 -0.687902 0
    outer loop
      vertex 26.9648 -45.6709 1
      vertex 28.4458 -44.1083 0
      vertex 28.4458 -44.1083 1
    endloop
  endfacet
  facet normal 0.725804 -0.687902 0
    outer loop
      vertex 28.4458 -44.1083 0
      vertex 26.9648 -45.6709 1
      vertex 26.9648 -45.6709 0
    endloop
  endfacet
  facet normal 0.783181 -0.621794 0
    outer loop
      vertex 28.4458 -44.1083 1
      vertex 29.7835 -42.4234 0
      vertex 29.7835 -42.4234 1
    endloop
  endfacet
  facet normal 0.783181 -0.621794 0
    outer loop
      vertex 29.7835 -42.4234 0
      vertex 28.4458 -44.1083 1
      vertex 28.4458 -44.1083 0
    endloop
  endfacet
  facet normal 0.834267 -0.551361 0
    outer loop
      vertex 29.7835 -42.4234 1
      vertex 30.9778 -40.6163 0
      vertex 30.9778 -40.6163 1
    endloop
  endfacet
  facet normal 0.834267 -0.551361 0
    outer loop
      vertex 30.9778 -40.6163 0
      vertex 29.7835 -42.4234 1
      vertex 29.7835 -42.4234 0
    endloop
  endfacet
  facet normal 0.877831 -0.478971 0
    outer loop
      vertex 30.9778 -40.6163 1
      vertex 32.0205 -38.7053 0
      vertex 32.0205 -38.7053 1
    endloop
  endfacet
  facet normal 0.877831 -0.478971 0
    outer loop
      vertex 32.0205 -38.7053 0
      vertex 30.9778 -40.6163 1
      vertex 30.9778 -40.6163 0
    endloop
  endfacet
  facet normal 0.914658 -0.404229 0
    outer loop
      vertex 32.0205 -38.7053 1
      vertex 32.9028 -36.7089 0
      vertex 32.9028 -36.7089 1
    endloop
  endfacet
  facet normal 0.914658 -0.404229 0
    outer loop
      vertex 32.9028 -36.7089 0
      vertex 32.0205 -38.7053 1
      vertex 32.0205 -38.7053 0
    endloop
  endfacet
  facet normal 0.944826 -0.327573 0
    outer loop
      vertex 32.9028 -36.7089 1
      vertex 33.6246 -34.627 0
      vertex 33.6246 -34.627 1
    endloop
  endfacet
  facet normal 0.944826 -0.327573 0
    outer loop
      vertex 33.6246 -34.627 0
      vertex 32.9028 -36.7089 1
      vertex 32.9028 -36.7089 0
    endloop
  endfacet
  facet normal 0.968042 -0.250787 0
    outer loop
      vertex 33.6246 -34.627 1
      vertex 34.1861 -32.4596 0
      vertex 34.1861 -32.4596 1
    endloop
  endfacet
  facet normal 0.968042 -0.250787 0
    outer loop
      vertex 34.1861 -32.4596 0
      vertex 33.6246 -34.627 1
      vertex 33.6246 -34.627 0
    endloop
  endfacet
  facet normal 0.984525 -0.175246 0
    outer loop
      vertex 34.1861 -32.4596 1
      vertex 34.5871 -30.2068 0
      vertex 34.5871 -30.2068 1
    endloop
  endfacet
  facet normal 0.984525 -0.175246 0
    outer loop
      vertex 34.5871 -30.2068 0
      vertex 34.1861 -32.4596 1
      vertex 34.1861 -32.4596 0
    endloop
  endfacet
  facet normal 0.994748 -0.102355 0
    outer loop
      vertex 34.5871 -30.2068 1
      vertex 34.8277 -27.8685 0
      vertex 34.8277 -27.8685 1
    endloop
  endfacet
  facet normal 0.994748 -0.102355 0
    outer loop
      vertex 34.8277 -27.8685 0
      vertex 34.5871 -30.2068 1
      vertex 34.5871 -30.2068 0
    endloop
  endfacet
  facet normal 0.999452 -0.033113 0
    outer loop
      vertex 34.8277 -27.8685 1
      vertex 34.908 -25.4448 0
      vertex 34.908 -25.4448 1
    endloop
  endfacet
  facet normal 0.999452 -0.033113 0
    outer loop
      vertex 34.908 -25.4448 0
      vertex 34.8277 -27.8685 1
      vertex 34.8277 -27.8685 0
    endloop
  endfacet
  facet normal 0.998868 0.0475664 0
    outer loop
      vertex 34.908 -25.4448 1
      vertex 34.7311 -21.73 0
      vertex 34.7311 -21.73 1
    endloop
  endfacet
  facet normal 0.998868 0.0475664 0
    outer loop
      vertex 34.7311 -21.73 0
      vertex 34.908 -25.4448 1
      vertex 34.908 -25.4448 0
    endloop
  endfacet
  facet normal 0.988387 0.15196 0
    outer loop
      vertex 34.7311 -21.73 1
      vertex 34.2006 -18.2795 0
      vertex 34.2006 -18.2795 1
    endloop
  endfacet
  facet normal 0.988387 0.15196 0
    outer loop
      vertex 34.2006 -18.2795 0
      vertex 34.7311 -21.73 1
      vertex 34.7311 -21.73 0
    endloop
  endfacet
  facet normal 0.963587 0.267396 0
    outer loop
      vertex 34.2006 -18.2795 1
      vertex 33.3164 -15.0932 0
      vertex 33.3164 -15.0932 1
    endloop
  endfacet
  facet normal 0.963587 0.267396 0
    outer loop
      vertex 33.3164 -15.0932 0
      vertex 34.2006 -18.2795 1
      vertex 34.2006 -18.2795 0
    endloop
  endfacet
  facet normal 0.920785 0.390071 0
    outer loop
      vertex 33.3164 -15.0932 1
      vertex 32.0786 -12.1713 0
      vertex 32.0786 -12.1713 1
    endloop
  endfacet
  facet normal 0.920785 0.390071 0
    outer loop
      vertex 32.0786 -12.1713 0
      vertex 33.3164 -15.0932 1
      vertex 33.3164 -15.0932 0
    endloop
  endfacet
  facet normal 0.857929 0.513768 0
    outer loop
      vertex 32.0786 -12.1713 1
      vertex 30.4871 -9.51369 0
      vertex 30.4871 -9.51369 1
    endloop
  endfacet
  facet normal 0.857929 0.513768 0
    outer loop
      vertex 30.4871 -9.51369 0
      vertex 32.0786 -12.1713 1
      vertex 32.0786 -12.1713 0
    endloop
  endfacet
  facet normal 0.776017 0.630712 0
    outer loop
      vertex 30.4871 -9.51369 1
      vertex 28.5419 -7.12035 0
      vertex 28.5419 -7.12035 1
    endloop
  endfacet
  facet normal 0.776017 0.630712 0
    outer loop
      vertex 28.5419 -7.12035 0
      vertex 30.4871 -9.51369 1
      vertex 30.4871 -9.51369 0
    endloop
  endfacet
  facet normal 0.679485 0.733689 -0
    outer loop
      vertex 28.5419 -7.12035 0
      vertex 26.243 -4.99129 1
      vertex 28.5419 -7.12035 1
    endloop
  endfacet
  facet normal 0.679485 0.733689 0
    outer loop
      vertex 26.243 -4.99129 1
      vertex 28.5419 -7.12035 0
      vertex 26.243 -4.99129 0
    endloop
  endfacet
  facet normal 0.575297 0.817944 -0
    outer loop
      vertex 26.243 -4.99129 0
      vertex 23.6063 -3.13678 1
      vertex 26.243 -4.99129 1
    endloop
  endfacet
  facet normal 0.575297 0.817944 0
    outer loop
      vertex 23.6063 -3.13678 1
      vertex 26.243 -4.99129 0
      vertex 23.6063 -3.13678 0
    endloop
  endfacet
  facet normal 0.468537 0.883444 -0
    outer loop
      vertex 23.6063 -3.13678 0
      vertex 20.6475 -1.56757 1
      vertex 23.6063 -3.13678 1
    endloop
  endfacet
  facet normal 0.468537 0.883444 0
    outer loop
      vertex 20.6475 -1.56757 1
      vertex 23.6063 -3.13678 0
      vertex 20.6475 -1.56757 0
    endloop
  endfacet
  facet normal 0.364415 0.931237 -0
    outer loop
      vertex 20.6475 -1.56757 0
      vertex 17.3666 -0.283676 1
      vertex 20.6475 -1.56757 1
    endloop
  endfacet
  facet normal 0.364415 0.931237 0
    outer loop
      vertex 17.3666 -0.283676 1
      vertex 20.6475 -1.56757 0
      vertex 17.3666 -0.283676 0
    endloop
  endfacet
  facet normal 0.267081 0.963674 -0
    outer loop
      vertex 17.3666 -0.283676 0
      vertex 13.7636 0.71489 1
      vertex 17.3666 -0.283676 1
    endloop
  endfacet
  facet normal 0.267081 0.963674 0
    outer loop
      vertex 13.7636 0.71489 1
      vertex 17.3666 -0.283676 0
      vertex 13.7636 0.71489 0
    endloop
  endfacet
  facet normal 0.178803 0.983885 -0
    outer loop
      vertex 13.7636 0.71489 0
      vertex 9.83864 1.42818 1
      vertex 13.7636 0.71489 1
    endloop
  endfacet
  facet normal 0.178803 0.983885 0
    outer loop
      vertex 9.83864 1.42818 1
      vertex 13.7636 0.71489 0
      vertex 9.83864 1.42818 0
    endloop
  endfacet
  facet normal 0.100258 0.994961 -0
    outer loop
      vertex 9.83864 1.42818 0
      vertex 5.59155 1.85614 1
      vertex 9.83864 1.42818 1
    endloop
  endfacet
  facet normal 0.100258 0.994961 0
    outer loop
      vertex 5.59155 1.85614 1
      vertex 9.83864 1.42818 0
      vertex 5.59155 1.85614 0
    endloop
  endfacet
  facet normal 0.031205 0.999513 -0
    outer loop
      vertex 5.59155 1.85614 0
      vertex 1.0224 1.99879 1
      vertex 5.59155 1.85614 1
    endloop
  endfacet
  facet normal 0.031205 0.999513 0
    outer loop
      vertex 1.0224 1.99879 1
      vertex 5.59155 1.85614 0
      vertex 1.0224 1.99879 0
    endloop
  endfacet
  facet normal 0 1 -0
    outer loop
      vertex 1.0224 1.99879 0
      vertex -29.9001 1.99879 1
      vertex 1.0224 1.99879 1
    endloop
  endfacet
  facet normal 0 1 0
    outer loop
      vertex -29.9001 1.99879 1
      vertex 1.0224 1.99879 0
      vertex -29.9001 1.99879 0
    endloop
  endfacet
  facet normal -1 0 0
    outer loop
      vertex -29.9001 -84.9062 0
      vertex -29.9001 1.99879 1
      vertex -29.9001 1.99879 0
    endloop
  endfacet
  facet normal -1 -0 0
    outer loop
      vertex -29.9001 1.99879 1
      vertex -29.9001 -84.9062 0
      vertex -29.9001 -84.9062 1
    endloop
  endfacet
  facet normal 0 -1 0
    outer loop
      vertex -29.9001 -84.9062 0
      vertex -10.8963 -84.9062 1
      vertex -29.9001 -84.9062 1
    endloop
  endfacet
  facet normal 0 -1 -0
    outer loop
      vertex -10.8963 -84.9062 1
      vertex -29.9001 -84.9062 0
      vertex -10.8963 -84.9062 0
    endloop
  endfacet
  facet normal 1 -0 0
    outer loop
      vertex -10.8963 -84.9062 1
      vertex -10.8963 -54.2412 0
      vertex -10.8963 -54.2412 1
    endloop
  endfacet
  facet normal 1 0 0
    outer loop
      vertex -10.8963 -54.2412 0
      vertex -10.8963 -84.9062 1
      vertex -10.8963 -84.9062 0
    endloop
  endfacet
  facet normal 1 -0 0
    outer loop
      vertex -10.8963 -39.6178 1
      vertex -10.8963 -12.7537 0
      vertex -10.8963 -12.7537 1
    endloop
  endfacet
  facet normal 1 0 0
    outer loop
      vertex -10.8963 -12.7537 0
      vertex -10.8963 -39.6178 1
      vertex -10.8963 -39.6178 0
    endloop
  endfacet
  facet normal 0 -1 0
    outer loop
      vertex -10.8963 -12.7537 0
      vertex -1.10368 -12.7537 1
      vertex -10.8963 -12.7537 1
    endloop
  endfacet
  facet normal 0 -1 -0
    outer loop
      vertex -1.10368 -12.7537 1
      vertex -10.8963 -12.7537 0
      vertex -1.10368 -12.7537 0
    endloop
  endfacet
  facet normal -0.0263137 -0.999654 0
    outer loop
      vertex -1.10368 -12.7537 0
      vertex 1.2213 -12.8149 1
      vertex -1.10368 -12.7537 1
    endloop
  endfacet
  facet normal -0.0263137 -0.999654 -0
    outer loop
      vertex 1.2213 -12.8149 1
      vertex -1.10368 -12.7537 0
      vertex 1.2213 -12.8149 0
    endloop
  endfacet
  facet normal -0.0848839 -0.996391 0
    outer loop
      vertex 1.2213 -12.8149 0
      vertex 3.3741 -12.9983 1
      vertex 1.2213 -12.8149 1
    endloop
  endfacet
  facet normal -0.0848839 -0.996391 -0
    outer loop
      vertex 3.3741 -12.9983 1
      vertex 1.2213 -12.8149 0
      vertex 3.3741 -12.9983 0
    endloop
  endfacet
  facet normal -0.15259 -0.98829 0
    outer loop
      vertex 3.3741 -12.9983 0
      vertex 5.35469 -13.3041 1
      vertex 3.3741 -12.9983 1
    endloop
  endfacet
  facet normal -0.15259 -0.98829 -0
    outer loop
      vertex 5.35469 -13.3041 1
      vertex 3.3741 -12.9983 0
      vertex 5.35469 -13.3041 0
    endloop
  endfacet
  facet normal -0.230311 -0.973117 0
    outer loop
      vertex 5.35469 -13.3041 0
      vertex 7.16309 -13.7321 1
      vertex 5.35469 -13.3041 1
    endloop
  endfacet
  facet normal -0.230311 -0.973117 -0
    outer loop
      vertex 7.16309 -13.7321 1
      vertex 5.35469 -13.3041 0
      vertex 7.16309 -13.7321 0
    endloop
  endfacet
  facet normal -0.318833 -0.947811 0
    outer loop
      vertex 7.16309 -13.7321 0
      vertex 8.79929 -14.2825 1
      vertex 7.16309 -13.7321 1
    endloop
  endfacet
  facet normal -0.318833 -0.947811 -0
    outer loop
      vertex 8.79929 -14.2825 1
      vertex 7.16309 -13.7321 0
      vertex 8.79929 -14.2825 0
    endloop
  endfacet
  facet normal -0.417473 -0.908689 0
    outer loop
      vertex 8.79929 -14.2825 0
      vertex 10.2633 -14.9551 1
      vertex 8.79929 -14.2825 1
    endloop
  endfacet
  facet normal -0.417473 -0.908689 -0
    outer loop
      vertex 10.2633 -14.9551 1
      vertex 8.79929 -14.2825 0
      vertex 10.2633 -14.9551 0
    endloop
  endfacet
  facet normal -0.524072 -0.851674 0
    outer loop
      vertex 10.2633 -14.9551 0
      vertex 11.5551 -15.75 1
      vertex 10.2633 -14.9551 1
    endloop
  endfacet
  facet normal -0.524072 -0.851674 -0
    outer loop
      vertex 11.5551 -15.75 1
      vertex 10.2633 -14.9551 0
      vertex 11.5551 -15.75 0
    endloop
  endfacet
  facet normal -0.642236 -0.766507 0
    outer loop
      vertex 11.5551 -15.75 0
      vertex 12.6746 -16.688 1
      vertex 11.5551 -15.75 1
    endloop
  endfacet
  facet normal -0.642236 -0.766507 -0
    outer loop
      vertex 12.6746 -16.688 1
      vertex 11.5551 -15.75 0
      vertex 12.6746 -16.688 0
    endloop
  endfacet
  facet normal -0.758416 -0.651771 0
    outer loop
      vertex 13.6219 -17.7903 0
      vertex 12.6746 -16.688 1
      vertex 12.6746 -16.688 0
    endloop
  endfacet
  facet normal -0.758416 -0.651771 0
    outer loop
      vertex 12.6746 -16.688 1
      vertex 13.6219 -17.7903 0
      vertex 13.6219 -17.7903 1
    endloop
  endfacet
  facet normal -0.85298 -0.521943 0
    outer loop
      vertex 14.397 -19.057 0
      vertex 13.6219 -17.7903 1
      vertex 13.6219 -17.7903 0
    endloop
  endfacet
  facet normal -0.85298 -0.521943 0
    outer loop
      vertex 13.6219 -17.7903 1
      vertex 14.397 -19.057 0
      vertex 14.397 -19.057 1
    endloop
  endfacet
  facet normal -0.92154 -0.388284 0
    outer loop
      vertex 14.9999 -20.4879 0
      vertex 14.397 -19.057 1
      vertex 14.397 -19.057 0
    endloop
  endfacet
  facet normal -0.92154 -0.388284 0
    outer loop
      vertex 14.397 -19.057 1
      vertex 14.9999 -20.4879 0
      vertex 14.9999 -20.4879 1
    endloop
  endfacet
  facet normal -0.965453 -0.260577 0
    outer loop
      vertex 15.4305 -22.0833 0
      vertex 14.9999 -20.4879 1
      vertex 14.9999 -20.4879 0
    endloop
  endfacet
  facet normal -0.965453 -0.260577 0
    outer loop
      vertex 14.9999 -20.4879 1
      vertex 15.4305 -22.0833 0
      vertex 15.4305 -22.0833 1
    endloop
  endfacet
  facet normal -0.989397 -0.145238 0
    outer loop
      vertex 15.6888 -23.8429 0
      vertex 15.4305 -22.0833 1
      vertex 15.4305 -22.0833 0
    endloop
  endfacet
  facet normal -0.989397 -0.145238 0
    outer loop
      vertex 15.4305 -22.0833 1
      vertex 15.6888 -23.8429 0
      vertex 15.6888 -23.8429 1
    endloop
  endfacet
  facet normal -0.999 -0.0447081 0
    outer loop
      vertex 15.7749 -25.7668 0
      vertex 15.6888 -23.8429 1
      vertex 15.6888 -23.8429 0
    endloop
  endfacet
  facet normal -0.999 -0.0447081 0
    outer loop
      vertex 15.6888 -23.8429 1
      vertex 15.7749 -25.7668 0
      vertex 15.7749 -25.7668 1
    endloop
  endfacet
  facet normal -0.999095 0.042544 0
    outer loop
      vertex 15.6947 -27.6502 0
      vertex 15.7749 -25.7668 1
      vertex 15.7749 -25.7668 0
    endloop
  endfacet
  facet normal -0.999095 0.042544 0
    outer loop
      vertex 15.7749 -25.7668 1
      vertex 15.6947 -27.6502 0
      vertex 15.6947 -27.6502 1
    endloop
  endfacet
  facet normal -0.990659 0.136365 0
    outer loop
      vertex 15.4541 -29.3981 0
      vertex 15.6947 -27.6502 1
      vertex 15.6947 -27.6502 0
    endloop
  endfacet
  facet normal -0.990659 0.136365 0
    outer loop
      vertex 15.6947 -27.6502 1
      vertex 15.4541 -29.3981 0
      vertex 15.4541 -29.3981 1
    endloop
  endfacet
  facet normal -0.970443 0.241332 0
    outer loop
      vertex 15.0531 -31.0106 0
      vertex 15.4541 -29.3981 1
      vertex 15.4541 -29.3981 0
    endloop
  endfacet
  facet normal -0.970443 0.241332 0
    outer loop
      vertex 15.4541 -29.3981 1
      vertex 15.0531 -31.0106 0
      vertex 15.0531 -31.0106 1
    endloop
  endfacet
  facet normal -0.934741 0.355329 0
    outer loop
      vertex 14.4916 -32.4877 0
      vertex 15.0531 -31.0106 1
      vertex 15.0531 -31.0106 0
    endloop
  endfacet
  facet normal -0.934741 0.355329 0
    outer loop
      vertex 15.0531 -31.0106 1
      vertex 14.4916 -32.4877 0
      vertex 14.4916 -32.4877 1
    endloop
  endfacet
  facet normal -0.88065 0.473767 0
    outer loop
      vertex 13.7698 -33.8294 0
      vertex 14.4916 -32.4877 1
      vertex 14.4916 -32.4877 0
    endloop
  endfacet
  facet normal -0.88065 0.473767 0
    outer loop
      vertex 14.4916 -32.4877 1
      vertex 13.7698 -33.8294 0
      vertex 13.7698 -33.8294 1
    endloop
  endfacet
  facet normal -0.807145 0.590354 0
    outer loop
      vertex 12.8875 -35.0357 0
      vertex 13.7698 -33.8294 1
      vertex 13.7698 -33.8294 0
    endloop
  endfacet
  facet normal -0.807145 0.590354 0
    outer loop
      vertex 13.7698 -33.8294 1
      vertex 12.8875 -35.0357 0
      vertex 12.8875 -35.0357 1
    endloop
  endfacet
  facet normal -0.716477 0.69761 0
    outer loop
      vertex 11.8448 -36.1066 0
      vertex 12.8875 -35.0357 1
      vertex 12.8875 -35.0357 0
    endloop
  endfacet
  facet normal -0.716477 0.69761 0
    outer loop
      vertex 12.8875 -35.0357 1
      vertex 11.8448 -36.1066 0
      vertex 11.8448 -36.1066 1
    endloop
  endfacet
  facet normal -0.608094 0.793865 0
    outer loop
      vertex 11.8448 -36.1066 0
      vertex 10.6286 -37.0382 1
      vertex 11.8448 -36.1066 1
    endloop
  endfacet
  facet normal -0.608094 0.793865 0
    outer loop
      vertex 10.6286 -37.0382 1
      vertex 11.8448 -36.1066 0
      vertex 10.6286 -37.0382 0
    endloop
  endfacet
  facet normal -0.489816 0.871826 0
    outer loop
      vertex 10.6286 -37.0382 0
      vertex 9.22568 -37.8264 1
      vertex 10.6286 -37.0382 1
    endloop
  endfacet
  facet normal -0.489816 0.871826 0
    outer loop
      vertex 9.22568 -37.8264 1
      vertex 10.6286 -37.0382 0
      vertex 9.22568 -37.8264 0
    endloop
  endfacet
  facet normal -0.375945 0.926642 0
    outer loop
      vertex 9.22568 -37.8264 0
      vertex 7.63611 -38.4713 1
      vertex 9.22568 -37.8264 1
    endloop
  endfacet
  facet normal -0.375945 0.926642 0
    outer loop
      vertex 7.63611 -38.4713 1
      vertex 9.22568 -37.8264 0
      vertex 7.63611 -38.4713 0
    endloop
  endfacet
  facet normal -0.271767 0.962363 0
    outer loop
      vertex 7.63611 -38.4713 0
      vertex 5.85988 -38.9729 1
      vertex 7.63611 -38.4713 1
    endloop
  endfacet
  facet normal -0.271767 0.962363 0
    outer loop
      vertex 5.85988 -38.9729 1
      vertex 7.63611 -38.4713 0
      vertex 5.85988 -38.9729 0
    endloop
  endfacet
  facet normal -0.17957 0.983745 0
    outer loop
      vertex 5.85988 -38.9729 0
      vertex 3.89699 -39.3312 1
      vertex 5.85988 -38.9729 1
    endloop
  endfacet
  facet normal -0.17957 0.983745 0
    outer loop
      vertex 3.89699 -39.3312 1
      vertex 5.85988 -38.9729 0
      vertex 3.89699 -39.3312 0
    endloop
  endfacet
  facet normal -0.0995234 0.995035 0
    outer loop
      vertex 3.89699 -39.3312 0
      vertex 1.74742 -39.5462 1
      vertex 3.89699 -39.3312 1
    endloop
  endfacet
  facet normal -0.0995234 0.995035 0
    outer loop
      vertex 1.74742 -39.5462 1
      vertex 3.89699 -39.3312 0
      vertex 1.74742 -39.5462 0
    endloop
  endfacet
  facet normal -0.0306337 0.999531 0
    outer loop
      vertex 1.74742 -39.5462 0
      vertex -0.588776 -39.6178 1
      vertex 1.74742 -39.5462 1
    endloop
  endfacet
  facet normal -0.0306337 0.999531 0
    outer loop
      vertex -0.588776 -39.6178 1
      vertex 1.74742 -39.5462 0
      vertex -0.588776 -39.6178 0
    endloop
  endfacet
  facet normal 0 1 -0
    outer loop
      vertex -0.588776 -39.6178 0
      vertex -10.8963 -39.6178 1
      vertex -0.588776 -39.6178 1
    endloop
  endfacet
  facet normal 0 1 0
    outer loop
      vertex -10.8963 -39.6178 1
      vertex -0.588776 -39.6178 0
      vertex -10.8963 -39.6178 0
    endloop
  endfacet
endsolid OpenSCAD_Model
