<?xml version="1.0" standalone="no"?>
<!DOCTYPE svg PUBLIC "-//W3C//DTD SVG 1.1//EN" "http://www.w3.org/Graphics/SVG/1.1/DTD/svg11.dtd">
<svg width="65mm" height="87mm" viewBox="-30 -2 65 87" xmlns="http://www.w3.org/2000/svg" version="1.1">
<title>OpenSCAD Model</title>
<path d="
M -10.8963,54.2412 L 1.79475,54.2412 L 4.69838,54.1689 L 7.48235,53.952 L 10.1467,53.5905 L 12.6913,53.0844
 L 15.1163,52.4338 L 17.4216,51.6385 L 19.6073,50.6986 L 21.6617,49.6251 L 23.5728,48.4293 L 25.3405,47.1112
 L 26.9648,45.6709 L 28.4458,44.1083 L 29.7835,42.4234 L 30.9778,40.6163 L 32.0205,38.7053 L 32.9028,36.7089
 L 33.6246,34.627 L 34.1861,32.4596 L 34.5871,30.2068 L 34.8277,27.8685 L 34.908,25.4448 L 34.7311,21.73
 L 34.2006,18.2795 L 33.3164,15.0932 L 32.0786,12.1713 L 30.4871,9.51369 L 28.5419,7.12035 L 26.243,4.99129
 L 23.6063,3.13678 L 20.6475,1.56757 L 17.3666,0.283676 L 13.7636,-0.71489 L 9.83864,-1.42818 L 5.59155,-1.85614
 L 1.0224,-1.99879 L -29.9001,-1.99879 L -29.9001,84.9062 L -10.8963,84.9062 z
M -10.8963,39.6178 L -10.8963,12.7537 L -1.10368,12.7537 L 1.2213,12.8149 L 3.3741,12.9983 L 5.35469,13.3041
 L 7.16309,13.7321 L 8.79929,14.2825 L 10.2633,14.9551 L 11.5551,15.75 L 12.6746,16.688 L 13.6219,17.7903
 L 14.397,19.057 L 14.9999,20.4879 L 15.4305,22.0833 L 15.6888,23.8429 L 15.7749,25.7668 L 15.6947,27.6502
 L 15.4541,29.3981 L 15.0531,31.0106 L 14.4916,32.4877 L 13.7698,33.8294 L 12.8875,35.0357 L 11.8448,36.1066
 L 10.6286,37.0382 L 9.22568,37.8264 L 7.63611,38.4713 L 5.85988,38.9729 L 3.89699,39.3312 L 1.74742,39.5462
 L -0.588776,39.6178 z
" stroke="black" fill="lightgray" stroke-width="0.5"/>
</svg>
