solid OpenSCAD_Model
  facet normal 0 0 -1
    outer loop
      vertex 34.908 -84.9062 0
      vertex 14.0992 -71.4419 0
      vertex 34.908 -71.4419 0
    endloop
  endfacet
  facet normal 0 0 -1
    outer loop
      vertex -4.00308 -14.0419 0
      vertex 14.0992 1.99879 0
      vertex 14.0992 -71.4419 0
    endloop
  endfacet
  facet normal 0 0 -1
    outer loop
      vertex -4.00308 -14.0419 0
      vertex 14.0992 -71.4419 0
      vertex -4.00308 -71.4419 0
    endloop
  endfacet
  facet normal 0 0 -1
    outer loop
      vertex 34.908 -84.9062 0
      vertex -4.00308 -71.4419 0
      vertex 14.0992 -71.4419 0
    endloop
  endfacet
  facet normal 0 0 -1
    outer loop
      vertex -29.0631 -84.9062 0
      vertex -4.00308 -71.4419 0
      vertex 34.908 -84.9062 0
    endloop
  endfacet
  facet normal -0 0 -1
    outer loop
      vertex -4.00308 -71.4419 0
      vertex -29.0631 -84.9062 0
      vertex -29.0631 -71.4419 0
    endloop
  endfacet
  facet normal 0 0 -1
    outer loop
      vertex -4.13857 0.0897827 0
      vertex 14.0992 1.99879 0
      vertex -4.00308 -14.0419 0
    endloop
  endfacet
  facet normal -0 0 -1
    outer loop
      vertex 14.0992 1.99879 0
      vertex -4.13857 0.0897827 0
      vertex -3.03693 1.99879 0
    endloop
  endfacet
  facet normal 0 0 -1
    outer loop
      vertex -11.7772 -7.64117 0
      vertex -4.00308 -14.0419 0
      vertex -4.82289 -15.5172 0
    endloop
  endfacet
  facet normal 0 0 -1
    outer loop
      vertex -4.00308 -14.0419 0
      vertex -5.38223 -1.69829 0
      vertex -4.13857 0.0897827 0
    endloop
  endfacet
  facet normal 0 0 -1
    outer loop
      vertex -11.7772 -7.64117 0
      vertex -4.82289 -15.5172 0
      vertex -5.84647 -16.924 0
    endloop
  endfacet
  facet normal 0 0 -1
    outer loop
      vertex -4.00308 -14.0419 0
      vertex -6.76793 -3.36542 0
      vertex -5.38223 -1.69829 0
    endloop
  endfacet
  facet normal 0 0 -1
    outer loop
      vertex -13.7311 -8.82454 0
      vertex -5.84647 -16.924 0
      vertex -7.07381 -18.2626 0
    endloop
  endfacet
  facet normal 0 0 -1
    outer loop
      vertex -4.00308 -14.0419 0
      vertex -8.29567 -4.91161 0
      vertex -6.76793 -3.36542 0
    endloop
  endfacet
  facet normal 0 0 -1
    outer loop
      vertex -13.7311 -8.82454 0
      vertex -7.07381 -18.2626 0
      vertex -8.50491 -19.5327 0
    endloop
  endfacet
  facet normal 0 0 -1
    outer loop
      vertex -4.00308 -14.0419 0
      vertex -9.96544 -6.33687 0
      vertex -8.29567 -4.91161 0
    endloop
  endfacet
  facet normal 0 0 -1
    outer loop
      vertex -15.7938 -9.86699 0
      vertex -8.50491 -19.5327 0
      vertex -10.1398 -20.7345 0
    endloop
  endfacet
  facet normal 0 0 -1
    outer loop
      vertex -4.00308 -14.0419 0
      vertex -11.7772 -7.64117 0
      vertex -9.96544 -6.33687 0
    endloop
  endfacet
  facet normal 0 0 -1
    outer loop
      vertex -15.7938 -9.86699 0
      vertex -10.1398 -20.7345 0
      vertex -11.9784 -21.8679 0
    endloop
  endfacet
  facet normal 0 0 -1
    outer loop
      vertex -5.84647 -16.924 0
      vertex -13.7311 -8.82454 0
      vertex -11.7772 -7.64117 0
    endloop
  endfacet
  facet normal 0 0 -1
    outer loop
      vertex -17.9328 -10.7491 0
      vertex -11.9784 -21.8679 0
      vertex -14.0208 -22.933 0
    endloop
  endfacet
  facet normal 0 0 -1
    outer loop
      vertex -8.50491 -19.5327 0
      vertex -15.7938 -9.86699 0
      vertex -13.7311 -8.82454 0
    endloop
  endfacet
  facet normal 0 0 -1
    outer loop
      vertex -20.1481 -11.4707 0
      vertex -14.0208 -22.933 0
      vertex -16.1802 -23.89 0
    endloop
  endfacet
  facet normal 0 0 -1
    outer loop
      vertex -11.9784 -21.8679 0
      vertex -17.9328 -10.7491 0
      vertex -15.7938 -9.86699 0
    endloop
  endfacet
  facet normal 0 0 -1
    outer loop
      vertex -20.1481 -11.4707 0
      vertex -16.1802 -23.89 0
      vertex -18.3699 -24.6998 0
    endloop
  endfacet
  facet normal 0 0 -1
    outer loop
      vertex -14.0208 -22.933 0
      vertex -20.1481 -11.4707 0
      vertex -17.9328 -10.7491 0
    endloop
  endfacet
  facet normal 0 0 -1
    outer loop
      vertex -22.4396 -12.0321 0
      vertex -18.3699 -24.6998 0
      vertex -20.5898 -25.3623 0
    endloop
  endfacet
  facet normal 0 0 -1
    outer loop
      vertex -18.3699 -24.6998 0
      vertex -22.4396 -12.0321 0
      vertex -20.1481 -11.4707 0
    endloop
  endfacet
  facet normal 0 0 -1
    outer loop
      vertex -24.8074 -12.433 0
      vertex -20.5898 -25.3623 0
      vertex -22.8399 -25.8776 0
    endloop
  endfacet
  facet normal 0 0 -1
    outer loop
      vertex -20.5898 -25.3623 0
      vertex -24.8074 -12.433 0
      vertex -22.4396 -12.0321 0
    endloop
  endfacet
  facet normal 0 0 -1
    outer loop
      vertex -25.1203 -26.2457 0
      vertex -24.8074 -12.433 0
      vertex -22.8399 -25.8776 0
    endloop
  endfacet
  facet normal 0 0 -1
    outer loop
      vertex -25.1203 -26.2457 0
      vertex -27.2515 -12.6736 0
      vertex -24.8074 -12.433 0
    endloop
  endfacet
  facet normal 0 0 -1
    outer loop
      vertex -27.431 -26.4665 0
      vertex -27.2515 -12.6736 0
      vertex -25.1203 -26.2457 0
    endloop
  endfacet
  facet normal 0 0 -1
    outer loop
      vertex -29.7718 -12.7537 0
      vertex -27.431 -26.4665 0
      vertex -29.7718 -26.5401 0
    endloop
  endfacet
  facet normal 0 0 -1
    outer loop
      vertex -27.431 -26.4665 0
      vertex -29.7718 -12.7537 0
      vertex -27.2515 -12.6736 0
    endloop
  endfacet
  facet normal 0 0 1
    outer loop
      vertex -4.13857 0.0897827 1
      vertex 14.0992 1.99879 1
      vertex -3.03693 1.99879 1
    endloop
  endfacet
  facet normal -0 0 1
    outer loop
      vertex 14.0992 -71.4419 1
      vertex 34.908 -84.9062 1
      vertex 34.908 -71.4419 1
    endloop
  endfacet
  facet normal 0 0 1
    outer loop
      vertex 14.0992 1.99879 1
      vertex -4.00308 -14.0419 1
      vertex 14.0992 -71.4419 1
    endloop
  endfacet
  facet normal 0 0 1
    outer loop
      vertex -4.00308 -71.4419 1
      vertex 14.0992 -71.4419 1
      vertex -4.00308 -14.0419 1
    endloop
  endfacet
  facet normal -0 0 1
    outer loop
      vertex -4.00308 -71.4419 1
      vertex 34.908 -84.9062 1
      vertex 14.0992 -71.4419 1
    endloop
  endfacet
  facet normal 0 0 1
    outer loop
      vertex -29.0631 -84.9062 1
      vertex -4.00308 -71.4419 1
      vertex -29.0631 -71.4419 1
    endloop
  endfacet
  facet normal 0 0 1
    outer loop
      vertex -4.00308 -71.4419 1
      vertex -29.0631 -84.9062 1
      vertex 34.908 -84.9062 1
    endloop
  endfacet
  facet normal 0 0 1
    outer loop
      vertex 14.0992 1.99879 1
      vertex -4.13857 0.0897827 1
      vertex -4.00308 -14.0419 1
    endloop
  endfacet
  facet normal -0 0 1
    outer loop
      vertex -5.38223 -1.69829 1
      vertex -4.00308 -14.0419 1
      vertex -4.13857 0.0897827 1
    endloop
  endfacet
  facet normal -0 0 1
    outer loop
      vertex -6.76793 -3.36542 1
      vertex -4.00308 -14.0419 1
      vertex -5.38223 -1.69829 1
    endloop
  endfacet
  facet normal -0 0 1
    outer loop
      vertex -8.29567 -4.91161 1
      vertex -4.00308 -14.0419 1
      vertex -6.76793 -3.36542 1
    endloop
  endfacet
  facet normal -0 0 1
    outer loop
      vertex -9.96544 -6.33687 1
      vertex -4.00308 -14.0419 1
      vertex -8.29567 -4.91161 1
    endloop
  endfacet
  facet normal -0 0 1
    outer loop
      vertex -11.7772 -7.64117 1
      vertex -4.00308 -14.0419 1
      vertex -9.96544 -6.33687 1
    endloop
  endfacet
  facet normal 0 0 1
    outer loop
      vertex -4.00308 -14.0419 1
      vertex -11.7772 -7.64117 1
      vertex -4.82289 -15.5172 1
    endloop
  endfacet
  facet normal 0 0 1
    outer loop
      vertex -4.82289 -15.5172 1
      vertex -11.7772 -7.64117 1
      vertex -5.84647 -16.924 1
    endloop
  endfacet
  facet normal -0 0 1
    outer loop
      vertex -13.7311 -8.82454 1
      vertex -5.84647 -16.924 1
      vertex -11.7772 -7.64117 1
    endloop
  endfacet
  facet normal 0 0 1
    outer loop
      vertex -5.84647 -16.924 1
      vertex -13.7311 -8.82454 1
      vertex -7.07381 -18.2626 1
    endloop
  endfacet
  facet normal 0 0 1
    outer loop
      vertex -7.07381 -18.2626 1
      vertex -13.7311 -8.82454 1
      vertex -8.50491 -19.5327 1
    endloop
  endfacet
  facet normal -0 0 1
    outer loop
      vertex -15.7938 -9.86699 1
      vertex -8.50491 -19.5327 1
      vertex -13.7311 -8.82454 1
    endloop
  endfacet
  facet normal 0 0 1
    outer loop
      vertex -8.50491 -19.5327 1
      vertex -15.7938 -9.86699 1
      vertex -10.1398 -20.7345 1
    endloop
  endfacet
  facet normal 0 0 1
    outer loop
      vertex -10.1398 -20.7345 1
      vertex -15.7938 -9.86699 1
      vertex -11.9784 -21.8679 1
    endloop
  endfacet
  facet normal -0 0 1
    outer loop
      vertex -17.9328 -10.7491 1
      vertex -11.9784 -21.8679 1
      vertex -15.7938 -9.86699 1
    endloop
  endfacet
  facet normal 0 0 1
    outer loop
      vertex -11.9784 -21.8679 1
      vertex -17.9328 -10.7491 1
      vertex -14.0208 -22.933 1
    endloop
  endfacet
  facet normal -0 0 1
    outer loop
      vertex -20.1481 -11.4707 1
      vertex -14.0208 -22.933 1
      vertex -17.9328 -10.7491 1
    endloop
  endfacet
  facet normal 0 0 1
    outer loop
      vertex -14.0208 -22.933 1
      vertex -20.1481 -11.4707 1
      vertex -16.1802 -23.89 1
    endloop
  endfacet
  facet normal 0 0 1
    outer loop
      vertex -16.1802 -23.89 1
      vertex -20.1481 -11.4707 1
      vertex -18.3699 -24.6998 1
    endloop
  endfacet
  facet normal -0 0 1
    outer loop
      vertex -22.4396 -12.0321 1
      vertex -18.3699 -24.6998 1
      vertex -20.1481 -11.4707 1
    endloop
  endfacet
  facet normal 0 0 1
    outer loop
      vertex -18.3699 -24.6998 1
      vertex -22.4396 -12.0321 1
      vertex -20.5898 -25.3623 1
    endloop
  endfacet
  facet normal -0 0 1
    outer loop
      vertex -24.8074 -12.433 1
      vertex -20.5898 -25.3623 1
      vertex -22.4396 -12.0321 1
    endloop
  endfacet
  facet normal 0 0 1
    outer loop
      vertex -20.5898 -25.3623 1
      vertex -24.8074 -12.433 1
      vertex -22.8399 -25.8776 1
    endloop
  endfacet
  facet normal 0 0 1
    outer loop
      vertex -24.8074 -12.433 1
      vertex -25.1203 -26.2457 1
      vertex -22.8399 -25.8776 1
    endloop
  endfacet
  facet normal -0 0 1
    outer loop
      vertex -27.2515 -12.6736 1
      vertex -25.1203 -26.2457 1
      vertex -24.8074 -12.433 1
    endloop
  endfacet
  facet normal 0 0 1
    outer loop
      vertex -27.2515 -12.6736 1
      vertex -27.431 -26.4665 1
      vertex -25.1203 -26.2457 1
    endloop
  endfacet
  facet normal -0 0 1
    outer loop
      vertex -29.7718 -12.7537 1
      vertex -27.431 -26.4665 1
      vertex -27.2515 -12.6736 1
    endloop
  endfacet
  facet normal 0 0 1
    outer loop
      vertex -27.431 -26.4665 1
      vertex -29.7718 -12.7537 1
      vertex -29.7718 -26.5401 1
    endloop
  endfacet
  facet normal 0 1 -0
    outer loop
      vertex 34.908 -71.4419 0
      vertex 14.0992 -71.4419 1
      vertex 34.908 -71.4419 1
    endloop
  endfacet
  facet normal 0 1 0
    outer loop
      vertex 14.0992 -71.4419 1
      vertex 34.908 -71.4419 0
      vertex 14.0992 -71.4419 0
    endloop
  endfacet
  facet normal 1 -0 0
    outer loop
      vertex 14.0992 -71.4419 1
      vertex 14.0992 1.99879 0
      vertex 14.0992 1.99879 1
    endloop
  endfacet
  facet normal 1 0 0
    outer loop
      vertex 14.0992 1.99879 0
      vertex 14.0992 -71.4419 1
      vertex 14.0992 -71.4419 0
    endloop
  endfacet
  facet normal 0 1 -0
    outer loop
      vertex 14.0992 1.99879 0
      vertex -3.03693 1.99879 1
      vertex 14.0992 1.99879 1
    endloop
  endfacet
  facet normal 0 1 0
    outer loop
      vertex -3.03693 1.99879 1
      vertex 14.0992 1.99879 0
      vertex -3.03693 1.99879 0
    endloop
  endfacet
  facet normal -0.866129 0.499821 0
    outer loop
      vertex -4.13857 0.0897827 0
      vertex -3.03693 1.99879 1
      vertex -3.03693 1.99879 0
    endloop
  endfacet
  facet normal -0.866129 0.499821 0
    outer loop
      vertex -3.03693 1.99879 1
      vertex -4.13857 0.0897827 0
      vertex -4.13857 0.0897827 1
    endloop
  endfacet
  facet normal -0.820952 0.570997 0
    outer loop
      vertex -5.38223 -1.69829 0
      vertex -4.13857 0.0897827 1
      vertex -4.13857 0.0897827 0
    endloop
  endfacet
  facet normal -0.820952 0.570997 0
    outer loop
      vertex -4.13857 0.0897827 1
      vertex -5.38223 -1.69829 0
      vertex -5.38223 -1.69829 1
    endloop
  endfacet
  facet normal -0.769032 0.639211 0
    outer loop
      vertex -6.76793 -3.36542 0
      vertex -5.38223 -1.69829 1
      vertex -5.38223 -1.69829 0
    endloop
  endfacet
  facet normal -0.769032 0.639211 0
    outer loop
      vertex -5.38223 -1.69829 1
      vertex -6.76793 -3.36542 0
      vertex -6.76793 -3.36542 1
    endloop
  endfacet
  facet normal -0.711338 0.70285 0
    outer loop
      vertex -8.29567 -4.91161 0
      vertex -6.76793 -3.36542 1
      vertex -6.76793 -3.36542 0
    endloop
  endfacet
  facet normal -0.711338 0.70285 0
    outer loop
      vertex -6.76793 -3.36542 1
      vertex -8.29567 -4.91161 0
      vertex -8.29567 -4.91161 1
    endloop
  endfacet
  facet normal -0.649222 0.760599 0
    outer loop
      vertex -8.29567 -4.91161 0
      vertex -9.96544 -6.33687 1
      vertex -8.29567 -4.91161 1
    endloop
  endfacet
  facet normal -0.649222 0.760599 0
    outer loop
      vertex -9.96544 -6.33687 1
      vertex -8.29567 -4.91161 0
      vertex -9.96544 -6.33687 0
    endloop
  endfacet
  facet normal -0.584255 0.81157 0
    outer loop
      vertex -9.96544 -6.33687 0
      vertex -11.7772 -7.64117 1
      vertex -9.96544 -6.33687 1
    endloop
  endfacet
  facet normal -0.584255 0.81157 0
    outer loop
      vertex -11.7772 -7.64117 1
      vertex -9.96544 -6.33687 0
      vertex -11.7772 -7.64117 0
    endloop
  endfacet
  facet normal -0.518042 0.855355 0
    outer loop
      vertex -11.7772 -7.64117 0
      vertex -13.7311 -8.82454 1
      vertex -11.7772 -7.64117 1
    endloop
  endfacet
  facet normal -0.518042 0.855355 0
    outer loop
      vertex -13.7311 -8.82454 1
      vertex -11.7772 -7.64117 0
      vertex -13.7311 -8.82454 0
    endloop
  endfacet
  facet normal -0.451052 0.892498 0
    outer loop
      vertex -13.7311 -8.82454 0
      vertex -15.7938 -9.86699 1
      vertex -13.7311 -8.82454 1
    endloop
  endfacet
  facet normal -0.451052 0.892498 0
    outer loop
      vertex -15.7938 -9.86699 1
      vertex -13.7311 -8.82454 0
      vertex -15.7938 -9.86699 0
    endloop
  endfacet
  facet normal -0.381247 0.924473 0
    outer loop
      vertex -15.7938 -9.86699 0
      vertex -17.9328 -10.7491 1
      vertex -15.7938 -9.86699 1
    endloop
  endfacet
  facet normal -0.381247 0.924473 0
    outer loop
      vertex -17.9328 -10.7491 1
      vertex -15.7938 -9.86699 0
      vertex -17.9328 -10.7491 0
    endloop
  endfacet
  facet normal -0.309718 0.950829 0
    outer loop
      vertex -17.9328 -10.7491 0
      vertex -20.1481 -11.4707 1
      vertex -17.9328 -10.7491 1
    endloop
  endfacet
  facet normal -0.309718 0.950829 0
    outer loop
      vertex -20.1481 -11.4707 1
      vertex -17.9328 -10.7491 0
      vertex -20.1481 -11.4707 0
    endloop
  endfacet
  facet normal -0.237955 0.971276 0
    outer loop
      vertex -20.1481 -11.4707 0
      vertex -22.4396 -12.0321 1
      vertex -20.1481 -11.4707 1
    endloop
  endfacet
  facet normal -0.237955 0.971276 0
    outer loop
      vertex -22.4396 -12.0321 1
      vertex -20.1481 -11.4707 0
      vertex -22.4396 -12.0321 0
    endloop
  endfacet
  facet normal -0.166937 0.985967 0
    outer loop
      vertex -22.4396 -12.0321 0
      vertex -24.8074 -12.433 1
      vertex -22.4396 -12.0321 1
    endloop
  endfacet
  facet normal -0.166937 0.985967 0
    outer loop
      vertex -24.8074 -12.433 1
      vertex -22.4396 -12.0321 0
      vertex -24.8074 -12.433 0
    endloop
  endfacet
  facet normal -0.0979676 0.99519 0
    outer loop
      vertex -24.8074 -12.433 0
      vertex -27.2515 -12.6736 1
      vertex -24.8074 -12.433 1
    endloop
  endfacet
  facet normal -0.0979676 0.99519 0
    outer loop
      vertex -27.2515 -12.6736 1
      vertex -24.8074 -12.433 0
      vertex -27.2515 -12.6736 0
    endloop
  endfacet
  facet normal -0.0317659 0.999495 0
    outer loop
      vertex -27.2515 -12.6736 0
      vertex -29.7718 -12.7537 1
      vertex -27.2515 -12.6736 1
    endloop
  endfacet
  facet normal -0.0317659 0.999495 0
    outer loop
      vertex -29.7718 -12.7537 1
      vertex -27.2515 -12.6736 0
      vertex -29.7718 -12.7537 0
    endloop
  endfacet
  facet normal -1 0 0
    outer loop
      vertex -29.7718 -26.5401 0
      vertex -29.7718 -12.7537 1
      vertex -29.7718 -12.7537 0
    endloop
  endfacet
  facet normal -1 -0 0
    outer loop
      vertex -29.7718 -12.7537 1
      vertex -29.7718 -26.5401 0
      vertex -29.7718 -26.5401 1
    endloop
  endfacet
  facet normal 0.0314267 -0.999506 0
    outer loop
      vertex -29.7718 -26.5401 0
      vertex -27.431 -26.4665 1
      vertex -29.7718 -26.5401 1
    endloop
  endfacet
  facet normal 0.0314267 -0.999506 0
    outer loop
      vertex -27.431 -26.4665 1
      vertex -29.7718 -26.5401 0
      vertex -27.431 -26.4665 0
    endloop
  endfacet
  facet normal 0.0951222 -0.995466 0
    outer loop
      vertex -27.431 -26.4665 0
      vertex -25.1203 -26.2457 1
      vertex -27.431 -26.4665 1
    endloop
  endfacet
  facet normal 0.0951222 -0.995466 0
    outer loop
      vertex -25.1203 -26.2457 1
      vertex -27.431 -26.4665 0
      vertex -25.1203 -26.2457 0
    endloop
  endfacet
  facet normal 0.159356 -0.987221 0
    outer loop
      vertex -25.1203 -26.2457 0
      vertex -22.8399 -25.8776 1
      vertex -25.1203 -26.2457 1
    endloop
  endfacet
  facet normal 0.159356 -0.987221 0
    outer loop
      vertex -22.8399 -25.8776 1
      vertex -25.1203 -26.2457 0
      vertex -22.8399 -25.8776 0
    endloop
  endfacet
  facet normal 0.223233 -0.974765 0
    outer loop
      vertex -22.8399 -25.8776 0
      vertex -20.5898 -25.3623 1
      vertex -22.8399 -25.8776 1
    endloop
  endfacet
  facet normal 0.223233 -0.974765 0
    outer loop
      vertex -20.5898 -25.3623 1
      vertex -22.8399 -25.8776 0
      vertex -20.5898 -25.3623 0
    endloop
  endfacet
  facet normal 0.285973 -0.958238 0
    outer loop
      vertex -20.5898 -25.3623 0
      vertex -18.3699 -24.6998 1
      vertex -20.5898 -25.3623 1
    endloop
  endfacet
  facet normal 0.285973 -0.958238 0
    outer loop
      vertex -18.3699 -24.6998 1
      vertex -20.5898 -25.3623 0
      vertex -18.3699 -24.6998 0
    endloop
  endfacet
  facet normal 0.346862 -0.937916 0
    outer loop
      vertex -18.3699 -24.6998 0
      vertex -16.1802 -23.89 1
      vertex -18.3699 -24.6998 1
    endloop
  endfacet
  facet normal 0.346862 -0.937916 0
    outer loop
      vertex -16.1802 -23.89 1
      vertex -18.3699 -24.6998 0
      vertex -16.1802 -23.89 0
    endloop
  endfacet
  facet normal 0.405172 -0.914241 0
    outer loop
      vertex -16.1802 -23.89 0
      vertex -14.0208 -22.933 1
      vertex -16.1802 -23.89 1
    endloop
  endfacet
  facet normal 0.405172 -0.914241 0
    outer loop
      vertex -14.0208 -22.933 1
      vertex -16.1802 -23.89 0
      vertex -14.0208 -22.933 0
    endloop
  endfacet
  facet normal 0.462395 -0.886674 0
    outer loop
      vertex -14.0208 -22.933 0
      vertex -11.9784 -21.8679 1
      vertex -14.0208 -22.933 1
    endloop
  endfacet
  facet normal 0.462395 -0.886674 0
    outer loop
      vertex -11.9784 -21.8679 1
      vertex -14.0208 -22.933 0
      vertex -11.9784 -21.8679 0
    endloop
  endfacet
  facet normal 0.524753 -0.851254 0
    outer loop
      vertex -11.9784 -21.8679 0
      vertex -10.1398 -20.7345 1
      vertex -11.9784 -21.8679 1
    endloop
  endfacet
  facet normal 0.524753 -0.851254 0
    outer loop
      vertex -10.1398 -20.7345 1
      vertex -11.9784 -21.8679 0
      vertex -10.1398 -20.7345 0
    endloop
  endfacet
  facet normal 0.592286 -0.805727 0
    outer loop
      vertex -10.1398 -20.7345 0
      vertex -8.50491 -19.5327 1
      vertex -10.1398 -20.7345 1
    endloop
  endfacet
  facet normal 0.592286 -0.805727 0
    outer loop
      vertex -8.50491 -19.5327 1
      vertex -10.1398 -20.7345 0
      vertex -8.50491 -19.5327 0
    endloop
  endfacet
  facet normal 0.663783 -0.747925 0
    outer loop
      vertex -8.50491 -19.5327 0
      vertex -7.07381 -18.2626 1
      vertex -8.50491 -19.5327 1
    endloop
  endfacet
  facet normal 0.663783 -0.747925 0
    outer loop
      vertex -7.07381 -18.2626 1
      vertex -8.50491 -19.5327 0
      vertex -7.07381 -18.2626 0
    endloop
  endfacet
  facet normal 0.737075 -0.675811 0
    outer loop
      vertex -7.07381 -18.2626 1
      vertex -5.84647 -16.924 0
      vertex -5.84647 -16.924 1
    endloop
  endfacet
  facet normal 0.737075 -0.675811 0
    outer loop
      vertex -5.84647 -16.924 0
      vertex -7.07381 -18.2626 1
      vertex -7.07381 -18.2626 0
    endloop
  endfacet
  facet normal 0.808612 -0.588342 0
    outer loop
      vertex -5.84647 -16.924 1
      vertex -4.82289 -15.5172 0
      vertex -4.82289 -15.5172 1
    endloop
  endfacet
  facet normal 0.808612 -0.588342 0
    outer loop
      vertex -4.82289 -15.5172 0
      vertex -5.84647 -16.924 1
      vertex -5.84647 -16.924 0
    endloop
  endfacet
  facet normal 0.874107 -0.485733 0
    outer loop
      vertex -4.82289 -15.5172 1
      vertex -4.00308 -14.0419 0
      vertex -4.00308 -14.0419 1
    endloop
  endfacet
  facet normal 0.874107 -0.485733 0
    outer loop
      vertex -4.00308 -14.0419 0
      vertex -4.82289 -15.5172 1
      vertex -4.82289 -15.5172 0
    endloop
  endfacet
  facet normal -1 0 0
    outer loop
      vertex -4.00308 -71.4419 0
      vertex -4.00308 -14.0419 1
      vertex -4.00308 -14.0419 0
    endloop
  endfacet
  facet normal -1 -0 0
    outer loop
      vertex -4.00308 -14.0419 1
      vertex -4.00308 -71.4419 0
      vertex -4.00308 -71.4419 1
    endloop
  endfacet
  facet normal 0 1 -0
    outer loop
      vertex -4.00308 -71.4419 0
      vertex -29.0631 -71.4419 1
      vertex -4.00308 -71.4419 1
    endloop
  endfacet
  facet normal 0 1 0
    outer loop
      vertex -29.0631 -71.4419 1
      vertex -4.00308 -71.4419 0
      vertex -29.0631 -71.4419 0
    endloop
  endfacet
  facet normal -1 0 0
    outer loop
      vertex -29.0631 -84.9062 0
      vertex -29.0631 -71.4419 1
      vertex -29.0631 -71.4419 0
    endloop
  endfacet
  facet normal -1 -0 0
    outer loop
      vertex -29.0631 -71.4419 1
      vertex -29.0631 -84.9062 0
      vertex -29.0631 -84.9062 1
    endloop
  endfacet
  facet normal 0 -1 0
    outer loop
      vertex -29.0631 -84.9062 0
      vertex 34.908 -84.9062 1
      vertex -29.0631 -84.9062 1
    endloop
  endfacet
  facet normal 0 -1 -0
    outer loop
      vertex 34.908 -84.9062 1
      vertex -29.0631 -84.9062 0
      vertex 34.908 -84.9062 0
    endloop
  endfacet
  facet normal 1 -0 0
    outer loop
      vertex 34.908 -84.9062 1
      vertex 34.908 -71.4419 0
      vertex 34.908 -71.4419 1
    endloop
  endfacet
  facet normal 1 0 0
    outer loop
      vertex 34.908 -71.4419 0
      vertex 34.908 -84.9062 1
      vertex 34.908 -84.9062 0
    endloop
  endfacet
endsolid OpenSCAD_Model
