  0
SECTION
  2
BLOCKS
  0
ENDSEC
  0
SECTION
  2
ENTITIES
  0
LINE
  8
0
 10
20.9448
 20
-47.8651
 11
8.45949
 21
-47.8651
  0
LINE
  8
0
 10
8.45949
 20
-47.8651
 11
8.45949
 21
-3.80072
  0
LINE
  8
0
 10
8.45949
 20
-3.80072
 11
-1.82216
 21
-3.80072
  0
LINE
  8
0
 10
-1.82216
 20
-3.80072
 11
-2.48314
 21
-4.94614
  0
LINE
  8
0
 10
-2.48314
 20
-4.94614
 11
-3.22934
 21
-6.01897
  0
LINE
  8
0
 10
-3.22934
 20
-6.01897
 11
-4.06076
 21
-7.01924
  0
LINE
  8
0
 10
-4.06076
 20
-7.01924
 11
-4.9774
 21
-7.94696
  0
LINE
  8
0
 10
-4.9774
 20
-7.94696
 11
-5.97926
 21
-8.80211
  0
LINE
  8
0
 10
-5.97926
 20
-8.80211
 11
-7.06635
 21
-9.5847
  0
LINE
  8
0
 10
-7.06635
 20
-9.5847
 11
-8.23865
 21
-10.2947
  0
LINE
  8
0
 10
-8.23865
 20
-10.2947
 11
-9.47627
 21
-10.9202
  0
LINE
  8
0
 10
-9.47627
 20
-10.9202
 11
-10.7597
 21
-11.4494
  0
LINE
  8
0
 10
-10.7597
 20
-11.4494
 11
-12.0888
 21
-11.8824
  0
LINE
  8
0
 10
-12.0888
 20
-11.8824
 11
-13.4638
 21
-12.2192
  0
LINE
  8
0
 10
-13.4638
 20
-12.2192
 11
-14.8844
 21
-12.4598
  0
LINE
  8
0
 10
-14.8844
 20
-12.4598
 11
-16.3509
 21
-12.6041
  0
LINE
  8
0
 10
-16.3509
 20
-12.6041
 11
-17.8631
 21
-12.6522
  0
LINE
  8
0
 10
-17.8631
 20
-12.6522
 11
-17.8631
 21
-20.9241
  0
LINE
  8
0
 10
-17.8631
 20
-20.9241
 11
-16.4586
 21
-20.8799
  0
LINE
  8
0
 10
-16.4586
 20
-20.8799
 11
-15.0722
 21
-20.7474
  0
LINE
  8
0
 10
-15.0722
 20
-20.7474
 11
-13.704
 21
-20.5266
  0
LINE
  8
0
 10
-13.704
 20
-20.5266
 11
-12.3539
 21
-20.2174
  0
LINE
  8
0
 10
-12.3539
 20
-20.2174
 11
-11.0219
 21
-19.8199
  0
LINE
  8
0
 10
-11.0219
 20
-19.8199
 11
-9.70815
 21
-19.334
  0
LINE
  8
0
 10
-9.70815
 20
-19.334
 11
-8.41249
 21
-18.7598
  0
LINE
  8
0
 10
-8.41249
 20
-18.7598
 11
-7.18706
 21
-18.1208
  0
LINE
  8
0
 10
-7.18706
 20
-18.1208
 11
-6.08388
 21
-17.4407
  0
LINE
  8
0
 10
-6.08388
 20
-17.4407
 11
-5.10295
 21
-16.7196
  0
LINE
  8
0
 10
-5.10295
 20
-16.7196
 11
-4.24428
 21
-15.9575
  0
LINE
  8
0
 10
-4.24428
 20
-15.9575
 11
-3.50787
 21
-15.1544
  0
LINE
  8
0
 10
-3.50787
 20
-15.1544
 11
-2.89374
 21
-14.3103
  0
LINE
  8
0
 10
-2.89374
 20
-14.3103
 11
-2.40184
 21
-13.4252
  0
LINE
  8
0
 10
-2.40184
 20
-13.4252
 11
-2.40184
 21
-47.8651
  0
LINE
  8
0
 10
-2.40184
 20
-47.8651
 11
-17.4379
 21
-47.8651
  0
LINE
  8
0
 10
-17.4379
 20
-47.8651
 11
-17.4379
 21
-55.9437
  0
LINE
  8
0
 10
-17.4379
 20
-55.9437
 11
20.9448
 21
-55.9437
  0
LINE
  8
0
 10
20.9448
 20
-55.9437
 11
20.9448
 21
-47.8651
  0
ENDSEC
  0
SECTION
  2
OBJECTS
  0
DICTIONARY
  0
ENDSEC
  0
EOF
