  0
SECTION
  2
BLOCKS
  0
ENDSEC
  0
SECTION
  2
ENTITIES
  0
LINE
  8
0
 10
1.33815
 20
-55.8037
 11
4.17554
 21
-55.3837
  0
LINE
  8
0
 10
4.17554
 20
-55.3837
 11
6.80624
 21
-54.6836
  0
LINE
  8
0
 10
6.80624
 20
-54.6836
 11
9.23029
 21
-53.7036
  0
LINE
  8
0
 10
9.23029
 20
-53.7036
 11
11.4477
 21
-52.4435
  0
LINE
  8
0
 10
11.4477
 20
-52.4435
 11
13.4584
 21
-50.9034
  0
LINE
  8
0
 10
13.4584
 20
-50.9034
 11
15.2624
 21
-49.0832
  0
LINE
  8
0
 10
15.2624
 20
-49.0832
 11
16.8418
 21
-47.0026
  0
LINE
  8
0
 10
16.8418
 20
-47.0026
 11
18.1782
 21
-44.6814
  0
LINE
  8
0
 10
18.1782
 20
-44.6814
 11
19.2717
 21
-42.1195
  0
LINE
  8
0
 10
19.2717
 20
-42.1195
 11
20.1221
 21
-39.3171
  0
LINE
  8
0
 10
20.1221
 20
-39.3171
 11
20.7296
 21
-36.274
  0
LINE
  8
0
 10
20.7296
 20
-36.274
 11
21.094
 21
-32.9904
  0
LINE
  8
0
 10
21.094
 20
-32.9904
 11
21.2155
 21
-29.4661
  0
LINE
  8
0
 10
21.2155
 20
-29.4661
 11
21.0873
 21
-25.901
  0
LINE
  8
0
 10
21.0873
 20
-25.901
 11
20.7028
 21
-22.6048
  0
LINE
  8
0
 10
20.7028
 20
-22.6048
 11
20.0618
 21
-19.5777
  0
LINE
  8
0
 10
20.0618
 20
-19.5777
 11
19.1644
 21
-16.8195
  0
LINE
  8
0
 10
19.1644
 20
-16.8195
 11
18.0107
 21
-14.3304
  0
LINE
  8
0
 10
18.0107
 20
-14.3304
 11
16.6006
 21
-12.1102
  0
LINE
  8
0
 10
16.6006
 20
-12.1102
 11
14.9341
 21
-10.1591
  0
LINE
  8
0
 10
14.9341
 20
-10.1591
 11
13.009
 21
-8.47215
  0
LINE
  8
0
 10
13.009
 20
-8.47215
 11
10.8228
 21
-7.04477
  0
LINE
  8
0
 10
10.8228
 20
-7.04477
 11
8.37547
 21
-5.87691
  0
LINE
  8
0
 10
8.37547
 20
-5.87691
 11
5.66699
 21
-4.96858
  0
LINE
  8
0
 10
5.66699
 20
-4.96858
 11
2.69739
 21
-4.31978
  0
LINE
  8
0
 10
2.69739
 20
-4.31978
 11
-0.53334
 21
-3.9305
  0
LINE
  8
0
 10
-0.53334
 20
-3.9305
 11
-4.02521
 21
-3.80072
  0
LINE
  8
0
 10
-4.02521
 20
-3.80072
 11
-17.9788
 21
-3.80072
  0
LINE
  8
0
 10
-17.9788
 20
-3.80072
 11
-17.9788
 21
-55.9437
  0
LINE
  8
0
 10
-17.9788
 20
-55.9437
 11
-1.70587
 21
-55.9437
  0
LINE
  8
0
 10
-1.70587
 20
-55.9437
 11
1.33815
 21
-55.8037
  0
LINE
  8
0
 10
-6.57652
 20
-47.131
 11
-6.57652
 21
-12.6135
  0
LINE
  8
0
 10
-6.57652
 20
-12.6135
 11
-4.21843
 21
-12.6135
  0
LINE
  8
0
 10
-4.21843
 20
-12.6135
 11
-2.20261
 21
-12.6959
  0
LINE
  8
0
 10
-2.20261
 20
-12.6959
 11
-0.351654
 21
-12.9432
  0
LINE
  8
0
 10
-0.351654
 20
-12.9432
 11
1.33444
 21
-13.3555
  0
LINE
  8
0
 10
1.33444
 20
-13.3555
 11
2.8557
 21
-13.9325
  0
LINE
  8
0
 10
2.8557
 20
-13.9325
 11
4.21208
 21
-14.6745
  0
LINE
  8
0
 10
4.21208
 20
-14.6745
 11
5.40361
 21
-15.5813
  0
LINE
  8
0
 10
5.40361
 20
-15.5813
 11
6.43028
 21
-16.6531
  0
LINE
  8
0
 10
6.43028
 20
-16.6531
 11
7.30708
 21
-17.9037
  0
LINE
  8
0
 10
7.30708
 20
-17.9037
 11
8.049
 21
-19.3476
  0
LINE
  8
0
 10
8.049
 20
-19.3476
 11
8.65601
 21
-20.9848
  0
LINE
  8
0
 10
8.65601
 20
-20.9848
 11
9.12813
 21
-22.8152
  0
LINE
  8
0
 10
9.12813
 20
-22.8152
 11
9.46536
 21
-24.8389
  0
LINE
  8
0
 10
9.46536
 20
-24.8389
 11
9.66771
 21
-27.0559
  0
LINE
  8
0
 10
9.66771
 20
-27.0559
 11
9.73515
 21
-29.4661
  0
LINE
  8
0
 10
9.73515
 20
-29.4661
 11
9.48273
 21
-34.1527
  0
LINE
  8
0
 10
9.48273
 20
-34.1527
 11
8.72543
 21
-38.1183
  0
LINE
  8
0
 10
8.72543
 20
-38.1183
 11
7.46329
 21
-41.3629
  0
LINE
  8
0
 10
7.46329
 20
-41.3629
 11
5.69629
 21
-43.8864
  0
LINE
  8
0
 10
5.69629
 20
-43.8864
 11
3.42444
 21
-45.6889
  0
LINE
  8
0
 10
3.42444
 20
-45.6889
 11
0.64772
 21
-46.7705
  0
LINE
  8
0
 10
0.64772
 20
-46.7705
 11
-2.63383
 21
-47.131
  0
LINE
  8
0
 10
-2.63383
 20
-47.131
 11
-6.57652
 21
-47.131
  0
ENDSEC
  0
SECTION
  2
OBJECTS
  0
DICTIONARY
  0
ENDSEC
  0
EOF
