<?xml version="1.0" standalone="no"?>
<!DOCTYPE svg PUBLIC "-//W3C//DTD SVG 1.1//EN" "http://www.w3.org/Graphics/SVG/1.1/DTD/svg11.dtd">
<svg width="40mm" height="53mm" viewBox="-18 3 40 53" xmlns="http://www.w3.org/2000/svg" version="1.1">
<title>OpenSCAD Model</title>
<path d="
M 1.33815,55.8037 L 4.17554,55.3837 L 6.80624,54.6836 L 9.23029,53.7036 L 11.4477,52.4435 L 13.4584,50.9034
 L 15.2624,49.0832 L 16.8418,47.0026 L 18.1782,44.6814 L 19.2717,42.1195 L 20.1221,39.3171 L 20.7296,36.274
 L 21.094,32.9904 L 21.2155,29.4661 L 21.0873,25.901 L 20.7028,22.6048 L 20.0618,19.5777 L 19.1644,16.8195
 L 18.0107,14.3304 L 16.6006,12.1102 L 14.9341,10.1591 L 13.009,8.47215 L 10.8228,7.04477 L 8.37547,5.87691
 L 5.66699,4.96858 L 2.69739,4.31978 L -0.53334,3.9305 L -4.02521,3.80072 L -17.9788,3.80072 L -17.9788,55.9437
 L -1.70587,55.9437 z
M -6.57652,47.131 L -6.57652,12.6135 L -4.21843,12.6135 L -2.20261,12.6959 L -0.351654,12.9432 L 1.33444,13.3555
 L 2.8557,13.9325 L 4.21208,14.6745 L 5.40361,15.5813 L 6.43028,16.6531 L 7.30708,17.9037 L 8.049,19.3476
 L 8.65601,20.9848 L 9.12813,22.8152 L 9.46536,24.8389 L 9.66771,27.0559 L 9.73515,29.4661 L 9.48273,34.1527
 L 8.72543,38.1183 L 7.46329,41.3629 L 5.69629,43.8864 L 3.42444,45.6889 L 0.64772,46.7705 L -2.63383,47.131
 z
" stroke="black" fill="lightgray" stroke-width="0.5"/>
</svg>
