solid OpenSCAD_Model
  facet normal 0 0 -1
    outer loop
      vertex 6.98158 -21.9812 0
      vertex 2.81982 -19.2884 0
      vertex 6.98158 -19.2884 0
    endloop
  endfacet
  facet normal 0 0 -1
    outer loop
      vertex -0.800613 -7.80838 0
      vertex 2.81982 -4.60025 0
      vertex 2.81982 -19.2884 0
    endloop
  endfacet
  facet normal 0 0 -1
    outer loop
      vertex -0.800613 -7.80838 0
      vertex 2.81982 -19.2884 0
      vertex -0.800613 -19.2884 0
    endloop
  endfacet
  facet normal 0 0 -1
    outer loop
      vertex 6.98158 -21.9812 0
      vertex -0.800613 -19.2884 0
      vertex 2.81982 -19.2884 0
    endloop
  endfacet
  facet normal 0 0 -1
    outer loop
      vertex -5.81262 -21.9812 0
      vertex -0.800613 -19.2884 0
      vertex 6.98158 -21.9812 0
    endloop
  endfacet
  facet normal -0 0 -1
    outer loop
      vertex -0.800613 -19.2884 0
      vertex -5.81262 -21.9812 0
      vertex -5.81262 -19.2884 0
    endloop
  endfacet
  facet normal 0 0 -1
    outer loop
      vertex -0.827713 -4.98206 0
      vertex 2.81982 -4.60025 0
      vertex -0.800613 -7.80838 0
    endloop
  endfacet
  facet normal -0 0 -1
    outer loop
      vertex 2.81982 -4.60025 0
      vertex -0.827713 -4.98206 0
      vertex -0.607376 -4.60025 0
    endloop
  endfacet
  facet normal 0 0 -1
    outer loop
      vertex -2.35544 -6.52823 0
      vertex -0.800613 -7.80838 0
      vertex -0.964569 -8.10342 0
    endloop
  endfacet
  facet normal 0 0 -1
    outer loop
      vertex -0.800613 -7.80838 0
      vertex -1.07645 -5.33965 0
      vertex -0.827713 -4.98206 0
    endloop
  endfacet
  facet normal 0 0 -1
    outer loop
      vertex -2.35544 -6.52823 0
      vertex -0.964569 -8.10342 0
      vertex -1.16928 -8.3848 0
    endloop
  endfacet
  facet normal 0 0 -1
    outer loop
      vertex -0.800613 -7.80838 0
      vertex -1.35358 -5.67308 0
      vertex -1.07645 -5.33965 0
    endloop
  endfacet
  facet normal 0 0 -1
    outer loop
      vertex -2.74622 -6.76491 0
      vertex -1.16928 -8.3848 0
      vertex -1.41475 -8.65251 0
    endloop
  endfacet
  facet normal 0 0 -1
    outer loop
      vertex -0.800613 -7.80838 0
      vertex -1.65913 -5.98232 0
      vertex -1.35358 -5.67308 0
    endloop
  endfacet
  facet normal 0 0 -1
    outer loop
      vertex -2.74622 -6.76491 0
      vertex -1.41475 -8.65251 0
      vertex -1.70097 -8.90654 0
    endloop
  endfacet
  facet normal 0 0 -1
    outer loop
      vertex -0.800613 -7.80838 0
      vertex -1.99309 -6.26736 0
      vertex -1.65913 -5.98232 0
    endloop
  endfacet
  facet normal 0 0 -1
    outer loop
      vertex -3.15875 -6.97339 0
      vertex -1.70097 -8.90654 0
      vertex -2.02795 -9.1469 0
    endloop
  endfacet
  facet normal 0 0 -1
    outer loop
      vertex -0.800613 -7.80838 0
      vertex -2.35544 -6.52823 0
      vertex -1.99309 -6.26736 0
    endloop
  endfacet
  facet normal 0 0 -1
    outer loop
      vertex -3.15875 -6.97339 0
      vertex -2.02795 -9.1469 0
      vertex -2.39568 -9.37358 0
    endloop
  endfacet
  facet normal 0 0 -1
    outer loop
      vertex -1.16928 -8.3848 0
      vertex -2.74622 -6.76491 0
      vertex -2.35544 -6.52823 0
    endloop
  endfacet
  facet normal 0 0 -1
    outer loop
      vertex -3.58655 -7.14981 0
      vertex -2.39568 -9.37358 0
      vertex -2.80415 -9.58659 0
    endloop
  endfacet
  facet normal 0 0 -1
    outer loop
      vertex -1.70097 -8.90654 0
      vertex -3.15875 -6.97339 0
      vertex -2.74622 -6.76491 0
    endloop
  endfacet
  facet normal 0 0 -1
    outer loop
      vertex -4.0296 -7.29414 0
      vertex -2.80415 -9.58659 0
      vertex -3.23604 -9.77798 0
    endloop
  endfacet
  facet normal 0 0 -1
    outer loop
      vertex -2.39568 -9.37358 0
      vertex -3.58655 -7.14981 0
      vertex -3.15875 -6.97339 0
    endloop
  endfacet
  facet normal 0 0 -1
    outer loop
      vertex -4.0296 -7.29414 0
      vertex -3.23604 -9.77798 0
      vertex -3.67397 -9.93994 0
    endloop
  endfacet
  facet normal 0 0 -1
    outer loop
      vertex -2.80415 -9.58659 0
      vertex -4.0296 -7.29414 0
      vertex -3.58655 -7.14981 0
    endloop
  endfacet
  facet normal 0 0 -1
    outer loop
      vertex -4.48792 -7.4064 0
      vertex -3.67397 -9.93994 0
      vertex -4.11795 -10.0724 0
    endloop
  endfacet
  facet normal 0 0 -1
    outer loop
      vertex -3.67397 -9.93994 0
      vertex -4.48792 -7.4064 0
      vertex -4.0296 -7.29414 0
    endloop
  endfacet
  facet normal 0 0 -1
    outer loop
      vertex -4.96147 -7.48659 0
      vertex -4.11795 -10.0724 0
      vertex -4.56798 -10.1755 0
    endloop
  endfacet
  facet normal 0 0 -1
    outer loop
      vertex -4.11795 -10.0724 0
      vertex -4.96147 -7.48659 0
      vertex -4.48792 -7.4064 0
    endloop
  endfacet
  facet normal 0 0 -1
    outer loop
      vertex -5.02406 -10.2491 0
      vertex -4.96147 -7.48659 0
      vertex -4.56798 -10.1755 0
    endloop
  endfacet
  facet normal 0 0 -1
    outer loop
      vertex -5.02406 -10.2491 0
      vertex -5.45029 -7.5347 0
      vertex -4.96147 -7.48659 0
    endloop
  endfacet
  facet normal 0 0 -1
    outer loop
      vertex -5.48619 -10.2933 0
      vertex -5.45029 -7.5347 0
      vertex -5.02406 -10.2491 0
    endloop
  endfacet
  facet normal 0 0 -1
    outer loop
      vertex -5.95436 -7.55074 0
      vertex -5.48619 -10.2933 0
      vertex -5.95436 -10.308 0
    endloop
  endfacet
  facet normal 0 0 -1
    outer loop
      vertex -5.48619 -10.2933 0
      vertex -5.95436 -7.55074 0
      vertex -5.45029 -7.5347 0
    endloop
  endfacet
  facet normal 0 0 1
    outer loop
      vertex -0.827713 -4.98206 1
      vertex 2.81982 -4.60025 1
      vertex -0.607376 -4.60025 1
    endloop
  endfacet
  facet normal -0 0 1
    outer loop
      vertex 2.81982 -19.2884 1
      vertex 6.98158 -21.9812 1
      vertex 6.98158 -19.2884 1
    endloop
  endfacet
  facet normal 0 0 1
    outer loop
      vertex 2.81982 -4.60025 1
      vertex -0.800613 -7.80838 1
      vertex 2.81982 -19.2884 1
    endloop
  endfacet
  facet normal 0 0 1
    outer loop
      vertex -0.800613 -19.2884 1
      vertex 2.81982 -19.2884 1
      vertex -0.800613 -7.80838 1
    endloop
  endfacet
  facet normal -0 0 1
    outer loop
      vertex -0.800613 -19.2884 1
      vertex 6.98158 -21.9812 1
      vertex 2.81982 -19.2884 1
    endloop
  endfacet
  facet normal 0 0 1
    outer loop
      vertex -5.81262 -21.9812 1
      vertex -0.800613 -19.2884 1
      vertex -5.81262 -19.2884 1
    endloop
  endfacet
  facet normal 0 0 1
    outer loop
      vertex -0.800613 -19.2884 1
      vertex -5.81262 -21.9812 1
      vertex 6.98158 -21.9812 1
    endloop
  endfacet
  facet normal 0 0 1
    outer loop
      vertex 2.81982 -4.60025 1
      vertex -0.827713 -4.98206 1
      vertex -0.800613 -7.80838 1
    endloop
  endfacet
  facet normal -0 0 1
    outer loop
      vertex -1.07645 -5.33965 1
      vertex -0.800613 -7.80838 1
      vertex -0.827713 -4.98206 1
    endloop
  endfacet
  facet normal -0 0 1
    outer loop
      vertex -1.35358 -5.67308 1
      vertex -0.800613 -7.80838 1
      vertex -1.07645 -5.33965 1
    endloop
  endfacet
  facet normal -0 0 1
    outer loop
      vertex -1.65913 -5.98232 1
      vertex -0.800613 -7.80838 1
      vertex -1.35358 -5.67308 1
    endloop
  endfacet
  facet normal -0 0 1
    outer loop
      vertex -1.99309 -6.26736 1
      vertex -0.800613 -7.80838 1
      vertex -1.65913 -5.98232 1
    endloop
  endfacet
  facet normal -0 0 1
    outer loop
      vertex -2.35544 -6.52823 1
      vertex -0.800613 -7.80838 1
      vertex -1.99309 -6.26736 1
    endloop
  endfacet
  facet normal 0 0 1
    outer loop
      vertex -0.800613 -7.80838 1
      vertex -2.35544 -6.52823 1
      vertex -0.964569 -8.10342 1
    endloop
  endfacet
  facet normal 0 0 1
    outer loop
      vertex -0.964569 -8.10342 1
      vertex -2.35544 -6.52823 1
      vertex -1.16928 -8.3848 1
    endloop
  endfacet
  facet normal -0 0 1
    outer loop
      vertex -2.74622 -6.76491 1
      vertex -1.16928 -8.3848 1
      vertex -2.35544 -6.52823 1
    endloop
  endfacet
  facet normal 0 0 1
    outer loop
      vertex -1.16928 -8.3848 1
      vertex -2.74622 -6.76491 1
      vertex -1.41475 -8.65251 1
    endloop
  endfacet
  facet normal 0 0 1
    outer loop
      vertex -1.41475 -8.65251 1
      vertex -2.74622 -6.76491 1
      vertex -1.70097 -8.90654 1
    endloop
  endfacet
  facet normal -0 0 1
    outer loop
      vertex -3.15875 -6.97339 1
      vertex -1.70097 -8.90654 1
      vertex -2.74622 -6.76491 1
    endloop
  endfacet
  facet normal 0 0 1
    outer loop
      vertex -1.70097 -8.90654 1
      vertex -3.15875 -6.97339 1
      vertex -2.02795 -9.1469 1
    endloop
  endfacet
  facet normal 0 0 1
    outer loop
      vertex -2.02795 -9.1469 1
      vertex -3.15875 -6.97339 1
      vertex -2.39568 -9.37358 1
    endloop
  endfacet
  facet normal -0 0 1
    outer loop
      vertex -3.58655 -7.14981 1
      vertex -2.39568 -9.37358 1
      vertex -3.15875 -6.97339 1
    endloop
  endfacet
  facet normal 0 0 1
    outer loop
      vertex -2.39568 -9.37358 1
      vertex -3.58655 -7.14981 1
      vertex -2.80415 -9.58659 1
    endloop
  endfacet
  facet normal -0 0 1
    outer loop
      vertex -4.0296 -7.29414 1
      vertex -2.80415 -9.58659 1
      vertex -3.58655 -7.14981 1
    endloop
  endfacet
  facet normal 0 0 1
    outer loop
      vertex -2.80415 -9.58659 1
      vertex -4.0296 -7.29414 1
      vertex -3.23604 -9.77798 1
    endloop
  endfacet
  facet normal 0 0 1
    outer loop
      vertex -3.23604 -9.77798 1
      vertex -4.0296 -7.29414 1
      vertex -3.67397 -9.93994 1
    endloop
  endfacet
  facet normal -0 0 1
    outer loop
      vertex -4.48792 -7.4064 1
      vertex -3.67397 -9.93994 1
      vertex -4.0296 -7.29414 1
    endloop
  endfacet
  facet normal 0 0 1
    outer loop
      vertex -3.67397 -9.93994 1
      vertex -4.48792 -7.4064 1
      vertex -4.11795 -10.0724 1
    endloop
  endfacet
  facet normal -0 0 1
    outer loop
      vertex -4.96147 -7.48659 1
      vertex -4.11795 -10.0724 1
      vertex -4.48792 -7.4064 1
    endloop
  endfacet
  facet normal 0 0 1
    outer loop
      vertex -4.11795 -10.0724 1
      vertex -4.96147 -7.48659 1
      vertex -4.56798 -10.1755 1
    endloop
  endfacet
  facet normal 0 0 1
    outer loop
      vertex -4.96147 -7.48659 1
      vertex -5.02406 -10.2491 1
      vertex -4.56798 -10.1755 1
    endloop
  endfacet
  facet normal -0 0 1
    outer loop
      vertex -5.45029 -7.5347 1
      vertex -5.02406 -10.2491 1
      vertex -4.96147 -7.48659 1
    endloop
  endfacet
  facet normal 0 0 1
    outer loop
      vertex -5.45029 -7.5347 1
      vertex -5.48619 -10.2933 1
      vertex -5.02406 -10.2491 1
    endloop
  endfacet
  facet normal -0 0 1
    outer loop
      vertex -5.95436 -7.55074 1
      vertex -5.48619 -10.2933 1
      vertex -5.45029 -7.5347 1
    endloop
  endfacet
  facet normal 0 0 1
    outer loop
      vertex -5.48619 -10.2933 1
      vertex -5.95436 -7.55074 1
      vertex -5.95436 -10.308 1
    endloop
  endfacet
  facet normal 0 1 -0
    outer loop
      vertex 6.98158 -19.2884 0
      vertex 2.81982 -19.2884 1
      vertex 6.98158 -19.2884 1
    endloop
  endfacet
  facet normal 0 1 0
    outer loop
      vertex 2.81982 -19.2884 1
      vertex 6.98158 -19.2884 0
      vertex 2.81982 -19.2884 0
    endloop
  endfacet
  facet normal 1 -0 0
    outer loop
      vertex 2.81982 -19.2884 1
      vertex 2.81982 -4.60025 0
      vertex 2.81982 -4.60025 1
    endloop
  endfacet
  facet normal 1 0 0
    outer loop
      vertex 2.81982 -4.60025 0
      vertex 2.81982 -19.2884 1
      vertex 2.81982 -19.2884 0
    endloop
  endfacet
  facet normal 0 1 -0
    outer loop
      vertex 2.81982 -4.60025 0
      vertex -0.607376 -4.60025 1
      vertex 2.81982 -4.60025 1
    endloop
  endfacet
  facet normal 0 1 0
    outer loop
      vertex -0.607376 -4.60025 1
      vertex 2.81982 -4.60025 0
      vertex -0.607376 -4.60025 0
    endloop
  endfacet
  facet normal -0.866125 0.499828 0
    outer loop
      vertex -0.827713 -4.98206 0
      vertex -0.607376 -4.60025 1
      vertex -0.607376 -4.60025 0
    endloop
  endfacet
  facet normal -0.866125 0.499828 0
    outer loop
      vertex -0.607376 -4.60025 1
      vertex -0.827713 -4.98206 0
      vertex -0.827713 -4.98206 1
    endloop
  endfacet
  facet normal -0.820928 0.571032 0
    outer loop
      vertex -1.07645 -5.33965 0
      vertex -0.827713 -4.98206 1
      vertex -0.827713 -4.98206 0
    endloop
  endfacet
  facet normal -0.820928 0.571032 0
    outer loop
      vertex -0.827713 -4.98206 1
      vertex -1.07645 -5.33965 0
      vertex -1.07645 -5.33965 1
    endloop
  endfacet
  facet normal -0.769047 0.639192 0
    outer loop
      vertex -1.35358 -5.67308 0
      vertex -1.07645 -5.33965 1
      vertex -1.07645 -5.33965 0
    endloop
  endfacet
  facet normal -0.769047 0.639192 0
    outer loop
      vertex -1.07645 -5.33965 1
      vertex -1.35358 -5.67308 0
      vertex -1.35358 -5.67308 1
    endloop
  endfacet
  facet normal -0.711338 0.70285 0
    outer loop
      vertex -1.65913 -5.98232 0
      vertex -1.35358 -5.67308 1
      vertex -1.35358 -5.67308 0
    endloop
  endfacet
  facet normal -0.711338 0.70285 0
    outer loop
      vertex -1.35358 -5.67308 1
      vertex -1.65913 -5.98232 0
      vertex -1.65913 -5.98232 1
    endloop
  endfacet
  facet normal -0.649199 0.760618 0
    outer loop
      vertex -1.65913 -5.98232 0
      vertex -1.99309 -6.26736 1
      vertex -1.65913 -5.98232 1
    endloop
  endfacet
  facet normal -0.649199 0.760618 0
    outer loop
      vertex -1.99309 -6.26736 1
      vertex -1.65913 -5.98232 0
      vertex -1.99309 -6.26736 0
    endloop
  endfacet
  facet normal -0.584272 0.811558 0
    outer loop
      vertex -1.99309 -6.26736 0
      vertex -2.35544 -6.52823 1
      vertex -1.99309 -6.26736 1
    endloop
  endfacet
  facet normal -0.584272 0.811558 0
    outer loop
      vertex -2.35544 -6.52823 1
      vertex -1.99309 -6.26736 0
      vertex -2.35544 -6.52823 0
    endloop
  endfacet
  facet normal -0.518051 0.855349 0
    outer loop
      vertex -2.35544 -6.52823 0
      vertex -2.74622 -6.76491 1
      vertex -2.35544 -6.52823 1
    endloop
  endfacet
  facet normal -0.518051 0.855349 0
    outer loop
      vertex -2.74622 -6.76491 1
      vertex -2.35544 -6.52823 0
      vertex -2.74622 -6.76491 0
    endloop
  endfacet
  facet normal -0.451043 0.892502 0
    outer loop
      vertex -2.74622 -6.76491 0
      vertex -3.15875 -6.97339 1
      vertex -2.74622 -6.76491 1
    endloop
  endfacet
  facet normal -0.451043 0.892502 0
    outer loop
      vertex -3.15875 -6.97339 1
      vertex -2.74622 -6.76491 0
      vertex -3.15875 -6.97339 0
    endloop
  endfacet
  facet normal -0.381243 0.924475 0
    outer loop
      vertex -3.15875 -6.97339 0
      vertex -3.58655 -7.14981 1
      vertex -3.15875 -6.97339 1
    endloop
  endfacet
  facet normal -0.381243 0.924475 0
    outer loop
      vertex -3.58655 -7.14981 1
      vertex -3.15875 -6.97339 0
      vertex -3.58655 -7.14981 0
    endloop
  endfacet
  facet normal -0.309744 0.95082 0
    outer loop
      vertex -3.58655 -7.14981 0
      vertex -4.0296 -7.29414 1
      vertex -3.58655 -7.14981 1
    endloop
  endfacet
  facet normal -0.309744 0.95082 0
    outer loop
      vertex -4.0296 -7.29414 1
      vertex -3.58655 -7.14981 0
      vertex -4.0296 -7.29414 0
    endloop
  endfacet
  facet normal -0.237905 0.971288 0
    outer loop
      vertex -4.0296 -7.29414 0
      vertex -4.48792 -7.4064 1
      vertex -4.0296 -7.29414 1
    endloop
  endfacet
  facet normal -0.237905 0.971288 0
    outer loop
      vertex -4.48792 -7.4064 1
      vertex -4.0296 -7.29414 0
      vertex -4.48792 -7.4064 0
    endloop
  endfacet
  facet normal -0.166961 0.985963 0
    outer loop
      vertex -4.48792 -7.4064 0
      vertex -4.96147 -7.48659 1
      vertex -4.48792 -7.4064 1
    endloop
  endfacet
  facet normal -0.166961 0.985963 0
    outer loop
      vertex -4.96147 -7.48659 1
      vertex -4.48792 -7.4064 0
      vertex -4.96147 -7.48659 0
    endloop
  endfacet
  facet normal -0.0979474 0.995192 0
    outer loop
      vertex -4.96147 -7.48659 0
      vertex -5.45029 -7.5347 1
      vertex -4.96147 -7.48659 1
    endloop
  endfacet
  facet normal -0.0979474 0.995192 0
    outer loop
      vertex -5.45029 -7.5347 1
      vertex -4.96147 -7.48659 0
      vertex -5.45029 -7.5347 0
    endloop
  endfacet
  facet normal -0.0318049 0.999494 0
    outer loop
      vertex -5.45029 -7.5347 0
      vertex -5.95436 -7.55074 1
      vertex -5.45029 -7.5347 1
    endloop
  endfacet
  facet normal -0.0318049 0.999494 0
    outer loop
      vertex -5.95436 -7.55074 1
      vertex -5.45029 -7.5347 0
      vertex -5.95436 -7.55074 0
    endloop
  endfacet
  facet normal -1 0 0
    outer loop
      vertex -5.95436 -10.308 0
      vertex -5.95436 -7.55074 1
      vertex -5.95436 -7.55074 0
    endloop
  endfacet
  facet normal -1 -0 0
    outer loop
      vertex -5.95436 -7.55074 1
      vertex -5.95436 -10.308 0
      vertex -5.95436 -10.308 1
    endloop
  endfacet
  facet normal 0.0313834 -0.999507 0
    outer loop
      vertex -5.95436 -10.308 0
      vertex -5.48619 -10.2933 1
      vertex -5.95436 -10.308 1
    endloop
  endfacet
  facet normal 0.0313834 -0.999507 0
    outer loop
      vertex -5.48619 -10.2933 1
      vertex -5.95436 -10.308 0
      vertex -5.48619 -10.2933 0
    endloop
  endfacet
  facet normal 0.0952096 -0.995457 0
    outer loop
      vertex -5.48619 -10.2933 0
      vertex -5.02406 -10.2491 1
      vertex -5.48619 -10.2933 1
    endloop
  endfacet
  facet normal 0.0952096 -0.995457 0
    outer loop
      vertex -5.02406 -10.2491 1
      vertex -5.48619 -10.2933 0
      vertex -5.02406 -10.2491 0
    endloop
  endfacet
  facet normal 0.159314 -0.987228 0
    outer loop
      vertex -5.02406 -10.2491 0
      vertex -4.56798 -10.1755 1
      vertex -5.02406 -10.2491 1
    endloop
  endfacet
  facet normal 0.159314 -0.987228 0
    outer loop
      vertex -4.56798 -10.1755 1
      vertex -5.02406 -10.2491 0
      vertex -4.56798 -10.1755 0
    endloop
  endfacet
  facet normal 0.223311 -0.974747 0
    outer loop
      vertex -4.56798 -10.1755 0
      vertex -4.11795 -10.0724 1
      vertex -4.56798 -10.1755 1
    endloop
  endfacet
  facet normal 0.223311 -0.974747 0
    outer loop
      vertex -4.11795 -10.0724 1
      vertex -4.56798 -10.1755 0
      vertex -4.11795 -10.0724 0
    endloop
  endfacet
  facet normal 0.285894 -0.958261 0
    outer loop
      vertex -4.11795 -10.0724 0
      vertex -3.67397 -9.93994 1
      vertex -4.11795 -10.0724 1
    endloop
  endfacet
  facet normal 0.285894 -0.958261 0
    outer loop
      vertex -3.67397 -9.93994 1
      vertex -4.11795 -10.0724 0
      vertex -3.67397 -9.93994 0
    endloop
  endfacet
  facet normal 0.346869 -0.937913 0
    outer loop
      vertex -3.67397 -9.93994 0
      vertex -3.23604 -9.77798 1
      vertex -3.67397 -9.93994 1
    endloop
  endfacet
  facet normal 0.346869 -0.937913 0
    outer loop
      vertex -3.23604 -9.77798 1
      vertex -3.67397 -9.93994 0
      vertex -3.23604 -9.77798 0
    endloop
  endfacet
  facet normal 0.405146 -0.914252 0
    outer loop
      vertex -3.23604 -9.77798 0
      vertex -2.80415 -9.58659 1
      vertex -3.23604 -9.77798 1
    endloop
  endfacet
  facet normal 0.405146 -0.914252 0
    outer loop
      vertex -2.80415 -9.58659 1
      vertex -3.23604 -9.77798 0
      vertex -2.80415 -9.58659 0
    endloop
  endfacet
  facet normal 0.462387 -0.886678 0
    outer loop
      vertex -2.80415 -9.58659 0
      vertex -2.39568 -9.37358 1
      vertex -2.80415 -9.58659 1
    endloop
  endfacet
  facet normal 0.462387 -0.886678 0
    outer loop
      vertex -2.39568 -9.37358 1
      vertex -2.80415 -9.58659 0
      vertex -2.39568 -9.37358 0
    endloop
  endfacet
  facet normal 0.524743 -0.851261 0
    outer loop
      vertex -2.39568 -9.37358 0
      vertex -2.02795 -9.1469 1
      vertex -2.39568 -9.37358 1
    endloop
  endfacet
  facet normal 0.524743 -0.851261 0
    outer loop
      vertex -2.02795 -9.1469 1
      vertex -2.39568 -9.37358 0
      vertex -2.02795 -9.1469 0
    endloop
  endfacet
  facet normal 0.592284 -0.805729 0
    outer loop
      vertex -2.02795 -9.1469 0
      vertex -1.70097 -8.90654 1
      vertex -2.02795 -9.1469 1
    endloop
  endfacet
  facet normal 0.592284 -0.805729 0
    outer loop
      vertex -1.70097 -8.90654 1
      vertex -2.02795 -9.1469 0
      vertex -1.70097 -8.90654 0
    endloop
  endfacet
  facet normal 0.663798 -0.747912 0
    outer loop
      vertex -1.70097 -8.90654 0
      vertex -1.41475 -8.65251 1
      vertex -1.70097 -8.90654 1
    endloop
  endfacet
  facet normal 0.663798 -0.747912 0
    outer loop
      vertex -1.41475 -8.65251 1
      vertex -1.70097 -8.90654 0
      vertex -1.41475 -8.65251 0
    endloop
  endfacet
  facet normal 0.737059 -0.675828 0
    outer loop
      vertex -1.41475 -8.65251 1
      vertex -1.16928 -8.3848 0
      vertex -1.16928 -8.3848 1
    endloop
  endfacet
  facet normal 0.737059 -0.675828 0
    outer loop
      vertex -1.16928 -8.3848 0
      vertex -1.41475 -8.65251 1
      vertex -1.41475 -8.65251 0
    endloop
  endfacet
  facet normal 0.808639 -0.588305 0
    outer loop
      vertex -1.16928 -8.3848 1
      vertex -0.964569 -8.10342 0
      vertex -0.964569 -8.10342 1
    endloop
  endfacet
  facet normal 0.808639 -0.588305 0
    outer loop
      vertex -0.964569 -8.10342 0
      vertex -1.16928 -8.3848 1
      vertex -1.16928 -8.3848 0
    endloop
  endfacet
  facet normal 0.874101 -0.485745 0
    outer loop
      vertex -0.964569 -8.10342 1
      vertex -0.800613 -7.80838 0
      vertex -0.800613 -7.80838 1
    endloop
  endfacet
  facet normal 0.874101 -0.485745 0
    outer loop
      vertex -0.800613 -7.80838 0
      vertex -0.964569 -8.10342 1
      vertex -0.964569 -8.10342 0
    endloop
  endfacet
  facet normal -1 0 0
    outer loop
      vertex -0.800613 -19.2884 0
      vertex -0.800613 -7.80838 1
      vertex -0.800613 -7.80838 0
    endloop
  endfacet
  facet normal -1 -0 0
    outer loop
      vertex -0.800613 -7.80838 1
      vertex -0.800613 -19.2884 0
      vertex -0.800613 -19.2884 1
    endloop
  endfacet
  facet normal 0 1 -0
    outer loop
      vertex -0.800613 -19.2884 0
      vertex -5.81262 -19.2884 1
      vertex -0.800613 -19.2884 1
    endloop
  endfacet
  facet normal 0 1 0
    outer loop
      vertex -5.81262 -19.2884 1
      vertex -0.800613 -19.2884 0
      vertex -5.81262 -19.2884 0
    endloop
  endfacet
  facet normal -1 0 0
    outer loop
      vertex -5.81262 -21.9812 0
      vertex -5.81262 -19.2884 1
      vertex -5.81262 -19.2884 0
    endloop
  endfacet
  facet normal -1 -0 0
    outer loop
      vertex -5.81262 -19.2884 1
      vertex -5.81262 -21.9812 0
      vertex -5.81262 -21.9812 1
    endloop
  endfacet
  facet normal 0 -1 0
    outer loop
      vertex -5.81262 -21.9812 0
      vertex 6.98158 -21.9812 1
      vertex -5.81262 -21.9812 1
    endloop
  endfacet
  facet normal 0 -1 -0
    outer loop
      vertex 6.98158 -21.9812 1
      vertex -5.81262 -21.9812 0
      vertex 6.98158 -21.9812 0
    endloop
  endfacet
  facet normal 1 -0 0
    outer loop
      vertex 6.98158 -21.9812 1
      vertex 6.98158 -19.2884 0
      vertex 6.98158 -19.2884 1
    endloop
  endfacet
  facet normal 1 0 0
    outer loop
      vertex 6.98158 -19.2884 0
      vertex 6.98158 -21.9812 1
      vertex 6.98158 -21.9812 0
    endloop
  endfacet
endsolid OpenSCAD_Model
