  0
SECTION
  2
BLOCKS
  0
ENDSEC
  0
SECTION
  2
ENTITIES
  0
LINE
  8
0
 10
19.6691
 20
-47.7984
 11
-5.6098
 21
-47.7984
  0
LINE
  8
0
 10
-5.6098
 20
-47.7984
 11
-5.24937
 21
-47.0491
  0
LINE
  8
0
 10
-5.24937
 20
-47.0491
 11
-4.83055
 21
-46.3029
  0
LINE
  8
0
 10
-4.83055
 20
-46.3029
 11
-4.35338
 21
-45.5599
  0
LINE
  8
0
 10
-4.35338
 20
-45.5599
 11
-3.81783
 21
-44.82
  0
LINE
  8
0
 10
-3.81783
 20
-44.82
 11
-3.22389
 21
-44.0833
  0
LINE
  8
0
 10
-3.22389
 20
-44.0833
 11
-2.57159
 21
-43.3498
  0
LINE
  8
0
 10
-2.57159
 20
-43.3498
 11
-1.86092
 21
-42.6194
  0
LINE
  8
0
 10
-1.86092
 20
-42.6194
 11
-1.02071
 21
-41.8242
  0
LINE
  8
0
 10
-1.02071
 20
-41.8242
 11
0.0198364
 21
-40.8965
  0
LINE
  8
0
 10
0.0198364
 20
-40.8965
 11
1.26076
 21
-39.8362
  0
LINE
  8
0
 10
1.26076
 20
-39.8362
 11
2.70204
 21
-38.6435
  0
LINE
  8
0
 10
2.70204
 20
-38.6435
 11
4.34369
 21
-37.3182
  0
LINE
  8
0
 10
4.34369
 20
-37.3182
 11
6.1857
 21
-35.8604
  0
LINE
  8
0
 10
6.1857
 20
-35.8604
 11
8.22807
 21
-34.2701
  0
LINE
  8
0
 10
8.22807
 20
-34.2701
 11
9.68698
 21
-33.0911
  0
LINE
  8
0
 10
9.68698
 20
-33.0911
 11
11.0378
 21
-31.9178
  0
LINE
  8
0
 10
11.0378
 20
-31.9178
 11
12.2806
 21
-30.7499
  0
LINE
  8
0
 10
12.2806
 20
-30.7499
 11
13.4153
 21
-29.5876
  0
LINE
  8
0
 10
13.4153
 20
-29.5876
 11
14.4419
 21
-28.4308
  0
LINE
  8
0
 10
14.4419
 20
-28.4308
 11
15.3605
 21
-27.2796
  0
LINE
  8
0
 10
15.3605
 20
-27.2796
 11
16.171
 21
-26.1339
  0
LINE
  8
0
 10
16.171
 20
-26.1339
 11
16.8735
 21
-24.9865
  0
LINE
  8
0
 10
16.8735
 20
-24.9865
 11
17.4678
 21
-23.8303
  0
LINE
  8
0
 10
17.4678
 20
-23.8303
 11
17.9541
 21
-22.6655
  0
LINE
  8
0
 10
17.9541
 20
-22.6655
 11
18.3324
 21
-21.4921
  0
LINE
  8
0
 10
18.3324
 20
-21.4921
 11
18.6025
 21
-20.3099
  0
LINE
  8
0
 10
18.6025
 20
-20.3099
 11
18.7646
 21
-19.1191
  0
LINE
  8
0
 10
18.7646
 20
-19.1191
 11
18.8187
 21
-17.9196
  0
LINE
  8
0
 10
18.8187
 20
-17.9196
 11
18.7185
 21
-16.1287
  0
LINE
  8
0
 10
18.7185
 20
-16.1287
 11
18.418
 21
-14.4442
  0
LINE
  8
0
 10
18.418
 20
-14.4442
 11
17.9171
 21
-12.8662
  0
LINE
  8
0
 10
17.9171
 20
-12.8662
 11
17.2158
 21
-11.3947
  0
LINE
  8
0
 10
17.2158
 20
-11.3947
 11
16.3142
 21
-10.0297
  0
LINE
  8
0
 10
16.3142
 20
-10.0297
 11
15.2122
 21
-8.77118
  0
LINE
  8
0
 10
15.2122
 20
-8.77118
 11
13.9098
 21
-7.61914
  0
LINE
  8
0
 10
13.9098
 20
-7.61914
 11
12.4355
 21
-6.59868
  0
LINE
  8
0
 10
12.4355
 20
-6.59868
 11
10.8176
 21
-5.73521
  0
LINE
  8
0
 10
10.8176
 20
-5.73521
 11
9.05618
 21
-5.02873
  0
LINE
  8
0
 10
9.05618
 20
-5.02873
 11
7.15117
 21
-4.47928
  0
LINE
  8
0
 10
7.15117
 20
-4.47928
 11
5.10257
 21
-4.08679
  0
LINE
  8
0
 10
5.10257
 20
-4.08679
 11
2.91042
 21
-3.85129
  0
LINE
  8
0
 10
2.91042
 20
-3.85129
 11
0.574677
 21
-3.7728
  0
LINE
  8
0
 10
0.574677
 20
-3.7728
 11
-1.68581
 21
-3.85405
  0
LINE
  8
0
 10
-1.68581
 20
-3.85405
 11
-3.80667
 21
-4.09781
  0
LINE
  8
0
 10
-3.80667
 20
-4.09781
 11
-5.7879
 21
-4.50409
  0
LINE
  8
0
 10
-5.7879
 20
-4.50409
 11
-7.62949
 21
-5.07285
  0
LINE
  8
0
 10
-7.62949
 20
-5.07285
 11
-9.33144
 21
-5.80414
  0
LINE
  8
0
 10
-9.33144
 20
-5.80414
 11
-10.8938
 21
-6.69792
  0
LINE
  8
0
 10
-10.8938
 20
-6.69792
 11
-12.3164
 21
-7.75423
  0
LINE
  8
0
 10
-12.3164
 20
-7.75423
 11
-13.5916
 21
-8.965
  0
LINE
  8
0
 10
-13.5916
 20
-8.965
 11
-14.7113
 21
-10.3225
  0
LINE
  8
0
 10
-14.7113
 20
-10.3225
 11
-15.6756
 21
-11.8267
  0
LINE
  8
0
 10
-15.6756
 20
-11.8267
 11
-16.4845
 21
-13.4777
  0
LINE
  8
0
 10
-16.4845
 20
-13.4777
 11
-17.138
 21
-15.2754
  0
LINE
  8
0
 10
-17.138
 20
-15.2754
 11
-17.6361
 21
-17.2198
  0
LINE
  8
0
 10
-17.6361
 20
-17.2198
 11
-17.9788
 21
-19.311
  0
LINE
  8
0
 10
-17.9788
 20
-19.311
 11
-7.03993
 21
-19.9294
  0
LINE
  8
0
 10
-7.03993
 20
-19.9294
 11
-6.85895
 21
-18.8966
  0
LINE
  8
0
 10
-6.85895
 20
-18.8966
 11
-6.62512
 21
-17.9402
  0
LINE
  8
0
 10
-6.62512
 20
-17.9402
 11
-6.33841
 21
-17.0603
  0
LINE
  8
0
 10
-6.33841
 20
-17.0603
 11
-5.99886
 21
-16.257
  0
LINE
  8
0
 10
-5.99886
 20
-16.257
 11
-5.60645
 21
-15.5301
  0
LINE
  8
0
 10
-5.60645
 20
-15.5301
 11
-5.16116
 21
-14.8797
  0
LINE
  8
0
 10
-5.16116
 20
-14.8797
 11
-4.66304
 21
-14.3058
  0
LINE
  8
0
 10
-4.66304
 20
-14.3058
 11
-4.10495
 21
-13.8084
  0
LINE
  8
0
 10
-4.10495
 20
-13.8084
 11
-3.47981
 21
-13.3876
  0
LINE
  8
0
 10
-3.47981
 20
-13.3876
 11
-2.78761
 21
-13.0432
  0
LINE
  8
0
 10
-2.78761
 20
-13.0432
 11
-2.02838
 21
-12.7754
  0
LINE
  8
0
 10
-2.02838
 20
-12.7754
 11
-1.20209
 21
-12.5841
  0
LINE
  8
0
 10
-1.20209
 20
-12.5841
 11
-0.308746
 21
-12.4693
  0
LINE
  8
0
 10
-0.308746
 20
-12.4693
 11
0.651627
 21
-12.4311
  0
LINE
  8
0
 10
0.651627
 20
-12.4311
 11
1.6219
 21
-12.4634
  0
LINE
  8
0
 10
1.6219
 20
-12.4634
 11
2.52277
 21
-12.5604
  0
LINE
  8
0
 10
2.52277
 20
-12.5604
 11
3.3542
 21
-12.7221
  0
LINE
  8
0
 10
3.3542
 20
-12.7221
 11
4.11621
 21
-12.9485
  0
LINE
  8
0
 10
4.11621
 20
-12.9485
 11
4.80879
 21
-13.2395
  0
LINE
  8
0
 10
4.80879
 20
-13.2395
 11
5.43195
 21
-13.5953
  0
LINE
  8
0
 10
5.43195
 20
-13.5953
 11
5.98569
 21
-14.0157
  0
LINE
  8
0
 10
5.98569
 20
-14.0157
 11
6.46779
 21
-14.4929
  0
LINE
  8
0
 10
6.46779
 20
-14.4929
 11
6.87573
 21
-15.019
  0
LINE
  8
0
 10
6.87573
 20
-15.019
 11
7.20949
 21
-15.5941
  0
LINE
  8
0
 10
7.20949
 20
-15.5941
 11
7.46909
 21
-16.2181
  0
LINE
  8
0
 10
7.46909
 20
-16.2181
 11
7.65451
 21
-16.891
  0
LINE
  8
0
 10
7.65451
 20
-16.891
 11
7.76576
 21
-17.6128
  0
LINE
  8
0
 10
7.76576
 20
-17.6128
 11
7.80286
 21
-18.3836
  0
LINE
  8
0
 10
7.80286
 20
-18.3836
 11
7.7843
 21
-18.8462
  0
LINE
  8
0
 10
7.7843
 20
-18.8462
 11
7.72868
 21
-19.3065
  0
LINE
  8
0
 10
7.72868
 20
-19.3065
 11
7.63597
 21
-19.7645
  0
LINE
  8
0
 10
7.63597
 20
-19.7645
 11
7.50616
 21
-20.2201
  0
LINE
  8
0
 10
7.50616
 20
-20.2201
 11
7.33929
 21
-20.6733
  0
LINE
  8
0
 10
7.33929
 20
-20.6733
 11
7.13531
 21
-21.1242
  0
LINE
  8
0
 10
7.13531
 20
-21.1242
 11
6.89427
 21
-21.5727
  0
LINE
  8
0
 10
6.89427
 20
-21.5727
 11
6.62088
 21
-22.0219
  0
LINE
  8
0
 10
6.62088
 20
-22.0219
 11
6.3199
 21
-22.4751
  0
LINE
  8
0
 10
6.3199
 20
-22.4751
 11
5.99132
 21
-22.9322
  0
LINE
  8
0
 10
5.99132
 20
-22.9322
 11
5.63515
 21
-23.3932
  0
LINE
  8
0
 10
5.63515
 20
-23.3932
 11
5.25139
 21
-23.8582
  0
LINE
  8
0
 10
5.25139
 20
-23.8582
 11
4.84004
 21
-24.3272
  0
LINE
  8
0
 10
4.84004
 20
-24.3272
 11
4.40109
 21
-24.8001
  0
LINE
  8
0
 10
4.40109
 20
-24.8001
 11
3.87183
 21
-25.3302
  0
LINE
  8
0
 10
3.87183
 20
-25.3302
 11
3.18953
 21
-25.9707
  0
LINE
  8
0
 10
3.18953
 20
-25.9707
 11
2.35419
 21
-26.7217
  0
LINE
  8
0
 10
2.35419
 20
-26.7217
 11
1.3658
 21
-27.5832
  0
LINE
  8
0
 10
1.3658
 20
-27.5832
 11
0.22438
 21
-28.555
  0
LINE
  8
0
 10
0.22438
 20
-28.555
 11
-1.07005
 21
-29.6374
  0
LINE
  8
0
 10
-1.07005
 20
-29.6374
 11
-2.51756
 21
-30.8301
  0
LINE
  8
0
 10
-2.51756
 20
-30.8301
 11
-4.40567
 21
-32.394
  0
LINE
  8
0
 10
-4.40567
 20
-32.394
 11
-6.16048
 21
-33.905
  0
LINE
  8
0
 10
-6.16048
 20
-33.905
 11
-7.78198
 21
-35.3631
  0
LINE
  8
0
 10
-7.78198
 20
-35.3631
 11
-9.27017
 21
-36.7684
  0
LINE
  8
0
 10
-9.27017
 20
-36.7684
 11
-10.625
 21
-38.1209
  0
LINE
  8
0
 10
-10.625
 20
-38.1209
 11
-11.8466
 21
-39.4205
  0
LINE
  8
0
 10
-11.8466
 20
-39.4205
 11
-12.9349
 21
-40.6672
  0
LINE
  8
0
 10
-12.9349
 20
-40.6672
 11
-13.9228
 21
-41.8871
  0
LINE
  8
0
 10
-13.9228
 20
-41.8871
 11
-14.8437
 21
-43.1062
  0
LINE
  8
0
 10
-14.8437
 20
-43.1062
 11
-15.6976
 21
-44.3246
  0
LINE
  8
0
 10
-15.6976
 20
-44.3246
 11
-16.4844
 21
-45.5422
  0
LINE
  8
0
 10
-16.4844
 20
-45.5422
 11
-17.2042
 21
-46.759
  0
LINE
  8
0
 10
-17.2042
 20
-46.759
 11
-17.857
 21
-47.9751
  0
LINE
  8
0
 10
-17.857
 20
-47.9751
 11
-18.4428
 21
-49.1904
  0
LINE
  8
0
 10
-18.4428
 20
-49.1904
 11
-18.4428
 21
-56.7275
  0
LINE
  8
0
 10
-18.4428
 20
-56.7275
 11
19.6691
 21
-56.7275
  0
LINE
  8
0
 10
19.6691
 20
-56.7275
 11
19.6691
 21
-47.7984
  0
ENDSEC
  0
SECTION
  2
OBJECTS
  0
DICTIONARY
  0
ENDSEC
  0
EOF
