solid OpenSCAD_Model
  facet normal 0 0 -1
    outer loop
      vertex 10.8563 -55.9437 0
      vertex 5.79247 -26.1806 0
      vertex 24.3078 -55.9437 0
    endloop
  endfacet
  facet normal 0 -0 -1
    outer loop
      vertex 5.79247 -26.1806 0
      vertex 10.8563 -55.9437 0
      vertex -1.62892 -34.4137 0
    endloop
  endfacet
  facet normal 0 0 -1
    outer loop
      vertex 5.79247 -26.1806 0
      vertex 10.3148 -3.80072 0
      vertex 23.573 -3.80072 0
    endloop
  endfacet
  facet normal 0 0 -1
    outer loop
      vertex -6.53777 -26.9541 0
      vertex 5.79247 -26.1806 0
      vertex -1.62892 -34.4137 0
    endloop
  endfacet
  facet normal 0 0 -1
    outer loop
      vertex -6.53777 -26.9541 0
      vertex -1.62892 -34.4137 0
      vertex -6.53777 -39.9028 0
    endloop
  endfacet
  facet normal -0 0 -1
    outer loop
      vertex 5.79247 -26.1806 0
      vertex -6.53777 -26.9541 0
      vertex 10.3148 -3.80072 0
    endloop
  endfacet
  facet normal 0 0 -1
    outer loop
      vertex -17.94 -55.9437 0
      vertex -6.53777 -39.9028 0
      vertex -6.53777 -55.9437 0
    endloop
  endfacet
  facet normal -0 0 -1
    outer loop
      vertex -6.53777 -39.9028 0
      vertex -17.94 -55.9437 0
      vertex -6.53777 -26.9541 0
    endloop
  endfacet
  facet normal 0 0 -1
    outer loop
      vertex -17.94 -3.80072 0
      vertex -6.53777 -26.9541 0
      vertex -17.94 -55.9437 0
    endloop
  endfacet
  facet normal 0 0 -1
    outer loop
      vertex -6.53777 -26.9541 0
      vertex -17.94 -3.80072 0
      vertex -6.53777 -3.80072 0
    endloop
  endfacet
  facet normal -0 0 1
    outer loop
      vertex -17.94 -3.80072 1
      vertex -6.53777 -26.9541 1
      vertex -6.53777 -3.80072 1
    endloop
  endfacet
  facet normal 0 0 1
    outer loop
      vertex -17.94 -55.9437 1
      vertex -6.53777 -26.9541 1
      vertex -17.94 -3.80072 1
    endloop
  endfacet
  facet normal 0 0 1
    outer loop
      vertex -6.53777 -26.9541 1
      vertex -17.94 -55.9437 1
      vertex -6.53777 -39.9028 1
    endloop
  endfacet
  facet normal 0 0 1
    outer loop
      vertex -6.53777 -39.9028 1
      vertex -17.94 -55.9437 1
      vertex -6.53777 -55.9437 1
    endloop
  endfacet
  facet normal -0 0 1
    outer loop
      vertex 10.3148 -3.80072 1
      vertex 5.79247 -26.1806 1
      vertex 23.573 -3.80072 1
    endloop
  endfacet
  facet normal 0 0 1
    outer loop
      vertex -6.53777 -26.9541 1
      vertex 5.79247 -26.1806 1
      vertex 10.3148 -3.80072 1
    endloop
  endfacet
  facet normal 0 0 1
    outer loop
      vertex 5.79247 -26.1806 1
      vertex -6.53777 -26.9541 1
      vertex -1.62892 -34.4137 1
    endloop
  endfacet
  facet normal 0 0 1
    outer loop
      vertex -1.62892 -34.4137 1
      vertex -6.53777 -26.9541 1
      vertex -6.53777 -39.9028 1
    endloop
  endfacet
  facet normal 0 0 1
    outer loop
      vertex 5.79247 -26.1806 1
      vertex 10.8563 -55.9437 1
      vertex 24.3078 -55.9437 1
    endloop
  endfacet
  facet normal 0 0 1
    outer loop
      vertex 10.8563 -55.9437 1
      vertex 5.79247 -26.1806 1
      vertex -1.62892 -34.4137 1
    endloop
  endfacet
  facet normal 0.745407 -0.66661 0
    outer loop
      vertex -6.53777 -39.9028 1
      vertex -1.62892 -34.4137 0
      vertex -1.62892 -34.4137 1
    endloop
  endfacet
  facet normal 0.745407 -0.66661 0
    outer loop
      vertex -1.62892 -34.4137 0
      vertex -6.53777 -39.9028 1
      vertex -6.53777 -39.9028 0
    endloop
  endfacet
  facet normal -0.865069 -0.501653 0
    outer loop
      vertex 10.8563 -55.9437 0
      vertex -1.62892 -34.4137 1
      vertex -1.62892 -34.4137 0
    endloop
  endfacet
  facet normal -0.865069 -0.501653 0
    outer loop
      vertex -1.62892 -34.4137 1
      vertex 10.8563 -55.9437 0
      vertex 10.8563 -55.9437 1
    endloop
  endfacet
  facet normal 0 -1 0
    outer loop
      vertex 10.8563 -55.9437 0
      vertex 24.3078 -55.9437 1
      vertex 10.8563 -55.9437 1
    endloop
  endfacet
  facet normal 0 -1 -0
    outer loop
      vertex 24.3078 -55.9437 1
      vertex 10.8563 -55.9437 0
      vertex 24.3078 -55.9437 0
    endloop
  endfacet
  facet normal 0.849107 0.528221 0
    outer loop
      vertex 24.3078 -55.9437 1
      vertex 5.79247 -26.1806 0
      vertex 5.79247 -26.1806 1
    endloop
  endfacet
  facet normal 0.849107 0.528221 0
    outer loop
      vertex 5.79247 -26.1806 0
      vertex 24.3078 -55.9437 1
      vertex 24.3078 -55.9437 0
    endloop
  endfacet
  facet normal 0.78297 -0.62206 0
    outer loop
      vertex 5.79247 -26.1806 1
      vertex 23.573 -3.80072 0
      vertex 23.573 -3.80072 1
    endloop
  endfacet
  facet normal 0.78297 -0.62206 0
    outer loop
      vertex 23.573 -3.80072 0
      vertex 5.79247 -26.1806 1
      vertex 5.79247 -26.1806 0
    endloop
  endfacet
  facet normal 0 1 -0
    outer loop
      vertex 23.573 -3.80072 0
      vertex 10.3148 -3.80072 1
      vertex 23.573 -3.80072 1
    endloop
  endfacet
  facet normal 0 1 0
    outer loop
      vertex 10.3148 -3.80072 1
      vertex 23.573 -3.80072 0
      vertex 10.3148 -3.80072 0
    endloop
  endfacet
  facet normal -0.808508 0.588486 0
    outer loop
      vertex -6.53777 -26.9541 0
      vertex 10.3148 -3.80072 1
      vertex 10.3148 -3.80072 0
    endloop
  endfacet
  facet normal -0.808508 0.588486 0
    outer loop
      vertex 10.3148 -3.80072 1
      vertex -6.53777 -26.9541 0
      vertex -6.53777 -26.9541 1
    endloop
  endfacet
  facet normal 1 -0 0
    outer loop
      vertex -6.53777 -26.9541 1
      vertex -6.53777 -3.80072 0
      vertex -6.53777 -3.80072 1
    endloop
  endfacet
  facet normal 1 0 0
    outer loop
      vertex -6.53777 -3.80072 0
      vertex -6.53777 -26.9541 1
      vertex -6.53777 -26.9541 0
    endloop
  endfacet
  facet normal 0 1 -0
    outer loop
      vertex -6.53777 -3.80072 0
      vertex -17.94 -3.80072 1
      vertex -6.53777 -3.80072 1
    endloop
  endfacet
  facet normal 0 1 0
    outer loop
      vertex -17.94 -3.80072 1
      vertex -6.53777 -3.80072 0
      vertex -17.94 -3.80072 0
    endloop
  endfacet
  facet normal -1 0 0
    outer loop
      vertex -17.94 -55.9437 0
      vertex -17.94 -3.80072 1
      vertex -17.94 -3.80072 0
    endloop
  endfacet
  facet normal -1 -0 0
    outer loop
      vertex -17.94 -3.80072 1
      vertex -17.94 -55.9437 0
      vertex -17.94 -55.9437 1
    endloop
  endfacet
  facet normal 0 -1 0
    outer loop
      vertex -17.94 -55.9437 0
      vertex -6.53777 -55.9437 1
      vertex -17.94 -55.9437 1
    endloop
  endfacet
  facet normal 0 -1 -0
    outer loop
      vertex -6.53777 -55.9437 1
      vertex -17.94 -55.9437 0
      vertex -6.53777 -55.9437 0
    endloop
  endfacet
  facet normal 1 -0 0
    outer loop
      vertex -6.53777 -55.9437 1
      vertex -6.53777 -39.9028 0
      vertex -6.53777 -39.9028 1
    endloop
  endfacet
  facet normal 1 0 0
    outer loop
      vertex -6.53777 -39.9028 0
      vertex -6.53777 -55.9437 1
      vertex -6.53777 -55.9437 0
    endloop
  endfacet
endsolid OpenSCAD_Model
