<?xml version="1.0" standalone="no"?>
<!DOCTYPE svg PUBLIC "-//W3C//DTD SVG 1.1//EN" "http://www.w3.org/Graphics/SVG/1.1/DTD/svg11.dtd">
<svg width="68mm" height="87mm" viewBox="-33 -2 68 87" xmlns="http://www.w3.org/2000/svg" version="1.1">
<title>OpenSCAD Model</title>
<path d="
M -18.1115,28.9883 L -18.1207,27.2094 L -18.1483,25.4069 L -18.1942,23.5807 L -18.2586,21.7308 L -18.3413,19.8571
 L -18.4424,17.9598 L -18.5618,16.0388 L -19.0131,9.59689 L -18.1717,13.7211 L -17.3776,17.5167 L -16.6308,20.9836
 L -15.9314,24.1219 L -15.2792,26.9315 L -14.6743,29.4124 L -14.1168,31.5647 L -5.99998,61.7139 L 8.04385,61.7139
 L 16.0324,31.5647 L 16.3834,30.3119 L 16.8475,28.4305 L 17.4247,25.9208 L 18.115,22.7825 L 18.9183,19.0158
 L 19.8347,14.6206 L 20.8641,9.59689 L 20.5906,13.0848 L 20.3593,16.3335 L 20.1699,19.343 L 20.0227,22.1132
 L 19.9175,24.6441 L 19.8544,26.9358 L 19.8334,28.9883 L 19.8334,84.9062 L 34.1347,84.9062 L 34.1347,-1.99879
 L 12.5535,-1.99879 L 3.79166,30.2119 L 3.4236,31.6976 L 3.05554,33.3936 L 2.68748,35.3 L 2.31943,37.4167
 L 1.95137,39.7438 L 1.58331,42.2812 L 1.21526,45.029 L 0.802353,41.8225 L 0.410507,38.9762 L 0.0397186,36.49
 L -0.309998,34.3641 L -0.638687,32.5983 L -0.946304,31.1927 L -1.23288,30.1473 L -9.93013,-1.99879 L -32.2846,-1.99879
 L -32.2846,84.9062 L -18.1115,84.9062 z
" stroke="black" fill="lightgray" stroke-width="0.5"/>
</svg>
