  0
SECTION
  2
BLOCKS
  0
ENDSEC
  0
SECTION
  2
ENTITIES
  0
LINE
  8
0
 10
-18.1115
 20
-28.9883
 11
-18.1207
 21
-27.2094
  0
LINE
  8
0
 10
-18.1207
 20
-27.2094
 11
-18.1483
 21
-25.4069
  0
LINE
  8
0
 10
-18.1483
 20
-25.4069
 11
-18.1942
 21
-23.5807
  0
LINE
  8
0
 10
-18.1942
 20
-23.5807
 11
-18.2586
 21
-21.7308
  0
LINE
  8
0
 10
-18.2586
 20
-21.7308
 11
-18.3413
 21
-19.8571
  0
LINE
  8
0
 10
-18.3413
 20
-19.8571
 11
-18.4424
 21
-17.9598
  0
LINE
  8
0
 10
-18.4424
 20
-17.9598
 11
-18.5618
 21
-16.0388
  0
LINE
  8
0
 10
-18.5618
 20
-16.0388
 11
-19.0131
 21
-9.59689
  0
LINE
  8
0
 10
-19.0131
 20
-9.59689
 11
-18.1717
 21
-13.7211
  0
LINE
  8
0
 10
-18.1717
 20
-13.7211
 11
-17.3776
 21
-17.5167
  0
LINE
  8
0
 10
-17.3776
 20
-17.5167
 11
-16.6308
 21
-20.9836
  0
LINE
  8
0
 10
-16.6308
 20
-20.9836
 11
-15.9314
 21
-24.1219
  0
LINE
  8
0
 10
-15.9314
 20
-24.1219
 11
-15.2792
 21
-26.9315
  0
LINE
  8
0
 10
-15.2792
 20
-26.9315
 11
-14.6743
 21
-29.4124
  0
LINE
  8
0
 10
-14.6743
 20
-29.4124
 11
-14.1168
 21
-31.5647
  0
LINE
  8
0
 10
-14.1168
 20
-31.5647
 11
-5.99998
 21
-61.7139
  0
LINE
  8
0
 10
-5.99998
 20
-61.7139
 11
8.04385
 21
-61.7139
  0
LINE
  8
0
 10
8.04385
 20
-61.7139
 11
16.0324
 21
-31.5647
  0
LINE
  8
0
 10
16.0324
 20
-31.5647
 11
16.3834
 21
-30.3119
  0
LINE
  8
0
 10
16.3834
 20
-30.3119
 11
16.8475
 21
-28.4305
  0
LINE
  8
0
 10
16.8475
 20
-28.4305
 11
17.4247
 21
-25.9208
  0
LINE
  8
0
 10
17.4247
 20
-25.9208
 11
18.115
 21
-22.7825
  0
LINE
  8
0
 10
18.115
 20
-22.7825
 11
18.9183
 21
-19.0158
  0
LINE
  8
0
 10
18.9183
 20
-19.0158
 11
19.8347
 21
-14.6206
  0
LINE
  8
0
 10
19.8347
 20
-14.6206
 11
20.8641
 21
-9.59689
  0
LINE
  8
0
 10
20.8641
 20
-9.59689
 11
20.5906
 21
-13.0848
  0
LINE
  8
0
 10
20.5906
 20
-13.0848
 11
20.3593
 21
-16.3335
  0
LINE
  8
0
 10
20.3593
 20
-16.3335
 11
20.1699
 21
-19.343
  0
LINE
  8
0
 10
20.1699
 20
-19.343
 11
20.0227
 21
-22.1132
  0
LINE
  8
0
 10
20.0227
 20
-22.1132
 11
19.9175
 21
-24.6441
  0
LINE
  8
0
 10
19.9175
 20
-24.6441
 11
19.8544
 21
-26.9358
  0
LINE
  8
0
 10
19.8544
 20
-26.9358
 11
19.8334
 21
-28.9883
  0
LINE
  8
0
 10
19.8334
 20
-28.9883
 11
19.8334
 21
-84.9062
  0
LINE
  8
0
 10
19.8334
 20
-84.9062
 11
34.1347
 21
-84.9062
  0
LINE
  8
0
 10
34.1347
 20
-84.9062
 11
34.1347
 21
1.99879
  0
LINE
  8
0
 10
34.1347
 20
1.99879
 11
12.5535
 21
1.99879
  0
LINE
  8
0
 10
12.5535
 20
1.99879
 11
3.79166
 21
-30.2119
  0
LINE
  8
0
 10
3.79166
 20
-30.2119
 11
3.4236
 21
-31.6976
  0
LINE
  8
0
 10
3.4236
 20
-31.6976
 11
3.05554
 21
-33.3936
  0
LINE
  8
0
 10
3.05554
 20
-33.3936
 11
2.68748
 21
-35.3
  0
LINE
  8
0
 10
2.68748
 20
-35.3
 11
2.31943
 21
-37.4167
  0
LINE
  8
0
 10
2.31943
 20
-37.4167
 11
1.95137
 21
-39.7438
  0
LINE
  8
0
 10
1.95137
 20
-39.7438
 11
1.58331
 21
-42.2812
  0
LINE
  8
0
 10
1.58331
 20
-42.2812
 11
1.21526
 21
-45.029
  0
LINE
  8
0
 10
1.21526
 20
-45.029
 11
0.802353
 21
-41.8225
  0
LINE
  8
0
 10
0.802353
 20
-41.8225
 11
0.410507
 21
-38.9762
  0
LINE
  8
0
 10
0.410507
 20
-38.9762
 11
0.0397186
 21
-36.49
  0
LINE
  8
0
 10
0.0397186
 20
-36.49
 11
-0.309998
 21
-34.3641
  0
LINE
  8
0
 10
-0.309998
 20
-34.3641
 11
-0.638687
 21
-32.5983
  0
LINE
  8
0
 10
-0.638687
 20
-32.5983
 11
-0.946304
 21
-31.1927
  0
LINE
  8
0
 10
-0.946304
 20
-31.1927
 11
-1.23288
 21
-30.1473
  0
LINE
  8
0
 10
-1.23288
 20
-30.1473
 11
-9.93013
 21
1.99879
  0
LINE
  8
0
 10
-9.93013
 20
1.99879
 11
-32.2846
 21
1.99879
  0
LINE
  8
0
 10
-32.2846
 20
1.99879
 11
-32.2846
 21
-84.9062
  0
LINE
  8
0
 10
-32.2846
 20
-84.9062
 11
-18.1115
 21
-84.9062
  0
LINE
  8
0
 10
-18.1115
 20
-84.9062
 11
-18.1115
 21
-28.9883
  0
ENDSEC
  0
SECTION
  2
OBJECTS
  0
DICTIONARY
  0
ENDSEC
  0
EOF
