  0
SECTION
  2
BLOCKS
  0
ENDSEC
  0
SECTION
  2
ENTITIES
  0
LINE
  8
0
 10
-3.6223
 20
-10.7977
 11
-3.62415
 21
-10.4419
  0
LINE
  8
0
 10
-3.62415
 20
-10.4419
 11
-3.62965
 21
-10.0814
  0
LINE
  8
0
 10
-3.62965
 20
-10.0814
 11
-3.63884
 21
-9.71613
  0
LINE
  8
0
 10
-3.63884
 20
-9.71613
 11
-3.6517
 21
-9.34615
  0
LINE
  8
0
 10
-3.6517
 20
-9.34615
 11
-3.66824
 21
-8.97142
  0
LINE
  8
0
 10
-3.66824
 20
-8.97142
 11
-3.68846
 21
-8.59196
  0
LINE
  8
0
 10
-3.68846
 20
-8.59196
 11
-3.71236
 21
-8.20776
  0
LINE
  8
0
 10
-3.71236
 20
-8.20776
 11
-3.80261
 21
-6.91937
  0
LINE
  8
0
 10
-3.80261
 20
-6.91937
 11
-3.63434
 21
-7.74422
  0
LINE
  8
0
 10
-3.63434
 20
-7.74422
 11
-3.47551
 21
-8.50334
  0
LINE
  8
0
 10
-3.47551
 20
-8.50334
 11
-3.32616
 21
-9.19672
  0
LINE
  8
0
 10
-3.32616
 20
-9.19672
 11
-3.18626
 21
-9.82437
  0
LINE
  8
0
 10
-3.18626
 20
-9.82437
 11
-3.05583
 21
-10.3863
  0
LINE
  8
0
 10
-3.05583
 20
-10.3863
 11
-2.93486
 21
-10.8825
  0
LINE
  8
0
 10
-2.93486
 20
-10.8825
 11
-2.82335
 21
-11.3129
  0
LINE
  8
0
 10
-2.82335
 20
-11.3129
 11
-1.2
 21
-17.3428
  0
LINE
  8
0
 10
-1.2
 20
-17.3428
 11
1.60876
 21
-17.3428
  0
LINE
  8
0
 10
1.60876
 20
-17.3428
 11
3.20648
 21
-11.3129
  0
LINE
  8
0
 10
3.20648
 20
-11.3129
 11
3.27669
 21
-11.0624
  0
LINE
  8
0
 10
3.27669
 20
-11.0624
 11
3.36951
 21
-10.6861
  0
LINE
  8
0
 10
3.36951
 20
-10.6861
 11
3.48494
 21
-10.1841
  0
LINE
  8
0
 10
3.48494
 20
-10.1841
 11
3.62299
 21
-9.55649
  0
LINE
  8
0
 10
3.62299
 20
-9.55649
 11
3.78365
 21
-8.80315
  0
LINE
  8
0
 10
3.78365
 20
-8.80315
 11
3.96692
 21
-7.9241
  0
LINE
  8
0
 10
3.96692
 20
-7.9241
 11
4.17282
 21
-6.91937
  0
LINE
  8
0
 10
4.17282
 20
-6.91937
 11
4.11812
 21
-7.61696
  0
LINE
  8
0
 10
4.11812
 20
-7.61696
 11
4.07184
 21
-8.26669
  0
LINE
  8
0
 10
4.07184
 20
-8.26669
 11
4.03398
 21
-8.86859
  0
LINE
  8
0
 10
4.03398
 20
-8.86859
 11
4.00453
 21
-9.42262
  0
LINE
  8
0
 10
4.00453
 20
-9.42262
 11
3.98349
 21
-9.92882
  0
LINE
  8
0
 10
3.98349
 20
-9.92882
 11
3.97087
 21
-10.3872
  0
LINE
  8
0
 10
3.97087
 20
-10.3872
 11
3.96666
 21
-10.7977
  0
LINE
  8
0
 10
3.96666
 20
-10.7977
 11
3.96666
 21
-21.9812
  0
LINE
  8
0
 10
3.96666
 20
-21.9812
 11
6.82692
 21
-21.9812
  0
LINE
  8
0
 10
6.82692
 20
-21.9812
 11
6.82692
 21
-4.60025
  0
LINE
  8
0
 10
6.82692
 20
-4.60025
 11
2.5107
 21
-4.60025
  0
LINE
  8
0
 10
2.5107
 20
-4.60025
 11
0.758331
 21
-11.0424
  0
LINE
  8
0
 10
0.758331
 20
-11.0424
 11
0.684708
 21
-11.3395
  0
LINE
  8
0
 10
0.684708
 20
-11.3395
 11
0.611099
 21
-11.6787
  0
LINE
  8
0
 10
0.611099
 20
-11.6787
 11
0.537491
 21
-12.06
  0
LINE
  8
0
 10
0.537491
 20
-12.06
 11
0.463882
 21
-12.4833
  0
LINE
  8
0
 10
0.463882
 20
-12.4833
 11
0.390274
 21
-12.9487
  0
LINE
  8
0
 10
0.390274
 20
-12.9487
 11
0.31665
 21
-13.4562
  0
LINE
  8
0
 10
0.31665
 20
-13.4562
 11
0.243042
 21
-14.0058
  0
LINE
  8
0
 10
0.243042
 20
-14.0058
 11
0.160461
 21
-13.3645
  0
LINE
  8
0
 10
0.160461
 20
-13.3645
 11
0.0820923
 21
-12.7952
  0
LINE
  8
0
 10
0.0820923
 20
-12.7952
 11
0.00793457
 21
-12.298
  0
LINE
  8
0
 10
0.00793457
 20
-12.298
 11
-0.0619965
 21
-11.8728
  0
LINE
  8
0
 10
-0.0619965
 20
-11.8728
 11
-0.127731
 21
-11.5197
  0
LINE
  8
0
 10
-0.127731
 20
-11.5197
 11
-0.189255
 21
-11.2385
  0
LINE
  8
0
 10
-0.189255
 20
-11.2385
 11
-0.246567
 21
-11.0294
  0
LINE
  8
0
 10
-0.246567
 20
-11.0294
 11
-1.98602
 21
-4.60025
  0
LINE
  8
0
 10
-1.98602
 20
-4.60025
 11
-6.45691
 21
-4.60025
  0
LINE
  8
0
 10
-6.45691
 20
-4.60025
 11
-6.45691
 21
-21.9812
  0
LINE
  8
0
 10
-6.45691
 20
-21.9812
 11
-3.6223
 21
-21.9812
  0
LINE
  8
0
 10
-3.6223
 20
-21.9812
 11
-3.6223
 21
-10.7977
  0
ENDSEC
  0
SECTION
  2
OBJECTS
  0
DICTIONARY
  0
ENDSEC
  0
EOF
