<?xml version="1.0" standalone="no"?>
<!DOCTYPE svg PUBLIC "-//W3C//DTD SVG 1.1//EN" "http://www.w3.org/Graphics/SVG/1.1/DTD/svg11.dtd">
<svg width="14mm" height="18mm" viewBox="-7 4 14 18" xmlns="http://www.w3.org/2000/svg" version="1.1">
<title>OpenSCAD Model</title>
<path d="
M -3.6223,10.7977 L -3.62415,10.4419 L -3.62965,10.0814 L -3.63884,9.71613 L -3.6517,9.34615 L -3.66824,8.97142
 L -3.68846,8.59196 L -3.71236,8.20776 L -3.80261,6.91937 L -3.63434,7.74422 L -3.47551,8.50334 L -3.32616,9.19672
 L -3.18626,9.82437 L -3.05583,10.3863 L -2.93486,10.8825 L -2.82335,11.3129 L -1.2,17.3428 L 1.60876,17.3428
 L 3.20648,11.3129 L 3.27669,11.0624 L 3.36951,10.6861 L 3.48494,10.1841 L 3.62299,9.55649 L 3.78365,8.80315
 L 3.96692,7.9241 L 4.17282,6.91937 L 4.11812,7.61696 L 4.07184,8.26669 L 4.03398,8.86859 L 4.00453,9.42262
 L 3.98349,9.92882 L 3.97087,10.3872 L 3.96666,10.7977 L 3.96666,21.9812 L 6.82692,21.9812 L 6.82692,4.60025
 L 2.5107,4.60025 L 0.758331,11.0424 L 0.684708,11.3395 L 0.611099,11.6787 L 0.537491,12.06 L 0.463882,12.4833
 L 0.390274,12.9487 L 0.31665,13.4562 L 0.243042,14.0058 L 0.160461,13.3645 L 0.0820923,12.7952 L 0.00793457,12.298
 L -0.0619965,11.8728 L -0.127731,11.5197 L -0.189255,11.2385 L -0.246567,11.0294 L -1.98602,4.60025 L -6.45691,4.60025
 L -6.45691,21.9812 L -3.6223,21.9812 z
" stroke="black" fill="lightgray" stroke-width="0.5"/>
</svg>
