  0
SECTION
  2
BLOCKS
  0
ENDSEC
  0
SECTION
  2
ENTITIES
  0
LINE
  8
0
 10
6.93797
 20
-55.8633
 11
9.13174
 21
-55.6219
  0
LINE
  8
0
 10
9.13174
 20
-55.6219
 11
11.1757
 21
-55.2196
  0
LINE
  8
0
 10
11.1757
 20
-55.2196
 11
13.0697
 21
-54.6563
  0
LINE
  8
0
 10
13.0697
 20
-54.6563
 11
14.8138
 21
-53.9322
  0
LINE
  8
0
 10
14.8138
 20
-53.9322
 11
16.4081
 21
-53.0471
  0
LINE
  8
0
 10
16.4081
 20
-53.0471
 11
17.8525
 21
-52.0011
  0
LINE
  8
0
 10
17.8525
 20
-52.0011
 11
19.1242
 21
-50.8123
  0
LINE
  8
0
 10
19.1242
 20
-50.8123
 11
20.2002
 21
-49.4988
  0
LINE
  8
0
 10
20.2002
 20
-49.4988
 11
21.0806
 21
-48.0608
  0
LINE
  8
0
 10
21.0806
 20
-48.0608
 11
21.7653
 21
-46.4981
  0
LINE
  8
0
 10
21.7653
 20
-46.4981
 11
22.2544
 21
-44.8107
  0
LINE
  8
0
 10
22.2544
 20
-44.8107
 11
22.5478
 21
-42.9988
  0
LINE
  8
0
 10
22.5478
 20
-42.9988
 11
22.6456
 21
-41.0622
  0
LINE
  8
0
 10
22.6456
 20
-41.0622
 11
22.575
 21
-39.5808
  0
LINE
  8
0
 10
22.575
 20
-39.5808
 11
22.3632
 21
-38.1845
  0
LINE
  8
0
 10
22.3632
 20
-38.1845
 11
22.0102
 21
-36.8735
  0
LINE
  8
0
 10
22.0102
 20
-36.8735
 11
21.5159
 21
-35.6477
  0
LINE
  8
0
 10
21.5159
 20
-35.6477
 11
20.8804
 21
-34.5071
  0
LINE
  8
0
 10
20.8804
 20
-34.5071
 11
20.1037
 21
-33.4516
  0
LINE
  8
0
 10
20.1037
 20
-33.4516
 11
19.1857
 21
-32.4814
  0
LINE
  8
0
 10
19.1857
 20
-32.4814
 11
18.1331
 21
-31.6058
  0
LINE
  8
0
 10
18.1331
 20
-31.6058
 11
16.9518
 21
-30.8344
  0
LINE
  8
0
 10
16.9518
 20
-30.8344
 11
15.642
 21
-30.167
  0
LINE
  8
0
 10
15.642
 20
-30.167
 11
14.2035
 21
-29.6038
  0
LINE
  8
0
 10
14.2035
 20
-29.6038
 11
12.6365
 21
-29.1446
  0
LINE
  8
0
 10
12.6365
 20
-29.1446
 11
10.9409
 21
-28.7896
  0
LINE
  8
0
 10
10.9409
 20
-28.7896
 11
9.1167
 21
-28.5387
  0
LINE
  8
0
 10
9.1167
 20
-28.5387
 11
10.5738
 21
-28.1793
  0
LINE
  8
0
 10
10.5738
 20
-28.1793
 11
11.9188
 21
-27.7419
  0
LINE
  8
0
 10
11.9188
 20
-27.7419
 11
13.1518
 21
-27.2263
  0
LINE
  8
0
 10
13.1518
 20
-27.2263
 11
14.2728
 21
-26.6327
  0
LINE
  8
0
 10
14.2728
 20
-26.6327
 11
15.2817
 21
-25.961
  0
LINE
  8
0
 10
15.2817
 20
-25.961
 11
16.1785
 21
-25.2113
  0
LINE
  8
0
 10
16.1785
 20
-25.2113
 11
16.9633
 21
-24.3834
  0
LINE
  8
0
 10
16.9633
 20
-24.3834
 11
17.6402
 21
-23.4877
  0
LINE
  8
0
 10
17.6402
 20
-23.4877
 11
18.213
 21
-22.5344
  0
LINE
  8
0
 10
18.213
 20
-22.5344
 11
18.6815
 21
-21.5235
  0
LINE
  8
0
 10
18.6815
 20
-21.5235
 11
19.046
 21
-20.455
  0
LINE
  8
0
 10
19.046
 20
-20.455
 11
19.3064
 21
-19.3289
  0
LINE
  8
0
 10
19.3064
 20
-19.3289
 11
19.4626
 21
-18.1452
  0
LINE
  8
0
 10
19.4626
 20
-18.1452
 11
19.5146
 21
-16.9039
  0
LINE
  8
0
 10
19.5146
 20
-16.9039
 11
19.4259
 21
-15.1531
  0
LINE
  8
0
 10
19.4259
 20
-15.1531
 11
19.1597
 21
-13.523
  0
LINE
  8
0
 10
19.1597
 20
-13.523
 11
18.7159
 21
-12.0136
  0
LINE
  8
0
 10
18.7159
 20
-12.0136
 11
18.0947
 21
-10.6249
  0
LINE
  8
0
 10
18.0947
 20
-10.6249
 11
17.296
 21
-9.35695
  0
LINE
  8
0
 10
17.296
 20
-9.35695
 11
16.3198
 21
-8.20967
  0
LINE
  8
0
 10
16.3198
 20
-8.20967
 11
15.1661
 21
-7.18309
  0
LINE
  8
0
 10
15.1661
 20
-7.18309
 11
13.8405
 21
-6.28572
  0
LINE
  8
0
 10
13.8405
 20
-6.28572
 11
12.3484
 21
-5.52641
  0
LINE
  8
0
 10
12.3484
 20
-5.52641
 11
10.6898
 21
-4.90518
  0
LINE
  8
0
 10
10.6898
 20
-4.90518
 11
8.86484
 21
-4.42198
  0
LINE
  8
0
 10
8.86484
 20
-4.42198
 11
6.87343
 21
-4.07684
  0
LINE
  8
0
 10
6.87343
 20
-4.07684
 11
4.71556
 21
-3.86975
  0
LINE
  8
0
 10
4.71556
 20
-3.86975
 11
2.39127
 21
-3.80072
  0
LINE
  8
0
 10
2.39127
 20
-3.80072
 11
-17.9019
 21
-3.80072
  0
LINE
  8
0
 10
-17.9019
 20
-3.80072
 11
-17.9019
 21
-55.9437
  0
LINE
  8
0
 10
-17.9019
 20
-55.9437
 11
4.59431
 21
-55.9437
  0
LINE
  8
0
 10
4.59431
 20
-55.9437
 11
6.93797
 21
-55.8633
  0
LINE
  8
0
 10
-6.49901
 20
-24.596
 11
-6.49901
 21
-12.2658
  0
LINE
  8
0
 10
-6.49901
 20
-12.2658
 11
1.57959
 21
-12.2658
  0
LINE
  8
0
 10
1.57959
 20
-12.2658
 11
3.29221
 21
-12.392
  0
LINE
  8
0
 10
3.29221
 20
-12.392
 11
4.74135
 21
-12.7706
  0
LINE
  8
0
 10
4.74135
 20
-12.7706
 11
5.927
 21
-13.4017
  0
LINE
  8
0
 10
5.927
 20
-13.4017
 11
6.84918
 21
-14.2852
  0
LINE
  8
0
 10
6.84918
 20
-14.2852
 11
7.50787
 21
-15.4211
  0
LINE
  8
0
 10
7.50787
 20
-15.4211
 11
7.90311
 21
-16.8095
  0
LINE
  8
0
 10
7.90311
 20
-16.8095
 11
8.03484
 21
-18.4503
  0
LINE
  8
0
 10
8.03484
 20
-18.4503
 11
7.90466
 21
-20.0808
  0
LINE
  8
0
 10
7.90466
 20
-20.0808
 11
7.51416
 21
-21.4604
  0
LINE
  8
0
 10
7.51416
 20
-21.4604
 11
6.86331
 21
-22.5892
  0
LINE
  8
0
 10
6.86331
 20
-22.5892
 11
5.95213
 21
-23.4672
  0
LINE
  8
0
 10
5.95213
 20
-23.4672
 11
4.78061
 21
-24.0943
  0
LINE
  8
0
 10
4.78061
 20
-24.0943
 11
3.34874
 21
-24.4706
  0
LINE
  8
0
 10
3.34874
 20
-24.4706
 11
1.65654
 21
-24.596
  0
LINE
  8
0
 10
1.65654
 20
-24.596
 11
-6.49901
 21
-24.596
  0
LINE
  8
0
 10
-6.49901
 20
-47.4787
 11
-6.49901
 21
-33.0223
  0
LINE
  8
0
 10
-6.49901
 20
-33.0223
 11
3.16418
 21
-33.0223
  0
LINE
  8
0
 10
3.16418
 20
-33.0223
 11
4.24173
 21
-33.0598
  0
LINE
  8
0
 10
4.24173
 20
-33.0598
 11
5.24355
 21
-33.1722
  0
LINE
  8
0
 10
5.24355
 20
-33.1722
 11
6.16963
 21
-33.3596
  0
LINE
  8
0
 10
6.16963
 20
-33.3596
 11
7.01999
 21
-33.6218
  0
LINE
  8
0
 10
7.01999
 20
-33.6218
 11
7.79463
 21
-33.959
  0
LINE
  8
0
 10
7.79463
 20
-33.959
 11
8.49353
 21
-34.3712
  0
LINE
  8
0
 10
8.49353
 20
-34.3712
 11
9.1167
 21
-34.8583
  0
LINE
  8
0
 10
9.1167
 20
-34.8583
 11
9.6602
 21
-35.4148
  0
LINE
  8
0
 10
9.6602
 20
-35.4148
 11
10.1201
 21
-36.0352
  0
LINE
  8
0
 10
10.1201
 20
-36.0352
 11
10.4964
 21
-36.7196
  0
LINE
  8
0
 10
10.4964
 20
-36.7196
 11
10.789
 21
-37.4678
  0
LINE
  8
0
 10
10.789
 20
-37.4678
 11
10.998
 21
-38.28
  0
LINE
  8
0
 10
10.998
 20
-38.28
 11
11.1235
 21
-39.1561
  0
LINE
  8
0
 10
11.1235
 20
-39.1561
 11
11.1653
 21
-40.096
  0
LINE
  8
0
 10
11.1653
 20
-40.096
 11
11.0075
 21
-42.0547
  0
LINE
  8
0
 10
11.0075
 20
-42.0547
 11
10.5342
 21
-43.712
  0
LINE
  8
0
 10
10.5342
 20
-43.712
 11
9.74542
 21
-45.068
  0
LINE
  8
0
 10
9.74542
 20
-45.068
 11
8.64108
 21
-46.1227
  0
LINE
  8
0
 10
8.64108
 20
-46.1227
 11
7.22122
 21
-46.876
  0
LINE
  8
0
 10
7.22122
 20
-46.876
 11
5.48584
 21
-47.328
  0
LINE
  8
0
 10
5.48584
 20
-47.328
 11
3.43494
 21
-47.4787
  0
LINE
  8
0
 10
3.43494
 20
-47.4787
 11
-6.49901
 21
-47.4787
  0
ENDSEC
  0
SECTION
  2
OBJECTS
  0
DICTIONARY
  0
ENDSEC
  0
EOF
