solid OpenSCAD_Model
  facet normal 0 0 -1
    outer loop
      vertex 9.1167 -28.5387 0
      vertex 7.90466 -20.0808 0
      vertex 8.03484 -18.4503 0
    endloop
  endfacet
  facet normal 0 0 -1
    outer loop
      vertex 7.01999 -33.6218 0
      vertex 9.1167 -28.5387 0
      vertex 7.79463 -33.959 0
    endloop
  endfacet
  facet normal 0 0 -1
    outer loop
      vertex 9.1167 -28.5387 0
      vertex 7.51416 -21.4604 0
      vertex 7.90466 -20.0808 0
    endloop
  endfacet
  facet normal 0 0 -1
    outer loop
      vertex 6.16963 -33.3596 0
      vertex 9.1167 -28.5387 0
      vertex 7.01999 -33.6218 0
    endloop
  endfacet
  facet normal 0 0 -1
    outer loop
      vertex 9.1167 -28.5387 0
      vertex 6.86331 -22.5892 0
      vertex 7.51416 -21.4604 0
    endloop
  endfacet
  facet normal 0 0 -1
    outer loop
      vertex 5.24355 -33.1722 0
      vertex 9.1167 -28.5387 0
      vertex 6.16963 -33.3596 0
    endloop
  endfacet
  facet normal 0 0 -1
    outer loop
      vertex 9.1167 -28.5387 0
      vertex 5.95213 -23.4672 0
      vertex 6.86331 -22.5892 0
    endloop
  endfacet
  facet normal 0 0 -1
    outer loop
      vertex 4.24173 -33.0598 0
      vertex 9.1167 -28.5387 0
      vertex 5.24355 -33.1722 0
    endloop
  endfacet
  facet normal 0 0 -1
    outer loop
      vertex 9.1167 -28.5387 0
      vertex 4.78061 -24.0943 0
      vertex 5.95213 -23.4672 0
    endloop
  endfacet
  facet normal 0 0 -1
    outer loop
      vertex 3.34874 -24.4706 0
      vertex 9.1167 -28.5387 0
      vertex 4.24173 -33.0598 0
    endloop
  endfacet
  facet normal 0 0 -1
    outer loop
      vertex 9.1167 -28.5387 0
      vertex 3.34874 -24.4706 0
      vertex 4.78061 -24.0943 0
    endloop
  endfacet
  facet normal 0 0 -1
    outer loop
      vertex 3.16418 -33.0223 0
      vertex 3.34874 -24.4706 0
      vertex 4.24173 -33.0598 0
    endloop
  endfacet
  facet normal 0 0 -1
    outer loop
      vertex 3.16418 -33.0223 0
      vertex 1.65654 -24.596 0
      vertex 3.34874 -24.4706 0
    endloop
  endfacet
  facet normal 0 0 -1
    outer loop
      vertex -6.49901 -33.0223 0
      vertex 1.65654 -24.596 0
      vertex 3.16418 -33.0223 0
    endloop
  endfacet
  facet normal -0 0 -1
    outer loop
      vertex 1.65654 -24.596 0
      vertex -6.49901 -33.0223 0
      vertex -6.49901 -24.596 0
    endloop
  endfacet
  facet normal -0 0 -1
    outer loop
      vertex 22.6456 -41.0622 0
      vertex 11.0075 -42.0547 0
      vertex 11.1653 -40.096 0
    endloop
  endfacet
  facet normal 0 0 -1
    outer loop
      vertex 13.0697 -54.6563 0
      vertex 10.5342 -43.712 0
      vertex 11.0075 -42.0547 0
    endloop
  endfacet
  facet normal 0 0 -1
    outer loop
      vertex 13.0697 -54.6563 0
      vertex 9.74542 -45.068 0
      vertex 10.5342 -43.712 0
    endloop
  endfacet
  facet normal 0 0 -1
    outer loop
      vertex 7.22122 -46.876 0
      vertex 11.1757 -55.2196 0
      vertex 9.13174 -55.6219 0
    endloop
  endfacet
  facet normal 0 0 -1
    outer loop
      vertex 13.0697 -54.6563 0
      vertex 8.64108 -46.1227 0
      vertex 9.74542 -45.068 0
    endloop
  endfacet
  facet normal 0 0 -1
    outer loop
      vertex 11.1757 -55.2196 0
      vertex 7.22122 -46.876 0
      vertex 8.64108 -46.1227 0
    endloop
  endfacet
  facet normal 0 0 -1
    outer loop
      vertex 6.93797 -55.8633 0
      vertex 7.22122 -46.876 0
      vertex 9.13174 -55.6219 0
    endloop
  endfacet
  facet normal 0 0 -1
    outer loop
      vertex 6.93797 -55.8633 0
      vertex 5.48584 -47.328 0
      vertex 7.22122 -46.876 0
    endloop
  endfacet
  facet normal 0 0 -1
    outer loop
      vertex 4.59431 -55.9437 0
      vertex 5.48584 -47.328 0
      vertex 6.93797 -55.8633 0
    endloop
  endfacet
  facet normal 0 0 -1
    outer loop
      vertex 4.59431 -55.9437 0
      vertex 3.43494 -47.4787 0
      vertex 5.48584 -47.328 0
    endloop
  endfacet
  facet normal 0 0 -1
    outer loop
      vertex 4.59431 -55.9437 0
      vertex -6.49901 -47.4787 0
      vertex 3.43494 -47.4787 0
    endloop
  endfacet
  facet normal 0 0 -1
    outer loop
      vertex -17.9019 -55.9437 0
      vertex -6.49901 -33.0223 0
      vertex -6.49901 -47.4787 0
    endloop
  endfacet
  facet normal 0 0 -1
    outer loop
      vertex -17.9019 -3.80072 0
      vertex -6.49901 -33.0223 0
      vertex -17.9019 -55.9437 0
    endloop
  endfacet
  facet normal 0 0 -1
    outer loop
      vertex -6.49901 -33.0223 0
      vertex -17.9019 -3.80072 0
      vertex -6.49901 -24.596 0
    endloop
  endfacet
  facet normal 0 0 -1
    outer loop
      vertex -17.9019 -55.9437 0
      vertex -6.49901 -47.4787 0
      vertex 4.59431 -55.9437 0
    endloop
  endfacet
  facet normal 0 0 -1
    outer loop
      vertex 11.0075 -42.0547 0
      vertex 22.6456 -41.0622 0
      vertex 22.5478 -42.9988 0
    endloop
  endfacet
  facet normal 0 0 -1
    outer loop
      vertex 22.6456 -41.0622 0
      vertex 11.1653 -40.096 0
      vertex 22.575 -39.5808 0
    endloop
  endfacet
  facet normal 0 0 -1
    outer loop
      vertex 11.0075 -42.0547 0
      vertex 22.5478 -42.9988 0
      vertex 22.2544 -44.8107 0
    endloop
  endfacet
  facet normal -0 0 -1
    outer loop
      vertex 22.575 -39.5808 0
      vertex 11.1653 -40.096 0
      vertex 22.3632 -38.1845 0
    endloop
  endfacet
  facet normal 0 0 -1
    outer loop
      vertex 11.0075 -42.0547 0
      vertex 22.2544 -44.8107 0
      vertex 21.7653 -46.4981 0
    endloop
  endfacet
  facet normal 0 0 -1
    outer loop
      vertex 11.1235 -39.1561 0
      vertex 22.3632 -38.1845 0
      vertex 11.1653 -40.096 0
    endloop
  endfacet
  facet normal 0 0 -1
    outer loop
      vertex 11.0075 -42.0547 0
      vertex 21.7653 -46.4981 0
      vertex 21.0806 -48.0608 0
    endloop
  endfacet
  facet normal -0 0 -1
    outer loop
      vertex 22.3632 -38.1845 0
      vertex 11.1235 -39.1561 0
      vertex 22.0102 -36.8735 0
    endloop
  endfacet
  facet normal 0 0 -1
    outer loop
      vertex 11.0075 -42.0547 0
      vertex 21.0806 -48.0608 0
      vertex 20.2002 -49.4988 0
    endloop
  endfacet
  facet normal -0 0 -1
    outer loop
      vertex 22.0102 -36.8735 0
      vertex 11.1235 -39.1561 0
      vertex 21.5159 -35.6477 0
    endloop
  endfacet
  facet normal 0 0 -1
    outer loop
      vertex 10.998 -38.28 0
      vertex 21.5159 -35.6477 0
      vertex 11.1235 -39.1561 0
    endloop
  endfacet
  facet normal 0 0 -1
    outer loop
      vertex 11.0075 -42.0547 0
      vertex 20.2002 -49.4988 0
      vertex 19.1242 -50.8123 0
    endloop
  endfacet
  facet normal -0 0 -1
    outer loop
      vertex 21.5159 -35.6477 0
      vertex 10.998 -38.28 0
      vertex 20.8804 -34.5071 0
    endloop
  endfacet
  facet normal 0 0 -1
    outer loop
      vertex 11.0075 -42.0547 0
      vertex 19.1242 -50.8123 0
      vertex 17.8525 -52.0011 0
    endloop
  endfacet
  facet normal -0 0 -1
    outer loop
      vertex 20.8804 -34.5071 0
      vertex 10.998 -38.28 0
      vertex 20.1037 -33.4516 0
    endloop
  endfacet
  facet normal 0 0 -1
    outer loop
      vertex 11.0075 -42.0547 0
      vertex 17.8525 -52.0011 0
      vertex 16.4081 -53.0471 0
    endloop
  endfacet
  facet normal 0 0 -1
    outer loop
      vertex 10.789 -37.4678 0
      vertex 20.1037 -33.4516 0
      vertex 10.998 -38.28 0
    endloop
  endfacet
  facet normal 0 0 -1
    outer loop
      vertex 11.0075 -42.0547 0
      vertex 16.4081 -53.0471 0
      vertex 14.8138 -53.9322 0
    endloop
  endfacet
  facet normal -0 0 -1
    outer loop
      vertex 20.1037 -33.4516 0
      vertex 10.789 -37.4678 0
      vertex 19.1857 -32.4814 0
    endloop
  endfacet
  facet normal 0 0 -1
    outer loop
      vertex 11.0075 -42.0547 0
      vertex 14.8138 -53.9322 0
      vertex 13.0697 -54.6563 0
    endloop
  endfacet
  facet normal -0 0 -1
    outer loop
      vertex 19.1857 -32.4814 0
      vertex 10.789 -37.4678 0
      vertex 18.1331 -31.6058 0
    endloop
  endfacet
  facet normal 0 0 -1
    outer loop
      vertex 8.64108 -46.1227 0
      vertex 13.0697 -54.6563 0
      vertex 11.1757 -55.2196 0
    endloop
  endfacet
  facet normal 0 0 -1
    outer loop
      vertex 10.4964 -36.7196 0
      vertex 18.1331 -31.6058 0
      vertex 10.789 -37.4678 0
    endloop
  endfacet
  facet normal -0 0 -1
    outer loop
      vertex 18.1331 -31.6058 0
      vertex 10.4964 -36.7196 0
      vertex 16.9518 -30.8344 0
    endloop
  endfacet
  facet normal -0 0 -1
    outer loop
      vertex 16.9518 -30.8344 0
      vertex 10.4964 -36.7196 0
      vertex 15.642 -30.167 0
    endloop
  endfacet
  facet normal 0 0 -1
    outer loop
      vertex 10.1201 -36.0352 0
      vertex 15.642 -30.167 0
      vertex 10.4964 -36.7196 0
    endloop
  endfacet
  facet normal -0 0 -1
    outer loop
      vertex 15.642 -30.167 0
      vertex 10.1201 -36.0352 0
      vertex 14.2035 -29.6038 0
    endloop
  endfacet
  facet normal 0 0 -1
    outer loop
      vertex 9.6602 -35.4148 0
      vertex 14.2035 -29.6038 0
      vertex 10.1201 -36.0352 0
    endloop
  endfacet
  facet normal -0 0 -1
    outer loop
      vertex 14.2035 -29.6038 0
      vertex 9.6602 -35.4148 0
      vertex 12.6365 -29.1446 0
    endloop
  endfacet
  facet normal 0 0 -1
    outer loop
      vertex 9.1167 -34.8583 0
      vertex 12.6365 -29.1446 0
      vertex 9.6602 -35.4148 0
    endloop
  endfacet
  facet normal -0 0 -1
    outer loop
      vertex 12.6365 -29.1446 0
      vertex 9.1167 -34.8583 0
      vertex 10.9409 -28.7896 0
    endloop
  endfacet
  facet normal 0 0 -1
    outer loop
      vertex 8.49353 -34.3712 0
      vertex 10.9409 -28.7896 0
      vertex 9.1167 -34.8583 0
    endloop
  endfacet
  facet normal 0 0 -1
    outer loop
      vertex 7.79463 -33.959 0
      vertex 10.9409 -28.7896 0
      vertex 8.49353 -34.3712 0
    endloop
  endfacet
  facet normal -0 0 -1
    outer loop
      vertex 10.9409 -28.7896 0
      vertex 7.79463 -33.959 0
      vertex 9.1167 -28.5387 0
    endloop
  endfacet
  facet normal 0 0 -1
    outer loop
      vertex 9.1167 -28.5387 0
      vertex 8.03484 -18.4503 0
      vertex 8.86484 -4.42198 0
    endloop
  endfacet
  facet normal 0 0 -1
    outer loop
      vertex 7.90311 -16.8095 0
      vertex 8.86484 -4.42198 0
      vertex 8.03484 -18.4503 0
    endloop
  endfacet
  facet normal 0 0 -1
    outer loop
      vertex 7.50787 -15.4211 0
      vertex 8.86484 -4.42198 0
      vertex 7.90311 -16.8095 0
    endloop
  endfacet
  facet normal 0 0 -1
    outer loop
      vertex 6.84918 -14.2852 0
      vertex 8.86484 -4.42198 0
      vertex 7.50787 -15.4211 0
    endloop
  endfacet
  facet normal 0 0 -1
    outer loop
      vertex 5.927 -13.4017 0
      vertex 8.86484 -4.42198 0
      vertex 6.84918 -14.2852 0
    endloop
  endfacet
  facet normal 0 0 -1
    outer loop
      vertex 4.74135 -12.7706 0
      vertex 8.86484 -4.42198 0
      vertex 5.927 -13.4017 0
    endloop
  endfacet
  facet normal -0 0 -1
    outer loop
      vertex 8.86484 -4.42198 0
      vertex 4.74135 -12.7706 0
      vertex 6.87343 -4.07684 0
    endloop
  endfacet
  facet normal 0 0 -1
    outer loop
      vertex 4.74135 -12.7706 0
      vertex 4.71556 -3.86975 0
      vertex 6.87343 -4.07684 0
    endloop
  endfacet
  facet normal 0 0 -1
    outer loop
      vertex 3.29221 -12.392 0
      vertex 4.71556 -3.86975 0
      vertex 4.74135 -12.7706 0
    endloop
  endfacet
  facet normal 0 0 -1
    outer loop
      vertex 3.29221 -12.392 0
      vertex 2.39127 -3.80072 0
      vertex 4.71556 -3.86975 0
    endloop
  endfacet
  facet normal 0 0 -1
    outer loop
      vertex 1.57959 -12.2658 0
      vertex 2.39127 -3.80072 0
      vertex 3.29221 -12.392 0
    endloop
  endfacet
  facet normal 0 0 -1
    outer loop
      vertex -6.49901 -12.2658 0
      vertex 2.39127 -3.80072 0
      vertex 1.57959 -12.2658 0
    endloop
  endfacet
  facet normal 0 0 -1
    outer loop
      vertex -6.49901 -12.2658 0
      vertex -17.9019 -3.80072 0
      vertex 2.39127 -3.80072 0
    endloop
  endfacet
  facet normal 0 0 -1
    outer loop
      vertex -6.49901 -24.596 0
      vertex -17.9019 -3.80072 0
      vertex -6.49901 -12.2658 0
    endloop
  endfacet
  facet normal 0 0 -1
    outer loop
      vertex 11.9188 -27.7419 0
      vertex 19.5146 -16.9039 0
      vertex 19.4626 -18.1452 0
    endloop
  endfacet
  facet normal 0 0 -1
    outer loop
      vertex 13.1518 -27.2263 0
      vertex 19.4626 -18.1452 0
      vertex 19.3064 -19.3289 0
    endloop
  endfacet
  facet normal -0 0 -1
    outer loop
      vertex 19.5146 -16.9039 0
      vertex 11.9188 -27.7419 0
      vertex 19.4259 -15.1531 0
    endloop
  endfacet
  facet normal 0 0 -1
    outer loop
      vertex 13.1518 -27.2263 0
      vertex 19.3064 -19.3289 0
      vertex 19.046 -20.455 0
    endloop
  endfacet
  facet normal 0 -0 -1
    outer loop
      vertex 12.3484 -5.52641 0
      vertex 19.4259 -15.1531 0
      vertex 11.9188 -27.7419 0
    endloop
  endfacet
  facet normal 0 0 -1
    outer loop
      vertex 14.2728 -26.6327 0
      vertex 19.046 -20.455 0
      vertex 18.6815 -21.5235 0
    endloop
  endfacet
  facet normal 0 0 -1
    outer loop
      vertex 14.2728 -26.6327 0
      vertex 18.6815 -21.5235 0
      vertex 18.213 -22.5344 0
    endloop
  endfacet
  facet normal 0 0 -1
    outer loop
      vertex 19.4626 -18.1452 0
      vertex 13.1518 -27.2263 0
      vertex 11.9188 -27.7419 0
    endloop
  endfacet
  facet normal 0 0 -1
    outer loop
      vertex 14.2728 -26.6327 0
      vertex 18.213 -22.5344 0
      vertex 17.6402 -23.4877 0
    endloop
  endfacet
  facet normal 0 0 -1
    outer loop
      vertex 19.4259 -15.1531 0
      vertex 12.3484 -5.52641 0
      vertex 19.1597 -13.523 0
    endloop
  endfacet
  facet normal 0 0 -1
    outer loop
      vertex 14.2728 -26.6327 0
      vertex 17.6402 -23.4877 0
      vertex 16.9633 -24.3834 0
    endloop
  endfacet
  facet normal 0 0 -1
    outer loop
      vertex 19.046 -20.455 0
      vertex 14.2728 -26.6327 0
      vertex 13.1518 -27.2263 0
    endloop
  endfacet
  facet normal 0 0 -1
    outer loop
      vertex 15.2817 -25.961 0
      vertex 16.9633 -24.3834 0
      vertex 16.1785 -25.2113 0
    endloop
  endfacet
  facet normal 0 0 -1
    outer loop
      vertex 14.2728 -26.6327 0
      vertex 16.9633 -24.3834 0
      vertex 15.2817 -25.961 0
    endloop
  endfacet
  facet normal 0 0 -1
    outer loop
      vertex 19.1597 -13.523 0
      vertex 13.8405 -6.28572 0
      vertex 18.7159 -12.0136 0
    endloop
  endfacet
  facet normal 0 0 -1
    outer loop
      vertex 18.0947 -10.6249 0
      vertex 15.1661 -7.18309 0
      vertex 17.296 -9.35695 0
    endloop
  endfacet
  facet normal 0 0 -1
    outer loop
      vertex 17.296 -9.35695 0
      vertex 15.1661 -7.18309 0
      vertex 16.3198 -8.20967 0
    endloop
  endfacet
  facet normal 0 0 -1
    outer loop
      vertex 18.7159 -12.0136 0
      vertex 15.1661 -7.18309 0
      vertex 18.0947 -10.6249 0
    endloop
  endfacet
  facet normal -0 -0 -1
    outer loop
      vertex 15.1661 -7.18309 0
      vertex 18.7159 -12.0136 0
      vertex 13.8405 -6.28572 0
    endloop
  endfacet
  facet normal 0 0 -1
    outer loop
      vertex 19.1597 -13.523 0
      vertex 12.3484 -5.52641 0
      vertex 13.8405 -6.28572 0
    endloop
  endfacet
  facet normal 0 0 -1
    outer loop
      vertex 10.5738 -28.1793 0
      vertex 12.3484 -5.52641 0
      vertex 11.9188 -27.7419 0
    endloop
  endfacet
  facet normal -0 0 -1
    outer loop
      vertex 12.3484 -5.52641 0
      vertex 10.5738 -28.1793 0
      vertex 10.6898 -4.90518 0
    endloop
  endfacet
  facet normal 0 0 -1
    outer loop
      vertex 9.1167 -28.5387 0
      vertex 10.6898 -4.90518 0
      vertex 10.5738 -28.1793 0
    endloop
  endfacet
  facet normal -0 0 -1
    outer loop
      vertex 10.6898 -4.90518 0
      vertex 9.1167 -28.5387 0
      vertex 8.86484 -4.42198 0
    endloop
  endfacet
  facet normal -0 0 1
    outer loop
      vertex 7.90311 -16.8095 1
      vertex 19.5146 -16.9039 1
      vertex 19.4259 -15.1531 1
    endloop
  endfacet
  facet normal 0 -0 1
    outer loop
      vertex 8.03484 -18.4503 1
      vertex 19.5146 -16.9039 1
      vertex 7.90311 -16.8095 1
    endloop
  endfacet
  facet normal 0 0 1
    outer loop
      vertex 7.90311 -16.8095 1
      vertex 19.4259 -15.1531 1
      vertex 19.1597 -13.523 1
    endloop
  endfacet
  facet normal 0 0 1
    outer loop
      vertex 19.5146 -16.9039 1
      vertex 8.03484 -18.4503 1
      vertex 19.4626 -18.1452 1
    endloop
  endfacet
  facet normal 0 0 1
    outer loop
      vertex 7.50787 -15.4211 1
      vertex 19.1597 -13.523 1
      vertex 18.7159 -12.0136 1
    endloop
  endfacet
  facet normal 0 0 1
    outer loop
      vertex 19.4626 -18.1452 1
      vertex 8.03484 -18.4503 1
      vertex 19.3064 -19.3289 1
    endloop
  endfacet
  facet normal 0 0 1
    outer loop
      vertex 19.3064 -19.3289 1
      vertex 8.03484 -18.4503 1
      vertex 19.046 -20.455 1
    endloop
  endfacet
  facet normal 0 0 1
    outer loop
      vertex 7.50787 -15.4211 1
      vertex 18.7159 -12.0136 1
      vertex 18.0947 -10.6249 1
    endloop
  endfacet
  facet normal 0 0 1
    outer loop
      vertex 19.046 -20.455 1
      vertex 8.03484 -18.4503 1
      vertex 18.6815 -21.5235 1
    endloop
  endfacet
  facet normal 0 0 1
    outer loop
      vertex 7.50787 -15.4211 1
      vertex 18.0947 -10.6249 1
      vertex 17.296 -9.35695 1
    endloop
  endfacet
  facet normal 0 0 1
    outer loop
      vertex 18.6815 -21.5235 1
      vertex 8.03484 -18.4503 1
      vertex 18.213 -22.5344 1
    endloop
  endfacet
  facet normal 0 0 1
    outer loop
      vertex 7.50787 -15.4211 1
      vertex 17.296 -9.35695 1
      vertex 16.3198 -8.20967 1
    endloop
  endfacet
  facet normal -0 0 1
    outer loop
      vertex 7.90466 -20.0808 1
      vertex 18.213 -22.5344 1
      vertex 8.03484 -18.4503 1
    endloop
  endfacet
  facet normal 0 0 1
    outer loop
      vertex 18.213 -22.5344 1
      vertex 7.90466 -20.0808 1
      vertex 17.6402 -23.4877 1
    endloop
  endfacet
  facet normal 0 0 1
    outer loop
      vertex 6.84918 -14.2852 1
      vertex 16.3198 -8.20967 1
      vertex 15.1661 -7.18309 1
    endloop
  endfacet
  facet normal 0 0 1
    outer loop
      vertex 17.6402 -23.4877 1
      vertex 7.90466 -20.0808 1
      vertex 16.9633 -24.3834 1
    endloop
  endfacet
  facet normal 0 0 1
    outer loop
      vertex 6.84918 -14.2852 1
      vertex 15.1661 -7.18309 1
      vertex 13.8405 -6.28572 1
    endloop
  endfacet
  facet normal 0 0 1
    outer loop
      vertex 16.9633 -24.3834 1
      vertex 7.90466 -20.0808 1
      vertex 16.1785 -25.2113 1
    endloop
  endfacet
  facet normal 0 0 1
    outer loop
      vertex 6.84918 -14.2852 1
      vertex 13.8405 -6.28572 1
      vertex 12.3484 -5.52641 1
    endloop
  endfacet
  facet normal 0 0 1
    outer loop
      vertex 16.1785 -25.2113 1
      vertex 7.90466 -20.0808 1
      vertex 15.2817 -25.961 1
    endloop
  endfacet
  facet normal 0 0 1
    outer loop
      vertex 5.927 -13.4017 1
      vertex 12.3484 -5.52641 1
      vertex 10.6898 -4.90518 1
    endloop
  endfacet
  facet normal -0 0 1
    outer loop
      vertex 7.51416 -21.4604 1
      vertex 15.2817 -25.961 1
      vertex 7.90466 -20.0808 1
    endloop
  endfacet
  facet normal 0 0 1
    outer loop
      vertex 14.2728 -26.6327 1
      vertex 7.51416 -21.4604 1
      vertex 13.1518 -27.2263 1
    endloop
  endfacet
  facet normal 0 0 1
    outer loop
      vertex 5.927 -13.4017 1
      vertex 10.6898 -4.90518 1
      vertex 8.86484 -4.42198 1
    endloop
  endfacet
  facet normal 0 0 1
    outer loop
      vertex 13.1518 -27.2263 1
      vertex 7.51416 -21.4604 1
      vertex 11.9188 -27.7419 1
    endloop
  endfacet
  facet normal -0 0 1
    outer loop
      vertex 6.86331 -22.5892 1
      vertex 11.9188 -27.7419 1
      vertex 7.51416 -21.4604 1
    endloop
  endfacet
  facet normal 0 0 1
    outer loop
      vertex 11.9188 -27.7419 1
      vertex 6.86331 -22.5892 1
      vertex 10.5738 -28.1793 1
    endloop
  endfacet
  facet normal 0 0 1
    outer loop
      vertex 15.2817 -25.961 1
      vertex 7.51416 -21.4604 1
      vertex 14.2728 -26.6327 1
    endloop
  endfacet
  facet normal 0 0 1
    outer loop
      vertex 19.1597 -13.523 1
      vertex 7.50787 -15.4211 1
      vertex 7.90311 -16.8095 1
    endloop
  endfacet
  facet normal 0 0 1
    outer loop
      vertex 4.74135 -12.7706 1
      vertex 8.86484 -4.42198 1
      vertex 6.87343 -4.07684 1
    endloop
  endfacet
  facet normal 0 0 1
    outer loop
      vertex 16.3198 -8.20967 1
      vertex 6.84918 -14.2852 1
      vertex 7.50787 -15.4211 1
    endloop
  endfacet
  facet normal 0 0 1
    outer loop
      vertex 12.3484 -5.52641 1
      vertex 5.927 -13.4017 1
      vertex 6.84918 -14.2852 1
    endloop
  endfacet
  facet normal 0 0 1
    outer loop
      vertex 8.86484 -4.42198 1
      vertex 4.74135 -12.7706 1
      vertex 5.927 -13.4017 1
    endloop
  endfacet
  facet normal 0 0 1
    outer loop
      vertex 4.71556 -3.86975 1
      vertex 4.74135 -12.7706 1
      vertex 6.87343 -4.07684 1
    endloop
  endfacet
  facet normal 0 0 1
    outer loop
      vertex 4.71556 -3.86975 1
      vertex 3.29221 -12.392 1
      vertex 4.74135 -12.7706 1
    endloop
  endfacet
  facet normal 0 0 1
    outer loop
      vertex 2.39127 -3.80072 1
      vertex 3.29221 -12.392 1
      vertex 4.71556 -3.86975 1
    endloop
  endfacet
  facet normal 0 0 1
    outer loop
      vertex 2.39127 -3.80072 1
      vertex 1.57959 -12.2658 1
      vertex 3.29221 -12.392 1
    endloop
  endfacet
  facet normal 0 0 1
    outer loop
      vertex 2.39127 -3.80072 1
      vertex -6.49901 -12.2658 1
      vertex 1.57959 -12.2658 1
    endloop
  endfacet
  facet normal 0 0 1
    outer loop
      vertex -17.9019 -3.80072 1
      vertex -6.49901 -24.596 1
      vertex -6.49901 -12.2658 1
    endloop
  endfacet
  facet normal 0 0 1
    outer loop
      vertex -6.49901 -24.596 1
      vertex -17.9019 -3.80072 1
      vertex -6.49901 -33.0223 1
    endloop
  endfacet
  facet normal 0 0 1
    outer loop
      vertex -17.9019 -55.9437 1
      vertex -6.49901 -33.0223 1
      vertex -17.9019 -3.80072 1
    endloop
  endfacet
  facet normal -0 0 1
    outer loop
      vertex -17.9019 -3.80072 1
      vertex -6.49901 -12.2658 1
      vertex 2.39127 -3.80072 1
    endloop
  endfacet
  facet normal -0 0 1
    outer loop
      vertex 11.1653 -40.096 1
      vertex 22.6456 -41.0622 1
      vertex 22.575 -39.5808 1
    endloop
  endfacet
  facet normal 0 0 1
    outer loop
      vertex 11.1653 -40.096 1
      vertex 22.575 -39.5808 1
      vertex 22.3632 -38.1845 1
    endloop
  endfacet
  facet normal 0 0 1
    outer loop
      vertex 11.0075 -42.0547 1
      vertex 22.6456 -41.0622 1
      vertex 11.1653 -40.096 1
    endloop
  endfacet
  facet normal 0 0 1
    outer loop
      vertex 11.1235 -39.1561 1
      vertex 22.3632 -38.1845 1
      vertex 22.0102 -36.8735 1
    endloop
  endfacet
  facet normal 0 0 1
    outer loop
      vertex 22.6456 -41.0622 1
      vertex 11.0075 -42.0547 1
      vertex 22.5478 -42.9988 1
    endloop
  endfacet
  facet normal 0 0 1
    outer loop
      vertex 11.1235 -39.1561 1
      vertex 22.0102 -36.8735 1
      vertex 21.5159 -35.6477 1
    endloop
  endfacet
  facet normal 0 0 1
    outer loop
      vertex 22.5478 -42.9988 1
      vertex 11.0075 -42.0547 1
      vertex 22.2544 -44.8107 1
    endloop
  endfacet
  facet normal 0 0 1
    outer loop
      vertex 10.998 -38.28 1
      vertex 21.5159 -35.6477 1
      vertex 20.8804 -34.5071 1
    endloop
  endfacet
  facet normal 0 0 1
    outer loop
      vertex 22.2544 -44.8107 1
      vertex 11.0075 -42.0547 1
      vertex 21.7653 -46.4981 1
    endloop
  endfacet
  facet normal 0 0 1
    outer loop
      vertex 10.998 -38.28 1
      vertex 20.8804 -34.5071 1
      vertex 20.1037 -33.4516 1
    endloop
  endfacet
  facet normal 0 0 1
    outer loop
      vertex 10.789 -37.4678 1
      vertex 20.1037 -33.4516 1
      vertex 19.1857 -32.4814 1
    endloop
  endfacet
  facet normal -0 0 1
    outer loop
      vertex 10.5342 -43.712 1
      vertex 21.7653 -46.4981 1
      vertex 11.0075 -42.0547 1
    endloop
  endfacet
  facet normal 0 0 1
    outer loop
      vertex 10.789 -37.4678 1
      vertex 19.1857 -32.4814 1
      vertex 18.1331 -31.6058 1
    endloop
  endfacet
  facet normal 0 0 1
    outer loop
      vertex 21.7653 -46.4981 1
      vertex 10.5342 -43.712 1
      vertex 21.0806 -48.0608 1
    endloop
  endfacet
  facet normal 0 0 1
    outer loop
      vertex 10.4964 -36.7196 1
      vertex 18.1331 -31.6058 1
      vertex 16.9518 -30.8344 1
    endloop
  endfacet
  facet normal 0 0 1
    outer loop
      vertex 21.0806 -48.0608 1
      vertex 10.5342 -43.712 1
      vertex 20.2002 -49.4988 1
    endloop
  endfacet
  facet normal 0 0 1
    outer loop
      vertex 10.4964 -36.7196 1
      vertex 16.9518 -30.8344 1
      vertex 15.642 -30.167 1
    endloop
  endfacet
  facet normal 0 0 1
    outer loop
      vertex 20.2002 -49.4988 1
      vertex 10.5342 -43.712 1
      vertex 19.1242 -50.8123 1
    endloop
  endfacet
  facet normal 0 0 1
    outer loop
      vertex 10.1201 -36.0352 1
      vertex 15.642 -30.167 1
      vertex 14.2035 -29.6038 1
    endloop
  endfacet
  facet normal -0 0 1
    outer loop
      vertex 9.74542 -45.068 1
      vertex 19.1242 -50.8123 1
      vertex 10.5342 -43.712 1
    endloop
  endfacet
  facet normal 0 0 1
    outer loop
      vertex 9.6602 -35.4148 1
      vertex 14.2035 -29.6038 1
      vertex 12.6365 -29.1446 1
    endloop
  endfacet
  facet normal 0 0 1
    outer loop
      vertex 19.1242 -50.8123 1
      vertex 9.74542 -45.068 1
      vertex 17.8525 -52.0011 1
    endloop
  endfacet
  facet normal 0 0 1
    outer loop
      vertex 17.8525 -52.0011 1
      vertex 9.74542 -45.068 1
      vertex 16.4081 -53.0471 1
    endloop
  endfacet
  facet normal 0 0 1
    outer loop
      vertex 22.3632 -38.1845 1
      vertex 11.1235 -39.1561 1
      vertex 11.1653 -40.096 1
    endloop
  endfacet
  facet normal 0 0 1
    outer loop
      vertex 21.5159 -35.6477 1
      vertex 10.998 -38.28 1
      vertex 11.1235 -39.1561 1
    endloop
  endfacet
  facet normal 0 0 1
    outer loop
      vertex 9.1167 -34.8583 1
      vertex 12.6365 -29.1446 1
      vertex 10.9409 -28.7896 1
    endloop
  endfacet
  facet normal 0 0 1
    outer loop
      vertex 20.1037 -33.4516 1
      vertex 10.789 -37.4678 1
      vertex 10.998 -38.28 1
    endloop
  endfacet
  facet normal 0 0 1
    outer loop
      vertex 18.1331 -31.6058 1
      vertex 10.4964 -36.7196 1
      vertex 10.789 -37.4678 1
    endloop
  endfacet
  facet normal 0 0 1
    outer loop
      vertex 15.642 -30.167 1
      vertex 10.1201 -36.0352 1
      vertex 10.4964 -36.7196 1
    endloop
  endfacet
  facet normal 0 0 1
    outer loop
      vertex 14.2035 -29.6038 1
      vertex 9.6602 -35.4148 1
      vertex 10.1201 -36.0352 1
    endloop
  endfacet
  facet normal 0 0 1
    outer loop
      vertex 9.1167 -34.8583 1
      vertex 10.9409 -28.7896 1
      vertex 9.1167 -28.5387 1
    endloop
  endfacet
  facet normal 0 0 1
    outer loop
      vertex 12.6365 -29.1446 1
      vertex 9.1167 -34.8583 1
      vertex 9.6602 -35.4148 1
    endloop
  endfacet
  facet normal 0 0 1
    outer loop
      vertex 16.4081 -53.0471 1
      vertex 9.74542 -45.068 1
      vertex 14.8138 -53.9322 1
    endloop
  endfacet
  facet normal -0 0 1
    outer loop
      vertex 8.64108 -46.1227 1
      vertex 14.8138 -53.9322 1
      vertex 9.74542 -45.068 1
    endloop
  endfacet
  facet normal 0 0 1
    outer loop
      vertex 14.8138 -53.9322 1
      vertex 8.64108 -46.1227 1
      vertex 13.0697 -54.6563 1
    endloop
  endfacet
  facet normal 0 0 1
    outer loop
      vertex 13.0697 -54.6563 1
      vertex 8.64108 -46.1227 1
      vertex 11.1757 -55.2196 1
    endloop
  endfacet
  facet normal -0 0 1
    outer loop
      vertex 7.22122 -46.876 1
      vertex 11.1757 -55.2196 1
      vertex 8.64108 -46.1227 1
    endloop
  endfacet
  facet normal 0 0 1
    outer loop
      vertex 11.1757 -55.2196 1
      vertex 7.22122 -46.876 1
      vertex 9.13174 -55.6219 1
    endloop
  endfacet
  facet normal 0 0 1
    outer loop
      vertex 7.22122 -46.876 1
      vertex 6.93797 -55.8633 1
      vertex 9.13174 -55.6219 1
    endloop
  endfacet
  facet normal -0 0 1
    outer loop
      vertex 5.48584 -47.328 1
      vertex 6.93797 -55.8633 1
      vertex 7.22122 -46.876 1
    endloop
  endfacet
  facet normal 0 0 1
    outer loop
      vertex 5.48584 -47.328 1
      vertex 4.59431 -55.9437 1
      vertex 6.93797 -55.8633 1
    endloop
  endfacet
  facet normal -0 0 1
    outer loop
      vertex 3.43494 -47.4787 1
      vertex 4.59431 -55.9437 1
      vertex 5.48584 -47.328 1
    endloop
  endfacet
  facet normal -0 0 1
    outer loop
      vertex -6.49901 -47.4787 1
      vertex 4.59431 -55.9437 1
      vertex 3.43494 -47.4787 1
    endloop
  endfacet
  facet normal 0 0 1
    outer loop
      vertex -6.49901 -47.4787 1
      vertex -17.9019 -55.9437 1
      vertex 4.59431 -55.9437 1
    endloop
  endfacet
  facet normal 0 0 1
    outer loop
      vertex -6.49901 -33.0223 1
      vertex -17.9019 -55.9437 1
      vertex -6.49901 -47.4787 1
    endloop
  endfacet
  facet normal 0 0 1
    outer loop
      vertex 10.5738 -28.1793 1
      vertex 6.86331 -22.5892 1
      vertex 9.1167 -28.5387 1
    endloop
  endfacet
  facet normal -0 0 1
    outer loop
      vertex 5.95213 -23.4672 1
      vertex 9.1167 -28.5387 1
      vertex 6.86331 -22.5892 1
    endloop
  endfacet
  facet normal 0 0 1
    outer loop
      vertex 9.1167 -28.5387 1
      vertex 8.49353 -34.3712 1
      vertex 9.1167 -34.8583 1
    endloop
  endfacet
  facet normal 0 0 1
    outer loop
      vertex 9.1167 -28.5387 1
      vertex 7.79463 -33.959 1
      vertex 8.49353 -34.3712 1
    endloop
  endfacet
  facet normal -0 0 1
    outer loop
      vertex 4.78061 -24.0943 1
      vertex 9.1167 -28.5387 1
      vertex 5.95213 -23.4672 1
    endloop
  endfacet
  facet normal 0 0 1
    outer loop
      vertex 9.1167 -28.5387 1
      vertex 7.01999 -33.6218 1
      vertex 7.79463 -33.959 1
    endloop
  endfacet
  facet normal 0 0 1
    outer loop
      vertex 9.1167 -28.5387 1
      vertex 6.16963 -33.3596 1
      vertex 7.01999 -33.6218 1
    endloop
  endfacet
  facet normal -0 0 1
    outer loop
      vertex 3.34874 -24.4706 1
      vertex 9.1167 -28.5387 1
      vertex 4.78061 -24.0943 1
    endloop
  endfacet
  facet normal 0 0 1
    outer loop
      vertex 9.1167 -28.5387 1
      vertex 5.24355 -33.1722 1
      vertex 6.16963 -33.3596 1
    endloop
  endfacet
  facet normal 0 0 1
    outer loop
      vertex 9.1167 -28.5387 1
      vertex 4.24173 -33.0598 1
      vertex 5.24355 -33.1722 1
    endloop
  endfacet
  facet normal 0 0 1
    outer loop
      vertex 9.1167 -28.5387 1
      vertex 3.34874 -24.4706 1
      vertex 4.24173 -33.0598 1
    endloop
  endfacet
  facet normal 0 0 1
    outer loop
      vertex 3.34874 -24.4706 1
      vertex 3.16418 -33.0223 1
      vertex 4.24173 -33.0598 1
    endloop
  endfacet
  facet normal -0 0 1
    outer loop
      vertex 1.65654 -24.596 1
      vertex 3.16418 -33.0223 1
      vertex 3.34874 -24.4706 1
    endloop
  endfacet
  facet normal 0 0 1
    outer loop
      vertex -6.49901 -33.0223 1
      vertex 1.65654 -24.596 1
      vertex -6.49901 -24.596 1
    endloop
  endfacet
  facet normal 0 0 1
    outer loop
      vertex 1.65654 -24.596 1
      vertex -6.49901 -33.0223 1
      vertex 3.16418 -33.0223 1
    endloop
  endfacet
  facet normal 0.109379 -0.994 0
    outer loop
      vertex 6.93797 -55.8633 0
      vertex 9.13174 -55.6219 1
      vertex 6.93797 -55.8633 1
    endloop
  endfacet
  facet normal 0.109379 -0.994 0
    outer loop
      vertex 9.13174 -55.6219 1
      vertex 6.93797 -55.8633 0
      vertex 9.13174 -55.6219 0
    endloop
  endfacet
  facet normal 0.193119 -0.981175 0
    outer loop
      vertex 9.13174 -55.6219 0
      vertex 11.1757 -55.2196 1
      vertex 9.13174 -55.6219 1
    endloop
  endfacet
  facet normal 0.193119 -0.981175 0
    outer loop
      vertex 11.1757 -55.2196 1
      vertex 9.13174 -55.6219 0
      vertex 11.1757 -55.2196 0
    endloop
  endfacet
  facet normal 0.285072 -0.958506 0
    outer loop
      vertex 11.1757 -55.2196 0
      vertex 13.0697 -54.6563 1
      vertex 11.1757 -55.2196 1
    endloop
  endfacet
  facet normal 0.285072 -0.958506 0
    outer loop
      vertex 13.0697 -54.6563 1
      vertex 11.1757 -55.2196 0
      vertex 13.0697 -54.6563 0
    endloop
  endfacet
  facet normal 0.383438 -0.923567 0
    outer loop
      vertex 13.0697 -54.6563 0
      vertex 14.8138 -53.9322 1
      vertex 13.0697 -54.6563 1
    endloop
  endfacet
  facet normal 0.383438 -0.923567 0
    outer loop
      vertex 14.8138 -53.9322 1
      vertex 13.0697 -54.6563 0
      vertex 14.8138 -53.9322 0
    endloop
  endfacet
  facet normal 0.485382 -0.874302 0
    outer loop
      vertex 14.8138 -53.9322 0
      vertex 16.4081 -53.0471 1
      vertex 14.8138 -53.9322 1
    endloop
  endfacet
  facet normal 0.485382 -0.874302 0
    outer loop
      vertex 16.4081 -53.0471 1
      vertex 14.8138 -53.9322 0
      vertex 16.4081 -53.0471 0
    endloop
  endfacet
  facet normal 0.58653 -0.809927 0
    outer loop
      vertex 16.4081 -53.0471 0
      vertex 17.8525 -52.0011 1
      vertex 16.4081 -53.0471 1
    endloop
  endfacet
  facet normal 0.58653 -0.809927 0
    outer loop
      vertex 17.8525 -52.0011 1
      vertex 16.4081 -53.0471 0
      vertex 17.8525 -52.0011 0
    endloop
  endfacet
  facet normal 0.682895 -0.730516 0
    outer loop
      vertex 17.8525 -52.0011 0
      vertex 19.1242 -50.8123 1
      vertex 17.8525 -52.0011 1
    endloop
  endfacet
  facet normal 0.682895 -0.730516 0
    outer loop
      vertex 19.1242 -50.8123 1
      vertex 17.8525 -52.0011 0
      vertex 19.1242 -50.8123 0
    endloop
  endfacet
  facet normal 0.773577 -0.633703 0
    outer loop
      vertex 19.1242 -50.8123 1
      vertex 20.2002 -49.4988 0
      vertex 20.2002 -49.4988 1
    endloop
  endfacet
  facet normal 0.773577 -0.633703 0
    outer loop
      vertex 20.2002 -49.4988 0
      vertex 19.1242 -50.8123 1
      vertex 19.1242 -50.8123 0
    endloop
  endfacet
  facet normal 0.852853 -0.52215 0
    outer loop
      vertex 20.2002 -49.4988 1
      vertex 21.0806 -48.0608 0
      vertex 21.0806 -48.0608 1
    endloop
  endfacet
  facet normal 0.852853 -0.52215 0
    outer loop
      vertex 21.0806 -48.0608 0
      vertex 20.2002 -49.4988 1
      vertex 20.2002 -49.4988 0
    endloop
  endfacet
  facet normal 0.915938 -0.40132 0
    outer loop
      vertex 21.0806 -48.0608 1
      vertex 21.7653 -46.4981 0
      vertex 21.7653 -46.4981 1
    endloop
  endfacet
  facet normal 0.915938 -0.40132 0
    outer loop
      vertex 21.7653 -46.4981 0
      vertex 21.0806 -48.0608 1
      vertex 21.0806 -48.0608 0
    endloop
  endfacet
  facet normal 0.960467 -0.278395 0
    outer loop
      vertex 21.7653 -46.4981 1
      vertex 22.2544 -44.8107 0
      vertex 22.2544 -44.8107 1
    endloop
  endfacet
  facet normal 0.960467 -0.278395 0
    outer loop
      vertex 22.2544 -44.8107 0
      vertex 21.7653 -46.4981 1
      vertex 21.7653 -46.4981 0
    endloop
  endfacet
  facet normal 0.987142 -0.159847 0
    outer loop
      vertex 22.2544 -44.8107 1
      vertex 22.5478 -42.9988 0
      vertex 22.5478 -42.9988 1
    endloop
  endfacet
  facet normal 0.987142 -0.159847 0
    outer loop
      vertex 22.5478 -42.9988 0
      vertex 22.2544 -44.8107 1
      vertex 22.2544 -44.8107 0
    endloop
  endfacet
  facet normal 0.998727 -0.0504366 0
    outer loop
      vertex 22.5478 -42.9988 1
      vertex 22.6456 -41.0622 0
      vertex 22.6456 -41.0622 1
    endloop
  endfacet
  facet normal 0.998727 -0.0504366 0
    outer loop
      vertex 22.6456 -41.0622 0
      vertex 22.5478 -42.9988 1
      vertex 22.5478 -42.9988 0
    endloop
  endfacet
  facet normal 0.998866 0.0476036 0
    outer loop
      vertex 22.6456 -41.0622 1
      vertex 22.575 -39.5808 0
      vertex 22.575 -39.5808 1
    endloop
  endfacet
  facet normal 0.998866 0.0476036 0
    outer loop
      vertex 22.575 -39.5808 0
      vertex 22.6456 -41.0622 1
      vertex 22.6456 -41.0622 0
    endloop
  endfacet
  facet normal 0.98869 0.149971 0
    outer loop
      vertex 22.575 -39.5808 1
      vertex 22.3632 -38.1845 0
      vertex 22.3632 -38.1845 1
    endloop
  endfacet
  facet normal 0.98869 0.149971 0
    outer loop
      vertex 22.3632 -38.1845 0
      vertex 22.575 -39.5808 1
      vertex 22.575 -39.5808 0
    endloop
  endfacet
  facet normal 0.965609 0.26 0
    outer loop
      vertex 22.3632 -38.1845 1
      vertex 22.0102 -36.8735 0
      vertex 22.0102 -36.8735 1
    endloop
  endfacet
  facet normal 0.965609 0.26 0
    outer loop
      vertex 22.0102 -36.8735 0
      vertex 22.3632 -38.1845 1
      vertex 22.3632 -38.1845 0
    endloop
  endfacet
  facet normal 0.927435 0.373985 0
    outer loop
      vertex 22.0102 -36.8735 1
      vertex 21.5159 -35.6477 0
      vertex 21.5159 -35.6477 1
    endloop
  endfacet
  facet normal 0.927435 0.373985 0
    outer loop
      vertex 21.5159 -35.6477 0
      vertex 22.0102 -36.8735 1
      vertex 22.0102 -36.8735 0
    endloop
  endfacet
  facet normal 0.873561 0.486716 0
    outer loop
      vertex 21.5159 -35.6477 1
      vertex 20.8804 -34.5071 0
      vertex 20.8804 -34.5071 1
    endloop
  endfacet
  facet normal 0.873561 0.486716 0
    outer loop
      vertex 20.8804 -34.5071 0
      vertex 21.5159 -35.6477 1
      vertex 21.5159 -35.6477 0
    endloop
  endfacet
  facet normal 0.805434 0.592686 0
    outer loop
      vertex 20.8804 -34.5071 1
      vertex 20.1037 -33.4516 0
      vertex 20.1037 -33.4516 1
    endloop
  endfacet
  facet normal 0.805434 0.592686 0
    outer loop
      vertex 20.1037 -33.4516 0
      vertex 20.8804 -34.5071 1
      vertex 20.8804 -34.5071 0
    endloop
  endfacet
  facet normal 0.726377 0.687296 0
    outer loop
      vertex 20.1037 -33.4516 1
      vertex 19.1857 -32.4814 0
      vertex 19.1857 -32.4814 1
    endloop
  endfacet
  facet normal 0.726377 0.687296 0
    outer loop
      vertex 19.1857 -32.4814 0
      vertex 20.1037 -33.4516 1
      vertex 20.1037 -33.4516 0
    endloop
  endfacet
  facet normal 0.639509 0.768784 -0
    outer loop
      vertex 19.1857 -32.4814 0
      vertex 18.1331 -31.6058 1
      vertex 19.1857 -32.4814 1
    endloop
  endfacet
  facet normal 0.639509 0.768784 0
    outer loop
      vertex 18.1331 -31.6058 1
      vertex 19.1857 -32.4814 0
      vertex 18.1331 -31.6058 0
    endloop
  endfacet
  facet normal 0.546758 0.83729 -0
    outer loop
      vertex 18.1331 -31.6058 0
      vertex 16.9518 -30.8344 1
      vertex 18.1331 -31.6058 1
    endloop
  endfacet
  facet normal 0.546758 0.83729 0
    outer loop
      vertex 16.9518 -30.8344 1
      vertex 18.1331 -31.6058 0
      vertex 16.9518 -30.8344 0
    endloop
  endfacet
  facet normal 0.454003 0.891 -0
    outer loop
      vertex 16.9518 -30.8344 0
      vertex 15.642 -30.167 1
      vertex 16.9518 -30.8344 1
    endloop
  endfacet
  facet normal 0.454003 0.891 0
    outer loop
      vertex 15.642 -30.167 1
      vertex 16.9518 -30.8344 0
      vertex 15.642 -30.167 0
    endloop
  endfacet
  facet normal 0.364573 0.931175 -0
    outer loop
      vertex 15.642 -30.167 0
      vertex 14.2035 -29.6038 1
      vertex 15.642 -30.167 1
    endloop
  endfacet
  facet normal 0.364573 0.931175 0
    outer loop
      vertex 14.2035 -29.6038 1
      vertex 15.642 -30.167 0
      vertex 14.2035 -29.6038 0
    endloop
  endfacet
  facet normal 0.281218 0.959644 -0
    outer loop
      vertex 14.2035 -29.6038 0
      vertex 12.6365 -29.1446 1
      vertex 14.2035 -29.6038 1
    endloop
  endfacet
  facet normal 0.281218 0.959644 0
    outer loop
      vertex 12.6365 -29.1446 1
      vertex 14.2035 -29.6038 0
      vertex 12.6365 -29.1446 0
    endloop
  endfacet
  facet normal 0.204922 0.978778 -0
    outer loop
      vertex 12.6365 -29.1446 0
      vertex 10.9409 -28.7896 1
      vertex 12.6365 -29.1446 1
    endloop
  endfacet
  facet normal 0.204922 0.978778 0
    outer loop
      vertex 10.9409 -28.7896 1
      vertex 12.6365 -29.1446 0
      vertex 10.9409 -28.7896 0
    endloop
  endfacet
  facet normal 0.136257 0.990674 -0
    outer loop
      vertex 10.9409 -28.7896 0
      vertex 9.1167 -28.5387 1
      vertex 10.9409 -28.7896 1
    endloop
  endfacet
  facet normal 0.136257 0.990674 0
    outer loop
      vertex 9.1167 -28.5387 1
      vertex 10.9409 -28.7896 0
      vertex 9.1167 -28.5387 0
    endloop
  endfacet
  facet normal 0.239477 -0.970902 0
    outer loop
      vertex 9.1167 -28.5387 0
      vertex 10.5738 -28.1793 1
      vertex 9.1167 -28.5387 1
    endloop
  endfacet
  facet normal 0.239477 -0.970902 0
    outer loop
      vertex 10.5738 -28.1793 1
      vertex 9.1167 -28.5387 0
      vertex 10.5738 -28.1793 0
    endloop
  endfacet
  facet normal 0.309262 -0.950977 0
    outer loop
      vertex 10.5738 -28.1793 0
      vertex 11.9188 -27.7419 1
      vertex 10.5738 -28.1793 1
    endloop
  endfacet
  facet normal 0.309262 -0.950977 0
    outer loop
      vertex 11.9188 -27.7419 1
      vertex 10.5738 -28.1793 0
      vertex 11.9188 -27.7419 0
    endloop
  endfacet
  facet normal 0.385795 -0.922585 0
    outer loop
      vertex 11.9188 -27.7419 0
      vertex 13.1518 -27.2263 1
      vertex 11.9188 -27.7419 1
    endloop
  endfacet
  facet normal 0.385795 -0.922585 0
    outer loop
      vertex 13.1518 -27.2263 1
      vertex 11.9188 -27.7419 0
      vertex 13.1518 -27.2263 0
    endloop
  endfacet
  facet normal 0.467967 -0.883746 0
    outer loop
      vertex 13.1518 -27.2263 0
      vertex 14.2728 -26.6327 1
      vertex 13.1518 -27.2263 1
    endloop
  endfacet
  facet normal 0.467967 -0.883746 0
    outer loop
      vertex 14.2728 -26.6327 1
      vertex 13.1518 -27.2263 0
      vertex 14.2728 -26.6327 0
    endloop
  endfacet
  facet normal 0.554186 -0.832393 0
    outer loop
      vertex 14.2728 -26.6327 0
      vertex 15.2817 -25.961 1
      vertex 14.2728 -26.6327 1
    endloop
  endfacet
  facet normal 0.554186 -0.832393 0
    outer loop
      vertex 15.2817 -25.961 1
      vertex 14.2728 -26.6327 0
      vertex 15.2817 -25.961 0
    endloop
  endfacet
  facet normal 0.641379 -0.767225 0
    outer loop
      vertex 15.2817 -25.961 0
      vertex 16.1785 -25.2113 1
      vertex 15.2817 -25.961 1
    endloop
  endfacet
  facet normal 0.641379 -0.767225 0
    outer loop
      vertex 16.1785 -25.2113 1
      vertex 15.2817 -25.961 0
      vertex 16.1785 -25.2113 0
    endloop
  endfacet
  facet normal 0.725745 -0.687963 0
    outer loop
      vertex 16.1785 -25.2113 1
      vertex 16.9633 -24.3834 0
      vertex 16.9633 -24.3834 1
    endloop
  endfacet
  facet normal 0.725745 -0.687963 0
    outer loop
      vertex 16.9633 -24.3834 0
      vertex 16.1785 -25.2113 1
      vertex 16.1785 -25.2113 0
    endloop
  endfacet
  facet normal 0.797804 -0.602918 0
    outer loop
      vertex 16.9633 -24.3834 1
      vertex 17.6402 -23.4877 0
      vertex 17.6402 -23.4877 1
    endloop
  endfacet
  facet normal 0.797804 -0.602918 0
    outer loop
      vertex 17.6402 -23.4877 0
      vertex 16.9633 -24.3834 1
      vertex 16.9633 -24.3834 0
    endloop
  endfacet
  facet normal 0.857167 -0.515038 0
    outer loop
      vertex 17.6402 -23.4877 1
      vertex 18.213 -22.5344 0
      vertex 18.213 -22.5344 1
    endloop
  endfacet
  facet normal 0.857167 -0.515038 0
    outer loop
      vertex 18.213 -22.5344 0
      vertex 17.6402 -23.4877 1
      vertex 17.6402 -23.4877 0
    endloop
  endfacet
  facet normal 0.907299 -0.420486 0
    outer loop
      vertex 18.213 -22.5344 1
      vertex 18.6815 -21.5235 0
      vertex 18.6815 -21.5235 1
    endloop
  endfacet
  facet normal 0.907299 -0.420486 0
    outer loop
      vertex 18.6815 -21.5235 0
      vertex 18.213 -22.5344 1
      vertex 18.213 -22.5344 0
    endloop
  endfacet
  facet normal 0.946446 -0.322863 0
    outer loop
      vertex 18.6815 -21.5235 1
      vertex 19.046 -20.455 0
      vertex 19.046 -20.455 1
    endloop
  endfacet
  facet normal 0.946446 -0.322863 0
    outer loop
      vertex 19.046 -20.455 0
      vertex 18.6815 -21.5235 1
      vertex 18.6815 -21.5235 0
    endloop
  endfacet
  facet normal 0.97429 -0.225295 0
    outer loop
      vertex 19.046 -20.455 1
      vertex 19.3064 -19.3289 0
      vertex 19.3064 -19.3289 1
    endloop
  endfacet
  facet normal 0.97429 -0.225295 0
    outer loop
      vertex 19.3064 -19.3289 0
      vertex 19.046 -20.455 1
      vertex 19.046 -20.455 0
    endloop
  endfacet
  facet normal 0.991405 -0.130825 0
    outer loop
      vertex 19.3064 -19.3289 1
      vertex 19.4626 -18.1452 0
      vertex 19.4626 -18.1452 1
    endloop
  endfacet
  facet normal 0.991405 -0.130825 0
    outer loop
      vertex 19.4626 -18.1452 0
      vertex 19.3064 -19.3289 1
      vertex 19.3064 -19.3289 0
    endloop
  endfacet
  facet normal 0.999124 -0.0418549 0
    outer loop
      vertex 19.4626 -18.1452 1
      vertex 19.5146 -16.9039 0
      vertex 19.5146 -16.9039 1
    endloop
  endfacet
  facet normal 0.999124 -0.0418549 0
    outer loop
      vertex 19.5146 -16.9039 0
      vertex 19.4626 -18.1452 1
      vertex 19.4626 -18.1452 0
    endloop
  endfacet
  facet normal 0.998719 0.0505977 0
    outer loop
      vertex 19.5146 -16.9039 1
      vertex 19.4259 -15.1531 0
      vertex 19.4259 -15.1531 1
    endloop
  endfacet
  facet normal 0.998719 0.0505977 0
    outer loop
      vertex 19.4259 -15.1531 0
      vertex 19.5146 -16.9039 1
      vertex 19.5146 -16.9039 0
    endloop
  endfacet
  facet normal 0.986927 0.161168 0
    outer loop
      vertex 19.4259 -15.1531 1
      vertex 19.1597 -13.523 0
      vertex 19.1597 -13.523 1
    endloop
  endfacet
  facet normal 0.986927 0.161168 0
    outer loop
      vertex 19.1597 -13.523 0
      vertex 19.4259 -15.1531 1
      vertex 19.4259 -15.1531 0
    endloop
  endfacet
  facet normal 0.95939 0.282084 0
    outer loop
      vertex 19.1597 -13.523 1
      vertex 18.7159 -12.0136 0
      vertex 18.7159 -12.0136 1
    endloop
  endfacet
  facet normal 0.95939 0.282084 0
    outer loop
      vertex 18.7159 -12.0136 0
      vertex 19.1597 -13.523 1
      vertex 19.1597 -13.523 0
    endloop
  endfacet
  facet normal 0.912833 0.408333 0
    outer loop
      vertex 18.7159 -12.0136 1
      vertex 18.0947 -10.6249 0
      vertex 18.0947 -10.6249 1
    endloop
  endfacet
  facet normal 0.912833 0.408333 0
    outer loop
      vertex 18.0947 -10.6249 0
      vertex 18.7159 -12.0136 1
      vertex 18.7159 -12.0136 0
    endloop
  endfacet
  facet normal 0.846124 0.532986 0
    outer loop
      vertex 18.0947 -10.6249 1
      vertex 17.296 -9.35695 0
      vertex 17.296 -9.35695 1
    endloop
  endfacet
  facet normal 0.846124 0.532986 0
    outer loop
      vertex 17.296 -9.35695 0
      vertex 18.0947 -10.6249 1
      vertex 18.0947 -10.6249 0
    endloop
  endfacet
  facet normal 0.761608 0.648038 0
    outer loop
      vertex 17.296 -9.35695 1
      vertex 16.3198 -8.20967 0
      vertex 16.3198 -8.20967 1
    endloop
  endfacet
  facet normal 0.761608 0.648038 0
    outer loop
      vertex 16.3198 -8.20967 0
      vertex 17.296 -9.35695 1
      vertex 17.296 -9.35695 0
    endloop
  endfacet
  facet normal 0.66475 0.747066 -0
    outer loop
      vertex 16.3198 -8.20967 0
      vertex 15.1661 -7.18309 1
      vertex 16.3198 -8.20967 1
    endloop
  endfacet
  facet normal 0.66475 0.747066 0
    outer loop
      vertex 15.1661 -7.18309 1
      vertex 16.3198 -8.20967 0
      vertex 15.1661 -7.18309 0
    endloop
  endfacet
  facet normal 0.560584 0.828098 -0
    outer loop
      vertex 15.1661 -7.18309 0
      vertex 13.8405 -6.28572 1
      vertex 15.1661 -7.18309 1
    endloop
  endfacet
  facet normal 0.560584 0.828098 0
    outer loop
      vertex 13.8405 -6.28572 1
      vertex 15.1661 -7.18309 0
      vertex 13.8405 -6.28572 0
    endloop
  endfacet
  facet normal 0.453539 0.891237 -0
    outer loop
      vertex 13.8405 -6.28572 0
      vertex 12.3484 -5.52641 1
      vertex 13.8405 -6.28572 1
    endloop
  endfacet
  facet normal 0.453539 0.891237 0
    outer loop
      vertex 12.3484 -5.52641 1
      vertex 13.8405 -6.28572 0
      vertex 12.3484 -5.52641 0
    endloop
  endfacet
  facet normal 0.350755 0.936467 -0
    outer loop
      vertex 12.3484 -5.52641 0
      vertex 10.6898 -4.90518 1
      vertex 12.3484 -5.52641 1
    endloop
  endfacet
  facet normal 0.350755 0.936467 0
    outer loop
      vertex 10.6898 -4.90518 1
      vertex 12.3484 -5.52641 0
      vertex 10.6898 -4.90518 0
    endloop
  endfacet
  facet normal 0.255953 0.966689 -0
    outer loop
      vertex 10.6898 -4.90518 0
      vertex 8.86484 -4.42198 1
      vertex 10.6898 -4.90518 1
    endloop
  endfacet
  facet normal 0.255953 0.966689 0
    outer loop
      vertex 8.86484 -4.42198 1
      vertex 10.6898 -4.90518 0
      vertex 8.86484 -4.42198 0
    endloop
  endfacet
  facet normal 0.170769 0.985311 -0
    outer loop
      vertex 8.86484 -4.42198 0
      vertex 6.87343 -4.07684 1
      vertex 8.86484 -4.42198 1
    endloop
  endfacet
  facet normal 0.170769 0.985311 0
    outer loop
      vertex 6.87343 -4.07684 1
      vertex 8.86484 -4.42198 0
      vertex 6.87343 -4.07684 0
    endloop
  endfacet
  facet normal 0.0955307 0.995426 -0
    outer loop
      vertex 6.87343 -4.07684 0
      vertex 4.71556 -3.86975 1
      vertex 6.87343 -4.07684 1
    endloop
  endfacet
  facet normal 0.0955307 0.995426 0
    outer loop
      vertex 4.71556 -3.86975 1
      vertex 6.87343 -4.07684 0
      vertex 4.71556 -3.86975 0
    endloop
  endfacet
  facet normal 0.0296863 0.999559 -0
    outer loop
      vertex 4.71556 -3.86975 0
      vertex 2.39127 -3.80072 1
      vertex 4.71556 -3.86975 1
    endloop
  endfacet
  facet normal 0.0296863 0.999559 0
    outer loop
      vertex 2.39127 -3.80072 1
      vertex 4.71556 -3.86975 0
      vertex 2.39127 -3.80072 0
    endloop
  endfacet
  facet normal 0 1 -0
    outer loop
      vertex 2.39127 -3.80072 0
      vertex -17.9019 -3.80072 1
      vertex 2.39127 -3.80072 1
    endloop
  endfacet
  facet normal 0 1 0
    outer loop
      vertex -17.9019 -3.80072 1
      vertex 2.39127 -3.80072 0
      vertex -17.9019 -3.80072 0
    endloop
  endfacet
  facet normal -1 0 0
    outer loop
      vertex -17.9019 -55.9437 0
      vertex -17.9019 -3.80072 1
      vertex -17.9019 -3.80072 0
    endloop
  endfacet
  facet normal -1 -0 0
    outer loop
      vertex -17.9019 -3.80072 1
      vertex -17.9019 -55.9437 0
      vertex -17.9019 -55.9437 1
    endloop
  endfacet
  facet normal 0 -1 0
    outer loop
      vertex -17.9019 -55.9437 0
      vertex 4.59431 -55.9437 1
      vertex -17.9019 -55.9437 1
    endloop
  endfacet
  facet normal 0 -1 -0
    outer loop
      vertex 4.59431 -55.9437 1
      vertex -17.9019 -55.9437 0
      vertex 4.59431 -55.9437 0
    endloop
  endfacet
  facet normal 0.0342851 -0.999412 0
    outer loop
      vertex 4.59431 -55.9437 0
      vertex 6.93797 -55.8633 1
      vertex 4.59431 -55.9437 1
    endloop
  endfacet
  facet normal 0.0342851 -0.999412 0
    outer loop
      vertex 6.93797 -55.8633 1
      vertex 4.59431 -55.9437 0
      vertex 6.93797 -55.8633 0
    endloop
  endfacet
  facet normal 1 -0 0
    outer loop
      vertex -6.49901 -24.596 1
      vertex -6.49901 -12.2658 0
      vertex -6.49901 -12.2658 1
    endloop
  endfacet
  facet normal 1 0 0
    outer loop
      vertex -6.49901 -12.2658 0
      vertex -6.49901 -24.596 1
      vertex -6.49901 -24.596 0
    endloop
  endfacet
  facet normal 0 -1 0
    outer loop
      vertex -6.49901 -12.2658 0
      vertex 1.57959 -12.2658 1
      vertex -6.49901 -12.2658 1
    endloop
  endfacet
  facet normal 0 -1 -0
    outer loop
      vertex 1.57959 -12.2658 1
      vertex -6.49901 -12.2658 0
      vertex 1.57959 -12.2658 0
    endloop
  endfacet
  facet normal -0.073489 -0.997296 0
    outer loop
      vertex 1.57959 -12.2658 0
      vertex 3.29221 -12.392 1
      vertex 1.57959 -12.2658 1
    endloop
  endfacet
  facet normal -0.073489 -0.997296 -0
    outer loop
      vertex 3.29221 -12.392 1
      vertex 1.57959 -12.2658 0
      vertex 3.29221 -12.392 0
    endloop
  endfacet
  facet normal -0.252774 -0.967525 0
    outer loop
      vertex 3.29221 -12.392 0
      vertex 4.74135 -12.7706 1
      vertex 3.29221 -12.392 1
    endloop
  endfacet
  facet normal -0.252774 -0.967525 -0
    outer loop
      vertex 4.74135 -12.7706 1
      vertex 3.29221 -12.392 0
      vertex 4.74135 -12.7706 0
    endloop
  endfacet
  facet normal -0.469865 -0.882738 0
    outer loop
      vertex 4.74135 -12.7706 0
      vertex 5.927 -13.4017 1
      vertex 4.74135 -12.7706 1
    endloop
  endfacet
  facet normal -0.469865 -0.882738 -0
    outer loop
      vertex 5.927 -13.4017 1
      vertex 4.74135 -12.7706 0
      vertex 5.927 -13.4017 0
    endloop
  endfacet
  facet normal -0.691801 -0.722088 0
    outer loop
      vertex 5.927 -13.4017 0
      vertex 6.84918 -14.2852 1
      vertex 5.927 -13.4017 1
    endloop
  endfacet
  facet normal -0.691801 -0.722088 -0
    outer loop
      vertex 6.84918 -14.2852 1
      vertex 5.927 -13.4017 0
      vertex 6.84918 -14.2852 0
    endloop
  endfacet
  facet normal -0.865075 -0.501643 0
    outer loop
      vertex 7.50787 -15.4211 0
      vertex 6.84918 -14.2852 1
      vertex 6.84918 -14.2852 0
    endloop
  endfacet
  facet normal -0.865075 -0.501643 0
    outer loop
      vertex 6.84918 -14.2852 1
      vertex 7.50787 -15.4211 0
      vertex 7.50787 -15.4211 1
    endloop
  endfacet
  facet normal -0.961788 -0.273795 0
    outer loop
      vertex 7.90311 -16.8095 0
      vertex 7.50787 -15.4211 1
      vertex 7.50787 -15.4211 0
    endloop
  endfacet
  facet normal -0.961788 -0.273795 0
    outer loop
      vertex 7.50787 -15.4211 1
      vertex 7.90311 -16.8095 0
      vertex 7.90311 -16.8095 1
    endloop
  endfacet
  facet normal -0.996793 -0.0800265 0
    outer loop
      vertex 8.03484 -18.4503 0
      vertex 7.90311 -16.8095 1
      vertex 7.90311 -16.8095 0
    endloop
  endfacet
  facet normal -0.996793 -0.0800265 0
    outer loop
      vertex 7.90311 -16.8095 1
      vertex 8.03484 -18.4503 0
      vertex 8.03484 -18.4503 1
    endloop
  endfacet
  facet normal -0.996828 0.0795873 0
    outer loop
      vertex 7.90466 -20.0808 0
      vertex 8.03484 -18.4503 1
      vertex 8.03484 -18.4503 0
    endloop
  endfacet
  facet normal -0.996828 0.0795873 0
    outer loop
      vertex 8.03484 -18.4503 1
      vertex 7.90466 -20.0808 0
      vertex 7.90466 -20.0808 1
    endloop
  endfacet
  facet normal -0.962197 0.272353 0
    outer loop
      vertex 7.51416 -21.4604 0
      vertex 7.90466 -20.0808 1
      vertex 7.90466 -20.0808 0
    endloop
  endfacet
  facet normal -0.962197 0.272353 0
    outer loop
      vertex 7.90466 -20.0808 1
      vertex 7.51416 -21.4604 0
      vertex 7.51416 -21.4604 1
    endloop
  endfacet
  facet normal -0.866312 0.499503 0
    outer loop
      vertex 6.86331 -22.5892 0
      vertex 7.51416 -21.4604 1
      vertex 7.51416 -21.4604 0
    endloop
  endfacet
  facet normal -0.866312 0.499503 0
    outer loop
      vertex 7.51416 -21.4604 1
      vertex 6.86331 -22.5892 0
      vertex 6.86331 -22.5892 1
    endloop
  endfacet
  facet normal -0.693874 0.720096 0
    outer loop
      vertex 6.86331 -22.5892 0
      vertex 5.95213 -23.4672 1
      vertex 6.86331 -22.5892 1
    endloop
  endfacet
  facet normal -0.693874 0.720096 0
    outer loop
      vertex 5.95213 -23.4672 1
      vertex 6.86331 -22.5892 0
      vertex 5.95213 -23.4672 0
    endloop
  endfacet
  facet normal -0.471929 0.881637 0
    outer loop
      vertex 5.95213 -23.4672 0
      vertex 4.78061 -24.0943 1
      vertex 5.95213 -23.4672 1
    endloop
  endfacet
  facet normal -0.471929 0.881637 0
    outer loop
      vertex 4.78061 -24.0943 1
      vertex 5.95213 -23.4672 0
      vertex 4.78061 -24.0943 0
    endloop
  endfacet
  facet normal -0.254172 0.967159 0
    outer loop
      vertex 4.78061 -24.0943 0
      vertex 3.34874 -24.4706 1
      vertex 4.78061 -24.0943 1
    endloop
  endfacet
  facet normal -0.254172 0.967159 0
    outer loop
      vertex 3.34874 -24.4706 1
      vertex 4.78061 -24.0943 0
      vertex 3.34874 -24.4706 0
    endloop
  endfacet
  facet normal -0.0739021 0.997266 0
    outer loop
      vertex 3.34874 -24.4706 0
      vertex 1.65654 -24.596 1
      vertex 3.34874 -24.4706 1
    endloop
  endfacet
  facet normal -0.0739021 0.997266 0
    outer loop
      vertex 1.65654 -24.596 1
      vertex 3.34874 -24.4706 0
      vertex 1.65654 -24.596 0
    endloop
  endfacet
  facet normal 0 1 -0
    outer loop
      vertex 1.65654 -24.596 0
      vertex -6.49901 -24.596 1
      vertex 1.65654 -24.596 1
    endloop
  endfacet
  facet normal 0 1 0
    outer loop
      vertex -6.49901 -24.596 1
      vertex 1.65654 -24.596 0
      vertex -6.49901 -24.596 0
    endloop
  endfacet
  facet normal 1 -0 0
    outer loop
      vertex -6.49901 -47.4787 1
      vertex -6.49901 -33.0223 0
      vertex -6.49901 -33.0223 1
    endloop
  endfacet
  facet normal 1 0 0
    outer loop
      vertex -6.49901 -33.0223 0
      vertex -6.49901 -47.4787 1
      vertex -6.49901 -47.4787 0
    endloop
  endfacet
  facet normal 0 -1 0
    outer loop
      vertex -6.49901 -33.0223 0
      vertex 3.16418 -33.0223 1
      vertex -6.49901 -33.0223 1
    endloop
  endfacet
  facet normal 0 -1 -0
    outer loop
      vertex 3.16418 -33.0223 1
      vertex -6.49901 -33.0223 0
      vertex 3.16418 -33.0223 0
    endloop
  endfacet
  facet normal -0.0347801 -0.999395 0
    outer loop
      vertex 3.16418 -33.0223 0
      vertex 4.24173 -33.0598 1
      vertex 3.16418 -33.0223 1
    endloop
  endfacet
  facet normal -0.0347801 -0.999395 -0
    outer loop
      vertex 4.24173 -33.0598 1
      vertex 3.16418 -33.0223 0
      vertex 4.24173 -33.0598 0
    endloop
  endfacet
  facet normal -0.111496 -0.993765 0
    outer loop
      vertex 4.24173 -33.0598 0
      vertex 5.24355 -33.1722 1
      vertex 4.24173 -33.0598 1
    endloop
  endfacet
  facet normal -0.111496 -0.993765 -0
    outer loop
      vertex 5.24355 -33.1722 1
      vertex 4.24173 -33.0598 0
      vertex 5.24355 -33.1722 0
    endloop
  endfacet
  facet normal -0.198338 -0.980134 0
    outer loop
      vertex 5.24355 -33.1722 0
      vertex 6.16963 -33.3596 1
      vertex 5.24355 -33.1722 1
    endloop
  endfacet
  facet normal -0.198338 -0.980134 -0
    outer loop
      vertex 6.16963 -33.3596 1
      vertex 5.24355 -33.1722 0
      vertex 6.16963 -33.3596 0
    endloop
  endfacet
  facet normal -0.294651 -0.955605 0
    outer loop
      vertex 6.16963 -33.3596 0
      vertex 7.01999 -33.6218 1
      vertex 6.16963 -33.3596 1
    endloop
  endfacet
  facet normal -0.294651 -0.955605 -0
    outer loop
      vertex 7.01999 -33.6218 1
      vertex 6.16963 -33.3596 0
      vertex 7.01999 -33.6218 0
    endloop
  endfacet
  facet normal -0.399124 -0.916897 0
    outer loop
      vertex 7.01999 -33.6218 0
      vertex 7.79463 -33.959 1
      vertex 7.01999 -33.6218 1
    endloop
  endfacet
  facet normal -0.399124 -0.916897 -0
    outer loop
      vertex 7.79463 -33.959 1
      vertex 7.01999 -33.6218 0
      vertex 7.79463 -33.959 0
    endloop
  endfacet
  facet normal -0.508011 -0.861351 0
    outer loop
      vertex 7.79463 -33.959 0
      vertex 8.49353 -34.3712 1
      vertex 7.79463 -33.959 1
    endloop
  endfacet
  facet normal -0.508011 -0.861351 -0
    outer loop
      vertex 8.49353 -34.3712 1
      vertex 7.79463 -33.959 0
      vertex 8.49353 -34.3712 0
    endloop
  endfacet
  facet normal -0.615839 -0.787872 0
    outer loop
      vertex 8.49353 -34.3712 0
      vertex 9.1167 -34.8583 1
      vertex 8.49353 -34.3712 1
    endloop
  endfacet
  facet normal -0.615839 -0.787872 -0
    outer loop
      vertex 9.1167 -34.8583 1
      vertex 8.49353 -34.3712 0
      vertex 9.1167 -34.8583 0
    endloop
  endfacet
  facet normal -0.715414 -0.698701 0
    outer loop
      vertex 9.6602 -35.4148 0
      vertex 9.1167 -34.8583 1
      vertex 9.1167 -34.8583 0
    endloop
  endfacet
  facet normal -0.715414 -0.698701 0
    outer loop
      vertex 9.1167 -34.8583 1
      vertex 9.6602 -35.4148 0
      vertex 9.6602 -35.4148 1
    endloop
  endfacet
  facet normal -0.803344 -0.595516 0
    outer loop
      vertex 10.1201 -36.0352 0
      vertex 9.6602 -35.4148 1
      vertex 9.6602 -35.4148 0
    endloop
  endfacet
  facet normal -0.803344 -0.595516 0
    outer loop
      vertex 9.6602 -35.4148 1
      vertex 10.1201 -36.0352 0
      vertex 10.1201 -36.0352 1
    endloop
  endfacet
  facet normal -0.876281 -0.481801 0
    outer loop
      vertex 10.4964 -36.7196 0
      vertex 10.1201 -36.0352 1
      vertex 10.1201 -36.0352 0
    endloop
  endfacet
  facet normal -0.876281 -0.481801 0
    outer loop
      vertex 10.1201 -36.0352 1
      vertex 10.4964 -36.7196 0
      vertex 10.4964 -36.7196 1
    endloop
  endfacet
  facet normal -0.931316 -0.364212 0
    outer loop
      vertex 10.789 -37.4678 0
      vertex 10.4964 -36.7196 1
      vertex 10.4964 -36.7196 0
    endloop
  endfacet
  facet normal -0.931316 -0.364212 0
    outer loop
      vertex 10.4964 -36.7196 1
      vertex 10.789 -37.4678 0
      vertex 10.789 -37.4678 1
    endloop
  endfacet
  facet normal -0.96845 -0.249207 0
    outer loop
      vertex 10.998 -38.28 0
      vertex 10.789 -37.4678 1
      vertex 10.789 -37.4678 0
    endloop
  endfacet
  facet normal -0.96845 -0.249207 0
    outer loop
      vertex 10.789 -37.4678 1
      vertex 10.998 -38.28 0
      vertex 10.998 -38.28 1
    endloop
  endfacet
  facet normal -0.989895 -0.141801 0
    outer loop
      vertex 11.1235 -39.1561 0
      vertex 10.998 -38.28 1
      vertex 10.998 -38.28 0
    endloop
  endfacet
  facet normal -0.989895 -0.141801 0
    outer loop
      vertex 10.998 -38.28 1
      vertex 11.1235 -39.1561 0
      vertex 11.1235 -39.1561 1
    endloop
  endfacet
  facet normal -0.999013 -0.0444289 0
    outer loop
      vertex 11.1653 -40.096 0
      vertex 11.1235 -39.1561 1
      vertex 11.1235 -39.1561 0
    endloop
  endfacet
  facet normal -0.999013 -0.0444289 0
    outer loop
      vertex 11.1235 -39.1561 1
      vertex 11.1653 -40.096 0
      vertex 11.1653 -40.096 1
    endloop
  endfacet
  facet normal -0.99677 0.0803035 0
    outer loop
      vertex 11.0075 -42.0547 0
      vertex 11.1653 -40.096 1
      vertex 11.1653 -40.096 0
    endloop
  endfacet
  facet normal -0.99677 0.0803035 0
    outer loop
      vertex 11.1653 -40.096 1
      vertex 11.0075 -42.0547 0
      vertex 11.0075 -42.0547 1
    endloop
  endfacet
  facet normal -0.961557 0.274606 0
    outer loop
      vertex 10.5342 -43.712 0
      vertex 11.0075 -42.0547 1
      vertex 11.0075 -42.0547 0
    endloop
  endfacet
  facet normal -0.961557 0.274606 0
    outer loop
      vertex 11.0075 -42.0547 1
      vertex 10.5342 -43.712 0
      vertex 10.5342 -43.712 1
    endloop
  endfacet
  facet normal -0.864394 0.502815 0
    outer loop
      vertex 9.74542 -45.068 0
      vertex 10.5342 -43.712 1
      vertex 10.5342 -43.712 0
    endloop
  endfacet
  facet normal -0.864394 0.502815 0
    outer loop
      vertex 10.5342 -43.712 1
      vertex 9.74542 -45.068 0
      vertex 9.74542 -45.068 1
    endloop
  endfacet
  facet normal -0.690667 0.723173 0
    outer loop
      vertex 9.74542 -45.068 0
      vertex 8.64108 -46.1227 1
      vertex 9.74542 -45.068 1
    endloop
  endfacet
  facet normal -0.690667 0.723173 0
    outer loop
      vertex 8.64108 -46.1227 1
      vertex 9.74542 -45.068 0
      vertex 8.64108 -46.1227 0
    endloop
  endfacet
  facet normal -0.46867 0.883374 0
    outer loop
      vertex 8.64108 -46.1227 0
      vertex 7.22122 -46.876 1
      vertex 8.64108 -46.1227 1
    endloop
  endfacet
  facet normal -0.46867 0.883374 0
    outer loop
      vertex 7.22122 -46.876 1
      vertex 8.64108 -46.1227 0
      vertex 7.22122 -46.876 0
    endloop
  endfacet
  facet normal -0.252052 0.967714 0
    outer loop
      vertex 7.22122 -46.876 0
      vertex 5.48584 -47.328 1
      vertex 7.22122 -46.876 1
    endloop
  endfacet
  facet normal -0.252052 0.967714 0
    outer loop
      vertex 5.48584 -47.328 1
      vertex 7.22122 -46.876 0
      vertex 5.48584 -47.328 0
    endloop
  endfacet
  facet normal -0.0732824 0.997311 0
    outer loop
      vertex 5.48584 -47.328 0
      vertex 3.43494 -47.4787 1
      vertex 5.48584 -47.328 1
    endloop
  endfacet
  facet normal -0.0732824 0.997311 0
    outer loop
      vertex 3.43494 -47.4787 1
      vertex 5.48584 -47.328 0
      vertex 3.43494 -47.4787 0
    endloop
  endfacet
  facet normal 0 1 -0
    outer loop
      vertex 3.43494 -47.4787 0
      vertex -6.49901 -47.4787 1
      vertex 3.43494 -47.4787 1
    endloop
  endfacet
  facet normal 0 1 0
    outer loop
      vertex -6.49901 -47.4787 1
      vertex 3.43494 -47.4787 0
      vertex -6.49901 -47.4787 0
    endloop
  endfacet
endsolid OpenSCAD_Model
