solid OpenSCAD_Model
  facet normal 0 0 -1
    outer loop
      vertex 34.6505 -84.9062 0
      vertex -11.2183 -70.0245 0
      vertex 34.6505 -70.0245 0
    endloop
  endfacet
  facet normal 0 -0 -1
    outer loop
      vertex -11.2183 -70.0245 0
      vertex 34.6505 -84.9062 0
      vertex -33.0569 -84.9062 0
    endloop
  endfacet
  facet normal -0 0 -1
    outer loop
      vertex 32.0086 -11.2071 0
      vertex 10.17 -12.8829 0
      vertex 32.0086 1.99879 0
    endloop
  endfacet
  facet normal 0 0 -1
    outer loop
      vertex -11.2183 -70.0245 0
      vertex 10.17 -12.8829 0
      vertex 32.0086 -11.2071 0
    endloop
  endfacet
  facet normal 0 0 -1
    outer loop
      vertex -33.0569 -71.4419 0
      vertex -11.2183 -70.0245 0
      vertex -33.0569 -84.9062 0
    endloop
  endfacet
  facet normal -0 0 -1
    outer loop
      vertex -11.2183 -70.0245 0
      vertex -33.0569 -71.4419 0
      vertex 10.17 -12.8829 0
    endloop
  endfacet
  facet normal 0 0 -1
    outer loop
      vertex -28.1616 1.99879 0
      vertex 10.17 -12.8829 0
      vertex -28.1616 -12.8829 0
    endloop
  endfacet
  facet normal 0 0 -1
    outer loop
      vertex 10.17 -12.8829 0
      vertex -28.1616 1.99879 0
      vertex 32.0086 1.99879 0
    endloop
  endfacet
  facet normal 0 0 1
    outer loop
      vertex 32.0086 1.99879 1
      vertex 10.17 -12.8829 1
      vertex 32.0086 -11.2071 1
    endloop
  endfacet
  facet normal -0 0 1
    outer loop
      vertex -28.1616 1.99879 1
      vertex 10.17 -12.8829 1
      vertex 32.0086 1.99879 1
    endloop
  endfacet
  facet normal 0 0 1
    outer loop
      vertex 10.17 -12.8829 1
      vertex -28.1616 1.99879 1
      vertex -28.1616 -12.8829 1
    endloop
  endfacet
  facet normal -0 0 1
    outer loop
      vertex 10.17 -12.8829 1
      vertex -11.2183 -70.0245 1
      vertex 32.0086 -11.2071 1
    endloop
  endfacet
  facet normal 0 -0 1
    outer loop
      vertex -11.2183 -70.0245 1
      vertex 10.17 -12.8829 1
      vertex -33.0569 -71.4419 1
    endloop
  endfacet
  facet normal -0 0 1
    outer loop
      vertex -11.2183 -70.0245 1
      vertex 34.6505 -84.9062 1
      vertex 34.6505 -70.0245 1
    endloop
  endfacet
  facet normal 0 0 1
    outer loop
      vertex -33.0569 -84.9062 1
      vertex -11.2183 -70.0245 1
      vertex -33.0569 -71.4419 1
    endloop
  endfacet
  facet normal 0 0 1
    outer loop
      vertex -11.2183 -70.0245 1
      vertex -33.0569 -84.9062 1
      vertex 34.6505 -84.9062 1
    endloop
  endfacet
  facet normal 0 1 -0
    outer loop
      vertex 34.6505 -70.0245 0
      vertex -11.2183 -70.0245 1
      vertex 34.6505 -70.0245 1
    endloop
  endfacet
  facet normal 0 1 0
    outer loop
      vertex -11.2183 -70.0245 1
      vertex 34.6505 -70.0245 0
      vertex -11.2183 -70.0245 0
    endloop
  endfacet
  facet normal 0.80579 -0.592202 0
    outer loop
      vertex -11.2183 -70.0245 1
      vertex 32.0086 -11.2071 0
      vertex 32.0086 -11.2071 1
    endloop
  endfacet
  facet normal 0.80579 -0.592202 0
    outer loop
      vertex 32.0086 -11.2071 0
      vertex -11.2183 -70.0245 1
      vertex -11.2183 -70.0245 0
    endloop
  endfacet
  facet normal 1 -0 0
    outer loop
      vertex 32.0086 -11.2071 1
      vertex 32.0086 1.99879 0
      vertex 32.0086 1.99879 1
    endloop
  endfacet
  facet normal 1 0 0
    outer loop
      vertex 32.0086 1.99879 0
      vertex 32.0086 -11.2071 1
      vertex 32.0086 -11.2071 0
    endloop
  endfacet
  facet normal 0 1 -0
    outer loop
      vertex 32.0086 1.99879 0
      vertex -28.1616 1.99879 1
      vertex 32.0086 1.99879 1
    endloop
  endfacet
  facet normal 0 1 0
    outer loop
      vertex -28.1616 1.99879 1
      vertex 32.0086 1.99879 0
      vertex -28.1616 1.99879 0
    endloop
  endfacet
  facet normal -1 0 0
    outer loop
      vertex -28.1616 -12.8829 0
      vertex -28.1616 1.99879 1
      vertex -28.1616 1.99879 0
    endloop
  endfacet
  facet normal -1 -0 0
    outer loop
      vertex -28.1616 1.99879 1
      vertex -28.1616 -12.8829 0
      vertex -28.1616 -12.8829 1
    endloop
  endfacet
  facet normal 0 -1 0
    outer loop
      vertex -28.1616 -12.8829 0
      vertex 10.17 -12.8829 1
      vertex -28.1616 -12.8829 1
    endloop
  endfacet
  facet normal 0 -1 -0
    outer loop
      vertex 10.17 -12.8829 1
      vertex -28.1616 -12.8829 0
      vertex 10.17 -12.8829 0
    endloop
  endfacet
  facet normal -0.804543 0.593895 0
    outer loop
      vertex -33.0569 -71.4419 0
      vertex 10.17 -12.8829 1
      vertex 10.17 -12.8829 0
    endloop
  endfacet
  facet normal -0.804543 0.593895 0
    outer loop
      vertex 10.17 -12.8829 1
      vertex -33.0569 -71.4419 0
      vertex -33.0569 -71.4419 1
    endloop
  endfacet
  facet normal -1 0 0
    outer loop
      vertex -33.0569 -84.9062 0
      vertex -33.0569 -71.4419 1
      vertex -33.0569 -71.4419 0
    endloop
  endfacet
  facet normal -1 -0 0
    outer loop
      vertex -33.0569 -71.4419 1
      vertex -33.0569 -84.9062 0
      vertex -33.0569 -84.9062 1
    endloop
  endfacet
  facet normal 0 -1 0
    outer loop
      vertex -33.0569 -84.9062 0
      vertex 34.6505 -84.9062 1
      vertex -33.0569 -84.9062 1
    endloop
  endfacet
  facet normal 0 -1 -0
    outer loop
      vertex 34.6505 -84.9062 1
      vertex -33.0569 -84.9062 0
      vertex 34.6505 -84.9062 0
    endloop
  endfacet
  facet normal 1 -0 0
    outer loop
      vertex 34.6505 -84.9062 1
      vertex 34.6505 -70.0245 0
      vertex 34.6505 -70.0245 1
    endloop
  endfacet
  facet normal 1 0 0
    outer loop
      vertex 34.6505 -70.0245 0
      vertex 34.6505 -84.9062 1
      vertex 34.6505 -84.9062 0
    endloop
  endfacet
endsolid OpenSCAD_Model
