  0
SECTION
  2
BLOCKS
  0
ENDSEC
  0
SECTION
  2
ENTITIES
  0
LINE
  8
0
 10
5.61986
 20
-87.268
 11
9.96109
 21
-86.5699
  0
LINE
  8
0
 10
9.96109
 20
-86.5699
 11
13.9815
 21
-85.4065
  0
LINE
  8
0
 10
13.9815
 20
-85.4065
 11
17.6811
 21
-83.7776
  0
LINE
  8
0
 10
17.6811
 20
-83.7776
 11
21.0598
 21
-81.6834
  0
LINE
  8
0
 10
21.0598
 20
-81.6834
 11
24.1177
 21
-79.1238
  0
LINE
  8
0
 10
24.1177
 20
-79.1238
 11
26.8548
 21
-76.0988
  0
LINE
  8
0
 10
26.8548
 20
-76.0988
 11
29.2477
 21
-72.6199
  0
LINE
  8
0
 10
29.2477
 20
-72.6199
 11
31.2724
 21
-68.6993
  0
LINE
  8
0
 10
31.2724
 20
-68.6993
 11
32.929
 21
-64.337
  0
LINE
  8
0
 10
32.929
 20
-64.337
 11
34.2175
 21
-59.5328
  0
LINE
  8
0
 10
34.2175
 20
-59.5328
 11
35.1378
 21
-54.2869
  0
LINE
  8
0
 10
35.1378
 20
-54.2869
 11
35.69
 21
-48.5992
  0
LINE
  8
0
 10
35.69
 20
-48.5992
 11
35.8741
 21
-42.4697
  0
LINE
  8
0
 10
35.8741
 20
-42.4697
 11
35.69
 21
-36.3458
  0
LINE
  8
0
 10
35.69
 20
-36.3458
 11
35.1378
 21
-30.6741
  0
LINE
  8
0
 10
35.1378
 20
-30.6741
 11
34.2175
 21
-25.4548
  0
LINE
  8
0
 10
34.2175
 20
-25.4548
 11
32.929
 21
-20.6877
  0
LINE
  8
0
 10
32.929
 20
-20.6877
 11
31.2724
 21
-16.3728
  0
LINE
  8
0
 10
31.2724
 20
-16.3728
 11
29.2477
 21
-12.5103
  0
LINE
  8
0
 10
29.2477
 20
-12.5103
 11
26.8548
 21
-9.10004
  0
LINE
  8
0
 10
26.8548
 20
-9.10004
 11
24.1177
 21
-6.1431
  0
LINE
  8
0
 10
24.1177
 20
-6.1431
 11
21.0598
 21
-3.64107
  0
LINE
  8
0
 10
21.0598
 20
-3.64107
 11
17.6811
 21
-1.59396
  0
LINE
  8
0
 10
17.6811
 20
-1.59396
 11
13.9815
 21
-0.00175476
  0
LINE
  8
0
 10
13.9815
 20
-0.00175476
 11
9.96109
 21
1.13551
  0
LINE
  8
0
 10
9.96109
 20
1.13551
 11
5.61986
 21
1.81789
  0
LINE
  8
0
 10
5.61986
 20
1.81789
 11
0.957809
 21
2.04535
  0
LINE
  8
0
 10
0.957809
 20
2.04535
 11
-3.70491
 21
1.81789
  0
LINE
  8
0
 10
-3.70491
 20
1.81789
 11
-8.04819
 21
1.13551
  0
LINE
  8
0
 10
-8.04819
 20
1.13551
 11
-12.072
 21
-0.00175476
  0
LINE
  8
0
 10
-12.072
 20
-0.00175476
 11
-15.7763
 21
-1.59396
  0
LINE
  8
0
 10
-15.7763
 20
-1.59396
 11
-19.1611
 21
-3.64107
  0
LINE
  8
0
 10
-19.1611
 20
-3.64107
 11
-22.2265
 21
-6.1431
  0
LINE
  8
0
 10
-22.2265
 20
-6.1431
 11
-24.9724
 21
-9.10004
  0
LINE
  8
0
 10
-24.9724
 20
-9.10004
 11
-27.3736
 21
-12.5103
  0
LINE
  8
0
 10
-27.3736
 20
-12.5103
 11
-29.4054
 21
-16.3728
  0
LINE
  8
0
 10
-29.4054
 20
-16.3728
 11
-31.0678
 21
-20.6877
  0
LINE
  8
0
 10
-31.0678
 20
-20.6877
 11
-32.3607
 21
-25.4548
  0
LINE
  8
0
 10
-32.3607
 20
-25.4548
 11
-33.2843
 21
-30.6741
  0
LINE
  8
0
 10
-33.2843
 20
-30.6741
 11
-33.8384
 21
-36.3458
  0
LINE
  8
0
 10
-33.8384
 20
-36.3458
 11
-34.0231
 21
-42.4697
  0
LINE
  8
0
 10
-34.0231
 20
-42.4697
 11
-33.8384
 21
-48.5992
  0
LINE
  8
0
 10
-33.8384
 20
-48.5992
 11
-33.2843
 21
-54.2869
  0
LINE
  8
0
 10
-33.2843
 20
-54.2869
 11
-32.3607
 21
-59.5328
  0
LINE
  8
0
 10
-32.3607
 20
-59.5328
 11
-31.0678
 21
-64.337
  0
LINE
  8
0
 10
-31.0678
 20
-64.337
 11
-29.4054
 21
-68.6993
  0
LINE
  8
0
 10
-29.4054
 20
-68.6993
 11
-27.3736
 21
-72.6199
  0
LINE
  8
0
 10
-27.3736
 20
-72.6199
 11
-24.9724
 21
-76.0988
  0
LINE
  8
0
 10
-24.9724
 20
-76.0988
 11
-22.2265
 21
-79.1238
  0
LINE
  8
0
 10
-22.2265
 20
-79.1238
 11
-19.1611
 21
-81.6834
  0
LINE
  8
0
 10
-19.1611
 20
-81.6834
 11
-15.7763
 21
-83.7776
  0
LINE
  8
0
 10
-15.7763
 20
-83.7776
 11
-12.072
 21
-85.4065
  0
LINE
  8
0
 10
-12.072
 20
-85.4065
 11
-8.04819
 21
-86.5699
  0
LINE
  8
0
 10
-8.04819
 20
-86.5699
 11
-3.70491
 21
-87.268
  0
LINE
  8
0
 10
-3.70491
 20
-87.268
 11
0.957809
 21
-87.5007
  0
LINE
  8
0
 10
0.957809
 20
-87.5007
 11
5.61986
 21
-87.268
  0
LINE
  8
0
 10
-1.1913
 20
-72.3995
 11
-3.18394
 21
-71.9321
  0
LINE
  8
0
 10
-3.18394
 20
-71.9321
 11
-5.02014
 21
-71.1531
  0
LINE
  8
0
 10
-5.02014
 20
-71.1531
 11
-6.69987
 21
-70.0625
  0
LINE
  8
0
 10
-6.69987
 20
-70.0625
 11
-8.22316
 21
-68.6603
  0
LINE
  8
0
 10
-8.22316
 20
-68.6603
 11
-9.58997
 21
-66.9465
  0
LINE
  8
0
 10
-9.58997
 20
-66.9465
 11
-10.8003
 21
-64.9211
  0
LINE
  8
0
 10
-10.8003
 20
-64.9211
 11
-11.8513
 21
-62.5933
  0
LINE
  8
0
 10
-11.8513
 20
-62.5933
 11
-12.7407
 21
-59.9723
  0
LINE
  8
0
 10
-12.7407
 20
-59.9723
 11
-13.4683
 21
-57.0582
  0
LINE
  8
0
 10
-13.4683
 20
-57.0582
 11
-14.0342
 21
-53.8508
  0
LINE
  8
0
 10
-14.0342
 20
-53.8508
 11
-14.4384
 21
-50.3503
  0
LINE
  8
0
 10
-14.4384
 20
-50.3503
 11
-14.681
 21
-46.5566
  0
LINE
  8
0
 10
-14.681
 20
-46.5566
 11
-14.7618
 21
-42.4697
  0
LINE
  8
0
 10
-14.7618
 20
-42.4697
 11
-14.441
 21
-34.6247
  0
LINE
  8
0
 10
-14.441
 20
-34.6247
 11
-13.4786
 21
-27.9866
  0
LINE
  8
0
 10
-13.4786
 20
-27.9866
 11
-11.8745
 21
-22.5555
  0
LINE
  8
0
 10
-11.8745
 20
-22.5555
 11
-9.62889
 21
-18.3312
  0
LINE
  8
0
 10
-9.62889
 20
-18.3312
 11
-6.74161
 21
-15.3139
  0
LINE
  8
0
 10
-6.74161
 20
-15.3139
 11
-3.21271
 21
-13.5035
  0
LINE
  8
0
 10
-3.21271
 20
-13.5035
 11
0.957809
 21
-12.9
  0
LINE
  8
0
 10
0.957809
 20
-12.9
 11
5.11093
 21
-13.5035
  0
LINE
  8
0
 10
5.11093
 20
-13.5035
 11
8.62512
 21
-15.3139
  0
LINE
  8
0
 10
8.62512
 20
-15.3139
 11
11.5004
 21
-18.3312
  0
LINE
  8
0
 10
11.5004
 20
-18.3312
 11
13.7367
 21
-22.5555
  0
LINE
  8
0
 10
13.7367
 20
-22.5555
 11
15.334
 21
-27.9866
  0
LINE
  8
0
 10
15.334
 20
-27.9866
 11
16.2924
 21
-34.6247
  0
LINE
  8
0
 10
16.2924
 20
-34.6247
 11
16.6119
 21
-42.4697
  0
LINE
  8
0
 10
16.6119
 20
-42.4697
 11
16.5317
 21
-46.5566
  0
LINE
  8
0
 10
16.5317
 20
-46.5566
 11
16.2911
 21
-50.3503
  0
LINE
  8
0
 10
16.2911
 20
-50.3503
 11
15.89
 21
-53.8508
  0
LINE
  8
0
 10
15.89
 20
-53.8508
 11
15.3286
 21
-57.0582
  0
LINE
  8
0
 10
15.3286
 20
-57.0582
 11
14.6067
 21
-59.9723
  0
LINE
  8
0
 10
14.6067
 20
-59.9723
 11
13.7244
 21
-62.5933
  0
LINE
  8
0
 10
13.7244
 20
-62.5933
 11
12.6817
 21
-64.9211
  0
LINE
  8
0
 10
12.6817
 20
-64.9211
 11
11.4802
 21
-66.9465
  0
LINE
  8
0
 10
11.4802
 20
-66.9465
 11
10.1209
 21
-68.6603
  0
LINE
  8
0
 10
10.1209
 20
-68.6603
 11
8.60387
 21
-70.0625
  0
LINE
  8
0
 10
8.60387
 20
-70.0625
 11
6.92902
 21
-71.1531
  0
LINE
  8
0
 10
6.92902
 20
-71.1531
 11
5.09639
 21
-71.9321
  0
LINE
  8
0
 10
5.09639
 20
-71.9321
 11
3.10599
 21
-72.3995
  0
LINE
  8
0
 10
3.10599
 20
-72.3995
 11
0.957809
 21
-72.5553
  0
LINE
  8
0
 10
0.957809
 20
-72.5553
 11
-1.1913
 21
-72.3995
  0
ENDSEC
  0
SECTION
  2
OBJECTS
  0
DICTIONARY
  0
ENDSEC
  0
EOF
