solid OpenSCAD_Model
  facet normal 0 0 -1
    outer loop
      vertex 16.5317 -46.5566 0
      vertex 35.8741 -42.4697 0
      vertex 35.69 -48.5992 0
    endloop
  endfacet
  facet normal 0 0 -1
    outer loop
      vertex 16.2911 -50.3503 0
      vertex 35.69 -48.5992 0
      vertex 35.1378 -54.2869 0
    endloop
  endfacet
  facet normal -0 0 -1
    outer loop
      vertex 35.8741 -42.4697 0
      vertex 16.5317 -46.5566 0
      vertex 16.6119 -42.4697 0
    endloop
  endfacet
  facet normal 0 0 -1
    outer loop
      vertex 15.89 -53.8508 0
      vertex 35.1378 -54.2869 0
      vertex 34.2175 -59.5328 0
    endloop
  endfacet
  facet normal 0 0 -1
    outer loop
      vertex 35.8741 -42.4697 0
      vertex 16.6119 -42.4697 0
      vertex 35.69 -36.3458 0
    endloop
  endfacet
  facet normal 0 0 -1
    outer loop
      vertex 15.3286 -57.0582 0
      vertex 34.2175 -59.5328 0
      vertex 32.929 -64.337 0
    endloop
  endfacet
  facet normal 0 0 -1
    outer loop
      vertex 35.69 -36.3458 0
      vertex 16.2924 -34.6247 0
      vertex 35.1378 -30.6741 0
    endloop
  endfacet
  facet normal 0 0 -1
    outer loop
      vertex 14.6067 -59.9723 0
      vertex 32.929 -64.337 0
      vertex 31.2724 -68.6993 0
    endloop
  endfacet
  facet normal 0 0 -1
    outer loop
      vertex 15.334 -27.9866 0
      vertex 35.1378 -30.6741 0
      vertex 16.2924 -34.6247 0
    endloop
  endfacet
  facet normal 0 0 -1
    outer loop
      vertex 13.7244 -62.5933 0
      vertex 31.2724 -68.6993 0
      vertex 29.2477 -72.6199 0
    endloop
  endfacet
  facet normal 0 0 -1
    outer loop
      vertex 35.1378 -30.6741 0
      vertex 15.334 -27.9866 0
      vertex 34.2175 -25.4548 0
    endloop
  endfacet
  facet normal 0 0 -1
    outer loop
      vertex 12.6817 -64.9211 0
      vertex 29.2477 -72.6199 0
      vertex 26.8548 -76.0988 0
    endloop
  endfacet
  facet normal -0 0 -1
    outer loop
      vertex 34.2175 -25.4548 0
      vertex 15.334 -27.9866 0
      vertex 32.929 -20.6877 0
    endloop
  endfacet
  facet normal 0 0 -1
    outer loop
      vertex 11.4802 -66.9465 0
      vertex 26.8548 -76.0988 0
      vertex 24.1177 -79.1238 0
    endloop
  endfacet
  facet normal 0 0 -1
    outer loop
      vertex 16.2924 -34.6247 0
      vertex 35.69 -36.3458 0
      vertex 16.6119 -42.4697 0
    endloop
  endfacet
  facet normal 0 0 -1
    outer loop
      vertex 10.1209 -68.6603 0
      vertex 24.1177 -79.1238 0
      vertex 21.0598 -81.6834 0
    endloop
  endfacet
  facet normal 0 0 -1
    outer loop
      vertex 13.7367 -22.5555 0
      vertex 32.929 -20.6877 0
      vertex 15.334 -27.9866 0
    endloop
  endfacet
  facet normal 0 0 -1
    outer loop
      vertex 8.60387 -70.0625 0
      vertex 21.0598 -81.6834 0
      vertex 17.6811 -83.7776 0
    endloop
  endfacet
  facet normal -0 0 -1
    outer loop
      vertex 32.929 -20.6877 0
      vertex 13.7367 -22.5555 0
      vertex 31.2724 -16.3728 0
    endloop
  endfacet
  facet normal 0 0 -1
    outer loop
      vertex 11.5004 -18.3312 0
      vertex 29.2477 -12.5103 0
      vertex 13.7367 -22.5555 0
    endloop
  endfacet
  facet normal -0 0 -1
    outer loop
      vertex 31.2724 -16.3728 0
      vertex 13.7367 -22.5555 0
      vertex 29.2477 -12.5103 0
    endloop
  endfacet
  facet normal -0 0 -1
    outer loop
      vertex 35.69 -48.5992 0
      vertex 16.2911 -50.3503 0
      vertex 16.5317 -46.5566 0
    endloop
  endfacet
  facet normal 0 0 -1
    outer loop
      vertex 35.1378 -54.2869 0
      vertex 15.89 -53.8508 0
      vertex 16.2911 -50.3503 0
    endloop
  endfacet
  facet normal 0 0 -1
    outer loop
      vertex 34.2175 -59.5328 0
      vertex 15.3286 -57.0582 0
      vertex 15.89 -53.8508 0
    endloop
  endfacet
  facet normal 0 0 -1
    outer loop
      vertex 32.929 -64.337 0
      vertex 14.6067 -59.9723 0
      vertex 15.3286 -57.0582 0
    endloop
  endfacet
  facet normal 0 0 -1
    outer loop
      vertex 8.60387 -70.0625 0
      vertex 17.6811 -83.7776 0
      vertex 13.9815 -85.4065 0
    endloop
  endfacet
  facet normal 0 0 -1
    outer loop
      vertex 31.2724 -68.6993 0
      vertex 13.7244 -62.5933 0
      vertex 14.6067 -59.9723 0
    endloop
  endfacet
  facet normal 0 0 -1
    outer loop
      vertex 29.2477 -72.6199 0
      vertex 12.6817 -64.9211 0
      vertex 13.7244 -62.5933 0
    endloop
  endfacet
  facet normal 0 0 -1
    outer loop
      vertex 26.8548 -76.0988 0
      vertex 11.4802 -66.9465 0
      vertex 12.6817 -64.9211 0
    endloop
  endfacet
  facet normal 0 0 -1
    outer loop
      vertex 24.1177 -79.1238 0
      vertex 10.1209 -68.6603 0
      vertex 11.4802 -66.9465 0
    endloop
  endfacet
  facet normal 0 0 -1
    outer loop
      vertex 6.92902 -71.1531 0
      vertex 13.9815 -85.4065 0
      vertex 9.96109 -86.5699 0
    endloop
  endfacet
  facet normal 0 0 -1
    outer loop
      vertex 21.0598 -81.6834 0
      vertex 8.60387 -70.0625 0
      vertex 10.1209 -68.6603 0
    endloop
  endfacet
  facet normal 0 0 -1
    outer loop
      vertex 13.9815 -85.4065 0
      vertex 6.92902 -71.1531 0
      vertex 8.60387 -70.0625 0
    endloop
  endfacet
  facet normal 0 0 -1
    outer loop
      vertex 5.09639 -71.9321 0
      vertex 9.96109 -86.5699 0
      vertex 5.61986 -87.268 0
    endloop
  endfacet
  facet normal 0 0 -1
    outer loop
      vertex 9.96109 -86.5699 0
      vertex 5.09639 -71.9321 0
      vertex 6.92902 -71.1531 0
    endloop
  endfacet
  facet normal 0 0 -1
    outer loop
      vertex 5.61986 -87.268 0
      vertex 3.10599 -72.3995 0
      vertex 5.09639 -71.9321 0
    endloop
  endfacet
  facet normal 0 0 -1
    outer loop
      vertex 0.957809 -87.5007 0
      vertex 3.10599 -72.3995 0
      vertex 5.61986 -87.268 0
    endloop
  endfacet
  facet normal 0 0 -1
    outer loop
      vertex 0.957809 -87.5007 0
      vertex 0.957809 -72.5553 0
      vertex 3.10599 -72.3995 0
    endloop
  endfacet
  facet normal 0 0 -1
    outer loop
      vertex 0.957809 -87.5007 0
      vertex -1.1913 -72.3995 0
      vertex 0.957809 -72.5553 0
    endloop
  endfacet
  facet normal 0 0 -1
    outer loop
      vertex -3.70491 -87.268 0
      vertex -1.1913 -72.3995 0
      vertex 0.957809 -87.5007 0
    endloop
  endfacet
  facet normal -0 0 -1
    outer loop
      vertex -1.1913 -72.3995 0
      vertex -3.70491 -87.268 0
      vertex -3.18394 -71.9321 0
    endloop
  endfacet
  facet normal 0 0 -1
    outer loop
      vertex -8.04819 -86.5699 0
      vertex -3.18394 -71.9321 0
      vertex -3.70491 -87.268 0
    endloop
  endfacet
  facet normal -0 0 -1
    outer loop
      vertex -3.18394 -71.9321 0
      vertex -8.04819 -86.5699 0
      vertex -5.02014 -71.1531 0
    endloop
  endfacet
  facet normal 0 0 -1
    outer loop
      vertex -12.072 -85.4065 0
      vertex -5.02014 -71.1531 0
      vertex -8.04819 -86.5699 0
    endloop
  endfacet
  facet normal -0 0 -1
    outer loop
      vertex -5.02014 -71.1531 0
      vertex -12.072 -85.4065 0
      vertex -6.69987 -70.0625 0
    endloop
  endfacet
  facet normal 0 0 -1
    outer loop
      vertex -15.7763 -83.7776 0
      vertex -6.69987 -70.0625 0
      vertex -12.072 -85.4065 0
    endloop
  endfacet
  facet normal 0 0 -1
    outer loop
      vertex -19.1611 -81.6834 0
      vertex -6.69987 -70.0625 0
      vertex -15.7763 -83.7776 0
    endloop
  endfacet
  facet normal -0 0 -1
    outer loop
      vertex -6.69987 -70.0625 0
      vertex -19.1611 -81.6834 0
      vertex -8.22316 -68.6603 0
    endloop
  endfacet
  facet normal 0 0 -1
    outer loop
      vertex -22.2265 -79.1238 0
      vertex -8.22316 -68.6603 0
      vertex -19.1611 -81.6834 0
    endloop
  endfacet
  facet normal -0 0 -1
    outer loop
      vertex -8.22316 -68.6603 0
      vertex -22.2265 -79.1238 0
      vertex -9.58997 -66.9465 0
    endloop
  endfacet
  facet normal 0 0 -1
    outer loop
      vertex -24.9724 -76.0988 0
      vertex -9.58997 -66.9465 0
      vertex -22.2265 -79.1238 0
    endloop
  endfacet
  facet normal -0 0 -1
    outer loop
      vertex -9.58997 -66.9465 0
      vertex -24.9724 -76.0988 0
      vertex -10.8003 -64.9211 0
    endloop
  endfacet
  facet normal 0 0 -1
    outer loop
      vertex -27.3736 -72.6199 0
      vertex -10.8003 -64.9211 0
      vertex -24.9724 -76.0988 0
    endloop
  endfacet
  facet normal -0 0 -1
    outer loop
      vertex -11.8513 -62.5933 0
      vertex -29.4054 -68.6993 0
      vertex -12.7407 -59.9723 0
    endloop
  endfacet
  facet normal 0 0 -1
    outer loop
      vertex -29.4054 -68.6993 0
      vertex -11.8513 -62.5933 0
      vertex -27.3736 -72.6199 0
    endloop
  endfacet
  facet normal -0 0 -1
    outer loop
      vertex -10.8003 -64.9211 0
      vertex -27.3736 -72.6199 0
      vertex -11.8513 -62.5933 0
    endloop
  endfacet
  facet normal -0 0 -1
    outer loop
      vertex 29.2477 -12.5103 0
      vertex 11.5004 -18.3312 0
      vertex 26.8548 -9.10004 0
    endloop
  endfacet
  facet normal -0 0 -1
    outer loop
      vertex 26.8548 -9.10004 0
      vertex 11.5004 -18.3312 0
      vertex 24.1177 -6.1431 0
    endloop
  endfacet
  facet normal -0 0 -1
    outer loop
      vertex 24.1177 -6.1431 0
      vertex 11.5004 -18.3312 0
      vertex 21.0598 -3.64107 0
    endloop
  endfacet
  facet normal 0 0 -1
    outer loop
      vertex 8.62512 -15.3139 0
      vertex 21.0598 -3.64107 0
      vertex 11.5004 -18.3312 0
    endloop
  endfacet
  facet normal -0 0 -1
    outer loop
      vertex 21.0598 -3.64107 0
      vertex 8.62512 -15.3139 0
      vertex 17.6811 -1.59396 0
    endloop
  endfacet
  facet normal -0 0 -1
    outer loop
      vertex 17.6811 -1.59396 0
      vertex 8.62512 -15.3139 0
      vertex 13.9815 -0.00175476 0
    endloop
  endfacet
  facet normal 0 0 -1
    outer loop
      vertex 5.11093 -13.5035 0
      vertex 13.9815 -0.00175476 0
      vertex 8.62512 -15.3139 0
    endloop
  endfacet
  facet normal -0 0 -1
    outer loop
      vertex 13.9815 -0.00175476 0
      vertex 5.11093 -13.5035 0
      vertex 9.96109 1.13551 0
    endloop
  endfacet
  facet normal -0 0 -1
    outer loop
      vertex 9.96109 1.13551 0
      vertex 5.11093 -13.5035 0
      vertex 5.61986 1.81789 0
    endloop
  endfacet
  facet normal 0 0 -1
    outer loop
      vertex 0.957809 -12.9 0
      vertex 5.61986 1.81789 0
      vertex 5.11093 -13.5035 0
    endloop
  endfacet
  facet normal 0 0 -1
    outer loop
      vertex 0.957809 -12.9 0
      vertex 0.957809 2.04535 0
      vertex 5.61986 1.81789 0
    endloop
  endfacet
  facet normal 0 0 -1
    outer loop
      vertex -3.70491 1.81789 0
      vertex 0.957809 -12.9 0
      vertex -3.21271 -13.5035 0
    endloop
  endfacet
  facet normal 0 0 -1
    outer loop
      vertex 0.957809 -12.9 0
      vertex -3.70491 1.81789 0
      vertex 0.957809 2.04535 0
    endloop
  endfacet
  facet normal 0 0 -1
    outer loop
      vertex -12.072 -0.00175476 0
      vertex -3.21271 -13.5035 0
      vertex -6.74161 -15.3139 0
    endloop
  endfacet
  facet normal 0 0 -1
    outer loop
      vertex -3.21271 -13.5035 0
      vertex -8.04819 1.13551 0
      vertex -3.70491 1.81789 0
    endloop
  endfacet
  facet normal 0 0 -1
    outer loop
      vertex -19.1611 -3.64107 0
      vertex -6.74161 -15.3139 0
      vertex -9.62889 -18.3312 0
    endloop
  endfacet
  facet normal 0 0 -1
    outer loop
      vertex -27.3736 -12.5103 0
      vertex -9.62889 -18.3312 0
      vertex -11.8745 -22.5555 0
    endloop
  endfacet
  facet normal 0 0 -1
    outer loop
      vertex -3.21271 -13.5035 0
      vertex -12.072 -0.00175476 0
      vertex -8.04819 1.13551 0
    endloop
  endfacet
  facet normal 0 0 -1
    outer loop
      vertex -31.0678 -20.6877 0
      vertex -11.8745 -22.5555 0
      vertex -13.4786 -27.9866 0
    endloop
  endfacet
  facet normal 0 0 -1
    outer loop
      vertex -33.2843 -30.6741 0
      vertex -13.4786 -27.9866 0
      vertex -14.441 -34.6247 0
    endloop
  endfacet
  facet normal 0 0 -1
    outer loop
      vertex -6.74161 -15.3139 0
      vertex -15.7763 -1.59396 0
      vertex -12.072 -0.00175476 0
    endloop
  endfacet
  facet normal 0 0 -1
    outer loop
      vertex -33.8384 -36.3458 0
      vertex -14.441 -34.6247 0
      vertex -14.7618 -42.4697 0
    endloop
  endfacet
  facet normal 0 0 -1
    outer loop
      vertex -31.0678 -64.337 0
      vertex -12.7407 -59.9723 0
      vertex -29.4054 -68.6993 0
    endloop
  endfacet
  facet normal -0 0 -1
    outer loop
      vertex -12.7407 -59.9723 0
      vertex -31.0678 -64.337 0
      vertex -13.4683 -57.0582 0
    endloop
  endfacet
  facet normal 0 -0 -1
    outer loop
      vertex -33.8384 -36.3458 0
      vertex -14.7618 -42.4697 0
      vertex -34.0231 -42.4697 0
    endloop
  endfacet
  facet normal 0 0 -1
    outer loop
      vertex -32.3607 -59.5328 0
      vertex -13.4683 -57.0582 0
      vertex -31.0678 -64.337 0
    endloop
  endfacet
  facet normal -0 0 -1
    outer loop
      vertex -14.441 -34.6247 0
      vertex -33.8384 -36.3458 0
      vertex -33.2843 -30.6741 0
    endloop
  endfacet
  facet normal -0 0 -1
    outer loop
      vertex -13.4683 -57.0582 0
      vertex -32.3607 -59.5328 0
      vertex -14.0342 -53.8508 0
    endloop
  endfacet
  facet normal -0 0 -1
    outer loop
      vertex -13.4786 -27.9866 0
      vertex -33.2843 -30.6741 0
      vertex -32.3607 -25.4548 0
    endloop
  endfacet
  facet normal 0 0 -1
    outer loop
      vertex -33.2843 -54.2869 0
      vertex -14.0342 -53.8508 0
      vertex -32.3607 -59.5328 0
    endloop
  endfacet
  facet normal 0 0 -1
    outer loop
      vertex -13.4786 -27.9866 0
      vertex -32.3607 -25.4548 0
      vertex -31.0678 -20.6877 0
    endloop
  endfacet
  facet normal -0 0 -1
    outer loop
      vertex -14.0342 -53.8508 0
      vertex -33.2843 -54.2869 0
      vertex -14.4384 -50.3503 0
    endloop
  endfacet
  facet normal 0 0 -1
    outer loop
      vertex -11.8745 -22.5555 0
      vertex -31.0678 -20.6877 0
      vertex -29.4054 -16.3728 0
    endloop
  endfacet
  facet normal 0 0 -1
    outer loop
      vertex -33.8384 -48.5992 0
      vertex -14.4384 -50.3503 0
      vertex -33.2843 -54.2869 0
    endloop
  endfacet
  facet normal 0 0 -1
    outer loop
      vertex -14.681 -46.5566 0
      vertex -34.0231 -42.4697 0
      vertex -14.7618 -42.4697 0
    endloop
  endfacet
  facet normal 0 0 -1
    outer loop
      vertex -14.4384 -50.3503 0
      vertex -33.8384 -48.5992 0
      vertex -14.681 -46.5566 0
    endloop
  endfacet
  facet normal 0 0 -1
    outer loop
      vertex -11.8745 -22.5555 0
      vertex -29.4054 -16.3728 0
      vertex -27.3736 -12.5103 0
    endloop
  endfacet
  facet normal 0 0 -1
    outer loop
      vertex -34.0231 -42.4697 0
      vertex -14.681 -46.5566 0
      vertex -33.8384 -48.5992 0
    endloop
  endfacet
  facet normal 0 0 -1
    outer loop
      vertex -6.74161 -15.3139 0
      vertex -19.1611 -3.64107 0
      vertex -15.7763 -1.59396 0
    endloop
  endfacet
  facet normal 0 0 -1
    outer loop
      vertex -9.62889 -18.3312 0
      vertex -22.2265 -6.1431 0
      vertex -19.1611 -3.64107 0
    endloop
  endfacet
  facet normal 0 0 -1
    outer loop
      vertex -9.62889 -18.3312 0
      vertex -27.3736 -12.5103 0
      vertex -24.9724 -9.10004 0
    endloop
  endfacet
  facet normal 0 0 -1
    outer loop
      vertex -9.62889 -18.3312 0
      vertex -24.9724 -9.10004 0
      vertex -22.2265 -6.1431 0
    endloop
  endfacet
  facet normal 0 0 1
    outer loop
      vertex 16.6119 -42.4697 1
      vertex 35.8741 -42.4697 1
      vertex 35.69 -36.3458 1
    endloop
  endfacet
  facet normal -0 0 1
    outer loop
      vertex 16.2924 -34.6247 1
      vertex 35.69 -36.3458 1
      vertex 35.1378 -30.6741 1
    endloop
  endfacet
  facet normal 0 0 1
    outer loop
      vertex 16.5317 -46.5566 1
      vertex 35.8741 -42.4697 1
      vertex 16.6119 -42.4697 1
    endloop
  endfacet
  facet normal -0 0 1
    outer loop
      vertex 15.334 -27.9866 1
      vertex 35.1378 -30.6741 1
      vertex 34.2175 -25.4548 1
    endloop
  endfacet
  facet normal 0 0 1
    outer loop
      vertex 35.8741 -42.4697 1
      vertex 16.5317 -46.5566 1
      vertex 35.69 -48.5992 1
    endloop
  endfacet
  facet normal 0 0 1
    outer loop
      vertex 15.334 -27.9866 1
      vertex 34.2175 -25.4548 1
      vertex 32.929 -20.6877 1
    endloop
  endfacet
  facet normal 0 0 1
    outer loop
      vertex 16.2911 -50.3503 1
      vertex 35.69 -48.5992 1
      vertex 16.5317 -46.5566 1
    endloop
  endfacet
  facet normal 0 0 1
    outer loop
      vertex 13.7367 -22.5555 1
      vertex 32.929 -20.6877 1
      vertex 31.2724 -16.3728 1
    endloop
  endfacet
  facet normal 0 0 1
    outer loop
      vertex 35.69 -48.5992 1
      vertex 16.2911 -50.3503 1
      vertex 35.1378 -54.2869 1
    endloop
  endfacet
  facet normal 0 0 1
    outer loop
      vertex 13.7367 -22.5555 1
      vertex 31.2724 -16.3728 1
      vertex 29.2477 -12.5103 1
    endloop
  endfacet
  facet normal -0 0 1
    outer loop
      vertex 15.89 -53.8508 1
      vertex 35.1378 -54.2869 1
      vertex 16.2911 -50.3503 1
    endloop
  endfacet
  facet normal 0 0 1
    outer loop
      vertex 11.5004 -18.3312 1
      vertex 29.2477 -12.5103 1
      vertex 26.8548 -9.10004 1
    endloop
  endfacet
  facet normal 0 0 1
    outer loop
      vertex 35.1378 -54.2869 1
      vertex 15.89 -53.8508 1
      vertex 34.2175 -59.5328 1
    endloop
  endfacet
  facet normal 0 0 1
    outer loop
      vertex 11.5004 -18.3312 1
      vertex 26.8548 -9.10004 1
      vertex 24.1177 -6.1431 1
    endloop
  endfacet
  facet normal -0 0 1
    outer loop
      vertex 15.3286 -57.0582 1
      vertex 34.2175 -59.5328 1
      vertex 15.89 -53.8508 1
    endloop
  endfacet
  facet normal 0 0 1
    outer loop
      vertex 11.5004 -18.3312 1
      vertex 24.1177 -6.1431 1
      vertex 21.0598 -3.64107 1
    endloop
  endfacet
  facet normal 0 0 1
    outer loop
      vertex 34.2175 -59.5328 1
      vertex 15.3286 -57.0582 1
      vertex 32.929 -64.337 1
    endloop
  endfacet
  facet normal 0 0 1
    outer loop
      vertex 8.62512 -15.3139 1
      vertex 21.0598 -3.64107 1
      vertex 17.6811 -1.59396 1
    endloop
  endfacet
  facet normal -0 0 1
    outer loop
      vertex 14.6067 -59.9723 1
      vertex 32.929 -64.337 1
      vertex 15.3286 -57.0582 1
    endloop
  endfacet
  facet normal 0 0 1
    outer loop
      vertex 32.929 -64.337 1
      vertex 14.6067 -59.9723 1
      vertex 31.2724 -68.6993 1
    endloop
  endfacet
  facet normal 0 0 1
    outer loop
      vertex 35.69 -36.3458 1
      vertex 16.2924 -34.6247 1
      vertex 16.6119 -42.4697 1
    endloop
  endfacet
  facet normal 0 0 1
    outer loop
      vertex 35.1378 -30.6741 1
      vertex 15.334 -27.9866 1
      vertex 16.2924 -34.6247 1
    endloop
  endfacet
  facet normal 0 0 1
    outer loop
      vertex 8.62512 -15.3139 1
      vertex 17.6811 -1.59396 1
      vertex 13.9815 -0.00175476 1
    endloop
  endfacet
  facet normal 0 0 1
    outer loop
      vertex 32.929 -20.6877 1
      vertex 13.7367 -22.5555 1
      vertex 15.334 -27.9866 1
    endloop
  endfacet
  facet normal 0 0 1
    outer loop
      vertex 29.2477 -12.5103 1
      vertex 11.5004 -18.3312 1
      vertex 13.7367 -22.5555 1
    endloop
  endfacet
  facet normal 0 0 1
    outer loop
      vertex 5.11093 -13.5035 1
      vertex 13.9815 -0.00175476 1
      vertex 9.96109 1.13551 1
    endloop
  endfacet
  facet normal 0 0 1
    outer loop
      vertex 21.0598 -3.64107 1
      vertex 8.62512 -15.3139 1
      vertex 11.5004 -18.3312 1
    endloop
  endfacet
  facet normal 0 0 1
    outer loop
      vertex 5.11093 -13.5035 1
      vertex 9.96109 1.13551 1
      vertex 5.61986 1.81789 1
    endloop
  endfacet
  facet normal 0 0 1
    outer loop
      vertex 13.9815 -0.00175476 1
      vertex 5.11093 -13.5035 1
      vertex 8.62512 -15.3139 1
    endloop
  endfacet
  facet normal 0 0 1
    outer loop
      vertex 0.957809 -12.9 1
      vertex 5.61986 1.81789 1
      vertex 0.957809 2.04535 1
    endloop
  endfacet
  facet normal 0 0 1
    outer loop
      vertex 5.61986 1.81789 1
      vertex 0.957809 -12.9 1
      vertex 5.11093 -13.5035 1
    endloop
  endfacet
  facet normal -0 0 1
    outer loop
      vertex -3.70491 1.81789 1
      vertex 0.957809 -12.9 1
      vertex 0.957809 2.04535 1
    endloop
  endfacet
  facet normal 0 0 1
    outer loop
      vertex 0.957809 -12.9 1
      vertex -3.70491 1.81789 1
      vertex -3.21271 -13.5035 1
    endloop
  endfacet
  facet normal -0 0 1
    outer loop
      vertex -8.04819 1.13551 1
      vertex -3.21271 -13.5035 1
      vertex -3.70491 1.81789 1
    endloop
  endfacet
  facet normal -0 0 1
    outer loop
      vertex -12.072 -0.00175476 1
      vertex -3.21271 -13.5035 1
      vertex -8.04819 1.13551 1
    endloop
  endfacet
  facet normal 0 0 1
    outer loop
      vertex -3.21271 -13.5035 1
      vertex -12.072 -0.00175476 1
      vertex -6.74161 -15.3139 1
    endloop
  endfacet
  facet normal -0 0 1
    outer loop
      vertex -15.7763 -1.59396 1
      vertex -6.74161 -15.3139 1
      vertex -12.072 -0.00175476 1
    endloop
  endfacet
  facet normal -0 0 1
    outer loop
      vertex -19.1611 -3.64107 1
      vertex -6.74161 -15.3139 1
      vertex -15.7763 -1.59396 1
    endloop
  endfacet
  facet normal 0 0 1
    outer loop
      vertex -6.74161 -15.3139 1
      vertex -19.1611 -3.64107 1
      vertex -9.62889 -18.3312 1
    endloop
  endfacet
  facet normal -0 0 1
    outer loop
      vertex -22.2265 -6.1431 1
      vertex -9.62889 -18.3312 1
      vertex -19.1611 -3.64107 1
    endloop
  endfacet
  facet normal -0 0 1
    outer loop
      vertex -27.3736 -12.5103 1
      vertex -9.62889 -18.3312 1
      vertex -24.9724 -9.10004 1
    endloop
  endfacet
  facet normal -0 0 1
    outer loop
      vertex -24.9724 -9.10004 1
      vertex -9.62889 -18.3312 1
      vertex -22.2265 -6.1431 1
    endloop
  endfacet
  facet normal -0 0 1
    outer loop
      vertex 13.7244 -62.5933 1
      vertex 31.2724 -68.6993 1
      vertex 14.6067 -59.9723 1
    endloop
  endfacet
  facet normal 0 0 1
    outer loop
      vertex 31.2724 -68.6993 1
      vertex 13.7244 -62.5933 1
      vertex 29.2477 -72.6199 1
    endloop
  endfacet
  facet normal -0 0 1
    outer loop
      vertex 12.6817 -64.9211 1
      vertex 29.2477 -72.6199 1
      vertex 13.7244 -62.5933 1
    endloop
  endfacet
  facet normal 0 0 1
    outer loop
      vertex 29.2477 -72.6199 1
      vertex 12.6817 -64.9211 1
      vertex 26.8548 -76.0988 1
    endloop
  endfacet
  facet normal -0 0 1
    outer loop
      vertex 11.4802 -66.9465 1
      vertex 26.8548 -76.0988 1
      vertex 12.6817 -64.9211 1
    endloop
  endfacet
  facet normal 0 0 1
    outer loop
      vertex 26.8548 -76.0988 1
      vertex 11.4802 -66.9465 1
      vertex 24.1177 -79.1238 1
    endloop
  endfacet
  facet normal -0 0 1
    outer loop
      vertex 10.1209 -68.6603 1
      vertex 24.1177 -79.1238 1
      vertex 11.4802 -66.9465 1
    endloop
  endfacet
  facet normal 0 0 1
    outer loop
      vertex 24.1177 -79.1238 1
      vertex 10.1209 -68.6603 1
      vertex 21.0598 -81.6834 1
    endloop
  endfacet
  facet normal -0 0 1
    outer loop
      vertex 8.60387 -70.0625 1
      vertex 21.0598 -81.6834 1
      vertex 10.1209 -68.6603 1
    endloop
  endfacet
  facet normal 0 0 1
    outer loop
      vertex 21.0598 -81.6834 1
      vertex 8.60387 -70.0625 1
      vertex 17.6811 -83.7776 1
    endloop
  endfacet
  facet normal 0 0 1
    outer loop
      vertex 17.6811 -83.7776 1
      vertex 8.60387 -70.0625 1
      vertex 13.9815 -85.4065 1
    endloop
  endfacet
  facet normal -0 0 1
    outer loop
      vertex 6.92902 -71.1531 1
      vertex 13.9815 -85.4065 1
      vertex 8.60387 -70.0625 1
    endloop
  endfacet
  facet normal 0 0 1
    outer loop
      vertex 13.9815 -85.4065 1
      vertex 6.92902 -71.1531 1
      vertex 9.96109 -86.5699 1
    endloop
  endfacet
  facet normal -0 0 1
    outer loop
      vertex 5.09639 -71.9321 1
      vertex 9.96109 -86.5699 1
      vertex 6.92902 -71.1531 1
    endloop
  endfacet
  facet normal 0 0 1
    outer loop
      vertex 9.96109 -86.5699 1
      vertex 5.09639 -71.9321 1
      vertex 5.61986 -87.268 1
    endloop
  endfacet
  facet normal -0 0 1
    outer loop
      vertex 3.10599 -72.3995 1
      vertex 5.61986 -87.268 1
      vertex 5.09639 -71.9321 1
    endloop
  endfacet
  facet normal 0 0 1
    outer loop
      vertex 0.957809 -87.5007 1
      vertex 3.10599 -72.3995 1
      vertex 0.957809 -72.5553 1
    endloop
  endfacet
  facet normal 0 0 1
    outer loop
      vertex 3.10599 -72.3995 1
      vertex 0.957809 -87.5007 1
      vertex 5.61986 -87.268 1
    endloop
  endfacet
  facet normal 0 0 1
    outer loop
      vertex -1.1913 -72.3995 1
      vertex 0.957809 -87.5007 1
      vertex 0.957809 -72.5553 1
    endloop
  endfacet
  facet normal 0 0 1
    outer loop
      vertex -3.70491 -87.268 1
      vertex -1.1913 -72.3995 1
      vertex -3.18394 -71.9321 1
    endloop
  endfacet
  facet normal 0 0 1
    outer loop
      vertex -1.1913 -72.3995 1
      vertex -3.70491 -87.268 1
      vertex 0.957809 -87.5007 1
    endloop
  endfacet
  facet normal 0 0 1
    outer loop
      vertex -8.04819 -86.5699 1
      vertex -3.18394 -71.9321 1
      vertex -5.02014 -71.1531 1
    endloop
  endfacet
  facet normal 0 0 1
    outer loop
      vertex -12.072 -85.4065 1
      vertex -5.02014 -71.1531 1
      vertex -6.69987 -70.0625 1
    endloop
  endfacet
  facet normal 0 0 1
    outer loop
      vertex -3.18394 -71.9321 1
      vertex -8.04819 -86.5699 1
      vertex -3.70491 -87.268 1
    endloop
  endfacet
  facet normal 0 0 1
    outer loop
      vertex -19.1611 -81.6834 1
      vertex -6.69987 -70.0625 1
      vertex -8.22316 -68.6603 1
    endloop
  endfacet
  facet normal 0 0 1
    outer loop
      vertex -22.2265 -79.1238 1
      vertex -8.22316 -68.6603 1
      vertex -9.58997 -66.9465 1
    endloop
  endfacet
  facet normal 0 0 1
    outer loop
      vertex -24.9724 -76.0988 1
      vertex -9.58997 -66.9465 1
      vertex -10.8003 -64.9211 1
    endloop
  endfacet
  facet normal 0 0 1
    outer loop
      vertex -27.3736 -72.6199 1
      vertex -10.8003 -64.9211 1
      vertex -11.8513 -62.5933 1
    endloop
  endfacet
  facet normal 0 0 1
    outer loop
      vertex -5.02014 -71.1531 1
      vertex -12.072 -85.4065 1
      vertex -8.04819 -86.5699 1
    endloop
  endfacet
  facet normal 0 0 1
    outer loop
      vertex -29.4054 -68.6993 1
      vertex -11.8513 -62.5933 1
      vertex -12.7407 -59.9723 1
    endloop
  endfacet
  facet normal 0 0 1
    outer loop
      vertex -31.0678 -64.337 1
      vertex -12.7407 -59.9723 1
      vertex -13.4683 -57.0582 1
    endloop
  endfacet
  facet normal 0 0 1
    outer loop
      vertex -32.3607 -59.5328 1
      vertex -13.4683 -57.0582 1
      vertex -14.0342 -53.8508 1
    endloop
  endfacet
  facet normal 0 0 1
    outer loop
      vertex -33.2843 -54.2869 1
      vertex -14.0342 -53.8508 1
      vertex -14.4384 -50.3503 1
    endloop
  endfacet
  facet normal 0 0 1
    outer loop
      vertex -9.62889 -18.3312 1
      vertex -27.3736 -12.5103 1
      vertex -11.8745 -22.5555 1
    endloop
  endfacet
  facet normal 0 0 1
    outer loop
      vertex -6.69987 -70.0625 1
      vertex -15.7763 -83.7776 1
      vertex -12.072 -85.4065 1
    endloop
  endfacet
  facet normal -0 0 1
    outer loop
      vertex -33.8384 -48.5992 1
      vertex -14.4384 -50.3503 1
      vertex -14.681 -46.5566 1
    endloop
  endfacet
  facet normal -0 0 1
    outer loop
      vertex -29.4054 -16.3728 1
      vertex -11.8745 -22.5555 1
      vertex -27.3736 -12.5103 1
    endloop
  endfacet
  facet normal -0 0 1
    outer loop
      vertex -31.0678 -20.6877 1
      vertex -11.8745 -22.5555 1
      vertex -29.4054 -16.3728 1
    endloop
  endfacet
  facet normal 0 -0 1
    outer loop
      vertex -33.8384 -48.5992 1
      vertex -14.681 -46.5566 1
      vertex -34.0231 -42.4697 1
    endloop
  endfacet
  facet normal 0 0 1
    outer loop
      vertex -11.8745 -22.5555 1
      vertex -31.0678 -20.6877 1
      vertex -13.4786 -27.9866 1
    endloop
  endfacet
  facet normal 0 0 1
    outer loop
      vertex -14.4384 -50.3503 1
      vertex -33.8384 -48.5992 1
      vertex -33.2843 -54.2869 1
    endloop
  endfacet
  facet normal -0 0 1
    outer loop
      vertex -32.3607 -25.4548 1
      vertex -13.4786 -27.9866 1
      vertex -31.0678 -20.6877 1
    endloop
  endfacet
  facet normal 0 0 1
    outer loop
      vertex -14.0342 -53.8508 1
      vertex -33.2843 -54.2869 1
      vertex -32.3607 -59.5328 1
    endloop
  endfacet
  facet normal 0 0 1
    outer loop
      vertex -33.2843 -30.6741 1
      vertex -13.4786 -27.9866 1
      vertex -32.3607 -25.4548 1
    endloop
  endfacet
  facet normal 0 0 1
    outer loop
      vertex -13.4683 -57.0582 1
      vertex -32.3607 -59.5328 1
      vertex -31.0678 -64.337 1
    endloop
  endfacet
  facet normal 0 0 1
    outer loop
      vertex -13.4786 -27.9866 1
      vertex -33.2843 -30.6741 1
      vertex -14.441 -34.6247 1
    endloop
  endfacet
  facet normal 0 0 1
    outer loop
      vertex -12.7407 -59.9723 1
      vertex -31.0678 -64.337 1
      vertex -29.4054 -68.6993 1
    endloop
  endfacet
  facet normal 0 0 1
    outer loop
      vertex -33.8384 -36.3458 1
      vertex -14.441 -34.6247 1
      vertex -33.2843 -30.6741 1
    endloop
  endfacet
  facet normal 0 0 1
    outer loop
      vertex -11.8513 -62.5933 1
      vertex -29.4054 -68.6993 1
      vertex -27.3736 -72.6199 1
    endloop
  endfacet
  facet normal 0 0 1
    outer loop
      vertex -14.441 -34.6247 1
      vertex -33.8384 -36.3458 1
      vertex -14.7618 -42.4697 1
    endloop
  endfacet
  facet normal 0 0 1
    outer loop
      vertex -14.7618 -42.4697 1
      vertex -34.0231 -42.4697 1
      vertex -14.681 -46.5566 1
    endloop
  endfacet
  facet normal 0 0 1
    outer loop
      vertex -34.0231 -42.4697 1
      vertex -14.7618 -42.4697 1
      vertex -33.8384 -36.3458 1
    endloop
  endfacet
  facet normal 0 0 1
    outer loop
      vertex -6.69987 -70.0625 1
      vertex -19.1611 -81.6834 1
      vertex -15.7763 -83.7776 1
    endloop
  endfacet
  facet normal 0 0 1
    outer loop
      vertex -8.22316 -68.6603 1
      vertex -22.2265 -79.1238 1
      vertex -19.1611 -81.6834 1
    endloop
  endfacet
  facet normal 0 0 1
    outer loop
      vertex -10.8003 -64.9211 1
      vertex -27.3736 -72.6199 1
      vertex -24.9724 -76.0988 1
    endloop
  endfacet
  facet normal 0 0 1
    outer loop
      vertex -9.58997 -66.9465 1
      vertex -24.9724 -76.0988 1
      vertex -22.2265 -79.1238 1
    endloop
  endfacet
  facet normal 0.158767 -0.987316 0
    outer loop
      vertex 5.61986 -87.268 0
      vertex 9.96109 -86.5699 1
      vertex 5.61986 -87.268 1
    endloop
  endfacet
  facet normal 0.158767 -0.987316 0
    outer loop
      vertex 9.96109 -86.5699 1
      vertex 5.61986 -87.268 0
      vertex 9.96109 -86.5699 0
    endloop
  endfacet
  facet normal 0.277969 -0.96059 0
    outer loop
      vertex 9.96109 -86.5699 0
      vertex 13.9815 -85.4065 1
      vertex 9.96109 -86.5699 1
    endloop
  endfacet
  facet normal 0.277969 -0.96059 0
    outer loop
      vertex 13.9815 -85.4065 1
      vertex 9.96109 -86.5699 0
      vertex 13.9815 -85.4065 0
    endloop
  endfacet
  facet normal 0.402962 -0.915217 0
    outer loop
      vertex 13.9815 -85.4065 0
      vertex 17.6811 -83.7776 1
      vertex 13.9815 -85.4065 1
    endloop
  endfacet
  facet normal 0.402962 -0.915217 0
    outer loop
      vertex 17.6811 -83.7776 1
      vertex 13.9815 -85.4065 0
      vertex 17.6811 -83.7776 0
    endloop
  endfacet
  facet normal 0.526832 -0.84997 0
    outer loop
      vertex 17.6811 -83.7776 0
      vertex 21.0598 -81.6834 1
      vertex 17.6811 -83.7776 1
    endloop
  endfacet
  facet normal 0.526832 -0.84997 0
    outer loop
      vertex 21.0598 -81.6834 1
      vertex 17.6811 -83.7776 0
      vertex 21.0598 -81.6834 0
    endloop
  endfacet
  facet normal 0.641863 -0.76682 0
    outer loop
      vertex 21.0598 -81.6834 0
      vertex 24.1177 -79.1238 1
      vertex 21.0598 -81.6834 1
    endloop
  endfacet
  facet normal 0.641863 -0.76682 0
    outer loop
      vertex 24.1177 -79.1238 1
      vertex 21.0598 -81.6834 0
      vertex 24.1177 -79.1238 0
    endloop
  endfacet
  facet normal 0.741512 -0.67094 0
    outer loop
      vertex 24.1177 -79.1238 1
      vertex 26.8548 -76.0988 0
      vertex 26.8548 -76.0988 1
    endloop
  endfacet
  facet normal 0.741512 -0.67094 0
    outer loop
      vertex 26.8548 -76.0988 0
      vertex 24.1177 -79.1238 1
      vertex 24.1177 -79.1238 0
    endloop
  endfacet
  facet normal 0.823914 -0.566715 0
    outer loop
      vertex 26.8548 -76.0988 1
      vertex 29.2477 -72.6199 0
      vertex 29.2477 -72.6199 1
    endloop
  endfacet
  facet normal 0.823914 -0.566715 0
    outer loop
      vertex 29.2477 -72.6199 0
      vertex 26.8548 -76.0988 1
      vertex 26.8548 -76.0988 0
    endloop
  endfacet
  facet normal 0.888513 -0.458851 0
    outer loop
      vertex 29.2477 -72.6199 1
      vertex 31.2724 -68.6993 0
      vertex 31.2724 -68.6993 1
    endloop
  endfacet
  facet normal 0.888513 -0.458851 0
    outer loop
      vertex 31.2724 -68.6993 0
      vertex 29.2477 -72.6199 1
      vertex 29.2477 -72.6199 0
    endloop
  endfacet
  facet normal 0.93486 -0.355017 0
    outer loop
      vertex 31.2724 -68.6993 1
      vertex 32.929 -64.337 0
      vertex 32.929 -64.337 1
    endloop
  endfacet
  facet normal 0.93486 -0.355017 0
    outer loop
      vertex 32.929 -64.337 0
      vertex 31.2724 -68.6993 1
      vertex 31.2724 -68.6993 0
    endloop
  endfacet
  facet normal 0.965865 -0.259048 0
    outer loop
      vertex 32.929 -64.337 1
      vertex 34.2175 -59.5328 0
      vertex 34.2175 -59.5328 1
    endloop
  endfacet
  facet normal 0.965865 -0.259048 0
    outer loop
      vertex 34.2175 -59.5328 0
      vertex 32.929 -64.337 1
      vertex 32.929 -64.337 0
    endloop
  endfacet
  facet normal 0.984958 -0.172793 0
    outer loop
      vertex 34.2175 -59.5328 1
      vertex 35.1378 -54.2869 0
      vertex 35.1378 -54.2869 1
    endloop
  endfacet
  facet normal 0.984958 -0.172793 0
    outer loop
      vertex 35.1378 -54.2869 0
      vertex 34.2175 -59.5328 1
      vertex 34.2175 -59.5328 0
    endloop
  endfacet
  facet normal 0.99532 -0.0966323 0
    outer loop
      vertex 35.1378 -54.2869 1
      vertex 35.69 -48.5992 0
      vertex 35.69 -48.5992 1
    endloop
  endfacet
  facet normal 0.99532 -0.0966323 0
    outer loop
      vertex 35.69 -48.5992 0
      vertex 35.1378 -54.2869 1
      vertex 35.1378 -54.2869 0
    endloop
  endfacet
  facet normal 0.999549 -0.0300215 0
    outer loop
      vertex 35.69 -48.5992 1
      vertex 35.8741 -42.4697 0
      vertex 35.8741 -42.4697 1
    endloop
  endfacet
  facet normal 0.999549 -0.0300215 0
    outer loop
      vertex 35.8741 -42.4697 0
      vertex 35.69 -48.5992 1
      vertex 35.69 -48.5992 0
    endloop
  endfacet
  facet normal 0.999548 0.030049 0
    outer loop
      vertex 35.8741 -42.4697 1
      vertex 35.69 -36.3458 0
      vertex 35.69 -36.3458 1
    endloop
  endfacet
  facet normal 0.999548 0.030049 0
    outer loop
      vertex 35.69 -36.3458 0
      vertex 35.8741 -42.4697 1
      vertex 35.8741 -42.4697 0
    endloop
  endfacet
  facet normal 0.995294 0.0969024 0
    outer loop
      vertex 35.69 -36.3458 1
      vertex 35.1378 -30.6741 0
      vertex 35.1378 -30.6741 1
    endloop
  endfacet
  facet normal 0.995294 0.0969024 0
    outer loop
      vertex 35.1378 -30.6741 0
      vertex 35.69 -36.3458 1
      vertex 35.69 -36.3458 0
    endloop
  endfacet
  facet normal 0.984808 0.173648 0
    outer loop
      vertex 35.1378 -30.6741 1
      vertex 34.2175 -25.4548 0
      vertex 34.2175 -25.4548 1
    endloop
  endfacet
  facet normal 0.984808 0.173648 0
    outer loop
      vertex 34.2175 -25.4548 0
      vertex 35.1378 -30.6741 1
      vertex 35.1378 -30.6741 0
    endloop
  endfacet
  facet normal 0.965359 0.260927 0
    outer loop
      vertex 34.2175 -25.4548 1
      vertex 32.929 -20.6877 0
      vertex 32.929 -20.6877 1
    endloop
  endfacet
  facet normal 0.965359 0.260927 0
    outer loop
      vertex 32.929 -20.6877 0
      vertex 34.2175 -25.4548 1
      vertex 34.2175 -25.4548 0
    endloop
  endfacet
  facet normal 0.933561 0.358418 0
    outer loop
      vertex 32.929 -20.6877 1
      vertex 31.2724 -16.3728 0
      vertex 31.2724 -16.3728 1
    endloop
  endfacet
  facet normal 0.933561 0.358418 0
    outer loop
      vertex 31.2724 -16.3728 0
      vertex 32.929 -20.6877 1
      vertex 32.929 -20.6877 0
    endloop
  endfacet
  facet normal 0.885691 0.464274 0
    outer loop
      vertex 31.2724 -16.3728 1
      vertex 29.2477 -12.5103 0
      vertex 29.2477 -12.5103 1
    endloop
  endfacet
  facet normal 0.885691 0.464274 0
    outer loop
      vertex 29.2477 -12.5103 0
      vertex 31.2724 -16.3728 1
      vertex 31.2724 -16.3728 0
    endloop
  endfacet
  facet normal 0.818587 0.574383 0
    outer loop
      vertex 29.2477 -12.5103 1
      vertex 26.8548 -9.10004 0
      vertex 26.8548 -9.10004 1
    endloop
  endfacet
  facet normal 0.818587 0.574383 0
    outer loop
      vertex 26.8548 -9.10004 0
      vertex 29.2477 -12.5103 1
      vertex 29.2477 -12.5103 0
    endloop
  endfacet
  facet normal 0.733861 0.6793 0
    outer loop
      vertex 26.8548 -9.10004 1
      vertex 24.1177 -6.1431 0
      vertex 24.1177 -6.1431 1
    endloop
  endfacet
  facet normal 0.733861 0.6793 0
    outer loop
      vertex 24.1177 -6.1431 0
      vertex 26.8548 -9.10004 1
      vertex 26.8548 -9.10004 0
    endloop
  endfacet
  facet normal 0.633255 0.773943 -0
    outer loop
      vertex 24.1177 -6.1431 0
      vertex 21.0598 -3.64107 1
      vertex 24.1177 -6.1431 1
    endloop
  endfacet
  facet normal 0.633255 0.773943 0
    outer loop
      vertex 21.0598 -3.64107 1
      vertex 24.1177 -6.1431 0
      vertex 21.0598 -3.64107 0
    endloop
  endfacet
  facet normal 0.518193 0.855264 -0
    outer loop
      vertex 21.0598 -3.64107 0
      vertex 17.6811 -1.59396 1
      vertex 21.0598 -3.64107 1
    endloop
  endfacet
  facet normal 0.518193 0.855264 0
    outer loop
      vertex 17.6811 -1.59396 1
      vertex 21.0598 -3.64107 0
      vertex 17.6811 -1.59396 0
    endloop
  endfacet
  facet normal 0.395316 0.918545 -0
    outer loop
      vertex 17.6811 -1.59396 0
      vertex 13.9815 -0.00175476 1
      vertex 17.6811 -1.59396 1
    endloop
  endfacet
  facet normal 0.395316 0.918545 0
    outer loop
      vertex 13.9815 -0.00175476 1
      vertex 17.6811 -1.59396 0
      vertex 13.9815 -0.00175476 0
    endloop
  endfacet
  facet normal 0.272192 0.962243 -0
    outer loop
      vertex 13.9815 -0.00175476 0
      vertex 9.96109 1.13551 1
      vertex 13.9815 -0.00175476 1
    endloop
  endfacet
  facet normal 0.272192 0.962243 0
    outer loop
      vertex 9.96109 1.13551 1
      vertex 13.9815 -0.00175476 0
      vertex 9.96109 1.13551 0
    endloop
  endfacet
  facet normal 0.155279 0.987871 -0
    outer loop
      vertex 9.96109 1.13551 0
      vertex 5.61986 1.81789 1
      vertex 9.96109 1.13551 1
    endloop
  endfacet
  facet normal 0.155279 0.987871 0
    outer loop
      vertex 5.61986 1.81789 1
      vertex 9.96109 1.13551 0
      vertex 5.61986 1.81789 0
    endloop
  endfacet
  facet normal 0.0487317 0.998812 -0
    outer loop
      vertex 5.61986 1.81789 0
      vertex 0.957809 2.04535 1
      vertex 5.61986 1.81789 1
    endloop
  endfacet
  facet normal 0.0487317 0.998812 0
    outer loop
      vertex 0.957809 2.04535 1
      vertex 5.61986 1.81789 0
      vertex 0.957809 2.04535 0
    endloop
  endfacet
  facet normal -0.0487248 0.998812 0
    outer loop
      vertex 0.957809 2.04535 0
      vertex -3.70491 1.81789 1
      vertex 0.957809 2.04535 1
    endloop
  endfacet
  facet normal -0.0487248 0.998812 0
    outer loop
      vertex -3.70491 1.81789 1
      vertex 0.957809 2.04535 0
      vertex -3.70491 1.81789 0
    endloop
  endfacet
  facet normal -0.155208 0.987882 0
    outer loop
      vertex -3.70491 1.81789 0
      vertex -8.04819 1.13551 1
      vertex -3.70491 1.81789 1
    endloop
  endfacet
  facet normal -0.155208 0.987882 0
    outer loop
      vertex -8.04819 1.13551 1
      vertex -3.70491 1.81789 0
      vertex -8.04819 1.13551 0
    endloop
  endfacet
  facet normal -0.271979 0.962303 0
    outer loop
      vertex -8.04819 1.13551 0
      vertex -12.072 -0.00175476 1
      vertex -8.04819 1.13551 1
    endloop
  endfacet
  facet normal -0.271979 0.962303 0
    outer loop
      vertex -12.072 -0.00175476 1
      vertex -8.04819 1.13551 0
      vertex -12.072 -0.00175476 0
    endloop
  endfacet
  facet normal -0.394893 0.918727 0
    outer loop
      vertex -12.072 -0.00175476 0
      vertex -15.7763 -1.59396 1
      vertex -12.072 -0.00175476 1
    endloop
  endfacet
  facet normal -0.394893 0.918727 0
    outer loop
      vertex -15.7763 -1.59396 1
      vertex -12.072 -0.00175476 0
      vertex -15.7763 -1.59396 0
    endloop
  endfacet
  facet normal -0.517509 0.855677 0
    outer loop
      vertex -15.7763 -1.59396 0
      vertex -19.1611 -3.64107 1
      vertex -15.7763 -1.59396 1
    endloop
  endfacet
  facet normal -0.517509 0.855677 0
    outer loop
      vertex -19.1611 -3.64107 1
      vertex -15.7763 -1.59396 0
      vertex -19.1611 -3.64107 0
    endloop
  endfacet
  facet normal -0.632325 0.774703 0
    outer loop
      vertex -19.1611 -3.64107 0
      vertex -22.2265 -6.1431 1
      vertex -19.1611 -3.64107 1
    endloop
  endfacet
  facet normal -0.632325 0.774703 0
    outer loop
      vertex -22.2265 -6.1431 1
      vertex -19.1611 -3.64107 0
      vertex -22.2265 -6.1431 0
    endloop
  endfacet
  facet normal -0.732772 0.680474 0
    outer loop
      vertex -24.9724 -9.10004 0
      vertex -22.2265 -6.1431 1
      vertex -22.2265 -6.1431 0
    endloop
  endfacet
  facet normal -0.732772 0.680474 0
    outer loop
      vertex -22.2265 -6.1431 1
      vertex -24.9724 -9.10004 0
      vertex -24.9724 -9.10004 1
    endloop
  endfacet
  facet normal -0.81765 0.575716 0
    outer loop
      vertex -27.3736 -12.5103 0
      vertex -24.9724 -9.10004 1
      vertex -24.9724 -9.10004 0
    endloop
  endfacet
  facet normal -0.81765 0.575716 0
    outer loop
      vertex -24.9724 -9.10004 1
      vertex -27.3736 -12.5103 0
      vertex -27.3736 -12.5103 1
    endloop
  endfacet
  facet normal -0.885022 0.46555 0
    outer loop
      vertex -29.4054 -16.3728 0
      vertex -27.3736 -12.5103 1
      vertex -27.3736 -12.5103 0
    endloop
  endfacet
  facet normal -0.885022 0.46555 0
    outer loop
      vertex -27.3736 -12.5103 1
      vertex -29.4054 -16.3728 0
      vertex -29.4054 -16.3728 1
    endloop
  endfacet
  facet normal -0.933141 0.359511 0
    outer loop
      vertex -31.0678 -20.6877 0
      vertex -29.4054 -16.3728 1
      vertex -29.4054 -16.3728 0
    endloop
  endfacet
  facet normal -0.933141 0.359511 0
    outer loop
      vertex -29.4054 -16.3728 1
      vertex -31.0678 -20.6877 0
      vertex -31.0678 -20.6877 1
    endloop
  endfacet
  facet normal -0.965134 0.261757 0
    outer loop
      vertex -32.3607 -25.4548 0
      vertex -31.0678 -20.6877 1
      vertex -31.0678 -20.6877 0
    endloop
  endfacet
  facet normal -0.965134 0.261757 0
    outer loop
      vertex -31.0678 -20.6877 1
      vertex -32.3607 -25.4548 0
      vertex -32.3607 -25.4548 1
    endloop
  endfacet
  facet normal -0.984701 0.174251 0
    outer loop
      vertex -33.2843 -30.6741 0
      vertex -32.3607 -25.4548 1
      vertex -32.3607 -25.4548 0
    endloop
  endfacet
  facet normal -0.984701 0.174251 0
    outer loop
      vertex -32.3607 -25.4548 1
      vertex -33.2843 -30.6741 0
      vertex -33.2843 -30.6741 1
    endloop
  endfacet
  facet normal -0.995262 0.0972327 0
    outer loop
      vertex -33.8384 -36.3458 0
      vertex -33.2843 -30.6741 1
      vertex -33.2843 -30.6741 0
    endloop
  endfacet
  facet normal -0.995262 0.0972327 0
    outer loop
      vertex -33.2843 -30.6741 1
      vertex -33.8384 -36.3458 0
      vertex -33.8384 -36.3458 1
    endloop
  endfacet
  facet normal -0.999545 0.0301468 0
    outer loop
      vertex -34.0231 -42.4697 0
      vertex -33.8384 -36.3458 1
      vertex -33.8384 -36.3458 0
    endloop
  endfacet
  facet normal -0.999545 0.0301468 0
    outer loop
      vertex -33.8384 -36.3458 1
      vertex -34.0231 -42.4697 0
      vertex -34.0231 -42.4697 1
    endloop
  endfacet
  facet normal -0.999546 -0.0301193 0
    outer loop
      vertex -33.8384 -48.5992 0
      vertex -34.0231 -42.4697 1
      vertex -34.0231 -42.4697 0
    endloop
  endfacet
  facet normal -0.999546 -0.0301193 0
    outer loop
      vertex -34.0231 -42.4697 1
      vertex -33.8384 -48.5992 0
      vertex -33.8384 -48.5992 1
    endloop
  endfacet
  facet normal -0.995288 -0.0969617 0
    outer loop
      vertex -33.2843 -54.2869 0
      vertex -33.8384 -48.5992 1
      vertex -33.8384 -48.5992 0
    endloop
  endfacet
  facet normal -0.995288 -0.0969617 0
    outer loop
      vertex -33.8384 -48.5992 1
      vertex -33.2843 -54.2869 0
      vertex -33.2843 -54.2869 1
    endloop
  endfacet
  facet normal -0.984852 -0.173394 0
    outer loop
      vertex -32.3607 -59.5328 0
      vertex -33.2843 -54.2869 1
      vertex -33.2843 -54.2869 0
    endloop
  endfacet
  facet normal -0.984852 -0.173394 0
    outer loop
      vertex -33.2843 -54.2869 1
      vertex -32.3607 -59.5328 0
      vertex -32.3607 -59.5328 1
    endloop
  endfacet
  facet normal -0.965643 -0.259873 0
    outer loop
      vertex -31.0678 -64.337 0
      vertex -32.3607 -59.5328 1
      vertex -32.3607 -59.5328 0
    endloop
  endfacet
  facet normal -0.965643 -0.259873 0
    outer loop
      vertex -32.3607 -59.5328 1
      vertex -31.0678 -64.337 0
      vertex -31.0678 -64.337 1
    endloop
  endfacet
  facet normal -0.934447 -0.356102 0
    outer loop
      vertex -29.4054 -68.6993 0
      vertex -31.0678 -64.337 1
      vertex -31.0678 -64.337 0
    endloop
  endfacet
  facet normal -0.934447 -0.356102 0
    outer loop
      vertex -31.0678 -64.337 1
      vertex -29.4054 -68.6993 0
      vertex -29.4054 -68.6993 1
    endloop
  endfacet
  facet normal -0.887857 -0.46012 0
    outer loop
      vertex -27.3736 -72.6199 0
      vertex -29.4054 -68.6993 1
      vertex -29.4054 -68.6993 0
    endloop
  endfacet
  facet normal -0.887857 -0.46012 0
    outer loop
      vertex -29.4054 -68.6993 1
      vertex -27.3736 -72.6199 0
      vertex -27.3736 -72.6199 1
    endloop
  endfacet
  facet normal -0.822996 -0.568047 0
    outer loop
      vertex -24.9724 -76.0988 0
      vertex -27.3736 -72.6199 1
      vertex -27.3736 -72.6199 0
    endloop
  endfacet
  facet normal -0.822996 -0.568047 0
    outer loop
      vertex -27.3736 -72.6199 1
      vertex -24.9724 -76.0988 0
      vertex -24.9724 -76.0988 1
    endloop
  endfacet
  facet normal -0.740439 -0.672123 0
    outer loop
      vertex -22.2265 -79.1238 0
      vertex -24.9724 -76.0988 1
      vertex -24.9724 -76.0988 0
    endloop
  endfacet
  facet normal -0.740439 -0.672123 0
    outer loop
      vertex -24.9724 -76.0988 1
      vertex -22.2265 -79.1238 0
      vertex -22.2265 -79.1238 1
    endloop
  endfacet
  facet normal -0.640938 -0.767593 0
    outer loop
      vertex -22.2265 -79.1238 0
      vertex -19.1611 -81.6834 1
      vertex -22.2265 -79.1238 1
    endloop
  endfacet
  facet normal -0.640938 -0.767593 -0
    outer loop
      vertex -19.1611 -81.6834 1
      vertex -22.2265 -79.1238 0
      vertex -19.1611 -81.6834 0
    endloop
  endfacet
  facet normal -0.526145 -0.850395 0
    outer loop
      vertex -19.1611 -81.6834 0
      vertex -15.7763 -83.7776 1
      vertex -19.1611 -81.6834 1
    endloop
  endfacet
  facet normal -0.526145 -0.850395 -0
    outer loop
      vertex -15.7763 -83.7776 1
      vertex -19.1611 -81.6834 0
      vertex -15.7763 -83.7776 0
    endloop
  endfacet
  facet normal -0.402533 -0.915405 0
    outer loop
      vertex -15.7763 -83.7776 0
      vertex -12.072 -85.4065 1
      vertex -15.7763 -83.7776 1
    endloop
  endfacet
  facet normal -0.402533 -0.915405 -0
    outer loop
      vertex -12.072 -85.4065 1
      vertex -15.7763 -83.7776 0
      vertex -12.072 -85.4065 0
    endloop
  endfacet
  facet normal -0.277753 -0.960653 0
    outer loop
      vertex -12.072 -85.4065 0
      vertex -8.04819 -86.5699 1
      vertex -12.072 -85.4065 1
    endloop
  endfacet
  facet normal -0.277753 -0.960653 -0
    outer loop
      vertex -8.04819 -86.5699 1
      vertex -12.072 -85.4065 0
      vertex -8.04819 -86.5699 0
    endloop
  endfacet
  facet normal -0.158694 -0.987328 0
    outer loop
      vertex -8.04819 -86.5699 0
      vertex -3.70491 -87.268 1
      vertex -8.04819 -86.5699 1
    endloop
  endfacet
  facet normal -0.158694 -0.987328 -0
    outer loop
      vertex -3.70491 -87.268 1
      vertex -8.04819 -86.5699 0
      vertex -3.70491 -87.268 0
    endloop
  endfacet
  facet normal -0.0498445 -0.998757 0
    outer loop
      vertex -3.70491 -87.268 0
      vertex 0.957809 -87.5007 1
      vertex -3.70491 -87.268 1
    endloop
  endfacet
  facet normal -0.0498445 -0.998757 -0
    outer loop
      vertex 0.957809 -87.5007 1
      vertex -3.70491 -87.268 0
      vertex 0.957809 -87.5007 0
    endloop
  endfacet
  facet normal 0.0498516 -0.998757 0
    outer loop
      vertex 0.957809 -87.5007 0
      vertex 5.61986 -87.268 1
      vertex 0.957809 -87.5007 1
    endloop
  endfacet
  facet normal 0.0498516 -0.998757 0
    outer loop
      vertex 5.61986 -87.268 1
      vertex 0.957809 -87.5007 0
      vertex 5.61986 -87.268 0
    endloop
  endfacet
  facet normal 0.228365 0.973576 -0
    outer loop
      vertex -1.1913 -72.3995 0
      vertex -3.18394 -71.9321 1
      vertex -1.1913 -72.3995 1
    endloop
  endfacet
  facet normal 0.228365 0.973576 0
    outer loop
      vertex -3.18394 -71.9321 1
      vertex -1.1913 -72.3995 0
      vertex -3.18394 -71.9321 0
    endloop
  endfacet
  facet normal 0.390552 0.920581 -0
    outer loop
      vertex -3.18394 -71.9321 0
      vertex -5.02014 -71.1531 1
      vertex -3.18394 -71.9321 1
    endloop
  endfacet
  facet normal 0.390552 0.920581 0
    outer loop
      vertex -5.02014 -71.1531 1
      vertex -3.18394 -71.9321 0
      vertex -5.02014 -71.1531 0
    endloop
  endfacet
  facet normal 0.544558 0.838723 -0
    outer loop
      vertex -5.02014 -71.1531 0
      vertex -6.69987 -70.0625 1
      vertex -5.02014 -71.1531 1
    endloop
  endfacet
  facet normal 0.544558 0.838723 0
    outer loop
      vertex -6.69987 -70.0625 1
      vertex -5.02014 -71.1531 0
      vertex -6.69987 -70.0625 0
    endloop
  endfacet
  facet normal 0.677259 0.735745 -0
    outer loop
      vertex -6.69987 -70.0625 0
      vertex -8.22316 -68.6603 1
      vertex -6.69987 -70.0625 1
    endloop
  endfacet
  facet normal 0.677259 0.735745 0
    outer loop
      vertex -8.22316 -68.6603 1
      vertex -6.69987 -70.0625 0
      vertex -8.22316 -68.6603 0
    endloop
  endfacet
  facet normal 0.781809 0.623518 0
    outer loop
      vertex -8.22316 -68.6603 1
      vertex -9.58997 -66.9465 0
      vertex -9.58997 -66.9465 1
    endloop
  endfacet
  facet normal 0.781809 0.623518 0
    outer loop
      vertex -9.58997 -66.9465 0
      vertex -8.22316 -68.6603 1
      vertex -8.22316 -68.6603 0
    endloop
  endfacet
  facet normal 0.85841 0.512965 0
    outer loop
      vertex -9.58997 -66.9465 1
      vertex -10.8003 -64.9211 0
      vertex -10.8003 -64.9211 1
    endloop
  endfacet
  facet normal 0.85841 0.512965 0
    outer loop
      vertex -10.8003 -64.9211 0
      vertex -9.58997 -66.9465 1
      vertex -9.58997 -66.9465 0
    endloop
  endfacet
  facet normal 0.911409 0.411501 0
    outer loop
      vertex -10.8003 -64.9211 1
      vertex -11.8513 -62.5933 0
      vertex -11.8513 -62.5933 1
    endloop
  endfacet
  facet normal 0.911409 0.411501 0
    outer loop
      vertex -11.8513 -62.5933 0
      vertex -10.8003 -64.9211 1
      vertex -10.8003 -64.9211 0
    endloop
  endfacet
  facet normal 0.946964 0.321339 0
    outer loop
      vertex -11.8513 -62.5933 1
      vertex -12.7407 -59.9723 0
      vertex -12.7407 -59.9723 1
    endloop
  endfacet
  facet normal 0.946964 0.321339 0
    outer loop
      vertex -12.7407 -59.9723 0
      vertex -11.8513 -62.5933 1
      vertex -11.8513 -62.5933 0
    endloop
  endfacet
  facet normal 0.970215 0.242246 0
    outer loop
      vertex -12.7407 -59.9723 1
      vertex -13.4683 -57.0582 0
      vertex -13.4683 -57.0582 1
    endloop
  endfacet
  facet normal 0.970215 0.242246 0
    outer loop
      vertex -13.4683 -57.0582 0
      vertex -12.7407 -59.9723 1
      vertex -12.7407 -59.9723 0
    endloop
  endfacet
  facet normal 0.984789 0.173752 0
    outer loop
      vertex -13.4683 -57.0582 1
      vertex -14.0342 -53.8508 0
      vertex -14.0342 -53.8508 1
    endloop
  endfacet
  facet normal 0.984789 0.173752 0
    outer loop
      vertex -14.0342 -53.8508 0
      vertex -13.4683 -57.0582 1
      vertex -13.4683 -57.0582 0
    endloop
  endfacet
  facet normal 0.993399 0.114707 0
    outer loop
      vertex -14.0342 -53.8508 1
      vertex -14.4384 -50.3503 0
      vertex -14.4384 -50.3503 1
    endloop
  endfacet
  facet normal 0.993399 0.114707 0
    outer loop
      vertex -14.4384 -50.3503 0
      vertex -14.0342 -53.8508 1
      vertex -14.0342 -53.8508 0
    endloop
  endfacet
  facet normal 0.997962 0.0638178 0
    outer loop
      vertex -14.4384 -50.3503 1
      vertex -14.681 -46.5566 0
      vertex -14.681 -46.5566 1
    endloop
  endfacet
  facet normal 0.997962 0.0638178 0
    outer loop
      vertex -14.681 -46.5566 0
      vertex -14.4384 -50.3503 1
      vertex -14.4384 -50.3503 0
    endloop
  endfacet
  facet normal 0.999805 0.0197666 0
    outer loop
      vertex -14.681 -46.5566 1
      vertex -14.7618 -42.4697 0
      vertex -14.7618 -42.4697 1
    endloop
  endfacet
  facet normal 0.999805 0.0197666 0
    outer loop
      vertex -14.7618 -42.4697 0
      vertex -14.681 -46.5566 1
      vertex -14.681 -46.5566 0
    endloop
  endfacet
  facet normal 0.999165 -0.0408581 0
    outer loop
      vertex -14.7618 -42.4697 1
      vertex -14.441 -34.6247 0
      vertex -14.441 -34.6247 1
    endloop
  endfacet
  facet normal 0.999165 -0.0408581 0
    outer loop
      vertex -14.441 -34.6247 0
      vertex -14.7618 -42.4697 1
      vertex -14.7618 -42.4697 0
    endloop
  endfacet
  facet normal 0.989653 -0.143481 0
    outer loop
      vertex -14.441 -34.6247 1
      vertex -13.4786 -27.9866 0
      vertex -13.4786 -27.9866 1
    endloop
  endfacet
  facet normal 0.989653 -0.143481 0
    outer loop
      vertex -13.4786 -27.9866 0
      vertex -14.441 -34.6247 1
      vertex -14.441 -34.6247 0
    endloop
  endfacet
  facet normal 0.959044 -0.283258 0
    outer loop
      vertex -13.4786 -27.9866 1
      vertex -11.8745 -22.5555 0
      vertex -11.8745 -22.5555 1
    endloop
  endfacet
  facet normal 0.959044 -0.283258 0
    outer loop
      vertex -11.8745 -22.5555 0
      vertex -13.4786 -27.9866 1
      vertex -13.4786 -27.9866 0
    endloop
  endfacet
  facet normal 0.88299 -0.469392 0
    outer loop
      vertex -11.8745 -22.5555 1
      vertex -9.62889 -18.3312 0
      vertex -9.62889 -18.3312 1
    endloop
  endfacet
  facet normal 0.88299 -0.469392 0
    outer loop
      vertex -9.62889 -18.3312 0
      vertex -11.8745 -22.5555 1
      vertex -11.8745 -22.5555 0
    endloop
  endfacet
  facet normal 0.722502 -0.691369 0
    outer loop
      vertex -9.62889 -18.3312 1
      vertex -6.74161 -15.3139 0
      vertex -6.74161 -15.3139 1
    endloop
  endfacet
  facet normal 0.722502 -0.691369 0
    outer loop
      vertex -6.74161 -15.3139 0
      vertex -9.62889 -18.3312 1
      vertex -9.62889 -18.3312 0
    endloop
  endfacet
  facet normal 0.456458 -0.889745 0
    outer loop
      vertex -6.74161 -15.3139 0
      vertex -3.21271 -13.5035 1
      vertex -6.74161 -15.3139 1
    endloop
  endfacet
  facet normal 0.456458 -0.889745 0
    outer loop
      vertex -3.21271 -13.5035 1
      vertex -6.74161 -15.3139 0
      vertex -3.21271 -13.5035 0
    endloop
  endfacet
  facet normal 0.143215 -0.989692 0
    outer loop
      vertex -3.21271 -13.5035 0
      vertex 0.957809 -12.9 1
      vertex -3.21271 -13.5035 1
    endloop
  endfacet
  facet normal 0.143215 -0.989692 0
    outer loop
      vertex 0.957809 -12.9 1
      vertex -3.21271 -13.5035 0
      vertex 0.957809 -12.9 0
    endloop
  endfacet
  facet normal -0.143802 -0.989606 0
    outer loop
      vertex 0.957809 -12.9 0
      vertex 5.11093 -13.5035 1
      vertex 0.957809 -12.9 1
    endloop
  endfacet
  facet normal -0.143802 -0.989606 -0
    outer loop
      vertex 5.11093 -13.5035 1
      vertex 0.957809 -12.9 0
      vertex 5.11093 -13.5035 0
    endloop
  endfacet
  facet normal -0.457969 -0.888968 0
    outer loop
      vertex 5.11093 -13.5035 0
      vertex 8.62512 -15.3139 1
      vertex 5.11093 -13.5035 1
    endloop
  endfacet
  facet normal -0.457969 -0.888968 -0
    outer loop
      vertex 8.62512 -15.3139 1
      vertex 5.11093 -13.5035 0
      vertex 8.62512 -15.3139 0
    endloop
  endfacet
  facet normal -0.723939 -0.689864 0
    outer loop
      vertex 11.5004 -18.3312 0
      vertex 8.62512 -15.3139 1
      vertex 8.62512 -15.3139 0
    endloop
  endfacet
  facet normal -0.723939 -0.689864 0
    outer loop
      vertex 8.62512 -15.3139 1
      vertex 11.5004 -18.3312 0
      vertex 11.5004 -18.3312 1
    endloop
  endfacet
  facet normal -0.883796 -0.467872 0
    outer loop
      vertex 13.7367 -22.5555 0
      vertex 11.5004 -18.3312 1
      vertex 11.5004 -18.3312 0
    endloop
  endfacet
  facet normal -0.883796 -0.467872 0
    outer loop
      vertex 11.5004 -18.3312 1
      vertex 13.7367 -22.5555 0
      vertex 13.7367 -22.5555 1
    endloop
  endfacet
  facet normal -0.959369 -0.282153 0
    outer loop
      vertex 15.334 -27.9866 0
      vertex 13.7367 -22.5555 1
      vertex 13.7367 -22.5555 0
    endloop
  endfacet
  facet normal -0.959369 -0.282153 0
    outer loop
      vertex 13.7367 -22.5555 1
      vertex 15.334 -27.9866 0
      vertex 15.334 -27.9866 1
    endloop
  endfacet
  facet normal -0.989738 -0.142897 0
    outer loop
      vertex 16.2924 -34.6247 0
      vertex 15.334 -27.9866 1
      vertex 15.334 -27.9866 0
    endloop
  endfacet
  facet normal -0.989738 -0.142897 0
    outer loop
      vertex 15.334 -27.9866 1
      vertex 16.2924 -34.6247 0
      vertex 16.2924 -34.6247 1
    endloop
  endfacet
  facet normal -0.999172 -0.0406928 0
    outer loop
      vertex 16.6119 -42.4697 0
      vertex 16.2924 -34.6247 1
      vertex 16.2924 -34.6247 0
    endloop
  endfacet
  facet normal -0.999172 -0.0406928 0
    outer loop
      vertex 16.2924 -34.6247 1
      vertex 16.6119 -42.4697 0
      vertex 16.6119 -42.4697 1
    endloop
  endfacet
  facet normal -0.999808 0.0196199 0
    outer loop
      vertex 16.5317 -46.5566 0
      vertex 16.6119 -42.4697 1
      vertex 16.6119 -42.4697 0
    endloop
  endfacet
  facet normal -0.999808 0.0196199 0
    outer loop
      vertex 16.6119 -42.4697 1
      vertex 16.5317 -46.5566 0
      vertex 16.5317 -46.5566 1
    endloop
  endfacet
  facet normal -0.997995 0.0632938 0
    outer loop
      vertex 16.2911 -50.3503 0
      vertex 16.5317 -46.5566 1
      vertex 16.5317 -46.5566 0
    endloop
  endfacet
  facet normal -0.997995 0.0632938 0
    outer loop
      vertex 16.5317 -46.5566 1
      vertex 16.2911 -50.3503 0
      vertex 16.2911 -50.3503 1
    endloop
  endfacet
  facet normal -0.993499 0.113839 0
    outer loop
      vertex 15.89 -53.8508 0
      vertex 16.2911 -50.3503 1
      vertex 16.2911 -50.3503 0
    endloop
  endfacet
  facet normal -0.993499 0.113839 0
    outer loop
      vertex 16.2911 -50.3503 1
      vertex 15.89 -53.8508 0
      vertex 15.89 -53.8508 1
    endloop
  endfacet
  facet normal -0.985025 0.172412 0
    outer loop
      vertex 15.3286 -57.0582 0
      vertex 15.89 -53.8508 1
      vertex 15.89 -53.8508 0
    endloop
  endfacet
  facet normal -0.985025 0.172412 0
    outer loop
      vertex 15.89 -53.8508 1
      vertex 15.3286 -57.0582 0
      vertex 15.3286 -57.0582 1
    endloop
  endfacet
  facet normal -0.97066 0.240458 0
    outer loop
      vertex 14.6067 -59.9723 0
      vertex 15.3286 -57.0582 1
      vertex 15.3286 -57.0582 0
    endloop
  endfacet
  facet normal -0.97066 0.240458 0
    outer loop
      vertex 15.3286 -57.0582 1
      vertex 14.6067 -59.9723 0
      vertex 14.6067 -59.9723 1
    endloop
  endfacet
  facet normal -0.947743 0.319036 0
    outer loop
      vertex 13.7244 -62.5933 0
      vertex 14.6067 -59.9723 1
      vertex 14.6067 -59.9723 0
    endloop
  endfacet
  facet normal -0.947743 0.319036 0
    outer loop
      vertex 14.6067 -59.9723 1
      vertex 13.7244 -62.5933 0
      vertex 13.7244 -62.5933 1
    endloop
  endfacet
  facet normal -0.912626 0.408796 0
    outer loop
      vertex 12.6817 -64.9211 0
      vertex 13.7244 -62.5933 1
      vertex 13.7244 -62.5933 0
    endloop
  endfacet
  facet normal -0.912626 0.408796 0
    outer loop
      vertex 13.7244 -62.5933 1
      vertex 12.6817 -64.9211 0
      vertex 12.6817 -64.9211 1
    endloop
  endfacet
  facet normal -0.860056 0.510199 0
    outer loop
      vertex 11.4802 -66.9465 0
      vertex 12.6817 -64.9211 1
      vertex 12.6817 -64.9211 0
    endloop
  endfacet
  facet normal -0.860056 0.510199 0
    outer loop
      vertex 12.6817 -64.9211 1
      vertex 11.4802 -66.9465 0
      vertex 11.4802 -66.9465 1
    endloop
  endfacet
  facet normal -0.78348 0.621417 0
    outer loop
      vertex 10.1209 -68.6603 0
      vertex 11.4802 -66.9465 1
      vertex 11.4802 -66.9465 0
    endloop
  endfacet
  facet normal -0.78348 0.621417 0
    outer loop
      vertex 11.4802 -66.9465 1
      vertex 10.1209 -68.6603 0
      vertex 10.1209 -68.6603 1
    endloop
  endfacet
  facet normal -0.678767 0.734353 0
    outer loop
      vertex 10.1209 -68.6603 0
      vertex 8.60387 -70.0625 1
      vertex 10.1209 -68.6603 1
    endloop
  endfacet
  facet normal -0.678767 0.734353 0
    outer loop
      vertex 8.60387 -70.0625 1
      vertex 10.1209 -68.6603 0
      vertex 8.60387 -70.0625 0
    endloop
  endfacet
  facet normal -0.545673 0.837998 0
    outer loop
      vertex 8.60387 -70.0625 0
      vertex 6.92902 -71.1531 1
      vertex 8.60387 -70.0625 1
    endloop
  endfacet
  facet normal -0.545673 0.837998 0
    outer loop
      vertex 6.92902 -71.1531 1
      vertex 8.60387 -70.0625 0
      vertex 6.92902 -71.1531 0
    endloop
  endfacet
  facet normal -0.391197 0.920307 0
    outer loop
      vertex 6.92902 -71.1531 0
      vertex 5.09639 -71.9321 1
      vertex 6.92902 -71.1531 1
    endloop
  endfacet
  facet normal -0.391197 0.920307 0
    outer loop
      vertex 5.09639 -71.9321 1
      vertex 6.92902 -71.1531 0
      vertex 5.09639 -71.9321 0
    endloop
  endfacet
  facet normal -0.228609 0.973518 0
    outer loop
      vertex 5.09639 -71.9321 0
      vertex 3.10599 -72.3995 1
      vertex 5.09639 -71.9321 1
    endloop
  endfacet
  facet normal -0.228609 0.973518 0
    outer loop
      vertex 3.10599 -72.3995 1
      vertex 5.09639 -71.9321 0
      vertex 3.10599 -72.3995 0
    endloop
  endfacet
  facet normal -0.0723365 0.99738 0
    outer loop
      vertex 3.10599 -72.3995 0
      vertex 0.957809 -72.5553 1
      vertex 3.10599 -72.3995 1
    endloop
  endfacet
  facet normal -0.0723365 0.99738 0
    outer loop
      vertex 0.957809 -72.5553 1
      vertex 3.10599 -72.3995 0
      vertex 0.957809 -72.5553 0
    endloop
  endfacet
  facet normal 0.0723054 0.997383 -0
    outer loop
      vertex 0.957809 -72.5553 0
      vertex -1.1913 -72.3995 1
      vertex 0.957809 -72.5553 1
    endloop
  endfacet
  facet normal 0.0723054 0.997383 0
    outer loop
      vertex -1.1913 -72.3995 1
      vertex 0.957809 -72.5553 0
      vertex -1.1913 -72.3995 0
    endloop
  endfacet
endsolid OpenSCAD_Model
