solid OpenSCAD_Model
  facet normal 0 0 -1
    outer loop
      vertex -8.57733 -49.0874 0
      vertex 10.3628 -49.0874 0
      vertex 10.3628 -84.9062 0
    endloop
  endfacet
  facet normal 0 0 -1
    outer loop
      vertex -8.57733 -49.0874 0
      vertex 10.3628 -84.9062 0
      vertex -8.57733 -84.9062 0
    endloop
  endfacet
  facet normal 0 0 -1
    outer loop
      vertex 10.3628 -49.0874 0
      vertex -8.57733 -49.0874 0
      vertex 0.764008 -34.4641 0
    endloop
  endfacet
  facet normal 0 0 -1
    outer loop
      vertex -8.57733 -49.0874 0
      vertex -18.5618 1.99879 0
      vertex 0.764008 -34.4641 0
    endloop
  endfacet
  facet normal -0 -0 -1
    outer loop
      vertex -18.5618 1.99879 0
      vertex -8.57733 -49.0874 0
      vertex -38.4691 1.99879 0
    endloop
  endfacet
  facet normal 0 0 -1
    outer loop
      vertex 10.3628 -49.0874 0
      vertex 20.3483 1.99879 0
      vertex 40.2545 1.99879 0
    endloop
  endfacet
  facet normal 0 0 -1
    outer loop
      vertex 20.3483 1.99879 0
      vertex 10.3628 -49.0874 0
      vertex 0.764008 -34.4641 0
    endloop
  endfacet
  facet normal 0 0 1
    outer loop
      vertex -18.5618 1.99879 1
      vertex -8.57733 -49.0874 1
      vertex 0.764008 -34.4641 1
    endloop
  endfacet
  facet normal 0 0 1
    outer loop
      vertex -8.57733 -49.0874 1
      vertex -18.5618 1.99879 1
      vertex -38.4691 1.99879 1
    endloop
  endfacet
  facet normal -0 0 1
    outer loop
      vertex 20.3483 1.99879 1
      vertex 10.3628 -49.0874 1
      vertex 40.2545 1.99879 1
    endloop
  endfacet
  facet normal -0 0 1
    outer loop
      vertex 0.764008 -34.4641 1
      vertex 10.3628 -49.0874 1
      vertex 20.3483 1.99879 1
    endloop
  endfacet
  facet normal 0 0 1
    outer loop
      vertex -8.57733 -49.0874 1
      vertex 10.3628 -49.0874 1
      vertex 0.764008 -34.4641 1
    endloop
  endfacet
  facet normal 0 0 1
    outer loop
      vertex 10.3628 -49.0874 1
      vertex -8.57733 -49.0874 1
      vertex 10.3628 -84.9062 1
    endloop
  endfacet
  facet normal 0 0 1
    outer loop
      vertex 10.3628 -84.9062 1
      vertex -8.57733 -49.0874 1
      vertex -8.57733 -84.9062 1
    endloop
  endfacet
  facet normal 0.863106 -0.505023 0
    outer loop
      vertex 10.3628 -49.0874 1
      vertex 40.2545 1.99879 0
      vertex 40.2545 1.99879 1
    endloop
  endfacet
  facet normal 0.863106 -0.505023 0
    outer loop
      vertex 40.2545 1.99879 0
      vertex 10.3628 -49.0874 1
      vertex 10.3628 -49.0874 0
    endloop
  endfacet
  facet normal 0 1 -0
    outer loop
      vertex 40.2545 1.99879 0
      vertex 20.3483 1.99879 1
      vertex 40.2545 1.99879 1
    endloop
  endfacet
  facet normal 0 1 0
    outer loop
      vertex 20.3483 1.99879 1
      vertex 40.2545 1.99879 0
      vertex 20.3483 1.99879 0
    endloop
  endfacet
  facet normal -0.880971 0.473171 0
    outer loop
      vertex 0.764008 -34.4641 0
      vertex 20.3483 1.99879 1
      vertex 20.3483 1.99879 0
    endloop
  endfacet
  facet normal -0.880971 0.473171 0
    outer loop
      vertex 20.3483 1.99879 1
      vertex 0.764008 -34.4641 0
      vertex 0.764008 -34.4641 1
    endloop
  endfacet
  facet normal 0.883568 0.468303 0
    outer loop
      vertex 0.764008 -34.4641 1
      vertex -18.5618 1.99879 0
      vertex -18.5618 1.99879 1
    endloop
  endfacet
  facet normal 0.883568 0.468303 0
    outer loop
      vertex -18.5618 1.99879 0
      vertex 0.764008 -34.4641 1
      vertex 0.764008 -34.4641 0
    endloop
  endfacet
  facet normal 0 1 -0
    outer loop
      vertex -18.5618 1.99879 0
      vertex -38.4691 1.99879 1
      vertex -18.5618 1.99879 1
    endloop
  endfacet
  facet normal 0 1 0
    outer loop
      vertex -38.4691 1.99879 1
      vertex -18.5618 1.99879 0
      vertex -38.4691 1.99879 0
    endloop
  endfacet
  facet normal -0.863105 -0.505024 0
    outer loop
      vertex -8.57733 -49.0874 0
      vertex -38.4691 1.99879 1
      vertex -38.4691 1.99879 0
    endloop
  endfacet
  facet normal -0.863105 -0.505024 0
    outer loop
      vertex -38.4691 1.99879 1
      vertex -8.57733 -49.0874 0
      vertex -8.57733 -49.0874 1
    endloop
  endfacet
  facet normal -1 0 0
    outer loop
      vertex -8.57733 -84.9062 0
      vertex -8.57733 -49.0874 1
      vertex -8.57733 -49.0874 0
    endloop
  endfacet
  facet normal -1 -0 0
    outer loop
      vertex -8.57733 -49.0874 1
      vertex -8.57733 -84.9062 0
      vertex -8.57733 -84.9062 1
    endloop
  endfacet
  facet normal 0 -1 0
    outer loop
      vertex -8.57733 -84.9062 0
      vertex 10.3628 -84.9062 1
      vertex -8.57733 -84.9062 1
    endloop
  endfacet
  facet normal 0 -1 -0
    outer loop
      vertex 10.3628 -84.9062 1
      vertex -8.57733 -84.9062 0
      vertex 10.3628 -84.9062 0
    endloop
  endfacet
  facet normal 1 -0 0
    outer loop
      vertex 10.3628 -84.9062 1
      vertex 10.3628 -49.0874 0
      vertex 10.3628 -49.0874 1
    endloop
  endfacet
  facet normal 1 0 0
    outer loop
      vertex 10.3628 -49.0874 0
      vertex 10.3628 -84.9062 1
      vertex 10.3628 -84.9062 0
    endloop
  endfacet
endsolid OpenSCAD_Model
