<?xml version="1.0" standalone="no"?>
<!DOCTYPE svg PUBLIC "-//W3C//DTD SVG 1.1//EN" "http://www.w3.org/Graphics/SVG/1.1/DTD/svg11.dtd">
<svg width="17mm" height="18mm" viewBox="-8 4 17 18" xmlns="http://www.w3.org/2000/svg" version="1.1">
<title>OpenSCAD Model</title>
<path d="
M -2.74622,17.7294 L 3.12915,17.7294 L 4.31456,21.9812 L 8.10258,21.9812 L 2.40753,4.60025 L -2.0246,4.60025
 L -7.73238,21.9812 L -3.93143,21.9812 z
M -1.94727,14.869 L -1.54852,13.4592 L -1.19896,12.2191 L -0.89856,11.1485 L -0.647324,10.2476 L -0.445251,9.51622
 L -0.292358,8.95447 L -0.188614,8.5623 L -0.113022,8.26579 L -0.0445099,7.99112 L 0.0168762,7.73828 L 0.0711975,7.50726
 L 0.118408,7.29808 L 0.158524,7.11073 L 0.191559,6.94521 L 0.224258,7.10664 L 0.26355,7.28912 L 0.309418,7.49263
 L 0.361862,7.71719 L 0.420868,7.96278 L 0.486465,8.22942 L 0.55864,8.51709 L 0.659515,8.9023 L 0.811142,9.46159
 L 1.0135,10.1949 L 1.26662,11.1024 L 1.57047,12.1838 L 1.92505,13.4394 L 2.33038,14.869 z
" stroke="black" fill="lightgray" stroke-width="0.5"/>
</svg>
