solid OpenSCAD_Model
  facet normal 0 0 -1
    outer loop
      vertex 10.6241 -41.6037 0
      vertex 20.4381 -45.4598 0
      vertex 18.3777 -49.1389 0
    endloop
  endfacet
  facet normal 0 0 -1
    outer loop
      vertex 9.56395 -43.721 0
      vertex 18.3777 -49.1389 0
      vertex 15.9229 -52.149 0
    endloop
  endfacet
  facet normal 0 0 -1
    outer loop
      vertex 8.37125 -45.4534 0
      vertex 15.9229 -52.149 0
      vertex 13.0736 -54.4902 0
    endloop
  endfacet
  facet normal 0 0 -1
    outer loop
      vertex 18.3777 -49.1389 0
      vertex 9.56395 -43.721 0
      vertex 10.6241 -41.6037 0
    endloop
  endfacet
  facet normal 0 0 -1
    outer loop
      vertex 20.4381 -45.4598 0
      vertex 11.5517 -39.1014 0
      vertex 22.1042 -41.1118 0
    endloop
  endfacet
  facet normal 0 0 -1
    outer loop
      vertex 7.04599 -46.8008 0
      vertex 13.0736 -54.4902 0
      vertex 9.8299 -56.1626 0
    endloop
  endfacet
  facet normal 0 -0 -1
    outer loop
      vertex 11.5517 -39.1014 0
      vertex 20.4381 -45.4598 0
      vertex 10.6241 -41.6037 0
    endloop
  endfacet
  facet normal 0 0 -1
    outer loop
      vertex 15.9229 -52.149 0
      vertex 8.37125 -45.4534 0
      vertex 9.56395 -43.721 0
    endloop
  endfacet
  facet normal 0 0 -1
    outer loop
      vertex 13.0736 -54.4902 0
      vertex 7.04599 -46.8008 0
      vertex 8.37125 -45.4534 0
    endloop
  endfacet
  facet normal 0 0 -1
    outer loop
      vertex 5.5882 -47.7632 0
      vertex 9.8299 -56.1626 0
      vertex 6.1918 -57.166 0
    endloop
  endfacet
  facet normal 0 0 -1
    outer loop
      vertex 9.8299 -56.1626 0
      vertex 5.5882 -47.7632 0
      vertex 7.04599 -46.8008 0
    endloop
  endfacet
  facet normal 0 0 -1
    outer loop
      vertex 6.1918 -57.166 0
      vertex 3.99786 -48.3407 0
      vertex 5.5882 -47.7632 0
    endloop
  endfacet
  facet normal 0 0 -1
    outer loop
      vertex 2.15929 -57.5004 0
      vertex 3.99786 -48.3407 0
      vertex 6.1918 -57.166 0
    endloop
  endfacet
  facet normal 0 0 -1
    outer loop
      vertex 3.99786 -48.3407 0
      vertex 2.15929 -57.5004 0
      vertex 2.27499 -48.5332 0
    endloop
  endfacet
  facet normal 0 0 -1
    outer loop
      vertex 2.15929 -57.5004 0
      vertex 0.794479 -48.4369 0
      vertex 2.27499 -48.5332 0
    endloop
  endfacet
  facet normal 0 0 -1
    outer loop
      vertex -0.838654 -57.3596 0
      vertex 0.794479 -48.4369 0
      vertex 2.15929 -57.5004 0
    endloop
  endfacet
  facet normal -0 0 -1
    outer loop
      vertex 0.794479 -48.4369 0
      vertex -0.838654 -57.3596 0
      vertex -0.577179 -48.1482 0
    endloop
  endfacet
  facet normal 0 0 -1
    outer loop
      vertex -3.62599 -56.9372 0
      vertex -0.577179 -48.1482 0
      vertex -0.838654 -57.3596 0
    endloop
  endfacet
  facet normal -0 0 -1
    outer loop
      vertex -0.577179 -48.1482 0
      vertex -3.62599 -56.9372 0
      vertex -1.84003 -47.667 0
    endloop
  endfacet
  facet normal 0 0 -1
    outer loop
      vertex -6.20274 -56.2332 0
      vertex -1.84003 -47.667 0
      vertex -3.62599 -56.9372 0
    endloop
  endfacet
  facet normal -0 0 -1
    outer loop
      vertex -1.84003 -47.667 0
      vertex -6.20274 -56.2332 0
      vertex -2.99403 -46.9934 0
    endloop
  endfacet
  facet normal 0 0 -1
    outer loop
      vertex -8.56889 -55.2476 0
      vertex -2.99403 -46.9934 0
      vertex -6.20274 -56.2332 0
    endloop
  endfacet
  facet normal -0 0 -1
    outer loop
      vertex -2.99403 -46.9934 0
      vertex -8.56889 -55.2476 0
      vertex -4.0392 -46.1272 0
    endloop
  endfacet
  facet normal 0 0 -1
    outer loop
      vertex -10.7245 -53.9804 0
      vertex -4.0392 -46.1272 0
      vertex -8.56889 -55.2476 0
    endloop
  endfacet
  facet normal -0 0 -1
    outer loop
      vertex -4.0392 -46.1272 0
      vertex -10.7245 -53.9804 0
      vertex -4.97554 -45.0686 0
    endloop
  endfacet
  facet normal 0 0 -1
    outer loop
      vertex -12.6694 -52.4315 0
      vertex -4.97554 -45.0686 0
      vertex -10.7245 -53.9804 0
    endloop
  endfacet
  facet normal 0 0 -1
    outer loop
      vertex -14.4038 -50.6011 0
      vertex -4.97554 -45.0686 0
      vertex -12.6694 -52.4315 0
    endloop
  endfacet
  facet normal -0 0 -1
    outer loop
      vertex -4.97554 -45.0686 0
      vertex -14.4038 -50.6011 0
      vertex -5.80304 -43.8176 0
    endloop
  endfacet
  facet normal 0 0 -1
    outer loop
      vertex -15.9163 -48.4992 0
      vertex -5.80304 -43.8176 0
      vertex -14.4038 -50.6011 0
    endloop
  endfacet
  facet normal -0 0 -1
    outer loop
      vertex -6.5209 -42.3889 0
      vertex -17.1962 -46.1362 0
      vertex -7.12833 -40.7977 0
    endloop
  endfacet
  facet normal 0 0 -1
    outer loop
      vertex -17.1962 -46.1362 0
      vertex -6.5209 -42.3889 0
      vertex -15.9163 -48.4992 0
    endloop
  endfacet
  facet normal -0 0 -1
    outer loop
      vertex -5.80304 -43.8176 0
      vertex -15.9163 -48.4992 0
      vertex -6.5209 -42.3889 0
    endloop
  endfacet
  facet normal 0 0 -1
    outer loop
      vertex 10.5086 -21.3601 0
      vertex 20.3182 -16.7523 0
      vertex 21.0223 -18.8088 0
    endloop
  endfacet
  facet normal -0 0 -1
    outer loop
      vertex 20.3182 -16.7523 0
      vertex 10.1654 -20.2268 0
      vertex 19.5092 -14.8457 0
    endloop
  endfacet
  facet normal 0 0 -1
    outer loop
      vertex 9.77647 -19.1685 0
      vertex 19.5092 -14.8457 0
      vertex 10.1654 -20.2268 0
    endloop
  endfacet
  facet normal -0 0 -1
    outer loop
      vertex 19.5092 -14.8457 0
      vertex 9.3418 -18.1851 0
      vertex 18.5954 -13.0889 0
    endloop
  endfacet
  facet normal -0 0 -1
    outer loop
      vertex 18.5954 -13.0889 0
      vertex 8.86136 -17.2767 0
      vertex 17.5765 -11.4821 0
    endloop
  endfacet
  facet normal 0 0 -1
    outer loop
      vertex 8.33519 -16.4432 0
      vertex 17.5765 -11.4821 0
      vertex 8.86136 -17.2767 0
    endloop
  endfacet
  facet normal -0 0 -1
    outer loop
      vertex 17.5765 -11.4821 0
      vertex 8.33519 -16.4432 0
      vertex 16.4527 -10.0252 0
    endloop
  endfacet
  facet normal -0 0 -1
    outer loop
      vertex 16.4527 -10.0252 0
      vertex 7.76329 -15.6848 0
      vertex 15.2241 -8.71814 0
    endloop
  endfacet
  facet normal 0 0 -1
    outer loop
      vertex 20.3182 -16.7523 0
      vertex 10.5086 -21.3601 0
      vertex 10.1654 -20.2268 0
    endloop
  endfacet
  facet normal 0 0 -1
    outer loop
      vertex 9.3418 -18.1851 0
      vertex 19.5092 -14.8457 0
      vertex 9.77647 -19.1685 0
    endloop
  endfacet
  facet normal 0 0 -1
    outer loop
      vertex 8.86136 -17.2767 0
      vertex 18.5954 -13.0889 0
      vertex 9.3418 -18.1851 0
    endloop
  endfacet
  facet normal 0 0 -1
    outer loop
      vertex 7.76329 -15.6848 0
      vertex 16.4527 -10.0252 0
      vertex 8.33519 -16.4432 0
    endloop
  endfacet
  facet normal -0 0 -1
    outer loop
      vertex 15.2241 -8.71814 0
      vertex 7.76329 -15.6848 0
      vertex 13.8904 -7.561 0
    endloop
  endfacet
  facet normal 0 0 -1
    outer loop
      vertex 7.14565 -15.0012 0
      vertex 13.8904 -7.561 0
      vertex 7.76329 -15.6848 0
    endloop
  endfacet
  facet normal -0 0 -1
    outer loop
      vertex 13.8904 -7.561 0
      vertex 7.14565 -15.0012 0
      vertex 12.4568 -6.55597 0
    endloop
  endfacet
  facet normal 0 0 -1
    outer loop
      vertex 6.49171 -14.4013 0
      vertex 12.4568 -6.55597 0
      vertex 7.14565 -15.0012 0
    endloop
  endfacet
  facet normal -0 0 -1
    outer loop
      vertex 12.4568 -6.55597 0
      vertex 6.49171 -14.4013 0
      vertex 10.9277 -5.70555 0
    endloop
  endfacet
  facet normal 0 0 -1
    outer loop
      vertex 5.81096 -13.8937 0
      vertex 10.9277 -5.70555 0
      vertex 6.49171 -14.4013 0
    endloop
  endfacet
  facet normal -0 0 -1
    outer loop
      vertex 10.9277 -5.70555 0
      vertex 5.81096 -13.8937 0
      vertex 9.30315 -5.00975 0
    endloop
  endfacet
  facet normal 0 0 -1
    outer loop
      vertex 5.10338 -13.4784 0
      vertex 9.30315 -5.00975 0
      vertex 5.81096 -13.8937 0
    endloop
  endfacet
  facet normal -0 0 -1
    outer loop
      vertex 9.30315 -5.00975 0
      vertex 5.10338 -13.4784 0
      vertex 7.58313 -4.4686 0
    endloop
  endfacet
  facet normal 0 0 -1
    outer loop
      vertex 4.36897 -13.1553 0
      vertex 7.58313 -4.4686 0
      vertex 5.10338 -13.4784 0
    endloop
  endfacet
  facet normal -0 0 -1
    outer loop
      vertex 7.58313 -4.4686 0
      vertex 4.36897 -13.1553 0
      vertex 5.76765 -4.08205 0
    endloop
  endfacet
  facet normal 0 0 -1
    outer loop
      vertex 3.60774 -12.9246 0
      vertex 5.76765 -4.08205 0
      vertex 4.36897 -13.1553 0
    endloop
  endfacet
  facet normal -0 0 -1
    outer loop
      vertex 5.76765 -4.08205 0
      vertex 3.60774 -12.9246 0
      vertex 3.85674 -3.85011 0
    endloop
  endfacet
  facet normal 0 0 -1
    outer loop
      vertex 2.81969 -12.7862 0
      vertex 3.85674 -3.85011 0
      vertex 3.60774 -12.9246 0
    endloop
  endfacet
  facet normal 0 0 -1
    outer loop
      vertex 2.00481 -12.74 0
      vertex 3.85674 -3.85011 0
      vertex 2.81969 -12.7862 0
    endloop
  endfacet
  facet normal 0 0 -1
    outer loop
      vertex 2.00481 -12.74 0
      vertex 1.85034 -3.7728 0
      vertex 3.85674 -3.85011 0
    endloop
  endfacet
  facet normal 0 0 -1
    outer loop
      vertex -0.784515 -13.1005 0
      vertex 1.85034 -3.7728 0
      vertex 2.00481 -12.74 0
    endloop
  endfacet
  facet normal 0 0 -1
    outer loop
      vertex -3.97452 -4.31631 0
      vertex -0.784515 -13.1005 0
      vertex -3.14471 -14.1821 0
    endloop
  endfacet
  facet normal 0 0 -1
    outer loop
      vertex -0.784515 -13.1005 0
      vertex -3.97452 -4.31631 0
      vertex 1.85034 -3.7728 0
    endloop
  endfacet
  facet normal 0 0 -1
    outer loop
      vertex -8.90324 -5.94684 0
      vertex -3.14471 -14.1821 0
      vertex -5.07579 -15.9846 0
    endloop
  endfacet
  facet normal 0 0 -1
    outer loop
      vertex -16.0723 -12.469 0
      vertex -5.07579 -15.9846 0
      vertex -6.57774 -18.5081 0
    endloop
  endfacet
  facet normal 0 0 -1
    outer loop
      vertex -18.3126 -17.3606 0
      vertex -6.57774 -18.5081 0
      vertex -7.65057 -21.7527 0
    endloop
  endfacet
  facet normal 0 0 -1
    outer loop
      vertex -3.14471 -14.1821 0
      vertex -8.90324 -5.94684 0
      vertex -3.97452 -4.31631 0
    endloop
  endfacet
  facet normal 0 0 -1
    outer loop
      vertex -19.6568 -23.3392 0
      vertex -7.65057 -21.7527 0
      vertex -8.29427 -25.7183 0
    endloop
  endfacet
  facet normal 0 0 -1
    outer loop
      vertex -20.1049 -30.4049 0
      vertex -8.29427 -25.7183 0
      vertex -8.50882 -30.4049 0
    endloop
  endfacet
  facet normal 0 0 -1
    outer loop
      vertex -18.2433 -43.5121 0
      vertex -7.12833 -40.7977 0
      vertex -17.1962 -46.1362 0
    endloop
  endfacet
  facet normal -0 0 -1
    outer loop
      vertex -7.12833 -40.7977 0
      vertex -18.2433 -43.5121 0
      vertex -7.62531 -39.0441 0
    endloop
  endfacet
  facet normal 0 0 -1
    outer loop
      vertex -19.0578 -40.6269 0
      vertex -7.62531 -39.0441 0
      vertex -18.2433 -43.5121 0
    endloop
  endfacet
  facet normal -0 0 -1
    outer loop
      vertex -8.29427 -25.7183 0
      vertex -20.1049 -30.4049 0
      vertex -19.6568 -23.3392 0
    endloop
  endfacet
  facet normal -0 0 -1
    outer loop
      vertex -7.62531 -39.0441 0
      vertex -19.0578 -40.6269 0
      vertex -8.01184 -37.1279 0
    endloop
  endfacet
  facet normal 0 0 -1
    outer loop
      vertex -19.6395 -37.4807 0
      vertex -8.01184 -37.1279 0
      vertex -19.0578 -40.6269 0
    endloop
  endfacet
  facet normal -0 0 -1
    outer loop
      vertex -7.65057 -21.7527 0
      vertex -19.6568 -23.3392 0
      vertex -18.3126 -17.3606 0
    endloop
  endfacet
  facet normal -0 0 -1
    outer loop
      vertex -8.01184 -37.1279 0
      vertex -19.6395 -37.4807 0
      vertex -8.28795 -35.0494 0
    endloop
  endfacet
  facet normal 0 0 -1
    outer loop
      vertex -19.9886 -34.0733 0
      vertex -8.28795 -35.0494 0
      vertex -19.6395 -37.4807 0
    endloop
  endfacet
  facet normal 0 0 -1
    outer loop
      vertex -6.57774 -18.5081 0
      vertex -18.3126 -17.3606 0
      vertex -16.0723 -12.469 0
    endloop
  endfacet
  facet normal 0 0 -1
    outer loop
      vertex -8.28795 -35.0494 0
      vertex -19.9886 -34.0733 0
      vertex -8.4536 -32.8084 0
    endloop
  endfacet
  facet normal 0 0 -1
    outer loop
      vertex -20.1049 -30.4049 0
      vertex -8.4536 -32.8084 0
      vertex -19.9886 -34.0733 0
    endloop
  endfacet
  facet normal 0 0 -1
    outer loop
      vertex -8.4536 -32.8084 0
      vertex -20.1049 -30.4049 0
      vertex -8.50882 -30.4049 0
    endloop
  endfacet
  facet normal 0 0 -1
    outer loop
      vertex -5.07579 -15.9846 0
      vertex -16.0723 -12.469 0
      vertex -12.9358 -8.6644 0
    endloop
  endfacet
  facet normal 0 0 -1
    outer loop
      vertex -5.07579 -15.9846 0
      vertex -12.9358 -8.6644 0
      vertex -8.90324 -5.94684 0
    endloop
  endfacet
  facet normal 0 0 1
    outer loop
      vertex 10.1654 -20.2268 1
      vertex 20.3182 -16.7523 1
      vertex 19.5092 -14.8457 1
    endloop
  endfacet
  facet normal 0 0 1
    outer loop
      vertex 9.3418 -18.1851 1
      vertex 19.5092 -14.8457 1
      vertex 18.5954 -13.0889 1
    endloop
  endfacet
  facet normal 0 0 1
    outer loop
      vertex 8.86136 -17.2767 1
      vertex 18.5954 -13.0889 1
      vertex 17.5765 -11.4821 1
    endloop
  endfacet
  facet normal 0 0 1
    outer loop
      vertex 8.33519 -16.4432 1
      vertex 17.5765 -11.4821 1
      vertex 16.4527 -10.0252 1
    endloop
  endfacet
  facet normal 0 0 1
    outer loop
      vertex 7.76329 -15.6848 1
      vertex 16.4527 -10.0252 1
      vertex 15.2241 -8.71814 1
    endloop
  endfacet
  facet normal 0 0 1
    outer loop
      vertex 7.76329 -15.6848 1
      vertex 15.2241 -8.71814 1
      vertex 13.8904 -7.561 1
    endloop
  endfacet
  facet normal 0 0 1
    outer loop
      vertex 7.14565 -15.0012 1
      vertex 13.8904 -7.561 1
      vertex 12.4568 -6.55597 1
    endloop
  endfacet
  facet normal 0 0 1
    outer loop
      vertex 6.49171 -14.4013 1
      vertex 12.4568 -6.55597 1
      vertex 10.9277 -5.70555 1
    endloop
  endfacet
  facet normal 0 0 1
    outer loop
      vertex 18.5954 -13.0889 1
      vertex 8.86136 -17.2767 1
      vertex 9.3418 -18.1851 1
    endloop
  endfacet
  facet normal 0 0 1
    outer loop
      vertex 20.3182 -16.7523 1
      vertex 10.5086 -21.3601 1
      vertex 21.0223 -18.8088 1
    endloop
  endfacet
  facet normal 0 -0 1
    outer loop
      vertex 10.5086 -21.3601 1
      vertex 20.3182 -16.7523 1
      vertex 10.1654 -20.2268 1
    endloop
  endfacet
  facet normal 0 0 1
    outer loop
      vertex 19.5092 -14.8457 1
      vertex 9.77647 -19.1685 1
      vertex 10.1654 -20.2268 1
    endloop
  endfacet
  facet normal 0 0 1
    outer loop
      vertex 5.81096 -13.8937 1
      vertex 10.9277 -5.70555 1
      vertex 9.30315 -5.00975 1
    endloop
  endfacet
  facet normal 0 0 1
    outer loop
      vertex 19.5092 -14.8457 1
      vertex 9.3418 -18.1851 1
      vertex 9.77647 -19.1685 1
    endloop
  endfacet
  facet normal 0 0 1
    outer loop
      vertex 17.5765 -11.4821 1
      vertex 8.33519 -16.4432 1
      vertex 8.86136 -17.2767 1
    endloop
  endfacet
  facet normal 0 0 1
    outer loop
      vertex 16.4527 -10.0252 1
      vertex 7.76329 -15.6848 1
      vertex 8.33519 -16.4432 1
    endloop
  endfacet
  facet normal 0 0 1
    outer loop
      vertex 5.10338 -13.4784 1
      vertex 9.30315 -5.00975 1
      vertex 7.58313 -4.4686 1
    endloop
  endfacet
  facet normal 0 0 1
    outer loop
      vertex 13.8904 -7.561 1
      vertex 7.14565 -15.0012 1
      vertex 7.76329 -15.6848 1
    endloop
  endfacet
  facet normal 0 0 1
    outer loop
      vertex 12.4568 -6.55597 1
      vertex 6.49171 -14.4013 1
      vertex 7.14565 -15.0012 1
    endloop
  endfacet
  facet normal 0 0 1
    outer loop
      vertex 10.9277 -5.70555 1
      vertex 5.81096 -13.8937 1
      vertex 6.49171 -14.4013 1
    endloop
  endfacet
  facet normal 0 0 1
    outer loop
      vertex 4.36897 -13.1553 1
      vertex 7.58313 -4.4686 1
      vertex 5.76765 -4.08205 1
    endloop
  endfacet
  facet normal 0 0 1
    outer loop
      vertex 9.30315 -5.00975 1
      vertex 5.10338 -13.4784 1
      vertex 5.81096 -13.8937 1
    endloop
  endfacet
  facet normal 0 0 1
    outer loop
      vertex 7.58313 -4.4686 1
      vertex 4.36897 -13.1553 1
      vertex 5.10338 -13.4784 1
    endloop
  endfacet
  facet normal 0 0 1
    outer loop
      vertex 3.60774 -12.9246 1
      vertex 5.76765 -4.08205 1
      vertex 3.85674 -3.85011 1
    endloop
  endfacet
  facet normal 0 0 1
    outer loop
      vertex 5.76765 -4.08205 1
      vertex 3.60774 -12.9246 1
      vertex 4.36897 -13.1553 1
    endloop
  endfacet
  facet normal 0 0 1
    outer loop
      vertex 3.85674 -3.85011 1
      vertex 2.81969 -12.7862 1
      vertex 3.60774 -12.9246 1
    endloop
  endfacet
  facet normal 0 0 1
    outer loop
      vertex 3.85674 -3.85011 1
      vertex 2.00481 -12.74 1
      vertex 2.81969 -12.7862 1
    endloop
  endfacet
  facet normal 0 0 1
    outer loop
      vertex 1.85034 -3.7728 1
      vertex 2.00481 -12.74 1
      vertex 3.85674 -3.85011 1
    endloop
  endfacet
  facet normal 0 0 1
    outer loop
      vertex 1.85034 -3.7728 1
      vertex -0.784515 -13.1005 1
      vertex 2.00481 -12.74 1
    endloop
  endfacet
  facet normal -0 0 1
    outer loop
      vertex -3.97452 -4.31631 1
      vertex -0.784515 -13.1005 1
      vertex 1.85034 -3.7728 1
    endloop
  endfacet
  facet normal 0 0 1
    outer loop
      vertex -0.784515 -13.1005 1
      vertex -3.97452 -4.31631 1
      vertex -3.14471 -14.1821 1
    endloop
  endfacet
  facet normal -0 0 1
    outer loop
      vertex -8.90324 -5.94684 1
      vertex -3.14471 -14.1821 1
      vertex -3.97452 -4.31631 1
    endloop
  endfacet
  facet normal 0 0 1
    outer loop
      vertex -3.14471 -14.1821 1
      vertex -8.90324 -5.94684 1
      vertex -5.07579 -15.9846 1
    endloop
  endfacet
  facet normal -0 0 1
    outer loop
      vertex -12.9358 -8.6644 1
      vertex -5.07579 -15.9846 1
      vertex -8.90324 -5.94684 1
    endloop
  endfacet
  facet normal -0 0 1
    outer loop
      vertex -16.0723 -12.469 1
      vertex -5.07579 -15.9846 1
      vertex -12.9358 -8.6644 1
    endloop
  endfacet
  facet normal 0 0 1
    outer loop
      vertex -5.07579 -15.9846 1
      vertex -16.0723 -12.469 1
      vertex -6.57774 -18.5081 1
    endloop
  endfacet
  facet normal -0 0 1
    outer loop
      vertex -18.3126 -17.3606 1
      vertex -6.57774 -18.5081 1
      vertex -16.0723 -12.469 1
    endloop
  endfacet
  facet normal 0 0 1
    outer loop
      vertex -6.57774 -18.5081 1
      vertex -18.3126 -17.3606 1
      vertex -7.65057 -21.7527 1
    endloop
  endfacet
  facet normal 0 -0 1
    outer loop
      vertex -19.9886 -34.0733 1
      vertex -8.50882 -30.4049 1
      vertex -20.1049 -30.4049 1
    endloop
  endfacet
  facet normal 0 -0 1
    outer loop
      vertex -19.6395 -37.4807 1
      vertex -8.50882 -30.4049 1
      vertex -19.9886 -34.0733 1
    endloop
  endfacet
  facet normal 0 0 1
    outer loop
      vertex -19.6568 -23.3392 1
      vertex -7.65057 -21.7527 1
      vertex -18.3126 -17.3606 1
    endloop
  endfacet
  facet normal 0 -0 1
    outer loop
      vertex -19.0578 -40.6269 1
      vertex -8.50882 -30.4049 1
      vertex -19.6395 -37.4807 1
    endloop
  endfacet
  facet normal 0 -0 1
    outer loop
      vertex -18.2433 -43.5121 1
      vertex -8.50882 -30.4049 1
      vertex -19.0578 -40.6269 1
    endloop
  endfacet
  facet normal 0 0 1
    outer loop
      vertex -7.65057 -21.7527 1
      vertex -19.6568 -23.3392 1
      vertex -8.29427 -25.7183 1
    endloop
  endfacet
  facet normal 0 -0 1
    outer loop
      vertex -17.1962 -46.1362 1
      vertex -8.50882 -30.4049 1
      vertex -18.2433 -43.5121 1
    endloop
  endfacet
  facet normal 0 -0 1
    outer loop
      vertex -15.9163 -48.4992 1
      vertex -8.50882 -30.4049 1
      vertex -17.1962 -46.1362 1
    endloop
  endfacet
  facet normal 0 0 1
    outer loop
      vertex -20.1049 -30.4049 1
      vertex -8.29427 -25.7183 1
      vertex -19.6568 -23.3392 1
    endloop
  endfacet
  facet normal 0 0 1
    outer loop
      vertex -8.50882 -30.4049 1
      vertex -10.7245 -53.9804 1
      vertex -8.56889 -55.2476 1
    endloop
  endfacet
  facet normal 0 0 1
    outer loop
      vertex -8.50882 -30.4049 1
      vertex -14.4038 -50.6011 1
      vertex -12.6694 -52.4315 1
    endloop
  endfacet
  facet normal 0 0 1
    outer loop
      vertex -8.29427 -25.7183 1
      vertex -20.1049 -30.4049 1
      vertex -8.50882 -30.4049 1
    endloop
  endfacet
  facet normal 0 0 1
    outer loop
      vertex -8.50882 -30.4049 1
      vertex -15.9163 -48.4992 1
      vertex -14.4038 -50.6011 1
    endloop
  endfacet
  facet normal 0 0 1
    outer loop
      vertex -8.50882 -30.4049 1
      vertex -12.6694 -52.4315 1
      vertex -10.7245 -53.9804 1
    endloop
  endfacet
  facet normal 0 0 1
    outer loop
      vertex 11.5517 -39.1014 1
      vertex 20.4381 -45.4598 1
      vertex 22.1042 -41.1118 1
    endloop
  endfacet
  facet normal 0 0 1
    outer loop
      vertex 20.4381 -45.4598 1
      vertex 10.6241 -41.6037 1
      vertex 18.3777 -49.1389 1
    endloop
  endfacet
  facet normal -0 0 1
    outer loop
      vertex 9.56395 -43.721 1
      vertex 18.3777 -49.1389 1
      vertex 10.6241 -41.6037 1
    endloop
  endfacet
  facet normal 0 0 1
    outer loop
      vertex 20.4381 -45.4598 1
      vertex 11.5517 -39.1014 1
      vertex 10.6241 -41.6037 1
    endloop
  endfacet
  facet normal 0 0 1
    outer loop
      vertex 18.3777 -49.1389 1
      vertex 9.56395 -43.721 1
      vertex 15.9229 -52.149 1
    endloop
  endfacet
  facet normal -0 0 1
    outer loop
      vertex 8.37125 -45.4534 1
      vertex 15.9229 -52.149 1
      vertex 9.56395 -43.721 1
    endloop
  endfacet
  facet normal 0 0 1
    outer loop
      vertex 15.9229 -52.149 1
      vertex 8.37125 -45.4534 1
      vertex 13.0736 -54.4902 1
    endloop
  endfacet
  facet normal -0 0 1
    outer loop
      vertex 7.04599 -46.8008 1
      vertex 13.0736 -54.4902 1
      vertex 8.37125 -45.4534 1
    endloop
  endfacet
  facet normal 0 0 1
    outer loop
      vertex 13.0736 -54.4902 1
      vertex 7.04599 -46.8008 1
      vertex 9.8299 -56.1626 1
    endloop
  endfacet
  facet normal -0 0 1
    outer loop
      vertex 5.5882 -47.7632 1
      vertex 9.8299 -56.1626 1
      vertex 7.04599 -46.8008 1
    endloop
  endfacet
  facet normal 0 0 1
    outer loop
      vertex 9.8299 -56.1626 1
      vertex 5.5882 -47.7632 1
      vertex 6.1918 -57.166 1
    endloop
  endfacet
  facet normal -0 0 1
    outer loop
      vertex 3.99786 -48.3407 1
      vertex 6.1918 -57.166 1
      vertex 5.5882 -47.7632 1
    endloop
  endfacet
  facet normal 0 0 1
    outer loop
      vertex 2.15929 -57.5004 1
      vertex 3.99786 -48.3407 1
      vertex 2.27499 -48.5332 1
    endloop
  endfacet
  facet normal 0 0 1
    outer loop
      vertex 3.99786 -48.3407 1
      vertex 2.15929 -57.5004 1
      vertex 6.1918 -57.166 1
    endloop
  endfacet
  facet normal 0 0 1
    outer loop
      vertex 0.794479 -48.4369 1
      vertex 2.15929 -57.5004 1
      vertex 2.27499 -48.5332 1
    endloop
  endfacet
  facet normal 0 0 1
    outer loop
      vertex -0.838654 -57.3596 1
      vertex 0.794479 -48.4369 1
      vertex -0.577179 -48.1482 1
    endloop
  endfacet
  facet normal 0 0 1
    outer loop
      vertex 0.794479 -48.4369 1
      vertex -0.838654 -57.3596 1
      vertex 2.15929 -57.5004 1
    endloop
  endfacet
  facet normal 0 0 1
    outer loop
      vertex -3.62599 -56.9372 1
      vertex -0.577179 -48.1482 1
      vertex -1.84003 -47.667 1
    endloop
  endfacet
  facet normal 0 0 1
    outer loop
      vertex -6.20274 -56.2332 1
      vertex -1.84003 -47.667 1
      vertex -2.99403 -46.9934 1
    endloop
  endfacet
  facet normal 0 0 1
    outer loop
      vertex -0.577179 -48.1482 1
      vertex -3.62599 -56.9372 1
      vertex -0.838654 -57.3596 1
    endloop
  endfacet
  facet normal 0 0 1
    outer loop
      vertex -8.56889 -55.2476 1
      vertex -2.99403 -46.9934 1
      vertex -4.0392 -46.1272 1
    endloop
  endfacet
  facet normal 0 0 1
    outer loop
      vertex -8.56889 -55.2476 1
      vertex -4.0392 -46.1272 1
      vertex -4.97554 -45.0686 1
    endloop
  endfacet
  facet normal 0 0 1
    outer loop
      vertex -8.56889 -55.2476 1
      vertex -4.97554 -45.0686 1
      vertex -5.80304 -43.8176 1
    endloop
  endfacet
  facet normal 0 0 1
    outer loop
      vertex -1.84003 -47.667 1
      vertex -6.20274 -56.2332 1
      vertex -3.62599 -56.9372 1
    endloop
  endfacet
  facet normal 0 0 1
    outer loop
      vertex -8.56889 -55.2476 1
      vertex -5.80304 -43.8176 1
      vertex -6.5209 -42.3889 1
    endloop
  endfacet
  facet normal 0 0 1
    outer loop
      vertex -8.56889 -55.2476 1
      vertex -6.5209 -42.3889 1
      vertex -7.12833 -40.7977 1
    endloop
  endfacet
  facet normal 0 0 1
    outer loop
      vertex -8.56889 -55.2476 1
      vertex -7.12833 -40.7977 1
      vertex -7.62531 -39.0441 1
    endloop
  endfacet
  facet normal 0 0 1
    outer loop
      vertex -8.56889 -55.2476 1
      vertex -7.62531 -39.0441 1
      vertex -8.01184 -37.1279 1
    endloop
  endfacet
  facet normal 0 0 1
    outer loop
      vertex -8.56889 -55.2476 1
      vertex -8.01184 -37.1279 1
      vertex -8.28795 -35.0494 1
    endloop
  endfacet
  facet normal 0 0 1
    outer loop
      vertex -2.99403 -46.9934 1
      vertex -8.56889 -55.2476 1
      vertex -6.20274 -56.2332 1
    endloop
  endfacet
  facet normal 0 0 1
    outer loop
      vertex -8.4536 -32.8084 1
      vertex -8.56889 -55.2476 1
      vertex -8.28795 -35.0494 1
    endloop
  endfacet
  facet normal 0 0 1
    outer loop
      vertex -8.56889 -55.2476 1
      vertex -8.4536 -32.8084 1
      vertex -8.50882 -30.4049 1
    endloop
  endfacet
  facet normal 0.265876 -0.964007 0
    outer loop
      vertex 6.1918 -57.166 0
      vertex 9.8299 -56.1626 1
      vertex 6.1918 -57.166 1
    endloop
  endfacet
  facet normal 0.265876 -0.964007 0
    outer loop
      vertex 9.8299 -56.1626 1
      vertex 6.1918 -57.166 0
      vertex 9.8299 -56.1626 0
    endloop
  endfacet
  facet normal 0.45826 -0.888818 0
    outer loop
      vertex 9.8299 -56.1626 0
      vertex 13.0736 -54.4902 1
      vertex 9.8299 -56.1626 1
    endloop
  endfacet
  facet normal 0.45826 -0.888818 0
    outer loop
      vertex 13.0736 -54.4902 1
      vertex 9.8299 -56.1626 0
      vertex 13.0736 -54.4902 0
    endloop
  endfacet
  facet normal 0.634853 -0.772633 0
    outer loop
      vertex 13.0736 -54.4902 0
      vertex 15.9229 -52.149 1
      vertex 13.0736 -54.4902 1
    endloop
  endfacet
  facet normal 0.634853 -0.772633 0
    outer loop
      vertex 15.9229 -52.149 1
      vertex 13.0736 -54.4902 0
      vertex 15.9229 -52.149 0
    endloop
  endfacet
  facet normal 0.774967 -0.632002 0
    outer loop
      vertex 15.9229 -52.149 1
      vertex 18.3777 -49.1389 0
      vertex 18.3777 -49.1389 1
    endloop
  endfacet
  facet normal 0.774967 -0.632002 0
    outer loop
      vertex 18.3777 -49.1389 0
      vertex 15.9229 -52.149 1
      vertex 15.9229 -52.149 0
    endloop
  endfacet
  facet normal 0.872496 -0.488622 0
    outer loop
      vertex 18.3777 -49.1389 1
      vertex 20.4381 -45.4598 0
      vertex 20.4381 -45.4598 1
    endloop
  endfacet
  facet normal 0.872496 -0.488622 0
    outer loop
      vertex 20.4381 -45.4598 0
      vertex 18.3777 -49.1389 1
      vertex 18.3777 -49.1389 0
    endloop
  endfacet
  facet normal 0.933792 -0.357817 0
    outer loop
      vertex 20.4381 -45.4598 1
      vertex 22.1042 -41.1118 0
      vertex 22.1042 -41.1118 1
    endloop
  endfacet
  facet normal 0.933792 -0.357817 0
    outer loop
      vertex 22.1042 -41.1118 0
      vertex 20.4381 -45.4598 1
      vertex 20.4381 -45.4598 0
    endloop
  endfacet
  facet normal 0.187148 0.982332 -0
    outer loop
      vertex 22.1042 -41.1118 0
      vertex 11.5517 -39.1014 1
      vertex 22.1042 -41.1118 1
    endloop
  endfacet
  facet normal 0.187148 0.982332 0
    outer loop
      vertex 11.5517 -39.1014 1
      vertex 22.1042 -41.1118 0
      vertex 11.5517 -39.1014 0
    endloop
  endfacet
  facet normal -0.937648 0.347585 0
    outer loop
      vertex 10.6241 -41.6037 0
      vertex 11.5517 -39.1014 1
      vertex 11.5517 -39.1014 0
    endloop
  endfacet
  facet normal -0.937648 0.347585 0
    outer loop
      vertex 11.5517 -39.1014 1
      vertex 10.6241 -41.6037 0
      vertex 10.6241 -41.6037 1
    endloop
  endfacet
  facet normal -0.894174 0.44772 0
    outer loop
      vertex 9.56395 -43.721 0
      vertex 10.6241 -41.6037 1
      vertex 10.6241 -41.6037 0
    endloop
  endfacet
  facet normal -0.894174 0.44772 0
    outer loop
      vertex 10.6241 -41.6037 1
      vertex 9.56395 -43.721 0
      vertex 9.56395 -43.721 1
    endloop
  endfacet
  facet normal -0.82367 0.567069 0
    outer loop
      vertex 8.37125 -45.4534 0
      vertex 9.56395 -43.721 1
      vertex 9.56395 -43.721 0
    endloop
  endfacet
  facet normal -0.82367 0.567069 0
    outer loop
      vertex 9.56395 -43.721 1
      vertex 8.37125 -45.4534 0
      vertex 8.37125 -45.4534 1
    endloop
  endfacet
  facet normal -0.71294 0.701225 0
    outer loop
      vertex 7.04599 -46.8008 0
      vertex 8.37125 -45.4534 1
      vertex 8.37125 -45.4534 0
    endloop
  endfacet
  facet normal -0.71294 0.701225 0
    outer loop
      vertex 8.37125 -45.4534 1
      vertex 7.04599 -46.8008 0
      vertex 7.04599 -46.8008 1
    endloop
  endfacet
  facet normal -0.550945 0.834541 0
    outer loop
      vertex 7.04599 -46.8008 0
      vertex 5.5882 -47.7632 1
      vertex 7.04599 -46.8008 1
    endloop
  endfacet
  facet normal -0.550945 0.834541 0
    outer loop
      vertex 5.5882 -47.7632 1
      vertex 7.04599 -46.8008 0
      vertex 5.5882 -47.7632 0
    endloop
  endfacet
  facet normal -0.341323 0.939946 0
    outer loop
      vertex 5.5882 -47.7632 0
      vertex 3.99786 -48.3407 1
      vertex 5.5882 -47.7632 1
    endloop
  endfacet
  facet normal -0.341323 0.939946 0
    outer loop
      vertex 3.99786 -48.3407 1
      vertex 5.5882 -47.7632 0
      vertex 3.99786 -48.3407 0
    endloop
  endfacet
  facet normal -0.111041 0.993816 0
    outer loop
      vertex 3.99786 -48.3407 0
      vertex 2.27499 -48.5332 1
      vertex 3.99786 -48.3407 1
    endloop
  endfacet
  facet normal -0.111041 0.993816 0
    outer loop
      vertex 2.27499 -48.5332 1
      vertex 3.99786 -48.3407 0
      vertex 2.27499 -48.5332 0
    endloop
  endfacet
  facet normal 0.0649079 0.997891 -0
    outer loop
      vertex 2.27499 -48.5332 0
      vertex 0.794479 -48.4369 1
      vertex 2.27499 -48.5332 1
    endloop
  endfacet
  facet normal 0.0649079 0.997891 0
    outer loop
      vertex 0.794479 -48.4369 1
      vertex 2.27499 -48.5332 0
      vertex 0.794479 -48.4369 0
    endloop
  endfacet
  facet normal 0.205963 0.97856 -0
    outer loop
      vertex 0.794479 -48.4369 0
      vertex -0.577179 -48.1482 1
      vertex 0.794479 -48.4369 1
    endloop
  endfacet
  facet normal 0.205963 0.97856 0
    outer loop
      vertex -0.577179 -48.1482 1
      vertex 0.794479 -48.4369 0
      vertex -0.577179 -48.1482 0
    endloop
  endfacet
  facet normal 0.356069 0.93446 -0
    outer loop
      vertex -0.577179 -48.1482 0
      vertex -1.84003 -47.667 1
      vertex -0.577179 -48.1482 1
    endloop
  endfacet
  facet normal 0.356069 0.93446 0
    outer loop
      vertex -1.84003 -47.667 1
      vertex -0.577179 -48.1482 0
      vertex -1.84003 -47.667 0
    endloop
  endfacet
  facet normal 0.504113 0.863638 -0
    outer loop
      vertex -1.84003 -47.667 0
      vertex -2.99403 -46.9934 1
      vertex -1.84003 -47.667 1
    endloop
  endfacet
  facet normal 0.504113 0.863638 0
    outer loop
      vertex -2.99403 -46.9934 1
      vertex -1.84003 -47.667 0
      vertex -2.99403 -46.9934 0
    endloop
  endfacet
  facet normal 0.638106 0.769948 -0
    outer loop
      vertex -2.99403 -46.9934 0
      vertex -4.0392 -46.1272 1
      vertex -2.99403 -46.9934 1
    endloop
  endfacet
  facet normal 0.638106 0.769948 0
    outer loop
      vertex -4.0392 -46.1272 1
      vertex -2.99403 -46.9934 0
      vertex -4.0392 -46.1272 0
    endloop
  endfacet
  facet normal 0.749037 0.662529 0
    outer loop
      vertex -4.0392 -46.1272 1
      vertex -4.97554 -45.0686 0
      vertex -4.97554 -45.0686 1
    endloop
  endfacet
  facet normal 0.749037 0.662529 0
    outer loop
      vertex -4.97554 -45.0686 0
      vertex -4.0392 -46.1272 1
      vertex -4.0392 -46.1272 0
    endloop
  endfacet
  facet normal 0.834045 0.551696 0
    outer loop
      vertex -4.97554 -45.0686 1
      vertex -5.80304 -43.8176 0
      vertex -5.80304 -43.8176 1
    endloop
  endfacet
  facet normal 0.834045 0.551696 0
    outer loop
      vertex -5.80304 -43.8176 0
      vertex -4.97554 -45.0686 1
      vertex -4.97554 -45.0686 0
    endloop
  endfacet
  facet normal 0.893547 0.448969 0
    outer loop
      vertex -5.80304 -43.8176 1
      vertex -6.5209 -42.3889 0
      vertex -6.5209 -42.3889 1
    endloop
  endfacet
  facet normal 0.893547 0.448969 0
    outer loop
      vertex -6.5209 -42.3889 0
      vertex -5.80304 -43.8176 1
      vertex -5.80304 -43.8176 0
    endloop
  endfacet
  facet normal 0.934242 0.356641 0
    outer loop
      vertex -6.5209 -42.3889 1
      vertex -7.12833 -40.7977 0
      vertex -7.12833 -40.7977 1
    endloop
  endfacet
  facet normal 0.934242 0.356641 0
    outer loop
      vertex -7.12833 -40.7977 0
      vertex -6.5209 -42.3889 1
      vertex -6.5209 -42.3889 0
    endloop
  endfacet
  facet normal 0.962108 0.272667 0
    outer loop
      vertex -7.12833 -40.7977 1
      vertex -7.62531 -39.0441 0
      vertex -7.62531 -39.0441 1
    endloop
  endfacet
  facet normal 0.962108 0.272667 0
    outer loop
      vertex -7.62531 -39.0441 0
      vertex -7.12833 -40.7977 1
      vertex -7.12833 -40.7977 0
    endloop
  endfacet
  facet normal 0.980256 0.197734 0
    outer loop
      vertex -7.62531 -39.0441 1
      vertex -8.01184 -37.1279 0
      vertex -8.01184 -37.1279 1
    endloop
  endfacet
  facet normal 0.980256 0.197734 0
    outer loop
      vertex -8.01184 -37.1279 0
      vertex -7.62531 -39.0441 1
      vertex -7.62531 -39.0441 0
    endloop
  endfacet
  facet normal 0.991292 0.131684 0
    outer loop
      vertex -8.01184 -37.1279 1
      vertex -8.28795 -35.0494 0
      vertex -8.28795 -35.0494 1
    endloop
  endfacet
  facet normal 0.991292 0.131684 0
    outer loop
      vertex -8.28795 -35.0494 0
      vertex -8.01184 -37.1279 1
      vertex -8.01184 -37.1279 0
    endloop
  endfacet
  facet normal 0.997279 0.0737168 0
    outer loop
      vertex -8.28795 -35.0494 1
      vertex -8.4536 -32.8084 0
      vertex -8.4536 -32.8084 1
    endloop
  endfacet
  facet normal 0.997279 0.0737168 0
    outer loop
      vertex -8.4536 -32.8084 0
      vertex -8.28795 -35.0494 1
      vertex -8.28795 -35.0494 0
    endloop
  endfacet
  facet normal 0.999736 0.0229688 0
    outer loop
      vertex -8.4536 -32.8084 1
      vertex -8.50882 -30.4049 0
      vertex -8.50882 -30.4049 1
    endloop
  endfacet
  facet normal 0.999736 0.0229688 0
    outer loop
      vertex -8.50882 -30.4049 0
      vertex -8.4536 -32.8084 1
      vertex -8.4536 -32.8084 0
    endloop
  endfacet
  facet normal 0.998954 -0.0457316 0
    outer loop
      vertex -8.50882 -30.4049 1
      vertex -8.29427 -25.7183 0
      vertex -8.29427 -25.7183 1
    endloop
  endfacet
  facet normal 0.998954 -0.0457316 0
    outer loop
      vertex -8.29427 -25.7183 0
      vertex -8.50882 -30.4049 1
      vertex -8.50882 -30.4049 0
    endloop
  endfacet
  facet normal 0.987081 -0.160224 0
    outer loop
      vertex -8.29427 -25.7183 1
      vertex -7.65057 -21.7527 0
      vertex -7.65057 -21.7527 1
    endloop
  endfacet
  facet normal 0.987081 -0.160224 0
    outer loop
      vertex -7.65057 -21.7527 0
      vertex -8.29427 -25.7183 1
      vertex -8.29427 -25.7183 0
    endloop
  endfacet
  facet normal 0.949445 -0.313935 0
    outer loop
      vertex -7.65057 -21.7527 1
      vertex -6.57774 -18.5081 0
      vertex -6.57774 -18.5081 1
    endloop
  endfacet
  facet normal 0.949445 -0.313935 0
    outer loop
      vertex -6.57774 -18.5081 0
      vertex -7.65057 -21.7527 1
      vertex -7.65057 -21.7527 0
    endloop
  endfacet
  facet normal 0.859313 -0.51145 0
    outer loop
      vertex -6.57774 -18.5081 1
      vertex -5.07579 -15.9846 0
      vertex -5.07579 -15.9846 1
    endloop
  endfacet
  facet normal 0.859313 -0.51145 0
    outer loop
      vertex -5.07579 -15.9846 0
      vertex -6.57774 -18.5081 1
      vertex -6.57774 -18.5081 0
    endloop
  endfacet
  facet normal 0.68235 -0.731025 0
    outer loop
      vertex -5.07579 -15.9846 0
      vertex -3.14471 -14.1821 1
      vertex -5.07579 -15.9846 1
    endloop
  endfacet
  facet normal 0.68235 -0.731025 0
    outer loop
      vertex -3.14471 -14.1821 1
      vertex -5.07579 -15.9846 0
      vertex -3.14471 -14.1821 0
    endloop
  endfacet
  facet normal 0.416605 -0.909088 0
    outer loop
      vertex -3.14471 -14.1821 0
      vertex -0.784515 -13.1005 1
      vertex -3.14471 -14.1821 1
    endloop
  endfacet
  facet normal 0.416605 -0.909088 0
    outer loop
      vertex -0.784515 -13.1005 1
      vertex -3.14471 -14.1821 0
      vertex -0.784515 -13.1005 0
    endloop
  endfacet
  facet normal 0.128177 -0.991751 0
    outer loop
      vertex -0.784515 -13.1005 0
      vertex 2.00481 -12.74 1
      vertex -0.784515 -13.1005 1
    endloop
  endfacet
  facet normal 0.128177 -0.991751 0
    outer loop
      vertex 2.00481 -12.74 1
      vertex -0.784515 -13.1005 0
      vertex 2.00481 -12.74 0
    endloop
  endfacet
  facet normal -0.0566046 -0.998397 0
    outer loop
      vertex 2.00481 -12.74 0
      vertex 2.81969 -12.7862 1
      vertex 2.00481 -12.74 1
    endloop
  endfacet
  facet normal -0.0566046 -0.998397 -0
    outer loop
      vertex 2.81969 -12.7862 1
      vertex 2.00481 -12.74 0
      vertex 2.81969 -12.7862 0
    endloop
  endfacet
  facet normal -0.172976 -0.984926 0
    outer loop
      vertex 2.81969 -12.7862 0
      vertex 3.60774 -12.9246 1
      vertex 2.81969 -12.7862 1
    endloop
  endfacet
  facet normal -0.172976 -0.984926 -0
    outer loop
      vertex 3.60774 -12.9246 1
      vertex 2.81969 -12.7862 0
      vertex 3.60774 -12.9246 0
    endloop
  endfacet
  facet normal -0.290035 -0.957016 0
    outer loop
      vertex 3.60774 -12.9246 0
      vertex 4.36897 -13.1553 1
      vertex 3.60774 -12.9246 1
    endloop
  endfacet
  facet normal -0.290035 -0.957016 -0
    outer loop
      vertex 4.36897 -13.1553 1
      vertex 3.60774 -12.9246 0
      vertex 4.36897 -13.1553 0
    endloop
  endfacet
  facet normal -0.402696 -0.915334 0
    outer loop
      vertex 4.36897 -13.1553 0
      vertex 5.10338 -13.4784 1
      vertex 4.36897 -13.1553 1
    endloop
  endfacet
  facet normal -0.402696 -0.915334 -0
    outer loop
      vertex 5.10338 -13.4784 1
      vertex 4.36897 -13.1553 0
      vertex 5.10338 -13.4784 0
    endloop
  endfacet
  facet normal -0.506184 -0.862426 0
    outer loop
      vertex 5.10338 -13.4784 0
      vertex 5.81096 -13.8937 1
      vertex 5.10338 -13.4784 1
    endloop
  endfacet
  facet normal -0.506184 -0.862426 -0
    outer loop
      vertex 5.81096 -13.8937 1
      vertex 5.10338 -13.4784 0
      vertex 5.81096 -13.8937 0
    endloop
  endfacet
  facet normal -0.597765 -0.801671 0
    outer loop
      vertex 5.81096 -13.8937 0
      vertex 6.49171 -14.4013 1
      vertex 5.81096 -13.8937 1
    endloop
  endfacet
  facet normal -0.597765 -0.801671 -0
    outer loop
      vertex 6.49171 -14.4013 1
      vertex 5.81096 -13.8937 0
      vertex 6.49171 -14.4013 0
    endloop
  endfacet
  facet normal -0.676003 -0.736899 0
    outer loop
      vertex 6.49171 -14.4013 0
      vertex 7.14565 -15.0012 1
      vertex 6.49171 -14.4013 1
    endloop
  endfacet
  facet normal -0.676003 -0.736899 -0
    outer loop
      vertex 7.14565 -15.0012 1
      vertex 6.49171 -14.4013 0
      vertex 7.14565 -15.0012 0
    endloop
  endfacet
  facet normal -0.741997 -0.670403 0
    outer loop
      vertex 7.76329 -15.6848 0
      vertex 7.14565 -15.0012 1
      vertex 7.14565 -15.0012 0
    endloop
  endfacet
  facet normal -0.741997 -0.670403 0
    outer loop
      vertex 7.14565 -15.0012 1
      vertex 7.76329 -15.6848 0
      vertex 7.76329 -15.6848 1
    endloop
  endfacet
  facet normal -0.798431 -0.602087 0
    outer loop
      vertex 8.33519 -16.4432 0
      vertex 7.76329 -15.6848 1
      vertex 7.76329 -15.6848 0
    endloop
  endfacet
  facet normal -0.798431 -0.602087 0
    outer loop
      vertex 7.76329 -15.6848 1
      vertex 8.33519 -16.4432 0
      vertex 8.33519 -16.4432 1
    endloop
  endfacet
  facet normal -0.845604 -0.533811 0
    outer loop
      vertex 8.86136 -17.2767 0
      vertex 8.33519 -16.4432 1
      vertex 8.33519 -16.4432 0
    endloop
  endfacet
  facet normal -0.845604 -0.533811 0
    outer loop
      vertex 8.33519 -16.4432 1
      vertex 8.86136 -17.2767 0
      vertex 8.86136 -17.2767 1
    endloop
  endfacet
  facet normal -0.88398 -0.467525 0
    outer loop
      vertex 9.3418 -18.1851 0
      vertex 8.86136 -17.2767 1
      vertex 8.86136 -17.2767 0
    endloop
  endfacet
  facet normal -0.88398 -0.467525 0
    outer loop
      vertex 8.86136 -17.2767 1
      vertex 9.3418 -18.1851 0
      vertex 9.3418 -18.1851 1
    endloop
  endfacet
  facet normal -0.914637 -0.404276 0
    outer loop
      vertex 9.77647 -19.1685 0
      vertex 9.3418 -18.1851 1
      vertex 9.3418 -18.1851 0
    endloop
  endfacet
  facet normal -0.914637 -0.404276 0
    outer loop
      vertex 9.3418 -18.1851 1
      vertex 9.77647 -19.1685 0
      vertex 9.77647 -19.1685 1
    endloop
  endfacet
  facet normal -0.938622 -0.344948 0
    outer loop
      vertex 10.1654 -20.2268 0
      vertex 9.77647 -19.1685 1
      vertex 9.77647 -19.1685 0
    endloop
  endfacet
  facet normal -0.938622 -0.344948 0
    outer loop
      vertex 9.77647 -19.1685 1
      vertex 10.1654 -20.2268 0
      vertex 10.1654 -20.2268 1
    endloop
  endfacet
  facet normal -0.957077 -0.289834 0
    outer loop
      vertex 10.5086 -21.3601 0
      vertex 10.1654 -20.2268 1
      vertex 10.1654 -20.2268 0
    endloop
  endfacet
  facet normal -0.957077 -0.289834 0
    outer loop
      vertex 10.1654 -20.2268 1
      vertex 10.5086 -21.3601 0
      vertex 10.5086 -21.3601 1
    endloop
  endfacet
  facet normal 0.23582 -0.971797 0
    outer loop
      vertex 10.5086 -21.3601 0
      vertex 21.0223 -18.8088 1
      vertex 10.5086 -21.3601 1
    endloop
  endfacet
  facet normal 0.23582 -0.971797 0
    outer loop
      vertex 21.0223 -18.8088 1
      vertex 10.5086 -21.3601 0
      vertex 21.0223 -18.8088 0
    endloop
  endfacet
  facet normal 0.946085 0.323919 0
    outer loop
      vertex 21.0223 -18.8088 1
      vertex 20.3182 -16.7523 0
      vertex 20.3182 -16.7523 1
    endloop
  endfacet
  facet normal 0.946085 0.323919 0
    outer loop
      vertex 20.3182 -16.7523 0
      vertex 21.0223 -18.8088 1
      vertex 21.0223 -18.8088 0
    endloop
  endfacet
  facet normal 0.920558 0.390607 0
    outer loop
      vertex 20.3182 -16.7523 1
      vertex 19.5092 -14.8457 0
      vertex 19.5092 -14.8457 1
    endloop
  endfacet
  facet normal 0.920558 0.390607 0
    outer loop
      vertex 19.5092 -14.8457 0
      vertex 20.3182 -16.7523 1
      vertex 20.3182 -16.7523 0
    endloop
  endfacet
  facet normal 0.887162 0.461458 0
    outer loop
      vertex 19.5092 -14.8457 1
      vertex 18.5954 -13.0889 0
      vertex 18.5954 -13.0889 1
    endloop
  endfacet
  facet normal 0.887162 0.461458 0
    outer loop
      vertex 18.5954 -13.0889 0
      vertex 19.5092 -14.8457 1
      vertex 19.5092 -14.8457 0
    endloop
  endfacet
  facet normal 0.84452 0.535525 0
    outer loop
      vertex 18.5954 -13.0889 1
      vertex 17.5765 -11.4821 0
      vertex 17.5765 -11.4821 1
    endloop
  endfacet
  facet normal 0.84452 0.535525 0
    outer loop
      vertex 17.5765 -11.4821 0
      vertex 18.5954 -13.0889 1
      vertex 18.5954 -13.0889 0
    endloop
  endfacet
  facet normal 0.791807 0.610771 0
    outer loop
      vertex 17.5765 -11.4821 1
      vertex 16.4527 -10.0252 0
      vertex 16.4527 -10.0252 1
    endloop
  endfacet
  facet normal 0.791807 0.610771 0
    outer loop
      vertex 16.4527 -10.0252 0
      vertex 17.5765 -11.4821 1
      vertex 17.5765 -11.4821 0
    endloop
  endfacet
  facet normal 0.728638 0.684899 0
    outer loop
      vertex 16.4527 -10.0252 1
      vertex 15.2241 -8.71814 0
      vertex 15.2241 -8.71814 1
    endloop
  endfacet
  facet normal 0.728638 0.684899 0
    outer loop
      vertex 15.2241 -8.71814 0
      vertex 16.4527 -10.0252 1
      vertex 16.4527 -10.0252 0
    endloop
  endfacet
  facet normal 0.65534 0.755334 -0
    outer loop
      vertex 15.2241 -8.71814 0
      vertex 13.8904 -7.561 1
      vertex 15.2241 -8.71814 1
    endloop
  endfacet
  facet normal 0.65534 0.755334 0
    outer loop
      vertex 13.8904 -7.561 1
      vertex 15.2241 -8.71814 0
      vertex 13.8904 -7.561 0
    endloop
  endfacet
  facet normal 0.574041 0.818827 -0
    outer loop
      vertex 13.8904 -7.561 0
      vertex 12.4568 -6.55597 1
      vertex 13.8904 -7.561 1
    endloop
  endfacet
  facet normal 0.574041 0.818827 0
    outer loop
      vertex 12.4568 -6.55597 1
      vertex 13.8904 -7.561 0
      vertex 12.4568 -6.55597 0
    endloop
  endfacet
  facet normal 0.486045 0.873934 -0
    outer loop
      vertex 12.4568 -6.55597 0
      vertex 10.9277 -5.70555 1
      vertex 12.4568 -6.55597 1
    endloop
  endfacet
  facet normal 0.486045 0.873934 0
    outer loop
      vertex 10.9277 -5.70555 1
      vertex 12.4568 -6.55597 0
      vertex 10.9277 -5.70555 0
    endloop
  endfacet
  facet normal 0.393711 0.919234 -0
    outer loop
      vertex 10.9277 -5.70555 0
      vertex 9.30315 -5.00975 1
      vertex 10.9277 -5.70555 1
    endloop
  endfacet
  facet normal 0.393711 0.919234 0
    outer loop
      vertex 9.30315 -5.00975 1
      vertex 10.9277 -5.70555 0
      vertex 9.30315 -5.00975 0
    endloop
  endfacet
  facet normal 0.300115 0.953903 -0
    outer loop
      vertex 9.30315 -5.00975 0
      vertex 7.58313 -4.4686 1
      vertex 9.30315 -5.00975 1
    endloop
  endfacet
  facet normal 0.300115 0.953903 0
    outer loop
      vertex 7.58313 -4.4686 1
      vertex 9.30315 -5.00975 0
      vertex 7.58313 -4.4686 0
    endloop
  endfacet
  facet normal 0.208251 0.978075 -0
    outer loop
      vertex 7.58313 -4.4686 0
      vertex 5.76765 -4.08205 1
      vertex 7.58313 -4.4686 1
    endloop
  endfacet
  facet normal 0.208251 0.978075 0
    outer loop
      vertex 5.76765 -4.08205 1
      vertex 7.58313 -4.4686 0
      vertex 5.76765 -4.08205 0
    endloop
  endfacet
  facet normal 0.120492 0.992714 -0
    outer loop
      vertex 5.76765 -4.08205 0
      vertex 3.85674 -3.85011 1
      vertex 5.76765 -4.08205 1
    endloop
  endfacet
  facet normal 0.120492 0.992714 0
    outer loop
      vertex 3.85674 -3.85011 1
      vertex 5.76765 -4.08205 0
      vertex 3.85674 -3.85011 0
    endloop
  endfacet
  facet normal 0.0385031 0.999258 -0
    outer loop
      vertex 3.85674 -3.85011 0
      vertex 1.85034 -3.7728 1
      vertex 3.85674 -3.85011 1
    endloop
  endfacet
  facet normal 0.0385031 0.999258 0
    outer loop
      vertex 1.85034 -3.7728 1
      vertex 3.85674 -3.85011 0
      vertex 1.85034 -3.7728 0
    endloop
  endfacet
  facet normal -0.0929051 0.995675 0
    outer loop
      vertex 1.85034 -3.7728 0
      vertex -3.97452 -4.31631 1
      vertex 1.85034 -3.7728 1
    endloop
  endfacet
  facet normal -0.0929051 0.995675 0
    outer loop
      vertex -3.97452 -4.31631 1
      vertex 1.85034 -3.7728 0
      vertex -3.97452 -4.31631 0
    endloop
  endfacet
  facet normal -0.314081 0.949396 0
    outer loop
      vertex -3.97452 -4.31631 0
      vertex -8.90324 -5.94684 1
      vertex -3.97452 -4.31631 1
    endloop
  endfacet
  facet normal -0.314081 0.949396 0
    outer loop
      vertex -8.90324 -5.94684 1
      vertex -3.97452 -4.31631 0
      vertex -8.90324 -5.94684 0
    endloop
  endfacet
  facet normal -0.558849 0.82927 0
    outer loop
      vertex -8.90324 -5.94684 0
      vertex -12.9358 -8.6644 1
      vertex -8.90324 -5.94684 1
    endloop
  endfacet
  facet normal -0.558849 0.82927 0
    outer loop
      vertex -12.9358 -8.6644 1
      vertex -8.90324 -5.94684 0
      vertex -12.9358 -8.6644 0
    endloop
  endfacet
  facet normal -0.771602 0.636106 0
    outer loop
      vertex -16.0723 -12.469 0
      vertex -12.9358 -8.6644 1
      vertex -12.9358 -8.6644 0
    endloop
  endfacet
  facet normal -0.771602 0.636106 0
    outer loop
      vertex -12.9358 -8.6644 1
      vertex -16.0723 -12.469 0
      vertex -16.0723 -12.469 1
    endloop
  endfacet
  facet normal -0.909183 0.416396 0
    outer loop
      vertex -18.3126 -17.3606 0
      vertex -16.0723 -12.469 1
      vertex -16.0723 -12.469 0
    endloop
  endfacet
  facet normal -0.909183 0.416396 0
    outer loop
      vertex -16.0723 -12.469 1
      vertex -18.3126 -17.3606 0
      vertex -18.3126 -17.3606 1
    endloop
  endfacet
  facet normal -0.975644 0.219359 0
    outer loop
      vertex -19.6568 -23.3392 0
      vertex -18.3126 -17.3606 1
      vertex -18.3126 -17.3606 0
    endloop
  endfacet
  facet normal -0.975644 0.219359 0
    outer loop
      vertex -18.3126 -17.3606 1
      vertex -19.6568 -23.3392 0
      vertex -19.6568 -23.3392 1
    endloop
  endfacet
  facet normal -0.997995 0.0632919 0
    outer loop
      vertex -20.1049 -30.4049 0
      vertex -19.6568 -23.3392 1
      vertex -19.6568 -23.3392 0
    endloop
  endfacet
  facet normal -0.997995 0.0632919 0
    outer loop
      vertex -19.6568 -23.3392 1
      vertex -20.1049 -30.4049 0
      vertex -20.1049 -30.4049 1
    endloop
  endfacet
  facet normal -0.999498 -0.0316873 0
    outer loop
      vertex -19.9886 -34.0733 0
      vertex -20.1049 -30.4049 1
      vertex -20.1049 -30.4049 0
    endloop
  endfacet
  facet normal -0.999498 -0.0316873 0
    outer loop
      vertex -20.1049 -30.4049 1
      vertex -19.9886 -34.0733 0
      vertex -19.9886 -34.0733 1
    endloop
  endfacet
  facet normal -0.994793 -0.10192 0
    outer loop
      vertex -19.6395 -37.4807 0
      vertex -19.9886 -34.0733 1
      vertex -19.9886 -34.0733 0
    endloop
  endfacet
  facet normal -0.994793 -0.10192 0
    outer loop
      vertex -19.9886 -34.0733 1
      vertex -19.6395 -37.4807 0
      vertex -19.6395 -37.4807 1
    endloop
  endfacet
  facet normal -0.983334 -0.181808 0
    outer loop
      vertex -19.0578 -40.6269 0
      vertex -19.6395 -37.4807 1
      vertex -19.6395 -37.4807 0
    endloop
  endfacet
  facet normal -0.983334 -0.181808 0
    outer loop
      vertex -19.6395 -37.4807 1
      vertex -19.0578 -40.6269 0
      vertex -19.0578 -40.6269 1
    endloop
  endfacet
  facet normal -0.962386 -0.271684 0
    outer loop
      vertex -18.2433 -43.5121 0
      vertex -19.0578 -40.6269 1
      vertex -19.0578 -40.6269 0
    endloop
  endfacet
  facet normal -0.962386 -0.271684 0
    outer loop
      vertex -19.0578 -40.6269 1
      vertex -18.2433 -43.5121 0
      vertex -18.2433 -43.5121 1
    endloop
  endfacet
  facet normal -0.928786 -0.370616 0
    outer loop
      vertex -17.1962 -46.1362 0
      vertex -18.2433 -43.5121 1
      vertex -18.2433 -43.5121 0
    endloop
  endfacet
  facet normal -0.928786 -0.370616 0
    outer loop
      vertex -18.2433 -43.5121 1
      vertex -17.1962 -46.1362 0
      vertex -17.1962 -46.1362 1
    endloop
  endfacet
  facet normal -0.879301 -0.476266 0
    outer loop
      vertex -15.9163 -48.4992 0
      vertex -17.1962 -46.1362 1
      vertex -17.1962 -46.1362 0
    endloop
  endfacet
  facet normal -0.879301 -0.476266 0
    outer loop
      vertex -17.1962 -46.1362 1
      vertex -15.9163 -48.4992 0
      vertex -15.9163 -48.4992 1
    endloop
  endfacet
  facet normal -0.811693 -0.584084 0
    outer loop
      vertex -14.4038 -50.6011 0
      vertex -15.9163 -48.4992 1
      vertex -15.9163 -48.4992 0
    endloop
  endfacet
  facet normal -0.811693 -0.584084 0
    outer loop
      vertex -15.9163 -48.4992 1
      vertex -14.4038 -50.6011 0
      vertex -14.4038 -50.6011 1
    endloop
  endfacet
  facet normal -0.725886 -0.687815 0
    outer loop
      vertex -12.6694 -52.4315 0
      vertex -14.4038 -50.6011 1
      vertex -14.4038 -50.6011 0
    endloop
  endfacet
  facet normal -0.725886 -0.687815 0
    outer loop
      vertex -14.4038 -50.6011 1
      vertex -12.6694 -52.4315 0
      vertex -12.6694 -52.4315 1
    endloop
  endfacet
  facet normal -0.622972 -0.782244 0
    outer loop
      vertex -12.6694 -52.4315 0
      vertex -10.7245 -53.9804 1
      vertex -12.6694 -52.4315 1
    endloop
  endfacet
  facet normal -0.622972 -0.782244 -0
    outer loop
      vertex -10.7245 -53.9804 1
      vertex -12.6694 -52.4315 0
      vertex -10.7245 -53.9804 0
    endloop
  endfacet
  facet normal -0.506781 -0.862075 0
    outer loop
      vertex -10.7245 -53.9804 0
      vertex -8.56889 -55.2476 1
      vertex -10.7245 -53.9804 1
    endloop
  endfacet
  facet normal -0.506781 -0.862075 -0
    outer loop
      vertex -8.56889 -55.2476 1
      vertex -10.7245 -53.9804 0
      vertex -8.56889 -55.2476 0
    endloop
  endfacet
  facet normal -0.384517 -0.923118 0
    outer loop
      vertex -8.56889 -55.2476 0
      vertex -6.20274 -56.2332 1
      vertex -8.56889 -55.2476 1
    endloop
  endfacet
  facet normal -0.384517 -0.923118 -0
    outer loop
      vertex -6.20274 -56.2332 1
      vertex -8.56889 -55.2476 0
      vertex -6.20274 -56.2332 0
    endloop
  endfacet
  facet normal -0.263553 -0.964645 0
    outer loop
      vertex -6.20274 -56.2332 0
      vertex -3.62599 -56.9372 1
      vertex -6.20274 -56.2332 1
    endloop
  endfacet
  facet normal -0.263553 -0.964645 -0
    outer loop
      vertex -3.62599 -56.9372 1
      vertex -6.20274 -56.2332 0
      vertex -3.62599 -56.9372 0
    endloop
  endfacet
  facet normal -0.149832 -0.988711 0
    outer loop
      vertex -3.62599 -56.9372 0
      vertex -0.838654 -57.3596 1
      vertex -3.62599 -56.9372 1
    endloop
  endfacet
  facet normal -0.149832 -0.988711 -0
    outer loop
      vertex -0.838654 -57.3596 1
      vertex -3.62599 -56.9372 0
      vertex -0.838654 -57.3596 0
    endloop
  endfacet
  facet normal -0.0469138 -0.998899 0
    outer loop
      vertex -0.838654 -57.3596 0
      vertex 2.15929 -57.5004 1
      vertex -0.838654 -57.3596 1
    endloop
  endfacet
  facet normal -0.0469138 -0.998899 -0
    outer loop
      vertex 2.15929 -57.5004 1
      vertex -0.838654 -57.3596 0
      vertex 2.15929 -57.5004 0
    endloop
  endfacet
  facet normal 0.0826424 -0.996579 0
    outer loop
      vertex 2.15929 -57.5004 0
      vertex 6.1918 -57.166 1
      vertex 2.15929 -57.5004 1
    endloop
  endfacet
  facet normal 0.0826424 -0.996579 0
    outer loop
      vertex 6.1918 -57.166 1
      vertex 2.15929 -57.5004 0
      vertex 6.1918 -57.166 0
    endloop
  endfacet
endsolid OpenSCAD_Model
