<?xml version="1.0" standalone="no"?>
<!DOCTYPE svg PUBLIC "-//W3C//DTD SVG 1.1//EN" "http://www.w3.org/Graphics/SVG/1.1/DTD/svg11.dtd">
<svg width="44mm" height="55mm" viewBox="-21 3 44 55" xmlns="http://www.w3.org/2000/svg" version="1.1">
<title>OpenSCAD Model</title>
<path d="
M 6.1918,57.166 L 9.8299,56.1626 L 13.0736,54.4902 L 15.9229,52.149 L 18.3777,49.1389 L 20.4381,45.4598
 L 22.1042,41.1118 L 11.5517,39.1014 L 10.6241,41.6037 L 9.56395,43.721 L 8.37125,45.4534 L 7.04599,46.8008
 L 5.5882,47.7632 L 3.99786,48.3407 L 2.27499,48.5332 L 0.794479,48.4369 L -0.577179,48.1482 L -1.84003,47.667
 L -2.99403,46.9934 L -4.0392,46.1272 L -4.97554,45.0686 L -5.80304,43.8176 L -6.5209,42.3889 L -7.12833,40.7977
 L -7.62531,39.0441 L -8.01184,37.1279 L -8.28795,35.0494 L -8.4536,32.8084 L -8.50882,30.4049 L -8.29427,25.7183
 L -7.65057,21.7527 L -6.57774,18.5081 L -5.07579,15.9846 L -3.14471,14.1821 L -0.784515,13.1005 L 2.00481,12.74
 L 2.81969,12.7862 L 3.60774,12.9246 L 4.36897,13.1553 L 5.10338,13.4784 L 5.81096,13.8937 L 6.49171,14.4013
 L 7.14565,15.0012 L 7.76329,15.6848 L 8.33519,16.4432 L 8.86136,17.2767 L 9.3418,18.1851 L 9.77647,19.1685
 L 10.1654,20.2268 L 10.5086,21.3601 L 21.0223,18.8088 L 20.3182,16.7523 L 19.5092,14.8457 L 18.5954,13.0889
 L 17.5765,11.4821 L 16.4527,10.0252 L 15.2241,8.71814 L 13.8904,7.561 L 12.4568,6.55597 L 10.9277,5.70555
 L 9.30315,5.00975 L 7.58313,4.4686 L 5.76765,4.08205 L 3.85674,3.85011 L 1.85034,3.7728 L -3.97452,4.31631
 L -8.90324,5.94684 L -12.9358,8.6644 L -16.0723,12.469 L -18.3126,17.3606 L -19.6568,23.3392 L -20.1049,30.4049
 L -19.9886,34.0733 L -19.6395,37.4807 L -19.0578,40.6269 L -18.2433,43.5121 L -17.1962,46.1362 L -15.9163,48.4992
 L -14.4038,50.6011 L -12.6694,52.4315 L -10.7245,53.9804 L -8.56889,55.2476 L -6.20274,56.2332 L -3.62599,56.9372
 L -0.838654,57.3596 L 2.15929,57.5004 z
" stroke="black" fill="lightgray" stroke-width="0.5"/>
</svg>
