  0
SECTION
  2
BLOCKS
  0
ENDSEC
  0
SECTION
  2
ENTITIES
  0
LINE
  8
0
 10
-6.49901
 20
-36.0376
 11
0.188217
 21
-36.0376
  0
LINE
  8
0
 10
0.188217
 20
-36.0376
 11
11.3973
 21
-55.9437
  0
LINE
  8
0
 10
11.3973
 20
-55.9437
 11
24.2303
 21
-55.9437
  0
LINE
  8
0
 10
24.2303
 20
-55.9437
 11
10.7401
 21
-33.4863
  0
LINE
  8
0
 10
10.7401
 20
-33.4863
 11
12.1419
 21
-33.0106
  0
LINE
  8
0
 10
12.1419
 20
-33.0106
 11
13.4538
 21
-32.445
  0
LINE
  8
0
 10
13.4538
 20
-32.445
 11
14.6758
 21
-31.7894
  0
LINE
  8
0
 10
14.6758
 20
-31.7894
 11
15.8078
 21
-31.0439
  0
LINE
  8
0
 10
15.8078
 20
-31.0439
 11
16.8499
 21
-30.2085
  0
LINE
  8
0
 10
16.8499
 20
-30.2085
 11
17.802
 21
-29.2832
  0
LINE
  8
0
 10
17.802
 20
-29.2832
 11
18.6642
 21
-28.268
  0
LINE
  8
0
 10
18.6642
 20
-28.268
 11
19.423
 21
-27.1754
  0
LINE
  8
0
 10
19.423
 20
-27.1754
 11
20.0651
 21
-26.0182
  0
LINE
  8
0
 10
20.0651
 20
-26.0182
 11
20.5905
 21
-24.7963
  0
LINE
  8
0
 10
20.5905
 20
-24.7963
 11
20.9991
 21
-23.5097
  0
LINE
  8
0
 10
20.9991
 20
-23.5097
 11
21.291
 21
-22.1585
  0
LINE
  8
0
 10
21.291
 20
-22.1585
 11
21.4661
 21
-20.7426
  0
LINE
  8
0
 10
21.4661
 20
-20.7426
 11
21.5245
 21
-19.262
  0
LINE
  8
0
 10
21.5245
 20
-19.262
 11
21.4211
 21
-17.1912
  0
LINE
  8
0
 10
21.4211
 20
-17.1912
 11
21.1111
 21
-15.2641
  0
LINE
  8
0
 10
21.1111
 20
-15.2641
 11
20.5944
 21
-13.4805
  0
LINE
  8
0
 10
20.5944
 20
-13.4805
 11
19.8709
 21
-11.8405
  0
LINE
  8
0
 10
19.8709
 20
-11.8405
 11
18.9408
 21
-10.3441
  0
LINE
  8
0
 10
18.9408
 20
-10.3441
 11
17.8041
 21
-8.99135
  0
LINE
  8
0
 10
17.8041
 20
-8.99135
 11
16.4606
 21
-7.78217
  0
LINE
  8
0
 10
16.4606
 20
-7.78217
 11
14.909
 21
-6.72586
  0
LINE
  8
0
 10
14.909
 20
-6.72586
 11
13.1476
 21
-5.83206
  0
LINE
  8
0
 10
13.1476
 20
-5.83206
 11
11.1764
 21
-5.10078
  0
LINE
  8
0
 10
11.1764
 20
-5.10078
 11
8.9953
 21
-4.53201
  0
LINE
  8
0
 10
8.9953
 20
-4.53201
 11
6.6044
 21
-4.12575
  0
LINE
  8
0
 10
6.6044
 20
-4.12575
 11
4.00368
 21
-3.88199
  0
LINE
  8
0
 10
4.00368
 20
-3.88199
 11
1.19313
 21
-3.80072
  0
LINE
  8
0
 10
1.19313
 20
-3.80072
 11
-17.9019
 21
-3.80072
  0
LINE
  8
0
 10
-17.9019
 20
-3.80072
 11
-17.9019
 21
-55.9437
  0
LINE
  8
0
 10
-17.9019
 20
-55.9437
 11
-6.49901
 21
-55.9437
  0
LINE
  8
0
 10
-6.49901
 20
-55.9437
 11
-6.49901
 21
-36.0376
  0
LINE
  8
0
 10
-6.49901
 20
-27.1855
 11
-6.49901
 21
-12.6522
  0
LINE
  8
0
 10
-6.49901
 20
-12.6522
 11
-0.00498962
 21
-12.6522
  0
LINE
  8
0
 10
-0.00498962
 20
-12.6522
 11
1.43849
 21
-12.6873
  0
LINE
  8
0
 10
1.43849
 20
-12.6873
 11
2.76523
 21
-12.7927
  0
LINE
  8
0
 10
2.76523
 20
-12.7927
 11
3.97523
 21
-12.9682
  0
LINE
  8
0
 10
3.97523
 20
-12.9682
 11
5.0685
 21
-13.214
  0
LINE
  8
0
 10
5.0685
 20
-13.214
 11
6.04501
 21
-13.5299
  0
LINE
  8
0
 10
6.04501
 20
-13.5299
 11
6.90479
 21
-13.9161
  0
LINE
  8
0
 10
6.90479
 20
-13.9161
 11
7.64781
 21
-14.3725
  0
LINE
  8
0
 10
7.64781
 20
-14.3725
 11
8.28371
 21
-14.9029
  0
LINE
  8
0
 10
8.28371
 20
-14.9029
 11
8.82178
 21
-15.5114
  0
LINE
  8
0
 10
8.82178
 20
-15.5114
 11
9.26201
 21
-16.1981
  0
LINE
  8
0
 10
9.26201
 20
-16.1981
 11
9.60442
 21
-16.9629
  0
LINE
  8
0
 10
9.60442
 20
-16.9629
 11
9.849
 21
-17.8058
  0
LINE
  8
0
 10
9.849
 20
-17.8058
 11
9.99574
 21
-18.7268
  0
LINE
  8
0
 10
9.99574
 20
-18.7268
 11
10.0447
 21
-19.7259
  0
LINE
  8
0
 10
10.0447
 20
-19.7259
 11
9.84587
 21
-21.705
  0
LINE
  8
0
 10
9.84587
 20
-21.705
 11
9.2495
 21
-23.3796
  0
LINE
  8
0
 10
9.2495
 20
-23.3796
 11
8.25554
 21
-24.7497
  0
LINE
  8
0
 10
8.25554
 20
-24.7497
 11
6.86401
 21
-25.8154
  0
LINE
  8
0
 10
6.86401
 20
-25.8154
 11
5.07491
 21
-26.5766
  0
LINE
  8
0
 10
5.07491
 20
-26.5766
 11
2.8882
 21
-27.0333
  0
LINE
  8
0
 10
2.8882
 20
-27.0333
 11
0.303925
 21
-27.1855
  0
LINE
  8
0
 10
0.303925
 20
-27.1855
 11
-6.49901
 21
-27.1855
  0
ENDSEC
  0
SECTION
  2
OBJECTS
  0
DICTIONARY
  0
ENDSEC
  0
EOF
