<?xml version="1.0" standalone="no"?>
<!DOCTYPE svg PUBLIC "-//W3C//DTD SVG 1.1//EN" "http://www.w3.org/Graphics/SVG/1.1/DTD/svg11.dtd">
<svg width="43mm" height="53mm" viewBox="-18 3 43 53" xmlns="http://www.w3.org/2000/svg" version="1.1">
<title>OpenSCAD Model</title>
<path d="
M -6.49901,36.0376 L 0.188217,36.0376 L 11.3973,55.9437 L 24.2303,55.9437 L 10.7401,33.4863 L 12.1419,33.0106
 L 13.4538,32.445 L 14.6758,31.7894 L 15.8078,31.0439 L 16.8499,30.2085 L 17.802,29.2832 L 18.6642,28.268
 L 19.423,27.1754 L 20.0651,26.0182 L 20.5905,24.7963 L 20.9991,23.5097 L 21.291,22.1585 L 21.4661,20.7426
 L 21.5245,19.262 L 21.4211,17.1912 L 21.1111,15.2641 L 20.5944,13.4805 L 19.8709,11.8405 L 18.9408,10.3441
 L 17.8041,8.99135 L 16.4606,7.78217 L 14.909,6.72586 L 13.1476,5.83206 L 11.1764,5.10078 L 8.9953,4.53201
 L 6.6044,4.12575 L 4.00368,3.88199 L 1.19313,3.80072 L -17.9019,3.80072 L -17.9019,55.9437 L -6.49901,55.9437
 z
M -6.49901,27.1855 L -6.49901,12.6522 L -0.00498962,12.6522 L 1.43849,12.6873 L 2.76523,12.7927 L 3.97523,12.9682
 L 5.0685,13.214 L 6.04501,13.5299 L 6.90479,13.9161 L 7.64781,14.3725 L 8.28371,14.9029 L 8.82178,15.5114
 L 9.26201,16.1981 L 9.60442,16.9629 L 9.849,17.8058 L 9.99574,18.7268 L 10.0447,19.7259 L 9.84587,21.705
 L 9.2495,23.3796 L 8.25554,24.7497 L 6.86401,25.8154 L 5.07491,26.5766 L 2.8882,27.0333 L 0.303925,27.1855
 z
" stroke="black" fill="lightgray" stroke-width="0.5"/>
</svg>
