solid OpenSCAD_Model
  facet normal 0 0 -1
    outer loop
      vertex -17.9019 -55.9437 0
      vertex -6.49901 -36.0376 0
      vertex -6.49901 -55.9437 0
    endloop
  endfacet
  facet normal -0 0 -1
    outer loop
      vertex -6.49901 -36.0376 0
      vertex -17.9019 -55.9437 0
      vertex -6.49901 -27.1855 0
    endloop
  endfacet
  facet normal 0 0 -1
    outer loop
      vertex -17.9019 -3.80072 0
      vertex -6.49901 -27.1855 0
      vertex -17.9019 -55.9437 0
    endloop
  endfacet
  facet normal 0 0 -1
    outer loop
      vertex 11.3973 -55.9437 0
      vertex 10.7401 -33.4863 0
      vertex 24.2303 -55.9437 0
    endloop
  endfacet
  facet normal 0 0 -1
    outer loop
      vertex 0.188217 -36.0376 0
      vertex 10.7401 -33.4863 0
      vertex 11.3973 -55.9437 0
    endloop
  endfacet
  facet normal 0 0 -1
    outer loop
      vertex 10.7401 -33.4863 0
      vertex 9.84587 -21.705 0
      vertex 10.0447 -19.7259 0
    endloop
  endfacet
  facet normal 0 0 -1
    outer loop
      vertex 10.7401 -33.4863 0
      vertex 9.2495 -23.3796 0
      vertex 9.84587 -21.705 0
    endloop
  endfacet
  facet normal 0 0 -1
    outer loop
      vertex 10.7401 -33.4863 0
      vertex 8.25554 -24.7497 0
      vertex 9.2495 -23.3796 0
    endloop
  endfacet
  facet normal 0 0 -1
    outer loop
      vertex 10.7401 -33.4863 0
      vertex 6.86401 -25.8154 0
      vertex 8.25554 -24.7497 0
    endloop
  endfacet
  facet normal 0 -0 -1
    outer loop
      vertex 2.8882 -27.0333 0
      vertex 10.7401 -33.4863 0
      vertex 0.188217 -36.0376 0
    endloop
  endfacet
  facet normal 0 0 -1
    outer loop
      vertex 10.7401 -33.4863 0
      vertex 5.07491 -26.5766 0
      vertex 6.86401 -25.8154 0
    endloop
  endfacet
  facet normal 0 0 -1
    outer loop
      vertex 10.7401 -33.4863 0
      vertex 2.8882 -27.0333 0
      vertex 5.07491 -26.5766 0
    endloop
  endfacet
  facet normal 0 0 -1
    outer loop
      vertex 2.8882 -27.0333 0
      vertex 0.188217 -36.0376 0
      vertex 0.303925 -27.1855 0
    endloop
  endfacet
  facet normal 0 0 -1
    outer loop
      vertex -6.49901 -27.1855 0
      vertex 0.188217 -36.0376 0
      vertex -6.49901 -36.0376 0
    endloop
  endfacet
  facet normal 0 0 -1
    outer loop
      vertex 0.188217 -36.0376 0
      vertex -6.49901 -27.1855 0
      vertex 0.303925 -27.1855 0
    endloop
  endfacet
  facet normal 0 0 -1
    outer loop
      vertex 10.0447 -19.7259 0
      vertex 21.5245 -19.262 0
      vertex 21.4661 -20.7426 0
    endloop
  endfacet
  facet normal 0 0 -1
    outer loop
      vertex 10.0447 -19.7259 0
      vertex 21.4661 -20.7426 0
      vertex 21.291 -22.1585 0
    endloop
  endfacet
  facet normal 0 0 -1
    outer loop
      vertex 9.99574 -18.7268 0
      vertex 21.5245 -19.262 0
      vertex 10.0447 -19.7259 0
    endloop
  endfacet
  facet normal 0 0 -1
    outer loop
      vertex 10.0447 -19.7259 0
      vertex 21.291 -22.1585 0
      vertex 20.9991 -23.5097 0
    endloop
  endfacet
  facet normal 0 0 -1
    outer loop
      vertex 21.5245 -19.262 0
      vertex 9.99574 -18.7268 0
      vertex 21.4211 -17.1912 0
    endloop
  endfacet
  facet normal 0 0 -1
    outer loop
      vertex 10.0447 -19.7259 0
      vertex 20.9991 -23.5097 0
      vertex 20.5905 -24.7963 0
    endloop
  endfacet
  facet normal 0 0 -1
    outer loop
      vertex 10.0447 -19.7259 0
      vertex 20.5905 -24.7963 0
      vertex 20.0651 -26.0182 0
    endloop
  endfacet
  facet normal 0 0 -1
    outer loop
      vertex 9.849 -17.8058 0
      vertex 21.4211 -17.1912 0
      vertex 9.99574 -18.7268 0
    endloop
  endfacet
  facet normal 0 0 -1
    outer loop
      vertex 10.0447 -19.7259 0
      vertex 20.0651 -26.0182 0
      vertex 19.423 -27.1754 0
    endloop
  endfacet
  facet normal -0 0 -1
    outer loop
      vertex 21.4211 -17.1912 0
      vertex 9.849 -17.8058 0
      vertex 21.1111 -15.2641 0
    endloop
  endfacet
  facet normal 0 0 -1
    outer loop
      vertex 10.0447 -19.7259 0
      vertex 19.423 -27.1754 0
      vertex 18.6642 -28.268 0
    endloop
  endfacet
  facet normal -0 0 -1
    outer loop
      vertex 21.1111 -15.2641 0
      vertex 9.849 -17.8058 0
      vertex 20.5944 -13.4805 0
    endloop
  endfacet
  facet normal 0 0 -1
    outer loop
      vertex 10.0447 -19.7259 0
      vertex 18.6642 -28.268 0
      vertex 17.802 -29.2832 0
    endloop
  endfacet
  facet normal 0 0 -1
    outer loop
      vertex 10.0447 -19.7259 0
      vertex 17.802 -29.2832 0
      vertex 16.8499 -30.2085 0
    endloop
  endfacet
  facet normal 0 0 -1
    outer loop
      vertex 9.60442 -16.9629 0
      vertex 20.5944 -13.4805 0
      vertex 9.849 -17.8058 0
    endloop
  endfacet
  facet normal 0 0 -1
    outer loop
      vertex 10.0447 -19.7259 0
      vertex 16.8499 -30.2085 0
      vertex 15.8078 -31.0439 0
    endloop
  endfacet
  facet normal -0 0 -1
    outer loop
      vertex 20.5944 -13.4805 0
      vertex 9.60442 -16.9629 0
      vertex 19.8709 -11.8405 0
    endloop
  endfacet
  facet normal 0 0 -1
    outer loop
      vertex 10.0447 -19.7259 0
      vertex 15.8078 -31.0439 0
      vertex 14.6758 -31.7894 0
    endloop
  endfacet
  facet normal 0 0 -1
    outer loop
      vertex 10.0447 -19.7259 0
      vertex 14.6758 -31.7894 0
      vertex 13.4538 -32.445 0
    endloop
  endfacet
  facet normal 0 0 -1
    outer loop
      vertex 9.26201 -16.1981 0
      vertex 19.8709 -11.8405 0
      vertex 9.60442 -16.9629 0
    endloop
  endfacet
  facet normal 0 0 -1
    outer loop
      vertex 10.0447 -19.7259 0
      vertex 13.4538 -32.445 0
      vertex 12.1419 -33.0106 0
    endloop
  endfacet
  facet normal -0 0 -1
    outer loop
      vertex 19.8709 -11.8405 0
      vertex 9.26201 -16.1981 0
      vertex 18.9408 -10.3441 0
    endloop
  endfacet
  facet normal 0 0 -1
    outer loop
      vertex 10.0447 -19.7259 0
      vertex 12.1419 -33.0106 0
      vertex 10.7401 -33.4863 0
    endloop
  endfacet
  facet normal -0 0 -1
    outer loop
      vertex 18.9408 -10.3441 0
      vertex 9.26201 -16.1981 0
      vertex 17.8041 -8.99135 0
    endloop
  endfacet
  facet normal 0 0 -1
    outer loop
      vertex 8.82178 -15.5114 0
      vertex 17.8041 -8.99135 0
      vertex 9.26201 -16.1981 0
    endloop
  endfacet
  facet normal -0 0 -1
    outer loop
      vertex 17.8041 -8.99135 0
      vertex 8.82178 -15.5114 0
      vertex 16.4606 -7.78217 0
    endloop
  endfacet
  facet normal -0 0 -1
    outer loop
      vertex 16.4606 -7.78217 0
      vertex 8.82178 -15.5114 0
      vertex 14.909 -6.72586 0
    endloop
  endfacet
  facet normal 0 0 -1
    outer loop
      vertex 8.28371 -14.9029 0
      vertex 14.909 -6.72586 0
      vertex 8.82178 -15.5114 0
    endloop
  endfacet
  facet normal -0 0 -1
    outer loop
      vertex 14.909 -6.72586 0
      vertex 8.28371 -14.9029 0
      vertex 13.1476 -5.83206 0
    endloop
  endfacet
  facet normal 0 0 -1
    outer loop
      vertex 7.64781 -14.3725 0
      vertex 13.1476 -5.83206 0
      vertex 8.28371 -14.9029 0
    endloop
  endfacet
  facet normal -0 0 -1
    outer loop
      vertex 13.1476 -5.83206 0
      vertex 7.64781 -14.3725 0
      vertex 11.1764 -5.10078 0
    endloop
  endfacet
  facet normal 0 0 -1
    outer loop
      vertex 6.90479 -13.9161 0
      vertex 11.1764 -5.10078 0
      vertex 7.64781 -14.3725 0
    endloop
  endfacet
  facet normal -0 0 -1
    outer loop
      vertex 11.1764 -5.10078 0
      vertex 6.90479 -13.9161 0
      vertex 8.9953 -4.53201 0
    endloop
  endfacet
  facet normal 0 0 -1
    outer loop
      vertex 6.04501 -13.5299 0
      vertex 8.9953 -4.53201 0
      vertex 6.90479 -13.9161 0
    endloop
  endfacet
  facet normal -0 0 -1
    outer loop
      vertex 8.9953 -4.53201 0
      vertex 6.04501 -13.5299 0
      vertex 6.6044 -4.12575 0
    endloop
  endfacet
  facet normal 0 0 -1
    outer loop
      vertex 5.0685 -13.214 0
      vertex 6.6044 -4.12575 0
      vertex 6.04501 -13.5299 0
    endloop
  endfacet
  facet normal 0 0 -1
    outer loop
      vertex 3.97523 -12.9682 0
      vertex 6.6044 -4.12575 0
      vertex 5.0685 -13.214 0
    endloop
  endfacet
  facet normal -0 0 -1
    outer loop
      vertex 6.6044 -4.12575 0
      vertex 3.97523 -12.9682 0
      vertex 4.00368 -3.88199 0
    endloop
  endfacet
  facet normal 0 0 -1
    outer loop
      vertex 2.76523 -12.7927 0
      vertex 4.00368 -3.88199 0
      vertex 3.97523 -12.9682 0
    endloop
  endfacet
  facet normal 0 0 -1
    outer loop
      vertex 1.43849 -12.6873 0
      vertex 4.00368 -3.88199 0
      vertex 2.76523 -12.7927 0
    endloop
  endfacet
  facet normal 0 0 -1
    outer loop
      vertex 1.43849 -12.6873 0
      vertex 1.19313 -3.80072 0
      vertex 4.00368 -3.88199 0
    endloop
  endfacet
  facet normal 0 0 -1
    outer loop
      vertex -0.00498962 -12.6522 0
      vertex 1.19313 -3.80072 0
      vertex 1.43849 -12.6873 0
    endloop
  endfacet
  facet normal 0 0 -1
    outer loop
      vertex -6.49901 -12.6522 0
      vertex 1.19313 -3.80072 0
      vertex -0.00498962 -12.6522 0
    endloop
  endfacet
  facet normal 0 0 -1
    outer loop
      vertex -6.49901 -12.6522 0
      vertex -17.9019 -3.80072 0
      vertex 1.19313 -3.80072 0
    endloop
  endfacet
  facet normal 0 0 -1
    outer loop
      vertex -6.49901 -27.1855 0
      vertex -17.9019 -3.80072 0
      vertex -6.49901 -12.6522 0
    endloop
  endfacet
  facet normal -0 0 1
    outer loop
      vertex 9.99574 -18.7268 1
      vertex 21.5245 -19.262 1
      vertex 21.4211 -17.1912 1
    endloop
  endfacet
  facet normal 0 0 1
    outer loop
      vertex 21.5245 -19.262 1
      vertex 10.0447 -19.7259 1
      vertex 21.4661 -20.7426 1
    endloop
  endfacet
  facet normal 0 0 1
    outer loop
      vertex 9.849 -17.8058 1
      vertex 21.4211 -17.1912 1
      vertex 21.1111 -15.2641 1
    endloop
  endfacet
  facet normal 0 0 1
    outer loop
      vertex 21.5245 -19.262 1
      vertex 9.99574 -18.7268 1
      vertex 10.0447 -19.7259 1
    endloop
  endfacet
  facet normal 0 0 1
    outer loop
      vertex 9.849 -17.8058 1
      vertex 21.1111 -15.2641 1
      vertex 20.5944 -13.4805 1
    endloop
  endfacet
  facet normal 0 0 1
    outer loop
      vertex 21.4661 -20.7426 1
      vertex 10.0447 -19.7259 1
      vertex 21.291 -22.1585 1
    endloop
  endfacet
  facet normal 0 0 1
    outer loop
      vertex 21.291 -22.1585 1
      vertex 9.84587 -21.705 1
      vertex 20.9991 -23.5097 1
    endloop
  endfacet
  facet normal 0 0 1
    outer loop
      vertex 9.60442 -16.9629 1
      vertex 20.5944 -13.4805 1
      vertex 19.8709 -11.8405 1
    endloop
  endfacet
  facet normal 0 0 1
    outer loop
      vertex 20.9991 -23.5097 1
      vertex 9.84587 -21.705 1
      vertex 20.5905 -24.7963 1
    endloop
  endfacet
  facet normal 0 0 1
    outer loop
      vertex 9.26201 -16.1981 1
      vertex 19.8709 -11.8405 1
      vertex 18.9408 -10.3441 1
    endloop
  endfacet
  facet normal 0 0 1
    outer loop
      vertex 20.5905 -24.7963 1
      vertex 9.84587 -21.705 1
      vertex 20.0651 -26.0182 1
    endloop
  endfacet
  facet normal 0 0 1
    outer loop
      vertex 9.26201 -16.1981 1
      vertex 18.9408 -10.3441 1
      vertex 17.8041 -8.99135 1
    endloop
  endfacet
  facet normal -0 0 1
    outer loop
      vertex 9.84587 -21.705 1
      vertex 21.291 -22.1585 1
      vertex 10.0447 -19.7259 1
    endloop
  endfacet
  facet normal -0 0 1
    outer loop
      vertex 9.2495 -23.3796 1
      vertex 19.423 -27.1754 1
      vertex 9.84587 -21.705 1
    endloop
  endfacet
  facet normal 0 0 1
    outer loop
      vertex 8.82178 -15.5114 1
      vertex 17.8041 -8.99135 1
      vertex 16.4606 -7.78217 1
    endloop
  endfacet
  facet normal 0 0 1
    outer loop
      vertex 19.423 -27.1754 1
      vertex 9.2495 -23.3796 1
      vertex 18.6642 -28.268 1
    endloop
  endfacet
  facet normal 0 0 1
    outer loop
      vertex 8.82178 -15.5114 1
      vertex 16.4606 -7.78217 1
      vertex 14.909 -6.72586 1
    endloop
  endfacet
  facet normal 0 0 1
    outer loop
      vertex 18.6642 -28.268 1
      vertex 9.2495 -23.3796 1
      vertex 17.802 -29.2832 1
    endloop
  endfacet
  facet normal 0 0 1
    outer loop
      vertex 17.802 -29.2832 1
      vertex 9.2495 -23.3796 1
      vertex 16.8499 -30.2085 1
    endloop
  endfacet
  facet normal 0 0 1
    outer loop
      vertex 8.28371 -14.9029 1
      vertex 14.909 -6.72586 1
      vertex 13.1476 -5.83206 1
    endloop
  endfacet
  facet normal 0 0 1
    outer loop
      vertex 16.8499 -30.2085 1
      vertex 9.2495 -23.3796 1
      vertex 15.8078 -31.0439 1
    endloop
  endfacet
  facet normal 0 0 1
    outer loop
      vertex 7.64781 -14.3725 1
      vertex 13.1476 -5.83206 1
      vertex 11.1764 -5.10078 1
    endloop
  endfacet
  facet normal -0 0 1
    outer loop
      vertex 8.25554 -24.7497 1
      vertex 15.8078 -31.0439 1
      vertex 9.2495 -23.3796 1
    endloop
  endfacet
  facet normal 0 0 1
    outer loop
      vertex 15.8078 -31.0439 1
      vertex 8.25554 -24.7497 1
      vertex 14.6758 -31.7894 1
    endloop
  endfacet
  facet normal 0 0 1
    outer loop
      vertex 20.0651 -26.0182 1
      vertex 9.84587 -21.705 1
      vertex 19.423 -27.1754 1
    endloop
  endfacet
  facet normal 0 0 1
    outer loop
      vertex 21.4211 -17.1912 1
      vertex 9.849 -17.8058 1
      vertex 9.99574 -18.7268 1
    endloop
  endfacet
  facet normal 0 0 1
    outer loop
      vertex 20.5944 -13.4805 1
      vertex 9.60442 -16.9629 1
      vertex 9.849 -17.8058 1
    endloop
  endfacet
  facet normal 0 0 1
    outer loop
      vertex 19.8709 -11.8405 1
      vertex 9.26201 -16.1981 1
      vertex 9.60442 -16.9629 1
    endloop
  endfacet
  facet normal 0 0 1
    outer loop
      vertex 6.90479 -13.9161 1
      vertex 11.1764 -5.10078 1
      vertex 8.9953 -4.53201 1
    endloop
  endfacet
  facet normal 0 0 1
    outer loop
      vertex 17.8041 -8.99135 1
      vertex 8.82178 -15.5114 1
      vertex 9.26201 -16.1981 1
    endloop
  endfacet
  facet normal 0 0 1
    outer loop
      vertex 14.909 -6.72586 1
      vertex 8.28371 -14.9029 1
      vertex 8.82178 -15.5114 1
    endloop
  endfacet
  facet normal 0 0 1
    outer loop
      vertex 13.1476 -5.83206 1
      vertex 7.64781 -14.3725 1
      vertex 8.28371 -14.9029 1
    endloop
  endfacet
  facet normal 0 0 1
    outer loop
      vertex 11.1764 -5.10078 1
      vertex 6.90479 -13.9161 1
      vertex 7.64781 -14.3725 1
    endloop
  endfacet
  facet normal 0 0 1
    outer loop
      vertex 6.04501 -13.5299 1
      vertex 8.9953 -4.53201 1
      vertex 6.6044 -4.12575 1
    endloop
  endfacet
  facet normal 0 0 1
    outer loop
      vertex 8.9953 -4.53201 1
      vertex 6.04501 -13.5299 1
      vertex 6.90479 -13.9161 1
    endloop
  endfacet
  facet normal 0 0 1
    outer loop
      vertex 6.6044 -4.12575 1
      vertex 5.0685 -13.214 1
      vertex 6.04501 -13.5299 1
    endloop
  endfacet
  facet normal 0 0 1
    outer loop
      vertex 3.97523 -12.9682 1
      vertex 6.6044 -4.12575 1
      vertex 4.00368 -3.88199 1
    endloop
  endfacet
  facet normal 0 0 1
    outer loop
      vertex 6.6044 -4.12575 1
      vertex 3.97523 -12.9682 1
      vertex 5.0685 -13.214 1
    endloop
  endfacet
  facet normal 0 0 1
    outer loop
      vertex 4.00368 -3.88199 1
      vertex 2.76523 -12.7927 1
      vertex 3.97523 -12.9682 1
    endloop
  endfacet
  facet normal 0 0 1
    outer loop
      vertex 4.00368 -3.88199 1
      vertex 1.43849 -12.6873 1
      vertex 2.76523 -12.7927 1
    endloop
  endfacet
  facet normal 0 0 1
    outer loop
      vertex 1.19313 -3.80072 1
      vertex 1.43849 -12.6873 1
      vertex 4.00368 -3.88199 1
    endloop
  endfacet
  facet normal 0 0 1
    outer loop
      vertex 1.19313 -3.80072 1
      vertex -0.00498962 -12.6522 1
      vertex 1.43849 -12.6873 1
    endloop
  endfacet
  facet normal 0 0 1
    outer loop
      vertex 1.19313 -3.80072 1
      vertex -6.49901 -12.6522 1
      vertex -0.00498962 -12.6522 1
    endloop
  endfacet
  facet normal 0 0 1
    outer loop
      vertex -17.9019 -3.80072 1
      vertex -6.49901 -27.1855 1
      vertex -6.49901 -12.6522 1
    endloop
  endfacet
  facet normal 0 0 1
    outer loop
      vertex -17.9019 -55.9437 1
      vertex -6.49901 -27.1855 1
      vertex -17.9019 -3.80072 1
    endloop
  endfacet
  facet normal -0 0 1
    outer loop
      vertex -17.9019 -3.80072 1
      vertex -6.49901 -12.6522 1
      vertex 1.19313 -3.80072 1
    endloop
  endfacet
  facet normal 0 0 1
    outer loop
      vertex -6.49901 -27.1855 1
      vertex -17.9019 -55.9437 1
      vertex -6.49901 -36.0376 1
    endloop
  endfacet
  facet normal 0 0 1
    outer loop
      vertex -6.49901 -36.0376 1
      vertex -17.9019 -55.9437 1
      vertex -6.49901 -55.9437 1
    endloop
  endfacet
  facet normal 0 0 1
    outer loop
      vertex 10.7401 -33.4863 1
      vertex 11.3973 -55.9437 1
      vertex 24.2303 -55.9437 1
    endloop
  endfacet
  facet normal 0 0 1
    outer loop
      vertex 14.6758 -31.7894 1
      vertex 8.25554 -24.7497 1
      vertex 13.4538 -32.445 1
    endloop
  endfacet
  facet normal 0 0 1
    outer loop
      vertex 13.4538 -32.445 1
      vertex 8.25554 -24.7497 1
      vertex 12.1419 -33.0106 1
    endloop
  endfacet
  facet normal -0 0 1
    outer loop
      vertex 6.86401 -25.8154 1
      vertex 12.1419 -33.0106 1
      vertex 8.25554 -24.7497 1
    endloop
  endfacet
  facet normal 0 0 1
    outer loop
      vertex 12.1419 -33.0106 1
      vertex 6.86401 -25.8154 1
      vertex 10.7401 -33.4863 1
    endloop
  endfacet
  facet normal -0 0 1
    outer loop
      vertex 5.07491 -26.5766 1
      vertex 10.7401 -33.4863 1
      vertex 6.86401 -25.8154 1
    endloop
  endfacet
  facet normal -0 0 1
    outer loop
      vertex 2.8882 -27.0333 1
      vertex 10.7401 -33.4863 1
      vertex 5.07491 -26.5766 1
    endloop
  endfacet
  facet normal 0 0 1
    outer loop
      vertex 10.7401 -33.4863 1
      vertex 2.8882 -27.0333 1
      vertex 0.188217 -36.0376 1
    endloop
  endfacet
  facet normal 0 0 1
    outer loop
      vertex 0.188217 -36.0376 1
      vertex 2.8882 -27.0333 1
      vertex 0.303925 -27.1855 1
    endloop
  endfacet
  facet normal 0 0 1
    outer loop
      vertex 10.7401 -33.4863 1
      vertex 0.188217 -36.0376 1
      vertex 11.3973 -55.9437 1
    endloop
  endfacet
  facet normal -0 0 1
    outer loop
      vertex -6.49901 -27.1855 1
      vertex 0.188217 -36.0376 1
      vertex 0.303925 -27.1855 1
    endloop
  endfacet
  facet normal 0 0 1
    outer loop
      vertex 0.188217 -36.0376 1
      vertex -6.49901 -27.1855 1
      vertex -6.49901 -36.0376 1
    endloop
  endfacet
  facet normal 0 -1 0
    outer loop
      vertex -6.49901 -36.0376 0
      vertex 0.188217 -36.0376 1
      vertex -6.49901 -36.0376 1
    endloop
  endfacet
  facet normal 0 -1 -0
    outer loop
      vertex 0.188217 -36.0376 1
      vertex -6.49901 -36.0376 0
      vertex 0.188217 -36.0376 0
    endloop
  endfacet
  facet normal -0.871353 -0.490657 0
    outer loop
      vertex 11.3973 -55.9437 0
      vertex 0.188217 -36.0376 1
      vertex 0.188217 -36.0376 0
    endloop
  endfacet
  facet normal -0.871353 -0.490657 0
    outer loop
      vertex 0.188217 -36.0376 1
      vertex 11.3973 -55.9437 0
      vertex 11.3973 -55.9437 1
    endloop
  endfacet
  facet normal 0 -1 0
    outer loop
      vertex 11.3973 -55.9437 0
      vertex 24.2303 -55.9437 1
      vertex 11.3973 -55.9437 1
    endloop
  endfacet
  facet normal 0 -1 -0
    outer loop
      vertex 24.2303 -55.9437 1
      vertex 11.3973 -55.9437 0
      vertex 24.2303 -55.9437 0
    endloop
  endfacet
  facet normal 0.857227 0.514938 0
    outer loop
      vertex 24.2303 -55.9437 1
      vertex 10.7401 -33.4863 0
      vertex 10.7401 -33.4863 1
    endloop
  endfacet
  facet normal 0.857227 0.514938 0
    outer loop
      vertex 10.7401 -33.4863 0
      vertex 24.2303 -55.9437 1
      vertex 24.2303 -55.9437 0
    endloop
  endfacet
  facet normal 0.32135 -0.94696 0
    outer loop
      vertex 10.7401 -33.4863 0
      vertex 12.1419 -33.0106 1
      vertex 10.7401 -33.4863 1
    endloop
  endfacet
  facet normal 0.32135 -0.94696 0
    outer loop
      vertex 12.1419 -33.0106 1
      vertex 10.7401 -33.4863 0
      vertex 12.1419 -33.0106 0
    endloop
  endfacet
  facet normal 0.395904 -0.918292 0
    outer loop
      vertex 12.1419 -33.0106 0
      vertex 13.4538 -32.445 1
      vertex 12.1419 -33.0106 1
    endloop
  endfacet
  facet normal 0.395904 -0.918292 0
    outer loop
      vertex 13.4538 -32.445 1
      vertex 12.1419 -33.0106 0
      vertex 13.4538 -32.445 0
    endloop
  endfacet
  facet normal 0.472758 -0.881193 0
    outer loop
      vertex 13.4538 -32.445 0
      vertex 14.6758 -31.7894 1
      vertex 13.4538 -32.445 1
    endloop
  endfacet
  facet normal 0.472758 -0.881193 0
    outer loop
      vertex 14.6758 -31.7894 1
      vertex 13.4538 -32.445 0
      vertex 14.6758 -31.7894 0
    endloop
  endfacet
  facet normal 0.550009 -0.835158 0
    outer loop
      vertex 14.6758 -31.7894 0
      vertex 15.8078 -31.0439 1
      vertex 14.6758 -31.7894 1
    endloop
  endfacet
  facet normal 0.550009 -0.835158 0
    outer loop
      vertex 15.8078 -31.0439 1
      vertex 14.6758 -31.7894 0
      vertex 15.8078 -31.0439 0
    endloop
  endfacet
  facet normal 0.62548 -0.78024 0
    outer loop
      vertex 15.8078 -31.0439 0
      vertex 16.8499 -30.2085 1
      vertex 15.8078 -31.0439 1
    endloop
  endfacet
  facet normal 0.62548 -0.78024 0
    outer loop
      vertex 16.8499 -30.2085 1
      vertex 15.8078 -31.0439 0
      vertex 16.8499 -30.2085 0
    endloop
  endfacet
  facet normal 0.696942 -0.717128 0
    outer loop
      vertex 16.8499 -30.2085 0
      vertex 17.802 -29.2832 1
      vertex 16.8499 -30.2085 1
    endloop
  endfacet
  facet normal 0.696942 -0.717128 0
    outer loop
      vertex 17.802 -29.2832 1
      vertex 16.8499 -30.2085 0
      vertex 17.802 -29.2832 0
    endloop
  endfacet
  facet normal 0.762206 -0.647335 0
    outer loop
      vertex 17.802 -29.2832 1
      vertex 18.6642 -28.268 0
      vertex 18.6642 -28.268 1
    endloop
  endfacet
  facet normal 0.762206 -0.647335 0
    outer loop
      vertex 18.6642 -28.268 0
      vertex 17.802 -29.2832 1
      vertex 17.802 -29.2832 0
    endloop
  endfacet
  facet normal 0.821352 -0.570421 0
    outer loop
      vertex 18.6642 -28.268 1
      vertex 19.423 -27.1754 0
      vertex 19.423 -27.1754 1
    endloop
  endfacet
  facet normal 0.821352 -0.570421 0
    outer loop
      vertex 19.423 -27.1754 0
      vertex 18.6642 -28.268 1
      vertex 18.6642 -28.268 0
    endloop
  endfacet
  facet normal 0.87441 -0.485187 0
    outer loop
      vertex 19.423 -27.1754 1
      vertex 20.0651 -26.0182 0
      vertex 20.0651 -26.0182 1
    endloop
  endfacet
  facet normal 0.87441 -0.485187 0
    outer loop
      vertex 20.0651 -26.0182 0
      vertex 19.423 -27.1754 1
      vertex 19.423 -27.1754 0
    endloop
  endfacet
  facet normal 0.918674 -0.395017 0
    outer loop
      vertex 20.0651 -26.0182 1
      vertex 20.5905 -24.7963 0
      vertex 20.5905 -24.7963 1
    endloop
  endfacet
  facet normal 0.918674 -0.395017 0
    outer loop
      vertex 20.5905 -24.7963 0
      vertex 20.0651 -26.0182 1
      vertex 20.0651 -26.0182 0
    endloop
  endfacet
  facet normal 0.953091 -0.302684 0
    outer loop
      vertex 20.5905 -24.7963 1
      vertex 20.9991 -23.5097 0
      vertex 20.9991 -23.5097 1
    endloop
  endfacet
  facet normal 0.953091 -0.302684 0
    outer loop
      vertex 20.9991 -23.5097 0
      vertex 20.5905 -24.7963 1
      vertex 20.5905 -24.7963 0
    endloop
  endfacet
  facet normal 0.977452 -0.211159 0
    outer loop
      vertex 20.9991 -23.5097 1
      vertex 21.291 -22.1585 0
      vertex 21.291 -22.1585 1
    endloop
  endfacet
  facet normal 0.977452 -0.211159 0
    outer loop
      vertex 21.291 -22.1585 0
      vertex 20.9991 -23.5097 1
      vertex 20.9991 -23.5097 0
    endloop
  endfacet
  facet normal 0.99244 -0.122732 0
    outer loop
      vertex 21.291 -22.1585 1
      vertex 21.4661 -20.7426 0
      vertex 21.4661 -20.7426 1
    endloop
  endfacet
  facet normal 0.99244 -0.122732 0
    outer loop
      vertex 21.4661 -20.7426 0
      vertex 21.291 -22.1585 1
      vertex 21.291 -22.1585 0
    endloop
  endfacet
  facet normal 0.999223 -0.0394128 0
    outer loop
      vertex 21.4661 -20.7426 1
      vertex 21.5245 -19.262 0
      vertex 21.5245 -19.262 1
    endloop
  endfacet
  facet normal 0.999223 -0.0394128 0
    outer loop
      vertex 21.5245 -19.262 0
      vertex 21.4661 -20.7426 1
      vertex 21.4661 -20.7426 0
    endloop
  endfacet
  facet normal 0.998756 0.0498703 0
    outer loop
      vertex 21.5245 -19.262 1
      vertex 21.4211 -17.1912 0
      vertex 21.4211 -17.1912 1
    endloop
  endfacet
  facet normal 0.998756 0.0498703 0
    outer loop
      vertex 21.4211 -17.1912 0
      vertex 21.5245 -19.262 1
      vertex 21.5245 -19.262 0
    endloop
  endfacet
  facet normal 0.987307 0.158822 0
    outer loop
      vertex 21.4211 -17.1912 1
      vertex 21.1111 -15.2641 0
      vertex 21.1111 -15.2641 1
    endloop
  endfacet
  facet normal 0.987307 0.158822 0
    outer loop
      vertex 21.1111 -15.2641 0
      vertex 21.4211 -17.1912 1
      vertex 21.4211 -17.1912 0
    endloop
  endfacet
  facet normal 0.960507 0.278254 0
    outer loop
      vertex 21.1111 -15.2641 1
      vertex 20.5944 -13.4805 0
      vertex 20.5944 -13.4805 1
    endloop
  endfacet
  facet normal 0.960507 0.278254 0
    outer loop
      vertex 20.5944 -13.4805 0
      vertex 21.1111 -15.2641 1
      vertex 21.1111 -15.2641 0
    endloop
  endfacet
  facet normal 0.914924 0.403626 0
    outer loop
      vertex 20.5944 -13.4805 1
      vertex 19.8709 -11.8405 0
      vertex 19.8709 -11.8405 1
    endloop
  endfacet
  facet normal 0.914924 0.403626 0
    outer loop
      vertex 19.8709 -11.8405 0
      vertex 20.5944 -13.4805 1
      vertex 20.5944 -13.4805 0
    endloop
  endfacet
  facet normal 0.849309 0.527895 0
    outer loop
      vertex 19.8709 -11.8405 1
      vertex 18.9408 -10.3441 0
      vertex 18.9408 -10.3441 1
    endloop
  endfacet
  facet normal 0.849309 0.527895 0
    outer loop
      vertex 18.9408 -10.3441 0
      vertex 19.8709 -11.8405 1
      vertex 19.8709 -11.8405 0
    endloop
  endfacet
  facet normal 0.765596 0.643321 0
    outer loop
      vertex 18.9408 -10.3441 1
      vertex 17.8041 -8.99135 0
      vertex 17.8041 -8.99135 1
    endloop
  endfacet
  facet normal 0.765596 0.643321 0
    outer loop
      vertex 17.8041 -8.99135 0
      vertex 18.9408 -10.3441 1
      vertex 18.9408 -10.3441 0
    endloop
  endfacet
  facet normal 0.668974 0.743286 -0
    outer loop
      vertex 17.8041 -8.99135 0
      vertex 16.4606 -7.78217 1
      vertex 17.8041 -8.99135 1
    endloop
  endfacet
  facet normal 0.668974 0.743286 0
    outer loop
      vertex 16.4606 -7.78217 1
      vertex 17.8041 -8.99135 0
      vertex 16.4606 -7.78217 0
    endloop
  endfacet
  facet normal 0.562755 0.826624 -0
    outer loop
      vertex 16.4606 -7.78217 0
      vertex 14.909 -6.72586 1
      vertex 16.4606 -7.78217 1
    endloop
  endfacet
  facet normal 0.562755 0.826624 0
    outer loop
      vertex 14.909 -6.72586 1
      vertex 16.4606 -7.78217 0
      vertex 14.909 -6.72586 0
    endloop
  endfacet
  facet normal 0.452512 0.891759 -0
    outer loop
      vertex 14.909 -6.72586 0
      vertex 13.1476 -5.83206 1
      vertex 14.909 -6.72586 1
    endloop
  endfacet
  facet normal 0.452512 0.891759 0
    outer loop
      vertex 13.1476 -5.83206 1
      vertex 14.909 -6.72586 0
      vertex 13.1476 -5.83206 0
    endloop
  endfacet
  facet normal 0.347819 0.937562 -0
    outer loop
      vertex 13.1476 -5.83206 0
      vertex 11.1764 -5.10078 1
      vertex 13.1476 -5.83206 1
    endloop
  endfacet
  facet normal 0.347819 0.937562 0
    outer loop
      vertex 11.1764 -5.10078 1
      vertex 13.1476 -5.83206 0
      vertex 11.1764 -5.10078 0
    endloop
  endfacet
  facet normal 0.252334 0.96764 -0
    outer loop
      vertex 11.1764 -5.10078 0
      vertex 8.9953 -4.53201 1
      vertex 11.1764 -5.10078 1
    endloop
  endfacet
  facet normal 0.252334 0.96764 0
    outer loop
      vertex 8.9953 -4.53201 1
      vertex 11.1764 -5.10078 0
      vertex 8.9953 -4.53201 0
    endloop
  endfacet
  facet normal 0.167518 0.985869 -0
    outer loop
      vertex 8.9953 -4.53201 0
      vertex 6.6044 -4.12575 1
      vertex 8.9953 -4.53201 1
    endloop
  endfacet
  facet normal 0.167518 0.985869 0
    outer loop
      vertex 6.6044 -4.12575 1
      vertex 8.9953 -4.53201 0
      vertex 6.6044 -4.12575 0
    endloop
  endfacet
  facet normal 0.0933189 0.995636 -0
    outer loop
      vertex 6.6044 -4.12575 0
      vertex 4.00368 -3.88199 1
      vertex 6.6044 -4.12575 1
    endloop
  endfacet
  facet normal 0.0933189 0.995636 0
    outer loop
      vertex 4.00368 -3.88199 1
      vertex 6.6044 -4.12575 0
      vertex 4.00368 -3.88199 0
    endloop
  endfacet
  facet normal 0.028904 0.999582 -0
    outer loop
      vertex 4.00368 -3.88199 0
      vertex 1.19313 -3.80072 1
      vertex 4.00368 -3.88199 1
    endloop
  endfacet
  facet normal 0.028904 0.999582 0
    outer loop
      vertex 1.19313 -3.80072 1
      vertex 4.00368 -3.88199 0
      vertex 1.19313 -3.80072 0
    endloop
  endfacet
  facet normal 0 1 -0
    outer loop
      vertex 1.19313 -3.80072 0
      vertex -17.9019 -3.80072 1
      vertex 1.19313 -3.80072 1
    endloop
  endfacet
  facet normal 0 1 0
    outer loop
      vertex -17.9019 -3.80072 1
      vertex 1.19313 -3.80072 0
      vertex -17.9019 -3.80072 0
    endloop
  endfacet
  facet normal -1 0 0
    outer loop
      vertex -17.9019 -55.9437 0
      vertex -17.9019 -3.80072 1
      vertex -17.9019 -3.80072 0
    endloop
  endfacet
  facet normal -1 -0 0
    outer loop
      vertex -17.9019 -3.80072 1
      vertex -17.9019 -55.9437 0
      vertex -17.9019 -55.9437 1
    endloop
  endfacet
  facet normal 0 -1 0
    outer loop
      vertex -17.9019 -55.9437 0
      vertex -6.49901 -55.9437 1
      vertex -17.9019 -55.9437 1
    endloop
  endfacet
  facet normal 0 -1 -0
    outer loop
      vertex -6.49901 -55.9437 1
      vertex -17.9019 -55.9437 0
      vertex -6.49901 -55.9437 0
    endloop
  endfacet
  facet normal 1 -0 0
    outer loop
      vertex -6.49901 -55.9437 1
      vertex -6.49901 -36.0376 0
      vertex -6.49901 -36.0376 1
    endloop
  endfacet
  facet normal 1 0 0
    outer loop
      vertex -6.49901 -36.0376 0
      vertex -6.49901 -55.9437 1
      vertex -6.49901 -55.9437 0
    endloop
  endfacet
  facet normal 1 -0 0
    outer loop
      vertex -6.49901 -27.1855 1
      vertex -6.49901 -12.6522 0
      vertex -6.49901 -12.6522 1
    endloop
  endfacet
  facet normal 1 0 0
    outer loop
      vertex -6.49901 -12.6522 0
      vertex -6.49901 -27.1855 1
      vertex -6.49901 -27.1855 0
    endloop
  endfacet
  facet normal 0 -1 0
    outer loop
      vertex -6.49901 -12.6522 0
      vertex -0.00498962 -12.6522 1
      vertex -6.49901 -12.6522 1
    endloop
  endfacet
  facet normal 0 -1 -0
    outer loop
      vertex -0.00498962 -12.6522 1
      vertex -6.49901 -12.6522 0
      vertex -0.00498962 -12.6522 0
    endloop
  endfacet
  facet normal -0.0243091 -0.999704 0
    outer loop
      vertex -0.00498962 -12.6522 0
      vertex 1.43849 -12.6873 1
      vertex -0.00498962 -12.6522 1
    endloop
  endfacet
  facet normal -0.0243091 -0.999704 -0
    outer loop
      vertex 1.43849 -12.6873 1
      vertex -0.00498962 -12.6522 0
      vertex 1.43849 -12.6873 0
    endloop
  endfacet
  facet normal -0.0791933 -0.996859 0
    outer loop
      vertex 1.43849 -12.6873 0
      vertex 2.76523 -12.7927 1
      vertex 1.43849 -12.6873 1
    endloop
  endfacet
  facet normal -0.0791933 -0.996859 -0
    outer loop
      vertex 2.76523 -12.7927 1
      vertex 1.43849 -12.6873 0
      vertex 2.76523 -12.7927 0
    endloop
  endfacet
  facet normal -0.143539 -0.989645 0
    outer loop
      vertex 2.76523 -12.7927 0
      vertex 3.97523 -12.9682 1
      vertex 2.76523 -12.7927 1
    endloop
  endfacet
  facet normal -0.143539 -0.989645 -0
    outer loop
      vertex 3.97523 -12.9682 1
      vertex 2.76523 -12.7927 0
      vertex 3.97523 -12.9682 0
    endloop
  endfacet
  facet normal -0.219354 -0.975645 0
    outer loop
      vertex 3.97523 -12.9682 0
      vertex 5.0685 -13.214 1
      vertex 3.97523 -12.9682 1
    endloop
  endfacet
  facet normal -0.219354 -0.975645 -0
    outer loop
      vertex 5.0685 -13.214 1
      vertex 3.97523 -12.9682 0
      vertex 5.0685 -13.214 0
    endloop
  endfacet
  facet normal -0.307794 -0.951453 0
    outer loop
      vertex 5.0685 -13.214 0
      vertex 6.04501 -13.5299 1
      vertex 5.0685 -13.214 1
    endloop
  endfacet
  facet normal -0.307794 -0.951453 -0
    outer loop
      vertex 6.04501 -13.5299 1
      vertex 5.0685 -13.214 0
      vertex 6.04501 -13.5299 0
    endloop
  endfacet
  facet normal -0.409746 -0.9122 0
    outer loop
      vertex 6.04501 -13.5299 0
      vertex 6.90479 -13.9161 1
      vertex 6.04501 -13.5299 1
    endloop
  endfacet
  facet normal -0.409746 -0.9122 -0
    outer loop
      vertex 6.90479 -13.9161 1
      vertex 6.04501 -13.5299 0
      vertex 6.90479 -13.9161 0
    endloop
  endfacet
  facet normal -0.523396 -0.85209 0
    outer loop
      vertex 6.90479 -13.9161 0
      vertex 7.64781 -14.3725 1
      vertex 6.90479 -13.9161 1
    endloop
  endfacet
  facet normal -0.523396 -0.85209 -0
    outer loop
      vertex 7.64781 -14.3725 1
      vertex 6.90479 -13.9161 0
      vertex 7.64781 -14.3725 0
    endloop
  endfacet
  facet normal -0.640529 -0.767934 0
    outer loop
      vertex 7.64781 -14.3725 0
      vertex 8.28371 -14.9029 1
      vertex 7.64781 -14.3725 1
    endloop
  endfacet
  facet normal -0.640529 -0.767934 -0
    outer loop
      vertex 8.28371 -14.9029 1
      vertex 7.64781 -14.3725 0
      vertex 8.28371 -14.9029 0
    endloop
  endfacet
  facet normal -0.74913 -0.662423 0
    outer loop
      vertex 8.82178 -15.5114 0
      vertex 8.28371 -14.9029 1
      vertex 8.28371 -14.9029 0
    endloop
  endfacet
  facet normal -0.74913 -0.662423 0
    outer loop
      vertex 8.28371 -14.9029 1
      vertex 8.82178 -15.5114 0
      vertex 8.82178 -15.5114 1
    endloop
  endfacet
  facet normal -0.841858 -0.539699 0
    outer loop
      vertex 9.26201 -16.1981 0
      vertex 8.82178 -15.5114 1
      vertex 8.82178 -15.5114 0
    endloop
  endfacet
  facet normal -0.841858 -0.539699 0
    outer loop
      vertex 8.82178 -15.5114 1
      vertex 9.26201 -16.1981 0
      vertex 9.26201 -16.1981 1
    endloop
  endfacet
  facet normal -0.912701 -0.408627 0
    outer loop
      vertex 9.60442 -16.9629 0
      vertex 9.26201 -16.1981 1
      vertex 9.26201 -16.1981 0
    endloop
  endfacet
  facet normal -0.912701 -0.408627 0
    outer loop
      vertex 9.26201 -16.1981 1
      vertex 9.60442 -16.9629 0
      vertex 9.60442 -16.9629 1
    endloop
  endfacet
  facet normal -0.960387 -0.278671 0
    outer loop
      vertex 9.849 -17.8058 0
      vertex 9.60442 -16.9629 1
      vertex 9.60442 -16.9629 0
    endloop
  endfacet
  facet normal -0.960387 -0.278671 0
    outer loop
      vertex 9.60442 -16.9629 1
      vertex 9.849 -17.8058 0
      vertex 9.849 -17.8058 1
    endloop
  endfacet
  facet normal -0.987544 -0.157342 0
    outer loop
      vertex 9.99574 -18.7268 0
      vertex 9.849 -17.8058 1
      vertex 9.849 -17.8058 0
    endloop
  endfacet
  facet normal -0.987544 -0.157342 0
    outer loop
      vertex 9.849 -17.8058 1
      vertex 9.99574 -18.7268 0
      vertex 9.99574 -18.7268 1
    endloop
  endfacet
  facet normal -0.998801 -0.0489454 0
    outer loop
      vertex 10.0447 -19.7259 0
      vertex 9.99574 -18.7268 1
      vertex 9.99574 -18.7268 0
    endloop
  endfacet
  facet normal -0.998801 -0.0489454 0
    outer loop
      vertex 9.99574 -18.7268 1
      vertex 10.0447 -19.7259 0
      vertex 10.0447 -19.7259 1
    endloop
  endfacet
  facet normal -0.994991 0.0999617 0
    outer loop
      vertex 9.84587 -21.705 0
      vertex 10.0447 -19.7259 1
      vertex 10.0447 -19.7259 0
    endloop
  endfacet
  facet normal -0.994991 0.0999617 0
    outer loop
      vertex 10.0447 -19.7259 1
      vertex 9.84587 -21.705 0
      vertex 9.84587 -21.705 1
    endloop
  endfacet
  facet normal -0.942045 0.335487 0
    outer loop
      vertex 9.2495 -23.3796 0
      vertex 9.84587 -21.705 1
      vertex 9.84587 -21.705 0
    endloop
  endfacet
  facet normal -0.942045 0.335487 0
    outer loop
      vertex 9.84587 -21.705 1
      vertex 9.2495 -23.3796 0
      vertex 9.2495 -23.3796 1
    endloop
  endfacet
  facet normal -0.809431 0.587214 0
    outer loop
      vertex 8.25554 -24.7497 0
      vertex 9.2495 -23.3796 1
      vertex 9.2495 -23.3796 0
    endloop
  endfacet
  facet normal -0.809431 0.587214 0
    outer loop
      vertex 9.2495 -23.3796 1
      vertex 8.25554 -24.7497 0
      vertex 8.25554 -24.7497 1
    endloop
  endfacet
  facet normal -0.608022 0.79392 0
    outer loop
      vertex 8.25554 -24.7497 0
      vertex 6.86401 -25.8154 1
      vertex 8.25554 -24.7497 1
    endloop
  endfacet
  facet normal -0.608022 0.79392 0
    outer loop
      vertex 6.86401 -25.8154 1
      vertex 8.25554 -24.7497 0
      vertex 6.86401 -25.8154 0
    endloop
  endfacet
  facet normal -0.391503 0.920177 0
    outer loop
      vertex 6.86401 -25.8154 0
      vertex 5.07491 -26.5766 1
      vertex 6.86401 -25.8154 1
    endloop
  endfacet
  facet normal -0.391503 0.920177 0
    outer loop
      vertex 5.07491 -26.5766 1
      vertex 6.86401 -25.8154 0
      vertex 5.07491 -26.5766 0
    endloop
  endfacet
  facet normal -0.204441 0.978879 0
    outer loop
      vertex 5.07491 -26.5766 0
      vertex 2.8882 -27.0333 1
      vertex 5.07491 -26.5766 1
    endloop
  endfacet
  facet normal -0.204441 0.978879 0
    outer loop
      vertex 2.8882 -27.0333 1
      vertex 5.07491 -26.5766 0
      vertex 2.8882 -27.0333 0
    endloop
  endfacet
  facet normal -0.0587928 0.99827 0
    outer loop
      vertex 2.8882 -27.0333 0
      vertex 0.303925 -27.1855 1
      vertex 2.8882 -27.0333 1
    endloop
  endfacet
  facet normal -0.0587928 0.99827 0
    outer loop
      vertex 0.303925 -27.1855 1
      vertex 2.8882 -27.0333 0
      vertex 0.303925 -27.1855 0
    endloop
  endfacet
  facet normal 0 1 -0
    outer loop
      vertex 0.303925 -27.1855 0
      vertex -6.49901 -27.1855 1
      vertex 0.303925 -27.1855 1
    endloop
  endfacet
  facet normal 0 1 0
    outer loop
      vertex -6.49901 -27.1855 1
      vertex 0.303925 -27.1855 0
      vertex -6.49901 -27.1855 0
    endloop
  endfacet
endsolid OpenSCAD_Model
