  0
SECTION
  2
BLOCKS
  0
ENDSEC
  0
SECTION
  2
ENTITIES
  0
LINE
  8
0
 10
-2.17924
 20
-15.8482
 11
0.358948
 21
-15.8482
  0
LINE
  8
0
 10
0.358948
 20
-15.8482
 11
0.939667
 21
-15.8338
  0
LINE
  8
0
 10
0.939667
 20
-15.8338
 11
1.49646
 21
-15.7904
  0
LINE
  8
0
 10
1.49646
 20
-15.7904
 11
2.02933
 21
-15.7181
  0
LINE
  8
0
 10
2.02933
 20
-15.7181
 11
2.53825
 21
-15.6169
  0
LINE
  8
0
 10
2.53825
 20
-15.6169
 11
3.02325
 21
-15.4867
  0
LINE
  8
0
 10
3.02325
 20
-15.4867
 11
3.48431
 21
-15.3277
  0
LINE
  8
0
 10
3.48431
 20
-15.3277
 11
3.92145
 21
-15.1397
  0
LINE
  8
0
 10
3.92145
 20
-15.1397
 11
4.33234
 21
-14.925
  0
LINE
  8
0
 10
4.33234
 20
-14.925
 11
4.71454
 21
-14.6859
  0
LINE
  8
0
 10
4.71454
 20
-14.6859
 11
5.06808
 21
-14.4222
  0
LINE
  8
0
 10
5.06808
 20
-14.4222
 11
5.39296
 21
-14.1342
  0
LINE
  8
0
 10
5.39296
 20
-14.1342
 11
5.68916
 21
-13.8216
  0
LINE
  8
0
 10
5.68916
 20
-13.8216
 11
5.9567
 21
-13.4847
  0
LINE
  8
0
 10
5.9567
 20
-13.4847
 11
6.19556
 21
-13.1232
  0
LINE
  8
0
 10
6.19556
 20
-13.1232
 11
6.4041
 21
-12.7411
  0
LINE
  8
0
 10
6.4041
 20
-12.7411
 11
6.58055
 21
-12.3418
  0
LINE
  8
0
 10
6.58055
 20
-12.3418
 11
6.72491
 21
-11.9254
  0
LINE
  8
0
 10
6.72491
 20
-11.9254
 11
6.83722
 21
-11.4919
  0
LINE
  8
0
 10
6.83722
 20
-11.4919
 11
6.91742
 21
-11.0414
  0
LINE
  8
0
 10
6.91742
 20
-11.0414
 11
6.96555
 21
-10.5737
  0
LINE
  8
0
 10
6.96555
 20
-10.5737
 11
6.98158
 21
-10.089
  0
LINE
  8
0
 10
6.98158
 20
-10.089
 11
6.94621
 21
-9.34599
  0
LINE
  8
0
 10
6.94621
 20
-9.34599
 11
6.84012
 21
-8.65588
  0
LINE
  8
0
 10
6.84012
 20
-8.65588
 11
6.66328
 21
-8.01865
  0
LINE
  8
0
 10
6.66328
 20
-8.01865
 11
6.41571
 21
-7.43425
  0
LINE
  8
0
 10
6.41571
 20
-7.43425
 11
6.09741
 21
-6.90273
  0
LINE
  8
0
 10
6.09741
 20
-6.90273
 11
5.70837
 21
-6.42406
  0
LINE
  8
0
 10
5.70837
 20
-6.42406
 11
5.2486
 21
-5.99825
  0
LINE
  8
0
 10
5.2486
 20
-5.99825
 11
4.72125
 21
-5.62735
  0
LINE
  8
0
 10
4.72125
 20
-5.62735
 11
4.12949
 21
-5.31351
  0
LINE
  8
0
 10
4.12949
 20
-5.31351
 11
3.47331
 21
-5.05673
  0
LINE
  8
0
 10
3.47331
 20
-5.05673
 11
2.75272
 21
-4.85703
  0
LINE
  8
0
 10
2.75272
 20
-4.85703
 11
1.96773
 21
-4.71437
  0
LINE
  8
0
 10
1.96773
 20
-4.71437
 11
1.1183
 21
-4.62878
  0
LINE
  8
0
 10
1.1183
 20
-4.62878
 11
0.204468
 21
-4.60025
  0
LINE
  8
0
 10
0.204468
 20
-4.60025
 11
-5.98001
 21
-4.60025
  0
LINE
  8
0
 10
-5.98001
 20
-4.60025
 11
-5.98001
 21
-21.9812
  0
LINE
  8
0
 10
-5.98001
 20
-21.9812
 11
-2.17924
 21
-21.9812
  0
LINE
  8
0
 10
-2.17924
 20
-21.9812
 11
-2.17924
 21
-15.8482
  0
LINE
  8
0
 10
-2.17924
 20
-12.9236
 11
-2.17924
 21
-7.55074
  0
LINE
  8
0
 10
-2.17924
 20
-7.55074
 11
-0.220734
 21
-7.55074
  0
LINE
  8
0
 10
-0.220734
 20
-7.55074
 11
0.244247
 21
-7.56297
  0
LINE
  8
0
 10
0.244247
 20
-7.56297
 11
0.67482
 21
-7.59966
  0
LINE
  8
0
 10
0.67482
 20
-7.59966
 11
1.07094
 21
-7.66081
  0
LINE
  8
0
 10
1.07094
 20
-7.66081
 11
1.43262
 21
-7.74641
  0
LINE
  8
0
 10
1.43262
 20
-7.74641
 11
1.75986
 21
-7.85649
  0
LINE
  8
0
 10
1.75986
 20
-7.85649
 11
2.05264
 21
-7.99101
  0
LINE
  8
0
 10
2.05264
 20
-7.99101
 11
2.311
 21
-8.15001
  0
LINE
  8
0
 10
2.311
 20
-8.15001
 11
2.53491
 21
-8.3376
  0
LINE
  8
0
 10
2.53491
 20
-8.3376
 11
2.72438
 21
-8.55806
  0
LINE
  8
0
 10
2.72438
 20
-8.55806
 11
2.87939
 21
-8.81139
  0
LINE
  8
0
 10
2.87939
 20
-8.81139
 11
2.99997
 21
-9.09758
  0
LINE
  8
0
 10
2.99997
 20
-9.09758
 11
3.08609
 21
-9.41664
  0
LINE
  8
0
 10
3.08609
 20
-9.41664
 11
3.13776
 21
-9.76857
  0
LINE
  8
0
 10
3.13776
 20
-9.76857
 11
3.15498
 21
-10.1534
  0
LINE
  8
0
 10
3.15498
 20
-10.1534
 11
3.13895
 21
-10.53
  0
LINE
  8
0
 10
3.13895
 20
-10.53
 11
3.09082
 21
-10.8796
  0
LINE
  8
0
 10
3.09082
 20
-10.8796
 11
3.0106
 21
-11.2021
  0
LINE
  8
0
 10
3.0106
 20
-11.2021
 11
2.89832
 21
-11.4975
  0
LINE
  8
0
 10
2.89832
 20
-11.4975
 11
2.75395
 21
-11.7659
  0
LINE
  8
0
 10
2.75395
 20
-11.7659
 11
2.5775
 21
-12.0071
  0
LINE
  8
0
 10
2.5775
 20
-12.0071
 11
2.36896
 21
-12.2213
  0
LINE
  8
0
 10
2.36896
 20
-12.2213
 11
2.1257
 21
-12.4076
  0
LINE
  8
0
 10
2.1257
 20
-12.4076
 11
1.84512
 21
-12.5653
  0
LINE
  8
0
 10
1.84512
 20
-12.5653
 11
1.52722
 21
-12.6943
  0
LINE
  8
0
 10
1.52722
 20
-12.6943
 11
1.17197
 21
-12.7946
  0
LINE
  8
0
 10
1.17197
 20
-12.7946
 11
0.779388
 21
-12.8662
  0
LINE
  8
0
 10
0.779388
 20
-12.8662
 11
0.349472
 21
-12.9092
  0
LINE
  8
0
 10
0.349472
 20
-12.9092
 11
-0.117752
 21
-12.9236
  0
LINE
  8
0
 10
-0.117752
 20
-12.9236
 11
-2.17924
 21
-12.9236
  0
ENDSEC
  0
SECTION
  2
OBJECTS
  0
DICTIONARY
  0
ENDSEC
  0
EOF
