<?xml version="1.0" standalone="no"?>
<!DOCTYPE svg PUBLIC "-//W3C//DTD SVG 1.1//EN" "http://www.w3.org/Graphics/SVG/1.1/DTD/svg11.dtd">
<svg width="13mm" height="18mm" viewBox="-6 4 13 18" xmlns="http://www.w3.org/2000/svg" version="1.1">
<title>OpenSCAD Model</title>
<path d="
M -2.17924,15.8482 L 0.358948,15.8482 L 0.939667,15.8338 L 1.49646,15.7904 L 2.02933,15.7181 L 2.53825,15.6169
 L 3.02325,15.4867 L 3.48431,15.3277 L 3.92145,15.1397 L 4.33234,14.925 L 4.71454,14.6859 L 5.06808,14.4222
 L 5.39296,14.1342 L 5.68916,13.8216 L 5.9567,13.4847 L 6.19556,13.1232 L 6.4041,12.7411 L 6.58055,12.3418
 L 6.72491,11.9254 L 6.83722,11.4919 L 6.91742,11.0414 L 6.96555,10.5737 L 6.98158,10.089 L 6.94621,9.34599
 L 6.84012,8.65588 L 6.66328,8.01865 L 6.41571,7.43425 L 6.09741,6.90273 L 5.70837,6.42406 L 5.2486,5.99825
 L 4.72125,5.62735 L 4.12949,5.31351 L 3.47331,5.05673 L 2.75272,4.85703 L 1.96773,4.71437 L 1.1183,4.62878
 L 0.204468,4.60025 L -5.98001,4.60025 L -5.98001,21.9812 L -2.17924,21.9812 z
M -2.17924,12.9236 L -2.17924,7.55074 L -0.220734,7.55074 L 0.244247,7.56297 L 0.67482,7.59966 L 1.07094,7.66081
 L 1.43262,7.74641 L 1.75986,7.85649 L 2.05264,7.99101 L 2.311,8.15001 L 2.53491,8.3376 L 2.72438,8.55806
 L 2.87939,8.81139 L 2.99997,9.09758 L 3.08609,9.41664 L 3.13776,9.76857 L 3.15498,10.1534 L 3.13895,10.53
 L 3.09082,10.8796 L 3.0106,11.2021 L 2.89832,11.4975 L 2.75395,11.7659 L 2.5775,12.0071 L 2.36896,12.2213
 L 2.1257,12.4076 L 1.84512,12.5653 L 1.52722,12.6943 L 1.17197,12.7946 L 0.779388,12.8662 L 0.349472,12.9092
 L -0.117752,12.9236 z
" stroke="black" fill="lightgray" stroke-width="0.5"/>
</svg>
