solid OpenSCAD_Model
  facet normal 0 0 -1
    outer loop
      vertex 12.3252 -55.9437 0
      vertex 6.17949 -28.4612 0
      vertex 24.3078 -55.9437 0
    endloop
  endfacet
  facet normal 0 -0 -1
    outer loop
      vertex 6.17949 -28.4612 0
      vertex 12.3252 -55.9437 0
      vertex 0.613434 -36.8875 0
    endloop
  endfacet
  facet normal 0 0 -1
    outer loop
      vertex 6.17949 -28.4612 0
      vertex 10.7401 -3.80072 0
      vertex 22.7226 -3.80072 0
    endloop
  endfacet
  facet normal 0 0 -1
    outer loop
      vertex -5.45534 -28.4612 0
      vertex 6.17949 -28.4612 0
      vertex 0.613434 -36.8875 0
    endloop
  endfacet
  facet normal 0 0 -1
    outer loop
      vertex 6.17949 -28.4612 0
      vertex 0.613434 -20.4213 0
      vertex 10.7401 -3.80072 0
    endloop
  endfacet
  facet normal 0 0 -1
    outer loop
      vertex 6.17949 -28.4612 0
      vertex -5.45534 -28.4612 0
      vertex 0.613434 -20.4213 0
    endloop
  endfacet
  facet normal 0 0 -1
    outer loop
      vertex -11.1371 -55.9437 0
      vertex -5.45534 -28.4612 0
      vertex 0.613434 -36.8875 0
    endloop
  endfacet
  facet normal 0 0 -1
    outer loop
      vertex -5.45534 -28.4612 0
      vertex -11.1371 -55.9437 0
      vertex -23.1972 -55.9437 0
    endloop
  endfacet
  facet normal 0 0 -1
    outer loop
      vertex -5.45534 -28.4612 0
      vertex -9.55249 -3.80072 0
      vertex 0.613434 -20.4213 0
    endloop
  endfacet
  facet normal -0 -0 -1
    outer loop
      vertex -9.55249 -3.80072 0
      vertex -5.45534 -28.4612 0
      vertex -21.6125 -3.80072 0
    endloop
  endfacet
  facet normal -0 0 1
    outer loop
      vertex 10.7401 -3.80072 1
      vertex 6.17949 -28.4612 1
      vertex 22.7226 -3.80072 1
    endloop
  endfacet
  facet normal 0 -0 1
    outer loop
      vertex 6.17949 -28.4612 1
      vertex 10.7401 -3.80072 1
      vertex 0.613434 -20.4213 1
    endloop
  endfacet
  facet normal 0 0 1
    outer loop
      vertex 6.17949 -28.4612 1
      vertex 12.3252 -55.9437 1
      vertex 24.3078 -55.9437 1
    endloop
  endfacet
  facet normal 0 0 1
    outer loop
      vertex -5.45534 -28.4612 1
      vertex 6.17949 -28.4612 1
      vertex 0.613434 -20.4213 1
    endloop
  endfacet
  facet normal 0 0 1
    outer loop
      vertex 6.17949 -28.4612 1
      vertex 0.613434 -36.8875 1
      vertex 12.3252 -55.9437 1
    endloop
  endfacet
  facet normal 0 0 1
    outer loop
      vertex 6.17949 -28.4612 1
      vertex -5.45534 -28.4612 1
      vertex 0.613434 -36.8875 1
    endloop
  endfacet
  facet normal 0 0 1
    outer loop
      vertex -9.55249 -3.80072 1
      vertex -5.45534 -28.4612 1
      vertex 0.613434 -20.4213 1
    endloop
  endfacet
  facet normal 0 0 1
    outer loop
      vertex -5.45534 -28.4612 1
      vertex -9.55249 -3.80072 1
      vertex -21.6125 -3.80072 1
    endloop
  endfacet
  facet normal 0 0 1
    outer loop
      vertex -5.45534 -28.4612 1
      vertex -11.1371 -55.9437 1
      vertex 0.613434 -36.8875 1
    endloop
  endfacet
  facet normal 0 -0 1
    outer loop
      vertex -11.1371 -55.9437 1
      vertex -5.45534 -28.4612 1
      vertex -23.1972 -55.9437 1
    endloop
  endfacet
  facet normal -0.85196 -0.523607 0
    outer loop
      vertex 12.3252 -55.9437 0
      vertex 0.613434 -36.8875 1
      vertex 0.613434 -36.8875 0
    endloop
  endfacet
  facet normal -0.85196 -0.523607 0
    outer loop
      vertex 0.613434 -36.8875 1
      vertex 12.3252 -55.9437 0
      vertex 12.3252 -55.9437 1
    endloop
  endfacet
  facet normal 0 -1 0
    outer loop
      vertex 12.3252 -55.9437 0
      vertex 24.3078 -55.9437 1
      vertex 12.3252 -55.9437 1
    endloop
  endfacet
  facet normal 0 -1 -0
    outer loop
      vertex 24.3078 -55.9437 1
      vertex 12.3252 -55.9437 0
      vertex 24.3078 -55.9437 0
    endloop
  endfacet
  facet normal 0.834751 0.550628 0
    outer loop
      vertex 24.3078 -55.9437 1
      vertex 6.17949 -28.4612 0
      vertex 6.17949 -28.4612 1
    endloop
  endfacet
  facet normal 0.834751 0.550628 0
    outer loop
      vertex 6.17949 -28.4612 0
      vertex 24.3078 -55.9437 1
      vertex 24.3078 -55.9437 0
    endloop
  endfacet
  facet normal 0.830449 -0.557094 0
    outer loop
      vertex 6.17949 -28.4612 1
      vertex 22.7226 -3.80072 0
      vertex 22.7226 -3.80072 1
    endloop
  endfacet
  facet normal 0.830449 -0.557094 0
    outer loop
      vertex 22.7226 -3.80072 0
      vertex 6.17949 -28.4612 1
      vertex 6.17949 -28.4612 0
    endloop
  endfacet
  facet normal 0 1 -0
    outer loop
      vertex 22.7226 -3.80072 0
      vertex 10.7401 -3.80072 1
      vertex 22.7226 -3.80072 1
    endloop
  endfacet
  facet normal 0 1 0
    outer loop
      vertex 10.7401 -3.80072 1
      vertex 22.7226 -3.80072 0
      vertex 10.7401 -3.80072 0
    endloop
  endfacet
  facet normal -0.853975 0.520314 0
    outer loop
      vertex 0.613434 -20.4213 0
      vertex 10.7401 -3.80072 1
      vertex 10.7401 -3.80072 0
    endloop
  endfacet
  facet normal -0.853975 0.520314 0
    outer loop
      vertex 10.7401 -3.80072 1
      vertex 0.613434 -20.4213 0
      vertex 0.613434 -20.4213 1
    endloop
  endfacet
  facet normal 0.853078 0.521783 0
    outer loop
      vertex 0.613434 -20.4213 1
      vertex -9.55249 -3.80072 0
      vertex -9.55249 -3.80072 1
    endloop
  endfacet
  facet normal 0.853078 0.521783 0
    outer loop
      vertex -9.55249 -3.80072 0
      vertex 0.613434 -20.4213 1
      vertex 0.613434 -20.4213 0
    endloop
  endfacet
  facet normal 0 1 -0
    outer loop
      vertex -9.55249 -3.80072 0
      vertex -21.6125 -3.80072 1
      vertex -9.55249 -3.80072 1
    endloop
  endfacet
  facet normal 0 1 0
    outer loop
      vertex -21.6125 -3.80072 1
      vertex -9.55249 -3.80072 0
      vertex -21.6125 -3.80072 0
    endloop
  endfacet
  facet normal -0.836457 -0.548033 0
    outer loop
      vertex -5.45534 -28.4612 0
      vertex -21.6125 -3.80072 1
      vertex -21.6125 -3.80072 0
    endloop
  endfacet
  facet normal -0.836457 -0.548033 0
    outer loop
      vertex -21.6125 -3.80072 1
      vertex -5.45534 -28.4612 0
      vertex -5.45534 -28.4612 1
    endloop
  endfacet
  facet normal -0.84014 0.542369 0
    outer loop
      vertex -23.1972 -55.9437 0
      vertex -5.45534 -28.4612 1
      vertex -5.45534 -28.4612 0
    endloop
  endfacet
  facet normal -0.84014 0.542369 0
    outer loop
      vertex -5.45534 -28.4612 1
      vertex -23.1972 -55.9437 0
      vertex -23.1972 -55.9437 1
    endloop
  endfacet
  facet normal 0 -1 0
    outer loop
      vertex -23.1972 -55.9437 0
      vertex -11.1371 -55.9437 1
      vertex -23.1972 -55.9437 1
    endloop
  endfacet
  facet normal 0 -1 -0
    outer loop
      vertex -11.1371 -55.9437 1
      vertex -23.1972 -55.9437 0
      vertex -11.1371 -55.9437 0
    endloop
  endfacet
  facet normal 0.851187 -0.524863 0
    outer loop
      vertex -11.1371 -55.9437 1
      vertex 0.613434 -36.8875 0
      vertex 0.613434 -36.8875 1
    endloop
  endfacet
  facet normal 0.851187 -0.524863 0
    outer loop
      vertex 0.613434 -36.8875 0
      vertex -11.1371 -55.9437 1
      vertex -11.1371 -55.9437 0
    endloop
  endfacet
endsolid OpenSCAD_Model
