<?xml version="1.0" standalone="no"?>
<!DOCTYPE svg PUBLIC "-//W3C//DTD SVG 1.1//EN" "http://www.w3.org/Graphics/SVG/1.1/DTD/svg11.dtd">
<svg width="41mm" height="55mm" viewBox="-20 3 41 55" xmlns="http://www.w3.org/2000/svg" version="1.1">
<title>OpenSCAD Model</title>
<path d="
M 3.13246,57.5339 L 5.52693,57.2854 L 7.75812,56.8713 L 9.82599,56.2915 L 11.7306,55.5461 L 13.4718,54.635
 L 15.0498,53.5583 L 16.4394,52.3323 L 17.6152,50.9738 L 18.5773,49.4828 L 19.3255,47.8593 L 19.86,46.1033
 L 20.1807,44.2147 L 20.2876,42.1936 L 20.2166,40.8143 L 20.0036,39.5037 L 19.6486,38.2617 L 19.1517,37.0883
 L 18.5127,35.9835 L 17.7318,34.9474 L 16.8089,33.9799 L 15.7621,33.0992 L 14.6096,32.3234 L 13.3514,31.6526
 L 11.9874,31.0867 L 10.5178,30.6257 L 8.94243,30.2696 L 7.26135,30.0184 L 7.26135,29.8634 L 8.80986,29.5117
 L 10.2527,29.0747 L 11.5897,28.5526 L 12.8211,27.9452 L 13.9467,27.2526 L 14.9667,26.4748 L 15.8809,25.6118
 L 16.6809,24.6738 L 17.3578,23.6711 L 17.9116,22.6038 L 18.3424,21.4717 L 18.65,20.2751 L 18.8347,19.0137
 L 18.8962,17.6876 L 18.8508,16.5261 L 18.7147,15.4047 L 18.4879,14.3237 L 18.1703,13.2829 L 17.762,12.2823
 L 17.263,11.322 L 16.6732,10.4019 L 15.998,9.53058 L 15.2423,8.71687 L 14.4061,7.96077 L 13.4895,7.26228
 L 12.4924,6.62138 L 11.4148,6.0381 L 10.2567,5.51242 L 9.02739,5.05089 L 7.73576,4.66037 L 6.38181,4.34085
 L 4.96552,4.09233 L 3.48691,3.91481 L 1.94595,3.8083 L 0.342682,3.7728 L -1.92332,3.84932 L -4.06076,4.07887
 L -6.06963,4.46147 L -7.94989,4.99712 L -9.70157,5.68578 L -11.3247,6.52748 L -12.8192,7.52225 L -14.1644,8.65805
 L -15.3401,9.92326 L -16.3462,11.3179 L -17.1827,12.8419 L -17.8497,14.4953 L -18.347,16.2781 L -18.6748,18.1904
 L -7.81343,18.9633 L -7.68713,18.029 L -7.48515,17.1696 L -7.20746,16.3852 L -6.85405,15.6757 L -6.42496,15.0412
 L -5.92014,14.4816 L -5.33963,13.9969 L -4.69743,13.5815 L -4.00792,13.2299 L -3.27109,12.9424 L -2.48692,12.7187
 L -1.65544,12.5589 L -0.776642,12.463 L 0.14946,12.4311 L 1.12564,12.4689 L 2.04424,12.5825 L 2.90521,12.7719
 L 3.70859,13.0369 L 4.45436,13.3777 L 5.14252,13.7942 L 5.77309,14.2864 L 6.332,14.8378 L 6.80495,15.4318
 L 7.19189,16.0684 L 7.49284,16.7476 L 7.70782,17.4694 L 7.83681,18.2338 L 7.87981,19.0408 L 7.82812,19.9286
 L 7.67311,20.7588 L 7.41475,21.5315 L 7.05304,22.2466 L 6.588,22.9041 L 6.01959,23.5041 L 5.34785,24.0465
 L 4.58003,24.5233 L 3.72305,24.9268 L 2.77693,25.2569 L 1.74164,25.5137 L 0.617203,25.697 L -0.596359,25.8071
 L -1.89911,25.8438 L -5.45534,25.8438 L -5.45534,34.6178 L -1.66711,34.6178 L -0.225616,34.6541 L 1.11726,34.7629
 L 2.36156,34.9444 L 3.50726,35.1985 L 4.55437,35.5251 L 5.50287,35.9243 L 6.35277,36.3962 L 7.09634,36.9365
 L 7.72551,37.5415 L 8.2403,38.2112 L 8.64069,38.9456 L 8.92667,39.7447 L 9.09827,40.6085 L 9.15546,41.537
 L 9.10892,42.4689 L 8.96928,43.3433 L 8.73657,44.1601 L 8.41078,44.9193 L 7.9919,45.621 L 7.47993,46.2651
 L 6.87489,46.8517 L 6.18701,47.3695 L 5.42657,47.8076 L 4.59358,48.1661 L 3.688,48.4449 L 2.70987,48.644
 L 1.65918,48.7635 L 0.535919,48.8034 L -1.63737,48.6551 L -3.51878,48.2102 L -5.10832,47.4687 L -6.40596,46.4307
 L -7.41173,45.096 L -8.1256,43.4648 L -8.54759,41.537 L -19.6022,42.5031 L -19.2603,44.5308 L -18.7425,46.4173
 L -18.0488,48.1626 L -17.1791,49.7668 L -16.1335,51.2297 L -14.912,52.5515 L -13.5146,53.7321 L -11.9538,54.7627
 L -10.2424,55.6348 L -8.38031,56.3483 L -6.36755,56.9032 L -4.20413,57.2996 L -1.89006,57.5374 L 0.574677,57.6167
 z
" stroke="black" fill="lightgray" stroke-width="0.5"/>
</svg>
