solid OpenSCAD_Model
  facet normal 0 0 -1
    outer loop
      vertex 3.61877 -21.9812 0
      vertex 1.93082 -12.0602 0
      vertex 8.10258 -21.9812 0
    endloop
  endfacet
  facet normal 0 -0 -1
    outer loop
      vertex 1.93082 -12.0602 0
      vertex 3.61877 -21.9812 0
      vertex -0.542969 -14.8046 0
    endloop
  endfacet
  facet normal 0 0 -1
    outer loop
      vertex 1.93082 -12.0602 0
      vertex 3.43828 -4.60025 0
      vertex 7.85768 -4.60025 0
    endloop
  endfacet
  facet normal 0 0 -1
    outer loop
      vertex -2.17924 -12.318 0
      vertex 1.93082 -12.0602 0
      vertex -0.542969 -14.8046 0
    endloop
  endfacet
  facet normal 0 0 -1
    outer loop
      vertex -2.17924 -12.318 0
      vertex -0.542969 -14.8046 0
      vertex -2.17924 -16.6343 0
    endloop
  endfacet
  facet normal -0 0 -1
    outer loop
      vertex 1.93082 -12.0602 0
      vertex -2.17924 -12.318 0
      vertex 3.43828 -4.60025 0
    endloop
  endfacet
  facet normal 0 0 -1
    outer loop
      vertex -5.98001 -21.9812 0
      vertex -2.17924 -16.6343 0
      vertex -2.17924 -21.9812 0
    endloop
  endfacet
  facet normal -0 0 -1
    outer loop
      vertex -2.17924 -16.6343 0
      vertex -5.98001 -21.9812 0
      vertex -2.17924 -12.318 0
    endloop
  endfacet
  facet normal 0 0 -1
    outer loop
      vertex -5.98001 -4.60025 0
      vertex -2.17924 -12.318 0
      vertex -5.98001 -21.9812 0
    endloop
  endfacet
  facet normal 0 0 -1
    outer loop
      vertex -2.17924 -12.318 0
      vertex -5.98001 -4.60025 0
      vertex -2.17924 -4.60025 0
    endloop
  endfacet
  facet normal -0 0 1
    outer loop
      vertex -5.98001 -4.60025 1
      vertex -2.17924 -12.318 1
      vertex -2.17924 -4.60025 1
    endloop
  endfacet
  facet normal 0 0 1
    outer loop
      vertex -5.98001 -21.9812 1
      vertex -2.17924 -12.318 1
      vertex -5.98001 -4.60025 1
    endloop
  endfacet
  facet normal 0 0 1
    outer loop
      vertex -2.17924 -12.318 1
      vertex -5.98001 -21.9812 1
      vertex -2.17924 -16.6343 1
    endloop
  endfacet
  facet normal 0 0 1
    outer loop
      vertex -2.17924 -16.6343 1
      vertex -5.98001 -21.9812 1
      vertex -2.17924 -21.9812 1
    endloop
  endfacet
  facet normal -0 0 1
    outer loop
      vertex 3.43828 -4.60025 1
      vertex 1.93082 -12.0602 1
      vertex 7.85768 -4.60025 1
    endloop
  endfacet
  facet normal 0 0 1
    outer loop
      vertex -2.17924 -12.318 1
      vertex 1.93082 -12.0602 1
      vertex 3.43828 -4.60025 1
    endloop
  endfacet
  facet normal 0 0 1
    outer loop
      vertex 1.93082 -12.0602 1
      vertex -2.17924 -12.318 1
      vertex -0.542969 -14.8046 1
    endloop
  endfacet
  facet normal 0 0 1
    outer loop
      vertex -0.542969 -14.8046 1
      vertex -2.17924 -12.318 1
      vertex -2.17924 -16.6343 1
    endloop
  endfacet
  facet normal 0 0 1
    outer loop
      vertex 1.93082 -12.0602 1
      vertex 3.61877 -21.9812 1
      vertex 8.10258 -21.9812 1
    endloop
  endfacet
  facet normal 0 0 1
    outer loop
      vertex 3.61877 -21.9812 1
      vertex 1.93082 -12.0602 1
      vertex -0.542969 -14.8046 1
    endloop
  endfacet
  facet normal 0.745409 -0.666607 0
    outer loop
      vertex -2.17924 -16.6343 1
      vertex -0.542969 -14.8046 0
      vertex -0.542969 -14.8046 1
    endloop
  endfacet
  facet normal 0.745409 -0.666607 0
    outer loop
      vertex -0.542969 -14.8046 0
      vertex -2.17924 -16.6343 1
      vertex -2.17924 -16.6343 0
    endloop
  endfacet
  facet normal -0.865067 -0.501656 0
    outer loop
      vertex 3.61877 -21.9812 0
      vertex -0.542969 -14.8046 1
      vertex -0.542969 -14.8046 0
    endloop
  endfacet
  facet normal -0.865067 -0.501656 0
    outer loop
      vertex -0.542969 -14.8046 1
      vertex 3.61877 -21.9812 0
      vertex 3.61877 -21.9812 1
    endloop
  endfacet
  facet normal 0 -1 0
    outer loop
      vertex 3.61877 -21.9812 0
      vertex 8.10258 -21.9812 1
      vertex 3.61877 -21.9812 1
    endloop
  endfacet
  facet normal 0 -1 -0
    outer loop
      vertex 8.10258 -21.9812 1
      vertex 3.61877 -21.9812 0
      vertex 8.10258 -21.9812 0
    endloop
  endfacet
  facet normal 0.849107 0.528221 0
    outer loop
      vertex 8.10258 -21.9812 1
      vertex 1.93082 -12.0602 0
      vertex 1.93082 -12.0602 1
    endloop
  endfacet
  facet normal 0.849107 0.528221 0
    outer loop
      vertex 1.93082 -12.0602 0
      vertex 8.10258 -21.9812 1
      vertex 8.10258 -21.9812 0
    endloop
  endfacet
  facet normal 0.782969 -0.622061 0
    outer loop
      vertex 1.93082 -12.0602 1
      vertex 7.85768 -4.60025 0
      vertex 7.85768 -4.60025 1
    endloop
  endfacet
  facet normal 0.782969 -0.622061 0
    outer loop
      vertex 7.85768 -4.60025 0
      vertex 1.93082 -12.0602 1
      vertex 1.93082 -12.0602 0
    endloop
  endfacet
  facet normal 0 1 -0
    outer loop
      vertex 7.85768 -4.60025 0
      vertex 3.43828 -4.60025 1
      vertex 7.85768 -4.60025 1
    endloop
  endfacet
  facet normal 0 1 0
    outer loop
      vertex 3.43828 -4.60025 1
      vertex 7.85768 -4.60025 0
      vertex 3.43828 -4.60025 0
    endloop
  endfacet
  facet normal -0.808506 0.588488 0
    outer loop
      vertex -2.17924 -12.318 0
      vertex 3.43828 -4.60025 1
      vertex 3.43828 -4.60025 0
    endloop
  endfacet
  facet normal -0.808506 0.588488 0
    outer loop
      vertex 3.43828 -4.60025 1
      vertex -2.17924 -12.318 0
      vertex -2.17924 -12.318 1
    endloop
  endfacet
  facet normal 1 -0 0
    outer loop
      vertex -2.17924 -12.318 1
      vertex -2.17924 -4.60025 0
      vertex -2.17924 -4.60025 1
    endloop
  endfacet
  facet normal 1 0 0
    outer loop
      vertex -2.17924 -4.60025 0
      vertex -2.17924 -12.318 1
      vertex -2.17924 -12.318 0
    endloop
  endfacet
  facet normal 0 1 -0
    outer loop
      vertex -2.17924 -4.60025 0
      vertex -5.98001 -4.60025 1
      vertex -2.17924 -4.60025 1
    endloop
  endfacet
  facet normal 0 1 0
    outer loop
      vertex -5.98001 -4.60025 1
      vertex -2.17924 -4.60025 0
      vertex -5.98001 -4.60025 0
    endloop
  endfacet
  facet normal -1 0 0
    outer loop
      vertex -5.98001 -21.9812 0
      vertex -5.98001 -4.60025 1
      vertex -5.98001 -4.60025 0
    endloop
  endfacet
  facet normal -1 -0 0
    outer loop
      vertex -5.98001 -4.60025 1
      vertex -5.98001 -21.9812 0
      vertex -5.98001 -21.9812 1
    endloop
  endfacet
  facet normal 0 -1 0
    outer loop
      vertex -5.98001 -21.9812 0
      vertex -2.17924 -21.9812 1
      vertex -5.98001 -21.9812 1
    endloop
  endfacet
  facet normal 0 -1 -0
    outer loop
      vertex -2.17924 -21.9812 1
      vertex -5.98001 -21.9812 0
      vertex -2.17924 -21.9812 0
    endloop
  endfacet
  facet normal 1 -0 0
    outer loop
      vertex -2.17924 -21.9812 1
      vertex -2.17924 -16.6343 0
      vertex -2.17924 -16.6343 1
    endloop
  endfacet
  facet normal 1 0 0
    outer loop
      vertex -2.17924 -16.6343 0
      vertex -2.17924 -21.9812 1
      vertex -2.17924 -21.9812 0
    endloop
  endfacet
endsolid OpenSCAD_Model
