<?xml version="1.0" standalone="no"?>
<!DOCTYPE svg PUBLIC "-//W3C//DTD SVG 1.1//EN" "http://www.w3.org/Graphics/SVG/1.1/DTD/svg11.dtd">
<svg width="14mm" height="19mm" viewBox="-7 4 14 19" xmlns="http://www.w3.org/2000/svg" version="1.1">
<title>OpenSCAD Model</title>
<path d="
M 1.00763,22.4533 L 1.81439,22.3129 L 2.56013,22.0789 L 3.24486,21.7513 L 3.86859,21.3301 L 4.4313,20.8153
 L 4.933,20.2068 L 5.37054,19.5092 L 5.74078,18.7269 L 6.04369,17.86 L 6.2793,16.9084 L 6.44757,15.8721
 L 6.54855,14.7512 L 6.5822,13.5456 L 6.55038,12.3137 L 6.45493,11.1728 L 6.29584,10.1228 L 6.0731,9.16389
 L 5.78673,8.29593 L 5.43671,7.51894 L 5.02307,6.83292 L 4.54373,6.23811 L 3.99655,5.7348 L 3.38153,5.323
 L 2.69867,5.00272 L 1.94797,4.77396 L 1.12943,4.63669 L 0.243042,4.59094 L -0.67421,4.63603 L -1.51918,4.77132
 L -2.29184,4.9968 L -2.99222,5.31245 L -3.62029,5.71832 L -4.17604,6.21437 L -4.65952,6.80063 L -5.07483,7.47943
 L -5.42624,8.25316 L -5.71376,9.1218 L -5.93739,10.0854 L -6.09714,11.1439 L -6.19298,12.2973 L -6.22491,13.5456
 L -6.19218,14.7545 L -6.09398,15.8779 L -5.93031,16.9159 L -5.70117,17.8684 L -5.40657,18.7355 L -5.04648,19.5171
 L -4.62094,20.2133 L -4.13092,20.82 L -3.57755,21.3334 L -2.96078,21.7534 L -2.28067,22.0801 L -1.53719,22.3134
 L -0.730331,22.4535 L 0.139877,22.5001 z
M -0.126419,19.6404 L -0.399124,19.6034 L -0.652359,19.5416 L -0.886139,19.4551 L -1.10046,19.3438 L -1.29533,19.2079
 L -1.47073,19.0473 L -1.63019,18.8595 L -1.77728,18.6423 L -1.91202,18.3956 L -2.03441,18.1195 L -2.14444,17.814
 L -2.24213,17.479 L -2.32745,17.1146 L -2.40094,16.7167 L -2.46313,16.2815 L -2.51401,15.809 L -2.55359,15.2992
 L -2.58186,14.752 L -2.59882,14.1675 L -2.60448,13.5456 L -2.59908,12.9171 L -2.58292,12.3271 L -2.55597,11.7758
 L -2.51823,11.2632 L -2.46973,10.7893 L -2.41043,10.3539 L -2.34036,9.95728 L -2.25816,9.59454 L -2.16255,9.26099
 L -2.05353,8.95662 L -1.93112,8.68144 L -1.7953,8.43546 L -1.64609,8.21866 L -1.48347,8.03107 L -1.30363,7.87041
 L -1.10275,7.73448 L -0.880844,7.62326 L -0.637878,7.53676 L -0.373886,7.47496 L -0.0888519,7.4379 L 0.217209,7.42554
 L 0.509094,7.4379 L 0.780991,7.47496 L 1.03288,7.53676 L 1.2648,7.62326 L 1.47672,7.73448 L 1.66864,7.87041
 L 1.84056,8.03107 L 1.99651,8.21866 L 2.14035,8.43546 L 2.27209,8.68144 L 2.39174,8.95662 L 2.49928,9.26099
 L 2.59473,9.59454 L 2.67809,9.95728 L 2.74992,10.3539 L 2.8107,10.7893 L 2.86043,11.2632 L 2.89911,11.7758
 L 2.92673,12.3271 L 2.94331,12.9171 L 2.94884,13.5456 L 2.93568,14.4494 L 2.89624,15.2758 L 2.83049,16.025
 L 2.73845,16.6968 L 2.62012,17.2913 L 2.47548,17.8086 L 2.30455,18.2485 L 2.1031,18.6211 L 1.86697,18.9363
 L 1.59613,19.1942 L 1.29057,19.3949 L 0.950333,19.5382 L 0.575378,19.6241 L 0.16571,19.6528 z
M 1.55728,11.8835 L -1.21291,11.8835 L -1.21291,15.0917 L 1.55728,15.0917 z
" stroke="black" fill="lightgray" stroke-width="0.5"/>
</svg>
