  0
SECTION
  2
BLOCKS
  0
ENDSEC
  0
SECTION
  2
ENTITIES
  0
LINE
  8
0
 10
24.4713
 20
-66.4173
 11
36.5828
 21
-66.4173
  0
LINE
  8
0
 10
36.5828
 20
-66.4173
 11
36.5828
 21
-52.953
  0
LINE
  8
0
 10
36.5828
 20
-52.953
 11
24.4713
 21
-52.953
  0
LINE
  8
0
 10
24.4713
 20
-52.953
 11
24.4713
 21
1.99879
  0
LINE
  8
0
 10
24.4713
 20
1.99879
 11
4.2429
 21
1.99879
  0
LINE
  8
0
 10
4.2429
 20
1.99879
 11
-34.0877
 21
-52.8238
  0
LINE
  8
0
 10
-34.0877
 20
-52.8238
 11
-34.0877
 21
-66.4173
  0
LINE
  8
0
 10
-34.0877
 20
-66.4173
 11
7.20691
 21
-66.4173
  0
LINE
  8
0
 10
7.20691
 20
-66.4173
 11
7.20691
 21
-84.9062
  0
LINE
  8
0
 10
7.20691
 20
-84.9062
 11
24.4713
 21
-84.9062
  0
LINE
  8
0
 10
24.4713
 20
-84.9062
 11
24.4713
 21
-66.4173
  0
LINE
  8
0
 10
-18.8848
 20
-52.953
 11
1.73015
 21
-24.1566
  0
LINE
  8
0
 10
1.73015
 20
-24.1566
 11
2.92674
 21
-22.2713
  0
LINE
  8
0
 10
2.92674
 20
-22.2713
 11
4.01286
 21
-20.5174
  0
LINE
  8
0
 10
4.01286
 20
-20.5174
 11
4.98853
 21
-18.895
  0
LINE
  8
0
 10
4.98853
 20
-18.895
 11
5.8537
 21
-17.4041
  0
LINE
  8
0
 10
5.8537
 20
-17.4041
 11
6.6084
 21
-16.0446
  0
LINE
  8
0
 10
6.6084
 20
-16.0446
 11
7.25264
 21
-14.8165
  0
LINE
  8
0
 10
7.25264
 20
-14.8165
 11
7.78641
 21
-13.7199
  0
LINE
  8
0
 10
7.78641
 20
-13.7199
 11
7.74753
 21
-14.1105
  0
LINE
  8
0
 10
7.74753
 20
-14.1105
 11
7.70474
 21
-14.6193
  0
LINE
  8
0
 10
7.70474
 20
-14.6193
 11
7.65804
 21
-15.2465
  0
LINE
  8
0
 10
7.65804
 20
-15.2465
 11
7.60742
 21
-15.992
  0
LINE
  8
0
 10
7.60742
 20
-15.992
 11
7.55287
 21
-16.8558
  0
LINE
  8
0
 10
7.55287
 20
-16.8558
 11
7.49443
 21
-17.8378
  0
LINE
  8
0
 10
7.49443
 20
-17.8378
 11
7.43205
 21
-18.9382
  0
LINE
  8
0
 10
7.43205
 20
-18.9382
 11
7.37231
 21
-20.086
  0
LINE
  8
0
 10
7.37231
 20
-20.086
 11
7.32178
 21
-21.21
  0
LINE
  8
0
 10
7.32178
 20
-21.21
 11
7.28043
 21
-22.3104
  0
LINE
  8
0
 10
7.28043
 20
-22.3104
 11
7.24826
 21
-23.3872
  0
LINE
  8
0
 10
7.24826
 20
-23.3872
 11
7.22528
 21
-24.4403
  0
LINE
  8
0
 10
7.22528
 20
-24.4403
 11
7.2115
 21
-25.4697
  0
LINE
  8
0
 10
7.2115
 20
-25.4697
 11
7.20691
 21
-26.4755
  0
LINE
  8
0
 10
7.20691
 20
-26.4755
 11
7.20691
 21
-52.953
  0
LINE
  8
0
 10
7.20691
 20
-52.953
 11
-18.8848
 21
-52.953
  0
ENDSEC
  0
SECTION
  2
OBJECTS
  0
DICTIONARY
  0
ENDSEC
  0
EOF
