<?xml version="1.0" standalone="no"?>
<!DOCTYPE svg PUBLIC "-//W3C//DTD SVG 1.1//EN" "http://www.w3.org/Graphics/SVG/1.1/DTD/svg11.dtd">
<svg width="72mm" height="87mm" viewBox="-35 -2 72 87" xmlns="http://www.w3.org/2000/svg" version="1.1">
<title>OpenSCAD Model</title>
<path d="
M 24.4713,66.4173 L 36.5828,66.4173 L 36.5828,52.953 L 24.4713,52.953 L 24.4713,-1.99879 L 4.2429,-1.99879
 L -34.0877,52.8238 L -34.0877,66.4173 L 7.20691,66.4173 L 7.20691,84.9062 L 24.4713,84.9062 z
M -18.8848,52.953 L 1.73015,24.1566 L 2.92674,22.2713 L 4.01286,20.5174 L 4.98853,18.895 L 5.8537,17.4041
 L 6.6084,16.0446 L 7.25264,14.8165 L 7.78641,13.7199 L 7.74753,14.1105 L 7.70474,14.6193 L 7.65804,15.2465
 L 7.60742,15.992 L 7.55287,16.8558 L 7.49443,17.8378 L 7.43205,18.9382 L 7.37231,20.086 L 7.32178,21.21
 L 7.28043,22.3104 L 7.24826,23.3872 L 7.22528,24.4403 L 7.2115,25.4697 L 7.20691,26.4755 L 7.20691,52.953
 z
" stroke="black" fill="lightgray" stroke-width="0.5"/>
</svg>
