solid OpenSCAD_Model
  facet normal 0 0 -1
    outer loop
      vertex 19.3214 -34.9552 0
      vertex 7.88148 -36.8978 0
      vertex 7.91856 -35.0322 0
    endloop
  endfacet
  facet normal 0 0 -1
    outer loop
      vertex 11.4081 -53.9853 0
      vertex 7.77026 -38.6072 0
      vertex 7.88148 -36.8978 0
    endloop
  endfacet
  facet normal 0 0 -1
    outer loop
      vertex 11.4081 -53.9853 0
      vertex 7.5849 -40.1604 0
      vertex 7.77026 -38.6072 0
    endloop
  endfacet
  facet normal 0 0 -1
    outer loop
      vertex 4.14015 -46.8163 0
      vertex 9.52943 -54.9686 0
      vertex 7.44495 -55.7334 0
    endloop
  endfacet
  facet normal 0 0 -1
    outer loop
      vertex 11.4081 -53.9853 0
      vertex 7.32539 -41.5575 0
      vertex 7.5849 -40.1604 0
    endloop
  endfacet
  facet normal 0 0 -1
    outer loop
      vertex 11.4081 -53.9853 0
      vertex 6.99173 -42.7984 0
      vertex 7.32539 -41.5575 0
    endloop
  endfacet
  facet normal 0 0 -1
    outer loop
      vertex 11.4081 -53.9853 0
      vertex 6.58392 -43.8831 0
      vertex 6.99173 -42.7984 0
    endloop
  endfacet
  facet normal 0 0 -1
    outer loop
      vertex 11.4081 -53.9853 0
      vertex 6.10197 -44.8116 0
      vertex 6.58392 -43.8831 0
    endloop
  endfacet
  facet normal 0 0 -1
    outer loop
      vertex 11.4081 -53.9853 0
      vertex 5.53798 -45.6013 0
      vertex 6.10197 -44.8116 0
    endloop
  endfacet
  facet normal 0 0 -1
    outer loop
      vertex 3.30632 -47.2415 0
      vertex 7.44495 -55.7334 0
      vertex 5.15459 -56.2796 0
    endloop
  endfacet
  facet normal 0 0 -1
    outer loop
      vertex 11.4081 -53.9853 0
      vertex 4.88403 -46.2695 0
      vertex 5.53798 -45.6013 0
    endloop
  endfacet
  facet normal 0 0 -1
    outer loop
      vertex 9.52943 -54.9686 0
      vertex 4.14015 -46.8163 0
      vertex 4.88403 -46.2695 0
    endloop
  endfacet
  facet normal 0 0 -1
    outer loop
      vertex 7.44495 -55.7334 0
      vertex 3.30632 -47.2415 0
      vertex 4.14015 -46.8163 0
    endloop
  endfacet
  facet normal 0 0 -1
    outer loop
      vertex 2.38254 -47.5452 0
      vertex 5.15459 -56.2796 0
      vertex 2.65834 -56.6074 0
    endloop
  endfacet
  facet normal 0 0 -1
    outer loop
      vertex 5.15459 -56.2796 0
      vertex 2.38254 -47.5452 0
      vertex 3.30632 -47.2415 0
    endloop
  endfacet
  facet normal 0 0 -1
    outer loop
      vertex 2.65834 -56.6074 0
      vertex 1.36884 -47.7274 0
      vertex 2.38254 -47.5452 0
    endloop
  endfacet
  facet normal 0 0 -1
    outer loop
      vertex -0.0437622 -56.7167 0
      vertex 1.36884 -47.7274 0
      vertex 2.65834 -56.6074 0
    endloop
  endfacet
  facet normal 0 0 -1
    outer loop
      vertex 1.36884 -47.7274 0
      vertex -0.0437622 -56.7167 0
      vertex 0.265167 -47.7882 0
    endloop
  endfacet
  facet normal 0 0 -1
    outer loop
      vertex -0.0437622 -56.7167 0
      vertex -0.812775 -47.731 0
      vertex 0.265167 -47.7882 0
    endloop
  endfacet
  facet normal 0 0 -1
    outer loop
      vertex -2.65483 -56.611 0
      vertex -0.812775 -47.731 0
      vertex -0.0437622 -56.7167 0
    endloop
  endfacet
  facet normal -0 0 -1
    outer loop
      vertex -0.812775 -47.731 0
      vertex -2.65483 -56.611 0
      vertex -1.7937 -47.5594 0
    endloop
  endfacet
  facet normal 0 0 -1
    outer loop
      vertex -5.0545 -56.2938 0
      vertex -1.7937 -47.5594 0
      vertex -2.65483 -56.611 0
    endloop
  endfacet
  facet normal -0 0 -1
    outer loop
      vertex -1.7937 -47.5594 0
      vertex -5.0545 -56.2938 0
      vertex -2.67758 -47.2735 0
    endloop
  endfacet
  facet normal 0 0 -1
    outer loop
      vertex -7.24275 -55.7653 0
      vertex -2.67758 -47.2735 0
      vertex -5.0545 -56.2938 0
    endloop
  endfacet
  facet normal -0 0 -1
    outer loop
      vertex -2.67758 -47.2735 0
      vertex -7.24275 -55.7653 0
      vertex -3.46443 -46.8732 0
    endloop
  endfacet
  facet normal 0 0 -1
    outer loop
      vertex -9.21959 -55.0254 0
      vertex -3.46443 -46.8732 0
      vertex -7.24275 -55.7653 0
    endloop
  endfacet
  facet normal -0 0 -1
    outer loop
      vertex -3.46443 -46.8732 0
      vertex -9.21959 -55.0254 0
      vertex -4.15424 -46.3585 0
    endloop
  endfacet
  facet normal 0 0 -1
    outer loop
      vertex -10.985 -54.074 0
      vertex -4.15424 -46.3585 0
      vertex -9.21959 -55.0254 0
    endloop
  endfacet
  facet normal -0 0 -1
    outer loop
      vertex -4.15424 -46.3585 0
      vertex -10.985 -54.074 0
      vertex -4.74699 -45.7295 0
    endloop
  endfacet
  facet normal 0 0 -1
    outer loop
      vertex -12.539 -52.9113 0
      vertex -4.74699 -45.7295 0
      vertex -10.985 -54.074 0
    endloop
  endfacet
  facet normal 0 0 -1
    outer loop
      vertex -13.8817 -51.5371 0
      vertex -4.74699 -45.7295 0
      vertex -12.539 -52.9113 0
    endloop
  endfacet
  facet normal -0 0 -1
    outer loop
      vertex -4.74699 -45.7295 0
      vertex -13.8817 -51.5371 0
      vertex -5.24272 -44.9861 0
    endloop
  endfacet
  facet normal 0 0 -1
    outer loop
      vertex -15.0302 -49.942 0
      vertex -5.24272 -44.9861 0
      vertex -13.8817 -51.5371 0
    endloop
  endfacet
  facet normal -0 0 -1
    outer loop
      vertex -5.24272 -44.9861 0
      vertex -15.0302 -49.942 0
      vertex -5.65799 -44.1044 0
    endloop
  endfacet
  facet normal 0 0 -1
    outer loop
      vertex -16.002 -48.1167 0
      vertex -5.65799 -44.1044 0
      vertex -15.0302 -49.942 0
    endloop
  endfacet
  facet normal -0 0 -1
    outer loop
      vertex -5.65799 -44.1044 0
      vertex -16.002 -48.1167 0
      vertex -6.00937 -43.0611 0
    endloop
  endfacet
  facet normal 0 0 -1
    outer loop
      vertex -16.7972 -46.061 0
      vertex -6.00937 -43.0611 0
      vertex -16.002 -48.1167 0
    endloop
  endfacet
  facet normal -0 0 -1
    outer loop
      vertex -6.00937 -43.0611 0
      vertex -16.7972 -46.061 0
      vertex -6.29686 -41.8561 0
    endloop
  endfacet
  facet normal 0 0 -1
    outer loop
      vertex -17.4156 -43.7749 0
      vertex -6.29686 -41.8561 0
      vertex -16.7972 -46.061 0
    endloop
  endfacet
  facet normal -0 0 -1
    outer loop
      vertex -6.29686 -41.8561 0
      vertex -17.4156 -43.7749 0
      vertex -6.52046 -40.4894 0
    endloop
  endfacet
  facet normal 0 0 -1
    outer loop
      vertex -17.8574 -41.2586 0
      vertex -6.52046 -40.4894 0
      vertex -17.4156 -43.7749 0
    endloop
  endfacet
  facet normal -0 0 -1
    outer loop
      vertex -6.52046 -40.4894 0
      vertex -17.8574 -41.2586 0
      vertex -6.68018 -38.961 0
    endloop
  endfacet
  facet normal 0 0 -1
    outer loop
      vertex -18.1225 -38.5119 0
      vertex -6.68018 -38.961 0
      vertex -17.8574 -41.2586 0
    endloop
  endfacet
  facet normal 0 0 -1
    outer loop
      vertex -6.68018 -38.961 0
      vertex -18.1225 -38.5119 0
      vertex -6.776 -37.271 0
    endloop
  endfacet
  facet normal 0 0 -1
    outer loop
      vertex -18.2108 -35.5349 0
      vertex -6.776 -37.271 0
      vertex -18.1225 -38.5119 0
    endloop
  endfacet
  facet normal 0 0 -1
    outer loop
      vertex -6.776 -37.271 0
      vertex -18.2108 -35.5349 0
      vertex -6.80795 -35.4192 0
    endloop
  endfacet
  facet normal 0 0 -1
    outer loop
      vertex -18.2108 -3.80072 0
      vertex -6.80795 -35.4192 0
      vertex -18.2108 -35.5349 0
    endloop
  endfacet
  facet normal 0 0 -1
    outer loop
      vertex -6.80795 -35.4192 0
      vertex -18.2108 -3.80072 0
      vertex -6.80795 -3.80072 0
    endloop
  endfacet
  facet normal 0 0 -1
    outer loop
      vertex 7.88148 -36.8978 0
      vertex 19.3214 -34.9552 0
      vertex 19.224 -37.9973 0
    endloop
  endfacet
  facet normal 0 0 -1
    outer loop
      vertex 7.88148 -36.8978 0
      vertex 19.224 -37.9973 0
      vertex 18.9317 -40.8067 0
    endloop
  endfacet
  facet normal 0 0 -1
    outer loop
      vertex 7.88148 -36.8978 0
      vertex 18.9317 -40.8067 0
      vertex 18.4446 -43.3834 0
    endloop
  endfacet
  facet normal 0 0 -1
    outer loop
      vertex 7.88148 -36.8978 0
      vertex 18.4446 -43.3834 0
      vertex 17.7626 -45.7274 0
    endloop
  endfacet
  facet normal 0 0 -1
    outer loop
      vertex 7.88148 -36.8978 0
      vertex 17.7626 -45.7274 0
      vertex 16.8858 -47.8387 0
    endloop
  endfacet
  facet normal 0 0 -1
    outer loop
      vertex 7.88148 -36.8978 0
      vertex 16.8858 -47.8387 0
      vertex 15.8142 -49.7173 0
    endloop
  endfacet
  facet normal 0 0 -1
    outer loop
      vertex 7.88148 -36.8978 0
      vertex 15.8142 -49.7173 0
      vertex 14.5477 -51.3632 0
    endloop
  endfacet
  facet normal 0 0 -1
    outer loop
      vertex 7.88148 -36.8978 0
      vertex 14.5477 -51.3632 0
      vertex 13.0808 -52.7835 0
    endloop
  endfacet
  facet normal 0 0 -1
    outer loop
      vertex 7.88148 -36.8978 0
      vertex 13.0808 -52.7835 0
      vertex 11.4081 -53.9853 0
    endloop
  endfacet
  facet normal 0 0 -1
    outer loop
      vertex 4.88403 -46.2695 0
      vertex 11.4081 -53.9853 0
      vertex 9.52943 -54.9686 0
    endloop
  endfacet
  facet normal -0 0 -1
    outer loop
      vertex 19.3214 -34.9552 0
      vertex 7.91856 -35.0322 0
      vertex 19.3214 -3.80072 0
    endloop
  endfacet
  facet normal -0 0 -1
    outer loop
      vertex 19.3214 -3.80072 0
      vertex 7.91856 -35.0322 0
      vertex 7.91856 -3.80072 0
    endloop
  endfacet
  facet normal -0 0 1
    outer loop
      vertex -18.2108 -3.80072 1
      vertex -6.80795 -35.4192 1
      vertex -6.80795 -3.80072 1
    endloop
  endfacet
  facet normal 0 -0 1
    outer loop
      vertex -18.1225 -38.5119 1
      vertex -6.80795 -35.4192 1
      vertex -18.2108 -35.5349 1
    endloop
  endfacet
  facet normal 0 -0 1
    outer loop
      vertex -17.8574 -41.2586 1
      vertex -6.80795 -35.4192 1
      vertex -18.1225 -38.5119 1
    endloop
  endfacet
  facet normal 0 -0 1
    outer loop
      vertex -17.4156 -43.7749 1
      vertex -6.80795 -35.4192 1
      vertex -17.8574 -41.2586 1
    endloop
  endfacet
  facet normal 0 -0 1
    outer loop
      vertex -16.7972 -46.061 1
      vertex -6.80795 -35.4192 1
      vertex -17.4156 -43.7749 1
    endloop
  endfacet
  facet normal 0 -0 1
    outer loop
      vertex -16.002 -48.1167 1
      vertex -6.80795 -35.4192 1
      vertex -16.7972 -46.061 1
    endloop
  endfacet
  facet normal 0 -0 1
    outer loop
      vertex -15.0302 -49.942 1
      vertex -6.80795 -35.4192 1
      vertex -16.002 -48.1167 1
    endloop
  endfacet
  facet normal 0 0 1
    outer loop
      vertex -6.80795 -35.4192 1
      vertex -9.21959 -55.0254 1
      vertex -7.24275 -55.7653 1
    endloop
  endfacet
  facet normal 0 -0 1
    outer loop
      vertex -13.8817 -51.5371 1
      vertex -6.80795 -35.4192 1
      vertex -15.0302 -49.942 1
    endloop
  endfacet
  facet normal 0 0 1
    outer loop
      vertex -6.80795 -35.4192 1
      vertex -10.985 -54.074 1
      vertex -9.21959 -55.0254 1
    endloop
  endfacet
  facet normal 0 0 1
    outer loop
      vertex -6.80795 -35.4192 1
      vertex -13.8817 -51.5371 1
      vertex -12.539 -52.9113 1
    endloop
  endfacet
  facet normal 0 0 1
    outer loop
      vertex -6.80795 -35.4192 1
      vertex -18.2108 -3.80072 1
      vertex -18.2108 -35.5349 1
    endloop
  endfacet
  facet normal 0 0 1
    outer loop
      vertex -6.80795 -35.4192 1
      vertex -12.539 -52.9113 1
      vertex -10.985 -54.074 1
    endloop
  endfacet
  facet normal 0 0 1
    outer loop
      vertex 7.91856 -35.0322 1
      vertex 19.3214 -34.9552 1
      vertex 19.3214 -3.80072 1
    endloop
  endfacet
  facet normal 0 0 1
    outer loop
      vertex 7.88148 -36.8978 1
      vertex 19.3214 -34.9552 1
      vertex 7.91856 -35.0322 1
    endloop
  endfacet
  facet normal 0 0 1
    outer loop
      vertex 19.3214 -34.9552 1
      vertex 7.88148 -36.8978 1
      vertex 19.224 -37.9973 1
    endloop
  endfacet
  facet normal 0 0 1
    outer loop
      vertex 7.77026 -38.6072 1
      vertex 19.224 -37.9973 1
      vertex 7.88148 -36.8978 1
    endloop
  endfacet
  facet normal 0 0 1
    outer loop
      vertex 19.224 -37.9973 1
      vertex 7.77026 -38.6072 1
      vertex 18.9317 -40.8067 1
    endloop
  endfacet
  facet normal -0 0 1
    outer loop
      vertex 7.5849 -40.1604 1
      vertex 18.9317 -40.8067 1
      vertex 7.77026 -38.6072 1
    endloop
  endfacet
  facet normal 0 0 1
    outer loop
      vertex 18.9317 -40.8067 1
      vertex 7.5849 -40.1604 1
      vertex 18.4446 -43.3834 1
    endloop
  endfacet
  facet normal -0 0 1
    outer loop
      vertex 7.32539 -41.5575 1
      vertex 18.4446 -43.3834 1
      vertex 7.5849 -40.1604 1
    endloop
  endfacet
  facet normal 0 0 1
    outer loop
      vertex 18.4446 -43.3834 1
      vertex 7.32539 -41.5575 1
      vertex 17.7626 -45.7274 1
    endloop
  endfacet
  facet normal -0 0 1
    outer loop
      vertex 6.99173 -42.7984 1
      vertex 17.7626 -45.7274 1
      vertex 7.32539 -41.5575 1
    endloop
  endfacet
  facet normal 0 0 1
    outer loop
      vertex 7.91856 -35.0322 1
      vertex 19.3214 -3.80072 1
      vertex 7.91856 -3.80072 1
    endloop
  endfacet
  facet normal 0 0 1
    outer loop
      vertex 17.7626 -45.7274 1
      vertex 6.99173 -42.7984 1
      vertex 16.8858 -47.8387 1
    endloop
  endfacet
  facet normal -0 0 1
    outer loop
      vertex 6.58392 -43.8831 1
      vertex 16.8858 -47.8387 1
      vertex 6.99173 -42.7984 1
    endloop
  endfacet
  facet normal 0 0 1
    outer loop
      vertex 16.8858 -47.8387 1
      vertex 6.58392 -43.8831 1
      vertex 15.8142 -49.7173 1
    endloop
  endfacet
  facet normal -0 0 1
    outer loop
      vertex 6.10197 -44.8116 1
      vertex 15.8142 -49.7173 1
      vertex 6.58392 -43.8831 1
    endloop
  endfacet
  facet normal 0 0 1
    outer loop
      vertex 15.8142 -49.7173 1
      vertex 6.10197 -44.8116 1
      vertex 14.5477 -51.3632 1
    endloop
  endfacet
  facet normal 0 0 1
    outer loop
      vertex 14.5477 -51.3632 1
      vertex 6.10197 -44.8116 1
      vertex 13.0808 -52.7835 1
    endloop
  endfacet
  facet normal -0 0 1
    outer loop
      vertex 5.53798 -45.6013 1
      vertex 13.0808 -52.7835 1
      vertex 6.10197 -44.8116 1
    endloop
  endfacet
  facet normal 0 0 1
    outer loop
      vertex 13.0808 -52.7835 1
      vertex 5.53798 -45.6013 1
      vertex 11.4081 -53.9853 1
    endloop
  endfacet
  facet normal -0 0 1
    outer loop
      vertex 4.88403 -46.2695 1
      vertex 11.4081 -53.9853 1
      vertex 5.53798 -45.6013 1
    endloop
  endfacet
  facet normal 0 0 1
    outer loop
      vertex 11.4081 -53.9853 1
      vertex 4.88403 -46.2695 1
      vertex 9.52943 -54.9686 1
    endloop
  endfacet
  facet normal -0 0 1
    outer loop
      vertex 4.14015 -46.8163 1
      vertex 9.52943 -54.9686 1
      vertex 4.88403 -46.2695 1
    endloop
  endfacet
  facet normal 0 0 1
    outer loop
      vertex 9.52943 -54.9686 1
      vertex 4.14015 -46.8163 1
      vertex 7.44495 -55.7334 1
    endloop
  endfacet
  facet normal -0 0 1
    outer loop
      vertex 3.30632 -47.2415 1
      vertex 7.44495 -55.7334 1
      vertex 4.14015 -46.8163 1
    endloop
  endfacet
  facet normal 0 0 1
    outer loop
      vertex 7.44495 -55.7334 1
      vertex 3.30632 -47.2415 1
      vertex 5.15459 -56.2796 1
    endloop
  endfacet
  facet normal -0 0 1
    outer loop
      vertex 2.38254 -47.5452 1
      vertex 5.15459 -56.2796 1
      vertex 3.30632 -47.2415 1
    endloop
  endfacet
  facet normal 0 0 1
    outer loop
      vertex 5.15459 -56.2796 1
      vertex 2.38254 -47.5452 1
      vertex 2.65834 -56.6074 1
    endloop
  endfacet
  facet normal -0 0 1
    outer loop
      vertex 1.36884 -47.7274 1
      vertex 2.65834 -56.6074 1
      vertex 2.38254 -47.5452 1
    endloop
  endfacet
  facet normal 0 0 1
    outer loop
      vertex -0.0437622 -56.7167 1
      vertex 1.36884 -47.7274 1
      vertex 0.265167 -47.7882 1
    endloop
  endfacet
  facet normal 0 0 1
    outer loop
      vertex 1.36884 -47.7274 1
      vertex -0.0437622 -56.7167 1
      vertex 2.65834 -56.6074 1
    endloop
  endfacet
  facet normal 0 0 1
    outer loop
      vertex -0.812775 -47.731 1
      vertex -0.0437622 -56.7167 1
      vertex 0.265167 -47.7882 1
    endloop
  endfacet
  facet normal 0 0 1
    outer loop
      vertex -2.65483 -56.611 1
      vertex -0.812775 -47.731 1
      vertex -1.7937 -47.5594 1
    endloop
  endfacet
  facet normal 0 0 1
    outer loop
      vertex -0.812775 -47.731 1
      vertex -2.65483 -56.611 1
      vertex -0.0437622 -56.7167 1
    endloop
  endfacet
  facet normal 0 0 1
    outer loop
      vertex -5.0545 -56.2938 1
      vertex -1.7937 -47.5594 1
      vertex -2.67758 -47.2735 1
    endloop
  endfacet
  facet normal 0 0 1
    outer loop
      vertex -7.24275 -55.7653 1
      vertex -2.67758 -47.2735 1
      vertex -3.46443 -46.8732 1
    endloop
  endfacet
  facet normal 0 0 1
    outer loop
      vertex -7.24275 -55.7653 1
      vertex -3.46443 -46.8732 1
      vertex -4.15424 -46.3585 1
    endloop
  endfacet
  facet normal 0 0 1
    outer loop
      vertex -7.24275 -55.7653 1
      vertex -4.15424 -46.3585 1
      vertex -4.74699 -45.7295 1
    endloop
  endfacet
  facet normal 0 0 1
    outer loop
      vertex -1.7937 -47.5594 1
      vertex -5.0545 -56.2938 1
      vertex -2.65483 -56.611 1
    endloop
  endfacet
  facet normal 0 0 1
    outer loop
      vertex -7.24275 -55.7653 1
      vertex -4.74699 -45.7295 1
      vertex -5.24272 -44.9861 1
    endloop
  endfacet
  facet normal 0 0 1
    outer loop
      vertex -7.24275 -55.7653 1
      vertex -5.24272 -44.9861 1
      vertex -5.65799 -44.1044 1
    endloop
  endfacet
  facet normal 0 0 1
    outer loop
      vertex -7.24275 -55.7653 1
      vertex -5.65799 -44.1044 1
      vertex -6.00937 -43.0611 1
    endloop
  endfacet
  facet normal 0 0 1
    outer loop
      vertex -7.24275 -55.7653 1
      vertex -6.00937 -43.0611 1
      vertex -6.29686 -41.8561 1
    endloop
  endfacet
  facet normal 0 0 1
    outer loop
      vertex -7.24275 -55.7653 1
      vertex -6.29686 -41.8561 1
      vertex -6.52046 -40.4894 1
    endloop
  endfacet
  facet normal 0 0 1
    outer loop
      vertex -7.24275 -55.7653 1
      vertex -6.52046 -40.4894 1
      vertex -6.68018 -38.961 1
    endloop
  endfacet
  facet normal 0 0 1
    outer loop
      vertex -2.67758 -47.2735 1
      vertex -7.24275 -55.7653 1
      vertex -5.0545 -56.2938 1
    endloop
  endfacet
  facet normal 0 0 1
    outer loop
      vertex -6.776 -37.271 1
      vertex -7.24275 -55.7653 1
      vertex -6.68018 -38.961 1
    endloop
  endfacet
  facet normal 0 0 1
    outer loop
      vertex -7.24275 -55.7653 1
      vertex -6.776 -37.271 1
      vertex -6.80795 -35.4192 1
    endloop
  endfacet
  facet normal 0.130199 -0.991488 0
    outer loop
      vertex 2.65834 -56.6074 0
      vertex 5.15459 -56.2796 1
      vertex 2.65834 -56.6074 1
    endloop
  endfacet
  facet normal 0.130199 -0.991488 0
    outer loop
      vertex 5.15459 -56.2796 1
      vertex 2.65834 -56.6074 0
      vertex 5.15459 -56.2796 0
    endloop
  endfacet
  facet normal 0.231973 -0.972722 0
    outer loop
      vertex 5.15459 -56.2796 0
      vertex 7.44495 -55.7334 1
      vertex 5.15459 -56.2796 1
    endloop
  endfacet
  facet normal 0.231973 -0.972722 0
    outer loop
      vertex 7.44495 -55.7334 1
      vertex 5.15459 -56.2796 0
      vertex 7.44495 -55.7334 0
    endloop
  endfacet
  facet normal 0.344449 -0.938805 0
    outer loop
      vertex 7.44495 -55.7334 0
      vertex 9.52943 -54.9686 1
      vertex 7.44495 -55.7334 1
    endloop
  endfacet
  facet normal 0.344449 -0.938805 0
    outer loop
      vertex 9.52943 -54.9686 1
      vertex 7.44495 -55.7334 0
      vertex 9.52943 -54.9686 0
    endloop
  endfacet
  facet normal 0.463724 -0.88598 0
    outer loop
      vertex 9.52943 -54.9686 0
      vertex 11.4081 -53.9853 1
      vertex 9.52943 -54.9686 1
    endloop
  endfacet
  facet normal 0.463724 -0.88598 0
    outer loop
      vertex 11.4081 -53.9853 1
      vertex 9.52943 -54.9686 0
      vertex 11.4081 -53.9853 0
    endloop
  endfacet
  facet normal 0.583491 -0.81212 0
    outer loop
      vertex 11.4081 -53.9853 0
      vertex 13.0808 -52.7835 1
      vertex 11.4081 -53.9853 1
    endloop
  endfacet
  facet normal 0.583491 -0.81212 0
    outer loop
      vertex 13.0808 -52.7835 1
      vertex 11.4081 -53.9853 0
      vertex 13.0808 -52.7835 0
    endloop
  endfacet
  facet normal 0.695603 -0.718426 0
    outer loop
      vertex 13.0808 -52.7835 0
      vertex 14.5477 -51.3632 1
      vertex 13.0808 -52.7835 1
    endloop
  endfacet
  facet normal 0.695603 -0.718426 0
    outer loop
      vertex 14.5477 -51.3632 1
      vertex 13.0808 -52.7835 0
      vertex 14.5477 -51.3632 0
    endloop
  endfacet
  facet normal 0.792526 -0.609839 0
    outer loop
      vertex 14.5477 -51.3632 1
      vertex 15.8142 -49.7173 0
      vertex 15.8142 -49.7173 1
    endloop
  endfacet
  facet normal 0.792526 -0.609839 0
    outer loop
      vertex 15.8142 -49.7173 0
      vertex 14.5477 -51.3632 1
      vertex 14.5477 -51.3632 0
    endloop
  endfacet
  facet normal 0.868618 -0.495482 0
    outer loop
      vertex 15.8142 -49.7173 1
      vertex 16.8858 -47.8387 0
      vertex 16.8858 -47.8387 1
    endloop
  endfacet
  facet normal 0.868618 -0.495482 0
    outer loop
      vertex 16.8858 -47.8387 0
      vertex 15.8142 -49.7173 1
      vertex 15.8142 -49.7173 0
    endloop
  endfacet
  facet normal 0.923528 -0.383531 0
    outer loop
      vertex 16.8858 -47.8387 1
      vertex 17.7626 -45.7274 0
      vertex 17.7626 -45.7274 1
    endloop
  endfacet
  facet normal 0.923528 -0.383531 0
    outer loop
      vertex 17.7626 -45.7274 0
      vertex 16.8858 -47.8387 1
      vertex 16.8858 -47.8387 0
    endloop
  endfacet
  facet normal 0.960183 -0.279371 0
    outer loop
      vertex 17.7626 -45.7274 1
      vertex 18.4446 -43.3834 0
      vertex 18.4446 -43.3834 1
    endloop
  endfacet
  facet normal 0.960183 -0.279371 0
    outer loop
      vertex 18.4446 -43.3834 0
      vertex 17.7626 -45.7274 1
      vertex 17.7626 -45.7274 0
    endloop
  endfacet
  facet normal 0.982597 -0.18575 0
    outer loop
      vertex 18.4446 -43.3834 1
      vertex 18.9317 -40.8067 0
      vertex 18.9317 -40.8067 1
    endloop
  endfacet
  facet normal 0.982597 -0.18575 0
    outer loop
      vertex 18.9317 -40.8067 0
      vertex 18.4446 -43.3834 1
      vertex 18.4446 -43.3834 0
    endloop
  endfacet
  facet normal 0.994631 -0.103485 0
    outer loop
      vertex 18.9317 -40.8067 1
      vertex 19.224 -37.9973 0
      vertex 19.224 -37.9973 1
    endloop
  endfacet
  facet normal 0.994631 -0.103485 0
    outer loop
      vertex 19.224 -37.9973 0
      vertex 18.9317 -40.8067 1
      vertex 18.9317 -40.8067 0
    endloop
  endfacet
  facet normal 0.999488 -0.032001 0
    outer loop
      vertex 19.224 -37.9973 1
      vertex 19.3214 -34.9552 0
      vertex 19.3214 -34.9552 1
    endloop
  endfacet
  facet normal 0.999488 -0.032001 0
    outer loop
      vertex 19.3214 -34.9552 0
      vertex 19.224 -37.9973 1
      vertex 19.224 -37.9973 0
    endloop
  endfacet
  facet normal 1 -0 0
    outer loop
      vertex 19.3214 -34.9552 1
      vertex 19.3214 -3.80072 0
      vertex 19.3214 -3.80072 1
    endloop
  endfacet
  facet normal 1 0 0
    outer loop
      vertex 19.3214 -3.80072 0
      vertex 19.3214 -34.9552 1
      vertex 19.3214 -34.9552 0
    endloop
  endfacet
  facet normal 0 1 -0
    outer loop
      vertex 19.3214 -3.80072 0
      vertex 7.91856 -3.80072 1
      vertex 19.3214 -3.80072 1
    endloop
  endfacet
  facet normal 0 1 0
    outer loop
      vertex 7.91856 -3.80072 1
      vertex 19.3214 -3.80072 0
      vertex 7.91856 -3.80072 0
    endloop
  endfacet
  facet normal -1 0 0
    outer loop
      vertex 7.91856 -35.0322 0
      vertex 7.91856 -3.80072 1
      vertex 7.91856 -3.80072 0
    endloop
  endfacet
  facet normal -1 -0 0
    outer loop
      vertex 7.91856 -3.80072 1
      vertex 7.91856 -35.0322 0
      vertex 7.91856 -35.0322 1
    endloop
  endfacet
  facet normal -0.999803 0.0198717 0
    outer loop
      vertex 7.88148 -36.8978 0
      vertex 7.91856 -35.0322 1
      vertex 7.91856 -35.0322 0
    endloop
  endfacet
  facet normal -0.999803 0.0198717 0
    outer loop
      vertex 7.91856 -35.0322 1
      vertex 7.88148 -36.8978 0
      vertex 7.88148 -36.8978 1
    endloop
  endfacet
  facet normal -0.99789 0.0649265 0
    outer loop
      vertex 7.77026 -38.6072 0
      vertex 7.88148 -36.8978 1
      vertex 7.88148 -36.8978 0
    endloop
  endfacet
  facet normal -0.99789 0.0649265 0
    outer loop
      vertex 7.88148 -36.8978 1
      vertex 7.77026 -38.6072 0
      vertex 7.77026 -38.6072 1
    endloop
  endfacet
  facet normal -0.992954 0.1185 0
    outer loop
      vertex 7.5849 -40.1604 0
      vertex 7.77026 -38.6072 1
      vertex 7.77026 -38.6072 0
    endloop
  endfacet
  facet normal -0.992954 0.1185 0
    outer loop
      vertex 7.77026 -38.6072 1
      vertex 7.5849 -40.1604 0
      vertex 7.5849 -40.1604 1
    endloop
  endfacet
  facet normal -0.983183 0.182625 0
    outer loop
      vertex 7.32539 -41.5575 0
      vertex 7.5849 -40.1604 1
      vertex 7.5849 -40.1604 0
    endloop
  endfacet
  facet normal -0.983183 0.182625 0
    outer loop
      vertex 7.5849 -40.1604 1
      vertex 7.32539 -41.5575 0
      vertex 7.32539 -41.5575 1
    endloop
  endfacet
  facet normal -0.965699 0.259663 0
    outer loop
      vertex 6.99173 -42.7984 0
      vertex 7.32539 -41.5575 1
      vertex 7.32539 -41.5575 0
    endloop
  endfacet
  facet normal -0.965699 0.259663 0
    outer loop
      vertex 7.32539 -41.5575 1
      vertex 6.99173 -42.7984 0
      vertex 6.99173 -42.7984 1
    endloop
  endfacet
  facet normal -0.936032 0.351916 0
    outer loop
      vertex 6.58392 -43.8831 0
      vertex 6.99173 -42.7984 1
      vertex 6.99173 -42.7984 0
    endloop
  endfacet
  facet normal -0.936032 0.351916 0
    outer loop
      vertex 6.99173 -42.7984 1
      vertex 6.58392 -43.8831 0
      vertex 6.58392 -43.8831 1
    endloop
  endfacet
  facet normal -0.887557 0.460698 0
    outer loop
      vertex 6.10197 -44.8116 0
      vertex 6.58392 -43.8831 1
      vertex 6.58392 -43.8831 0
    endloop
  endfacet
  facet normal -0.887557 0.460698 0
    outer loop
      vertex 6.58392 -43.8831 1
      vertex 6.10197 -44.8116 0
      vertex 6.10197 -44.8116 1
    endloop
  endfacet
  facet normal -0.813773 0.581183 0
    outer loop
      vertex 5.53798 -45.6013 0
      vertex 6.10197 -44.8116 1
      vertex 6.10197 -44.8116 0
    endloop
  endfacet
  facet normal -0.813773 0.581183 0
    outer loop
      vertex 6.10197 -44.8116 1
      vertex 5.53798 -45.6013 0
      vertex 5.53798 -45.6013 1
    endloop
  endfacet
  facet normal -0.714686 0.699445 0
    outer loop
      vertex 4.88403 -46.2695 0
      vertex 5.53798 -45.6013 1
      vertex 5.53798 -45.6013 0
    endloop
  endfacet
  facet normal -0.714686 0.699445 0
    outer loop
      vertex 5.53798 -45.6013 1
      vertex 4.88403 -46.2695 0
      vertex 4.88403 -46.2695 1
    endloop
  endfacet
  facet normal -0.592271 0.805739 0
    outer loop
      vertex 4.88403 -46.2695 0
      vertex 4.14015 -46.8163 1
      vertex 4.88403 -46.2695 1
    endloop
  endfacet
  facet normal -0.592271 0.805739 0
    outer loop
      vertex 4.14015 -46.8163 1
      vertex 4.88403 -46.2695 0
      vertex 4.14015 -46.8163 0
    endloop
  endfacet
  facet normal -0.454281 0.890859 0
    outer loop
      vertex 4.14015 -46.8163 0
      vertex 3.30632 -47.2415 1
      vertex 4.14015 -46.8163 1
    endloop
  endfacet
  facet normal -0.454281 0.890859 0
    outer loop
      vertex 3.30632 -47.2415 1
      vertex 4.14015 -46.8163 0
      vertex 3.30632 -47.2415 0
    endloop
  endfacet
  facet normal -0.312313 0.949979 0
    outer loop
      vertex 3.30632 -47.2415 0
      vertex 2.38254 -47.5452 1
      vertex 3.30632 -47.2415 1
    endloop
  endfacet
  facet normal -0.312313 0.949979 0
    outer loop
      vertex 2.38254 -47.5452 1
      vertex 3.30632 -47.2415 0
      vertex 2.38254 -47.5452 0
    endloop
  endfacet
  facet normal -0.176903 0.984228 0
    outer loop
      vertex 2.38254 -47.5452 0
      vertex 1.36884 -47.7274 1
      vertex 2.38254 -47.5452 1
    endloop
  endfacet
  facet normal -0.176903 0.984228 0
    outer loop
      vertex 1.36884 -47.7274 1
      vertex 2.38254 -47.5452 0
      vertex 1.36884 -47.7274 0
    endloop
  endfacet
  facet normal -0.0550054 0.998486 0
    outer loop
      vertex 1.36884 -47.7274 0
      vertex 0.265167 -47.7882 1
      vertex 1.36884 -47.7274 1
    endloop
  endfacet
  facet normal -0.0550054 0.998486 0
    outer loop
      vertex 0.265167 -47.7882 1
      vertex 1.36884 -47.7274 0
      vertex 0.265167 -47.7882 0
    endloop
  endfacet
  facet normal 0.0529895 0.998595 -0
    outer loop
      vertex 0.265167 -47.7882 0
      vertex -0.812775 -47.731 1
      vertex 0.265167 -47.7882 1
    endloop
  endfacet
  facet normal 0.0529895 0.998595 0
    outer loop
      vertex -0.812775 -47.731 1
      vertex 0.265167 -47.7882 0
      vertex -0.812775 -47.731 0
    endloop
  endfacet
  facet normal 0.17232 0.985041 -0
    outer loop
      vertex -0.812775 -47.731 0
      vertex -1.7937 -47.5594 1
      vertex -0.812775 -47.731 1
    endloop
  endfacet
  facet normal 0.17232 0.985041 0
    outer loop
      vertex -1.7937 -47.5594 1
      vertex -0.812775 -47.731 0
      vertex -1.7937 -47.5594 0
    endloop
  endfacet
  facet normal 0.307761 0.951464 -0
    outer loop
      vertex -1.7937 -47.5594 0
      vertex -2.67758 -47.2735 1
      vertex -1.7937 -47.5594 1
    endloop
  endfacet
  facet normal 0.307761 0.951464 0
    outer loop
      vertex -2.67758 -47.2735 1
      vertex -1.7937 -47.5594 0
      vertex -2.67758 -47.2735 0
    endloop
  endfacet
  facet normal 0.453433 0.89129 -0
    outer loop
      vertex -2.67758 -47.2735 0
      vertex -3.46443 -46.8732 1
      vertex -2.67758 -47.2735 1
    endloop
  endfacet
  facet normal 0.453433 0.89129 0
    outer loop
      vertex -3.46443 -46.8732 1
      vertex -2.67758 -47.2735 0
      vertex -3.46443 -46.8732 0
    endloop
  endfacet
  facet normal 0.598022 0.80148 -0
    outer loop
      vertex -3.46443 -46.8732 0
      vertex -4.15424 -46.3585 1
      vertex -3.46443 -46.8732 1
    endloop
  endfacet
  facet normal 0.598022 0.80148 0
    outer loop
      vertex -4.15424 -46.3585 1
      vertex -3.46443 -46.8732 0
      vertex -4.15424 -46.3585 0
    endloop
  endfacet
  facet normal 0.727767 0.685825 0
    outer loop
      vertex -4.15424 -46.3585 1
      vertex -4.74699 -45.7295 0
      vertex -4.74699 -45.7295 1
    endloop
  endfacet
  facet normal 0.727767 0.685825 0
    outer loop
      vertex -4.74699 -45.7295 0
      vertex -4.15424 -46.3585 1
      vertex -4.15424 -46.3585 0
    endloop
  endfacet
  facet normal 0.831983 0.554801 0
    outer loop
      vertex -4.74699 -45.7295 1
      vertex -5.24272 -44.9861 0
      vertex -5.24272 -44.9861 1
    endloop
  endfacet
  facet normal 0.831983 0.554801 0
    outer loop
      vertex -5.24272 -44.9861 0
      vertex -4.74699 -45.7295 1
      vertex -4.74699 -45.7295 0
    endloop
  endfacet
  facet normal 0.904679 0.426093 0
    outer loop
      vertex -5.24272 -44.9861 1
      vertex -5.65799 -44.1044 0
      vertex -5.65799 -44.1044 1
    endloop
  endfacet
  facet normal 0.904679 0.426093 0
    outer loop
      vertex -5.65799 -44.1044 0
      vertex -5.24272 -44.9861 1
      vertex -5.24272 -44.9861 0
    endloop
  endfacet
  facet normal 0.947694 0.31918 0
    outer loop
      vertex -5.65799 -44.1044 1
      vertex -6.00937 -43.0611 0
      vertex -6.00937 -43.0611 1
    endloop
  endfacet
  facet normal 0.947694 0.31918 0
    outer loop
      vertex -6.00937 -43.0611 0
      vertex -5.65799 -44.1044 1
      vertex -5.65799 -44.1044 0
    endloop
  endfacet
  facet normal 0.9727 0.232068 0
    outer loop
      vertex -6.00937 -43.0611 1
      vertex -6.29686 -41.8561 0
      vertex -6.29686 -41.8561 1
    endloop
  endfacet
  facet normal 0.9727 0.232068 0
    outer loop
      vertex -6.29686 -41.8561 0
      vertex -6.00937 -43.0611 1
      vertex -6.00937 -43.0611 0
    endloop
  endfacet
  facet normal 0.986879 0.161459 0
    outer loop
      vertex -6.29686 -41.8561 1
      vertex -6.52046 -40.4894 0
      vertex -6.52046 -40.4894 1
    endloop
  endfacet
  facet normal 0.986879 0.161459 0
    outer loop
      vertex -6.52046 -40.4894 0
      vertex -6.29686 -41.8561 1
      vertex -6.29686 -41.8561 0
    endloop
  endfacet
  facet normal 0.994584 0.103935 0
    outer loop
      vertex -6.52046 -40.4894 1
      vertex -6.68018 -38.961 0
      vertex -6.68018 -38.961 1
    endloop
  endfacet
  facet normal 0.994584 0.103935 0
    outer loop
      vertex -6.68018 -38.961 0
      vertex -6.52046 -40.4894 1
      vertex -6.52046 -40.4894 0
    endloop
  endfacet
  facet normal 0.998397 0.0566073 0
    outer loop
      vertex -6.68018 -38.961 1
      vertex -6.776 -37.271 0
      vertex -6.776 -37.271 1
    endloop
  endfacet
  facet normal 0.998397 0.0566073 0
    outer loop
      vertex -6.776 -37.271 0
      vertex -6.68018 -38.961 1
      vertex -6.68018 -38.961 0
    endloop
  endfacet
  facet normal 0.999851 0.0172509 0
    outer loop
      vertex -6.776 -37.271 1
      vertex -6.80795 -35.4192 0
      vertex -6.80795 -35.4192 1
    endloop
  endfacet
  facet normal 0.999851 0.0172509 0
    outer loop
      vertex -6.80795 -35.4192 0
      vertex -6.776 -37.271 1
      vertex -6.776 -37.271 0
    endloop
  endfacet
  facet normal 1 -0 0
    outer loop
      vertex -6.80795 -35.4192 1
      vertex -6.80795 -3.80072 0
      vertex -6.80795 -3.80072 1
    endloop
  endfacet
  facet normal 1 0 0
    outer loop
      vertex -6.80795 -3.80072 0
      vertex -6.80795 -35.4192 1
      vertex -6.80795 -35.4192 0
    endloop
  endfacet
  facet normal 0 1 -0
    outer loop
      vertex -6.80795 -3.80072 0
      vertex -18.2108 -3.80072 1
      vertex -6.80795 -3.80072 1
    endloop
  endfacet
  facet normal 0 1 0
    outer loop
      vertex -18.2108 -3.80072 1
      vertex -6.80795 -3.80072 0
      vertex -18.2108 -3.80072 0
    endloop
  endfacet
  facet normal -1 0 0
    outer loop
      vertex -18.2108 -35.5349 0
      vertex -18.2108 -3.80072 1
      vertex -18.2108 -3.80072 0
    endloop
  endfacet
  facet normal -1 -0 0
    outer loop
      vertex -18.2108 -3.80072 1
      vertex -18.2108 -35.5349 0
      vertex -18.2108 -35.5349 1
    endloop
  endfacet
  facet normal -0.99956 -0.0296477 0
    outer loop
      vertex -18.1225 -38.5119 0
      vertex -18.2108 -35.5349 1
      vertex -18.2108 -35.5349 0
    endloop
  endfacet
  facet normal -0.99956 -0.0296477 0
    outer loop
      vertex -18.2108 -35.5349 1
      vertex -18.1225 -38.5119 0
      vertex -18.1225 -38.5119 1
    endloop
  endfacet
  facet normal -0.995375 -0.0960694 0
    outer loop
      vertex -17.8574 -41.2586 0
      vertex -18.1225 -38.5119 1
      vertex -18.1225 -38.5119 0
    endloop
  endfacet
  facet normal -0.995375 -0.0960694 0
    outer loop
      vertex -18.1225 -38.5119 1
      vertex -17.8574 -41.2586 0
      vertex -17.8574 -41.2586 1
    endloop
  endfacet
  facet normal -0.984934 -0.17293 0
    outer loop
      vertex -17.4156 -43.7749 0
      vertex -17.8574 -41.2586 1
      vertex -17.8574 -41.2586 0
    endloop
  endfacet
  facet normal -0.984934 -0.17293 0
    outer loop
      vertex -17.8574 -41.2586 1
      vertex -17.4156 -43.7749 0
      vertex -17.4156 -43.7749 1
    endloop
  endfacet
  facet normal -0.965306 -0.26112 0
    outer loop
      vertex -16.7972 -46.061 0
      vertex -17.4156 -43.7749 1
      vertex -17.4156 -43.7749 0
    endloop
  endfacet
  facet normal -0.965306 -0.26112 0
    outer loop
      vertex -17.4156 -43.7749 1
      vertex -16.7972 -46.061 0
      vertex -16.7972 -46.061 1
    endloop
  endfacet
  facet normal -0.932653 -0.360775 0
    outer loop
      vertex -16.002 -48.1167 0
      vertex -16.7972 -46.061 1
      vertex -16.7972 -46.061 0
    endloop
  endfacet
  facet normal -0.932653 -0.360775 0
    outer loop
      vertex -16.7972 -46.061 1
      vertex -16.002 -48.1167 0
      vertex -16.002 -48.1167 1
    endloop
  endfacet
  facet normal -0.882693 -0.469951 0
    outer loop
      vertex -15.0302 -49.942 0
      vertex -16.002 -48.1167 1
      vertex -16.002 -48.1167 0
    endloop
  endfacet
  facet normal -0.882693 -0.469951 0
    outer loop
      vertex -16.002 -48.1167 1
      vertex -15.0302 -49.942 0
      vertex -15.0302 -49.942 1
    endloop
  endfacet
  facet normal -0.811528 -0.584314 0
    outer loop
      vertex -13.8817 -51.5371 0
      vertex -15.0302 -49.942 1
      vertex -15.0302 -49.942 0
    endloop
  endfacet
  facet normal -0.811528 -0.584314 0
    outer loop
      vertex -15.0302 -49.942 1
      vertex -13.8817 -51.5371 0
      vertex -13.8817 -51.5371 1
    endloop
  endfacet
  facet normal -0.715257 -0.698862 0
    outer loop
      vertex -12.539 -52.9113 0
      vertex -13.8817 -51.5371 1
      vertex -13.8817 -51.5371 0
    endloop
  endfacet
  facet normal -0.715257 -0.698862 0
    outer loop
      vertex -13.8817 -51.5371 1
      vertex -12.539 -52.9113 0
      vertex -12.539 -52.9113 1
    endloop
  endfacet
  facet normal -0.599076 -0.800692 0
    outer loop
      vertex -12.539 -52.9113 0
      vertex -10.985 -54.074 1
      vertex -12.539 -52.9113 1
    endloop
  endfacet
  facet normal -0.599076 -0.800692 -0
    outer loop
      vertex -10.985 -54.074 1
      vertex -12.539 -52.9113 0
      vertex -10.985 -54.074 0
    endloop
  endfacet
  facet normal -0.474407 -0.880306 0
    outer loop
      vertex -10.985 -54.074 0
      vertex -9.21959 -55.0254 1
      vertex -10.985 -54.074 1
    endloop
  endfacet
  facet normal -0.474407 -0.880306 -0
    outer loop
      vertex -9.21959 -55.0254 1
      vertex -10.985 -54.074 0
      vertex -9.21959 -55.0254 0
    endloop
  endfacet
  facet normal -0.350536 -0.936549 0
    outer loop
      vertex -9.21959 -55.0254 0
      vertex -7.24275 -55.7653 1
      vertex -9.21959 -55.0254 1
    endloop
  endfacet
  facet normal -0.350536 -0.936549 -0
    outer loop
      vertex -7.24275 -55.7653 1
      vertex -9.21959 -55.0254 0
      vertex -7.24275 -55.7653 0
    endloop
  endfacet
  facet normal -0.234767 -0.972052 0
    outer loop
      vertex -7.24275 -55.7653 0
      vertex -5.0545 -56.2938 1
      vertex -7.24275 -55.7653 1
    endloop
  endfacet
  facet normal -0.234767 -0.972052 -0
    outer loop
      vertex -5.0545 -56.2938 1
      vertex -7.24275 -55.7653 0
      vertex -5.0545 -56.2938 0
    endloop
  endfacet
  facet normal -0.131045 -0.991376 0
    outer loop
      vertex -5.0545 -56.2938 0
      vertex -2.65483 -56.611 1
      vertex -5.0545 -56.2938 1
    endloop
  endfacet
  facet normal -0.131045 -0.991376 -0
    outer loop
      vertex -2.65483 -56.611 1
      vertex -5.0545 -56.2938 0
      vertex -2.65483 -56.611 0
    endloop
  endfacet
  facet normal -0.0404484 -0.999182 0
    outer loop
      vertex -2.65483 -56.611 0
      vertex -0.0437622 -56.7167 1
      vertex -2.65483 -56.611 1
    endloop
  endfacet
  facet normal -0.0404484 -0.999182 -0
    outer loop
      vertex -0.0437622 -56.7167 1
      vertex -2.65483 -56.611 0
      vertex -0.0437622 -56.7167 0
    endloop
  endfacet
  facet normal 0.0404169 -0.999183 0
    outer loop
      vertex -0.0437622 -56.7167 0
      vertex 2.65834 -56.6074 1
      vertex -0.0437622 -56.7167 1
    endloop
  endfacet
  facet normal 0.0404169 -0.999183 0
    outer loop
      vertex 2.65834 -56.6074 1
      vertex -0.0437622 -56.7167 0
      vertex 2.65834 -56.6074 0
    endloop
  endfacet
endsolid OpenSCAD_Model
