<?xml version="1.0" standalone="no"?>
<!DOCTYPE svg PUBLIC "-//W3C//DTD SVG 1.1//EN" "http://www.w3.org/Graphics/SVG/1.1/DTD/svg11.dtd">
<svg width="67mm" height="91mm" viewBox="-33 -3 67 91" xmlns="http://www.w3.org/2000/svg" version="1.1">
<title>OpenSCAD Model</title>
<path d="
M 5.22076,87.5565 L 9.21156,87.1423 L 12.9302,86.4521 L 16.3766,85.4858 L 19.5509,84.2435 L 22.4531,82.725
 L 25.0831,80.9305 L 27.3991,78.8872 L 29.3587,76.6231 L 30.9621,74.1381 L 32.2092,71.4322 L 33.1,68.5055
 L 33.6344,65.3579 L 33.8126,61.9894 L 33.6943,59.6906 L 33.3393,57.5062 L 32.7477,55.4361 L 31.9194,53.4805
 L 30.8545,51.6392 L 29.553,49.9124 L 28.0148,48.2999 L 26.2701,46.832 L 24.3493,45.5391 L 22.2523,44.421
 L 19.9791,43.4778 L 17.5297,42.7094 L 14.9041,42.116 L 12.1022,41.6974 L 12.1022,41.439 L 14.6831,40.8528
 L 17.0878,40.1246 L 19.3162,39.2543 L 21.3685,38.242 L 23.2446,37.0877 L 24.9445,35.7913 L 26.4682,34.3529
 L 27.8015,32.7896 L 28.9296,31.1185 L 29.8527,29.3396 L 30.5706,27.4529 L 31.0834,25.4584 L 31.3911,23.3561
 L 31.4937,21.146 L 31.418,19.2101 L 31.1912,17.3412 L 30.8131,15.5395 L 30.2839,13.8047 L 29.6033,12.1371
 L 28.7716,10.5366 L 27.7887,9.00314 L 26.6633,7.55096 L 25.4038,6.19479 L 24.0102,4.93462 L 22.4825,3.77046
 L 20.8206,2.70232 L 19.0246,1.73018 L 17.0945,0.85405 L 15.0457,0.0848083 L 12.8929,-0.566055 L 10.6364,-1.0986
 L 8.27586,-1.5128 L 5.81151,-1.80865 L 3.24327,-1.98618 L 0.571152,-2.04535 L -3.20555,-1.91782 L -6.76794,-1.53522
 L -10.116,-0.897552 L -13.2498,-0.00482178 L -16.1693,1.14296 L -18.8744,2.54582 L -21.3653,4.20374 L -23.6074,6.09676
 L -25.5668,8.20546 L -27.2437,10.5298 L -28.6379,13.0698 L -29.7494,15.8255 L -30.5783,18.7969 L -31.1246,21.9839
 L -13.0224,23.2721 L -12.8119,21.715 L -12.4753,20.2827 L -12.0124,18.9753 L -11.4234,17.7928 L -10.7083,16.7353
 L -9.86691,15.8026 L -8.89938,14.9948 L -7.82906,14.3024 L -6.67987,13.7166 L -5.45181,13.2373 L -4.14488,12.8645
 L -2.75908,12.5982 L -1.29442,12.4384 L 0.2491,12.3851 L 1.87608,12.4482 L 3.40706,12.6376 L 4.84203,12.9531
 L 6.18098,13.3949 L 7.42393,13.9628 L 8.57088,14.657 L 9.62181,15.4774 L 10.5533,16.3964 L 11.3416,17.3864
 L 11.9865,18.4474 L 12.4881,19.5794 L 12.8464,20.7824 L 13.0613,22.0564 L 13.133,23.4013 L 13.0469,24.881
 L 12.7885,26.2647 L 12.3579,27.5525 L 11.7551,28.7443 L 10.98,29.8402 L 10.0327,30.8402 L 8.9131,31.7442
 L 7.63339,32.5389 L 6.20509,33.2113 L 4.62822,33.7615 L 2.90274,34.1894 L 1.02869,34.4951 L -0.993942,34.6785
 L -3.16518,34.7396 L -9.09222,34.7396 L -9.09222,49.3629 L -2.77853,49.3629 L -0.376038,49.4234 L 1.86211,49.6049
 L 3.93594,49.9073 L 5.84544,50.3308 L 7.59061,50.8752 L 9.17145,51.5406 L 10.588,52.3269 L 11.8272,53.2274
 L 12.8759,54.2358 L 13.7338,55.352 L 14.4011,56.576 L 14.8778,57.9078 L 15.1638,59.3475 L 15.2591,60.895
 L 15.1815,62.4482 L 14.9488,63.9054 L 14.561,65.2668 L 14.018,66.5322 L 13.3198,67.7016 L 12.4666,68.7752
 L 11.4582,69.7528 L 10.3117,70.6158 L 9.0443,71.346 L 7.65596,71.9435 L 6.14668,72.4081 L 4.51646,72.7401
 L 2.7653,72.9392 L 0.893204,73.0056 L -2.72896,72.7584 L -5.86465,72.017 L -8.51387,70.7812 L -10.6766,69.0511
 L -12.3529,66.8267 L -13.5427,64.108 L -14.246,60.895 L -32.6703,62.5052 L -32.1005,65.8847 L -31.2375,69.0288
 L -30.0813,71.9377 L -28.6319,74.6113 L -26.8892,77.0495 L -24.8534,79.2525 L -22.5243,81.2202 L -19.923,82.9379
 L -17.0707,84.3913 L -13.9672,85.5804 L -10.6126,86.5053 L -7.0069,87.166 L -3.1501,87.5624 L 0.957809,87.6945
 z
" stroke="black" fill="lightgray" stroke-width="0.5"/>
</svg>
