<?xml version="1.0" standalone="no"?>
<!DOCTYPE svg PUBLIC "-//W3C//DTD SVG 1.1//EN" "http://www.w3.org/Graphics/SVG/1.1/DTD/svg11.dtd">
<svg width="65mm" height="91mm" viewBox="-32 -3 65 91" xmlns="http://www.w3.org/2000/svg" version="1.1">
<title>OpenSCAD Model</title>
<path d="
M 5.03821,87.2667 L 9.07196,86.5647 L 12.8007,85.3946 L 16.2243,83.7565 L 19.343,81.6504 L 22.1565,79.0763
 L 24.6651,76.0342 L 26.8528,72.5461 L 28.7039,68.6347 L 30.2185,64.3 L 31.3965,59.542 L 32.2379,54.3607
 L 32.7428,48.7561 L 32.9111,42.7281 L 32.752,36.5686 L 32.2747,30.864 L 31.4792,25.6143 L 30.3655,20.8195
 L 28.9337,16.4796 L 27.1836,12.5947 L 25.1154,9.16464 L 22.7187,6.19057 L 19.9828,3.67403 L 16.9077,1.61505
 L 13.4934,0.0136261 L 9.7399,-1.13023 L 5.64717,-1.81657 L 1.21526,-2.04535 L -3.37108,-1.81987 L -7.59592,-1.14342
 L -11.4593,-0.0160217 L -14.9611,1.56232 L -18.1014,3.59163 L -20.8803,6.07191 L -23.2976,9.00314 L -25.3741,12.3972
 L -27.1312,16.2658 L -28.5689,20.609 L -29.687,25.4269 L -30.4857,30.7194 L -30.9649,36.4865 L -31.1246,42.7281
 L -30.961,48.7726 L -30.4699,54.3897 L -29.6516,59.5796 L -28.5059,64.3422 L -27.0329,68.6776 L -25.2325,72.5857
 L -23.1047,76.0665 L -20.6546,79.1001 L -17.8877,81.6669 L -14.804,83.7671 L -11.4034,85.4005 L -7.68594,86.5673
 L -3.65167,87.2673 L 0.699402,87.5007 z
M -0.632156,73.2022 L -1.99564,73.0168 L -3.26183,72.7079 L -4.43074,72.2754 L -5.50235,71.7193 L -6.47668,71.0396
 L -7.35373,70.2363 L -8.15097,69.2974 L -8.88644,68.2113 L -9.56015,66.978 L -10.1721,65.5975 L -10.7223,64.0699
 L -11.2106,62.395 L -11.6373,60.5729 L -12.0048,58.5837 L -12.3157,56.4078 L -12.5701,54.0452 L -12.768,51.4959
 L -12.9093,48.76 L -12.9941,45.8374 L -13.0224,42.7281 L -12.9954,39.5853 L -12.9146,36.6357 L -12.7798,33.8793
 L -12.5912,31.3162 L -12.3487,28.9464 L -12.0522,26.7698 L -11.7019,24.7864 L -11.2908,22.9727 L -10.8128,21.3049
 L -10.2677,19.7831 L -9.65562,18.4073 L -8.97655,17.1773 L -8.23047,16.0934 L -7.41737,15.1553 L -6.5182,14.3521
 L -5.51381,13.6724 L -4.40424,13.1163 L -3.18945,12.6838 L -1.86948,12.3748 L -0.444305,12.1895 L 1.08606,12.1277
 L 2.54549,12.1895 L 3.90495,12.3748 L 5.16446,12.6838 L 6.32401,13.1163 L 7.38359,13.6724 L 8.3432,14.3521
 L 9.20285,15.1553 L 9.98256,16.0934 L 10.7018,17.1773 L 11.3605,18.4073 L 11.9587,19.7831 L 12.4964,21.3049
 L 12.9737,22.9727 L 13.3905,24.7864 L 13.7496,26.7698 L 14.0535,28.9464 L 14.3022,31.3162 L 14.4956,33.8793
 L 14.6337,36.6357 L 14.7166,39.5853 L 14.7442,42.7281 L 14.6785,47.2469 L 14.4812,51.3791 L 14.1525,55.1248
 L 13.6923,58.484 L 13.1006,61.4567 L 12.3774,64.0429 L 11.5228,66.2425 L 10.5156,68.1054 L 9.33488,69.6816
 L 7.98067,70.9713 L 6.45293,71.9743 L 4.75168,72.6908 L 2.87691,73.1207 L 0.828598,73.264 z
M 7.78641,34.4175 L -6.06458,34.4175 L -6.06458,50.4583 L 7.78641,50.4583 z
" stroke="black" fill="lightgray" stroke-width="0.5"/>
</svg>
