<?xml version="1.0" standalone="no"?>
<!DOCTYPE svg PUBLIC "-//W3C//DTD SVG 1.1//EN" "http://www.w3.org/Graphics/SVG/1.1/DTD/svg11.dtd">
<svg width="41mm" height="53mm" viewBox="-20 3 41 53" xmlns="http://www.w3.org/2000/svg" version="1.1">
<title>OpenSCAD Model</title>
<path d="
M -10.8669,22.393 L -10.8724,21.3257 L -10.889,20.2441 L -10.9165,19.1484 L -10.9551,18.0385 L -11.0048,16.9143
 L -11.0654,15.7759 L -11.1371,14.6233 L -11.4079,10.7581 L -10.903,13.2327 L -10.4266,15.51 L -9.9785,17.5902
 L -9.55881,19.4731 L -9.16751,21.1589 L -8.8046,22.6474 L -8.47006,23.9388 L -3.59999,42.0283 L 4.82631,42.0283
 L 9.61945,23.9388 L 9.83006,23.1871 L 10.1085,22.0583 L 10.4548,20.5525 L 10.869,18.6695 L 11.351,16.4095
 L 11.9008,13.7723 L 12.5185,10.7581 L 12.3544,12.8509 L 12.2155,14.8001 L 12.102,16.6058 L 12.0136,18.2679
 L 11.9505,19.7865 L 11.9126,21.1615 L 11.9,22.393 L 11.9,55.9437 L 20.4808,55.9437 L 20.4808,3.80072
 L 7.5321,3.80072 L 2.27499,23.1271 L 2.05415,24.0185 L 1.83333,25.0361 L 1.61249,26.18 L 1.39165,27.45
 L 1.17082,28.8463 L 0.949982,30.3687 L 0.729156,32.0174 L 0.481415,30.0935 L 0.246307,28.3857 L 0.0238342,26.894
 L -0.186005,25.6184 L -0.383209,24.559 L -0.56778,23.7156 L -0.739731,23.0884 L -5.95807,3.80072 L -19.3707,3.80072
 L -19.3707,55.9437 L -10.8669,55.9437 z
" stroke="black" fill="lightgray" stroke-width="0.5"/>
</svg>
