<?xml version="1.0" standalone="no"?>
<!DOCTYPE svg PUBLIC "-//W3C//DTD SVG 1.1//EN" "http://www.w3.org/Graphics/SVG/1.1/DTD/svg11.dtd">
<svg width="14mm" height="18mm" viewBox="-6 4 14 18" xmlns="http://www.w3.org/2000/svg" version="1.1">
<title>OpenSCAD Model</title>
<path d="
M 2.31265,21.9544 L 3.04391,21.874 L 3.72522,21.7399 L 4.35655,21.5521 L 4.93794,21.3107 L 5.46936,21.0157
 L 5.95084,20.667 L 6.37471,20.2708 L 6.73338,19.8329 L 7.02684,19.3536 L 7.25508,18.8327 L 7.41812,18.2702
 L 7.51595,17.6663 L 7.54854,17.0207 L 7.52501,16.5269 L 7.45439,16.0615 L 7.33672,15.6245 L 7.17195,15.2159
 L 6.96013,14.8357 L 6.70122,14.4839 L 6.39525,14.1605 L 6.04436,13.8686 L 5.6506,13.6115 L 5.21399,13.389
 L 4.73451,13.2012 L 4.21216,13.0482 L 3.64696,12.9299 L 3.03889,12.8462 L 3.52458,12.7264 L 3.97293,12.5806
 L 4.38393,12.4088 L 4.75758,12.2109 L 5.09389,11.987 L 5.39284,11.7371 L 5.65443,11.4611 L 5.88007,11.1626
 L 6.07098,10.8448 L 6.22717,10.5078 L 6.34868,10.1517 L 6.43546,9.77629 L 6.48752,9.38173 L 6.50487,8.96796
 L 6.4753,8.38435 L 6.38655,7.841 L 6.23863,7.33788 L 6.03157,6.87497 L 5.76534,6.45232 L 5.43993,6.06989
 L 5.05536,5.72769 L 4.61348,5.42857 L 4.11612,5.17546 L 3.56326,4.9684 L 2.95494,4.80733 L 2.29114,4.69229
 L 1.57185,4.62326 L 0.797089,4.60025 L -5.96729,4.60025 L -5.96729,21.9812 L 1.53143,21.9812 z
M -2.16634,11.532 L -2.16634,7.42192 L 0.52652,7.42192 L 1.0974,7.46399 L 1.58044,7.59021 L 1.97566,7.80057
 L 2.28305,8.09506 L 2.50262,8.47371 L 2.63437,8.93649 L 2.67827,9.48343 L 2.63489,10.0269 L 2.50471,10.4868
 L 2.28777,10.8631 L 1.98404,11.1557 L 1.59354,11.3648 L 1.11624,11.4902 L 0.55217,11.532 z
M -2.16634,19.1595 L -2.16634,14.3408 L 1.05472,14.3408 L 1.41391,14.3533 L 1.74785,14.3907 L 2.05653,14.4532
 L 2.34,14.5406 L 2.59821,14.653 L 2.83118,14.7904 L 3.03889,14.9528 L 3.22006,15.1383 L 3.37335,15.3451
 L 3.49878,15.5732 L 3.59633,15.8226 L 3.66602,16.0933 L 3.70782,16.3853 L 3.72176,16.6987 L 3.66917,17.3516
 L 3.5114,17.904 L 3.24847,18.356 L 2.88036,18.7076 L 2.40707,18.9587 L 1.82861,19.1093 L 1.14497,19.1595
 z
" stroke="black" fill="lightgray" stroke-width="0.5"/>
</svg>
