<?xml version="1.0" standalone="no"?>
<!DOCTYPE svg PUBLIC "-//W3C//DTD SVG 1.1//EN" "http://www.w3.org/Graphics/SVG/1.1/DTD/svg11.dtd">
<svg width="64mm" height="89mm" viewBox="-31 -2 64 89" xmlns="http://www.w3.org/2000/svg" version="1.1">
<title>OpenSCAD Model</title>
<path d="
M 4.43057,86.0124 L 8.59097,85.4661 L 12.4082,84.5556 L 15.8824,83.281 L 19.0134,81.6422 L 21.8013,79.6392
 L 24.2461,77.272 L 26.3569,74.5289 L 28.143,71.3979 L 29.6044,67.879 L 30.741,63.9724 L 31.5529,59.6778
 L 32.04,54.9955 L 32.2023,49.9253 L 32.2023,-1.99879 L 13.1976,-1.99879 L 13.1976,50.0536 L 13.1358,53.1629
 L 12.9505,56.012 L 12.6415,58.6007 L 12.209,60.9292 L 11.6529,62.9973 L 10.9732,64.8052 L 10.17,66.3527
 L 9.22997,67.6689 L 8.14006,68.7826 L 6.90025,69.6938 L 5.51053,70.4025 L 3.97092,70.9087 L 2.28139,71.2124
 L 0.441956,71.3136 L -1.35463,71.2183 L -2.9895,70.9324 L -4.46265,70.4559 L -5.77405,69.7887 L -6.92374,68.9309
 L -7.91167,67.8825 L -8.73788,66.6434 L -9.42998,65.1741 L -10.0156,63.4352 L -10.4948,61.4269 L -10.8674,59.1491
 L -11.1336,56.6017 L -11.2933,53.7849 L -11.3466,50.6986 L -11.3466,-1.99879 L -30.3513,-1.99879 L -30.3513,50.8915
 L -30.2041,55.8532 L -29.7623,60.431 L -29.0261,64.6249 L -27.9953,68.4349 L -26.6701,71.8611 L -25.0503,74.9034
 L -23.1361,77.5618 L -20.8984,79.8521 L -18.3084,81.79 L -15.366,83.3756 L -12.0713,84.6089 L -8.42416,85.4897
 L -4.42473,86.0183 L -0.072937,86.1944 z
" stroke="black" fill="lightgray" stroke-width="0.5"/>
</svg>
