  0
SECTION
  2
BLOCKS
  0
ENDSEC
  0
SECTION
  2
ENTITIES
  0
LINE
  8
0
 10
2.23026
 20
-84.6729
 11
6.95923
 21
-83.9728
  0
LINE
  8
0
 10
6.95923
 20
-83.9728
 11
11.3438
 21
-82.8061
  0
LINE
  8
0
 10
11.3438
 20
-82.8061
 11
15.3838
 21
-81.1726
  0
LINE
  8
0
 10
15.3838
 20
-81.1726
 11
19.0795
 21
-79.0725
  0
LINE
  8
0
 10
19.0795
 20
-79.0725
 11
22.4306
 21
-76.5056
  0
LINE
  8
0
 10
22.4306
 20
-76.5056
 11
25.4374
 21
-73.472
  0
LINE
  8
0
 10
25.4374
 20
-73.472
 11
28.0697
 21
-70.0043
  0
LINE
  8
0
 10
28.0697
 20
-70.0043
 11
30.2971
 21
-66.1356
  0
LINE
  8
0
 10
30.2971
 20
-66.1356
 11
32.1194
 21
-61.8659
  0
LINE
  8
0
 10
32.1194
 20
-61.8659
 11
33.5368
 21
-57.1952
  0
LINE
  8
0
 10
33.5368
 20
-57.1952
 11
34.5493
 21
-52.1234
  0
LINE
  8
0
 10
34.5493
 20
-52.1234
 11
35.1567
 21
-46.6506
  0
LINE
  8
0
 10
35.1567
 20
-46.6506
 11
35.3592
 21
-40.7768
  0
LINE
  8
0
 10
35.3592
 20
-40.7768
 11
35.1456
 21
-34.835
  0
LINE
  8
0
 10
35.1456
 20
-34.835
 11
34.5046
 21
-29.3414
  0
LINE
  8
0
 10
34.5046
 20
-29.3414
 11
33.4363
 21
-24.2962
  0
LINE
  8
0
 10
33.4363
 20
-24.2962
 11
31.9408
 21
-19.6992
  0
LINE
  8
0
 10
31.9408
 20
-19.6992
 11
30.0179
 21
-15.5507
  0
LINE
  8
0
 10
30.0179
 20
-15.5507
 11
27.6677
 21
-11.8504
  0
LINE
  8
0
 10
27.6677
 20
-11.8504
 11
24.8902
 21
-8.59845
  0
LINE
  8
0
 10
24.8902
 20
-8.59845
 11
21.6817
 21
-5.78693
  0
LINE
  8
0
 10
21.6817
 20
-5.78693
 11
18.038
 21
-3.40796
  0
LINE
  8
0
 10
18.038
 20
-3.40796
 11
13.9591
 21
-1.46152
  0
LINE
  8
0
 10
13.9591
 20
-1.46152
 11
9.44499
 21
0.0523529
  0
LINE
  8
0
 10
9.44499
 20
0.0523529
 11
4.49564
 21
1.13371
  0
LINE
  8
0
 10
4.49564
 20
1.13371
 11
-0.888901
 21
1.78252
  0
LINE
  8
0
 10
-0.888901
 20
1.78252
 11
-6.70868
 21
1.99879
  0
LINE
  8
0
 10
-6.70868
 20
1.99879
 11
-29.9647
 21
1.99879
  0
LINE
  8
0
 10
-29.9647
 20
1.99879
 11
-29.9647
 21
-84.9062
  0
LINE
  8
0
 10
-29.9647
 20
-84.9062
 11
-2.84312
 21
-84.9062
  0
LINE
  8
0
 10
-2.84312
 20
-84.9062
 11
2.23026
 21
-84.6729
  0
LINE
  8
0
 10
-10.9609
 20
-70.2183
 11
-10.9609
 21
-12.6891
  0
LINE
  8
0
 10
-10.9609
 20
-12.6891
 11
-7.03073
 21
-12.6891
  0
LINE
  8
0
 10
-7.03073
 20
-12.6891
 11
-3.67102
 21
-12.8265
  0
LINE
  8
0
 10
-3.67102
 20
-12.8265
 11
-0.58609
 21
-13.2387
  0
LINE
  8
0
 10
-0.58609
 20
-13.2387
 11
2.22408
 21
-13.9258
  0
LINE
  8
0
 10
2.22408
 20
-13.9258
 11
4.75949
 21
-14.8876
  0
LINE
  8
0
 10
4.75949
 20
-14.8876
 11
7.02014
 21
-16.1242
  0
LINE
  8
0
 10
7.02014
 20
-16.1242
 11
9.00603
 21
-17.6356
  0
LINE
  8
0
 10
9.00603
 20
-17.6356
 11
10.7171
 21
-19.4218
  0
LINE
  8
0
 10
10.7171
 20
-19.4218
 11
12.1785
 21
-21.5062
  0
LINE
  8
0
 10
12.1785
 20
-21.5062
 11
13.415
 21
-23.9127
  0
LINE
  8
0
 10
13.415
 20
-23.9127
 11
14.4267
 21
-26.6413
  0
LINE
  8
0
 10
14.4267
 20
-26.6413
 11
15.2136
 21
-29.692
  0
LINE
  8
0
 10
15.2136
 20
-29.692
 11
15.7756
 21
-33.0649
  0
LINE
  8
0
 10
15.7756
 20
-33.0649
 11
16.1128
 21
-36.7598
  0
LINE
  8
0
 10
16.1128
 20
-36.7598
 11
16.2253
 21
-40.7768
  0
LINE
  8
0
 10
16.2253
 20
-40.7768
 11
15.8045
 21
-48.5878
  0
LINE
  8
0
 10
15.8045
 20
-48.5878
 11
14.5424
 21
-55.1971
  0
LINE
  8
0
 10
14.5424
 20
-55.1971
 11
12.4388
 21
-60.6048
  0
LINE
  8
0
 10
12.4388
 20
-60.6048
 11
9.49382
 21
-64.8107
  0
LINE
  8
0
 10
9.49382
 20
-64.8107
 11
5.7074
 21
-67.8149
  0
LINE
  8
0
 10
5.7074
 20
-67.8149
 11
1.07954
 21
-69.6174
  0
LINE
  8
0
 10
1.07954
 20
-69.6174
 11
-4.38972
 21
-70.2183
  0
LINE
  8
0
 10
-4.38972
 20
-70.2183
 11
-10.9609
 21
-70.2183
  0
ENDSEC
  0
SECTION
  2
OBJECTS
  0
DICTIONARY
  0
ENDSEC
  0
EOF
