<?xml version="1.0" standalone="no"?>
<!DOCTYPE svg PUBLIC "-//W3C//DTD SVG 1.1//EN" "http://www.w3.org/Graphics/SVG/1.1/DTD/svg11.dtd">
<svg width="42mm" height="55mm" viewBox="-21 3 42 55" xmlns="http://www.w3.org/2000/svg" version="1.1">
<title>OpenSCAD Model</title>
<path d="
M 4.103,57.3387 L 6.84738,56.8536 L 9.58072,56.0451 L 12.303,54.9131 L 15.0143,53.4578 L 17.7146,51.679
 L 20.4038,49.5768 L 20.4038,28.008 L -0.623444,28.008 L -0.623444,36.4344 L 9.96713,36.4344 L 9.96713,45.5179
 L 9.49188,45.8824 L 8.99371,46.2248 L 8.47267,46.5451 L 7.92873,46.8432 L 7.36189,47.1193 L 6.77216,47.3733
 L 6.15955,47.6052 L 5.53839,47.8103 L 4.92276,47.9838 L 4.31264,48.1257 L 3.70802,48.2362 L 3.10893,48.315
 L 2.51535,48.3624 L 1.92729,48.3781 L 0.469559,48.2827 L -0.877747,47.9964 L -2.11464,47.5191 L -3.24113,46.851
 L -4.2572,45.992 L -5.16284,44.9421 L -5.95807,43.7013 L -6.6451,42.2846 L -7.22641,40.7069 L -7.70203,38.9684
 L -8.07196,37.0689 L -8.3362,35.0085 L -8.49474,32.7872 L -8.54759,30.4049 L -8.4975,27.8482 L -8.34723,25.5014
 L -8.09677,23.3644 L -7.74614,21.4372 L -7.29533,19.7199 L -6.74434,18.2124 L -6.09317,16.9147 L -5.33549,15.8071
 L -4.46501,14.87 L -3.48172,14.1032 L -2.3856,13.5068 L -1.17668,13.0808 L 0.145035,12.8252 L 1.57959,12.74
 L 2.97501,12.8954 L 4.24579,13.3616 L 5.39195,14.1386 L 6.41347,15.2264 L 7.31036,16.625 L 8.08261,18.3344
 L 8.73024,20.3546 L 19.3214,18.2679 L 18.6777,16.2563 L 17.9393,14.3962 L 17.1063,12.6875 L 16.1785,11.1304
 L 15.1562,9.72469 L 14.0391,8.47049 L 12.8274,7.36777 L 11.5164,6.414 L 10.1013,5.60696 L 8.58203,4.94667
 L 6.95859,4.43311 L 5.23099,4.06627 L 3.39923,3.84616 L 1.4633,3.7728 L -4.25887,4.31631 L -9.10071,5.94684
 L -13.0622,8.6644 L -16.1434,12.469 L -18.3442,17.3606 L -19.6647,23.3392 L -20.1049,30.4049 L -19.989,33.9747
 L -19.6411,37.3071 L -19.0613,40.4021 L -18.2496,43.2597 L -17.2061,45.8799 L -15.9306,48.2626 L -14.4231,50.4079
 L -12.7097,52.2896 L -10.8164,53.8818 L -8.74329,55.1845 L -6.49033,56.1977 L -4.05753,56.9214 L -1.44487,57.3557
 L 1.3476,57.5004 z
" stroke="black" fill="lightgray" stroke-width="0.5"/>
</svg>
