<?xml version="1.0" standalone="no"?>
<!DOCTYPE svg PUBLIC "-//W3C//DTD SVG 1.1//EN" "http://www.w3.org/Graphics/SVG/1.1/DTD/svg11.dtd">
<svg width="15mm" height="18mm" viewBox="-6 4 15 18" xmlns="http://www.w3.org/2000/svg" version="1.1">
<title>OpenSCAD Model</title>
<path d="
M -2.16634,15.3459 L 0.0627289,15.3459 L 3.79909,21.9812 L 8.07675,21.9812 L 3.58002,14.4954 L 4.0473,14.3369
 L 4.4846,14.1483 L 4.89192,13.9298 L 5.26926,13.6813 L 5.61662,13.4028 L 5.93401,13.0944 L 6.22139,12.756
 L 6.47435,12.3918 L 6.68837,12.0061 L 6.86349,11.5988 L 6.99969,11.1699 L 7.09698,10.7195 L 7.15535,10.2475
 L 7.17482,9.75398 L 7.14037,9.06374 L 7.03702,8.42134 L 6.86478,7.82683 L 6.62364,7.28017 L 6.31361,6.78137
 L 5.93468,6.33044 L 5.48686,5.92738 L 4.96967,5.57529 L 4.38252,5.27734 L 3.72545,5.03358 L 2.99843,4.84401
 L 2.20146,4.70859 L 1.33455,4.62733 L 0.397705,4.60025 L -5.96729,4.60025 L -5.96729,21.9812 L -2.16634,21.9812
 z
M -2.16634,12.3952 L -2.16634,7.55074 L -0.00166321,7.55074 L 0.479492,7.56244 L 0.921738,7.59755 L 1.32507,7.65607
 L 1.6895,7.73798 L 2.015,7.84331 L 2.30159,7.97203 L 2.54927,8.12416 L 2.76123,8.30096 L 2.94058,8.5038
 L 3.08733,8.7327 L 3.20146,8.98761 L 3.28299,9.26859 L 3.33191,9.57559 L 3.34822,9.90865 L 3.28195,10.5683
 L 3.08316,11.1265 L 2.75185,11.5832 L 2.28799,11.9385 L 1.69164,12.1922 L 0.962723,12.3444 L 0.101303,12.3952
 z
" stroke="black" fill="lightgray" stroke-width="0.5"/>
</svg>
