  0
SECTION
  2
BLOCKS
  0
ENDSEC
  0
SECTION
  2
ENTITIES
  0
LINE
  8
0
 10
6.98158
 20
-19.2884
 11
2.81982
 21
-19.2884
  0
LINE
  8
0
 10
2.81982
 20
-19.2884
 11
2.81982
 21
-4.60025
  0
LINE
  8
0
 10
2.81982
 20
-4.60025
 11
-0.607376
 21
-4.60025
  0
LINE
  8
0
 10
-0.607376
 20
-4.60025
 11
-0.827713
 21
-4.98206
  0
LINE
  8
0
 10
-0.827713
 20
-4.98206
 11
-1.07645
 21
-5.33965
  0
LINE
  8
0
 10
-1.07645
 20
-5.33965
 11
-1.35358
 21
-5.67308
  0
LINE
  8
0
 10
-1.35358
 20
-5.67308
 11
-1.65913
 21
-5.98232
  0
LINE
  8
0
 10
-1.65913
 20
-5.98232
 11
-1.99309
 21
-6.26736
  0
LINE
  8
0
 10
-1.99309
 20
-6.26736
 11
-2.35544
 21
-6.52823
  0
LINE
  8
0
 10
-2.35544
 20
-6.52823
 11
-2.74622
 21
-6.76491
  0
LINE
  8
0
 10
-2.74622
 20
-6.76491
 11
-3.15875
 21
-6.97339
  0
LINE
  8
0
 10
-3.15875
 20
-6.97339
 11
-3.58655
 21
-7.14981
  0
LINE
  8
0
 10
-3.58655
 20
-7.14981
 11
-4.0296
 21
-7.29414
  0
LINE
  8
0
 10
-4.0296
 20
-7.29414
 11
-4.48792
 21
-7.4064
  0
LINE
  8
0
 10
-4.48792
 20
-7.4064
 11
-4.96147
 21
-7.48659
  0
LINE
  8
0
 10
-4.96147
 20
-7.48659
 11
-5.45029
 21
-7.5347
  0
LINE
  8
0
 10
-5.45029
 20
-7.5347
 11
-5.95436
 21
-7.55074
  0
LINE
  8
0
 10
-5.95436
 20
-7.55074
 11
-5.95436
 21
-10.308
  0
LINE
  8
0
 10
-5.95436
 20
-10.308
 11
-5.48619
 21
-10.2933
  0
LINE
  8
0
 10
-5.48619
 20
-10.2933
 11
-5.02406
 21
-10.2491
  0
LINE
  8
0
 10
-5.02406
 20
-10.2491
 11
-4.56798
 21
-10.1755
  0
LINE
  8
0
 10
-4.56798
 20
-10.1755
 11
-4.11795
 21
-10.0724
  0
LINE
  8
0
 10
-4.11795
 20
-10.0724
 11
-3.67397
 21
-9.93994
  0
LINE
  8
0
 10
-3.67397
 20
-9.93994
 11
-3.23604
 21
-9.77798
  0
LINE
  8
0
 10
-3.23604
 20
-9.77798
 11
-2.80415
 21
-9.58659
  0
LINE
  8
0
 10
-2.80415
 20
-9.58659
 11
-2.39568
 21
-9.37358
  0
LINE
  8
0
 10
-2.39568
 20
-9.37358
 11
-2.02795
 21
-9.1469
  0
LINE
  8
0
 10
-2.02795
 20
-9.1469
 11
-1.70097
 21
-8.90654
  0
LINE
  8
0
 10
-1.70097
 20
-8.90654
 11
-1.41475
 21
-8.65251
  0
LINE
  8
0
 10
-1.41475
 20
-8.65251
 11
-1.16928
 21
-8.3848
  0
LINE
  8
0
 10
-1.16928
 20
-8.3848
 11
-0.964569
 21
-8.10342
  0
LINE
  8
0
 10
-0.964569
 20
-8.10342
 11
-0.800613
 21
-7.80838
  0
LINE
  8
0
 10
-0.800613
 20
-7.80838
 11
-0.800613
 21
-19.2884
  0
LINE
  8
0
 10
-0.800613
 20
-19.2884
 11
-5.81262
 21
-19.2884
  0
LINE
  8
0
 10
-5.81262
 20
-19.2884
 11
-5.81262
 21
-21.9812
  0
LINE
  8
0
 10
-5.81262
 20
-21.9812
 11
6.98158
 21
-21.9812
  0
LINE
  8
0
 10
6.98158
 20
-21.9812
 11
6.98158
 21
-19.2884
  0
ENDSEC
  0
SECTION
  2
OBJECTS
  0
DICTIONARY
  0
ENDSEC
  0
EOF
