<?xml version="1.0" standalone="no"?>
<!DOCTYPE svg PUBLIC "-//W3C//DTD SVG 1.1//EN" "http://www.w3.org/Graphics/SVG/1.1/DTD/svg11.dtd">
<svg width="64mm" height="90mm" viewBox="-31 -3 64 90" xmlns="http://www.w3.org/2000/svg" version="1.1">
<title>OpenSCAD Model</title>
<path d="
M 32.7819,71.3307 L -9.34969,71.3307 L -8.74895,70.0818 L -8.05093,68.8382 L -7.25563,67.5998 L -6.36304,66.3667
 L -5.37315,65.1389 L -4.28598,63.9163 L -3.10153,62.699 L -1.70119,61.3737 L 0.0330658,59.8275 L 2.10127,58.0604
 L 4.50342,56.0725 L 7.2395,53.8636 L 10.3095,51.434 L 13.7135,48.7834 L 16.145,46.8186 L 18.3964,44.8629
 L 20.4677,42.9165 L 22.3588,40.9793 L 24.0699,39.0514 L 25.6009,37.1326 L 26.9517,35.2231 L 28.1224,33.3108
 L 29.1131,31.3839 L 29.9236,29.4426 L 30.554,27.4868 L 31.0042,25.5166 L 31.2744,23.5319 L 31.3645,21.5327
 L 31.1975,18.5478 L 30.6966,15.7403 L 29.8618,13.1104 L 28.693,10.6579 L 27.1903,8.38284 L 25.3536,6.28531
 L 23.1831,4.36525 L 20.7259,2.66447 L 18.0294,1.22536 L 15.0936,0.0478973 L 11.9186,-0.867889 L 8.50429,-1.52203
 L 4.85069,-1.91452 L 0.957809,-2.04535 L -2.80969,-1.90991 L -6.34447,-1.50365 L -9.64651,-0.826538 L -12.7158,0.121414
 L -15.5524,1.34023 L -18.1563,2.82988 L -20.5274,4.59039 L -22.6526,6.60832 L -24.5189,8.87082 L -26.1261,11.3779
 L -27.4742,14.1295 L -28.5634,17.1256 L -29.3936,20.3664 L -29.9647,23.8516 L -11.7332,24.8824 L -11.4316,23.1609
 L -11.0419,21.567 L -10.564,20.1006 L -9.99811,18.7616 L -9.34407,17.5501 L -8.60196,16.4662 L -7.77173,15.5097
 L -6.84158,14.6807 L -5.79968,13.9793 L -4.64604,13.4054 L -3.38063,12.959 L -2.00348,12.6402 L -0.514587,12.4489
 L 1.08606,12.3851 L 2.70319,12.439 L 4.20462,12.6007 L 5.59033,12.8702 L 6.86035,13.2475 L 8.01465,13.7326
 L 9.05325,14.3255 L 9.97615,15.0261 L 10.7797,15.8215 L 11.4595,16.6984 L 12.0158,17.6568 L 12.4485,18.6968
 L 12.7575,19.8183 L 12.9429,21.0214 L 13.0048,22.306 L 12.9738,23.0771 L 12.8811,23.8442 L 12.7266,24.6075
 L 12.5103,25.3668 L 12.2321,26.1222 L 11.8922,26.8737 L 11.4904,27.6212 L 11.0348,28.3699 L 10.5332,29.1251
 L 9.98553,29.8869 L 9.39192,30.6553 L 8.75232,31.4304 L 8.06673,32.212 L 7.33516,33.0001 L 6.45305,33.8837
 L 5.31589,34.9512 L 3.92365,36.2029 L 2.27635,37.6386 L 0.373978,39.2584 L -1.78343,41.0623 L -4.19594,43.0502
 L -7.34279,45.6566 L -10.2675,48.175 L -12.97,50.6053 L -15.4503,52.9474 L -17.7084,55.2015 L -19.7444,57.3674
 L -21.5581,59.4453 L -23.2047,61.4785 L -24.7395,63.5104 L -26.1626,65.541 L -27.474,67.5703 L -28.6737,69.5984
 L -29.7617,71.6252 L -30.738,73.6506 L -30.738,86.2125 L 32.7819,86.2125 z
" stroke="black" fill="lightgray" stroke-width="0.5"/>
</svg>
