  0
SECTION
  2
BLOCKS
  0
ENDSEC
  0
SECTION
  2
ENTITIES
  0
LINE
  8
0
 10
0.886108
 20
-22.2025
 11
1.71819
 21
-22.0932
  0
LINE
  8
0
 10
1.71819
 20
-22.0932
 11
2.48164
 21
-21.9111
  0
LINE
  8
0
 10
2.48164
 20
-21.9111
 11
3.17647
 21
-21.6562
  0
LINE
  8
0
 10
3.17647
 20
-21.6562
 11
3.80267
 21
-21.3284
  0
LINE
  8
0
 10
3.80267
 20
-21.3284
 11
4.36026
 21
-20.9278
  0
LINE
  8
0
 10
4.36026
 20
-20.9278
 11
4.84921
 21
-20.4544
  0
LINE
  8
0
 10
4.84921
 20
-20.4544
 11
5.27138
 21
-19.9058
  0
LINE
  8
0
 10
5.27138
 20
-19.9058
 11
5.6286
 21
-19.2796
  0
LINE
  8
0
 10
5.6286
 20
-19.2796
 11
5.92087
 21
-18.5758
  0
LINE
  8
0
 10
5.92087
 20
-18.5758
 11
6.14819
 21
-17.7945
  0
LINE
  8
0
 10
6.14819
 20
-17.7945
 11
6.31056
 21
-16.9356
  0
LINE
  8
0
 10
6.31056
 20
-16.9356
 11
6.40799
 21
-15.9991
  0
LINE
  8
0
 10
6.40799
 20
-15.9991
 11
6.44046
 21
-14.9851
  0
LINE
  8
0
 10
6.44046
 20
-14.9851
 11
6.44046
 21
-4.60025
  0
LINE
  8
0
 10
6.44046
 20
-4.60025
 11
2.63951
 21
-4.60025
  0
LINE
  8
0
 10
2.63951
 20
-4.60025
 11
2.63951
 21
-15.0107
  0
LINE
  8
0
 10
2.63951
 20
-15.0107
 11
2.62715
 21
-15.6326
  0
LINE
  8
0
 10
2.62715
 20
-15.6326
 11
2.59009
 21
-16.2024
  0
LINE
  8
0
 10
2.59009
 20
-16.2024
 11
2.52829
 21
-16.7201
  0
LINE
  8
0
 10
2.52829
 20
-16.7201
 11
2.44179
 21
-17.1858
  0
LINE
  8
0
 10
2.44179
 20
-17.1858
 11
2.33057
 21
-17.5995
  0
LINE
  8
0
 10
2.33057
 20
-17.5995
 11
2.19464
 21
-17.961
  0
LINE
  8
0
 10
2.19464
 20
-17.961
 11
2.03398
 21
-18.2705
  0
LINE
  8
0
 10
2.03398
 20
-18.2705
 11
1.84599
 21
-18.5338
  0
LINE
  8
0
 10
1.84599
 20
-18.5338
 11
1.62801
 21
-18.7565
  0
LINE
  8
0
 10
1.62801
 20
-18.7565
 11
1.38005
 21
-18.9388
  0
LINE
  8
0
 10
1.38005
 20
-18.9388
 11
1.1021
 21
-19.0805
  0
LINE
  8
0
 10
1.1021
 20
-19.0805
 11
0.794174
 21
-19.1817
  0
LINE
  8
0
 10
0.794174
 20
-19.1817
 11
0.456268
 21
-19.2425
  0
LINE
  8
0
 10
0.456268
 20
-19.2425
 11
0.0883789
 21
-19.2627
  0
LINE
  8
0
 10
0.0883789
 20
-19.2627
 11
-0.27092
 21
-19.2437
  0
LINE
  8
0
 10
-0.27092
 20
-19.2437
 11
-0.5979
 21
-19.1865
  0
LINE
  8
0
 10
-0.5979
 20
-19.1865
 11
-0.892517
 21
-19.0912
  0
LINE
  8
0
 10
-0.892517
 20
-19.0912
 11
-1.1548
 21
-18.9577
  0
LINE
  8
0
 10
-1.1548
 20
-18.9577
 11
-1.38474
 21
-18.7862
  0
LINE
  8
0
 10
-1.38474
 20
-18.7862
 11
-1.58232
 21
-18.5765
  0
LINE
  8
0
 10
-1.58232
 20
-18.5765
 11
-1.74757
 21
-18.3287
  0
LINE
  8
0
 10
-1.74757
 20
-18.3287
 11
-1.88599
 21
-18.0348
  0
LINE
  8
0
 10
-1.88599
 20
-18.0348
 11
-2.00311
 21
-17.687
  0
LINE
  8
0
 10
-2.00311
 20
-17.687
 11
-2.09895
 21
-17.2854
  0
LINE
  8
0
 10
-2.09895
 20
-17.2854
 11
-2.17348
 21
-16.8298
  0
LINE
  8
0
 10
-2.17348
 20
-16.8298
 11
-2.22672
 21
-16.3203
  0
LINE
  8
0
 10
-2.22672
 20
-16.3203
 11
-2.25867
 21
-15.757
  0
LINE
  8
0
 10
-2.25867
 20
-15.757
 11
-2.26932
 21
-15.1397
  0
LINE
  8
0
 10
-2.26932
 20
-15.1397
 11
-2.26932
 21
-4.60025
  0
LINE
  8
0
 10
-2.26932
 20
-4.60025
 11
-6.07027
 21
-4.60025
  0
LINE
  8
0
 10
-6.07027
 20
-4.60025
 11
-6.07027
 21
-15.1783
  0
LINE
  8
0
 10
-6.07027
 20
-15.1783
 11
-6.04082
 21
-16.1706
  0
LINE
  8
0
 10
-6.04082
 20
-16.1706
 11
-5.95245
 21
-17.0862
  0
LINE
  8
0
 10
-5.95245
 20
-17.0862
 11
-5.80521
 21
-17.925
  0
LINE
  8
0
 10
-5.80521
 20
-17.925
 11
-5.59906
 21
-18.687
  0
LINE
  8
0
 10
-5.59906
 20
-18.687
 11
-5.33401
 21
-19.3722
  0
LINE
  8
0
 10
-5.33401
 20
-19.3722
 11
-5.01006
 21
-19.9807
  0
LINE
  8
0
 10
-5.01006
 20
-19.9807
 11
-4.62721
 21
-20.5124
  0
LINE
  8
0
 10
-4.62721
 20
-20.5124
 11
-4.17967
 21
-20.9704
  0
LINE
  8
0
 10
-4.17967
 20
-20.9704
 11
-3.66167
 21
-21.358
  0
LINE
  8
0
 10
-3.66167
 20
-21.358
 11
-3.0732
 21
-21.6751
  0
LINE
  8
0
 10
-3.0732
 20
-21.6751
 11
-2.41425
 21
-21.9218
  0
LINE
  8
0
 10
-2.41425
 20
-21.9218
 11
-1.68483
 21
-22.0979
  0
LINE
  8
0
 10
-1.68483
 20
-22.0979
 11
-0.884933
 21
-22.2036
  0
LINE
  8
0
 10
-0.884933
 20
-22.2036
 11
-0.0145874
 21
-22.2389
  0
LINE
  8
0
 10
-0.0145874
 20
-22.2389
 11
0.886108
 21
-22.2025
  0
ENDSEC
  0
SECTION
  2
OBJECTS
  0
DICTIONARY
  0
ENDSEC
  0
EOF
