<?xml version="1.0" standalone="no"?>
<!DOCTYPE svg PUBLIC "-//W3C//DTD SVG 1.1//EN" "http://www.w3.org/Graphics/SVG/1.1/DTD/svg11.dtd">
<svg width="15mm" height="24mm" viewBox="-7 4 15 24" xmlns="http://www.w3.org/2000/svg" version="1.1">
<title>OpenSCAD Model</title>
<path d="
M 4.62816,27.4275 L 5.0631,27.4054 L 5.50328,27.3686 L 5.94873,27.3171 L 6.39941,27.2508 L 6.85536,27.1699
 L 7.31656,27.0742 L 7.31656,24.4716 L 7.03812,24.516 L 6.77702,24.5536 L 6.53326,24.5843 L 6.30687,24.6082
 L 6.09782,24.6253 L 5.90611,24.6355 L 5.73177,24.639 L 5.35629,24.6273 L 5.0029,24.5921 L 4.67157,24.5336
 L 4.36234,24.4517 L 4.07518,24.3464 L 3.8101,24.2177 L 3.56709,24.0655 L 3.34254,23.888 L 3.13274,23.6828
 L 2.93764,23.4499 L 2.75728,23.1895 L 2.59164,22.9014 L 2.44073,22.5858 L 2.30455,22.2425 L 2.9623,22.0235
 L 3.5735,21.7419 L 4.13817,21.3977 L 4.6563,20.9909 L 5.12788,20.5216 L 5.55293,19.9897 L 5.93146,19.3952
 L 6.26132,18.7383 L 6.54045,18.0193 L 6.76881,17.2384 L 6.94644,16.3953 L 7.07332,15.4902 L 7.14944,14.5231
 L 7.17482,13.4939 L 7.138,12.2691 L 7.02756,11.1348 L 6.84349,10.0909 L 6.5858,9.13753 L 6.25447,8.27457
 L 5.84953,7.50206 L 5.37096,6.82001 L 4.82353,6.22861 L 4.21196,5.72821 L 3.53621,5.31879 L 2.7963,5.00035
 L 1.99222,4.7729 L 1.12396,4.63643 L 0.191559,4.59094 L -0.740982,4.63643 L -1.60963,4.7729 L -2.41438,5.00035
 L -3.15526,5.31879 L -3.83223,5.72821 L -4.4453,6.22861 L -4.99448,6.82001 L -5.47472,7.50206 L -5.88107,8.27457
 L -6.21355,9.13753 L -6.47214,10.0909 L -6.65685,11.1348 L -6.76767,12.2691 L -6.80461,13.4939 L -6.77701,14.5647
 L -6.69418,15.5681 L -6.55614,16.5042 L -6.36288,17.373 L -6.11441,18.1745 L -5.81071,18.9086 L -5.45181,19.5755
 L -5.04031,20.1745 L -4.57884,20.7051 L -4.06741,21.1674 L -3.50603,21.5613 L -2.89467,21.8868 L -2.23334,22.144
 L -1.52203,22.3327 L -1.26833,23.0783 L -0.993042,23.7615 L -0.696198,24.3825 L -0.377792,24.9411 L -0.0378113,25.4373
 L 0.323715,25.8713 L 0.706833,26.2429 L 1.11572,26.5592 L 1.55458,26.8267 L 2.02341,27.0456 L 2.52222,27.2159
 L 3.05099,27.3375 L 3.60974,27.4105 L 4.19847,27.4348 z
M -0.238251,19.4799 L -0.63678,19.3864 L -1.00403,19.2306 L -1.33997,19.0125 L -1.64462,18.7321 L -1.91798,18.3893
 L -2.16006,17.9842 L -2.37025,17.5187 L -2.54813,16.9945 L -2.69365,16.4116 L -2.80684,15.7702 L -2.88768,15.0701
 L -2.93619,14.3113 L -2.95236,13.4939 L -2.8882,11.9249 L -2.69571,10.5973 L -2.37491,9.51108 L -1.92577,8.66623
 L -1.34831,8.06277 L -0.642532,7.7007 L 0.191559,7.58 L 1.02219,7.7007 L 1.72502,8.06277 L 2.30006,8.66623
 L 2.74733,9.51108 L 3.0668,10.5973 L 3.25848,11.9249 L 3.32237,13.4939 L 3.30634,14.3113 L 3.25821,15.0701
 L 3.17801,15.7702 L 3.0657,16.4116 L 2.92134,16.9945 L 2.74489,17.5187 L 2.53635,17.9842 L 2.29604,18.3893
 L 2.02419,18.7321 L 1.72076,19.0125 L 1.3858,19.2306 L 1.01927,19.3864 L 0.621185,19.4799 L 0.191559,19.511
 z
" stroke="black" fill="lightgray" stroke-width="0.5"/>
</svg>
