<?xml version="1.0" standalone="no"?>
<!DOCTYPE svg PUBLIC "-//W3C//DTD SVG 1.1//EN" "http://www.w3.org/Graphics/SVG/1.1/DTD/svg11.dtd">
<svg width="71mm" height="91mm" viewBox="-34 -3 71 91" xmlns="http://www.w3.org/2000/svg" version="1.1">
<title>OpenSCAD Model</title>
<path d="
M 10.3197,86.9433 L 16.3832,85.271 L 21.7893,82.4838 L 26.5381,78.5817 L 30.6295,73.5648 L 34.0636,67.433
 L 36.8403,60.1863 L 19.2529,56.8356 L 17.7069,61.0062 L 15.9399,64.5351 L 13.9521,67.4223 L 11.7433,69.668
 L 9.31367,71.272 L 6.66312,72.2345 L 3.79166,72.5553 L 1.32414,72.3949 L -0.961975,71.9137 L -3.06671,71.1117
 L -4.99005,69.989 L -6.73201,68.5454 L -8.29256,66.7811 L -9.67174,64.6959 L -10.8682,62.3148 L -11.8805,59.6628
 L -12.7088,56.7401 L -13.3531,53.5466 L -13.8132,50.0823 L -14.0893,46.3473 L -14.1814,42.3415 L -13.8238,34.5305
 L -12.7509,27.9212 L -10.9629,22.5136 L -8.45967,18.3077 L -5.2412,15.3034 L -1.30753,13.5009 L 3.34135,12.9
 L 4.69948,12.977 L 6.01291,13.2077 L 7.28163,13.5922 L 8.50563,14.1306 L 9.68494,14.8228 L 10.8195,15.6689
 L 11.9094,16.6687 L 12.9388,17.8079 L 13.892,19.0721 L 14.7689,20.4612 L 15.5697,21.9752 L 16.2941,23.6142
 L 16.9424,25.3781 L 17.5144,27.2669 L 35.0372,23.0147 L 33.8637,19.5871 L 32.5154,16.4094 L 30.9922,13.4816
 L 29.2942,10.8035 L 27.4212,8.37529 L 25.3734,6.1969 L 23.1508,4.26834 L 20.7614,2.59328 L 18.2128,1.17592
 L 15.5052,0.0162659 L 12.6386,-0.885681 L 9.61276,-1.52994 L 6.42789,-1.91649 L 3.08391,-2.04535 L -6.62419,-1.1395
 L -14.8387,1.57806 L -21.5597,6.10733 L -26.7872,12.4483 L -30.5211,20.601 L -32.7614,30.5654 L -33.5082,42.3415
 L -33.3143,48.4555 L -32.7325,54.1344 L -31.7629,59.3782 L -30.4055,64.1868 L -28.6603,68.5603 L -26.5272,72.4987
 L -24.0063,76.0019 L -21.1157,79.0526 L -17.8741,81.634 L -14.2815,83.746 L -10.3379,85.3887 L -6.04333,86.562
 L -1.39775,87.266 L 3.5988,87.5007 z
" stroke="black" fill="lightgray" stroke-width="0.5"/>
</svg>
