  0
SECTION
  2
BLOCKS
  0
ENDSEC
  0
SECTION
  2
ENTITIES
  0
LINE
  8
0
 10
3.37192
 20
-57.3608
 11
5.97665
 21
-56.942
  0
LINE
  8
0
 10
5.97665
 20
-56.942
 11
8.38889
 21
-56.2439
  0
LINE
  8
0
 10
8.38889
 20
-56.2439
 11
10.6086
 21
-55.2666
  0
LINE
  8
0
 10
10.6086
 20
-55.2666
 11
12.6359
 21
-54.01
  0
LINE
  8
0
 10
12.6359
 20
-54.01
 11
14.4706
 21
-52.4743
  0
LINE
  8
0
 10
14.4706
 20
-52.4743
 11
16.1129
 21
-50.6593
  0
LINE
  8
0
 10
16.1129
 20
-50.6593
 11
17.5486
 21
-48.572
  0
LINE
  8
0
 10
17.5486
 20
-48.572
 11
18.7634
 21
-46.2196
  0
LINE
  8
0
 10
18.7634
 20
-46.2196
 11
19.7574
 21
-43.6022
  0
LINE
  8
0
 10
19.7574
 20
-43.6022
 11
20.5305
 21
-40.7197
  0
LINE
  8
0
 10
20.5305
 20
-40.7197
 11
21.0827
 21
-37.5721
  0
LINE
  8
0
 10
21.0827
 20
-37.5721
 11
21.414
 21
-34.1595
  0
LINE
  8
0
 10
21.414
 20
-34.1595
 11
21.5245
 21
-30.4818
  0
LINE
  8
0
 10
21.5245
 20
-30.4818
 11
21.414
 21
-26.8075
  0
LINE
  8
0
 10
21.414
 20
-26.8075
 11
21.0827
 21
-23.4045
  0
LINE
  8
0
 10
21.0827
 20
-23.4045
 11
20.5305
 21
-20.2729
  0
LINE
  8
0
 10
20.5305
 20
-20.2729
 11
19.7574
 21
-17.4126
  0
LINE
  8
0
 10
19.7574
 20
-17.4126
 11
18.7634
 21
-14.8237
  0
LINE
  8
0
 10
18.7634
 20
-14.8237
 11
17.5486
 21
-12.5062
  0
LINE
  8
0
 10
17.5486
 20
-12.5062
 11
16.1129
 21
-10.46
  0
LINE
  8
0
 10
16.1129
 20
-10.46
 11
14.4706
 21
-8.68585
  0
LINE
  8
0
 10
14.4706
 20
-8.68585
 11
12.6359
 21
-7.18465
  0
LINE
  8
0
 10
12.6359
 20
-7.18465
 11
10.6086
 21
-5.95638
  0
LINE
  8
0
 10
10.6086
 20
-5.95638
 11
8.38889
 21
-5.00105
  0
LINE
  8
0
 10
8.38889
 20
-5.00105
 11
5.97665
 21
-4.3187
  0
LINE
  8
0
 10
5.97665
 20
-4.3187
 11
3.37192
 21
-3.90927
  0
LINE
  8
0
 10
3.37192
 20
-3.90927
 11
0.574677
 21
-3.7728
  0
LINE
  8
0
 10
0.574677
 20
-3.7728
 11
-2.22295
 21
-3.90927
  0
LINE
  8
0
 10
-2.22295
 20
-3.90927
 11
-4.8289
 21
-4.3187
  0
LINE
  8
0
 10
-4.8289
 20
-4.3187
 11
-7.24318
 21
-5.00105
  0
LINE
  8
0
 10
-7.24318
 20
-5.00105
 11
-9.46577
 21
-5.95638
  0
LINE
  8
0
 10
-9.46577
 20
-5.95638
 11
-11.4967
 21
-7.18465
  0
LINE
  8
0
 10
-11.4967
 20
-7.18465
 11
-13.3359
 21
-8.68585
  0
LINE
  8
0
 10
-13.3359
 20
-8.68585
 11
-14.9835
 21
-10.46
  0
LINE
  8
0
 10
-14.9835
 20
-10.46
 11
-16.4242
 21
-12.5062
  0
LINE
  8
0
 10
-16.4242
 20
-12.5062
 11
-17.6432
 21
-14.8237
  0
LINE
  8
0
 10
-17.6432
 20
-14.8237
 11
-18.6407
 21
-17.4126
  0
LINE
  8
0
 10
-18.6407
 20
-17.4126
 11
-19.4164
 21
-20.2729
  0
LINE
  8
0
 10
-19.4164
 20
-20.2729
 11
-19.9706
 21
-23.4045
  0
LINE
  8
0
 10
-19.9706
 20
-23.4045
 11
-20.303
 21
-26.8075
  0
LINE
  8
0
 10
-20.303
 20
-26.8075
 11
-20.4138
 21
-30.4818
  0
LINE
  8
0
 10
-20.4138
 20
-30.4818
 11
-20.303
 21
-34.1595
  0
LINE
  8
0
 10
-20.303
 20
-34.1595
 11
-19.9706
 21
-37.5721
  0
LINE
  8
0
 10
-19.9706
 20
-37.5721
 11
-19.4164
 21
-40.7197
  0
LINE
  8
0
 10
-19.4164
 20
-40.7197
 11
-18.6407
 21
-43.6022
  0
LINE
  8
0
 10
-18.6407
 20
-43.6022
 11
-17.6432
 21
-46.2196
  0
LINE
  8
0
 10
-17.6432
 20
-46.2196
 11
-16.4242
 21
-48.572
  0
LINE
  8
0
 10
-16.4242
 20
-48.572
 11
-14.9835
 21
-50.6593
  0
LINE
  8
0
 10
-14.9835
 20
-50.6593
 11
-13.3359
 21
-52.4743
  0
LINE
  8
0
 10
-13.3359
 20
-52.4743
 11
-11.4967
 21
-54.01
  0
LINE
  8
0
 10
-11.4967
 20
-54.01
 11
-9.46577
 21
-55.2666
  0
LINE
  8
0
 10
-9.46577
 20
-55.2666
 11
-7.24318
 21
-56.2439
  0
LINE
  8
0
 10
-7.24318
 20
-56.2439
 11
-4.8289
 21
-56.942
  0
LINE
  8
0
 10
-4.8289
 20
-56.942
 11
-2.22295
 21
-57.3608
  0
LINE
  8
0
 10
-2.22295
 20
-57.3608
 11
0.574677
 21
-57.5004
  0
LINE
  8
0
 10
0.574677
 20
-57.5004
 11
3.37192
 21
-57.3608
  0
LINE
  8
0
 10
-0.714767
 20
-48.4397
 11
-1.91037
 21
-48.1593
  0
LINE
  8
0
 10
-1.91037
 20
-48.1593
 11
-3.01208
 21
-47.6918
  0
LINE
  8
0
 10
-3.01208
 20
-47.6918
 11
-4.01993
 21
-47.0375
  0
LINE
  8
0
 10
-4.01993
 20
-47.0375
 11
-4.93388
 21
-46.1962
  0
LINE
  8
0
 10
-4.93388
 20
-46.1962
 11
-5.75398
 21
-45.1679
  0
LINE
  8
0
 10
-5.75398
 20
-45.1679
 11
-6.48019
 21
-43.9527
  0
LINE
  8
0
 10
-6.48019
 20
-43.9527
 11
-7.11079
 21
-42.556
  0
LINE
  8
0
 10
-7.11079
 20
-42.556
 11
-7.64439
 21
-40.9834
  0
LINE
  8
0
 10
-7.64439
 20
-40.9834
 11
-8.08096
 21
-39.2349
  0
LINE
  8
0
 10
-8.08096
 20
-39.2349
 11
-8.42052
 21
-37.3105
  0
LINE
  8
0
 10
-8.42052
 20
-37.3105
 11
-8.66306
 21
-35.2102
  0
LINE
  8
0
 10
-8.66306
 20
-35.2102
 11
-8.80859
 21
-32.934
  0
LINE
  8
0
 10
-8.80859
 20
-32.934
 11
-8.8571
 21
-30.4818
  0
LINE
  8
0
 10
-8.8571
 20
-30.4818
 11
-8.66461
 21
-25.7748
  0
LINE
  8
0
 10
-8.66461
 20
-25.7748
 11
-8.08716
 21
-21.792
  0
LINE
  8
0
 10
-8.08716
 20
-21.792
 11
-7.12473
 21
-18.5333
  0
LINE
  8
0
 10
-7.12473
 20
-18.5333
 11
-5.77733
 21
-15.9987
  0
LINE
  8
0
 10
-5.77733
 20
-15.9987
 11
-4.04495
 21
-14.1883
  0
LINE
  8
0
 10
-4.04495
 20
-14.1883
 11
-1.92761
 21
-13.1021
  0
LINE
  8
0
 10
-1.92761
 20
-13.1021
 11
0.574677
 21
-12.74
  0
LINE
  8
0
 10
0.574677
 20
-12.74
 11
3.06656
 21
-13.1021
  0
LINE
  8
0
 10
3.06656
 20
-13.1021
 11
5.17506
 21
-14.1883
  0
LINE
  8
0
 10
5.17506
 20
-14.1883
 11
6.90021
 21
-15.9987
  0
LINE
  8
0
 10
6.90021
 20
-15.9987
 11
8.24199
 21
-18.5333
  0
LINE
  8
0
 10
8.24199
 20
-18.5333
 11
9.20041
 21
-21.792
  0
LINE
  8
0
 10
9.20041
 20
-21.792
 11
9.77545
 21
-25.7748
  0
LINE
  8
0
 10
9.77545
 20
-25.7748
 11
9.96713
 21
-30.4818
  0
LINE
  8
0
 10
9.96713
 20
-30.4818
 11
9.91902
 21
-32.934
  0
LINE
  8
0
 10
9.91902
 20
-32.934
 11
9.77464
 21
-35.2102
  0
LINE
  8
0
 10
9.77464
 20
-35.2102
 11
9.53403
 21
-37.3105
  0
LINE
  8
0
 10
9.53403
 20
-37.3105
 11
9.19714
 21
-39.2349
  0
LINE
  8
0
 10
9.19714
 20
-39.2349
 11
8.76404
 21
-40.9834
  0
LINE
  8
0
 10
8.76404
 20
-40.9834
 11
8.23466
 21
-42.556
  0
LINE
  8
0
 10
8.23466
 20
-42.556
 11
7.60905
 21
-43.9527
  0
LINE
  8
0
 10
7.60905
 20
-43.9527
 11
6.88814
 21
-45.1679
  0
LINE
  8
0
 10
6.88814
 20
-45.1679
 11
6.07256
 21
-46.1962
  0
LINE
  8
0
 10
6.07256
 20
-46.1962
 11
5.16232
 21
-47.0375
  0
LINE
  8
0
 10
5.16232
 20
-47.0375
 11
4.15741
 21
-47.6918
  0
LINE
  8
0
 10
4.15741
 20
-47.6918
 11
3.05783
 21
-48.1593
  0
LINE
  8
0
 10
3.05783
 20
-48.1593
 11
1.86359
 21
-48.4397
  0
LINE
  8
0
 10
1.86359
 20
-48.4397
 11
0.574677
 21
-48.5332
  0
LINE
  8
0
 10
0.574677
 20
-48.5332
 11
-0.714767
 21
-48.4397
  0
ENDSEC
  0
SECTION
  2
OBJECTS
  0
DICTIONARY
  0
ENDSEC
  0
EOF
