  0
SECTION
  2
BLOCKS
  0
ENDSEC
  0
SECTION
  2
ENTITIES
  0
LINE
  8
0
 10
5.03821
 20
-87.2667
 11
9.07196
 21
-86.5647
  0
LINE
  8
0
 10
9.07196
 20
-86.5647
 11
12.8007
 21
-85.3946
  0
LINE
  8
0
 10
12.8007
 20
-85.3946
 11
16.2243
 21
-83.7565
  0
LINE
  8
0
 10
16.2243
 20
-83.7565
 11
19.343
 21
-81.6504
  0
LINE
  8
0
 10
19.343
 20
-81.6504
 11
22.1565
 21
-79.0763
  0
LINE
  8
0
 10
22.1565
 20
-79.0763
 11
24.6651
 21
-76.0342
  0
LINE
  8
0
 10
24.6651
 20
-76.0342
 11
26.8528
 21
-72.5461
  0
LINE
  8
0
 10
26.8528
 20
-72.5461
 11
28.7039
 21
-68.6347
  0
LINE
  8
0
 10
28.7039
 20
-68.6347
 11
30.2185
 21
-64.3
  0
LINE
  8
0
 10
30.2185
 20
-64.3
 11
31.3965
 21
-59.542
  0
LINE
  8
0
 10
31.3965
 20
-59.542
 11
32.2379
 21
-54.3607
  0
LINE
  8
0
 10
32.2379
 20
-54.3607
 11
32.7428
 21
-48.7561
  0
LINE
  8
0
 10
32.7428
 20
-48.7561
 11
32.9111
 21
-42.7281
  0
LINE
  8
0
 10
32.9111
 20
-42.7281
 11
32.752
 21
-36.5686
  0
LINE
  8
0
 10
32.752
 20
-36.5686
 11
32.2747
 21
-30.864
  0
LINE
  8
0
 10
32.2747
 20
-30.864
 11
31.4792
 21
-25.6143
  0
LINE
  8
0
 10
31.4792
 20
-25.6143
 11
30.3655
 21
-20.8195
  0
LINE
  8
0
 10
30.3655
 20
-20.8195
 11
28.9337
 21
-16.4796
  0
LINE
  8
0
 10
28.9337
 20
-16.4796
 11
27.1836
 21
-12.5947
  0
LINE
  8
0
 10
27.1836
 20
-12.5947
 11
25.1154
 21
-9.16464
  0
LINE
  8
0
 10
25.1154
 20
-9.16464
 11
22.7187
 21
-6.19057
  0
LINE
  8
0
 10
22.7187
 20
-6.19057
 11
19.9828
 21
-3.67403
  0
LINE
  8
0
 10
19.9828
 20
-3.67403
 11
16.9077
 21
-1.61505
  0
LINE
  8
0
 10
16.9077
 20
-1.61505
 11
13.4934
 21
-0.0136261
  0
LINE
  8
0
 10
13.4934
 20
-0.0136261
 11
9.7399
 21
1.13023
  0
LINE
  8
0
 10
9.7399
 20
1.13023
 11
5.64717
 21
1.81657
  0
LINE
  8
0
 10
5.64717
 20
1.81657
 11
1.21526
 21
2.04535
  0
LINE
  8
0
 10
1.21526
 20
2.04535
 11
-3.37108
 21
1.81987
  0
LINE
  8
0
 10
-3.37108
 20
1.81987
 11
-7.59592
 21
1.14342
  0
LINE
  8
0
 10
-7.59592
 20
1.14342
 11
-11.4593
 21
0.0160217
  0
LINE
  8
0
 10
-11.4593
 20
0.0160217
 11
-14.9611
 21
-1.56232
  0
LINE
  8
0
 10
-14.9611
 20
-1.56232
 11
-18.1014
 21
-3.59163
  0
LINE
  8
0
 10
-18.1014
 20
-3.59163
 11
-20.8803
 21
-6.07191
  0
LINE
  8
0
 10
-20.8803
 20
-6.07191
 11
-23.2976
 21
-9.00314
  0
LINE
  8
0
 10
-23.2976
 20
-9.00314
 11
-25.3741
 21
-12.3972
  0
LINE
  8
0
 10
-25.3741
 20
-12.3972
 11
-27.1312
 21
-16.2658
  0
LINE
  8
0
 10
-27.1312
 20
-16.2658
 11
-28.5689
 21
-20.609
  0
LINE
  8
0
 10
-28.5689
 20
-20.609
 11
-29.687
 21
-25.4269
  0
LINE
  8
0
 10
-29.687
 20
-25.4269
 11
-30.4857
 21
-30.7194
  0
LINE
  8
0
 10
-30.4857
 20
-30.7194
 11
-30.9649
 21
-36.4865
  0
LINE
  8
0
 10
-30.9649
 20
-36.4865
 11
-31.1246
 21
-42.7281
  0
LINE
  8
0
 10
-31.1246
 20
-42.7281
 11
-30.961
 21
-48.7726
  0
LINE
  8
0
 10
-30.961
 20
-48.7726
 11
-30.4699
 21
-54.3897
  0
LINE
  8
0
 10
-30.4699
 20
-54.3897
 11
-29.6516
 21
-59.5796
  0
LINE
  8
0
 10
-29.6516
 20
-59.5796
 11
-28.5059
 21
-64.3422
  0
LINE
  8
0
 10
-28.5059
 20
-64.3422
 11
-27.0329
 21
-68.6776
  0
LINE
  8
0
 10
-27.0329
 20
-68.6776
 11
-25.2325
 21
-72.5857
  0
LINE
  8
0
 10
-25.2325
 20
-72.5857
 11
-23.1047
 21
-76.0665
  0
LINE
  8
0
 10
-23.1047
 20
-76.0665
 11
-20.6546
 21
-79.1001
  0
LINE
  8
0
 10
-20.6546
 20
-79.1001
 11
-17.8877
 21
-81.6669
  0
LINE
  8
0
 10
-17.8877
 20
-81.6669
 11
-14.804
 21
-83.7671
  0
LINE
  8
0
 10
-14.804
 20
-83.7671
 11
-11.4034
 21
-85.4005
  0
LINE
  8
0
 10
-11.4034
 20
-85.4005
 11
-7.68594
 21
-86.5673
  0
LINE
  8
0
 10
-7.68594
 20
-86.5673
 11
-3.65167
 21
-87.2673
  0
LINE
  8
0
 10
-3.65167
 20
-87.2673
 11
0.699402
 21
-87.5007
  0
LINE
  8
0
 10
0.699402
 20
-87.5007
 11
5.03821
 21
-87.2667
  0
LINE
  8
0
 10
-0.632156
 20
-73.2022
 11
-1.99564
 21
-73.0168
  0
LINE
  8
0
 10
-1.99564
 20
-73.0168
 11
-3.26183
 21
-72.7079
  0
LINE
  8
0
 10
-3.26183
 20
-72.7079
 11
-4.43074
 21
-72.2754
  0
LINE
  8
0
 10
-4.43074
 20
-72.2754
 11
-5.50235
 21
-71.7193
  0
LINE
  8
0
 10
-5.50235
 20
-71.7193
 11
-6.47668
 21
-71.0396
  0
LINE
  8
0
 10
-6.47668
 20
-71.0396
 11
-7.35373
 21
-70.2363
  0
LINE
  8
0
 10
-7.35373
 20
-70.2363
 11
-8.15097
 21
-69.2974
  0
LINE
  8
0
 10
-8.15097
 20
-69.2974
 11
-8.88644
 21
-68.2113
  0
LINE
  8
0
 10
-8.88644
 20
-68.2113
 11
-9.56015
 21
-66.978
  0
LINE
  8
0
 10
-9.56015
 20
-66.978
 11
-10.1721
 21
-65.5975
  0
LINE
  8
0
 10
-10.1721
 20
-65.5975
 11
-10.7223
 21
-64.0699
  0
LINE
  8
0
 10
-10.7223
 20
-64.0699
 11
-11.2106
 21
-62.395
  0
LINE
  8
0
 10
-11.2106
 20
-62.395
 11
-11.6373
 21
-60.5729
  0
LINE
  8
0
 10
-11.6373
 20
-60.5729
 11
-12.0048
 21
-58.5837
  0
LINE
  8
0
 10
-12.0048
 20
-58.5837
 11
-12.3157
 21
-56.4078
  0
LINE
  8
0
 10
-12.3157
 20
-56.4078
 11
-12.5701
 21
-54.0452
  0
LINE
  8
0
 10
-12.5701
 20
-54.0452
 11
-12.768
 21
-51.4959
  0
LINE
  8
0
 10
-12.768
 20
-51.4959
 11
-12.9093
 21
-48.76
  0
LINE
  8
0
 10
-12.9093
 20
-48.76
 11
-12.9941
 21
-45.8374
  0
LINE
  8
0
 10
-12.9941
 20
-45.8374
 11
-13.0224
 21
-42.7281
  0
LINE
  8
0
 10
-13.0224
 20
-42.7281
 11
-12.9954
 21
-39.5853
  0
LINE
  8
0
 10
-12.9954
 20
-39.5853
 11
-12.9146
 21
-36.6357
  0
LINE
  8
0
 10
-12.9146
 20
-36.6357
 11
-12.7798
 21
-33.8793
  0
LINE
  8
0
 10
-12.7798
 20
-33.8793
 11
-12.5912
 21
-31.3162
  0
LINE
  8
0
 10
-12.5912
 20
-31.3162
 11
-12.3487
 21
-28.9464
  0
LINE
  8
0
 10
-12.3487
 20
-28.9464
 11
-12.0522
 21
-26.7698
  0
LINE
  8
0
 10
-12.0522
 20
-26.7698
 11
-11.7019
 21
-24.7864
  0
LINE
  8
0
 10
-11.7019
 20
-24.7864
 11
-11.2908
 21
-22.9727
  0
LINE
  8
0
 10
-11.2908
 20
-22.9727
 11
-10.8128
 21
-21.3049
  0
LINE
  8
0
 10
-10.8128
 20
-21.3049
 11
-10.2677
 21
-19.7831
  0
LINE
  8
0
 10
-10.2677
 20
-19.7831
 11
-9.65562
 21
-18.4073
  0
LINE
  8
0
 10
-9.65562
 20
-18.4073
 11
-8.97655
 21
-17.1773
  0
LINE
  8
0
 10
-8.97655
 20
-17.1773
 11
-8.23047
 21
-16.0934
  0
LINE
  8
0
 10
-8.23047
 20
-16.0934
 11
-7.41737
 21
-15.1553
  0
LINE
  8
0
 10
-7.41737
 20
-15.1553
 11
-6.5182
 21
-14.3521
  0
LINE
  8
0
 10
-6.5182
 20
-14.3521
 11
-5.51381
 21
-13.6724
  0
LINE
  8
0
 10
-5.51381
 20
-13.6724
 11
-4.40424
 21
-13.1163
  0
LINE
  8
0
 10
-4.40424
 20
-13.1163
 11
-3.18945
 21
-12.6838
  0
LINE
  8
0
 10
-3.18945
 20
-12.6838
 11
-1.86948
 21
-12.3748
  0
LINE
  8
0
 10
-1.86948
 20
-12.3748
 11
-0.444305
 21
-12.1895
  0
LINE
  8
0
 10
-0.444305
 20
-12.1895
 11
1.08606
 21
-12.1277
  0
LINE
  8
0
 10
1.08606
 20
-12.1277
 11
2.54549
 21
-12.1895
  0
LINE
  8
0
 10
2.54549
 20
-12.1895
 11
3.90495
 21
-12.3748
  0
LINE
  8
0
 10
3.90495
 20
-12.3748
 11
5.16446
 21
-12.6838
  0
LINE
  8
0
 10
5.16446
 20
-12.6838
 11
6.32401
 21
-13.1163
  0
LINE
  8
0
 10
6.32401
 20
-13.1163
 11
7.38359
 21
-13.6724
  0
LINE
  8
0
 10
7.38359
 20
-13.6724
 11
8.3432
 21
-14.3521
  0
LINE
  8
0
 10
8.3432
 20
-14.3521
 11
9.20285
 21
-15.1553
  0
LINE
  8
0
 10
9.20285
 20
-15.1553
 11
9.98256
 21
-16.0934
  0
LINE
  8
0
 10
9.98256
 20
-16.0934
 11
10.7018
 21
-17.1773
  0
LINE
  8
0
 10
10.7018
 20
-17.1773
 11
11.3605
 21
-18.4073
  0
LINE
  8
0
 10
11.3605
 20
-18.4073
 11
11.9587
 21
-19.7831
  0
LINE
  8
0
 10
11.9587
 20
-19.7831
 11
12.4964
 21
-21.3049
  0
LINE
  8
0
 10
12.4964
 20
-21.3049
 11
12.9737
 21
-22.9727
  0
LINE
  8
0
 10
12.9737
 20
-22.9727
 11
13.3905
 21
-24.7864
  0
LINE
  8
0
 10
13.3905
 20
-24.7864
 11
13.7496
 21
-26.7698
  0
LINE
  8
0
 10
13.7496
 20
-26.7698
 11
14.0535
 21
-28.9464
  0
LINE
  8
0
 10
14.0535
 20
-28.9464
 11
14.3022
 21
-31.3162
  0
LINE
  8
0
 10
14.3022
 20
-31.3162
 11
14.4956
 21
-33.8793
  0
LINE
  8
0
 10
14.4956
 20
-33.8793
 11
14.6337
 21
-36.6357
  0
LINE
  8
0
 10
14.6337
 20
-36.6357
 11
14.7166
 21
-39.5853
  0
LINE
  8
0
 10
14.7166
 20
-39.5853
 11
14.7442
 21
-42.7281
  0
LINE
  8
0
 10
14.7442
 20
-42.7281
 11
14.6785
 21
-47.2469
  0
LINE
  8
0
 10
14.6785
 20
-47.2469
 11
14.4812
 21
-51.3791
  0
LINE
  8
0
 10
14.4812
 20
-51.3791
 11
14.1525
 21
-55.1248
  0
LINE
  8
0
 10
14.1525
 20
-55.1248
 11
13.6923
 21
-58.484
  0
LINE
  8
0
 10
13.6923
 20
-58.484
 11
13.1006
 21
-61.4567
  0
LINE
  8
0
 10
13.1006
 20
-61.4567
 11
12.3774
 21
-64.0429
  0
LINE
  8
0
 10
12.3774
 20
-64.0429
 11
11.5228
 21
-66.2425
  0
LINE
  8
0
 10
11.5228
 20
-66.2425
 11
10.5156
 21
-68.1054
  0
LINE
  8
0
 10
10.5156
 20
-68.1054
 11
9.33488
 21
-69.6816
  0
LINE
  8
0
 10
9.33488
 20
-69.6816
 11
7.98067
 21
-70.9713
  0
LINE
  8
0
 10
7.98067
 20
-70.9713
 11
6.45293
 21
-71.9743
  0
LINE
  8
0
 10
6.45293
 20
-71.9743
 11
4.75168
 21
-72.6908
  0
LINE
  8
0
 10
4.75168
 20
-72.6908
 11
2.87691
 21
-73.1207
  0
LINE
  8
0
 10
2.87691
 20
-73.1207
 11
0.828598
 21
-73.264
  0
LINE
  8
0
 10
0.828598
 20
-73.264
 11
-0.632156
 21
-73.2022
  0
LINE
  8
0
 10
7.78641
 20
-34.4175
 11
-6.06458
 21
-34.4175
  0
LINE
  8
0
 10
-6.06458
 20
-34.4175
 11
-6.06458
 21
-50.4583
  0
LINE
  8
0
 10
-6.06458
 20
-50.4583
 11
7.78641
 21
-50.4583
  0
LINE
  8
0
 10
7.78641
 20
-50.4583
 11
7.78641
 21
-34.4175
  0
ENDSEC
  0
SECTION
  2
OBJECTS
  0
DICTIONARY
  0
ENDSEC
  0
EOF
