  0
SECTION
  2
BLOCKS
  0
ENDSEC
  0
SECTION
  2
ENTITIES
  0
LINE
  8
0
 10
6.1918
 20
-57.166
 11
9.8299
 21
-56.1626
  0
LINE
  8
0
 10
9.8299
 20
-56.1626
 11
13.0736
 21
-54.4902
  0
LINE
  8
0
 10
13.0736
 20
-54.4902
 11
15.9229
 21
-52.149
  0
LINE
  8
0
 10
15.9229
 20
-52.149
 11
18.3777
 21
-49.1389
  0
LINE
  8
0
 10
18.3777
 20
-49.1389
 11
20.4381
 21
-45.4598
  0
LINE
  8
0
 10
20.4381
 20
-45.4598
 11
22.1042
 21
-41.1118
  0
LINE
  8
0
 10
22.1042
 20
-41.1118
 11
11.5517
 21
-39.1014
  0
LINE
  8
0
 10
11.5517
 20
-39.1014
 11
10.6241
 21
-41.6037
  0
LINE
  8
0
 10
10.6241
 20
-41.6037
 11
9.56395
 21
-43.721
  0
LINE
  8
0
 10
9.56395
 20
-43.721
 11
8.37125
 21
-45.4534
  0
LINE
  8
0
 10
8.37125
 20
-45.4534
 11
7.04599
 21
-46.8008
  0
LINE
  8
0
 10
7.04599
 20
-46.8008
 11
5.5882
 21
-47.7632
  0
LINE
  8
0
 10
5.5882
 20
-47.7632
 11
3.99786
 21
-48.3407
  0
LINE
  8
0
 10
3.99786
 20
-48.3407
 11
2.27499
 21
-48.5332
  0
LINE
  8
0
 10
2.27499
 20
-48.5332
 11
0.794479
 21
-48.4369
  0
LINE
  8
0
 10
0.794479
 20
-48.4369
 11
-0.577179
 21
-48.1482
  0
LINE
  8
0
 10
-0.577179
 20
-48.1482
 11
-1.84003
 21
-47.667
  0
LINE
  8
0
 10
-1.84003
 20
-47.667
 11
-2.99403
 21
-46.9934
  0
LINE
  8
0
 10
-2.99403
 20
-46.9934
 11
-4.0392
 21
-46.1272
  0
LINE
  8
0
 10
-4.0392
 20
-46.1272
 11
-4.97554
 21
-45.0686
  0
LINE
  8
0
 10
-4.97554
 20
-45.0686
 11
-5.80304
 21
-43.8176
  0
LINE
  8
0
 10
-5.80304
 20
-43.8176
 11
-6.5209
 21
-42.3889
  0
LINE
  8
0
 10
-6.5209
 20
-42.3889
 11
-7.12833
 21
-40.7977
  0
LINE
  8
0
 10
-7.12833
 20
-40.7977
 11
-7.62531
 21
-39.0441
  0
LINE
  8
0
 10
-7.62531
 20
-39.0441
 11
-8.01184
 21
-37.1279
  0
LINE
  8
0
 10
-8.01184
 20
-37.1279
 11
-8.28795
 21
-35.0494
  0
LINE
  8
0
 10
-8.28795
 20
-35.0494
 11
-8.4536
 21
-32.8084
  0
LINE
  8
0
 10
-8.4536
 20
-32.8084
 11
-8.50882
 21
-30.4049
  0
LINE
  8
0
 10
-8.50882
 20
-30.4049
 11
-8.29427
 21
-25.7183
  0
LINE
  8
0
 10
-8.29427
 20
-25.7183
 11
-7.65057
 21
-21.7527
  0
LINE
  8
0
 10
-7.65057
 20
-21.7527
 11
-6.57774
 21
-18.5081
  0
LINE
  8
0
 10
-6.57774
 20
-18.5081
 11
-5.07579
 21
-15.9846
  0
LINE
  8
0
 10
-5.07579
 20
-15.9846
 11
-3.14471
 21
-14.1821
  0
LINE
  8
0
 10
-3.14471
 20
-14.1821
 11
-0.784515
 21
-13.1005
  0
LINE
  8
0
 10
-0.784515
 20
-13.1005
 11
2.00481
 21
-12.74
  0
LINE
  8
0
 10
2.00481
 20
-12.74
 11
2.81969
 21
-12.7862
  0
LINE
  8
0
 10
2.81969
 20
-12.7862
 11
3.60774
 21
-12.9246
  0
LINE
  8
0
 10
3.60774
 20
-12.9246
 11
4.36897
 21
-13.1553
  0
LINE
  8
0
 10
4.36897
 20
-13.1553
 11
5.10338
 21
-13.4784
  0
LINE
  8
0
 10
5.10338
 20
-13.4784
 11
5.81096
 21
-13.8937
  0
LINE
  8
0
 10
5.81096
 20
-13.8937
 11
6.49171
 21
-14.4013
  0
LINE
  8
0
 10
6.49171
 20
-14.4013
 11
7.14565
 21
-15.0012
  0
LINE
  8
0
 10
7.14565
 20
-15.0012
 11
7.76329
 21
-15.6848
  0
LINE
  8
0
 10
7.76329
 20
-15.6848
 11
8.33519
 21
-16.4432
  0
LINE
  8
0
 10
8.33519
 20
-16.4432
 11
8.86136
 21
-17.2767
  0
LINE
  8
0
 10
8.86136
 20
-17.2767
 11
9.3418
 21
-18.1851
  0
LINE
  8
0
 10
9.3418
 20
-18.1851
 11
9.77647
 21
-19.1685
  0
LINE
  8
0
 10
9.77647
 20
-19.1685
 11
10.1654
 21
-20.2268
  0
LINE
  8
0
 10
10.1654
 20
-20.2268
 11
10.5086
 21
-21.3601
  0
LINE
  8
0
 10
10.5086
 20
-21.3601
 11
21.0223
 21
-18.8088
  0
LINE
  8
0
 10
21.0223
 20
-18.8088
 11
20.3182
 21
-16.7523
  0
LINE
  8
0
 10
20.3182
 20
-16.7523
 11
19.5092
 21
-14.8457
  0
LINE
  8
0
 10
19.5092
 20
-14.8457
 11
18.5954
 21
-13.0889
  0
LINE
  8
0
 10
18.5954
 20
-13.0889
 11
17.5765
 21
-11.4821
  0
LINE
  8
0
 10
17.5765
 20
-11.4821
 11
16.4527
 21
-10.0252
  0
LINE
  8
0
 10
16.4527
 20
-10.0252
 11
15.2241
 21
-8.71814
  0
LINE
  8
0
 10
15.2241
 20
-8.71814
 11
13.8904
 21
-7.561
  0
LINE
  8
0
 10
13.8904
 20
-7.561
 11
12.4568
 21
-6.55597
  0
LINE
  8
0
 10
12.4568
 20
-6.55597
 11
10.9277
 21
-5.70555
  0
LINE
  8
0
 10
10.9277
 20
-5.70555
 11
9.30315
 21
-5.00975
  0
LINE
  8
0
 10
9.30315
 20
-5.00975
 11
7.58313
 21
-4.4686
  0
LINE
  8
0
 10
7.58313
 20
-4.4686
 11
5.76765
 21
-4.08205
  0
LINE
  8
0
 10
5.76765
 20
-4.08205
 11
3.85674
 21
-3.85011
  0
LINE
  8
0
 10
3.85674
 20
-3.85011
 11
1.85034
 21
-3.7728
  0
LINE
  8
0
 10
1.85034
 20
-3.7728
 11
-3.97452
 21
-4.31631
  0
LINE
  8
0
 10
-3.97452
 20
-4.31631
 11
-8.90324
 21
-5.94684
  0
LINE
  8
0
 10
-8.90324
 20
-5.94684
 11
-12.9358
 21
-8.6644
  0
LINE
  8
0
 10
-12.9358
 20
-8.6644
 11
-16.0723
 21
-12.469
  0
LINE
  8
0
 10
-16.0723
 20
-12.469
 11
-18.3126
 21
-17.3606
  0
LINE
  8
0
 10
-18.3126
 20
-17.3606
 11
-19.6568
 21
-23.3392
  0
LINE
  8
0
 10
-19.6568
 20
-23.3392
 11
-20.1049
 21
-30.4049
  0
LINE
  8
0
 10
-20.1049
 20
-30.4049
 11
-19.9886
 21
-34.0733
  0
LINE
  8
0
 10
-19.9886
 20
-34.0733
 11
-19.6395
 21
-37.4807
  0
LINE
  8
0
 10
-19.6395
 20
-37.4807
 11
-19.0578
 21
-40.6269
  0
LINE
  8
0
 10
-19.0578
 20
-40.6269
 11
-18.2433
 21
-43.5121
  0
LINE
  8
0
 10
-18.2433
 20
-43.5121
 11
-17.1962
 21
-46.1362
  0
LINE
  8
0
 10
-17.1962
 20
-46.1362
 11
-15.9163
 21
-48.4992
  0
LINE
  8
0
 10
-15.9163
 20
-48.4992
 11
-14.4038
 21
-50.6011
  0
LINE
  8
0
 10
-14.4038
 20
-50.6011
 11
-12.6694
 21
-52.4315
  0
LINE
  8
0
 10
-12.6694
 20
-52.4315
 11
-10.7245
 21
-53.9804
  0
LINE
  8
0
 10
-10.7245
 20
-53.9804
 11
-8.56889
 21
-55.2476
  0
LINE
  8
0
 10
-8.56889
 20
-55.2476
 11
-6.20274
 21
-56.2332
  0
LINE
  8
0
 10
-6.20274
 20
-56.2332
 11
-3.62599
 21
-56.9372
  0
LINE
  8
0
 10
-3.62599
 20
-56.9372
 11
-0.838654
 21
-57.3596
  0
LINE
  8
0
 10
-0.838654
 20
-57.3596
 11
2.15929
 21
-57.5004
  0
LINE
  8
0
 10
2.15929
 20
-57.5004
 11
6.1918
 21
-57.166
  0
ENDSEC
  0
SECTION
  2
OBJECTS
  0
DICTIONARY
  0
ENDSEC
  0
EOF
