<?xml version="1.0" standalone="no"?>
<!DOCTYPE svg PUBLIC "-//W3C//DTD SVG 1.1//EN" "http://www.w3.org/Graphics/SVG/1.1/DTD/svg11.dtd">
<svg width="65mm" height="91mm" viewBox="-32 -3 65 91" xmlns="http://www.w3.org/2000/svg" version="1.1">
<title>OpenSCAD Model</title>
<path d="
M 3.23895,87.2575 L 7.4612,86.5278 L 11.3692,85.3117 L 14.9631,83.6092 L 18.2427,81.4202 L 21.2082,78.7448
 L 23.8595,75.5829 L 26.1755,71.9649 L 28.1351,67.9208 L 29.7385,63.4508 L 30.9856,58.5547 L 31.8764,53.2327
 L 32.4108,47.4847 L 32.589,41.3107 L 32.4207,35.2643 L 31.9159,29.678 L 31.0744,24.5519 L 29.8964,19.8859
 L 28.3819,15.68 L 26.5307,11.9343 L 24.343,8.64879 L 21.8345,5.81157 L 19.0209,3.41084 L 15.9023,1.44661
 L 12.4786,-0.0811157 L 8.74992,-1.17235 L 4.71616,-1.82709 L 0.37735,-2.04535 L -3.75867,-1.88495 L -7.62651,-1.40376
 L -11.2262,-0.601791 L -14.5577,0.520966 L -17.6211,1.96451 L -20.4162,3.72885 L -22.9432,5.814 L -25.165,8.17917
 L -27.0449,10.7836 L -28.583,13.6273 L -29.7794,16.7104 L -30.6339,20.0327 L -31.1466,23.5943 L -31.3175,27.3951
 L -31.1716,31.1119 L -30.7337,34.6051 L -30.0041,37.8749 L -28.9826,40.9211 L -27.6692,43.7439 L -26.0639,46.3431
 L -24.1668,48.7188 L -22.0291,50.8211 L -19.7021,52.6 L -17.1857,54.0554 L -14.4799,55.1874 L -11.5849,55.9959
 L -8.50044,56.4811 L -5.22668,56.6428 L -3.40387,56.5869 L -1.61653,56.4193 L 0.135315,56.1399 L 1.8517,55.7488
 L 3.53259,55.2459 L 5.17801,54.6313 L 6.78795,53.9049 L 8.31638,53.0799 L 9.71721,52.1694 L 10.9905,51.1735
 L 12.1362,50.0922 L 13.1543,48.9253 L 14.0449,47.673 L 14.8079,46.3353 L 14.6877,50.0449 L 14.4006,53.4797
 L 13.9464,56.6397 L 13.3252,59.525 L 12.5371,62.1355 L 11.5819,64.4713 L 10.4597,66.5323 L 9.19028,68.3183
 L 7.79335,69.8295 L 6.26892,71.0659 L 4.617,72.0276 L 2.8376,72.7145 L 0.930695,73.1266 L -1.10368,73.264
 L -3.56497,73.0707 L -5.75806,72.4909 L -7.68294,71.5245 L -9.3396,70.1716 L -10.7281,68.4321 L -11.8483,66.306
 L -12.7003,63.7934 L -29.7072,66.177 L -28.8164,69.2213 L -27.764,72.0224 L -26.5498,74.5802 L -25.1739,76.8949
 L -23.6363,78.9662 L -21.9371,80.7944 L -20.0761,82.3792 L -18.0285,83.738 L -15.7692,84.8877 L -13.2982,85.8284
 L -10.6155,86.56 L -7.72119,87.0826 L -4.61517,87.3962 L -1.29749,87.5007 z
M -1.65247,43.0897 L -3.198,42.8235 L -4.64493,42.3798 L -5.99326,41.7586 L -7.24297,40.96 L -8.39407,39.9839
 L -9.44658,38.8303 L -10.3781,37.5347 L -11.1664,36.1326 L -11.8113,34.624 L -12.3129,33.0089 L -12.6712,31.2872
 L -12.8861,29.459 L -12.9578,27.5243 L -12.8861,25.5593 L -12.6712,23.714 L -12.3129,21.9884 L -11.8113,20.3825
 L -11.1664,18.8963 L -10.3781,17.5298 L -9.44658,16.283 L -8.3954,15.1806 L -7.24825,14.2477 L -6.00511,13.4845
 L -4.66603,12.8909 L -3.23096,12.4669 L -1.69994,12.2125 L -0.072937,12.1277 L 1.57686,12.2256 L 3.13991,12.5195
 L 4.61624,13.0092 L 6.00581,13.6948 L 7.30865,14.5764 L 8.52475,15.6538 L 9.6541,16.9271 L 10.6625,18.3608
 L 11.5158,19.9194 L 12.2139,21.6029 L 12.7569,23.4113 L 13.1448,25.3446 L 13.3775,27.4028 L 13.455,29.5858
 L 13.3775,31.2693 L 13.1448,32.8593 L 12.7569,34.3561 L 12.2139,35.7595 L 11.5158,37.0696 L 10.6625,38.2864
 L 9.6541,39.4098 L 8.52606,40.4096 L 7.31392,41.2557 L 6.01768,41.9479 L 4.63733,42.4862 L 3.17287,42.8708
 L 1.62431,43.1015 L -0.0083313,43.1784 z
" stroke="black" fill="lightgray" stroke-width="0.5"/>
</svg>
