  0
SECTION
  2
BLOCKS
  0
ENDSEC
  0
SECTION
  2
ENTITIES
  0
LINE
  8
0
 10
1.36766
 20
-22.4462
 11
2.28246
 21
-22.2845
  0
LINE
  8
0
 10
2.28246
 20
-22.2845
 11
3.19357
 21
-22.015
  0
LINE
  8
0
 10
3.19357
 20
-22.015
 11
4.10101
 21
-21.6377
  0
LINE
  8
0
 10
4.10101
 20
-21.6377
 11
5.00478
 21
-21.1526
  0
LINE
  8
0
 10
5.00478
 20
-21.1526
 11
5.90486
 21
-20.5597
  0
LINE
  8
0
 10
5.90486
 20
-20.5597
 11
6.80127
 21
-19.8589
  0
LINE
  8
0
 10
6.80127
 20
-19.8589
 11
6.80127
 21
-12.6693
  0
LINE
  8
0
 10
6.80127
 20
-12.6693
 11
-0.207809
 21
-12.6693
  0
LINE
  8
0
 10
-0.207809
 20
-12.6693
 11
-0.207809
 21
-15.4781
  0
LINE
  8
0
 10
-0.207809
 20
-15.4781
 11
3.32237
 21
-15.4781
  0
LINE
  8
0
 10
3.32237
 20
-15.4781
 11
3.32237
 21
-18.506
  0
LINE
  8
0
 10
3.32237
 20
-18.506
 11
3.16396
 21
-18.6275
  0
LINE
  8
0
 10
3.16396
 20
-18.6275
 11
2.99789
 21
-18.7416
  0
LINE
  8
0
 10
2.99789
 20
-18.7416
 11
2.82422
 21
-18.8483
  0
LINE
  8
0
 10
2.82422
 20
-18.8483
 11
2.6429
 21
-18.9477
  0
LINE
  8
0
 10
2.6429
 20
-18.9477
 11
2.45396
 21
-19.0398
  0
LINE
  8
0
 10
2.45396
 20
-19.0398
 11
2.25739
 21
-19.1244
  0
LINE
  8
0
 10
2.25739
 20
-19.1244
 11
2.05318
 21
-19.2017
  0
LINE
  8
0
 10
2.05318
 20
-19.2017
 11
1.84613
 21
-19.2701
  0
LINE
  8
0
 10
1.84613
 20
-19.2701
 11
1.64091
 21
-19.3279
  0
LINE
  8
0
 10
1.64091
 20
-19.3279
 11
1.43755
 21
-19.3752
  0
LINE
  8
0
 10
1.43755
 20
-19.3752
 11
1.23601
 21
-19.412
  0
LINE
  8
0
 10
1.23601
 20
-19.412
 11
1.0363
 21
-19.4383
  0
LINE
  8
0
 10
1.0363
 20
-19.4383
 11
0.83844
 21
-19.4541
  0
LINE
  8
0
 10
0.83844
 20
-19.4541
 11
0.642426
 21
-19.4594
  0
LINE
  8
0
 10
0.642426
 20
-19.4594
 11
0.156509
 21
-19.4276
  0
LINE
  8
0
 10
0.156509
 20
-19.4276
 11
-0.292572
 21
-19.3321
  0
LINE
  8
0
 10
-0.292572
 20
-19.3321
 11
-0.70488
 21
-19.173
  0
LINE
  8
0
 10
-0.70488
 20
-19.173
 11
-1.08037
 21
-18.9503
  0
LINE
  8
0
 10
-1.08037
 20
-18.9503
 11
-1.41907
 21
-18.664
  0
LINE
  8
0
 10
-1.41907
 20
-18.664
 11
-1.72095
 21
-18.314
  0
LINE
  8
0
 10
-1.72095
 20
-18.314
 11
-1.98602
 21
-17.9004
  0
LINE
  8
0
 10
-1.98602
 20
-17.9004
 11
-2.21503
 21
-17.4282
  0
LINE
  8
0
 10
-2.21503
 20
-17.4282
 11
-2.4088
 21
-16.9023
  0
LINE
  8
0
 10
-2.4088
 20
-16.9023
 11
-2.56734
 21
-16.3228
  0
LINE
  8
0
 10
-2.56734
 20
-16.3228
 11
-2.69064
 21
-15.6896
  0
LINE
  8
0
 10
-2.69064
 20
-15.6896
 11
-2.77873
 21
-15.0028
  0
LINE
  8
0
 10
-2.77873
 20
-15.0028
 11
-2.83157
 21
-14.2624
  0
LINE
  8
0
 10
-2.83157
 20
-14.2624
 11
-2.8492
 21
-13.4683
  0
LINE
  8
0
 10
-2.8492
 20
-13.4683
 11
-2.83249
 21
-12.6161
  0
LINE
  8
0
 10
-2.83249
 20
-12.6161
 11
-2.78241
 21
-11.8338
  0
LINE
  8
0
 10
-2.78241
 20
-11.8338
 11
-2.69891
 21
-11.1215
  0
LINE
  8
0
 10
-2.69891
 20
-11.1215
 11
-2.58205
 21
-10.4791
  0
LINE
  8
0
 10
-2.58205
 20
-10.4791
 11
-2.43178
 21
-9.90663
  0
LINE
  8
0
 10
-2.43178
 20
-9.90663
 11
-2.24811
 21
-9.40413
  0
LINE
  8
0
 10
-2.24811
 20
-9.40413
 11
-2.03105
 21
-8.97156
  0
LINE
  8
0
 10
-2.03105
 20
-8.97156
 11
-1.77849
 21
-8.60237
  0
LINE
  8
0
 10
-1.77849
 20
-8.60237
 11
-1.48833
 21
-8.28998
  0
LINE
  8
0
 10
-1.48833
 20
-8.28998
 11
-1.16057
 21
-8.03439
  0
LINE
  8
0
 10
-1.16057
 20
-8.03439
 11
-0.795197
 21
-7.8356
  0
LINE
  8
0
 10
-0.795197
 20
-7.8356
 11
-0.392227
 21
-7.6936
  0
LINE
  8
0
 10
-0.392227
 20
-7.6936
 11
0.0483398
 21
-7.6084
  0
LINE
  8
0
 10
0.0483398
 20
-7.6084
 11
0.52652
 21
-7.58
  0
LINE
  8
0
 10
0.52652
 20
-7.58
 11
0.991669
 21
-7.63181
  0
LINE
  8
0
 10
0.991669
 20
-7.63181
 11
1.41525
 21
-7.7872
  0
LINE
  8
0
 10
1.41525
 20
-7.7872
 11
1.79732
 21
-8.0462
  0
LINE
  8
0
 10
1.79732
 20
-8.0462
 11
2.13782
 21
-8.4088
  0
LINE
  8
0
 10
2.13782
 20
-8.4088
 11
2.43678
 21
-8.875
  0
LINE
  8
0
 10
2.43678
 20
-8.875
 11
2.6942
 21
-9.44481
  0
LINE
  8
0
 10
2.6942
 20
-9.44481
 11
2.91008
 21
-10.1182
  0
LINE
  8
0
 10
2.91008
 20
-10.1182
 11
6.44046
 21
-9.42262
  0
LINE
  8
0
 10
6.44046
 20
-9.42262
 11
6.22589
 21
-8.75209
  0
LINE
  8
0
 10
6.22589
 20
-8.75209
 11
5.97977
 21
-8.13205
  0
LINE
  8
0
 10
5.97977
 20
-8.13205
 11
5.70209
 21
-7.5625
  0
LINE
  8
0
 10
5.70209
 20
-7.5625
 11
5.39284
 21
-7.04346
  0
LINE
  8
0
 10
5.39284
 20
-7.04346
 11
5.05205
 21
-6.57489
  0
LINE
  8
0
 10
5.05205
 20
-6.57489
 11
4.6797
 21
-6.15683
  0
LINE
  8
0
 10
4.6797
 20
-6.15683
 11
4.27579
 21
-5.78925
  0
LINE
  8
0
 10
4.27579
 20
-5.78925
 11
3.83881
 21
-5.47133
  0
LINE
  8
0
 10
3.83881
 20
-5.47133
 11
3.3671
 21
-5.20232
  0
LINE
  8
0
 10
3.3671
 20
-5.20232
 11
2.86067
 21
-4.98222
  0
LINE
  8
0
 10
2.86067
 20
-4.98222
 11
2.31952
 21
-4.81104
  0
LINE
  8
0
 10
2.31952
 20
-4.81104
 11
1.74365
 21
-4.68877
  0
LINE
  8
0
 10
1.74365
 20
-4.68877
 11
1.13307
 21
-4.61539
  0
LINE
  8
0
 10
1.13307
 20
-4.61539
 11
0.487762
 21
-4.59094
  0
LINE
  8
0
 10
0.487762
 20
-4.59094
 11
-1.41962
 21
-4.77211
  0
LINE
  8
0
 10
-1.41962
 20
-4.77211
 11
-3.03357
 21
-5.31561
  0
LINE
  8
0
 10
-3.03357
 20
-5.31561
 11
-4.35406
 21
-6.22147
  0
LINE
  8
0
 10
-4.35406
 20
-6.22147
 11
-5.38112
 21
-7.48965
  0
LINE
  8
0
 10
-5.38112
 20
-7.48965
 11
-6.11475
 21
-9.12019
  0
LINE
  8
0
 10
-6.11475
 20
-9.12019
 11
-6.5549
 21
-11.1131
  0
LINE
  8
0
 10
-6.5549
 20
-11.1131
 11
-6.70163
 21
-13.4683
  0
LINE
  8
0
 10
-6.70163
 20
-13.4683
 11
-6.66298
 21
-14.6582
  0
LINE
  8
0
 10
-6.66298
 20
-14.6582
 11
-6.54703
 21
-15.769
  0
LINE
  8
0
 10
-6.54703
 20
-15.769
 11
-6.35376
 21
-16.8007
  0
LINE
  8
0
 10
-6.35376
 20
-16.8007
 11
-6.08321
 21
-17.7532
  0
LINE
  8
0
 10
-6.08321
 20
-17.7532
 11
-5.73535
 21
-18.6266
  0
LINE
  8
0
 10
-5.73535
 20
-18.6266
 11
-5.31018
 21
-19.4209
  0
LINE
  8
0
 10
-5.31018
 20
-19.4209
 11
-4.80771
 21
-20.136
  0
LINE
  8
0
 10
-4.80771
 20
-20.136
 11
-4.23656
 21
-20.7632
  0
LINE
  8
0
 10
-4.23656
 20
-20.7632
 11
-3.60547
 21
-21.2939
  0
LINE
  8
0
 10
-3.60547
 20
-21.2939
 11
-2.91443
 21
-21.7282
  0
LINE
  8
0
 10
-2.91443
 20
-21.7282
 11
-2.16344
 21
-22.0659
  0
LINE
  8
0
 10
-2.16344
 20
-22.0659
 11
-1.35251
 21
-22.3071
  0
LINE
  8
0
 10
-1.35251
 20
-22.3071
 11
-0.481613
 21
-22.4519
  0
LINE
  8
0
 10
-0.481613
 20
-22.4519
 11
0.449188
 21
-22.5001
  0
LINE
  8
0
 10
0.449188
 20
-22.5001
 11
1.36766
 21
-22.4462
  0
ENDSEC
  0
SECTION
  2
OBJECTS
  0
DICTIONARY
  0
ENDSEC
  0
EOF
