<?xml version="1.0" standalone="no"?>
<!DOCTYPE svg PUBLIC "-//W3C//DTD SVG 1.1//EN" "http://www.w3.org/Graphics/SVG/1.1/DTD/svg11.dtd">
<svg width="14mm" height="19mm" viewBox="-7 4 14 19" xmlns="http://www.w3.org/2000/svg" version="1.1">
<title>OpenSCAD Model</title>
<path d="
M 1.36766,22.4462 L 2.28246,22.2845 L 3.19357,22.015 L 4.10101,21.6377 L 5.00478,21.1526 L 5.90486,20.5597
 L 6.80127,19.8589 L 6.80127,12.6693 L -0.207809,12.6693 L -0.207809,15.4781 L 3.32237,15.4781 L 3.32237,18.506
 L 3.16396,18.6275 L 2.99789,18.7416 L 2.82422,18.8483 L 2.6429,18.9477 L 2.45396,19.0398 L 2.25739,19.1244
 L 2.05318,19.2017 L 1.84613,19.2701 L 1.64091,19.3279 L 1.43755,19.3752 L 1.23601,19.412 L 1.0363,19.4383
 L 0.83844,19.4541 L 0.642426,19.4594 L 0.156509,19.4276 L -0.292572,19.3321 L -0.70488,19.173 L -1.08037,18.9503
 L -1.41907,18.664 L -1.72095,18.314 L -1.98602,17.9004 L -2.21503,17.4282 L -2.4088,16.9023 L -2.56734,16.3228
 L -2.69064,15.6896 L -2.77873,15.0028 L -2.83157,14.2624 L -2.8492,13.4683 L -2.83249,12.6161 L -2.78241,11.8338
 L -2.69891,11.1215 L -2.58205,10.4791 L -2.43178,9.90663 L -2.24811,9.40413 L -2.03105,8.97156 L -1.77849,8.60237
 L -1.48833,8.28998 L -1.16057,8.03439 L -0.795197,7.8356 L -0.392227,7.6936 L 0.0483398,7.6084 L 0.52652,7.58
 L 0.991669,7.63181 L 1.41525,7.7872 L 1.79732,8.0462 L 2.13782,8.4088 L 2.43678,8.875 L 2.6942,9.44481
 L 2.91008,10.1182 L 6.44046,9.42262 L 6.22589,8.75209 L 5.97977,8.13205 L 5.70209,7.5625 L 5.39284,7.04346
 L 5.05205,6.57489 L 4.6797,6.15683 L 4.27579,5.78925 L 3.83881,5.47133 L 3.3671,5.20232 L 2.86067,4.98222
 L 2.31952,4.81104 L 1.74365,4.68877 L 1.13307,4.61539 L 0.487762,4.59094 L -1.41962,4.77211 L -3.03357,5.31561
 L -4.35406,6.22147 L -5.38112,7.48965 L -6.11475,9.12019 L -6.5549,11.1131 L -6.70163,13.4683 L -6.66298,14.6582
 L -6.54703,15.769 L -6.35376,16.8007 L -6.08321,17.7532 L -5.73535,18.6266 L -5.31018,19.4209 L -4.80771,20.136
 L -4.23656,20.7632 L -3.60547,21.2939 L -2.91443,21.7282 L -2.16344,22.0659 L -1.35251,22.3071 L -0.481613,22.4519
 L 0.449188,22.5001 z
" stroke="black" fill="lightgray" stroke-width="0.5"/>
</svg>
