  0
SECTION
  2
BLOCKS
  0
ENDSEC
  0
SECTION
  2
ENTITIES
  0
LINE
  8
0
 10
4.43057
 20
-86.0124
 11
8.59097
 21
-85.4661
  0
LINE
  8
0
 10
8.59097
 20
-85.4661
 11
12.4082
 21
-84.5556
  0
LINE
  8
0
 10
12.4082
 20
-84.5556
 11
15.8824
 21
-83.281
  0
LINE
  8
0
 10
15.8824
 20
-83.281
 11
19.0134
 21
-81.6422
  0
LINE
  8
0
 10
19.0134
 20
-81.6422
 11
21.8013
 21
-79.6392
  0
LINE
  8
0
 10
21.8013
 20
-79.6392
 11
24.2461
 21
-77.272
  0
LINE
  8
0
 10
24.2461
 20
-77.272
 11
26.3569
 21
-74.5289
  0
LINE
  8
0
 10
26.3569
 20
-74.5289
 11
28.143
 21
-71.3979
  0
LINE
  8
0
 10
28.143
 20
-71.3979
 11
29.6044
 21
-67.879
  0
LINE
  8
0
 10
29.6044
 20
-67.879
 11
30.741
 21
-63.9724
  0
LINE
  8
0
 10
30.741
 20
-63.9724
 11
31.5529
 21
-59.6778
  0
LINE
  8
0
 10
31.5529
 20
-59.6778
 11
32.04
 21
-54.9955
  0
LINE
  8
0
 10
32.04
 20
-54.9955
 11
32.2023
 21
-49.9253
  0
LINE
  8
0
 10
32.2023
 20
-49.9253
 11
32.2023
 21
1.99879
  0
LINE
  8
0
 10
32.2023
 20
1.99879
 11
13.1976
 21
1.99879
  0
LINE
  8
0
 10
13.1976
 20
1.99879
 11
13.1976
 21
-50.0536
  0
LINE
  8
0
 10
13.1976
 20
-50.0536
 11
13.1358
 21
-53.1629
  0
LINE
  8
0
 10
13.1358
 20
-53.1629
 11
12.9505
 21
-56.012
  0
LINE
  8
0
 10
12.9505
 20
-56.012
 11
12.6415
 21
-58.6007
  0
LINE
  8
0
 10
12.6415
 20
-58.6007
 11
12.209
 21
-60.9292
  0
LINE
  8
0
 10
12.209
 20
-60.9292
 11
11.6529
 21
-62.9973
  0
LINE
  8
0
 10
11.6529
 20
-62.9973
 11
10.9732
 21
-64.8052
  0
LINE
  8
0
 10
10.9732
 20
-64.8052
 11
10.17
 21
-66.3527
  0
LINE
  8
0
 10
10.17
 20
-66.3527
 11
9.22997
 21
-67.6689
  0
LINE
  8
0
 10
9.22997
 20
-67.6689
 11
8.14006
 21
-68.7826
  0
LINE
  8
0
 10
8.14006
 20
-68.7826
 11
6.90025
 21
-69.6938
  0
LINE
  8
0
 10
6.90025
 20
-69.6938
 11
5.51053
 21
-70.4025
  0
LINE
  8
0
 10
5.51053
 20
-70.4025
 11
3.97092
 21
-70.9087
  0
LINE
  8
0
 10
3.97092
 20
-70.9087
 11
2.28139
 21
-71.2124
  0
LINE
  8
0
 10
2.28139
 20
-71.2124
 11
0.441956
 21
-71.3136
  0
LINE
  8
0
 10
0.441956
 20
-71.3136
 11
-1.35463
 21
-71.2183
  0
LINE
  8
0
 10
-1.35463
 20
-71.2183
 11
-2.9895
 21
-70.9324
  0
LINE
  8
0
 10
-2.9895
 20
-70.9324
 11
-4.46265
 21
-70.4559
  0
LINE
  8
0
 10
-4.46265
 20
-70.4559
 11
-5.77405
 21
-69.7887
  0
LINE
  8
0
 10
-5.77405
 20
-69.7887
 11
-6.92374
 21
-68.9309
  0
LINE
  8
0
 10
-6.92374
 20
-68.9309
 11
-7.91167
 21
-67.8825
  0
LINE
  8
0
 10
-7.91167
 20
-67.8825
 11
-8.73788
 21
-66.6434
  0
LINE
  8
0
 10
-8.73788
 20
-66.6434
 11
-9.42998
 21
-65.1741
  0
LINE
  8
0
 10
-9.42998
 20
-65.1741
 11
-10.0156
 21
-63.4352
  0
LINE
  8
0
 10
-10.0156
 20
-63.4352
 11
-10.4948
 21
-61.4269
  0
LINE
  8
0
 10
-10.4948
 20
-61.4269
 11
-10.8674
 21
-59.1491
  0
LINE
  8
0
 10
-10.8674
 20
-59.1491
 11
-11.1336
 21
-56.6017
  0
LINE
  8
0
 10
-11.1336
 20
-56.6017
 11
-11.2933
 21
-53.7849
  0
LINE
  8
0
 10
-11.2933
 20
-53.7849
 11
-11.3466
 21
-50.6986
  0
LINE
  8
0
 10
-11.3466
 20
-50.6986
 11
-11.3466
 21
1.99879
  0
LINE
  8
0
 10
-11.3466
 20
1.99879
 11
-30.3513
 21
1.99879
  0
LINE
  8
0
 10
-30.3513
 20
1.99879
 11
-30.3513
 21
-50.8915
  0
LINE
  8
0
 10
-30.3513
 20
-50.8915
 11
-30.2041
 21
-55.8532
  0
LINE
  8
0
 10
-30.2041
 20
-55.8532
 11
-29.7623
 21
-60.431
  0
LINE
  8
0
 10
-29.7623
 20
-60.431
 11
-29.0261
 21
-64.6249
  0
LINE
  8
0
 10
-29.0261
 20
-64.6249
 11
-27.9953
 21
-68.4349
  0
LINE
  8
0
 10
-27.9953
 20
-68.4349
 11
-26.6701
 21
-71.8611
  0
LINE
  8
0
 10
-26.6701
 20
-71.8611
 11
-25.0503
 21
-74.9034
  0
LINE
  8
0
 10
-25.0503
 20
-74.9034
 11
-23.1361
 21
-77.5618
  0
LINE
  8
0
 10
-23.1361
 20
-77.5618
 11
-20.8984
 21
-79.8521
  0
LINE
  8
0
 10
-20.8984
 20
-79.8521
 11
-18.3084
 21
-81.79
  0
LINE
  8
0
 10
-18.3084
 20
-81.79
 11
-15.366
 21
-83.3756
  0
LINE
  8
0
 10
-15.366
 20
-83.3756
 11
-12.0713
 21
-84.6089
  0
LINE
  8
0
 10
-12.0713
 20
-84.6089
 11
-8.42416
 21
-85.4897
  0
LINE
  8
0
 10
-8.42416
 20
-85.4897
 11
-4.42473
 21
-86.0183
  0
LINE
  8
0
 10
-4.42473
 20
-86.0183
 11
-0.072937
 21
-86.1944
  0
LINE
  8
0
 10
-0.072937
 20
-86.1944
 11
4.43057
 21
-86.0124
  0
ENDSEC
  0
SECTION
  2
OBJECTS
  0
DICTIONARY
  0
ENDSEC
  0
EOF
