<?xml version="1.0" standalone="no"?>
<!DOCTYPE svg PUBLIC "-//W3C//DTD SVG 1.1//EN" "http://www.w3.org/Graphics/SVG/1.1/DTD/svg11.dtd">
<svg width="66mm" height="87mm" viewBox="-30 -2 66 87" xmlns="http://www.w3.org/2000/svg" version="1.1">
<title>OpenSCAD Model</title>
<path d="
M 2.23026,84.6729 L 6.95923,83.9728 L 11.3438,82.8061 L 15.3838,81.1726 L 19.0795,79.0725 L 22.4306,76.5056
 L 25.4374,73.472 L 28.0697,70.0043 L 30.2971,66.1356 L 32.1194,61.8659 L 33.5368,57.1952 L 34.5493,52.1234
 L 35.1567,46.6506 L 35.3592,40.7768 L 35.1456,34.835 L 34.5046,29.3414 L 33.4363,24.2962 L 31.9408,19.6992
 L 30.0179,15.5507 L 27.6677,11.8504 L 24.8902,8.59845 L 21.6817,5.78693 L 18.038,3.40796 L 13.9591,1.46152
 L 9.44499,-0.0523529 L 4.49564,-1.13371 L -0.888901,-1.78252 L -6.70868,-1.99879 L -29.9647,-1.99879 L -29.9647,84.9062
 L -2.84312,84.9062 z
M -10.9609,70.2183 L -10.9609,12.6891 L -7.03073,12.6891 L -3.67102,12.8265 L -0.58609,13.2387 L 2.22408,13.9258
 L 4.75949,14.8876 L 7.02014,16.1242 L 9.00603,17.6356 L 10.7171,19.4218 L 12.1785,21.5062 L 13.415,23.9127
 L 14.4267,26.6413 L 15.2136,29.692 L 15.7756,33.0649 L 16.1128,36.7598 L 16.2253,40.7768 L 15.8045,48.5878
 L 14.5424,55.1971 L 12.4388,60.6048 L 9.49382,64.8107 L 5.7074,67.8149 L 1.07954,69.6174 L -4.38972,70.2183
 z
" stroke="black" fill="lightgray" stroke-width="0.5"/>
</svg>
