  0
SECTION
  2
BLOCKS
  0
ENDSEC
  0
SECTION
  2
ENTITIES
  0
LINE
  8
0
 10
6.83835
 20
-87.2312
 11
11.4123
 21
-86.4227
  0
LINE
  8
0
 10
11.4123
 20
-86.4227
 11
15.9679
 21
-85.0751
  0
LINE
  8
0
 10
15.9679
 20
-85.0751
 11
20.5051
 21
-83.1886
  0
LINE
  8
0
 10
20.5051
 20
-83.1886
 11
25.0239
 21
-80.763
  0
LINE
  8
0
 10
25.0239
 20
-80.763
 11
29.5243
 21
-77.7984
  0
LINE
  8
0
 10
29.5243
 20
-77.7984
 11
34.0064
 21
-74.2947
  0
LINE
  8
0
 10
34.0064
 20
-74.2947
 11
34.0064
 21
-38.3467
  0
LINE
  8
0
 10
34.0064
 20
-38.3467
 11
-1.03908
 21
-38.3467
  0
LINE
  8
0
 10
-1.03908
 20
-38.3467
 11
-1.03908
 21
-52.3906
  0
LINE
  8
0
 10
-1.03908
 20
-52.3906
 11
16.6119
 21
-52.3906
  0
LINE
  8
0
 10
16.6119
 20
-52.3906
 11
16.6119
 21
-67.5298
  0
LINE
  8
0
 10
16.6119
 20
-67.5298
 11
15.8198
 21
-68.1373
  0
LINE
  8
0
 10
15.8198
 20
-68.1373
 11
14.9895
 21
-68.7079
  0
LINE
  8
0
 10
14.9895
 20
-68.7079
 11
14.1211
 21
-69.2418
  0
LINE
  8
0
 10
14.1211
 20
-69.2418
 11
13.2146
 21
-69.7388
  0
LINE
  8
0
 10
13.2146
 20
-69.7388
 11
12.2698
 21
-70.1989
  0
LINE
  8
0
 10
12.2698
 20
-70.1989
 11
11.2869
 21
-70.6222
  0
LINE
  8
0
 10
11.2869
 20
-70.6222
 11
10.2659
 21
-71.0087
  0
LINE
  8
0
 10
10.2659
 20
-71.0087
 11
9.23065
 21
-71.3505
  0
LINE
  8
0
 10
9.23065
 20
-71.3505
 11
8.20461
 21
-71.6396
  0
LINE
  8
0
 10
8.20461
 20
-71.6396
 11
7.18773
 21
-71.8763
  0
LINE
  8
0
 10
7.18773
 20
-71.8763
 11
6.18005
 21
-72.0603
  0
LINE
  8
0
 10
6.18005
 20
-72.0603
 11
5.18156
 21
-72.1917
  0
LINE
  8
0
 10
5.18156
 20
-72.1917
 11
4.19226
 21
-72.2706
  0
LINE
  8
0
 10
4.19226
 20
-72.2706
 11
3.21216
 21
-72.2969
  0
LINE
  8
0
 10
3.21216
 20
-72.2969
 11
0.782593
 21
-72.1378
  0
LINE
  8
0
 10
0.782593
 20
-72.1378
 11
-1.46292
 21
-71.6606
  0
LINE
  8
0
 10
-1.46292
 20
-71.6606
 11
-3.52441
 21
-70.8652
  0
LINE
  8
0
 10
-3.52441
 20
-70.8652
 11
-5.40189
 21
-69.7517
  0
LINE
  8
0
 10
-5.40189
 20
-69.7517
 11
-7.09534
 21
-68.32
  0
LINE
  8
0
 10
-7.09534
 20
-68.32
 11
-8.60475
 21
-66.5701
  0
LINE
  8
0
 10
-8.60475
 20
-66.5701
 11
-9.93013
 21
-64.5021
  0
LINE
  8
0
 10
-9.93013
 20
-64.5021
 11
-11.0751
 21
-62.141
  0
LINE
  8
0
 10
-11.0751
 20
-62.141
 11
-12.044
 21
-59.5116
  0
LINE
  8
0
 10
-12.044
 20
-59.5116
 11
-12.8367
 21
-56.614
  0
LINE
  8
0
 10
-12.8367
 20
-56.614
 11
-13.4533
 21
-53.4482
  0
LINE
  8
0
 10
-13.4533
 20
-53.4482
 11
-13.8937
 21
-50.0142
  0
LINE
  8
0
 10
-13.8937
 20
-50.0142
 11
-14.1579
 21
-46.3119
  0
LINE
  8
0
 10
-14.1579
 20
-46.3119
 11
-14.246
 21
-42.3415
  0
LINE
  8
0
 10
-14.246
 20
-42.3415
 11
-14.1625
 21
-38.0804
  0
LINE
  8
0
 10
-14.1625
 20
-38.0804
 11
-13.912
 21
-34.169
  0
LINE
  8
0
 10
-13.912
 20
-34.169
 11
-13.4946
 21
-30.6073
  0
LINE
  8
0
 10
-13.4946
 20
-30.6073
 11
-12.9102
 21
-27.3954
  0
LINE
  8
0
 10
-12.9102
 20
-27.3954
 11
-12.1589
 21
-24.5332
  0
LINE
  8
0
 10
-12.1589
 20
-24.5332
 11
-11.2406
 21
-22.0206
  0
LINE
  8
0
 10
-11.2406
 20
-22.0206
 11
-10.1553
 21
-19.8578
  0
LINE
  8
0
 10
-10.1553
 20
-19.8578
 11
-8.8925
 21
-18.0119
  0
LINE
  8
0
 10
-8.8925
 20
-18.0119
 11
-7.4417
 21
-16.4499
  0
LINE
  8
0
 10
-7.4417
 20
-16.4499
 11
-5.80287
 21
-15.172
  0
LINE
  8
0
 10
-5.80287
 20
-15.172
 11
-3.97601
 21
-14.178
  0
LINE
  8
0
 10
-3.97601
 20
-14.178
 11
-1.96114
 21
-13.468
  0
LINE
  8
0
 10
-1.96114
 20
-13.468
 11
0.24173
 21
-13.042
  0
LINE
  8
0
 10
0.24173
 20
-13.042
 11
2.63266
 21
-12.9
  0
LINE
  8
0
 10
2.63266
 20
-12.9
 11
4.95834
 21
-13.159
  0
LINE
  8
0
 10
4.95834
 20
-13.159
 11
7.07632
 21
-13.9361
  0
LINE
  8
0
 10
7.07632
 20
-13.9361
 11
8.98659
 21
-15.231
  0
LINE
  8
0
 10
8.98659
 20
-15.231
 11
10.6891
 21
-17.0441
  0
LINE
  8
0
 10
10.6891
 20
-17.0441
 11
12.1839
 21
-19.3751
  0
LINE
  8
0
 10
12.1839
 20
-19.3751
 11
13.471
 21
-22.2241
  0
LINE
  8
0
 10
13.471
 20
-22.2241
 11
14.5504
 21
-25.5911
  0
LINE
  8
0
 10
14.5504
 20
-25.5911
 11
32.2023
 21
-22.1131
  0
LINE
  8
0
 10
32.2023
 20
-22.1131
 11
31.1295
 21
-18.7605
  0
LINE
  8
0
 10
31.1295
 20
-18.7605
 11
29.8988
 21
-15.6603
  0
LINE
  8
0
 10
29.8988
 20
-15.6603
 11
28.5104
 21
-12.8125
  0
LINE
  8
0
 10
28.5104
 20
-12.8125
 11
26.9642
 21
-10.2173
  0
LINE
  8
0
 10
26.9642
 20
-10.2173
 11
25.2603
 21
-7.87448
  0
LINE
  8
0
 10
25.2603
 20
-7.87448
 11
23.3985
 21
-5.78415
  0
LINE
  8
0
 10
23.3985
 20
-5.78415
 11
21.379
 21
-3.94629
  0
LINE
  8
0
 10
21.379
 20
-3.94629
 11
19.1941
 21
-2.35667
  0
LINE
  8
0
 10
19.1941
 20
-2.35667
 11
16.8355
 21
-1.01161
  0
LINE
  8
0
 10
16.8355
 20
-1.01161
 11
14.3034
 21
0.0888824
  0
LINE
  8
0
 10
14.3034
 20
0.0888824
 11
11.5977
 21
0.944839
  0
LINE
  8
0
 10
11.5977
 20
0.944839
 11
8.71831
 21
1.55623
  0
LINE
  8
0
 10
8.71831
 20
1.55623
 11
5.66539
 21
1.92307
  0
LINE
  8
0
 10
5.66539
 20
1.92307
 11
2.43886
 21
2.04535
  0
LINE
  8
0
 10
2.43886
 20
2.04535
 11
-7.0981
 21
1.1395
  0
LINE
  8
0
 10
-7.0981
 20
1.1395
 11
-15.1678
 21
-1.57806
  0
LINE
  8
0
 10
-15.1678
 20
-1.57806
 11
-21.7704
 21
-6.10733
  0
LINE
  8
0
 10
-21.7704
 20
-6.10733
 11
-26.9057
 21
-12.4483
  0
LINE
  8
0
 10
-26.9057
 20
-12.4483
 11
-30.5737
 21
-20.601
  0
LINE
  8
0
 10
-30.5737
 20
-20.601
 11
-32.7746
 21
-30.5654
  0
LINE
  8
0
 10
-32.7746
 20
-30.5654
 11
-33.5082
 21
-42.3415
  0
LINE
  8
0
 10
-33.5082
 20
-42.3415
 11
-33.3149
 21
-48.2912
  0
LINE
  8
0
 10
-33.3149
 20
-48.2912
 11
-32.7352
 21
-53.8453
  0
LINE
  8
0
 10
-32.7352
 20
-53.8453
 11
-31.7689
 21
-59.0036
  0
LINE
  8
0
 10
-31.7689
 20
-59.0036
 11
-30.4161
 21
-63.7662
  0
LINE
  8
0
 10
-30.4161
 20
-63.7662
 11
-28.6768
 21
-68.1331
  0
LINE
  8
0
 10
-28.6768
 20
-68.1331
 11
-26.5509
 21
-72.1043
  0
LINE
  8
0
 10
-26.5509
 20
-72.1043
 11
-24.0386
 21
-75.6798
  0
LINE
  8
0
 10
-24.0386
 20
-75.6798
 11
-21.1828
 21
-78.816
  0
LINE
  8
0
 10
-21.1828
 20
-78.816
 11
-18.0274
 21
-81.4697
  0
LINE
  8
0
 10
-18.0274
 20
-81.4697
 11
-14.5722
 21
-83.6408
  0
LINE
  8
0
 10
-14.5722
 20
-83.6408
 11
-10.8172
 21
-85.3295
  0
LINE
  8
0
 10
-10.8172
 20
-85.3295
 11
-6.76254
 21
-86.5357
  0
LINE
  8
0
 10
-6.76254
 20
-86.5357
 11
-2.40813
 21
-87.2594
  0
LINE
  8
0
 10
-2.40813
 20
-87.2594
 11
2.246
 21
-87.5007
  0
LINE
  8
0
 10
2.246
 20
-87.5007
 11
6.83835
 21
-87.2312
  0
ENDSEC
  0
SECTION
  2
OBJECTS
  0
DICTIONARY
  0
ENDSEC
  0
EOF
