<?xml version="1.0" standalone="no"?>
<!DOCTYPE svg PUBLIC "-//W3C//DTD SVG 1.1//EN" "http://www.w3.org/Graphics/SVG/1.1/DTD/svg11.dtd">
<svg width="41mm" height="53mm" viewBox="-18 3 41 53" xmlns="http://www.w3.org/2000/svg" version="1.1">
<title>OpenSCAD Model</title>
<path d="
M 6.93797,55.8633 L 9.13174,55.6219 L 11.1757,55.2196 L 13.0697,54.6563 L 14.8138,53.9322 L 16.4081,53.0471
 L 17.8525,52.0011 L 19.1242,50.8123 L 20.2002,49.4988 L 21.0806,48.0608 L 21.7653,46.4981 L 22.2544,44.8107
 L 22.5478,42.9988 L 22.6456,41.0622 L 22.575,39.5808 L 22.3632,38.1845 L 22.0102,36.8735 L 21.5159,35.6477
 L 20.8804,34.5071 L 20.1037,33.4516 L 19.1857,32.4814 L 18.1331,31.6058 L 16.9518,30.8344 L 15.642,30.167
 L 14.2035,29.6038 L 12.6365,29.1446 L 10.9409,28.7896 L 9.1167,28.5387 L 10.5738,28.1793 L 11.9188,27.7419
 L 13.1518,27.2263 L 14.2728,26.6327 L 15.2817,25.961 L 16.1785,25.2113 L 16.9633,24.3834 L 17.6402,23.4877
 L 18.213,22.5344 L 18.6815,21.5235 L 19.046,20.455 L 19.3064,19.3289 L 19.4626,18.1452 L 19.5146,16.9039
 L 19.4259,15.1531 L 19.1597,13.523 L 18.7159,12.0136 L 18.0947,10.6249 L 17.296,9.35695 L 16.3198,8.20967
 L 15.1661,7.18309 L 13.8405,6.28572 L 12.3484,5.52641 L 10.6898,4.90518 L 8.86484,4.42198 L 6.87343,4.07684
 L 4.71556,3.86975 L 2.39127,3.80072 L -17.9019,3.80072 L -17.9019,55.9437 L 4.59431,55.9437 z
M -6.49901,24.596 L -6.49901,12.2658 L 1.57959,12.2658 L 3.29221,12.392 L 4.74135,12.7706 L 5.927,13.4017
 L 6.84918,14.2852 L 7.50787,15.4211 L 7.90311,16.8095 L 8.03484,18.4503 L 7.90466,20.0808 L 7.51416,21.4604
 L 6.86331,22.5892 L 5.95213,23.4672 L 4.78061,24.0943 L 3.34874,24.4706 L 1.65654,24.596 z
M -6.49901,47.4787 L -6.49901,33.0223 L 3.16418,33.0223 L 4.24173,33.0598 L 5.24355,33.1722 L 6.16963,33.3596
 L 7.01999,33.6218 L 7.79463,33.959 L 8.49353,34.3712 L 9.1167,34.8583 L 9.6602,35.4148 L 10.1201,36.0352
 L 10.4964,36.7196 L 10.789,37.4678 L 10.998,38.28 L 11.1235,39.1561 L 11.1653,40.096 L 11.0075,42.0547
 L 10.5342,43.712 L 9.74542,45.068 L 8.64108,46.1227 L 7.22122,46.876 L 5.48584,47.328 L 3.43494,47.4787
 z
" stroke="black" fill="lightgray" stroke-width="0.5"/>
</svg>
