  0
SECTION
  2
BLOCKS
  0
ENDSEC
  0
SECTION
  2
ENTITIES
  0
LINE
  8
0
 10
4.62816
 20
-27.4275
 11
5.0631
 21
-27.4054
  0
LINE
  8
0
 10
5.0631
 20
-27.4054
 11
5.50328
 21
-27.3686
  0
LINE
  8
0
 10
5.50328
 20
-27.3686
 11
5.94873
 21
-27.3171
  0
LINE
  8
0
 10
5.94873
 20
-27.3171
 11
6.39941
 21
-27.2508
  0
LINE
  8
0
 10
6.39941
 20
-27.2508
 11
6.85536
 21
-27.1699
  0
LINE
  8
0
 10
6.85536
 20
-27.1699
 11
7.31656
 21
-27.0742
  0
LINE
  8
0
 10
7.31656
 20
-27.0742
 11
7.31656
 21
-24.4716
  0
LINE
  8
0
 10
7.31656
 20
-24.4716
 11
7.03812
 21
-24.516
  0
LINE
  8
0
 10
7.03812
 20
-24.516
 11
6.77702
 21
-24.5536
  0
LINE
  8
0
 10
6.77702
 20
-24.5536
 11
6.53326
 21
-24.5843
  0
LINE
  8
0
 10
6.53326
 20
-24.5843
 11
6.30687
 21
-24.6082
  0
LINE
  8
0
 10
6.30687
 20
-24.6082
 11
6.09782
 21
-24.6253
  0
LINE
  8
0
 10
6.09782
 20
-24.6253
 11
5.90611
 21
-24.6355
  0
LINE
  8
0
 10
5.90611
 20
-24.6355
 11
5.73177
 21
-24.639
  0
LINE
  8
0
 10
5.73177
 20
-24.639
 11
5.35629
 21
-24.6273
  0
LINE
  8
0
 10
5.35629
 20
-24.6273
 11
5.0029
 21
-24.5921
  0
LINE
  8
0
 10
5.0029
 20
-24.5921
 11
4.67157
 21
-24.5336
  0
LINE
  8
0
 10
4.67157
 20
-24.5336
 11
4.36234
 21
-24.4517
  0
LINE
  8
0
 10
4.36234
 20
-24.4517
 11
4.07518
 21
-24.3464
  0
LINE
  8
0
 10
4.07518
 20
-24.3464
 11
3.8101
 21
-24.2177
  0
LINE
  8
0
 10
3.8101
 20
-24.2177
 11
3.56709
 21
-24.0655
  0
LINE
  8
0
 10
3.56709
 20
-24.0655
 11
3.34254
 21
-23.888
  0
LINE
  8
0
 10
3.34254
 20
-23.888
 11
3.13274
 21
-23.6828
  0
LINE
  8
0
 10
3.13274
 20
-23.6828
 11
2.93764
 21
-23.4499
  0
LINE
  8
0
 10
2.93764
 20
-23.4499
 11
2.75728
 21
-23.1895
  0
LINE
  8
0
 10
2.75728
 20
-23.1895
 11
2.59164
 21
-22.9014
  0
LINE
  8
0
 10
2.59164
 20
-22.9014
 11
2.44073
 21
-22.5858
  0
LINE
  8
0
 10
2.44073
 20
-22.5858
 11
2.30455
 21
-22.2425
  0
LINE
  8
0
 10
2.30455
 20
-22.2425
 11
2.9623
 21
-22.0235
  0
LINE
  8
0
 10
2.9623
 20
-22.0235
 11
3.5735
 21
-21.7419
  0
LINE
  8
0
 10
3.5735
 20
-21.7419
 11
4.13817
 21
-21.3977
  0
LINE
  8
0
 10
4.13817
 20
-21.3977
 11
4.6563
 21
-20.9909
  0
LINE
  8
0
 10
4.6563
 20
-20.9909
 11
5.12788
 21
-20.5216
  0
LINE
  8
0
 10
5.12788
 20
-20.5216
 11
5.55293
 21
-19.9897
  0
LINE
  8
0
 10
5.55293
 20
-19.9897
 11
5.93146
 21
-19.3952
  0
LINE
  8
0
 10
5.93146
 20
-19.3952
 11
6.26132
 21
-18.7383
  0
LINE
  8
0
 10
6.26132
 20
-18.7383
 11
6.54045
 21
-18.0193
  0
LINE
  8
0
 10
6.54045
 20
-18.0193
 11
6.76881
 21
-17.2384
  0
LINE
  8
0
 10
6.76881
 20
-17.2384
 11
6.94644
 21
-16.3953
  0
LINE
  8
0
 10
6.94644
 20
-16.3953
 11
7.07332
 21
-15.4902
  0
LINE
  8
0
 10
7.07332
 20
-15.4902
 11
7.14944
 21
-14.5231
  0
LINE
  8
0
 10
7.14944
 20
-14.5231
 11
7.17482
 21
-13.4939
  0
LINE
  8
0
 10
7.17482
 20
-13.4939
 11
7.138
 21
-12.2691
  0
LINE
  8
0
 10
7.138
 20
-12.2691
 11
7.02756
 21
-11.1348
  0
LINE
  8
0
 10
7.02756
 20
-11.1348
 11
6.84349
 21
-10.0909
  0
LINE
  8
0
 10
6.84349
 20
-10.0909
 11
6.5858
 21
-9.13753
  0
LINE
  8
0
 10
6.5858
 20
-9.13753
 11
6.25447
 21
-8.27457
  0
LINE
  8
0
 10
6.25447
 20
-8.27457
 11
5.84953
 21
-7.50206
  0
LINE
  8
0
 10
5.84953
 20
-7.50206
 11
5.37096
 21
-6.82001
  0
LINE
  8
0
 10
5.37096
 20
-6.82001
 11
4.82353
 21
-6.22861
  0
LINE
  8
0
 10
4.82353
 20
-6.22861
 11
4.21196
 21
-5.72821
  0
LINE
  8
0
 10
4.21196
 20
-5.72821
 11
3.53621
 21
-5.31879
  0
LINE
  8
0
 10
3.53621
 20
-5.31879
 11
2.7963
 21
-5.00035
  0
LINE
  8
0
 10
2.7963
 20
-5.00035
 11
1.99222
 21
-4.7729
  0
LINE
  8
0
 10
1.99222
 20
-4.7729
 11
1.12396
 21
-4.63643
  0
LINE
  8
0
 10
1.12396
 20
-4.63643
 11
0.191559
 21
-4.59094
  0
LINE
  8
0
 10
0.191559
 20
-4.59094
 11
-0.740982
 21
-4.63643
  0
LINE
  8
0
 10
-0.740982
 20
-4.63643
 11
-1.60963
 21
-4.7729
  0
LINE
  8
0
 10
-1.60963
 20
-4.7729
 11
-2.41438
 21
-5.00035
  0
LINE
  8
0
 10
-2.41438
 20
-5.00035
 11
-3.15526
 21
-5.31879
  0
LINE
  8
0
 10
-3.15526
 20
-5.31879
 11
-3.83223
 21
-5.72821
  0
LINE
  8
0
 10
-3.83223
 20
-5.72821
 11
-4.4453
 21
-6.22861
  0
LINE
  8
0
 10
-4.4453
 20
-6.22861
 11
-4.99448
 21
-6.82001
  0
LINE
  8
0
 10
-4.99448
 20
-6.82001
 11
-5.47472
 21
-7.50206
  0
LINE
  8
0
 10
-5.47472
 20
-7.50206
 11
-5.88107
 21
-8.27457
  0
LINE
  8
0
 10
-5.88107
 20
-8.27457
 11
-6.21355
 21
-9.13753
  0
LINE
  8
0
 10
-6.21355
 20
-9.13753
 11
-6.47214
 21
-10.0909
  0
LINE
  8
0
 10
-6.47214
 20
-10.0909
 11
-6.65685
 21
-11.1348
  0
LINE
  8
0
 10
-6.65685
 20
-11.1348
 11
-6.76767
 21
-12.2691
  0
LINE
  8
0
 10
-6.76767
 20
-12.2691
 11
-6.80461
 21
-13.4939
  0
LINE
  8
0
 10
-6.80461
 20
-13.4939
 11
-6.77701
 21
-14.5647
  0
LINE
  8
0
 10
-6.77701
 20
-14.5647
 11
-6.69418
 21
-15.5681
  0
LINE
  8
0
 10
-6.69418
 20
-15.5681
 11
-6.55614
 21
-16.5042
  0
LINE
  8
0
 10
-6.55614
 20
-16.5042
 11
-6.36288
 21
-17.373
  0
LINE
  8
0
 10
-6.36288
 20
-17.373
 11
-6.11441
 21
-18.1745
  0
LINE
  8
0
 10
-6.11441
 20
-18.1745
 11
-5.81071
 21
-18.9086
  0
LINE
  8
0
 10
-5.81071
 20
-18.9086
 11
-5.45181
 21
-19.5755
  0
LINE
  8
0
 10
-5.45181
 20
-19.5755
 11
-5.04031
 21
-20.1745
  0
LINE
  8
0
 10
-5.04031
 20
-20.1745
 11
-4.57884
 21
-20.7051
  0
LINE
  8
0
 10
-4.57884
 20
-20.7051
 11
-4.06741
 21
-21.1674
  0
LINE
  8
0
 10
-4.06741
 20
-21.1674
 11
-3.50603
 21
-21.5613
  0
LINE
  8
0
 10
-3.50603
 20
-21.5613
 11
-2.89467
 21
-21.8868
  0
LINE
  8
0
 10
-2.89467
 20
-21.8868
 11
-2.23334
 21
-22.144
  0
LINE
  8
0
 10
-2.23334
 20
-22.144
 11
-1.52203
 21
-22.3327
  0
LINE
  8
0
 10
-1.52203
 20
-22.3327
 11
-1.26833
 21
-23.0783
  0
LINE
  8
0
 10
-1.26833
 20
-23.0783
 11
-0.993042
 21
-23.7615
  0
LINE
  8
0
 10
-0.993042
 20
-23.7615
 11
-0.696198
 21
-24.3825
  0
LINE
  8
0
 10
-0.696198
 20
-24.3825
 11
-0.377792
 21
-24.9411
  0
LINE
  8
0
 10
-0.377792
 20
-24.9411
 11
-0.0378113
 21
-25.4373
  0
LINE
  8
0
 10
-0.0378113
 20
-25.4373
 11
0.323715
 21
-25.8713
  0
LINE
  8
0
 10
0.323715
 20
-25.8713
 11
0.706833
 21
-26.2429
  0
LINE
  8
0
 10
0.706833
 20
-26.2429
 11
1.11572
 21
-26.5592
  0
LINE
  8
0
 10
1.11572
 20
-26.5592
 11
1.55458
 21
-26.8267
  0
LINE
  8
0
 10
1.55458
 20
-26.8267
 11
2.02341
 21
-27.0456
  0
LINE
  8
0
 10
2.02341
 20
-27.0456
 11
2.52222
 21
-27.2159
  0
LINE
  8
0
 10
2.52222
 20
-27.2159
 11
3.05099
 21
-27.3375
  0
LINE
  8
0
 10
3.05099
 20
-27.3375
 11
3.60974
 21
-27.4105
  0
LINE
  8
0
 10
3.60974
 20
-27.4105
 11
4.19847
 21
-27.4348
  0
LINE
  8
0
 10
4.19847
 20
-27.4348
 11
4.62816
 21
-27.4275
  0
LINE
  8
0
 10
-0.238251
 20
-19.4799
 11
-0.63678
 21
-19.3864
  0
LINE
  8
0
 10
-0.63678
 20
-19.3864
 11
-1.00403
 21
-19.2306
  0
LINE
  8
0
 10
-1.00403
 20
-19.2306
 11
-1.33997
 21
-19.0125
  0
LINE
  8
0
 10
-1.33997
 20
-19.0125
 11
-1.64462
 21
-18.7321
  0
LINE
  8
0
 10
-1.64462
 20
-18.7321
 11
-1.91798
 21
-18.3893
  0
LINE
  8
0
 10
-1.91798
 20
-18.3893
 11
-2.16006
 21
-17.9842
  0
LINE
  8
0
 10
-2.16006
 20
-17.9842
 11
-2.37025
 21
-17.5187
  0
LINE
  8
0
 10
-2.37025
 20
-17.5187
 11
-2.54813
 21
-16.9945
  0
LINE
  8
0
 10
-2.54813
 20
-16.9945
 11
-2.69365
 21
-16.4116
  0
LINE
  8
0
 10
-2.69365
 20
-16.4116
 11
-2.80684
 21
-15.7702
  0
LINE
  8
0
 10
-2.80684
 20
-15.7702
 11
-2.88768
 21
-15.0701
  0
LINE
  8
0
 10
-2.88768
 20
-15.0701
 11
-2.93619
 21
-14.3113
  0
LINE
  8
0
 10
-2.93619
 20
-14.3113
 11
-2.95236
 21
-13.4939
  0
LINE
  8
0
 10
-2.95236
 20
-13.4939
 11
-2.8882
 21
-11.9249
  0
LINE
  8
0
 10
-2.8882
 20
-11.9249
 11
-2.69571
 21
-10.5973
  0
LINE
  8
0
 10
-2.69571
 20
-10.5973
 11
-2.37491
 21
-9.51108
  0
LINE
  8
0
 10
-2.37491
 20
-9.51108
 11
-1.92577
 21
-8.66623
  0
LINE
  8
0
 10
-1.92577
 20
-8.66623
 11
-1.34831
 21
-8.06277
  0
LINE
  8
0
 10
-1.34831
 20
-8.06277
 11
-0.642532
 21
-7.7007
  0
LINE
  8
0
 10
-0.642532
 20
-7.7007
 11
0.191559
 21
-7.58
  0
LINE
  8
0
 10
0.191559
 20
-7.58
 11
1.02219
 21
-7.7007
  0
LINE
  8
0
 10
1.02219
 20
-7.7007
 11
1.72502
 21
-8.06277
  0
LINE
  8
0
 10
1.72502
 20
-8.06277
 11
2.30006
 21
-8.66623
  0
LINE
  8
0
 10
2.30006
 20
-8.66623
 11
2.74733
 21
-9.51108
  0
LINE
  8
0
 10
2.74733
 20
-9.51108
 11
3.0668
 21
-10.5973
  0
LINE
  8
0
 10
3.0668
 20
-10.5973
 11
3.25848
 21
-11.9249
  0
LINE
  8
0
 10
3.25848
 20
-11.9249
 11
3.32237
 21
-13.4939
  0
LINE
  8
0
 10
3.32237
 20
-13.4939
 11
3.30634
 21
-14.3113
  0
LINE
  8
0
 10
3.30634
 20
-14.3113
 11
3.25821
 21
-15.0701
  0
LINE
  8
0
 10
3.25821
 20
-15.0701
 11
3.17801
 21
-15.7702
  0
LINE
  8
0
 10
3.17801
 20
-15.7702
 11
3.0657
 21
-16.4116
  0
LINE
  8
0
 10
3.0657
 20
-16.4116
 11
2.92134
 21
-16.9945
  0
LINE
  8
0
 10
2.92134
 20
-16.9945
 11
2.74489
 21
-17.5187
  0
LINE
  8
0
 10
2.74489
 20
-17.5187
 11
2.53635
 21
-17.9842
  0
LINE
  8
0
 10
2.53635
 20
-17.9842
 11
2.29604
 21
-18.3893
  0
LINE
  8
0
 10
2.29604
 20
-18.3893
 11
2.02419
 21
-18.7321
  0
LINE
  8
0
 10
2.02419
 20
-18.7321
 11
1.72076
 21
-19.0125
  0
LINE
  8
0
 10
1.72076
 20
-19.0125
 11
1.3858
 21
-19.2306
  0
LINE
  8
0
 10
1.3858
 20
-19.2306
 11
1.01927
 21
-19.3864
  0
LINE
  8
0
 10
1.01927
 20
-19.3864
 11
0.621185
 21
-19.4799
  0
LINE
  8
0
 10
0.621185
 20
-19.4799
 11
0.191559
 21
-19.511
  0
LINE
  8
0
 10
0.191559
 20
-19.511
 11
-0.238251
 21
-19.4799
  0
ENDSEC
  0
SECTION
  2
OBJECTS
  0
DICTIONARY
  0
ENDSEC
  0
EOF
