<?xml version="1.0" standalone="no"?>
<!DOCTYPE svg PUBLIC "-//W3C//DTD SVG 1.1//EN" "http://www.w3.org/Graphics/SVG/1.1/DTD/svg11.dtd">
<svg width="65mm" height="87mm" viewBox="-30 -2 65 87" xmlns="http://www.w3.org/2000/svg" version="1.1">
<title>OpenSCAD Model</title>
<path d="
M 34.908,71.4419 L 14.0992,71.4419 L 14.0992,-1.99879 L -3.03693,-1.99879 L -4.13857,-0.0897827 L -5.38223,1.69829
 L -6.76793,3.36542 L -8.29567,4.91161 L -9.96544,6.33687 L -11.7772,7.64117 L -13.7311,8.82454 L -15.7938,9.86699
 L -17.9328,10.7491 L -20.1481,11.4707 L -22.4396,12.0321 L -24.8074,12.433 L -27.2515,12.6736 L -29.7718,12.7537
 L -29.7718,26.5401 L -27.431,26.4665 L -25.1203,26.2457 L -22.8399,25.8776 L -20.5898,25.3623 L -18.3699,24.6998
 L -16.1802,23.89 L -14.0208,22.933 L -11.9784,21.8679 L -10.1398,20.7345 L -8.50491,19.5327 L -7.07381,18.2626
 L -5.84647,16.924 L -4.82289,15.5172 L -4.00308,14.0419 L -4.00308,71.4419 L -29.0631,71.4419 L -29.0631,84.9062
 L 34.908,84.9062 z
" stroke="black" fill="lightgray" stroke-width="0.5"/>
</svg>
