  0
SECTION
  2
BLOCKS
  0
ENDSEC
  0
SECTION
  2
ENTITIES
  0
LINE
  8
0
 10
4.103
 20
-57.3387
 11
6.84738
 21
-56.8536
  0
LINE
  8
0
 10
6.84738
 20
-56.8536
 11
9.58072
 21
-56.0451
  0
LINE
  8
0
 10
9.58072
 20
-56.0451
 11
12.303
 21
-54.9131
  0
LINE
  8
0
 10
12.303
 20
-54.9131
 11
15.0143
 21
-53.4578
  0
LINE
  8
0
 10
15.0143
 20
-53.4578
 11
17.7146
 21
-51.679
  0
LINE
  8
0
 10
17.7146
 20
-51.679
 11
20.4038
 21
-49.5768
  0
LINE
  8
0
 10
20.4038
 20
-49.5768
 11
20.4038
 21
-28.008
  0
LINE
  8
0
 10
20.4038
 20
-28.008
 11
-0.623444
 21
-28.008
  0
LINE
  8
0
 10
-0.623444
 20
-28.008
 11
-0.623444
 21
-36.4344
  0
LINE
  8
0
 10
-0.623444
 20
-36.4344
 11
9.96713
 21
-36.4344
  0
LINE
  8
0
 10
9.96713
 20
-36.4344
 11
9.96713
 21
-45.5179
  0
LINE
  8
0
 10
9.96713
 20
-45.5179
 11
9.49188
 21
-45.8824
  0
LINE
  8
0
 10
9.49188
 20
-45.8824
 11
8.99371
 21
-46.2248
  0
LINE
  8
0
 10
8.99371
 20
-46.2248
 11
8.47267
 21
-46.5451
  0
LINE
  8
0
 10
8.47267
 20
-46.5451
 11
7.92873
 21
-46.8432
  0
LINE
  8
0
 10
7.92873
 20
-46.8432
 11
7.36189
 21
-47.1193
  0
LINE
  8
0
 10
7.36189
 20
-47.1193
 11
6.77216
 21
-47.3733
  0
LINE
  8
0
 10
6.77216
 20
-47.3733
 11
6.15955
 21
-47.6052
  0
LINE
  8
0
 10
6.15955
 20
-47.6052
 11
5.53839
 21
-47.8103
  0
LINE
  8
0
 10
5.53839
 20
-47.8103
 11
4.92276
 21
-47.9838
  0
LINE
  8
0
 10
4.92276
 20
-47.9838
 11
4.31264
 21
-48.1257
  0
LINE
  8
0
 10
4.31264
 20
-48.1257
 11
3.70802
 21
-48.2362
  0
LINE
  8
0
 10
3.70802
 20
-48.2362
 11
3.10893
 21
-48.315
  0
LINE
  8
0
 10
3.10893
 20
-48.315
 11
2.51535
 21
-48.3624
  0
LINE
  8
0
 10
2.51535
 20
-48.3624
 11
1.92729
 21
-48.3781
  0
LINE
  8
0
 10
1.92729
 20
-48.3781
 11
0.469559
 21
-48.2827
  0
LINE
  8
0
 10
0.469559
 20
-48.2827
 11
-0.877747
 21
-47.9964
  0
LINE
  8
0
 10
-0.877747
 20
-47.9964
 11
-2.11464
 21
-47.5191
  0
LINE
  8
0
 10
-2.11464
 20
-47.5191
 11
-3.24113
 21
-46.851
  0
LINE
  8
0
 10
-3.24113
 20
-46.851
 11
-4.2572
 21
-45.992
  0
LINE
  8
0
 10
-4.2572
 20
-45.992
 11
-5.16284
 21
-44.9421
  0
LINE
  8
0
 10
-5.16284
 20
-44.9421
 11
-5.95807
 21
-43.7013
  0
LINE
  8
0
 10
-5.95807
 20
-43.7013
 11
-6.6451
 21
-42.2846
  0
LINE
  8
0
 10
-6.6451
 20
-42.2846
 11
-7.22641
 21
-40.7069
  0
LINE
  8
0
 10
-7.22641
 20
-40.7069
 11
-7.70203
 21
-38.9684
  0
LINE
  8
0
 10
-7.70203
 20
-38.9684
 11
-8.07196
 21
-37.0689
  0
LINE
  8
0
 10
-8.07196
 20
-37.0689
 11
-8.3362
 21
-35.0085
  0
LINE
  8
0
 10
-8.3362
 20
-35.0085
 11
-8.49474
 21
-32.7872
  0
LINE
  8
0
 10
-8.49474
 20
-32.7872
 11
-8.54759
 21
-30.4049
  0
LINE
  8
0
 10
-8.54759
 20
-30.4049
 11
-8.4975
 21
-27.8482
  0
LINE
  8
0
 10
-8.4975
 20
-27.8482
 11
-8.34723
 21
-25.5014
  0
LINE
  8
0
 10
-8.34723
 20
-25.5014
 11
-8.09677
 21
-23.3644
  0
LINE
  8
0
 10
-8.09677
 20
-23.3644
 11
-7.74614
 21
-21.4372
  0
LINE
  8
0
 10
-7.74614
 20
-21.4372
 11
-7.29533
 21
-19.7199
  0
LINE
  8
0
 10
-7.29533
 20
-19.7199
 11
-6.74434
 21
-18.2124
  0
LINE
  8
0
 10
-6.74434
 20
-18.2124
 11
-6.09317
 21
-16.9147
  0
LINE
  8
0
 10
-6.09317
 20
-16.9147
 11
-5.33549
 21
-15.8071
  0
LINE
  8
0
 10
-5.33549
 20
-15.8071
 11
-4.46501
 21
-14.87
  0
LINE
  8
0
 10
-4.46501
 20
-14.87
 11
-3.48172
 21
-14.1032
  0
LINE
  8
0
 10
-3.48172
 20
-14.1032
 11
-2.3856
 21
-13.5068
  0
LINE
  8
0
 10
-2.3856
 20
-13.5068
 11
-1.17668
 21
-13.0808
  0
LINE
  8
0
 10
-1.17668
 20
-13.0808
 11
0.145035
 21
-12.8252
  0
LINE
  8
0
 10
0.145035
 20
-12.8252
 11
1.57959
 21
-12.74
  0
LINE
  8
0
 10
1.57959
 20
-12.74
 11
2.97501
 21
-12.8954
  0
LINE
  8
0
 10
2.97501
 20
-12.8954
 11
4.24579
 21
-13.3616
  0
LINE
  8
0
 10
4.24579
 20
-13.3616
 11
5.39195
 21
-14.1386
  0
LINE
  8
0
 10
5.39195
 20
-14.1386
 11
6.41347
 21
-15.2264
  0
LINE
  8
0
 10
6.41347
 20
-15.2264
 11
7.31036
 21
-16.625
  0
LINE
  8
0
 10
7.31036
 20
-16.625
 11
8.08261
 21
-18.3344
  0
LINE
  8
0
 10
8.08261
 20
-18.3344
 11
8.73024
 21
-20.3546
  0
LINE
  8
0
 10
8.73024
 20
-20.3546
 11
19.3214
 21
-18.2679
  0
LINE
  8
0
 10
19.3214
 20
-18.2679
 11
18.6777
 21
-16.2563
  0
LINE
  8
0
 10
18.6777
 20
-16.2563
 11
17.9393
 21
-14.3962
  0
LINE
  8
0
 10
17.9393
 20
-14.3962
 11
17.1063
 21
-12.6875
  0
LINE
  8
0
 10
17.1063
 20
-12.6875
 11
16.1785
 21
-11.1304
  0
LINE
  8
0
 10
16.1785
 20
-11.1304
 11
15.1562
 21
-9.72469
  0
LINE
  8
0
 10
15.1562
 20
-9.72469
 11
14.0391
 21
-8.47049
  0
LINE
  8
0
 10
14.0391
 20
-8.47049
 11
12.8274
 21
-7.36777
  0
LINE
  8
0
 10
12.8274
 20
-7.36777
 11
11.5164
 21
-6.414
  0
LINE
  8
0
 10
11.5164
 20
-6.414
 11
10.1013
 21
-5.60696
  0
LINE
  8
0
 10
10.1013
 20
-5.60696
 11
8.58203
 21
-4.94667
  0
LINE
  8
0
 10
8.58203
 20
-4.94667
 11
6.95859
 21
-4.43311
  0
LINE
  8
0
 10
6.95859
 20
-4.43311
 11
5.23099
 21
-4.06627
  0
LINE
  8
0
 10
5.23099
 20
-4.06627
 11
3.39923
 21
-3.84616
  0
LINE
  8
0
 10
3.39923
 20
-3.84616
 11
1.4633
 21
-3.7728
  0
LINE
  8
0
 10
1.4633
 20
-3.7728
 11
-4.25887
 21
-4.31631
  0
LINE
  8
0
 10
-4.25887
 20
-4.31631
 11
-9.10071
 21
-5.94684
  0
LINE
  8
0
 10
-9.10071
 20
-5.94684
 11
-13.0622
 21
-8.6644
  0
LINE
  8
0
 10
-13.0622
 20
-8.6644
 11
-16.1434
 21
-12.469
  0
LINE
  8
0
 10
-16.1434
 20
-12.469
 11
-18.3442
 21
-17.3606
  0
LINE
  8
0
 10
-18.3442
 20
-17.3606
 11
-19.6647
 21
-23.3392
  0
LINE
  8
0
 10
-19.6647
 20
-23.3392
 11
-20.1049
 21
-30.4049
  0
LINE
  8
0
 10
-20.1049
 20
-30.4049
 11
-19.989
 21
-33.9747
  0
LINE
  8
0
 10
-19.989
 20
-33.9747
 11
-19.6411
 21
-37.3071
  0
LINE
  8
0
 10
-19.6411
 20
-37.3071
 11
-19.0613
 21
-40.4021
  0
LINE
  8
0
 10
-19.0613
 20
-40.4021
 11
-18.2496
 21
-43.2597
  0
LINE
  8
0
 10
-18.2496
 20
-43.2597
 11
-17.2061
 21
-45.8799
  0
LINE
  8
0
 10
-17.2061
 20
-45.8799
 11
-15.9306
 21
-48.2626
  0
LINE
  8
0
 10
-15.9306
 20
-48.2626
 11
-14.4231
 21
-50.4079
  0
LINE
  8
0
 10
-14.4231
 20
-50.4079
 11
-12.7097
 21
-52.2896
  0
LINE
  8
0
 10
-12.7097
 20
-52.2896
 11
-10.8164
 21
-53.8818
  0
LINE
  8
0
 10
-10.8164
 20
-53.8818
 11
-8.74329
 21
-55.1845
  0
LINE
  8
0
 10
-8.74329
 20
-55.1845
 11
-6.49033
 21
-56.1977
  0
LINE
  8
0
 10
-6.49033
 20
-56.1977
 11
-4.05753
 21
-56.9214
  0
LINE
  8
0
 10
-4.05753
 20
-56.9214
 11
-1.44487
 21
-57.3557
  0
LINE
  8
0
 10
-1.44487
 20
-57.3557
 11
1.3476
 21
-57.5004
  0
LINE
  8
0
 10
1.3476
 20
-57.5004
 11
4.103
 21
-57.3387
  0
ENDSEC
  0
SECTION
  2
OBJECTS
  0
DICTIONARY
  0
ENDSEC
  0
EOF
