<?xml version="1.0" standalone="no"?>
<!DOCTYPE svg PUBLIC "-//W3C//DTD SVG 1.1//EN" "http://www.w3.org/Graphics/SVG/1.1/DTD/svg11.dtd">
<svg width="72mm" height="116mm" viewBox="-35 -3 72 116" xmlns="http://www.w3.org/2000/svg" version="1.1">
<title>OpenSCAD Model</title>
<path d="
M 23.1408,112.137 L 25.3155,112.027 L 27.5165,111.843 L 29.7437,111.585 L 31.9971,111.254 L 34.2768,110.849
 L 36.5828,110.371 L 36.5828,97.3579 L 35.1906,97.5799 L 33.8851,97.7678 L 32.6664,97.9216 L 31.5344,98.0411
 L 30.4891,98.1265 L 29.5306,98.1778 L 28.6589,98.1948 L 26.7815,98.1363 L 25.0145,97.9608 L 23.3579,97.6682
 L 21.8117,97.2587 L 20.3759,96.732 L 19.0505,96.0884 L 17.8355,95.3277 L 16.7128,94.4398 L 15.6637,93.4138
 L 14.6882,92.2497 L 13.7864,90.9475 L 12.9582,89.5072 L 12.2037,87.9289 L 11.5228,86.2125 L 14.8115,85.1174
 L 17.8675,83.7095 L 20.6909,81.9886 L 23.2815,79.9547 L 25.6395,77.608 L 27.7647,74.9484 L 29.6573,71.9758
 L 31.3067,68.6914 L 32.7023,65.0967 L 33.8441,61.1918 L 34.7322,56.9767 L 35.3666,52.4513 L 35.7472,47.6156
 L 35.8741,42.4697 L 35.69,36.3458 L 35.1378,30.6741 L 34.2175,25.4548 L 32.929,20.6877 L 31.2724,16.3728
 L 29.2477,12.5103 L 26.8548,9.10004 L 24.1177,6.1431 L 21.0598,3.64107 L 17.6811,1.59396 L 13.9815,0.00175476
 L 9.96109,-1.13551 L 5.61986,-1.81789 L 0.957809,-2.04535 L -3.70491,-1.81789 L -8.04819,-1.13551 L -12.072,0.00175476
 L -15.7763,1.59396 L -19.1611,3.64107 L -22.2265,6.1431 L -24.9724,9.10004 L -27.3736,12.5103 L -29.4054,16.3728
 L -31.0678,20.6877 L -32.3607,25.4548 L -33.2843,30.6741 L -33.8384,36.3458 L -34.0231,42.4697 L -33.885,47.8234
 L -33.4709,52.8405 L -32.7807,57.521 L -31.8144,61.8649 L -30.5721,65.8723 L -29.0536,69.5431 L -27.2591,72.8773
 L -25.2016,75.8724 L -22.8943,78.5255 L -20.3371,80.8369 L -17.5302,82.8064 L -14.4733,84.434 L -11.1667,85.7198
 L -7.61023,86.6637 L -6.34167,90.3915 L -4.96527,93.8077 L -3.48105,96.9123 L -1.88898,99.7053 L -0.189087,102.187
 L 1.61864,104.357 L 3.53421,106.215 L 5.57863,107.796 L 7.7729,109.134 L 10.1171,110.228 L 12.6111,111.08
 L 15.255,111.688 L 18.0487,112.052 L 20.9924,112.174 z
M -1.1913,72.3995 L -3.18394,71.9321 L -5.02014,71.1531 L -6.69987,70.0625 L -8.22316,68.6603 L -9.58997,66.9465
 L -10.8003,64.9211 L -11.8513,62.5933 L -12.7407,59.9723 L -13.4683,57.0582 L -14.0342,53.8508 L -14.4384,50.3503
 L -14.681,46.5566 L -14.7618,42.4697 L -14.441,34.6247 L -13.4786,27.9866 L -11.8745,22.5555 L -9.62889,18.3312
 L -6.74161,15.3139 L -3.21271,13.5035 L 0.957809,12.9 L 5.11093,13.5035 L 8.62512,15.3139 L 11.5004,18.3312
 L 13.7367,22.5555 L 15.334,27.9866 L 16.2924,34.6247 L 16.6119,42.4697 L 16.5317,46.5566 L 16.2911,50.3503
 L 15.89,53.8508 L 15.3286,57.0582 L 14.6067,59.9723 L 13.7244,62.5933 L 12.6817,64.9211 L 11.4802,66.9465
 L 10.1209,68.6603 L 8.60387,70.0625 L 6.92902,71.1531 L 5.09639,71.9321 L 3.10599,72.3995 L 0.957809,72.5553
 z
" stroke="black" fill="lightgray" stroke-width="0.5"/>
</svg>
