  0
SECTION
  2
BLOCKS
  0
ENDSEC
  0
SECTION
  2
ENTITIES
  0
LINE
  8
0
 10
34.908
 20
-71.4419
 11
14.0992
 21
-71.4419
  0
LINE
  8
0
 10
14.0992
 20
-71.4419
 11
14.0992
 21
1.99879
  0
LINE
  8
0
 10
14.0992
 20
1.99879
 11
-3.03693
 21
1.99879
  0
LINE
  8
0
 10
-3.03693
 20
1.99879
 11
-4.13857
 21
0.0897827
  0
LINE
  8
0
 10
-4.13857
 20
0.0897827
 11
-5.38223
 21
-1.69829
  0
LINE
  8
0
 10
-5.38223
 20
-1.69829
 11
-6.76793
 21
-3.36542
  0
LINE
  8
0
 10
-6.76793
 20
-3.36542
 11
-8.29567
 21
-4.91161
  0
LINE
  8
0
 10
-8.29567
 20
-4.91161
 11
-9.96544
 21
-6.33687
  0
LINE
  8
0
 10
-9.96544
 20
-6.33687
 11
-11.7772
 21
-7.64117
  0
LINE
  8
0
 10
-11.7772
 20
-7.64117
 11
-13.7311
 21
-8.82454
  0
LINE
  8
0
 10
-13.7311
 20
-8.82454
 11
-15.7938
 21
-9.86699
  0
LINE
  8
0
 10
-15.7938
 20
-9.86699
 11
-17.9328
 21
-10.7491
  0
LINE
  8
0
 10
-17.9328
 20
-10.7491
 11
-20.1481
 21
-11.4707
  0
LINE
  8
0
 10
-20.1481
 20
-11.4707
 11
-22.4396
 21
-12.0321
  0
LINE
  8
0
 10
-22.4396
 20
-12.0321
 11
-24.8074
 21
-12.433
  0
LINE
  8
0
 10
-24.8074
 20
-12.433
 11
-27.2515
 21
-12.6736
  0
LINE
  8
0
 10
-27.2515
 20
-12.6736
 11
-29.7718
 21
-12.7537
  0
LINE
  8
0
 10
-29.7718
 20
-12.7537
 11
-29.7718
 21
-26.5401
  0
LINE
  8
0
 10
-29.7718
 20
-26.5401
 11
-27.431
 21
-26.4665
  0
LINE
  8
0
 10
-27.431
 20
-26.4665
 11
-25.1203
 21
-26.2457
  0
LINE
  8
0
 10
-25.1203
 20
-26.2457
 11
-22.8399
 21
-25.8776
  0
LINE
  8
0
 10
-22.8399
 20
-25.8776
 11
-20.5898
 21
-25.3623
  0
LINE
  8
0
 10
-20.5898
 20
-25.3623
 11
-18.3699
 21
-24.6998
  0
LINE
  8
0
 10
-18.3699
 20
-24.6998
 11
-16.1802
 21
-23.89
  0
LINE
  8
0
 10
-16.1802
 20
-23.89
 11
-14.0208
 21
-22.933
  0
LINE
  8
0
 10
-14.0208
 20
-22.933
 11
-11.9784
 21
-21.8679
  0
LINE
  8
0
 10
-11.9784
 20
-21.8679
 11
-10.1398
 21
-20.7345
  0
LINE
  8
0
 10
-10.1398
 20
-20.7345
 11
-8.50491
 21
-19.5327
  0
LINE
  8
0
 10
-8.50491
 20
-19.5327
 11
-7.07381
 21
-18.2626
  0
LINE
  8
0
 10
-7.07381
 20
-18.2626
 11
-5.84647
 21
-16.924
  0
LINE
  8
0
 10
-5.84647
 20
-16.924
 11
-4.82289
 21
-15.5172
  0
LINE
  8
0
 10
-4.82289
 20
-15.5172
 11
-4.00308
 21
-14.0419
  0
LINE
  8
0
 10
-4.00308
 20
-14.0419
 11
-4.00308
 21
-71.4419
  0
LINE
  8
0
 10
-4.00308
 20
-71.4419
 11
-29.0631
 21
-71.4419
  0
LINE
  8
0
 10
-29.0631
 20
-71.4419
 11
-29.0631
 21
-84.9062
  0
LINE
  8
0
 10
-29.0631
 20
-84.9062
 11
34.908
 21
-84.9062
  0
LINE
  8
0
 10
34.908
 20
-84.9062
 11
34.908
 21
-71.4419
  0
ENDSEC
  0
SECTION
  2
OBJECTS
  0
DICTIONARY
  0
ENDSEC
  0
EOF
