<?xml version="1.0" standalone="no"?>
<!DOCTYPE svg PUBLIC "-//W3C//DTD SVG 1.1//EN" "http://www.w3.org/Graphics/SVG/1.1/DTD/svg11.dtd">
<svg width="49mm" height="53mm" viewBox="-24 3 49 53" xmlns="http://www.w3.org/2000/svg" version="1.1">
<title>OpenSCAD Model</title>
<path d="
M -8.23865,43.1883 L 9.38745,43.1883 L 12.9437,55.9437 L 24.3078,55.9437 L 7.2226,3.80072 L -6.07379,3.80072
 L -23.1972,55.9437 L -11.7943,55.9437 z
M -5.8418,34.6069 L -4.64558,30.3777 L -3.59688,26.6573 L -2.69568,23.4456 L -1.94197,20.7428 L -1.33577,18.5487
 L -0.877075,16.8634 L -0.565872,15.6869 L -0.339081,14.7974 L -0.13356,13.9734 L 0.0506439,13.2149 L 0.213593,12.5218
 L 0.35524,11.8943 L 0.475601,11.3322 L 0.574677,10.8356 L 0.672806,11.32 L 0.79068,11.8674 L 0.928268,12.4779
 L 1.08559,13.1516 L 1.26263,13.8884 L 1.45941,14.6882 L 1.67592,15.5513 L 1.97856,16.7069 L 2.43344,18.3848
 L 3.04053,20.5848 L 3.79985,23.3071 L 4.7114,26.5515 L 5.77518,30.3181 L 6.99117,34.6069 z
" stroke="black" fill="lightgray" stroke-width="0.5"/>
</svg>
