  0
SECTION
  2
BLOCKS
  0
ENDSEC
  0
SECTION
  2
ENTITIES
  0
LINE
  8
0
 10
3.13049
 20
-57.416
 11
5.51907
 21
-57.1628
  0
LINE
  8
0
 10
5.51907
 20
-57.1628
 11
7.74042
 21
-56.7408
  0
LINE
  8
0
 10
7.74042
 20
-56.7408
 11
9.79454
 21
-56.1499
  0
LINE
  8
0
 10
9.79454
 20
-56.1499
 11
11.6814
 21
-55.3902
  0
LINE
  8
0
 10
11.6814
 20
-55.3902
 11
13.4011
 21
-54.4618
  0
LINE
  8
0
 10
13.4011
 20
-54.4618
 11
14.9535
 21
-53.3645
  0
LINE
  8
0
 10
14.9535
 20
-53.3645
 11
16.3174
 21
-52.1189
  0
LINE
  8
0
 10
16.3174
 20
-52.1189
 11
17.4715
 21
-50.7456
  0
LINE
  8
0
 10
17.4715
 20
-50.7456
 11
18.4157
 21
-49.2444
  0
LINE
  8
0
 10
18.4157
 20
-49.2444
 11
19.1501
 21
-47.6155
  0
LINE
  8
0
 10
19.1501
 20
-47.6155
 11
19.6747
 21
-45.8589
  0
LINE
  8
0
 10
19.6747
 20
-45.8589
 11
19.9894
 21
-43.9744
  0
LINE
  8
0
 10
19.9894
 20
-43.9744
 11
20.0943
 21
-41.9622
  0
LINE
  8
0
 10
20.0943
 20
-41.9622
 11
20.0328
 21
-40.5501
  0
LINE
  8
0
 10
20.0328
 20
-40.5501
 11
19.8482
 21
-39.2075
  0
LINE
  8
0
 10
19.8482
 20
-39.2075
 11
19.5405
 21
-37.9342
  0
LINE
  8
0
 10
19.5405
 20
-37.9342
 11
19.1097
 21
-36.7305
  0
LINE
  8
0
 10
19.1097
 20
-36.7305
 11
18.5559
 21
-35.5962
  0
LINE
  8
0
 10
18.5559
 20
-35.5962
 11
17.879
 21
-34.5313
  0
LINE
  8
0
 10
17.879
 20
-34.5313
 11
17.079
 21
-33.5359
  0
LINE
  8
0
 10
17.079
 20
-33.5359
 11
16.1727
 21
-32.6263
  0
LINE
  8
0
 10
16.1727
 20
-32.6263
 11
15.1765
 21
-31.8193
  0
LINE
  8
0
 10
15.1765
 20
-31.8193
 11
14.0903
 21
-31.1148
  0
LINE
  8
0
 10
14.0903
 20
-31.1148
 11
12.9143
 21
-30.5129
  0
LINE
  8
0
 10
12.9143
 20
-30.5129
 11
11.6483
 21
-30.0135
  0
LINE
  8
0
 10
11.6483
 20
-30.0135
 11
10.2924
 21
-29.6167
  0
LINE
  8
0
 10
10.2924
 20
-29.6167
 11
8.84651
 21
-29.3225
  0
LINE
  8
0
 10
8.84651
 20
-29.3225
 11
8.84651
 21
-29.168
  0
LINE
  8
0
 10
8.84651
 20
-29.168
 11
10.0715
 21
-28.8658
  0
LINE
  8
0
 10
10.0715
 20
-28.8658
 11
11.2287
 21
-28.4674
  0
LINE
  8
0
 10
11.2287
 20
-28.4674
 11
12.318
 21
-27.9728
  0
LINE
  8
0
 10
12.318
 20
-27.9728
 11
13.3395
 21
-27.382
  0
LINE
  8
0
 10
13.3395
 20
-27.382
 11
14.2932
 21
-26.6949
  0
LINE
  8
0
 10
14.2932
 20
-26.6949
 11
15.1791
 21
-25.9116
  0
LINE
  8
0
 10
15.1791
 20
-25.9116
 11
15.9972
 21
-25.0321
  0
LINE
  8
0
 10
15.9972
 20
-25.0321
 11
16.7253
 21
-24.0869
  0
LINE
  8
0
 10
16.7253
 20
-24.0869
 11
17.3414
 21
-23.1071
  0
LINE
  8
0
 10
17.3414
 20
-23.1071
 11
17.8455
 21
-22.0926
  0
LINE
  8
0
 10
17.8455
 20
-22.0926
 11
18.2376
 21
-21.0434
  0
LINE
  8
0
 10
18.2376
 20
-21.0434
 11
18.5177
 21
-19.9595
  0
LINE
  8
0
 10
18.5177
 20
-19.9595
 11
18.6857
 21
-18.8409
  0
LINE
  8
0
 10
18.6857
 20
-18.8409
 11
18.7417
 21
-17.6876
  0
LINE
  8
0
 10
18.7417
 20
-17.6876
 11
18.6443
 21
-15.8497
  0
LINE
  8
0
 10
18.6443
 20
-15.8497
 11
18.352
 21
-14.1349
  0
LINE
  8
0
 10
18.352
 20
-14.1349
 11
17.8649
 21
-12.5431
  0
LINE
  8
0
 10
17.8649
 20
-12.5431
 11
17.1829
 21
-11.0744
  0
LINE
  8
0
 10
17.1829
 20
-11.0744
 11
16.3061
 21
-9.72873
  0
LINE
  8
0
 10
16.3061
 20
-9.72873
 11
15.2345
 21
-8.5061
  0
LINE
  8
0
 10
15.2345
 20
-8.5061
 11
13.968
 21
-7.40654
  0
LINE
  8
0
 10
13.968
 20
-7.40654
 11
12.5224
 21
-6.44247
  0
LINE
  8
0
 10
12.5224
 20
-6.44247
 11
10.9135
 21
-5.62674
  0
LINE
  8
0
 10
10.9135
 20
-5.62674
 11
9.14134
 21
-4.95934
  0
LINE
  8
0
 10
9.14134
 20
-4.95934
 11
7.20586
 21
-4.44022
  0
LINE
  8
0
 10
7.20586
 20
-4.44022
 11
5.10709
 21
-4.06943
  0
LINE
  8
0
 10
5.10709
 20
-4.06943
 11
2.84502
 21
-3.84695
  0
LINE
  8
0
 10
2.84502
 20
-3.84695
 11
0.419632
 21
-3.7728
  0
LINE
  8
0
 10
0.419632
 20
-3.7728
 11
-1.93452
 21
-3.84932
  0
LINE
  8
0
 10
-1.93452
 20
-3.84932
 11
-4.13806
 21
-4.07887
  0
LINE
  8
0
 10
-4.13806
 20
-4.07887
 11
-6.19096
 21
-4.46147
  0
LINE
  8
0
 10
-6.19096
 20
-4.46147
 11
-8.09322
 21
-4.99712
  0
LINE
  8
0
 10
-8.09322
 20
-4.99712
 11
-9.84482
 21
-5.68578
  0
LINE
  8
0
 10
-9.84482
 20
-5.68578
 11
-11.4458
 21
-6.52748
  0
LINE
  8
0
 10
-11.4458
 20
-6.52748
 11
-12.8961
 21
-7.52225
  0
LINE
  8
0
 10
-12.8961
 20
-7.52225
 11
-14.1729
 21
-8.64622
  0
LINE
  8
0
 10
-14.1729
 20
-8.64622
 11
-15.2533
 21
-9.87595
  0
LINE
  8
0
 10
-15.2533
 20
-9.87595
 11
-16.1372
 21
-11.2114
  0
LINE
  8
0
 10
-16.1372
 20
-11.2114
 11
-16.8247
 21
-12.6526
  0
LINE
  8
0
 10
-16.8247
 20
-12.6526
 11
-17.3158
 21
-14.1996
  0
LINE
  8
0
 10
-17.3158
 20
-14.1996
 11
-17.6104
 21
-15.8522
  0
LINE
  8
0
 10
-17.6104
 20
-15.8522
 11
-17.7086
 21
-17.6107
  0
LINE
  8
0
 10
-17.7086
 20
-17.6107
 11
-17.653
 21
-18.8041
  0
LINE
  8
0
 10
-17.653
 20
-18.8041
 11
-17.4862
 21
-19.955
  0
LINE
  8
0
 10
-17.4862
 20
-19.955
 11
-17.2081
 21
-21.0633
  0
LINE
  8
0
 10
-17.2081
 20
-21.0633
 11
-16.8188
 21
-22.1291
  0
LINE
  8
0
 10
-16.8188
 20
-22.1291
 11
-16.3182
 21
-23.1522
  0
LINE
  8
0
 10
-16.3182
 20
-23.1522
 11
-15.7065
 21
-24.1328
  0
LINE
  8
0
 10
-15.7065
 20
-24.1328
 11
-14.9835
 21
-25.0708
  0
LINE
  8
0
 10
-14.9835
 20
-25.0708
 11
-14.1713
 21
-25.9416
  0
LINE
  8
0
 10
-14.1713
 20
-25.9416
 11
-13.2921
 21
-26.7209
  0
LINE
  8
0
 10
-13.2921
 20
-26.7209
 11
-12.3459
 21
-27.4088
  0
LINE
  8
0
 10
-12.3459
 20
-27.4088
 11
-11.3326
 21
-28.0051
  0
LINE
  8
0
 10
-11.3326
 20
-28.0051
 11
-10.2522
 21
-28.5099
  0
LINE
  8
0
 10
-10.2522
 20
-28.5099
 11
-9.10483
 21
-28.9231
  0
LINE
  8
0
 10
-9.10483
 20
-28.9231
 11
-7.89038
 21
-29.2449
  0
LINE
  8
0
 10
-7.89038
 20
-29.2449
 11
-7.89038
 21
-29.4
  0
LINE
  8
0
 10
-7.89038
 20
-29.4
 11
-9.26572
 21
-29.6855
  0
LINE
  8
0
 10
-9.26572
 20
-29.6855
 11
-10.5645
 21
-30.0784
  0
LINE
  8
0
 10
-10.5645
 20
-30.0784
 11
-11.7868
 21
-30.5784
  0
LINE
  8
0
 10
-11.7868
 20
-30.5784
 11
-12.9326
 21
-31.1858
  0
LINE
  8
0
 10
-12.9326
 20
-31.1858
 11
-14.0019
 21
-31.9005
  0
LINE
  8
0
 10
-14.0019
 20
-31.9005
 11
-14.9946
 21
-32.7224
  0
LINE
  8
0
 10
-14.9946
 20
-32.7224
 11
-15.9108
 21
-33.6516
  0
LINE
  8
0
 10
-15.9108
 20
-33.6516
 11
-16.7261
 21
-34.6652
  0
LINE
  8
0
 10
-16.7261
 20
-34.6652
 11
-17.4159
 21
-35.7404
  0
LINE
  8
0
 10
-17.4159
 20
-35.7404
 11
-17.9803
 21
-36.8771
  0
LINE
  8
0
 10
-17.9803
 20
-36.8771
 11
-18.4193
 21
-38.0753
  0
LINE
  8
0
 10
-18.4193
 20
-38.0753
 11
-18.7329
 21
-39.335
  0
LINE
  8
0
 10
-18.7329
 20
-39.335
 11
-18.921
 21
-40.6563
  0
LINE
  8
0
 10
-18.921
 20
-40.6563
 11
-18.9837
 21
-42.0392
  0
LINE
  8
0
 10
-18.9837
 20
-42.0392
 11
-18.8776
 21
-44.0507
  0
LINE
  8
0
 10
-18.8776
 20
-44.0507
 11
-18.5594
 21
-45.9329
  0
LINE
  8
0
 10
-18.5594
 20
-45.9329
 11
-18.0289
 21
-47.6858
  0
LINE
  8
0
 10
-18.0289
 20
-47.6858
 11
-17.2863
 21
-49.3092
  0
LINE
  8
0
 10
-17.2863
 20
-49.3092
 11
-16.3315
 21
-50.8033
  0
LINE
  8
0
 10
-16.3315
 20
-50.8033
 11
-15.1645
 21
-52.168
  0
LINE
  8
0
 10
-15.1645
 20
-52.168
 11
-13.7853
 21
-53.4033
  0
LINE
  8
0
 10
-13.7853
 20
-53.4033
 11
-12.219
 21
-54.4902
  0
LINE
  8
0
 10
-12.219
 20
-54.4902
 11
-10.491
 21
-55.41
  0
LINE
  8
0
 10
-10.491
 20
-55.41
 11
-8.60133
 21
-56.1626
  0
LINE
  8
0
 10
-8.60133
 20
-56.1626
 11
-6.5499
 21
-56.7479
  0
LINE
  8
0
 10
-6.5499
 20
-56.7479
 11
-4.33675
 21
-57.166
  0
LINE
  8
0
 10
-4.33675
 20
-57.166
 11
-1.96188
 21
-57.4168
  0
LINE
  8
0
 10
-1.96188
 20
-57.4168
 11
0.574677
 21
-57.5004
  0
LINE
  8
0
 10
0.574677
 20
-57.5004
 11
3.13049
 21
-57.416
  0
LINE
  8
0
 10
-0.452927
 20
-25.4576
 11
-1.33757
 21
-25.344
  0
LINE
  8
0
 10
-1.33757
 20
-25.344
 11
-2.15674
 21
-25.1547
  0
LINE
  8
0
 10
-2.15674
 20
-25.1547
 11
-2.91045
 21
-24.8896
  0
LINE
  8
0
 10
-2.91045
 20
-24.8896
 11
-3.59868
 21
-24.5489
  0
LINE
  8
0
 10
-3.59868
 20
-24.5489
 11
-4.22145
 21
-24.1324
  0
LINE
  8
0
 10
-4.22145
 20
-24.1324
 11
-4.77875
 21
-23.6401
  0
LINE
  8
0
 10
-4.77875
 20
-23.6401
 11
-5.26584
 21
-23.0761
  0
LINE
  8
0
 10
-5.26584
 20
-23.0761
 11
-5.67799
 21
-22.4443
  0
LINE
  8
0
 10
-5.67799
 20
-22.4443
 11
-6.01521
 21
-21.7446
  0
LINE
  8
0
 10
-6.01521
 20
-21.7446
 11
-6.2775
 21
-20.9772
  0
LINE
  8
0
 10
-6.2775
 20
-20.9772
 11
-6.46484
 21
-20.1419
  0
LINE
  8
0
 10
-6.46484
 20
-20.1419
 11
-6.57724
 21
-19.2388
  0
LINE
  8
0
 10
-6.57724
 20
-19.2388
 11
-6.61472
 21
-18.2679
  0
LINE
  8
0
 10
-6.61472
 20
-18.2679
 11
-6.47116
 21
-16.4425
  0
LINE
  8
0
 10
-6.47116
 20
-16.4425
 11
-6.04048
 21
-14.8979
  0
LINE
  8
0
 10
-6.04048
 20
-14.8979
 11
-5.32269
 21
-13.6341
  0
LINE
  8
0
 10
-5.32269
 20
-13.6341
 11
-4.31778
 21
-12.6512
  0
LINE
  8
0
 10
-4.31778
 20
-12.6512
 11
-3.02576
 21
-11.9491
  0
LINE
  8
0
 10
-3.02576
 20
-11.9491
 11
-1.44661
 21
-11.5278
  0
LINE
  8
0
 10
-1.44661
 20
-11.5278
 11
0.419632
 21
-11.3874
  0
LINE
  8
0
 10
0.419632
 20
-11.3874
 11
2.31689
 21
-11.5278
  0
LINE
  8
0
 10
2.31689
 20
-11.5278
 11
3.92227
 21
-11.9491
  0
LINE
  8
0
 10
3.92227
 20
-11.9491
 11
5.23576
 21
-12.6512
  0
LINE
  8
0
 10
5.23576
 20
-12.6512
 11
6.25737
 21
-13.6341
  0
LINE
  8
0
 10
6.25737
 20
-13.6341
 11
6.98709
 21
-14.8979
  0
LINE
  8
0
 10
6.98709
 20
-14.8979
 11
7.42491
 21
-16.4425
  0
LINE
  8
0
 10
7.42491
 20
-16.4425
 11
7.57086
 21
-18.2679
  0
LINE
  8
0
 10
7.57086
 20
-18.2679
 11
7.4265
 21
-20.1854
  0
LINE
  8
0
 10
7.4265
 20
-20.1854
 11
6.99341
 21
-21.8079
  0
LINE
  8
0
 10
6.99341
 20
-21.8079
 11
6.27161
 21
-23.1355
  0
LINE
  8
0
 10
6.27161
 20
-23.1355
 11
5.26108
 21
-24.168
  0
LINE
  8
0
 10
5.26108
 20
-24.168
 11
3.96182
 21
-24.9055
  0
LINE
  8
0
 10
3.96182
 20
-24.9055
 11
2.37386
 21
-25.348
  0
LINE
  8
0
 10
2.37386
 20
-25.348
 11
0.497162
 21
-25.4955
  0
LINE
  8
0
 10
0.497162
 20
-25.4955
 11
-0.452927
 21
-25.4576
  0
LINE
  8
0
 10
-1.59419
 20
-49.6711
 11
-3.49451
 21
-49.1434
  0
LINE
  8
0
 10
-3.49451
 20
-49.1434
 11
-5.04932
 21
-48.2638
  0
LINE
  8
0
 10
-5.04932
 20
-48.2638
 11
-6.25862
 21
-47.0325
  0
LINE
  8
0
 10
-6.25862
 20
-47.0325
 11
-7.12241
 21
-45.4493
  0
LINE
  8
0
 10
-7.12241
 20
-45.4493
 11
-7.64067
 21
-43.5143
  0
LINE
  8
0
 10
-7.64067
 20
-43.5143
 11
-7.81343
 21
-41.2275
  0
LINE
  8
0
 10
-7.81343
 20
-41.2275
 11
-7.77003
 21
-40.1685
  0
LINE
  8
0
 10
-7.77003
 20
-40.1685
 11
-7.63986
 21
-39.1782
  0
LINE
  8
0
 10
-7.63986
 20
-39.1782
 11
-7.42291
 21
-38.2565
  0
LINE
  8
0
 10
-7.42291
 20
-38.2565
 11
-7.11919
 21
-37.4035
  0
LINE
  8
0
 10
-7.11919
 20
-37.4035
 11
-6.72868
 21
-36.6191
  0
LINE
  8
0
 10
-6.72868
 20
-36.6191
 11
-6.25139
 21
-35.9033
  0
LINE
  8
0
 10
-6.25139
 20
-35.9033
 11
-5.68733
 21
-35.2562
  0
LINE
  8
0
 10
-5.68733
 20
-35.2562
 11
-5.04358
 21
-34.687
  0
LINE
  8
0
 10
-5.04358
 20
-34.687
 11
-4.32729
 21
-34.2053
  0
LINE
  8
0
 10
-4.32729
 20
-34.2053
 11
-3.53841
 21
-33.8112
  0
LINE
  8
0
 10
-3.53841
 20
-33.8112
 11
-2.67699
 21
-33.5047
  0
LINE
  8
0
 10
-2.67699
 20
-33.5047
 11
-1.74298
 21
-33.2858
  0
LINE
  8
0
 10
-1.74298
 20
-33.2858
 11
-0.73642
 21
-33.1545
  0
LINE
  8
0
 10
-0.73642
 20
-33.1545
 11
0.342682
 21
-33.1107
  0
LINE
  8
0
 10
0.342682
 20
-33.1107
 11
1.50418
 21
-33.1521
  0
LINE
  8
0
 10
1.50418
 20
-33.1521
 11
2.58128
 21
-33.2763
  0
LINE
  8
0
 10
2.58128
 20
-33.2763
 11
3.57399
 21
-33.4834
  0
LINE
  8
0
 10
3.57399
 20
-33.4834
 11
4.48233
 21
-33.7733
  0
LINE
  8
0
 10
4.48233
 20
-33.7733
 11
5.30629
 21
-34.146
  0
LINE
  8
0
 10
5.30629
 20
-34.146
 11
6.04585
 21
-34.6015
  0
LINE
  8
0
 10
6.04585
 20
-34.6015
 11
6.70103
 21
-35.1399
  0
LINE
  8
0
 10
6.70103
 20
-35.1399
 11
7.27025
 21
-35.7579
  0
LINE
  8
0
 10
7.27025
 20
-35.7579
 11
7.75189
 21
-36.4525
  0
LINE
  8
0
 10
7.75189
 20
-36.4525
 11
8.14595
 21
-37.2235
  0
LINE
  8
0
 10
8.14595
 20
-37.2235
 11
8.45245
 21
-38.0711
  0
LINE
  8
0
 10
8.45245
 20
-38.0711
 11
8.67137
 21
-38.9952
  0
LINE
  8
0
 10
8.67137
 20
-38.9952
 11
8.80273
 21
-39.9959
  0
LINE
  8
0
 10
8.80273
 20
-39.9959
 11
8.84651
 21
-41.073
  0
LINE
  8
0
 10
8.84651
 20
-41.073
 11
8.8047
 21
-42.336
  0
LINE
  8
0
 10
8.8047
 20
-42.336
 11
8.67924
 21
-43.4964
  0
LINE
  8
0
 10
8.67924
 20
-43.4964
 11
8.47014
 21
-44.5543
  0
LINE
  8
0
 10
8.47014
 20
-44.5543
 11
8.17741
 21
-45.5096
  0
LINE
  8
0
 10
8.17741
 20
-45.5096
 11
7.80104
 21
-46.3624
  0
LINE
  8
0
 10
7.80104
 20
-46.3624
 11
7.34102
 21
-47.1126
  0
LINE
  8
0
 10
7.34102
 20
-47.1126
 11
6.79736
 21
-47.7603
  0
LINE
  8
0
 10
6.79736
 20
-47.7603
 11
6.17026
 21
-48.3139
  0
LINE
  8
0
 10
6.17026
 20
-48.3139
 11
5.45952
 21
-48.7823
  0
LINE
  8
0
 10
5.45952
 20
-48.7823
 11
4.66518
 21
-49.1656
  0
LINE
  8
0
 10
4.66518
 20
-49.1656
 11
3.78722
 21
-49.4637
  0
LINE
  8
0
 10
3.78722
 20
-49.4637
 11
2.82564
 21
-49.6767
  0
LINE
  8
0
 10
2.82564
 20
-49.6767
 11
1.78044
 21
-49.8044
  0
LINE
  8
0
 10
1.78044
 20
-49.8044
 11
0.651627
 21
-49.847
  0
LINE
  8
0
 10
0.651627
 20
-49.847
 11
-1.59419
 21
-49.6711
  0
ENDSEC
  0
SECTION
  2
OBJECTS
  0
DICTIONARY
  0
ENDSEC
  0
EOF
