<?xml version="1.0" standalone="no"?>
<!DOCTYPE svg PUBLIC "-//W3C//DTD SVG 1.1//EN" "http://www.w3.org/Graphics/SVG/1.1/DTD/svg11.dtd">
<svg width="39mm" height="54mm" viewBox="-19 3 39 54" xmlns="http://www.w3.org/2000/svg" version="1.1">
<title>OpenSCAD Model</title>
<path d="
M 19.6691,47.7984 L -5.6098,47.7984 L -5.24937,47.0491 L -4.83055,46.3029 L -4.35338,45.5599 L -3.81783,44.82
 L -3.22389,44.0833 L -2.57159,43.3498 L -1.86092,42.6194 L -1.02071,41.8242 L 0.0198364,40.8965 L 1.26076,39.8362
 L 2.70204,38.6435 L 4.34369,37.3182 L 6.1857,35.8604 L 8.22807,34.2701 L 9.68698,33.0911 L 11.0378,31.9178
 L 12.2806,30.7499 L 13.4153,29.5876 L 14.4419,28.4308 L 15.3605,27.2796 L 16.171,26.1339 L 16.8735,24.9865
 L 17.4678,23.8303 L 17.9541,22.6655 L 18.3324,21.4921 L 18.6025,20.3099 L 18.7646,19.1191 L 18.8187,17.9196
 L 18.7185,16.1287 L 18.418,14.4442 L 17.9171,12.8662 L 17.2158,11.3947 L 16.3142,10.0297 L 15.2122,8.77118
 L 13.9098,7.61914 L 12.4355,6.59868 L 10.8176,5.73521 L 9.05618,5.02873 L 7.15117,4.47928 L 5.10257,4.08679
 L 2.91042,3.85129 L 0.574677,3.7728 L -1.68581,3.85405 L -3.80667,4.09781 L -5.7879,4.50409 L -7.62949,5.07285
 L -9.33144,5.80414 L -10.8938,6.69792 L -12.3164,7.75423 L -13.5916,8.965 L -14.7113,10.3225 L -15.6756,11.8267
 L -16.4845,13.4777 L -17.138,15.2754 L -17.6361,17.2198 L -17.9788,19.311 L -7.03993,19.9294 L -6.85895,18.8966
 L -6.62512,17.9402 L -6.33841,17.0603 L -5.99886,16.257 L -5.60645,15.5301 L -5.16116,14.8797 L -4.66304,14.3058
 L -4.10495,13.8084 L -3.47981,13.3876 L -2.78761,13.0432 L -2.02838,12.7754 L -1.20209,12.5841 L -0.308746,12.4693
 L 0.651627,12.4311 L 1.6219,12.4634 L 2.52277,12.5604 L 3.3542,12.7221 L 4.11621,12.9485 L 4.80879,13.2395
 L 5.43195,13.5953 L 5.98569,14.0157 L 6.46779,14.4929 L 6.87573,15.019 L 7.20949,15.5941 L 7.46909,16.2181
 L 7.65451,16.891 L 7.76576,17.6128 L 7.80286,18.3836 L 7.7843,18.8462 L 7.72868,19.3065 L 7.63597,19.7645
 L 7.50616,20.2201 L 7.33929,20.6733 L 7.13531,21.1242 L 6.89427,21.5727 L 6.62088,22.0219 L 6.3199,22.4751
 L 5.99132,22.9322 L 5.63515,23.3932 L 5.25139,23.8582 L 4.84004,24.3272 L 4.40109,24.8001 L 3.87183,25.3302
 L 3.18953,25.9707 L 2.35419,26.7217 L 1.3658,27.5832 L 0.22438,28.555 L -1.07005,29.6374 L -2.51756,30.8301
 L -4.40567,32.394 L -6.16048,33.905 L -7.78198,35.3631 L -9.27017,36.7684 L -10.625,38.1209 L -11.8466,39.4205
 L -12.9349,40.6672 L -13.9228,41.8871 L -14.8437,43.1062 L -15.6976,44.3246 L -16.4844,45.5422 L -17.2042,46.759
 L -17.857,47.9751 L -18.4428,49.1904 L -18.4428,56.7275 L 19.6691,56.7275 z
" stroke="black" fill="lightgray" stroke-width="0.5"/>
</svg>
