  0
SECTION
  2
BLOCKS
  0
ENDSEC
  0
SECTION
  2
ENTITIES
  0
LINE
  8
0
 10
1.00763
 20
-22.4533
 11
1.81439
 21
-22.3129
  0
LINE
  8
0
 10
1.81439
 20
-22.3129
 11
2.56013
 21
-22.0789
  0
LINE
  8
0
 10
2.56013
 20
-22.0789
 11
3.24486
 21
-21.7513
  0
LINE
  8
0
 10
3.24486
 20
-21.7513
 11
3.86859
 21
-21.3301
  0
LINE
  8
0
 10
3.86859
 20
-21.3301
 11
4.4313
 21
-20.8153
  0
LINE
  8
0
 10
4.4313
 20
-20.8153
 11
4.933
 21
-20.2068
  0
LINE
  8
0
 10
4.933
 20
-20.2068
 11
5.37054
 21
-19.5092
  0
LINE
  8
0
 10
5.37054
 20
-19.5092
 11
5.74078
 21
-18.7269
  0
LINE
  8
0
 10
5.74078
 20
-18.7269
 11
6.04369
 21
-17.86
  0
LINE
  8
0
 10
6.04369
 20
-17.86
 11
6.2793
 21
-16.9084
  0
LINE
  8
0
 10
6.2793
 20
-16.9084
 11
6.44757
 21
-15.8721
  0
LINE
  8
0
 10
6.44757
 20
-15.8721
 11
6.54855
 21
-14.7512
  0
LINE
  8
0
 10
6.54855
 20
-14.7512
 11
6.5822
 21
-13.5456
  0
LINE
  8
0
 10
6.5822
 20
-13.5456
 11
6.55038
 21
-12.3137
  0
LINE
  8
0
 10
6.55038
 20
-12.3137
 11
6.45493
 21
-11.1728
  0
LINE
  8
0
 10
6.45493
 20
-11.1728
 11
6.29584
 21
-10.1228
  0
LINE
  8
0
 10
6.29584
 20
-10.1228
 11
6.0731
 21
-9.16389
  0
LINE
  8
0
 10
6.0731
 20
-9.16389
 11
5.78673
 21
-8.29593
  0
LINE
  8
0
 10
5.78673
 20
-8.29593
 11
5.43671
 21
-7.51894
  0
LINE
  8
0
 10
5.43671
 20
-7.51894
 11
5.02307
 21
-6.83292
  0
LINE
  8
0
 10
5.02307
 20
-6.83292
 11
4.54373
 21
-6.23811
  0
LINE
  8
0
 10
4.54373
 20
-6.23811
 11
3.99655
 21
-5.7348
  0
LINE
  8
0
 10
3.99655
 20
-5.7348
 11
3.38153
 21
-5.323
  0
LINE
  8
0
 10
3.38153
 20
-5.323
 11
2.69867
 21
-5.00272
  0
LINE
  8
0
 10
2.69867
 20
-5.00272
 11
1.94797
 21
-4.77396
  0
LINE
  8
0
 10
1.94797
 20
-4.77396
 11
1.12943
 21
-4.63669
  0
LINE
  8
0
 10
1.12943
 20
-4.63669
 11
0.243042
 21
-4.59094
  0
LINE
  8
0
 10
0.243042
 20
-4.59094
 11
-0.67421
 21
-4.63603
  0
LINE
  8
0
 10
-0.67421
 20
-4.63603
 11
-1.51918
 21
-4.77132
  0
LINE
  8
0
 10
-1.51918
 20
-4.77132
 11
-2.29184
 21
-4.9968
  0
LINE
  8
0
 10
-2.29184
 20
-4.9968
 11
-2.99222
 21
-5.31245
  0
LINE
  8
0
 10
-2.99222
 20
-5.31245
 11
-3.62029
 21
-5.71832
  0
LINE
  8
0
 10
-3.62029
 20
-5.71832
 11
-4.17604
 21
-6.21437
  0
LINE
  8
0
 10
-4.17604
 20
-6.21437
 11
-4.65952
 21
-6.80063
  0
LINE
  8
0
 10
-4.65952
 20
-6.80063
 11
-5.07483
 21
-7.47943
  0
LINE
  8
0
 10
-5.07483
 20
-7.47943
 11
-5.42624
 21
-8.25316
  0
LINE
  8
0
 10
-5.42624
 20
-8.25316
 11
-5.71376
 21
-9.1218
  0
LINE
  8
0
 10
-5.71376
 20
-9.1218
 11
-5.93739
 21
-10.0854
  0
LINE
  8
0
 10
-5.93739
 20
-10.0854
 11
-6.09714
 21
-11.1439
  0
LINE
  8
0
 10
-6.09714
 20
-11.1439
 11
-6.19298
 21
-12.2973
  0
LINE
  8
0
 10
-6.19298
 20
-12.2973
 11
-6.22491
 21
-13.5456
  0
LINE
  8
0
 10
-6.22491
 20
-13.5456
 11
-6.19218
 21
-14.7545
  0
LINE
  8
0
 10
-6.19218
 20
-14.7545
 11
-6.09398
 21
-15.8779
  0
LINE
  8
0
 10
-6.09398
 20
-15.8779
 11
-5.93031
 21
-16.9159
  0
LINE
  8
0
 10
-5.93031
 20
-16.9159
 11
-5.70117
 21
-17.8684
  0
LINE
  8
0
 10
-5.70117
 20
-17.8684
 11
-5.40657
 21
-18.7355
  0
LINE
  8
0
 10
-5.40657
 20
-18.7355
 11
-5.04648
 21
-19.5171
  0
LINE
  8
0
 10
-5.04648
 20
-19.5171
 11
-4.62094
 21
-20.2133
  0
LINE
  8
0
 10
-4.62094
 20
-20.2133
 11
-4.13092
 21
-20.82
  0
LINE
  8
0
 10
-4.13092
 20
-20.82
 11
-3.57755
 21
-21.3334
  0
LINE
  8
0
 10
-3.57755
 20
-21.3334
 11
-2.96078
 21
-21.7534
  0
LINE
  8
0
 10
-2.96078
 20
-21.7534
 11
-2.28067
 21
-22.0801
  0
LINE
  8
0
 10
-2.28067
 20
-22.0801
 11
-1.53719
 21
-22.3134
  0
LINE
  8
0
 10
-1.53719
 20
-22.3134
 11
-0.730331
 21
-22.4535
  0
LINE
  8
0
 10
-0.730331
 20
-22.4535
 11
0.139877
 21
-22.5001
  0
LINE
  8
0
 10
0.139877
 20
-22.5001
 11
1.00763
 21
-22.4533
  0
LINE
  8
0
 10
-0.126419
 20
-19.6404
 11
-0.399124
 21
-19.6034
  0
LINE
  8
0
 10
-0.399124
 20
-19.6034
 11
-0.652359
 21
-19.5416
  0
LINE
  8
0
 10
-0.652359
 20
-19.5416
 11
-0.886139
 21
-19.4551
  0
LINE
  8
0
 10
-0.886139
 20
-19.4551
 11
-1.10046
 21
-19.3438
  0
LINE
  8
0
 10
-1.10046
 20
-19.3438
 11
-1.29533
 21
-19.2079
  0
LINE
  8
0
 10
-1.29533
 20
-19.2079
 11
-1.47073
 21
-19.0473
  0
LINE
  8
0
 10
-1.47073
 20
-19.0473
 11
-1.63019
 21
-18.8595
  0
LINE
  8
0
 10
-1.63019
 20
-18.8595
 11
-1.77728
 21
-18.6423
  0
LINE
  8
0
 10
-1.77728
 20
-18.6423
 11
-1.91202
 21
-18.3956
  0
LINE
  8
0
 10
-1.91202
 20
-18.3956
 11
-2.03441
 21
-18.1195
  0
LINE
  8
0
 10
-2.03441
 20
-18.1195
 11
-2.14444
 21
-17.814
  0
LINE
  8
0
 10
-2.14444
 20
-17.814
 11
-2.24213
 21
-17.479
  0
LINE
  8
0
 10
-2.24213
 20
-17.479
 11
-2.32745
 21
-17.1146
  0
LINE
  8
0
 10
-2.32745
 20
-17.1146
 11
-2.40094
 21
-16.7167
  0
LINE
  8
0
 10
-2.40094
 20
-16.7167
 11
-2.46313
 21
-16.2815
  0
LINE
  8
0
 10
-2.46313
 20
-16.2815
 11
-2.51401
 21
-15.809
  0
LINE
  8
0
 10
-2.51401
 20
-15.809
 11
-2.55359
 21
-15.2992
  0
LINE
  8
0
 10
-2.55359
 20
-15.2992
 11
-2.58186
 21
-14.752
  0
LINE
  8
0
 10
-2.58186
 20
-14.752
 11
-2.59882
 21
-14.1675
  0
LINE
  8
0
 10
-2.59882
 20
-14.1675
 11
-2.60448
 21
-13.5456
  0
LINE
  8
0
 10
-2.60448
 20
-13.5456
 11
-2.59908
 21
-12.9171
  0
LINE
  8
0
 10
-2.59908
 20
-12.9171
 11
-2.58292
 21
-12.3271
  0
LINE
  8
0
 10
-2.58292
 20
-12.3271
 11
-2.55597
 21
-11.7758
  0
LINE
  8
0
 10
-2.55597
 20
-11.7758
 11
-2.51823
 21
-11.2632
  0
LINE
  8
0
 10
-2.51823
 20
-11.2632
 11
-2.46973
 21
-10.7893
  0
LINE
  8
0
 10
-2.46973
 20
-10.7893
 11
-2.41043
 21
-10.3539
  0
LINE
  8
0
 10
-2.41043
 20
-10.3539
 11
-2.34036
 21
-9.95728
  0
LINE
  8
0
 10
-2.34036
 20
-9.95728
 11
-2.25816
 21
-9.59454
  0
LINE
  8
0
 10
-2.25816
 20
-9.59454
 11
-2.16255
 21
-9.26099
  0
LINE
  8
0
 10
-2.16255
 20
-9.26099
 11
-2.05353
 21
-8.95662
  0
LINE
  8
0
 10
-2.05353
 20
-8.95662
 11
-1.93112
 21
-8.68144
  0
LINE
  8
0
 10
-1.93112
 20
-8.68144
 11
-1.7953
 21
-8.43546
  0
LINE
  8
0
 10
-1.7953
 20
-8.43546
 11
-1.64609
 21
-8.21866
  0
LINE
  8
0
 10
-1.64609
 20
-8.21866
 11
-1.48347
 21
-8.03107
  0
LINE
  8
0
 10
-1.48347
 20
-8.03107
 11
-1.30363
 21
-7.87041
  0
LINE
  8
0
 10
-1.30363
 20
-7.87041
 11
-1.10275
 21
-7.73448
  0
LINE
  8
0
 10
-1.10275
 20
-7.73448
 11
-0.880844
 21
-7.62326
  0
LINE
  8
0
 10
-0.880844
 20
-7.62326
 11
-0.637878
 21
-7.53676
  0
LINE
  8
0
 10
-0.637878
 20
-7.53676
 11
-0.373886
 21
-7.47496
  0
LINE
  8
0
 10
-0.373886
 20
-7.47496
 11
-0.0888519
 21
-7.4379
  0
LINE
  8
0
 10
-0.0888519
 20
-7.4379
 11
0.217209
 21
-7.42554
  0
LINE
  8
0
 10
0.217209
 20
-7.42554
 11
0.509094
 21
-7.4379
  0
LINE
  8
0
 10
0.509094
 20
-7.4379
 11
0.780991
 21
-7.47496
  0
LINE
  8
0
 10
0.780991
 20
-7.47496
 11
1.03288
 21
-7.53676
  0
LINE
  8
0
 10
1.03288
 20
-7.53676
 11
1.2648
 21
-7.62326
  0
LINE
  8
0
 10
1.2648
 20
-7.62326
 11
1.47672
 21
-7.73448
  0
LINE
  8
0
 10
1.47672
 20
-7.73448
 11
1.66864
 21
-7.87041
  0
LINE
  8
0
 10
1.66864
 20
-7.87041
 11
1.84056
 21
-8.03107
  0
LINE
  8
0
 10
1.84056
 20
-8.03107
 11
1.99651
 21
-8.21866
  0
LINE
  8
0
 10
1.99651
 20
-8.21866
 11
2.14035
 21
-8.43546
  0
LINE
  8
0
 10
2.14035
 20
-8.43546
 11
2.27209
 21
-8.68144
  0
LINE
  8
0
 10
2.27209
 20
-8.68144
 11
2.39174
 21
-8.95662
  0
LINE
  8
0
 10
2.39174
 20
-8.95662
 11
2.49928
 21
-9.26099
  0
LINE
  8
0
 10
2.49928
 20
-9.26099
 11
2.59473
 21
-9.59454
  0
LINE
  8
0
 10
2.59473
 20
-9.59454
 11
2.67809
 21
-9.95728
  0
LINE
  8
0
 10
2.67809
 20
-9.95728
 11
2.74992
 21
-10.3539
  0
LINE
  8
0
 10
2.74992
 20
-10.3539
 11
2.8107
 21
-10.7893
  0
LINE
  8
0
 10
2.8107
 20
-10.7893
 11
2.86043
 21
-11.2632
  0
LINE
  8
0
 10
2.86043
 20
-11.2632
 11
2.89911
 21
-11.7758
  0
LINE
  8
0
 10
2.89911
 20
-11.7758
 11
2.92673
 21
-12.3271
  0
LINE
  8
0
 10
2.92673
 20
-12.3271
 11
2.94331
 21
-12.9171
  0
LINE
  8
0
 10
2.94331
 20
-12.9171
 11
2.94884
 21
-13.5456
  0
LINE
  8
0
 10
2.94884
 20
-13.5456
 11
2.93568
 21
-14.4494
  0
LINE
  8
0
 10
2.93568
 20
-14.4494
 11
2.89624
 21
-15.2758
  0
LINE
  8
0
 10
2.89624
 20
-15.2758
 11
2.83049
 21
-16.025
  0
LINE
  8
0
 10
2.83049
 20
-16.025
 11
2.73845
 21
-16.6968
  0
LINE
  8
0
 10
2.73845
 20
-16.6968
 11
2.62012
 21
-17.2913
  0
LINE
  8
0
 10
2.62012
 20
-17.2913
 11
2.47548
 21
-17.8086
  0
LINE
  8
0
 10
2.47548
 20
-17.8086
 11
2.30455
 21
-18.2485
  0
LINE
  8
0
 10
2.30455
 20
-18.2485
 11
2.1031
 21
-18.6211
  0
LINE
  8
0
 10
2.1031
 20
-18.6211
 11
1.86697
 21
-18.9363
  0
LINE
  8
0
 10
1.86697
 20
-18.9363
 11
1.59613
 21
-19.1942
  0
LINE
  8
0
 10
1.59613
 20
-19.1942
 11
1.29057
 21
-19.3949
  0
LINE
  8
0
 10
1.29057
 20
-19.3949
 11
0.950333
 21
-19.5382
  0
LINE
  8
0
 10
0.950333
 20
-19.5382
 11
0.575378
 21
-19.6241
  0
LINE
  8
0
 10
0.575378
 20
-19.6241
 11
0.16571
 21
-19.6528
  0
LINE
  8
0
 10
0.16571
 20
-19.6528
 11
-0.126419
 21
-19.6404
  0
LINE
  8
0
 10
1.55728
 20
-11.8835
 11
-1.21291
 21
-11.8835
  0
LINE
  8
0
 10
-1.21291
 20
-11.8835
 11
-1.21291
 21
-15.0917
  0
LINE
  8
0
 10
-1.21291
 20
-15.0917
 11
1.55728
 21
-15.0917
  0
LINE
  8
0
 10
1.55728
 20
-15.0917
 11
1.55728
 21
-11.8835
  0
ENDSEC
  0
SECTION
  2
OBJECTS
  0
DICTIONARY
  0
ENDSEC
  0
EOF
