  0
SECTION
  2
BLOCKS
  0
ENDSEC
  0
SECTION
  2
ENTITIES
  0
LINE
  8
0
 10
-10.8963
 20
-54.2412
 11
1.79475
 21
-54.2412
  0
LINE
  8
0
 10
1.79475
 20
-54.2412
 11
4.69838
 21
-54.1689
  0
LINE
  8
0
 10
4.69838
 20
-54.1689
 11
7.48235
 21
-53.952
  0
LINE
  8
0
 10
7.48235
 20
-53.952
 11
10.1467
 21
-53.5905
  0
LINE
  8
0
 10
10.1467
 20
-53.5905
 11
12.6913
 21
-53.0844
  0
LINE
  8
0
 10
12.6913
 20
-53.0844
 11
15.1163
 21
-52.4338
  0
LINE
  8
0
 10
15.1163
 20
-52.4338
 11
17.4216
 21
-51.6385
  0
LINE
  8
0
 10
17.4216
 20
-51.6385
 11
19.6073
 21
-50.6986
  0
LINE
  8
0
 10
19.6073
 20
-50.6986
 11
21.6617
 21
-49.6251
  0
LINE
  8
0
 10
21.6617
 20
-49.6251
 11
23.5728
 21
-48.4293
  0
LINE
  8
0
 10
23.5728
 20
-48.4293
 11
25.3405
 21
-47.1112
  0
LINE
  8
0
 10
25.3405
 20
-47.1112
 11
26.9648
 21
-45.6709
  0
LINE
  8
0
 10
26.9648
 20
-45.6709
 11
28.4458
 21
-44.1083
  0
LINE
  8
0
 10
28.4458
 20
-44.1083
 11
29.7835
 21
-42.4234
  0
LINE
  8
0
 10
29.7835
 20
-42.4234
 11
30.9778
 21
-40.6163
  0
LINE
  8
0
 10
30.9778
 20
-40.6163
 11
32.0205
 21
-38.7053
  0
LINE
  8
0
 10
32.0205
 20
-38.7053
 11
32.9028
 21
-36.7089
  0
LINE
  8
0
 10
32.9028
 20
-36.7089
 11
33.6246
 21
-34.627
  0
LINE
  8
0
 10
33.6246
 20
-34.627
 11
34.1861
 21
-32.4596
  0
LINE
  8
0
 10
34.1861
 20
-32.4596
 11
34.5871
 21
-30.2068
  0
LINE
  8
0
 10
34.5871
 20
-30.2068
 11
34.8277
 21
-27.8685
  0
LINE
  8
0
 10
34.8277
 20
-27.8685
 11
34.908
 21
-25.4448
  0
LINE
  8
0
 10
34.908
 20
-25.4448
 11
34.7311
 21
-21.73
  0
LINE
  8
0
 10
34.7311
 20
-21.73
 11
34.2006
 21
-18.2795
  0
LINE
  8
0
 10
34.2006
 20
-18.2795
 11
33.3164
 21
-15.0932
  0
LINE
  8
0
 10
33.3164
 20
-15.0932
 11
32.0786
 21
-12.1713
  0
LINE
  8
0
 10
32.0786
 20
-12.1713
 11
30.4871
 21
-9.51369
  0
LINE
  8
0
 10
30.4871
 20
-9.51369
 11
28.5419
 21
-7.12035
  0
LINE
  8
0
 10
28.5419
 20
-7.12035
 11
26.243
 21
-4.99129
  0
LINE
  8
0
 10
26.243
 20
-4.99129
 11
23.6063
 21
-3.13678
  0
LINE
  8
0
 10
23.6063
 20
-3.13678
 11
20.6475
 21
-1.56757
  0
LINE
  8
0
 10
20.6475
 20
-1.56757
 11
17.3666
 21
-0.283676
  0
LINE
  8
0
 10
17.3666
 20
-0.283676
 11
13.7636
 21
0.71489
  0
LINE
  8
0
 10
13.7636
 20
0.71489
 11
9.83864
 21
1.42818
  0
LINE
  8
0
 10
9.83864
 20
1.42818
 11
5.59155
 21
1.85614
  0
LINE
  8
0
 10
5.59155
 20
1.85614
 11
1.0224
 21
1.99879
  0
LINE
  8
0
 10
1.0224
 20
1.99879
 11
-29.9001
 21
1.99879
  0
LINE
  8
0
 10
-29.9001
 20
1.99879
 11
-29.9001
 21
-84.9062
  0
LINE
  8
0
 10
-29.9001
 20
-84.9062
 11
-10.8963
 21
-84.9062
  0
LINE
  8
0
 10
-10.8963
 20
-84.9062
 11
-10.8963
 21
-54.2412
  0
LINE
  8
0
 10
-10.8963
 20
-39.6178
 11
-10.8963
 21
-12.7537
  0
LINE
  8
0
 10
-10.8963
 20
-12.7537
 11
-1.10368
 21
-12.7537
  0
LINE
  8
0
 10
-1.10368
 20
-12.7537
 11
1.2213
 21
-12.8149
  0
LINE
  8
0
 10
1.2213
 20
-12.8149
 11
3.3741
 21
-12.9983
  0
LINE
  8
0
 10
3.3741
 20
-12.9983
 11
5.35469
 21
-13.3041
  0
LINE
  8
0
 10
5.35469
 20
-13.3041
 11
7.16309
 21
-13.7321
  0
LINE
  8
0
 10
7.16309
 20
-13.7321
 11
8.79929
 21
-14.2825
  0
LINE
  8
0
 10
8.79929
 20
-14.2825
 11
10.2633
 21
-14.9551
  0
LINE
  8
0
 10
10.2633
 20
-14.9551
 11
11.5551
 21
-15.75
  0
LINE
  8
0
 10
11.5551
 20
-15.75
 11
12.6746
 21
-16.688
  0
LINE
  8
0
 10
12.6746
 20
-16.688
 11
13.6219
 21
-17.7903
  0
LINE
  8
0
 10
13.6219
 20
-17.7903
 11
14.397
 21
-19.057
  0
LINE
  8
0
 10
14.397
 20
-19.057
 11
14.9999
 21
-20.4879
  0
LINE
  8
0
 10
14.9999
 20
-20.4879
 11
15.4305
 21
-22.0833
  0
LINE
  8
0
 10
15.4305
 20
-22.0833
 11
15.6888
 21
-23.8429
  0
LINE
  8
0
 10
15.6888
 20
-23.8429
 11
15.7749
 21
-25.7668
  0
LINE
  8
0
 10
15.7749
 20
-25.7668
 11
15.6947
 21
-27.6502
  0
LINE
  8
0
 10
15.6947
 20
-27.6502
 11
15.4541
 21
-29.3981
  0
LINE
  8
0
 10
15.4541
 20
-29.3981
 11
15.0531
 21
-31.0106
  0
LINE
  8
0
 10
15.0531
 20
-31.0106
 11
14.4916
 21
-32.4877
  0
LINE
  8
0
 10
14.4916
 20
-32.4877
 11
13.7698
 21
-33.8294
  0
LINE
  8
0
 10
13.7698
 20
-33.8294
 11
12.8875
 21
-35.0357
  0
LINE
  8
0
 10
12.8875
 20
-35.0357
 11
11.8448
 21
-36.1066
  0
LINE
  8
0
 10
11.8448
 20
-36.1066
 11
10.6286
 21
-37.0382
  0
LINE
  8
0
 10
10.6286
 20
-37.0382
 11
9.22568
 21
-37.8264
  0
LINE
  8
0
 10
9.22568
 20
-37.8264
 11
7.63611
 21
-38.4713
  0
LINE
  8
0
 10
7.63611
 20
-38.4713
 11
5.85988
 21
-38.9729
  0
LINE
  8
0
 10
5.85988
 20
-38.9729
 11
3.89699
 21
-39.3312
  0
LINE
  8
0
 10
3.89699
 20
-39.3312
 11
1.74742
 21
-39.5462
  0
LINE
  8
0
 10
1.74742
 20
-39.5462
 11
-0.588776
 21
-39.6178
  0
LINE
  8
0
 10
-0.588776
 20
-39.6178
 11
-10.8963
 21
-39.6178
  0
ENDSEC
  0
SECTION
  2
OBJECTS
  0
DICTIONARY
  0
ENDSEC
  0
EOF
