<?xml version="1.0" standalone="no"?>
<!DOCTYPE svg PUBLIC "-//W3C//DTD SVG 1.1//EN" "http://www.w3.org/Graphics/SVG/1.1/DTD/svg11.dtd">
<svg width="39mm" height="53mm" viewBox="-18 3 39 53" xmlns="http://www.w3.org/2000/svg" version="1.1">
<title>OpenSCAD Model</title>
<path d="
M 20.9448,47.8651 L 8.45949,47.8651 L 8.45949,3.80072 L -1.82216,3.80072 L -2.48314,4.94614 L -3.22934,6.01897
 L -4.06076,7.01924 L -4.9774,7.94696 L -5.97926,8.80211 L -7.06635,9.5847 L -8.23865,10.2947 L -9.47627,10.9202
 L -10.7597,11.4494 L -12.0888,11.8824 L -13.4638,12.2192 L -14.8844,12.4598 L -16.3509,12.6041 L -17.8631,12.6522
 L -17.8631,20.9241 L -16.4586,20.8799 L -15.0722,20.7474 L -13.704,20.5266 L -12.3539,20.2174 L -11.0219,19.8199
 L -9.70815,19.334 L -8.41249,18.7598 L -7.18706,18.1208 L -6.08388,17.4407 L -5.10295,16.7196 L -4.24428,15.9575
 L -3.50787,15.1544 L -2.89374,14.3103 L -2.40184,13.4252 L -2.40184,47.8651 L -17.4379,47.8651 L -17.4379,55.9437
 L 20.9448,55.9437 z
" stroke="black" fill="lightgray" stroke-width="0.5"/>
</svg>
