  0
SECTION
  2
BLOCKS
  0
ENDSEC
  0
SECTION
  2
ENTITIES
  0
LINE
  8
0
 10
-0.813538
 20
-17.9612
 11
-0.246567
 21
-15.6808
  0
LINE
  8
0
 10
-0.246567
 20
-15.6808
 11
0.204468
 21
-13.7867
  0
LINE
  8
0
 10
0.204468
 20
-13.7867
 11
0.354324
 21
-14.4517
  0
LINE
  8
0
 10
0.354324
 20
-14.4517
 11
0.509445
 21
-15.1214
  0
LINE
  8
0
 10
0.509445
 20
-15.1214
 11
0.669846
 21
-15.7959
  0
LINE
  8
0
 10
0.669846
 20
-15.7959
 11
0.835495
 21
-16.4751
  0
LINE
  8
0
 10
0.835495
 20
-16.4751
 11
1.00641
 21
-17.159
  0
LINE
  8
0
 10
1.00641
 20
-17.159
 11
1.1826
 21
-17.8477
  0
LINE
  8
0
 10
1.1826
 20
-17.8477
 11
1.36404
 21
-18.5411
  0
LINE
  8
0
 10
1.36404
 20
-18.5411
 11
2.18864
 21
-21.9812
  0
LINE
  8
0
 10
2.18864
 20
-21.9812
 11
5.38388
 21
-21.9812
  0
LINE
  8
0
 10
5.38388
 20
-21.9812
 11
8.08966
 21
-4.60025
  0
LINE
  8
0
 10
8.08966
 20
-4.60025
 11
4.7525
 21
-4.60025
  0
LINE
  8
0
 10
4.7525
 20
-4.60025
 11
3.67026
 21
-13.5549
  0
LINE
  8
0
 10
3.67026
 20
-13.5549
 11
3.63451
 21
-13.8639
  0
LINE
  8
0
 10
3.63451
 20
-13.8639
 11
3.60086
 21
-14.2165
  0
LINE
  8
0
 10
3.60086
 20
-14.2165
 11
3.56931
 21
-14.6127
  0
LINE
  8
0
 10
3.56931
 20
-14.6127
 11
3.53986
 21
-15.0526
  0
LINE
  8
0
 10
3.53986
 20
-15.0526
 11
3.51251
 21
-15.5362
  0
LINE
  8
0
 10
3.51251
 20
-15.5362
 11
3.48726
 21
-16.0634
  0
LINE
  8
0
 10
3.48726
 20
-16.0634
 11
3.46411
 21
-16.6343
  0
LINE
  8
0
 10
3.46411
 20
-16.6343
 11
3.43828
 21
-16.9821
  0
LINE
  8
0
 10
3.43828
 20
-16.9821
 11
3.35719
 21
-16.5879
  0
LINE
  8
0
 10
3.35719
 20
-16.5879
 11
3.28319
 21
-16.2296
  0
LINE
  8
0
 10
3.28319
 20
-16.2296
 11
3.21628
 21
-15.9073
  0
LINE
  8
0
 10
3.21628
 20
-15.9073
 11
3.15645
 21
-15.6211
  0
LINE
  8
0
 10
3.15645
 20
-15.6211
 11
3.10371
 21
-15.3709
  0
LINE
  8
0
 10
3.10371
 20
-15.3709
 11
3.05807
 21
-15.1568
  0
LINE
  8
0
 10
3.05807
 20
-15.1568
 11
3.01952
 21
-14.9786
  0
LINE
  8
0
 10
3.01952
 20
-14.9786
 11
2.98364
 21
-14.8181
  0
LINE
  8
0
 10
2.98364
 20
-14.8181
 11
2.94592
 21
-14.6567
  0
LINE
  8
0
 10
2.94592
 20
-14.6567
 11
2.90636
 21
-14.4946
  0
LINE
  8
0
 10
2.90636
 20
-14.4946
 11
2.86497
 21
-14.3317
  0
LINE
  8
0
 10
2.86497
 20
-14.3317
 11
2.82175
 21
-14.168
  0
LINE
  8
0
 10
2.82175
 20
-14.168
 11
2.77667
 21
-14.0035
  0
LINE
  8
0
 10
2.77667
 20
-14.0035
 11
2.72977
 21
-13.8382
  0
LINE
  8
0
 10
2.72977
 20
-13.8382
 11
1.4541
 21
-9.4705
  0
LINE
  8
0
 10
1.4541
 20
-9.4705
 11
-1.05824
 21
-9.4705
  0
LINE
  8
0
 10
-1.05824
 20
-9.4705
 11
-2.33391
 21
-13.8382
  0
LINE
  8
0
 10
-2.33391
 20
-13.8382
 11
-2.8492
 21
-16.0029
  0
LINE
  8
0
 10
-2.8492
 20
-16.0029
 11
-3.04242
 21
-16.9821
  0
LINE
  8
0
 10
-3.04242
 20
-16.9821
 11
-3.05923
 21
-16.3758
  0
LINE
  8
0
 10
-3.05923
 20
-16.3758
 11
-3.08026
 21
-15.8084
  0
LINE
  8
0
 10
-3.08026
 20
-15.8084
 11
-3.1055
 21
-15.2798
  0
LINE
  8
0
 10
-3.1055
 20
-15.2798
 11
-3.13495
 21
-14.7903
  0
LINE
  8
0
 10
-3.13495
 20
-14.7903
 11
-3.16861
 21
-14.3396
  0
LINE
  8
0
 10
-3.16861
 20
-14.3396
 11
-3.20648
 21
-13.9278
  0
LINE
  8
0
 10
-3.20648
 20
-13.9278
 11
-3.24857
 21
-13.5549
  0
LINE
  8
0
 10
-3.24857
 20
-13.5549
 11
-4.39542
 21
-4.60025
  0
LINE
  8
0
 10
-4.39542
 20
-4.60025
 11
-7.73238
 21
-4.60025
  0
LINE
  8
0
 10
-7.73238
 20
-4.60025
 11
-5.01385
 21
-21.9812
  0
LINE
  8
0
 10
-5.01385
 20
-21.9812
 11
-1.81844
 21
-21.9812
  0
LINE
  8
0
 10
-1.81844
 20
-21.9812
 11
-0.813538
 21
-17.9612
  0
ENDSEC
  0
SECTION
  2
OBJECTS
  0
DICTIONARY
  0
ENDSEC
  0
EOF
