  0
SECTION
  2
BLOCKS
  0
ENDSEC
  0
SECTION
  2
ENTITIES
  0
LINE
  8
0
 10
10.3197
 20
-86.9433
 11
16.3832
 21
-85.271
  0
LINE
  8
0
 10
16.3832
 20
-85.271
 11
21.7893
 21
-82.4838
  0
LINE
  8
0
 10
21.7893
 20
-82.4838
 11
26.5381
 21
-78.5817
  0
LINE
  8
0
 10
26.5381
 20
-78.5817
 11
30.6295
 21
-73.5648
  0
LINE
  8
0
 10
30.6295
 20
-73.5648
 11
34.0636
 21
-67.433
  0
LINE
  8
0
 10
34.0636
 20
-67.433
 11
36.8403
 21
-60.1863
  0
LINE
  8
0
 10
36.8403
 20
-60.1863
 11
19.2529
 21
-56.8356
  0
LINE
  8
0
 10
19.2529
 20
-56.8356
 11
17.7069
 21
-61.0062
  0
LINE
  8
0
 10
17.7069
 20
-61.0062
 11
15.9399
 21
-64.5351
  0
LINE
  8
0
 10
15.9399
 20
-64.5351
 11
13.9521
 21
-67.4223
  0
LINE
  8
0
 10
13.9521
 20
-67.4223
 11
11.7433
 21
-69.668
  0
LINE
  8
0
 10
11.7433
 20
-69.668
 11
9.31367
 21
-71.272
  0
LINE
  8
0
 10
9.31367
 20
-71.272
 11
6.66312
 21
-72.2345
  0
LINE
  8
0
 10
6.66312
 20
-72.2345
 11
3.79166
 21
-72.5553
  0
LINE
  8
0
 10
3.79166
 20
-72.5553
 11
1.32414
 21
-72.3949
  0
LINE
  8
0
 10
1.32414
 20
-72.3949
 11
-0.961975
 21
-71.9137
  0
LINE
  8
0
 10
-0.961975
 20
-71.9137
 11
-3.06671
 21
-71.1117
  0
LINE
  8
0
 10
-3.06671
 20
-71.1117
 11
-4.99005
 21
-69.989
  0
LINE
  8
0
 10
-4.99005
 20
-69.989
 11
-6.73201
 21
-68.5454
  0
LINE
  8
0
 10
-6.73201
 20
-68.5454
 11
-8.29256
 21
-66.7811
  0
LINE
  8
0
 10
-8.29256
 20
-66.7811
 11
-9.67174
 21
-64.6959
  0
LINE
  8
0
 10
-9.67174
 20
-64.6959
 11
-10.8682
 21
-62.3148
  0
LINE
  8
0
 10
-10.8682
 20
-62.3148
 11
-11.8805
 21
-59.6628
  0
LINE
  8
0
 10
-11.8805
 20
-59.6628
 11
-12.7088
 21
-56.7401
  0
LINE
  8
0
 10
-12.7088
 20
-56.7401
 11
-13.3531
 21
-53.5466
  0
LINE
  8
0
 10
-13.3531
 20
-53.5466
 11
-13.8132
 21
-50.0823
  0
LINE
  8
0
 10
-13.8132
 20
-50.0823
 11
-14.0893
 21
-46.3473
  0
LINE
  8
0
 10
-14.0893
 20
-46.3473
 11
-14.1814
 21
-42.3415
  0
LINE
  8
0
 10
-14.1814
 20
-42.3415
 11
-13.8238
 21
-34.5305
  0
LINE
  8
0
 10
-13.8238
 20
-34.5305
 11
-12.7509
 21
-27.9212
  0
LINE
  8
0
 10
-12.7509
 20
-27.9212
 11
-10.9629
 21
-22.5136
  0
LINE
  8
0
 10
-10.9629
 20
-22.5136
 11
-8.45967
 21
-18.3077
  0
LINE
  8
0
 10
-8.45967
 20
-18.3077
 11
-5.2412
 21
-15.3034
  0
LINE
  8
0
 10
-5.2412
 20
-15.3034
 11
-1.30753
 21
-13.5009
  0
LINE
  8
0
 10
-1.30753
 20
-13.5009
 11
3.34135
 21
-12.9
  0
LINE
  8
0
 10
3.34135
 20
-12.9
 11
4.69948
 21
-12.977
  0
LINE
  8
0
 10
4.69948
 20
-12.977
 11
6.01291
 21
-13.2077
  0
LINE
  8
0
 10
6.01291
 20
-13.2077
 11
7.28163
 21
-13.5922
  0
LINE
  8
0
 10
7.28163
 20
-13.5922
 11
8.50563
 21
-14.1306
  0
LINE
  8
0
 10
8.50563
 20
-14.1306
 11
9.68494
 21
-14.8228
  0
LINE
  8
0
 10
9.68494
 20
-14.8228
 11
10.8195
 21
-15.6689
  0
LINE
  8
0
 10
10.8195
 20
-15.6689
 11
11.9094
 21
-16.6687
  0
LINE
  8
0
 10
11.9094
 20
-16.6687
 11
12.9388
 21
-17.8079
  0
LINE
  8
0
 10
12.9388
 20
-17.8079
 11
13.892
 21
-19.0721
  0
LINE
  8
0
 10
13.892
 20
-19.0721
 11
14.7689
 21
-20.4612
  0
LINE
  8
0
 10
14.7689
 20
-20.4612
 11
15.5697
 21
-21.9752
  0
LINE
  8
0
 10
15.5697
 20
-21.9752
 11
16.2941
 21
-23.6142
  0
LINE
  8
0
 10
16.2941
 20
-23.6142
 11
16.9424
 21
-25.3781
  0
LINE
  8
0
 10
16.9424
 20
-25.3781
 11
17.5144
 21
-27.2669
  0
LINE
  8
0
 10
17.5144
 20
-27.2669
 11
35.0372
 21
-23.0147
  0
LINE
  8
0
 10
35.0372
 20
-23.0147
 11
33.8637
 21
-19.5871
  0
LINE
  8
0
 10
33.8637
 20
-19.5871
 11
32.5154
 21
-16.4094
  0
LINE
  8
0
 10
32.5154
 20
-16.4094
 11
30.9922
 21
-13.4816
  0
LINE
  8
0
 10
30.9922
 20
-13.4816
 11
29.2942
 21
-10.8035
  0
LINE
  8
0
 10
29.2942
 20
-10.8035
 11
27.4212
 21
-8.37529
  0
LINE
  8
0
 10
27.4212
 20
-8.37529
 11
25.3734
 21
-6.1969
  0
LINE
  8
0
 10
25.3734
 20
-6.1969
 11
23.1508
 21
-4.26834
  0
LINE
  8
0
 10
23.1508
 20
-4.26834
 11
20.7614
 21
-2.59328
  0
LINE
  8
0
 10
20.7614
 20
-2.59328
 11
18.2128
 21
-1.17592
  0
LINE
  8
0
 10
18.2128
 20
-1.17592
 11
15.5052
 21
-0.0162659
  0
LINE
  8
0
 10
15.5052
 20
-0.0162659
 11
12.6386
 21
0.885681
  0
LINE
  8
0
 10
12.6386
 20
0.885681
 11
9.61276
 21
1.52994
  0
LINE
  8
0
 10
9.61276
 20
1.52994
 11
6.42789
 21
1.91649
  0
LINE
  8
0
 10
6.42789
 20
1.91649
 11
3.08391
 21
2.04535
  0
LINE
  8
0
 10
3.08391
 20
2.04535
 11
-6.62419
 21
1.1395
  0
LINE
  8
0
 10
-6.62419
 20
1.1395
 11
-14.8387
 21
-1.57806
  0
LINE
  8
0
 10
-14.8387
 20
-1.57806
 11
-21.5597
 21
-6.10733
  0
LINE
  8
0
 10
-21.5597
 20
-6.10733
 11
-26.7872
 21
-12.4483
  0
LINE
  8
0
 10
-26.7872
 20
-12.4483
 11
-30.5211
 21
-20.601
  0
LINE
  8
0
 10
-30.5211
 20
-20.601
 11
-32.7614
 21
-30.5654
  0
LINE
  8
0
 10
-32.7614
 20
-30.5654
 11
-33.5082
 21
-42.3415
  0
LINE
  8
0
 10
-33.5082
 20
-42.3415
 11
-33.3143
 21
-48.4555
  0
LINE
  8
0
 10
-33.3143
 20
-48.4555
 11
-32.7325
 21
-54.1344
  0
LINE
  8
0
 10
-32.7325
 20
-54.1344
 11
-31.7629
 21
-59.3782
  0
LINE
  8
0
 10
-31.7629
 20
-59.3782
 11
-30.4055
 21
-64.1868
  0
LINE
  8
0
 10
-30.4055
 20
-64.1868
 11
-28.6603
 21
-68.5603
  0
LINE
  8
0
 10
-28.6603
 20
-68.5603
 11
-26.5272
 21
-72.4987
  0
LINE
  8
0
 10
-26.5272
 20
-72.4987
 11
-24.0063
 21
-76.0019
  0
LINE
  8
0
 10
-24.0063
 20
-76.0019
 11
-21.1157
 21
-79.0526
  0
LINE
  8
0
 10
-21.1157
 20
-79.0526
 11
-17.8741
 21
-81.634
  0
LINE
  8
0
 10
-17.8741
 20
-81.634
 11
-14.2815
 21
-83.746
  0
LINE
  8
0
 10
-14.2815
 20
-83.746
 11
-10.3379
 21
-85.3887
  0
LINE
  8
0
 10
-10.3379
 20
-85.3887
 11
-6.04333
 21
-86.562
  0
LINE
  8
0
 10
-6.04333
 20
-86.562
 11
-1.39775
 21
-87.266
  0
LINE
  8
0
 10
-1.39775
 20
-87.266
 11
3.5988
 21
-87.5007
  0
LINE
  8
0
 10
3.5988
 20
-87.5007
 11
10.3197
 21
-86.9433
  0
ENDSEC
  0
SECTION
  2
OBJECTS
  0
DICTIONARY
  0
ENDSEC
  0
EOF
