  0
SECTION
  2
BLOCKS
  0
ENDSEC
  0
SECTION
  2
ENTITIES
  0
LINE
  8
0
 10
-2.74622
 20
-17.7294
 11
3.12915
 21
-17.7294
  0
LINE
  8
0
 10
3.12915
 20
-17.7294
 11
4.31456
 21
-21.9812
  0
LINE
  8
0
 10
4.31456
 20
-21.9812
 11
8.10258
 21
-21.9812
  0
LINE
  8
0
 10
8.10258
 20
-21.9812
 11
2.40753
 21
-4.60025
  0
LINE
  8
0
 10
2.40753
 20
-4.60025
 11
-2.0246
 21
-4.60025
  0
LINE
  8
0
 10
-2.0246
 20
-4.60025
 11
-7.73238
 21
-21.9812
  0
LINE
  8
0
 10
-7.73238
 20
-21.9812
 11
-3.93143
 21
-21.9812
  0
LINE
  8
0
 10
-3.93143
 20
-21.9812
 11
-2.74622
 21
-17.7294
  0
LINE
  8
0
 10
-1.94727
 20
-14.869
 11
-1.54852
 21
-13.4592
  0
LINE
  8
0
 10
-1.54852
 20
-13.4592
 11
-1.19896
 21
-12.2191
  0
LINE
  8
0
 10
-1.19896
 20
-12.2191
 11
-0.89856
 21
-11.1485
  0
LINE
  8
0
 10
-0.89856
 20
-11.1485
 11
-0.647324
 21
-10.2476
  0
LINE
  8
0
 10
-0.647324
 20
-10.2476
 11
-0.445251
 21
-9.51622
  0
LINE
  8
0
 10
-0.445251
 20
-9.51622
 11
-0.292358
 21
-8.95447
  0
LINE
  8
0
 10
-0.292358
 20
-8.95447
 11
-0.188614
 21
-8.5623
  0
LINE
  8
0
 10
-0.188614
 20
-8.5623
 11
-0.113022
 21
-8.26579
  0
LINE
  8
0
 10
-0.113022
 20
-8.26579
 11
-0.0445099
 21
-7.99112
  0
LINE
  8
0
 10
-0.0445099
 20
-7.99112
 11
0.0168762
 21
-7.73828
  0
LINE
  8
0
 10
0.0168762
 20
-7.73828
 11
0.0711975
 21
-7.50726
  0
LINE
  8
0
 10
0.0711975
 20
-7.50726
 11
0.118408
 21
-7.29808
  0
LINE
  8
0
 10
0.118408
 20
-7.29808
 11
0.158524
 21
-7.11073
  0
LINE
  8
0
 10
0.158524
 20
-7.11073
 11
0.191559
 21
-6.94521
  0
LINE
  8
0
 10
0.191559
 20
-6.94521
 11
0.224258
 21
-7.10664
  0
LINE
  8
0
 10
0.224258
 20
-7.10664
 11
0.26355
 21
-7.28912
  0
LINE
  8
0
 10
0.26355
 20
-7.28912
 11
0.309418
 21
-7.49263
  0
LINE
  8
0
 10
0.309418
 20
-7.49263
 11
0.361862
 21
-7.71719
  0
LINE
  8
0
 10
0.361862
 20
-7.71719
 11
0.420868
 21
-7.96278
  0
LINE
  8
0
 10
0.420868
 20
-7.96278
 11
0.486465
 21
-8.22942
  0
LINE
  8
0
 10
0.486465
 20
-8.22942
 11
0.55864
 21
-8.51709
  0
LINE
  8
0
 10
0.55864
 20
-8.51709
 11
0.659515
 21
-8.9023
  0
LINE
  8
0
 10
0.659515
 20
-8.9023
 11
0.811142
 21
-9.46159
  0
LINE
  8
0
 10
0.811142
 20
-9.46159
 11
1.0135
 21
-10.1949
  0
LINE
  8
0
 10
1.0135
 20
-10.1949
 11
1.26662
 21
-11.1024
  0
LINE
  8
0
 10
1.26662
 20
-11.1024
 11
1.57047
 21
-12.1838
  0
LINE
  8
0
 10
1.57047
 20
-12.1838
 11
1.92505
 21
-13.4394
  0
LINE
  8
0
 10
1.92505
 20
-13.4394
 11
2.33038
 21
-14.869
  0
LINE
  8
0
 10
2.33038
 20
-14.869
 11
-1.94727
 21
-14.869
  0
ENDSEC
  0
SECTION
  2
OBJECTS
  0
DICTIONARY
  0
ENDSEC
  0
EOF
