<?xml version="1.0" standalone="no"?>
<!DOCTYPE svg PUBLIC "-//W3C//DTD SVG 1.1//EN" "http://www.w3.org/Graphics/SVG/1.1/DTD/svg11.dtd">
<svg width="60mm" height="89mm" viewBox="-33 -2 60 89" xmlns="http://www.w3.org/2000/svg" version="1.1">
<title>OpenSCAD Model</title>
<path d="
M 1.47131,86.0314 L 5.02895,85.5424 L 8.34465,84.7273 L 11.4184,83.5862 L 14.2503,82.1191 L 16.8403,80.326
 L 19.1883,78.2068 L 21.2565,75.8008 L 23.0066,73.1476 L 24.4385,70.2473 L 25.5521,67.0998 L 26.3476,63.7052
 L 26.8249,60.0634 L 26.984,56.1744 L 26.984,-1.99879 L -11.3466,-1.99879 L -11.3466,12.8829 L 8.04385,12.8829
 L 8.04385,56.6247 L 7.98732,58.5825 L 7.81772,60.4062 L 7.53503,62.0957 L 7.1393,63.6512 L 6.63049,65.0725
 L 6.00861,66.3596 L 5.27365,67.5127 L 4.44273,68.5211 L 3.53294,69.3744 L 2.54428,70.0725 L 1.47676,70.6155
 L 0.330353,71.0034 L -0.894897,71.2361 L -2.19904,71.3136 L -3.33492,71.2374 L -4.42351,71.0086 L -5.46478,70.6274
 L -6.45876,70.0936 L -7.40543,69.4073 L -8.30478,68.5686 L -9.15683,67.5773 L -9.95212,66.4306 L -10.6817,65.1262
 L -11.3456,63.6641 L -11.9439,62.0442 L -12.4764,60.2666 L -12.9433,58.3312 L -13.3444,56.2381 L -32.0908,59.0083
 L -31.423,62.6383 L -30.5238,66.0186 L -29.3932,69.1491 L -28.0311,72.0297 L -26.4377,74.6606 L -24.6128,77.0417
 L -22.5566,79.173 L -20.2821,81.0358 L -17.8025,82.6121 L -15.1178,83.9017 L -12.228,84.9048 L -9.13318,85.6213
 L -5.83325,86.0511 L -2.32823,86.1944 z
" stroke="black" fill="lightgray" stroke-width="0.5"/>
</svg>
