<?xml version="1.0" standalone="no"?>
<!DOCTYPE svg PUBLIC "-//W3C//DTD SVG 1.1//EN" "http://www.w3.org/Graphics/SVG/1.1/DTD/svg11.dtd">
<svg width="14mm" height="18mm" viewBox="-7 4 14 18" xmlns="http://www.w3.org/2000/svg" version="1.1">
<title>OpenSCAD Model</title>
<path d="
M 0.399216,21.0375 L 0.481247,20.0912 L 0.617966,19.1422 L 0.809372,18.1906 L 1.05548,17.2364 L 1.35626,16.2795
 L 1.71175,15.32 L 2.13432,14.3363 L 2.63631,13.3069 L 3.2177,12.2317 L 3.87849,11.1108 L 4.61868,9.94408
 L 5.43829,8.73163 L 6.3373,7.47342 L 6.3373,4.60025 L -6.04462,4.60025 L -6.04462,7.57658 L 2.97449,7.57658
 L 2.06798,8.71156 L 1.23325,9.82681 L 0.470306,10.9224 L -0.220856,11.9982 L -0.84024,13.0543 L -1.38783,14.0907
 L -1.86366,15.1074 L -2.27211,16.1107 L -2.61774,17.1069 L -2.90051,18.096 L -3.12045,19.0779 L -3.27756,20.0528
 L -3.37181,21.0206 L -3.40323,21.9812 L 0.371872,21.9812 z
" stroke="black" fill="lightgray" stroke-width="0.5"/>
</svg>
