  0
SECTION
  2
BLOCKS
  0
ENDSEC
  0
SECTION
  2
ENTITIES
  0
LINE
  8
0
 10
32.7819
 20
-71.3307
 11
-9.34969
 21
-71.3307
  0
LINE
  8
0
 10
-9.34969
 20
-71.3307
 11
-8.74895
 21
-70.0818
  0
LINE
  8
0
 10
-8.74895
 20
-70.0818
 11
-8.05093
 21
-68.8382
  0
LINE
  8
0
 10
-8.05093
 20
-68.8382
 11
-7.25563
 21
-67.5998
  0
LINE
  8
0
 10
-7.25563
 20
-67.5998
 11
-6.36304
 21
-66.3667
  0
LINE
  8
0
 10
-6.36304
 20
-66.3667
 11
-5.37315
 21
-65.1389
  0
LINE
  8
0
 10
-5.37315
 20
-65.1389
 11
-4.28598
 21
-63.9163
  0
LINE
  8
0
 10
-4.28598
 20
-63.9163
 11
-3.10153
 21
-62.699
  0
LINE
  8
0
 10
-3.10153
 20
-62.699
 11
-1.70119
 21
-61.3737
  0
LINE
  8
0
 10
-1.70119
 20
-61.3737
 11
0.0330658
 21
-59.8275
  0
LINE
  8
0
 10
0.0330658
 20
-59.8275
 11
2.10127
 21
-58.0604
  0
LINE
  8
0
 10
2.10127
 20
-58.0604
 11
4.50342
 21
-56.0725
  0
LINE
  8
0
 10
4.50342
 20
-56.0725
 11
7.2395
 21
-53.8636
  0
LINE
  8
0
 10
7.2395
 20
-53.8636
 11
10.3095
 21
-51.434
  0
LINE
  8
0
 10
10.3095
 20
-51.434
 11
13.7135
 21
-48.7834
  0
LINE
  8
0
 10
13.7135
 20
-48.7834
 11
16.145
 21
-46.8186
  0
LINE
  8
0
 10
16.145
 20
-46.8186
 11
18.3964
 21
-44.8629
  0
LINE
  8
0
 10
18.3964
 20
-44.8629
 11
20.4677
 21
-42.9165
  0
LINE
  8
0
 10
20.4677
 20
-42.9165
 11
22.3588
 21
-40.9793
  0
LINE
  8
0
 10
22.3588
 20
-40.9793
 11
24.0699
 21
-39.0514
  0
LINE
  8
0
 10
24.0699
 20
-39.0514
 11
25.6009
 21
-37.1326
  0
LINE
  8
0
 10
25.6009
 20
-37.1326
 11
26.9517
 21
-35.2231
  0
LINE
  8
0
 10
26.9517
 20
-35.2231
 11
28.1224
 21
-33.3108
  0
LINE
  8
0
 10
28.1224
 20
-33.3108
 11
29.1131
 21
-31.3839
  0
LINE
  8
0
 10
29.1131
 20
-31.3839
 11
29.9236
 21
-29.4426
  0
LINE
  8
0
 10
29.9236
 20
-29.4426
 11
30.554
 21
-27.4868
  0
LINE
  8
0
 10
30.554
 20
-27.4868
 11
31.0042
 21
-25.5166
  0
LINE
  8
0
 10
31.0042
 20
-25.5166
 11
31.2744
 21
-23.5319
  0
LINE
  8
0
 10
31.2744
 20
-23.5319
 11
31.3645
 21
-21.5327
  0
LINE
  8
0
 10
31.3645
 20
-21.5327
 11
31.1975
 21
-18.5478
  0
LINE
  8
0
 10
31.1975
 20
-18.5478
 11
30.6966
 21
-15.7403
  0
LINE
  8
0
 10
30.6966
 20
-15.7403
 11
29.8618
 21
-13.1104
  0
LINE
  8
0
 10
29.8618
 20
-13.1104
 11
28.693
 21
-10.6579
  0
LINE
  8
0
 10
28.693
 20
-10.6579
 11
27.1903
 21
-8.38284
  0
LINE
  8
0
 10
27.1903
 20
-8.38284
 11
25.3536
 21
-6.28531
  0
LINE
  8
0
 10
25.3536
 20
-6.28531
 11
23.1831
 21
-4.36525
  0
LINE
  8
0
 10
23.1831
 20
-4.36525
 11
20.7259
 21
-2.66447
  0
LINE
  8
0
 10
20.7259
 20
-2.66447
 11
18.0294
 21
-1.22536
  0
LINE
  8
0
 10
18.0294
 20
-1.22536
 11
15.0936
 21
-0.0478973
  0
LINE
  8
0
 10
15.0936
 20
-0.0478973
 11
11.9186
 21
0.867889
  0
LINE
  8
0
 10
11.9186
 20
0.867889
 11
8.50429
 21
1.52203
  0
LINE
  8
0
 10
8.50429
 20
1.52203
 11
4.85069
 21
1.91452
  0
LINE
  8
0
 10
4.85069
 20
1.91452
 11
0.957809
 21
2.04535
  0
LINE
  8
0
 10
0.957809
 20
2.04535
 11
-2.80969
 21
1.90991
  0
LINE
  8
0
 10
-2.80969
 20
1.90991
 11
-6.34447
 21
1.50365
  0
LINE
  8
0
 10
-6.34447
 20
1.50365
 11
-9.64651
 21
0.826538
  0
LINE
  8
0
 10
-9.64651
 20
0.826538
 11
-12.7158
 21
-0.121414
  0
LINE
  8
0
 10
-12.7158
 20
-0.121414
 11
-15.5524
 21
-1.34023
  0
LINE
  8
0
 10
-15.5524
 20
-1.34023
 11
-18.1563
 21
-2.82988
  0
LINE
  8
0
 10
-18.1563
 20
-2.82988
 11
-20.5274
 21
-4.59039
  0
LINE
  8
0
 10
-20.5274
 20
-4.59039
 11
-22.6526
 21
-6.60832
  0
LINE
  8
0
 10
-22.6526
 20
-6.60832
 11
-24.5189
 21
-8.87082
  0
LINE
  8
0
 10
-24.5189
 20
-8.87082
 11
-26.1261
 21
-11.3779
  0
LINE
  8
0
 10
-26.1261
 20
-11.3779
 11
-27.4742
 21
-14.1295
  0
LINE
  8
0
 10
-27.4742
 20
-14.1295
 11
-28.5634
 21
-17.1256
  0
LINE
  8
0
 10
-28.5634
 20
-17.1256
 11
-29.3936
 21
-20.3664
  0
LINE
  8
0
 10
-29.3936
 20
-20.3664
 11
-29.9647
 21
-23.8516
  0
LINE
  8
0
 10
-29.9647
 20
-23.8516
 11
-11.7332
 21
-24.8824
  0
LINE
  8
0
 10
-11.7332
 20
-24.8824
 11
-11.4316
 21
-23.1609
  0
LINE
  8
0
 10
-11.4316
 20
-23.1609
 11
-11.0419
 21
-21.567
  0
LINE
  8
0
 10
-11.0419
 20
-21.567
 11
-10.564
 21
-20.1006
  0
LINE
  8
0
 10
-10.564
 20
-20.1006
 11
-9.99811
 21
-18.7616
  0
LINE
  8
0
 10
-9.99811
 20
-18.7616
 11
-9.34407
 21
-17.5501
  0
LINE
  8
0
 10
-9.34407
 20
-17.5501
 11
-8.60196
 21
-16.4662
  0
LINE
  8
0
 10
-8.60196
 20
-16.4662
 11
-7.77173
 21
-15.5097
  0
LINE
  8
0
 10
-7.77173
 20
-15.5097
 11
-6.84158
 21
-14.6807
  0
LINE
  8
0
 10
-6.84158
 20
-14.6807
 11
-5.79968
 21
-13.9793
  0
LINE
  8
0
 10
-5.79968
 20
-13.9793
 11
-4.64604
 21
-13.4054
  0
LINE
  8
0
 10
-4.64604
 20
-13.4054
 11
-3.38063
 21
-12.959
  0
LINE
  8
0
 10
-3.38063
 20
-12.959
 11
-2.00348
 21
-12.6402
  0
LINE
  8
0
 10
-2.00348
 20
-12.6402
 11
-0.514587
 21
-12.4489
  0
LINE
  8
0
 10
-0.514587
 20
-12.4489
 11
1.08606
 21
-12.3851
  0
LINE
  8
0
 10
1.08606
 20
-12.3851
 11
2.70319
 21
-12.439
  0
LINE
  8
0
 10
2.70319
 20
-12.439
 11
4.20462
 21
-12.6007
  0
LINE
  8
0
 10
4.20462
 20
-12.6007
 11
5.59033
 21
-12.8702
  0
LINE
  8
0
 10
5.59033
 20
-12.8702
 11
6.86035
 21
-13.2475
  0
LINE
  8
0
 10
6.86035
 20
-13.2475
 11
8.01465
 21
-13.7326
  0
LINE
  8
0
 10
8.01465
 20
-13.7326
 11
9.05325
 21
-14.3255
  0
LINE
  8
0
 10
9.05325
 20
-14.3255
 11
9.97615
 21
-15.0261
  0
LINE
  8
0
 10
9.97615
 20
-15.0261
 11
10.7797
 21
-15.8215
  0
LINE
  8
0
 10
10.7797
 20
-15.8215
 11
11.4595
 21
-16.6984
  0
LINE
  8
0
 10
11.4595
 20
-16.6984
 11
12.0158
 21
-17.6568
  0
LINE
  8
0
 10
12.0158
 20
-17.6568
 11
12.4485
 21
-18.6968
  0
LINE
  8
0
 10
12.4485
 20
-18.6968
 11
12.7575
 21
-19.8183
  0
LINE
  8
0
 10
12.7575
 20
-19.8183
 11
12.9429
 21
-21.0214
  0
LINE
  8
0
 10
12.9429
 20
-21.0214
 11
13.0048
 21
-22.306
  0
LINE
  8
0
 10
13.0048
 20
-22.306
 11
12.9738
 21
-23.0771
  0
LINE
  8
0
 10
12.9738
 20
-23.0771
 11
12.8811
 21
-23.8442
  0
LINE
  8
0
 10
12.8811
 20
-23.8442
 11
12.7266
 21
-24.6075
  0
LINE
  8
0
 10
12.7266
 20
-24.6075
 11
12.5103
 21
-25.3668
  0
LINE
  8
0
 10
12.5103
 20
-25.3668
 11
12.2321
 21
-26.1222
  0
LINE
  8
0
 10
12.2321
 20
-26.1222
 11
11.8922
 21
-26.8737
  0
LINE
  8
0
 10
11.8922
 20
-26.8737
 11
11.4904
 21
-27.6212
  0
LINE
  8
0
 10
11.4904
 20
-27.6212
 11
11.0348
 21
-28.3699
  0
LINE
  8
0
 10
11.0348
 20
-28.3699
 11
10.5332
 21
-29.1251
  0
LINE
  8
0
 10
10.5332
 20
-29.1251
 11
9.98553
 21
-29.8869
  0
LINE
  8
0
 10
9.98553
 20
-29.8869
 11
9.39192
 21
-30.6553
  0
LINE
  8
0
 10
9.39192
 20
-30.6553
 11
8.75232
 21
-31.4304
  0
LINE
  8
0
 10
8.75232
 20
-31.4304
 11
8.06673
 21
-32.212
  0
LINE
  8
0
 10
8.06673
 20
-32.212
 11
7.33516
 21
-33.0001
  0
LINE
  8
0
 10
7.33516
 20
-33.0001
 11
6.45305
 21
-33.8837
  0
LINE
  8
0
 10
6.45305
 20
-33.8837
 11
5.31589
 21
-34.9512
  0
LINE
  8
0
 10
5.31589
 20
-34.9512
 11
3.92365
 21
-36.2029
  0
LINE
  8
0
 10
3.92365
 20
-36.2029
 11
2.27635
 21
-37.6386
  0
LINE
  8
0
 10
2.27635
 20
-37.6386
 11
0.373978
 21
-39.2584
  0
LINE
  8
0
 10
0.373978
 20
-39.2584
 11
-1.78343
 21
-41.0623
  0
LINE
  8
0
 10
-1.78343
 20
-41.0623
 11
-4.19594
 21
-43.0502
  0
LINE
  8
0
 10
-4.19594
 20
-43.0502
 11
-7.34279
 21
-45.6566
  0
LINE
  8
0
 10
-7.34279
 20
-45.6566
 11
-10.2675
 21
-48.175
  0
LINE
  8
0
 10
-10.2675
 20
-48.175
 11
-12.97
 21
-50.6053
  0
LINE
  8
0
 10
-12.97
 20
-50.6053
 11
-15.4503
 21
-52.9474
  0
LINE
  8
0
 10
-15.4503
 20
-52.9474
 11
-17.7084
 21
-55.2015
  0
LINE
  8
0
 10
-17.7084
 20
-55.2015
 11
-19.7444
 21
-57.3674
  0
LINE
  8
0
 10
-19.7444
 20
-57.3674
 11
-21.5581
 21
-59.4453
  0
LINE
  8
0
 10
-21.5581
 20
-59.4453
 11
-23.2047
 21
-61.4785
  0
LINE
  8
0
 10
-23.2047
 20
-61.4785
 11
-24.7395
 21
-63.5104
  0
LINE
  8
0
 10
-24.7395
 20
-63.5104
 11
-26.1626
 21
-65.541
  0
LINE
  8
0
 10
-26.1626
 20
-65.541
 11
-27.474
 21
-67.5703
  0
LINE
  8
0
 10
-27.474
 20
-67.5703
 11
-28.6737
 21
-69.5984
  0
LINE
  8
0
 10
-28.6737
 20
-69.5984
 11
-29.7617
 21
-71.6252
  0
LINE
  8
0
 10
-29.7617
 20
-71.6252
 11
-30.738
 21
-73.6506
  0
LINE
  8
0
 10
-30.738
 20
-73.6506
 11
-30.738
 21
-86.2125
  0
LINE
  8
0
 10
-30.738
 20
-86.2125
 11
32.7819
 21
-86.2125
  0
LINE
  8
0
 10
32.7819
 20
-86.2125
 11
32.7819
 21
-71.3307
  0
ENDSEC
  0
SECTION
  2
OBJECTS
  0
DICTIONARY
  0
ENDSEC
  0
EOF
