  0
SECTION
  2
BLOCKS
  0
ENDSEC
  0
SECTION
  2
ENTITIES
  0
LINE
  8
0
 10
-6.53777
 20
-37.5447
 11
1.07684
 21
-37.5447
  0
LINE
  8
0
 10
1.07684
 20
-37.5447
 11
2.81903
 21
-37.5013
  0
LINE
  8
0
 10
2.81903
 20
-37.5013
 11
4.48941
 21
-37.3712
  0
LINE
  8
0
 10
4.48941
 20
-37.3712
 11
6.08798
 21
-37.1543
  0
LINE
  8
0
 10
6.08798
 20
-37.1543
 11
7.61478
 21
-36.8507
  0
LINE
  8
0
 10
7.61478
 20
-36.8507
 11
9.06976
 21
-36.4603
  0
LINE
  8
0
 10
9.06976
 20
-36.4603
 11
10.453
 21
-35.9831
  0
LINE
  8
0
 10
10.453
 20
-35.9831
 11
11.7643
 21
-35.4192
  0
LINE
  8
0
 10
11.7643
 20
-35.4192
 11
12.997
 21
-34.7751
  0
LINE
  8
0
 10
12.997
 20
-34.7751
 11
14.1436
 21
-34.0576
  0
LINE
  8
0
 10
14.1436
 20
-34.0576
 11
15.2043
 21
-33.2667
  0
LINE
  8
0
 10
15.2043
 20
-33.2667
 11
16.1789
 21
-32.4025
  0
LINE
  8
0
 10
16.1789
 20
-32.4025
 11
17.0675
 21
-31.465
  0
LINE
  8
0
 10
17.0675
 20
-31.465
 11
17.8701
 21
-30.454
  0
LINE
  8
0
 10
17.8701
 20
-30.454
 11
18.5867
 21
-29.3698
  0
LINE
  8
0
 10
18.5867
 20
-29.3698
 11
19.2123
 21
-28.2232
  0
LINE
  8
0
 10
19.2123
 20
-28.2232
 11
19.7417
 21
-27.0253
  0
LINE
  8
0
 10
19.7417
 20
-27.0253
 11
20.1748
 21
-25.7762
  0
LINE
  8
0
 10
20.1748
 20
-25.7762
 11
20.5117
 21
-24.4758
  0
LINE
  8
0
 10
20.5117
 20
-24.4758
 11
20.7523
 21
-23.1241
  0
LINE
  8
0
 10
20.7523
 20
-23.1241
 11
20.8967
 21
-21.7211
  0
LINE
  8
0
 10
20.8967
 20
-21.7211
 11
20.9448
 21
-20.2669
  0
LINE
  8
0
 10
20.9448
 20
-20.2669
 11
20.8387
 21
-18.038
  0
LINE
  8
0
 10
20.8387
 20
-18.038
 11
20.5204
 21
-15.9677
  0
LINE
  8
0
 10
20.5204
 20
-15.9677
 11
19.9899
 21
-14.0559
  0
LINE
  8
0
 10
19.9899
 20
-14.0559
 11
19.2471
 21
-12.3028
  0
LINE
  8
0
 10
19.2471
 20
-12.3028
 11
18.2922
 21
-10.7082
  0
LINE
  8
0
 10
18.2922
 20
-10.7082
 11
17.1251
 21
-9.2722
  0
LINE
  8
0
 10
17.1251
 20
-9.2722
 11
15.7458
 21
-7.99477
  0
LINE
  8
0
 10
15.7458
 20
-7.99477
 11
14.1638
 21
-6.88206
  0
LINE
  8
0
 10
14.1638
 20
-6.88206
 11
12.3885
 21
-5.94054
  0
LINE
  8
0
 10
12.3885
 20
-5.94054
 11
10.42
 21
-5.1702
  0
LINE
  8
0
 10
10.42
 20
-5.1702
 11
8.25818
 21
-4.57106
  0
LINE
  8
0
 10
8.25818
 20
-4.57106
 11
5.90318
 21
-4.1431
  0
LINE
  8
0
 10
5.90318
 20
-4.1431
 11
3.35493
 21
-3.88632
  0
LINE
  8
0
 10
3.35493
 20
-3.88632
 11
0.613434
 21
-3.80072
  0
LINE
  8
0
 10
0.613434
 20
-3.80072
 11
-17.94
 21
-3.80072
  0
LINE
  8
0
 10
-17.94
 20
-3.80072
 11
-17.94
 21
-55.9437
  0
LINE
  8
0
 10
-17.94
 20
-55.9437
 11
-6.53777
 21
-55.9437
  0
LINE
  8
0
 10
-6.53777
 20
-55.9437
 11
-6.53777
 21
-37.5447
  0
LINE
  8
0
 10
-6.53777
 20
-28.7707
 11
-6.53777
 21
-12.6522
  0
LINE
  8
0
 10
-6.53777
 20
-12.6522
 11
-0.662201
 21
-12.6522
  0
LINE
  8
0
 10
-0.662201
 20
-12.6522
 11
0.732773
 21
-12.6889
  0
LINE
  8
0
 10
0.732773
 20
-12.6889
 11
2.02446
 21
-12.799
  0
LINE
  8
0
 10
2.02446
 20
-12.799
 11
3.21281
 21
-12.9825
  0
LINE
  8
0
 10
3.21281
 20
-12.9825
 11
4.29785
 21
-13.2393
  0
LINE
  8
0
 10
4.29785
 20
-13.2393
 11
5.27957
 21
-13.5695
  0
LINE
  8
0
 10
5.27957
 20
-13.5695
 11
6.15796
 21
-13.9731
  0
LINE
  8
0
 10
6.15796
 20
-13.9731
 11
6.93303
 21
-14.45
  0
LINE
  8
0
 10
6.93303
 20
-14.45
 11
7.60477
 21
-15.0128
  0
LINE
  8
0
 10
7.60477
 20
-15.0128
 11
8.17316
 21
-15.6742
  0
LINE
  8
0
 10
8.17316
 20
-15.6742
 11
8.63821
 21
-16.4342
  0
LINE
  8
0
 10
8.63821
 20
-16.4342
 11
8.99992
 21
-17.2928
  0
LINE
  8
0
 10
8.99992
 20
-17.2928
 11
9.25829
 21
-18.2499
  0
LINE
  8
0
 10
9.25829
 20
-18.2499
 11
9.4133
 21
-19.3057
  0
LINE
  8
0
 10
9.4133
 20
-19.3057
 11
9.46497
 21
-20.4601
  0
LINE
  8
0
 10
9.46497
 20
-20.4601
 11
9.41684
 21
-21.5901
  0
LINE
  8
0
 10
9.41684
 20
-21.5901
 11
9.27248
 21
-22.6389
  0
LINE
  8
0
 10
9.27248
 20
-22.6389
 11
9.03185
 21
-23.6064
  0
LINE
  8
0
 10
9.03185
 20
-23.6064
 11
8.69498
 21
-24.4926
  0
LINE
  8
0
 10
8.69498
 20
-24.4926
 11
8.26186
 21
-25.2977
  0
LINE
  8
0
 10
8.26186
 20
-25.2977
 11
7.7325
 21
-26.0214
  0
LINE
  8
0
 10
7.7325
 20
-26.0214
 11
7.10687
 21
-26.664
  0
LINE
  8
0
 10
7.10687
 20
-26.664
 11
6.37714
 21
-27.2229
  0
LINE
  8
0
 10
6.37714
 20
-27.2229
 11
5.5354
 21
-27.6958
  0
LINE
  8
0
 10
5.5354
 20
-27.6958
 11
4.58167
 21
-28.0828
  0
LINE
  8
0
 10
4.58167
 20
-28.0828
 11
3.51593
 21
-28.3838
  0
LINE
  8
0
 10
3.51593
 20
-28.3838
 11
2.3382
 21
-28.5987
  0
LINE
  8
0
 10
2.3382
 20
-28.5987
 11
1.04845
 21
-28.7277
  0
LINE
  8
0
 10
1.04845
 20
-28.7277
 11
-0.353271
 21
-28.7707
  0
LINE
  8
0
 10
-0.353271
 20
-28.7707
 11
-6.53777
 21
-28.7707
  0
ENDSEC
  0
SECTION
  2
OBJECTS
  0
DICTIONARY
  0
ENDSEC
  0
EOF
