  0
SECTION
  2
BLOCKS
  0
ENDSEC
  0
SECTION
  2
ENTITIES
  0
LINE
  8
0
 10
3.23895
 20
-87.2575
 11
7.4612
 21
-86.5278
  0
LINE
  8
0
 10
7.4612
 20
-86.5278
 11
11.3692
 21
-85.3117
  0
LINE
  8
0
 10
11.3692
 20
-85.3117
 11
14.9631
 21
-83.6092
  0
LINE
  8
0
 10
14.9631
 20
-83.6092
 11
18.2427
 21
-81.4202
  0
LINE
  8
0
 10
18.2427
 20
-81.4202
 11
21.2082
 21
-78.7448
  0
LINE
  8
0
 10
21.2082
 20
-78.7448
 11
23.8595
 21
-75.5829
  0
LINE
  8
0
 10
23.8595
 20
-75.5829
 11
26.1755
 21
-71.9649
  0
LINE
  8
0
 10
26.1755
 20
-71.9649
 11
28.1351
 21
-67.9208
  0
LINE
  8
0
 10
28.1351
 20
-67.9208
 11
29.7385
 21
-63.4508
  0
LINE
  8
0
 10
29.7385
 20
-63.4508
 11
30.9856
 21
-58.5547
  0
LINE
  8
0
 10
30.9856
 20
-58.5547
 11
31.8764
 21
-53.2327
  0
LINE
  8
0
 10
31.8764
 20
-53.2327
 11
32.4108
 21
-47.4847
  0
LINE
  8
0
 10
32.4108
 20
-47.4847
 11
32.589
 21
-41.3107
  0
LINE
  8
0
 10
32.589
 20
-41.3107
 11
32.4207
 21
-35.2643
  0
LINE
  8
0
 10
32.4207
 20
-35.2643
 11
31.9159
 21
-29.678
  0
LINE
  8
0
 10
31.9159
 20
-29.678
 11
31.0744
 21
-24.5519
  0
LINE
  8
0
 10
31.0744
 20
-24.5519
 11
29.8964
 21
-19.8859
  0
LINE
  8
0
 10
29.8964
 20
-19.8859
 11
28.3819
 21
-15.68
  0
LINE
  8
0
 10
28.3819
 20
-15.68
 11
26.5307
 21
-11.9343
  0
LINE
  8
0
 10
26.5307
 20
-11.9343
 11
24.343
 21
-8.64879
  0
LINE
  8
0
 10
24.343
 20
-8.64879
 11
21.8345
 21
-5.81157
  0
LINE
  8
0
 10
21.8345
 20
-5.81157
 11
19.0209
 21
-3.41084
  0
LINE
  8
0
 10
19.0209
 20
-3.41084
 11
15.9023
 21
-1.44661
  0
LINE
  8
0
 10
15.9023
 20
-1.44661
 11
12.4786
 21
0.0811157
  0
LINE
  8
0
 10
12.4786
 20
0.0811157
 11
8.74992
 21
1.17235
  0
LINE
  8
0
 10
8.74992
 20
1.17235
 11
4.71616
 21
1.82709
  0
LINE
  8
0
 10
4.71616
 20
1.82709
 11
0.37735
 21
2.04535
  0
LINE
  8
0
 10
0.37735
 20
2.04535
 11
-3.75867
 21
1.88495
  0
LINE
  8
0
 10
-3.75867
 20
1.88495
 11
-7.62651
 21
1.40376
  0
LINE
  8
0
 10
-7.62651
 20
1.40376
 11
-11.2262
 21
0.601791
  0
LINE
  8
0
 10
-11.2262
 20
0.601791
 11
-14.5577
 21
-0.520966
  0
LINE
  8
0
 10
-14.5577
 20
-0.520966
 11
-17.6211
 21
-1.96451
  0
LINE
  8
0
 10
-17.6211
 20
-1.96451
 11
-20.4162
 21
-3.72885
  0
LINE
  8
0
 10
-20.4162
 20
-3.72885
 11
-22.9432
 21
-5.814
  0
LINE
  8
0
 10
-22.9432
 20
-5.814
 11
-25.165
 21
-8.17917
  0
LINE
  8
0
 10
-25.165
 20
-8.17917
 11
-27.0449
 21
-10.7836
  0
LINE
  8
0
 10
-27.0449
 20
-10.7836
 11
-28.583
 21
-13.6273
  0
LINE
  8
0
 10
-28.583
 20
-13.6273
 11
-29.7794
 21
-16.7104
  0
LINE
  8
0
 10
-29.7794
 20
-16.7104
 11
-30.6339
 21
-20.0327
  0
LINE
  8
0
 10
-30.6339
 20
-20.0327
 11
-31.1466
 21
-23.5943
  0
LINE
  8
0
 10
-31.1466
 20
-23.5943
 11
-31.3175
 21
-27.3951
  0
LINE
  8
0
 10
-31.3175
 20
-27.3951
 11
-31.1716
 21
-31.1119
  0
LINE
  8
0
 10
-31.1716
 20
-31.1119
 11
-30.7337
 21
-34.6051
  0
LINE
  8
0
 10
-30.7337
 20
-34.6051
 11
-30.0041
 21
-37.8749
  0
LINE
  8
0
 10
-30.0041
 20
-37.8749
 11
-28.9826
 21
-40.9211
  0
LINE
  8
0
 10
-28.9826
 20
-40.9211
 11
-27.6692
 21
-43.7439
  0
LINE
  8
0
 10
-27.6692
 20
-43.7439
 11
-26.0639
 21
-46.3431
  0
LINE
  8
0
 10
-26.0639
 20
-46.3431
 11
-24.1668
 21
-48.7188
  0
LINE
  8
0
 10
-24.1668
 20
-48.7188
 11
-22.0291
 21
-50.8211
  0
LINE
  8
0
 10
-22.0291
 20
-50.8211
 11
-19.7021
 21
-52.6
  0
LINE
  8
0
 10
-19.7021
 20
-52.6
 11
-17.1857
 21
-54.0554
  0
LINE
  8
0
 10
-17.1857
 20
-54.0554
 11
-14.4799
 21
-55.1874
  0
LINE
  8
0
 10
-14.4799
 20
-55.1874
 11
-11.5849
 21
-55.9959
  0
LINE
  8
0
 10
-11.5849
 20
-55.9959
 11
-8.50044
 21
-56.4811
  0
LINE
  8
0
 10
-8.50044
 20
-56.4811
 11
-5.22668
 21
-56.6428
  0
LINE
  8
0
 10
-5.22668
 20
-56.6428
 11
-3.40387
 21
-56.5869
  0
LINE
  8
0
 10
-3.40387
 20
-56.5869
 11
-1.61653
 21
-56.4193
  0
LINE
  8
0
 10
-1.61653
 20
-56.4193
 11
0.135315
 21
-56.1399
  0
LINE
  8
0
 10
0.135315
 20
-56.1399
 11
1.8517
 21
-55.7488
  0
LINE
  8
0
 10
1.8517
 20
-55.7488
 11
3.53259
 21
-55.2459
  0
LINE
  8
0
 10
3.53259
 20
-55.2459
 11
5.17801
 21
-54.6313
  0
LINE
  8
0
 10
5.17801
 20
-54.6313
 11
6.78795
 21
-53.9049
  0
LINE
  8
0
 10
6.78795
 20
-53.9049
 11
8.31638
 21
-53.0799
  0
LINE
  8
0
 10
8.31638
 20
-53.0799
 11
9.71721
 21
-52.1694
  0
LINE
  8
0
 10
9.71721
 20
-52.1694
 11
10.9905
 21
-51.1735
  0
LINE
  8
0
 10
10.9905
 20
-51.1735
 11
12.1362
 21
-50.0922
  0
LINE
  8
0
 10
12.1362
 20
-50.0922
 11
13.1543
 21
-48.9253
  0
LINE
  8
0
 10
13.1543
 20
-48.9253
 11
14.0449
 21
-47.673
  0
LINE
  8
0
 10
14.0449
 20
-47.673
 11
14.8079
 21
-46.3353
  0
LINE
  8
0
 10
14.8079
 20
-46.3353
 11
14.6877
 21
-50.0449
  0
LINE
  8
0
 10
14.6877
 20
-50.0449
 11
14.4006
 21
-53.4797
  0
LINE
  8
0
 10
14.4006
 20
-53.4797
 11
13.9464
 21
-56.6397
  0
LINE
  8
0
 10
13.9464
 20
-56.6397
 11
13.3252
 21
-59.525
  0
LINE
  8
0
 10
13.3252
 20
-59.525
 11
12.5371
 21
-62.1355
  0
LINE
  8
0
 10
12.5371
 20
-62.1355
 11
11.5819
 21
-64.4713
  0
LINE
  8
0
 10
11.5819
 20
-64.4713
 11
10.4597
 21
-66.5323
  0
LINE
  8
0
 10
10.4597
 20
-66.5323
 11
9.19028
 21
-68.3183
  0
LINE
  8
0
 10
9.19028
 20
-68.3183
 11
7.79335
 21
-69.8295
  0
LINE
  8
0
 10
7.79335
 20
-69.8295
 11
6.26892
 21
-71.0659
  0
LINE
  8
0
 10
6.26892
 20
-71.0659
 11
4.617
 21
-72.0276
  0
LINE
  8
0
 10
4.617
 20
-72.0276
 11
2.8376
 21
-72.7145
  0
LINE
  8
0
 10
2.8376
 20
-72.7145
 11
0.930695
 21
-73.1266
  0
LINE
  8
0
 10
0.930695
 20
-73.1266
 11
-1.10368
 21
-73.264
  0
LINE
  8
0
 10
-1.10368
 20
-73.264
 11
-3.56497
 21
-73.0707
  0
LINE
  8
0
 10
-3.56497
 20
-73.0707
 11
-5.75806
 21
-72.4909
  0
LINE
  8
0
 10
-5.75806
 20
-72.4909
 11
-7.68294
 21
-71.5245
  0
LINE
  8
0
 10
-7.68294
 20
-71.5245
 11
-9.3396
 21
-70.1716
  0
LINE
  8
0
 10
-9.3396
 20
-70.1716
 11
-10.7281
 21
-68.4321
  0
LINE
  8
0
 10
-10.7281
 20
-68.4321
 11
-11.8483
 21
-66.306
  0
LINE
  8
0
 10
-11.8483
 20
-66.306
 11
-12.7003
 21
-63.7934
  0
LINE
  8
0
 10
-12.7003
 20
-63.7934
 11
-29.7072
 21
-66.177
  0
LINE
  8
0
 10
-29.7072
 20
-66.177
 11
-28.8164
 21
-69.2213
  0
LINE
  8
0
 10
-28.8164
 20
-69.2213
 11
-27.764
 21
-72.0224
  0
LINE
  8
0
 10
-27.764
 20
-72.0224
 11
-26.5498
 21
-74.5802
  0
LINE
  8
0
 10
-26.5498
 20
-74.5802
 11
-25.1739
 21
-76.8949
  0
LINE
  8
0
 10
-25.1739
 20
-76.8949
 11
-23.6363
 21
-78.9662
  0
LINE
  8
0
 10
-23.6363
 20
-78.9662
 11
-21.9371
 21
-80.7944
  0
LINE
  8
0
 10
-21.9371
 20
-80.7944
 11
-20.0761
 21
-82.3792
  0
LINE
  8
0
 10
-20.0761
 20
-82.3792
 11
-18.0285
 21
-83.738
  0
LINE
  8
0
 10
-18.0285
 20
-83.738
 11
-15.7692
 21
-84.8877
  0
LINE
  8
0
 10
-15.7692
 20
-84.8877
 11
-13.2982
 21
-85.8284
  0
LINE
  8
0
 10
-13.2982
 20
-85.8284
 11
-10.6155
 21
-86.56
  0
LINE
  8
0
 10
-10.6155
 20
-86.56
 11
-7.72119
 21
-87.0826
  0
LINE
  8
0
 10
-7.72119
 20
-87.0826
 11
-4.61517
 21
-87.3962
  0
LINE
  8
0
 10
-4.61517
 20
-87.3962
 11
-1.29749
 21
-87.5007
  0
LINE
  8
0
 10
-1.29749
 20
-87.5007
 11
3.23895
 21
-87.2575
  0
LINE
  8
0
 10
-1.65247
 20
-43.0897
 11
-3.198
 21
-42.8235
  0
LINE
  8
0
 10
-3.198
 20
-42.8235
 11
-4.64493
 21
-42.3798
  0
LINE
  8
0
 10
-4.64493
 20
-42.3798
 11
-5.99326
 21
-41.7586
  0
LINE
  8
0
 10
-5.99326
 20
-41.7586
 11
-7.24297
 21
-40.96
  0
LINE
  8
0
 10
-7.24297
 20
-40.96
 11
-8.39407
 21
-39.9839
  0
LINE
  8
0
 10
-8.39407
 20
-39.9839
 11
-9.44658
 21
-38.8303
  0
LINE
  8
0
 10
-9.44658
 20
-38.8303
 11
-10.3781
 21
-37.5347
  0
LINE
  8
0
 10
-10.3781
 20
-37.5347
 11
-11.1664
 21
-36.1326
  0
LINE
  8
0
 10
-11.1664
 20
-36.1326
 11
-11.8113
 21
-34.624
  0
LINE
  8
0
 10
-11.8113
 20
-34.624
 11
-12.3129
 21
-33.0089
  0
LINE
  8
0
 10
-12.3129
 20
-33.0089
 11
-12.6712
 21
-31.2872
  0
LINE
  8
0
 10
-12.6712
 20
-31.2872
 11
-12.8861
 21
-29.459
  0
LINE
  8
0
 10
-12.8861
 20
-29.459
 11
-12.9578
 21
-27.5243
  0
LINE
  8
0
 10
-12.9578
 20
-27.5243
 11
-12.8861
 21
-25.5593
  0
LINE
  8
0
 10
-12.8861
 20
-25.5593
 11
-12.6712
 21
-23.714
  0
LINE
  8
0
 10
-12.6712
 20
-23.714
 11
-12.3129
 21
-21.9884
  0
LINE
  8
0
 10
-12.3129
 20
-21.9884
 11
-11.8113
 21
-20.3825
  0
LINE
  8
0
 10
-11.8113
 20
-20.3825
 11
-11.1664
 21
-18.8963
  0
LINE
  8
0
 10
-11.1664
 20
-18.8963
 11
-10.3781
 21
-17.5298
  0
LINE
  8
0
 10
-10.3781
 20
-17.5298
 11
-9.44658
 21
-16.283
  0
LINE
  8
0
 10
-9.44658
 20
-16.283
 11
-8.3954
 21
-15.1806
  0
LINE
  8
0
 10
-8.3954
 20
-15.1806
 11
-7.24825
 21
-14.2477
  0
LINE
  8
0
 10
-7.24825
 20
-14.2477
 11
-6.00511
 21
-13.4845
  0
LINE
  8
0
 10
-6.00511
 20
-13.4845
 11
-4.66603
 21
-12.8909
  0
LINE
  8
0
 10
-4.66603
 20
-12.8909
 11
-3.23096
 21
-12.4669
  0
LINE
  8
0
 10
-3.23096
 20
-12.4669
 11
-1.69994
 21
-12.2125
  0
LINE
  8
0
 10
-1.69994
 20
-12.2125
 11
-0.072937
 21
-12.1277
  0
LINE
  8
0
 10
-0.072937
 20
-12.1277
 11
1.57686
 21
-12.2256
  0
LINE
  8
0
 10
1.57686
 20
-12.2256
 11
3.13991
 21
-12.5195
  0
LINE
  8
0
 10
3.13991
 20
-12.5195
 11
4.61624
 21
-13.0092
  0
LINE
  8
0
 10
4.61624
 20
-13.0092
 11
6.00581
 21
-13.6948
  0
LINE
  8
0
 10
6.00581
 20
-13.6948
 11
7.30865
 21
-14.5764
  0
LINE
  8
0
 10
7.30865
 20
-14.5764
 11
8.52475
 21
-15.6538
  0
LINE
  8
0
 10
8.52475
 20
-15.6538
 11
9.6541
 21
-16.9271
  0
LINE
  8
0
 10
9.6541
 20
-16.9271
 11
10.6625
 21
-18.3608
  0
LINE
  8
0
 10
10.6625
 20
-18.3608
 11
11.5158
 21
-19.9194
  0
LINE
  8
0
 10
11.5158
 20
-19.9194
 11
12.2139
 21
-21.6029
  0
LINE
  8
0
 10
12.2139
 20
-21.6029
 11
12.7569
 21
-23.4113
  0
LINE
  8
0
 10
12.7569
 20
-23.4113
 11
13.1448
 21
-25.3446
  0
LINE
  8
0
 10
13.1448
 20
-25.3446
 11
13.3775
 21
-27.4028
  0
LINE
  8
0
 10
13.3775
 20
-27.4028
 11
13.455
 21
-29.5858
  0
LINE
  8
0
 10
13.455
 20
-29.5858
 11
13.3775
 21
-31.2693
  0
LINE
  8
0
 10
13.3775
 20
-31.2693
 11
13.1448
 21
-32.8593
  0
LINE
  8
0
 10
13.1448
 20
-32.8593
 11
12.7569
 21
-34.3561
  0
LINE
  8
0
 10
12.7569
 20
-34.3561
 11
12.2139
 21
-35.7595
  0
LINE
  8
0
 10
12.2139
 20
-35.7595
 11
11.5158
 21
-37.0696
  0
LINE
  8
0
 10
11.5158
 20
-37.0696
 11
10.6625
 21
-38.2864
  0
LINE
  8
0
 10
10.6625
 20
-38.2864
 11
9.6541
 21
-39.4098
  0
LINE
  8
0
 10
9.6541
 20
-39.4098
 11
8.52606
 21
-40.4096
  0
LINE
  8
0
 10
8.52606
 20
-40.4096
 11
7.31392
 21
-41.2557
  0
LINE
  8
0
 10
7.31392
 20
-41.2557
 11
6.01768
 21
-41.9479
  0
LINE
  8
0
 10
6.01768
 20
-41.9479
 11
4.63733
 21
-42.4862
  0
LINE
  8
0
 10
4.63733
 20
-42.4862
 11
3.17287
 21
-42.8708
  0
LINE
  8
0
 10
3.17287
 20
-42.8708
 11
1.62431
 21
-43.1015
  0
LINE
  8
0
 10
1.62431
 20
-43.1015
 11
-0.0083313
 21
-43.1784
  0
LINE
  8
0
 10
-0.0083313
 20
-43.1784
 11
-1.65247
 21
-43.0897
  0
ENDSEC
  0
SECTION
  2
OBJECTS
  0
DICTIONARY
  0
ENDSEC
  0
EOF
