<?xml version="1.0" standalone="no"?>
<!DOCTYPE svg PUBLIC "-//W3C//DTD SVG 1.1//EN" "http://www.w3.org/Graphics/SVG/1.1/DTD/svg11.dtd">
<svg width="71mm" height="91mm" viewBox="-35 -3 71 91" xmlns="http://www.w3.org/2000/svg" version="1.1">
<title>OpenSCAD Model</title>
<path d="
M 5.61986,87.268 L 9.96109,86.5699 L 13.9815,85.4065 L 17.6811,83.7776 L 21.0598,81.6834 L 24.1177,79.1238
 L 26.8548,76.0988 L 29.2477,72.6199 L 31.2724,68.6993 L 32.929,64.337 L 34.2175,59.5328 L 35.1378,54.2869
 L 35.69,48.5992 L 35.8741,42.4697 L 35.69,36.3458 L 35.1378,30.6741 L 34.2175,25.4548 L 32.929,20.6877
 L 31.2724,16.3728 L 29.2477,12.5103 L 26.8548,9.10004 L 24.1177,6.1431 L 21.0598,3.64107 L 17.6811,1.59396
 L 13.9815,0.00175476 L 9.96109,-1.13551 L 5.61986,-1.81789 L 0.957809,-2.04535 L -3.70491,-1.81789 L -8.04819,-1.13551
 L -12.072,0.00175476 L -15.7763,1.59396 L -19.1611,3.64107 L -22.2265,6.1431 L -24.9724,9.10004 L -27.3736,12.5103
 L -29.4054,16.3728 L -31.0678,20.6877 L -32.3607,25.4548 L -33.2843,30.6741 L -33.8384,36.3458 L -34.0231,42.4697
 L -33.8384,48.5992 L -33.2843,54.2869 L -32.3607,59.5328 L -31.0678,64.337 L -29.4054,68.6993 L -27.3736,72.6199
 L -24.9724,76.0988 L -22.2265,79.1238 L -19.1611,81.6834 L -15.7763,83.7776 L -12.072,85.4065 L -8.04819,86.5699
 L -3.70491,87.268 L 0.957809,87.5007 z
M -1.1913,72.3995 L -3.18394,71.9321 L -5.02014,71.1531 L -6.69987,70.0625 L -8.22316,68.6603 L -9.58997,66.9465
 L -10.8003,64.9211 L -11.8513,62.5933 L -12.7407,59.9723 L -13.4683,57.0582 L -14.0342,53.8508 L -14.4384,50.3503
 L -14.681,46.5566 L -14.7618,42.4697 L -14.441,34.6247 L -13.4786,27.9866 L -11.8745,22.5555 L -9.62889,18.3312
 L -6.74161,15.3139 L -3.21271,13.5035 L 0.957809,12.9 L 5.11093,13.5035 L 8.62512,15.3139 L 11.5004,18.3312
 L 13.7367,22.5555 L 15.334,27.9866 L 16.2924,34.6247 L 16.6119,42.4697 L 16.5317,46.5566 L 16.2911,50.3503
 L 15.89,53.8508 L 15.3286,57.0582 L 14.6067,59.9723 L 13.7244,62.5933 L 12.6817,64.9211 L 11.4802,66.9465
 L 10.1209,68.6603 L 8.60387,70.0625 L 6.92902,71.1531 L 5.09639,71.9321 L 3.10599,72.3995 L 0.957809,72.5553
 z
" stroke="black" fill="lightgray" stroke-width="0.5"/>
</svg>
