  0
SECTION
  2
BLOCKS
  0
ENDSEC
  0
SECTION
  2
ENTITIES
  0
LINE
  8
0
 10
2.65834
 20
-56.6074
 11
5.15459
 21
-56.2796
  0
LINE
  8
0
 10
5.15459
 20
-56.2796
 11
7.44495
 21
-55.7334
  0
LINE
  8
0
 10
7.44495
 20
-55.7334
 11
9.52943
 21
-54.9686
  0
LINE
  8
0
 10
9.52943
 20
-54.9686
 11
11.4081
 21
-53.9853
  0
LINE
  8
0
 10
11.4081
 20
-53.9853
 11
13.0808
 21
-52.7835
  0
LINE
  8
0
 10
13.0808
 20
-52.7835
 11
14.5477
 21
-51.3632
  0
LINE
  8
0
 10
14.5477
 20
-51.3632
 11
15.8142
 21
-49.7173
  0
LINE
  8
0
 10
15.8142
 20
-49.7173
 11
16.8858
 21
-47.8387
  0
LINE
  8
0
 10
16.8858
 20
-47.8387
 11
17.7626
 21
-45.7274
  0
LINE
  8
0
 10
17.7626
 20
-45.7274
 11
18.4446
 21
-43.3834
  0
LINE
  8
0
 10
18.4446
 20
-43.3834
 11
18.9317
 21
-40.8067
  0
LINE
  8
0
 10
18.9317
 20
-40.8067
 11
19.224
 21
-37.9973
  0
LINE
  8
0
 10
19.224
 20
-37.9973
 11
19.3214
 21
-34.9552
  0
LINE
  8
0
 10
19.3214
 20
-34.9552
 11
19.3214
 21
-3.80072
  0
LINE
  8
0
 10
19.3214
 20
-3.80072
 11
7.91856
 21
-3.80072
  0
LINE
  8
0
 10
7.91856
 20
-3.80072
 11
7.91856
 21
-35.0322
  0
LINE
  8
0
 10
7.91856
 20
-35.0322
 11
7.88148
 21
-36.8978
  0
LINE
  8
0
 10
7.88148
 20
-36.8978
 11
7.77026
 21
-38.6072
  0
LINE
  8
0
 10
7.77026
 20
-38.6072
 11
7.5849
 21
-40.1604
  0
LINE
  8
0
 10
7.5849
 20
-40.1604
 11
7.32539
 21
-41.5575
  0
LINE
  8
0
 10
7.32539
 20
-41.5575
 11
6.99173
 21
-42.7984
  0
LINE
  8
0
 10
6.99173
 20
-42.7984
 11
6.58392
 21
-43.8831
  0
LINE
  8
0
 10
6.58392
 20
-43.8831
 11
6.10197
 21
-44.8116
  0
LINE
  8
0
 10
6.10197
 20
-44.8116
 11
5.53798
 21
-45.6013
  0
LINE
  8
0
 10
5.53798
 20
-45.6013
 11
4.88403
 21
-46.2695
  0
LINE
  8
0
 10
4.88403
 20
-46.2695
 11
4.14015
 21
-46.8163
  0
LINE
  8
0
 10
4.14015
 20
-46.8163
 11
3.30632
 21
-47.2415
  0
LINE
  8
0
 10
3.30632
 20
-47.2415
 11
2.38254
 21
-47.5452
  0
LINE
  8
0
 10
2.38254
 20
-47.5452
 11
1.36884
 21
-47.7274
  0
LINE
  8
0
 10
1.36884
 20
-47.7274
 11
0.265167
 21
-47.7882
  0
LINE
  8
0
 10
0.265167
 20
-47.7882
 11
-0.812775
 21
-47.731
  0
LINE
  8
0
 10
-0.812775
 20
-47.731
 11
-1.7937
 21
-47.5594
  0
LINE
  8
0
 10
-1.7937
 20
-47.5594
 11
-2.67758
 21
-47.2735
  0
LINE
  8
0
 10
-2.67758
 20
-47.2735
 11
-3.46443
 21
-46.8732
  0
LINE
  8
0
 10
-3.46443
 20
-46.8732
 11
-4.15424
 21
-46.3585
  0
LINE
  8
0
 10
-4.15424
 20
-46.3585
 11
-4.74699
 21
-45.7295
  0
LINE
  8
0
 10
-4.74699
 20
-45.7295
 11
-5.24272
 21
-44.9861
  0
LINE
  8
0
 10
-5.24272
 20
-44.9861
 11
-5.65799
 21
-44.1044
  0
LINE
  8
0
 10
-5.65799
 20
-44.1044
 11
-6.00937
 21
-43.0611
  0
LINE
  8
0
 10
-6.00937
 20
-43.0611
 11
-6.29686
 21
-41.8561
  0
LINE
  8
0
 10
-6.29686
 20
-41.8561
 11
-6.52046
 21
-40.4894
  0
LINE
  8
0
 10
-6.52046
 20
-40.4894
 11
-6.68018
 21
-38.961
  0
LINE
  8
0
 10
-6.68018
 20
-38.961
 11
-6.776
 21
-37.271
  0
LINE
  8
0
 10
-6.776
 20
-37.271
 11
-6.80795
 21
-35.4192
  0
LINE
  8
0
 10
-6.80795
 20
-35.4192
 11
-6.80795
 21
-3.80072
  0
LINE
  8
0
 10
-6.80795
 20
-3.80072
 11
-18.2108
 21
-3.80072
  0
LINE
  8
0
 10
-18.2108
 20
-3.80072
 11
-18.2108
 21
-35.5349
  0
LINE
  8
0
 10
-18.2108
 20
-35.5349
 11
-18.1225
 21
-38.5119
  0
LINE
  8
0
 10
-18.1225
 20
-38.5119
 11
-17.8574
 21
-41.2586
  0
LINE
  8
0
 10
-17.8574
 20
-41.2586
 11
-17.4156
 21
-43.7749
  0
LINE
  8
0
 10
-17.4156
 20
-43.7749
 11
-16.7972
 21
-46.061
  0
LINE
  8
0
 10
-16.7972
 20
-46.061
 11
-16.002
 21
-48.1167
  0
LINE
  8
0
 10
-16.002
 20
-48.1167
 11
-15.0302
 21
-49.942
  0
LINE
  8
0
 10
-15.0302
 20
-49.942
 11
-13.8817
 21
-51.5371
  0
LINE
  8
0
 10
-13.8817
 20
-51.5371
 11
-12.539
 21
-52.9113
  0
LINE
  8
0
 10
-12.539
 20
-52.9113
 11
-10.985
 21
-54.074
  0
LINE
  8
0
 10
-10.985
 20
-54.074
 11
-9.21959
 21
-55.0254
  0
LINE
  8
0
 10
-9.21959
 20
-55.0254
 11
-7.24275
 21
-55.7653
  0
LINE
  8
0
 10
-7.24275
 20
-55.7653
 11
-5.0545
 21
-56.2938
  0
LINE
  8
0
 10
-5.0545
 20
-56.2938
 11
-2.65483
 21
-56.611
  0
LINE
  8
0
 10
-2.65483
 20
-56.611
 11
-0.0437622
 21
-56.7167
  0
LINE
  8
0
 10
-0.0437622
 20
-56.7167
 11
2.65834
 21
-56.6074
  0
ENDSEC
  0
SECTION
  2
OBJECTS
  0
DICTIONARY
  0
ENDSEC
  0
EOF
