<?xml version="1.0" standalone="no"?>
<!DOCTYPE svg PUBLIC "-//W3C//DTD SVG 1.1//EN" "http://www.w3.org/Graphics/SVG/1.1/DTD/svg11.dtd">
<svg width="69mm" height="91mm" viewBox="-34 -3 69 91" xmlns="http://www.w3.org/2000/svg" version="1.1">
<title>OpenSCAD Model</title>
<path d="
M 6.83835,87.2312 L 11.4123,86.4227 L 15.9679,85.0751 L 20.5051,83.1886 L 25.0239,80.763 L 29.5243,77.7984
 L 34.0064,74.2947 L 34.0064,38.3467 L -1.03908,38.3467 L -1.03908,52.3906 L 16.6119,52.3906 L 16.6119,67.5298
 L 15.8198,68.1373 L 14.9895,68.7079 L 14.1211,69.2418 L 13.2146,69.7388 L 12.2698,70.1989 L 11.2869,70.6222
 L 10.2659,71.0087 L 9.23065,71.3505 L 8.20461,71.6396 L 7.18773,71.8763 L 6.18005,72.0603 L 5.18156,72.1917
 L 4.19226,72.2706 L 3.21216,72.2969 L 0.782593,72.1378 L -1.46292,71.6606 L -3.52441,70.8652 L -5.40189,69.7517
 L -7.09534,68.32 L -8.60475,66.5701 L -9.93013,64.5021 L -11.0751,62.141 L -12.044,59.5116 L -12.8367,56.614
 L -13.4533,53.4482 L -13.8937,50.0142 L -14.1579,46.3119 L -14.246,42.3415 L -14.1625,38.0804 L -13.912,34.169
 L -13.4946,30.6073 L -12.9102,27.3954 L -12.1589,24.5332 L -11.2406,22.0206 L -10.1553,19.8578 L -8.8925,18.0119
 L -7.4417,16.4499 L -5.80287,15.172 L -3.97601,14.178 L -1.96114,13.468 L 0.24173,13.042 L 2.63266,12.9
 L 4.95834,13.159 L 7.07632,13.9361 L 8.98659,15.231 L 10.6891,17.0441 L 12.1839,19.3751 L 13.471,22.2241
 L 14.5504,25.5911 L 32.2023,22.1131 L 31.1295,18.7605 L 29.8988,15.6603 L 28.5104,12.8125 L 26.9642,10.2173
 L 25.2603,7.87448 L 23.3985,5.78415 L 21.379,3.94629 L 19.1941,2.35667 L 16.8355,1.01161 L 14.3034,-0.0888824
 L 11.5977,-0.944839 L 8.71831,-1.55623 L 5.66539,-1.92307 L 2.43886,-2.04535 L -7.0981,-1.1395 L -15.1678,1.57806
 L -21.7704,6.10733 L -26.9057,12.4483 L -30.5737,20.601 L -32.7746,30.5654 L -33.5082,42.3415 L -33.3149,48.2912
 L -32.7352,53.8453 L -31.7689,59.0036 L -30.4161,63.7662 L -28.6768,68.1331 L -26.5509,72.1043 L -24.0386,75.6798
 L -21.1828,78.816 L -18.0274,81.4697 L -14.5722,83.6408 L -10.8172,85.3295 L -6.76254,86.5357 L -2.40813,87.2594
 L 2.246,87.5007 z
" stroke="black" fill="lightgray" stroke-width="0.5"/>
</svg>
