<?xml version="1.0" standalone="no"?>
<!DOCTYPE svg PUBLIC "-//W3C//DTD SVG 1.1//EN" "http://www.w3.org/Graphics/SVG/1.1/DTD/svg11.dtd">
<svg width="66mm" height="91mm" viewBox="-32 -3 66 91" xmlns="http://www.w3.org/2000/svg" version="1.1">
<title>OpenSCAD Model</title>
<path d="
M 5.21748,87.36 L 9.19846,86.938 L 12.9007,86.2346 L 16.3242,85.2498 L 19.469,83.9837 L 22.3351,82.4363
 L 24.9225,80.6075 L 27.1957,78.5315 L 29.1191,76.2426 L 30.6928,73.7407 L 31.9168,71.0259 L 32.7911,68.0981
 L 33.3157,64.9574 L 33.4906,61.6037 L 33.388,59.2502 L 33.0803,57.0124 L 32.5675,54.8904 L 31.8496,52.8842
 L 30.9265,50.9937 L 29.7984,49.2189 L 28.4651,47.5598 L 26.9545,46.0439 L 25.2941,44.6988 L 23.4839,43.5247
 L 21.5238,42.5215 L 19.4138,41.6892 L 17.1539,41.0279 L 14.7442,40.5374 L 14.7442,40.28 L 16.7858,39.7764
 L 18.7144,39.1124 L 20.53,38.288 L 22.2325,37.3033 L 23.822,36.1582 L 25.2985,34.8527 L 26.662,33.3868
 L 27.8755,31.8116 L 28.9024,30.1785 L 29.7426,28.4876 L 30.396,26.739 L 30.8628,24.9325 L 31.1429,23.0682
 L 31.2362,21.146 L 31.0738,18.0829 L 30.5867,15.2249 L 29.7749,12.5719 L 28.6382,10.124 L 27.1769,7.88123
 L 25.3908,5.84352 L 23.28,4.01089 L 20.8707,2.40413 L 18.1892,1.04457 L 15.2356,-0.0677948 L 12.0098,-0.932968
 L 8.51181,-1.55095 L 4.7417,-1.92175 L 0.699402,-2.04535 L -3.22421,-1.91782 L -6.89677,-1.53522 L -10.3183,-0.897552
 L -13.4887,-0.00482178 L -16.4081,1.14296 L -19.0763,2.54582 L -21.4935,4.20374 L -23.6215,6.07704 L -25.4221,8.12659
 L -26.8953,10.3524 L -28.0412,12.7544 L -28.8596,15.3326 L -29.3507,18.0871 L -29.5144,21.0178 L -29.4217,23.0069
 L -29.1436,24.925 L -28.6801,26.7722 L -28.0313,28.5485 L -27.1971,30.2537 L -26.1774,31.888 L -24.9724,33.4514
 L -23.6189,34.9027 L -22.1535,36.2016 L -20.5764,37.3479 L -18.8876,38.3418 L -17.087,39.1831 L -15.1747,39.8719
 L -13.1506,40.4082 L -13.1506,40.6666 L -15.4429,41.1425 L -17.6076,41.7973 L -19.6447,42.6308 L -21.5544,43.6431
 L -23.3365,44.8341 L -24.991,46.204 L -26.5181,47.7527 L -27.8768,49.442 L -29.0266,51.234 L -29.9672,53.1284
 L -30.6989,55.1255 L -31.2215,57.2251 L -31.535,59.4272 L -31.6395,61.7319 L -31.4627,65.0846 L -30.9323,68.2216
 L -30.0482,71.1429 L -28.8105,73.8487 L -27.2191,76.3388 L -25.2741,78.6133 L -22.9755,80.6721 L -20.3651,82.4838
 L -17.4851,84.0167 L -14.3356,85.271 L -10.9165,86.2465 L -7.22792,86.9433 L -3.26982,87.3613 L 0.957809,87.5007
 z
M -0.754898,34.096 L -2.22929,33.9067 L -3.59457,33.5912 L -4.85075,33.1494 L -5.9978,32.5815 L -7.03575,31.8873
 L -7.96458,31.0669 L -8.7764,30.1269 L -9.46333,29.0738 L -10.0254,27.9078 L -10.4625,26.6286 L -10.7747,25.2365
 L -10.9621,23.7313 L -11.0245,22.1131 L -10.7853,19.0708 L -10.0675,16.4964 L -8.87115,14.3902 L -7.1963,12.752
 L -5.04292,11.5818 L -2.41101,10.8797 L 0.699402,10.6457 L 3.86151,10.8797 L 6.53714,11.5818 L 8.72629,12.752
 L 10.429,14.3902 L 11.6451,16.4964 L 12.3749,19.0708 L 12.6181,22.1131 L 12.3775,25.309 L 11.6557,28.0132
 L 10.4527,30.2258 L 8.76848,31.9466 L 6.60306,33.1758 L 3.95644,33.9133 L 0.828598,34.1591 z
M -2.65698,74.4519 L -5.82419,73.5723 L -8.41554,72.1064 L -10.431,70.0541 L -11.8707,67.4155 L -12.7345,64.1905
 L -13.0224,60.3791 L -12.9501,58.6142 L -12.7331,56.9637 L -12.3715,55.4276 L -11.8653,54.0058 L -11.2145,52.6985
 L -10.419,51.5055 L -9.47888,50.4269 L -8.40598,49.4783 L -7.21214,48.6755 L -5.89735,48.0188 L -4.46164,47.5079
 L -2.90498,47.1431 L -1.22737,46.9241 L 0.571152,46.8511 L 2.50696,46.9202 L 4.30214,47.1272 L 5.95667,47.4723
 L 7.47055,47.9555 L 8.84381,48.5767 L 10.0764,49.3359 L 11.1684,50.2331 L 12.1171,51.2632 L 12.9198,52.4208
 L 13.5766,53.7059 L 14.0874,55.1185 L 14.4523,56.6587 L 14.6712,58.3264 L 14.7442,60.1217 L 14.6745,62.2267
 L 14.4654,64.1607 L 14.1169,65.9238 L 13.629,67.516 L 13.0017,68.9373 L 12.235,70.1877 L 11.3289,71.2671
 L 10.2838,72.1898 L 9.09921,72.9706 L 7.7753,73.6094 L 6.31203,74.1062 L 4.7094,74.4611 L 2.96741,74.6741
 L 1.08606,74.745 z
" stroke="black" fill="lightgray" stroke-width="0.5"/>
</svg>
