<?xml version="1.0" standalone="no"?>
<!DOCTYPE svg PUBLIC "-//W3C//DTD SVG 1.1//EN" "http://www.w3.org/Graphics/SVG/1.1/DTD/svg11.dtd">
<svg width="14mm" height="19mm" viewBox="-7 4 14 19" xmlns="http://www.w3.org/2000/svg" version="1.1">
<title>OpenSCAD Model</title>
<path d="
M 0.886108,22.2025 L 1.71819,22.0932 L 2.48164,21.9111 L 3.17647,21.6562 L 3.80267,21.3284 L 4.36026,20.9278
 L 4.84921,20.4544 L 5.27138,19.9058 L 5.6286,19.2796 L 5.92087,18.5758 L 6.14819,17.7945 L 6.31056,16.9356
 L 6.40799,15.9991 L 6.44046,14.9851 L 6.44046,4.60025 L 2.63951,4.60025 L 2.63951,15.0107 L 2.62715,15.6326
 L 2.59009,16.2024 L 2.52829,16.7201 L 2.44179,17.1858 L 2.33057,17.5995 L 2.19464,17.961 L 2.03398,18.2705
 L 1.84599,18.5338 L 1.62801,18.7565 L 1.38005,18.9388 L 1.1021,19.0805 L 0.794174,19.1817 L 0.456268,19.2425
 L 0.0883789,19.2627 L -0.27092,19.2437 L -0.5979,19.1865 L -0.892517,19.0912 L -1.1548,18.9577 L -1.38474,18.7862
 L -1.58232,18.5765 L -1.74757,18.3287 L -1.88599,18.0348 L -2.00311,17.687 L -2.09895,17.2854 L -2.17348,16.8298
 L -2.22672,16.3203 L -2.25867,15.757 L -2.26932,15.1397 L -2.26932,4.60025 L -6.07027,4.60025 L -6.07027,15.1783
 L -6.04082,16.1706 L -5.95245,17.0862 L -5.80521,17.925 L -5.59906,18.687 L -5.33401,19.3722 L -5.01006,19.9807
 L -4.62721,20.5124 L -4.17967,20.9704 L -3.66167,21.358 L -3.0732,21.6751 L -2.41425,21.9218 L -1.68483,22.0979
 L -0.884933,22.2036 L -0.0145874,22.2389 z
" stroke="black" fill="lightgray" stroke-width="0.5"/>
</svg>
