<?xml version="1.0" standalone="no"?>
<!DOCTYPE svg PUBLIC "-//W3C//DTD SVG 1.1//EN" "http://www.w3.org/Graphics/SVG/1.1/DTD/svg11.dtd">
<svg width="39mm" height="55mm" viewBox="-19 3 39 55" xmlns="http://www.w3.org/2000/svg" version="1.1">
<title>OpenSCAD Model</title>
<path d="
M 1.94336,57.3545 L 4.47672,56.9167 L 6.82155,56.187 L 8.97786,55.1655 L 10.9456,53.8521 L 12.7249,52.2469
 L 14.3157,50.3498 L 15.7053,48.1789 L 16.8811,45.7525 L 17.8431,43.0705 L 18.5914,40.1328 L 19.1258,36.9396
 L 19.4465,33.4908 L 19.5534,29.7864 L 19.4524,26.1586 L 19.1495,22.8068 L 18.6447,19.7311 L 17.9379,16.9315
 L 17.0291,14.408 L 15.9184,12.1606 L 14.6058,10.1893 L 13.1007,8.48694 L 11.4125,7.04651 L 9.54137,5.86797
 L 7.48717,4.95134 L 5.24995,4.2966 L 2.8297,3.90375 L 0.22641,3.7728 L -2.25519,3.86903 L -4.57591,4.15775
 L -6.73572,4.63893 L -8.73463,5.31258 L -10.5726,6.17871 L -12.2497,7.2373 L -13.7659,8.48839 L -15.099,9.9075
 L -16.2269,11.4702 L -17.1498,13.1764 L -17.8676,15.0262 L -18.3803,17.0196 L -18.6879,19.1566 L -18.7905,21.4371
 L -18.7029,23.6671 L -18.4402,25.7631 L -18.0025,27.7249 L -17.3895,29.5527 L -16.6015,31.2463 L -15.6384,32.8059
 L -14.5001,34.2313 L -13.2175,35.4927 L -11.8212,36.56 L -10.3114,37.4332 L -8.68796,38.1124 L -6.95091,38.5976
 L -5.10027,38.8886 L -3.136,38.9857 L -2.04231,38.9521 L -0.96991,38.8516 L 0.081192,38.6839 L 1.11101,38.4493
 L 2.11955,38.1475 L 3.10681,37.7788 L 4.07277,37.3429 L 4.98982,36.8479 L 5.83032,36.3017 L 6.59428,35.7041
 L 7.28171,35.0553 L 7.89258,34.3552 L 8.42691,33.6038 L 8.8847,32.8012 L 8.81262,35.0269 L 8.64034,37.0878
 L 8.36783,38.9838 L 7.99513,40.715 L 7.52223,42.2813 L 6.94913,43.6828 L 6.27582,44.9194 L 5.51416,45.991
 L 4.67601,46.8977 L 3.76135,47.6395 L 2.7702,48.2165 L 1.70256,48.6287 L 0.558411,48.876 L -0.662201,48.9584
 L -2.13898,48.8424 L -3.45483,48.4945 L -4.60976,47.9147 L -5.60376,47.1029 L -6.43683,46.0592 L -7.10898,44.7836
 L -7.62019,43.2761 L -17.8243,44.7062 L -17.2899,46.5328 L -16.6584,48.2134 L -15.9299,49.7481 L -15.1043,51.1369
 L -14.1818,52.3797 L -13.1622,53.4766 L -12.0457,54.4275 L -10.8171,55.2428 L -9.4615,55.9326 L -7.97891,56.497
 L -6.36931,56.936 L -4.63271,57.2496 L -2.7691,57.4377 L -0.778488,57.5004 z
M -0.991486,30.8538 L -1.91879,30.6941 L -2.78696,30.4279 L -3.59595,30.0552 L -4.34578,29.576 L -5.03644,28.9903
 L -5.66794,28.2982 L -6.22687,27.5208 L -6.69981,26.6796 L -7.08676,25.7744 L -7.38771,24.8053 L -7.60269,23.7723
 L -7.73167,22.6754 L -7.77466,21.5146 L -7.73167,20.3356 L -7.60269,19.2284 L -7.38771,18.1931 L -7.08676,17.2295
 L -6.69981,16.3378 L -6.22687,15.5179 L -5.66794,14.7698 L -5.03723,14.1083 L -4.34894,13.5486 L -3.60307,13.0907
 L -2.79961,12.7345 L -1.93857,12.4801 L -1.01996,12.3275 L -0.0437622,12.2766 L 0.946106,12.3354 L 1.88394,12.5117
 L 2.76974,12.8055 L 3.60349,13.2169 L 4.38519,13.7458 L 5.11485,14.3923 L 5.79247,15.1562 L 6.39751,16.0165
 L 6.90947,16.9516 L 7.32835,17.9617 L 7.65414,19.0468 L 7.88686,20.2067 L 8.02649,21.4417 L 8.07303,22.7515
 L 8.02649,23.7616 L 7.88686,24.7156 L 7.65414,25.6137 L 7.32835,26.4557 L 6.90947,27.2418 L 6.39751,27.9718
 L 5.79247,28.6459 L 5.11563,29.2458 L 4.38835,29.7534 L 3.61061,30.1687 L 2.78239,30.4917 L 1.90372,30.7225
 L 0.974594,30.8609 L -0.00498962,30.9071 z
" stroke="black" fill="lightgray" stroke-width="0.5"/>
</svg>
