<?xml version="1.0" standalone="no"?>
<!DOCTYPE svg PUBLIC "-//W3C//DTD SVG 1.1//EN" "http://www.w3.org/Graphics/SVG/1.1/DTD/svg11.dtd">
<svg width="16mm" height="19mm" viewBox="-8 4 16 19" xmlns="http://www.w3.org/2000/svg" version="1.1">
<title>OpenSCAD Model</title>
<path d="
M 1.07062,22.4713 L 1.94113,22.385 L 2.75143,22.241 L 3.5015,22.0395 L 4.19133,21.7804 L 4.82095,21.4637
 L 5.39034,21.0894 L 5.89114,20.6646 L 6.3149,20.1964 L 6.66161,19.6848 L 6.93127,19.1298 L 7.12389,18.5315
 L 7.23946,17.8898 L 7.27798,17.2046 L 7.26562,16.8349 L 7.22853,16.4768 L 7.16673,16.1302 L 7.0802,15.7952
 L 6.96895,15.4718 L 6.83296,15.1599 L 6.67227,14.8597 L 6.48506,14.5714 L 6.26945,14.2954 L 6.02544,14.0318
 L 5.75304,13.7805 L 5.45222,13.5417 L 5.12303,13.3152 L 4.76543,13.101 L 4.37074,12.8958 L 3.93031,12.6961
 L 3.44412,12.5019 L 2.91217,12.3133 L 2.33447,12.1301 L 1.71101,11.9525 L 1.04181,11.7803 L 0.540771,11.6479
 L 0.0904846,11.5232 L -0.309036,11.4061 L -0.657822,11.2966 L -0.955856,11.1947 L -1.20314,11.1005 L -1.39967,11.0139
 L -1.56572,10.9284 L -1.7215,10.8377 L -1.86703,10.7417 L -2.00232,10.6404 L -2.12733,10.534 L -2.24211,10.4222
 L -2.34663,10.3052 L -2.43893,10.1812 L -2.51703,10.0485 L -2.58093,9.90718 L -2.63063,9.75717 L -2.66614,9.59846
 L -2.68742,9.43109 L -2.69453,9.25504 L -2.67981,8.99171 L -2.63564,8.74652 L -2.56203,8.51949 L -2.45895,8.31059
 L -2.32645,8.11986 L -2.16451,7.94725 L -1.9731,7.7928 L -1.75378,7.65776 L -1.50816,7.54349 L -1.23627,7.45
 L -0.93808,7.37729 L -0.613586,7.32535 L -0.262817,7.29417 L 0.114227,7.2838 L 0.77182,7.33191 L 1.35318,7.47626
 L 1.85829,7.71684 L 2.28714,8.05365 L 2.63976,8.48671 L 2.91611,9.01599 L 3.11623,9.64149 L 6.80127,9.26796
 L 6.64162,8.6089 L 6.43517,8.0011 L 6.18193,7.4446 L 5.8819,6.93935 L 5.53506,6.4854 L 5.14143,6.0827
 L 4.70102,5.73131 L 4.21143,5.42876 L 3.6703,5.17274 L 3.07764,4.9633 L 2.43343,4.8004 L 1.73767,4.68404
 L 0.990387,4.61421 L 0.191559,4.59094 L -0.631592,4.61775 L -1.40768,4.69823 L -2.13672,4.83232 L -2.81868,5.02007
 L -3.45358,5.26144 L -4.04141,5.55647 L -4.58218,5.90515 L -5.06242,6.29984 L -5.46878,6.73291 L -5.80125,7.20438
 L -6.05983,7.71423 L -6.24454,8.26247 L -6.35536,8.84909 L -6.3923,9.47411 L -6.38481,9.76454 L -6.36235,10.0468
 L -6.32489,10.3209 L -6.27245,10.5869 L -6.20502,10.8447 L -6.12262,11.0944 L -6.02522,11.3359 L -5.91385,11.569
 L -5.7896,11.7935 L -5.65247,12.0092 L -5.50244,12.2163 L -5.33954,12.4147 L -5.16376,12.6044 L -4.9751,12.7854
 L -4.77066,12.9596 L -4.54756,13.1288 L -4.30579,13.2931 L -4.04535,13.4523 L -3.76625,13.6065 L -3.46849,13.7557
 L -3.15205,13.9 L -2.79297,14.0452 L -2.36737,14.1976 L -1.87526,14.357 L -1.31664,14.5235 L -0.691498,14.6972
 L 0.000152588,14.878 L 0.758331,15.0658 L 1.13881,15.1667 L 1.49246,15.2778 L 1.81931,15.3992 L 2.11931,15.5308
 L 2.3925,15.6727 L 2.63885,15.8248 L 2.8584,15.9871 L 3.04985,16.16 L 3.21184,16.3436 L 3.34439,16.5381
 L 3.44748,16.7433 L 3.5211,16.9593 L 3.56529,17.1861 L 3.58002,17.4237 L 3.56332,17.739 L 3.51323,18.0295
 L 3.42975,18.2954 L 3.31287,18.5365 L 3.1626,18.7529 L 2.97893,18.9447 L 2.76187,19.1117 L 2.51012,19.2552
 L 2.22232,19.3767 L 1.89851,19.4761 L 1.53868,19.5534 L 1.14282,19.6086 L 0.710938,19.6418 L 0.243042,19.6528
 L -0.210251,19.6385 L -0.635178,19.5955 L -1.03171,19.5238 L -1.39984,19.4235 L -1.73959,19.2945 L -2.05095,19.1369
 L -2.33391,18.9505 L -2.58948,18.7395 L -2.81876,18.5077 L -3.02174,18.2552 L -3.19846,17.9818 L -3.34886,17.6877
 L -3.47298,17.3729 L -3.57082,17.0372 L -7.24275,17.514 L -7.06027,18.186 L -6.82205,18.8108 L -6.52809,19.3882
 L -6.17838,19.9183 L -5.77292,20.4011 L -5.31174,20.8365 L -4.79478,21.2247 L -4.22705,21.563 L -3.61359,21.8494
 L -2.95436,22.0836 L -2.2494,22.2659 L -1.49872,22.396 L -0.702286,22.4741 L 0.139877,22.5001 z
" stroke="black" fill="lightgray" stroke-width="0.5"/>
</svg>
