<?xml version="1.0" standalone="no"?>
<!DOCTYPE svg PUBLIC "-//W3C//DTD SVG 1.1//EN" "http://www.w3.org/Graphics/SVG/1.1/DTD/svg11.dtd">
<svg width="13mm" height="19mm" viewBox="-7 4 13 19" xmlns="http://www.w3.org/2000/svg" version="1.1">
<title>OpenSCAD Model</title>
<path d="
M 0.29425,22.2063 L 1.00578,22.1085 L 1.66893,21.9455 L 2.28368,21.7172 L 2.85005,21.4238 L 3.36804,21.0652
 L 3.83766,20.6414 L 4.2513,20.1602 L 4.60132,19.6295 L 4.8877,19.0495 L 5.11043,18.42 L 5.26952,17.741
 L 5.36497,17.0127 L 5.39679,16.2349 L 5.39679,4.60025 L -2.26932,4.60025 L -2.26932,7.57658 L 1.60876,7.57658
 L 1.60876,16.3249 L 1.59746,16.7165 L 1.56354,17.0812 L 1.507,17.4191 L 1.42786,17.7302 L 1.3261,18.0145
 L 1.20172,18.2719 L 1.05472,18.5025 L 0.888535,18.7042 L 0.706589,18.8749 L 0.50885,19.0145 L 0.295349,19.1231
 L 0.0660706,19.2007 L -0.17897,19.2472 L -0.439804,19.2627 L -0.666977,19.2475 L -0.884689,19.2017 L -1.09296,19.1255
 L -1.29175,19.0187 L -1.48108,18.8815 L -1.66095,18.7137 L -1.83136,18.5155 L -1.99042,18.2861 L -2.13634,18.0252
 L -2.26912,17.7328 L -2.38876,17.4088 L -2.49527,17.0533 L -2.58864,16.6662 L -2.66888,16.2476 L -6.41815,16.8017
 L -6.28459,17.5277 L -6.10475,18.2037 L -5.87863,18.8298 L -5.60622,19.4059 L -5.28754,19.9321 L -4.92256,20.4083
 L -4.51131,20.8346 L -4.05641,21.2072 L -3.56049,21.5224 L -3.02354,21.7803 L -2.4456,21.981 L -1.82663,22.1243
 L -1.16664,22.2102 L -0.465637,22.2389 z
" stroke="black" fill="lightgray" stroke-width="0.5"/>
</svg>
