<?xml version="1.0" standalone="no"?>
<!DOCTYPE svg PUBLIC "-//W3C//DTD SVG 1.1//EN" "http://www.w3.org/Graphics/SVG/1.1/DTD/svg11.dtd">
<svg width="13mm" height="18mm" viewBox="-6 4 13 18" xmlns="http://www.w3.org/2000/svg" version="1.1">
<title>OpenSCAD Model</title>
<path d="
M 6.98158,19.2884 L 2.81982,19.2884 L 2.81982,4.60025 L -0.607376,4.60025 L -0.827713,4.98206 L -1.07645,5.33965
 L -1.35358,5.67308 L -1.65913,5.98232 L -1.99309,6.26736 L -2.35544,6.52823 L -2.74622,6.76491 L -3.15875,6.97339
 L -3.58655,7.14981 L -4.0296,7.29414 L -4.48792,7.4064 L -4.96147,7.48659 L -5.45029,7.5347 L -5.95436,7.55074
 L -5.95436,10.308 L -5.48619,10.2933 L -5.02406,10.2491 L -4.56798,10.1755 L -4.11795,10.0724 L -3.67397,9.93994
 L -3.23604,9.77798 L -2.80415,9.58659 L -2.39568,9.37358 L -2.02795,9.1469 L -1.70097,8.90654 L -1.41475,8.65251
 L -1.16928,8.3848 L -0.964569,8.10342 L -0.800613,7.80838 L -0.800613,19.2884 L -5.81262,19.2884 L -5.81262,21.9812
 L 6.98158,21.9812 z
" stroke="black" fill="lightgray" stroke-width="0.5"/>
</svg>
