  0
SECTION
  2
BLOCKS
  0
ENDSEC
  0
SECTION
  2
ENTITIES
  0
LINE
  8
0
 10
6.55637
 20
-19.2661
 11
-1.86993
 21
-19.2661
  0
LINE
  8
0
 10
-1.86993
 20
-19.2661
 11
-1.74979
 21
-19.0164
  0
LINE
  8
0
 10
-1.74979
 20
-19.0164
 11
-1.61018
 21
-18.7676
  0
LINE
  8
0
 10
-1.61018
 20
-18.7676
 11
-1.45113
 21
-18.52
  0
LINE
  8
0
 10
-1.45113
 20
-18.52
 11
-1.2726
 21
-18.2733
  0
LINE
  8
0
 10
-1.2726
 20
-18.2733
 11
-1.07463
 21
-18.0278
  0
LINE
  8
0
 10
-1.07463
 20
-18.0278
 11
-0.857193
 21
-17.7833
  0
LINE
  8
0
 10
-0.857193
 20
-17.7833
 11
-0.6203
 21
-17.5398
  0
LINE
  8
0
 10
-0.6203
 20
-17.5398
 11
-0.340225
 21
-17.2747
  0
LINE
  8
0
 10
-0.340225
 20
-17.2747
 11
0.00660706
 21
-16.9655
  0
LINE
  8
0
 10
0.00660706
 20
-16.9655
 11
0.420242
 21
-16.6121
  0
LINE
  8
0
 10
0.420242
 20
-16.6121
 11
0.900681
 21
-16.2145
  0
LINE
  8
0
 10
0.900681
 20
-16.2145
 11
1.44789
 21
-15.7727
  0
LINE
  8
0
 10
1.44789
 20
-15.7727
 11
2.06189
 21
-15.2868
  0
LINE
  8
0
 10
2.06189
 20
-15.2868
 11
2.74269
 21
-14.7567
  0
LINE
  8
0
 10
2.74269
 20
-14.7567
 11
3.22899
 21
-14.3637
  0
LINE
  8
0
 10
3.22899
 20
-14.3637
 11
3.67928
 21
-13.9726
  0
LINE
  8
0
 10
3.67928
 20
-13.9726
 11
4.09352
 21
-13.5833
  0
LINE
  8
0
 10
4.09352
 20
-13.5833
 11
4.47176
 21
-13.1959
  0
LINE
  8
0
 10
4.47176
 20
-13.1959
 11
4.81398
 21
-12.8103
  0
LINE
  8
0
 10
4.81398
 20
-12.8103
 11
5.12016
 21
-12.4265
  0
LINE
  8
0
 10
5.12016
 20
-12.4265
 11
5.39034
 21
-12.0446
  0
LINE
  8
0
 10
5.39034
 20
-12.0446
 11
5.62448
 21
-11.6621
  0
LINE
  8
0
 10
5.62448
 20
-11.6621
 11
5.8226
 21
-11.2768
  0
LINE
  8
0
 10
5.8226
 20
-11.2768
 11
5.98471
 21
-10.8885
  0
LINE
  8
0
 10
5.98471
 20
-10.8885
 11
6.11078
 21
-10.4974
  0
LINE
  8
0
 10
6.11078
 20
-10.4974
 11
6.20084
 21
-10.1033
  0
LINE
  8
0
 10
6.20084
 20
-10.1033
 11
6.25487
 21
-9.70636
  0
LINE
  8
0
 10
6.25487
 20
-9.70636
 11
6.27289
 21
-9.30653
  0
LINE
  8
0
 10
6.27289
 20
-9.30653
 11
6.23949
 21
-8.70955
  0
LINE
  8
0
 10
6.23949
 20
-8.70955
 11
6.13931
 21
-8.14806
  0
LINE
  8
0
 10
6.13931
 20
-8.14806
 11
5.97235
 21
-7.62207
  0
LINE
  8
0
 10
5.97235
 20
-7.62207
 11
5.73859
 21
-7.13156
  0
LINE
  8
0
 10
5.73859
 20
-7.13156
 11
5.43805
 21
-6.67656
  0
LINE
  8
0
 10
5.43805
 20
-6.67656
 11
5.07072
 21
-6.25705
  0
LINE
  8
0
 10
5.07072
 20
-6.25705
 11
4.63661
 21
-5.87305
  0
LINE
  8
0
 10
4.63661
 20
-5.87305
 11
4.14517
 21
-5.53288
  0
LINE
  8
0
 10
4.14517
 20
-5.53288
 11
3.60588
 21
-5.24507
  0
LINE
  8
0
 10
3.60588
 20
-5.24507
 11
3.01872
 21
-5.00957
  0
LINE
  8
0
 10
3.01872
 20
-5.00957
 11
2.38371
 21
-4.82643
  0
LINE
  8
0
 10
2.38371
 20
-4.82643
 11
1.70085
 21
-4.6956
  0
LINE
  8
0
 10
1.70085
 20
-4.6956
 11
0.970139
 21
-4.6171
  0
LINE
  8
0
 10
0.970139
 20
-4.6171
 11
0.191559
 21
-4.59094
  0
LINE
  8
0
 10
0.191559
 20
-4.59094
 11
-0.561935
 21
-4.61803
  0
LINE
  8
0
 10
-0.561935
 20
-4.61803
 11
-1.26889
 21
-4.69928
  0
LINE
  8
0
 10
-1.26889
 20
-4.69928
 11
-1.92929
 21
-4.8347
  0
LINE
  8
0
 10
-1.92929
 20
-4.8347
 11
-2.54315
 21
-5.02428
  0
LINE
  8
0
 10
-2.54315
 20
-5.02428
 11
-3.11047
 21
-5.26804
  0
LINE
  8
0
 10
-3.11047
 20
-5.26804
 11
-3.63124
 21
-5.56596
  0
LINE
  8
0
 10
-3.63124
 20
-5.56596
 11
-4.10547
 21
-5.91808
  0
LINE
  8
0
 10
-4.10547
 20
-5.91808
 11
-4.53052
 21
-6.32166
  0
LINE
  8
0
 10
-4.53052
 20
-6.32166
 11
-4.90376
 21
-6.77415
  0
LINE
  8
0
 10
-4.90376
 20
-6.77415
 11
-5.2252
 21
-7.27557
  0
LINE
  8
0
 10
-5.2252
 20
-7.27557
 11
-5.49484
 21
-7.82588
  0
LINE
  8
0
 10
-5.49484
 20
-7.82588
 11
-5.71268
 21
-8.42513
  0
LINE
  8
0
 10
-5.71268
 20
-8.42513
 11
-5.87871
 21
-9.07327
  0
LINE
  8
0
 10
-5.87871
 20
-9.07327
 11
-5.99294
 21
-9.77032
  0
LINE
  8
0
 10
-5.99294
 20
-9.77032
 11
-2.34663
 21
-9.97647
  0
LINE
  8
0
 10
-2.34663
 20
-9.97647
 11
-2.28632
 21
-9.63219
  0
LINE
  8
0
 10
-2.28632
 20
-9.63219
 11
-2.20837
 21
-9.3134
  0
LINE
  8
0
 10
-2.20837
 20
-9.3134
 11
-2.11279
 21
-9.02011
  0
LINE
  8
0
 10
-2.11279
 20
-9.02011
 11
-1.99962
 21
-8.75232
  0
LINE
  8
0
 10
-1.99962
 20
-8.75232
 11
-1.8688
 21
-8.51003
  0
LINE
  8
0
 10
-1.8688
 20
-8.51003
 11
-1.72038
 21
-8.29323
  0
LINE
  8
0
 10
-1.72038
 20
-8.29323
 11
-1.55434
 21
-8.10193
  0
LINE
  8
0
 10
-1.55434
 20
-8.10193
 11
-1.36832
 21
-7.93614
  0
LINE
  8
0
 10
-1.36832
 20
-7.93614
 11
-1.15993
 21
-7.79585
  0
LINE
  8
0
 10
-1.15993
 20
-7.79585
 11
-0.929199
 21
-7.68108
  0
LINE
  8
0
 10
-0.929199
 20
-7.68108
 11
-0.676117
 21
-7.5918
  0
LINE
  8
0
 10
-0.676117
 20
-7.5918
 11
-0.400696
 21
-7.52803
  0
LINE
  8
0
 10
-0.400696
 20
-7.52803
 11
-0.102905
 21
-7.48978
  0
LINE
  8
0
 10
-0.102905
 20
-7.48978
 11
0.217209
 21
-7.47702
  0
LINE
  8
0
 10
0.217209
 20
-7.47702
 11
0.540634
 21
-7.48781
  0
LINE
  8
0
 10
0.540634
 20
-7.48781
 11
0.840912
 21
-7.52014
  0
LINE
  8
0
 10
0.840912
 20
-7.52014
 11
1.11806
 21
-7.57404
  0
LINE
  8
0
 10
1.11806
 20
-7.57404
 11
1.37207
 21
-7.64949
  0
LINE
  8
0
 10
1.37207
 20
-7.64949
 11
1.60292
 21
-7.74651
  0
LINE
  8
0
 10
1.60292
 20
-7.74651
 11
1.81064
 21
-7.86508
  0
LINE
  8
0
 10
1.81064
 20
-7.86508
 11
1.99522
 21
-8.00522
  0
LINE
  8
0
 10
1.99522
 20
-8.00522
 11
2.15593
 21
-8.16429
  0
LINE
  8
0
 10
2.15593
 20
-8.16429
 11
2.2919
 21
-8.33968
  0
LINE
  8
0
 10
2.2919
 20
-8.33968
 11
2.40315
 21
-8.53136
  0
LINE
  8
0
 10
2.40315
 20
-8.53136
 11
2.48969
 21
-8.73935
  0
LINE
  8
0
 10
2.48969
 20
-8.73935
 11
2.5515
 21
-8.96365
  0
LINE
  8
0
 10
2.5515
 20
-8.96365
 11
2.58858
 21
-9.20427
  0
LINE
  8
0
 10
2.58858
 20
-9.20427
 11
2.60095
 21
-9.4612
  0
LINE
  8
0
 10
2.60095
 20
-9.4612
 11
2.59476
 21
-9.6154
  0
LINE
  8
0
 10
2.59476
 20
-9.6154
 11
2.57622
 21
-9.76884
  0
LINE
  8
0
 10
2.57622
 20
-9.76884
 11
2.54532
 21
-9.92148
  0
LINE
  8
0
 10
2.54532
 20
-9.92148
 11
2.50204
 21
-10.0733
  0
LINE
  8
0
 10
2.50204
 20
-10.0733
 11
2.44643
 21
-10.2244
  0
LINE
  8
0
 10
2.44643
 20
-10.2244
 11
2.37843
 21
-10.3747
  0
LINE
  8
0
 10
2.37843
 20
-10.3747
 11
2.29808
 21
-10.5242
  0
LINE
  8
0
 10
2.29808
 20
-10.5242
 11
2.20695
 21
-10.674
  0
LINE
  8
0
 10
2.20695
 20
-10.674
 11
2.10663
 21
-10.825
  0
LINE
  8
0
 10
2.10663
 20
-10.825
 11
1.9971
 21
-10.9774
  0
LINE
  8
0
 10
1.9971
 20
-10.9774
 11
1.87837
 21
-11.1311
  0
LINE
  8
0
 10
1.87837
 20
-11.1311
 11
1.75046
 21
-11.2861
  0
LINE
  8
0
 10
1.75046
 20
-11.2861
 11
1.61334
 21
-11.4424
  0
LINE
  8
0
 10
1.61334
 20
-11.4424
 11
1.46703
 21
-11.6
  0
LINE
  8
0
 10
1.46703
 20
-11.6
 11
1.2906
 21
-11.7767
  0
LINE
  8
0
 10
1.2906
 20
-11.7767
 11
1.06317
 21
-11.9902
  0
LINE
  8
0
 10
1.06317
 20
-11.9902
 11
0.784729
 21
-12.2406
  0
LINE
  8
0
 10
0.784729
 20
-12.2406
 11
0.455261
 21
-12.5277
  0
LINE
  8
0
 10
0.455261
 20
-12.5277
 11
0.0747833
 21
-12.8517
  0
LINE
  8
0
 10
0.0747833
 20
-12.8517
 11
-0.356674
 21
-13.2124
  0
LINE
  8
0
 10
-0.356674
 20
-13.2124
 11
-0.839188
 21
-13.61
  0
LINE
  8
0
 10
-0.839188
 20
-13.61
 11
-1.46855
 21
-14.1313
  0
LINE
  8
0
 10
-1.46855
 20
-14.1313
 11
-2.05348
 21
-14.635
  0
LINE
  8
0
 10
-2.05348
 20
-14.635
 11
-2.59399
 21
-15.121
  0
LINE
  8
0
 10
-2.59399
 20
-15.121
 11
-3.09006
 21
-15.5895
  0
LINE
  8
0
 10
-3.09006
 20
-15.5895
 11
-3.54167
 21
-16.0403
  0
LINE
  8
0
 10
-3.54167
 20
-16.0403
 11
-3.94887
 21
-16.4735
  0
LINE
  8
0
 10
-3.94887
 20
-16.4735
 11
-4.31161
 21
-16.8891
  0
LINE
  8
0
 10
-4.31161
 20
-16.8891
 11
-4.64093
 21
-17.2957
  0
LINE
  8
0
 10
-4.64093
 20
-17.2957
 11
-4.94789
 21
-17.7021
  0
LINE
  8
0
 10
-4.94789
 20
-17.7021
 11
-5.23251
 21
-18.1082
  0
LINE
  8
0
 10
-5.23251
 20
-18.1082
 11
-5.4948
 21
-18.5141
  0
LINE
  8
0
 10
-5.4948
 20
-18.5141
 11
-5.73474
 21
-18.9197
  0
LINE
  8
0
 10
-5.73474
 20
-18.9197
 11
-5.95233
 21
-19.325
  0
LINE
  8
0
 10
-5.95233
 20
-19.325
 11
-6.14758
 21
-19.7301
  0
LINE
  8
0
 10
-6.14758
 20
-19.7301
 11
-6.14758
 21
-22.2425
  0
LINE
  8
0
 10
-6.14758
 20
-22.2425
 11
6.55637
 21
-22.2425
  0
LINE
  8
0
 10
6.55637
 20
-22.2425
 11
6.55637
 21
-19.2661
  0
ENDSEC
  0
SECTION
  2
OBJECTS
  0
DICTIONARY
  0
ENDSEC
  0
EOF
