<?xml version="1.0" standalone="no"?>
<!DOCTYPE svg PUBLIC "-//W3C//DTD SVG 1.1//EN" "http://www.w3.org/Graphics/SVG/1.1/DTD/svg11.dtd">
<svg width="14mm" height="18mm" viewBox="-6 4 14 18" xmlns="http://www.w3.org/2000/svg" version="1.1">
<title>OpenSCAD Model</title>
<path d="
M 0.446045,21.9346 L 1.39185,21.7946 L 2.26874,21.5612 L 3.07675,21.2345 L 3.81589,20.8145 L 4.48613,20.3011
 L 5.08748,19.6944 L 5.61394,19.0009 L 6.0594,18.2271 L 6.42387,17.3732 L 6.70737,16.439 L 6.90985,15.4247
 L 7.03134,14.3301 L 7.07184,13.1554 L 7.0291,11.967 L 6.90091,10.8683 L 6.68726,9.85922 L 6.38814,8.93985
 L 6.00357,8.11012 L 5.53354,7.37007 L 4.97803,6.71968 L 4.33633,6.15738 L 3.6076,5.68158 L 2.79182,5.2923
 L 1.88899,4.98953 L 0.899124,4.77327 L -0.17778,4.64351 L -1.34174,4.60025 L -5.99294,4.60025 L -5.99294,21.9812
 L -0.568619,21.9812 z
M -2.19217,19.0437 L -2.19217,7.53783 L -1.40614,7.53783 L -0.734192,7.56531 L -0.117218,7.64774 L 0.444809,7.78514
 L 0.951889,7.97751 L 1.40402,8.22482 L 1.80119,8.52711 L 2.14342,8.88435 L 2.43568,9.30124 L 2.683,9.78253
 L 2.88533,10.3283 L 3.04271,10.9384 L 3.15512,11.613 L 3.22256,12.352 L 3.24504,13.1554 L 3.1609,14.7176
 L 2.90848,16.0394 L 2.48776,17.1209 L 1.89876,17.9621 L 1.14148,18.563 L 0.215897,18.9235 L -0.877945,19.0437
 z
" stroke="black" fill="lightgray" stroke-width="0.5"/>
</svg>
