solid OpenSCAD_Model
  facet normal 0 0 -1
    outer loop
      vertex 9.91902 -32.934 0
      vertex 21.5245 -30.4818 0
      vertex 21.414 -34.1595 0
    endloop
  endfacet
  facet normal 0 0 -1
    outer loop
      vertex 9.77464 -35.2102 0
      vertex 21.414 -34.1595 0
      vertex 21.0827 -37.5721 0
    endloop
  endfacet
  facet normal -0 0 -1
    outer loop
      vertex 21.5245 -30.4818 0
      vertex 9.91902 -32.934 0
      vertex 9.96713 -30.4818 0
    endloop
  endfacet
  facet normal 0 0 -1
    outer loop
      vertex 9.53403 -37.3105 0
      vertex 21.0827 -37.5721 0
      vertex 20.5305 -40.7197 0
    endloop
  endfacet
  facet normal 0 0 -1
    outer loop
      vertex 21.5245 -30.4818 0
      vertex 9.96713 -30.4818 0
      vertex 21.414 -26.8075 0
    endloop
  endfacet
  facet normal 0 0 -1
    outer loop
      vertex 9.19714 -39.2349 0
      vertex 20.5305 -40.7197 0
      vertex 19.7574 -43.6022 0
    endloop
  endfacet
  facet normal 0 0 -1
    outer loop
      vertex 21.414 -26.8075 0
      vertex 9.77545 -25.7748 0
      vertex 21.0827 -23.4045 0
    endloop
  endfacet
  facet normal 0 0 -1
    outer loop
      vertex 8.76404 -40.9834 0
      vertex 19.7574 -43.6022 0
      vertex 18.7634 -46.2196 0
    endloop
  endfacet
  facet normal 0 0 -1
    outer loop
      vertex 9.20041 -21.792 0
      vertex 21.0827 -23.4045 0
      vertex 9.77545 -25.7748 0
    endloop
  endfacet
  facet normal 0 0 -1
    outer loop
      vertex 8.23466 -42.556 0
      vertex 18.7634 -46.2196 0
      vertex 17.5486 -48.572 0
    endloop
  endfacet
  facet normal 0 0 -1
    outer loop
      vertex 21.0827 -23.4045 0
      vertex 9.20041 -21.792 0
      vertex 20.5305 -20.2729 0
    endloop
  endfacet
  facet normal 0 0 -1
    outer loop
      vertex 7.60905 -43.9527 0
      vertex 17.5486 -48.572 0
      vertex 16.1129 -50.6593 0
    endloop
  endfacet
  facet normal -0 0 -1
    outer loop
      vertex 20.5305 -20.2729 0
      vertex 9.20041 -21.792 0
      vertex 19.7574 -17.4126 0
    endloop
  endfacet
  facet normal 0 0 -1
    outer loop
      vertex 6.88814 -45.1679 0
      vertex 16.1129 -50.6593 0
      vertex 14.4706 -52.4743 0
    endloop
  endfacet
  facet normal 0 0 -1
    outer loop
      vertex 9.77545 -25.7748 0
      vertex 21.414 -26.8075 0
      vertex 9.96713 -30.4818 0
    endloop
  endfacet
  facet normal 0 0 -1
    outer loop
      vertex 6.07256 -46.1962 0
      vertex 14.4706 -52.4743 0
      vertex 12.6359 -54.01 0
    endloop
  endfacet
  facet normal 0 0 -1
    outer loop
      vertex 8.24199 -18.5333 0
      vertex 19.7574 -17.4126 0
      vertex 9.20041 -21.792 0
    endloop
  endfacet
  facet normal 0 0 -1
    outer loop
      vertex 5.16232 -47.0375 0
      vertex 12.6359 -54.01 0
      vertex 10.6086 -55.2666 0
    endloop
  endfacet
  facet normal -0 0 -1
    outer loop
      vertex 19.7574 -17.4126 0
      vertex 8.24199 -18.5333 0
      vertex 18.7634 -14.8237 0
    endloop
  endfacet
  facet normal 0 0 -1
    outer loop
      vertex 6.90021 -15.9987 0
      vertex 17.5486 -12.5062 0
      vertex 8.24199 -18.5333 0
    endloop
  endfacet
  facet normal -0 0 -1
    outer loop
      vertex 18.7634 -14.8237 0
      vertex 8.24199 -18.5333 0
      vertex 17.5486 -12.5062 0
    endloop
  endfacet
  facet normal -0 0 -1
    outer loop
      vertex 21.414 -34.1595 0
      vertex 9.77464 -35.2102 0
      vertex 9.91902 -32.934 0
    endloop
  endfacet
  facet normal 0 0 -1
    outer loop
      vertex 21.0827 -37.5721 0
      vertex 9.53403 -37.3105 0
      vertex 9.77464 -35.2102 0
    endloop
  endfacet
  facet normal 0 0 -1
    outer loop
      vertex 20.5305 -40.7197 0
      vertex 9.19714 -39.2349 0
      vertex 9.53403 -37.3105 0
    endloop
  endfacet
  facet normal 0 0 -1
    outer loop
      vertex 19.7574 -43.6022 0
      vertex 8.76404 -40.9834 0
      vertex 9.19714 -39.2349 0
    endloop
  endfacet
  facet normal 0 0 -1
    outer loop
      vertex 5.16232 -47.0375 0
      vertex 10.6086 -55.2666 0
      vertex 8.38889 -56.2439 0
    endloop
  endfacet
  facet normal 0 0 -1
    outer loop
      vertex 18.7634 -46.2196 0
      vertex 8.23466 -42.556 0
      vertex 8.76404 -40.9834 0
    endloop
  endfacet
  facet normal 0 0 -1
    outer loop
      vertex 17.5486 -48.572 0
      vertex 7.60905 -43.9527 0
      vertex 8.23466 -42.556 0
    endloop
  endfacet
  facet normal 0 0 -1
    outer loop
      vertex 16.1129 -50.6593 0
      vertex 6.88814 -45.1679 0
      vertex 7.60905 -43.9527 0
    endloop
  endfacet
  facet normal 0 0 -1
    outer loop
      vertex 14.4706 -52.4743 0
      vertex 6.07256 -46.1962 0
      vertex 6.88814 -45.1679 0
    endloop
  endfacet
  facet normal 0 0 -1
    outer loop
      vertex 4.15741 -47.6918 0
      vertex 8.38889 -56.2439 0
      vertex 5.97665 -56.942 0
    endloop
  endfacet
  facet normal 0 0 -1
    outer loop
      vertex 12.6359 -54.01 0
      vertex 5.16232 -47.0375 0
      vertex 6.07256 -46.1962 0
    endloop
  endfacet
  facet normal 0 0 -1
    outer loop
      vertex 8.38889 -56.2439 0
      vertex 4.15741 -47.6918 0
      vertex 5.16232 -47.0375 0
    endloop
  endfacet
  facet normal 0 0 -1
    outer loop
      vertex 3.05783 -48.1593 0
      vertex 5.97665 -56.942 0
      vertex 3.37192 -57.3608 0
    endloop
  endfacet
  facet normal 0 0 -1
    outer loop
      vertex 5.97665 -56.942 0
      vertex 3.05783 -48.1593 0
      vertex 4.15741 -47.6918 0
    endloop
  endfacet
  facet normal 0 0 -1
    outer loop
      vertex 3.37192 -57.3608 0
      vertex 1.86359 -48.4397 0
      vertex 3.05783 -48.1593 0
    endloop
  endfacet
  facet normal 0 0 -1
    outer loop
      vertex 0.574677 -57.5004 0
      vertex 1.86359 -48.4397 0
      vertex 3.37192 -57.3608 0
    endloop
  endfacet
  facet normal 0 0 -1
    outer loop
      vertex 0.574677 -57.5004 0
      vertex 0.574677 -48.5332 0
      vertex 1.86359 -48.4397 0
    endloop
  endfacet
  facet normal 0 0 -1
    outer loop
      vertex 0.574677 -57.5004 0
      vertex -0.714767 -48.4397 0
      vertex 0.574677 -48.5332 0
    endloop
  endfacet
  facet normal 0 0 -1
    outer loop
      vertex -2.22295 -57.3608 0
      vertex -0.714767 -48.4397 0
      vertex 0.574677 -57.5004 0
    endloop
  endfacet
  facet normal -0 0 -1
    outer loop
      vertex -0.714767 -48.4397 0
      vertex -2.22295 -57.3608 0
      vertex -1.91037 -48.1593 0
    endloop
  endfacet
  facet normal 0 0 -1
    outer loop
      vertex -4.8289 -56.942 0
      vertex -1.91037 -48.1593 0
      vertex -2.22295 -57.3608 0
    endloop
  endfacet
  facet normal -0 0 -1
    outer loop
      vertex -1.91037 -48.1593 0
      vertex -4.8289 -56.942 0
      vertex -3.01208 -47.6918 0
    endloop
  endfacet
  facet normal 0 0 -1
    outer loop
      vertex -7.24318 -56.2439 0
      vertex -3.01208 -47.6918 0
      vertex -4.8289 -56.942 0
    endloop
  endfacet
  facet normal -0 0 -1
    outer loop
      vertex -3.01208 -47.6918 0
      vertex -7.24318 -56.2439 0
      vertex -4.01993 -47.0375 0
    endloop
  endfacet
  facet normal 0 0 -1
    outer loop
      vertex -9.46577 -55.2666 0
      vertex -4.01993 -47.0375 0
      vertex -7.24318 -56.2439 0
    endloop
  endfacet
  facet normal 0 0 -1
    outer loop
      vertex -11.4967 -54.01 0
      vertex -4.01993 -47.0375 0
      vertex -9.46577 -55.2666 0
    endloop
  endfacet
  facet normal -0 0 -1
    outer loop
      vertex -4.01993 -47.0375 0
      vertex -11.4967 -54.01 0
      vertex -4.93388 -46.1962 0
    endloop
  endfacet
  facet normal 0 0 -1
    outer loop
      vertex -13.3359 -52.4743 0
      vertex -4.93388 -46.1962 0
      vertex -11.4967 -54.01 0
    endloop
  endfacet
  facet normal -0 0 -1
    outer loop
      vertex -4.93388 -46.1962 0
      vertex -13.3359 -52.4743 0
      vertex -5.75398 -45.1679 0
    endloop
  endfacet
  facet normal 0 0 -1
    outer loop
      vertex -14.9835 -50.6593 0
      vertex -5.75398 -45.1679 0
      vertex -13.3359 -52.4743 0
    endloop
  endfacet
  facet normal -0 0 -1
    outer loop
      vertex -5.75398 -45.1679 0
      vertex -14.9835 -50.6593 0
      vertex -6.48019 -43.9527 0
    endloop
  endfacet
  facet normal 0 0 -1
    outer loop
      vertex -16.4242 -48.572 0
      vertex -6.48019 -43.9527 0
      vertex -14.9835 -50.6593 0
    endloop
  endfacet
  facet normal -0 0 -1
    outer loop
      vertex -7.11079 -42.556 0
      vertex -17.6432 -46.2196 0
      vertex -7.64439 -40.9834 0
    endloop
  endfacet
  facet normal 0 0 -1
    outer loop
      vertex -17.6432 -46.2196 0
      vertex -7.11079 -42.556 0
      vertex -16.4242 -48.572 0
    endloop
  endfacet
  facet normal -0 0 -1
    outer loop
      vertex -6.48019 -43.9527 0
      vertex -16.4242 -48.572 0
      vertex -7.11079 -42.556 0
    endloop
  endfacet
  facet normal -0 0 -1
    outer loop
      vertex 17.5486 -12.5062 0
      vertex 6.90021 -15.9987 0
      vertex 16.1129 -10.46 0
    endloop
  endfacet
  facet normal -0 0 -1
    outer loop
      vertex 16.1129 -10.46 0
      vertex 6.90021 -15.9987 0
      vertex 14.4706 -8.68585 0
    endloop
  endfacet
  facet normal -0 0 -1
    outer loop
      vertex 14.4706 -8.68585 0
      vertex 6.90021 -15.9987 0
      vertex 12.6359 -7.18465 0
    endloop
  endfacet
  facet normal 0 0 -1
    outer loop
      vertex 5.17506 -14.1883 0
      vertex 12.6359 -7.18465 0
      vertex 6.90021 -15.9987 0
    endloop
  endfacet
  facet normal -0 0 -1
    outer loop
      vertex 12.6359 -7.18465 0
      vertex 5.17506 -14.1883 0
      vertex 10.6086 -5.95638 0
    endloop
  endfacet
  facet normal -0 0 -1
    outer loop
      vertex 10.6086 -5.95638 0
      vertex 5.17506 -14.1883 0
      vertex 8.38889 -5.00105 0
    endloop
  endfacet
  facet normal 0 0 -1
    outer loop
      vertex 3.06656 -13.1021 0
      vertex 8.38889 -5.00105 0
      vertex 5.17506 -14.1883 0
    endloop
  endfacet
  facet normal -0 0 -1
    outer loop
      vertex 8.38889 -5.00105 0
      vertex 3.06656 -13.1021 0
      vertex 5.97665 -4.3187 0
    endloop
  endfacet
  facet normal -0 0 -1
    outer loop
      vertex 5.97665 -4.3187 0
      vertex 3.06656 -13.1021 0
      vertex 3.37192 -3.90927 0
    endloop
  endfacet
  facet normal 0 0 -1
    outer loop
      vertex 0.574677 -12.74 0
      vertex 3.37192 -3.90927 0
      vertex 3.06656 -13.1021 0
    endloop
  endfacet
  facet normal 0 0 -1
    outer loop
      vertex 0.574677 -12.74 0
      vertex 0.574677 -3.7728 0
      vertex 3.37192 -3.90927 0
    endloop
  endfacet
  facet normal 0 0 -1
    outer loop
      vertex -2.22295 -3.90927 0
      vertex 0.574677 -12.74 0
      vertex -1.92761 -13.1021 0
    endloop
  endfacet
  facet normal 0 0 -1
    outer loop
      vertex 0.574677 -12.74 0
      vertex -2.22295 -3.90927 0
      vertex 0.574677 -3.7728 0
    endloop
  endfacet
  facet normal 0 0 -1
    outer loop
      vertex -7.24318 -5.00105 0
      vertex -1.92761 -13.1021 0
      vertex -4.04495 -14.1883 0
    endloop
  endfacet
  facet normal 0 0 -1
    outer loop
      vertex -1.92761 -13.1021 0
      vertex -4.8289 -4.3187 0
      vertex -2.22295 -3.90927 0
    endloop
  endfacet
  facet normal 0 0 -1
    outer loop
      vertex -11.4967 -7.18465 0
      vertex -4.04495 -14.1883 0
      vertex -5.77733 -15.9987 0
    endloop
  endfacet
  facet normal 0 0 -1
    outer loop
      vertex -16.4242 -12.5062 0
      vertex -5.77733 -15.9987 0
      vertex -7.12473 -18.5333 0
    endloop
  endfacet
  facet normal 0 0 -1
    outer loop
      vertex -1.92761 -13.1021 0
      vertex -7.24318 -5.00105 0
      vertex -4.8289 -4.3187 0
    endloop
  endfacet
  facet normal 0 0 -1
    outer loop
      vertex -18.6407 -17.4126 0
      vertex -7.12473 -18.5333 0
      vertex -8.08716 -21.792 0
    endloop
  endfacet
  facet normal 0 0 -1
    outer loop
      vertex -19.9706 -23.4045 0
      vertex -8.08716 -21.792 0
      vertex -8.66461 -25.7748 0
    endloop
  endfacet
  facet normal 0 0 -1
    outer loop
      vertex -4.04495 -14.1883 0
      vertex -9.46577 -5.95638 0
      vertex -7.24318 -5.00105 0
    endloop
  endfacet
  facet normal 0 0 -1
    outer loop
      vertex -20.303 -26.8075 0
      vertex -8.66461 -25.7748 0
      vertex -8.8571 -30.4818 0
    endloop
  endfacet
  facet normal 0 0 -1
    outer loop
      vertex -18.6407 -43.6022 0
      vertex -7.64439 -40.9834 0
      vertex -17.6432 -46.2196 0
    endloop
  endfacet
  facet normal -0 0 -1
    outer loop
      vertex -7.64439 -40.9834 0
      vertex -18.6407 -43.6022 0
      vertex -8.08096 -39.2349 0
    endloop
  endfacet
  facet normal 0 -0 -1
    outer loop
      vertex -20.303 -26.8075 0
      vertex -8.8571 -30.4818 0
      vertex -20.4138 -30.4818 0
    endloop
  endfacet
  facet normal 0 0 -1
    outer loop
      vertex -19.4164 -40.7197 0
      vertex -8.08096 -39.2349 0
      vertex -18.6407 -43.6022 0
    endloop
  endfacet
  facet normal -0 0 -1
    outer loop
      vertex -8.66461 -25.7748 0
      vertex -20.303 -26.8075 0
      vertex -19.9706 -23.4045 0
    endloop
  endfacet
  facet normal -0 0 -1
    outer loop
      vertex -8.08096 -39.2349 0
      vertex -19.4164 -40.7197 0
      vertex -8.42052 -37.3105 0
    endloop
  endfacet
  facet normal -0 0 -1
    outer loop
      vertex -8.08716 -21.792 0
      vertex -19.9706 -23.4045 0
      vertex -19.4164 -20.2729 0
    endloop
  endfacet
  facet normal 0 0 -1
    outer loop
      vertex -19.9706 -37.5721 0
      vertex -8.42052 -37.3105 0
      vertex -19.4164 -40.7197 0
    endloop
  endfacet
  facet normal 0 0 -1
    outer loop
      vertex -8.08716 -21.792 0
      vertex -19.4164 -20.2729 0
      vertex -18.6407 -17.4126 0
    endloop
  endfacet
  facet normal -0 0 -1
    outer loop
      vertex -8.42052 -37.3105 0
      vertex -19.9706 -37.5721 0
      vertex -8.66306 -35.2102 0
    endloop
  endfacet
  facet normal 0 0 -1
    outer loop
      vertex -7.12473 -18.5333 0
      vertex -18.6407 -17.4126 0
      vertex -17.6432 -14.8237 0
    endloop
  endfacet
  facet normal 0 0 -1
    outer loop
      vertex -20.303 -34.1595 0
      vertex -8.66306 -35.2102 0
      vertex -19.9706 -37.5721 0
    endloop
  endfacet
  facet normal 0 0 -1
    outer loop
      vertex -8.80859 -32.934 0
      vertex -20.4138 -30.4818 0
      vertex -8.8571 -30.4818 0
    endloop
  endfacet
  facet normal 0 0 -1
    outer loop
      vertex -8.66306 -35.2102 0
      vertex -20.303 -34.1595 0
      vertex -8.80859 -32.934 0
    endloop
  endfacet
  facet normal 0 0 -1
    outer loop
      vertex -7.12473 -18.5333 0
      vertex -17.6432 -14.8237 0
      vertex -16.4242 -12.5062 0
    endloop
  endfacet
  facet normal 0 0 -1
    outer loop
      vertex -20.4138 -30.4818 0
      vertex -8.80859 -32.934 0
      vertex -20.303 -34.1595 0
    endloop
  endfacet
  facet normal 0 0 -1
    outer loop
      vertex -4.04495 -14.1883 0
      vertex -11.4967 -7.18465 0
      vertex -9.46577 -5.95638 0
    endloop
  endfacet
  facet normal 0 0 -1
    outer loop
      vertex -5.77733 -15.9987 0
      vertex -13.3359 -8.68585 0
      vertex -11.4967 -7.18465 0
    endloop
  endfacet
  facet normal 0 0 -1
    outer loop
      vertex -5.77733 -15.9987 0
      vertex -16.4242 -12.5062 0
      vertex -14.9835 -10.46 0
    endloop
  endfacet
  facet normal 0 0 -1
    outer loop
      vertex -5.77733 -15.9987 0
      vertex -14.9835 -10.46 0
      vertex -13.3359 -8.68585 0
    endloop
  endfacet
  facet normal 0 0 1
    outer loop
      vertex 9.96713 -30.4818 1
      vertex 21.5245 -30.4818 1
      vertex 21.414 -26.8075 1
    endloop
  endfacet
  facet normal -0 0 1
    outer loop
      vertex 9.77545 -25.7748 1
      vertex 21.414 -26.8075 1
      vertex 21.0827 -23.4045 1
    endloop
  endfacet
  facet normal 0 0 1
    outer loop
      vertex 9.91902 -32.934 1
      vertex 21.5245 -30.4818 1
      vertex 9.96713 -30.4818 1
    endloop
  endfacet
  facet normal -0 0 1
    outer loop
      vertex 9.20041 -21.792 1
      vertex 21.0827 -23.4045 1
      vertex 20.5305 -20.2729 1
    endloop
  endfacet
  facet normal 0 0 1
    outer loop
      vertex 21.5245 -30.4818 1
      vertex 9.91902 -32.934 1
      vertex 21.414 -34.1595 1
    endloop
  endfacet
  facet normal 0 0 1
    outer loop
      vertex 9.20041 -21.792 1
      vertex 20.5305 -20.2729 1
      vertex 19.7574 -17.4126 1
    endloop
  endfacet
  facet normal 0 0 1
    outer loop
      vertex 9.77464 -35.2102 1
      vertex 21.414 -34.1595 1
      vertex 9.91902 -32.934 1
    endloop
  endfacet
  facet normal 0 0 1
    outer loop
      vertex 8.24199 -18.5333 1
      vertex 19.7574 -17.4126 1
      vertex 18.7634 -14.8237 1
    endloop
  endfacet
  facet normal 0 0 1
    outer loop
      vertex 21.414 -34.1595 1
      vertex 9.77464 -35.2102 1
      vertex 21.0827 -37.5721 1
    endloop
  endfacet
  facet normal 0 0 1
    outer loop
      vertex 8.24199 -18.5333 1
      vertex 18.7634 -14.8237 1
      vertex 17.5486 -12.5062 1
    endloop
  endfacet
  facet normal -0 0 1
    outer loop
      vertex 9.53403 -37.3105 1
      vertex 21.0827 -37.5721 1
      vertex 9.77464 -35.2102 1
    endloop
  endfacet
  facet normal 0 0 1
    outer loop
      vertex 6.90021 -15.9987 1
      vertex 17.5486 -12.5062 1
      vertex 16.1129 -10.46 1
    endloop
  endfacet
  facet normal 0 0 1
    outer loop
      vertex 21.0827 -37.5721 1
      vertex 9.53403 -37.3105 1
      vertex 20.5305 -40.7197 1
    endloop
  endfacet
  facet normal 0 0 1
    outer loop
      vertex 6.90021 -15.9987 1
      vertex 16.1129 -10.46 1
      vertex 14.4706 -8.68585 1
    endloop
  endfacet
  facet normal -0 0 1
    outer loop
      vertex 9.19714 -39.2349 1
      vertex 20.5305 -40.7197 1
      vertex 9.53403 -37.3105 1
    endloop
  endfacet
  facet normal 0 0 1
    outer loop
      vertex 6.90021 -15.9987 1
      vertex 14.4706 -8.68585 1
      vertex 12.6359 -7.18465 1
    endloop
  endfacet
  facet normal 0 0 1
    outer loop
      vertex 20.5305 -40.7197 1
      vertex 9.19714 -39.2349 1
      vertex 19.7574 -43.6022 1
    endloop
  endfacet
  facet normal 0 0 1
    outer loop
      vertex 5.17506 -14.1883 1
      vertex 12.6359 -7.18465 1
      vertex 10.6086 -5.95638 1
    endloop
  endfacet
  facet normal -0 0 1
    outer loop
      vertex 8.76404 -40.9834 1
      vertex 19.7574 -43.6022 1
      vertex 9.19714 -39.2349 1
    endloop
  endfacet
  facet normal 0 0 1
    outer loop
      vertex 19.7574 -43.6022 1
      vertex 8.76404 -40.9834 1
      vertex 18.7634 -46.2196 1
    endloop
  endfacet
  facet normal 0 0 1
    outer loop
      vertex 21.414 -26.8075 1
      vertex 9.77545 -25.7748 1
      vertex 9.96713 -30.4818 1
    endloop
  endfacet
  facet normal 0 0 1
    outer loop
      vertex 21.0827 -23.4045 1
      vertex 9.20041 -21.792 1
      vertex 9.77545 -25.7748 1
    endloop
  endfacet
  facet normal 0 0 1
    outer loop
      vertex 5.17506 -14.1883 1
      vertex 10.6086 -5.95638 1
      vertex 8.38889 -5.00105 1
    endloop
  endfacet
  facet normal 0 0 1
    outer loop
      vertex 19.7574 -17.4126 1
      vertex 8.24199 -18.5333 1
      vertex 9.20041 -21.792 1
    endloop
  endfacet
  facet normal 0 0 1
    outer loop
      vertex 17.5486 -12.5062 1
      vertex 6.90021 -15.9987 1
      vertex 8.24199 -18.5333 1
    endloop
  endfacet
  facet normal 0 0 1
    outer loop
      vertex 3.06656 -13.1021 1
      vertex 8.38889 -5.00105 1
      vertex 5.97665 -4.3187 1
    endloop
  endfacet
  facet normal 0 0 1
    outer loop
      vertex 12.6359 -7.18465 1
      vertex 5.17506 -14.1883 1
      vertex 6.90021 -15.9987 1
    endloop
  endfacet
  facet normal 0 0 1
    outer loop
      vertex 3.06656 -13.1021 1
      vertex 5.97665 -4.3187 1
      vertex 3.37192 -3.90927 1
    endloop
  endfacet
  facet normal 0 0 1
    outer loop
      vertex 8.38889 -5.00105 1
      vertex 3.06656 -13.1021 1
      vertex 5.17506 -14.1883 1
    endloop
  endfacet
  facet normal 0 0 1
    outer loop
      vertex 0.574677 -12.74 1
      vertex 3.37192 -3.90927 1
      vertex 0.574677 -3.7728 1
    endloop
  endfacet
  facet normal 0 0 1
    outer loop
      vertex 3.37192 -3.90927 1
      vertex 0.574677 -12.74 1
      vertex 3.06656 -13.1021 1
    endloop
  endfacet
  facet normal -0 0 1
    outer loop
      vertex -2.22295 -3.90927 1
      vertex 0.574677 -12.74 1
      vertex 0.574677 -3.7728 1
    endloop
  endfacet
  facet normal 0 0 1
    outer loop
      vertex 0.574677 -12.74 1
      vertex -2.22295 -3.90927 1
      vertex -1.92761 -13.1021 1
    endloop
  endfacet
  facet normal -0 0 1
    outer loop
      vertex -4.8289 -4.3187 1
      vertex -1.92761 -13.1021 1
      vertex -2.22295 -3.90927 1
    endloop
  endfacet
  facet normal -0 0 1
    outer loop
      vertex -7.24318 -5.00105 1
      vertex -1.92761 -13.1021 1
      vertex -4.8289 -4.3187 1
    endloop
  endfacet
  facet normal 0 0 1
    outer loop
      vertex -1.92761 -13.1021 1
      vertex -7.24318 -5.00105 1
      vertex -4.04495 -14.1883 1
    endloop
  endfacet
  facet normal -0 0 1
    outer loop
      vertex -9.46577 -5.95638 1
      vertex -4.04495 -14.1883 1
      vertex -7.24318 -5.00105 1
    endloop
  endfacet
  facet normal -0 0 1
    outer loop
      vertex -11.4967 -7.18465 1
      vertex -4.04495 -14.1883 1
      vertex -9.46577 -5.95638 1
    endloop
  endfacet
  facet normal 0 0 1
    outer loop
      vertex -4.04495 -14.1883 1
      vertex -11.4967 -7.18465 1
      vertex -5.77733 -15.9987 1
    endloop
  endfacet
  facet normal -0 0 1
    outer loop
      vertex -13.3359 -8.68585 1
      vertex -5.77733 -15.9987 1
      vertex -11.4967 -7.18465 1
    endloop
  endfacet
  facet normal -0 0 1
    outer loop
      vertex -16.4242 -12.5062 1
      vertex -5.77733 -15.9987 1
      vertex -14.9835 -10.46 1
    endloop
  endfacet
  facet normal -0 0 1
    outer loop
      vertex -14.9835 -10.46 1
      vertex -5.77733 -15.9987 1
      vertex -13.3359 -8.68585 1
    endloop
  endfacet
  facet normal -0 0 1
    outer loop
      vertex 8.23466 -42.556 1
      vertex 18.7634 -46.2196 1
      vertex 8.76404 -40.9834 1
    endloop
  endfacet
  facet normal 0 0 1
    outer loop
      vertex 18.7634 -46.2196 1
      vertex 8.23466 -42.556 1
      vertex 17.5486 -48.572 1
    endloop
  endfacet
  facet normal -0 0 1
    outer loop
      vertex 7.60905 -43.9527 1
      vertex 17.5486 -48.572 1
      vertex 8.23466 -42.556 1
    endloop
  endfacet
  facet normal 0 0 1
    outer loop
      vertex 17.5486 -48.572 1
      vertex 7.60905 -43.9527 1
      vertex 16.1129 -50.6593 1
    endloop
  endfacet
  facet normal -0 0 1
    outer loop
      vertex 6.88814 -45.1679 1
      vertex 16.1129 -50.6593 1
      vertex 7.60905 -43.9527 1
    endloop
  endfacet
  facet normal 0 0 1
    outer loop
      vertex 16.1129 -50.6593 1
      vertex 6.88814 -45.1679 1
      vertex 14.4706 -52.4743 1
    endloop
  endfacet
  facet normal -0 0 1
    outer loop
      vertex 6.07256 -46.1962 1
      vertex 14.4706 -52.4743 1
      vertex 6.88814 -45.1679 1
    endloop
  endfacet
  facet normal 0 0 1
    outer loop
      vertex 14.4706 -52.4743 1
      vertex 6.07256 -46.1962 1
      vertex 12.6359 -54.01 1
    endloop
  endfacet
  facet normal -0 0 1
    outer loop
      vertex 5.16232 -47.0375 1
      vertex 12.6359 -54.01 1
      vertex 6.07256 -46.1962 1
    endloop
  endfacet
  facet normal 0 0 1
    outer loop
      vertex 12.6359 -54.01 1
      vertex 5.16232 -47.0375 1
      vertex 10.6086 -55.2666 1
    endloop
  endfacet
  facet normal 0 0 1
    outer loop
      vertex 10.6086 -55.2666 1
      vertex 5.16232 -47.0375 1
      vertex 8.38889 -56.2439 1
    endloop
  endfacet
  facet normal -0 0 1
    outer loop
      vertex 4.15741 -47.6918 1
      vertex 8.38889 -56.2439 1
      vertex 5.16232 -47.0375 1
    endloop
  endfacet
  facet normal 0 0 1
    outer loop
      vertex 8.38889 -56.2439 1
      vertex 4.15741 -47.6918 1
      vertex 5.97665 -56.942 1
    endloop
  endfacet
  facet normal -0 0 1
    outer loop
      vertex 3.05783 -48.1593 1
      vertex 5.97665 -56.942 1
      vertex 4.15741 -47.6918 1
    endloop
  endfacet
  facet normal 0 0 1
    outer loop
      vertex 5.97665 -56.942 1
      vertex 3.05783 -48.1593 1
      vertex 3.37192 -57.3608 1
    endloop
  endfacet
  facet normal -0 0 1
    outer loop
      vertex 1.86359 -48.4397 1
      vertex 3.37192 -57.3608 1
      vertex 3.05783 -48.1593 1
    endloop
  endfacet
  facet normal 0 0 1
    outer loop
      vertex 0.574677 -57.5004 1
      vertex 1.86359 -48.4397 1
      vertex 0.574677 -48.5332 1
    endloop
  endfacet
  facet normal 0 0 1
    outer loop
      vertex 1.86359 -48.4397 1
      vertex 0.574677 -57.5004 1
      vertex 3.37192 -57.3608 1
    endloop
  endfacet
  facet normal 0 0 1
    outer loop
      vertex -0.714767 -48.4397 1
      vertex 0.574677 -57.5004 1
      vertex 0.574677 -48.5332 1
    endloop
  endfacet
  facet normal 0 0 1
    outer loop
      vertex -2.22295 -57.3608 1
      vertex -0.714767 -48.4397 1
      vertex -1.91037 -48.1593 1
    endloop
  endfacet
  facet normal 0 0 1
    outer loop
      vertex -0.714767 -48.4397 1
      vertex -2.22295 -57.3608 1
      vertex 0.574677 -57.5004 1
    endloop
  endfacet
  facet normal 0 0 1
    outer loop
      vertex -4.8289 -56.942 1
      vertex -1.91037 -48.1593 1
      vertex -3.01208 -47.6918 1
    endloop
  endfacet
  facet normal 0 0 1
    outer loop
      vertex -7.24318 -56.2439 1
      vertex -3.01208 -47.6918 1
      vertex -4.01993 -47.0375 1
    endloop
  endfacet
  facet normal 0 0 1
    outer loop
      vertex -1.91037 -48.1593 1
      vertex -4.8289 -56.942 1
      vertex -2.22295 -57.3608 1
    endloop
  endfacet
  facet normal 0 0 1
    outer loop
      vertex -11.4967 -54.01 1
      vertex -4.01993 -47.0375 1
      vertex -4.93388 -46.1962 1
    endloop
  endfacet
  facet normal 0 0 1
    outer loop
      vertex -13.3359 -52.4743 1
      vertex -4.93388 -46.1962 1
      vertex -5.75398 -45.1679 1
    endloop
  endfacet
  facet normal 0 0 1
    outer loop
      vertex -14.9835 -50.6593 1
      vertex -5.75398 -45.1679 1
      vertex -6.48019 -43.9527 1
    endloop
  endfacet
  facet normal 0 0 1
    outer loop
      vertex -16.4242 -48.572 1
      vertex -6.48019 -43.9527 1
      vertex -7.11079 -42.556 1
    endloop
  endfacet
  facet normal 0 0 1
    outer loop
      vertex -3.01208 -47.6918 1
      vertex -7.24318 -56.2439 1
      vertex -4.8289 -56.942 1
    endloop
  endfacet
  facet normal 0 0 1
    outer loop
      vertex -17.6432 -46.2196 1
      vertex -7.11079 -42.556 1
      vertex -7.64439 -40.9834 1
    endloop
  endfacet
  facet normal 0 0 1
    outer loop
      vertex -18.6407 -43.6022 1
      vertex -7.64439 -40.9834 1
      vertex -8.08096 -39.2349 1
    endloop
  endfacet
  facet normal 0 0 1
    outer loop
      vertex -19.4164 -40.7197 1
      vertex -8.08096 -39.2349 1
      vertex -8.42052 -37.3105 1
    endloop
  endfacet
  facet normal 0 0 1
    outer loop
      vertex -19.9706 -37.5721 1
      vertex -8.42052 -37.3105 1
      vertex -8.66306 -35.2102 1
    endloop
  endfacet
  facet normal 0 0 1
    outer loop
      vertex -5.77733 -15.9987 1
      vertex -16.4242 -12.5062 1
      vertex -7.12473 -18.5333 1
    endloop
  endfacet
  facet normal 0 0 1
    outer loop
      vertex -4.01993 -47.0375 1
      vertex -9.46577 -55.2666 1
      vertex -7.24318 -56.2439 1
    endloop
  endfacet
  facet normal -0 0 1
    outer loop
      vertex -20.303 -34.1595 1
      vertex -8.66306 -35.2102 1
      vertex -8.80859 -32.934 1
    endloop
  endfacet
  facet normal -0 0 1
    outer loop
      vertex -17.6432 -14.8237 1
      vertex -7.12473 -18.5333 1
      vertex -16.4242 -12.5062 1
    endloop
  endfacet
  facet normal -0 0 1
    outer loop
      vertex -18.6407 -17.4126 1
      vertex -7.12473 -18.5333 1
      vertex -17.6432 -14.8237 1
    endloop
  endfacet
  facet normal 0 -0 1
    outer loop
      vertex -20.303 -34.1595 1
      vertex -8.80859 -32.934 1
      vertex -20.4138 -30.4818 1
    endloop
  endfacet
  facet normal 0 0 1
    outer loop
      vertex -7.12473 -18.5333 1
      vertex -18.6407 -17.4126 1
      vertex -8.08716 -21.792 1
    endloop
  endfacet
  facet normal 0 0 1
    outer loop
      vertex -8.66306 -35.2102 1
      vertex -20.303 -34.1595 1
      vertex -19.9706 -37.5721 1
    endloop
  endfacet
  facet normal -0 0 1
    outer loop
      vertex -19.4164 -20.2729 1
      vertex -8.08716 -21.792 1
      vertex -18.6407 -17.4126 1
    endloop
  endfacet
  facet normal 0 0 1
    outer loop
      vertex -8.42052 -37.3105 1
      vertex -19.9706 -37.5721 1
      vertex -19.4164 -40.7197 1
    endloop
  endfacet
  facet normal 0 0 1
    outer loop
      vertex -19.9706 -23.4045 1
      vertex -8.08716 -21.792 1
      vertex -19.4164 -20.2729 1
    endloop
  endfacet
  facet normal 0 0 1
    outer loop
      vertex -8.08096 -39.2349 1
      vertex -19.4164 -40.7197 1
      vertex -18.6407 -43.6022 1
    endloop
  endfacet
  facet normal 0 0 1
    outer loop
      vertex -8.08716 -21.792 1
      vertex -19.9706 -23.4045 1
      vertex -8.66461 -25.7748 1
    endloop
  endfacet
  facet normal 0 0 1
    outer loop
      vertex -7.64439 -40.9834 1
      vertex -18.6407 -43.6022 1
      vertex -17.6432 -46.2196 1
    endloop
  endfacet
  facet normal 0 0 1
    outer loop
      vertex -20.303 -26.8075 1
      vertex -8.66461 -25.7748 1
      vertex -19.9706 -23.4045 1
    endloop
  endfacet
  facet normal 0 0 1
    outer loop
      vertex -7.11079 -42.556 1
      vertex -17.6432 -46.2196 1
      vertex -16.4242 -48.572 1
    endloop
  endfacet
  facet normal 0 0 1
    outer loop
      vertex -8.66461 -25.7748 1
      vertex -20.303 -26.8075 1
      vertex -8.8571 -30.4818 1
    endloop
  endfacet
  facet normal 0 0 1
    outer loop
      vertex -8.8571 -30.4818 1
      vertex -20.4138 -30.4818 1
      vertex -8.80859 -32.934 1
    endloop
  endfacet
  facet normal 0 0 1
    outer loop
      vertex -20.4138 -30.4818 1
      vertex -8.8571 -30.4818 1
      vertex -20.303 -26.8075 1
    endloop
  endfacet
  facet normal 0 0 1
    outer loop
      vertex -4.01993 -47.0375 1
      vertex -11.4967 -54.01 1
      vertex -9.46577 -55.2666 1
    endloop
  endfacet
  facet normal 0 0 1
    outer loop
      vertex -4.93388 -46.1962 1
      vertex -13.3359 -52.4743 1
      vertex -11.4967 -54.01 1
    endloop
  endfacet
  facet normal 0 0 1
    outer loop
      vertex -6.48019 -43.9527 1
      vertex -16.4242 -48.572 1
      vertex -14.9835 -50.6593 1
    endloop
  endfacet
  facet normal 0 0 1
    outer loop
      vertex -5.75398 -45.1679 1
      vertex -14.9835 -50.6593 1
      vertex -13.3359 -52.4743 1
    endloop
  endfacet
  facet normal 0.158746 -0.98732 0
    outer loop
      vertex 3.37192 -57.3608 0
      vertex 5.97665 -56.942 1
      vertex 3.37192 -57.3608 1
    endloop
  endfacet
  facet normal 0.158746 -0.98732 0
    outer loop
      vertex 5.97665 -56.942 1
      vertex 3.37192 -57.3608 0
      vertex 5.97665 -56.942 0
    endloop
  endfacet
  facet normal 0.277992 -0.960583 0
    outer loop
      vertex 5.97665 -56.942 0
      vertex 8.38889 -56.2439 1
      vertex 5.97665 -56.942 1
    endloop
  endfacet
  facet normal 0.277992 -0.960583 0
    outer loop
      vertex 8.38889 -56.2439 1
      vertex 5.97665 -56.942 0
      vertex 8.38889 -56.2439 0
    endloop
  endfacet
  facet normal 0.402955 -0.91522 0
    outer loop
      vertex 8.38889 -56.2439 0
      vertex 10.6086 -55.2666 1
      vertex 8.38889 -56.2439 1
    endloop
  endfacet
  facet normal 0.402955 -0.91522 0
    outer loop
      vertex 10.6086 -55.2666 1
      vertex 8.38889 -56.2439 0
      vertex 10.6086 -55.2666 0
    endloop
  endfacet
  facet normal 0.526841 -0.849964 0
    outer loop
      vertex 10.6086 -55.2666 0
      vertex 12.6359 -54.01 1
      vertex 10.6086 -55.2666 1
    endloop
  endfacet
  facet normal 0.526841 -0.849964 0
    outer loop
      vertex 12.6359 -54.01 1
      vertex 10.6086 -55.2666 0
      vertex 12.6359 -54.01 0
    endloop
  endfacet
  facet normal 0.641856 -0.766825 0
    outer loop
      vertex 12.6359 -54.01 0
      vertex 14.4706 -52.4743 1
      vertex 12.6359 -54.01 1
    endloop
  endfacet
  facet normal 0.641856 -0.766825 0
    outer loop
      vertex 14.4706 -52.4743 1
      vertex 12.6359 -54.01 0
      vertex 14.4706 -52.4743 0
    endloop
  endfacet
  facet normal 0.741504 -0.670949 0
    outer loop
      vertex 14.4706 -52.4743 1
      vertex 16.1129 -50.6593 0
      vertex 16.1129 -50.6593 1
    endloop
  endfacet
  facet normal 0.741504 -0.670949 0
    outer loop
      vertex 16.1129 -50.6593 0
      vertex 14.4706 -52.4743 1
      vertex 14.4706 -52.4743 0
    endloop
  endfacet
  facet normal 0.823916 -0.566711 0
    outer loop
      vertex 16.1129 -50.6593 1
      vertex 17.5486 -48.572 0
      vertex 17.5486 -48.572 1
    endloop
  endfacet
  facet normal 0.823916 -0.566711 0
    outer loop
      vertex 17.5486 -48.572 0
      vertex 16.1129 -50.6593 1
      vertex 16.1129 -50.6593 0
    endloop
  endfacet
  facet normal 0.888519 -0.458839 0
    outer loop
      vertex 17.5486 -48.572 1
      vertex 18.7634 -46.2196 0
      vertex 18.7634 -46.2196 1
    endloop
  endfacet
  facet normal 0.888519 -0.458839 0
    outer loop
      vertex 18.7634 -46.2196 0
      vertex 17.5486 -48.572 1
      vertex 17.5486 -48.572 0
    endloop
  endfacet
  facet normal 0.934856 -0.355027 0
    outer loop
      vertex 18.7634 -46.2196 1
      vertex 19.7574 -43.6022 0
      vertex 19.7574 -43.6022 1
    endloop
  endfacet
  facet normal 0.934856 -0.355027 0
    outer loop
      vertex 19.7574 -43.6022 0
      vertex 18.7634 -46.2196 1
      vertex 18.7634 -46.2196 0
    endloop
  endfacet
  facet normal 0.965864 -0.259049 0
    outer loop
      vertex 19.7574 -43.6022 1
      vertex 20.5305 -40.7197 0
      vertex 20.5305 -40.7197 1
    endloop
  endfacet
  facet normal 0.965864 -0.259049 0
    outer loop
      vertex 20.5305 -40.7197 0
      vertex 19.7574 -43.6022 1
      vertex 19.7574 -43.6022 0
    endloop
  endfacet
  facet normal 0.984958 -0.172796 0
    outer loop
      vertex 20.5305 -40.7197 1
      vertex 21.0827 -37.5721 0
      vertex 21.0827 -37.5721 1
    endloop
  endfacet
  facet normal 0.984958 -0.172796 0
    outer loop
      vertex 21.0827 -37.5721 0
      vertex 20.5305 -40.7197 1
      vertex 20.5305 -40.7197 0
    endloop
  endfacet
  facet normal 0.995321 -0.0966271 0
    outer loop
      vertex 21.0827 -37.5721 1
      vertex 21.414 -34.1595 0
      vertex 21.414 -34.1595 1
    endloop
  endfacet
  facet normal 0.995321 -0.0966271 0
    outer loop
      vertex 21.414 -34.1595 0
      vertex 21.0827 -37.5721 1
      vertex 21.0827 -37.5721 0
    endloop
  endfacet
  facet normal 0.999549 -0.0300324 0
    outer loop
      vertex 21.414 -34.1595 1
      vertex 21.5245 -30.4818 0
      vertex 21.5245 -30.4818 1
    endloop
  endfacet
  facet normal 0.999549 -0.0300324 0
    outer loop
      vertex 21.5245 -30.4818 0
      vertex 21.414 -34.1595 1
      vertex 21.414 -34.1595 0
    endloop
  endfacet
  facet normal 0.999548 0.0300602 0
    outer loop
      vertex 21.5245 -30.4818 1
      vertex 21.414 -26.8075 0
      vertex 21.414 -26.8075 1
    endloop
  endfacet
  facet normal 0.999548 0.0300602 0
    outer loop
      vertex 21.414 -26.8075 0
      vertex 21.5245 -30.4818 1
      vertex 21.5245 -30.4818 0
    endloop
  endfacet
  facet normal 0.995294 0.0968972 0
    outer loop
      vertex 21.414 -26.8075 1
      vertex 21.0827 -23.4045 0
      vertex 21.0827 -23.4045 1
    endloop
  endfacet
  facet normal 0.995294 0.0968972 0
    outer loop
      vertex 21.0827 -23.4045 0
      vertex 21.414 -26.8075 1
      vertex 21.414 -26.8075 0
    endloop
  endfacet
  facet normal 0.984807 0.173653 0
    outer loop
      vertex 21.0827 -23.4045 1
      vertex 20.5305 -20.2729 0
      vertex 20.5305 -20.2729 1
    endloop
  endfacet
  facet normal 0.984807 0.173653 0
    outer loop
      vertex 20.5305 -20.2729 0
      vertex 21.0827 -23.4045 1
      vertex 21.0827 -23.4045 0
    endloop
  endfacet
  facet normal 0.965359 0.260923 0
    outer loop
      vertex 20.5305 -20.2729 1
      vertex 19.7574 -17.4126 0
      vertex 19.7574 -17.4126 1
    endloop
  endfacet
  facet normal 0.965359 0.260923 0
    outer loop
      vertex 19.7574 -17.4126 0
      vertex 20.5305 -20.2729 1
      vertex 20.5305 -20.2729 0
    endloop
  endfacet
  facet normal 0.933555 0.358435 0
    outer loop
      vertex 19.7574 -17.4126 1
      vertex 18.7634 -14.8237 0
      vertex 18.7634 -14.8237 1
    endloop
  endfacet
  facet normal 0.933555 0.358435 0
    outer loop
      vertex 18.7634 -14.8237 0
      vertex 19.7574 -17.4126 1
      vertex 19.7574 -17.4126 0
    endloop
  endfacet
  facet normal 0.885695 0.464268 0
    outer loop
      vertex 18.7634 -14.8237 1
      vertex 17.5486 -12.5062 0
      vertex 17.5486 -12.5062 1
    endloop
  endfacet
  facet normal 0.885695 0.464268 0
    outer loop
      vertex 17.5486 -12.5062 0
      vertex 18.7634 -14.8237 1
      vertex 18.7634 -14.8237 0
    endloop
  endfacet
  facet normal 0.8186 0.574364 0
    outer loop
      vertex 17.5486 -12.5062 1
      vertex 16.1129 -10.46 0
      vertex 16.1129 -10.46 1
    endloop
  endfacet
  facet normal 0.8186 0.574364 0
    outer loop
      vertex 16.1129 -10.46 0
      vertex 17.5486 -12.5062 1
      vertex 17.5486 -12.5062 0
    endloop
  endfacet
  facet normal 0.73385 0.679312 0
    outer loop
      vertex 16.1129 -10.46 1
      vertex 14.4706 -8.68585 0
      vertex 14.4706 -8.68585 1
    endloop
  endfacet
  facet normal 0.73385 0.679312 0
    outer loop
      vertex 14.4706 -8.68585 0
      vertex 16.1129 -10.46 1
      vertex 16.1129 -10.46 0
    endloop
  endfacet
  facet normal 0.633258 0.77394 -0
    outer loop
      vertex 14.4706 -8.68585 0
      vertex 12.6359 -7.18465 1
      vertex 14.4706 -8.68585 1
    endloop
  endfacet
  facet normal 0.633258 0.77394 0
    outer loop
      vertex 12.6359 -7.18465 1
      vertex 14.4706 -8.68585 0
      vertex 12.6359 -7.18465 0
    endloop
  endfacet
  facet normal 0.518179 0.855272 -0
    outer loop
      vertex 12.6359 -7.18465 0
      vertex 10.6086 -5.95638 1
      vertex 12.6359 -7.18465 1
    endloop
  endfacet
  facet normal 0.518179 0.855272 0
    outer loop
      vertex 10.6086 -5.95638 1
      vertex 12.6359 -7.18465 0
      vertex 10.6086 -5.95638 0
    endloop
  endfacet
  facet normal 0.395326 0.918541 -0
    outer loop
      vertex 10.6086 -5.95638 0
      vertex 8.38889 -5.00105 1
      vertex 10.6086 -5.95638 1
    endloop
  endfacet
  facet normal 0.395326 0.918541 0
    outer loop
      vertex 8.38889 -5.00105 1
      vertex 10.6086 -5.95638 0
      vertex 8.38889 -5.00105 0
    endloop
  endfacet
  facet normal 0.27219 0.962244 -0
    outer loop
      vertex 8.38889 -5.00105 0
      vertex 5.97665 -4.3187 1
      vertex 8.38889 -5.00105 1
    endloop
  endfacet
  facet normal 0.27219 0.962244 0
    outer loop
      vertex 5.97665 -4.3187 1
      vertex 8.38889 -5.00105 0
      vertex 5.97665 -4.3187 0
    endloop
  endfacet
  facet normal 0.155281 0.98787 -0
    outer loop
      vertex 5.97665 -4.3187 0
      vertex 3.37192 -3.90927 1
      vertex 5.97665 -4.3187 1
    endloop
  endfacet
  facet normal 0.155281 0.98787 0
    outer loop
      vertex 3.37192 -3.90927 1
      vertex 5.97665 -4.3187 0
      vertex 3.37192 -3.90927 0
    endloop
  endfacet
  facet normal 0.0487294 0.998812 -0
    outer loop
      vertex 3.37192 -3.90927 0
      vertex 0.574677 -3.7728 1
      vertex 3.37192 -3.90927 1
    endloop
  endfacet
  facet normal 0.0487294 0.998812 0
    outer loop
      vertex 0.574677 -3.7728 1
      vertex 3.37192 -3.90927 0
      vertex 0.574677 -3.7728 0
    endloop
  endfacet
  facet normal -0.0487227 0.998812 0
    outer loop
      vertex 0.574677 -3.7728 0
      vertex -2.22295 -3.90927 1
      vertex 0.574677 -3.7728 1
    endloop
  endfacet
  facet normal -0.0487227 0.998812 0
    outer loop
      vertex -2.22295 -3.90927 1
      vertex 0.574677 -3.7728 0
      vertex -2.22295 -3.90927 0
    endloop
  endfacet
  facet normal -0.15521 0.987882 0
    outer loop
      vertex -2.22295 -3.90927 0
      vertex -4.8289 -4.3187 1
      vertex -2.22295 -3.90927 1
    endloop
  endfacet
  facet normal -0.15521 0.987882 0
    outer loop
      vertex -4.8289 -4.3187 1
      vertex -2.22295 -3.90927 0
      vertex -4.8289 -4.3187 0
    endloop
  endfacet
  facet normal -0.271977 0.962304 0
    outer loop
      vertex -4.8289 -4.3187 0
      vertex -7.24318 -5.00105 1
      vertex -4.8289 -4.3187 1
    endloop
  endfacet
  facet normal -0.271977 0.962304 0
    outer loop
      vertex -7.24318 -5.00105 1
      vertex -4.8289 -4.3187 0
      vertex -7.24318 -5.00105 0
    endloop
  endfacet
  facet normal -0.394894 0.918727 0
    outer loop
      vertex -7.24318 -5.00105 0
      vertex -9.46577 -5.95638 1
      vertex -7.24318 -5.00105 1
    endloop
  endfacet
  facet normal -0.394894 0.918727 0
    outer loop
      vertex -9.46577 -5.95638 1
      vertex -7.24318 -5.00105 0
      vertex -9.46577 -5.95638 0
    endloop
  endfacet
  facet normal -0.517501 0.855682 0
    outer loop
      vertex -9.46577 -5.95638 0
      vertex -11.4967 -7.18465 1
      vertex -9.46577 -5.95638 1
    endloop
  endfacet
  facet normal -0.517501 0.855682 0
    outer loop
      vertex -11.4967 -7.18465 1
      vertex -9.46577 -5.95638 0
      vertex -11.4967 -7.18465 0
    endloop
  endfacet
  facet normal -0.632329 0.7747 0
    outer loop
      vertex -11.4967 -7.18465 0
      vertex -13.3359 -8.68585 1
      vertex -11.4967 -7.18465 1
    endloop
  endfacet
  facet normal -0.632329 0.7747 0
    outer loop
      vertex -13.3359 -8.68585 1
      vertex -11.4967 -7.18465 0
      vertex -13.3359 -8.68585 0
    endloop
  endfacet
  facet normal -0.732757 0.68049 0
    outer loop
      vertex -14.9835 -10.46 0
      vertex -13.3359 -8.68585 1
      vertex -13.3359 -8.68585 0
    endloop
  endfacet
  facet normal -0.732757 0.68049 0
    outer loop
      vertex -13.3359 -8.68585 1
      vertex -14.9835 -10.46 0
      vertex -14.9835 -10.46 1
    endloop
  endfacet
  facet normal -0.817659 0.575702 0
    outer loop
      vertex -16.4242 -12.5062 0
      vertex -14.9835 -10.46 1
      vertex -14.9835 -10.46 0
    endloop
  endfacet
  facet normal -0.817659 0.575702 0
    outer loop
      vertex -14.9835 -10.46 1
      vertex -16.4242 -12.5062 0
      vertex -16.4242 -12.5062 1
    endloop
  endfacet
  facet normal -0.885034 0.465526 0
    outer loop
      vertex -17.6432 -14.8237 0
      vertex -16.4242 -12.5062 1
      vertex -16.4242 -12.5062 0
    endloop
  endfacet
  facet normal -0.885034 0.465526 0
    outer loop
      vertex -16.4242 -12.5062 1
      vertex -17.6432 -14.8237 0
      vertex -17.6432 -14.8237 1
    endloop
  endfacet
  facet normal -0.933132 0.359535 0
    outer loop
      vertex -18.6407 -17.4126 0
      vertex -17.6432 -14.8237 1
      vertex -17.6432 -14.8237 0
    endloop
  endfacet
  facet normal -0.933132 0.359535 0
    outer loop
      vertex -17.6432 -14.8237 1
      vertex -18.6407 -17.4126 0
      vertex -18.6407 -17.4126 1
    endloop
  endfacet
  facet normal -0.965138 0.261741 0
    outer loop
      vertex -19.4164 -20.2729 0
      vertex -18.6407 -17.4126 1
      vertex -18.6407 -17.4126 0
    endloop
  endfacet
  facet normal -0.965138 0.261741 0
    outer loop
      vertex -18.6407 -17.4126 1
      vertex -19.4164 -20.2729 0
      vertex -19.4164 -20.2729 1
    endloop
  endfacet
  facet normal -0.984699 0.174262 0
    outer loop
      vertex -19.9706 -23.4045 0
      vertex -19.4164 -20.2729 1
      vertex -19.4164 -20.2729 0
    endloop
  endfacet
  facet normal -0.984699 0.174262 0
    outer loop
      vertex -19.4164 -20.2729 1
      vertex -19.9706 -23.4045 0
      vertex -19.9706 -23.4045 1
    endloop
  endfacet
  facet normal -0.995263 0.0972158 0
    outer loop
      vertex -20.303 -26.8075 0
      vertex -19.9706 -23.4045 1
      vertex -19.9706 -23.4045 0
    endloop
  endfacet
  facet normal -0.995263 0.0972158 0
    outer loop
      vertex -19.9706 -23.4045 1
      vertex -20.303 -26.8075 0
      vertex -20.303 -26.8075 1
    endloop
  endfacet
  facet normal -0.999546 0.0301417 0
    outer loop
      vertex -20.4138 -30.4818 0
      vertex -20.303 -26.8075 1
      vertex -20.303 -26.8075 0
    endloop
  endfacet
  facet normal -0.999546 0.0301417 0
    outer loop
      vertex -20.303 -26.8075 1
      vertex -20.4138 -30.4818 0
      vertex -20.4138 -30.4818 1
    endloop
  endfacet
  facet normal -0.999546 -0.0301139 0
    outer loop
      vertex -20.303 -34.1595 0
      vertex -20.4138 -30.4818 1
      vertex -20.4138 -30.4818 0
    endloop
  endfacet
  facet normal -0.999546 -0.0301139 0
    outer loop
      vertex -20.4138 -30.4818 1
      vertex -20.303 -34.1595 0
      vertex -20.303 -34.1595 1
    endloop
  endfacet
  facet normal -0.99529 -0.0969449 0
    outer loop
      vertex -19.9706 -37.5721 0
      vertex -20.303 -34.1595 1
      vertex -20.303 -34.1595 0
    endloop
  endfacet
  facet normal -0.99529 -0.0969449 0
    outer loop
      vertex -20.303 -34.1595 1
      vertex -19.9706 -37.5721 0
      vertex -19.9706 -37.5721 1
    endloop
  endfacet
  facet normal -0.984851 -0.173403 0
    outer loop
      vertex -19.4164 -40.7197 0
      vertex -19.9706 -37.5721 1
      vertex -19.9706 -37.5721 0
    endloop
  endfacet
  facet normal -0.984851 -0.173403 0
    outer loop
      vertex -19.9706 -37.5721 1
      vertex -19.4164 -40.7197 0
      vertex -19.4164 -40.7197 1
    endloop
  endfacet
  facet normal -0.965646 -0.259862 0
    outer loop
      vertex -18.6407 -43.6022 0
      vertex -19.4164 -40.7197 1
      vertex -19.4164 -40.7197 0
    endloop
  endfacet
  facet normal -0.965646 -0.259862 0
    outer loop
      vertex -19.4164 -40.7197 1
      vertex -18.6407 -43.6022 0
      vertex -18.6407 -43.6022 1
    endloop
  endfacet
  facet normal -0.934441 -0.356119 0
    outer loop
      vertex -17.6432 -46.2196 0
      vertex -18.6407 -43.6022 1
      vertex -18.6407 -43.6022 0
    endloop
  endfacet
  facet normal -0.934441 -0.356119 0
    outer loop
      vertex -18.6407 -43.6022 1
      vertex -17.6432 -46.2196 0
      vertex -17.6432 -46.2196 1
    endloop
  endfacet
  facet normal -0.887872 -0.46009 0
    outer loop
      vertex -16.4242 -48.572 0
      vertex -17.6432 -46.2196 1
      vertex -17.6432 -46.2196 0
    endloop
  endfacet
  facet normal -0.887872 -0.46009 0
    outer loop
      vertex -17.6432 -46.2196 1
      vertex -16.4242 -48.572 0
      vertex -16.4242 -48.572 1
    endloop
  endfacet
  facet normal -0.822995 -0.568049 0
    outer loop
      vertex -14.9835 -50.6593 0
      vertex -16.4242 -48.572 1
      vertex -16.4242 -48.572 0
    endloop
  endfacet
  facet normal -0.822995 -0.568049 0
    outer loop
      vertex -16.4242 -48.572 1
      vertex -14.9835 -50.6593 0
      vertex -14.9835 -50.6593 1
    endloop
  endfacet
  facet normal -0.740427 -0.672137 0
    outer loop
      vertex -13.3359 -52.4743 0
      vertex -14.9835 -50.6593 1
      vertex -14.9835 -50.6593 0
    endloop
  endfacet
  facet normal -0.740427 -0.672137 0
    outer loop
      vertex -14.9835 -50.6593 1
      vertex -13.3359 -52.4743 0
      vertex -13.3359 -52.4743 1
    endloop
  endfacet
  facet normal -0.640931 -0.767598 0
    outer loop
      vertex -13.3359 -52.4743 0
      vertex -11.4967 -54.01 1
      vertex -13.3359 -52.4743 1
    endloop
  endfacet
  facet normal -0.640931 -0.767598 -0
    outer loop
      vertex -11.4967 -54.01 1
      vertex -13.3359 -52.4743 0
      vertex -11.4967 -54.01 0
    endloop
  endfacet
  facet normal -0.52616 -0.850386 0
    outer loop
      vertex -11.4967 -54.01 0
      vertex -9.46577 -55.2666 1
      vertex -11.4967 -54.01 1
    endloop
  endfacet
  facet normal -0.52616 -0.850386 -0
    outer loop
      vertex -9.46577 -55.2666 1
      vertex -11.4967 -54.01 0
      vertex -9.46577 -55.2666 0
    endloop
  endfacet
  facet normal -0.402518 -0.915412 0
    outer loop
      vertex -9.46577 -55.2666 0
      vertex -7.24318 -56.2439 1
      vertex -9.46577 -55.2666 1
    endloop
  endfacet
  facet normal -0.402518 -0.915412 -0
    outer loop
      vertex -7.24318 -56.2439 1
      vertex -9.46577 -55.2666 0
      vertex -7.24318 -56.2439 0
    endloop
  endfacet
  facet normal -0.277775 -0.960646 0
    outer loop
      vertex -7.24318 -56.2439 0
      vertex -4.8289 -56.942 1
      vertex -7.24318 -56.2439 1
    endloop
  endfacet
  facet normal -0.277775 -0.960646 -0
    outer loop
      vertex -4.8289 -56.942 1
      vertex -7.24318 -56.2439 0
      vertex -4.8289 -56.942 0
    endloop
  endfacet
  facet normal -0.158673 -0.987331 0
    outer loop
      vertex -4.8289 -56.942 0
      vertex -2.22295 -57.3608 1
      vertex -4.8289 -56.942 1
    endloop
  endfacet
  facet normal -0.158673 -0.987331 -0
    outer loop
      vertex -2.22295 -57.3608 1
      vertex -4.8289 -56.942 0
      vertex -2.22295 -57.3608 0
    endloop
  endfacet
  facet normal -0.0498374 -0.998757 0
    outer loop
      vertex -2.22295 -57.3608 0
      vertex 0.574677 -57.5004 1
      vertex -2.22295 -57.3608 1
    endloop
  endfacet
  facet normal -0.0498374 -0.998757 -0
    outer loop
      vertex 0.574677 -57.5004 1
      vertex -2.22295 -57.3608 0
      vertex 0.574677 -57.5004 0
    endloop
  endfacet
  facet normal 0.0498442 -0.998757 0
    outer loop
      vertex 0.574677 -57.5004 0
      vertex 3.37192 -57.3608 1
      vertex 0.574677 -57.5004 1
    endloop
  endfacet
  facet normal 0.0498442 -0.998757 0
    outer loop
      vertex 3.37192 -57.3608 1
      vertex 0.574677 -57.5004 0
      vertex 3.37192 -57.3608 0
    endloop
  endfacet
  facet normal 0.228331 0.973584 -0
    outer loop
      vertex -0.714767 -48.4397 0
      vertex -1.91037 -48.1593 1
      vertex -0.714767 -48.4397 1
    endloop
  endfacet
  facet normal 0.228331 0.973584 0
    outer loop
      vertex -1.91037 -48.1593 1
      vertex -0.714767 -48.4397 0
      vertex -1.91037 -48.1593 0
    endloop
  endfacet
  facet normal 0.390626 0.920549 -0
    outer loop
      vertex -1.91037 -48.1593 0
      vertex -3.01208 -47.6918 1
      vertex -1.91037 -48.1593 1
    endloop
  endfacet
  facet normal 0.390626 0.920549 0
    outer loop
      vertex -3.01208 -47.6918 1
      vertex -1.91037 -48.1593 0
      vertex -3.01208 -47.6918 0
    endloop
  endfacet
  facet normal 0.544519 0.838749 -0
    outer loop
      vertex -3.01208 -47.6918 0
      vertex -4.01993 -47.0375 1
      vertex -3.01208 -47.6918 1
    endloop
  endfacet
  facet normal 0.544519 0.838749 0
    outer loop
      vertex -4.01993 -47.0375 1
      vertex -3.01208 -47.6918 0
      vertex -4.01993 -47.0375 0
    endloop
  endfacet
  facet normal 0.67726 0.735744 -0
    outer loop
      vertex -4.01993 -47.0375 0
      vertex -4.93388 -46.1962 1
      vertex -4.01993 -47.0375 1
    endloop
  endfacet
  facet normal 0.67726 0.735744 0
    outer loop
      vertex -4.93388 -46.1962 1
      vertex -4.01993 -47.0375 0
      vertex -4.93388 -46.1962 0
    endloop
  endfacet
  facet normal 0.78181 0.623517 0
    outer loop
      vertex -4.93388 -46.1962 1
      vertex -5.75398 -45.1679 0
      vertex -5.75398 -45.1679 1
    endloop
  endfacet
  facet normal 0.78181 0.623517 0
    outer loop
      vertex -5.75398 -45.1679 0
      vertex -4.93388 -46.1962 1
      vertex -4.93388 -46.1962 0
    endloop
  endfacet
  facet normal 0.858398 0.512984 0
    outer loop
      vertex -5.75398 -45.1679 1
      vertex -6.48019 -43.9527 0
      vertex -6.48019 -43.9527 1
    endloop
  endfacet
  facet normal 0.858398 0.512984 0
    outer loop
      vertex -6.48019 -43.9527 0
      vertex -5.75398 -45.1679 1
      vertex -5.75398 -45.1679 0
    endloop
  endfacet
  facet normal 0.911412 0.411496 0
    outer loop
      vertex -6.48019 -43.9527 1
      vertex -7.11079 -42.556 0
      vertex -7.11079 -42.556 1
    endloop
  endfacet
  facet normal 0.911412 0.411496 0
    outer loop
      vertex -7.11079 -42.556 0
      vertex -6.48019 -43.9527 1
      vertex -6.48019 -43.9527 0
    endloop
  endfacet
  facet normal 0.946972 0.321318 0
    outer loop
      vertex -7.11079 -42.556 1
      vertex -7.64439 -40.9834 0
      vertex -7.64439 -40.9834 1
    endloop
  endfacet
  facet normal 0.946972 0.321318 0
    outer loop
      vertex -7.64439 -40.9834 0
      vertex -7.11079 -42.556 1
      vertex -7.11079 -42.556 0
    endloop
  endfacet
  facet normal 0.970215 0.242246 0
    outer loop
      vertex -7.64439 -40.9834 1
      vertex -8.08096 -39.2349 0
      vertex -8.08096 -39.2349 1
    endloop
  endfacet
  facet normal 0.970215 0.242246 0
    outer loop
      vertex -8.08096 -39.2349 0
      vertex -7.64439 -40.9834 1
      vertex -7.64439 -40.9834 0
    endloop
  endfacet
  facet normal 0.984787 0.173765 0
    outer loop
      vertex -8.08096 -39.2349 1
      vertex -8.42052 -37.3105 0
      vertex -8.42052 -37.3105 1
    endloop
  endfacet
  facet normal 0.984787 0.173765 0
    outer loop
      vertex -8.42052 -37.3105 0
      vertex -8.08096 -39.2349 1
      vertex -8.08096 -39.2349 0
    endloop
  endfacet
  facet normal 0.993398 0.114716 0
    outer loop
      vertex -8.42052 -37.3105 1
      vertex -8.66306 -35.2102 0
      vertex -8.66306 -35.2102 1
    endloop
  endfacet
  facet normal 0.993398 0.114716 0
    outer loop
      vertex -8.66306 -35.2102 0
      vertex -8.42052 -37.3105 1
      vertex -8.42052 -37.3105 0
    endloop
  endfacet
  facet normal 0.997962 0.0638052 0
    outer loop
      vertex -8.66306 -35.2102 1
      vertex -8.80859 -32.934 0
      vertex -8.80859 -32.934 1
    endloop
  endfacet
  facet normal 0.997962 0.0638052 0
    outer loop
      vertex -8.80859 -32.934 0
      vertex -8.66306 -35.2102 1
      vertex -8.66306 -35.2102 0
    endloop
  endfacet
  facet normal 0.999804 0.0197784 0
    outer loop
      vertex -8.80859 -32.934 1
      vertex -8.8571 -30.4818 0
      vertex -8.8571 -30.4818 1
    endloop
  endfacet
  facet normal 0.999804 0.0197784 0
    outer loop
      vertex -8.8571 -30.4818 0
      vertex -8.80859 -32.934 1
      vertex -8.80859 -32.934 0
    endloop
  endfacet
  facet normal 0.999165 -0.0408603 0
    outer loop
      vertex -8.8571 -30.4818 1
      vertex -8.66461 -25.7748 0
      vertex -8.66461 -25.7748 1
    endloop
  endfacet
  facet normal 0.999165 -0.0408603 0
    outer loop
      vertex -8.66461 -25.7748 0
      vertex -8.8571 -30.4818 1
      vertex -8.8571 -30.4818 0
    endloop
  endfacet
  facet normal 0.989652 -0.143486 0
    outer loop
      vertex -8.66461 -25.7748 1
      vertex -8.08716 -21.792 0
      vertex -8.08716 -21.792 1
    endloop
  endfacet
  facet normal 0.989652 -0.143486 0
    outer loop
      vertex -8.08716 -21.792 0
      vertex -8.66461 -25.7748 1
      vertex -8.66461 -25.7748 0
    endloop
  endfacet
  facet normal 0.959047 -0.283247 0
    outer loop
      vertex -8.08716 -21.792 1
      vertex -7.12473 -18.5333 0
      vertex -7.12473 -18.5333 1
    endloop
  endfacet
  facet normal 0.959047 -0.283247 0
    outer loop
      vertex -7.12473 -18.5333 0
      vertex -8.08716 -21.792 1
      vertex -8.08716 -21.792 0
    endloop
  endfacet
  facet normal 0.882987 -0.469398 0
    outer loop
      vertex -7.12473 -18.5333 1
      vertex -5.77733 -15.9987 0
      vertex -5.77733 -15.9987 1
    endloop
  endfacet
  facet normal 0.882987 -0.469398 0
    outer loop
      vertex -5.77733 -15.9987 0
      vertex -7.12473 -18.5333 1
      vertex -7.12473 -18.5333 0
    endloop
  endfacet
  facet normal 0.722504 -0.691367 0
    outer loop
      vertex -5.77733 -15.9987 1
      vertex -4.04495 -14.1883 0
      vertex -4.04495 -14.1883 1
    endloop
  endfacet
  facet normal 0.722504 -0.691367 0
    outer loop
      vertex -4.04495 -14.1883 0
      vertex -5.77733 -15.9987 1
      vertex -5.77733 -15.9987 0
    endloop
  endfacet
  facet normal 0.456445 -0.889752 0
    outer loop
      vertex -4.04495 -14.1883 0
      vertex -1.92761 -13.1021 1
      vertex -4.04495 -14.1883 1
    endloop
  endfacet
  facet normal 0.456445 -0.889752 0
    outer loop
      vertex -1.92761 -13.1021 1
      vertex -4.04495 -14.1883 0
      vertex -1.92761 -13.1021 0
    endloop
  endfacet
  facet normal 0.143216 -0.989691 0
    outer loop
      vertex -1.92761 -13.1021 0
      vertex 0.574677 -12.74 1
      vertex -1.92761 -13.1021 1
    endloop
  endfacet
  facet normal 0.143216 -0.989691 0
    outer loop
      vertex 0.574677 -12.74 1
      vertex -1.92761 -13.1021 0
      vertex 0.574677 -12.74 0
    endloop
  endfacet
  facet normal -0.143802 -0.989607 0
    outer loop
      vertex 0.574677 -12.74 0
      vertex 3.06656 -13.1021 1
      vertex 0.574677 -12.74 1
    endloop
  endfacet
  facet normal -0.143802 -0.989607 -0
    outer loop
      vertex 3.06656 -13.1021 1
      vertex 0.574677 -12.74 0
      vertex 3.06656 -13.1021 0
    endloop
  endfacet
  facet normal -0.457958 -0.888974 0
    outer loop
      vertex 3.06656 -13.1021 0
      vertex 5.17506 -14.1883 1
      vertex 3.06656 -13.1021 1
    endloop
  endfacet
  facet normal -0.457958 -0.888974 -0
    outer loop
      vertex 5.17506 -14.1883 1
      vertex 3.06656 -13.1021 0
      vertex 5.17506 -14.1883 0
    endloop
  endfacet
  facet normal -0.723946 -0.689856 0
    outer loop
      vertex 6.90021 -15.9987 0
      vertex 5.17506 -14.1883 1
      vertex 5.17506 -14.1883 0
    endloop
  endfacet
  facet normal -0.723946 -0.689856 0
    outer loop
      vertex 5.17506 -14.1883 1
      vertex 6.90021 -15.9987 0
      vertex 6.90021 -15.9987 1
    endloop
  endfacet
  facet normal -0.883798 -0.467869 0
    outer loop
      vertex 8.24199 -18.5333 0
      vertex 6.90021 -15.9987 1
      vertex 6.90021 -15.9987 0
    endloop
  endfacet
  facet normal -0.883798 -0.467869 0
    outer loop
      vertex 6.90021 -15.9987 1
      vertex 8.24199 -18.5333 0
      vertex 8.24199 -18.5333 1
    endloop
  endfacet
  facet normal -0.959367 -0.282161 0
    outer loop
      vertex 9.20041 -21.792 0
      vertex 8.24199 -18.5333 1
      vertex 8.24199 -18.5333 0
    endloop
  endfacet
  facet normal -0.959367 -0.282161 0
    outer loop
      vertex 8.24199 -18.5333 1
      vertex 9.20041 -21.792 0
      vertex 9.20041 -21.792 1
    endloop
  endfacet
  facet normal -0.989737 -0.142899 0
    outer loop
      vertex 9.77545 -25.7748 0
      vertex 9.20041 -21.792 1
      vertex 9.20041 -21.792 0
    endloop
  endfacet
  facet normal -0.989737 -0.142899 0
    outer loop
      vertex 9.20041 -21.792 1
      vertex 9.77545 -25.7748 0
      vertex 9.77545 -25.7748 1
    endloop
  endfacet
  facet normal -0.999172 -0.0406886 0
    outer loop
      vertex 9.96713 -30.4818 0
      vertex 9.77545 -25.7748 1
      vertex 9.77545 -25.7748 0
    endloop
  endfacet
  facet normal -0.999172 -0.0406886 0
    outer loop
      vertex 9.77545 -25.7748 1
      vertex 9.96713 -30.4818 0
      vertex 9.96713 -30.4818 1
    endloop
  endfacet
  facet normal -0.999808 0.0196153 0
    outer loop
      vertex 9.91902 -32.934 0
      vertex 9.96713 -30.4818 1
      vertex 9.96713 -30.4818 0
    endloop
  endfacet
  facet normal -0.999808 0.0196153 0
    outer loop
      vertex 9.96713 -30.4818 1
      vertex 9.91902 -32.934 0
      vertex 9.91902 -32.934 1
    endloop
  endfacet
  facet normal -0.997994 0.0633031 0
    outer loop
      vertex 9.77464 -35.2102 0
      vertex 9.91902 -32.934 1
      vertex 9.91902 -32.934 0
    endloop
  endfacet
  facet normal -0.997994 0.0633031 0
    outer loop
      vertex 9.91902 -32.934 1
      vertex 9.77464 -35.2102 0
      vertex 9.77464 -35.2102 1
    endloop
  endfacet
  facet normal -0.993502 0.113815 0
    outer loop
      vertex 9.53403 -37.3105 0
      vertex 9.77464 -35.2102 1
      vertex 9.77464 -35.2102 0
    endloop
  endfacet
  facet normal -0.993502 0.113815 0
    outer loop
      vertex 9.77464 -35.2102 1
      vertex 9.53403 -37.3105 0
      vertex 9.53403 -37.3105 1
    endloop
  endfacet
  facet normal -0.98502 0.17244 0
    outer loop
      vertex 9.19714 -39.2349 0
      vertex 9.53403 -37.3105 1
      vertex 9.53403 -37.3105 0
    endloop
  endfacet
  facet normal -0.98502 0.17244 0
    outer loop
      vertex 9.53403 -37.3105 1
      vertex 9.19714 -39.2349 0
      vertex 9.19714 -39.2349 1
    endloop
  endfacet
  facet normal -0.970666 0.240432 0
    outer loop
      vertex 8.76404 -40.9834 0
      vertex 9.19714 -39.2349 1
      vertex 9.19714 -39.2349 0
    endloop
  endfacet
  facet normal -0.970666 0.240432 0
    outer loop
      vertex 9.19714 -39.2349 1
      vertex 8.76404 -40.9834 0
      vertex 8.76404 -40.9834 1
    endloop
  endfacet
  facet normal -0.947743 0.319036 0
    outer loop
      vertex 8.23466 -42.556 0
      vertex 8.76404 -40.9834 1
      vertex 8.76404 -40.9834 0
    endloop
  endfacet
  facet normal -0.947743 0.319036 0
    outer loop
      vertex 8.76404 -40.9834 1
      vertex 8.23466 -42.556 0
      vertex 8.23466 -42.556 1
    endloop
  endfacet
  facet normal -0.91263 0.408786 0
    outer loop
      vertex 7.60905 -43.9527 0
      vertex 8.23466 -42.556 1
      vertex 8.23466 -42.556 0
    endloop
  endfacet
  facet normal -0.91263 0.408786 0
    outer loop
      vertex 8.23466 -42.556 1
      vertex 7.60905 -43.9527 0
      vertex 7.60905 -43.9527 1
    endloop
  endfacet
  facet normal -0.860046 0.510217 0
    outer loop
      vertex 6.88814 -45.1679 0
      vertex 7.60905 -43.9527 1
      vertex 7.60905 -43.9527 0
    endloop
  endfacet
  facet normal -0.860046 0.510217 0
    outer loop
      vertex 7.60905 -43.9527 1
      vertex 6.88814 -45.1679 0
      vertex 6.88814 -45.1679 1
    endloop
  endfacet
  facet normal -0.783486 0.62141 0
    outer loop
      vertex 6.07256 -46.1962 0
      vertex 6.88814 -45.1679 1
      vertex 6.88814 -45.1679 0
    endloop
  endfacet
  facet normal -0.783486 0.62141 0
    outer loop
      vertex 6.88814 -45.1679 1
      vertex 6.07256 -46.1962 0
      vertex 6.07256 -46.1962 1
    endloop
  endfacet
  facet normal -0.67875 0.73437 0
    outer loop
      vertex 6.07256 -46.1962 0
      vertex 5.16232 -47.0375 1
      vertex 6.07256 -46.1962 1
    endloop
  endfacet
  facet normal -0.67875 0.73437 0
    outer loop
      vertex 5.16232 -47.0375 1
      vertex 6.07256 -46.1962 0
      vertex 5.16232 -47.0375 0
    endloop
  endfacet
  facet normal -0.545638 0.838021 0
    outer loop
      vertex 5.16232 -47.0375 0
      vertex 4.15741 -47.6918 1
      vertex 5.16232 -47.0375 1
    endloop
  endfacet
  facet normal -0.545638 0.838021 0
    outer loop
      vertex 4.15741 -47.6918 1
      vertex 5.16232 -47.0375 0
      vertex 4.15741 -47.6918 0
    endloop
  endfacet
  facet normal -0.391267 0.920277 0
    outer loop
      vertex 4.15741 -47.6918 0
      vertex 3.05783 -48.1593 1
      vertex 4.15741 -47.6918 1
    endloop
  endfacet
  facet normal -0.391267 0.920277 0
    outer loop
      vertex 3.05783 -48.1593 1
      vertex 4.15741 -47.6918 0
      vertex 3.05783 -48.1593 0
    endloop
  endfacet
  facet normal -0.228578 0.973526 0
    outer loop
      vertex 3.05783 -48.1593 0
      vertex 1.86359 -48.4397 1
      vertex 3.05783 -48.1593 1
    endloop
  endfacet
  facet normal -0.228578 0.973526 0
    outer loop
      vertex 1.86359 -48.4397 1
      vertex 3.05783 -48.1593 0
      vertex 1.86359 -48.4397 0
    endloop
  endfacet
  facet normal -0.0723516 0.997379 0
    outer loop
      vertex 1.86359 -48.4397 0
      vertex 0.574677 -48.5332 1
      vertex 1.86359 -48.4397 1
    endloop
  endfacet
  facet normal -0.0723516 0.997379 0
    outer loop
      vertex 0.574677 -48.5332 1
      vertex 1.86359 -48.4397 0
      vertex 0.574677 -48.5332 0
    endloop
  endfacet
  facet normal 0.072322 0.997381 -0
    outer loop
      vertex 0.574677 -48.5332 0
      vertex -0.714767 -48.4397 1
      vertex 0.574677 -48.5332 1
    endloop
  endfacet
  facet normal 0.072322 0.997381 0
    outer loop
      vertex -0.714767 -48.4397 1
      vertex 0.574677 -48.5332 0
      vertex -0.714767 -48.4397 0
    endloop
  endfacet
endsolid OpenSCAD_Model
