<?xml version="1.0" standalone="no"?>
<!DOCTYPE svg PUBLIC "-//W3C//DTD SVG 1.1//EN" "http://www.w3.org/Graphics/SVG/1.1/DTD/svg11.dtd">
<svg width="43mm" height="55mm" viewBox="-21 3 43 55" xmlns="http://www.w3.org/2000/svg" version="1.1">
<title>OpenSCAD Model</title>
<path d="
M 3.37192,57.3608 L 5.97665,56.942 L 8.38889,56.2439 L 10.6086,55.2666 L 12.6359,54.01 L 14.4706,52.4743
 L 16.1129,50.6593 L 17.5486,48.572 L 18.7634,46.2196 L 19.7574,43.6022 L 20.5305,40.7197 L 21.0827,37.5721
 L 21.414,34.1595 L 21.5245,30.4818 L 21.414,26.8075 L 21.0827,23.4045 L 20.5305,20.2729 L 19.7574,17.4126
 L 18.7634,14.8237 L 17.5486,12.5062 L 16.1129,10.46 L 14.4706,8.68585 L 12.6359,7.18465 L 10.6086,5.95638
 L 8.38889,5.00105 L 5.97665,4.3187 L 3.37192,3.90927 L 0.574677,3.7728 L -2.22295,3.90927 L -4.8289,4.3187
 L -7.24318,5.00105 L -9.46577,5.95638 L -11.4967,7.18465 L -13.3359,8.68585 L -14.9835,10.46 L -16.4242,12.5062
 L -17.6432,14.8237 L -18.6407,17.4126 L -19.4164,20.2729 L -19.9706,23.4045 L -20.303,26.8075 L -20.4138,30.4818
 L -20.303,34.1595 L -19.9706,37.5721 L -19.4164,40.7197 L -18.6407,43.6022 L -17.6432,46.2196 L -16.4242,48.572
 L -14.9835,50.6593 L -13.3359,52.4743 L -11.4967,54.01 L -9.46577,55.2666 L -7.24318,56.2439 L -4.8289,56.942
 L -2.22295,57.3608 L 0.574677,57.5004 z
M -0.714767,48.4397 L -1.91037,48.1593 L -3.01208,47.6918 L -4.01993,47.0375 L -4.93388,46.1962 L -5.75398,45.1679
 L -6.48019,43.9527 L -7.11079,42.556 L -7.64439,40.9834 L -8.08096,39.2349 L -8.42052,37.3105 L -8.66306,35.2102
 L -8.80859,32.934 L -8.8571,30.4818 L -8.66461,25.7748 L -8.08716,21.792 L -7.12473,18.5333 L -5.77733,15.9987
 L -4.04495,14.1883 L -1.92761,13.1021 L 0.574677,12.74 L 3.06656,13.1021 L 5.17506,14.1883 L 6.90021,15.9987
 L 8.24199,18.5333 L 9.20041,21.792 L 9.77545,25.7748 L 9.96713,30.4818 L 9.91902,32.934 L 9.77464,35.2102
 L 9.53403,37.3105 L 9.19714,39.2349 L 8.76404,40.9834 L 8.23466,42.556 L 7.60905,43.9527 L 6.88814,45.1679
 L 6.07256,46.1962 L 5.16232,47.0375 L 4.15741,47.6918 L 3.05783,48.1593 L 1.86359,48.4397 L 0.574677,48.5332
 z
" stroke="black" fill="lightgray" stroke-width="0.5"/>
</svg>
