<?xml version="1.0" standalone="no"?>
<!DOCTYPE svg PUBLIC "-//W3C//DTD SVG 1.1//EN" "http://www.w3.org/Graphics/SVG/1.1/DTD/svg11.dtd">
<svg width="71mm" height="87mm" viewBox="-30 -2 71 87" xmlns="http://www.w3.org/2000/svg" version="1.1">
<title>OpenSCAD Model</title>
<path d="
M -10.8317,51.7294 L 0.313705,51.7294 L 18.9955,84.9062 L 40.3838,84.9062 L 17.9001,47.4772 L 20.2365,46.6843
 L 22.423,45.7416 L 24.4596,44.649 L 26.3463,43.4065 L 28.0831,42.0142 L 29.67,40.472 L 31.107,38.7799
 L 32.3717,36.959 L 33.4419,35.0303 L 34.3175,32.9939 L 34.9985,30.8496 L 35.485,28.5975 L 35.7768,26.2376
 L 35.8741,23.7699 L 35.7019,20.3187 L 35.1851,17.1068 L 34.3239,14.1342 L 33.1183,11.4009 L 31.5681,8.90691
 L 29.6734,6.65227 L 27.4343,4.63695 L 24.8483,2.87643 L 21.9127,1.38678 L 18.6273,0.167969 L 14.9922,-0.779984
 L 11.0074,-1.45709 L 6.67281,-1.86337 L 1.98856,-1.99879 L -29.8364,-1.99879 L -29.8364,84.9062 L -10.8317,84.9062
 z
M -10.8317,36.9759 L -10.8317,12.7537 L -0.0083313,12.7537 L 2.39748,12.8123 L 4.60873,12.9878 L 6.62541,13.2803
 L 8.44751,13.6899 L 10.075,14.2166 L 11.508,14.8602 L 12.7464,15.6208 L 13.8062,16.5049 L 14.703,17.5191
 L 15.4367,18.6635 L 16.0074,19.9381 L 16.415,21.3429 L 16.6596,22.878 L 16.7411,24.5432 L 16.4098,27.8417
 L 15.4158,30.6327 L 13.7592,32.9162 L 11.44,34.6923 L 8.45818,35.961 L 4.81367,36.7222 L 0.506561,36.9759
 z
" stroke="black" fill="lightgray" stroke-width="0.5"/>
</svg>
