  0
SECTION
  2
BLOCKS
  0
ENDSEC
  0
SECTION
  2
ENTITIES
  0
LINE
  8
0
 10
-10.8317
 20
-51.7294
 11
0.313705
 21
-51.7294
  0
LINE
  8
0
 10
0.313705
 20
-51.7294
 11
18.9955
 21
-84.9062
  0
LINE
  8
0
 10
18.9955
 20
-84.9062
 11
40.3838
 21
-84.9062
  0
LINE
  8
0
 10
40.3838
 20
-84.9062
 11
17.9001
 21
-47.4772
  0
LINE
  8
0
 10
17.9001
 20
-47.4772
 11
20.2365
 21
-46.6843
  0
LINE
  8
0
 10
20.2365
 20
-46.6843
 11
22.423
 21
-45.7416
  0
LINE
  8
0
 10
22.423
 20
-45.7416
 11
24.4596
 21
-44.649
  0
LINE
  8
0
 10
24.4596
 20
-44.649
 11
26.3463
 21
-43.4065
  0
LINE
  8
0
 10
26.3463
 20
-43.4065
 11
28.0831
 21
-42.0142
  0
LINE
  8
0
 10
28.0831
 20
-42.0142
 11
29.67
 21
-40.472
  0
LINE
  8
0
 10
29.67
 20
-40.472
 11
31.107
 21
-38.7799
  0
LINE
  8
0
 10
31.107
 20
-38.7799
 11
32.3717
 21
-36.959
  0
LINE
  8
0
 10
32.3717
 20
-36.959
 11
33.4419
 21
-35.0303
  0
LINE
  8
0
 10
33.4419
 20
-35.0303
 11
34.3175
 21
-32.9939
  0
LINE
  8
0
 10
34.3175
 20
-32.9939
 11
34.9985
 21
-30.8496
  0
LINE
  8
0
 10
34.9985
 20
-30.8496
 11
35.485
 21
-28.5975
  0
LINE
  8
0
 10
35.485
 20
-28.5975
 11
35.7768
 21
-26.2376
  0
LINE
  8
0
 10
35.7768
 20
-26.2376
 11
35.8741
 21
-23.7699
  0
LINE
  8
0
 10
35.8741
 20
-23.7699
 11
35.7019
 21
-20.3187
  0
LINE
  8
0
 10
35.7019
 20
-20.3187
 11
35.1851
 21
-17.1068
  0
LINE
  8
0
 10
35.1851
 20
-17.1068
 11
34.3239
 21
-14.1342
  0
LINE
  8
0
 10
34.3239
 20
-14.1342
 11
33.1183
 21
-11.4009
  0
LINE
  8
0
 10
33.1183
 20
-11.4009
 11
31.5681
 21
-8.90691
  0
LINE
  8
0
 10
31.5681
 20
-8.90691
 11
29.6734
 21
-6.65227
  0
LINE
  8
0
 10
29.6734
 20
-6.65227
 11
27.4343
 21
-4.63695
  0
LINE
  8
0
 10
27.4343
 20
-4.63695
 11
24.8483
 21
-2.87643
  0
LINE
  8
0
 10
24.8483
 20
-2.87643
 11
21.9127
 21
-1.38678
  0
LINE
  8
0
 10
21.9127
 20
-1.38678
 11
18.6273
 21
-0.167969
  0
LINE
  8
0
 10
18.6273
 20
-0.167969
 11
14.9922
 21
0.779984
  0
LINE
  8
0
 10
14.9922
 20
0.779984
 11
11.0074
 21
1.45709
  0
LINE
  8
0
 10
11.0074
 20
1.45709
 11
6.67281
 21
1.86337
  0
LINE
  8
0
 10
6.67281
 20
1.86337
 11
1.98856
 21
1.99879
  0
LINE
  8
0
 10
1.98856
 20
1.99879
 11
-29.8364
 21
1.99879
  0
LINE
  8
0
 10
-29.8364
 20
1.99879
 11
-29.8364
 21
-84.9062
  0
LINE
  8
0
 10
-29.8364
 20
-84.9062
 11
-10.8317
 21
-84.9062
  0
LINE
  8
0
 10
-10.8317
 20
-84.9062
 11
-10.8317
 21
-51.7294
  0
LINE
  8
0
 10
-10.8317
 20
-36.9759
 11
-10.8317
 21
-12.7537
  0
LINE
  8
0
 10
-10.8317
 20
-12.7537
 11
-0.0083313
 21
-12.7537
  0
LINE
  8
0
 10
-0.0083313
 20
-12.7537
 11
2.39748
 21
-12.8123
  0
LINE
  8
0
 10
2.39748
 20
-12.8123
 11
4.60873
 21
-12.9878
  0
LINE
  8
0
 10
4.60873
 20
-12.9878
 11
6.62541
 21
-13.2803
  0
LINE
  8
0
 10
6.62541
 20
-13.2803
 11
8.44751
 21
-13.6899
  0
LINE
  8
0
 10
8.44751
 20
-13.6899
 11
10.075
 21
-14.2166
  0
LINE
  8
0
 10
10.075
 20
-14.2166
 11
11.508
 21
-14.8602
  0
LINE
  8
0
 10
11.508
 20
-14.8602
 11
12.7464
 21
-15.6208
  0
LINE
  8
0
 10
12.7464
 20
-15.6208
 11
13.8062
 21
-16.5049
  0
LINE
  8
0
 10
13.8062
 20
-16.5049
 11
14.703
 21
-17.5191
  0
LINE
  8
0
 10
14.703
 20
-17.5191
 11
15.4367
 21
-18.6635
  0
LINE
  8
0
 10
15.4367
 20
-18.6635
 11
16.0074
 21
-19.9381
  0
LINE
  8
0
 10
16.0074
 20
-19.9381
 11
16.415
 21
-21.3429
  0
LINE
  8
0
 10
16.415
 20
-21.3429
 11
16.6596
 21
-22.878
  0
LINE
  8
0
 10
16.6596
 20
-22.878
 11
16.7411
 21
-24.5432
  0
LINE
  8
0
 10
16.7411
 20
-24.5432
 11
16.4098
 21
-27.8417
  0
LINE
  8
0
 10
16.4098
 20
-27.8417
 11
15.4158
 21
-30.6327
  0
LINE
  8
0
 10
15.4158
 20
-30.6327
 11
13.7592
 21
-32.9162
  0
LINE
  8
0
 10
13.7592
 20
-32.9162
 11
11.44
 21
-34.6923
  0
LINE
  8
0
 10
11.44
 20
-34.6923
 11
8.45818
 21
-35.961
  0
LINE
  8
0
 10
8.45818
 20
-35.961
 11
4.81367
 21
-36.7222
  0
LINE
  8
0
 10
4.81367
 20
-36.7222
 11
0.506561
 21
-36.9759
  0
LINE
  8
0
 10
0.506561
 20
-36.9759
 11
-10.8317
 21
-36.9759
  0
ENDSEC
  0
SECTION
  2
OBJECTS
  0
DICTIONARY
  0
ENDSEC
  0
EOF
