solid OpenSCAD_Model
  facet normal 0 0 -1
    outer loop
      vertex -29.8364 -84.9062 0
      vertex -10.8317 -51.7294 0
      vertex -10.8317 -84.9062 0
    endloop
  endfacet
  facet normal -0 0 -1
    outer loop
      vertex -10.8317 -51.7294 0
      vertex -29.8364 -84.9062 0
      vertex -10.8317 -36.9759 0
    endloop
  endfacet
  facet normal 0 0 -1
    outer loop
      vertex -29.8364 1.99879 0
      vertex -10.8317 -36.9759 0
      vertex -29.8364 -84.9062 0
    endloop
  endfacet
  facet normal 0 0 -1
    outer loop
      vertex 18.9955 -84.9062 0
      vertex 17.9001 -47.4772 0
      vertex 40.3838 -84.9062 0
    endloop
  endfacet
  facet normal 0 0 -1
    outer loop
      vertex 0.313705 -51.7294 0
      vertex 17.9001 -47.4772 0
      vertex 18.9955 -84.9062 0
    endloop
  endfacet
  facet normal 0 0 -1
    outer loop
      vertex 17.9001 -47.4772 0
      vertex 16.4098 -27.8417 0
      vertex 16.7411 -24.5432 0
    endloop
  endfacet
  facet normal 0 0 -1
    outer loop
      vertex 17.9001 -47.4772 0
      vertex 15.4158 -30.6327 0
      vertex 16.4098 -27.8417 0
    endloop
  endfacet
  facet normal 0 0 -1
    outer loop
      vertex 17.9001 -47.4772 0
      vertex 13.7592 -32.9162 0
      vertex 15.4158 -30.6327 0
    endloop
  endfacet
  facet normal 0 0 -1
    outer loop
      vertex 17.9001 -47.4772 0
      vertex 11.44 -34.6923 0
      vertex 13.7592 -32.9162 0
    endloop
  endfacet
  facet normal 0 -0 -1
    outer loop
      vertex 4.81367 -36.7222 0
      vertex 17.9001 -47.4772 0
      vertex 0.313705 -51.7294 0
    endloop
  endfacet
  facet normal 0 0 -1
    outer loop
      vertex 17.9001 -47.4772 0
      vertex 8.45818 -35.961 0
      vertex 11.44 -34.6923 0
    endloop
  endfacet
  facet normal 0 0 -1
    outer loop
      vertex 17.9001 -47.4772 0
      vertex 4.81367 -36.7222 0
      vertex 8.45818 -35.961 0
    endloop
  endfacet
  facet normal 0 0 -1
    outer loop
      vertex 4.81367 -36.7222 0
      vertex 0.313705 -51.7294 0
      vertex 0.506561 -36.9759 0
    endloop
  endfacet
  facet normal 0 0 -1
    outer loop
      vertex -10.8317 -36.9759 0
      vertex 0.313705 -51.7294 0
      vertex -10.8317 -51.7294 0
    endloop
  endfacet
  facet normal 0 0 -1
    outer loop
      vertex 0.313705 -51.7294 0
      vertex -10.8317 -36.9759 0
      vertex 0.506561 -36.9759 0
    endloop
  endfacet
  facet normal 0 0 -1
    outer loop
      vertex 16.7411 -24.5432 0
      vertex 35.8741 -23.7699 0
      vertex 35.7768 -26.2376 0
    endloop
  endfacet
  facet normal 0 0 -1
    outer loop
      vertex 16.7411 -24.5432 0
      vertex 35.7768 -26.2376 0
      vertex 35.485 -28.5975 0
    endloop
  endfacet
  facet normal 0 0 -1
    outer loop
      vertex 16.6596 -22.878 0
      vertex 35.8741 -23.7699 0
      vertex 16.7411 -24.5432 0
    endloop
  endfacet
  facet normal 0 0 -1
    outer loop
      vertex 16.7411 -24.5432 0
      vertex 35.485 -28.5975 0
      vertex 34.9985 -30.8496 0
    endloop
  endfacet
  facet normal 0 0 -1
    outer loop
      vertex 35.8741 -23.7699 0
      vertex 16.6596 -22.878 0
      vertex 35.7019 -20.3187 0
    endloop
  endfacet
  facet normal 0 0 -1
    outer loop
      vertex 16.7411 -24.5432 0
      vertex 34.9985 -30.8496 0
      vertex 34.3175 -32.9939 0
    endloop
  endfacet
  facet normal 0 0 -1
    outer loop
      vertex 16.7411 -24.5432 0
      vertex 34.3175 -32.9939 0
      vertex 33.4419 -35.0303 0
    endloop
  endfacet
  facet normal 0 0 -1
    outer loop
      vertex 16.415 -21.3429 0
      vertex 35.7019 -20.3187 0
      vertex 16.6596 -22.878 0
    endloop
  endfacet
  facet normal 0 0 -1
    outer loop
      vertex 16.7411 -24.5432 0
      vertex 33.4419 -35.0303 0
      vertex 32.3717 -36.959 0
    endloop
  endfacet
  facet normal -0 0 -1
    outer loop
      vertex 35.7019 -20.3187 0
      vertex 16.415 -21.3429 0
      vertex 35.1851 -17.1068 0
    endloop
  endfacet
  facet normal 0 0 -1
    outer loop
      vertex 16.7411 -24.5432 0
      vertex 32.3717 -36.959 0
      vertex 31.107 -38.7799 0
    endloop
  endfacet
  facet normal -0 0 -1
    outer loop
      vertex 35.1851 -17.1068 0
      vertex 16.415 -21.3429 0
      vertex 34.3239 -14.1342 0
    endloop
  endfacet
  facet normal 0 0 -1
    outer loop
      vertex 16.7411 -24.5432 0
      vertex 31.107 -38.7799 0
      vertex 29.67 -40.472 0
    endloop
  endfacet
  facet normal 0 0 -1
    outer loop
      vertex 16.7411 -24.5432 0
      vertex 29.67 -40.472 0
      vertex 28.0831 -42.0142 0
    endloop
  endfacet
  facet normal 0 0 -1
    outer loop
      vertex 16.0074 -19.9381 0
      vertex 34.3239 -14.1342 0
      vertex 16.415 -21.3429 0
    endloop
  endfacet
  facet normal 0 0 -1
    outer loop
      vertex 16.7411 -24.5432 0
      vertex 28.0831 -42.0142 0
      vertex 26.3463 -43.4065 0
    endloop
  endfacet
  facet normal -0 0 -1
    outer loop
      vertex 34.3239 -14.1342 0
      vertex 16.0074 -19.9381 0
      vertex 33.1183 -11.4009 0
    endloop
  endfacet
  facet normal 0 0 -1
    outer loop
      vertex 16.7411 -24.5432 0
      vertex 26.3463 -43.4065 0
      vertex 24.4596 -44.649 0
    endloop
  endfacet
  facet normal 0 0 -1
    outer loop
      vertex 16.7411 -24.5432 0
      vertex 24.4596 -44.649 0
      vertex 22.423 -45.7416 0
    endloop
  endfacet
  facet normal 0 0 -1
    outer loop
      vertex 15.4367 -18.6635 0
      vertex 33.1183 -11.4009 0
      vertex 16.0074 -19.9381 0
    endloop
  endfacet
  facet normal 0 0 -1
    outer loop
      vertex 16.7411 -24.5432 0
      vertex 22.423 -45.7416 0
      vertex 20.2365 -46.6843 0
    endloop
  endfacet
  facet normal -0 0 -1
    outer loop
      vertex 33.1183 -11.4009 0
      vertex 15.4367 -18.6635 0
      vertex 31.5681 -8.90691 0
    endloop
  endfacet
  facet normal 0 0 -1
    outer loop
      vertex 16.7411 -24.5432 0
      vertex 20.2365 -46.6843 0
      vertex 17.9001 -47.4772 0
    endloop
  endfacet
  facet normal -0 0 -1
    outer loop
      vertex 31.5681 -8.90691 0
      vertex 15.4367 -18.6635 0
      vertex 29.6734 -6.65227 0
    endloop
  endfacet
  facet normal 0 0 -1
    outer loop
      vertex 14.703 -17.5191 0
      vertex 29.6734 -6.65227 0
      vertex 15.4367 -18.6635 0
    endloop
  endfacet
  facet normal -0 0 -1
    outer loop
      vertex 29.6734 -6.65227 0
      vertex 14.703 -17.5191 0
      vertex 27.4343 -4.63695 0
    endloop
  endfacet
  facet normal -0 0 -1
    outer loop
      vertex 27.4343 -4.63695 0
      vertex 14.703 -17.5191 0
      vertex 24.8483 -2.87643 0
    endloop
  endfacet
  facet normal 0 0 -1
    outer loop
      vertex 13.8062 -16.5049 0
      vertex 24.8483 -2.87643 0
      vertex 14.703 -17.5191 0
    endloop
  endfacet
  facet normal -0 0 -1
    outer loop
      vertex 24.8483 -2.87643 0
      vertex 13.8062 -16.5049 0
      vertex 21.9127 -1.38678 0
    endloop
  endfacet
  facet normal 0 0 -1
    outer loop
      vertex 12.7464 -15.6208 0
      vertex 21.9127 -1.38678 0
      vertex 13.8062 -16.5049 0
    endloop
  endfacet
  facet normal -0 0 -1
    outer loop
      vertex 21.9127 -1.38678 0
      vertex 12.7464 -15.6208 0
      vertex 18.6273 -0.167969 0
    endloop
  endfacet
  facet normal 0 0 -1
    outer loop
      vertex 11.508 -14.8602 0
      vertex 18.6273 -0.167969 0
      vertex 12.7464 -15.6208 0
    endloop
  endfacet
  facet normal -0 0 -1
    outer loop
      vertex 18.6273 -0.167969 0
      vertex 11.508 -14.8602 0
      vertex 14.9922 0.779984 0
    endloop
  endfacet
  facet normal 0 0 -1
    outer loop
      vertex 10.075 -14.2166 0
      vertex 14.9922 0.779984 0
      vertex 11.508 -14.8602 0
    endloop
  endfacet
  facet normal -0 0 -1
    outer loop
      vertex 14.9922 0.779984 0
      vertex 10.075 -14.2166 0
      vertex 11.0074 1.45709 0
    endloop
  endfacet
  facet normal 0 0 -1
    outer loop
      vertex 8.44751 -13.6899 0
      vertex 11.0074 1.45709 0
      vertex 10.075 -14.2166 0
    endloop
  endfacet
  facet normal 0 0 -1
    outer loop
      vertex 6.62541 -13.2803 0
      vertex 11.0074 1.45709 0
      vertex 8.44751 -13.6899 0
    endloop
  endfacet
  facet normal -0 0 -1
    outer loop
      vertex 11.0074 1.45709 0
      vertex 6.62541 -13.2803 0
      vertex 6.67281 1.86337 0
    endloop
  endfacet
  facet normal 0 0 -1
    outer loop
      vertex 4.60873 -12.9878 0
      vertex 6.67281 1.86337 0
      vertex 6.62541 -13.2803 0
    endloop
  endfacet
  facet normal 0 0 -1
    outer loop
      vertex 2.39748 -12.8123 0
      vertex 6.67281 1.86337 0
      vertex 4.60873 -12.9878 0
    endloop
  endfacet
  facet normal 0 0 -1
    outer loop
      vertex 2.39748 -12.8123 0
      vertex 1.98856 1.99879 0
      vertex 6.67281 1.86337 0
    endloop
  endfacet
  facet normal 0 0 -1
    outer loop
      vertex -0.0083313 -12.7537 0
      vertex 1.98856 1.99879 0
      vertex 2.39748 -12.8123 0
    endloop
  endfacet
  facet normal 0 0 -1
    outer loop
      vertex -10.8317 -12.7537 0
      vertex 1.98856 1.99879 0
      vertex -0.0083313 -12.7537 0
    endloop
  endfacet
  facet normal 0 0 -1
    outer loop
      vertex -10.8317 -12.7537 0
      vertex -29.8364 1.99879 0
      vertex 1.98856 1.99879 0
    endloop
  endfacet
  facet normal 0 0 -1
    outer loop
      vertex -10.8317 -36.9759 0
      vertex -29.8364 1.99879 0
      vertex -10.8317 -12.7537 0
    endloop
  endfacet
  facet normal -0 0 1
    outer loop
      vertex 16.6596 -22.878 1
      vertex 35.8741 -23.7699 1
      vertex 35.7019 -20.3187 1
    endloop
  endfacet
  facet normal 0 0 1
    outer loop
      vertex 35.8741 -23.7699 1
      vertex 16.7411 -24.5432 1
      vertex 35.7768 -26.2376 1
    endloop
  endfacet
  facet normal 0 0 1
    outer loop
      vertex 16.415 -21.3429 1
      vertex 35.7019 -20.3187 1
      vertex 35.1851 -17.1068 1
    endloop
  endfacet
  facet normal 0 0 1
    outer loop
      vertex 35.8741 -23.7699 1
      vertex 16.6596 -22.878 1
      vertex 16.7411 -24.5432 1
    endloop
  endfacet
  facet normal 0 0 1
    outer loop
      vertex 16.415 -21.3429 1
      vertex 35.1851 -17.1068 1
      vertex 34.3239 -14.1342 1
    endloop
  endfacet
  facet normal 0 0 1
    outer loop
      vertex 35.7768 -26.2376 1
      vertex 16.7411 -24.5432 1
      vertex 35.485 -28.5975 1
    endloop
  endfacet
  facet normal 0 0 1
    outer loop
      vertex 35.485 -28.5975 1
      vertex 16.4098 -27.8417 1
      vertex 34.9985 -30.8496 1
    endloop
  endfacet
  facet normal 0 0 1
    outer loop
      vertex 16.0074 -19.9381 1
      vertex 34.3239 -14.1342 1
      vertex 33.1183 -11.4009 1
    endloop
  endfacet
  facet normal 0 0 1
    outer loop
      vertex 34.9985 -30.8496 1
      vertex 16.4098 -27.8417 1
      vertex 34.3175 -32.9939 1
    endloop
  endfacet
  facet normal 0 0 1
    outer loop
      vertex 15.4367 -18.6635 1
      vertex 33.1183 -11.4009 1
      vertex 31.5681 -8.90691 1
    endloop
  endfacet
  facet normal 0 0 1
    outer loop
      vertex 34.3175 -32.9939 1
      vertex 16.4098 -27.8417 1
      vertex 33.4419 -35.0303 1
    endloop
  endfacet
  facet normal 0 0 1
    outer loop
      vertex 15.4367 -18.6635 1
      vertex 31.5681 -8.90691 1
      vertex 29.6734 -6.65227 1
    endloop
  endfacet
  facet normal -0 0 1
    outer loop
      vertex 16.4098 -27.8417 1
      vertex 35.485 -28.5975 1
      vertex 16.7411 -24.5432 1
    endloop
  endfacet
  facet normal -0 0 1
    outer loop
      vertex 15.4158 -30.6327 1
      vertex 32.3717 -36.959 1
      vertex 16.4098 -27.8417 1
    endloop
  endfacet
  facet normal 0 0 1
    outer loop
      vertex 14.703 -17.5191 1
      vertex 29.6734 -6.65227 1
      vertex 27.4343 -4.63695 1
    endloop
  endfacet
  facet normal 0 0 1
    outer loop
      vertex 32.3717 -36.959 1
      vertex 15.4158 -30.6327 1
      vertex 31.107 -38.7799 1
    endloop
  endfacet
  facet normal 0 0 1
    outer loop
      vertex 14.703 -17.5191 1
      vertex 27.4343 -4.63695 1
      vertex 24.8483 -2.87643 1
    endloop
  endfacet
  facet normal 0 0 1
    outer loop
      vertex 31.107 -38.7799 1
      vertex 15.4158 -30.6327 1
      vertex 29.67 -40.472 1
    endloop
  endfacet
  facet normal 0 0 1
    outer loop
      vertex 29.67 -40.472 1
      vertex 15.4158 -30.6327 1
      vertex 28.0831 -42.0142 1
    endloop
  endfacet
  facet normal 0 0 1
    outer loop
      vertex 13.8062 -16.5049 1
      vertex 24.8483 -2.87643 1
      vertex 21.9127 -1.38678 1
    endloop
  endfacet
  facet normal 0 0 1
    outer loop
      vertex 28.0831 -42.0142 1
      vertex 15.4158 -30.6327 1
      vertex 26.3463 -43.4065 1
    endloop
  endfacet
  facet normal 0 0 1
    outer loop
      vertex 12.7464 -15.6208 1
      vertex 21.9127 -1.38678 1
      vertex 18.6273 -0.167969 1
    endloop
  endfacet
  facet normal -0 0 1
    outer loop
      vertex 13.7592 -32.9162 1
      vertex 26.3463 -43.4065 1
      vertex 15.4158 -30.6327 1
    endloop
  endfacet
  facet normal 0 0 1
    outer loop
      vertex 26.3463 -43.4065 1
      vertex 13.7592 -32.9162 1
      vertex 24.4596 -44.649 1
    endloop
  endfacet
  facet normal 0 0 1
    outer loop
      vertex 33.4419 -35.0303 1
      vertex 16.4098 -27.8417 1
      vertex 32.3717 -36.959 1
    endloop
  endfacet
  facet normal 0 0 1
    outer loop
      vertex 35.7019 -20.3187 1
      vertex 16.415 -21.3429 1
      vertex 16.6596 -22.878 1
    endloop
  endfacet
  facet normal 0 0 1
    outer loop
      vertex 34.3239 -14.1342 1
      vertex 16.0074 -19.9381 1
      vertex 16.415 -21.3429 1
    endloop
  endfacet
  facet normal 0 0 1
    outer loop
      vertex 33.1183 -11.4009 1
      vertex 15.4367 -18.6635 1
      vertex 16.0074 -19.9381 1
    endloop
  endfacet
  facet normal 0 0 1
    outer loop
      vertex 11.508 -14.8602 1
      vertex 18.6273 -0.167969 1
      vertex 14.9922 0.779984 1
    endloop
  endfacet
  facet normal 0 0 1
    outer loop
      vertex 29.6734 -6.65227 1
      vertex 14.703 -17.5191 1
      vertex 15.4367 -18.6635 1
    endloop
  endfacet
  facet normal 0 0 1
    outer loop
      vertex 24.8483 -2.87643 1
      vertex 13.8062 -16.5049 1
      vertex 14.703 -17.5191 1
    endloop
  endfacet
  facet normal 0 0 1
    outer loop
      vertex 21.9127 -1.38678 1
      vertex 12.7464 -15.6208 1
      vertex 13.8062 -16.5049 1
    endloop
  endfacet
  facet normal 0 0 1
    outer loop
      vertex 18.6273 -0.167969 1
      vertex 11.508 -14.8602 1
      vertex 12.7464 -15.6208 1
    endloop
  endfacet
  facet normal 0 0 1
    outer loop
      vertex 10.075 -14.2166 1
      vertex 14.9922 0.779984 1
      vertex 11.0074 1.45709 1
    endloop
  endfacet
  facet normal 0 0 1
    outer loop
      vertex 14.9922 0.779984 1
      vertex 10.075 -14.2166 1
      vertex 11.508 -14.8602 1
    endloop
  endfacet
  facet normal 0 0 1
    outer loop
      vertex 11.0074 1.45709 1
      vertex 8.44751 -13.6899 1
      vertex 10.075 -14.2166 1
    endloop
  endfacet
  facet normal 0 0 1
    outer loop
      vertex 6.62541 -13.2803 1
      vertex 11.0074 1.45709 1
      vertex 6.67281 1.86337 1
    endloop
  endfacet
  facet normal 0 0 1
    outer loop
      vertex 11.0074 1.45709 1
      vertex 6.62541 -13.2803 1
      vertex 8.44751 -13.6899 1
    endloop
  endfacet
  facet normal 0 0 1
    outer loop
      vertex 6.67281 1.86337 1
      vertex 4.60873 -12.9878 1
      vertex 6.62541 -13.2803 1
    endloop
  endfacet
  facet normal 0 0 1
    outer loop
      vertex 6.67281 1.86337 1
      vertex 2.39748 -12.8123 1
      vertex 4.60873 -12.9878 1
    endloop
  endfacet
  facet normal 0 0 1
    outer loop
      vertex 1.98856 1.99879 1
      vertex 2.39748 -12.8123 1
      vertex 6.67281 1.86337 1
    endloop
  endfacet
  facet normal 0 0 1
    outer loop
      vertex 1.98856 1.99879 1
      vertex -0.0083313 -12.7537 1
      vertex 2.39748 -12.8123 1
    endloop
  endfacet
  facet normal 0 0 1
    outer loop
      vertex 1.98856 1.99879 1
      vertex -10.8317 -12.7537 1
      vertex -0.0083313 -12.7537 1
    endloop
  endfacet
  facet normal 0 0 1
    outer loop
      vertex -29.8364 1.99879 1
      vertex -10.8317 -36.9759 1
      vertex -10.8317 -12.7537 1
    endloop
  endfacet
  facet normal 0 0 1
    outer loop
      vertex -29.8364 -84.9062 1
      vertex -10.8317 -36.9759 1
      vertex -29.8364 1.99879 1
    endloop
  endfacet
  facet normal -0 0 1
    outer loop
      vertex -29.8364 1.99879 1
      vertex -10.8317 -12.7537 1
      vertex 1.98856 1.99879 1
    endloop
  endfacet
  facet normal 0 0 1
    outer loop
      vertex -10.8317 -36.9759 1
      vertex -29.8364 -84.9062 1
      vertex -10.8317 -51.7294 1
    endloop
  endfacet
  facet normal 0 0 1
    outer loop
      vertex -10.8317 -51.7294 1
      vertex -29.8364 -84.9062 1
      vertex -10.8317 -84.9062 1
    endloop
  endfacet
  facet normal 0 0 1
    outer loop
      vertex 17.9001 -47.4772 1
      vertex 18.9955 -84.9062 1
      vertex 40.3838 -84.9062 1
    endloop
  endfacet
  facet normal 0 0 1
    outer loop
      vertex 24.4596 -44.649 1
      vertex 13.7592 -32.9162 1
      vertex 22.423 -45.7416 1
    endloop
  endfacet
  facet normal 0 0 1
    outer loop
      vertex 22.423 -45.7416 1
      vertex 13.7592 -32.9162 1
      vertex 20.2365 -46.6843 1
    endloop
  endfacet
  facet normal -0 0 1
    outer loop
      vertex 11.44 -34.6923 1
      vertex 20.2365 -46.6843 1
      vertex 13.7592 -32.9162 1
    endloop
  endfacet
  facet normal 0 0 1
    outer loop
      vertex 20.2365 -46.6843 1
      vertex 11.44 -34.6923 1
      vertex 17.9001 -47.4772 1
    endloop
  endfacet
  facet normal -0 0 1
    outer loop
      vertex 8.45818 -35.961 1
      vertex 17.9001 -47.4772 1
      vertex 11.44 -34.6923 1
    endloop
  endfacet
  facet normal -0 0 1
    outer loop
      vertex 4.81367 -36.7222 1
      vertex 17.9001 -47.4772 1
      vertex 8.45818 -35.961 1
    endloop
  endfacet
  facet normal 0 0 1
    outer loop
      vertex 17.9001 -47.4772 1
      vertex 4.81367 -36.7222 1
      vertex 0.313705 -51.7294 1
    endloop
  endfacet
  facet normal 0 0 1
    outer loop
      vertex 0.313705 -51.7294 1
      vertex 4.81367 -36.7222 1
      vertex 0.506561 -36.9759 1
    endloop
  endfacet
  facet normal 0 0 1
    outer loop
      vertex 17.9001 -47.4772 1
      vertex 0.313705 -51.7294 1
      vertex 18.9955 -84.9062 1
    endloop
  endfacet
  facet normal -0 0 1
    outer loop
      vertex -10.8317 -36.9759 1
      vertex 0.313705 -51.7294 1
      vertex 0.506561 -36.9759 1
    endloop
  endfacet
  facet normal 0 0 1
    outer loop
      vertex 0.313705 -51.7294 1
      vertex -10.8317 -36.9759 1
      vertex -10.8317 -51.7294 1
    endloop
  endfacet
  facet normal 0 -1 0
    outer loop
      vertex -10.8317 -51.7294 0
      vertex 0.313705 -51.7294 1
      vertex -10.8317 -51.7294 1
    endloop
  endfacet
  facet normal 0 -1 -0
    outer loop
      vertex 0.313705 -51.7294 1
      vertex -10.8317 -51.7294 0
      vertex 0.313705 -51.7294 0
    endloop
  endfacet
  facet normal -0.871353 -0.490657 0
    outer loop
      vertex 18.9955 -84.9062 0
      vertex 0.313705 -51.7294 1
      vertex 0.313705 -51.7294 0
    endloop
  endfacet
  facet normal -0.871353 -0.490657 0
    outer loop
      vertex 0.313705 -51.7294 1
      vertex 18.9955 -84.9062 0
      vertex 18.9955 -84.9062 1
    endloop
  endfacet
  facet normal 0 -1 0
    outer loop
      vertex 18.9955 -84.9062 0
      vertex 40.3838 -84.9062 1
      vertex 18.9955 -84.9062 1
    endloop
  endfacet
  facet normal 0 -1 -0
    outer loop
      vertex 40.3838 -84.9062 1
      vertex 18.9955 -84.9062 0
      vertex 40.3838 -84.9062 0
    endloop
  endfacet
  facet normal 0.857227 0.514939 0
    outer loop
      vertex 40.3838 -84.9062 1
      vertex 17.9001 -47.4772 0
      vertex 17.9001 -47.4772 1
    endloop
  endfacet
  facet normal 0.857227 0.514939 0
    outer loop
      vertex 17.9001 -47.4772 0
      vertex 40.3838 -84.9062 1
      vertex 40.3838 -84.9062 0
    endloop
  endfacet
  facet normal 0.321366 -0.946955 0
    outer loop
      vertex 17.9001 -47.4772 0
      vertex 20.2365 -46.6843 1
      vertex 17.9001 -47.4772 1
    endloop
  endfacet
  facet normal 0.321366 -0.946955 0
    outer loop
      vertex 20.2365 -46.6843 1
      vertex 17.9001 -47.4772 0
      vertex 20.2365 -46.6843 0
    endloop
  endfacet
  facet normal 0.395915 -0.918287 0
    outer loop
      vertex 20.2365 -46.6843 0
      vertex 22.423 -45.7416 1
      vertex 20.2365 -46.6843 1
    endloop
  endfacet
  facet normal 0.395915 -0.918287 0
    outer loop
      vertex 22.423 -45.7416 1
      vertex 20.2365 -46.6843 0
      vertex 22.423 -45.7416 0
    endloop
  endfacet
  facet normal 0.472747 -0.881198 0
    outer loop
      vertex 22.423 -45.7416 0
      vertex 24.4596 -44.649 1
      vertex 22.423 -45.7416 1
    endloop
  endfacet
  facet normal 0.472747 -0.881198 0
    outer loop
      vertex 24.4596 -44.649 1
      vertex 22.423 -45.7416 0
      vertex 24.4596 -44.649 0
    endloop
  endfacet
  facet normal 0.550003 -0.835163 0
    outer loop
      vertex 24.4596 -44.649 0
      vertex 26.3463 -43.4065 1
      vertex 24.4596 -44.649 1
    endloop
  endfacet
  facet normal 0.550003 -0.835163 0
    outer loop
      vertex 26.3463 -43.4065 1
      vertex 24.4596 -44.649 0
      vertex 26.3463 -43.4065 0
    endloop
  endfacet
  facet normal 0.625478 -0.780242 0
    outer loop
      vertex 26.3463 -43.4065 0
      vertex 28.0831 -42.0142 1
      vertex 26.3463 -43.4065 1
    endloop
  endfacet
  facet normal 0.625478 -0.780242 0
    outer loop
      vertex 28.0831 -42.0142 1
      vertex 26.3463 -43.4065 0
      vertex 28.0831 -42.0142 0
    endloop
  endfacet
  facet normal 0.696934 -0.717135 0
    outer loop
      vertex 28.0831 -42.0142 0
      vertex 29.67 -40.472 1
      vertex 28.0831 -42.0142 1
    endloop
  endfacet
  facet normal 0.696934 -0.717135 0
    outer loop
      vertex 29.67 -40.472 1
      vertex 28.0831 -42.0142 0
      vertex 29.67 -40.472 0
    endloop
  endfacet
  facet normal 0.762225 -0.647312 0
    outer loop
      vertex 29.67 -40.472 1
      vertex 31.107 -38.7799 0
      vertex 31.107 -38.7799 1
    endloop
  endfacet
  facet normal 0.762225 -0.647312 0
    outer loop
      vertex 31.107 -38.7799 0
      vertex 29.67 -40.472 1
      vertex 29.67 -40.472 0
    endloop
  endfacet
  facet normal 0.821331 -0.570452 0
    outer loop
      vertex 31.107 -38.7799 1
      vertex 32.3717 -36.959 0
      vertex 32.3717 -36.959 1
    endloop
  endfacet
  facet normal 0.821331 -0.570452 0
    outer loop
      vertex 32.3717 -36.959 0
      vertex 31.107 -38.7799 1
      vertex 31.107 -38.7799 0
    endloop
  endfacet
  facet normal 0.874407 -0.485192 0
    outer loop
      vertex 32.3717 -36.959 1
      vertex 33.4419 -35.0303 0
      vertex 33.4419 -35.0303 1
    endloop
  endfacet
  facet normal 0.874407 -0.485192 0
    outer loop
      vertex 33.4419 -35.0303 0
      vertex 32.3717 -36.959 1
      vertex 32.3717 -36.959 0
    endloop
  endfacet
  facet normal 0.918678 -0.395008 0
    outer loop
      vertex 33.4419 -35.0303 1
      vertex 34.3175 -32.9939 0
      vertex 34.3175 -32.9939 1
    endloop
  endfacet
  facet normal 0.918678 -0.395008 0
    outer loop
      vertex 34.3175 -32.9939 0
      vertex 33.4419 -35.0303 1
      vertex 33.4419 -35.0303 0
    endloop
  endfacet
  facet normal 0.95309 -0.302688 0
    outer loop
      vertex 34.3175 -32.9939 1
      vertex 34.9985 -30.8496 0
      vertex 34.9985 -30.8496 1
    endloop
  endfacet
  facet normal 0.95309 -0.302688 0
    outer loop
      vertex 34.9985 -30.8496 0
      vertex 34.3175 -32.9939 1
      vertex 34.3175 -32.9939 0
    endloop
  endfacet
  facet normal 0.977454 -0.21115 0
    outer loop
      vertex 34.9985 -30.8496 1
      vertex 35.485 -28.5975 0
      vertex 35.485 -28.5975 1
    endloop
  endfacet
  facet normal 0.977454 -0.21115 0
    outer loop
      vertex 35.485 -28.5975 0
      vertex 34.9985 -30.8496 1
      vertex 34.9985 -30.8496 0
    endloop
  endfacet
  facet normal 0.992442 -0.122715 0
    outer loop
      vertex 35.485 -28.5975 1
      vertex 35.7768 -26.2376 0
      vertex 35.7768 -26.2376 1
    endloop
  endfacet
  facet normal 0.992442 -0.122715 0
    outer loop
      vertex 35.7768 -26.2376 0
      vertex 35.485 -28.5975 1
      vertex 35.485 -28.5975 0
    endloop
  endfacet
  facet normal 0.999224 -0.0393988 0
    outer loop
      vertex 35.7768 -26.2376 1
      vertex 35.8741 -23.7699 0
      vertex 35.8741 -23.7699 1
    endloop
  endfacet
  facet normal 0.999224 -0.0393988 0
    outer loop
      vertex 35.8741 -23.7699 0
      vertex 35.7768 -26.2376 1
      vertex 35.7768 -26.2376 0
    endloop
  endfacet
  facet normal 0.998758 0.0498337 0
    outer loop
      vertex 35.8741 -23.7699 1
      vertex 35.7019 -20.3187 0
      vertex 35.7019 -20.3187 1
    endloop
  endfacet
  facet normal 0.998758 0.0498337 0
    outer loop
      vertex 35.7019 -20.3187 0
      vertex 35.8741 -23.7699 1
      vertex 35.8741 -23.7699 0
    endloop
  endfacet
  facet normal 0.987301 0.158858 0
    outer loop
      vertex 35.7019 -20.3187 1
      vertex 35.1851 -17.1068 0
      vertex 35.1851 -17.1068 1
    endloop
  endfacet
  facet normal 0.987301 0.158858 0
    outer loop
      vertex 35.1851 -17.1068 0
      vertex 35.7019 -20.3187 1
      vertex 35.7019 -20.3187 0
    endloop
  endfacet
  facet normal 0.960503 0.27827 0
    outer loop
      vertex 35.1851 -17.1068 1
      vertex 34.3239 -14.1342 0
      vertex 34.3239 -14.1342 1
    endloop
  endfacet
  facet normal 0.960503 0.27827 0
    outer loop
      vertex 34.3239 -14.1342 0
      vertex 35.1851 -17.1068 1
      vertex 35.1851 -17.1068 0
    endloop
  endfacet
  facet normal 0.914951 0.403565 0
    outer loop
      vertex 34.3239 -14.1342 1
      vertex 33.1183 -11.4009 0
      vertex 33.1183 -11.4009 1
    endloop
  endfacet
  facet normal 0.914951 0.403565 0
    outer loop
      vertex 33.1183 -11.4009 0
      vertex 34.3239 -14.1342 1
      vertex 34.3239 -14.1342 0
    endloop
  endfacet
  facet normal 0.849303 0.527905 0
    outer loop
      vertex 33.1183 -11.4009 1
      vertex 31.5681 -8.90691 0
      vertex 31.5681 -8.90691 1
    endloop
  endfacet
  facet normal 0.849303 0.527905 0
    outer loop
      vertex 31.5681 -8.90691 0
      vertex 33.1183 -11.4009 1
      vertex 33.1183 -11.4009 0
    endloop
  endfacet
  facet normal 0.765571 0.643352 0
    outer loop
      vertex 31.5681 -8.90691 1
      vertex 29.6734 -6.65227 0
      vertex 29.6734 -6.65227 1
    endloop
  endfacet
  facet normal 0.765571 0.643352 0
    outer loop
      vertex 29.6734 -6.65227 0
      vertex 31.5681 -8.90691 1
      vertex 31.5681 -8.90691 0
    endloop
  endfacet
  facet normal 0.668989 0.743273 -0
    outer loop
      vertex 29.6734 -6.65227 0
      vertex 27.4343 -4.63695 1
      vertex 29.6734 -6.65227 1
    endloop
  endfacet
  facet normal 0.668989 0.743273 0
    outer loop
      vertex 27.4343 -4.63695 1
      vertex 29.6734 -6.65227 0
      vertex 27.4343 -4.63695 0
    endloop
  endfacet
  facet normal 0.562756 0.826623 -0
    outer loop
      vertex 27.4343 -4.63695 0
      vertex 24.8483 -2.87643 1
      vertex 27.4343 -4.63695 1
    endloop
  endfacet
  facet normal 0.562756 0.826623 0
    outer loop
      vertex 24.8483 -2.87643 1
      vertex 27.4343 -4.63695 0
      vertex 24.8483 -2.87643 0
    endloop
  endfacet
  facet normal 0.452516 0.891756 -0
    outer loop
      vertex 24.8483 -2.87643 0
      vertex 21.9127 -1.38678 1
      vertex 24.8483 -2.87643 1
    endloop
  endfacet
  facet normal 0.452516 0.891756 0
    outer loop
      vertex 21.9127 -1.38678 1
      vertex 24.8483 -2.87643 0
      vertex 21.9127 -1.38678 0
    endloop
  endfacet
  facet normal 0.347815 0.937563 -0
    outer loop
      vertex 21.9127 -1.38678 0
      vertex 18.6273 -0.167969 1
      vertex 21.9127 -1.38678 1
    endloop
  endfacet
  facet normal 0.347815 0.937563 0
    outer loop
      vertex 18.6273 -0.167969 1
      vertex 21.9127 -1.38678 0
      vertex 18.6273 -0.167969 0
    endloop
  endfacet
  facet normal 0.252339 0.967639 -0
    outer loop
      vertex 18.6273 -0.167969 0
      vertex 14.9922 0.779984 1
      vertex 18.6273 -0.167969 1
    endloop
  endfacet
  facet normal 0.252339 0.967639 0
    outer loop
      vertex 14.9922 0.779984 1
      vertex 18.6273 -0.167969 0
      vertex 14.9922 0.779984 0
    endloop
  endfacet
  facet normal 0.167521 0.985869 -0
    outer loop
      vertex 14.9922 0.779984 0
      vertex 11.0074 1.45709 1
      vertex 14.9922 0.779984 1
    endloop
  endfacet
  facet normal 0.167521 0.985869 0
    outer loop
      vertex 11.0074 1.45709 1
      vertex 14.9922 0.779984 0
      vertex 11.0074 1.45709 0
    endloop
  endfacet
  facet normal 0.0933207 0.995636 -0
    outer loop
      vertex 11.0074 1.45709 0
      vertex 6.67281 1.86337 1
      vertex 11.0074 1.45709 1
    endloop
  endfacet
  facet normal 0.0933207 0.995636 0
    outer loop
      vertex 6.67281 1.86337 1
      vertex 11.0074 1.45709 0
      vertex 6.67281 1.86337 0
    endloop
  endfacet
  facet normal 0.0288976 0.999582 -0
    outer loop
      vertex 6.67281 1.86337 0
      vertex 1.98856 1.99879 1
      vertex 6.67281 1.86337 1
    endloop
  endfacet
  facet normal 0.0288976 0.999582 0
    outer loop
      vertex 1.98856 1.99879 1
      vertex 6.67281 1.86337 0
      vertex 1.98856 1.99879 0
    endloop
  endfacet
  facet normal 0 1 -0
    outer loop
      vertex 1.98856 1.99879 0
      vertex -29.8364 1.99879 1
      vertex 1.98856 1.99879 1
    endloop
  endfacet
  facet normal 0 1 0
    outer loop
      vertex -29.8364 1.99879 1
      vertex 1.98856 1.99879 0
      vertex -29.8364 1.99879 0
    endloop
  endfacet
  facet normal -1 0 0
    outer loop
      vertex -29.8364 -84.9062 0
      vertex -29.8364 1.99879 1
      vertex -29.8364 1.99879 0
    endloop
  endfacet
  facet normal -1 -0 0
    outer loop
      vertex -29.8364 1.99879 1
      vertex -29.8364 -84.9062 0
      vertex -29.8364 -84.9062 1
    endloop
  endfacet
  facet normal 0 -1 0
    outer loop
      vertex -29.8364 -84.9062 0
      vertex -10.8317 -84.9062 1
      vertex -29.8364 -84.9062 1
    endloop
  endfacet
  facet normal 0 -1 -0
    outer loop
      vertex -10.8317 -84.9062 1
      vertex -29.8364 -84.9062 0
      vertex -10.8317 -84.9062 0
    endloop
  endfacet
  facet normal 1 -0 0
    outer loop
      vertex -10.8317 -84.9062 1
      vertex -10.8317 -51.7294 0
      vertex -10.8317 -51.7294 1
    endloop
  endfacet
  facet normal 1 0 0
    outer loop
      vertex -10.8317 -51.7294 0
      vertex -10.8317 -84.9062 1
      vertex -10.8317 -84.9062 0
    endloop
  endfacet
  facet normal 1 -0 0
    outer loop
      vertex -10.8317 -36.9759 1
      vertex -10.8317 -12.7537 0
      vertex -10.8317 -12.7537 1
    endloop
  endfacet
  facet normal 1 0 0
    outer loop
      vertex -10.8317 -12.7537 0
      vertex -10.8317 -36.9759 1
      vertex -10.8317 -36.9759 0
    endloop
  endfacet
  facet normal 0 -1 0
    outer loop
      vertex -10.8317 -12.7537 0
      vertex -0.0083313 -12.7537 1
      vertex -10.8317 -12.7537 1
    endloop
  endfacet
  facet normal 0 -1 -0
    outer loop
      vertex -0.0083313 -12.7537 1
      vertex -10.8317 -12.7537 0
      vertex -0.0083313 -12.7537 0
    endloop
  endfacet
  facet normal -0.0243505 -0.999703 0
    outer loop
      vertex -0.0083313 -12.7537 0
      vertex 2.39748 -12.8123 1
      vertex -0.0083313 -12.7537 1
    endloop
  endfacet
  facet normal -0.0243505 -0.999703 -0
    outer loop
      vertex 2.39748 -12.8123 1
      vertex -0.0083313 -12.7537 0
      vertex 2.39748 -12.8123 0
    endloop
  endfacet
  facet normal -0.0791181 -0.996865 0
    outer loop
      vertex 2.39748 -12.8123 0
      vertex 4.60873 -12.9878 1
      vertex 2.39748 -12.8123 1
    endloop
  endfacet
  facet normal -0.0791181 -0.996865 -0
    outer loop
      vertex 4.60873 -12.9878 1
      vertex 2.39748 -12.8123 0
      vertex 4.60873 -12.9878 0
    endloop
  endfacet
  facet normal -0.143538 -0.989645 0
    outer loop
      vertex 4.60873 -12.9878 0
      vertex 6.62541 -13.2803 1
      vertex 4.60873 -12.9878 1
    endloop
  endfacet
  facet normal -0.143538 -0.989645 -0
    outer loop
      vertex 6.62541 -13.2803 1
      vertex 4.60873 -12.9878 0
      vertex 6.62541 -13.2803 0
    endloop
  endfacet
  facet normal -0.219322 -0.975652 0
    outer loop
      vertex 6.62541 -13.2803 0
      vertex 8.44751 -13.6899 1
      vertex 6.62541 -13.2803 1
    endloop
  endfacet
  facet normal -0.219322 -0.975652 -0
    outer loop
      vertex 8.44751 -13.6899 1
      vertex 6.62541 -13.2803 0
      vertex 8.44751 -13.6899 0
    endloop
  endfacet
  facet normal -0.307904 -0.951417 0
    outer loop
      vertex 8.44751 -13.6899 0
      vertex 10.075 -14.2166 1
      vertex 8.44751 -13.6899 1
    endloop
  endfacet
  facet normal -0.307904 -0.951417 -0
    outer loop
      vertex 10.075 -14.2166 1
      vertex 8.44751 -13.6899 0
      vertex 10.075 -14.2166 0
    endloop
  endfacet
  facet normal -0.409703 -0.912219 0
    outer loop
      vertex 10.075 -14.2166 0
      vertex 11.508 -14.8602 1
      vertex 10.075 -14.2166 1
    endloop
  endfacet
  facet normal -0.409703 -0.912219 -0
    outer loop
      vertex 11.508 -14.8602 1
      vertex 10.075 -14.2166 0
      vertex 11.508 -14.8602 0
    endloop
  endfacet
  facet normal -0.523352 -0.852116 0
    outer loop
      vertex 11.508 -14.8602 0
      vertex 12.7464 -15.6208 1
      vertex 11.508 -14.8602 1
    endloop
  endfacet
  facet normal -0.523352 -0.852116 -0
    outer loop
      vertex 12.7464 -15.6208 1
      vertex 11.508 -14.8602 0
      vertex 12.7464 -15.6208 0
    endloop
  endfacet
  facet normal -0.640583 -0.767889 0
    outer loop
      vertex 12.7464 -15.6208 0
      vertex 13.8062 -16.5049 1
      vertex 12.7464 -15.6208 1
    endloop
  endfacet
  facet normal -0.640583 -0.767889 -0
    outer loop
      vertex 13.8062 -16.5049 1
      vertex 12.7464 -15.6208 0
      vertex 13.8062 -16.5049 0
    endloop
  endfacet
  facet normal -0.749135 -0.662418 0
    outer loop
      vertex 14.703 -17.5191 0
      vertex 13.8062 -16.5049 1
      vertex 13.8062 -16.5049 0
    endloop
  endfacet
  facet normal -0.749135 -0.662418 0
    outer loop
      vertex 13.8062 -16.5049 1
      vertex 14.703 -17.5191 0
      vertex 14.703 -17.5191 1
    endloop
  endfacet
  facet normal -0.841842 -0.539724 0
    outer loop
      vertex 15.4367 -18.6635 0
      vertex 14.703 -17.5191 1
      vertex 14.703 -17.5191 0
    endloop
  endfacet
  facet normal -0.841842 -0.539724 0
    outer loop
      vertex 14.703 -17.5191 1
      vertex 15.4367 -18.6635 0
      vertex 15.4367 -18.6635 1
    endloop
  endfacet
  facet normal -0.912689 -0.408655 0
    outer loop
      vertex 16.0074 -19.9381 0
      vertex 15.4367 -18.6635 1
      vertex 15.4367 -18.6635 0
    endloop
  endfacet
  facet normal -0.912689 -0.408655 0
    outer loop
      vertex 15.4367 -18.6635 1
      vertex 16.0074 -19.9381 0
      vertex 16.0074 -19.9381 1
    endloop
  endfacet
  facet normal -0.960391 -0.278656 0
    outer loop
      vertex 16.415 -21.3429 0
      vertex 16.0074 -19.9381 1
      vertex 16.0074 -19.9381 0
    endloop
  endfacet
  facet normal -0.960391 -0.278656 0
    outer loop
      vertex 16.0074 -19.9381 1
      vertex 16.415 -21.3429 0
      vertex 16.415 -21.3429 1
    endloop
  endfacet
  facet normal -0.987542 -0.157353 0
    outer loop
      vertex 16.6596 -22.878 0
      vertex 16.415 -21.3429 1
      vertex 16.415 -21.3429 0
    endloop
  endfacet
  facet normal -0.987542 -0.157353 0
    outer loop
      vertex 16.415 -21.3429 1
      vertex 16.6596 -22.878 0
      vertex 16.6596 -22.878 1
    endloop
  endfacet
  facet normal -0.998804 -0.0488846 0
    outer loop
      vertex 16.7411 -24.5432 0
      vertex 16.6596 -22.878 1
      vertex 16.6596 -22.878 0
    endloop
  endfacet
  facet normal -0.998804 -0.0488846 0
    outer loop
      vertex 16.6596 -22.878 1
      vertex 16.7411 -24.5432 0
      vertex 16.7411 -24.5432 1
    endloop
  endfacet
  facet normal -0.994994 0.0999368 0
    outer loop
      vertex 16.4098 -27.8417 0
      vertex 16.7411 -24.5432 1
      vertex 16.7411 -24.5432 0
    endloop
  endfacet
  facet normal -0.994994 0.0999368 0
    outer loop
      vertex 16.7411 -24.5432 1
      vertex 16.4098 -27.8417 0
      vertex 16.4098 -27.8417 1
    endloop
  endfacet
  facet normal -0.942039 0.335502 0
    outer loop
      vertex 15.4158 -30.6327 0
      vertex 16.4098 -27.8417 1
      vertex 16.4098 -27.8417 0
    endloop
  endfacet
  facet normal -0.942039 0.335502 0
    outer loop
      vertex 16.4098 -27.8417 1
      vertex 15.4158 -30.6327 0
      vertex 15.4158 -30.6327 1
    endloop
  endfacet
  facet normal -0.809431 0.587214 0
    outer loop
      vertex 13.7592 -32.9162 0
      vertex 15.4158 -30.6327 1
      vertex 15.4158 -30.6327 0
    endloop
  endfacet
  facet normal -0.809431 0.587214 0
    outer loop
      vertex 15.4158 -30.6327 1
      vertex 13.7592 -32.9162 0
      vertex 13.7592 -32.9162 1
    endloop
  endfacet
  facet normal -0.60801 0.793929 0
    outer loop
      vertex 13.7592 -32.9162 0
      vertex 11.44 -34.6923 1
      vertex 13.7592 -32.9162 1
    endloop
  endfacet
  facet normal -0.60801 0.793929 0
    outer loop
      vertex 11.44 -34.6923 1
      vertex 13.7592 -32.9162 0
      vertex 11.44 -34.6923 0
    endloop
  endfacet
  facet normal -0.391513 0.920172 0
    outer loop
      vertex 11.44 -34.6923 0
      vertex 8.45818 -35.961 1
      vertex 11.44 -34.6923 1
    endloop
  endfacet
  facet normal -0.391513 0.920172 0
    outer loop
      vertex 8.45818 -35.961 1
      vertex 11.44 -34.6923 0
      vertex 8.45818 -35.961 0
    endloop
  endfacet
  facet normal -0.20445 0.978877 0
    outer loop
      vertex 8.45818 -35.961 0
      vertex 4.81367 -36.7222 1
      vertex 8.45818 -35.961 1
    endloop
  endfacet
  facet normal -0.20445 0.978877 0
    outer loop
      vertex 4.81367 -36.7222 1
      vertex 8.45818 -35.961 0
      vertex 4.81367 -36.7222 0
    endloop
  endfacet
  facet normal -0.0588007 0.99827 0
    outer loop
      vertex 4.81367 -36.7222 0
      vertex 0.506561 -36.9759 1
      vertex 4.81367 -36.7222 1
    endloop
  endfacet
  facet normal -0.0588007 0.99827 0
    outer loop
      vertex 0.506561 -36.9759 1
      vertex 4.81367 -36.7222 0
      vertex 0.506561 -36.9759 0
    endloop
  endfacet
  facet normal 0 1 -0
    outer loop
      vertex 0.506561 -36.9759 0
      vertex -10.8317 -36.9759 1
      vertex 0.506561 -36.9759 1
    endloop
  endfacet
  facet normal 0 1 0
    outer loop
      vertex -10.8317 -36.9759 1
      vertex 0.506561 -36.9759 0
      vertex -10.8317 -36.9759 0
    endloop
  endfacet
endsolid OpenSCAD_Model
