  0
SECTION
  2
BLOCKS
  0
ENDSEC
  0
SECTION
  2
ENTITIES
  0
LINE
  8
0
 10
-8.23865
 20
-43.1883
 11
9.38745
 21
-43.1883
  0
LINE
  8
0
 10
9.38745
 20
-43.1883
 11
12.9437
 21
-55.9437
  0
LINE
  8
0
 10
12.9437
 20
-55.9437
 11
24.3078
 21
-55.9437
  0
LINE
  8
0
 10
24.3078
 20
-55.9437
 11
7.2226
 21
-3.80072
  0
LINE
  8
0
 10
7.2226
 20
-3.80072
 11
-6.07379
 21
-3.80072
  0
LINE
  8
0
 10
-6.07379
 20
-3.80072
 11
-23.1972
 21
-55.9437
  0
LINE
  8
0
 10
-23.1972
 20
-55.9437
 11
-11.7943
 21
-55.9437
  0
LINE
  8
0
 10
-11.7943
 20
-55.9437
 11
-8.23865
 21
-43.1883
  0
LINE
  8
0
 10
-5.8418
 20
-34.6069
 11
-4.64558
 21
-30.3777
  0
LINE
  8
0
 10
-4.64558
 20
-30.3777
 11
-3.59688
 21
-26.6573
  0
LINE
  8
0
 10
-3.59688
 20
-26.6573
 11
-2.69568
 21
-23.4456
  0
LINE
  8
0
 10
-2.69568
 20
-23.4456
 11
-1.94197
 21
-20.7428
  0
LINE
  8
0
 10
-1.94197
 20
-20.7428
 11
-1.33577
 21
-18.5487
  0
LINE
  8
0
 10
-1.33577
 20
-18.5487
 11
-0.877075
 21
-16.8634
  0
LINE
  8
0
 10
-0.877075
 20
-16.8634
 11
-0.565872
 21
-15.6869
  0
LINE
  8
0
 10
-0.565872
 20
-15.6869
 11
-0.339081
 21
-14.7974
  0
LINE
  8
0
 10
-0.339081
 20
-14.7974
 11
-0.13356
 21
-13.9734
  0
LINE
  8
0
 10
-0.13356
 20
-13.9734
 11
0.0506439
 21
-13.2149
  0
LINE
  8
0
 10
0.0506439
 20
-13.2149
 11
0.213593
 21
-12.5218
  0
LINE
  8
0
 10
0.213593
 20
-12.5218
 11
0.35524
 21
-11.8943
  0
LINE
  8
0
 10
0.35524
 20
-11.8943
 11
0.475601
 21
-11.3322
  0
LINE
  8
0
 10
0.475601
 20
-11.3322
 11
0.574677
 21
-10.8356
  0
LINE
  8
0
 10
0.574677
 20
-10.8356
 11
0.672806
 21
-11.32
  0
LINE
  8
0
 10
0.672806
 20
-11.32
 11
0.79068
 21
-11.8674
  0
LINE
  8
0
 10
0.79068
 20
-11.8674
 11
0.928268
 21
-12.4779
  0
LINE
  8
0
 10
0.928268
 20
-12.4779
 11
1.08559
 21
-13.1516
  0
LINE
  8
0
 10
1.08559
 20
-13.1516
 11
1.26263
 21
-13.8884
  0
LINE
  8
0
 10
1.26263
 20
-13.8884
 11
1.45941
 21
-14.6882
  0
LINE
  8
0
 10
1.45941
 20
-14.6882
 11
1.67592
 21
-15.5513
  0
LINE
  8
0
 10
1.67592
 20
-15.5513
 11
1.97856
 21
-16.7069
  0
LINE
  8
0
 10
1.97856
 20
-16.7069
 11
2.43344
 21
-18.3848
  0
LINE
  8
0
 10
2.43344
 20
-18.3848
 11
3.04053
 21
-20.5848
  0
LINE
  8
0
 10
3.04053
 20
-20.5848
 11
3.79985
 21
-23.3071
  0
LINE
  8
0
 10
3.79985
 20
-23.3071
 11
4.7114
 21
-26.5515
  0
LINE
  8
0
 10
4.7114
 20
-26.5515
 11
5.77518
 21
-30.3181
  0
LINE
  8
0
 10
5.77518
 20
-30.3181
 11
6.99117
 21
-34.6069
  0
LINE
  8
0
 10
6.99117
 20
-34.6069
 11
-5.8418
 21
-34.6069
  0
ENDSEC
  0
SECTION
  2
OBJECTS
  0
DICTIONARY
  0
ENDSEC
  0
EOF
