solid OpenSCAD_Model
  facet normal 0 0 -1
    outer loop
      vertex 26.8249 -60.0634 0
      vertex 7.98732 -58.5825 0
      vertex 8.04385 -56.6247 0
    endloop
  endfacet
  facet normal 0 0 -1
    outer loop
      vertex 11.4184 -83.5862 0
      vertex 7.81772 -60.4062 0
      vertex 7.98732 -58.5825 0
    endloop
  endfacet
  facet normal 0 0 -1
    outer loop
      vertex 11.4184 -83.5862 0
      vertex 7.53503 -62.0957 0
      vertex 7.81772 -60.4062 0
    endloop
  endfacet
  facet normal 0 0 -1
    outer loop
      vertex 11.4184 -83.5862 0
      vertex 7.1393 -63.6512 0
      vertex 7.53503 -62.0957 0
    endloop
  endfacet
  facet normal 0 0 -1
    outer loop
      vertex 11.4184 -83.5862 0
      vertex 6.63049 -65.0725 0
      vertex 7.1393 -63.6512 0
    endloop
  endfacet
  facet normal 0 0 -1
    outer loop
      vertex 11.4184 -83.5862 0
      vertex 6.00861 -66.3596 0
      vertex 6.63049 -65.0725 0
    endloop
  endfacet
  facet normal 0 0 -1
    outer loop
      vertex 11.4184 -83.5862 0
      vertex 5.27365 -67.5127 0
      vertex 6.00861 -66.3596 0
    endloop
  endfacet
  facet normal 0 0 -1
    outer loop
      vertex 1.47676 -70.6155 0
      vertex 8.34465 -84.7273 0
      vertex 5.02895 -85.5424 0
    endloop
  endfacet
  facet normal 0 0 -1
    outer loop
      vertex 11.4184 -83.5862 0
      vertex 4.44273 -68.5211 0
      vertex 5.27365 -67.5127 0
    endloop
  endfacet
  facet normal 0 0 -1
    outer loop
      vertex 11.4184 -83.5862 0
      vertex 3.53294 -69.3744 0
      vertex 4.44273 -68.5211 0
    endloop
  endfacet
  facet normal 0 0 -1
    outer loop
      vertex 11.4184 -83.5862 0
      vertex 2.54428 -70.0725 0
      vertex 3.53294 -69.3744 0
    endloop
  endfacet
  facet normal 0 0 -1
    outer loop
      vertex 8.34465 -84.7273 0
      vertex 1.47676 -70.6155 0
      vertex 2.54428 -70.0725 0
    endloop
  endfacet
  facet normal 0 0 -1
    outer loop
      vertex 0.330353 -71.0034 0
      vertex 5.02895 -85.5424 0
      vertex 1.47131 -86.0314 0
    endloop
  endfacet
  facet normal 0 0 -1
    outer loop
      vertex 5.02895 -85.5424 0
      vertex 0.330353 -71.0034 0
      vertex 1.47676 -70.6155 0
    endloop
  endfacet
  facet normal 0 0 -1
    outer loop
      vertex 1.47131 -86.0314 0
      vertex -0.894897 -71.2361 0
      vertex 0.330353 -71.0034 0
    endloop
  endfacet
  facet normal 0 0 -1
    outer loop
      vertex -2.32823 -86.1944 0
      vertex -0.894897 -71.2361 0
      vertex 1.47131 -86.0314 0
    endloop
  endfacet
  facet normal 0 0 -1
    outer loop
      vertex -0.894897 -71.2361 0
      vertex -2.32823 -86.1944 0
      vertex -2.19904 -71.3136 0
    endloop
  endfacet
  facet normal 0 0 -1
    outer loop
      vertex -2.32823 -86.1944 0
      vertex -3.33492 -71.2374 0
      vertex -2.19904 -71.3136 0
    endloop
  endfacet
  facet normal 0 0 -1
    outer loop
      vertex -5.83325 -86.0511 0
      vertex -3.33492 -71.2374 0
      vertex -2.32823 -86.1944 0
    endloop
  endfacet
  facet normal -0 0 -1
    outer loop
      vertex -3.33492 -71.2374 0
      vertex -5.83325 -86.0511 0
      vertex -4.42351 -71.0086 0
    endloop
  endfacet
  facet normal 0 0 -1
    outer loop
      vertex -9.13318 -85.6213 0
      vertex -4.42351 -71.0086 0
      vertex -5.83325 -86.0511 0
    endloop
  endfacet
  facet normal -0 0 -1
    outer loop
      vertex -4.42351 -71.0086 0
      vertex -9.13318 -85.6213 0
      vertex -5.46478 -70.6274 0
    endloop
  endfacet
  facet normal 0 0 -1
    outer loop
      vertex -12.228 -84.9048 0
      vertex -5.46478 -70.6274 0
      vertex -9.13318 -85.6213 0
    endloop
  endfacet
  facet normal -0 0 -1
    outer loop
      vertex -5.46478 -70.6274 0
      vertex -12.228 -84.9048 0
      vertex -6.45876 -70.0936 0
    endloop
  endfacet
  facet normal 0 0 -1
    outer loop
      vertex -15.1178 -83.9017 0
      vertex -6.45876 -70.0936 0
      vertex -12.228 -84.9048 0
    endloop
  endfacet
  facet normal -0 0 -1
    outer loop
      vertex -6.45876 -70.0936 0
      vertex -15.1178 -83.9017 0
      vertex -7.40543 -69.4073 0
    endloop
  endfacet
  facet normal 0 0 -1
    outer loop
      vertex -17.8025 -82.6121 0
      vertex -7.40543 -69.4073 0
      vertex -15.1178 -83.9017 0
    endloop
  endfacet
  facet normal -0 0 -1
    outer loop
      vertex -7.40543 -69.4073 0
      vertex -17.8025 -82.6121 0
      vertex -8.30478 -68.5686 0
    endloop
  endfacet
  facet normal 0 0 -1
    outer loop
      vertex -20.2821 -81.0358 0
      vertex -8.30478 -68.5686 0
      vertex -17.8025 -82.6121 0
    endloop
  endfacet
  facet normal -0 0 -1
    outer loop
      vertex -8.30478 -68.5686 0
      vertex -20.2821 -81.0358 0
      vertex -9.15683 -67.5773 0
    endloop
  endfacet
  facet normal 0 0 -1
    outer loop
      vertex -22.5566 -79.173 0
      vertex -9.15683 -67.5773 0
      vertex -20.2821 -81.0358 0
    endloop
  endfacet
  facet normal -0 0 -1
    outer loop
      vertex -9.15683 -67.5773 0
      vertex -22.5566 -79.173 0
      vertex -9.95212 -66.4306 0
    endloop
  endfacet
  facet normal 0 0 -1
    outer loop
      vertex -24.6128 -77.0417 0
      vertex -9.95212 -66.4306 0
      vertex -22.5566 -79.173 0
    endloop
  endfacet
  facet normal -0 0 -1
    outer loop
      vertex -9.95212 -66.4306 0
      vertex -24.6128 -77.0417 0
      vertex -10.6817 -65.1262 0
    endloop
  endfacet
  facet normal 0 0 -1
    outer loop
      vertex -26.4377 -74.6606 0
      vertex -10.6817 -65.1262 0
      vertex -24.6128 -77.0417 0
    endloop
  endfacet
  facet normal 0 0 -1
    outer loop
      vertex -28.0311 -72.0297 0
      vertex -10.6817 -65.1262 0
      vertex -26.4377 -74.6606 0
    endloop
  endfacet
  facet normal -0 0 -1
    outer loop
      vertex -10.6817 -65.1262 0
      vertex -28.0311 -72.0297 0
      vertex -11.3456 -63.6641 0
    endloop
  endfacet
  facet normal 0 0 -1
    outer loop
      vertex -29.3932 -69.1491 0
      vertex -11.3456 -63.6641 0
      vertex -28.0311 -72.0297 0
    endloop
  endfacet
  facet normal -0 0 -1
    outer loop
      vertex -11.3456 -63.6641 0
      vertex -29.3932 -69.1491 0
      vertex -11.9439 -62.0442 0
    endloop
  endfacet
  facet normal 0 0 -1
    outer loop
      vertex -30.5238 -66.0186 0
      vertex -11.9439 -62.0442 0
      vertex -29.3932 -69.1491 0
    endloop
  endfacet
  facet normal -0 0 -1
    outer loop
      vertex -11.9439 -62.0442 0
      vertex -30.5238 -66.0186 0
      vertex -12.4764 -60.2666 0
    endloop
  endfacet
  facet normal 0 0 -1
    outer loop
      vertex -31.423 -62.6383 0
      vertex -12.4764 -60.2666 0
      vertex -30.5238 -66.0186 0
    endloop
  endfacet
  facet normal -0 0 -1
    outer loop
      vertex -12.4764 -60.2666 0
      vertex -31.423 -62.6383 0
      vertex -12.9433 -58.3312 0
    endloop
  endfacet
  facet normal -0 0 -1
    outer loop
      vertex -12.9433 -58.3312 0
      vertex -31.423 -62.6383 0
      vertex -13.3444 -56.2381 0
    endloop
  endfacet
  facet normal 0 0 -1
    outer loop
      vertex -13.3444 -56.2381 0
      vertex -31.423 -62.6383 0
      vertex -32.0908 -59.0083 0
    endloop
  endfacet
  facet normal 0 0 -1
    outer loop
      vertex 8.04385 -56.6247 0
      vertex 26.984 -56.1744 0
      vertex 26.8249 -60.0634 0
    endloop
  endfacet
  facet normal 0 0 -1
    outer loop
      vertex 7.98732 -58.5825 0
      vertex 26.8249 -60.0634 0
      vertex 26.3476 -63.7052 0
    endloop
  endfacet
  facet normal 0 0 -1
    outer loop
      vertex 7.98732 -58.5825 0
      vertex 26.3476 -63.7052 0
      vertex 25.5521 -67.0998 0
    endloop
  endfacet
  facet normal 0 0 -1
    outer loop
      vertex 7.98732 -58.5825 0
      vertex 25.5521 -67.0998 0
      vertex 24.4385 -70.2473 0
    endloop
  endfacet
  facet normal 0 0 -1
    outer loop
      vertex 7.98732 -58.5825 0
      vertex 24.4385 -70.2473 0
      vertex 23.0066 -73.1476 0
    endloop
  endfacet
  facet normal 0 0 -1
    outer loop
      vertex 7.98732 -58.5825 0
      vertex 23.0066 -73.1476 0
      vertex 21.2565 -75.8008 0
    endloop
  endfacet
  facet normal 0 0 -1
    outer loop
      vertex 7.98732 -58.5825 0
      vertex 21.2565 -75.8008 0
      vertex 19.1883 -78.2068 0
    endloop
  endfacet
  facet normal 0 0 -1
    outer loop
      vertex 7.98732 -58.5825 0
      vertex 19.1883 -78.2068 0
      vertex 16.8403 -80.326 0
    endloop
  endfacet
  facet normal 0 0 -1
    outer loop
      vertex 7.98732 -58.5825 0
      vertex 16.8403 -80.326 0
      vertex 14.2503 -82.1191 0
    endloop
  endfacet
  facet normal 0 0 -1
    outer loop
      vertex 7.98732 -58.5825 0
      vertex 14.2503 -82.1191 0
      vertex 11.4184 -83.5862 0
    endloop
  endfacet
  facet normal 0 0 -1
    outer loop
      vertex 2.54428 -70.0725 0
      vertex 11.4184 -83.5862 0
      vertex 8.34465 -84.7273 0
    endloop
  endfacet
  facet normal -0 0 -1
    outer loop
      vertex 26.984 -56.1744 0
      vertex 8.04385 -56.6247 0
      vertex 8.04385 -12.8829 0
    endloop
  endfacet
  facet normal 0 0 -1
    outer loop
      vertex 26.984 -56.1744 0
      vertex 8.04385 -12.8829 0
      vertex 26.984 1.99879 0
    endloop
  endfacet
  facet normal 0 0 -1
    outer loop
      vertex -11.3466 1.99879 0
      vertex 8.04385 -12.8829 0
      vertex -11.3466 -12.8829 0
    endloop
  endfacet
  facet normal 0 0 -1
    outer loop
      vertex 8.04385 -12.8829 0
      vertex -11.3466 1.99879 0
      vertex 26.984 1.99879 0
    endloop
  endfacet
  facet normal -0 0 1
    outer loop
      vertex 8.04385 -12.8829 1
      vertex 26.984 -56.1744 1
      vertex 26.984 1.99879 1
    endloop
  endfacet
  facet normal 0 0 1
    outer loop
      vertex 8.04385 -56.6247 1
      vertex 26.984 -56.1744 1
      vertex 8.04385 -12.8829 1
    endloop
  endfacet
  facet normal 0 0 1
    outer loop
      vertex 26.984 -56.1744 1
      vertex 8.04385 -56.6247 1
      vertex 26.8249 -60.0634 1
    endloop
  endfacet
  facet normal -0 0 1
    outer loop
      vertex 7.98732 -58.5825 1
      vertex 26.8249 -60.0634 1
      vertex 8.04385 -56.6247 1
    endloop
  endfacet
  facet normal 0 0 1
    outer loop
      vertex 26.8249 -60.0634 1
      vertex 7.81772 -60.4062 1
      vertex 26.3476 -63.7052 1
    endloop
  endfacet
  facet normal -0 0 1
    outer loop
      vertex 7.53503 -62.0957 1
      vertex 26.3476 -63.7052 1
      vertex 7.81772 -60.4062 1
    endloop
  endfacet
  facet normal 0 0 1
    outer loop
      vertex 26.3476 -63.7052 1
      vertex 7.53503 -62.0957 1
      vertex 25.5521 -67.0998 1
    endloop
  endfacet
  facet normal -0 0 1
    outer loop
      vertex 7.1393 -63.6512 1
      vertex 25.5521 -67.0998 1
      vertex 7.53503 -62.0957 1
    endloop
  endfacet
  facet normal 0 0 1
    outer loop
      vertex 25.5521 -67.0998 1
      vertex 7.1393 -63.6512 1
      vertex 24.4385 -70.2473 1
    endloop
  endfacet
  facet normal -0 0 1
    outer loop
      vertex 6.63049 -65.0725 1
      vertex 24.4385 -70.2473 1
      vertex 7.1393 -63.6512 1
    endloop
  endfacet
  facet normal 0 0 1
    outer loop
      vertex 24.4385 -70.2473 1
      vertex 6.63049 -65.0725 1
      vertex 23.0066 -73.1476 1
    endloop
  endfacet
  facet normal 0 0 1
    outer loop
      vertex 7.81772 -60.4062 1
      vertex 26.8249 -60.0634 1
      vertex 7.98732 -58.5825 1
    endloop
  endfacet
  facet normal -0 0 1
    outer loop
      vertex -11.3466 1.99879 1
      vertex 8.04385 -12.8829 1
      vertex 26.984 1.99879 1
    endloop
  endfacet
  facet normal 0 0 1
    outer loop
      vertex 8.04385 -12.8829 1
      vertex -11.3466 1.99879 1
      vertex -11.3466 -12.8829 1
    endloop
  endfacet
  facet normal 0 0 1
    outer loop
      vertex 23.0066 -73.1476 1
      vertex 6.63049 -65.0725 1
      vertex 21.2565 -75.8008 1
    endloop
  endfacet
  facet normal -0 0 1
    outer loop
      vertex 6.00861 -66.3596 1
      vertex 21.2565 -75.8008 1
      vertex 6.63049 -65.0725 1
    endloop
  endfacet
  facet normal 0 0 1
    outer loop
      vertex 21.2565 -75.8008 1
      vertex 6.00861 -66.3596 1
      vertex 19.1883 -78.2068 1
    endloop
  endfacet
  facet normal -0 0 1
    outer loop
      vertex 5.27365 -67.5127 1
      vertex 19.1883 -78.2068 1
      vertex 6.00861 -66.3596 1
    endloop
  endfacet
  facet normal 0 0 1
    outer loop
      vertex 19.1883 -78.2068 1
      vertex 5.27365 -67.5127 1
      vertex 16.8403 -80.326 1
    endloop
  endfacet
  facet normal -0 0 1
    outer loop
      vertex 4.44273 -68.5211 1
      vertex 16.8403 -80.326 1
      vertex 5.27365 -67.5127 1
    endloop
  endfacet
  facet normal 0 0 1
    outer loop
      vertex 16.8403 -80.326 1
      vertex 4.44273 -68.5211 1
      vertex 14.2503 -82.1191 1
    endloop
  endfacet
  facet normal -0 0 1
    outer loop
      vertex 3.53294 -69.3744 1
      vertex 14.2503 -82.1191 1
      vertex 4.44273 -68.5211 1
    endloop
  endfacet
  facet normal 0 0 1
    outer loop
      vertex 14.2503 -82.1191 1
      vertex 3.53294 -69.3744 1
      vertex 11.4184 -83.5862 1
    endloop
  endfacet
  facet normal -0 0 1
    outer loop
      vertex 2.54428 -70.0725 1
      vertex 11.4184 -83.5862 1
      vertex 3.53294 -69.3744 1
    endloop
  endfacet
  facet normal 0 0 1
    outer loop
      vertex 11.4184 -83.5862 1
      vertex 2.54428 -70.0725 1
      vertex 8.34465 -84.7273 1
    endloop
  endfacet
  facet normal -0 0 1
    outer loop
      vertex 1.47676 -70.6155 1
      vertex 8.34465 -84.7273 1
      vertex 2.54428 -70.0725 1
    endloop
  endfacet
  facet normal 0 0 1
    outer loop
      vertex 8.34465 -84.7273 1
      vertex 1.47676 -70.6155 1
      vertex 5.02895 -85.5424 1
    endloop
  endfacet
  facet normal -0 0 1
    outer loop
      vertex 0.330353 -71.0034 1
      vertex 5.02895 -85.5424 1
      vertex 1.47676 -70.6155 1
    endloop
  endfacet
  facet normal 0 0 1
    outer loop
      vertex 5.02895 -85.5424 1
      vertex 0.330353 -71.0034 1
      vertex 1.47131 -86.0314 1
    endloop
  endfacet
  facet normal -0 0 1
    outer loop
      vertex -0.894897 -71.2361 1
      vertex 1.47131 -86.0314 1
      vertex 0.330353 -71.0034 1
    endloop
  endfacet
  facet normal 0 0 1
    outer loop
      vertex -2.32823 -86.1944 1
      vertex -0.894897 -71.2361 1
      vertex -2.19904 -71.3136 1
    endloop
  endfacet
  facet normal 0 0 1
    outer loop
      vertex -0.894897 -71.2361 1
      vertex -2.32823 -86.1944 1
      vertex 1.47131 -86.0314 1
    endloop
  endfacet
  facet normal 0 0 1
    outer loop
      vertex -3.33492 -71.2374 1
      vertex -2.32823 -86.1944 1
      vertex -2.19904 -71.3136 1
    endloop
  endfacet
  facet normal 0 0 1
    outer loop
      vertex -5.83325 -86.0511 1
      vertex -3.33492 -71.2374 1
      vertex -4.42351 -71.0086 1
    endloop
  endfacet
  facet normal 0 0 1
    outer loop
      vertex -9.13318 -85.6213 1
      vertex -4.42351 -71.0086 1
      vertex -5.46478 -70.6274 1
    endloop
  endfacet
  facet normal 0 0 1
    outer loop
      vertex -3.33492 -71.2374 1
      vertex -5.83325 -86.0511 1
      vertex -2.32823 -86.1944 1
    endloop
  endfacet
  facet normal 0 0 1
    outer loop
      vertex -12.228 -84.9048 1
      vertex -5.46478 -70.6274 1
      vertex -6.45876 -70.0936 1
    endloop
  endfacet
  facet normal 0 0 1
    outer loop
      vertex -15.1178 -83.9017 1
      vertex -6.45876 -70.0936 1
      vertex -7.40543 -69.4073 1
    endloop
  endfacet
  facet normal 0 0 1
    outer loop
      vertex -17.8025 -82.6121 1
      vertex -7.40543 -69.4073 1
      vertex -8.30478 -68.5686 1
    endloop
  endfacet
  facet normal 0 0 1
    outer loop
      vertex -4.42351 -71.0086 1
      vertex -9.13318 -85.6213 1
      vertex -5.83325 -86.0511 1
    endloop
  endfacet
  facet normal 0 0 1
    outer loop
      vertex -20.2821 -81.0358 1
      vertex -8.30478 -68.5686 1
      vertex -9.15683 -67.5773 1
    endloop
  endfacet
  facet normal 0 0 1
    outer loop
      vertex -22.5566 -79.173 1
      vertex -9.15683 -67.5773 1
      vertex -9.95212 -66.4306 1
    endloop
  endfacet
  facet normal 0 0 1
    outer loop
      vertex -24.6128 -77.0417 1
      vertex -9.95212 -66.4306 1
      vertex -10.6817 -65.1262 1
    endloop
  endfacet
  facet normal 0 0 1
    outer loop
      vertex -28.0311 -72.0297 1
      vertex -10.6817 -65.1262 1
      vertex -11.3456 -63.6641 1
    endloop
  endfacet
  facet normal 0 0 1
    outer loop
      vertex -29.3932 -69.1491 1
      vertex -11.3456 -63.6641 1
      vertex -11.9439 -62.0442 1
    endloop
  endfacet
  facet normal 0 0 1
    outer loop
      vertex -5.46478 -70.6274 1
      vertex -12.228 -84.9048 1
      vertex -9.13318 -85.6213 1
    endloop
  endfacet
  facet normal 0 0 1
    outer loop
      vertex -30.5238 -66.0186 1
      vertex -11.9439 -62.0442 1
      vertex -12.4764 -60.2666 1
    endloop
  endfacet
  facet normal 0 0 1
    outer loop
      vertex -31.423 -62.6383 1
      vertex -12.4764 -60.2666 1
      vertex -12.9433 -58.3312 1
    endloop
  endfacet
  facet normal 0 0 1
    outer loop
      vertex -31.423 -62.6383 1
      vertex -12.9433 -58.3312 1
      vertex -13.3444 -56.2381 1
    endloop
  endfacet
  facet normal 0 0 1
    outer loop
      vertex -6.45876 -70.0936 1
      vertex -15.1178 -83.9017 1
      vertex -12.228 -84.9048 1
    endloop
  endfacet
  facet normal 0 0 1
    outer loop
      vertex -7.40543 -69.4073 1
      vertex -17.8025 -82.6121 1
      vertex -15.1178 -83.9017 1
    endloop
  endfacet
  facet normal 0 0 1
    outer loop
      vertex -8.30478 -68.5686 1
      vertex -20.2821 -81.0358 1
      vertex -17.8025 -82.6121 1
    endloop
  endfacet
  facet normal 0 0 1
    outer loop
      vertex -9.15683 -67.5773 1
      vertex -22.5566 -79.173 1
      vertex -20.2821 -81.0358 1
    endloop
  endfacet
  facet normal 0 0 1
    outer loop
      vertex -9.95212 -66.4306 1
      vertex -24.6128 -77.0417 1
      vertex -22.5566 -79.173 1
    endloop
  endfacet
  facet normal 0 0 1
    outer loop
      vertex -10.6817 -65.1262 1
      vertex -26.4377 -74.6606 1
      vertex -24.6128 -77.0417 1
    endloop
  endfacet
  facet normal 0 0 1
    outer loop
      vertex -10.6817 -65.1262 1
      vertex -28.0311 -72.0297 1
      vertex -26.4377 -74.6606 1
    endloop
  endfacet
  facet normal 0 0 1
    outer loop
      vertex -11.3456 -63.6641 1
      vertex -29.3932 -69.1491 1
      vertex -28.0311 -72.0297 1
    endloop
  endfacet
  facet normal 0 0 1
    outer loop
      vertex -11.9439 -62.0442 1
      vertex -30.5238 -66.0186 1
      vertex -29.3932 -69.1491 1
    endloop
  endfacet
  facet normal 0 0 1
    outer loop
      vertex -12.4764 -60.2666 1
      vertex -31.423 -62.6383 1
      vertex -30.5238 -66.0186 1
    endloop
  endfacet
  facet normal 0 -0 1
    outer loop
      vertex -31.423 -62.6383 1
      vertex -13.3444 -56.2381 1
      vertex -32.0908 -59.0083 1
    endloop
  endfacet
  facet normal 0.13617 -0.990685 0
    outer loop
      vertex 1.47131 -86.0314 0
      vertex 5.02895 -85.5424 1
      vertex 1.47131 -86.0314 1
    endloop
  endfacet
  facet normal 0.13617 -0.990685 0
    outer loop
      vertex 5.02895 -85.5424 1
      vertex 1.47131 -86.0314 0
      vertex 5.02895 -85.5424 0
    endloop
  endfacet
  facet normal 0.238723 -0.971088 0
    outer loop
      vertex 5.02895 -85.5424 0
      vertex 8.34465 -84.7273 1
      vertex 5.02895 -85.5424 1
    endloop
  endfacet
  facet normal 0.238723 -0.971088 0
    outer loop
      vertex 8.34465 -84.7273 1
      vertex 5.02895 -85.5424 0
      vertex 8.34465 -84.7273 0
    endloop
  endfacet
  facet normal 0.348031 -0.937483 0
    outer loop
      vertex 8.34465 -84.7273 0
      vertex 11.4184 -83.5862 1
      vertex 8.34465 -84.7273 1
    endloop
  endfacet
  facet normal 0.348031 -0.937483 0
    outer loop
      vertex 11.4184 -83.5862 1
      vertex 8.34465 -84.7273 0
      vertex 11.4184 -83.5862 0
    endloop
  endfacet
  facet normal 0.459998 -0.88792 0
    outer loop
      vertex 11.4184 -83.5862 0
      vertex 14.2503 -82.1191 1
      vertex 11.4184 -83.5862 1
    endloop
  endfacet
  facet normal 0.459998 -0.88792 0
    outer loop
      vertex 14.2503 -82.1191 1
      vertex 11.4184 -83.5862 0
      vertex 14.2503 -82.1191 0
    endloop
  endfacet
  facet normal 0.569215 -0.822189 0
    outer loop
      vertex 14.2503 -82.1191 0
      vertex 16.8403 -80.326 1
      vertex 14.2503 -82.1191 1
    endloop
  endfacet
  facet normal 0.569215 -0.822189 0
    outer loop
      vertex 16.8403 -80.326 1
      vertex 14.2503 -82.1191 0
      vertex 16.8403 -80.326 0
    endloop
  endfacet
  facet normal 0.670012 -0.74235 0
    outer loop
      vertex 16.8403 -80.326 0
      vertex 19.1883 -78.2068 1
      vertex 16.8403 -80.326 1
    endloop
  endfacet
  facet normal 0.670012 -0.74235 0
    outer loop
      vertex 19.1883 -78.2068 1
      vertex 16.8403 -80.326 0
      vertex 19.1883 -78.2068 0
    endloop
  endfacet
  facet normal 0.758335 -0.651865 0
    outer loop
      vertex 19.1883 -78.2068 1
      vertex 21.2565 -75.8008 0
      vertex 21.2565 -75.8008 1
    endloop
  endfacet
  facet normal 0.758335 -0.651865 0
    outer loop
      vertex 21.2565 -75.8008 0
      vertex 19.1883 -78.2068 1
      vertex 19.1883 -78.2068 0
    endloop
  endfacet
  facet normal 0.834756 -0.55062 0
    outer loop
      vertex 21.2565 -75.8008 1
      vertex 23.0066 -73.1476 0
      vertex 23.0066 -73.1476 1
    endloop
  endfacet
  facet normal 0.834756 -0.55062 0
    outer loop
      vertex 23.0066 -73.1476 0
      vertex 21.2565 -75.8008 1
      vertex 21.2565 -75.8008 0
    endloop
  endfacet
  facet normal 0.896673 -0.442694 0
    outer loop
      vertex 23.0066 -73.1476 1
      vertex 24.4385 -70.2473 0
      vertex 24.4385 -70.2473 1
    endloop
  endfacet
  facet normal 0.896673 -0.442694 0
    outer loop
      vertex 24.4385 -70.2473 0
      vertex 23.0066 -73.1476 1
      vertex 23.0066 -73.1476 0
    endloop
  endfacet
  facet normal 0.942735 -0.333544 0
    outer loop
      vertex 24.4385 -70.2473 1
      vertex 25.5521 -67.0998 0
      vertex 25.5521 -67.0998 1
    endloop
  endfacet
  facet normal 0.942735 -0.333544 0
    outer loop
      vertex 25.5521 -67.0998 0
      vertex 24.4385 -70.2473 1
      vertex 24.4385 -70.2473 0
    endloop
  endfacet
  facet normal 0.973623 -0.228162 0
    outer loop
      vertex 25.5521 -67.0998 1
      vertex 26.3476 -63.7052 0
      vertex 26.3476 -63.7052 1
    endloop
  endfacet
  facet normal 0.973623 -0.228162 0
    outer loop
      vertex 26.3476 -63.7052 0
      vertex 25.5521 -67.0998 1
      vertex 25.5521 -67.0998 0
    endloop
  endfacet
  facet normal 0.991521 -0.12995 0
    outer loop
      vertex 26.3476 -63.7052 1
      vertex 26.8249 -60.0634 0
      vertex 26.8249 -60.0634 1
    endloop
  endfacet
  facet normal 0.991521 -0.12995 0
    outer loop
      vertex 26.8249 -60.0634 0
      vertex 26.3476 -63.7052 1
      vertex 26.3476 -63.7052 0
    endloop
  endfacet
  facet normal 0.999164 -0.0408761 0
    outer loop
      vertex 26.8249 -60.0634 1
      vertex 26.984 -56.1744 0
      vertex 26.984 -56.1744 1
    endloop
  endfacet
  facet normal 0.999164 -0.0408761 0
    outer loop
      vertex 26.984 -56.1744 0
      vertex 26.8249 -60.0634 1
      vertex 26.8249 -60.0634 0
    endloop
  endfacet
  facet normal 1 -0 0
    outer loop
      vertex 26.984 -56.1744 1
      vertex 26.984 1.99879 0
      vertex 26.984 1.99879 1
    endloop
  endfacet
  facet normal 1 0 0
    outer loop
      vertex 26.984 1.99879 0
      vertex 26.984 -56.1744 1
      vertex 26.984 -56.1744 0
    endloop
  endfacet
  facet normal 0 1 -0
    outer loop
      vertex 26.984 1.99879 0
      vertex -11.3466 1.99879 1
      vertex 26.984 1.99879 1
    endloop
  endfacet
  facet normal 0 1 0
    outer loop
      vertex -11.3466 1.99879 1
      vertex 26.984 1.99879 0
      vertex -11.3466 1.99879 0
    endloop
  endfacet
  facet normal -1 0 0
    outer loop
      vertex -11.3466 -12.8829 0
      vertex -11.3466 1.99879 1
      vertex -11.3466 1.99879 0
    endloop
  endfacet
  facet normal -1 -0 0
    outer loop
      vertex -11.3466 1.99879 1
      vertex -11.3466 -12.8829 0
      vertex -11.3466 -12.8829 1
    endloop
  endfacet
  facet normal 0 -1 0
    outer loop
      vertex -11.3466 -12.8829 0
      vertex 8.04385 -12.8829 1
      vertex -11.3466 -12.8829 1
    endloop
  endfacet
  facet normal 0 -1 -0
    outer loop
      vertex 8.04385 -12.8829 1
      vertex -11.3466 -12.8829 0
      vertex 8.04385 -12.8829 0
    endloop
  endfacet
  facet normal -1 0 0
    outer loop
      vertex 8.04385 -56.6247 0
      vertex 8.04385 -12.8829 1
      vertex 8.04385 -12.8829 0
    endloop
  endfacet
  facet normal -1 -0 0
    outer loop
      vertex 8.04385 -12.8829 1
      vertex 8.04385 -56.6247 0
      vertex 8.04385 -56.6247 1
    endloop
  endfacet
  facet normal -0.999583 0.0288622 0
    outer loop
      vertex 7.98732 -58.5825 0
      vertex 8.04385 -56.6247 1
      vertex 8.04385 -56.6247 0
    endloop
  endfacet
  facet normal -0.999583 0.0288622 0
    outer loop
      vertex 8.04385 -56.6247 1
      vertex 7.98732 -58.5825 0
      vertex 7.98732 -58.5825 1
    endloop
  endfacet
  facet normal -0.995704 0.0925982 0
    outer loop
      vertex 7.81772 -60.4062 0
      vertex 7.98732 -58.5825 1
      vertex 7.98732 -58.5825 0
    endloop
  endfacet
  facet normal -0.995704 0.0925982 0
    outer loop
      vertex 7.98732 -58.5825 1
      vertex 7.81772 -60.4062 0
      vertex 7.81772 -60.4062 1
    endloop
  endfacet
  facet normal -0.986289 0.165028 0
    outer loop
      vertex 7.53503 -62.0957 0
      vertex 7.81772 -60.4062 1
      vertex 7.81772 -60.4062 0
    endloop
  endfacet
  facet normal -0.986289 0.165028 0
    outer loop
      vertex 7.81772 -60.4062 1
      vertex 7.53503 -62.0957 0
      vertex 7.53503 -62.0957 1
    endloop
  endfacet
  facet normal -0.969129 0.246553 0
    outer loop
      vertex 7.1393 -63.6512 0
      vertex 7.53503 -62.0957 1
      vertex 7.53503 -62.0957 0
    endloop
  endfacet
  facet normal -0.969129 0.246553 0
    outer loop
      vertex 7.53503 -62.0957 1
      vertex 7.1393 -63.6512 0
      vertex 7.1393 -63.6512 1
    endloop
  endfacet
  facet normal -0.941489 0.337043 0
    outer loop
      vertex 6.63049 -65.0725 0
      vertex 7.1393 -63.6512 1
      vertex 7.1393 -63.6512 0
    endloop
  endfacet
  facet normal -0.941489 0.337043 0
    outer loop
      vertex 7.1393 -63.6512 1
      vertex 6.63049 -65.0725 0
      vertex 6.63049 -65.0725 1
    endloop
  endfacet
  facet normal -0.900409 0.435045 0
    outer loop
      vertex 6.00861 -66.3596 0
      vertex 6.63049 -65.0725 1
      vertex 6.63049 -65.0725 0
    endloop
  endfacet
  facet normal -0.900409 0.435045 0
    outer loop
      vertex 6.63049 -65.0725 1
      vertex 6.00861 -66.3596 0
      vertex 6.00861 -66.3596 1
    endloop
  endfacet
  facet normal -0.843274 0.537484 0
    outer loop
      vertex 5.27365 -67.5127 0
      vertex 6.00861 -66.3596 1
      vertex 6.00861 -66.3596 0
    endloop
  endfacet
  facet normal -0.843274 0.537484 0
    outer loop
      vertex 6.00861 -66.3596 1
      vertex 5.27365 -67.5127 0
      vertex 5.27365 -67.5127 1
    endloop
  endfacet
  facet normal -0.771753 0.635923 0
    outer loop
      vertex 4.44273 -68.5211 0
      vertex 5.27365 -67.5127 1
      vertex 5.27365 -67.5127 0
    endloop
  endfacet
  facet normal -0.771753 0.635923 0
    outer loop
      vertex 5.27365 -67.5127 1
      vertex 4.44273 -68.5211 0
      vertex 4.44273 -68.5211 1
    endloop
  endfacet
  facet normal -0.6841 0.729388 0
    outer loop
      vertex 4.44273 -68.5211 0
      vertex 3.53294 -69.3744 1
      vertex 4.44273 -68.5211 1
    endloop
  endfacet
  facet normal -0.6841 0.729388 0
    outer loop
      vertex 3.53294 -69.3744 1
      vertex 4.44273 -68.5211 0
      vertex 3.53294 -69.3744 0
    endloop
  endfacet
  facet normal -0.576806 0.816881 0
    outer loop
      vertex 3.53294 -69.3744 0
      vertex 2.54428 -70.0725 1
      vertex 3.53294 -69.3744 1
    endloop
  endfacet
  facet normal -0.576806 0.816881 0
    outer loop
      vertex 2.54428 -70.0725 1
      vertex 3.53294 -69.3744 0
      vertex 2.54428 -70.0725 0
    endloop
  endfacet
  facet normal -0.453375 0.89132 0
    outer loop
      vertex 2.54428 -70.0725 0
      vertex 1.47676 -70.6155 1
      vertex 2.54428 -70.0725 1
    endloop
  endfacet
  facet normal -0.453375 0.89132 0
    outer loop
      vertex 1.47676 -70.6155 1
      vertex 2.54428 -70.0725 0
      vertex 1.47676 -70.6155 0
    endloop
  endfacet
  facet normal -0.320511 0.947245 0
    outer loop
      vertex 1.47676 -70.6155 0
      vertex 0.330353 -71.0034 1
      vertex 1.47676 -70.6155 1
    endloop
  endfacet
  facet normal -0.320511 0.947245 0
    outer loop
      vertex 0.330353 -71.0034 1
      vertex 1.47676 -70.6155 0
      vertex 0.330353 -71.0034 0
    endloop
  endfacet
  facet normal -0.186585 0.982439 0
    outer loop
      vertex 0.330353 -71.0034 0
      vertex -0.894897 -71.2361 1
      vertex 0.330353 -71.0034 1
    endloop
  endfacet
  facet normal -0.186585 0.982439 0
    outer loop
      vertex -0.894897 -71.2361 1
      vertex 0.330353 -71.0034 0
      vertex -0.894897 -71.2361 0
    endloop
  endfacet
  facet normal -0.0593213 0.998239 0
    outer loop
      vertex -0.894897 -71.2361 0
      vertex -2.19904 -71.3136 1
      vertex -0.894897 -71.2361 1
    endloop
  endfacet
  facet normal -0.0593213 0.998239 0
    outer loop
      vertex -2.19904 -71.3136 1
      vertex -0.894897 -71.2361 0
      vertex -2.19904 -71.3136 0
    endloop
  endfacet
  facet normal 0.0669341 0.997757 -0
    outer loop
      vertex -2.19904 -71.3136 0
      vertex -3.33492 -71.2374 1
      vertex -2.19904 -71.3136 1
    endloop
  endfacet
  facet normal 0.0669341 0.997757 0
    outer loop
      vertex -3.33492 -71.2374 1
      vertex -2.19904 -71.3136 0
      vertex -3.33492 -71.2374 0
    endloop
  endfacet
  facet normal 0.205686 0.978618 -0
    outer loop
      vertex -3.33492 -71.2374 0
      vertex -4.42351 -71.0086 1
      vertex -3.33492 -71.2374 1
    endloop
  endfacet
  facet normal 0.205686 0.978618 0
    outer loop
      vertex -4.42351 -71.0086 1
      vertex -3.33492 -71.2374 0
      vertex -4.42351 -71.0086 0
    endloop
  endfacet
  facet normal 0.343778 0.939051 -0
    outer loop
      vertex -4.42351 -71.0086 0
      vertex -5.46478 -70.6274 1
      vertex -4.42351 -71.0086 1
    endloop
  endfacet
  facet normal 0.343778 0.939051 0
    outer loop
      vertex -5.46478 -70.6274 1
      vertex -4.42351 -71.0086 0
      vertex -5.46478 -70.6274 0
    endloop
  endfacet
  facet normal 0.473124 0.880996 -0
    outer loop
      vertex -5.46478 -70.6274 0
      vertex -6.45876 -70.0936 1
      vertex -5.46478 -70.6274 1
    endloop
  endfacet
  facet normal 0.473124 0.880996 0
    outer loop
      vertex -6.45876 -70.0936 1
      vertex -5.46478 -70.6274 0
      vertex -6.45876 -70.0936 0
    endloop
  endfacet
  facet normal 0.586948 0.809625 -0
    outer loop
      vertex -6.45876 -70.0936 0
      vertex -7.40543 -69.4073 1
      vertex -6.45876 -70.0936 1
    endloop
  endfacet
  facet normal 0.586948 0.809625 0
    outer loop
      vertex -7.40543 -69.4073 1
      vertex -6.45876 -70.0936 0
      vertex -7.40543 -69.4073 0
    endloop
  endfacet
  facet normal 0.682017 0.731336 -0
    outer loop
      vertex -7.40543 -69.4073 0
      vertex -8.30478 -68.5686 1
      vertex -7.40543 -69.4073 1
    endloop
  endfacet
  facet normal 0.682017 0.731336 0
    outer loop
      vertex -8.30478 -68.5686 1
      vertex -7.40543 -69.4073 0
      vertex -8.30478 -68.5686 0
    endloop
  endfacet
  facet normal 0.758362 0.651833 0
    outer loop
      vertex -8.30478 -68.5686 1
      vertex -9.15683 -67.5773 0
      vertex -9.15683 -67.5773 1
    endloop
  endfacet
  facet normal 0.758362 0.651833 0
    outer loop
      vertex -9.15683 -67.5773 0
      vertex -8.30478 -68.5686 1
      vertex -8.30478 -68.5686 0
    endloop
  endfacet
  facet normal 0.821715 0.569898 0
    outer loop
      vertex -9.15683 -67.5773 1
      vertex -9.95212 -66.4306 0
      vertex -9.95212 -66.4306 1
    endloop
  endfacet
  facet normal 0.821715 0.569898 0
    outer loop
      vertex -9.95212 -66.4306 0
      vertex -9.15683 -67.5773 1
      vertex -9.15683 -67.5773 0
    endloop
  endfacet
  facet normal 0.872758 0.488153 0
    outer loop
      vertex -9.95212 -66.4306 1
      vertex -10.6817 -65.1262 0
      vertex -10.6817 -65.1262 1
    endloop
  endfacet
  facet normal 0.872758 0.488153 0
    outer loop
      vertex -10.6817 -65.1262 0
      vertex -9.95212 -66.4306 1
      vertex -9.95212 -66.4306 0
    endloop
  endfacet
  facet normal 0.910528 0.413446 0
    outer loop
      vertex -10.6817 -65.1262 1
      vertex -11.3456 -63.6641 0
      vertex -11.3456 -63.6641 1
    endloop
  endfacet
  facet normal 0.910528 0.413446 0
    outer loop
      vertex -11.3456 -63.6641 0
      vertex -10.6817 -65.1262 1
      vertex -10.6817 -65.1262 0
    endloop
  endfacet
  facet normal 0.938062 0.346467 0
    outer loop
      vertex -11.3456 -63.6641 1
      vertex -11.9439 -62.0442 0
      vertex -11.9439 -62.0442 1
    endloop
  endfacet
  facet normal 0.938062 0.346467 0
    outer loop
      vertex -11.9439 -62.0442 0
      vertex -11.3456 -63.6641 1
      vertex -11.3456 -63.6641 0
    endloop
  endfacet
  facet normal 0.957942 0.286962 0
    outer loop
      vertex -11.9439 -62.0442 1
      vertex -12.4764 -60.2666 0
      vertex -12.4764 -60.2666 1
    endloop
  endfacet
  facet normal 0.957942 0.286962 0
    outer loop
      vertex -12.4764 -60.2666 0
      vertex -11.9439 -62.0442 1
      vertex -11.9439 -62.0442 0
    endloop
  endfacet
  facet normal 0.972113 0.234515 0
    outer loop
      vertex -12.4764 -60.2666 1
      vertex -12.9433 -58.3312 0
      vertex -12.9433 -58.3312 1
    endloop
  endfacet
  facet normal 0.972113 0.234515 0
    outer loop
      vertex -12.9433 -58.3312 0
      vertex -12.4764 -60.2666 1
      vertex -12.4764 -60.2666 0
    endloop
  endfacet
  facet normal 0.98213 0.188205 0
    outer loop
      vertex -12.9433 -58.3312 1
      vertex -13.3444 -56.2381 0
      vertex -13.3444 -56.2381 1
    endloop
  endfacet
  facet normal 0.98213 0.188205 0
    outer loop
      vertex -13.3444 -56.2381 0
      vertex -12.9433 -58.3312 1
      vertex -12.9433 -58.3312 0
    endloop
  endfacet
  facet normal -0.146185 0.989257 0
    outer loop
      vertex -13.3444 -56.2381 0
      vertex -32.0908 -59.0083 1
      vertex -13.3444 -56.2381 1
    endloop
  endfacet
  facet normal -0.146185 0.989257 0
    outer loop
      vertex -32.0908 -59.0083 1
      vertex -13.3444 -56.2381 0
      vertex -32.0908 -59.0083 0
    endloop
  endfacet
  facet normal -0.983496 -0.180931 0
    outer loop
      vertex -31.423 -62.6383 0
      vertex -32.0908 -59.0083 1
      vertex -32.0908 -59.0083 0
    endloop
  endfacet
  facet normal -0.983496 -0.180931 0
    outer loop
      vertex -32.0908 -59.0083 1
      vertex -31.423 -62.6383 0
      vertex -31.423 -62.6383 1
    endloop
  endfacet
  facet normal -0.966392 -0.257072 0
    outer loop
      vertex -30.5238 -66.0186 0
      vertex -31.423 -62.6383 1
      vertex -31.423 -62.6383 0
    endloop
  endfacet
  facet normal -0.966392 -0.257072 0
    outer loop
      vertex -31.423 -62.6383 1
      vertex -30.5238 -66.0186 0
      vertex -30.5238 -66.0186 1
    endloop
  endfacet
  facet normal -0.94054 -0.339682 0
    outer loop
      vertex -29.3932 -69.1491 0
      vertex -30.5238 -66.0186 1
      vertex -30.5238 -66.0186 0
    endloop
  endfacet
  facet normal -0.94054 -0.339682 0
    outer loop
      vertex -30.5238 -66.0186 1
      vertex -29.3932 -69.1491 0
      vertex -29.3932 -69.1491 1
    endloop
  endfacet
  facet normal -0.904028 -0.427472 0
    outer loop
      vertex -28.0311 -72.0297 0
      vertex -29.3932 -69.1491 1
      vertex -29.3932 -69.1491 0
    endloop
  endfacet
  facet normal -0.904028 -0.427472 0
    outer loop
      vertex -29.3932 -69.1491 1
      vertex -28.0311 -72.0297 0
      vertex -28.0311 -72.0297 1
    endloop
  endfacet
  facet normal -0.855354 -0.518044 0
    outer loop
      vertex -26.4377 -74.6606 0
      vertex -28.0311 -72.0297 1
      vertex -28.0311 -72.0297 0
    endloop
  endfacet
  facet normal -0.855354 -0.518044 0
    outer loop
      vertex -28.0311 -72.0297 1
      vertex -26.4377 -74.6606 0
      vertex -26.4377 -74.6606 1
    endloop
  endfacet
  facet normal -0.793705 -0.608303 0
    outer loop
      vertex -24.6128 -77.0417 0
      vertex -26.4377 -74.6606 1
      vertex -26.4377 -74.6606 0
    endloop
  endfacet
  facet normal -0.793705 -0.608303 0
    outer loop
      vertex -26.4377 -74.6606 1
      vertex -24.6128 -77.0417 0
      vertex -24.6128 -77.0417 1
    endloop
  endfacet
  facet normal -0.719673 -0.694314 0
    outer loop
      vertex -22.5566 -79.173 0
      vertex -24.6128 -77.0417 1
      vertex -24.6128 -77.0417 0
    endloop
  endfacet
  facet normal -0.719673 -0.694314 0
    outer loop
      vertex -24.6128 -77.0417 1
      vertex -22.5566 -79.173 0
      vertex -22.5566 -79.173 1
    endloop
  endfacet
  facet normal -0.633614 -0.77365 0
    outer loop
      vertex -22.5566 -79.173 0
      vertex -20.2821 -81.0358 1
      vertex -22.5566 -79.173 1
    endloop
  endfacet
  facet normal -0.633614 -0.77365 -0
    outer loop
      vertex -20.2821 -81.0358 1
      vertex -22.5566 -79.173 0
      vertex -20.2821 -81.0358 0
    endloop
  endfacet
  facet normal -0.536481 -0.843912 0
    outer loop
      vertex -20.2821 -81.0358 0
      vertex -17.8025 -82.6121 1
      vertex -20.2821 -81.0358 1
    endloop
  endfacet
  facet normal -0.536481 -0.843912 -0
    outer loop
      vertex -17.8025 -82.6121 1
      vertex -20.2821 -81.0358 0
      vertex -17.8025 -82.6121 0
    endloop
  endfacet
  facet normal -0.432989 -0.901399 0
    outer loop
      vertex -17.8025 -82.6121 0
      vertex -15.1178 -83.9017 1
      vertex -17.8025 -82.6121 1
    endloop
  endfacet
  facet normal -0.432989 -0.901399 -0
    outer loop
      vertex -15.1178 -83.9017 1
      vertex -17.8025 -82.6121 0
      vertex -15.1178 -83.9017 0
    endloop
  endfacet
  facet normal -0.327923 -0.944704 0
    outer loop
      vertex -15.1178 -83.9017 0
      vertex -12.228 -84.9048 1
      vertex -15.1178 -83.9017 1
    endloop
  endfacet
  facet normal -0.327923 -0.944704 -0
    outer loop
      vertex -12.228 -84.9048 1
      vertex -15.1178 -83.9017 0
      vertex -12.228 -84.9048 0
    endloop
  endfacet
  facet normal -0.22555 -0.974232 0
    outer loop
      vertex -12.228 -84.9048 0
      vertex -9.13318 -85.6213 1
      vertex -12.228 -84.9048 1
    endloop
  endfacet
  facet normal -0.22555 -0.974232 -0
    outer loop
      vertex -9.13318 -85.6213 1
      vertex -12.228 -84.9048 0
      vertex -9.13318 -85.6213 0
    endloop
  endfacet
  facet normal -0.129154 -0.991625 0
    outer loop
      vertex -9.13318 -85.6213 0
      vertex -5.83325 -86.0511 1
      vertex -9.13318 -85.6213 1
    endloop
  endfacet
  facet normal -0.129154 -0.991625 -0
    outer loop
      vertex -5.83325 -86.0511 1
      vertex -9.13318 -85.6213 0
      vertex -5.83325 -86.0511 0
    endloop
  endfacet
  facet normal -0.0408501 -0.999165 0
    outer loop
      vertex -5.83325 -86.0511 0
      vertex -2.32823 -86.1944 1
      vertex -5.83325 -86.0511 1
    endloop
  endfacet
  facet normal -0.0408501 -0.999165 -0
    outer loop
      vertex -2.32823 -86.1944 1
      vertex -5.83325 -86.0511 0
      vertex -2.32823 -86.1944 0
    endloop
  endfacet
  facet normal 0.0428605 -0.999081 0
    outer loop
      vertex -2.32823 -86.1944 0
      vertex 1.47131 -86.0314 1
      vertex -2.32823 -86.1944 1
    endloop
  endfacet
  facet normal 0.0428605 -0.999081 0
    outer loop
      vertex 1.47131 -86.0314 1
      vertex -2.32823 -86.1944 0
      vertex 1.47131 -86.0314 0
    endloop
  endfacet
endsolid OpenSCAD_Model
