  0
SECTION
  2
BLOCKS
  0
ENDSEC
  0
SECTION
  2
ENTITIES
  0
LINE
  8
0
 10
1.47131
 20
-86.0314
 11
5.02895
 21
-85.5424
  0
LINE
  8
0
 10
5.02895
 20
-85.5424
 11
8.34465
 21
-84.7273
  0
LINE
  8
0
 10
8.34465
 20
-84.7273
 11
11.4184
 21
-83.5862
  0
LINE
  8
0
 10
11.4184
 20
-83.5862
 11
14.2503
 21
-82.1191
  0
LINE
  8
0
 10
14.2503
 20
-82.1191
 11
16.8403
 21
-80.326
  0
LINE
  8
0
 10
16.8403
 20
-80.326
 11
19.1883
 21
-78.2068
  0
LINE
  8
0
 10
19.1883
 20
-78.2068
 11
21.2565
 21
-75.8008
  0
LINE
  8
0
 10
21.2565
 20
-75.8008
 11
23.0066
 21
-73.1476
  0
LINE
  8
0
 10
23.0066
 20
-73.1476
 11
24.4385
 21
-70.2473
  0
LINE
  8
0
 10
24.4385
 20
-70.2473
 11
25.5521
 21
-67.0998
  0
LINE
  8
0
 10
25.5521
 20
-67.0998
 11
26.3476
 21
-63.7052
  0
LINE
  8
0
 10
26.3476
 20
-63.7052
 11
26.8249
 21
-60.0634
  0
LINE
  8
0
 10
26.8249
 20
-60.0634
 11
26.984
 21
-56.1744
  0
LINE
  8
0
 10
26.984
 20
-56.1744
 11
26.984
 21
1.99879
  0
LINE
  8
0
 10
26.984
 20
1.99879
 11
-11.3466
 21
1.99879
  0
LINE
  8
0
 10
-11.3466
 20
1.99879
 11
-11.3466
 21
-12.8829
  0
LINE
  8
0
 10
-11.3466
 20
-12.8829
 11
8.04385
 21
-12.8829
  0
LINE
  8
0
 10
8.04385
 20
-12.8829
 11
8.04385
 21
-56.6247
  0
LINE
  8
0
 10
8.04385
 20
-56.6247
 11
7.98732
 21
-58.5825
  0
LINE
  8
0
 10
7.98732
 20
-58.5825
 11
7.81772
 21
-60.4062
  0
LINE
  8
0
 10
7.81772
 20
-60.4062
 11
7.53503
 21
-62.0957
  0
LINE
  8
0
 10
7.53503
 20
-62.0957
 11
7.1393
 21
-63.6512
  0
LINE
  8
0
 10
7.1393
 20
-63.6512
 11
6.63049
 21
-65.0725
  0
LINE
  8
0
 10
6.63049
 20
-65.0725
 11
6.00861
 21
-66.3596
  0
LINE
  8
0
 10
6.00861
 20
-66.3596
 11
5.27365
 21
-67.5127
  0
LINE
  8
0
 10
5.27365
 20
-67.5127
 11
4.44273
 21
-68.5211
  0
LINE
  8
0
 10
4.44273
 20
-68.5211
 11
3.53294
 21
-69.3744
  0
LINE
  8
0
 10
3.53294
 20
-69.3744
 11
2.54428
 21
-70.0725
  0
LINE
  8
0
 10
2.54428
 20
-70.0725
 11
1.47676
 21
-70.6155
  0
LINE
  8
0
 10
1.47676
 20
-70.6155
 11
0.330353
 21
-71.0034
  0
LINE
  8
0
 10
0.330353
 20
-71.0034
 11
-0.894897
 21
-71.2361
  0
LINE
  8
0
 10
-0.894897
 20
-71.2361
 11
-2.19904
 21
-71.3136
  0
LINE
  8
0
 10
-2.19904
 20
-71.3136
 11
-3.33492
 21
-71.2374
  0
LINE
  8
0
 10
-3.33492
 20
-71.2374
 11
-4.42351
 21
-71.0086
  0
LINE
  8
0
 10
-4.42351
 20
-71.0086
 11
-5.46478
 21
-70.6274
  0
LINE
  8
0
 10
-5.46478
 20
-70.6274
 11
-6.45876
 21
-70.0936
  0
LINE
  8
0
 10
-6.45876
 20
-70.0936
 11
-7.40543
 21
-69.4073
  0
LINE
  8
0
 10
-7.40543
 20
-69.4073
 11
-8.30478
 21
-68.5686
  0
LINE
  8
0
 10
-8.30478
 20
-68.5686
 11
-9.15683
 21
-67.5773
  0
LINE
  8
0
 10
-9.15683
 20
-67.5773
 11
-9.95212
 21
-66.4306
  0
LINE
  8
0
 10
-9.95212
 20
-66.4306
 11
-10.6817
 21
-65.1262
  0
LINE
  8
0
 10
-10.6817
 20
-65.1262
 11
-11.3456
 21
-63.6641
  0
LINE
  8
0
 10
-11.3456
 20
-63.6641
 11
-11.9439
 21
-62.0442
  0
LINE
  8
0
 10
-11.9439
 20
-62.0442
 11
-12.4764
 21
-60.2666
  0
LINE
  8
0
 10
-12.4764
 20
-60.2666
 11
-12.9433
 21
-58.3312
  0
LINE
  8
0
 10
-12.9433
 20
-58.3312
 11
-13.3444
 21
-56.2381
  0
LINE
  8
0
 10
-13.3444
 20
-56.2381
 11
-32.0908
 21
-59.0083
  0
LINE
  8
0
 10
-32.0908
 20
-59.0083
 11
-31.423
 21
-62.6383
  0
LINE
  8
0
 10
-31.423
 20
-62.6383
 11
-30.5238
 21
-66.0186
  0
LINE
  8
0
 10
-30.5238
 20
-66.0186
 11
-29.3932
 21
-69.1491
  0
LINE
  8
0
 10
-29.3932
 20
-69.1491
 11
-28.0311
 21
-72.0297
  0
LINE
  8
0
 10
-28.0311
 20
-72.0297
 11
-26.4377
 21
-74.6606
  0
LINE
  8
0
 10
-26.4377
 20
-74.6606
 11
-24.6128
 21
-77.0417
  0
LINE
  8
0
 10
-24.6128
 20
-77.0417
 11
-22.5566
 21
-79.173
  0
LINE
  8
0
 10
-22.5566
 20
-79.173
 11
-20.2821
 21
-81.0358
  0
LINE
  8
0
 10
-20.2821
 20
-81.0358
 11
-17.8025
 21
-82.6121
  0
LINE
  8
0
 10
-17.8025
 20
-82.6121
 11
-15.1178
 21
-83.9017
  0
LINE
  8
0
 10
-15.1178
 20
-83.9017
 11
-12.228
 21
-84.9048
  0
LINE
  8
0
 10
-12.228
 20
-84.9048
 11
-9.13318
 21
-85.6213
  0
LINE
  8
0
 10
-9.13318
 20
-85.6213
 11
-5.83325
 21
-86.0511
  0
LINE
  8
0
 10
-5.83325
 20
-86.0511
 11
-2.32823
 21
-86.1944
  0
LINE
  8
0
 10
-2.32823
 20
-86.1944
 11
1.47131
 21
-86.0314
  0
ENDSEC
  0
SECTION
  2
OBJECTS
  0
DICTIONARY
  0
ENDSEC
  0
EOF
