  0
SECTION
  2
BLOCKS
  0
ENDSEC
  0
SECTION
  2
ENTITIES
  0
LINE
  8
0
 10
1.76744
 20
-56.6697
 11
3.43625
 21
-56.529
  0
LINE
  8
0
 10
3.43625
 20
-56.529
 11
5.03957
 21
-56.2943
  0
LINE
  8
0
 10
5.03957
 20
-56.2943
 11
6.57742
 21
-55.9659
  0
LINE
  8
0
 10
6.57742
 20
-55.9659
 11
8.04982
 21
-55.5435
  0
LINE
  8
0
 10
8.04982
 20
-55.5435
 11
9.45674
 21
-55.0273
  0
LINE
  8
0
 10
9.45674
 20
-55.0273
 11
10.7982
 21
-54.4173
  0
LINE
  8
0
 10
10.7982
 20
-54.4173
 11
12.0627
 21
-53.7223
  0
LINE
  8
0
 10
12.0627
 20
-53.7223
 11
13.2389
 21
-52.9516
  0
LINE
  8
0
 10
13.2389
 20
-52.9516
 11
14.3267
 21
-52.1051
  0
LINE
  8
0
 10
14.3267
 20
-52.1051
 11
15.3262
 21
-51.1829
  0
LINE
  8
0
 10
15.3262
 20
-51.1829
 11
16.2373
 21
-50.185
  0
LINE
  8
0
 10
16.2373
 20
-50.185
 11
17.06
 21
-49.1114
  0
LINE
  8
0
 10
17.06
 20
-49.1114
 11
17.7944
 21
-47.962
  0
LINE
  8
0
 10
17.7944
 20
-47.962
 11
18.4353
 21
-46.7492
  0
LINE
  8
0
 10
18.4353
 20
-46.7492
 11
18.9776
 21
-45.485
  0
LINE
  8
0
 10
18.9776
 20
-45.485
 11
19.4212
 21
-44.1696
  0
LINE
  8
0
 10
19.4212
 20
-44.1696
 11
19.7663
 21
-42.8029
  0
LINE
  8
0
 10
19.7663
 20
-42.8029
 11
20.0128
 21
-41.3849
  0
LINE
  8
0
 10
20.0128
 20
-41.3849
 11
20.1607
 21
-39.9157
  0
LINE
  8
0
 10
20.1607
 20
-39.9157
 11
20.21
 21
-38.3952
  0
LINE
  8
0
 10
20.21
 20
-38.3952
 11
20.115
 21
-36.216
  0
LINE
  8
0
 10
20.115
 20
-36.216
 11
19.8298
 21
-34.1622
  0
LINE
  8
0
 10
19.8298
 20
-34.1622
 11
19.3546
 21
-32.2339
  0
LINE
  8
0
 10
19.3546
 20
-32.2339
 11
18.6892
 21
-30.431
  0
LINE
  8
0
 10
18.6892
 20
-30.431
 11
17.8338
 21
-28.7535
  0
LINE
  8
0
 10
17.8338
 20
-28.7535
 11
16.7882
 21
-27.2014
  0
LINE
  8
0
 10
16.7882
 20
-27.2014
 11
15.5526
 21
-25.7748
  0
LINE
  8
0
 10
15.5526
 20
-25.7748
 11
14.1584
 21
-24.5083
  0
LINE
  8
0
 10
14.1584
 20
-24.5083
 11
12.6371
 21
-23.4366
  0
LINE
  8
0
 10
12.6371
 20
-23.4366
 11
10.9888
 21
-22.5598
  0
LINE
  8
0
 10
10.9888
 20
-22.5598
 11
9.21352
 21
-21.8778
  0
LINE
  8
0
 10
9.21352
 20
-21.8778
 11
7.31119
 21
-21.3907
  0
LINE
  8
0
 10
7.31119
 20
-21.3907
 11
5.28181
 21
-21.0984
  0
LINE
  8
0
 10
5.28181
 20
-21.0984
 11
3.12543
 21
-21.001
  0
LINE
  8
0
 10
3.12543
 20
-21.001
 11
1.47601
 21
-21.072
  0
LINE
  8
0
 10
1.47601
 20
-21.072
 11
-0.0929413
 21
-21.285
  0
LINE
  8
0
 10
-0.0929413
 20
-21.285
 11
-1.58145
 21
-21.6401
  0
LINE
  8
0
 10
-1.58145
 20
-21.6401
 11
-2.98952
 21
-22.1371
  0
LINE
  8
0
 10
-2.98952
 20
-22.1371
 11
-4.31712
 21
-22.7762
  0
LINE
  8
0
 10
-4.31712
 20
-22.7762
 11
-5.56429
 21
-23.5572
  0
LINE
  8
0
 10
-5.56429
 20
-23.5572
 11
-6.731
 21
-24.4803
  0
LINE
  8
0
 10
-6.731
 20
-24.4803
 11
-5.8418
 21
-11.8793
  0
LINE
  8
0
 10
-5.8418
 20
-11.8793
 11
17.0408
 21
-11.8793
  0
LINE
  8
0
 10
17.0408
 20
-11.8793
 11
17.0408
 21
-3.80072
  0
LINE
  8
0
 10
17.0408
 20
-3.80072
 11
-15.6982
 21
-3.80072
  0
LINE
  8
0
 10
-15.6982
 20
-3.80072
 11
-17.5923
 21
-33.2931
  0
LINE
  8
0
 10
-17.5923
 20
-33.2931
 11
-7.00174
 21
-33.2931
  0
LINE
  8
0
 10
-7.00174
 20
-33.2931
 11
-6.15045
 21
-32.3599
  0
LINE
  8
0
 10
-6.15045
 20
-32.3599
 11
-5.23135
 21
-31.5702
  0
LINE
  8
0
 10
-5.23135
 20
-31.5702
 11
-4.24442
 21
-30.9242
  0
LINE
  8
0
 10
-4.24442
 20
-30.9242
 11
-3.18968
 21
-30.4217
  0
LINE
  8
0
 10
-3.18968
 20
-30.4217
 11
-2.06712
 21
-30.0628
  0
LINE
  8
0
 10
-2.06712
 20
-30.0628
 11
-0.87674
 21
-29.8474
  0
LINE
  8
0
 10
-0.87674
 20
-29.8474
 11
0.381454
 21
-29.7756
  0
LINE
  8
0
 10
0.381454
 20
-29.7756
 11
1.515
 21
-29.8249
  0
LINE
  8
0
 10
1.515
 20
-29.8249
 11
2.57439
 21
-29.9728
  0
LINE
  8
0
 10
2.57439
 20
-29.9728
 11
3.55965
 21
-30.2193
  0
LINE
  8
0
 10
3.55965
 20
-30.2193
 11
4.47075
 21
-30.5644
  0
LINE
  8
0
 10
4.47075
 20
-30.5644
 11
5.30771
 21
-31.0081
  0
LINE
  8
0
 10
5.30771
 20
-31.0081
 11
6.07051
 21
-31.5504
  0
LINE
  8
0
 10
6.07051
 20
-31.5504
 11
6.75919
 21
-32.1913
  0
LINE
  8
0
 10
6.75919
 20
-32.1913
 11
7.36423
 21
-32.9142
  0
LINE
  8
0
 10
7.36423
 20
-32.9142
 11
7.87619
 21
-33.7026
  0
LINE
  8
0
 10
7.87619
 20
-33.7026
 11
8.29507
 21
-34.5565
  0
LINE
  8
0
 10
8.29507
 20
-34.5565
 11
8.62086
 21
-35.476
  0
LINE
  8
0
 10
8.62086
 20
-35.476
 11
8.85358
 21
-36.4609
  0
LINE
  8
0
 10
8.85358
 20
-36.4609
 11
8.99321
 21
-37.5113
  0
LINE
  8
0
 10
8.99321
 20
-37.5113
 11
9.03975
 21
-38.6271
  0
LINE
  8
0
 10
9.03975
 20
-38.6271
 11
8.99162
 21
-39.8774
  0
LINE
  8
0
 10
8.99162
 20
-39.8774
 11
8.84726
 21
-41.0441
  0
LINE
  8
0
 10
8.84726
 20
-41.0441
 11
8.60663
 21
-42.1272
  0
LINE
  8
0
 10
8.60663
 20
-42.1272
 11
8.26976
 21
-43.1266
  0
LINE
  8
0
 10
8.26976
 20
-43.1266
 11
7.83664
 21
-44.0425
  0
LINE
  8
0
 10
7.83664
 20
-44.0425
 11
7.30728
 21
-44.8747
  0
LINE
  8
0
 10
7.30728
 20
-44.8747
 11
6.68166
 21
-45.6233
  0
LINE
  8
0
 10
6.68166
 20
-45.6233
 11
5.97099
 21
-46.2796
  0
LINE
  8
0
 10
5.97099
 20
-46.2796
 11
5.18617
 21
-46.835
  0
LINE
  8
0
 10
5.18617
 20
-46.835
 11
4.32716
 21
-47.2894
  0
LINE
  8
0
 10
4.32716
 20
-47.2894
 11
3.394
 21
-47.6427
  0
LINE
  8
0
 10
3.394
 20
-47.6427
 11
2.38666
 21
-47.8952
  0
LINE
  8
0
 10
2.38666
 20
-47.8952
 11
1.30515
 21
-48.0466
  0
LINE
  8
0
 10
1.30515
 20
-48.0466
 11
0.14946
 21
-48.0971
  0
LINE
  8
0
 10
0.14946
 20
-48.0971
 11
-0.766357
 21
-48.0648
  0
LINE
  8
0
 10
-0.766357
 20
-48.0648
 11
-1.63646
 21
-47.9678
  0
LINE
  8
0
 10
-1.63646
 20
-47.9678
 11
-2.46082
 21
-47.8061
  0
LINE
  8
0
 10
-2.46082
 20
-47.8061
 11
-3.23944
 21
-47.5797
  0
LINE
  8
0
 10
-3.23944
 20
-47.5797
 11
-3.97232
 21
-47.2887
  0
LINE
  8
0
 10
-3.97232
 20
-47.2887
 11
-4.65947
 21
-46.9329
  0
LINE
  8
0
 10
-4.65947
 20
-46.9329
 11
-5.30087
 21
-46.5125
  0
LINE
  8
0
 10
-5.30087
 20
-46.5125
 11
-5.89243
 21
-46.021
  0
LINE
  8
0
 10
-5.89243
 20
-46.021
 11
-6.43034
 21
-45.4521
  0
LINE
  8
0
 10
-6.43034
 20
-45.4521
 11
-6.91466
 21
-44.806
  0
LINE
  8
0
 10
-6.91466
 20
-44.806
 11
-7.34532
 21
-44.0826
  0
LINE
  8
0
 10
-7.34532
 20
-44.0826
 11
-7.72238
 21
-43.2819
  0
LINE
  8
0
 10
-7.72238
 20
-43.2819
 11
-8.04581
 21
-42.4039
  0
LINE
  8
0
 10
-8.04581
 20
-42.4039
 11
-8.3156
 21
-41.4486
  0
LINE
  8
0
 10
-8.3156
 20
-41.4486
 11
-19.1769
 21
-42.3378
  0
LINE
  8
0
 10
-19.1769
 20
-42.3378
 11
-18.7688
 21
-44.2693
  0
LINE
  8
0
 10
-18.7688
 20
-44.2693
 11
-18.2068
 21
-46.0659
  0
LINE
  8
0
 10
-18.2068
 20
-46.0659
 11
-17.491
 21
-47.7276
  0
LINE
  8
0
 10
-17.491
 20
-47.7276
 11
-16.6213
 21
-49.2543
  0
LINE
  8
0
 10
-16.6213
 20
-49.2543
 11
-15.5978
 21
-50.6462
  0
LINE
  8
0
 10
-15.5978
 20
-50.6462
 11
-14.4205
 21
-51.9032
  0
LINE
  8
0
 10
-14.4205
 20
-51.9032
 11
-13.0893
 21
-53.0253
  0
LINE
  8
0
 10
-13.0893
 20
-53.0253
 11
-11.6146
 21
-54.0047
  0
LINE
  8
0
 10
-11.6146
 20
-54.0047
 11
-10.0066
 21
-54.8333
  0
LINE
  8
0
 10
-10.0066
 20
-54.8333
 11
-8.26526
 21
-55.5113
  0
LINE
  8
0
 10
-8.26526
 20
-55.5113
 11
-6.39061
 21
-56.0387
  0
LINE
  8
0
 10
-6.39061
 20
-56.0387
 11
-4.38266
 21
-56.4153
  0
LINE
  8
0
 10
-4.38266
 20
-56.4153
 11
-2.24138
 21
-56.6413
  0
LINE
  8
0
 10
-2.24138
 20
-56.6413
 11
0.0331726
 21
-56.7167
  0
LINE
  8
0
 10
0.0331726
 20
-56.7167
 11
1.76744
 21
-56.6697
  0
ENDSEC
  0
SECTION
  2
OBJECTS
  0
DICTIONARY
  0
ENDSEC
  0
EOF
