  0
SECTION
  2
BLOCKS
  0
ENDSEC
  0
SECTION
  2
ENTITIES
  0
LINE
  8
0
 10
0.399216
 20
-21.0375
 11
0.481247
 21
-20.0912
  0
LINE
  8
0
 10
0.481247
 20
-20.0912
 11
0.617966
 21
-19.1422
  0
LINE
  8
0
 10
0.617966
 20
-19.1422
 11
0.809372
 21
-18.1906
  0
LINE
  8
0
 10
0.809372
 20
-18.1906
 11
1.05548
 21
-17.2364
  0
LINE
  8
0
 10
1.05548
 20
-17.2364
 11
1.35626
 21
-16.2795
  0
LINE
  8
0
 10
1.35626
 20
-16.2795
 11
1.71175
 21
-15.32
  0
LINE
  8
0
 10
1.71175
 20
-15.32
 11
2.13432
 21
-14.3363
  0
LINE
  8
0
 10
2.13432
 20
-14.3363
 11
2.63631
 21
-13.3069
  0
LINE
  8
0
 10
2.63631
 20
-13.3069
 11
3.2177
 21
-12.2317
  0
LINE
  8
0
 10
3.2177
 20
-12.2317
 11
3.87849
 21
-11.1108
  0
LINE
  8
0
 10
3.87849
 20
-11.1108
 11
4.61868
 21
-9.94408
  0
LINE
  8
0
 10
4.61868
 20
-9.94408
 11
5.43829
 21
-8.73163
  0
LINE
  8
0
 10
5.43829
 20
-8.73163
 11
6.3373
 21
-7.47342
  0
LINE
  8
0
 10
6.3373
 20
-7.47342
 11
6.3373
 21
-4.60025
  0
LINE
  8
0
 10
6.3373
 20
-4.60025
 11
-6.04462
 21
-4.60025
  0
LINE
  8
0
 10
-6.04462
 20
-4.60025
 11
-6.04462
 21
-7.57658
  0
LINE
  8
0
 10
-6.04462
 20
-7.57658
 11
2.97449
 21
-7.57658
  0
LINE
  8
0
 10
2.97449
 20
-7.57658
 11
2.06798
 21
-8.71156
  0
LINE
  8
0
 10
2.06798
 20
-8.71156
 11
1.23325
 21
-9.82681
  0
LINE
  8
0
 10
1.23325
 20
-9.82681
 11
0.470306
 21
-10.9224
  0
LINE
  8
0
 10
0.470306
 20
-10.9224
 11
-0.220856
 21
-11.9982
  0
LINE
  8
0
 10
-0.220856
 20
-11.9982
 11
-0.84024
 21
-13.0543
  0
LINE
  8
0
 10
-0.84024
 20
-13.0543
 11
-1.38783
 21
-14.0907
  0
LINE
  8
0
 10
-1.38783
 20
-14.0907
 11
-1.86366
 21
-15.1074
  0
LINE
  8
0
 10
-1.86366
 20
-15.1074
 11
-2.27211
 21
-16.1107
  0
LINE
  8
0
 10
-2.27211
 20
-16.1107
 11
-2.61774
 21
-17.1069
  0
LINE
  8
0
 10
-2.61774
 20
-17.1069
 11
-2.90051
 21
-18.096
  0
LINE
  8
0
 10
-2.90051
 20
-18.096
 11
-3.12045
 21
-19.0779
  0
LINE
  8
0
 10
-3.12045
 20
-19.0779
 11
-3.27756
 21
-20.0528
  0
LINE
  8
0
 10
-3.27756
 20
-20.0528
 11
-3.37181
 21
-21.0206
  0
LINE
  8
0
 10
-3.37181
 20
-21.0206
 11
-3.40323
 21
-21.9812
  0
LINE
  8
0
 10
-3.40323
 20
-21.9812
 11
0.371872
 21
-21.9812
  0
LINE
  8
0
 10
0.371872
 20
-21.9812
 11
0.399216
 21
-21.0375
  0
ENDSEC
  0
SECTION
  2
OBJECTS
  0
DICTIONARY
  0
ENDSEC
  0
EOF
