solid OpenSCAD_Model
  facet normal 0 0 -1
    outer loop
      vertex 0.470306 -10.9224 0
      vertex 3.2177 -12.2317 0
      vertex 2.63631 -13.3069 0
    endloop
  endfacet
  facet normal 0 0 -1
    outer loop
      vertex -0.220856 -11.9982 0
      vertex 2.63631 -13.3069 0
      vertex 2.13432 -14.3363 0
    endloop
  endfacet
  facet normal 0 0 -1
    outer loop
      vertex 3.2177 -12.2317 0
      vertex 2.06798 -8.71156 0
      vertex 2.97449 -7.57658 0
    endloop
  endfacet
  facet normal 0 0 -1
    outer loop
      vertex -0.84024 -13.0543 0
      vertex 2.13432 -14.3363 0
      vertex 1.71175 -15.32 0
    endloop
  endfacet
  facet normal 0 0 -1
    outer loop
      vertex -1.38783 -14.0907 0
      vertex 1.71175 -15.32 0
      vertex 1.35626 -16.2795 0
    endloop
  endfacet
  facet normal 0 0 -1
    outer loop
      vertex 3.2177 -12.2317 0
      vertex 1.23325 -9.82681 0
      vertex 2.06798 -8.71156 0
    endloop
  endfacet
  facet normal 0 0 -1
    outer loop
      vertex -1.86366 -15.1074 0
      vertex 1.35626 -16.2795 0
      vertex 1.05548 -17.2364 0
    endloop
  endfacet
  facet normal 0 0 -1
    outer loop
      vertex -2.61774 -17.1069 0
      vertex 1.05548 -17.2364 0
      vertex 0.809372 -18.1906 0
    endloop
  endfacet
  facet normal 0 0 -1
    outer loop
      vertex -2.90051 -18.096 0
      vertex 0.809372 -18.1906 0
      vertex 0.617966 -19.1422 0
    endloop
  endfacet
  facet normal 0 0 -1
    outer loop
      vertex -3.12045 -19.0779 0
      vertex 0.617966 -19.1422 0
      vertex 0.481247 -20.0912 0
    endloop
  endfacet
  facet normal 0 0 -1
    outer loop
      vertex 3.2177 -12.2317 0
      vertex 0.470306 -10.9224 0
      vertex 1.23325 -9.82681 0
    endloop
  endfacet
  facet normal 0 0 -1
    outer loop
      vertex -3.27756 -20.0528 0
      vertex 0.481247 -20.0912 0
      vertex 0.399216 -21.0375 0
    endloop
  endfacet
  facet normal 0 0 -1
    outer loop
      vertex -3.37181 -21.0206 0
      vertex 0.399216 -21.0375 0
      vertex 0.371872 -21.9812 0
    endloop
  endfacet
  facet normal 0 0 -1
    outer loop
      vertex 2.63631 -13.3069 0
      vertex -0.220856 -11.9982 0
      vertex 0.470306 -10.9224 0
    endloop
  endfacet
  facet normal 0 0 -1
    outer loop
      vertex 2.13432 -14.3363 0
      vertex -0.84024 -13.0543 0
      vertex -0.220856 -11.9982 0
    endloop
  endfacet
  facet normal 0 0 -1
    outer loop
      vertex 1.71175 -15.32 0
      vertex -1.38783 -14.0907 0
      vertex -0.84024 -13.0543 0
    endloop
  endfacet
  facet normal 0 0 -1
    outer loop
      vertex 1.35626 -16.2795 0
      vertex -1.86366 -15.1074 0
      vertex -1.38783 -14.0907 0
    endloop
  endfacet
  facet normal 0 0 -1
    outer loop
      vertex 1.05548 -17.2364 0
      vertex -2.27211 -16.1107 0
      vertex -1.86366 -15.1074 0
    endloop
  endfacet
  facet normal 0 0 -1
    outer loop
      vertex 1.05548 -17.2364 0
      vertex -2.61774 -17.1069 0
      vertex -2.27211 -16.1107 0
    endloop
  endfacet
  facet normal 0 0 -1
    outer loop
      vertex 0.809372 -18.1906 0
      vertex -2.90051 -18.096 0
      vertex -2.61774 -17.1069 0
    endloop
  endfacet
  facet normal 0 0 -1
    outer loop
      vertex 0.617966 -19.1422 0
      vertex -3.12045 -19.0779 0
      vertex -2.90051 -18.096 0
    endloop
  endfacet
  facet normal 0 0 -1
    outer loop
      vertex 0.481247 -20.0912 0
      vertex -3.27756 -20.0528 0
      vertex -3.12045 -19.0779 0
    endloop
  endfacet
  facet normal 0 0 -1
    outer loop
      vertex 0.399216 -21.0375 0
      vertex -3.37181 -21.0206 0
      vertex -3.27756 -20.0528 0
    endloop
  endfacet
  facet normal 0 -0 -1
    outer loop
      vertex -3.37181 -21.0206 0
      vertex 0.371872 -21.9812 0
      vertex -3.40323 -21.9812 0
    endloop
  endfacet
  facet normal 0 0 -1
    outer loop
      vertex 2.97449 -7.57658 0
      vertex 6.3373 -7.47342 0
      vertex 5.43829 -8.73163 0
    endloop
  endfacet
  facet normal 0 0 -1
    outer loop
      vertex 2.97449 -7.57658 0
      vertex 5.43829 -8.73163 0
      vertex 4.61868 -9.94408 0
    endloop
  endfacet
  facet normal 0 0 -1
    outer loop
      vertex 2.97449 -7.57658 0
      vertex 4.61868 -9.94408 0
      vertex 3.87849 -11.1108 0
    endloop
  endfacet
  facet normal 0 0 -1
    outer loop
      vertex 2.97449 -7.57658 0
      vertex 3.87849 -11.1108 0
      vertex 3.2177 -12.2317 0
    endloop
  endfacet
  facet normal -0 0 -1
    outer loop
      vertex 6.3373 -7.47342 0
      vertex 2.97449 -7.57658 0
      vertex 6.3373 -4.60025 0
    endloop
  endfacet
  facet normal 0 0 -1
    outer loop
      vertex -6.04462 -4.60025 0
      vertex 2.97449 -7.57658 0
      vertex -6.04462 -7.57658 0
    endloop
  endfacet
  facet normal 0 0 -1
    outer loop
      vertex 2.97449 -7.57658 0
      vertex -6.04462 -4.60025 0
      vertex 6.3373 -4.60025 0
    endloop
  endfacet
  facet normal 0 0 1
    outer loop
      vertex 2.97449 -7.57658 1
      vertex 6.3373 -7.47342 1
      vertex 6.3373 -4.60025 1
    endloop
  endfacet
  facet normal 0 0 1
    outer loop
      vertex 6.3373 -7.47342 1
      vertex 2.97449 -7.57658 1
      vertex 5.43829 -8.73163 1
    endloop
  endfacet
  facet normal 0 0 1
    outer loop
      vertex 5.43829 -8.73163 1
      vertex 2.97449 -7.57658 1
      vertex 4.61868 -9.94408 1
    endloop
  endfacet
  facet normal -0 0 1
    outer loop
      vertex 2.06798 -8.71156 1
      vertex 4.61868 -9.94408 1
      vertex 2.97449 -7.57658 1
    endloop
  endfacet
  facet normal 0 0 1
    outer loop
      vertex 4.61868 -9.94408 1
      vertex 2.06798 -8.71156 1
      vertex 3.87849 -11.1108 1
    endloop
  endfacet
  facet normal -0 0 1
    outer loop
      vertex -6.04462 -4.60025 1
      vertex 2.97449 -7.57658 1
      vertex 6.3373 -4.60025 1
    endloop
  endfacet
  facet normal 0 0 1
    outer loop
      vertex 2.97449 -7.57658 1
      vertex -6.04462 -4.60025 1
      vertex -6.04462 -7.57658 1
    endloop
  endfacet
  facet normal -0 0 1
    outer loop
      vertex 1.23325 -9.82681 1
      vertex 3.87849 -11.1108 1
      vertex 2.06798 -8.71156 1
    endloop
  endfacet
  facet normal 0 0 1
    outer loop
      vertex 3.87849 -11.1108 1
      vertex 1.23325 -9.82681 1
      vertex 3.2177 -12.2317 1
    endloop
  endfacet
  facet normal -0 0 1
    outer loop
      vertex 0.470306 -10.9224 1
      vertex 3.2177 -12.2317 1
      vertex 1.23325 -9.82681 1
    endloop
  endfacet
  facet normal 0 0 1
    outer loop
      vertex 3.2177 -12.2317 1
      vertex 0.470306 -10.9224 1
      vertex 2.63631 -13.3069 1
    endloop
  endfacet
  facet normal -0 0 1
    outer loop
      vertex -0.220856 -11.9982 1
      vertex 2.63631 -13.3069 1
      vertex 0.470306 -10.9224 1
    endloop
  endfacet
  facet normal 0 0 1
    outer loop
      vertex 2.63631 -13.3069 1
      vertex -0.220856 -11.9982 1
      vertex 2.13432 -14.3363 1
    endloop
  endfacet
  facet normal -0 0 1
    outer loop
      vertex -0.84024 -13.0543 1
      vertex 2.13432 -14.3363 1
      vertex -0.220856 -11.9982 1
    endloop
  endfacet
  facet normal 0 0 1
    outer loop
      vertex 2.13432 -14.3363 1
      vertex -0.84024 -13.0543 1
      vertex 1.71175 -15.32 1
    endloop
  endfacet
  facet normal -0 0 1
    outer loop
      vertex -1.38783 -14.0907 1
      vertex 1.71175 -15.32 1
      vertex -0.84024 -13.0543 1
    endloop
  endfacet
  facet normal 0 0 1
    outer loop
      vertex 1.71175 -15.32 1
      vertex -1.38783 -14.0907 1
      vertex 1.35626 -16.2795 1
    endloop
  endfacet
  facet normal -0 0 1
    outer loop
      vertex -1.86366 -15.1074 1
      vertex 1.35626 -16.2795 1
      vertex -1.38783 -14.0907 1
    endloop
  endfacet
  facet normal 0 0 1
    outer loop
      vertex 1.35626 -16.2795 1
      vertex -1.86366 -15.1074 1
      vertex 1.05548 -17.2364 1
    endloop
  endfacet
  facet normal -0 0 1
    outer loop
      vertex -2.27211 -16.1107 1
      vertex 1.05548 -17.2364 1
      vertex -1.86366 -15.1074 1
    endloop
  endfacet
  facet normal -0 0 1
    outer loop
      vertex -2.61774 -17.1069 1
      vertex 1.05548 -17.2364 1
      vertex -2.27211 -16.1107 1
    endloop
  endfacet
  facet normal 0 0 1
    outer loop
      vertex 1.05548 -17.2364 1
      vertex -2.61774 -17.1069 1
      vertex 0.809372 -18.1906 1
    endloop
  endfacet
  facet normal -0 0 1
    outer loop
      vertex -2.90051 -18.096 1
      vertex 0.809372 -18.1906 1
      vertex -2.61774 -17.1069 1
    endloop
  endfacet
  facet normal 0 0 1
    outer loop
      vertex 0.809372 -18.1906 1
      vertex -2.90051 -18.096 1
      vertex 0.617966 -19.1422 1
    endloop
  endfacet
  facet normal -0 0 1
    outer loop
      vertex -3.12045 -19.0779 1
      vertex 0.617966 -19.1422 1
      vertex -2.90051 -18.096 1
    endloop
  endfacet
  facet normal 0 0 1
    outer loop
      vertex 0.617966 -19.1422 1
      vertex -3.12045 -19.0779 1
      vertex 0.481247 -20.0912 1
    endloop
  endfacet
  facet normal -0 0 1
    outer loop
      vertex -3.27756 -20.0528 1
      vertex 0.481247 -20.0912 1
      vertex -3.12045 -19.0779 1
    endloop
  endfacet
  facet normal 0 0 1
    outer loop
      vertex 0.481247 -20.0912 1
      vertex -3.27756 -20.0528 1
      vertex 0.399216 -21.0375 1
    endloop
  endfacet
  facet normal -0 0 1
    outer loop
      vertex -3.37181 -21.0206 1
      vertex 0.399216 -21.0375 1
      vertex -3.27756 -20.0528 1
    endloop
  endfacet
  facet normal 0 0 1
    outer loop
      vertex 0.399216 -21.0375 1
      vertex -3.37181 -21.0206 1
      vertex 0.371872 -21.9812 1
    endloop
  endfacet
  facet normal 0 0 1
    outer loop
      vertex 0.371872 -21.9812 1
      vertex -3.37181 -21.0206 1
      vertex -3.40323 -21.9812 1
    endloop
  endfacet
  facet normal 0.996264 -0.0863622 0
    outer loop
      vertex 0.399216 -21.0375 1
      vertex 0.481247 -20.0912 0
      vertex 0.481247 -20.0912 1
    endloop
  endfacet
  facet normal 0.996264 -0.0863622 0
    outer loop
      vertex 0.481247 -20.0912 0
      vertex 0.399216 -21.0375 1
      vertex 0.399216 -21.0375 0
    endloop
  endfacet
  facet normal 0.989781 -0.142594 0
    outer loop
      vertex 0.481247 -20.0912 1
      vertex 0.617966 -19.1422 0
      vertex 0.617966 -19.1422 1
    endloop
  endfacet
  facet normal 0.989781 -0.142594 0
    outer loop
      vertex 0.617966 -19.1422 0
      vertex 0.481247 -20.0912 1
      vertex 0.481247 -20.0912 0
    endloop
  endfacet
  facet normal 0.980365 -0.197192 0
    outer loop
      vertex 0.617966 -19.1422 1
      vertex 0.809372 -18.1906 0
      vertex 0.809372 -18.1906 1
    endloop
  endfacet
  facet normal 0.980365 -0.197192 0
    outer loop
      vertex 0.809372 -18.1906 0
      vertex 0.617966 -19.1422 1
      vertex 0.617966 -19.1422 0
    endloop
  endfacet
  facet normal 0.968311 -0.249748 0
    outer loop
      vertex 0.809372 -18.1906 1
      vertex 1.05548 -17.2364 0
      vertex 1.05548 -17.2364 1
    endloop
  endfacet
  facet normal 0.968311 -0.249748 0
    outer loop
      vertex 1.05548 -17.2364 0
      vertex 0.809372 -18.1906 1
      vertex 0.809372 -18.1906 0
    endloop
  endfacet
  facet normal 0.953982 -0.299863 0
    outer loop
      vertex 1.05548 -17.2364 1
      vertex 1.35626 -16.2795 0
      vertex 1.35626 -16.2795 1
    endloop
  endfacet
  facet normal 0.953982 -0.299863 0
    outer loop
      vertex 1.35626 -16.2795 0
      vertex 1.05548 -17.2364 1
      vertex 1.05548 -17.2364 0
    endloop
  endfacet
  facet normal 0.937711 -0.347417 0
    outer loop
      vertex 1.35626 -16.2795 1
      vertex 1.71175 -15.32 0
      vertex 1.71175 -15.32 1
    endloop
  endfacet
  facet normal 0.937711 -0.347417 0
    outer loop
      vertex 1.71175 -15.32 0
      vertex 1.35626 -16.2795 1
      vertex 1.35626 -16.2795 0
    endloop
  endfacet
  facet normal 0.918812 -0.394696 0
    outer loop
      vertex 1.71175 -15.32 1
      vertex 2.13432 -14.3363 0
      vertex 2.13432 -14.3363 1
    endloop
  endfacet
  facet normal 0.918812 -0.394696 0
    outer loop
      vertex 2.13432 -14.3363 0
      vertex 1.71175 -15.32 1
      vertex 1.71175 -15.32 0
    endloop
  endfacet
  facet normal 0.898822 -0.438313 0
    outer loop
      vertex 2.13432 -14.3363 1
      vertex 2.63631 -13.3069 0
      vertex 2.63631 -13.3069 1
    endloop
  endfacet
  facet normal 0.898822 -0.438313 0
    outer loop
      vertex 2.63631 -13.3069 0
      vertex 2.13432 -14.3363 1
      vertex 2.13432 -14.3363 0
    endloop
  endfacet
  facet normal 0.879638 -0.475644 0
    outer loop
      vertex 2.63631 -13.3069 1
      vertex 3.2177 -12.2317 0
      vertex 3.2177 -12.2317 1
    endloop
  endfacet
  facet normal 0.879638 -0.475644 0
    outer loop
      vertex 3.2177 -12.2317 0
      vertex 2.63631 -13.3069 1
      vertex 2.63631 -13.3069 0
    endloop
  endfacet
  facet normal 0.861451 -0.50784 0
    outer loop
      vertex 3.2177 -12.2317 1
      vertex 3.87849 -11.1108 0
      vertex 3.87849 -11.1108 1
    endloop
  endfacet
  facet normal 0.861451 -0.50784 0
    outer loop
      vertex 3.87849 -11.1108 0
      vertex 3.2177 -12.2317 1
      vertex 3.2177 -12.2317 0
    endloop
  endfacet
  facet normal 0.844404 -0.535707 0
    outer loop
      vertex 3.87849 -11.1108 1
      vertex 4.61868 -9.94408 0
      vertex 4.61868 -9.94408 1
    endloop
  endfacet
  facet normal 0.844404 -0.535707 0
    outer loop
      vertex 4.61868 -9.94408 0
      vertex 3.87849 -11.1108 1
      vertex 3.87849 -11.1108 0
    endloop
  endfacet
  facet normal 0.828466 -0.560039 0
    outer loop
      vertex 4.61868 -9.94408 1
      vertex 5.43829 -8.73163 0
      vertex 5.43829 -8.73163 1
    endloop
  endfacet
  facet normal 0.828466 -0.560039 0
    outer loop
      vertex 5.43829 -8.73163 0
      vertex 4.61868 -9.94408 1
      vertex 4.61868 -9.94408 0
    endloop
  endfacet
  facet normal 0.813645 -0.581362 0
    outer loop
      vertex 5.43829 -8.73163 1
      vertex 6.3373 -7.47342 0
      vertex 6.3373 -7.47342 1
    endloop
  endfacet
  facet normal 0.813645 -0.581362 0
    outer loop
      vertex 6.3373 -7.47342 0
      vertex 5.43829 -8.73163 1
      vertex 5.43829 -8.73163 0
    endloop
  endfacet
  facet normal 1 -0 0
    outer loop
      vertex 6.3373 -7.47342 1
      vertex 6.3373 -4.60025 0
      vertex 6.3373 -4.60025 1
    endloop
  endfacet
  facet normal 1 0 0
    outer loop
      vertex 6.3373 -4.60025 0
      vertex 6.3373 -7.47342 1
      vertex 6.3373 -7.47342 0
    endloop
  endfacet
  facet normal 0 1 -0
    outer loop
      vertex 6.3373 -4.60025 0
      vertex -6.04462 -4.60025 1
      vertex 6.3373 -4.60025 1
    endloop
  endfacet
  facet normal 0 1 0
    outer loop
      vertex -6.04462 -4.60025 1
      vertex 6.3373 -4.60025 0
      vertex -6.04462 -4.60025 0
    endloop
  endfacet
  facet normal -1 0 0
    outer loop
      vertex -6.04462 -7.57658 0
      vertex -6.04462 -4.60025 1
      vertex -6.04462 -4.60025 0
    endloop
  endfacet
  facet normal -1 -0 0
    outer loop
      vertex -6.04462 -4.60025 1
      vertex -6.04462 -7.57658 0
      vertex -6.04462 -7.57658 1
    endloop
  endfacet
  facet normal 0 -1 0
    outer loop
      vertex -6.04462 -7.57658 0
      vertex 2.97449 -7.57658 1
      vertex -6.04462 -7.57658 1
    endloop
  endfacet
  facet normal 0 -1 -0
    outer loop
      vertex 2.97449 -7.57658 1
      vertex -6.04462 -7.57658 0
      vertex 2.97449 -7.57658 0
    endloop
  endfacet
  facet normal -0.781364 0.624076 0
    outer loop
      vertex 2.06798 -8.71156 0
      vertex 2.97449 -7.57658 1
      vertex 2.97449 -7.57658 0
    endloop
  endfacet
  facet normal -0.781364 0.624076 0
    outer loop
      vertex 2.97449 -7.57658 1
      vertex 2.06798 -8.71156 0
      vertex 2.06798 -8.71156 1
    endloop
  endfacet
  facet normal -0.800588 0.599215 0
    outer loop
      vertex 1.23325 -9.82681 0
      vertex 2.06798 -8.71156 1
      vertex 2.06798 -8.71156 0
    endloop
  endfacet
  facet normal -0.800588 0.599215 0
    outer loop
      vertex 2.06798 -8.71156 1
      vertex 1.23325 -9.82681 0
      vertex 1.23325 -9.82681 1
    endloop
  endfacet
  facet normal -0.820626 0.571465 0
    outer loop
      vertex 0.470306 -10.9224 0
      vertex 1.23325 -9.82681 1
      vertex 1.23325 -9.82681 0
    endloop
  endfacet
  facet normal -0.820626 0.571465 0
    outer loop
      vertex 1.23325 -9.82681 1
      vertex 0.470306 -10.9224 0
      vertex 0.470306 -10.9224 1
    endloop
  endfacet
  facet normal -0.841329 0.540523 0
    outer loop
      vertex -0.220856 -11.9982 0
      vertex 0.470306 -10.9224 1
      vertex 0.470306 -10.9224 0
    endloop
  endfacet
  facet normal -0.841329 0.540523 0
    outer loop
      vertex 0.470306 -10.9224 1
      vertex -0.220856 -11.9982 0
      vertex -0.220856 -11.9982 1
    endloop
  endfacet
  facet normal -0.862594 0.505896 0
    outer loop
      vertex -0.84024 -13.0543 0
      vertex -0.220856 -11.9982 1
      vertex -0.220856 -11.9982 0
    endloop
  endfacet
  facet normal -0.862594 0.505896 0
    outer loop
      vertex -0.220856 -11.9982 1
      vertex -0.84024 -13.0543 0
      vertex -0.84024 -13.0543 1
    endloop
  endfacet
  facet normal -0.884173 0.46716 0
    outer loop
      vertex -1.38783 -14.0907 0
      vertex -0.84024 -13.0543 1
      vertex -0.84024 -13.0543 0
    endloop
  endfacet
  facet normal -0.884173 0.46716 0
    outer loop
      vertex -0.84024 -13.0543 1
      vertex -1.38783 -14.0907 0
      vertex -1.38783 -14.0907 1
    endloop
  endfacet
  facet normal -0.905715 0.423887 0
    outer loop
      vertex -1.86366 -15.1074 0
      vertex -1.38783 -14.0907 1
      vertex -1.38783 -14.0907 0
    endloop
  endfacet
  facet normal -0.905715 0.423887 0
    outer loop
      vertex -1.38783 -14.0907 1
      vertex -1.86366 -15.1074 0
      vertex -1.86366 -15.1074 1
    endloop
  endfacet
  facet normal -0.92619 0.377058 0
    outer loop
      vertex -2.27211 -16.1107 0
      vertex -1.86366 -15.1074 1
      vertex -1.86366 -15.1074 0
    endloop
  endfacet
  facet normal -0.92619 0.377058 0
    outer loop
      vertex -1.86366 -15.1074 1
      vertex -2.27211 -16.1107 0
      vertex -2.27211 -16.1107 1
    endloop
  endfacet
  facet normal -0.944754 0.327781 0
    outer loop
      vertex -2.61774 -17.1069 0
      vertex -2.27211 -16.1107 1
      vertex -2.27211 -16.1107 0
    endloop
  endfacet
  facet normal -0.944754 0.327781 0
    outer loop
      vertex -2.27211 -16.1107 1
      vertex -2.61774 -17.1069 0
      vertex -2.61774 -17.1069 1
    endloop
  endfacet
  facet normal -0.96148 0.274874 0
    outer loop
      vertex -2.90051 -18.096 0
      vertex -2.61774 -17.1069 1
      vertex -2.61774 -17.1069 0
    endloop
  endfacet
  facet normal -0.96148 0.274874 0
    outer loop
      vertex -2.61774 -17.1069 1
      vertex -2.90051 -18.096 0
      vertex -2.90051 -18.096 1
    endloop
  endfacet
  facet normal -0.975819 0.218578 0
    outer loop
      vertex -3.12045 -19.0779 0
      vertex -2.90051 -18.096 1
      vertex -2.90051 -18.096 0
    endloop
  endfacet
  facet normal -0.975819 0.218578 0
    outer loop
      vertex -2.90051 -18.096 1
      vertex -3.12045 -19.0779 0
      vertex -3.12045 -19.0779 1
    endloop
  endfacet
  facet normal -0.987262 0.159102 0
    outer loop
      vertex -3.27756 -20.0528 0
      vertex -3.12045 -19.0779 1
      vertex -3.12045 -19.0779 0
    endloop
  endfacet
  facet normal -0.987262 0.159102 0
    outer loop
      vertex -3.12045 -19.0779 1
      vertex -3.27756 -20.0528 0
      vertex -3.27756 -20.0528 1
    endloop
  endfacet
  facet normal -0.995291 0.0969273 0
    outer loop
      vertex -3.37181 -21.0206 0
      vertex -3.27756 -20.0528 1
      vertex -3.27756 -20.0528 0
    endloop
  endfacet
  facet normal -0.995291 0.0969273 0
    outer loop
      vertex -3.27756 -20.0528 1
      vertex -3.37181 -21.0206 0
      vertex -3.37181 -21.0206 1
    endloop
  endfacet
  facet normal -0.999465 0.0326912 0
    outer loop
      vertex -3.40323 -21.9812 0
      vertex -3.37181 -21.0206 1
      vertex -3.37181 -21.0206 0
    endloop
  endfacet
  facet normal -0.999465 0.0326912 0
    outer loop
      vertex -3.37181 -21.0206 1
      vertex -3.40323 -21.9812 0
      vertex -3.40323 -21.9812 1
    endloop
  endfacet
  facet normal 0 -1 0
    outer loop
      vertex -3.40323 -21.9812 0
      vertex 0.371872 -21.9812 1
      vertex -3.40323 -21.9812 1
    endloop
  endfacet
  facet normal 0 -1 -0
    outer loop
      vertex 0.371872 -21.9812 1
      vertex -3.40323 -21.9812 0
      vertex 0.371872 -21.9812 0
    endloop
  endfacet
  facet normal 0.99958 -0.0289632 0
    outer loop
      vertex 0.371872 -21.9812 1
      vertex 0.399216 -21.0375 0
      vertex 0.399216 -21.0375 1
    endloop
  endfacet
  facet normal 0.99958 -0.0289632 0
    outer loop
      vertex 0.399216 -21.0375 0
      vertex 0.371872 -21.9812 1
      vertex 0.371872 -21.9812 0
    endloop
  endfacet
endsolid OpenSCAD_Model
