<?xml version="1.0" standalone="no"?>
<!DOCTYPE svg PUBLIC "-//W3C//DTD SVG 1.1//EN" "http://www.w3.org/Graphics/SVG/1.1/DTD/svg11.dtd">
<svg width="43mm" height="70mm" viewBox="-21 3 43 70" xmlns="http://www.w3.org/2000/svg" version="1.1">
<title>OpenSCAD Model</title>
<path d="
M 13.8845,72.2824 L 15.1893,72.2161 L 16.5099,72.1057 L 17.8462,71.9512 L 19.1983,71.7525 L 20.5661,71.5096
 L 21.9497,71.2226 L 21.9497,63.4147 L 21.1143,63.548 L 20.3311,63.6607 L 19.5998,63.7529 L 18.9206,63.8247
 L 18.2935,63.8759 L 17.7184,63.9066 L 17.1953,63.9169 L 16.0689,63.8818 L 15.0087,63.7765 L 14.0147,63.6009
 L 13.087,63.3552 L 12.2256,63.0392 L 11.4303,62.653 L 10.7013,62.1966 L 10.0277,61.6639 L 9.39821,61.0483
 L 8.81294,60.3498 L 8.27185,59.5685 L 7.77493,58.7043 L 7.3222,57.7573 L 6.91365,56.7275 L 8.88689,56.0704
 L 10.7205,55.2257 L 12.4145,54.1931 L 13.9689,52.9728 L 15.3837,51.5648 L 16.6588,49.969 L 17.7944,48.1855
 L 18.784,46.2148 L 19.6214,44.058 L 20.3065,41.7151 L 20.8393,39.186 L 21.22,36.4707 L 21.4483,33.5694
 L 21.5245,30.4818 L 21.414,26.8075 L 21.0827,23.4045 L 20.5305,20.2729 L 19.7574,17.4126 L 18.7634,14.8237
 L 17.5486,12.5062 L 16.1129,10.46 L 14.4706,8.68585 L 12.6359,7.18465 L 10.6086,5.95638 L 8.38889,5.00105
 L 5.97665,4.3187 L 3.37192,3.90927 L 0.574677,3.7728 L -2.22295,3.90927 L -4.8289,4.3187 L -7.24318,5.00105
 L -9.46577,5.95638 L -11.4967,7.18465 L -13.3359,8.68585 L -14.9835,10.46 L -16.4242,12.5062 L -17.6432,14.8237
 L -18.6407,17.4126 L -19.4164,20.2729 L -19.9706,23.4045 L -20.303,26.8075 L -20.4138,30.4818 L -20.331,33.694
 L -20.0826,36.7043 L -19.6684,39.5126 L -19.0887,42.119 L -18.3432,44.5234 L -17.4322,46.7259 L -16.3554,48.7264
 L -15.121,50.5234 L -13.7366,52.1153 L -12.2023,53.5021 L -10.5181,54.6838 L -8.68401,55.6604 L -6.70001,56.4319
 L -4.56613,56.9982 L -3.80499,59.2349 L -2.97916,61.2846 L -2.08862,63.1474 L -1.13339,64.8232 L -0.113449,66.312
 L 0.971176,67.6139 L 2.12051,68.7288 L 3.34717,69.6775 L 4.66374,70.4802 L 6.07024,71.1369 L 7.56665,71.6477
 L 9.15298,72.0126 L 10.8292,72.2315 L 12.5954,72.3045 z
M -0.714767,48.4397 L -1.91037,48.1593 L -3.01208,47.6918 L -4.01993,47.0375 L -4.93388,46.1962 L -5.75398,45.1679
 L -6.48019,43.9527 L -7.11079,42.556 L -7.64439,40.9834 L -8.08096,39.2349 L -8.42052,37.3105 L -8.66306,35.2102
 L -8.80859,32.934 L -8.8571,30.4818 L -8.66461,25.7748 L -8.08716,21.792 L -7.12473,18.5333 L -5.77733,15.9987
 L -4.04495,14.1883 L -1.92761,13.1021 L 0.574677,12.74 L 3.06656,13.1021 L 5.17506,14.1883 L 6.90021,15.9987
 L 8.24199,18.5333 L 9.20041,21.792 L 9.77545,25.7748 L 9.96713,30.4818 L 9.91902,32.934 L 9.77464,35.2102
 L 9.53403,37.3105 L 9.19714,39.2349 L 8.76404,40.9834 L 8.23466,42.556 L 7.60905,43.9527 L 6.88814,45.1679
 L 6.07256,46.1962 L 5.16232,47.0375 L 4.15741,47.6918 L 3.05783,48.1593 L 1.86359,48.4397 L 0.574677,48.5332
 z
" stroke="black" fill="lightgray" stroke-width="0.5"/>
</svg>
