<?xml version="1.0" standalone="no"?>
<!DOCTYPE svg PUBLIC "-//W3C//DTD SVG 1.1//EN" "http://www.w3.org/Graphics/SVG/1.1/DTD/svg11.dtd">
<svg width="14mm" height="19mm" viewBox="-7 4 14 19" xmlns="http://www.w3.org/2000/svg" version="1.1">
<title>OpenSCAD Model</title>
<path d="
M 1.31195,22.4674 L 2.04848,22.3692 L 2.73608,22.2055 L 3.37479,21.9764 L 3.96457,21.6818 L 4.50545,21.3217
 L 4.99742,20.8961 L 5.43153,20.4135 L 5.79886,19.8822 L 6.0994,19.3023 L 6.33316,18.6737 L 6.50012,17.9965
 L 6.6003,17.2706 L 6.6337,16.4961 L 6.60425,15.7887 L 6.5159,15.1241 L 6.36864,14.5023 L 6.16249,13.9235
 L 5.89745,13.3874 L 5.5735,12.8943 L 5.19064,12.444 L 4.75916,12.0457 L 4.28928,11.7087 L 3.78101,11.433
 L 3.23434,11.2185 L 2.64929,11.0654 L 2.02586,10.9734 L 1.36404,10.9428 L 0.997757,10.9533 L 0.642532,10.9849
 L 0.298325,11.0375 L -0.0348053,11.1111 L -0.356918,11.2058 L -0.667984,11.3215 L -0.968002,11.4583 L -1.2533,11.6147
 L -1.52019,11.7896 L -1.76869,11.9828 L -1.99878,12.1945 L -2.21046,12.4245 L -2.40375,12.673 L -2.57863,12.9399
 L -2.5618,12.197 L -2.51132,11.5069 L -2.42717,10.8697 L -2.30937,10.2853 L -2.15791,9.75375 L -1.97281,9.27505
 L -1.75403,8.8492 L -1.50528,8.4783 L -1.23024,8.16446 L -0.928894,7.90768 L -0.601242,7.70796 L -0.247314,7.56531
 L 0.132904,7.47971 L 0.539444,7.45119 L 1.00064,7.48773 L 1.4124,7.59738 L 1.77473,7.78014 L 2.08765,8.03598
 L 2.35112,8.36493 L 2.56516,8.76697 L 2.72977,9.24213 L 6.14406,8.76541 L 5.96986,8.1772 L 5.76382,7.63474
 L 5.52599,7.13803 L 5.25632,6.68707 L 4.95483,6.28188 L 4.62154,5.92244 L 4.25641,5.60875 L 3.85559,5.33871
 L 3.41505,5.11023 L 2.9348,4.92329 L 2.41486,4.77789 L 1.85521,4.67403 L 1.25584,4.61171 L 0.616776,4.59094
 L -0.280273,4.63617 L -1.11606,4.77185 L -1.89058,4.99799 L -2.60384,5.31456 L -3.25584,5.72162 L -3.84657,6.21912
 L -4.37604,6.80708 L -4.83919,7.48808 L -5.23108,8.26479 L -5.55171,9.13724 L -5.8011,10.1054 L -5.97925,11.1693
 L -6.08612,12.3289 L -6.12175,13.5842 L -6.08612,14.7434 L -5.97925,15.8282 L -5.8011,16.8386 L -5.55171,17.7745
 L -5.23108,18.6361 L -4.83919,19.4232 L -4.37604,20.136 L -3.8484,20.7632 L -3.2632,21.2939 L -2.62042,21.7282
 L -1.92004,22.0659 L -1.16211,22.3071 L -0.346573,22.4519 L 0.52652,22.5001 z
M 0.073761,19.6579 L -0.244675,19.5964 L -0.544724,19.4939 L -0.826355,19.3503 L -1.08958,19.1657 L -1.3344,18.9401
 L -1.56081,18.6735 L -1.76248,18.3772 L -1.93314,18.0625 L -2.07277,17.7293 L -2.18137,17.3778 L -2.25893,17.0078
 L -2.30548,16.6194 L -2.32098,16.2126 L -2.30588,15.887 L -2.26051,15.58 L -2.18492,15.2917 L -2.07909,15.0221
 L -1.94302,14.7711 L -1.77672,14.5388 L -1.58018,14.3252 L -1.35992,14.1355 L -1.12259,13.9749 L -0.868164,13.8436
 L -0.596649,13.7414 L -0.30806,13.6684 L -0.00238037,13.6246 L 0.320374,13.61 L 0.66655,13.6262 L 0.990891,13.6747
 L 1.29341,13.7556 L 1.5741,13.8688 L 1.83295,14.0144 L 2.06998,14.1923 L 2.28517,14.4025 L 2.4749,14.6414
 L 2.63545,14.9052 L 2.7668,15.194 L 2.86897,15.5078 L 2.94194,15.8466 L 2.98573,16.2104 L 3.00032,16.5991
 L 2.98613,16.9954 L 2.94353,17.3669 L 2.87253,17.7137 L 2.77313,18.0358 L 2.64534,18.3332 L 2.48914,18.6059
 L 2.30455,18.8538 L 2.0955,19.0726 L 1.86595,19.2577 L 1.61589,19.4092 L 1.34534,19.527 L 1.05426,19.6111
 L 0.742691,19.6616 L 0.410629,19.6784 z
" stroke="black" fill="lightgray" stroke-width="0.5"/>
</svg>
