  0
SECTION
  2
BLOCKS
  0
ENDSEC
  0
SECTION
  2
ENTITIES
  0
LINE
  8
0
 10
1.31195
 20
-22.4674
 11
2.04848
 21
-22.3692
  0
LINE
  8
0
 10
2.04848
 20
-22.3692
 11
2.73608
 21
-22.2055
  0
LINE
  8
0
 10
2.73608
 20
-22.2055
 11
3.37479
 21
-21.9764
  0
LINE
  8
0
 10
3.37479
 20
-21.9764
 11
3.96457
 21
-21.6818
  0
LINE
  8
0
 10
3.96457
 20
-21.6818
 11
4.50545
 21
-21.3217
  0
LINE
  8
0
 10
4.50545
 20
-21.3217
 11
4.99742
 21
-20.8961
  0
LINE
  8
0
 10
4.99742
 20
-20.8961
 11
5.43153
 21
-20.4135
  0
LINE
  8
0
 10
5.43153
 20
-20.4135
 11
5.79886
 21
-19.8822
  0
LINE
  8
0
 10
5.79886
 20
-19.8822
 11
6.0994
 21
-19.3023
  0
LINE
  8
0
 10
6.0994
 20
-19.3023
 11
6.33316
 21
-18.6737
  0
LINE
  8
0
 10
6.33316
 20
-18.6737
 11
6.50012
 21
-17.9965
  0
LINE
  8
0
 10
6.50012
 20
-17.9965
 11
6.6003
 21
-17.2706
  0
LINE
  8
0
 10
6.6003
 20
-17.2706
 11
6.6337
 21
-16.4961
  0
LINE
  8
0
 10
6.6337
 20
-16.4961
 11
6.60425
 21
-15.7887
  0
LINE
  8
0
 10
6.60425
 20
-15.7887
 11
6.5159
 21
-15.1241
  0
LINE
  8
0
 10
6.5159
 20
-15.1241
 11
6.36864
 21
-14.5023
  0
LINE
  8
0
 10
6.36864
 20
-14.5023
 11
6.16249
 21
-13.9235
  0
LINE
  8
0
 10
6.16249
 20
-13.9235
 11
5.89745
 21
-13.3874
  0
LINE
  8
0
 10
5.89745
 20
-13.3874
 11
5.5735
 21
-12.8943
  0
LINE
  8
0
 10
5.5735
 20
-12.8943
 11
5.19064
 21
-12.444
  0
LINE
  8
0
 10
5.19064
 20
-12.444
 11
4.75916
 21
-12.0457
  0
LINE
  8
0
 10
4.75916
 20
-12.0457
 11
4.28928
 21
-11.7087
  0
LINE
  8
0
 10
4.28928
 20
-11.7087
 11
3.78101
 21
-11.433
  0
LINE
  8
0
 10
3.78101
 20
-11.433
 11
3.23434
 21
-11.2185
  0
LINE
  8
0
 10
3.23434
 20
-11.2185
 11
2.64929
 21
-11.0654
  0
LINE
  8
0
 10
2.64929
 20
-11.0654
 11
2.02586
 21
-10.9734
  0
LINE
  8
0
 10
2.02586
 20
-10.9734
 11
1.36404
 21
-10.9428
  0
LINE
  8
0
 10
1.36404
 20
-10.9428
 11
0.997757
 21
-10.9533
  0
LINE
  8
0
 10
0.997757
 20
-10.9533
 11
0.642532
 21
-10.9849
  0
LINE
  8
0
 10
0.642532
 20
-10.9849
 11
0.298325
 21
-11.0375
  0
LINE
  8
0
 10
0.298325
 20
-11.0375
 11
-0.0348053
 21
-11.1111
  0
LINE
  8
0
 10
-0.0348053
 20
-11.1111
 11
-0.356918
 21
-11.2058
  0
LINE
  8
0
 10
-0.356918
 20
-11.2058
 11
-0.667984
 21
-11.3215
  0
LINE
  8
0
 10
-0.667984
 20
-11.3215
 11
-0.968002
 21
-11.4583
  0
LINE
  8
0
 10
-0.968002
 20
-11.4583
 11
-1.2533
 21
-11.6147
  0
LINE
  8
0
 10
-1.2533
 20
-11.6147
 11
-1.52019
 21
-11.7896
  0
LINE
  8
0
 10
-1.52019
 20
-11.7896
 11
-1.76869
 21
-11.9828
  0
LINE
  8
0
 10
-1.76869
 20
-11.9828
 11
-1.99878
 21
-12.1945
  0
LINE
  8
0
 10
-1.99878
 20
-12.1945
 11
-2.21046
 21
-12.4245
  0
LINE
  8
0
 10
-2.21046
 20
-12.4245
 11
-2.40375
 21
-12.673
  0
LINE
  8
0
 10
-2.40375
 20
-12.673
 11
-2.57863
 21
-12.9399
  0
LINE
  8
0
 10
-2.57863
 20
-12.9399
 11
-2.5618
 21
-12.197
  0
LINE
  8
0
 10
-2.5618
 20
-12.197
 11
-2.51132
 21
-11.5069
  0
LINE
  8
0
 10
-2.51132
 20
-11.5069
 11
-2.42717
 21
-10.8697
  0
LINE
  8
0
 10
-2.42717
 20
-10.8697
 11
-2.30937
 21
-10.2853
  0
LINE
  8
0
 10
-2.30937
 20
-10.2853
 11
-2.15791
 21
-9.75375
  0
LINE
  8
0
 10
-2.15791
 20
-9.75375
 11
-1.97281
 21
-9.27505
  0
LINE
  8
0
 10
-1.97281
 20
-9.27505
 11
-1.75403
 21
-8.8492
  0
LINE
  8
0
 10
-1.75403
 20
-8.8492
 11
-1.50528
 21
-8.4783
  0
LINE
  8
0
 10
-1.50528
 20
-8.4783
 11
-1.23024
 21
-8.16446
  0
LINE
  8
0
 10
-1.23024
 20
-8.16446
 11
-0.928894
 21
-7.90768
  0
LINE
  8
0
 10
-0.928894
 20
-7.90768
 11
-0.601242
 21
-7.70796
  0
LINE
  8
0
 10
-0.601242
 20
-7.70796
 11
-0.247314
 21
-7.56531
  0
LINE
  8
0
 10
-0.247314
 20
-7.56531
 11
0.132904
 21
-7.47971
  0
LINE
  8
0
 10
0.132904
 20
-7.47971
 11
0.539444
 21
-7.45119
  0
LINE
  8
0
 10
0.539444
 20
-7.45119
 11
1.00064
 21
-7.48773
  0
LINE
  8
0
 10
1.00064
 20
-7.48773
 11
1.4124
 21
-7.59738
  0
LINE
  8
0
 10
1.4124
 20
-7.59738
 11
1.77473
 21
-7.78014
  0
LINE
  8
0
 10
1.77473
 20
-7.78014
 11
2.08765
 21
-8.03598
  0
LINE
  8
0
 10
2.08765
 20
-8.03598
 11
2.35112
 21
-8.36493
  0
LINE
  8
0
 10
2.35112
 20
-8.36493
 11
2.56516
 21
-8.76697
  0
LINE
  8
0
 10
2.56516
 20
-8.76697
 11
2.72977
 21
-9.24213
  0
LINE
  8
0
 10
2.72977
 20
-9.24213
 11
6.14406
 21
-8.76541
  0
LINE
  8
0
 10
6.14406
 20
-8.76541
 11
5.96986
 21
-8.1772
  0
LINE
  8
0
 10
5.96986
 20
-8.1772
 11
5.76382
 21
-7.63474
  0
LINE
  8
0
 10
5.76382
 20
-7.63474
 11
5.52599
 21
-7.13803
  0
LINE
  8
0
 10
5.52599
 20
-7.13803
 11
5.25632
 21
-6.68707
  0
LINE
  8
0
 10
5.25632
 20
-6.68707
 11
4.95483
 21
-6.28188
  0
LINE
  8
0
 10
4.95483
 20
-6.28188
 11
4.62154
 21
-5.92244
  0
LINE
  8
0
 10
4.62154
 20
-5.92244
 11
4.25641
 21
-5.60875
  0
LINE
  8
0
 10
4.25641
 20
-5.60875
 11
3.85559
 21
-5.33871
  0
LINE
  8
0
 10
3.85559
 20
-5.33871
 11
3.41505
 21
-5.11023
  0
LINE
  8
0
 10
3.41505
 20
-5.11023
 11
2.9348
 21
-4.92329
  0
LINE
  8
0
 10
2.9348
 20
-4.92329
 11
2.41486
 21
-4.77789
  0
LINE
  8
0
 10
2.41486
 20
-4.77789
 11
1.85521
 21
-4.67403
  0
LINE
  8
0
 10
1.85521
 20
-4.67403
 11
1.25584
 21
-4.61171
  0
LINE
  8
0
 10
1.25584
 20
-4.61171
 11
0.616776
 21
-4.59094
  0
LINE
  8
0
 10
0.616776
 20
-4.59094
 11
-0.280273
 21
-4.63617
  0
LINE
  8
0
 10
-0.280273
 20
-4.63617
 11
-1.11606
 21
-4.77185
  0
LINE
  8
0
 10
-1.11606
 20
-4.77185
 11
-1.89058
 21
-4.99799
  0
LINE
  8
0
 10
-1.89058
 20
-4.99799
 11
-2.60384
 21
-5.31456
  0
LINE
  8
0
 10
-2.60384
 20
-5.31456
 11
-3.25584
 21
-5.72162
  0
LINE
  8
0
 10
-3.25584
 20
-5.72162
 11
-3.84657
 21
-6.21912
  0
LINE
  8
0
 10
-3.84657
 20
-6.21912
 11
-4.37604
 21
-6.80708
  0
LINE
  8
0
 10
-4.37604
 20
-6.80708
 11
-4.83919
 21
-7.48808
  0
LINE
  8
0
 10
-4.83919
 20
-7.48808
 11
-5.23108
 21
-8.26479
  0
LINE
  8
0
 10
-5.23108
 20
-8.26479
 11
-5.55171
 21
-9.13724
  0
LINE
  8
0
 10
-5.55171
 20
-9.13724
 11
-5.8011
 21
-10.1054
  0
LINE
  8
0
 10
-5.8011
 20
-10.1054
 11
-5.97925
 21
-11.1693
  0
LINE
  8
0
 10
-5.97925
 20
-11.1693
 11
-6.08612
 21
-12.3289
  0
LINE
  8
0
 10
-6.08612
 20
-12.3289
 11
-6.12175
 21
-13.5842
  0
LINE
  8
0
 10
-6.12175
 20
-13.5842
 11
-6.08612
 21
-14.7434
  0
LINE
  8
0
 10
-6.08612
 20
-14.7434
 11
-5.97925
 21
-15.8282
  0
LINE
  8
0
 10
-5.97925
 20
-15.8282
 11
-5.8011
 21
-16.8386
  0
LINE
  8
0
 10
-5.8011
 20
-16.8386
 11
-5.55171
 21
-17.7745
  0
LINE
  8
0
 10
-5.55171
 20
-17.7745
 11
-5.23108
 21
-18.6361
  0
LINE
  8
0
 10
-5.23108
 20
-18.6361
 11
-4.83919
 21
-19.4232
  0
LINE
  8
0
 10
-4.83919
 20
-19.4232
 11
-4.37604
 21
-20.136
  0
LINE
  8
0
 10
-4.37604
 20
-20.136
 11
-3.8484
 21
-20.7632
  0
LINE
  8
0
 10
-3.8484
 20
-20.7632
 11
-3.2632
 21
-21.2939
  0
LINE
  8
0
 10
-3.2632
 20
-21.2939
 11
-2.62042
 21
-21.7282
  0
LINE
  8
0
 10
-2.62042
 20
-21.7282
 11
-1.92004
 21
-22.0659
  0
LINE
  8
0
 10
-1.92004
 20
-22.0659
 11
-1.16211
 21
-22.3071
  0
LINE
  8
0
 10
-1.16211
 20
-22.3071
 11
-0.346573
 21
-22.4519
  0
LINE
  8
0
 10
-0.346573
 20
-22.4519
 11
0.52652
 21
-22.5001
  0
LINE
  8
0
 10
0.52652
 20
-22.5001
 11
1.31195
 21
-22.4674
  0
LINE
  8
0
 10
0.073761
 20
-19.6579
 11
-0.244675
 21
-19.5964
  0
LINE
  8
0
 10
-0.244675
 20
-19.5964
 11
-0.544724
 21
-19.4939
  0
LINE
  8
0
 10
-0.544724
 20
-19.4939
 11
-0.826355
 21
-19.3503
  0
LINE
  8
0
 10
-0.826355
 20
-19.3503
 11
-1.08958
 21
-19.1657
  0
LINE
  8
0
 10
-1.08958
 20
-19.1657
 11
-1.3344
 21
-18.9401
  0
LINE
  8
0
 10
-1.3344
 20
-18.9401
 11
-1.56081
 21
-18.6735
  0
LINE
  8
0
 10
-1.56081
 20
-18.6735
 11
-1.76248
 21
-18.3772
  0
LINE
  8
0
 10
-1.76248
 20
-18.3772
 11
-1.93314
 21
-18.0625
  0
LINE
  8
0
 10
-1.93314
 20
-18.0625
 11
-2.07277
 21
-17.7293
  0
LINE
  8
0
 10
-2.07277
 20
-17.7293
 11
-2.18137
 21
-17.3778
  0
LINE
  8
0
 10
-2.18137
 20
-17.3778
 11
-2.25893
 21
-17.0078
  0
LINE
  8
0
 10
-2.25893
 20
-17.0078
 11
-2.30548
 21
-16.6194
  0
LINE
  8
0
 10
-2.30548
 20
-16.6194
 11
-2.32098
 21
-16.2126
  0
LINE
  8
0
 10
-2.32098
 20
-16.2126
 11
-2.30588
 21
-15.887
  0
LINE
  8
0
 10
-2.30588
 20
-15.887
 11
-2.26051
 21
-15.58
  0
LINE
  8
0
 10
-2.26051
 20
-15.58
 11
-2.18492
 21
-15.2917
  0
LINE
  8
0
 10
-2.18492
 20
-15.2917
 11
-2.07909
 21
-15.0221
  0
LINE
  8
0
 10
-2.07909
 20
-15.0221
 11
-1.94302
 21
-14.7711
  0
LINE
  8
0
 10
-1.94302
 20
-14.7711
 11
-1.77672
 21
-14.5388
  0
LINE
  8
0
 10
-1.77672
 20
-14.5388
 11
-1.58018
 21
-14.3252
  0
LINE
  8
0
 10
-1.58018
 20
-14.3252
 11
-1.35992
 21
-14.1355
  0
LINE
  8
0
 10
-1.35992
 20
-14.1355
 11
-1.12259
 21
-13.9749
  0
LINE
  8
0
 10
-1.12259
 20
-13.9749
 11
-0.868164
 21
-13.8436
  0
LINE
  8
0
 10
-0.868164
 20
-13.8436
 11
-0.596649
 21
-13.7414
  0
LINE
  8
0
 10
-0.596649
 20
-13.7414
 11
-0.30806
 21
-13.6684
  0
LINE
  8
0
 10
-0.30806
 20
-13.6684
 11
-0.00238037
 21
-13.6246
  0
LINE
  8
0
 10
-0.00238037
 20
-13.6246
 11
0.320374
 21
-13.61
  0
LINE
  8
0
 10
0.320374
 20
-13.61
 11
0.66655
 21
-13.6262
  0
LINE
  8
0
 10
0.66655
 20
-13.6262
 11
0.990891
 21
-13.6747
  0
LINE
  8
0
 10
0.990891
 20
-13.6747
 11
1.29341
 21
-13.7556
  0
LINE
  8
0
 10
1.29341
 20
-13.7556
 11
1.5741
 21
-13.8688
  0
LINE
  8
0
 10
1.5741
 20
-13.8688
 11
1.83295
 21
-14.0144
  0
LINE
  8
0
 10
1.83295
 20
-14.0144
 11
2.06998
 21
-14.1923
  0
LINE
  8
0
 10
2.06998
 20
-14.1923
 11
2.28517
 21
-14.4025
  0
LINE
  8
0
 10
2.28517
 20
-14.4025
 11
2.4749
 21
-14.6414
  0
LINE
  8
0
 10
2.4749
 20
-14.6414
 11
2.63545
 21
-14.9052
  0
LINE
  8
0
 10
2.63545
 20
-14.9052
 11
2.7668
 21
-15.194
  0
LINE
  8
0
 10
2.7668
 20
-15.194
 11
2.86897
 21
-15.5078
  0
LINE
  8
0
 10
2.86897
 20
-15.5078
 11
2.94194
 21
-15.8466
  0
LINE
  8
0
 10
2.94194
 20
-15.8466
 11
2.98573
 21
-16.2104
  0
LINE
  8
0
 10
2.98573
 20
-16.2104
 11
3.00032
 21
-16.5991
  0
LINE
  8
0
 10
3.00032
 20
-16.5991
 11
2.98613
 21
-16.9954
  0
LINE
  8
0
 10
2.98613
 20
-16.9954
 11
2.94353
 21
-17.3669
  0
LINE
  8
0
 10
2.94353
 20
-17.3669
 11
2.87253
 21
-17.7137
  0
LINE
  8
0
 10
2.87253
 20
-17.7137
 11
2.77313
 21
-18.0358
  0
LINE
  8
0
 10
2.77313
 20
-18.0358
 11
2.64534
 21
-18.3332
  0
LINE
  8
0
 10
2.64534
 20
-18.3332
 11
2.48914
 21
-18.6059
  0
LINE
  8
0
 10
2.48914
 20
-18.6059
 11
2.30455
 21
-18.8538
  0
LINE
  8
0
 10
2.30455
 20
-18.8538
 11
2.0955
 21
-19.0726
  0
LINE
  8
0
 10
2.0955
 20
-19.0726
 11
1.86595
 21
-19.2577
  0
LINE
  8
0
 10
1.86595
 20
-19.2577
 11
1.61589
 21
-19.4092
  0
LINE
  8
0
 10
1.61589
 20
-19.4092
 11
1.34534
 21
-19.527
  0
LINE
  8
0
 10
1.34534
 20
-19.527
 11
1.05426
 21
-19.6111
  0
LINE
  8
0
 10
1.05426
 20
-19.6111
 11
0.742691
 21
-19.6616
  0
LINE
  8
0
 10
0.742691
 20
-19.6616
 11
0.410629
 21
-19.6784
  0
LINE
  8
0
 10
0.410629
 20
-19.6784
 11
0.073761
 21
-19.6579
  0
ENDSEC
  0
SECTION
  2
OBJECTS
  0
DICTIONARY
  0
ENDSEC
  0
EOF
