  0
SECTION
  2
BLOCKS
  0
ENDSEC
  0
SECTION
  2
ENTITIES
  0
LINE
  8
0
 10
3.93588
 20
-57.4022
 11
6.14545
 21
-57.1076
  0
LINE
  8
0
 10
6.14545
 20
-57.1076
 11
8.20828
 21
-56.6166
  0
LINE
  8
0
 10
8.20828
 20
-56.6166
 11
10.1244
 21
-55.9292
  0
LINE
  8
0
 10
10.1244
 20
-55.9292
 11
11.8937
 21
-55.0453
  0
LINE
  8
0
 10
11.8937
 20
-55.0453
 11
13.5164
 21
-53.9651
  0
LINE
  8
0
 10
13.5164
 20
-53.9651
 11
14.9923
 21
-52.6885
  0
LINE
  8
0
 10
14.9923
 20
-52.6885
 11
16.2946
 21
-51.2405
  0
LINE
  8
0
 10
16.2946
 20
-51.2405
 11
17.3966
 21
-49.6466
  0
LINE
  8
0
 10
17.3966
 20
-49.6466
 11
18.2982
 21
-47.9068
  0
LINE
  8
0
 10
18.2982
 20
-47.9068
 11
18.9995
 21
-46.0211
  0
LINE
  8
0
 10
18.9995
 20
-46.0211
 11
19.5004
 21
-43.9895
  0
LINE
  8
0
 10
19.5004
 20
-43.9895
 11
19.8009
 21
-41.8119
  0
LINE
  8
0
 10
19.8009
 20
-41.8119
 11
19.9011
 21
-39.4884
  0
LINE
  8
0
 10
19.9011
 20
-39.4884
 11
19.8127
 21
-37.366
  0
LINE
  8
0
 10
19.8127
 20
-37.366
 11
19.5477
 21
-35.3722
  0
LINE
  8
0
 10
19.5477
 20
-35.3722
 11
19.1059
 21
-33.507
  0
LINE
  8
0
 10
19.1059
 20
-33.507
 11
18.4875
 21
-31.7704
  0
LINE
  8
0
 10
18.4875
 20
-31.7704
 11
17.6924
 21
-30.1623
  0
LINE
  8
0
 10
17.6924
 20
-30.1623
 11
16.7205
 21
-28.6829
  0
LINE
  8
0
 10
16.7205
 20
-28.6829
 11
15.5719
 21
-27.332
  0
LINE
  8
0
 10
15.5719
 20
-27.332
 11
14.2775
 21
-26.1372
  0
LINE
  8
0
 10
14.2775
 20
-26.1372
 11
12.8678
 21
-25.1262
  0
LINE
  8
0
 10
12.8678
 20
-25.1262
 11
11.343
 21
-24.299
  0
LINE
  8
0
 10
11.343
 20
-24.299
 11
9.70305
 21
-23.6556
  0
LINE
  8
0
 10
9.70305
 20
-23.6556
 11
7.94791
 21
-23.1961
  0
LINE
  8
0
 10
7.94791
 20
-23.1961
 11
6.07761
 21
-22.9204
  0
LINE
  8
0
 10
6.07761
 20
-22.9204
 11
4.09215
 21
-22.8284
  0
LINE
  8
0
 10
4.09215
 20
-22.8284
 11
2.9933
 21
-22.86
  0
LINE
  8
0
 10
2.9933
 20
-22.86
 11
1.9276
 21
-22.9547
  0
LINE
  8
0
 10
1.9276
 20
-22.9547
 11
0.895004
 21
-23.1125
  0
LINE
  8
0
 10
0.895004
 20
-23.1125
 11
-0.104431
 21
-23.3334
  0
LINE
  8
0
 10
-0.104431
 20
-23.3334
 11
-1.07076
 21
-23.6174
  0
LINE
  8
0
 10
-1.07076
 20
-23.6174
 11
-2.00395
 21
-23.9646
  0
LINE
  8
0
 10
-2.00395
 20
-23.9646
 11
-2.90402
 21
-24.3749
  0
LINE
  8
0
 10
-2.90402
 20
-24.3749
 11
-3.75992
 21
-24.8441
  0
LINE
  8
0
 10
-3.75992
 20
-24.8441
 11
-4.56059
 21
-25.3687
  0
LINE
  8
0
 10
-4.56059
 20
-25.3687
 11
-5.30608
 21
-25.9484
  0
LINE
  8
0
 10
-5.30608
 20
-25.9484
 11
-5.99635
 21
-26.5834
  0
LINE
  8
0
 10
-5.99635
 20
-26.5834
 11
-6.63141
 21
-27.2736
  0
LINE
  8
0
 10
-6.63141
 20
-27.2736
 11
-7.21126
 21
-28.019
  0
LINE
  8
0
 10
-7.21126
 20
-28.019
 11
-7.7359
 21
-28.8197
  0
LINE
  8
0
 10
-7.7359
 20
-28.8197
 11
-7.68542
 21
-26.591
  0
LINE
  8
0
 10
-7.68542
 20
-26.591
 11
-7.53397
 21
-24.5208
  0
LINE
  8
0
 10
-7.53397
 20
-24.5208
 11
-7.28154
 21
-22.6091
  0
LINE
  8
0
 10
-7.28154
 20
-22.6091
 11
-6.92813
 21
-20.8559
  0
LINE
  8
0
 10
-6.92813
 20
-20.8559
 11
-6.47377
 21
-19.2613
  0
LINE
  8
0
 10
-6.47377
 20
-19.2613
 11
-5.91843
 21
-17.8252
  0
LINE
  8
0
 10
-5.91843
 20
-17.8252
 11
-5.2621
 21
-16.5476
  0
LINE
  8
0
 10
-5.2621
 20
-16.5476
 11
-4.51585
 21
-15.4349
  0
LINE
  8
0
 10
-4.51585
 20
-15.4349
 11
-3.69072
 21
-14.4934
  0
LINE
  8
0
 10
-3.69072
 20
-14.4934
 11
-2.78668
 21
-13.7231
  0
LINE
  8
0
 10
-2.78668
 20
-13.7231
 11
-1.80376
 21
-13.1239
  0
LINE
  8
0
 10
-1.80376
 20
-13.1239
 11
-0.741943
 21
-12.6959
  0
LINE
  8
0
 10
-0.741943
 20
-12.6959
 11
0.398743
 21
-12.4391
  0
LINE
  8
0
 10
0.398743
 20
-12.4391
 11
1.61835
 21
-12.3536
  0
LINE
  8
0
 10
1.61835
 20
-12.3536
 11
3.00194
 21
-12.4632
  0
LINE
  8
0
 10
3.00194
 20
-12.4632
 11
4.23723
 21
-12.7922
  0
LINE
  8
0
 10
4.23723
 20
-12.7922
 11
5.32423
 21
-13.3404
  0
LINE
  8
0
 10
5.32423
 20
-13.3404
 11
6.26294
 21
-14.108
  0
LINE
  8
0
 10
6.26294
 20
-14.108
 11
7.05336
 21
-15.0948
  0
LINE
  8
0
 10
7.05336
 20
-15.0948
 11
7.69548
 21
-16.3009
  0
LINE
  8
0
 10
7.69548
 20
-16.3009
 11
8.18932
 21
-17.7264
  0
LINE
  8
0
 10
8.18932
 20
-17.7264
 11
18.4322
 21
-16.2962
  0
LINE
  8
0
 10
18.4322
 20
-16.2962
 11
17.9096
 21
-14.5316
  0
LINE
  8
0
 10
17.9096
 20
-14.5316
 11
17.2915
 21
-12.9042
  0
LINE
  8
0
 10
17.2915
 20
-12.9042
 11
16.578
 21
-11.4141
  0
LINE
  8
0
 10
16.578
 20
-11.4141
 11
15.769
 21
-10.0612
  0
LINE
  8
0
 10
15.769
 20
-10.0612
 11
14.8645
 21
-8.84566
  0
LINE
  8
0
 10
14.8645
 20
-8.84566
 11
13.8646
 21
-7.76733
  0
LINE
  8
0
 10
13.8646
 20
-7.76733
 11
12.7693
 21
-6.82628
  0
LINE
  8
0
 10
12.7693
 20
-6.82628
 11
11.5668
 21
-6.01616
  0
LINE
  8
0
 10
11.5668
 20
-6.01616
 11
10.2452
 21
-5.33069
  0
LINE
  8
0
 10
10.2452
 20
-5.33069
 11
8.80443
 21
-4.76985
  0
LINE
  8
0
 10
8.80443
 20
-4.76985
 11
7.24458
 21
-4.33365
  0
LINE
  8
0
 10
7.24458
 20
-4.33365
 11
5.56563
 21
-4.02206
  0
LINE
  8
0
 10
5.56563
 20
-4.02206
 11
3.76755
 21
-3.83511
  0
LINE
  8
0
 10
3.76755
 20
-3.83511
 11
1.85034
 21
-3.7728
  0
LINE
  8
0
 10
1.85034
 20
-3.7728
 11
-0.84082
 21
-3.90848
  0
LINE
  8
0
 10
-0.84082
 20
-3.90848
 11
-3.34819
 21
-4.31554
  0
LINE
  8
0
 10
-3.34819
 20
-4.31554
 11
-5.67177
 21
-4.99394
  0
LINE
  8
0
 10
-5.67177
 20
-4.99394
 11
-7.81154
 21
-5.94371
  0
LINE
  8
0
 10
-7.81154
 20
-5.94371
 11
-9.76753
 21
-7.16487
  0
LINE
  8
0
 10
-9.76753
 20
-7.16487
 11
-11.5397
 21
-8.65738
  0
LINE
  8
0
 10
-11.5397
 20
-8.65738
 11
-13.1281
 21
-10.4213
  0
LINE
  8
0
 10
-13.1281
 20
-10.4213
 11
-14.5176
 21
-12.4642
  0
LINE
  8
0
 10
-14.5176
 20
-12.4642
 11
-15.6933
 21
-14.7944
  0
LINE
  8
0
 10
-15.6933
 20
-14.7944
 11
-16.6552
 21
-17.4117
  0
LINE
  8
0
 10
-16.6552
 20
-17.4117
 11
-17.4033
 21
-20.3162
  0
LINE
  8
0
 10
-17.4033
 20
-20.3162
 11
-17.9377
 21
-23.5078
  0
LINE
  8
0
 10
-17.9377
 20
-23.5078
 11
-18.2584
 21
-26.9866
  0
LINE
  8
0
 10
-18.2584
 20
-26.9866
 11
-18.3653
 21
-30.7526
  0
LINE
  8
0
 10
-18.3653
 20
-30.7526
 11
-18.2584
 21
-34.2302
  0
LINE
  8
0
 10
-18.2584
 20
-34.2302
 11
-17.9377
 21
-37.4845
  0
LINE
  8
0
 10
-17.9377
 20
-37.4845
 11
-17.4033
 21
-40.5157
  0
LINE
  8
0
 10
-17.4033
 20
-40.5157
 11
-16.6552
 21
-43.3236
  0
LINE
  8
0
 10
-16.6552
 20
-43.3236
 11
-15.6933
 21
-45.9082
  0
LINE
  8
0
 10
-15.6933
 20
-45.9082
 11
-14.5176
 21
-48.2697
  0
LINE
  8
0
 10
-14.5176
 20
-48.2697
 11
-13.1281
 21
-50.4079
  0
LINE
  8
0
 10
-13.1281
 20
-50.4079
 11
-11.5452
 21
-52.2896
  0
LINE
  8
0
 10
-11.5452
 20
-52.2896
 11
-9.78963
 21
-53.8818
  0
LINE
  8
0
 10
-9.78963
 20
-53.8818
 11
-7.86127
 21
-55.1845
  0
LINE
  8
0
 10
-7.86127
 20
-55.1845
 11
-5.76016
 21
-56.1977
  0
LINE
  8
0
 10
-5.76016
 20
-56.1977
 11
-3.48633
 21
-56.9214
  0
LINE
  8
0
 10
-3.48633
 20
-56.9214
 11
-1.03973
 21
-57.3557
  0
LINE
  8
0
 10
-1.03973
 20
-57.3557
 11
1.57959
 21
-57.5004
  0
LINE
  8
0
 10
1.57959
 20
-57.5004
 11
3.93588
 21
-57.4022
  0
LINE
  8
0
 10
0.221298
 20
-48.9738
 11
-0.734055
 21
-48.7892
  0
LINE
  8
0
 10
-0.734055
 20
-48.7892
 11
-1.6342
 21
-48.4816
  0
LINE
  8
0
 10
-1.6342
 20
-48.4816
 11
-2.4791
 21
-48.0509
  0
LINE
  8
0
 10
-2.4791
 20
-48.0509
 11
-3.26877
 21
-47.4972
  0
LINE
  8
0
 10
-3.26877
 20
-47.4972
 11
-4.0032
 21
-46.8204
  0
LINE
  8
0
 10
-4.0032
 20
-46.8204
 11
-4.68242
 21
-46.0206
  0
LINE
  8
0
 10
-4.68242
 20
-46.0206
 11
-5.28746
 21
-45.1316
  0
LINE
  8
0
 10
-5.28746
 20
-45.1316
 11
-5.79942
 21
-44.1874
  0
LINE
  8
0
 10
-5.79942
 20
-44.1874
 11
-6.21831
 21
-43.188
  0
LINE
  8
0
 10
-6.21831
 20
-43.188
 11
-6.5441
 21
-42.1333
  0
LINE
  8
0
 10
-6.5441
 20
-42.1333
 11
-6.77681
 21
-41.0235
  0
LINE
  8
0
 10
-6.77681
 20
-41.0235
 11
-6.91644
 21
-39.8583
  0
LINE
  8
0
 10
-6.91644
 20
-39.8583
 11
-6.96298
 21
-38.638
  0
LINE
  8
0
 10
-6.96298
 20
-38.638
 11
-6.91763
 21
-37.661
  0
LINE
  8
0
 10
-6.91763
 20
-37.661
 11
-6.78156
 21
-36.74
  0
LINE
  8
0
 10
-6.78156
 20
-36.74
 11
-6.55478
 21
-35.8751
  0
LINE
  8
0
 10
-6.55478
 20
-35.8751
 11
-6.23729
 21
-35.0662
  0
LINE
  8
0
 10
-6.23729
 20
-35.0662
 11
-5.82909
 21
-34.3133
  0
LINE
  8
0
 10
-5.82909
 20
-34.3133
 11
-5.33018
 21
-33.6164
  0
LINE
  8
0
 10
-5.33018
 20
-33.6164
 11
-4.74055
 21
-32.9756
  0
LINE
  8
0
 10
-4.74055
 20
-32.9756
 11
-4.07979
 21
-32.4064
  0
LINE
  8
0
 10
-4.07979
 20
-32.4064
 11
-3.36777
 21
-31.9247
  0
LINE
  8
0
 10
-3.36777
 20
-31.9247
 11
-2.60449
 21
-31.5307
  0
LINE
  8
0
 10
-2.60449
 20
-31.5307
 11
-1.78996
 21
-31.2242
  0
LINE
  8
0
 10
-1.78996
 20
-31.2242
 11
-0.924179
 21
-31.0052
  0
LINE
  8
0
 10
-0.924179
 20
-31.0052
 11
-0.00714111
 21
-30.8739
  0
LINE
  8
0
 10
-0.00714111
 20
-30.8739
 11
0.961136
 21
-30.8301
  0
LINE
  8
0
 10
0.961136
 20
-30.8301
 11
1.99966
 21
-30.8786
  0
LINE
  8
0
 10
1.99966
 20
-30.8786
 11
2.9727
 21
-31.0242
  0
LINE
  8
0
 10
2.9727
 20
-31.0242
 11
3.88025
 21
-31.2668
  0
LINE
  8
0
 10
3.88025
 20
-31.2668
 11
4.72231
 21
-31.6064
  0
LINE
  8
0
 10
4.72231
 20
-31.6064
 11
5.49886
 21
-32.0431
  0
LINE
  8
0
 10
5.49886
 20
-32.0431
 11
6.20993
 21
-32.5768
  0
LINE
  8
0
 10
6.20993
 20
-32.5768
 11
6.85551
 21
-33.2076
  0
LINE
  8
0
 10
6.85551
 20
-33.2076
 11
7.42471
 21
-33.9242
  0
LINE
  8
0
 10
7.42471
 20
-33.9242
 11
7.90636
 21
-34.7157
  0
LINE
  8
0
 10
7.90636
 20
-34.7157
 11
8.30043
 21
-35.5821
  0
LINE
  8
0
 10
8.30043
 20
-35.5821
 11
8.60692
 21
-36.5235
  0
LINE
  8
0
 10
8.60692
 20
-36.5235
 11
8.82585
 21
-37.5399
  0
LINE
  8
0
 10
8.82585
 20
-37.5399
 11
8.9572
 21
-38.6311
  0
LINE
  8
0
 10
8.9572
 20
-38.6311
 11
9.00099
 21
-39.7973
  0
LINE
  8
0
 10
9.00099
 20
-39.7973
 11
8.95839
 21
-40.9861
  0
LINE
  8
0
 10
8.95839
 20
-40.9861
 11
8.8306
 21
-42.1007
  0
LINE
  8
0
 10
8.8306
 20
-42.1007
 11
8.6176
 21
-43.1412
  0
LINE
  8
0
 10
8.6176
 20
-43.1412
 11
8.31941
 21
-44.1075
  0
LINE
  8
0
 10
8.31941
 20
-44.1075
 11
7.93602
 21
-44.9996
  0
LINE
  8
0
 10
7.93602
 20
-44.9996
 11
7.46744
 21
-45.8177
  0
LINE
  8
0
 10
7.46744
 20
-45.8177
 11
6.91365
 21
-46.5615
  0
LINE
  8
0
 10
6.91365
 20
-46.5615
 11
6.28651
 21
-47.2178
  0
LINE
  8
0
 10
6.28651
 20
-47.2178
 11
5.59785
 21
-47.7732
  0
LINE
  8
0
 10
5.59785
 20
-47.7732
 11
4.84769
 21
-48.2276
  0
LINE
  8
0
 10
4.84769
 20
-48.2276
 11
4.03601
 21
-48.581
  0
LINE
  8
0
 10
4.03601
 20
-48.581
 11
3.16281
 21
-48.8334
  0
LINE
  8
0
 10
3.16281
 20
-48.8334
 11
2.2281
 21
-48.9849
  0
LINE
  8
0
 10
2.2281
 20
-48.9849
 11
1.23189
 21
-49.0353
  0
LINE
  8
0
 10
1.23189
 20
-49.0353
 11
0.221298
 21
-48.9738
  0
ENDSEC
  0
SECTION
  2
OBJECTS
  0
DICTIONARY
  0
ENDSEC
  0
EOF
