  0
SECTION
  2
BLOCKS
  0
ENDSEC
  0
SECTION
  2
ENTITIES
  0
LINE
  8
0
 10
3.21187
 20
-57.414
 11
5.82343
 21
-57.1549
  0
LINE
  8
0
 10
5.82343
 20
-57.1549
 11
8.2543
 21
-56.7231
  0
LINE
  8
0
 10
8.2543
 20
-56.7231
 11
10.5045
 21
-56.1185
  0
LINE
  8
0
 10
10.5045
 20
-56.1185
 11
12.574
 21
-55.3411
  0
LINE
  8
0
 10
12.574
 20
-55.3411
 11
14.4629
 21
-54.391
  0
LINE
  8
0
 10
14.4629
 20
-54.391
 11
16.171
 21
-53.2682
  0
LINE
  8
0
 10
16.171
 20
-53.2682
 11
17.6734
 21
-51.9937
  0
LINE
  8
0
 10
17.6734
 20
-51.9937
 11
18.9447
 21
-50.5891
  0
LINE
  8
0
 10
18.9447
 20
-50.5891
 11
19.9848
 21
-49.0544
  0
LINE
  8
0
 10
19.9848
 20
-49.0544
 11
20.7938
 21
-47.3895
  0
LINE
  8
0
 10
20.7938
 20
-47.3895
 11
21.3717
 21
-45.5945
  0
LINE
  8
0
 10
21.3717
 20
-45.5945
 11
21.7184
 21
-43.6693
  0
LINE
  8
0
 10
21.7184
 20
-43.6693
 11
21.834
 21
-41.6139
  0
LINE
  8
0
 10
21.834
 20
-41.6139
 11
21.7969
 21
-40.5048
  0
LINE
  8
0
 10
21.7969
 20
-40.5048
 11
21.6856
 21
-39.4304
  0
LINE
  8
0
 10
21.6856
 20
-39.4304
 11
21.5002
 21
-38.3907
  0
LINE
  8
0
 10
21.5002
 20
-38.3907
 11
21.2406
 21
-37.3857
  0
LINE
  8
0
 10
21.2406
 20
-37.3857
 11
20.9068
 21
-36.4154
  0
LINE
  8
0
 10
20.9068
 20
-36.4154
 11
20.4989
 21
-35.4799
  0
LINE
  8
0
 10
20.4989
 20
-35.4799
 11
20.0168
 21
-34.579
  0
LINE
  8
0
 10
20.0168
 20
-34.579
 11
19.4552
 21
-33.7141
  0
LINE
  8
0
 10
19.4552
 20
-33.7141
 11
18.8084
 21
-32.8862
  0
LINE
  8
0
 10
18.8084
 20
-32.8862
 11
18.0763
 21
-32.0954
  0
LINE
  8
0
 10
18.0763
 20
-32.0954
 11
17.2591
 21
-31.3417
  0
LINE
  8
0
 10
17.2591
 20
-31.3417
 11
16.3567
 21
-30.6251
  0
LINE
  8
0
 10
16.3567
 20
-30.6251
 11
15.3691
 21
-29.9455
  0
LINE
  8
0
 10
15.3691
 20
-29.9455
 11
14.2963
 21
-29.3031
  0
LINE
  8
0
 10
14.2963
 20
-29.3031
 11
13.1122
 21
-28.6875
  0
LINE
  8
0
 10
13.1122
 20
-28.6875
 11
11.7909
 21
-28.0883
  0
LINE
  8
0
 10
11.7909
 20
-28.0883
 11
10.3324
 21
-27.5058
  0
LINE
  8
0
 10
10.3324
 20
-27.5058
 11
8.73653
 21
-26.9398
  0
LINE
  8
0
 10
8.73653
 20
-26.9398
 11
7.00343
 21
-26.3903
  0
LINE
  8
0
 10
7.00343
 20
-26.3903
 11
5.13306
 21
-25.8574
  0
LINE
  8
0
 10
5.13306
 20
-25.8574
 11
3.12543
 21
-25.341
  0
LINE
  8
0
 10
3.12543
 20
-25.341
 11
1.62233
 21
-24.9438
  0
LINE
  8
0
 10
1.62233
 20
-24.9438
 11
0.271469
 21
-24.5696
  0
LINE
  8
0
 10
0.271469
 20
-24.5696
 11
-0.927109
 21
-24.2182
  0
LINE
  8
0
 10
-0.927109
 20
-24.2182
 11
-1.97348
 21
-23.8897
  0
LINE
  8
0
 10
-1.97348
 20
-23.8897
 11
-2.86758
 21
-23.5841
  0
LINE
  8
0
 10
-2.86758
 20
-23.5841
 11
-3.60944
 21
-23.3014
  0
LINE
  8
0
 10
-3.60944
 20
-23.3014
 11
-4.19905
 21
-23.0416
  0
LINE
  8
0
 10
-4.19905
 20
-23.0416
 11
-4.69716
 21
-22.7852
  0
LINE
  8
0
 10
-4.69716
 20
-22.7852
 11
-5.16452
 21
-22.513
  0
LINE
  8
0
 10
-5.16452
 20
-22.513
 11
-5.60112
 21
-22.2251
  0
LINE
  8
0
 10
-5.60112
 20
-22.2251
 11
-6.00696
 21
-21.9214
  0
LINE
  8
0
 10
-6.00696
 20
-21.9214
 11
-6.38203
 21
-21.6019
  0
LINE
  8
0
 10
-6.38203
 20
-21.6019
 11
-6.72636
 21
-21.2666
  0
LINE
  8
0
 10
-6.72636
 20
-21.2666
 11
-7.03993
 21
-20.9155
  0
LINE
  8
0
 10
-7.03993
 20
-20.9155
 11
-7.31683
 21
-20.5436
  0
LINE
  8
0
 10
-7.31683
 20
-20.5436
 11
-7.55112
 21
-20.1456
  0
LINE
  8
0
 10
-7.55112
 20
-20.1456
 11
-7.74281
 21
-19.7216
  0
LINE
  8
0
 10
-7.74281
 20
-19.7216
 11
-7.89191
 21
-19.2715
  0
LINE
  8
0
 10
-7.89191
 20
-19.2715
 11
-7.99841
 21
-18.7954
  0
LINE
  8
0
 10
-7.99841
 20
-18.7954
 11
-8.0623
 21
-18.2933
  0
LINE
  8
0
 10
-8.0623
 20
-18.2933
 11
-8.0836
 21
-17.7651
  0
LINE
  8
0
 10
-8.0836
 20
-17.7651
 11
-8.03943
 21
-16.9751
  0
LINE
  8
0
 10
-8.03943
 20
-16.9751
 11
-7.90692
 21
-16.2396
  0
LINE
  8
0
 10
-7.90692
 20
-16.2396
 11
-7.68608
 21
-15.5585
  0
LINE
  8
0
 10
-7.68608
 20
-15.5585
 11
-7.37689
 21
-14.9318
  0
LINE
  8
0
 10
-7.37689
 20
-14.9318
 11
-6.97937
 21
-14.3596
  0
LINE
  8
0
 10
-6.97937
 20
-14.3596
 11
-6.49352
 21
-13.8418
  0
LINE
  8
0
 10
-6.49352
 20
-13.8418
 11
-5.91931
 21
-13.3784
  0
LINE
  8
0
 10
-5.91931
 20
-13.3784
 11
-5.26135
 21
-12.9733
  0
LINE
  8
0
 10
-5.26135
 20
-12.9733
 11
-4.52452
 21
-12.6305
  0
LINE
  8
0
 10
-4.52452
 20
-12.6305
 11
-3.70882
 21
-12.35
  0
LINE
  8
0
 10
-3.70882
 20
-12.35
 11
-2.81424
 21
-12.1319
  0
LINE
  8
0
 10
-2.81424
 20
-12.1319
 11
-1.84079
 21
-11.976
  0
LINE
  8
0
 10
-1.84079
 20
-11.976
 11
-0.788483
 21
-11.8826
  0
LINE
  8
0
 10
-0.788483
 20
-11.8826
 11
0.342682
 21
-11.8514
  0
LINE
  8
0
 10
0.342682
 20
-11.8514
 11
2.31549
 21
-11.9957
  0
LINE
  8
0
 10
2.31549
 20
-11.9957
 11
4.05956
 21
-12.4288
  0
LINE
  8
0
 10
4.05956
 20
-12.4288
 11
5.57487
 21
-13.1505
  0
LINE
  8
0
 10
5.57487
 20
-13.1505
 11
6.86143
 21
-14.161
  0
LINE
  8
0
 10
6.86143
 20
-14.161
 11
7.91927
 21
-15.4601
  0
LINE
  8
0
 10
7.91927
 20
-15.4601
 11
8.74835
 21
-17.048
  0
LINE
  8
0
 10
8.74835
 20
-17.048
 11
9.34869
 21
-18.9245
  0
LINE
  8
0
 10
9.34869
 20
-18.9245
 11
20.4038
 21
-17.8039
  0
LINE
  8
0
 10
20.4038
 20
-17.8039
 11
19.9249
 21
-15.8267
  0
LINE
  8
0
 10
19.9249
 20
-15.8267
 11
19.3055
 21
-14.0033
  0
LINE
  8
0
 10
19.3055
 20
-14.0033
 11
18.5458
 21
-12.3338
  0
LINE
  8
0
 10
18.5458
 20
-12.3338
 11
17.6457
 21
-10.8181
  0
LINE
  8
0
 10
17.6457
 20
-10.8181
 11
16.6052
 21
-9.45619
  0
LINE
  8
0
 10
16.6052
 20
-9.45619
 11
15.4243
 21
-8.24814
  0
LINE
  8
0
 10
15.4243
 20
-8.24814
 11
14.1031
 21
-7.19392
  0
LINE
  8
0
 10
14.1031
 20
-7.19392
 11
12.6343
 21
-6.28627
  0
LINE
  8
0
 10
12.6343
 20
-6.28627
 11
11.0109
 21
-5.51826
  0
LINE
  8
0
 10
11.0109
 20
-5.51826
 11
9.23291
 21
-4.88991
  0
LINE
  8
0
 10
9.23291
 20
-4.88991
 11
7.30028
 21
-4.40117
  0
LINE
  8
0
 10
7.30028
 20
-4.40117
 11
5.21304
 21
-4.05208
  0
LINE
  8
0
 10
5.21304
 20
-4.05208
 11
2.97118
 21
-3.84262
  0
LINE
  8
0
 10
2.97118
 20
-3.84262
 11
0.574677
 21
-3.7728
  0
LINE
  8
0
 10
0.574677
 20
-3.7728
 11
-1.89479
 21
-3.85326
  0
LINE
  8
0
 10
-1.89479
 20
-3.85326
 11
-4.22308
 21
-4.09465
  0
LINE
  8
0
 10
-4.22308
 20
-4.09465
 11
-6.41017
 21
-4.49696
  0
LINE
  8
0
 10
-6.41017
 20
-4.49696
 11
-8.45605
 21
-5.0602
  0
LINE
  8
0
 10
-8.45605
 20
-5.0602
 11
-10.3607
 21
-5.78436
  0
LINE
  8
0
 10
-10.3607
 20
-5.78436
 11
-12.1243
 21
-6.66945
  0
LINE
  8
0
 10
-12.1243
 20
-6.66945
 11
-13.7466
 21
-7.71547
  0
LINE
  8
0
 10
-13.7466
 20
-7.71547
 11
-15.1873
 21
-8.89954
  0
LINE
  8
0
 10
-15.1873
 20
-8.89954
 11
-16.4063
 21
-10.1988
  0
LINE
  8
0
 10
-16.4063
 20
-10.1988
 11
-17.4038
 21
-11.6132
  0
LINE
  8
0
 10
-17.4038
 20
-11.6132
 11
-18.1795
 21
-13.1427
  0
LINE
  8
0
 10
-18.1795
 20
-13.1427
 11
-18.7336
 21
-14.7874
  0
LINE
  8
0
 10
-18.7336
 20
-14.7874
 11
-19.0661
 21
-16.5473
  0
LINE
  8
0
 10
-19.0661
 20
-16.5473
 11
-19.1769
 21
-18.4223
  0
LINE
  8
0
 10
-19.1769
 20
-18.4223
 11
-19.1545
 21
-19.2936
  0
LINE
  8
0
 10
-19.1545
 20
-19.2936
 11
-19.0871
 21
-20.1404
  0
LINE
  8
0
 10
-19.0871
 20
-20.1404
 11
-18.9747
 21
-20.9628
  0
LINE
  8
0
 10
-18.9747
 20
-20.9628
 11
-18.8174
 21
-21.7607
  0
LINE
  8
0
 10
-18.8174
 20
-21.7607
 11
-18.6151
 21
-22.5342
  0
LINE
  8
0
 10
-18.6151
 20
-22.5342
 11
-18.3679
 21
-23.2832
  0
LINE
  8
0
 10
-18.3679
 20
-23.2832
 11
-18.0757
 21
-24.0078
  0
LINE
  8
0
 10
-18.0757
 20
-24.0078
 11
-17.7416
 21
-24.7071
  0
LINE
  8
0
 10
-17.7416
 20
-24.7071
 11
-17.3688
 21
-25.3804
  0
LINE
  8
0
 10
-17.3688
 20
-25.3804
 11
-16.9574
 21
-26.0276
  0
LINE
  8
0
 10
-16.9574
 20
-26.0276
 11
-16.5073
 21
-26.6489
  0
LINE
  8
0
 10
-16.5073
 20
-26.6489
 11
-16.0186
 21
-27.244
  0
LINE
  8
0
 10
-16.0186
 20
-27.244
 11
-15.4913
 21
-27.8132
  0
LINE
  8
0
 10
-15.4913
 20
-27.8132
 11
-14.9253
 21
-28.3563
  0
LINE
  8
0
 10
-14.9253
 20
-28.3563
 11
-14.312
 21
-28.8789
  0
LINE
  8
0
 10
-14.312
 20
-28.8789
 11
-13.6427
 21
-29.3866
  0
LINE
  8
0
 10
-13.6427
 20
-29.3866
 11
-12.9174
 21
-29.8792
  0
LINE
  8
0
 10
-12.9174
 20
-29.8792
 11
-12.1361
 21
-30.3568
  0
LINE
  8
0
 10
-12.1361
 20
-30.3568
 11
-11.2988
 21
-30.8195
  0
LINE
  8
0
 10
-11.2988
 20
-30.8195
 11
-10.4055
 21
-31.2672
  0
LINE
  8
0
 10
-10.4055
 20
-31.2672
 11
-9.45616
 21
-31.6999
  0
LINE
  8
0
 10
-9.45616
 20
-31.6999
 11
-8.37892
 21
-32.1357
  0
LINE
  8
0
 10
-8.37892
 20
-32.1357
 11
-7.10214
 21
-32.5927
  0
LINE
  8
0
 10
-7.10214
 20
-32.5927
 11
-5.62579
 21
-33.071
  0
LINE
  8
0
 10
-5.62579
 20
-33.071
 11
-3.94992
 21
-33.5706
  0
LINE
  8
0
 10
-3.94992
 20
-33.5706
 11
-2.07449
 21
-34.0916
  0
LINE
  8
0
 10
-2.07449
 20
-34.0916
 11
0.000473022
 21
-34.6339
  0
LINE
  8
0
 10
0.000473022
 20
-34.6339
 11
2.27499
 21
-35.1974
  0
LINE
  8
0
 10
2.27499
 20
-35.1974
 11
3.41644
 21
-35.5001
  0
LINE
  8
0
 10
3.41644
 20
-35.5001
 11
4.47742
 21
-35.8335
  0
LINE
  8
0
 10
4.47742
 20
-35.8335
 11
5.45793
 21
-36.1976
  0
LINE
  8
0
 10
5.45793
 20
-36.1976
 11
6.35796
 21
-36.5924
  0
LINE
  8
0
 10
6.35796
 20
-36.5924
 11
7.17751
 21
-37.018
  0
LINE
  8
0
 10
7.17751
 20
-37.018
 11
7.9166
 21
-37.4743
  0
LINE
  8
0
 10
7.9166
 20
-37.4743
 11
8.5752
 21
-37.9614
  0
LINE
  8
0
 10
8.5752
 20
-37.9614
 11
9.14955
 21
-38.48
  0
LINE
  8
0
 10
9.14955
 20
-38.48
 11
9.63554
 21
-39.0309
  0
LINE
  8
0
 10
9.63554
 20
-39.0309
 11
10.0332
 21
-39.6143
  0
LINE
  8
0
 10
10.0332
 20
-39.6143
 11
10.3424
 21
-40.2299
  0
LINE
  8
0
 10
10.3424
 20
-40.2299
 11
10.5633
 21
-40.878
  0
LINE
  8
0
 10
10.5633
 20
-40.878
 11
10.6959
 21
-41.5584
  0
LINE
  8
0
 10
10.6959
 20
-41.5584
 11
10.7401
 21
-42.2711
  0
LINE
  8
0
 10
10.7401
 20
-42.2711
 11
10.69
 21
-43.2169
  0
LINE
  8
0
 10
10.69
 20
-43.2169
 11
10.5397
 21
-44.0886
  0
LINE
  8
0
 10
10.5397
 20
-44.0886
 11
10.2892
 21
-44.8861
  0
LINE
  8
0
 10
10.2892
 20
-44.8861
 11
9.93861
 21
-45.6095
  0
LINE
  8
0
 10
9.93861
 20
-45.6095
 11
9.48781
 21
-46.2588
  0
LINE
  8
0
 10
9.48781
 20
-46.2588
 11
8.93681
 21
-46.834
  0
LINE
  8
0
 10
8.93681
 20
-46.834
 11
8.28564
 21
-47.335
  0
LINE
  8
0
 10
8.28564
 20
-47.335
 11
7.53035
 21
-47.7657
  0
LINE
  8
0
 10
7.53035
 20
-47.7657
 11
6.66698
 21
-48.1301
  0
LINE
  8
0
 10
6.66698
 20
-48.1301
 11
5.69554
 21
-48.4283
  0
LINE
  8
0
 10
5.69554
 20
-48.4283
 11
4.61604
 21
-48.6602
  0
LINE
  8
0
 10
4.61604
 20
-48.6602
 11
3.42848
 21
-48.8259
  0
LINE
  8
0
 10
3.42848
 20
-48.8259
 11
2.13284
 21
-48.9253
  0
LINE
  8
0
 10
2.13284
 20
-48.9253
 11
0.729156
 21
-48.9584
  0
LINE
  8
0
 10
0.729156
 20
-48.9584
 11
-0.630768
 21
-48.9154
  0
LINE
  8
0
 10
-0.630768
 20
-48.9154
 11
-1.90553
 21
-48.7864
  0
LINE
  8
0
 10
-1.90553
 20
-48.7864
 11
-3.09512
 21
-48.5714
  0
LINE
  8
0
 10
-3.09512
 20
-48.5714
 11
-4.19954
 21
-48.2705
  0
LINE
  8
0
 10
-4.19954
 20
-48.2705
 11
-5.21878
 21
-47.8835
  0
LINE
  8
0
 10
-5.21878
 20
-47.8835
 11
-6.15285
 21
-47.4106
  0
LINE
  8
0
 10
-6.15285
 20
-47.4106
 11
-7.00174
 21
-46.8517
  0
LINE
  8
0
 10
-7.00174
 20
-46.8517
 11
-7.76845
 21
-46.2186
  0
LINE
  8
0
 10
-7.76845
 20
-46.2186
 11
-8.4563
 21
-45.5232
  0
LINE
  8
0
 10
-8.4563
 20
-45.5232
 11
-9.06526
 21
-44.7655
  0
LINE
  8
0
 10
-9.06526
 20
-44.7655
 11
-9.59537
 21
-43.9456
  0
LINE
  8
0
 10
-9.59537
 20
-43.9456
 11
-10.0466
 21
-43.0633
  0
LINE
  8
0
 10
-10.0466
 20
-43.0633
 11
-10.419
 21
-42.1187
  0
LINE
  8
0
 10
-10.419
 20
-42.1187
 11
-10.7124
 21
-41.1118
  0
LINE
  8
0
 10
-10.7124
 20
-41.1118
 11
-21.7283
 21
-42.5419
  0
LINE
  8
0
 10
-21.7283
 20
-42.5419
 11
-21.1808
 21
-44.5581
  0
LINE
  8
0
 10
-21.1808
 20
-44.5581
 11
-20.4662
 21
-46.4323
  0
LINE
  8
0
 10
-20.4662
 20
-46.4323
 11
-19.5843
 21
-48.1646
  0
LINE
  8
0
 10
-19.5843
 20
-48.1646
 11
-18.5352
 21
-49.7549
  0
LINE
  8
0
 10
-18.5352
 20
-49.7549
 11
-17.3188
 21
-51.2032
  0
LINE
  8
0
 10
-17.3188
 20
-51.2032
 11
-15.9352
 21
-52.5096
  0
LINE
  8
0
 10
-15.9352
 20
-52.5096
 11
-14.3844
 21
-53.674
  0
LINE
  8
0
 10
-14.3844
 20
-53.674
 11
-12.6812
 21
-54.6892
  0
LINE
  8
0
 10
-12.6812
 20
-54.6892
 11
-10.8408
 21
-55.5482
  0
LINE
  8
0
 10
-10.8408
 20
-55.5482
 11
-8.86311
 21
-56.251
  0
LINE
  8
0
 10
-8.86311
 20
-56.251
 11
-6.74825
 21
-56.7976
  0
LINE
  8
0
 10
-6.74825
 20
-56.7976
 11
-4.49617
 21
-57.188
  0
LINE
  8
0
 10
-4.49617
 20
-57.188
 11
-2.10686
 21
-57.4223
  0
LINE
  8
0
 10
-2.10686
 20
-57.4223
 11
0.419632
 21
-57.5004
  0
LINE
  8
0
 10
0.419632
 20
-57.5004
 11
3.21187
 21
-57.414
  0
ENDSEC
  0
SECTION
  2
OBJECTS
  0
DICTIONARY
  0
ENDSEC
  0
EOF
