<?xml version="1.0" standalone="no"?>
<!DOCTYPE svg PUBLIC "-//W3C//DTD SVG 1.1//EN" "http://www.w3.org/Graphics/SVG/1.1/DTD/svg11.dtd">
<svg width="44mm" height="55mm" viewBox="-22 3 44 55" xmlns="http://www.w3.org/2000/svg" version="1.1">
<title>OpenSCAD Model</title>
<path d="
M 3.21187,57.414 L 5.82343,57.1549 L 8.2543,56.7231 L 10.5045,56.1185 L 12.574,55.3411 L 14.4629,54.391
 L 16.171,53.2682 L 17.6734,51.9937 L 18.9447,50.5891 L 19.9848,49.0544 L 20.7938,47.3895 L 21.3717,45.5945
 L 21.7184,43.6693 L 21.834,41.6139 L 21.7969,40.5048 L 21.6856,39.4304 L 21.5002,38.3907 L 21.2406,37.3857
 L 20.9068,36.4154 L 20.4989,35.4799 L 20.0168,34.579 L 19.4552,33.7141 L 18.8084,32.8862 L 18.0763,32.0954
 L 17.2591,31.3417 L 16.3567,30.6251 L 15.3691,29.9455 L 14.2963,29.3031 L 13.1122,28.6875 L 11.7909,28.0883
 L 10.3324,27.5058 L 8.73653,26.9398 L 7.00343,26.3903 L 5.13306,25.8574 L 3.12543,25.341 L 1.62233,24.9438
 L 0.271469,24.5696 L -0.927109,24.2182 L -1.97348,23.8897 L -2.86758,23.5841 L -3.60944,23.3014 L -4.19905,23.0416
 L -4.69716,22.7852 L -5.16452,22.513 L -5.60112,22.2251 L -6.00696,21.9214 L -6.38203,21.6019 L -6.72636,21.2666
 L -7.03993,20.9155 L -7.31683,20.5436 L -7.55112,20.1456 L -7.74281,19.7216 L -7.89191,19.2715 L -7.99841,18.7954
 L -8.0623,18.2933 L -8.0836,17.7651 L -8.03943,16.9751 L -7.90692,16.2396 L -7.68608,15.5585 L -7.37689,14.9318
 L -6.97937,14.3596 L -6.49352,13.8418 L -5.91931,13.3784 L -5.26135,12.9733 L -4.52452,12.6305 L -3.70882,12.35
 L -2.81424,12.1319 L -1.84079,11.976 L -0.788483,11.8826 L 0.342682,11.8514 L 2.31549,11.9957 L 4.05956,12.4288
 L 5.57487,13.1505 L 6.86143,14.161 L 7.91927,15.4601 L 8.74835,17.048 L 9.34869,18.9245 L 20.4038,17.8039
 L 19.9249,15.8267 L 19.3055,14.0033 L 18.5458,12.3338 L 17.6457,10.8181 L 16.6052,9.45619 L 15.4243,8.24814
 L 14.1031,7.19392 L 12.6343,6.28627 L 11.0109,5.51826 L 9.23291,4.88991 L 7.30028,4.40117 L 5.21304,4.05208
 L 2.97118,3.84262 L 0.574677,3.7728 L -1.89479,3.85326 L -4.22308,4.09465 L -6.41017,4.49696 L -8.45605,5.0602
 L -10.3607,5.78436 L -12.1243,6.66945 L -13.7466,7.71547 L -15.1873,8.89954 L -16.4063,10.1988 L -17.4038,11.6132
 L -18.1795,13.1427 L -18.7336,14.7874 L -19.0661,16.5473 L -19.1769,18.4223 L -19.1545,19.2936 L -19.0871,20.1404
 L -18.9747,20.9628 L -18.8174,21.7607 L -18.6151,22.5342 L -18.3679,23.2832 L -18.0757,24.0078 L -17.7416,24.7071
 L -17.3688,25.3804 L -16.9574,26.0276 L -16.5073,26.6489 L -16.0186,27.244 L -15.4913,27.8132 L -14.9253,28.3563
 L -14.312,28.8789 L -13.6427,29.3866 L -12.9174,29.8792 L -12.1361,30.3568 L -11.2988,30.8195 L -10.4055,31.2672
 L -9.45616,31.6999 L -8.37892,32.1357 L -7.10214,32.5927 L -5.62579,33.071 L -3.94992,33.5706 L -2.07449,34.0916
 L 0.000473022,34.6339 L 2.27499,35.1974 L 3.41644,35.5001 L 4.47742,35.8335 L 5.45793,36.1976 L 6.35796,36.5924
 L 7.17751,37.018 L 7.9166,37.4743 L 8.5752,37.9614 L 9.14955,38.48 L 9.63554,39.0309 L 10.0332,39.6143
 L 10.3424,40.2299 L 10.5633,40.878 L 10.6959,41.5584 L 10.7401,42.2711 L 10.69,43.2169 L 10.5397,44.0886
 L 10.2892,44.8861 L 9.93861,45.6095 L 9.48781,46.2588 L 8.93681,46.834 L 8.28564,47.335 L 7.53035,47.7657
 L 6.66698,48.1301 L 5.69554,48.4283 L 4.61604,48.6602 L 3.42848,48.8259 L 2.13284,48.9253 L 0.729156,48.9584
 L -0.630768,48.9154 L -1.90553,48.7864 L -3.09512,48.5714 L -4.19954,48.2705 L -5.21878,47.8835 L -6.15285,47.4106
 L -7.00174,46.8517 L -7.76845,46.2186 L -8.4563,45.5232 L -9.06526,44.7655 L -9.59537,43.9456 L -10.0466,43.0633
 L -10.419,42.1187 L -10.7124,41.1118 L -21.7283,42.5419 L -21.1808,44.5581 L -20.4662,46.4323 L -19.5843,48.1646
 L -18.5352,49.7549 L -17.3188,51.2032 L -15.9352,52.5096 L -14.3844,53.674 L -12.6812,54.6892 L -10.8408,55.5482
 L -8.86311,56.251 L -6.74825,56.7976 L -4.49617,57.188 L -2.10686,57.4223 L 0.419632,57.5004 z
" stroke="black" fill="lightgray" stroke-width="0.5"/>
</svg>
