solid OpenSCAD_Model
  facet normal 0 0 -1
    outer loop
      vertex 20.7903 -55.9437 0
      vertex -6.731 -47.0147 0
      vertex 20.7903 -47.0147 0
    endloop
  endfacet
  facet normal 0 -0 -1
    outer loop
      vertex -6.731 -47.0147 0
      vertex 20.7903 -55.9437 0
      vertex -19.8342 -55.9437 0
    endloop
  endfacet
  facet normal -0 0 -1
    outer loop
      vertex 19.2051 -11.7243 0
      vertex 6.10197 -12.7298 0
      vertex 19.2051 -3.80072 0
    endloop
  endfacet
  facet normal 0 0 -1
    outer loop
      vertex -6.731 -47.0147 0
      vertex 6.10197 -12.7298 0
      vertex 19.2051 -11.7243 0
    endloop
  endfacet
  facet normal 0 0 -1
    outer loop
      vertex -19.8342 -47.8651 0
      vertex -6.731 -47.0147 0
      vertex -19.8342 -55.9437 0
    endloop
  endfacet
  facet normal -0 0 -1
    outer loop
      vertex -6.731 -47.0147 0
      vertex -19.8342 -47.8651 0
      vertex 6.10197 -12.7298 0
    endloop
  endfacet
  facet normal 0 0 -1
    outer loop
      vertex -16.8969 -3.80072 0
      vertex 6.10197 -12.7298 0
      vertex -16.8969 -12.7298 0
    endloop
  endfacet
  facet normal 0 0 -1
    outer loop
      vertex 6.10197 -12.7298 0
      vertex -16.8969 -3.80072 0
      vertex 19.2051 -3.80072 0
    endloop
  endfacet
  facet normal 0 0 1
    outer loop
      vertex 19.2051 -3.80072 1
      vertex 6.10197 -12.7298 1
      vertex 19.2051 -11.7243 1
    endloop
  endfacet
  facet normal -0 0 1
    outer loop
      vertex -16.8969 -3.80072 1
      vertex 6.10197 -12.7298 1
      vertex 19.2051 -3.80072 1
    endloop
  endfacet
  facet normal 0 0 1
    outer loop
      vertex 6.10197 -12.7298 1
      vertex -16.8969 -3.80072 1
      vertex -16.8969 -12.7298 1
    endloop
  endfacet
  facet normal -0 0 1
    outer loop
      vertex 6.10197 -12.7298 1
      vertex -6.731 -47.0147 1
      vertex 19.2051 -11.7243 1
    endloop
  endfacet
  facet normal 0 -0 1
    outer loop
      vertex -6.731 -47.0147 1
      vertex 6.10197 -12.7298 1
      vertex -19.8342 -47.8651 1
    endloop
  endfacet
  facet normal -0 0 1
    outer loop
      vertex -6.731 -47.0147 1
      vertex 20.7903 -55.9437 1
      vertex 20.7903 -47.0147 1
    endloop
  endfacet
  facet normal 0 0 1
    outer loop
      vertex -19.8342 -55.9437 1
      vertex -6.731 -47.0147 1
      vertex -19.8342 -47.8651 1
    endloop
  endfacet
  facet normal 0 0 1
    outer loop
      vertex -6.731 -47.0147 1
      vertex -19.8342 -55.9437 1
      vertex 20.7903 -55.9437 1
    endloop
  endfacet
  facet normal 0 1 -0
    outer loop
      vertex 20.7903 -47.0147 0
      vertex -6.731 -47.0147 1
      vertex 20.7903 -47.0147 1
    endloop
  endfacet
  facet normal 0 1 0
    outer loop
      vertex -6.731 -47.0147 1
      vertex 20.7903 -47.0147 0
      vertex -6.731 -47.0147 0
    endloop
  endfacet
  facet normal 0.80579 -0.592202 0
    outer loop
      vertex -6.731 -47.0147 1
      vertex 19.2051 -11.7243 0
      vertex 19.2051 -11.7243 1
    endloop
  endfacet
  facet normal 0.80579 -0.592202 0
    outer loop
      vertex 19.2051 -11.7243 0
      vertex -6.731 -47.0147 1
      vertex -6.731 -47.0147 0
    endloop
  endfacet
  facet normal 1 -0 0
    outer loop
      vertex 19.2051 -11.7243 1
      vertex 19.2051 -3.80072 0
      vertex 19.2051 -3.80072 1
    endloop
  endfacet
  facet normal 1 0 0
    outer loop
      vertex 19.2051 -3.80072 0
      vertex 19.2051 -11.7243 1
      vertex 19.2051 -11.7243 0
    endloop
  endfacet
  facet normal 0 1 -0
    outer loop
      vertex 19.2051 -3.80072 0
      vertex -16.8969 -3.80072 1
      vertex 19.2051 -3.80072 1
    endloop
  endfacet
  facet normal 0 1 0
    outer loop
      vertex -16.8969 -3.80072 1
      vertex 19.2051 -3.80072 0
      vertex -16.8969 -3.80072 0
    endloop
  endfacet
  facet normal -1 0 0
    outer loop
      vertex -16.8969 -12.7298 0
      vertex -16.8969 -3.80072 1
      vertex -16.8969 -3.80072 0
    endloop
  endfacet
  facet normal -1 -0 0
    outer loop
      vertex -16.8969 -3.80072 1
      vertex -16.8969 -12.7298 0
      vertex -16.8969 -12.7298 1
    endloop
  endfacet
  facet normal 0 -1 0
    outer loop
      vertex -16.8969 -12.7298 0
      vertex 6.10197 -12.7298 1
      vertex -16.8969 -12.7298 1
    endloop
  endfacet
  facet normal 0 -1 -0
    outer loop
      vertex 6.10197 -12.7298 1
      vertex -16.8969 -12.7298 0
      vertex 6.10197 -12.7298 0
    endloop
  endfacet
  facet normal -0.804542 0.593896 0
    outer loop
      vertex -19.8342 -47.8651 0
      vertex 6.10197 -12.7298 1
      vertex 6.10197 -12.7298 0
    endloop
  endfacet
  facet normal -0.804542 0.593896 0
    outer loop
      vertex 6.10197 -12.7298 1
      vertex -19.8342 -47.8651 0
      vertex -19.8342 -47.8651 1
    endloop
  endfacet
  facet normal -1 0 0
    outer loop
      vertex -19.8342 -55.9437 0
      vertex -19.8342 -47.8651 1
      vertex -19.8342 -47.8651 0
    endloop
  endfacet
  facet normal -1 -0 0
    outer loop
      vertex -19.8342 -47.8651 1
      vertex -19.8342 -55.9437 0
      vertex -19.8342 -55.9437 1
    endloop
  endfacet
  facet normal 0 -1 0
    outer loop
      vertex -19.8342 -55.9437 0
      vertex 20.7903 -55.9437 1
      vertex -19.8342 -55.9437 1
    endloop
  endfacet
  facet normal 0 -1 -0
    outer loop
      vertex 20.7903 -55.9437 1
      vertex -19.8342 -55.9437 0
      vertex 20.7903 -55.9437 0
    endloop
  endfacet
  facet normal 1 -0 0
    outer loop
      vertex 20.7903 -55.9437 1
      vertex 20.7903 -47.0147 0
      vertex 20.7903 -47.0147 1
    endloop
  endfacet
  facet normal 1 0 0
    outer loop
      vertex 20.7903 -47.0147 0
      vertex 20.7903 -55.9437 1
      vertex 20.7903 -55.9437 0
    endloop
  endfacet
endsolid OpenSCAD_Model
