solid OpenSCAD_Model
  facet normal 0 0 -1
    outer loop
      vertex 18.0939 -84.9062 0
      vertex 9.6541 -35.301 0
      vertex 40.513 -84.9062 0
    endloop
  endfacet
  facet normal 0 -0 -1
    outer loop
      vertex 9.6541 -35.301 0
      vertex 18.0939 -84.9062 0
      vertex -2.71487 -49.0228 0
    endloop
  endfacet
  facet normal 0 0 -1
    outer loop
      vertex 9.6541 -35.301 0
      vertex 17.1914 1.99879 0
      vertex 39.2884 1.99879 0
    endloop
  endfacet
  facet normal 0 0 -1
    outer loop
      vertex -10.8963 -36.5902 0
      vertex 9.6541 -35.301 0
      vertex -2.71487 -49.0228 0
    endloop
  endfacet
  facet normal 0 0 -1
    outer loop
      vertex -10.8963 -36.5902 0
      vertex -2.71487 -49.0228 0
      vertex -10.8963 -58.1713 0
    endloop
  endfacet
  facet normal -0 0 -1
    outer loop
      vertex 9.6541 -35.301 0
      vertex -10.8963 -36.5902 0
      vertex 17.1914 1.99879 0
    endloop
  endfacet
  facet normal 0 0 -1
    outer loop
      vertex -29.9001 -84.9062 0
      vertex -10.8963 -58.1713 0
      vertex -10.8963 -84.9062 0
    endloop
  endfacet
  facet normal -0 0 -1
    outer loop
      vertex -10.8963 -58.1713 0
      vertex -29.9001 -84.9062 0
      vertex -10.8963 -36.5902 0
    endloop
  endfacet
  facet normal 0 0 -1
    outer loop
      vertex -29.9001 1.99879 0
      vertex -10.8963 -36.5902 0
      vertex -29.9001 -84.9062 0
    endloop
  endfacet
  facet normal 0 0 -1
    outer loop
      vertex -10.8963 -36.5902 0
      vertex -29.9001 1.99879 0
      vertex -10.8963 1.99879 0
    endloop
  endfacet
  facet normal -0 0 1
    outer loop
      vertex -29.9001 1.99879 1
      vertex -10.8963 -36.5902 1
      vertex -10.8963 1.99879 1
    endloop
  endfacet
  facet normal 0 0 1
    outer loop
      vertex -29.9001 -84.9062 1
      vertex -10.8963 -36.5902 1
      vertex -29.9001 1.99879 1
    endloop
  endfacet
  facet normal 0 0 1
    outer loop
      vertex -10.8963 -36.5902 1
      vertex -29.9001 -84.9062 1
      vertex -10.8963 -58.1713 1
    endloop
  endfacet
  facet normal 0 0 1
    outer loop
      vertex -10.8963 -58.1713 1
      vertex -29.9001 -84.9062 1
      vertex -10.8963 -84.9062 1
    endloop
  endfacet
  facet normal -0 0 1
    outer loop
      vertex 17.1914 1.99879 1
      vertex 9.6541 -35.301 1
      vertex 39.2884 1.99879 1
    endloop
  endfacet
  facet normal 0 0 1
    outer loop
      vertex -10.8963 -36.5902 1
      vertex 9.6541 -35.301 1
      vertex 17.1914 1.99879 1
    endloop
  endfacet
  facet normal 0 0 1
    outer loop
      vertex 9.6541 -35.301 1
      vertex -10.8963 -36.5902 1
      vertex -2.71487 -49.0228 1
    endloop
  endfacet
  facet normal 0 0 1
    outer loop
      vertex -2.71487 -49.0228 1
      vertex -10.8963 -36.5902 1
      vertex -10.8963 -58.1713 1
    endloop
  endfacet
  facet normal 0 0 1
    outer loop
      vertex 9.6541 -35.301 1
      vertex 18.0939 -84.9062 1
      vertex 40.513 -84.9062 1
    endloop
  endfacet
  facet normal 0 0 1
    outer loop
      vertex 18.0939 -84.9062 1
      vertex 9.6541 -35.301 1
      vertex -2.71487 -49.0228 1
    endloop
  endfacet
  facet normal 0.745406 -0.666611 0
    outer loop
      vertex -10.8963 -58.1713 1
      vertex -2.71487 -49.0228 0
      vertex -2.71487 -49.0228 1
    endloop
  endfacet
  facet normal 0.745406 -0.666611 0
    outer loop
      vertex -2.71487 -49.0228 0
      vertex -10.8963 -58.1713 1
      vertex -10.8963 -58.1713 0
    endloop
  endfacet
  facet normal -0.865069 -0.501653 0
    outer loop
      vertex 18.0939 -84.9062 0
      vertex -2.71487 -49.0228 1
      vertex -2.71487 -49.0228 0
    endloop
  endfacet
  facet normal -0.865069 -0.501653 0
    outer loop
      vertex -2.71487 -49.0228 1
      vertex 18.0939 -84.9062 0
      vertex 18.0939 -84.9062 1
    endloop
  endfacet
  facet normal 0 -1 0
    outer loop
      vertex 18.0939 -84.9062 0
      vertex 40.513 -84.9062 1
      vertex 18.0939 -84.9062 1
    endloop
  endfacet
  facet normal 0 -1 -0
    outer loop
      vertex 40.513 -84.9062 1
      vertex 18.0939 -84.9062 0
      vertex 40.513 -84.9062 0
    endloop
  endfacet
  facet normal 0.849107 0.528221 0
    outer loop
      vertex 40.513 -84.9062 1
      vertex 9.6541 -35.301 0
      vertex 9.6541 -35.301 1
    endloop
  endfacet
  facet normal 0.849107 0.528221 0
    outer loop
      vertex 9.6541 -35.301 0
      vertex 40.513 -84.9062 1
      vertex 40.513 -84.9062 0
    endloop
  endfacet
  facet normal 0.782969 -0.622061 0
    outer loop
      vertex 9.6541 -35.301 1
      vertex 39.2884 1.99879 0
      vertex 39.2884 1.99879 1
    endloop
  endfacet
  facet normal 0.782969 -0.622061 0
    outer loop
      vertex 39.2884 1.99879 0
      vertex 9.6541 -35.301 1
      vertex 9.6541 -35.301 0
    endloop
  endfacet
  facet normal 0 1 -0
    outer loop
      vertex 39.2884 1.99879 0
      vertex 17.1914 1.99879 1
      vertex 39.2884 1.99879 1
    endloop
  endfacet
  facet normal 0 1 0
    outer loop
      vertex 17.1914 1.99879 1
      vertex 39.2884 1.99879 0
      vertex 17.1914 1.99879 0
    endloop
  endfacet
  facet normal -0.808507 0.588487 0
    outer loop
      vertex -10.8963 -36.5902 0
      vertex 17.1914 1.99879 1
      vertex 17.1914 1.99879 0
    endloop
  endfacet
  facet normal -0.808507 0.588487 0
    outer loop
      vertex 17.1914 1.99879 1
      vertex -10.8963 -36.5902 0
      vertex -10.8963 -36.5902 1
    endloop
  endfacet
  facet normal 1 -0 0
    outer loop
      vertex -10.8963 -36.5902 1
      vertex -10.8963 1.99879 0
      vertex -10.8963 1.99879 1
    endloop
  endfacet
  facet normal 1 0 0
    outer loop
      vertex -10.8963 1.99879 0
      vertex -10.8963 -36.5902 1
      vertex -10.8963 -36.5902 0
    endloop
  endfacet
  facet normal 0 1 -0
    outer loop
      vertex -10.8963 1.99879 0
      vertex -29.9001 1.99879 1
      vertex -10.8963 1.99879 1
    endloop
  endfacet
  facet normal 0 1 0
    outer loop
      vertex -29.9001 1.99879 1
      vertex -10.8963 1.99879 0
      vertex -29.9001 1.99879 0
    endloop
  endfacet
  facet normal -1 0 0
    outer loop
      vertex -29.9001 -84.9062 0
      vertex -29.9001 1.99879 1
      vertex -29.9001 1.99879 0
    endloop
  endfacet
  facet normal -1 -0 0
    outer loop
      vertex -29.9001 1.99879 1
      vertex -29.9001 -84.9062 0
      vertex -29.9001 -84.9062 1
    endloop
  endfacet
  facet normal 0 -1 0
    outer loop
      vertex -29.9001 -84.9062 0
      vertex -10.8963 -84.9062 1
      vertex -29.9001 -84.9062 1
    endloop
  endfacet
  facet normal 0 -1 -0
    outer loop
      vertex -10.8963 -84.9062 1
      vertex -29.9001 -84.9062 0
      vertex -10.8963 -84.9062 0
    endloop
  endfacet
  facet normal 1 -0 0
    outer loop
      vertex -10.8963 -84.9062 1
      vertex -10.8963 -58.1713 0
      vertex -10.8963 -58.1713 1
    endloop
  endfacet
  facet normal 1 0 0
    outer loop
      vertex -10.8963 -58.1713 0
      vertex -10.8963 -84.9062 1
      vertex -10.8963 -84.9062 0
    endloop
  endfacet
endsolid OpenSCAD_Model
