solid OpenSCAD_Model
  facet normal 0 0 -1
    outer loop
      vertex 6.72394 -21.9812 0
      vertex -1.21291 -19.0437 0
      vertex 6.72394 -19.0437 0
    endloop
  endfacet
  facet normal 0 0 -1
    outer loop
      vertex -5.01385 -21.9812 0
      vertex -1.21291 -19.0437 0
      vertex 6.72394 -21.9812 0
    endloop
  endfacet
  facet normal 0 0 -1
    outer loop
      vertex -5.01385 -4.60025 0
      vertex -1.21291 -19.0437 0
      vertex -5.01385 -21.9812 0
    endloop
  endfacet
  facet normal 0 0 -1
    outer loop
      vertex -1.21291 -19.0437 0
      vertex -5.01385 -4.60025 0
      vertex -1.21291 -4.60025 0
    endloop
  endfacet
  facet normal 0 0 1
    outer loop
      vertex -1.21291 -4.60025 1
      vertex -5.01385 -4.60025 1
      vertex -1.21291 -19.0437 1
    endloop
  endfacet
  facet normal -0 0 1
    outer loop
      vertex -1.21291 -19.0437 1
      vertex 6.72394 -21.9812 1
      vertex 6.72394 -19.0437 1
    endloop
  endfacet
  facet normal 0 0 1
    outer loop
      vertex -1.21291 -19.0437 1
      vertex -5.01385 -21.9812 1
      vertex 6.72394 -21.9812 1
    endloop
  endfacet
  facet normal 0 0 1
    outer loop
      vertex -5.01385 -21.9812 1
      vertex -1.21291 -19.0437 1
      vertex -5.01385 -4.60025 1
    endloop
  endfacet
  facet normal 0 1 -0
    outer loop
      vertex 6.72394 -19.0437 0
      vertex -1.21291 -19.0437 1
      vertex 6.72394 -19.0437 1
    endloop
  endfacet
  facet normal 0 1 0
    outer loop
      vertex -1.21291 -19.0437 1
      vertex 6.72394 -19.0437 0
      vertex -1.21291 -19.0437 0
    endloop
  endfacet
  facet normal 1 -0 0
    outer loop
      vertex -1.21291 -19.0437 1
      vertex -1.21291 -4.60025 0
      vertex -1.21291 -4.60025 1
    endloop
  endfacet
  facet normal 1 0 0
    outer loop
      vertex -1.21291 -4.60025 0
      vertex -1.21291 -19.0437 1
      vertex -1.21291 -19.0437 0
    endloop
  endfacet
  facet normal 0 1 -0
    outer loop
      vertex -1.21291 -4.60025 0
      vertex -5.01385 -4.60025 1
      vertex -1.21291 -4.60025 1
    endloop
  endfacet
  facet normal 0 1 0
    outer loop
      vertex -5.01385 -4.60025 1
      vertex -1.21291 -4.60025 0
      vertex -5.01385 -4.60025 0
    endloop
  endfacet
  facet normal -1 0 0
    outer loop
      vertex -5.01385 -21.9812 0
      vertex -5.01385 -4.60025 1
      vertex -5.01385 -4.60025 0
    endloop
  endfacet
  facet normal -1 -0 0
    outer loop
      vertex -5.01385 -4.60025 1
      vertex -5.01385 -21.9812 0
      vertex -5.01385 -21.9812 1
    endloop
  endfacet
  facet normal 0 -1 0
    outer loop
      vertex -5.01385 -21.9812 0
      vertex 6.72394 -21.9812 1
      vertex -5.01385 -21.9812 1
    endloop
  endfacet
  facet normal 0 -1 -0
    outer loop
      vertex 6.72394 -21.9812 1
      vertex -5.01385 -21.9812 0
      vertex 6.72394 -21.9812 0
    endloop
  endfacet
  facet normal 1 -0 0
    outer loop
      vertex 6.72394 -21.9812 1
      vertex 6.72394 -19.0437 0
      vertex 6.72394 -19.0437 1
    endloop
  endfacet
  facet normal 1 0 0
    outer loop
      vertex 6.72394 -19.0437 0
      vertex 6.72394 -21.9812 1
      vertex 6.72394 -21.9812 0
    endloop
  endfacet
endsolid OpenSCAD_Model
