solid OpenSCAD_Model
  facet normal 0 0 -1
    outer loop
      vertex 15.6458 -63.6471 0
      vertex 40.513 -84.9062 0
      vertex 21.5728 -84.9062 0
    endloop
  endfacet
  facet normal 0 0 -1
    outer loop
      vertex 11.6519 -49.3449 0
      vertex 40.513 -84.9062 0
      vertex 15.6458 -63.6471 0
    endloop
  endfacet
  facet normal 0 0 -1
    outer loop
      vertex 9.62529 -42.1969 0
      vertex 40.513 -84.9062 0
      vertex 11.6519 -49.3449 0
    endloop
  endfacet
  facet normal 0 0 -1
    outer loop
      vertex 15.6458 -63.6471 0
      vertex -9.73633 -49.3449 0
      vertex 11.6519 -49.3449 0
    endloop
  endfacet
  facet normal 0 0 -1
    outer loop
      vertex -13.7311 -63.6471 0
      vertex -9.73633 -49.3449 0
      vertex 15.6458 -63.6471 0
    endloop
  endfacet
  facet normal 0 0 -1
    outer loop
      vertex -38.6619 -84.9062 0
      vertex -9.73633 -49.3449 0
      vertex -13.7311 -63.6471 0
    endloop
  endfacet
  facet normal 0 0 -1
    outer loop
      vertex -38.6619 -84.9062 0
      vertex -13.7311 -63.6471 0
      vertex -19.6572 -84.9062 0
    endloop
  endfacet
  facet normal -0 0 -1
    outer loop
      vertex -9.73633 -49.3449 0
      vertex -38.6619 -84.9062 0
      vertex -10.123 1.99879 0
    endloop
  endfacet
  facet normal 0 0 -1
    outer loop
      vertex 40.513 -84.9062 0
      vertex 9.62529 -42.1969 0
      vertex 12.0377 1.99879 0
    endloop
  endfacet
  facet normal 0 0 -1
    outer loop
      vertex 7.85234 -35.9192 0
      vertex 12.0377 1.99879 0
      vertex 9.62529 -42.1969 0
    endloop
  endfacet
  facet normal 0 0 -1
    outer loop
      vertex 6.3331 -30.5118 0
      vertex 12.0377 1.99879 0
      vertex 7.85234 -35.9192 0
    endloop
  endfacet
  facet normal 0 0 -1
    outer loop
      vertex 5.06757 -25.9747 0
      vertex 12.0377 1.99879 0
      vertex 6.3331 -30.5118 0
    endloop
  endfacet
  facet normal 0 0 -1
    outer loop
      vertex 4.05574 -22.308 0
      vertex 12.0377 1.99879 0
      vertex 5.06757 -25.9747 0
    endloop
  endfacet
  facet normal 0 0 -1
    outer loop
      vertex 3.29762 -19.5116 0
      vertex 12.0377 1.99879 0
      vertex 4.05574 -22.308 0
    endloop
  endfacet
  facet normal 0 0 -1
    outer loop
      vertex 2.7932 -17.5854 0
      vertex 12.0377 1.99879 0
      vertex 3.29762 -19.5116 0
    endloop
  endfacet
  facet normal 0 0 -1
    outer loop
      vertex 2.43236 -16.1471 0
      vertex 12.0377 1.99879 0
      vertex 2.7932 -17.5854 0
    endloop
  endfacet
  facet normal 0 0 -1
    outer loop
      vertex 2.1044 -14.8139 0
      vertex 12.0377 1.99879 0
      vertex 2.43236 -16.1471 0
    endloop
  endfacet
  facet normal 0 0 -1
    outer loop
      vertex 1.80931 -13.586 0
      vertex 12.0377 1.99879 0
      vertex 2.1044 -14.8139 0
    endloop
  endfacet
  facet normal 0 0 -1
    outer loop
      vertex 1.54712 -12.4632 0
      vertex 12.0377 1.99879 0
      vertex 1.80931 -13.586 0
    endloop
  endfacet
  facet normal 0 0 -1
    outer loop
      vertex 1.31779 -11.4456 0
      vertex 12.0377 1.99879 0
      vertex 1.54712 -12.4632 0
    endloop
  endfacet
  facet normal 0 0 -1
    outer loop
      vertex 1.12135 -10.5333 0
      vertex 12.0377 1.99879 0
      vertex 1.31779 -11.4456 0
    endloop
  endfacet
  facet normal 0 0 -1
    outer loop
      vertex 0.957809 -9.72609 0
      vertex 12.0377 1.99879 0
      vertex 1.12135 -10.5333 0
    endloop
  endfacet
  facet normal 0 0 -1
    outer loop
      vertex -10.123 1.99879 0
      vertex 0.792679 -10.5537 0
      vertex 0.592072 -11.4905 0
    endloop
  endfacet
  facet normal 0 0 -1
    outer loop
      vertex -10.123 1.99879 0
      vertex 0.592072 -11.4905 0
      vertex 0.355988 -12.5364 0
    endloop
  endfacet
  facet normal 0 0 -1
    outer loop
      vertex -10.123 1.99879 0
      vertex 0.355988 -12.5364 0
      vertex 0.0844269 -13.6914 0
    endloop
  endfacet
  facet normal 0 0 -1
    outer loop
      vertex -10.123 1.99879 0
      vertex 0.0844269 -13.6914 0
      vertex -0.22261 -14.9556 0
    endloop
  endfacet
  facet normal 0 0 -1
    outer loop
      vertex -10.123 1.99879 0
      vertex -0.22261 -14.9556 0
      vertex -0.565125 -16.329 0
    endloop
  endfacet
  facet normal 0 0 -1
    outer loop
      vertex -10.123 1.99879 0
      vertex -0.565125 -16.329 0
      vertex -0.94313 -17.8115 0
    endloop
  endfacet
  facet normal 0 0 -1
    outer loop
      vertex -10.123 1.99879 0
      vertex -0.94313 -17.8115 0
      vertex -1.46179 -19.7724 0
    endloop
  endfacet
  facet normal 0 0 -1
    outer loop
      vertex -10.123 1.99879 0
      vertex -1.46179 -19.7724 0
      vertex -2.22629 -22.5812 0
    endloop
  endfacet
  facet normal 0 0 -1
    outer loop
      vertex -10.123 1.99879 0
      vertex -2.22629 -22.5812 0
      vertex -3.23662 -26.2379 0
    endloop
  endfacet
  facet normal 0 0 -1
    outer loop
      vertex -10.123 1.99879 0
      vertex -3.23662 -26.2379 0
      vertex -4.4928 -30.7427 0
    endloop
  endfacet
  facet normal 0 0 -1
    outer loop
      vertex -10.123 1.99879 0
      vertex -4.4928 -30.7427 0
      vertex -5.9948 -36.0955 0
    endloop
  endfacet
  facet normal 0 0 -1
    outer loop
      vertex -10.123 1.99879 0
      vertex -5.9948 -36.0955 0
      vertex -7.74265 -42.2962 0
    endloop
  endfacet
  facet normal 0 0 -1
    outer loop
      vertex -10.123 1.99879 0
      vertex -7.74265 -42.2962 0
      vertex -9.73633 -49.3449 0
    endloop
  endfacet
  facet normal 0 0 -1
    outer loop
      vertex 0.957809 -9.72609 0
      vertex -10.123 1.99879 0
      vertex 12.0377 1.99879 0
    endloop
  endfacet
  facet normal 0 0 -1
    outer loop
      vertex 0.792679 -10.5537 0
      vertex -10.123 1.99879 0
      vertex 0.957809 -9.72609 0
    endloop
  endfacet
  facet normal 0 0 1
    outer loop
      vertex 40.513 -84.9062 1
      vertex 9.62529 -42.1969 1
      vertex 11.6519 -49.3449 1
    endloop
  endfacet
  facet normal 0 0 1
    outer loop
      vertex 12.0377 1.99879 1
      vertex 7.85234 -35.9192 1
      vertex 9.62529 -42.1969 1
    endloop
  endfacet
  facet normal 0 0 1
    outer loop
      vertex 12.0377 1.99879 1
      vertex 6.3331 -30.5118 1
      vertex 7.85234 -35.9192 1
    endloop
  endfacet
  facet normal 0 0 1
    outer loop
      vertex 12.0377 1.99879 1
      vertex 5.06757 -25.9747 1
      vertex 6.3331 -30.5118 1
    endloop
  endfacet
  facet normal 0 0 1
    outer loop
      vertex 12.0377 1.99879 1
      vertex 4.05574 -22.308 1
      vertex 5.06757 -25.9747 1
    endloop
  endfacet
  facet normal 0 0 1
    outer loop
      vertex 12.0377 1.99879 1
      vertex 3.29762 -19.5116 1
      vertex 4.05574 -22.308 1
    endloop
  endfacet
  facet normal 0 0 1
    outer loop
      vertex 12.0377 1.99879 1
      vertex 2.7932 -17.5854 1
      vertex 3.29762 -19.5116 1
    endloop
  endfacet
  facet normal 0 0 1
    outer loop
      vertex 12.0377 1.99879 1
      vertex 2.43236 -16.1471 1
      vertex 2.7932 -17.5854 1
    endloop
  endfacet
  facet normal 0 0 1
    outer loop
      vertex 12.0377 1.99879 1
      vertex 2.1044 -14.8139 1
      vertex 2.43236 -16.1471 1
    endloop
  endfacet
  facet normal 0 0 1
    outer loop
      vertex 12.0377 1.99879 1
      vertex 1.80931 -13.586 1
      vertex 2.1044 -14.8139 1
    endloop
  endfacet
  facet normal 0 0 1
    outer loop
      vertex 12.0377 1.99879 1
      vertex 1.54712 -12.4632 1
      vertex 1.80931 -13.586 1
    endloop
  endfacet
  facet normal 0 0 1
    outer loop
      vertex 12.0377 1.99879 1
      vertex 1.31779 -11.4456 1
      vertex 1.54712 -12.4632 1
    endloop
  endfacet
  facet normal 0 0 1
    outer loop
      vertex 12.0377 1.99879 1
      vertex 1.12135 -10.5333 1
      vertex 1.31779 -11.4456 1
    endloop
  endfacet
  facet normal 0 0 1
    outer loop
      vertex 12.0377 1.99879 1
      vertex 0.957809 -9.72609 1
      vertex 1.12135 -10.5333 1
    endloop
  endfacet
  facet normal 0 0 1
    outer loop
      vertex -10.123 1.99879 1
      vertex 0.792679 -10.5537 1
      vertex 0.957809 -9.72609 1
    endloop
  endfacet
  facet normal 0 0 1
    outer loop
      vertex 0.792679 -10.5537 1
      vertex -10.123 1.99879 1
      vertex 0.592072 -11.4905 1
    endloop
  endfacet
  facet normal 0 0 1
    outer loop
      vertex 0.592072 -11.4905 1
      vertex -10.123 1.99879 1
      vertex 0.355988 -12.5364 1
    endloop
  endfacet
  facet normal 0 0 1
    outer loop
      vertex 0.355988 -12.5364 1
      vertex -10.123 1.99879 1
      vertex 0.0844269 -13.6914 1
    endloop
  endfacet
  facet normal 0 0 1
    outer loop
      vertex 0.0844269 -13.6914 1
      vertex -10.123 1.99879 1
      vertex -0.22261 -14.9556 1
    endloop
  endfacet
  facet normal 0 0 1
    outer loop
      vertex -0.22261 -14.9556 1
      vertex -10.123 1.99879 1
      vertex -0.565125 -16.329 1
    endloop
  endfacet
  facet normal 0 0 1
    outer loop
      vertex -0.565125 -16.329 1
      vertex -10.123 1.99879 1
      vertex -0.94313 -17.8115 1
    endloop
  endfacet
  facet normal 0 0 1
    outer loop
      vertex -0.94313 -17.8115 1
      vertex -10.123 1.99879 1
      vertex -1.46179 -19.7724 1
    endloop
  endfacet
  facet normal 0 0 1
    outer loop
      vertex -1.46179 -19.7724 1
      vertex -10.123 1.99879 1
      vertex -2.22629 -22.5812 1
    endloop
  endfacet
  facet normal 0 0 1
    outer loop
      vertex -2.22629 -22.5812 1
      vertex -10.123 1.99879 1
      vertex -3.23662 -26.2379 1
    endloop
  endfacet
  facet normal 0 0 1
    outer loop
      vertex -3.23662 -26.2379 1
      vertex -10.123 1.99879 1
      vertex -4.4928 -30.7427 1
    endloop
  endfacet
  facet normal 0 0 1
    outer loop
      vertex -4.4928 -30.7427 1
      vertex -10.123 1.99879 1
      vertex -5.9948 -36.0955 1
    endloop
  endfacet
  facet normal 0 0 1
    outer loop
      vertex -5.9948 -36.0955 1
      vertex -10.123 1.99879 1
      vertex -7.74265 -42.2962 1
    endloop
  endfacet
  facet normal 0 0 1
    outer loop
      vertex -38.6619 -84.9062 1
      vertex -7.74265 -42.2962 1
      vertex -10.123 1.99879 1
    endloop
  endfacet
  facet normal -0 0 1
    outer loop
      vertex -10.123 1.99879 1
      vertex 0.957809 -9.72609 1
      vertex 12.0377 1.99879 1
    endloop
  endfacet
  facet normal 0 0 1
    outer loop
      vertex 40.513 -84.9062 1
      vertex 15.6458 -63.6471 1
      vertex 21.5728 -84.9062 1
    endloop
  endfacet
  facet normal -0 0 1
    outer loop
      vertex 9.62529 -42.1969 1
      vertex 40.513 -84.9062 1
      vertex 12.0377 1.99879 1
    endloop
  endfacet
  facet normal 0 0 1
    outer loop
      vertex 40.513 -84.9062 1
      vertex 11.6519 -49.3449 1
      vertex 15.6458 -63.6471 1
    endloop
  endfacet
  facet normal -0 0 1
    outer loop
      vertex -9.73633 -49.3449 1
      vertex 15.6458 -63.6471 1
      vertex 11.6519 -49.3449 1
    endloop
  endfacet
  facet normal 0 0 1
    outer loop
      vertex -9.73633 -49.3449 1
      vertex -13.7311 -63.6471 1
      vertex 15.6458 -63.6471 1
    endloop
  endfacet
  facet normal 0 0 1
    outer loop
      vertex -7.74265 -42.2962 1
      vertex -38.6619 -84.9062 1
      vertex -9.73633 -49.3449 1
    endloop
  endfacet
  facet normal 0 0 1
    outer loop
      vertex -9.73633 -49.3449 1
      vertex -38.6619 -84.9062 1
      vertex -13.7311 -63.6471 1
    endloop
  endfacet
  facet normal 0 0 1
    outer loop
      vertex -13.7311 -63.6471 1
      vertex -38.6619 -84.9062 1
      vertex -19.6572 -84.9062 1
    endloop
  endfacet
  facet normal 0 -1 0
    outer loop
      vertex -13.7311 -63.6471 0
      vertex 15.6458 -63.6471 1
      vertex -13.7311 -63.6471 1
    endloop
  endfacet
  facet normal 0 -1 -0
    outer loop
      vertex 15.6458 -63.6471 1
      vertex -13.7311 -63.6471 0
      vertex 15.6458 -63.6471 0
    endloop
  endfacet
  facet normal -0.963264 -0.268556 0
    outer loop
      vertex 21.5728 -84.9062 0
      vertex 15.6458 -63.6471 1
      vertex 15.6458 -63.6471 0
    endloop
  endfacet
  facet normal -0.963264 -0.268556 0
    outer loop
      vertex 15.6458 -63.6471 1
      vertex 21.5728 -84.9062 0
      vertex 21.5728 -84.9062 1
    endloop
  endfacet
  facet normal 0 -1 0
    outer loop
      vertex 21.5728 -84.9062 0
      vertex 40.513 -84.9062 1
      vertex 21.5728 -84.9062 1
    endloop
  endfacet
  facet normal 0 -1 -0
    outer loop
      vertex 40.513 -84.9062 1
      vertex 21.5728 -84.9062 0
      vertex 40.513 -84.9062 0
    endloop
  endfacet
  facet normal 0.950288 0.311372 0
    outer loop
      vertex 40.513 -84.9062 1
      vertex 12.0377 1.99879 0
      vertex 12.0377 1.99879 1
    endloop
  endfacet
  facet normal 0.950288 0.311372 0
    outer loop
      vertex 12.0377 1.99879 0
      vertex 40.513 -84.9062 1
      vertex 40.513 -84.9062 0
    endloop
  endfacet
  facet normal 0 1 -0
    outer loop
      vertex 12.0377 1.99879 0
      vertex -10.123 1.99879 1
      vertex 12.0377 1.99879 1
    endloop
  endfacet
  facet normal 0 1 0
    outer loop
      vertex -10.123 1.99879 1
      vertex 12.0377 1.99879 0
      vertex -10.123 1.99879 0
    endloop
  endfacet
  facet normal -0.950082 0.311999 0
    outer loop
      vertex -38.6619 -84.9062 0
      vertex -10.123 1.99879 1
      vertex -10.123 1.99879 0
    endloop
  endfacet
  facet normal -0.950082 0.311999 0
    outer loop
      vertex -10.123 1.99879 1
      vertex -38.6619 -84.9062 0
      vertex -38.6619 -84.9062 1
    endloop
  endfacet
  facet normal 0 -1 0
    outer loop
      vertex -38.6619 -84.9062 0
      vertex -19.6572 -84.9062 1
      vertex -38.6619 -84.9062 1
    endloop
  endfacet
  facet normal 0 -1 -0
    outer loop
      vertex -19.6572 -84.9062 1
      vertex -38.6619 -84.9062 0
      vertex -19.6572 -84.9062 0
    endloop
  endfacet
  facet normal 0.963275 -0.268518 0
    outer loop
      vertex -19.6572 -84.9062 1
      vertex -13.7311 -63.6471 0
      vertex -13.7311 -63.6471 1
    endloop
  endfacet
  facet normal 0.963275 -0.268518 0
    outer loop
      vertex -13.7311 -63.6471 0
      vertex -19.6572 -84.9062 1
      vertex -19.6572 -84.9062 0
    endloop
  endfacet
  facet normal 0.96225 -0.272166 0
    outer loop
      vertex -9.73633 -49.3449 1
      vertex -7.74265 -42.2962 0
      vertex -7.74265 -42.2962 1
    endloop
  endfacet
  facet normal 0.96225 -0.272166 0
    outer loop
      vertex -7.74265 -42.2962 0
      vertex -9.73633 -49.3449 1
      vertex -9.73633 -49.3449 0
    endloop
  endfacet
  facet normal 0.962493 -0.271307 0
    outer loop
      vertex -7.74265 -42.2962 1
      vertex -5.9948 -36.0955 0
      vertex -5.9948 -36.0955 1
    endloop
  endfacet
  facet normal 0.962493 -0.271307 0
    outer loop
      vertex -5.9948 -36.0955 0
      vertex -7.74265 -42.2962 1
      vertex -7.74265 -42.2962 0
    endloop
  endfacet
  facet normal 0.962814 -0.270166 0
    outer loop
      vertex -5.9948 -36.0955 1
      vertex -4.4928 -30.7427 0
      vertex -4.4928 -30.7427 1
    endloop
  endfacet
  facet normal 0.962814 -0.270166 0
    outer loop
      vertex -4.4928 -30.7427 0
      vertex -5.9948 -36.0955 1
      vertex -5.9948 -36.0955 0
    endloop
  endfacet
  facet normal 0.96325 -0.268606 0
    outer loop
      vertex -4.4928 -30.7427 1
      vertex -3.23662 -26.2379 0
      vertex -3.23662 -26.2379 1
    endloop
  endfacet
  facet normal 0.96325 -0.268606 0
    outer loop
      vertex -3.23662 -26.2379 0
      vertex -4.4928 -30.7427 1
      vertex -4.4928 -30.7427 0
    endloop
  endfacet
  facet normal 0.963885 -0.266317 0
    outer loop
      vertex -3.23662 -26.2379 1
      vertex -2.22629 -22.5812 0
      vertex -2.22629 -22.5812 1
    endloop
  endfacet
  facet normal 0.963885 -0.266317 0
    outer loop
      vertex -2.22629 -22.5812 0
      vertex -3.23662 -26.2379 1
      vertex -3.23662 -26.2379 0
    endloop
  endfacet
  facet normal 0.964898 -0.262626 0
    outer loop
      vertex -2.22629 -22.5812 1
      vertex -1.46179 -19.7724 0
      vertex -1.46179 -19.7724 1
    endloop
  endfacet
  facet normal 0.964898 -0.262626 0
    outer loop
      vertex -1.46179 -19.7724 0
      vertex -2.22629 -22.5812 1
      vertex -2.22629 -22.5812 0
    endloop
  endfacet
  facet normal 0.966754 -0.255707 0
    outer loop
      vertex -1.46179 -19.7724 1
      vertex -0.94313 -17.8115 0
      vertex -0.94313 -17.8115 1
    endloop
  endfacet
  facet normal 0.966754 -0.255707 0
    outer loop
      vertex -0.94313 -17.8115 0
      vertex -1.46179 -19.7724 1
      vertex -1.46179 -19.7724 0
    endloop
  endfacet
  facet normal 0.968997 -0.247073 0
    outer loop
      vertex -0.94313 -17.8115 1
      vertex -0.565125 -16.329 0
      vertex -0.565125 -16.329 1
    endloop
  endfacet
  facet normal 0.968997 -0.247073 0
    outer loop
      vertex -0.565125 -16.329 0
      vertex -0.94313 -17.8115 1
      vertex -0.94313 -17.8115 0
    endloop
  endfacet
  facet normal 0.970281 -0.24198 0
    outer loop
      vertex -0.565125 -16.329 1
      vertex -0.22261 -14.9556 0
      vertex -0.22261 -14.9556 1
    endloop
  endfacet
  facet normal 0.970281 -0.24198 0
    outer loop
      vertex -0.22261 -14.9556 0
      vertex -0.565125 -16.329 1
      vertex -0.565125 -16.329 0
    endloop
  endfacet
  facet normal 0.971751 -0.23601 0
    outer loop
      vertex -0.22261 -14.9556 1
      vertex 0.0844269 -13.6914 0
      vertex 0.0844269 -13.6914 1
    endloop
  endfacet
  facet normal 0.971751 -0.23601 0
    outer loop
      vertex 0.0844269 -13.6914 0
      vertex -0.22261 -14.9556 1
      vertex -0.22261 -14.9556 0
    endloop
  endfacet
  facet normal 0.973455 -0.228877 0
    outer loop
      vertex 0.0844269 -13.6914 1
      vertex 0.355988 -12.5364 0
      vertex 0.355988 -12.5364 1
    endloop
  endfacet
  facet normal 0.973455 -0.228877 0
    outer loop
      vertex 0.355988 -12.5364 0
      vertex 0.0844269 -13.6914 1
      vertex 0.0844269 -13.6914 0
    endloop
  endfacet
  facet normal 0.975458 -0.220184 0
    outer loop
      vertex 0.355988 -12.5364 1
      vertex 0.592072 -11.4905 0
      vertex 0.592072 -11.4905 1
    endloop
  endfacet
  facet normal 0.975458 -0.220184 0
    outer loop
      vertex 0.592072 -11.4905 0
      vertex 0.355988 -12.5364 1
      vertex 0.355988 -12.5364 0
    endloop
  endfacet
  facet normal 0.977831 -0.209394 0
    outer loop
      vertex 0.592072 -11.4905 1
      vertex 0.792679 -10.5537 0
      vertex 0.792679 -10.5537 1
    endloop
  endfacet
  facet normal 0.977831 -0.209394 0
    outer loop
      vertex 0.792679 -10.5537 0
      vertex 0.592072 -11.4905 1
      vertex 0.592072 -11.4905 0
    endloop
  endfacet
  facet normal 0.98067 -0.195669 0
    outer loop
      vertex 0.792679 -10.5537 1
      vertex 0.957809 -9.72609 0
      vertex 0.957809 -9.72609 1
    endloop
  endfacet
  facet normal 0.98067 -0.195669 0
    outer loop
      vertex 0.957809 -9.72609 0
      vertex 0.792679 -10.5537 1
      vertex 0.792679 -10.5537 0
    endloop
  endfacet
  facet normal -0.980088 -0.198566 0
    outer loop
      vertex 1.12135 -10.5333 0
      vertex 0.957809 -9.72609 1
      vertex 0.957809 -9.72609 0
    endloop
  endfacet
  facet normal -0.980088 -0.198566 0
    outer loop
      vertex 0.957809 -9.72609 1
      vertex 1.12135 -10.5333 0
      vertex 1.12135 -10.5333 1
    endloop
  endfacet
  facet normal -0.977594 -0.210499 0
    outer loop
      vertex 1.31779 -11.4456 0
      vertex 1.12135 -10.5333 1
      vertex 1.12135 -10.5333 0
    endloop
  endfacet
  facet normal -0.977594 -0.210499 0
    outer loop
      vertex 1.12135 -10.5333 1
      vertex 1.31779 -11.4456 0
      vertex 1.31779 -11.4456 1
    endloop
  endfacet
  facet normal -0.975534 -0.21985 0
    outer loop
      vertex 1.54712 -12.4632 0
      vertex 1.31779 -11.4456 1
      vertex 1.31779 -11.4456 0
    endloop
  endfacet
  facet normal -0.975534 -0.21985 0
    outer loop
      vertex 1.31779 -11.4456 1
      vertex 1.54712 -12.4632 0
      vertex 1.54712 -12.4632 1
    endloop
  endfacet
  facet normal -0.973802 -0.227397 0
    outer loop
      vertex 1.80931 -13.586 0
      vertex 1.54712 -12.4632 1
      vertex 1.54712 -12.4632 0
    endloop
  endfacet
  facet normal -0.973802 -0.227397 0
    outer loop
      vertex 1.54712 -12.4632 1
      vertex 1.80931 -13.586 0
      vertex 1.80931 -13.586 1
    endloop
  endfacet
  facet normal -0.972316 -0.233668 0
    outer loop
      vertex 2.1044 -14.8139 0
      vertex 1.80931 -13.586 1
      vertex 1.80931 -13.586 0
    endloop
  endfacet
  facet normal -0.972316 -0.233668 0
    outer loop
      vertex 1.80931 -13.586 1
      vertex 2.1044 -14.8139 0
      vertex 2.1044 -14.8139 1
    endloop
  endfacet
  facet normal -0.971051 -0.238873 0
    outer loop
      vertex 2.43236 -16.1471 0
      vertex 2.1044 -14.8139 1
      vertex 2.1044 -14.8139 0
    endloop
  endfacet
  facet normal -0.971051 -0.238873 0
    outer loop
      vertex 2.1044 -14.8139 1
      vertex 2.43236 -16.1471 0
      vertex 2.43236 -16.1471 1
    endloop
  endfacet
  facet normal -0.969941 -0.243338 0
    outer loop
      vertex 2.7932 -17.5854 0
      vertex 2.43236 -16.1471 1
      vertex 2.43236 -16.1471 0
    endloop
  endfacet
  facet normal -0.969941 -0.243338 0
    outer loop
      vertex 2.43236 -16.1471 1
      vertex 2.7932 -17.5854 0
      vertex 2.7932 -17.5854 1
    endloop
  endfacet
  facet normal -0.96738 -0.253331 0
    outer loop
      vertex 3.29762 -19.5116 0
      vertex 2.7932 -17.5854 1
      vertex 2.7932 -17.5854 0
    endloop
  endfacet
  facet normal -0.96738 -0.253331 0
    outer loop
      vertex 2.7932 -17.5854 1
      vertex 3.29762 -19.5116 0
      vertex 3.29762 -19.5116 1
    endloop
  endfacet
  facet normal -0.96516 -0.26166 0
    outer loop
      vertex 4.05574 -22.308 0
      vertex 3.29762 -19.5116 1
      vertex 3.29762 -19.5116 0
    endloop
  endfacet
  facet normal -0.96516 -0.26166 0
    outer loop
      vertex 3.29762 -19.5116 1
      vertex 4.05574 -22.308 0
      vertex 4.05574 -22.308 1
    endloop
  endfacet
  facet normal -0.963971 -0.266009 0
    outer loop
      vertex 5.06757 -25.9747 0
      vertex 4.05574 -22.308 1
      vertex 4.05574 -22.308 0
    endloop
  endfacet
  facet normal -0.963971 -0.266009 0
    outer loop
      vertex 4.05574 -22.308 1
      vertex 5.06757 -25.9747 0
      vertex 5.06757 -25.9747 1
    endloop
  endfacet
  facet normal -0.963231 -0.268673 0
    outer loop
      vertex 6.3331 -30.5118 0
      vertex 5.06757 -25.9747 1
      vertex 5.06757 -25.9747 0
    endloop
  endfacet
  facet normal -0.963231 -0.268673 0
    outer loop
      vertex 5.06757 -25.9747 1
      vertex 6.3331 -30.5118 0
      vertex 6.3331 -30.5118 1
    endloop
  endfacet
  facet normal -0.962725 -0.270483 0
    outer loop
      vertex 7.85234 -35.9192 0
      vertex 6.3331 -30.5118 1
      vertex 6.3331 -30.5118 0
    endloop
  endfacet
  facet normal -0.962725 -0.270483 0
    outer loop
      vertex 6.3331 -30.5118 1
      vertex 7.85234 -35.9192 0
      vertex 7.85234 -35.9192 1
    endloop
  endfacet
  facet normal -0.962357 -0.271789 0
    outer loop
      vertex 9.62529 -42.1969 0
      vertex 7.85234 -35.9192 1
      vertex 7.85234 -35.9192 0
    endloop
  endfacet
  facet normal -0.962357 -0.271789 0
    outer loop
      vertex 7.85234 -35.9192 1
      vertex 9.62529 -42.1969 0
      vertex 9.62529 -42.1969 1
    endloop
  endfacet
  facet normal -0.962079 -0.27277 0
    outer loop
      vertex 11.6519 -49.3449 0
      vertex 9.62529 -42.1969 1
      vertex 9.62529 -42.1969 0
    endloop
  endfacet
  facet normal -0.962079 -0.27277 0
    outer loop
      vertex 9.62529 -42.1969 1
      vertex 11.6519 -49.3449 0
      vertex 11.6519 -49.3449 1
    endloop
  endfacet
  facet normal 0 1 -0
    outer loop
      vertex 11.6519 -49.3449 0
      vertex -9.73633 -49.3449 1
      vertex 11.6519 -49.3449 1
    endloop
  endfacet
  facet normal 0 1 0
    outer loop
      vertex -9.73633 -49.3449 1
      vertex 11.6519 -49.3449 0
      vertex -9.73633 -49.3449 0
    endloop
  endfacet
endsolid OpenSCAD_Model
