<?xml version="1.0" standalone="no"?>
<!DOCTYPE svg PUBLIC "-//W3C//DTD SVG 1.1//EN" "http://www.w3.org/Graphics/SVG/1.1/DTD/svg11.dtd">
<svg width="80mm" height="87mm" viewBox="-39 -2 80 87" xmlns="http://www.w3.org/2000/svg" version="1.1">
<title>OpenSCAD Model</title>
<path d="
M -13.7311,63.6471 L 15.6458,63.6471 L 21.5728,84.9062 L 40.513,84.9062 L 12.0377,-1.99879 L -10.123,-1.99879
 L -38.6619,84.9062 L -19.6572,84.9062 z
M -9.73633,49.3449 L -7.74265,42.2962 L -5.9948,36.0955 L -4.4928,30.7427 L -3.23662,26.2379 L -2.22629,22.5812
 L -1.46179,19.7724 L -0.94313,17.8115 L -0.565125,16.329 L -0.22261,14.9556 L 0.0844269,13.6914 L 0.355988,12.5364
 L 0.592072,11.4905 L 0.792679,10.5537 L 0.957809,9.72609 L 1.12135,10.5333 L 1.31779,11.4456 L 1.54712,12.4632
 L 1.80931,13.586 L 2.1044,14.8139 L 2.43236,16.1471 L 2.7932,17.5854 L 3.29762,19.5116 L 4.05574,22.308
 L 5.06757,25.9747 L 6.3331,30.5118 L 7.85234,35.9192 L 9.62529,42.1969 L 11.6519,49.3449 z
" stroke="black" fill="lightgray" stroke-width="0.5"/>
</svg>
