  0
SECTION
  2
BLOCKS
  0
ENDSEC
  0
SECTION
  2
ENTITIES
  0
LINE
  8
0
 10
-13.7311
 20
-63.6471
 11
15.6458
 21
-63.6471
  0
LINE
  8
0
 10
15.6458
 20
-63.6471
 11
21.5728
 21
-84.9062
  0
LINE
  8
0
 10
21.5728
 20
-84.9062
 11
40.513
 21
-84.9062
  0
LINE
  8
0
 10
40.513
 20
-84.9062
 11
12.0377
 21
1.99879
  0
LINE
  8
0
 10
12.0377
 20
1.99879
 11
-10.123
 21
1.99879
  0
LINE
  8
0
 10
-10.123
 20
1.99879
 11
-38.6619
 21
-84.9062
  0
LINE
  8
0
 10
-38.6619
 20
-84.9062
 11
-19.6572
 21
-84.9062
  0
LINE
  8
0
 10
-19.6572
 20
-84.9062
 11
-13.7311
 21
-63.6471
  0
LINE
  8
0
 10
-9.73633
 20
-49.3449
 11
-7.74265
 21
-42.2962
  0
LINE
  8
0
 10
-7.74265
 20
-42.2962
 11
-5.9948
 21
-36.0955
  0
LINE
  8
0
 10
-5.9948
 20
-36.0955
 11
-4.4928
 21
-30.7427
  0
LINE
  8
0
 10
-4.4928
 20
-30.7427
 11
-3.23662
 21
-26.2379
  0
LINE
  8
0
 10
-3.23662
 20
-26.2379
 11
-2.22629
 21
-22.5812
  0
LINE
  8
0
 10
-2.22629
 20
-22.5812
 11
-1.46179
 21
-19.7724
  0
LINE
  8
0
 10
-1.46179
 20
-19.7724
 11
-0.94313
 21
-17.8115
  0
LINE
  8
0
 10
-0.94313
 20
-17.8115
 11
-0.565125
 21
-16.329
  0
LINE
  8
0
 10
-0.565125
 20
-16.329
 11
-0.22261
 21
-14.9556
  0
LINE
  8
0
 10
-0.22261
 20
-14.9556
 11
0.0844269
 21
-13.6914
  0
LINE
  8
0
 10
0.0844269
 20
-13.6914
 11
0.355988
 21
-12.5364
  0
LINE
  8
0
 10
0.355988
 20
-12.5364
 11
0.592072
 21
-11.4905
  0
LINE
  8
0
 10
0.592072
 20
-11.4905
 11
0.792679
 21
-10.5537
  0
LINE
  8
0
 10
0.792679
 20
-10.5537
 11
0.957809
 21
-9.72609
  0
LINE
  8
0
 10
0.957809
 20
-9.72609
 11
1.12135
 21
-10.5333
  0
LINE
  8
0
 10
1.12135
 20
-10.5333
 11
1.31779
 21
-11.4456
  0
LINE
  8
0
 10
1.31779
 20
-11.4456
 11
1.54712
 21
-12.4632
  0
LINE
  8
0
 10
1.54712
 20
-12.4632
 11
1.80931
 21
-13.586
  0
LINE
  8
0
 10
1.80931
 20
-13.586
 11
2.1044
 21
-14.8139
  0
LINE
  8
0
 10
2.1044
 20
-14.8139
 11
2.43236
 21
-16.1471
  0
LINE
  8
0
 10
2.43236
 20
-16.1471
 11
2.7932
 21
-17.5854
  0
LINE
  8
0
 10
2.7932
 20
-17.5854
 11
3.29762
 21
-19.5116
  0
LINE
  8
0
 10
3.29762
 20
-19.5116
 11
4.05574
 21
-22.308
  0
LINE
  8
0
 10
4.05574
 20
-22.308
 11
5.06757
 21
-25.9747
  0
LINE
  8
0
 10
5.06757
 20
-25.9747
 11
6.3331
 21
-30.5118
  0
LINE
  8
0
 10
6.3331
 20
-30.5118
 11
7.85234
 21
-35.9192
  0
LINE
  8
0
 10
7.85234
 20
-35.9192
 11
9.62529
 21
-42.1969
  0
LINE
  8
0
 10
9.62529
 20
-42.1969
 11
11.6519
 21
-49.3449
  0
LINE
  8
0
 10
11.6519
 20
-49.3449
 11
-9.73633
 21
-49.3449
  0
ENDSEC
  0
SECTION
  2
OBJECTS
  0
DICTIONARY
  0
ENDSEC
  0
EOF
