  0
SECTION
  2
BLOCKS
  0
ENDSEC
  0
SECTION
  2
ENTITIES
  0
LINE
  8
0
 10
-2.44061
 20
-43.8837
 11
-0.739731
 21
-37.0425
  0
LINE
  8
0
 10
-0.739731
 20
-37.0425
 11
0.613434
 21
-31.3602
  0
LINE
  8
0
 10
0.613434
 20
-31.3602
 11
1.063
 21
-33.3551
  0
LINE
  8
0
 10
1.063
 20
-33.3551
 11
1.52837
 21
-35.3643
  0
LINE
  8
0
 10
1.52837
 20
-35.3643
 11
2.00954
 21
-37.3877
  0
LINE
  8
0
 10
2.00954
 20
-37.3877
 11
2.50648
 21
-39.4253
  0
LINE
  8
0
 10
2.50648
 20
-39.4253
 11
3.01924
 21
-41.4771
  0
LINE
  8
0
 10
3.01924
 20
-41.4771
 11
3.54781
 21
-43.5431
  0
LINE
  8
0
 10
3.54781
 20
-43.5431
 11
4.09215
 21
-45.6233
  0
LINE
  8
0
 10
4.09215
 20
-45.6233
 11
6.56595
 21
-55.9437
  0
LINE
  8
0
 10
6.56595
 20
-55.9437
 11
16.1516
 21
-55.9437
  0
LINE
  8
0
 10
16.1516
 20
-55.9437
 11
24.269
 21
-3.80072
  0
LINE
  8
0
 10
24.269
 20
-3.80072
 11
14.2575
 21
-3.80072
  0
LINE
  8
0
 10
14.2575
 20
-3.80072
 11
11.0108
 21
-30.6648
  0
LINE
  8
0
 10
11.0108
 20
-30.6648
 11
10.9035
 21
-31.5916
  0
LINE
  8
0
 10
10.9035
 20
-31.5916
 11
10.8026
 21
-32.6494
  0
LINE
  8
0
 10
10.8026
 20
-32.6494
 11
10.7079
 21
-33.8382
  0
LINE
  8
0
 10
10.7079
 20
-33.8382
 11
10.6196
 21
-35.1579
  0
LINE
  8
0
 10
10.6196
 20
-35.1579
 11
10.5375
 21
-36.6086
  0
LINE
  8
0
 10
10.5375
 20
-36.6086
 11
10.4618
 21
-38.1902
  0
LINE
  8
0
 10
10.4618
 20
-38.1902
 11
10.3924
 21
-39.9028
  0
LINE
  8
0
 10
10.3924
 20
-39.9028
 11
10.3148
 21
-40.9465
  0
LINE
  8
0
 10
10.3148
 20
-40.9465
 11
10.0716
 21
-39.7636
  0
LINE
  8
0
 10
10.0716
 20
-39.7636
 11
9.84958
 21
-38.6888
  0
LINE
  8
0
 10
9.84958
 20
-38.6888
 11
9.64885
 21
-37.7221
  0
LINE
  8
0
 10
9.64885
 20
-37.7221
 11
9.46938
 21
-36.8634
  0
LINE
  8
0
 10
9.46938
 20
-36.8634
 11
9.31117
 21
-36.1128
  0
LINE
  8
0
 10
9.31117
 20
-36.1128
 11
9.17424
 21
-35.4703
  0
LINE
  8
0
 10
9.17424
 20
-35.4703
 11
9.05856
 21
-34.9358
  0
LINE
  8
0
 10
9.05856
 20
-34.9358
 11
8.95093
 21
-34.4542
  0
LINE
  8
0
 10
8.95093
 20
-34.4542
 11
8.83777
 21
-33.9702
  0
LINE
  8
0
 10
8.83777
 20
-33.9702
 11
8.7191
 21
-33.4839
  0
LINE
  8
0
 10
8.7191
 20
-33.4839
 11
8.59492
 21
-32.9951
  0
LINE
  8
0
 10
8.59492
 20
-32.9951
 11
8.46524
 21
-32.504
  0
LINE
  8
0
 10
8.46524
 20
-32.504
 11
8.33003
 21
-32.0105
  0
LINE
  8
0
 10
8.33003
 20
-32.0105
 11
8.18932
 21
-31.5147
  0
LINE
  8
0
 10
8.18932
 20
-31.5147
 11
4.36234
 21
-18.4115
  0
LINE
  8
0
 10
4.36234
 20
-18.4115
 11
-3.17476
 21
-18.4115
  0
LINE
  8
0
 10
-3.17476
 20
-18.4115
 11
-7.00174
 21
-31.5147
  0
LINE
  8
0
 10
-7.00174
 20
-31.5147
 11
-8.54759
 21
-38.0087
  0
LINE
  8
0
 10
-8.54759
 20
-38.0087
 11
-9.12727
 21
-40.9465
  0
LINE
  8
0
 10
-9.12727
 20
-40.9465
 11
-9.17772
 21
-39.1274
  0
LINE
  8
0
 10
-9.17772
 20
-39.1274
 11
-9.24081
 21
-37.4251
  0
LINE
  8
0
 10
-9.24081
 20
-37.4251
 11
-9.31653
 21
-35.8396
  0
LINE
  8
0
 10
-9.31653
 20
-35.8396
 11
-9.40488
 21
-34.3708
  0
LINE
  8
0
 10
-9.40488
 20
-34.3708
 11
-9.50586
 21
-33.0187
  0
LINE
  8
0
 10
-9.50586
 20
-33.0187
 11
-9.61948
 21
-31.7834
  0
LINE
  8
0
 10
-9.61948
 20
-31.7834
 11
-9.74573
 21
-30.6648
  0
LINE
  8
0
 10
-9.74573
 20
-30.6648
 11
-13.1862
 21
-3.80072
  0
LINE
  8
0
 10
-13.1862
 20
-3.80072
 11
-23.1972
 21
-3.80072
  0
LINE
  8
0
 10
-23.1972
 20
-3.80072
 11
-15.0416
 21
-55.9437
  0
LINE
  8
0
 10
-15.0416
 20
-55.9437
 11
-5.45534
 21
-55.9437
  0
LINE
  8
0
 10
-5.45534
 20
-55.9437
 11
-2.44061
 21
-43.8837
  0
ENDSEC
  0
SECTION
  2
OBJECTS
  0
DICTIONARY
  0
ENDSEC
  0
EOF
