solid OpenSCAD_Model
  facet normal 0 0 -1
    outer loop
      vertex 11.0108 -30.6648 0
      vertex 24.269 -3.80072 0
      vertex 16.1516 -55.9437 0
    endloop
  endfacet
  facet normal -0 0 -1
    outer loop
      vertex 24.269 -3.80072 0
      vertex 11.0108 -30.6648 0
      vertex 14.2575 -3.80072 0
    endloop
  endfacet
  facet normal 0 0 -1
    outer loop
      vertex 16.1516 -55.9437 0
      vertex 10.9035 -31.5916 0
      vertex 11.0108 -30.6648 0
    endloop
  endfacet
  facet normal 0 0 -1
    outer loop
      vertex 16.1516 -55.9437 0
      vertex 10.8026 -32.6494 0
      vertex 10.9035 -31.5916 0
    endloop
  endfacet
  facet normal 0 0 -1
    outer loop
      vertex 16.1516 -55.9437 0
      vertex 10.7079 -33.8382 0
      vertex 10.8026 -32.6494 0
    endloop
  endfacet
  facet normal 0 0 -1
    outer loop
      vertex 16.1516 -55.9437 0
      vertex 10.6196 -35.1579 0
      vertex 10.7079 -33.8382 0
    endloop
  endfacet
  facet normal 0 0 -1
    outer loop
      vertex 16.1516 -55.9437 0
      vertex 10.5375 -36.6086 0
      vertex 10.6196 -35.1579 0
    endloop
  endfacet
  facet normal 0 0 -1
    outer loop
      vertex 16.1516 -55.9437 0
      vertex 10.4618 -38.1902 0
      vertex 10.5375 -36.6086 0
    endloop
  endfacet
  facet normal 0 0 -1
    outer loop
      vertex 16.1516 -55.9437 0
      vertex 10.3924 -39.9028 0
      vertex 10.4618 -38.1902 0
    endloop
  endfacet
  facet normal 0 0 -1
    outer loop
      vertex 16.1516 -55.9437 0
      vertex 10.3148 -40.9465 0
      vertex 10.3924 -39.9028 0
    endloop
  endfacet
  facet normal 0 0 -1
    outer loop
      vertex 3.01924 -41.4771 0
      vertex 10.0716 -39.7636 0
      vertex 10.3148 -40.9465 0
    endloop
  endfacet
  facet normal -0 0 -1
    outer loop
      vertex 10.0716 -39.7636 0
      vertex 3.01924 -41.4771 0
      vertex 9.84958 -38.6888 0
    endloop
  endfacet
  facet normal 0 0 -1
    outer loop
      vertex 2.50648 -39.4253 0
      vertex 9.84958 -38.6888 0
      vertex 3.01924 -41.4771 0
    endloop
  endfacet
  facet normal -0 0 -1
    outer loop
      vertex 9.84958 -38.6888 0
      vertex 2.50648 -39.4253 0
      vertex 9.64885 -37.7221 0
    endloop
  endfacet
  facet normal 0 0 -1
    outer loop
      vertex 2.00954 -37.3877 0
      vertex 9.46938 -36.8634 0
      vertex 2.50648 -39.4253 0
    endloop
  endfacet
  facet normal -0 0 -1
    outer loop
      vertex 9.46938 -36.8634 0
      vertex 2.00954 -37.3877 0
      vertex 9.31117 -36.1128 0
    endloop
  endfacet
  facet normal -0 0 -1
    outer loop
      vertex 9.31117 -36.1128 0
      vertex 2.00954 -37.3877 0
      vertex 9.17424 -35.4703 0
    endloop
  endfacet
  facet normal -0 0 -1
    outer loop
      vertex 9.17424 -35.4703 0
      vertex 2.00954 -37.3877 0
      vertex 9.05856 -34.9358 0
    endloop
  endfacet
  facet normal -0 0 -1
    outer loop
      vertex 9.05856 -34.9358 0
      vertex 2.00954 -37.3877 0
      vertex 8.95093 -34.4542 0
    endloop
  endfacet
  facet normal 0 0 -1
    outer loop
      vertex 1.52837 -35.3643 0
      vertex 8.95093 -34.4542 0
      vertex 2.00954 -37.3877 0
    endloop
  endfacet
  facet normal -0 0 -1
    outer loop
      vertex 8.95093 -34.4542 0
      vertex 1.52837 -35.3643 0
      vertex 8.83777 -33.9702 0
    endloop
  endfacet
  facet normal -0 0 -1
    outer loop
      vertex 8.7191 -33.4839 0
      vertex 1.52837 -35.3643 0
      vertex 8.59492 -32.9951 0
    endloop
  endfacet
  facet normal -0 0 -1
    outer loop
      vertex 8.59492 -32.9951 0
      vertex 1.52837 -35.3643 0
      vertex 8.46524 -32.504 0
    endloop
  endfacet
  facet normal 0 0 -1
    outer loop
      vertex 4.09215 -45.6233 0
      vertex 16.1516 -55.9437 0
      vertex 6.56595 -55.9437 0
    endloop
  endfacet
  facet normal 0 0 -1
    outer loop
      vertex 16.1516 -55.9437 0
      vertex 4.09215 -45.6233 0
      vertex 10.3148 -40.9465 0
    endloop
  endfacet
  facet normal 0 0 -1
    outer loop
      vertex 3.54781 -43.5431 0
      vertex 10.3148 -40.9465 0
      vertex 4.09215 -45.6233 0
    endloop
  endfacet
  facet normal 0 0 -1
    outer loop
      vertex 3.01924 -41.4771 0
      vertex 10.3148 -40.9465 0
      vertex 3.54781 -43.5431 0
    endloop
  endfacet
  facet normal -0 0 -1
    outer loop
      vertex 9.64885 -37.7221 0
      vertex 2.50648 -39.4253 0
      vertex 9.46938 -36.8634 0
    endloop
  endfacet
  facet normal -0 0 -1
    outer loop
      vertex 8.83777 -33.9702 0
      vertex 1.52837 -35.3643 0
      vertex 8.7191 -33.4839 0
    endloop
  endfacet
  facet normal 0 0 -1
    outer loop
      vertex 1.063 -33.3551 0
      vertex 8.46524 -32.504 0
      vertex 1.52837 -35.3643 0
    endloop
  endfacet
  facet normal -0 0 -1
    outer loop
      vertex 8.46524 -32.504 0
      vertex 1.063 -33.3551 0
      vertex 8.33003 -32.0105 0
    endloop
  endfacet
  facet normal -0 0 -1
    outer loop
      vertex 8.33003 -32.0105 0
      vertex 1.063 -33.3551 0
      vertex 8.18932 -31.5147 0
    endloop
  endfacet
  facet normal 0 0 -1
    outer loop
      vertex 0.613434 -31.3602 0
      vertex 8.18932 -31.5147 0
      vertex 1.063 -33.3551 0
    endloop
  endfacet
  facet normal 0 0 -1
    outer loop
      vertex 8.18932 -31.5147 0
      vertex 0.613434 -31.3602 0
      vertex 4.36234 -18.4115 0
    endloop
  endfacet
  facet normal 0 0 -1
    outer loop
      vertex -8.54759 -38.0087 0
      vertex -0.739731 -37.0425 0
      vertex -2.44061 -43.8837 0
    endloop
  endfacet
  facet normal 0 0 -1
    outer loop
      vertex 0.613434 -31.3602 0
      vertex -3.17476 -18.4115 0
      vertex 4.36234 -18.4115 0
    endloop
  endfacet
  facet normal 0 -0 -1
    outer loop
      vertex -7.00174 -31.5147 0
      vertex -0.739731 -37.0425 0
      vertex -8.54759 -38.0087 0
    endloop
  endfacet
  facet normal 0 0 -1
    outer loop
      vertex -9.12727 -40.9465 0
      vertex -2.44061 -43.8837 0
      vertex -5.45534 -55.9437 0
    endloop
  endfacet
  facet normal -0 0 -1
    outer loop
      vertex 0.613434 -31.3602 0
      vertex -7.00174 -31.5147 0
      vertex -3.17476 -18.4115 0
    endloop
  endfacet
  facet normal 0 0 -1
    outer loop
      vertex -0.739731 -37.0425 0
      vertex -7.00174 -31.5147 0
      vertex 0.613434 -31.3602 0
    endloop
  endfacet
  facet normal 0 0 -1
    outer loop
      vertex -2.44061 -43.8837 0
      vertex -9.12727 -40.9465 0
      vertex -8.54759 -38.0087 0
    endloop
  endfacet
  facet normal 0 0 -1
    outer loop
      vertex -15.0416 -55.9437 0
      vertex -9.17772 -39.1274 0
      vertex -9.12727 -40.9465 0
    endloop
  endfacet
  facet normal -0 0 -1
    outer loop
      vertex -9.17772 -39.1274 0
      vertex -15.0416 -55.9437 0
      vertex -9.24081 -37.4251 0
    endloop
  endfacet
  facet normal -0 0 -1
    outer loop
      vertex -9.24081 -37.4251 0
      vertex -15.0416 -55.9437 0
      vertex -9.31653 -35.8396 0
    endloop
  endfacet
  facet normal -0 0 -1
    outer loop
      vertex -9.31653 -35.8396 0
      vertex -15.0416 -55.9437 0
      vertex -9.40488 -34.3708 0
    endloop
  endfacet
  facet normal -0 0 -1
    outer loop
      vertex -9.40488 -34.3708 0
      vertex -15.0416 -55.9437 0
      vertex -9.50586 -33.0187 0
    endloop
  endfacet
  facet normal -0 0 -1
    outer loop
      vertex -9.50586 -33.0187 0
      vertex -15.0416 -55.9437 0
      vertex -9.61948 -31.7834 0
    endloop
  endfacet
  facet normal -0 0 -1
    outer loop
      vertex -9.61948 -31.7834 0
      vertex -15.0416 -55.9437 0
      vertex -9.74573 -30.6648 0
    endloop
  endfacet
  facet normal 0 0 -1
    outer loop
      vertex -15.0416 -55.9437 0
      vertex -9.12727 -40.9465 0
      vertex -5.45534 -55.9437 0
    endloop
  endfacet
  facet normal -0 0 -1
    outer loop
      vertex -9.74573 -30.6648 0
      vertex -15.0416 -55.9437 0
      vertex -23.1972 -3.80072 0
    endloop
  endfacet
  facet normal 0 0 -1
    outer loop
      vertex -9.74573 -30.6648 0
      vertex -23.1972 -3.80072 0
      vertex -13.1862 -3.80072 0
    endloop
  endfacet
  facet normal 0 0 1
    outer loop
      vertex 11.0108 -30.6648 1
      vertex 24.269 -3.80072 1
      vertex 14.2575 -3.80072 1
    endloop
  endfacet
  facet normal 0 0 1
    outer loop
      vertex 24.269 -3.80072 1
      vertex 11.0108 -30.6648 1
      vertex 16.1516 -55.9437 1
    endloop
  endfacet
  facet normal -0 0 1
    outer loop
      vertex 10.9035 -31.5916 1
      vertex 16.1516 -55.9437 1
      vertex 11.0108 -30.6648 1
    endloop
  endfacet
  facet normal -0 0 1
    outer loop
      vertex 10.8026 -32.6494 1
      vertex 16.1516 -55.9437 1
      vertex 10.9035 -31.5916 1
    endloop
  endfacet
  facet normal -0 0 1
    outer loop
      vertex 10.7079 -33.8382 1
      vertex 16.1516 -55.9437 1
      vertex 10.8026 -32.6494 1
    endloop
  endfacet
  facet normal -0 0 1
    outer loop
      vertex 10.6196 -35.1579 1
      vertex 16.1516 -55.9437 1
      vertex 10.7079 -33.8382 1
    endloop
  endfacet
  facet normal -0 0 1
    outer loop
      vertex 10.5375 -36.6086 1
      vertex 16.1516 -55.9437 1
      vertex 10.6196 -35.1579 1
    endloop
  endfacet
  facet normal -0 0 1
    outer loop
      vertex 10.4618 -38.1902 1
      vertex 16.1516 -55.9437 1
      vertex 10.5375 -36.6086 1
    endloop
  endfacet
  facet normal -0 0 1
    outer loop
      vertex 10.3924 -39.9028 1
      vertex 16.1516 -55.9437 1
      vertex 10.4618 -38.1902 1
    endloop
  endfacet
  facet normal -0 0 1
    outer loop
      vertex 10.3148 -40.9465 1
      vertex 16.1516 -55.9437 1
      vertex 10.3924 -39.9028 1
    endloop
  endfacet
  facet normal 0 0 1
    outer loop
      vertex 3.01924 -41.4771 1
      vertex 10.0716 -39.7636 1
      vertex 9.84958 -38.6888 1
    endloop
  endfacet
  facet normal 0 0 1
    outer loop
      vertex 2.50648 -39.4253 1
      vertex 9.84958 -38.6888 1
      vertex 9.64885 -37.7221 1
    endloop
  endfacet
  facet normal 0 0 1
    outer loop
      vertex 2.50648 -39.4253 1
      vertex 9.64885 -37.7221 1
      vertex 9.46938 -36.8634 1
    endloop
  endfacet
  facet normal 0 0 1
    outer loop
      vertex 2.00954 -37.3877 1
      vertex 9.46938 -36.8634 1
      vertex 9.31117 -36.1128 1
    endloop
  endfacet
  facet normal 0 0 1
    outer loop
      vertex 2.00954 -37.3877 1
      vertex 9.31117 -36.1128 1
      vertex 9.17424 -35.4703 1
    endloop
  endfacet
  facet normal 0 0 1
    outer loop
      vertex 2.00954 -37.3877 1
      vertex 9.17424 -35.4703 1
      vertex 9.05856 -34.9358 1
    endloop
  endfacet
  facet normal 0 0 1
    outer loop
      vertex 2.00954 -37.3877 1
      vertex 9.05856 -34.9358 1
      vertex 8.95093 -34.4542 1
    endloop
  endfacet
  facet normal 0 0 1
    outer loop
      vertex 1.52837 -35.3643 1
      vertex 8.95093 -34.4542 1
      vertex 8.83777 -33.9702 1
    endloop
  endfacet
  facet normal 0 0 1
    outer loop
      vertex 1.52837 -35.3643 1
      vertex 8.83777 -33.9702 1
      vertex 8.7191 -33.4839 1
    endloop
  endfacet
  facet normal 0 0 1
    outer loop
      vertex 1.52837 -35.3643 1
      vertex 8.7191 -33.4839 1
      vertex 8.59492 -32.9951 1
    endloop
  endfacet
  facet normal 0 0 1
    outer loop
      vertex 1.52837 -35.3643 1
      vertex 8.59492 -32.9951 1
      vertex 8.46524 -32.504 1
    endloop
  endfacet
  facet normal 0 0 1
    outer loop
      vertex 1.063 -33.3551 1
      vertex 8.46524 -32.504 1
      vertex 8.33003 -32.0105 1
    endloop
  endfacet
  facet normal 0 0 1
    outer loop
      vertex 1.063 -33.3551 1
      vertex 8.33003 -32.0105 1
      vertex 8.18932 -31.5147 1
    endloop
  endfacet
  facet normal -0 0 1
    outer loop
      vertex 4.09215 -45.6233 1
      vertex 16.1516 -55.9437 1
      vertex 10.3148 -40.9465 1
    endloop
  endfacet
  facet normal 0 0 1
    outer loop
      vertex 9.46938 -36.8634 1
      vertex 2.00954 -37.3877 1
      vertex 2.50648 -39.4253 1
    endloop
  endfacet
  facet normal -0 0 1
    outer loop
      vertex 0.613434 -31.3602 1
      vertex 8.18932 -31.5147 1
      vertex 4.36234 -18.4115 1
    endloop
  endfacet
  facet normal 0 0 1
    outer loop
      vertex 16.1516 -55.9437 1
      vertex 4.09215 -45.6233 1
      vertex 6.56595 -55.9437 1
    endloop
  endfacet
  facet normal 0 0 1
    outer loop
      vertex 10.3148 -40.9465 1
      vertex 3.54781 -43.5431 1
      vertex 4.09215 -45.6233 1
    endloop
  endfacet
  facet normal 0 0 1
    outer loop
      vertex 10.3148 -40.9465 1
      vertex 3.01924 -41.4771 1
      vertex 3.54781 -43.5431 1
    endloop
  endfacet
  facet normal 0 0 1
    outer loop
      vertex 10.0716 -39.7636 1
      vertex 3.01924 -41.4771 1
      vertex 10.3148 -40.9465 1
    endloop
  endfacet
  facet normal 0 0 1
    outer loop
      vertex 9.84958 -38.6888 1
      vertex 2.50648 -39.4253 1
      vertex 3.01924 -41.4771 1
    endloop
  endfacet
  facet normal 0 0 1
    outer loop
      vertex 8.95093 -34.4542 1
      vertex 1.52837 -35.3643 1
      vertex 2.00954 -37.3877 1
    endloop
  endfacet
  facet normal 0 0 1
    outer loop
      vertex 8.46524 -32.504 1
      vertex 1.063 -33.3551 1
      vertex 1.52837 -35.3643 1
    endloop
  endfacet
  facet normal 0 0 1
    outer loop
      vertex 8.18932 -31.5147 1
      vertex 0.613434 -31.3602 1
      vertex 1.063 -33.3551 1
    endloop
  endfacet
  facet normal -0 0 1
    outer loop
      vertex -7.00174 -31.5147 1
      vertex -0.739731 -37.0425 1
      vertex 0.613434 -31.3602 1
    endloop
  endfacet
  facet normal -0 0 1
    outer loop
      vertex -3.17476 -18.4115 1
      vertex 0.613434 -31.3602 1
      vertex 4.36234 -18.4115 1
    endloop
  endfacet
  facet normal 0 0 1
    outer loop
      vertex -7.00174 -31.5147 1
      vertex 0.613434 -31.3602 1
      vertex -3.17476 -18.4115 1
    endloop
  endfacet
  facet normal 0 0 1
    outer loop
      vertex -0.739731 -37.0425 1
      vertex -7.00174 -31.5147 1
      vertex -8.54759 -38.0087 1
    endloop
  endfacet
  facet normal 0 0 1
    outer loop
      vertex -0.739731 -37.0425 1
      vertex -8.54759 -38.0087 1
      vertex -2.44061 -43.8837 1
    endloop
  endfacet
  facet normal -0 0 1
    outer loop
      vertex -9.12727 -40.9465 1
      vertex -2.44061 -43.8837 1
      vertex -8.54759 -38.0087 1
    endloop
  endfacet
  facet normal 0 0 1
    outer loop
      vertex -2.44061 -43.8837 1
      vertex -9.12727 -40.9465 1
      vertex -5.45534 -55.9437 1
    endloop
  endfacet
  facet normal 0 0 1
    outer loop
      vertex -15.0416 -55.9437 1
      vertex -9.17772 -39.1274 1
      vertex -9.24081 -37.4251 1
    endloop
  endfacet
  facet normal 0 0 1
    outer loop
      vertex -15.0416 -55.9437 1
      vertex -9.24081 -37.4251 1
      vertex -9.31653 -35.8396 1
    endloop
  endfacet
  facet normal 0 0 1
    outer loop
      vertex -15.0416 -55.9437 1
      vertex -9.31653 -35.8396 1
      vertex -9.40488 -34.3708 1
    endloop
  endfacet
  facet normal 0 0 1
    outer loop
      vertex -15.0416 -55.9437 1
      vertex -9.40488 -34.3708 1
      vertex -9.50586 -33.0187 1
    endloop
  endfacet
  facet normal 0 0 1
    outer loop
      vertex -15.0416 -55.9437 1
      vertex -9.50586 -33.0187 1
      vertex -9.61948 -31.7834 1
    endloop
  endfacet
  facet normal 0 0 1
    outer loop
      vertex -15.0416 -55.9437 1
      vertex -9.61948 -31.7834 1
      vertex -9.74573 -30.6648 1
    endloop
  endfacet
  facet normal -0 0 1
    outer loop
      vertex -23.1972 -3.80072 1
      vertex -9.74573 -30.6648 1
      vertex -13.1862 -3.80072 1
    endloop
  endfacet
  facet normal 0 0 1
    outer loop
      vertex -9.12727 -40.9465 1
      vertex -15.0416 -55.9437 1
      vertex -5.45534 -55.9437 1
    endloop
  endfacet
  facet normal 0 -0 1
    outer loop
      vertex -15.0416 -55.9437 1
      vertex -9.74573 -30.6648 1
      vertex -23.1972 -3.80072 1
    endloop
  endfacet
  facet normal 0 0 1
    outer loop
      vertex -9.17772 -39.1274 1
      vertex -15.0416 -55.9437 1
      vertex -9.12727 -40.9465 1
    endloop
  endfacet
  facet normal 0.970456 -0.241278 0
    outer loop
      vertex -2.44061 -43.8837 1
      vertex -0.739731 -37.0425 0
      vertex -0.739731 -37.0425 1
    endloop
  endfacet
  facet normal 0.970456 -0.241278 0
    outer loop
      vertex -0.739731 -37.0425 0
      vertex -2.44061 -43.8837 1
      vertex -2.44061 -43.8837 0
    endloop
  endfacet
  facet normal 0.972797 -0.231659 0
    outer loop
      vertex -0.739731 -37.0425 1
      vertex 0.613434 -31.3602 0
      vertex 0.613434 -31.3602 1
    endloop
  endfacet
  facet normal 0.972797 -0.231659 0
    outer loop
      vertex 0.613434 -31.3602 0
      vertex -0.739731 -37.0425 1
      vertex -0.739731 -37.0425 0
    endloop
  endfacet
  facet normal -0.975535 -0.219844 0
    outer loop
      vertex 1.063 -33.3551 0
      vertex 0.613434 -31.3602 1
      vertex 0.613434 -31.3602 0
    endloop
  endfacet
  facet normal -0.975535 -0.219844 0
    outer loop
      vertex 0.613434 -31.3602 1
      vertex 1.063 -33.3551 0
      vertex 1.063 -33.3551 1
    endloop
  endfacet
  facet normal -0.974209 -0.225646 0
    outer loop
      vertex 1.52837 -35.3643 0
      vertex 1.063 -33.3551 1
      vertex 1.063 -33.3551 0
    endloop
  endfacet
  facet normal -0.974209 -0.225646 0
    outer loop
      vertex 1.063 -33.3551 1
      vertex 1.52837 -35.3643 0
      vertex 1.52837 -35.3643 1
    endloop
  endfacet
  facet normal -0.97287 -0.231351 0
    outer loop
      vertex 2.00954 -37.3877 0
      vertex 1.52837 -35.3643 1
      vertex 1.52837 -35.3643 0
    endloop
  endfacet
  facet normal -0.97287 -0.231351 0
    outer loop
      vertex 1.52837 -35.3643 1
      vertex 2.00954 -37.3877 0
      vertex 2.00954 -37.3877 1
    endloop
  endfacet
  facet normal -0.971524 -0.23694 0
    outer loop
      vertex 2.50648 -39.4253 0
      vertex 2.00954 -37.3877 1
      vertex 2.00954 -37.3877 0
    endloop
  endfacet
  facet normal -0.971524 -0.23694 0
    outer loop
      vertex 2.00954 -37.3877 1
      vertex 2.50648 -39.4253 0
      vertex 2.50648 -39.4253 1
    endloop
  endfacet
  facet normal -0.970164 -0.242451 0
    outer loop
      vertex 3.01924 -41.4771 0
      vertex 2.50648 -39.4253 1
      vertex 2.50648 -39.4253 0
    endloop
  endfacet
  facet normal -0.970164 -0.242451 0
    outer loop
      vertex 2.50648 -39.4253 1
      vertex 3.01924 -41.4771 0
      vertex 3.01924 -41.4771 1
    endloop
  endfacet
  facet normal -0.968796 -0.247859 0
    outer loop
      vertex 3.54781 -43.5431 0
      vertex 3.01924 -41.4771 1
      vertex 3.01924 -41.4771 0
    endloop
  endfacet
  facet normal -0.968796 -0.247859 0
    outer loop
      vertex 3.01924 -41.4771 1
      vertex 3.54781 -43.5431 0
      vertex 3.54781 -43.5431 1
    endloop
  endfacet
  facet normal -0.967426 -0.253153 0
    outer loop
      vertex 4.09215 -45.6233 0
      vertex 3.54781 -43.5431 1
      vertex 3.54781 -43.5431 0
    endloop
  endfacet
  facet normal -0.967426 -0.253153 0
    outer loop
      vertex 3.54781 -43.5431 1
      vertex 4.09215 -45.6233 0
      vertex 4.09215 -45.6233 1
    endloop
  endfacet
  facet normal -0.972453 -0.233097 0
    outer loop
      vertex 6.56595 -55.9437 0
      vertex 4.09215 -45.6233 1
      vertex 4.09215 -45.6233 0
    endloop
  endfacet
  facet normal -0.972453 -0.233097 0
    outer loop
      vertex 4.09215 -45.6233 1
      vertex 6.56595 -55.9437 0
      vertex 6.56595 -55.9437 1
    endloop
  endfacet
  facet normal 0 -1 0
    outer loop
      vertex 6.56595 -55.9437 0
      vertex 16.1516 -55.9437 1
      vertex 6.56595 -55.9437 1
    endloop
  endfacet
  facet normal 0 -1 -0
    outer loop
      vertex 16.1516 -55.9437 1
      vertex 6.56595 -55.9437 0
      vertex 16.1516 -55.9437 0
    endloop
  endfacet
  facet normal 0.988098 -0.153823 0
    outer loop
      vertex 16.1516 -55.9437 1
      vertex 24.269 -3.80072 0
      vertex 24.269 -3.80072 1
    endloop
  endfacet
  facet normal 0.988098 -0.153823 0
    outer loop
      vertex 24.269 -3.80072 0
      vertex 16.1516 -55.9437 1
      vertex 16.1516 -55.9437 0
    endloop
  endfacet
  facet normal 0 1 -0
    outer loop
      vertex 24.269 -3.80072 0
      vertex 14.2575 -3.80072 1
      vertex 24.269 -3.80072 1
    endloop
  endfacet
  facet normal 0 1 0
    outer loop
      vertex 14.2575 -3.80072 1
      vertex 24.269 -3.80072 0
      vertex 14.2575 -3.80072 0
    endloop
  endfacet
  facet normal -0.992776 0.119983 0
    outer loop
      vertex 11.0108 -30.6648 0
      vertex 14.2575 -3.80072 1
      vertex 14.2575 -3.80072 0
    endloop
  endfacet
  facet normal -0.992776 0.119983 0
    outer loop
      vertex 14.2575 -3.80072 1
      vertex 11.0108 -30.6648 0
      vertex 11.0108 -30.6648 1
    endloop
  endfacet
  facet normal -0.993365 0.115007 0
    outer loop
      vertex 10.9035 -31.5916 0
      vertex 11.0108 -30.6648 1
      vertex 11.0108 -30.6648 0
    endloop
  endfacet
  facet normal -0.993365 0.115007 0
    outer loop
      vertex 11.0108 -30.6648 1
      vertex 10.9035 -31.5916 0
      vertex 10.9035 -31.5916 1
    endloop
  endfacet
  facet normal -0.995482 0.0949556 0
    outer loop
      vertex 10.8026 -32.6494 0
      vertex 10.9035 -31.5916 1
      vertex 10.9035 -31.5916 0
    endloop
  endfacet
  facet normal -0.995482 0.0949556 0
    outer loop
      vertex 10.9035 -31.5916 1
      vertex 10.8026 -32.6494 0
      vertex 10.8026 -32.6494 1
    endloop
  endfacet
  facet normal -0.996842 0.0794086 0
    outer loop
      vertex 10.7079 -33.8382 0
      vertex 10.8026 -32.6494 1
      vertex 10.8026 -32.6494 0
    endloop
  endfacet
  facet normal -0.996842 0.0794086 0
    outer loop
      vertex 10.8026 -32.6494 1
      vertex 10.7079 -33.8382 0
      vertex 10.7079 -33.8382 1
    endloop
  endfacet
  facet normal -0.997769 0.0667599 0
    outer loop
      vertex 10.6196 -35.1579 0
      vertex 10.7079 -33.8382 1
      vertex 10.7079 -33.8382 0
    endloop
  endfacet
  facet normal -0.997769 0.0667599 0
    outer loop
      vertex 10.7079 -33.8382 1
      vertex 10.6196 -35.1579 0
      vertex 10.6196 -35.1579 1
    endloop
  endfacet
  facet normal -0.998402 0.056503 0
    outer loop
      vertex 10.5375 -36.6086 0
      vertex 10.6196 -35.1579 1
      vertex 10.6196 -35.1579 0
    endloop
  endfacet
  facet normal -0.998402 0.056503 0
    outer loop
      vertex 10.6196 -35.1579 1
      vertex 10.5375 -36.6086 0
      vertex 10.5375 -36.6086 1
    endloop
  endfacet
  facet normal -0.998857 0.0478082 0
    outer loop
      vertex 10.4618 -38.1902 0
      vertex 10.5375 -36.6086 1
      vertex 10.5375 -36.6086 0
    endloop
  endfacet
  facet normal -0.998857 0.0478082 0
    outer loop
      vertex 10.5375 -36.6086 1
      vertex 10.4618 -38.1902 0
      vertex 10.4618 -38.1902 1
    endloop
  endfacet
  facet normal -0.99918 0.0404899 0
    outer loop
      vertex 10.3924 -39.9028 0
      vertex 10.4618 -38.1902 1
      vertex 10.4618 -38.1902 0
    endloop
  endfacet
  facet normal -0.99918 0.0404899 0
    outer loop
      vertex 10.4618 -38.1902 1
      vertex 10.3924 -39.9028 0
      vertex 10.3924 -39.9028 1
    endloop
  endfacet
  facet normal -0.997247 0.0741462 0
    outer loop
      vertex 10.3148 -40.9465 0
      vertex 10.3924 -39.9028 1
      vertex 10.3924 -39.9028 0
    endloop
  endfacet
  facet normal -0.997247 0.0741462 0
    outer loop
      vertex 10.3924 -39.9028 1
      vertex 10.3148 -40.9465 0
      vertex 10.3148 -40.9465 1
    endloop
  endfacet
  facet normal 0.979512 0.201384 0
    outer loop
      vertex 10.3148 -40.9465 1
      vertex 10.0716 -39.7636 0
      vertex 10.0716 -39.7636 1
    endloop
  endfacet
  facet normal 0.979512 0.201384 0
    outer loop
      vertex 10.0716 -39.7636 0
      vertex 10.3148 -40.9465 1
      vertex 10.3148 -40.9465 0
    endloop
  endfacet
  facet normal 0.979324 0.202298 0
    outer loop
      vertex 10.0716 -39.7636 1
      vertex 9.84958 -38.6888 0
      vertex 9.84958 -38.6888 1
    endloop
  endfacet
  facet normal 0.979324 0.202298 0
    outer loop
      vertex 9.84958 -38.6888 0
      vertex 10.0716 -39.7636 1
      vertex 10.0716 -39.7636 0
    endloop
  endfacet
  facet normal 0.979115 0.203308 0
    outer loop
      vertex 9.84958 -38.6888 1
      vertex 9.64885 -37.7221 0
      vertex 9.64885 -37.7221 1
    endloop
  endfacet
  facet normal 0.979115 0.203308 0
    outer loop
      vertex 9.64885 -37.7221 0
      vertex 9.84958 -38.6888 1
      vertex 9.84958 -38.6888 0
    endloop
  endfacet
  facet normal 0.97885 0.204581 0
    outer loop
      vertex 9.64885 -37.7221 1
      vertex 9.46938 -36.8634 0
      vertex 9.46938 -36.8634 1
    endloop
  endfacet
  facet normal 0.97885 0.204581 0
    outer loop
      vertex 9.46938 -36.8634 0
      vertex 9.64885 -37.7221 1
      vertex 9.64885 -37.7221 0
    endloop
  endfacet
  facet normal 0.9785 0.206246 0
    outer loop
      vertex 9.46938 -36.8634 1
      vertex 9.31117 -36.1128 0
      vertex 9.31117 -36.1128 1
    endloop
  endfacet
  facet normal 0.9785 0.206246 0
    outer loop
      vertex 9.31117 -36.1128 0
      vertex 9.46938 -36.8634 1
      vertex 9.46938 -36.8634 0
    endloop
  endfacet
  facet normal 0.978035 0.208439 0
    outer loop
      vertex 9.31117 -36.1128 1
      vertex 9.17424 -35.4703 0
      vertex 9.17424 -35.4703 1
    endloop
  endfacet
  facet normal 0.978035 0.208439 0
    outer loop
      vertex 9.17424 -35.4703 0
      vertex 9.31117 -36.1128 1
      vertex 9.31117 -36.1128 0
    endloop
  endfacet
  facet normal 0.977372 0.211529 0
    outer loop
      vertex 9.17424 -35.4703 1
      vertex 9.05856 -34.9358 0
      vertex 9.05856 -34.9358 1
    endloop
  endfacet
  facet normal 0.977372 0.211529 0
    outer loop
      vertex 9.05856 -34.9358 0
      vertex 9.17424 -35.4703 1
      vertex 9.17424 -35.4703 0
    endloop
  endfacet
  facet normal 0.975926 0.218104 0
    outer loop
      vertex 9.05856 -34.9358 1
      vertex 8.95093 -34.4542 0
      vertex 8.95093 -34.4542 1
    endloop
  endfacet
  facet normal 0.975926 0.218104 0
    outer loop
      vertex 8.95093 -34.4542 0
      vertex 9.05856 -34.9358 1
      vertex 9.05856 -34.9358 0
    endloop
  endfacet
  facet normal 0.97374 0.227662 0
    outer loop
      vertex 8.95093 -34.4542 1
      vertex 8.83777 -33.9702 0
      vertex 8.83777 -33.9702 1
    endloop
  endfacet
  facet normal 0.97374 0.227662 0
    outer loop
      vertex 8.83777 -33.9702 0
      vertex 8.95093 -34.4542 1
      vertex 8.95093 -34.4542 0
    endloop
  endfacet
  facet normal 0.971493 0.23707 0
    outer loop
      vertex 8.83777 -33.9702 1
      vertex 8.7191 -33.4839 0
      vertex 8.7191 -33.4839 1
    endloop
  endfacet
  facet normal 0.971493 0.23707 0
    outer loop
      vertex 8.7191 -33.4839 0
      vertex 8.83777 -33.9702 1
      vertex 8.83777 -33.9702 0
    endloop
  endfacet
  facet normal 0.969212 0.246229 0
    outer loop
      vertex 8.7191 -33.4839 1
      vertex 8.59492 -32.9951 0
      vertex 8.59492 -32.9951 1
    endloop
  endfacet
  facet normal 0.969212 0.246229 0
    outer loop
      vertex 8.59492 -32.9951 0
      vertex 8.7191 -33.4839 1
      vertex 8.7191 -33.4839 0
    endloop
  endfacet
  facet normal 0.966859 0.255309 0
    outer loop
      vertex 8.59492 -32.9951 1
      vertex 8.46524 -32.504 0
      vertex 8.46524 -32.504 1
    endloop
  endfacet
  facet normal 0.966859 0.255309 0
    outer loop
      vertex 8.46524 -32.504 0
      vertex 8.59492 -32.9951 1
      vertex 8.59492 -32.9951 0
    endloop
  endfacet
  facet normal 0.964456 0.264243 0
    outer loop
      vertex 8.46524 -32.504 1
      vertex 8.33003 -32.0105 0
      vertex 8.33003 -32.0105 1
    endloop
  endfacet
  facet normal 0.964456 0.264243 0
    outer loop
      vertex 8.33003 -32.0105 0
      vertex 8.46524 -32.504 1
      vertex 8.46524 -32.504 0
    endloop
  endfacet
  facet normal 0.962008 0.273022 0
    outer loop
      vertex 8.33003 -32.0105 1
      vertex 8.18932 -31.5147 0
      vertex 8.18932 -31.5147 1
    endloop
  endfacet
  facet normal 0.962008 0.273022 0
    outer loop
      vertex 8.18932 -31.5147 0
      vertex 8.33003 -32.0105 1
      vertex 8.33003 -32.0105 0
    endloop
  endfacet
  facet normal 0.959897 0.280352 0
    outer loop
      vertex 8.18932 -31.5147 1
      vertex 4.36234 -18.4115 0
      vertex 4.36234 -18.4115 1
    endloop
  endfacet
  facet normal 0.959897 0.280352 0
    outer loop
      vertex 4.36234 -18.4115 0
      vertex 8.18932 -31.5147 1
      vertex 8.18932 -31.5147 0
    endloop
  endfacet
  facet normal 0 1 -0
    outer loop
      vertex 4.36234 -18.4115 0
      vertex -3.17476 -18.4115 1
      vertex 4.36234 -18.4115 1
    endloop
  endfacet
  facet normal 0 1 0
    outer loop
      vertex -3.17476 -18.4115 1
      vertex 4.36234 -18.4115 0
      vertex -3.17476 -18.4115 0
    endloop
  endfacet
  facet normal -0.959897 0.280352 0
    outer loop
      vertex -7.00174 -31.5147 0
      vertex -3.17476 -18.4115 1
      vertex -3.17476 -18.4115 0
    endloop
  endfacet
  facet normal -0.959897 0.280352 0
    outer loop
      vertex -3.17476 -18.4115 1
      vertex -7.00174 -31.5147 0
      vertex -7.00174 -31.5147 1
    endloop
  endfacet
  facet normal -0.972818 0.231572 0
    outer loop
      vertex -8.54759 -38.0087 0
      vertex -7.00174 -31.5147 1
      vertex -7.00174 -31.5147 0
    endloop
  endfacet
  facet normal -0.972818 0.231572 0
    outer loop
      vertex -7.00174 -31.5147 1
      vertex -8.54759 -38.0087 0
      vertex -8.54759 -38.0087 1
    endloop
  endfacet
  facet normal -0.981083 0.193585 0
    outer loop
      vertex -9.12727 -40.9465 0
      vertex -8.54759 -38.0087 1
      vertex -8.54759 -38.0087 0
    endloop
  endfacet
  facet normal -0.981083 0.193585 0
    outer loop
      vertex -8.54759 -38.0087 1
      vertex -9.12727 -40.9465 0
      vertex -9.12727 -40.9465 1
    endloop
  endfacet
  facet normal 0.999616 0.0277228 0
    outer loop
      vertex -9.12727 -40.9465 1
      vertex -9.17772 -39.1274 0
      vertex -9.17772 -39.1274 1
    endloop
  endfacet
  facet normal 0.999616 0.0277228 0
    outer loop
      vertex -9.17772 -39.1274 0
      vertex -9.12727 -40.9465 1
      vertex -9.12727 -40.9465 0
    endloop
  endfacet
  facet normal 0.999314 0.0370362 0
    outer loop
      vertex -9.17772 -39.1274 1
      vertex -9.24081 -37.4251 0
      vertex -9.24081 -37.4251 1
    endloop
  endfacet
  facet normal 0.999314 0.0370362 0
    outer loop
      vertex -9.24081 -37.4251 0
      vertex -9.17772 -39.1274 1
      vertex -9.17772 -39.1274 0
    endloop
  endfacet
  facet normal 0.998862 0.0477034 0
    outer loop
      vertex -9.24081 -37.4251 1
      vertex -9.31653 -35.8396 0
      vertex -9.31653 -35.8396 1
    endloop
  endfacet
  facet normal 0.998862 0.0477034 0
    outer loop
      vertex -9.31653 -35.8396 0
      vertex -9.24081 -37.4251 1
      vertex -9.24081 -37.4251 0
    endloop
  endfacet
  facet normal 0.998196 0.0600426 0
    outer loop
      vertex -9.31653 -35.8396 1
      vertex -9.40488 -34.3708 0
      vertex -9.40488 -34.3708 1
    endloop
  endfacet
  facet normal 0.998196 0.0600426 0
    outer loop
      vertex -9.40488 -34.3708 0
      vertex -9.31653 -35.8396 1
      vertex -9.31653 -35.8396 0
    endloop
  endfacet
  facet normal 0.997223 0.0744764 0
    outer loop
      vertex -9.40488 -34.3708 1
      vertex -9.50586 -33.0187 0
      vertex -9.50586 -33.0187 1
    endloop
  endfacet
  facet normal 0.997223 0.0744764 0
    outer loop
      vertex -9.50586 -33.0187 0
      vertex -9.40488 -34.3708 1
      vertex -9.40488 -34.3708 0
    endloop
  endfacet
  facet normal 0.995797 0.091591 0
    outer loop
      vertex -9.50586 -33.0187 1
      vertex -9.61948 -31.7834 0
      vertex -9.61948 -31.7834 1
    endloop
  endfacet
  facet normal 0.995797 0.091591 0
    outer loop
      vertex -9.61948 -31.7834 0
      vertex -9.50586 -33.0187 1
      vertex -9.50586 -33.0187 0
    endloop
  endfacet
  facet normal 0.993691 0.112152 0
    outer loop
      vertex -9.61948 -31.7834 1
      vertex -9.74573 -30.6648 0
      vertex -9.74573 -30.6648 1
    endloop
  endfacet
  facet normal 0.993691 0.112152 0
    outer loop
      vertex -9.74573 -30.6648 0
      vertex -9.61948 -31.7834 1
      vertex -9.61948 -31.7834 0
    endloop
  endfacet
  facet normal 0.991899 0.127032 0
    outer loop
      vertex -9.74573 -30.6648 1
      vertex -13.1862 -3.80072 0
      vertex -13.1862 -3.80072 1
    endloop
  endfacet
  facet normal 0.991899 0.127032 0
    outer loop
      vertex -13.1862 -3.80072 0
      vertex -9.74573 -30.6648 1
      vertex -9.74573 -30.6648 0
    endloop
  endfacet
  facet normal 0 1 -0
    outer loop
      vertex -13.1862 -3.80072 0
      vertex -23.1972 -3.80072 1
      vertex -13.1862 -3.80072 1
    endloop
  endfacet
  facet normal 0 1 0
    outer loop
      vertex -23.1972 -3.80072 1
      vertex -13.1862 -3.80072 0
      vertex -23.1972 -3.80072 0
    endloop
  endfacet
  facet normal -0.987988 -0.15453 0
    outer loop
      vertex -15.0416 -55.9437 0
      vertex -23.1972 -3.80072 1
      vertex -23.1972 -3.80072 0
    endloop
  endfacet
  facet normal -0.987988 -0.15453 0
    outer loop
      vertex -23.1972 -3.80072 1
      vertex -15.0416 -55.9437 0
      vertex -15.0416 -55.9437 1
    endloop
  endfacet
  facet normal 0 -1 0
    outer loop
      vertex -15.0416 -55.9437 0
      vertex -5.45534 -55.9437 1
      vertex -15.0416 -55.9437 1
    endloop
  endfacet
  facet normal 0 -1 -0
    outer loop
      vertex -5.45534 -55.9437 1
      vertex -15.0416 -55.9437 0
      vertex -5.45534 -55.9437 0
    endloop
  endfacet
  facet normal 0.970148 -0.242515 0
    outer loop
      vertex -5.45534 -55.9437 1
      vertex -2.44061 -43.8837 0
      vertex -2.44061 -43.8837 1
    endloop
  endfacet
  facet normal 0.970148 -0.242515 0
    outer loop
      vertex -2.44061 -43.8837 0
      vertex -5.45534 -55.9437 1
      vertex -5.45534 -55.9437 0
    endloop
  endfacet
endsolid OpenSCAD_Model
