solid OpenSCAD_Model
  facet normal 0 0 -1
    outer loop
      vertex -29.9647 -84.9062 0
      vertex -13.4081 -42.6455 0
      vertex -13.4081 -84.9062 0
    endloop
  endfacet
  facet normal -0 0 -1
    outer loop
      vertex -13.4081 -42.6455 0
      vertex -29.9647 -84.9062 0
      vertex -13.4449 -40.5708 0
    endloop
  endfacet
  facet normal -0 0 -1
    outer loop
      vertex -13.4449 -40.5708 0
      vertex -29.9647 -84.9062 0
      vertex -13.5553 -38.1017 0
    endloop
  endfacet
  facet normal -0 0 -1
    outer loop
      vertex -13.5553 -38.1017 0
      vertex -29.9647 -84.9062 0
      vertex -13.7394 -35.2382 0
    endloop
  endfacet
  facet normal 0 0 -1
    outer loop
      vertex -29.9647 1.99879 0
      vertex -13.7394 -35.2382 0
      vertex -29.9647 -84.9062 0
    endloop
  endfacet
  facet normal 0 0 -1
    outer loop
      vertex -13.7394 -35.2382 0
      vertex -29.9647 1.99879 0
      vertex -13.9972 -31.9802 0
    endloop
  endfacet
  facet normal 0 0 -1
    outer loop
      vertex -13.9972 -31.9802 0
      vertex -29.9647 1.99879 0
      vertex -14.3285 -28.3278 0
    endloop
  endfacet
  facet normal 0 0 -1
    outer loop
      vertex -14.3285 -28.3278 0
      vertex -29.9647 1.99879 0
      vertex -14.7335 -24.281 0
    endloop
  endfacet
  facet normal 0 0 -1
    outer loop
      vertex 16.5845 -60.6189 0
      vertex 31.8157 -84.9062 0
      vertex 17.0632 -64.8061 0
    endloop
  endfacet
  facet normal 0 0 -1
    outer loop
      vertex 9.52585 -84.9062 0
      vertex 17.0632 -64.8061 0
      vertex 31.8157 -84.9062 0
    endloop
  endfacet
  facet normal 0 0 -1
    outer loop
      vertex -15.2121 -19.8398 0
      vertex 17.0632 -64.8061 0
      vertex 9.52585 -84.9062 0
    endloop
  endfacet
  facet normal 0 0 -1
    outer loop
      vertex 17.0632 -64.8061 0
      vertex -15.2121 -19.8398 0
      vertex -8.25433 1.99879 0
    endloop
  endfacet
  facet normal 0 0 -1
    outer loop
      vertex -15.2121 -19.8398 0
      vertex -29.9647 1.99879 0
      vertex -8.25433 1.99879 0
    endloop
  endfacet
  facet normal 0 0 -1
    outer loop
      vertex -14.7335 -24.281 0
      vertex -29.9647 1.99879 0
      vertex -15.2121 -19.8398 0
    endloop
  endfacet
  facet normal 0 0 -1
    outer loop
      vertex 16.1795 -56.7078 0
      vertex 31.8157 -84.9062 0
      vertex 16.5845 -60.6189 0
    endloop
  endfacet
  facet normal 0 0 -1
    outer loop
      vertex 15.8482 -53.0727 0
      vertex 31.8157 -84.9062 0
      vertex 16.1795 -56.7078 0
    endloop
  endfacet
  facet normal 0 0 -1
    outer loop
      vertex 15.5905 -49.7136 0
      vertex 31.8157 -84.9062 0
      vertex 15.8482 -53.0727 0
    endloop
  endfacet
  facet normal 0 0 -1
    outer loop
      vertex 15.4064 -46.6306 0
      vertex 31.8157 -84.9062 0
      vertex 15.5905 -49.7136 0
    endloop
  endfacet
  facet normal 0 0 -1
    outer loop
      vertex 15.2959 -43.8236 0
      vertex 31.8157 -84.9062 0
      vertex 15.4064 -46.6306 0
    endloop
  endfacet
  facet normal 0 0 -1
    outer loop
      vertex 31.8157 -84.9062 0
      vertex 15.2959 -43.8236 0
      vertex 31.8157 1.99879 0
    endloop
  endfacet
  facet normal 0 0 -1
    outer loop
      vertex 15.2591 -41.2927 0
      vertex 31.8157 1.99879 0
      vertex 15.2959 -43.8236 0
    endloop
  endfacet
  facet normal -0 0 -1
    outer loop
      vertex 31.8157 1.99879 0
      vertex 15.2591 -41.2927 0
      vertex 15.2591 1.99879 0
    endloop
  endfacet
  facet normal -0 0 1
    outer loop
      vertex 15.2959 -43.8236 1
      vertex 31.8157 -84.9062 1
      vertex 31.8157 1.99879 1
    endloop
  endfacet
  facet normal 0 0 1
    outer loop
      vertex 31.8157 -84.9062 1
      vertex 16.5845 -60.6189 1
      vertex 17.0632 -64.8061 1
    endloop
  endfacet
  facet normal 0 0 1
    outer loop
      vertex 31.8157 -84.9062 1
      vertex 16.1795 -56.7078 1
      vertex 16.5845 -60.6189 1
    endloop
  endfacet
  facet normal 0 0 1
    outer loop
      vertex 31.8157 -84.9062 1
      vertex 15.8482 -53.0727 1
      vertex 16.1795 -56.7078 1
    endloop
  endfacet
  facet normal 0 0 1
    outer loop
      vertex 31.8157 -84.9062 1
      vertex 15.5905 -49.7136 1
      vertex 15.8482 -53.0727 1
    endloop
  endfacet
  facet normal 0 0 1
    outer loop
      vertex 31.8157 -84.9062 1
      vertex 15.4064 -46.6306 1
      vertex 15.5905 -49.7136 1
    endloop
  endfacet
  facet normal 0 0 1
    outer loop
      vertex 31.8157 -84.9062 1
      vertex 15.2959 -43.8236 1
      vertex 15.4064 -46.6306 1
    endloop
  endfacet
  facet normal 0 0 1
    outer loop
      vertex 15.2591 -41.2927 1
      vertex 31.8157 1.99879 1
      vertex 15.2591 1.99879 1
    endloop
  endfacet
  facet normal 0 0 1
    outer loop
      vertex 31.8157 1.99879 1
      vertex 15.2591 -41.2927 1
      vertex 15.2959 -43.8236 1
    endloop
  endfacet
  facet normal 0 0 1
    outer loop
      vertex 17.0632 -64.8061 1
      vertex 9.52585 -84.9062 1
      vertex 31.8157 -84.9062 1
    endloop
  endfacet
  facet normal -0 0 1
    outer loop
      vertex -15.2121 -19.8398 1
      vertex 17.0632 -64.8061 1
      vertex -8.25433 1.99879 1
    endloop
  endfacet
  facet normal 0 0 1
    outer loop
      vertex 17.0632 -64.8061 1
      vertex -15.2121 -19.8398 1
      vertex 9.52585 -84.9062 1
    endloop
  endfacet
  facet normal 0 -0 1
    outer loop
      vertex -15.2121 -19.8398 1
      vertex -8.25433 1.99879 1
      vertex -29.9647 1.99879 1
    endloop
  endfacet
  facet normal 0 0 1
    outer loop
      vertex -29.9647 -84.9062 1
      vertex -13.4081 -42.6455 1
      vertex -13.4449 -40.5708 1
    endloop
  endfacet
  facet normal 0 0 1
    outer loop
      vertex -29.9647 -84.9062 1
      vertex -13.4449 -40.5708 1
      vertex -13.5553 -38.1017 1
    endloop
  endfacet
  facet normal 0 0 1
    outer loop
      vertex -29.9647 -84.9062 1
      vertex -13.5553 -38.1017 1
      vertex -13.7394 -35.2382 1
    endloop
  endfacet
  facet normal 0 0 1
    outer loop
      vertex -29.9647 1.99879 1
      vertex -13.7394 -35.2382 1
      vertex -13.9972 -31.9802 1
    endloop
  endfacet
  facet normal 0 0 1
    outer loop
      vertex -29.9647 1.99879 1
      vertex -13.9972 -31.9802 1
      vertex -14.3285 -28.3278 1
    endloop
  endfacet
  facet normal 0 0 1
    outer loop
      vertex -29.9647 1.99879 1
      vertex -14.3285 -28.3278 1
      vertex -14.7335 -24.281 1
    endloop
  endfacet
  facet normal 0 0 1
    outer loop
      vertex -29.9647 1.99879 1
      vertex -14.7335 -24.281 1
      vertex -15.2121 -19.8398 1
    endloop
  endfacet
  facet normal 0 0 1
    outer loop
      vertex -13.7394 -35.2382 1
      vertex -29.9647 1.99879 1
      vertex -29.9647 -84.9062 1
    endloop
  endfacet
  facet normal 0 0 1
    outer loop
      vertex -13.4081 -42.6455 1
      vertex -29.9647 -84.9062 1
      vertex -13.4081 -84.9062 1
    endloop
  endfacet
  facet normal 0.999843 0.0177347 0
    outer loop
      vertex -13.4081 -42.6455 1
      vertex -13.4449 -40.5708 0
      vertex -13.4449 -40.5708 1
    endloop
  endfacet
  facet normal 0.999843 0.0177347 0
    outer loop
      vertex -13.4449 -40.5708 0
      vertex -13.4081 -42.6455 1
      vertex -13.4081 -42.6455 0
    endloop
  endfacet
  facet normal 0.999002 0.044668 0
    outer loop
      vertex -13.4449 -40.5708 1
      vertex -13.5553 -38.1017 0
      vertex -13.5553 -38.1017 1
    endloop
  endfacet
  facet normal 0.999002 0.044668 0
    outer loop
      vertex -13.5553 -38.1017 0
      vertex -13.4449 -40.5708 1
      vertex -13.4449 -40.5708 0
    endloop
  endfacet
  facet normal 0.99794 0.0641595 0
    outer loop
      vertex -13.5553 -38.1017 1
      vertex -13.7394 -35.2382 0
      vertex -13.7394 -35.2382 1
    endloop
  endfacet
  facet normal 0.99794 0.0641595 0
    outer loop
      vertex -13.7394 -35.2382 0
      vertex -13.5553 -38.1017 1
      vertex -13.5553 -38.1017 0
    endloop
  endfacet
  facet normal 0.996884 0.0788817 0
    outer loop
      vertex -13.7394 -35.2382 1
      vertex -13.9972 -31.9802 0
      vertex -13.9972 -31.9802 1
    endloop
  endfacet
  facet normal 0.996884 0.0788817 0
    outer loop
      vertex -13.9972 -31.9802 0
      vertex -13.7394 -35.2382 1
      vertex -13.7394 -35.2382 0
    endloop
  endfacet
  facet normal 0.995911 0.0903366 0
    outer loop
      vertex -13.9972 -31.9802 1
      vertex -14.3285 -28.3278 0
      vertex -14.3285 -28.3278 1
    endloop
  endfacet
  facet normal 0.995911 0.0903366 0
    outer loop
      vertex -14.3285 -28.3278 0
      vertex -13.9972 -31.9802 1
      vertex -13.9972 -31.9802 0
    endloop
  endfacet
  facet normal 0.995029 0.0995816 0
    outer loop
      vertex -14.3285 -28.3278 1
      vertex -14.7335 -24.281 0
      vertex -14.7335 -24.281 1
    endloop
  endfacet
  facet normal 0.995029 0.0995816 0
    outer loop
      vertex -14.7335 -24.281 0
      vertex -14.3285 -28.3278 1
      vertex -14.3285 -28.3278 0
    endloop
  endfacet
  facet normal 0.994244 0.107143 0
    outer loop
      vertex -14.7335 -24.281 1
      vertex -15.2121 -19.8398 0
      vertex -15.2121 -19.8398 1
    endloop
  endfacet
  facet normal 0.994244 0.107143 0
    outer loop
      vertex -15.2121 -19.8398 0
      vertex -14.7335 -24.281 1
      vertex -14.7335 -24.281 0
    endloop
  endfacet
  facet normal -0.934723 -0.355377 0
    outer loop
      vertex 9.52585 -84.9062 0
      vertex -15.2121 -19.8398 1
      vertex -15.2121 -19.8398 0
    endloop
  endfacet
  facet normal -0.934723 -0.355377 0
    outer loop
      vertex -15.2121 -19.8398 1
      vertex 9.52585 -84.9062 0
      vertex 9.52585 -84.9062 1
    endloop
  endfacet
  facet normal 0 -1 0
    outer loop
      vertex 9.52585 -84.9062 0
      vertex 31.8157 -84.9062 1
      vertex 9.52585 -84.9062 1
    endloop
  endfacet
  facet normal 0 -1 -0
    outer loop
      vertex 31.8157 -84.9062 1
      vertex 9.52585 -84.9062 0
      vertex 31.8157 -84.9062 0
    endloop
  endfacet
  facet normal 1 -0 0
    outer loop
      vertex 31.8157 -84.9062 1
      vertex 31.8157 1.99879 0
      vertex 31.8157 1.99879 1
    endloop
  endfacet
  facet normal 1 0 0
    outer loop
      vertex 31.8157 1.99879 0
      vertex 31.8157 -84.9062 1
      vertex 31.8157 -84.9062 0
    endloop
  endfacet
  facet normal 0 1 -0
    outer loop
      vertex 31.8157 1.99879 0
      vertex 15.2591 1.99879 1
      vertex 31.8157 1.99879 1
    endloop
  endfacet
  facet normal 0 1 0
    outer loop
      vertex 15.2591 1.99879 1
      vertex 31.8157 1.99879 0
      vertex 15.2591 1.99879 0
    endloop
  endfacet
  facet normal -1 0 0
    outer loop
      vertex 15.2591 -41.2927 0
      vertex 15.2591 1.99879 1
      vertex 15.2591 1.99879 0
    endloop
  endfacet
  facet normal -1 -0 0
    outer loop
      vertex 15.2591 1.99879 1
      vertex 15.2591 -41.2927 0
      vertex 15.2591 -41.2927 1
    endloop
  endfacet
  facet normal -0.999894 -0.0145387 0
    outer loop
      vertex 15.2959 -43.8236 0
      vertex 15.2591 -41.2927 1
      vertex 15.2591 -41.2927 0
    endloop
  endfacet
  facet normal -0.999894 -0.0145387 0
    outer loop
      vertex 15.2591 -41.2927 1
      vertex 15.2959 -43.8236 0
      vertex 15.2959 -43.8236 1
    endloop
  endfacet
  facet normal -0.999226 -0.0393354 0
    outer loop
      vertex 15.4064 -46.6306 0
      vertex 15.2959 -43.8236 1
      vertex 15.2959 -43.8236 0
    endloop
  endfacet
  facet normal -0.999226 -0.0393354 0
    outer loop
      vertex 15.2959 -43.8236 1
      vertex 15.4064 -46.6306 0
      vertex 15.4064 -46.6306 1
    endloop
  endfacet
  facet normal -0.998222 -0.0596084 0
    outer loop
      vertex 15.5905 -49.7136 0
      vertex 15.4064 -46.6306 1
      vertex 15.4064 -46.6306 0
    endloop
  endfacet
  facet normal -0.998222 -0.0596084 0
    outer loop
      vertex 15.4064 -46.6306 1
      vertex 15.5905 -49.7136 0
      vertex 15.5905 -49.7136 1
    endloop
  endfacet
  facet normal -0.99707 -0.0764922 0
    outer loop
      vertex 15.8482 -53.0727 0
      vertex 15.5905 -49.7136 1
      vertex 15.5905 -49.7136 0
    endloop
  endfacet
  facet normal -0.99707 -0.0764922 0
    outer loop
      vertex 15.5905 -49.7136 1
      vertex 15.8482 -53.0727 0
      vertex 15.8482 -53.0727 1
    endloop
  endfacet
  facet normal -0.995873 -0.090763 0
    outer loop
      vertex 16.1795 -56.7078 0
      vertex 15.8482 -53.0727 1
      vertex 15.8482 -53.0727 0
    endloop
  endfacet
  facet normal -0.995873 -0.090763 0
    outer loop
      vertex 15.8482 -53.0727 1
      vertex 16.1795 -56.7078 0
      vertex 16.1795 -56.7078 1
    endloop
  endfacet
  facet normal -0.994681 -0.103001 0
    outer loop
      vertex 16.5845 -60.6189 0
      vertex 16.1795 -56.7078 1
      vertex 16.1795 -56.7078 0
    endloop
  endfacet
  facet normal -0.994681 -0.103001 0
    outer loop
      vertex 16.1795 -56.7078 1
      vertex 16.5845 -60.6189 0
      vertex 16.5845 -60.6189 1
    endloop
  endfacet
  facet normal -0.993528 -0.113585 0
    outer loop
      vertex 17.0632 -64.8061 0
      vertex 16.5845 -60.6189 1
      vertex 16.5845 -60.6189 0
    endloop
  endfacet
  facet normal -0.993528 -0.113585 0
    outer loop
      vertex 16.5845 -60.6189 1
      vertex 17.0632 -64.8061 0
      vertex 17.0632 -64.8061 1
    endloop
  endfacet
  facet normal 0.935101 0.354382 0
    outer loop
      vertex 17.0632 -64.8061 1
      vertex -8.25433 1.99879 0
      vertex -8.25433 1.99879 1
    endloop
  endfacet
  facet normal 0.935101 0.354382 0
    outer loop
      vertex -8.25433 1.99879 0
      vertex 17.0632 -64.8061 1
      vertex 17.0632 -64.8061 0
    endloop
  endfacet
  facet normal 0 1 -0
    outer loop
      vertex -8.25433 1.99879 0
      vertex -29.9647 1.99879 1
      vertex -8.25433 1.99879 1
    endloop
  endfacet
  facet normal 0 1 0
    outer loop
      vertex -29.9647 1.99879 1
      vertex -8.25433 1.99879 0
      vertex -29.9647 1.99879 0
    endloop
  endfacet
  facet normal -1 0 0
    outer loop
      vertex -29.9647 -84.9062 0
      vertex -29.9647 1.99879 1
      vertex -29.9647 1.99879 0
    endloop
  endfacet
  facet normal -1 -0 0
    outer loop
      vertex -29.9647 1.99879 1
      vertex -29.9647 -84.9062 0
      vertex -29.9647 -84.9062 1
    endloop
  endfacet
  facet normal 0 -1 0
    outer loop
      vertex -29.9647 -84.9062 0
      vertex -13.4081 -84.9062 1
      vertex -29.9647 -84.9062 1
    endloop
  endfacet
  facet normal 0 -1 -0
    outer loop
      vertex -13.4081 -84.9062 1
      vertex -29.9647 -84.9062 0
      vertex -13.4081 -84.9062 0
    endloop
  endfacet
  facet normal 1 -0 0
    outer loop
      vertex -13.4081 -84.9062 1
      vertex -13.4081 -42.6455 0
      vertex -13.4081 -42.6455 1
    endloop
  endfacet
  facet normal 1 0 0
    outer loop
      vertex -13.4081 -42.6455 0
      vertex -13.4081 -84.9062 1
      vertex -13.4081 -84.9062 0
    endloop
  endfacet
endsolid OpenSCAD_Model
