solid OpenSCAD_Model
  facet normal 0 0 -1
    outer loop
      vertex 3.12915 -17.7294 0
      vertex 8.10258 -21.9812 0
      vertex 4.31456 -21.9812 0
    endloop
  endfacet
  facet normal 0 0 -1
    outer loop
      vertex 2.33038 -14.869 0
      vertex 8.10258 -21.9812 0
      vertex 3.12915 -17.7294 0
    endloop
  endfacet
  facet normal 0 0 -1
    outer loop
      vertex 1.92505 -13.4394 0
      vertex 8.10258 -21.9812 0
      vertex 2.33038 -14.869 0
    endloop
  endfacet
  facet normal 0 0 -1
    outer loop
      vertex 3.12915 -17.7294 0
      vertex -1.94727 -14.869 0
      vertex 2.33038 -14.869 0
    endloop
  endfacet
  facet normal 0 0 -1
    outer loop
      vertex -2.74622 -17.7294 0
      vertex -1.94727 -14.869 0
      vertex 3.12915 -17.7294 0
    endloop
  endfacet
  facet normal 0 0 -1
    outer loop
      vertex -7.73238 -21.9812 0
      vertex -1.94727 -14.869 0
      vertex -2.74622 -17.7294 0
    endloop
  endfacet
  facet normal 0 0 -1
    outer loop
      vertex -7.73238 -21.9812 0
      vertex -2.74622 -17.7294 0
      vertex -3.93143 -21.9812 0
    endloop
  endfacet
  facet normal -0 0 -1
    outer loop
      vertex -1.94727 -14.869 0
      vertex -7.73238 -21.9812 0
      vertex -2.0246 -4.60025 0
    endloop
  endfacet
  facet normal 0 0 -1
    outer loop
      vertex 8.10258 -21.9812 0
      vertex 1.92505 -13.4394 0
      vertex 2.40753 -4.60025 0
    endloop
  endfacet
  facet normal 0 0 -1
    outer loop
      vertex 1.57047 -12.1838 0
      vertex 2.40753 -4.60025 0
      vertex 1.92505 -13.4394 0
    endloop
  endfacet
  facet normal 0 0 -1
    outer loop
      vertex 1.26662 -11.1024 0
      vertex 2.40753 -4.60025 0
      vertex 1.57047 -12.1838 0
    endloop
  endfacet
  facet normal 0 0 -1
    outer loop
      vertex 1.0135 -10.1949 0
      vertex 2.40753 -4.60025 0
      vertex 1.26662 -11.1024 0
    endloop
  endfacet
  facet normal 0 0 -1
    outer loop
      vertex 0.811142 -9.46159 0
      vertex 2.40753 -4.60025 0
      vertex 1.0135 -10.1949 0
    endloop
  endfacet
  facet normal 0 0 -1
    outer loop
      vertex 0.659515 -8.9023 0
      vertex 2.40753 -4.60025 0
      vertex 0.811142 -9.46159 0
    endloop
  endfacet
  facet normal 0 0 -1
    outer loop
      vertex 0.55864 -8.51709 0
      vertex 2.40753 -4.60025 0
      vertex 0.659515 -8.9023 0
    endloop
  endfacet
  facet normal 0 0 -1
    outer loop
      vertex 0.486465 -8.22942 0
      vertex 2.40753 -4.60025 0
      vertex 0.55864 -8.51709 0
    endloop
  endfacet
  facet normal 0 0 -1
    outer loop
      vertex 0.420868 -7.96278 0
      vertex 2.40753 -4.60025 0
      vertex 0.486465 -8.22942 0
    endloop
  endfacet
  facet normal 0 0 -1
    outer loop
      vertex 0.361862 -7.71719 0
      vertex 2.40753 -4.60025 0
      vertex 0.420868 -7.96278 0
    endloop
  endfacet
  facet normal 0 0 -1
    outer loop
      vertex 0.309418 -7.49263 0
      vertex 2.40753 -4.60025 0
      vertex 0.361862 -7.71719 0
    endloop
  endfacet
  facet normal 0 0 -1
    outer loop
      vertex 0.26355 -7.28912 0
      vertex 2.40753 -4.60025 0
      vertex 0.309418 -7.49263 0
    endloop
  endfacet
  facet normal 0 0 -1
    outer loop
      vertex 0.224258 -7.10664 0
      vertex 2.40753 -4.60025 0
      vertex 0.26355 -7.28912 0
    endloop
  endfacet
  facet normal 0 0 -1
    outer loop
      vertex 0.191559 -6.94521 0
      vertex 2.40753 -4.60025 0
      vertex 0.224258 -7.10664 0
    endloop
  endfacet
  facet normal 0 0 -1
    outer loop
      vertex -2.0246 -4.60025 0
      vertex 0.158524 -7.11073 0
      vertex 0.118408 -7.29808 0
    endloop
  endfacet
  facet normal 0 0 -1
    outer loop
      vertex -2.0246 -4.60025 0
      vertex 0.118408 -7.29808 0
      vertex 0.0711975 -7.50726 0
    endloop
  endfacet
  facet normal 0 0 -1
    outer loop
      vertex -2.0246 -4.60025 0
      vertex 0.0711975 -7.50726 0
      vertex 0.0168762 -7.73828 0
    endloop
  endfacet
  facet normal 0 0 -1
    outer loop
      vertex -2.0246 -4.60025 0
      vertex 0.0168762 -7.73828 0
      vertex -0.0445099 -7.99112 0
    endloop
  endfacet
  facet normal 0 0 -1
    outer loop
      vertex -2.0246 -4.60025 0
      vertex -0.0445099 -7.99112 0
      vertex -0.113022 -8.26579 0
    endloop
  endfacet
  facet normal 0 0 -1
    outer loop
      vertex -2.0246 -4.60025 0
      vertex -0.113022 -8.26579 0
      vertex -0.188614 -8.5623 0
    endloop
  endfacet
  facet normal 0 0 -1
    outer loop
      vertex -2.0246 -4.60025 0
      vertex -0.188614 -8.5623 0
      vertex -0.292358 -8.95447 0
    endloop
  endfacet
  facet normal 0 0 -1
    outer loop
      vertex -2.0246 -4.60025 0
      vertex -0.292358 -8.95447 0
      vertex -0.445251 -9.51622 0
    endloop
  endfacet
  facet normal 0 0 -1
    outer loop
      vertex -2.0246 -4.60025 0
      vertex -0.445251 -9.51622 0
      vertex -0.647324 -10.2476 0
    endloop
  endfacet
  facet normal 0 0 -1
    outer loop
      vertex -2.0246 -4.60025 0
      vertex -0.647324 -10.2476 0
      vertex -0.89856 -11.1485 0
    endloop
  endfacet
  facet normal 0 0 -1
    outer loop
      vertex -2.0246 -4.60025 0
      vertex -0.89856 -11.1485 0
      vertex -1.19896 -12.2191 0
    endloop
  endfacet
  facet normal 0 0 -1
    outer loop
      vertex -2.0246 -4.60025 0
      vertex -1.19896 -12.2191 0
      vertex -1.54852 -13.4592 0
    endloop
  endfacet
  facet normal 0 0 -1
    outer loop
      vertex -2.0246 -4.60025 0
      vertex -1.54852 -13.4592 0
      vertex -1.94727 -14.869 0
    endloop
  endfacet
  facet normal 0 0 -1
    outer loop
      vertex 0.191559 -6.94521 0
      vertex -2.0246 -4.60025 0
      vertex 2.40753 -4.60025 0
    endloop
  endfacet
  facet normal 0 0 -1
    outer loop
      vertex 0.158524 -7.11073 0
      vertex -2.0246 -4.60025 0
      vertex 0.191559 -6.94521 0
    endloop
  endfacet
  facet normal 0 0 1
    outer loop
      vertex 8.10258 -21.9812 1
      vertex 1.92505 -13.4394 1
      vertex 2.33038 -14.869 1
    endloop
  endfacet
  facet normal 0 0 1
    outer loop
      vertex 2.40753 -4.60025 1
      vertex 1.57047 -12.1838 1
      vertex 1.92505 -13.4394 1
    endloop
  endfacet
  facet normal 0 0 1
    outer loop
      vertex 2.40753 -4.60025 1
      vertex 1.26662 -11.1024 1
      vertex 1.57047 -12.1838 1
    endloop
  endfacet
  facet normal 0 0 1
    outer loop
      vertex 2.40753 -4.60025 1
      vertex 1.0135 -10.1949 1
      vertex 1.26662 -11.1024 1
    endloop
  endfacet
  facet normal 0 0 1
    outer loop
      vertex 2.40753 -4.60025 1
      vertex 0.811142 -9.46159 1
      vertex 1.0135 -10.1949 1
    endloop
  endfacet
  facet normal 0 0 1
    outer loop
      vertex 2.40753 -4.60025 1
      vertex 0.659515 -8.9023 1
      vertex 0.811142 -9.46159 1
    endloop
  endfacet
  facet normal 0 0 1
    outer loop
      vertex 2.40753 -4.60025 1
      vertex 0.55864 -8.51709 1
      vertex 0.659515 -8.9023 1
    endloop
  endfacet
  facet normal 0 0 1
    outer loop
      vertex 2.40753 -4.60025 1
      vertex 0.486465 -8.22942 1
      vertex 0.55864 -8.51709 1
    endloop
  endfacet
  facet normal 0 0 1
    outer loop
      vertex 2.40753 -4.60025 1
      vertex 0.420868 -7.96278 1
      vertex 0.486465 -8.22942 1
    endloop
  endfacet
  facet normal 0 0 1
    outer loop
      vertex 2.40753 -4.60025 1
      vertex 0.361862 -7.71719 1
      vertex 0.420868 -7.96278 1
    endloop
  endfacet
  facet normal 0 0 1
    outer loop
      vertex 2.40753 -4.60025 1
      vertex 0.309418 -7.49263 1
      vertex 0.361862 -7.71719 1
    endloop
  endfacet
  facet normal 0 0 1
    outer loop
      vertex 2.40753 -4.60025 1
      vertex 0.26355 -7.28912 1
      vertex 0.309418 -7.49263 1
    endloop
  endfacet
  facet normal 0 0 1
    outer loop
      vertex 2.40753 -4.60025 1
      vertex 0.224258 -7.10664 1
      vertex 0.26355 -7.28912 1
    endloop
  endfacet
  facet normal 0 0 1
    outer loop
      vertex 2.40753 -4.60025 1
      vertex 0.191559 -6.94521 1
      vertex 0.224258 -7.10664 1
    endloop
  endfacet
  facet normal 0 0 1
    outer loop
      vertex -2.0246 -4.60025 1
      vertex 0.158524 -7.11073 1
      vertex 0.191559 -6.94521 1
    endloop
  endfacet
  facet normal 0 0 1
    outer loop
      vertex 0.158524 -7.11073 1
      vertex -2.0246 -4.60025 1
      vertex 0.118408 -7.29808 1
    endloop
  endfacet
  facet normal 0 0 1
    outer loop
      vertex 0.118408 -7.29808 1
      vertex -2.0246 -4.60025 1
      vertex 0.0711975 -7.50726 1
    endloop
  endfacet
  facet normal 0 0 1
    outer loop
      vertex 0.0711975 -7.50726 1
      vertex -2.0246 -4.60025 1
      vertex 0.0168762 -7.73828 1
    endloop
  endfacet
  facet normal 0 0 1
    outer loop
      vertex 0.0168762 -7.73828 1
      vertex -2.0246 -4.60025 1
      vertex -0.0445099 -7.99112 1
    endloop
  endfacet
  facet normal 0 0 1
    outer loop
      vertex -0.0445099 -7.99112 1
      vertex -2.0246 -4.60025 1
      vertex -0.113022 -8.26579 1
    endloop
  endfacet
  facet normal 0 0 1
    outer loop
      vertex -0.113022 -8.26579 1
      vertex -2.0246 -4.60025 1
      vertex -0.188614 -8.5623 1
    endloop
  endfacet
  facet normal 0 0 1
    outer loop
      vertex -0.188614 -8.5623 1
      vertex -2.0246 -4.60025 1
      vertex -0.292358 -8.95447 1
    endloop
  endfacet
  facet normal 0 0 1
    outer loop
      vertex -0.292358 -8.95447 1
      vertex -2.0246 -4.60025 1
      vertex -0.445251 -9.51622 1
    endloop
  endfacet
  facet normal 0 0 1
    outer loop
      vertex -0.445251 -9.51622 1
      vertex -2.0246 -4.60025 1
      vertex -0.647324 -10.2476 1
    endloop
  endfacet
  facet normal 0 0 1
    outer loop
      vertex -0.647324 -10.2476 1
      vertex -2.0246 -4.60025 1
      vertex -0.89856 -11.1485 1
    endloop
  endfacet
  facet normal 0 0 1
    outer loop
      vertex -0.89856 -11.1485 1
      vertex -2.0246 -4.60025 1
      vertex -1.19896 -12.2191 1
    endloop
  endfacet
  facet normal 0 0 1
    outer loop
      vertex -1.19896 -12.2191 1
      vertex -2.0246 -4.60025 1
      vertex -1.54852 -13.4592 1
    endloop
  endfacet
  facet normal 0 0 1
    outer loop
      vertex -7.73238 -21.9812 1
      vertex -1.54852 -13.4592 1
      vertex -2.0246 -4.60025 1
    endloop
  endfacet
  facet normal -0 0 1
    outer loop
      vertex -2.0246 -4.60025 1
      vertex 0.191559 -6.94521 1
      vertex 2.40753 -4.60025 1
    endloop
  endfacet
  facet normal 0 0 1
    outer loop
      vertex 8.10258 -21.9812 1
      vertex 3.12915 -17.7294 1
      vertex 4.31456 -21.9812 1
    endloop
  endfacet
  facet normal -0 0 1
    outer loop
      vertex 1.92505 -13.4394 1
      vertex 8.10258 -21.9812 1
      vertex 2.40753 -4.60025 1
    endloop
  endfacet
  facet normal 0 0 1
    outer loop
      vertex 8.10258 -21.9812 1
      vertex 2.33038 -14.869 1
      vertex 3.12915 -17.7294 1
    endloop
  endfacet
  facet normal -0 0 1
    outer loop
      vertex -1.94727 -14.869 1
      vertex 3.12915 -17.7294 1
      vertex 2.33038 -14.869 1
    endloop
  endfacet
  facet normal 0 0 1
    outer loop
      vertex -1.94727 -14.869 1
      vertex -2.74622 -17.7294 1
      vertex 3.12915 -17.7294 1
    endloop
  endfacet
  facet normal 0 0 1
    outer loop
      vertex -1.54852 -13.4592 1
      vertex -7.73238 -21.9812 1
      vertex -1.94727 -14.869 1
    endloop
  endfacet
  facet normal 0 0 1
    outer loop
      vertex -1.94727 -14.869 1
      vertex -7.73238 -21.9812 1
      vertex -2.74622 -17.7294 1
    endloop
  endfacet
  facet normal 0 0 1
    outer loop
      vertex -2.74622 -17.7294 1
      vertex -7.73238 -21.9812 1
      vertex -3.93143 -21.9812 1
    endloop
  endfacet
  facet normal 0 -1 0
    outer loop
      vertex -2.74622 -17.7294 0
      vertex 3.12915 -17.7294 1
      vertex -2.74622 -17.7294 1
    endloop
  endfacet
  facet normal 0 -1 -0
    outer loop
      vertex 3.12915 -17.7294 1
      vertex -2.74622 -17.7294 0
      vertex 3.12915 -17.7294 0
    endloop
  endfacet
  facet normal -0.963263 -0.26856 0
    outer loop
      vertex 4.31456 -21.9812 0
      vertex 3.12915 -17.7294 1
      vertex 3.12915 -17.7294 0
    endloop
  endfacet
  facet normal -0.963263 -0.26856 0
    outer loop
      vertex 3.12915 -17.7294 1
      vertex 4.31456 -21.9812 0
      vertex 4.31456 -21.9812 1
    endloop
  endfacet
  facet normal 0 -1 0
    outer loop
      vertex 4.31456 -21.9812 0
      vertex 8.10258 -21.9812 1
      vertex 4.31456 -21.9812 1
    endloop
  endfacet
  facet normal 0 -1 -0
    outer loop
      vertex 8.10258 -21.9812 1
      vertex 4.31456 -21.9812 0
      vertex 8.10258 -21.9812 0
    endloop
  endfacet
  facet normal 0.950288 0.311372 0
    outer loop
      vertex 8.10258 -21.9812 1
      vertex 2.40753 -4.60025 0
      vertex 2.40753 -4.60025 1
    endloop
  endfacet
  facet normal 0.950288 0.311372 0
    outer loop
      vertex 2.40753 -4.60025 0
      vertex 8.10258 -21.9812 1
      vertex 8.10258 -21.9812 0
    endloop
  endfacet
  facet normal 0 1 -0
    outer loop
      vertex 2.40753 -4.60025 0
      vertex -2.0246 -4.60025 1
      vertex 2.40753 -4.60025 1
    endloop
  endfacet
  facet normal 0 1 0
    outer loop
      vertex -2.0246 -4.60025 1
      vertex 2.40753 -4.60025 0
      vertex -2.0246 -4.60025 0
    endloop
  endfacet
  facet normal -0.950082 0.312 0
    outer loop
      vertex -7.73238 -21.9812 0
      vertex -2.0246 -4.60025 1
      vertex -2.0246 -4.60025 0
    endloop
  endfacet
  facet normal -0.950082 0.312 0
    outer loop
      vertex -2.0246 -4.60025 1
      vertex -7.73238 -21.9812 0
      vertex -7.73238 -21.9812 1
    endloop
  endfacet
  facet normal 0 -1 0
    outer loop
      vertex -7.73238 -21.9812 0
      vertex -3.93143 -21.9812 1
      vertex -7.73238 -21.9812 1
    endloop
  endfacet
  facet normal 0 -1 -0
    outer loop
      vertex -3.93143 -21.9812 1
      vertex -7.73238 -21.9812 0
      vertex -3.93143 -21.9812 0
    endloop
  endfacet
  facet normal 0.963275 -0.268518 0
    outer loop
      vertex -3.93143 -21.9812 1
      vertex -2.74622 -17.7294 0
      vertex -2.74622 -17.7294 1
    endloop
  endfacet
  facet normal 0.963275 -0.268518 0
    outer loop
      vertex -2.74622 -17.7294 0
      vertex -3.93143 -21.9812 1
      vertex -3.93143 -21.9812 0
    endloop
  endfacet
  facet normal 0.962251 -0.272164 0
    outer loop
      vertex -1.94727 -14.869 1
      vertex -1.54852 -13.4592 0
      vertex -1.54852 -13.4592 1
    endloop
  endfacet
  facet normal 0.962251 -0.272164 0
    outer loop
      vertex -1.54852 -13.4592 0
      vertex -1.94727 -14.869 1
      vertex -1.94727 -14.869 0
    endloop
  endfacet
  facet normal 0.962493 -0.271308 0
    outer loop
      vertex -1.54852 -13.4592 1
      vertex -1.19896 -12.2191 0
      vertex -1.19896 -12.2191 1
    endloop
  endfacet
  facet normal 0.962493 -0.271308 0
    outer loop
      vertex -1.19896 -12.2191 0
      vertex -1.54852 -13.4592 1
      vertex -1.54852 -13.4592 0
    endloop
  endfacet
  facet normal 0.962816 -0.270157 0
    outer loop
      vertex -1.19896 -12.2191 1
      vertex -0.89856 -11.1485 0
      vertex -0.89856 -11.1485 1
    endloop
  endfacet
  facet normal 0.962816 -0.270157 0
    outer loop
      vertex -0.89856 -11.1485 0
      vertex -1.19896 -12.2191 1
      vertex -1.19896 -12.2191 0
    endloop
  endfacet
  facet normal 0.963246 -0.268622 0
    outer loop
      vertex -0.89856 -11.1485 1
      vertex -0.647324 -10.2476 0
      vertex -0.647324 -10.2476 1
    endloop
  endfacet
  facet normal 0.963246 -0.268622 0
    outer loop
      vertex -0.647324 -10.2476 0
      vertex -0.89856 -11.1485 1
      vertex -0.89856 -11.1485 0
    endloop
  endfacet
  facet normal 0.963887 -0.266312 0
    outer loop
      vertex -0.647324 -10.2476 1
      vertex -0.445251 -9.51622 0
      vertex -0.445251 -9.51622 1
    endloop
  endfacet
  facet normal 0.963887 -0.266312 0
    outer loop
      vertex -0.445251 -9.51622 0
      vertex -0.647324 -10.2476 1
      vertex -0.647324 -10.2476 0
    endloop
  endfacet
  facet normal 0.9649 -0.262619 0
    outer loop
      vertex -0.445251 -9.51622 1
      vertex -0.292358 -8.95447 0
      vertex -0.292358 -8.95447 1
    endloop
  endfacet
  facet normal 0.9649 -0.262619 0
    outer loop
      vertex -0.292358 -8.95447 0
      vertex -0.445251 -9.51622 1
      vertex -0.445251 -9.51622 0
    endloop
  endfacet
  facet normal 0.966745 -0.255741 0
    outer loop
      vertex -0.292358 -8.95447 1
      vertex -0.188614 -8.5623 0
      vertex -0.188614 -8.5623 1
    endloop
  endfacet
  facet normal 0.966745 -0.255741 0
    outer loop
      vertex -0.188614 -8.5623 0
      vertex -0.292358 -8.95447 1
      vertex -0.292358 -8.95447 0
    endloop
  endfacet
  facet normal 0.969006 -0.247038 0
    outer loop
      vertex -0.188614 -8.5623 1
      vertex -0.113022 -8.26579 0
      vertex -0.113022 -8.26579 1
    endloop
  endfacet
  facet normal 0.969006 -0.247038 0
    outer loop
      vertex -0.113022 -8.26579 0
      vertex -0.188614 -8.5623 1
      vertex -0.188614 -8.5623 0
    endloop
  endfacet
  facet normal 0.970272 -0.242019 0
    outer loop
      vertex -0.113022 -8.26579 1
      vertex -0.0445099 -7.99112 0
      vertex -0.0445099 -7.99112 1
    endloop
  endfacet
  facet normal 0.970272 -0.242019 0
    outer loop
      vertex -0.0445099 -7.99112 0
      vertex -0.113022 -8.26579 1
      vertex -0.113022 -8.26579 0
    endloop
  endfacet
  facet normal 0.971769 -0.235932 0
    outer loop
      vertex -0.0445099 -7.99112 1
      vertex 0.0168762 -7.73828 0
      vertex 0.0168762 -7.73828 1
    endloop
  endfacet
  facet normal 0.971769 -0.235932 0
    outer loop
      vertex 0.0168762 -7.73828 0
      vertex -0.0445099 -7.99112 1
      vertex -0.0445099 -7.99112 0
    endloop
  endfacet
  facet normal 0.973451 -0.228894 0
    outer loop
      vertex 0.0168762 -7.73828 1
      vertex 0.0711975 -7.50726 0
      vertex 0.0711975 -7.50726 1
    endloop
  endfacet
  facet normal 0.973451 -0.228894 0
    outer loop
      vertex 0.0711975 -7.50726 0
      vertex 0.0168762 -7.73828 1
      vertex 0.0168762 -7.73828 0
    endloop
  endfacet
  facet normal 0.975465 -0.220156 0
    outer loop
      vertex 0.0711975 -7.50726 1
      vertex 0.118408 -7.29808 0
      vertex 0.118408 -7.29808 1
    endloop
  endfacet
  facet normal 0.975465 -0.220156 0
    outer loop
      vertex 0.118408 -7.29808 0
      vertex 0.0711975 -7.50726 1
      vertex 0.0711975 -7.50726 0
    endloop
  endfacet
  facet normal 0.977835 -0.209377 0
    outer loop
      vertex 0.118408 -7.29808 1
      vertex 0.158524 -7.11073 0
      vertex 0.158524 -7.11073 1
    endloop
  endfacet
  facet normal 0.977835 -0.209377 0
    outer loop
      vertex 0.158524 -7.11073 0
      vertex 0.118408 -7.29808 1
      vertex 0.118408 -7.29808 0
    endloop
  endfacet
  facet normal 0.980659 -0.195723 0
    outer loop
      vertex 0.158524 -7.11073 1
      vertex 0.191559 -6.94521 0
      vertex 0.191559 -6.94521 1
    endloop
  endfacet
  facet normal 0.980659 -0.195723 0
    outer loop
      vertex 0.191559 -6.94521 0
      vertex 0.158524 -7.11073 1
      vertex 0.158524 -7.11073 0
    endloop
  endfacet
  facet normal -0.980096 -0.198527 0
    outer loop
      vertex 0.224258 -7.10664 0
      vertex 0.191559 -6.94521 1
      vertex 0.191559 -6.94521 0
    endloop
  endfacet
  facet normal -0.980096 -0.198527 0
    outer loop
      vertex 0.191559 -6.94521 1
      vertex 0.224258 -7.10664 0
      vertex 0.224258 -7.10664 1
    endloop
  endfacet
  facet normal -0.977594 -0.210498 0
    outer loop
      vertex 0.26355 -7.28912 0
      vertex 0.224258 -7.10664 1
      vertex 0.224258 -7.10664 0
    endloop
  endfacet
  facet normal -0.977594 -0.210498 0
    outer loop
      vertex 0.224258 -7.10664 1
      vertex 0.26355 -7.28912 0
      vertex 0.26355 -7.28912 1
    endloop
  endfacet
  facet normal -0.975529 -0.219869 0
    outer loop
      vertex 0.309418 -7.49263 0
      vertex 0.26355 -7.28912 1
      vertex 0.26355 -7.28912 0
    endloop
  endfacet
  facet normal -0.975529 -0.219869 0
    outer loop
      vertex 0.26355 -7.28912 1
      vertex 0.309418 -7.49263 0
      vertex 0.309418 -7.49263 1
    endloop
  endfacet
  facet normal -0.973796 -0.227422 0
    outer loop
      vertex 0.361862 -7.71719 0
      vertex 0.309418 -7.49263 1
      vertex 0.309418 -7.49263 0
    endloop
  endfacet
  facet normal -0.973796 -0.227422 0
    outer loop
      vertex 0.309418 -7.49263 1
      vertex 0.361862 -7.71719 0
      vertex 0.361862 -7.71719 1
    endloop
  endfacet
  facet normal -0.972329 -0.233614 0
    outer loop
      vertex 0.420868 -7.96278 0
      vertex 0.361862 -7.71719 1
      vertex 0.361862 -7.71719 0
    endloop
  endfacet
  facet normal -0.972329 -0.233614 0
    outer loop
      vertex 0.361862 -7.71719 1
      vertex 0.420868 -7.96278 0
      vertex 0.420868 -7.96278 1
    endloop
  endfacet
  facet normal -0.971047 -0.23889 0
    outer loop
      vertex 0.486465 -8.22942 0
      vertex 0.420868 -7.96278 1
      vertex 0.420868 -7.96278 0
    endloop
  endfacet
  facet normal -0.971047 -0.23889 0
    outer loop
      vertex 0.420868 -7.96278 1
      vertex 0.486465 -8.22942 0
      vertex 0.486465 -8.22942 1
    endloop
  endfacet
  facet normal -0.969938 -0.243353 0
    outer loop
      vertex 0.55864 -8.51709 0
      vertex 0.486465 -8.22942 1
      vertex 0.486465 -8.22942 0
    endloop
  endfacet
  facet normal -0.969938 -0.243353 0
    outer loop
      vertex 0.486465 -8.22942 1
      vertex 0.55864 -8.51709 0
      vertex 0.55864 -8.51709 1
    endloop
  endfacet
  facet normal -0.96738 -0.253328 0
    outer loop
      vertex 0.659515 -8.9023 0
      vertex 0.55864 -8.51709 1
      vertex 0.55864 -8.51709 0
    endloop
  endfacet
  facet normal -0.96738 -0.253328 0
    outer loop
      vertex 0.55864 -8.51709 1
      vertex 0.659515 -8.9023 0
      vertex 0.659515 -8.9023 1
    endloop
  endfacet
  facet normal -0.96516 -0.261661 0
    outer loop
      vertex 0.811142 -9.46159 0
      vertex 0.659515 -8.9023 1
      vertex 0.659515 -8.9023 0
    endloop
  endfacet
  facet normal -0.96516 -0.261661 0
    outer loop
      vertex 0.659515 -8.9023 1
      vertex 0.811142 -9.46159 0
      vertex 0.811142 -9.46159 1
    endloop
  endfacet
  facet normal -0.963971 -0.266009 0
    outer loop
      vertex 1.0135 -10.1949 0
      vertex 0.811142 -9.46159 1
      vertex 0.811142 -9.46159 0
    endloop
  endfacet
  facet normal -0.963971 -0.266009 0
    outer loop
      vertex 0.811142 -9.46159 1
      vertex 1.0135 -10.1949 0
      vertex 1.0135 -10.1949 1
    endloop
  endfacet
  facet normal -0.963234 -0.268665 0
    outer loop
      vertex 1.26662 -11.1024 0
      vertex 1.0135 -10.1949 1
      vertex 1.0135 -10.1949 0
    endloop
  endfacet
  facet normal -0.963234 -0.268665 0
    outer loop
      vertex 1.0135 -10.1949 1
      vertex 1.26662 -11.1024 0
      vertex 1.26662 -11.1024 1
    endloop
  endfacet
  facet normal -0.962719 -0.270503 0
    outer loop
      vertex 1.57047 -12.1838 0
      vertex 1.26662 -11.1024 1
      vertex 1.26662 -11.1024 0
    endloop
  endfacet
  facet normal -0.962719 -0.270503 0
    outer loop
      vertex 1.26662 -11.1024 1
      vertex 1.57047 -12.1838 0
      vertex 1.57047 -12.1838 1
    endloop
  endfacet
  facet normal -0.962362 -0.27177 0
    outer loop
      vertex 1.92505 -13.4394 0
      vertex 1.57047 -12.1838 1
      vertex 1.57047 -12.1838 0
    endloop
  endfacet
  facet normal -0.962362 -0.27177 0
    outer loop
      vertex 1.57047 -12.1838 1
      vertex 1.92505 -13.4394 0
      vertex 1.92505 -13.4394 1
    endloop
  endfacet
  facet normal -0.962078 -0.272775 0
    outer loop
      vertex 2.33038 -14.869 0
      vertex 1.92505 -13.4394 1
      vertex 1.92505 -13.4394 0
    endloop
  endfacet
  facet normal -0.962078 -0.272775 0
    outer loop
      vertex 1.92505 -13.4394 1
      vertex 2.33038 -14.869 0
      vertex 2.33038 -14.869 1
    endloop
  endfacet
  facet normal 0 1 -0
    outer loop
      vertex 2.33038 -14.869 0
      vertex -1.94727 -14.869 1
      vertex 2.33038 -14.869 1
    endloop
  endfacet
  facet normal 0 1 0
    outer loop
      vertex -1.94727 -14.869 1
      vertex 2.33038 -14.869 0
      vertex -1.94727 -14.869 0
    endloop
  endfacet
endsolid OpenSCAD_Model
