solid OpenSCAD_Model
  facet normal 0 0 -1
    outer loop
      vertex 5.78951 -47.9284 0
      vertex 40.3838 1.99879 0
      vertex 10.6849 -84.9062 0
    endloop
  endfacet
  facet normal -0 0 -1
    outer loop
      vertex 40.3838 1.99879 0
      vertex 5.78951 -47.9284 0
      vertex 20.7349 1.99879 0
    endloop
  endfacet
  facet normal 0 0 -1
    outer loop
      vertex 10.6849 -84.9062 0
      vertex 2.50345 -59.5241 0
      vertex 5.78951 -47.9284 0
    endloop
  endfacet
  facet normal 0 0 -1
    outer loop
      vertex 10.6849 -84.9062 0
      vertex 1.15065 -65.0645 0
      vertex 2.50345 -59.5241 0
    endloop
  endfacet
  facet normal 0 0 -1
    outer loop
      vertex -8.57733 -84.9062 0
      vertex 0.311905 -61.9065 0
      vertex 1.15065 -65.0645 0
    endloop
  endfacet
  facet normal -0 0 -1
    outer loop
      vertex 0.311905 -61.9065 0
      vertex -8.57733 -84.9062 0
      vertex -0.474258 -58.9851 0
    endloop
  endfacet
  facet normal -0 0 -1
    outer loop
      vertex -0.474258 -58.9851 0
      vertex -8.57733 -84.9062 0
      vertex -1.20786 -56.3004 0
    endloop
  endfacet
  facet normal -0 0 -1
    outer loop
      vertex -1.20786 -56.3004 0
      vertex -8.57733 -84.9062 0
      vertex -1.88887 -53.8524 0
    endloop
  endfacet
  facet normal -0 0 -1
    outer loop
      vertex -1.88887 -53.8524 0
      vertex -8.57733 -84.9062 0
      vertex -2.5173 -51.641 0
    endloop
  endfacet
  facet normal -0 0 -1
    outer loop
      vertex -2.5173 -51.641 0
      vertex -8.57733 -84.9062 0
      vertex -3.09315 -49.6664 0
    endloop
  endfacet
  facet normal 0 0 -1
    outer loop
      vertex -8.57733 -84.9062 0
      vertex 1.15065 -65.0645 0
      vertex 10.6849 -84.9062 0
    endloop
  endfacet
  facet normal -0 0 -1
    outer loop
      vertex -3.09315 -49.6664 0
      vertex -8.57733 -84.9062 0
      vertex -3.61642 -47.9284 0
    endloop
  endfacet
  facet normal 0 0 -1
    outer loop
      vertex -38.4691 1.99879 0
      vertex -3.61642 -47.9284 0
      vertex -8.57733 -84.9062 0
    endloop
  endfacet
  facet normal 0 0 -1
    outer loop
      vertex -3.61642 -47.9284 0
      vertex -38.4691 1.99879 0
      vertex -18.6264 1.99879 0
    endloop
  endfacet
  facet normal 0 0 1
    outer loop
      vertex 5.78951 -47.9284 1
      vertex 40.3838 1.99879 1
      vertex 20.7349 1.99879 1
    endloop
  endfacet
  facet normal 0 0 1
    outer loop
      vertex 40.3838 1.99879 1
      vertex 5.78951 -47.9284 1
      vertex 10.6849 -84.9062 1
    endloop
  endfacet
  facet normal -0 0 1
    outer loop
      vertex 2.50345 -59.5241 1
      vertex 10.6849 -84.9062 1
      vertex 5.78951 -47.9284 1
    endloop
  endfacet
  facet normal -0 0 1
    outer loop
      vertex 1.15065 -65.0645 1
      vertex 10.6849 -84.9062 1
      vertex 2.50345 -59.5241 1
    endloop
  endfacet
  facet normal 0 0 1
    outer loop
      vertex -8.57733 -84.9062 1
      vertex 0.311905 -61.9065 1
      vertex -0.474258 -58.9851 1
    endloop
  endfacet
  facet normal 0 0 1
    outer loop
      vertex -8.57733 -84.9062 1
      vertex -0.474258 -58.9851 1
      vertex -1.20786 -56.3004 1
    endloop
  endfacet
  facet normal 0 0 1
    outer loop
      vertex -8.57733 -84.9062 1
      vertex -1.20786 -56.3004 1
      vertex -1.88887 -53.8524 1
    endloop
  endfacet
  facet normal 0 0 1
    outer loop
      vertex -8.57733 -84.9062 1
      vertex -1.88887 -53.8524 1
      vertex -2.5173 -51.641 1
    endloop
  endfacet
  facet normal 0 0 1
    outer loop
      vertex -8.57733 -84.9062 1
      vertex -2.5173 -51.641 1
      vertex -3.09315 -49.6664 1
    endloop
  endfacet
  facet normal 0 0 1
    outer loop
      vertex -8.57733 -84.9062 1
      vertex -3.09315 -49.6664 1
      vertex -3.61642 -47.9284 1
    endloop
  endfacet
  facet normal 0 0 1
    outer loop
      vertex 1.15065 -65.0645 1
      vertex -8.57733 -84.9062 1
      vertex 10.6849 -84.9062 1
    endloop
  endfacet
  facet normal 0 0 1
    outer loop
      vertex 0.311905 -61.9065 1
      vertex -8.57733 -84.9062 1
      vertex 1.15065 -65.0645 1
    endloop
  endfacet
  facet normal -0 0 1
    outer loop
      vertex -38.4691 1.99879 1
      vertex -3.61642 -47.9284 1
      vertex -18.6264 1.99879 1
    endloop
  endfacet
  facet normal 0 0 1
    outer loop
      vertex -3.61642 -47.9284 1
      vertex -38.4691 1.99879 1
      vertex -8.57733 -84.9062 1
    endloop
  endfacet
  facet normal 0 1 -0
    outer loop
      vertex 40.3838 1.99879 0
      vertex 20.7349 1.99879 1
      vertex 40.3838 1.99879 1
    endloop
  endfacet
  facet normal 0 1 0
    outer loop
      vertex 20.7349 1.99879 1
      vertex 40.3838 1.99879 0
      vertex 20.7349 1.99879 0
    endloop
  endfacet
  facet normal -0.957999 0.286771 0
    outer loop
      vertex 5.78951 -47.9284 0
      vertex 20.7349 1.99879 1
      vertex 20.7349 1.99879 0
    endloop
  endfacet
  facet normal -0.957999 0.286771 0
    outer loop
      vertex 20.7349 1.99879 1
      vertex 5.78951 -47.9284 0
      vertex 5.78951 -47.9284 1
    endloop
  endfacet
  facet normal -0.962113 0.27265 0
    outer loop
      vertex 2.50345 -59.5241 0
      vertex 5.78951 -47.9284 1
      vertex 5.78951 -47.9284 0
    endloop
  endfacet
  facet normal -0.962113 0.27265 0
    outer loop
      vertex 5.78951 -47.9284 1
      vertex 2.50345 -59.5241 0
      vertex 2.50345 -59.5241 1
    endloop
  endfacet
  facet normal -0.97146 0.237202 0
    outer loop
      vertex 1.15065 -65.0645 0
      vertex 2.50345 -59.5241 1
      vertex 2.50345 -59.5241 0
    endloop
  endfacet
  facet normal -0.97146 0.237202 0
    outer loop
      vertex 2.50345 -59.5241 1
      vertex 1.15065 -65.0645 0
      vertex 1.15065 -65.0645 1
    endloop
  endfacet
  facet normal 0.966493 0.256694 0
    outer loop
      vertex 1.15065 -65.0645 1
      vertex 0.311905 -61.9065 0
      vertex 0.311905 -61.9065 1
    endloop
  endfacet
  facet normal 0.966493 0.256694 0
    outer loop
      vertex 0.311905 -61.9065 0
      vertex 1.15065 -65.0645 1
      vertex 1.15065 -65.0645 0
    endloop
  endfacet
  facet normal 0.965646 0.25986 0
    outer loop
      vertex 0.311905 -61.9065 1
      vertex -0.474258 -58.9851 0
      vertex -0.474258 -58.9851 1
    endloop
  endfacet
  facet normal 0.965646 0.25986 0
    outer loop
      vertex -0.474258 -58.9851 0
      vertex 0.311905 -61.9065 1
      vertex 0.311905 -61.9065 0
    endloop
  endfacet
  facet normal 0.964635 0.263589 0
    outer loop
      vertex -0.474258 -58.9851 1
      vertex -1.20786 -56.3004 0
      vertex -1.20786 -56.3004 1
    endloop
  endfacet
  facet normal 0.964635 0.263589 0
    outer loop
      vertex -1.20786 -56.3004 0
      vertex -0.474258 -58.9851 1
      vertex -0.474258 -58.9851 0
    endloop
  endfacet
  facet normal 0.963415 0.268013 0
    outer loop
      vertex -1.20786 -56.3004 1
      vertex -1.88887 -53.8524 0
      vertex -1.88887 -53.8524 1
    endloop
  endfacet
  facet normal 0.963415 0.268013 0
    outer loop
      vertex -1.88887 -53.8524 0
      vertex -1.20786 -56.3004 1
      vertex -1.20786 -56.3004 0
    endloop
  endfacet
  facet normal 0.961913 0.273354 0
    outer loop
      vertex -1.88887 -53.8524 1
      vertex -2.5173 -51.641 0
      vertex -2.5173 -51.641 1
    endloop
  endfacet
  facet normal 0.961913 0.273354 0
    outer loop
      vertex -2.5173 -51.641 0
      vertex -1.88887 -53.8524 1
      vertex -1.88887 -53.8524 0
    endloop
  endfacet
  facet normal 0.96001 0.279966 0
    outer loop
      vertex -2.5173 -51.641 1
      vertex -3.09315 -49.6664 0
      vertex -3.09315 -49.6664 1
    endloop
  endfacet
  facet normal 0.96001 0.279966 0
    outer loop
      vertex -3.09315 -49.6664 0
      vertex -2.5173 -51.641 1
      vertex -2.5173 -51.641 0
    endloop
  endfacet
  facet normal 0.957542 0.288293 0
    outer loop
      vertex -3.09315 -49.6664 1
      vertex -3.61642 -47.9284 0
      vertex -3.61642 -47.9284 1
    endloop
  endfacet
  facet normal 0.957542 0.288293 0
    outer loop
      vertex -3.61642 -47.9284 0
      vertex -3.09315 -49.6664 1
      vertex -3.09315 -49.6664 0
    endloop
  endfacet
  facet normal 0.957658 0.287908 0
    outer loop
      vertex -3.61642 -47.9284 1
      vertex -18.6264 1.99879 0
      vertex -18.6264 1.99879 1
    endloop
  endfacet
  facet normal 0.957658 0.287908 0
    outer loop
      vertex -18.6264 1.99879 0
      vertex -3.61642 -47.9284 1
      vertex -3.61642 -47.9284 0
    endloop
  endfacet
  facet normal 0 1 -0
    outer loop
      vertex -18.6264 1.99879 0
      vertex -38.4691 1.99879 1
      vertex -18.6264 1.99879 1
    endloop
  endfacet
  facet normal 0 1 0
    outer loop
      vertex -38.4691 1.99879 1
      vertex -18.6264 1.99879 0
      vertex -38.4691 1.99879 0
    endloop
  endfacet
  facet normal -0.945626 -0.325257 0
    outer loop
      vertex -8.57733 -84.9062 0
      vertex -38.4691 1.99879 1
      vertex -38.4691 1.99879 0
    endloop
  endfacet
  facet normal -0.945626 -0.325257 0
    outer loop
      vertex -38.4691 1.99879 1
      vertex -8.57733 -84.9062 0
      vertex -8.57733 -84.9062 1
    endloop
  endfacet
  facet normal 0 -1 0
    outer loop
      vertex -8.57733 -84.9062 0
      vertex 10.6849 -84.9062 1
      vertex -8.57733 -84.9062 1
    endloop
  endfacet
  facet normal 0 -1 -0
    outer loop
      vertex 10.6849 -84.9062 1
      vertex -8.57733 -84.9062 0
      vertex 10.6849 -84.9062 0
    endloop
  endfacet
  facet normal 0.94627 -0.323378 0
    outer loop
      vertex 10.6849 -84.9062 1
      vertex 40.3838 1.99879 0
      vertex 40.3838 1.99879 1
    endloop
  endfacet
  facet normal 0.94627 -0.323378 0
    outer loop
      vertex 40.3838 1.99879 0
      vertex 10.6849 -84.9062 1
      vertex 10.6849 -84.9062 0
    endloop
  endfacet
endsolid OpenSCAD_Model
