solid OpenSCAD_Model
  facet normal 0 0 -1
    outer loop
      vertex 17.7069 -61.0062 0
      vertex 34.0636 -67.433 0
      vertex 30.6295 -73.5648 0
    endloop
  endfacet
  facet normal 0 0 -1
    outer loop
      vertex 15.9399 -64.5351 0
      vertex 30.6295 -73.5648 0
      vertex 26.5381 -78.5817 0
    endloop
  endfacet
  facet normal 0 0 -1
    outer loop
      vertex 13.9521 -67.4223 0
      vertex 26.5381 -78.5817 0
      vertex 21.7893 -82.4838 0
    endloop
  endfacet
  facet normal 0 0 -1
    outer loop
      vertex 30.6295 -73.5648 0
      vertex 15.9399 -64.5351 0
      vertex 17.7069 -61.0062 0
    endloop
  endfacet
  facet normal 0 0 -1
    outer loop
      vertex 34.0636 -67.433 0
      vertex 19.2529 -56.8356 0
      vertex 36.8403 -60.1863 0
    endloop
  endfacet
  facet normal 0 0 -1
    outer loop
      vertex 11.7433 -69.668 0
      vertex 21.7893 -82.4838 0
      vertex 16.3832 -85.271 0
    endloop
  endfacet
  facet normal 0 -0 -1
    outer loop
      vertex 19.2529 -56.8356 0
      vertex 34.0636 -67.433 0
      vertex 17.7069 -61.0062 0
    endloop
  endfacet
  facet normal 0 0 -1
    outer loop
      vertex 26.5381 -78.5817 0
      vertex 13.9521 -67.4223 0
      vertex 15.9399 -64.5351 0
    endloop
  endfacet
  facet normal 0 0 -1
    outer loop
      vertex 21.7893 -82.4838 0
      vertex 11.7433 -69.668 0
      vertex 13.9521 -67.4223 0
    endloop
  endfacet
  facet normal 0 0 -1
    outer loop
      vertex 9.31367 -71.272 0
      vertex 16.3832 -85.271 0
      vertex 10.3197 -86.9433 0
    endloop
  endfacet
  facet normal 0 0 -1
    outer loop
      vertex 16.3832 -85.271 0
      vertex 9.31367 -71.272 0
      vertex 11.7433 -69.668 0
    endloop
  endfacet
  facet normal 0 0 -1
    outer loop
      vertex 10.3197 -86.9433 0
      vertex 6.66312 -72.2345 0
      vertex 9.31367 -71.272 0
    endloop
  endfacet
  facet normal 0 0 -1
    outer loop
      vertex 3.5988 -87.5007 0
      vertex 6.66312 -72.2345 0
      vertex 10.3197 -86.9433 0
    endloop
  endfacet
  facet normal 0 0 -1
    outer loop
      vertex 6.66312 -72.2345 0
      vertex 3.5988 -87.5007 0
      vertex 3.79166 -72.5553 0
    endloop
  endfacet
  facet normal 0 0 -1
    outer loop
      vertex 3.5988 -87.5007 0
      vertex 1.32414 -72.3949 0
      vertex 3.79166 -72.5553 0
    endloop
  endfacet
  facet normal 0 0 -1
    outer loop
      vertex -1.39775 -87.266 0
      vertex 1.32414 -72.3949 0
      vertex 3.5988 -87.5007 0
    endloop
  endfacet
  facet normal -0 0 -1
    outer loop
      vertex 1.32414 -72.3949 0
      vertex -1.39775 -87.266 0
      vertex -0.961975 -71.9137 0
    endloop
  endfacet
  facet normal 0 0 -1
    outer loop
      vertex -6.04333 -86.562 0
      vertex -0.961975 -71.9137 0
      vertex -1.39775 -87.266 0
    endloop
  endfacet
  facet normal -0 0 -1
    outer loop
      vertex -0.961975 -71.9137 0
      vertex -6.04333 -86.562 0
      vertex -3.06671 -71.1117 0
    endloop
  endfacet
  facet normal 0 0 -1
    outer loop
      vertex -10.3379 -85.3887 0
      vertex -3.06671 -71.1117 0
      vertex -6.04333 -86.562 0
    endloop
  endfacet
  facet normal -0 0 -1
    outer loop
      vertex -3.06671 -71.1117 0
      vertex -10.3379 -85.3887 0
      vertex -4.99005 -69.989 0
    endloop
  endfacet
  facet normal 0 0 -1
    outer loop
      vertex -14.2815 -83.746 0
      vertex -4.99005 -69.989 0
      vertex -10.3379 -85.3887 0
    endloop
  endfacet
  facet normal -0 0 -1
    outer loop
      vertex -4.99005 -69.989 0
      vertex -14.2815 -83.746 0
      vertex -6.73201 -68.5454 0
    endloop
  endfacet
  facet normal 0 0 -1
    outer loop
      vertex -17.8741 -81.634 0
      vertex -6.73201 -68.5454 0
      vertex -14.2815 -83.746 0
    endloop
  endfacet
  facet normal -0 0 -1
    outer loop
      vertex -6.73201 -68.5454 0
      vertex -17.8741 -81.634 0
      vertex -8.29256 -66.7811 0
    endloop
  endfacet
  facet normal 0 0 -1
    outer loop
      vertex -21.1157 -79.0526 0
      vertex -8.29256 -66.7811 0
      vertex -17.8741 -81.634 0
    endloop
  endfacet
  facet normal 0 0 -1
    outer loop
      vertex -24.0063 -76.0019 0
      vertex -8.29256 -66.7811 0
      vertex -21.1157 -79.0526 0
    endloop
  endfacet
  facet normal -0 0 -1
    outer loop
      vertex -8.29256 -66.7811 0
      vertex -24.0063 -76.0019 0
      vertex -9.67174 -64.6959 0
    endloop
  endfacet
  facet normal 0 0 -1
    outer loop
      vertex -26.5272 -72.4987 0
      vertex -9.67174 -64.6959 0
      vertex -24.0063 -76.0019 0
    endloop
  endfacet
  facet normal -0 0 -1
    outer loop
      vertex -10.8682 -62.3148 0
      vertex -28.6603 -68.5603 0
      vertex -11.8805 -59.6628 0
    endloop
  endfacet
  facet normal 0 0 -1
    outer loop
      vertex -28.6603 -68.5603 0
      vertex -10.8682 -62.3148 0
      vertex -26.5272 -72.4987 0
    endloop
  endfacet
  facet normal -0 0 -1
    outer loop
      vertex -9.67174 -64.6959 0
      vertex -26.5272 -72.4987 0
      vertex -10.8682 -62.3148 0
    endloop
  endfacet
  facet normal 0 0 -1
    outer loop
      vertex 17.5144 -27.2669 0
      vertex 33.8637 -19.5871 0
      vertex 35.0372 -23.0147 0
    endloop
  endfacet
  facet normal -0 0 -1
    outer loop
      vertex 33.8637 -19.5871 0
      vertex 16.9424 -25.3781 0
      vertex 32.5154 -16.4094 0
    endloop
  endfacet
  facet normal 0 0 -1
    outer loop
      vertex 16.2941 -23.6142 0
      vertex 32.5154 -16.4094 0
      vertex 16.9424 -25.3781 0
    endloop
  endfacet
  facet normal -0 0 -1
    outer loop
      vertex 32.5154 -16.4094 0
      vertex 15.5697 -21.9752 0
      vertex 30.9922 -13.4816 0
    endloop
  endfacet
  facet normal -0 0 -1
    outer loop
      vertex 30.9922 -13.4816 0
      vertex 14.7689 -20.4612 0
      vertex 29.2942 -10.8035 0
    endloop
  endfacet
  facet normal 0 0 -1
    outer loop
      vertex 13.892 -19.0721 0
      vertex 29.2942 -10.8035 0
      vertex 14.7689 -20.4612 0
    endloop
  endfacet
  facet normal -0 0 -1
    outer loop
      vertex 29.2942 -10.8035 0
      vertex 13.892 -19.0721 0
      vertex 27.4212 -8.37529 0
    endloop
  endfacet
  facet normal -0 0 -1
    outer loop
      vertex 27.4212 -8.37529 0
      vertex 12.9388 -17.8079 0
      vertex 25.3734 -6.1969 0
    endloop
  endfacet
  facet normal 0 0 -1
    outer loop
      vertex 33.8637 -19.5871 0
      vertex 17.5144 -27.2669 0
      vertex 16.9424 -25.3781 0
    endloop
  endfacet
  facet normal 0 0 -1
    outer loop
      vertex 15.5697 -21.9752 0
      vertex 32.5154 -16.4094 0
      vertex 16.2941 -23.6142 0
    endloop
  endfacet
  facet normal 0 0 -1
    outer loop
      vertex 14.7689 -20.4612 0
      vertex 30.9922 -13.4816 0
      vertex 15.5697 -21.9752 0
    endloop
  endfacet
  facet normal 0 0 -1
    outer loop
      vertex 12.9388 -17.8079 0
      vertex 27.4212 -8.37529 0
      vertex 13.892 -19.0721 0
    endloop
  endfacet
  facet normal -0 0 -1
    outer loop
      vertex 25.3734 -6.1969 0
      vertex 12.9388 -17.8079 0
      vertex 23.1508 -4.26834 0
    endloop
  endfacet
  facet normal 0 0 -1
    outer loop
      vertex 11.9094 -16.6687 0
      vertex 23.1508 -4.26834 0
      vertex 12.9388 -17.8079 0
    endloop
  endfacet
  facet normal -0 0 -1
    outer loop
      vertex 23.1508 -4.26834 0
      vertex 11.9094 -16.6687 0
      vertex 20.7614 -2.59328 0
    endloop
  endfacet
  facet normal 0 0 -1
    outer loop
      vertex 10.8195 -15.6689 0
      vertex 20.7614 -2.59328 0
      vertex 11.9094 -16.6687 0
    endloop
  endfacet
  facet normal -0 0 -1
    outer loop
      vertex 20.7614 -2.59328 0
      vertex 10.8195 -15.6689 0
      vertex 18.2128 -1.17592 0
    endloop
  endfacet
  facet normal 0 0 -1
    outer loop
      vertex 9.68494 -14.8228 0
      vertex 18.2128 -1.17592 0
      vertex 10.8195 -15.6689 0
    endloop
  endfacet
  facet normal -0 0 -1
    outer loop
      vertex 18.2128 -1.17592 0
      vertex 9.68494 -14.8228 0
      vertex 15.5052 -0.0162659 0
    endloop
  endfacet
  facet normal 0 0 -1
    outer loop
      vertex 8.50563 -14.1306 0
      vertex 15.5052 -0.0162659 0
      vertex 9.68494 -14.8228 0
    endloop
  endfacet
  facet normal -0 0 -1
    outer loop
      vertex 15.5052 -0.0162659 0
      vertex 8.50563 -14.1306 0
      vertex 12.6386 0.885681 0
    endloop
  endfacet
  facet normal 0 0 -1
    outer loop
      vertex 7.28163 -13.5922 0
      vertex 12.6386 0.885681 0
      vertex 8.50563 -14.1306 0
    endloop
  endfacet
  facet normal -0 0 -1
    outer loop
      vertex 12.6386 0.885681 0
      vertex 7.28163 -13.5922 0
      vertex 9.61276 1.52994 0
    endloop
  endfacet
  facet normal 0 0 -1
    outer loop
      vertex 6.01291 -13.2077 0
      vertex 9.61276 1.52994 0
      vertex 7.28163 -13.5922 0
    endloop
  endfacet
  facet normal -0 0 -1
    outer loop
      vertex 9.61276 1.52994 0
      vertex 6.01291 -13.2077 0
      vertex 6.42789 1.91649 0
    endloop
  endfacet
  facet normal 0 0 -1
    outer loop
      vertex 4.69948 -12.977 0
      vertex 6.42789 1.91649 0
      vertex 6.01291 -13.2077 0
    endloop
  endfacet
  facet normal 0 0 -1
    outer loop
      vertex 3.34135 -12.9 0
      vertex 6.42789 1.91649 0
      vertex 4.69948 -12.977 0
    endloop
  endfacet
  facet normal 0 0 -1
    outer loop
      vertex 3.34135 -12.9 0
      vertex 3.08391 2.04535 0
      vertex 6.42789 1.91649 0
    endloop
  endfacet
  facet normal 0 0 -1
    outer loop
      vertex -1.30753 -13.5009 0
      vertex 3.08391 2.04535 0
      vertex 3.34135 -12.9 0
    endloop
  endfacet
  facet normal 0 0 -1
    outer loop
      vertex -6.62419 1.1395 0
      vertex -1.30753 -13.5009 0
      vertex -5.2412 -15.3034 0
    endloop
  endfacet
  facet normal 0 0 -1
    outer loop
      vertex -1.30753 -13.5009 0
      vertex -6.62419 1.1395 0
      vertex 3.08391 2.04535 0
    endloop
  endfacet
  facet normal 0 0 -1
    outer loop
      vertex -14.8387 -1.57806 0
      vertex -5.2412 -15.3034 0
      vertex -8.45967 -18.3077 0
    endloop
  endfacet
  facet normal 0 0 -1
    outer loop
      vertex -26.7872 -12.4483 0
      vertex -8.45967 -18.3077 0
      vertex -10.9629 -22.5136 0
    endloop
  endfacet
  facet normal 0 0 -1
    outer loop
      vertex -30.5211 -20.601 0
      vertex -10.9629 -22.5136 0
      vertex -12.7509 -27.9212 0
    endloop
  endfacet
  facet normal 0 0 -1
    outer loop
      vertex -5.2412 -15.3034 0
      vertex -14.8387 -1.57806 0
      vertex -6.62419 1.1395 0
    endloop
  endfacet
  facet normal 0 0 -1
    outer loop
      vertex -32.7614 -30.5654 0
      vertex -12.7509 -27.9212 0
      vertex -13.8238 -34.5305 0
    endloop
  endfacet
  facet normal 0 0 -1
    outer loop
      vertex -33.5082 -42.3415 0
      vertex -13.8238 -34.5305 0
      vertex -14.1814 -42.3415 0
    endloop
  endfacet
  facet normal 0 0 -1
    outer loop
      vertex -30.4055 -64.1868 0
      vertex -11.8805 -59.6628 0
      vertex -28.6603 -68.5603 0
    endloop
  endfacet
  facet normal -0 0 -1
    outer loop
      vertex -11.8805 -59.6628 0
      vertex -30.4055 -64.1868 0
      vertex -12.7088 -56.7401 0
    endloop
  endfacet
  facet normal 0 0 -1
    outer loop
      vertex -31.7629 -59.3782 0
      vertex -12.7088 -56.7401 0
      vertex -30.4055 -64.1868 0
    endloop
  endfacet
  facet normal -0 0 -1
    outer loop
      vertex -13.8238 -34.5305 0
      vertex -33.5082 -42.3415 0
      vertex -32.7614 -30.5654 0
    endloop
  endfacet
  facet normal -0 0 -1
    outer loop
      vertex -12.7088 -56.7401 0
      vertex -31.7629 -59.3782 0
      vertex -13.3531 -53.5466 0
    endloop
  endfacet
  facet normal 0 0 -1
    outer loop
      vertex -32.7325 -54.1344 0
      vertex -13.3531 -53.5466 0
      vertex -31.7629 -59.3782 0
    endloop
  endfacet
  facet normal -0 0 -1
    outer loop
      vertex -12.7509 -27.9212 0
      vertex -32.7614 -30.5654 0
      vertex -30.5211 -20.601 0
    endloop
  endfacet
  facet normal -0 0 -1
    outer loop
      vertex -13.3531 -53.5466 0
      vertex -32.7325 -54.1344 0
      vertex -13.8132 -50.0823 0
    endloop
  endfacet
  facet normal 0 0 -1
    outer loop
      vertex -33.3143 -48.4555 0
      vertex -13.8132 -50.0823 0
      vertex -32.7325 -54.1344 0
    endloop
  endfacet
  facet normal 0 0 -1
    outer loop
      vertex -10.9629 -22.5136 0
      vertex -30.5211 -20.601 0
      vertex -26.7872 -12.4483 0
    endloop
  endfacet
  facet normal 0 0 -1
    outer loop
      vertex -13.8132 -50.0823 0
      vertex -33.3143 -48.4555 0
      vertex -14.0893 -46.3473 0
    endloop
  endfacet
  facet normal 0 0 -1
    outer loop
      vertex -33.5082 -42.3415 0
      vertex -14.0893 -46.3473 0
      vertex -33.3143 -48.4555 0
    endloop
  endfacet
  facet normal 0 0 -1
    outer loop
      vertex -14.0893 -46.3473 0
      vertex -33.5082 -42.3415 0
      vertex -14.1814 -42.3415 0
    endloop
  endfacet
  facet normal 0 0 -1
    outer loop
      vertex -8.45967 -18.3077 0
      vertex -26.7872 -12.4483 0
      vertex -21.5597 -6.10733 0
    endloop
  endfacet
  facet normal 0 0 -1
    outer loop
      vertex -8.45967 -18.3077 0
      vertex -21.5597 -6.10733 0
      vertex -14.8387 -1.57806 0
    endloop
  endfacet
  facet normal 0 0 1
    outer loop
      vertex 16.9424 -25.3781 1
      vertex 33.8637 -19.5871 1
      vertex 32.5154 -16.4094 1
    endloop
  endfacet
  facet normal 0 0 1
    outer loop
      vertex 15.5697 -21.9752 1
      vertex 32.5154 -16.4094 1
      vertex 30.9922 -13.4816 1
    endloop
  endfacet
  facet normal 0 0 1
    outer loop
      vertex 14.7689 -20.4612 1
      vertex 30.9922 -13.4816 1
      vertex 29.2942 -10.8035 1
    endloop
  endfacet
  facet normal 0 0 1
    outer loop
      vertex 13.892 -19.0721 1
      vertex 29.2942 -10.8035 1
      vertex 27.4212 -8.37529 1
    endloop
  endfacet
  facet normal 0 0 1
    outer loop
      vertex 12.9388 -17.8079 1
      vertex 27.4212 -8.37529 1
      vertex 25.3734 -6.1969 1
    endloop
  endfacet
  facet normal 0 0 1
    outer loop
      vertex 12.9388 -17.8079 1
      vertex 25.3734 -6.1969 1
      vertex 23.1508 -4.26834 1
    endloop
  endfacet
  facet normal 0 0 1
    outer loop
      vertex 11.9094 -16.6687 1
      vertex 23.1508 -4.26834 1
      vertex 20.7614 -2.59328 1
    endloop
  endfacet
  facet normal 0 0 1
    outer loop
      vertex 10.8195 -15.6689 1
      vertex 20.7614 -2.59328 1
      vertex 18.2128 -1.17592 1
    endloop
  endfacet
  facet normal 0 0 1
    outer loop
      vertex 30.9922 -13.4816 1
      vertex 14.7689 -20.4612 1
      vertex 15.5697 -21.9752 1
    endloop
  endfacet
  facet normal 0 0 1
    outer loop
      vertex 33.8637 -19.5871 1
      vertex 17.5144 -27.2669 1
      vertex 35.0372 -23.0147 1
    endloop
  endfacet
  facet normal 0 -0 1
    outer loop
      vertex 17.5144 -27.2669 1
      vertex 33.8637 -19.5871 1
      vertex 16.9424 -25.3781 1
    endloop
  endfacet
  facet normal 0 0 1
    outer loop
      vertex 32.5154 -16.4094 1
      vertex 16.2941 -23.6142 1
      vertex 16.9424 -25.3781 1
    endloop
  endfacet
  facet normal 0 0 1
    outer loop
      vertex 9.68494 -14.8228 1
      vertex 18.2128 -1.17592 1
      vertex 15.5052 -0.0162659 1
    endloop
  endfacet
  facet normal 0 0 1
    outer loop
      vertex 32.5154 -16.4094 1
      vertex 15.5697 -21.9752 1
      vertex 16.2941 -23.6142 1
    endloop
  endfacet
  facet normal 0 0 1
    outer loop
      vertex 29.2942 -10.8035 1
      vertex 13.892 -19.0721 1
      vertex 14.7689 -20.4612 1
    endloop
  endfacet
  facet normal 0 0 1
    outer loop
      vertex 27.4212 -8.37529 1
      vertex 12.9388 -17.8079 1
      vertex 13.892 -19.0721 1
    endloop
  endfacet
  facet normal 0 0 1
    outer loop
      vertex 8.50563 -14.1306 1
      vertex 15.5052 -0.0162659 1
      vertex 12.6386 0.885681 1
    endloop
  endfacet
  facet normal 0 0 1
    outer loop
      vertex 23.1508 -4.26834 1
      vertex 11.9094 -16.6687 1
      vertex 12.9388 -17.8079 1
    endloop
  endfacet
  facet normal 0 0 1
    outer loop
      vertex 20.7614 -2.59328 1
      vertex 10.8195 -15.6689 1
      vertex 11.9094 -16.6687 1
    endloop
  endfacet
  facet normal 0 0 1
    outer loop
      vertex 18.2128 -1.17592 1
      vertex 9.68494 -14.8228 1
      vertex 10.8195 -15.6689 1
    endloop
  endfacet
  facet normal 0 0 1
    outer loop
      vertex 7.28163 -13.5922 1
      vertex 12.6386 0.885681 1
      vertex 9.61276 1.52994 1
    endloop
  endfacet
  facet normal 0 0 1
    outer loop
      vertex 15.5052 -0.0162659 1
      vertex 8.50563 -14.1306 1
      vertex 9.68494 -14.8228 1
    endloop
  endfacet
  facet normal 0 0 1
    outer loop
      vertex 12.6386 0.885681 1
      vertex 7.28163 -13.5922 1
      vertex 8.50563 -14.1306 1
    endloop
  endfacet
  facet normal 0 0 1
    outer loop
      vertex 6.01291 -13.2077 1
      vertex 9.61276 1.52994 1
      vertex 6.42789 1.91649 1
    endloop
  endfacet
  facet normal 0 0 1
    outer loop
      vertex 9.61276 1.52994 1
      vertex 6.01291 -13.2077 1
      vertex 7.28163 -13.5922 1
    endloop
  endfacet
  facet normal 0 0 1
    outer loop
      vertex 6.42789 1.91649 1
      vertex 4.69948 -12.977 1
      vertex 6.01291 -13.2077 1
    endloop
  endfacet
  facet normal 0 0 1
    outer loop
      vertex 6.42789 1.91649 1
      vertex 3.34135 -12.9 1
      vertex 4.69948 -12.977 1
    endloop
  endfacet
  facet normal 0 0 1
    outer loop
      vertex 3.08391 2.04535 1
      vertex 3.34135 -12.9 1
      vertex 6.42789 1.91649 1
    endloop
  endfacet
  facet normal 0 0 1
    outer loop
      vertex 3.08391 2.04535 1
      vertex -1.30753 -13.5009 1
      vertex 3.34135 -12.9 1
    endloop
  endfacet
  facet normal -0 0 1
    outer loop
      vertex -6.62419 1.1395 1
      vertex -1.30753 -13.5009 1
      vertex 3.08391 2.04535 1
    endloop
  endfacet
  facet normal 0 0 1
    outer loop
      vertex -1.30753 -13.5009 1
      vertex -6.62419 1.1395 1
      vertex -5.2412 -15.3034 1
    endloop
  endfacet
  facet normal -0 0 1
    outer loop
      vertex -14.8387 -1.57806 1
      vertex -5.2412 -15.3034 1
      vertex -6.62419 1.1395 1
    endloop
  endfacet
  facet normal 0 0 1
    outer loop
      vertex -5.2412 -15.3034 1
      vertex -14.8387 -1.57806 1
      vertex -8.45967 -18.3077 1
    endloop
  endfacet
  facet normal -0 0 1
    outer loop
      vertex -21.5597 -6.10733 1
      vertex -8.45967 -18.3077 1
      vertex -14.8387 -1.57806 1
    endloop
  endfacet
  facet normal -0 0 1
    outer loop
      vertex -26.7872 -12.4483 1
      vertex -8.45967 -18.3077 1
      vertex -21.5597 -6.10733 1
    endloop
  endfacet
  facet normal 0 0 1
    outer loop
      vertex -8.45967 -18.3077 1
      vertex -26.7872 -12.4483 1
      vertex -10.9629 -22.5136 1
    endloop
  endfacet
  facet normal -0 0 1
    outer loop
      vertex -30.5211 -20.601 1
      vertex -10.9629 -22.5136 1
      vertex -26.7872 -12.4483 1
    endloop
  endfacet
  facet normal 0 0 1
    outer loop
      vertex -10.9629 -22.5136 1
      vertex -30.5211 -20.601 1
      vertex -12.7509 -27.9212 1
    endloop
  endfacet
  facet normal 0 -0 1
    outer loop
      vertex -33.3143 -48.4555 1
      vertex -14.1814 -42.3415 1
      vertex -33.5082 -42.3415 1
    endloop
  endfacet
  facet normal 0 -0 1
    outer loop
      vertex -32.7325 -54.1344 1
      vertex -14.1814 -42.3415 1
      vertex -33.3143 -48.4555 1
    endloop
  endfacet
  facet normal 0 0 1
    outer loop
      vertex -32.7614 -30.5654 1
      vertex -12.7509 -27.9212 1
      vertex -30.5211 -20.601 1
    endloop
  endfacet
  facet normal 0 -0 1
    outer loop
      vertex -31.7629 -59.3782 1
      vertex -14.1814 -42.3415 1
      vertex -32.7325 -54.1344 1
    endloop
  endfacet
  facet normal 0 -0 1
    outer loop
      vertex -30.4055 -64.1868 1
      vertex -14.1814 -42.3415 1
      vertex -31.7629 -59.3782 1
    endloop
  endfacet
  facet normal 0 0 1
    outer loop
      vertex -12.7509 -27.9212 1
      vertex -32.7614 -30.5654 1
      vertex -13.8238 -34.5305 1
    endloop
  endfacet
  facet normal 0 -0 1
    outer loop
      vertex -28.6603 -68.5603 1
      vertex -14.1814 -42.3415 1
      vertex -30.4055 -64.1868 1
    endloop
  endfacet
  facet normal 0 -0 1
    outer loop
      vertex -26.5272 -72.4987 1
      vertex -14.1814 -42.3415 1
      vertex -28.6603 -68.5603 1
    endloop
  endfacet
  facet normal 0 0 1
    outer loop
      vertex -33.5082 -42.3415 1
      vertex -13.8238 -34.5305 1
      vertex -32.7614 -30.5654 1
    endloop
  endfacet
  facet normal 0 0 1
    outer loop
      vertex -14.1814 -42.3415 1
      vertex -17.8741 -81.634 1
      vertex -14.2815 -83.746 1
    endloop
  endfacet
  facet normal 0 0 1
    outer loop
      vertex -14.1814 -42.3415 1
      vertex -24.0063 -76.0019 1
      vertex -21.1157 -79.0526 1
    endloop
  endfacet
  facet normal 0 0 1
    outer loop
      vertex -13.8238 -34.5305 1
      vertex -33.5082 -42.3415 1
      vertex -14.1814 -42.3415 1
    endloop
  endfacet
  facet normal 0 0 1
    outer loop
      vertex -14.1814 -42.3415 1
      vertex -26.5272 -72.4987 1
      vertex -24.0063 -76.0019 1
    endloop
  endfacet
  facet normal 0 0 1
    outer loop
      vertex -14.1814 -42.3415 1
      vertex -21.1157 -79.0526 1
      vertex -17.8741 -81.634 1
    endloop
  endfacet
  facet normal 0 0 1
    outer loop
      vertex 19.2529 -56.8356 1
      vertex 34.0636 -67.433 1
      vertex 36.8403 -60.1863 1
    endloop
  endfacet
  facet normal 0 0 1
    outer loop
      vertex 34.0636 -67.433 1
      vertex 17.7069 -61.0062 1
      vertex 30.6295 -73.5648 1
    endloop
  endfacet
  facet normal -0 0 1
    outer loop
      vertex 15.9399 -64.5351 1
      vertex 30.6295 -73.5648 1
      vertex 17.7069 -61.0062 1
    endloop
  endfacet
  facet normal 0 0 1
    outer loop
      vertex 34.0636 -67.433 1
      vertex 19.2529 -56.8356 1
      vertex 17.7069 -61.0062 1
    endloop
  endfacet
  facet normal 0 0 1
    outer loop
      vertex 30.6295 -73.5648 1
      vertex 15.9399 -64.5351 1
      vertex 26.5381 -78.5817 1
    endloop
  endfacet
  facet normal -0 0 1
    outer loop
      vertex 13.9521 -67.4223 1
      vertex 26.5381 -78.5817 1
      vertex 15.9399 -64.5351 1
    endloop
  endfacet
  facet normal 0 0 1
    outer loop
      vertex 26.5381 -78.5817 1
      vertex 13.9521 -67.4223 1
      vertex 21.7893 -82.4838 1
    endloop
  endfacet
  facet normal -0 0 1
    outer loop
      vertex 11.7433 -69.668 1
      vertex 21.7893 -82.4838 1
      vertex 13.9521 -67.4223 1
    endloop
  endfacet
  facet normal 0 0 1
    outer loop
      vertex 21.7893 -82.4838 1
      vertex 11.7433 -69.668 1
      vertex 16.3832 -85.271 1
    endloop
  endfacet
  facet normal -0 0 1
    outer loop
      vertex 9.31367 -71.272 1
      vertex 16.3832 -85.271 1
      vertex 11.7433 -69.668 1
    endloop
  endfacet
  facet normal 0 0 1
    outer loop
      vertex 16.3832 -85.271 1
      vertex 9.31367 -71.272 1
      vertex 10.3197 -86.9433 1
    endloop
  endfacet
  facet normal -0 0 1
    outer loop
      vertex 6.66312 -72.2345 1
      vertex 10.3197 -86.9433 1
      vertex 9.31367 -71.272 1
    endloop
  endfacet
  facet normal 0 0 1
    outer loop
      vertex 3.5988 -87.5007 1
      vertex 6.66312 -72.2345 1
      vertex 3.79166 -72.5553 1
    endloop
  endfacet
  facet normal 0 0 1
    outer loop
      vertex 6.66312 -72.2345 1
      vertex 3.5988 -87.5007 1
      vertex 10.3197 -86.9433 1
    endloop
  endfacet
  facet normal 0 0 1
    outer loop
      vertex 1.32414 -72.3949 1
      vertex 3.5988 -87.5007 1
      vertex 3.79166 -72.5553 1
    endloop
  endfacet
  facet normal 0 0 1
    outer loop
      vertex -1.39775 -87.266 1
      vertex 1.32414 -72.3949 1
      vertex -0.961975 -71.9137 1
    endloop
  endfacet
  facet normal 0 0 1
    outer loop
      vertex 1.32414 -72.3949 1
      vertex -1.39775 -87.266 1
      vertex 3.5988 -87.5007 1
    endloop
  endfacet
  facet normal 0 0 1
    outer loop
      vertex -6.04333 -86.562 1
      vertex -0.961975 -71.9137 1
      vertex -3.06671 -71.1117 1
    endloop
  endfacet
  facet normal 0 0 1
    outer loop
      vertex -10.3379 -85.3887 1
      vertex -3.06671 -71.1117 1
      vertex -4.99005 -69.989 1
    endloop
  endfacet
  facet normal 0 0 1
    outer loop
      vertex -0.961975 -71.9137 1
      vertex -6.04333 -86.562 1
      vertex -1.39775 -87.266 1
    endloop
  endfacet
  facet normal 0 0 1
    outer loop
      vertex -14.2815 -83.746 1
      vertex -4.99005 -69.989 1
      vertex -6.73201 -68.5454 1
    endloop
  endfacet
  facet normal 0 0 1
    outer loop
      vertex -14.2815 -83.746 1
      vertex -6.73201 -68.5454 1
      vertex -8.29256 -66.7811 1
    endloop
  endfacet
  facet normal 0 0 1
    outer loop
      vertex -14.2815 -83.746 1
      vertex -8.29256 -66.7811 1
      vertex -9.67174 -64.6959 1
    endloop
  endfacet
  facet normal 0 0 1
    outer loop
      vertex -3.06671 -71.1117 1
      vertex -10.3379 -85.3887 1
      vertex -6.04333 -86.562 1
    endloop
  endfacet
  facet normal 0 0 1
    outer loop
      vertex -14.2815 -83.746 1
      vertex -9.67174 -64.6959 1
      vertex -10.8682 -62.3148 1
    endloop
  endfacet
  facet normal 0 0 1
    outer loop
      vertex -14.2815 -83.746 1
      vertex -10.8682 -62.3148 1
      vertex -11.8805 -59.6628 1
    endloop
  endfacet
  facet normal 0 0 1
    outer loop
      vertex -14.2815 -83.746 1
      vertex -11.8805 -59.6628 1
      vertex -12.7088 -56.7401 1
    endloop
  endfacet
  facet normal 0 0 1
    outer loop
      vertex -14.2815 -83.746 1
      vertex -12.7088 -56.7401 1
      vertex -13.3531 -53.5466 1
    endloop
  endfacet
  facet normal 0 0 1
    outer loop
      vertex -14.2815 -83.746 1
      vertex -13.3531 -53.5466 1
      vertex -13.8132 -50.0823 1
    endloop
  endfacet
  facet normal 0 0 1
    outer loop
      vertex -4.99005 -69.989 1
      vertex -14.2815 -83.746 1
      vertex -10.3379 -85.3887 1
    endloop
  endfacet
  facet normal 0 0 1
    outer loop
      vertex -14.0893 -46.3473 1
      vertex -14.2815 -83.746 1
      vertex -13.8132 -50.0823 1
    endloop
  endfacet
  facet normal 0 0 1
    outer loop
      vertex -14.2815 -83.746 1
      vertex -14.0893 -46.3473 1
      vertex -14.1814 -42.3415 1
    endloop
  endfacet
  facet normal 0.265871 -0.964008 0
    outer loop
      vertex 10.3197 -86.9433 0
      vertex 16.3832 -85.271 1
      vertex 10.3197 -86.9433 1
    endloop
  endfacet
  facet normal 0.265871 -0.964008 0
    outer loop
      vertex 16.3832 -85.271 1
      vertex 10.3197 -86.9433 0
      vertex 16.3832 -85.271 0
    endloop
  endfacet
  facet normal 0.458248 -0.888825 0
    outer loop
      vertex 16.3832 -85.271 0
      vertex 21.7893 -82.4838 1
      vertex 16.3832 -85.271 1
    endloop
  endfacet
  facet normal 0.458248 -0.888825 0
    outer loop
      vertex 21.7893 -82.4838 1
      vertex 16.3832 -85.271 0
      vertex 21.7893 -82.4838 0
    endloop
  endfacet
  facet normal 0.634866 -0.772623 0
    outer loop
      vertex 21.7893 -82.4838 0
      vertex 26.5381 -78.5817 1
      vertex 21.7893 -82.4838 1
    endloop
  endfacet
  facet normal 0.634866 -0.772623 0
    outer loop
      vertex 26.5381 -78.5817 1
      vertex 21.7893 -82.4838 0
      vertex 26.5381 -78.5817 0
    endloop
  endfacet
  facet normal 0.774966 -0.632003 0
    outer loop
      vertex 26.5381 -78.5817 1
      vertex 30.6295 -73.5648 0
      vertex 30.6295 -73.5648 1
    endloop
  endfacet
  facet normal 0.774966 -0.632003 0
    outer loop
      vertex 30.6295 -73.5648 0
      vertex 26.5381 -78.5817 1
      vertex 26.5381 -78.5817 0
    endloop
  endfacet
  facet normal 0.872488 -0.488635 0
    outer loop
      vertex 30.6295 -73.5648 1
      vertex 34.0636 -67.433 0
      vertex 34.0636 -67.433 1
    endloop
  endfacet
  facet normal 0.872488 -0.488635 0
    outer loop
      vertex 34.0636 -67.433 0
      vertex 30.6295 -73.5648 1
      vertex 30.6295 -73.5648 0
    endloop
  endfacet
  facet normal 0.933798 -0.357801 0
    outer loop
      vertex 34.0636 -67.433 1
      vertex 36.8403 -60.1863 0
      vertex 36.8403 -60.1863 1
    endloop
  endfacet
  facet normal 0.933798 -0.357801 0
    outer loop
      vertex 36.8403 -60.1863 0
      vertex 34.0636 -67.433 1
      vertex 34.0636 -67.433 0
    endloop
  endfacet
  facet normal 0.187151 0.982331 -0
    outer loop
      vertex 36.8403 -60.1863 0
      vertex 19.2529 -56.8356 1
      vertex 36.8403 -60.1863 1
    endloop
  endfacet
  facet normal 0.187151 0.982331 0
    outer loop
      vertex 19.2529 -56.8356 1
      vertex 36.8403 -60.1863 0
      vertex 19.2529 -56.8356 0
    endloop
  endfacet
  facet normal -0.937651 0.347578 0
    outer loop
      vertex 17.7069 -61.0062 0
      vertex 19.2529 -56.8356 1
      vertex 19.2529 -56.8356 0
    endloop
  endfacet
  facet normal -0.937651 0.347578 0
    outer loop
      vertex 19.2529 -56.8356 1
      vertex 17.7069 -61.0062 0
      vertex 17.7069 -61.0062 1
    endloop
  endfacet
  facet normal -0.894169 0.44773 0
    outer loop
      vertex 15.9399 -64.5351 0
      vertex 17.7069 -61.0062 1
      vertex 17.7069 -61.0062 0
    endloop
  endfacet
  facet normal -0.894169 0.44773 0
    outer loop
      vertex 17.7069 -61.0062 1
      vertex 15.9399 -64.5351 0
      vertex 15.9399 -64.5351 1
    endloop
  endfacet
  facet normal -0.823662 0.567081 0
    outer loop
      vertex 13.9521 -67.4223 0
      vertex 15.9399 -64.5351 1
      vertex 15.9399 -64.5351 0
    endloop
  endfacet
  facet normal -0.823662 0.567081 0
    outer loop
      vertex 15.9399 -64.5351 1
      vertex 13.9521 -67.4223 0
      vertex 13.9521 -67.4223 1
    endloop
  endfacet
  facet normal -0.71294 0.701225 0
    outer loop
      vertex 11.7433 -69.668 0
      vertex 13.9521 -67.4223 1
      vertex 13.9521 -67.4223 0
    endloop
  endfacet
  facet normal -0.71294 0.701225 0
    outer loop
      vertex 13.9521 -67.4223 1
      vertex 11.7433 -69.668 0
      vertex 11.7433 -69.668 1
    endloop
  endfacet
  facet normal -0.550948 0.834539 0
    outer loop
      vertex 11.7433 -69.668 0
      vertex 9.31367 -71.272 1
      vertex 11.7433 -69.668 1
    endloop
  endfacet
  facet normal -0.550948 0.834539 0
    outer loop
      vertex 9.31367 -71.272 1
      vertex 11.7433 -69.668 0
      vertex 9.31367 -71.272 0
    endloop
  endfacet
  facet normal -0.341324 0.939946 0
    outer loop
      vertex 9.31367 -71.272 0
      vertex 6.66312 -72.2345 1
      vertex 9.31367 -71.272 1
    endloop
  endfacet
  facet normal -0.341324 0.939946 0
    outer loop
      vertex 6.66312 -72.2345 1
      vertex 9.31367 -71.272 0
      vertex 6.66312 -72.2345 0
    endloop
  endfacet
  facet normal -0.111029 0.993817 0
    outer loop
      vertex 6.66312 -72.2345 0
      vertex 3.79166 -72.5553 1
      vertex 6.66312 -72.2345 1
    endloop
  endfacet
  facet normal -0.111029 0.993817 0
    outer loop
      vertex 3.79166 -72.5553 1
      vertex 6.66312 -72.2345 0
      vertex 3.79166 -72.5553 0
    endloop
  endfacet
  facet normal 0.0648676 0.997894 -0
    outer loop
      vertex 3.79166 -72.5553 0
      vertex 1.32414 -72.3949 1
      vertex 3.79166 -72.5553 1
    endloop
  endfacet
  facet normal 0.0648676 0.997894 0
    outer loop
      vertex 1.32414 -72.3949 1
      vertex 3.79166 -72.5553 0
      vertex 1.32414 -72.3949 0
    endloop
  endfacet
  facet normal 0.205975 0.978557 -0
    outer loop
      vertex 1.32414 -72.3949 0
      vertex -0.961975 -71.9137 1
      vertex 1.32414 -72.3949 1
    endloop
  endfacet
  facet normal 0.205975 0.978557 0
    outer loop
      vertex -0.961975 -71.9137 1
      vertex 1.32414 -72.3949 0
      vertex -0.961975 -71.9137 0
    endloop
  endfacet
  facet normal 0.356071 0.934459 -0
    outer loop
      vertex -0.961975 -71.9137 0
      vertex -3.06671 -71.1117 1
      vertex -0.961975 -71.9137 1
    endloop
  endfacet
  facet normal 0.356071 0.934459 0
    outer loop
      vertex -3.06671 -71.1117 1
      vertex -0.961975 -71.9137 0
      vertex -3.06671 -71.1117 0
    endloop
  endfacet
  facet normal 0.504123 0.863632 -0
    outer loop
      vertex -3.06671 -71.1117 0
      vertex -4.99005 -69.989 1
      vertex -3.06671 -71.1117 1
    endloop
  endfacet
  facet normal 0.504123 0.863632 0
    outer loop
      vertex -4.99005 -69.989 1
      vertex -3.06671 -71.1117 0
      vertex -4.99005 -69.989 0
    endloop
  endfacet
  facet normal 0.638086 0.769965 -0
    outer loop
      vertex -4.99005 -69.989 0
      vertex -6.73201 -68.5454 1
      vertex -4.99005 -69.989 1
    endloop
  endfacet
  facet normal 0.638086 0.769965 0
    outer loop
      vertex -6.73201 -68.5454 1
      vertex -4.99005 -69.989 0
      vertex -6.73201 -68.5454 0
    endloop
  endfacet
  facet normal 0.749034 0.662532 0
    outer loop
      vertex -6.73201 -68.5454 1
      vertex -8.29256 -66.7811 0
      vertex -8.29256 -66.7811 1
    endloop
  endfacet
  facet normal 0.749034 0.662532 0
    outer loop
      vertex -8.29256 -66.7811 0
      vertex -6.73201 -68.5454 1
      vertex -6.73201 -68.5454 0
    endloop
  endfacet
  facet normal 0.834067 0.551663 0
    outer loop
      vertex -8.29256 -66.7811 1
      vertex -9.67174 -64.6959 0
      vertex -9.67174 -64.6959 1
    endloop
  endfacet
  facet normal 0.834067 0.551663 0
    outer loop
      vertex -9.67174 -64.6959 0
      vertex -8.29256 -66.7811 1
      vertex -8.29256 -66.7811 0
    endloop
  endfacet
  facet normal 0.893538 0.448987 0
    outer loop
      vertex -9.67174 -64.6959 1
      vertex -10.8682 -62.3148 0
      vertex -10.8682 -62.3148 1
    endloop
  endfacet
  facet normal 0.893538 0.448987 0
    outer loop
      vertex -10.8682 -62.3148 0
      vertex -9.67174 -64.6959 1
      vertex -9.67174 -64.6959 0
    endloop
  endfacet
  facet normal 0.934251 0.356615 0
    outer loop
      vertex -10.8682 -62.3148 1
      vertex -11.8805 -59.6628 0
      vertex -11.8805 -59.6628 1
    endloop
  endfacet
  facet normal 0.934251 0.356615 0
    outer loop
      vertex -11.8805 -59.6628 0
      vertex -10.8682 -62.3148 1
      vertex -10.8682 -62.3148 0
    endloop
  endfacet
  facet normal 0.962109 0.272664 0
    outer loop
      vertex -11.8805 -59.6628 1
      vertex -12.7088 -56.7401 0
      vertex -12.7088 -56.7401 1
    endloop
  endfacet
  facet normal 0.962109 0.272664 0
    outer loop
      vertex -12.7088 -56.7401 0
      vertex -11.8805 -59.6628 1
      vertex -11.8805 -59.6628 0
    endloop
  endfacet
  facet normal 0.980249 0.197769 0
    outer loop
      vertex -12.7088 -56.7401 1
      vertex -13.3531 -53.5466 0
      vertex -13.3531 -53.5466 1
    endloop
  endfacet
  facet normal 0.980249 0.197769 0
    outer loop
      vertex -13.3531 -53.5466 0
      vertex -12.7088 -56.7401 1
      vertex -12.7088 -56.7401 0
    endloop
  endfacet
  facet normal 0.991295 0.131656 0
    outer loop
      vertex -13.3531 -53.5466 1
      vertex -13.8132 -50.0823 0
      vertex -13.8132 -50.0823 1
    endloop
  endfacet
  facet normal 0.991295 0.131656 0
    outer loop
      vertex -13.8132 -50.0823 0
      vertex -13.3531 -53.5466 1
      vertex -13.3531 -53.5466 0
    endloop
  endfacet
  facet normal 0.997279 0.0737212 0
    outer loop
      vertex -13.8132 -50.0823 1
      vertex -14.0893 -46.3473 0
      vertex -14.0893 -46.3473 1
    endloop
  endfacet
  facet normal 0.997279 0.0737212 0
    outer loop
      vertex -14.0893 -46.3473 0
      vertex -13.8132 -50.0823 1
      vertex -13.8132 -50.0823 0
    endloop
  endfacet
  facet normal 0.999736 0.0229856 0
    outer loop
      vertex -14.0893 -46.3473 1
      vertex -14.1814 -42.3415 0
      vertex -14.1814 -42.3415 1
    endloop
  endfacet
  facet normal 0.999736 0.0229856 0
    outer loop
      vertex -14.1814 -42.3415 0
      vertex -14.0893 -46.3473 1
      vertex -14.0893 -46.3473 0
    endloop
  endfacet
  facet normal 0.998954 -0.0457337 0
    outer loop
      vertex -14.1814 -42.3415 1
      vertex -13.8238 -34.5305 0
      vertex -13.8238 -34.5305 1
    endloop
  endfacet
  facet normal 0.998954 -0.0457337 0
    outer loop
      vertex -13.8238 -34.5305 0
      vertex -14.1814 -42.3415 1
      vertex -14.1814 -42.3415 0
    endloop
  endfacet
  facet normal 0.987079 -0.160234 0
    outer loop
      vertex -13.8238 -34.5305 1
      vertex -12.7509 -27.9212 0
      vertex -12.7509 -27.9212 1
    endloop
  endfacet
  facet normal 0.987079 -0.160234 0
    outer loop
      vertex -12.7509 -27.9212 0
      vertex -13.8238 -34.5305 1
      vertex -13.8238 -34.5305 0
    endloop
  endfacet
  facet normal 0.949446 -0.31393 0
    outer loop
      vertex -12.7509 -27.9212 1
      vertex -10.9629 -22.5136 0
      vertex -10.9629 -22.5136 1
    endloop
  endfacet
  facet normal 0.949446 -0.31393 0
    outer loop
      vertex -10.9629 -22.5136 0
      vertex -12.7509 -27.9212 1
      vertex -12.7509 -27.9212 0
    endloop
  endfacet
  facet normal 0.859318 -0.511441 0
    outer loop
      vertex -10.9629 -22.5136 1
      vertex -8.45967 -18.3077 0
      vertex -8.45967 -18.3077 1
    endloop
  endfacet
  facet normal 0.859318 -0.511441 0
    outer loop
      vertex -8.45967 -18.3077 0
      vertex -10.9629 -22.5136 1
      vertex -10.9629 -22.5136 0
    endloop
  endfacet
  facet normal 0.682366 -0.731011 0
    outer loop
      vertex -8.45967 -18.3077 0
      vertex -5.2412 -15.3034 1
      vertex -8.45967 -18.3077 1
    endloop
  endfacet
  facet normal 0.682366 -0.731011 0
    outer loop
      vertex -5.2412 -15.3034 1
      vertex -8.45967 -18.3077 0
      vertex -5.2412 -15.3034 0
    endloop
  endfacet
  facet normal 0.416572 -0.909103 0
    outer loop
      vertex -5.2412 -15.3034 0
      vertex -1.30753 -13.5009 1
      vertex -5.2412 -15.3034 1
    endloop
  endfacet
  facet normal 0.416572 -0.909103 0
    outer loop
      vertex -1.30753 -13.5009 1
      vertex -5.2412 -15.3034 0
      vertex -1.30753 -13.5009 0
    endloop
  endfacet
  facet normal 0.128191 -0.99175 0
    outer loop
      vertex -1.30753 -13.5009 0
      vertex 3.34135 -12.9 1
      vertex -1.30753 -13.5009 1
    endloop
  endfacet
  facet normal 0.128191 -0.99175 0
    outer loop
      vertex 3.34135 -12.9 1
      vertex -1.30753 -13.5009 0
      vertex 3.34135 -12.9 0
    endloop
  endfacet
  facet normal -0.0566047 -0.998397 0
    outer loop
      vertex 3.34135 -12.9 0
      vertex 4.69948 -12.977 1
      vertex 3.34135 -12.9 1
    endloop
  endfacet
  facet normal -0.0566047 -0.998397 -0
    outer loop
      vertex 4.69948 -12.977 1
      vertex 3.34135 -12.9 0
      vertex 4.69948 -12.977 0
    endloop
  endfacet
  facet normal -0.172999 -0.984922 0
    outer loop
      vertex 4.69948 -12.977 0
      vertex 6.01291 -13.2077 1
      vertex 4.69948 -12.977 1
    endloop
  endfacet
  facet normal -0.172999 -0.984922 -0
    outer loop
      vertex 6.01291 -13.2077 1
      vertex 4.69948 -12.977 0
      vertex 6.01291 -13.2077 0
    endloop
  endfacet
  facet normal -0.290035 -0.957016 0
    outer loop
      vertex 6.01291 -13.2077 0
      vertex 7.28163 -13.5922 1
      vertex 6.01291 -13.2077 1
    endloop
  endfacet
  facet normal -0.290035 -0.957016 -0
    outer loop
      vertex 7.28163 -13.5922 1
      vertex 6.01291 -13.2077 0
      vertex 7.28163 -13.5922 0
    endloop
  endfacet
  facet normal -0.402638 -0.915359 0
    outer loop
      vertex 7.28163 -13.5922 0
      vertex 8.50563 -14.1306 1
      vertex 7.28163 -13.5922 1
    endloop
  endfacet
  facet normal -0.402638 -0.915359 -0
    outer loop
      vertex 8.50563 -14.1306 1
      vertex 7.28163 -13.5922 0
      vertex 8.50563 -14.1306 0
    endloop
  endfacet
  facet normal -0.506199 -0.862417 0
    outer loop
      vertex 8.50563 -14.1306 0
      vertex 9.68494 -14.8228 1
      vertex 8.50563 -14.1306 1
    endloop
  endfacet
  facet normal -0.506199 -0.862417 -0
    outer loop
      vertex 9.68494 -14.8228 1
      vertex 8.50563 -14.1306 0
      vertex 9.68494 -14.8228 0
    endloop
  endfacet
  facet normal -0.597818 -0.801632 0
    outer loop
      vertex 9.68494 -14.8228 0
      vertex 10.8195 -15.6689 1
      vertex 9.68494 -14.8228 1
    endloop
  endfacet
  facet normal -0.597818 -0.801632 -0
    outer loop
      vertex 10.8195 -15.6689 1
      vertex 9.68494 -14.8228 0
      vertex 10.8195 -15.6689 0
    endloop
  endfacet
  facet normal -0.675991 -0.73691 0
    outer loop
      vertex 10.8195 -15.6689 0
      vertex 11.9094 -16.6687 1
      vertex 10.8195 -15.6689 1
    endloop
  endfacet
  facet normal -0.675991 -0.73691 -0
    outer loop
      vertex 11.9094 -16.6687 1
      vertex 10.8195 -15.6689 0
      vertex 11.9094 -16.6687 0
    endloop
  endfacet
  facet normal -0.741958 -0.670446 0
    outer loop
      vertex 12.9388 -17.8079 0
      vertex 11.9094 -16.6687 1
      vertex 11.9094 -16.6687 0
    endloop
  endfacet
  facet normal -0.741958 -0.670446 0
    outer loop
      vertex 11.9094 -16.6687 1
      vertex 12.9388 -17.8079 0
      vertex 12.9388 -17.8079 1
    endloop
  endfacet
  facet normal -0.798466 -0.602039 0
    outer loop
      vertex 13.892 -19.0721 0
      vertex 12.9388 -17.8079 1
      vertex 12.9388 -17.8079 0
    endloop
  endfacet
  facet normal -0.798466 -0.602039 0
    outer loop
      vertex 12.9388 -17.8079 1
      vertex 13.892 -19.0721 0
      vertex 13.892 -19.0721 1
    endloop
  endfacet
  facet normal -0.845606 -0.533807 0
    outer loop
      vertex 14.7689 -20.4612 0
      vertex 13.892 -19.0721 1
      vertex 13.892 -19.0721 0
    endloop
  endfacet
  facet normal -0.845606 -0.533807 0
    outer loop
      vertex 13.892 -19.0721 1
      vertex 14.7689 -20.4612 0
      vertex 14.7689 -20.4612 1
    endloop
  endfacet
  facet normal -0.883964 -0.467555 0
    outer loop
      vertex 15.5697 -21.9752 0
      vertex 14.7689 -20.4612 1
      vertex 14.7689 -20.4612 0
    endloop
  endfacet
  facet normal -0.883964 -0.467555 0
    outer loop
      vertex 14.7689 -20.4612 1
      vertex 15.5697 -21.9752 0
      vertex 15.5697 -21.9752 1
    endloop
  endfacet
  facet normal -0.914647 -0.404253 0
    outer loop
      vertex 16.2941 -23.6142 0
      vertex 15.5697 -21.9752 1
      vertex 15.5697 -21.9752 0
    endloop
  endfacet
  facet normal -0.914647 -0.404253 0
    outer loop
      vertex 15.5697 -21.9752 1
      vertex 16.2941 -23.6142 0
      vertex 16.2941 -23.6142 1
    endloop
  endfacet
  facet normal -0.938612 -0.344975 0
    outer loop
      vertex 16.9424 -25.3781 0
      vertex 16.2941 -23.6142 1
      vertex 16.2941 -23.6142 0
    endloop
  endfacet
  facet normal -0.938612 -0.344975 0
    outer loop
      vertex 16.2941 -23.6142 1
      vertex 16.9424 -25.3781 0
      vertex 16.9424 -25.3781 1
    endloop
  endfacet
  facet normal -0.957076 -0.289839 0
    outer loop
      vertex 17.5144 -27.2669 0
      vertex 16.9424 -25.3781 1
      vertex 16.9424 -25.3781 0
    endloop
  endfacet
  facet normal -0.957076 -0.289839 0
    outer loop
      vertex 16.9424 -25.3781 1
      vertex 17.5144 -27.2669 0
      vertex 17.5144 -27.2669 1
    endloop
  endfacet
  facet normal 0.235823 -0.971796 0
    outer loop
      vertex 17.5144 -27.2669 0
      vertex 35.0372 -23.0147 1
      vertex 17.5144 -27.2669 1
    endloop
  endfacet
  facet normal 0.235823 -0.971796 0
    outer loop
      vertex 35.0372 -23.0147 1
      vertex 17.5144 -27.2669 0
      vertex 35.0372 -23.0147 0
    endloop
  endfacet
  facet normal 0.946088 0.32391 0
    outer loop
      vertex 35.0372 -23.0147 1
      vertex 33.8637 -19.5871 0
      vertex 33.8637 -19.5871 1
    endloop
  endfacet
  facet normal 0.946088 0.32391 0
    outer loop
      vertex 33.8637 -19.5871 0
      vertex 35.0372 -23.0147 1
      vertex 35.0372 -23.0147 0
    endloop
  endfacet
  facet normal 0.920563 0.390595 0
    outer loop
      vertex 33.8637 -19.5871 1
      vertex 32.5154 -16.4094 0
      vertex 32.5154 -16.4094 1
    endloop
  endfacet
  facet normal 0.920563 0.390595 0
    outer loop
      vertex 32.5154 -16.4094 0
      vertex 33.8637 -19.5871 1
      vertex 33.8637 -19.5871 0
    endloop
  endfacet
  facet normal 0.887125 0.46153 0
    outer loop
      vertex 32.5154 -16.4094 1
      vertex 30.9922 -13.4816 0
      vertex 30.9922 -13.4816 1
    endloop
  endfacet
  facet normal 0.887125 0.46153 0
    outer loop
      vertex 30.9922 -13.4816 0
      vertex 32.5154 -16.4094 1
      vertex 32.5154 -16.4094 0
    endloop
  endfacet
  facet normal 0.844552 0.535473 0
    outer loop
      vertex 30.9922 -13.4816 1
      vertex 29.2942 -10.8035 0
      vertex 29.2942 -10.8035 1
    endloop
  endfacet
  facet normal 0.844552 0.535473 0
    outer loop
      vertex 29.2942 -10.8035 0
      vertex 30.9922 -13.4816 1
      vertex 30.9922 -13.4816 0
    endloop
  endfacet
  facet normal 0.791812 0.610764 0
    outer loop
      vertex 29.2942 -10.8035 1
      vertex 27.4212 -8.37529 0
      vertex 27.4212 -8.37529 1
    endloop
  endfacet
  facet normal 0.791812 0.610764 0
    outer loop
      vertex 27.4212 -8.37529 0
      vertex 29.2942 -10.8035 1
      vertex 29.2942 -10.8035 0
    endloop
  endfacet
  facet normal 0.728609 0.68493 0
    outer loop
      vertex 27.4212 -8.37529 1
      vertex 25.3734 -6.1969 0
      vertex 25.3734 -6.1969 1
    endloop
  endfacet
  facet normal 0.728609 0.68493 0
    outer loop
      vertex 25.3734 -6.1969 0
      vertex 27.4212 -8.37529 1
      vertex 27.4212 -8.37529 0
    endloop
  endfacet
  facet normal 0.655378 0.755301 -0
    outer loop
      vertex 25.3734 -6.1969 0
      vertex 23.1508 -4.26834 1
      vertex 25.3734 -6.1969 1
    endloop
  endfacet
  facet normal 0.655378 0.755301 0
    outer loop
      vertex 23.1508 -4.26834 1
      vertex 25.3734 -6.1969 0
      vertex 23.1508 -4.26834 0
    endloop
  endfacet
  facet normal 0.574033 0.818832 -0
    outer loop
      vertex 23.1508 -4.26834 0
      vertex 20.7614 -2.59328 1
      vertex 23.1508 -4.26834 1
    endloop
  endfacet
  facet normal 0.574033 0.818832 0
    outer loop
      vertex 20.7614 -2.59328 1
      vertex 23.1508 -4.26834 0
      vertex 20.7614 -2.59328 0
    endloop
  endfacet
  facet normal 0.486028 0.873943 -0
    outer loop
      vertex 20.7614 -2.59328 0
      vertex 18.2128 -1.17592 1
      vertex 20.7614 -2.59328 1
    endloop
  endfacet
  facet normal 0.486028 0.873943 0
    outer loop
      vertex 18.2128 -1.17592 1
      vertex 20.7614 -2.59328 0
      vertex 18.2128 -1.17592 0
    endloop
  endfacet
  facet normal 0.393705 0.919237 -0
    outer loop
      vertex 18.2128 -1.17592 0
      vertex 15.5052 -0.0162659 1
      vertex 18.2128 -1.17592 1
    endloop
  endfacet
  facet normal 0.393705 0.919237 0
    outer loop
      vertex 15.5052 -0.0162659 1
      vertex 18.2128 -1.17592 0
      vertex 15.5052 -0.0162659 0
    endloop
  endfacet
  facet normal 0.300134 0.953897 -0
    outer loop
      vertex 15.5052 -0.0162659 0
      vertex 12.6386 0.885681 1
      vertex 15.5052 -0.0162659 1
    endloop
  endfacet
  facet normal 0.300134 0.953897 0
    outer loop
      vertex 12.6386 0.885681 1
      vertex 15.5052 -0.0162659 0
      vertex 12.6386 0.885681 0
    endloop
  endfacet
  facet normal 0.208251 0.978075 -0
    outer loop
      vertex 12.6386 0.885681 0
      vertex 9.61276 1.52994 1
      vertex 12.6386 0.885681 1
    endloop
  endfacet
  facet normal 0.208251 0.978075 0
    outer loop
      vertex 9.61276 1.52994 1
      vertex 12.6386 0.885681 0
      vertex 9.61276 1.52994 0
    endloop
  endfacet
  facet normal 0.120487 0.992715 -0
    outer loop
      vertex 9.61276 1.52994 0
      vertex 6.42789 1.91649 1
      vertex 9.61276 1.52994 1
    endloop
  endfacet
  facet normal 0.120487 0.992715 0
    outer loop
      vertex 6.42789 1.91649 1
      vertex 9.61276 1.52994 0
      vertex 6.42789 1.91649 0
    endloop
  endfacet
  facet normal 0.0385063 0.999258 -0
    outer loop
      vertex 6.42789 1.91649 0
      vertex 3.08391 2.04535 1
      vertex 6.42789 1.91649 1
    endloop
  endfacet
  facet normal 0.0385063 0.999258 0
    outer loop
      vertex 3.08391 2.04535 1
      vertex 6.42789 1.91649 0
      vertex 3.08391 2.04535 0
    endloop
  endfacet
  facet normal -0.0929051 0.995675 0
    outer loop
      vertex 3.08391 2.04535 0
      vertex -6.62419 1.1395 1
      vertex 3.08391 2.04535 1
    endloop
  endfacet
  facet normal -0.0929051 0.995675 0
    outer loop
      vertex -6.62419 1.1395 1
      vertex 3.08391 2.04535 0
      vertex -6.62419 1.1395 0
    endloop
  endfacet
  facet normal -0.314083 0.949395 0
    outer loop
      vertex -6.62419 1.1395 0
      vertex -14.8387 -1.57806 1
      vertex -6.62419 1.1395 1
    endloop
  endfacet
  facet normal -0.314083 0.949395 0
    outer loop
      vertex -14.8387 -1.57806 1
      vertex -6.62419 1.1395 0
      vertex -14.8387 -1.57806 0
    endloop
  endfacet
  facet normal -0.558845 0.829272 0
    outer loop
      vertex -14.8387 -1.57806 0
      vertex -21.5597 -6.10733 1
      vertex -14.8387 -1.57806 1
    endloop
  endfacet
  facet normal -0.558845 0.829272 0
    outer loop
      vertex -21.5597 -6.10733 1
      vertex -14.8387 -1.57806 0
      vertex -21.5597 -6.10733 0
    endloop
  endfacet
  facet normal -0.7716 0.636108 0
    outer loop
      vertex -26.7872 -12.4483 0
      vertex -21.5597 -6.10733 1
      vertex -21.5597 -6.10733 0
    endloop
  endfacet
  facet normal -0.7716 0.636108 0
    outer loop
      vertex -21.5597 -6.10733 1
      vertex -26.7872 -12.4483 0
      vertex -26.7872 -12.4483 1
    endloop
  endfacet
  facet normal -0.909181 0.416401 0
    outer loop
      vertex -30.5211 -20.601 0
      vertex -26.7872 -12.4483 1
      vertex -26.7872 -12.4483 0
    endloop
  endfacet
  facet normal -0.909181 0.416401 0
    outer loop
      vertex -26.7872 -12.4483 1
      vertex -30.5211 -20.601 0
      vertex -30.5211 -20.601 1
    endloop
  endfacet
  facet normal -0.975645 0.219355 0
    outer loop
      vertex -32.7614 -30.5654 0
      vertex -30.5211 -20.601 1
      vertex -30.5211 -20.601 0
    endloop
  endfacet
  facet normal -0.975645 0.219355 0
    outer loop
      vertex -30.5211 -20.601 1
      vertex -32.7614 -30.5654 0
      vertex -32.7614 -30.5654 1
    endloop
  endfacet
  facet normal -0.997995 0.0632894 0
    outer loop
      vertex -33.5082 -42.3415 0
      vertex -32.7614 -30.5654 1
      vertex -32.7614 -30.5654 0
    endloop
  endfacet
  facet normal -0.997995 0.0632894 0
    outer loop
      vertex -32.7614 -30.5654 1
      vertex -33.5082 -42.3415 0
      vertex -33.5082 -42.3415 1
    endloop
  endfacet
  facet normal -0.999497 -0.0316982 0
    outer loop
      vertex -33.3143 -48.4555 0
      vertex -33.5082 -42.3415 1
      vertex -33.5082 -42.3415 0
    endloop
  endfacet
  facet normal -0.999497 -0.0316982 0
    outer loop
      vertex -33.5082 -42.3415 1
      vertex -33.3143 -48.4555 0
      vertex -33.3143 -48.4555 1
    endloop
  endfacet
  facet normal -0.994793 -0.101916 0
    outer loop
      vertex -32.7325 -54.1344 0
      vertex -33.3143 -48.4555 1
      vertex -33.3143 -48.4555 0
    endloop
  endfacet
  facet normal -0.994793 -0.101916 0
    outer loop
      vertex -33.3143 -48.4555 1
      vertex -32.7325 -54.1344 0
      vertex -32.7325 -54.1344 1
    endloop
  endfacet
  facet normal -0.983331 -0.181822 0
    outer loop
      vertex -31.7629 -59.3782 0
      vertex -32.7325 -54.1344 1
      vertex -32.7325 -54.1344 0
    endloop
  endfacet
  facet normal -0.983331 -0.181822 0
    outer loop
      vertex -32.7325 -54.1344 1
      vertex -31.7629 -59.3782 0
      vertex -31.7629 -59.3782 1
    endloop
  endfacet
  facet normal -0.962391 -0.271669 0
    outer loop
      vertex -30.4055 -64.1868 0
      vertex -31.7629 -59.3782 1
      vertex -31.7629 -59.3782 0
    endloop
  endfacet
  facet normal -0.962391 -0.271669 0
    outer loop
      vertex -31.7629 -59.3782 1
      vertex -30.4055 -64.1868 0
      vertex -30.4055 -64.1868 1
    endloop
  endfacet
  facet normal -0.928784 -0.370622 0
    outer loop
      vertex -28.6603 -68.5603 0
      vertex -30.4055 -64.1868 1
      vertex -30.4055 -64.1868 0
    endloop
  endfacet
  facet normal -0.928784 -0.370622 0
    outer loop
      vertex -30.4055 -64.1868 1
      vertex -28.6603 -68.5603 0
      vertex -28.6603 -68.5603 1
    endloop
  endfacet
  facet normal -0.879311 -0.476249 0
    outer loop
      vertex -26.5272 -72.4987 0
      vertex -28.6603 -68.5603 1
      vertex -28.6603 -68.5603 0
    endloop
  endfacet
  facet normal -0.879311 -0.476249 0
    outer loop
      vertex -28.6603 -68.5603 1
      vertex -26.5272 -72.4987 0
      vertex -26.5272 -72.4987 1
    endloop
  endfacet
  facet normal -0.811689 -0.58409 0
    outer loop
      vertex -24.0063 -76.0019 0
      vertex -26.5272 -72.4987 1
      vertex -26.5272 -72.4987 0
    endloop
  endfacet
  facet normal -0.811689 -0.58409 0
    outer loop
      vertex -26.5272 -72.4987 1
      vertex -24.0063 -76.0019 0
      vertex -24.0063 -76.0019 1
    endloop
  endfacet
  facet normal -0.725898 -0.687803 0
    outer loop
      vertex -21.1157 -79.0526 0
      vertex -24.0063 -76.0019 1
      vertex -24.0063 -76.0019 0
    endloop
  endfacet
  facet normal -0.725898 -0.687803 0
    outer loop
      vertex -24.0063 -76.0019 1
      vertex -21.1157 -79.0526 0
      vertex -21.1157 -79.0526 1
    endloop
  endfacet
  facet normal -0.622945 -0.782265 0
    outer loop
      vertex -21.1157 -79.0526 0
      vertex -17.8741 -81.634 1
      vertex -21.1157 -79.0526 1
    endloop
  endfacet
  facet normal -0.622945 -0.782265 -0
    outer loop
      vertex -17.8741 -81.634 1
      vertex -21.1157 -79.0526 0
      vertex -17.8741 -81.634 0
    endloop
  endfacet
  facet normal -0.506789 -0.86207 0
    outer loop
      vertex -17.8741 -81.634 0
      vertex -14.2815 -83.746 1
      vertex -17.8741 -81.634 1
    endloop
  endfacet
  facet normal -0.506789 -0.86207 -0
    outer loop
      vertex -14.2815 -83.746 1
      vertex -17.8741 -81.634 0
      vertex -14.2815 -83.746 0
    endloop
  endfacet
  facet normal -0.384522 -0.923116 0
    outer loop
      vertex -14.2815 -83.746 0
      vertex -10.3379 -85.3887 1
      vertex -14.2815 -83.746 1
    endloop
  endfacet
  facet normal -0.384522 -0.923116 -0
    outer loop
      vertex -10.3379 -85.3887 1
      vertex -14.2815 -83.746 0
      vertex -10.3379 -85.3887 0
    endloop
  endfacet
  facet normal -0.263547 -0.964647 0
    outer loop
      vertex -10.3379 -85.3887 0
      vertex -6.04333 -86.562 1
      vertex -10.3379 -85.3887 1
    endloop
  endfacet
  facet normal -0.263547 -0.964647 -0
    outer loop
      vertex -6.04333 -86.562 1
      vertex -10.3379 -85.3887 0
      vertex -6.04333 -86.562 0
    endloop
  endfacet
  facet normal -0.149831 -0.988712 0
    outer loop
      vertex -6.04333 -86.562 0
      vertex -1.39775 -87.266 1
      vertex -6.04333 -86.562 1
    endloop
  endfacet
  facet normal -0.149831 -0.988712 -0
    outer loop
      vertex -1.39775 -87.266 1
      vertex -6.04333 -86.562 0
      vertex -1.39775 -87.266 0
    endloop
  endfacet
  facet normal -0.0469207 -0.998899 0
    outer loop
      vertex -1.39775 -87.266 0
      vertex 3.5988 -87.5007 1
      vertex -1.39775 -87.266 1
    endloop
  endfacet
  facet normal -0.0469207 -0.998899 -0
    outer loop
      vertex 3.5988 -87.5007 1
      vertex -1.39775 -87.266 0
      vertex 3.5988 -87.5007 0
    endloop
  endfacet
  facet normal 0.0826516 -0.996579 0
    outer loop
      vertex 3.5988 -87.5007 0
      vertex 10.3197 -86.9433 1
      vertex 3.5988 -87.5007 1
    endloop
  endfacet
  facet normal 0.0826516 -0.996579 0
    outer loop
      vertex 10.3197 -86.9433 1
      vertex 3.5988 -87.5007 0
      vertex 10.3197 -86.9433 0
    endloop
  endfacet
endsolid OpenSCAD_Model
