solid OpenSCAD_Model
  facet normal 0 0 -1
    outer loop
      vertex 20.5421 -84.9062 0
      vertex 10.2991 -39.102 0
      vertex 40.513 -84.9062 0
    endloop
  endfacet
  facet normal 0 -0 -1
    outer loop
      vertex 10.2991 -39.102 0
      vertex 20.5421 -84.9062 0
      vertex 1.0224 -53.1458 0
    endloop
  endfacet
  facet normal 0 0 -1
    outer loop
      vertex 10.2991 -39.102 0
      vertex 17.9001 1.99879 0
      vertex 37.871 1.99879 0
    endloop
  endfacet
  facet normal 0 0 -1
    outer loop
      vertex -9.09222 -39.102 0
      vertex 10.2991 -39.102 0
      vertex 1.0224 -53.1458 0
    endloop
  endfacet
  facet normal 0 0 -1
    outer loop
      vertex 10.2991 -39.102 0
      vertex 1.0224 -25.7022 0
      vertex 17.9001 1.99879 0
    endloop
  endfacet
  facet normal 0 0 -1
    outer loop
      vertex 10.2991 -39.102 0
      vertex -9.09222 -39.102 0
      vertex 1.0224 -25.7022 0
    endloop
  endfacet
  facet normal 0 0 -1
    outer loop
      vertex -18.5618 -84.9062 0
      vertex -9.09222 -39.102 0
      vertex 1.0224 -53.1458 0
    endloop
  endfacet
  facet normal 0 0 -1
    outer loop
      vertex -9.09222 -39.102 0
      vertex -18.5618 -84.9062 0
      vertex -38.6619 -84.9062 0
    endloop
  endfacet
  facet normal 0 0 -1
    outer loop
      vertex -9.09222 -39.102 0
      vertex -15.9208 1.99879 0
      vertex 1.0224 -25.7022 0
    endloop
  endfacet
  facet normal -0 -0 -1
    outer loop
      vertex -15.9208 1.99879 0
      vertex -9.09222 -39.102 0
      vertex -36.0209 1.99879 0
    endloop
  endfacet
  facet normal -0 0 1
    outer loop
      vertex 17.9001 1.99879 1
      vertex 10.2991 -39.102 1
      vertex 37.871 1.99879 1
    endloop
  endfacet
  facet normal 0 -0 1
    outer loop
      vertex 10.2991 -39.102 1
      vertex 17.9001 1.99879 1
      vertex 1.0224 -25.7022 1
    endloop
  endfacet
  facet normal 0 0 1
    outer loop
      vertex 10.2991 -39.102 1
      vertex 20.5421 -84.9062 1
      vertex 40.513 -84.9062 1
    endloop
  endfacet
  facet normal 0 0 1
    outer loop
      vertex -9.09222 -39.102 1
      vertex 10.2991 -39.102 1
      vertex 1.0224 -25.7022 1
    endloop
  endfacet
  facet normal 0 0 1
    outer loop
      vertex 10.2991 -39.102 1
      vertex 1.0224 -53.1458 1
      vertex 20.5421 -84.9062 1
    endloop
  endfacet
  facet normal 0 0 1
    outer loop
      vertex 10.2991 -39.102 1
      vertex -9.09222 -39.102 1
      vertex 1.0224 -53.1458 1
    endloop
  endfacet
  facet normal 0 0 1
    outer loop
      vertex -15.9208 1.99879 1
      vertex -9.09222 -39.102 1
      vertex 1.0224 -25.7022 1
    endloop
  endfacet
  facet normal 0 0 1
    outer loop
      vertex -9.09222 -39.102 1
      vertex -15.9208 1.99879 1
      vertex -36.0209 1.99879 1
    endloop
  endfacet
  facet normal 0 0 1
    outer loop
      vertex -9.09222 -39.102 1
      vertex -18.5618 -84.9062 1
      vertex 1.0224 -53.1458 1
    endloop
  endfacet
  facet normal 0 -0 1
    outer loop
      vertex -18.5618 -84.9062 1
      vertex -9.09222 -39.102 1
      vertex -38.6619 -84.9062 1
    endloop
  endfacet
  facet normal -0.851959 -0.523608 0
    outer loop
      vertex 20.5421 -84.9062 0
      vertex 1.0224 -53.1458 1
      vertex 1.0224 -53.1458 0
    endloop
  endfacet
  facet normal -0.851959 -0.523608 0
    outer loop
      vertex 1.0224 -53.1458 1
      vertex 20.5421 -84.9062 0
      vertex 20.5421 -84.9062 1
    endloop
  endfacet
  facet normal 0 -1 0
    outer loop
      vertex 20.5421 -84.9062 0
      vertex 40.513 -84.9062 1
      vertex 20.5421 -84.9062 1
    endloop
  endfacet
  facet normal 0 -1 -0
    outer loop
      vertex 40.513 -84.9062 1
      vertex 20.5421 -84.9062 0
      vertex 40.513 -84.9062 0
    endloop
  endfacet
  facet normal 0.834751 0.550628 0
    outer loop
      vertex 40.513 -84.9062 1
      vertex 10.2991 -39.102 0
      vertex 10.2991 -39.102 1
    endloop
  endfacet
  facet normal 0.834751 0.550628 0
    outer loop
      vertex 10.2991 -39.102 0
      vertex 40.513 -84.9062 1
      vertex 40.513 -84.9062 0
    endloop
  endfacet
  facet normal 0.830449 -0.557095 0
    outer loop
      vertex 10.2991 -39.102 1
      vertex 37.871 1.99879 0
      vertex 37.871 1.99879 1
    endloop
  endfacet
  facet normal 0.830449 -0.557095 0
    outer loop
      vertex 37.871 1.99879 0
      vertex 10.2991 -39.102 1
      vertex 10.2991 -39.102 0
    endloop
  endfacet
  facet normal 0 1 -0
    outer loop
      vertex 37.871 1.99879 0
      vertex 17.9001 1.99879 1
      vertex 37.871 1.99879 1
    endloop
  endfacet
  facet normal 0 1 0
    outer loop
      vertex 17.9001 1.99879 1
      vertex 37.871 1.99879 0
      vertex 17.9001 1.99879 0
    endloop
  endfacet
  facet normal -0.853976 0.520312 0
    outer loop
      vertex 1.0224 -25.7022 0
      vertex 17.9001 1.99879 1
      vertex 17.9001 1.99879 0
    endloop
  endfacet
  facet normal -0.853976 0.520312 0
    outer loop
      vertex 17.9001 1.99879 1
      vertex 1.0224 -25.7022 0
      vertex 1.0224 -25.7022 1
    endloop
  endfacet
  facet normal 0.853079 0.521782 0
    outer loop
      vertex 1.0224 -25.7022 1
      vertex -15.9208 1.99879 0
      vertex -15.9208 1.99879 1
    endloop
  endfacet
  facet normal 0.853079 0.521782 0
    outer loop
      vertex -15.9208 1.99879 0
      vertex 1.0224 -25.7022 1
      vertex 1.0224 -25.7022 0
    endloop
  endfacet
  facet normal 0 1 -0
    outer loop
      vertex -15.9208 1.99879 0
      vertex -36.0209 1.99879 1
      vertex -15.9208 1.99879 1
    endloop
  endfacet
  facet normal 0 1 0
    outer loop
      vertex -36.0209 1.99879 1
      vertex -15.9208 1.99879 0
      vertex -36.0209 1.99879 0
    endloop
  endfacet
  facet normal -0.836456 -0.548034 0
    outer loop
      vertex -9.09222 -39.102 0
      vertex -36.0209 1.99879 1
      vertex -36.0209 1.99879 0
    endloop
  endfacet
  facet normal -0.836456 -0.548034 0
    outer loop
      vertex -36.0209 1.99879 1
      vertex -9.09222 -39.102 0
      vertex -9.09222 -39.102 1
    endloop
  endfacet
  facet normal -0.840141 0.542368 0
    outer loop
      vertex -38.6619 -84.9062 0
      vertex -9.09222 -39.102 1
      vertex -9.09222 -39.102 0
    endloop
  endfacet
  facet normal -0.840141 0.542368 0
    outer loop
      vertex -9.09222 -39.102 1
      vertex -38.6619 -84.9062 0
      vertex -38.6619 -84.9062 1
    endloop
  endfacet
  facet normal 0 -1 0
    outer loop
      vertex -38.6619 -84.9062 0
      vertex -18.5618 -84.9062 1
      vertex -38.6619 -84.9062 1
    endloop
  endfacet
  facet normal 0 -1 -0
    outer loop
      vertex -18.5618 -84.9062 1
      vertex -38.6619 -84.9062 0
      vertex -18.5618 -84.9062 0
    endloop
  endfacet
  facet normal 0.851187 -0.524862 0
    outer loop
      vertex -18.5618 -84.9062 1
      vertex 1.0224 -53.1458 0
      vertex 1.0224 -53.1458 1
    endloop
  endfacet
  facet normal 0.851187 -0.524862 0
    outer loop
      vertex 1.0224 -53.1458 0
      vertex -18.5618 -84.9062 1
      vertex -18.5618 -84.9062 0
    endloop
  endfacet
endsolid OpenSCAD_Model
