solid OpenSCAD_Model
  facet normal 0 0 -1
    outer loop
      vertex -27.9032 -84.9062 0
      vertex -8.89938 -52.1151 0
      vertex -8.89938 -84.9062 0
    endloop
  endfacet
  facet normal -0 0 -1
    outer loop
      vertex -8.89938 -52.1151 0
      vertex -27.9032 -84.9062 0
      vertex -8.89938 -37.4271 0
    endloop
  endfacet
  facet normal 0 0 -1
    outer loop
      vertex -27.9032 1.99879 0
      vertex -8.89938 -37.4271 0
      vertex -27.9032 -84.9062 0
    endloop
  endfacet
  facet normal 0 0 -1
    outer loop
      vertex -8.89938 -52.1151 0
      vertex 31.107 -37.4271 0
      vertex 31.107 -52.1151 0
    endloop
  endfacet
  facet normal -0 0 -1
    outer loop
      vertex 31.107 -37.4271 0
      vertex -8.89938 -52.1151 0
      vertex -8.89938 -37.4271 0
    endloop
  endfacet
  facet normal 0 0 -1
    outer loop
      vertex -8.89938 -12.6891 0
      vertex 32.589 1.99879 0
      vertex 32.589 -12.6891 0
    endloop
  endfacet
  facet normal 0 0 -1
    outer loop
      vertex -8.89938 -12.6891 0
      vertex -27.9032 1.99879 0
      vertex 32.589 1.99879 0
    endloop
  endfacet
  facet normal 0 0 -1
    outer loop
      vertex -8.89938 -37.4271 0
      vertex -27.9032 1.99879 0
      vertex -8.89938 -12.6891 0
    endloop
  endfacet
  facet normal 0 0 1
    outer loop
      vertex 32.589 1.99879 1
      vertex -8.89938 -12.6891 1
      vertex 32.589 -12.6891 1
    endloop
  endfacet
  facet normal 0 0 1
    outer loop
      vertex -27.9032 1.99879 1
      vertex -8.89938 -37.4271 1
      vertex -8.89938 -12.6891 1
    endloop
  endfacet
  facet normal 0 0 1
    outer loop
      vertex -27.9032 -84.9062 1
      vertex -8.89938 -37.4271 1
      vertex -27.9032 1.99879 1
    endloop
  endfacet
  facet normal -0 0 1
    outer loop
      vertex -27.9032 1.99879 1
      vertex -8.89938 -12.6891 1
      vertex 32.589 1.99879 1
    endloop
  endfacet
  facet normal 0 0 1
    outer loop
      vertex -8.89938 -37.4271 1
      vertex -27.9032 -84.9062 1
      vertex -8.89938 -52.1151 1
    endloop
  endfacet
  facet normal 0 0 1
    outer loop
      vertex -8.89938 -52.1151 1
      vertex -27.9032 -84.9062 1
      vertex -8.89938 -84.9062 1
    endloop
  endfacet
  facet normal -0 0 1
    outer loop
      vertex -8.89938 -37.4271 1
      vertex 31.107 -52.1151 1
      vertex 31.107 -37.4271 1
    endloop
  endfacet
  facet normal 0 0 1
    outer loop
      vertex 31.107 -52.1151 1
      vertex -8.89938 -37.4271 1
      vertex -8.89938 -52.1151 1
    endloop
  endfacet
  facet normal 0 -1 0
    outer loop
      vertex -8.89938 -52.1151 0
      vertex 31.107 -52.1151 1
      vertex -8.89938 -52.1151 1
    endloop
  endfacet
  facet normal 0 -1 -0
    outer loop
      vertex 31.107 -52.1151 1
      vertex -8.89938 -52.1151 0
      vertex 31.107 -52.1151 0
    endloop
  endfacet
  facet normal 1 -0 0
    outer loop
      vertex 31.107 -52.1151 1
      vertex 31.107 -37.4271 0
      vertex 31.107 -37.4271 1
    endloop
  endfacet
  facet normal 1 0 0
    outer loop
      vertex 31.107 -37.4271 0
      vertex 31.107 -52.1151 1
      vertex 31.107 -52.1151 0
    endloop
  endfacet
  facet normal 0 1 -0
    outer loop
      vertex 31.107 -37.4271 0
      vertex -8.89938 -37.4271 1
      vertex 31.107 -37.4271 1
    endloop
  endfacet
  facet normal 0 1 0
    outer loop
      vertex -8.89938 -37.4271 1
      vertex 31.107 -37.4271 0
      vertex -8.89938 -37.4271 0
    endloop
  endfacet
  facet normal 1 -0 0
    outer loop
      vertex -8.89938 -37.4271 1
      vertex -8.89938 -12.6891 0
      vertex -8.89938 -12.6891 1
    endloop
  endfacet
  facet normal 1 0 0
    outer loop
      vertex -8.89938 -12.6891 0
      vertex -8.89938 -37.4271 1
      vertex -8.89938 -37.4271 0
    endloop
  endfacet
  facet normal 0 -1 0
    outer loop
      vertex -8.89938 -12.6891 0
      vertex 32.589 -12.6891 1
      vertex -8.89938 -12.6891 1
    endloop
  endfacet
  facet normal 0 -1 -0
    outer loop
      vertex 32.589 -12.6891 1
      vertex -8.89938 -12.6891 0
      vertex 32.589 -12.6891 0
    endloop
  endfacet
  facet normal 1 -0 0
    outer loop
      vertex 32.589 -12.6891 1
      vertex 32.589 1.99879 0
      vertex 32.589 1.99879 1
    endloop
  endfacet
  facet normal 1 0 0
    outer loop
      vertex 32.589 1.99879 0
      vertex 32.589 -12.6891 1
      vertex 32.589 -12.6891 0
    endloop
  endfacet
  facet normal 0 1 -0
    outer loop
      vertex 32.589 1.99879 0
      vertex -27.9032 1.99879 1
      vertex 32.589 1.99879 1
    endloop
  endfacet
  facet normal 0 1 0
    outer loop
      vertex -27.9032 1.99879 1
      vertex 32.589 1.99879 0
      vertex -27.9032 1.99879 0
    endloop
  endfacet
  facet normal -1 0 0
    outer loop
      vertex -27.9032 -84.9062 0
      vertex -27.9032 1.99879 1
      vertex -27.9032 1.99879 0
    endloop
  endfacet
  facet normal -1 -0 0
    outer loop
      vertex -27.9032 1.99879 1
      vertex -27.9032 -84.9062 0
      vertex -27.9032 -84.9062 1
    endloop
  endfacet
  facet normal 0 -1 0
    outer loop
      vertex -27.9032 -84.9062 0
      vertex -8.89938 -84.9062 1
      vertex -27.9032 -84.9062 1
    endloop
  endfacet
  facet normal 0 -1 -0
    outer loop
      vertex -8.89938 -84.9062 1
      vertex -27.9032 -84.9062 0
      vertex -8.89938 -84.9062 0
    endloop
  endfacet
  facet normal 1 -0 0
    outer loop
      vertex -8.89938 -84.9062 1
      vertex -8.89938 -52.1151 0
      vertex -8.89938 -52.1151 1
    endloop
  endfacet
  facet normal 1 0 0
    outer loop
      vertex -8.89938 -52.1151 0
      vertex -8.89938 -84.9062 1
      vertex -8.89938 -84.9062 0
    endloop
  endfacet
endsolid OpenSCAD_Model
