solid OpenSCAD_Model
  facet normal 0 0 -1
    outer loop
      vertex 35.1654 -84.9062 0
      vertex -10.8317 -70.2183 0
      vertex 35.1654 -70.2183 0
    endloop
  endfacet
  facet normal 0 0 -1
    outer loop
      vertex -29.8364 -84.9062 0
      vertex -10.8317 -48.2505 0
      vertex -10.8317 -70.2183 0
    endloop
  endfacet
  facet normal 0 0 -1
    outer loop
      vertex -29.8364 1.99879 0
      vertex -10.8317 -48.2505 0
      vertex -29.8364 -84.9062 0
    endloop
  endfacet
  facet normal 0 0 -1
    outer loop
      vertex -10.8317 -48.2505 0
      vertex -29.8364 1.99879 0
      vertex -10.8317 -33.5616 0
    endloop
  endfacet
  facet normal 0 0 -1
    outer loop
      vertex -29.8364 -84.9062 0
      vertex -10.8317 -70.2183 0
      vertex 35.1654 -84.9062 0
    endloop
  endfacet
  facet normal 0 0 -1
    outer loop
      vertex -10.8317 -48.2505 0
      vertex 28.5943 -33.5616 0
      vertex 28.5943 -48.2505 0
    endloop
  endfacet
  facet normal -0 0 -1
    outer loop
      vertex 28.5943 -33.5616 0
      vertex -10.8317 -48.2505 0
      vertex -10.8317 -33.5616 0
    endloop
  endfacet
  facet normal 0 0 -1
    outer loop
      vertex -10.8317 -12.6891 0
      vertex 32.5244 1.99879 0
      vertex 32.5244 -12.6891 0
    endloop
  endfacet
  facet normal 0 0 -1
    outer loop
      vertex -10.8317 -12.6891 0
      vertex -29.8364 1.99879 0
      vertex 32.5244 1.99879 0
    endloop
  endfacet
  facet normal 0 0 -1
    outer loop
      vertex -10.8317 -33.5616 0
      vertex -29.8364 1.99879 0
      vertex -10.8317 -12.6891 0
    endloop
  endfacet
  facet normal 0 0 1
    outer loop
      vertex 32.5244 1.99879 1
      vertex -10.8317 -12.6891 1
      vertex 32.5244 -12.6891 1
    endloop
  endfacet
  facet normal 0 0 1
    outer loop
      vertex -29.8364 1.99879 1
      vertex -10.8317 -33.5616 1
      vertex -10.8317 -12.6891 1
    endloop
  endfacet
  facet normal 0 0 1
    outer loop
      vertex -10.8317 -33.5616 1
      vertex -29.8364 1.99879 1
      vertex -10.8317 -48.2505 1
    endloop
  endfacet
  facet normal 0 0 1
    outer loop
      vertex -29.8364 -84.9062 1
      vertex -10.8317 -48.2505 1
      vertex -29.8364 1.99879 1
    endloop
  endfacet
  facet normal -0 0 1
    outer loop
      vertex -29.8364 1.99879 1
      vertex -10.8317 -12.6891 1
      vertex 32.5244 1.99879 1
    endloop
  endfacet
  facet normal -0 0 1
    outer loop
      vertex -10.8317 -33.5616 1
      vertex 28.5943 -48.2505 1
      vertex 28.5943 -33.5616 1
    endloop
  endfacet
  facet normal 0 0 1
    outer loop
      vertex 28.5943 -48.2505 1
      vertex -10.8317 -33.5616 1
      vertex -10.8317 -48.2505 1
    endloop
  endfacet
  facet normal -0 0 1
    outer loop
      vertex -10.8317 -70.2183 1
      vertex 35.1654 -84.9062 1
      vertex 35.1654 -70.2183 1
    endloop
  endfacet
  facet normal 0 0 1
    outer loop
      vertex -10.8317 -70.2183 1
      vertex -29.8364 -84.9062 1
      vertex 35.1654 -84.9062 1
    endloop
  endfacet
  facet normal 0 0 1
    outer loop
      vertex -10.8317 -48.2505 1
      vertex -29.8364 -84.9062 1
      vertex -10.8317 -70.2183 1
    endloop
  endfacet
  facet normal 0 1 -0
    outer loop
      vertex 35.1654 -70.2183 0
      vertex -10.8317 -70.2183 1
      vertex 35.1654 -70.2183 1
    endloop
  endfacet
  facet normal 0 1 0
    outer loop
      vertex -10.8317 -70.2183 1
      vertex 35.1654 -70.2183 0
      vertex -10.8317 -70.2183 0
    endloop
  endfacet
  facet normal 1 -0 0
    outer loop
      vertex -10.8317 -70.2183 1
      vertex -10.8317 -48.2505 0
      vertex -10.8317 -48.2505 1
    endloop
  endfacet
  facet normal 1 0 0
    outer loop
      vertex -10.8317 -48.2505 0
      vertex -10.8317 -70.2183 1
      vertex -10.8317 -70.2183 0
    endloop
  endfacet
  facet normal 0 -1 0
    outer loop
      vertex -10.8317 -48.2505 0
      vertex 28.5943 -48.2505 1
      vertex -10.8317 -48.2505 1
    endloop
  endfacet
  facet normal 0 -1 -0
    outer loop
      vertex 28.5943 -48.2505 1
      vertex -10.8317 -48.2505 0
      vertex 28.5943 -48.2505 0
    endloop
  endfacet
  facet normal 1 -0 0
    outer loop
      vertex 28.5943 -48.2505 1
      vertex 28.5943 -33.5616 0
      vertex 28.5943 -33.5616 1
    endloop
  endfacet
  facet normal 1 0 0
    outer loop
      vertex 28.5943 -33.5616 0
      vertex 28.5943 -48.2505 1
      vertex 28.5943 -48.2505 0
    endloop
  endfacet
  facet normal 0 1 -0
    outer loop
      vertex 28.5943 -33.5616 0
      vertex -10.8317 -33.5616 1
      vertex 28.5943 -33.5616 1
    endloop
  endfacet
  facet normal 0 1 0
    outer loop
      vertex -10.8317 -33.5616 1
      vertex 28.5943 -33.5616 0
      vertex -10.8317 -33.5616 0
    endloop
  endfacet
  facet normal 1 -0 0
    outer loop
      vertex -10.8317 -33.5616 1
      vertex -10.8317 -12.6891 0
      vertex -10.8317 -12.6891 1
    endloop
  endfacet
  facet normal 1 0 0
    outer loop
      vertex -10.8317 -12.6891 0
      vertex -10.8317 -33.5616 1
      vertex -10.8317 -33.5616 0
    endloop
  endfacet
  facet normal 0 -1 0
    outer loop
      vertex -10.8317 -12.6891 0
      vertex 32.5244 -12.6891 1
      vertex -10.8317 -12.6891 1
    endloop
  endfacet
  facet normal 0 -1 -0
    outer loop
      vertex 32.5244 -12.6891 1
      vertex -10.8317 -12.6891 0
      vertex 32.5244 -12.6891 0
    endloop
  endfacet
  facet normal 1 -0 0
    outer loop
      vertex 32.5244 -12.6891 1
      vertex 32.5244 1.99879 0
      vertex 32.5244 1.99879 1
    endloop
  endfacet
  facet normal 1 0 0
    outer loop
      vertex 32.5244 1.99879 0
      vertex 32.5244 -12.6891 1
      vertex 32.5244 -12.6891 0
    endloop
  endfacet
  facet normal 0 1 -0
    outer loop
      vertex 32.5244 1.99879 0
      vertex -29.8364 1.99879 1
      vertex 32.5244 1.99879 1
    endloop
  endfacet
  facet normal 0 1 0
    outer loop
      vertex -29.8364 1.99879 1
      vertex 32.5244 1.99879 0
      vertex -29.8364 1.99879 0
    endloop
  endfacet
  facet normal -1 0 0
    outer loop
      vertex -29.8364 -84.9062 0
      vertex -29.8364 1.99879 1
      vertex -29.8364 1.99879 0
    endloop
  endfacet
  facet normal -1 -0 0
    outer loop
      vertex -29.8364 1.99879 1
      vertex -29.8364 -84.9062 0
      vertex -29.8364 -84.9062 1
    endloop
  endfacet
  facet normal 0 -1 0
    outer loop
      vertex -29.8364 -84.9062 0
      vertex 35.1654 -84.9062 1
      vertex -29.8364 -84.9062 1
    endloop
  endfacet
  facet normal 0 -1 -0
    outer loop
      vertex 35.1654 -84.9062 1
      vertex -29.8364 -84.9062 0
      vertex 35.1654 -84.9062 0
    endloop
  endfacet
  facet normal 1 -0 0
    outer loop
      vertex 35.1654 -84.9062 1
      vertex 35.1654 -70.2183 0
      vertex 35.1654 -70.2183 1
    endloop
  endfacet
  facet normal 1 0 0
    outer loop
      vertex 35.1654 -70.2183 0
      vertex 35.1654 -84.9062 1
      vertex 35.1654 -84.9062 0
    endloop
  endfacet
endsolid OpenSCAD_Model
