solid OpenSCAD_Model
  facet normal 0 0 -1
    outer loop
      vertex 6.9301 -21.9812 0
      vertex -2.24367 -19.0049 0
      vertex 6.9301 -19.0049 0
    endloop
  endfacet
  facet normal 0 -0 -1
    outer loop
      vertex -2.24367 -19.0049 0
      vertex 6.9301 -21.9812 0
      vertex -6.61137 -21.9812 0
    endloop
  endfacet
  facet normal -0 0 -1
    outer loop
      vertex 6.4017 -7.24142 0
      vertex 2.03398 -7.57658 0
      vertex 6.4017 -4.60025 0
    endloop
  endfacet
  facet normal 0 0 -1
    outer loop
      vertex -2.24367 -19.0049 0
      vertex 2.03398 -7.57658 0
      vertex 6.4017 -7.24142 0
    endloop
  endfacet
  facet normal 0 0 -1
    outer loop
      vertex -6.61137 -19.2884 0
      vertex -2.24367 -19.0049 0
      vertex -6.61137 -21.9812 0
    endloop
  endfacet
  facet normal -0 0 -1
    outer loop
      vertex -2.24367 -19.0049 0
      vertex -6.61137 -19.2884 0
      vertex 2.03398 -7.57658 0
    endloop
  endfacet
  facet normal 0 0 -1
    outer loop
      vertex -5.63231 -4.60025 0
      vertex 2.03398 -7.57658 0
      vertex -5.63231 -7.57658 0
    endloop
  endfacet
  facet normal 0 0 -1
    outer loop
      vertex 2.03398 -7.57658 0
      vertex -5.63231 -4.60025 0
      vertex 6.4017 -4.60025 0
    endloop
  endfacet
  facet normal 0 0 1
    outer loop
      vertex 6.4017 -4.60025 1
      vertex 2.03398 -7.57658 1
      vertex 6.4017 -7.24142 1
    endloop
  endfacet
  facet normal -0 0 1
    outer loop
      vertex -5.63231 -4.60025 1
      vertex 2.03398 -7.57658 1
      vertex 6.4017 -4.60025 1
    endloop
  endfacet
  facet normal 0 0 1
    outer loop
      vertex 2.03398 -7.57658 1
      vertex -5.63231 -4.60025 1
      vertex -5.63231 -7.57658 1
    endloop
  endfacet
  facet normal -0 0 1
    outer loop
      vertex 2.03398 -7.57658 1
      vertex -2.24367 -19.0049 1
      vertex 6.4017 -7.24142 1
    endloop
  endfacet
  facet normal 0 -0 1
    outer loop
      vertex -2.24367 -19.0049 1
      vertex 2.03398 -7.57658 1
      vertex -6.61137 -19.2884 1
    endloop
  endfacet
  facet normal -0 0 1
    outer loop
      vertex -2.24367 -19.0049 1
      vertex 6.9301 -21.9812 1
      vertex 6.9301 -19.0049 1
    endloop
  endfacet
  facet normal 0 0 1
    outer loop
      vertex -6.61137 -21.9812 1
      vertex -2.24367 -19.0049 1
      vertex -6.61137 -19.2884 1
    endloop
  endfacet
  facet normal 0 0 1
    outer loop
      vertex -2.24367 -19.0049 1
      vertex -6.61137 -21.9812 1
      vertex 6.9301 -21.9812 1
    endloop
  endfacet
  facet normal 0 1 -0
    outer loop
      vertex 6.9301 -19.0049 0
      vertex -2.24367 -19.0049 1
      vertex 6.9301 -19.0049 1
    endloop
  endfacet
  facet normal 0 1 0
    outer loop
      vertex -2.24367 -19.0049 1
      vertex 6.9301 -19.0049 0
      vertex -2.24367 -19.0049 0
    endloop
  endfacet
  facet normal 0.80579 -0.592202 0
    outer loop
      vertex -2.24367 -19.0049 1
      vertex 6.4017 -7.24142 0
      vertex 6.4017 -7.24142 1
    endloop
  endfacet
  facet normal 0.80579 -0.592202 0
    outer loop
      vertex 6.4017 -7.24142 0
      vertex -2.24367 -19.0049 1
      vertex -2.24367 -19.0049 0
    endloop
  endfacet
  facet normal 1 -0 0
    outer loop
      vertex 6.4017 -7.24142 1
      vertex 6.4017 -4.60025 0
      vertex 6.4017 -4.60025 1
    endloop
  endfacet
  facet normal 1 0 0
    outer loop
      vertex 6.4017 -4.60025 0
      vertex 6.4017 -7.24142 1
      vertex 6.4017 -7.24142 0
    endloop
  endfacet
  facet normal 0 1 -0
    outer loop
      vertex 6.4017 -4.60025 0
      vertex -5.63231 -4.60025 1
      vertex 6.4017 -4.60025 1
    endloop
  endfacet
  facet normal 0 1 0
    outer loop
      vertex -5.63231 -4.60025 1
      vertex 6.4017 -4.60025 0
      vertex -5.63231 -4.60025 0
    endloop
  endfacet
  facet normal -1 0 0
    outer loop
      vertex -5.63231 -7.57658 0
      vertex -5.63231 -4.60025 1
      vertex -5.63231 -4.60025 0
    endloop
  endfacet
  facet normal -1 -0 0
    outer loop
      vertex -5.63231 -4.60025 1
      vertex -5.63231 -7.57658 0
      vertex -5.63231 -7.57658 1
    endloop
  endfacet
  facet normal 0 -1 0
    outer loop
      vertex -5.63231 -7.57658 0
      vertex 2.03398 -7.57658 1
      vertex -5.63231 -7.57658 1
    endloop
  endfacet
  facet normal 0 -1 -0
    outer loop
      vertex 2.03398 -7.57658 1
      vertex -5.63231 -7.57658 0
      vertex 2.03398 -7.57658 0
    endloop
  endfacet
  facet normal -0.804544 0.593893 0
    outer loop
      vertex -6.61137 -19.2884 0
      vertex 2.03398 -7.57658 1
      vertex 2.03398 -7.57658 0
    endloop
  endfacet
  facet normal -0.804544 0.593893 0
    outer loop
      vertex 2.03398 -7.57658 1
      vertex -6.61137 -19.2884 0
      vertex -6.61137 -19.2884 1
    endloop
  endfacet
  facet normal -1 0 0
    outer loop
      vertex -6.61137 -21.9812 0
      vertex -6.61137 -19.2884 1
      vertex -6.61137 -19.2884 0
    endloop
  endfacet
  facet normal -1 -0 0
    outer loop
      vertex -6.61137 -19.2884 1
      vertex -6.61137 -21.9812 0
      vertex -6.61137 -21.9812 1
    endloop
  endfacet
  facet normal 0 -1 0
    outer loop
      vertex -6.61137 -21.9812 0
      vertex 6.9301 -21.9812 1
      vertex -6.61137 -21.9812 1
    endloop
  endfacet
  facet normal 0 -1 -0
    outer loop
      vertex 6.9301 -21.9812 1
      vertex -6.61137 -21.9812 0
      vertex 6.9301 -21.9812 0
    endloop
  endfacet
  facet normal 1 -0 0
    outer loop
      vertex 6.9301 -21.9812 1
      vertex 6.9301 -19.0049 0
      vertex 6.9301 -19.0049 1
    endloop
  endfacet
  facet normal 1 0 0
    outer loop
      vertex 6.9301 -19.0049 0
      vertex 6.9301 -21.9812 1
      vertex 6.9301 -21.9812 0
    endloop
  endfacet
endsolid OpenSCAD_Model
