solid OpenSCAD_Model
  facet normal 0 0 -1
    outer loop
      vertex 6.25644 -55.9437 0
      vertex -5.14639 -55.9437 0
      vertex 6.25644 -12.6135 0
    endloop
  endfacet
  facet normal 0 0 -1
    outer loop
      vertex 6.25644 -12.6135 0
      vertex 21.9497 -3.80072 0
      vertex 21.9497 -12.6135 0
    endloop
  endfacet
  facet normal 0 0 -1
    outer loop
      vertex -5.14639 -12.6135 0
      vertex 6.25644 -12.6135 0
      vertex -5.14639 -55.9437 0
    endloop
  endfacet
  facet normal 0 0 -1
    outer loop
      vertex -5.14639 -12.6135 0
      vertex 21.9497 -3.80072 0
      vertex 6.25644 -12.6135 0
    endloop
  endfacet
  facet normal 0 0 -1
    outer loop
      vertex -20.8391 -3.80072 0
      vertex -5.14639 -12.6135 0
      vertex -20.8391 -12.6135 0
    endloop
  endfacet
  facet normal 0 0 -1
    outer loop
      vertex -5.14639 -12.6135 0
      vertex -20.8391 -3.80072 0
      vertex 21.9497 -3.80072 0
    endloop
  endfacet
  facet normal 0 0 1
    outer loop
      vertex 21.9497 -3.80072 1
      vertex 6.25644 -12.6135 1
      vertex 21.9497 -12.6135 1
    endloop
  endfacet
  facet normal 0 0 1
    outer loop
      vertex 6.25644 -12.6135 1
      vertex -5.14639 -12.6135 1
      vertex 6.25644 -55.9437 1
    endloop
  endfacet
  facet normal 0 0 1
    outer loop
      vertex 21.9497 -3.80072 1
      vertex -5.14639 -12.6135 1
      vertex 6.25644 -12.6135 1
    endloop
  endfacet
  facet normal -0 0 1
    outer loop
      vertex -20.8391 -3.80072 1
      vertex -5.14639 -12.6135 1
      vertex 21.9497 -3.80072 1
    endloop
  endfacet
  facet normal 0 0 1
    outer loop
      vertex -5.14639 -12.6135 1
      vertex -20.8391 -3.80072 1
      vertex -20.8391 -12.6135 1
    endloop
  endfacet
  facet normal 0 0 1
    outer loop
      vertex 6.25644 -55.9437 1
      vertex -5.14639 -12.6135 1
      vertex -5.14639 -55.9437 1
    endloop
  endfacet
  facet normal 0 -1 0
    outer loop
      vertex 6.25644 -12.6135 0
      vertex 21.9497 -12.6135 1
      vertex 6.25644 -12.6135 1
    endloop
  endfacet
  facet normal 0 -1 -0
    outer loop
      vertex 21.9497 -12.6135 1
      vertex 6.25644 -12.6135 0
      vertex 21.9497 -12.6135 0
    endloop
  endfacet
  facet normal 1 -0 0
    outer loop
      vertex 21.9497 -12.6135 1
      vertex 21.9497 -3.80072 0
      vertex 21.9497 -3.80072 1
    endloop
  endfacet
  facet normal 1 0 0
    outer loop
      vertex 21.9497 -3.80072 0
      vertex 21.9497 -12.6135 1
      vertex 21.9497 -12.6135 0
    endloop
  endfacet
  facet normal 0 1 -0
    outer loop
      vertex 21.9497 -3.80072 0
      vertex -20.8391 -3.80072 1
      vertex 21.9497 -3.80072 1
    endloop
  endfacet
  facet normal 0 1 0
    outer loop
      vertex -20.8391 -3.80072 1
      vertex 21.9497 -3.80072 0
      vertex -20.8391 -3.80072 0
    endloop
  endfacet
  facet normal -1 0 0
    outer loop
      vertex -20.8391 -12.6135 0
      vertex -20.8391 -3.80072 1
      vertex -20.8391 -3.80072 0
    endloop
  endfacet
  facet normal -1 -0 0
    outer loop
      vertex -20.8391 -3.80072 1
      vertex -20.8391 -12.6135 0
      vertex -20.8391 -12.6135 1
    endloop
  endfacet
  facet normal 0 -1 0
    outer loop
      vertex -20.8391 -12.6135 0
      vertex -5.14639 -12.6135 1
      vertex -20.8391 -12.6135 1
    endloop
  endfacet
  facet normal 0 -1 -0
    outer loop
      vertex -5.14639 -12.6135 1
      vertex -20.8391 -12.6135 0
      vertex -5.14639 -12.6135 0
    endloop
  endfacet
  facet normal -1 0 0
    outer loop
      vertex -5.14639 -55.9437 0
      vertex -5.14639 -12.6135 1
      vertex -5.14639 -12.6135 0
    endloop
  endfacet
  facet normal -1 -0 0
    outer loop
      vertex -5.14639 -12.6135 1
      vertex -5.14639 -55.9437 0
      vertex -5.14639 -55.9437 1
    endloop
  endfacet
  facet normal 0 -1 0
    outer loop
      vertex -5.14639 -55.9437 0
      vertex 6.25644 -55.9437 1
      vertex -5.14639 -55.9437 1
    endloop
  endfacet
  facet normal 0 -1 -0
    outer loop
      vertex 6.25644 -55.9437 1
      vertex -5.14639 -55.9437 0
      vertex 6.25644 -55.9437 0
    endloop
  endfacet
  facet normal 1 -0 0
    outer loop
      vertex 6.25644 -55.9437 1
      vertex 6.25644 -12.6135 0
      vertex 6.25644 -12.6135 1
    endloop
  endfacet
  facet normal 1 0 0
    outer loop
      vertex 6.25644 -12.6135 0
      vertex 6.25644 -55.9437 1
      vertex 6.25644 -55.9437 0
    endloop
  endfacet
endsolid OpenSCAD_Model
