solid OpenSCAD_Model
  facet normal -0 0 -1
    outer loop
      vertex 6.5822 -13.5456 0
      vertex 2.93568 -14.4494 0
      vertex 2.94884 -13.5456 0
    endloop
  endfacet
  facet normal 0 0 -1
    outer loop
      vertex 3.86859 -21.3301 0
      vertex 2.89624 -15.2758 0
      vertex 2.93568 -14.4494 0
    endloop
  endfacet
  facet normal 0 0 -1
    outer loop
      vertex 3.86859 -21.3301 0
      vertex 2.83049 -16.025 0
      vertex 2.89624 -15.2758 0
    endloop
  endfacet
  facet normal 0 0 -1
    outer loop
      vertex 3.86859 -21.3301 0
      vertex 2.73845 -16.6968 0
      vertex 2.83049 -16.025 0
    endloop
  endfacet
  facet normal 0 0 -1
    outer loop
      vertex 3.86859 -21.3301 0
      vertex 2.62012 -17.2913 0
      vertex 2.73845 -16.6968 0
    endloop
  endfacet
  facet normal 0 0 -1
    outer loop
      vertex 1.29057 -19.3949 0
      vertex 3.24486 -21.7513 0
      vertex 2.56013 -22.0789 0
    endloop
  endfacet
  facet normal 0 0 -1
    outer loop
      vertex 3.86859 -21.3301 0
      vertex 2.47548 -17.8086 0
      vertex 2.62012 -17.2913 0
    endloop
  endfacet
  facet normal 0 0 -1
    outer loop
      vertex 3.86859 -21.3301 0
      vertex 2.30455 -18.2485 0
      vertex 2.47548 -17.8086 0
    endloop
  endfacet
  facet normal 0 0 -1
    outer loop
      vertex 3.86859 -21.3301 0
      vertex 2.1031 -18.6211 0
      vertex 2.30455 -18.2485 0
    endloop
  endfacet
  facet normal 0 0 -1
    outer loop
      vertex 3.86859 -21.3301 0
      vertex 1.86697 -18.9363 0
      vertex 2.1031 -18.6211 0
    endloop
  endfacet
  facet normal 0 0 -1
    outer loop
      vertex 1.29057 -19.3949 0
      vertex 2.56013 -22.0789 0
      vertex 1.81439 -22.3129 0
    endloop
  endfacet
  facet normal 0 0 -1
    outer loop
      vertex 3.86859 -21.3301 0
      vertex 1.59613 -19.1942 0
      vertex 1.86697 -18.9363 0
    endloop
  endfacet
  facet normal 0 0 -1
    outer loop
      vertex 3.24486 -21.7513 0
      vertex 1.29057 -19.3949 0
      vertex 1.59613 -19.1942 0
    endloop
  endfacet
  facet normal 0 0 -1
    outer loop
      vertex 0.950333 -19.5382 0
      vertex 1.81439 -22.3129 0
      vertex 1.00763 -22.4533 0
    endloop
  endfacet
  facet normal 0 0 -1
    outer loop
      vertex 1.81439 -22.3129 0
      vertex 0.950333 -19.5382 0
      vertex 1.29057 -19.3949 0
    endloop
  endfacet
  facet normal 0 0 -1
    outer loop
      vertex 1.00763 -22.4533 0
      vertex 0.575378 -19.6241 0
      vertex 0.950333 -19.5382 0
    endloop
  endfacet
  facet normal 0 0 -1
    outer loop
      vertex 0.139877 -22.5001 0
      vertex 0.575378 -19.6241 0
      vertex 1.00763 -22.4533 0
    endloop
  endfacet
  facet normal 0 0 -1
    outer loop
      vertex 0.575378 -19.6241 0
      vertex 0.139877 -22.5001 0
      vertex 0.16571 -19.6528 0
    endloop
  endfacet
  facet normal 0 0 -1
    outer loop
      vertex 0.139877 -22.5001 0
      vertex -0.126419 -19.6404 0
      vertex 0.16571 -19.6528 0
    endloop
  endfacet
  facet normal 0 0 -1
    outer loop
      vertex -0.730331 -22.4535 0
      vertex -0.126419 -19.6404 0
      vertex 0.139877 -22.5001 0
    endloop
  endfacet
  facet normal -0 0 -1
    outer loop
      vertex -0.126419 -19.6404 0
      vertex -0.730331 -22.4535 0
      vertex -0.399124 -19.6034 0
    endloop
  endfacet
  facet normal -0 0 -1
    outer loop
      vertex -0.399124 -19.6034 0
      vertex -0.730331 -22.4535 0
      vertex -0.652359 -19.5416 0
    endloop
  endfacet
  facet normal 0 0 -1
    outer loop
      vertex -1.53719 -22.3134 0
      vertex -0.652359 -19.5416 0
      vertex -0.730331 -22.4535 0
    endloop
  endfacet
  facet normal -0 0 -1
    outer loop
      vertex -0.652359 -19.5416 0
      vertex -1.53719 -22.3134 0
      vertex -0.886139 -19.4551 0
    endloop
  endfacet
  facet normal 0 0 -1
    outer loop
      vertex -2.28067 -22.0801 0
      vertex -0.886139 -19.4551 0
      vertex -1.53719 -22.3134 0
    endloop
  endfacet
  facet normal -0 0 -1
    outer loop
      vertex -0.886139 -19.4551 0
      vertex -2.28067 -22.0801 0
      vertex -1.10046 -19.3438 0
    endloop
  endfacet
  facet normal 0 0 -1
    outer loop
      vertex -2.96078 -21.7534 0
      vertex -1.10046 -19.3438 0
      vertex -2.28067 -22.0801 0
    endloop
  endfacet
  facet normal -0 0 -1
    outer loop
      vertex -1.10046 -19.3438 0
      vertex -2.96078 -21.7534 0
      vertex -1.29533 -19.2079 0
    endloop
  endfacet
  facet normal 0 0 -1
    outer loop
      vertex -3.57755 -21.3334 0
      vertex -1.29533 -19.2079 0
      vertex -2.96078 -21.7534 0
    endloop
  endfacet
  facet normal -0 0 -1
    outer loop
      vertex -1.29533 -19.2079 0
      vertex -3.57755 -21.3334 0
      vertex -1.47073 -19.0473 0
    endloop
  endfacet
  facet normal -0 0 -1
    outer loop
      vertex -1.47073 -19.0473 0
      vertex -3.57755 -21.3334 0
      vertex -1.63019 -18.8595 0
    endloop
  endfacet
  facet normal 0 0 -1
    outer loop
      vertex -4.13092 -20.82 0
      vertex -1.63019 -18.8595 0
      vertex -3.57755 -21.3334 0
    endloop
  endfacet
  facet normal -0 0 -1
    outer loop
      vertex -1.63019 -18.8595 0
      vertex -4.13092 -20.82 0
      vertex -1.77728 -18.6423 0
    endloop
  endfacet
  facet normal 0 0 -1
    outer loop
      vertex -4.62094 -20.2133 0
      vertex -1.77728 -18.6423 0
      vertex -4.13092 -20.82 0
    endloop
  endfacet
  facet normal -0 0 -1
    outer loop
      vertex -1.77728 -18.6423 0
      vertex -4.62094 -20.2133 0
      vertex -1.91202 -18.3956 0
    endloop
  endfacet
  facet normal 0 0 -1
    outer loop
      vertex -5.04648 -19.5171 0
      vertex -1.91202 -18.3956 0
      vertex -4.62094 -20.2133 0
    endloop
  endfacet
  facet normal -0 0 -1
    outer loop
      vertex -1.91202 -18.3956 0
      vertex -5.04648 -19.5171 0
      vertex -2.03441 -18.1195 0
    endloop
  endfacet
  facet normal -0 0 -1
    outer loop
      vertex -2.03441 -18.1195 0
      vertex -5.04648 -19.5171 0
      vertex -2.14444 -17.814 0
    endloop
  endfacet
  facet normal 0 0 -1
    outer loop
      vertex -5.40657 -18.7355 0
      vertex -2.14444 -17.814 0
      vertex -5.04648 -19.5171 0
    endloop
  endfacet
  facet normal -0 0 -1
    outer loop
      vertex -2.14444 -17.814 0
      vertex -5.40657 -18.7355 0
      vertex -2.24213 -17.479 0
    endloop
  endfacet
  facet normal -0 0 -1
    outer loop
      vertex -2.32745 -17.1146 0
      vertex -5.70117 -17.8684 0
      vertex -2.40094 -16.7167 0
    endloop
  endfacet
  facet normal -0 0 -1
    outer loop
      vertex -2.24213 -17.479 0
      vertex -5.70117 -17.8684 0
      vertex -2.32745 -17.1146 0
    endloop
  endfacet
  facet normal 0 0 -1
    outer loop
      vertex -5.70117 -17.8684 0
      vertex -2.24213 -17.479 0
      vertex -5.40657 -18.7355 0
    endloop
  endfacet
  facet normal 0 0 -1
    outer loop
      vertex 2.93568 -14.4494 0
      vertex 6.5822 -13.5456 0
      vertex 6.54855 -14.7512 0
    endloop
  endfacet
  facet normal 0 0 -1
    outer loop
      vertex 2.94331 -12.9171 0
      vertex 6.5822 -13.5456 0
      vertex 2.94884 -13.5456 0
    endloop
  endfacet
  facet normal 0 0 -1
    outer loop
      vertex 2.93568 -14.4494 0
      vertex 6.54855 -14.7512 0
      vertex 6.44757 -15.8721 0
    endloop
  endfacet
  facet normal 0 0 -1
    outer loop
      vertex 6.5822 -13.5456 0
      vertex 2.94331 -12.9171 0
      vertex 6.55038 -12.3137 0
    endloop
  endfacet
  facet normal 0 0 -1
    outer loop
      vertex 2.93568 -14.4494 0
      vertex 6.44757 -15.8721 0
      vertex 6.2793 -16.9084 0
    endloop
  endfacet
  facet normal 0 0 -1
    outer loop
      vertex 2.92673 -12.3271 0
      vertex 6.55038 -12.3137 0
      vertex 2.94331 -12.9171 0
    endloop
  endfacet
  facet normal 0 0 -1
    outer loop
      vertex 2.93568 -14.4494 0
      vertex 6.2793 -16.9084 0
      vertex 6.04369 -17.86 0
    endloop
  endfacet
  facet normal 0 0 -1
    outer loop
      vertex 2.89911 -11.7758 0
      vertex 6.55038 -12.3137 0
      vertex 2.92673 -12.3271 0
    endloop
  endfacet
  facet normal 0 0 -1
    outer loop
      vertex 2.93568 -14.4494 0
      vertex 6.04369 -17.86 0
      vertex 5.74078 -18.7269 0
    endloop
  endfacet
  facet normal 0 0 -1
    outer loop
      vertex 6.55038 -12.3137 0
      vertex 2.89911 -11.7758 0
      vertex 6.45493 -11.1728 0
    endloop
  endfacet
  facet normal 0 0 -1
    outer loop
      vertex 2.93568 -14.4494 0
      vertex 5.74078 -18.7269 0
      vertex 5.37054 -19.5092 0
    endloop
  endfacet
  facet normal 0 0 -1
    outer loop
      vertex 2.86043 -11.2632 0
      vertex 6.45493 -11.1728 0
      vertex 2.89911 -11.7758 0
    endloop
  endfacet
  facet normal 0 0 -1
    outer loop
      vertex 2.93568 -14.4494 0
      vertex 5.37054 -19.5092 0
      vertex 4.933 -20.2068 0
    endloop
  endfacet
  facet normal -0 0 -1
    outer loop
      vertex 6.45493 -11.1728 0
      vertex 2.86043 -11.2632 0
      vertex 6.29584 -10.1228 0
    endloop
  endfacet
  facet normal 0 0 -1
    outer loop
      vertex 2.93568 -14.4494 0
      vertex 4.933 -20.2068 0
      vertex 4.4313 -20.8153 0
    endloop
  endfacet
  facet normal 0 0 -1
    outer loop
      vertex 2.8107 -10.7893 0
      vertex 6.29584 -10.1228 0
      vertex 2.86043 -11.2632 0
    endloop
  endfacet
  facet normal 0 0 -1
    outer loop
      vertex 2.93568 -14.4494 0
      vertex 4.4313 -20.8153 0
      vertex 3.86859 -21.3301 0
    endloop
  endfacet
  facet normal 0 0 -1
    outer loop
      vertex 2.74992 -10.3539 0
      vertex 6.29584 -10.1228 0
      vertex 2.8107 -10.7893 0
    endloop
  endfacet
  facet normal 0 0 -1
    outer loop
      vertex 1.59613 -19.1942 0
      vertex 3.86859 -21.3301 0
      vertex 3.24486 -21.7513 0
    endloop
  endfacet
  facet normal -0 0 -1
    outer loop
      vertex 6.29584 -10.1228 0
      vertex 2.74992 -10.3539 0
      vertex 6.0731 -9.16389 0
    endloop
  endfacet
  facet normal 0 0 -1
    outer loop
      vertex 2.67809 -9.95728 0
      vertex 6.0731 -9.16389 0
      vertex 2.74992 -10.3539 0
    endloop
  endfacet
  facet normal 0 0 -1
    outer loop
      vertex 2.59473 -9.59454 0
      vertex 6.0731 -9.16389 0
      vertex 2.67809 -9.95728 0
    endloop
  endfacet
  facet normal -0 0 -1
    outer loop
      vertex 6.0731 -9.16389 0
      vertex 2.59473 -9.59454 0
      vertex 5.78673 -8.29593 0
    endloop
  endfacet
  facet normal 0 0 -1
    outer loop
      vertex 2.49928 -9.26099 0
      vertex 5.78673 -8.29593 0
      vertex 2.59473 -9.59454 0
    endloop
  endfacet
  facet normal -0 0 -1
    outer loop
      vertex 5.78673 -8.29593 0
      vertex 2.49928 -9.26099 0
      vertex 5.43671 -7.51894 0
    endloop
  endfacet
  facet normal 0 0 -1
    outer loop
      vertex 2.39174 -8.95662 0
      vertex 5.43671 -7.51894 0
      vertex 2.49928 -9.26099 0
    endloop
  endfacet
  facet normal 0 0 -1
    outer loop
      vertex 2.27209 -8.68144 0
      vertex 5.43671 -7.51894 0
      vertex 2.39174 -8.95662 0
    endloop
  endfacet
  facet normal -0 0 -1
    outer loop
      vertex 5.43671 -7.51894 0
      vertex 2.27209 -8.68144 0
      vertex 5.02307 -6.83292 0
    endloop
  endfacet
  facet normal 0 0 -1
    outer loop
      vertex 2.14035 -8.43546 0
      vertex 5.02307 -6.83292 0
      vertex 2.27209 -8.68144 0
    endloop
  endfacet
  facet normal -0 0 -1
    outer loop
      vertex 5.02307 -6.83292 0
      vertex 2.14035 -8.43546 0
      vertex 4.54373 -6.23811 0
    endloop
  endfacet
  facet normal 0 0 -1
    outer loop
      vertex 1.99651 -8.21866 0
      vertex 4.54373 -6.23811 0
      vertex 2.14035 -8.43546 0
    endloop
  endfacet
  facet normal -0 0 -1
    outer loop
      vertex 4.54373 -6.23811 0
      vertex 1.99651 -8.21866 0
      vertex 3.99655 -5.7348 0
    endloop
  endfacet
  facet normal 0 0 -1
    outer loop
      vertex 1.84056 -8.03107 0
      vertex 3.99655 -5.7348 0
      vertex 1.99651 -8.21866 0
    endloop
  endfacet
  facet normal -0 0 -1
    outer loop
      vertex 3.99655 -5.7348 0
      vertex 1.84056 -8.03107 0
      vertex 3.38153 -5.323 0
    endloop
  endfacet
  facet normal 0 0 -1
    outer loop
      vertex 1.66864 -7.87041 0
      vertex 3.38153 -5.323 0
      vertex 1.84056 -8.03107 0
    endloop
  endfacet
  facet normal 0 0 -1
    outer loop
      vertex 1.47672 -7.73448 0
      vertex 3.38153 -5.323 0
      vertex 1.66864 -7.87041 0
    endloop
  endfacet
  facet normal -0 0 -1
    outer loop
      vertex 3.38153 -5.323 0
      vertex 1.47672 -7.73448 0
      vertex 2.69867 -5.00272 0
    endloop
  endfacet
  facet normal 0 0 -1
    outer loop
      vertex 1.2648 -7.62326 0
      vertex 2.69867 -5.00272 0
      vertex 1.47672 -7.73448 0
    endloop
  endfacet
  facet normal -0 0 -1
    outer loop
      vertex 2.69867 -5.00272 0
      vertex 1.2648 -7.62326 0
      vertex 1.94797 -4.77396 0
    endloop
  endfacet
  facet normal 0 0 -1
    outer loop
      vertex 1.03288 -7.53676 0
      vertex 1.94797 -4.77396 0
      vertex 1.2648 -7.62326 0
    endloop
  endfacet
  facet normal -0 0 -1
    outer loop
      vertex 1.94797 -4.77396 0
      vertex 1.03288 -7.53676 0
      vertex 1.12943 -4.63669 0
    endloop
  endfacet
  facet normal 0 0 -1
    outer loop
      vertex 0.780991 -7.47496 0
      vertex 1.12943 -4.63669 0
      vertex 1.03288 -7.53676 0
    endloop
  endfacet
  facet normal 0 0 -1
    outer loop
      vertex 0.509094 -7.4379 0
      vertex 1.12943 -4.63669 0
      vertex 0.780991 -7.47496 0
    endloop
  endfacet
  facet normal 0 0 -1
    outer loop
      vertex 0.509094 -7.4379 0
      vertex 0.243042 -4.59094 0
      vertex 1.12943 -4.63669 0
    endloop
  endfacet
  facet normal 0 0 -1
    outer loop
      vertex 0.217209 -7.42554 0
      vertex 0.243042 -4.59094 0
      vertex 0.509094 -7.4379 0
    endloop
  endfacet
  facet normal 0 0 -1
    outer loop
      vertex -0.0888519 -7.4379 0
      vertex 0.243042 -4.59094 0
      vertex 0.217209 -7.42554 0
    endloop
  endfacet
  facet normal 0 0 -1
    outer loop
      vertex -0.67421 -4.63603 0
      vertex -0.0888519 -7.4379 0
      vertex -0.373886 -7.47496 0
    endloop
  endfacet
  facet normal 0 0 -1
    outer loop
      vertex -0.67421 -4.63603 0
      vertex -0.373886 -7.47496 0
      vertex -0.637878 -7.53676 0
    endloop
  endfacet
  facet normal 0 0 -1
    outer loop
      vertex -0.0888519 -7.4379 0
      vertex -0.67421 -4.63603 0
      vertex 0.243042 -4.59094 0
    endloop
  endfacet
  facet normal 0 0 -1
    outer loop
      vertex -1.51918 -4.77132 0
      vertex -0.637878 -7.53676 0
      vertex -0.880844 -7.62326 0
    endloop
  endfacet
  facet normal 0 0 -1
    outer loop
      vertex -2.29184 -4.9968 0
      vertex -0.880844 -7.62326 0
      vertex -1.10275 -7.73448 0
    endloop
  endfacet
  facet normal 0 0 -1
    outer loop
      vertex -2.99222 -5.31245 0
      vertex -1.10275 -7.73448 0
      vertex -1.30363 -7.87041 0
    endloop
  endfacet
  facet normal 0 0 -1
    outer loop
      vertex -2.99222 -5.31245 0
      vertex -1.30363 -7.87041 0
      vertex -1.48347 -8.03107 0
    endloop
  endfacet
  facet normal 0 0 -1
    outer loop
      vertex -0.637878 -7.53676 0
      vertex -1.51918 -4.77132 0
      vertex -0.67421 -4.63603 0
    endloop
  endfacet
  facet normal 0 0 -1
    outer loop
      vertex -3.62029 -5.71832 0
      vertex -1.48347 -8.03107 0
      vertex -1.64609 -8.21866 0
    endloop
  endfacet
  facet normal 0 0 -1
    outer loop
      vertex -4.17604 -6.21437 0
      vertex -1.64609 -8.21866 0
      vertex -1.7953 -8.43546 0
    endloop
  endfacet
  facet normal 0 0 -1
    outer loop
      vertex -4.65952 -6.80063 0
      vertex -1.7953 -8.43546 0
      vertex -1.93112 -8.68144 0
    endloop
  endfacet
  facet normal 0 0 -1
    outer loop
      vertex -5.07483 -7.47943 0
      vertex -1.93112 -8.68144 0
      vertex -2.05353 -8.95662 0
    endloop
  endfacet
  facet normal 0 0 -1
    outer loop
      vertex -5.07483 -7.47943 0
      vertex -2.05353 -8.95662 0
      vertex -2.16255 -9.26099 0
    endloop
  endfacet
  facet normal 0 0 -1
    outer loop
      vertex -5.42624 -8.25316 0
      vertex -2.16255 -9.26099 0
      vertex -2.25816 -9.59454 0
    endloop
  endfacet
  facet normal 0 0 -1
    outer loop
      vertex -0.880844 -7.62326 0
      vertex -2.29184 -4.9968 0
      vertex -1.51918 -4.77132 0
    endloop
  endfacet
  facet normal 0 0 -1
    outer loop
      vertex -5.71376 -9.1218 0
      vertex -2.25816 -9.59454 0
      vertex -2.34036 -9.95728 0
    endloop
  endfacet
  facet normal 0 0 -1
    outer loop
      vertex -5.71376 -9.1218 0
      vertex -2.34036 -9.95728 0
      vertex -2.41043 -10.3539 0
    endloop
  endfacet
  facet normal 0 0 -1
    outer loop
      vertex -5.93739 -10.0854 0
      vertex -2.41043 -10.3539 0
      vertex -2.46973 -10.7893 0
    endloop
  endfacet
  facet normal 0 0 -1
    outer loop
      vertex -5.93739 -10.0854 0
      vertex -2.46973 -10.7893 0
      vertex -2.51823 -11.2632 0
    endloop
  endfacet
  facet normal 0 0 -1
    outer loop
      vertex -6.09714 -11.1439 0
      vertex -2.51823 -11.2632 0
      vertex -2.55597 -11.7758 0
    endloop
  endfacet
  facet normal 0 0 -1
    outer loop
      vertex -6.19298 -12.2973 0
      vertex -2.55597 -11.7758 0
      vertex -2.58292 -12.3271 0
    endloop
  endfacet
  facet normal 0 0 -1
    outer loop
      vertex -5.93031 -16.9159 0
      vertex -2.40094 -16.7167 0
      vertex -5.70117 -17.8684 0
    endloop
  endfacet
  facet normal 0 0 -1
    outer loop
      vertex -6.09398 -15.8779 0
      vertex -2.51401 -15.809 0
      vertex -5.93031 -16.9159 0
    endloop
  endfacet
  facet normal -0 0 -1
    outer loop
      vertex -2.51401 -15.809 0
      vertex -6.09398 -15.8779 0
      vertex -2.55359 -15.2992 0
    endloop
  endfacet
  facet normal 0 0 -1
    outer loop
      vertex -2.59908 -12.9171 0
      vertex -6.19298 -12.2973 0
      vertex -2.58292 -12.3271 0
    endloop
  endfacet
  facet normal -0 0 -1
    outer loop
      vertex -2.40094 -16.7167 0
      vertex -5.93031 -16.9159 0
      vertex -2.46313 -16.2815 0
    endloop
  endfacet
  facet normal -0 0 -1
    outer loop
      vertex -2.55597 -11.7758 0
      vertex -6.19298 -12.2973 0
      vertex -6.09714 -11.1439 0
    endloop
  endfacet
  facet normal -0 0 -1
    outer loop
      vertex -2.46313 -16.2815 0
      vertex -5.93031 -16.9159 0
      vertex -2.51401 -15.809 0
    endloop
  endfacet
  facet normal 0 0 -1
    outer loop
      vertex -2.51823 -11.2632 0
      vertex -6.09714 -11.1439 0
      vertex -5.93739 -10.0854 0
    endloop
  endfacet
  facet normal 0 0 -1
    outer loop
      vertex -6.19218 -14.7545 0
      vertex -2.55359 -15.2992 0
      vertex -6.09398 -15.8779 0
    endloop
  endfacet
  facet normal 0 0 -1
    outer loop
      vertex -2.41043 -10.3539 0
      vertex -5.93739 -10.0854 0
      vertex -5.71376 -9.1218 0
    endloop
  endfacet
  facet normal 0 0 -1
    outer loop
      vertex -2.55359 -15.2992 0
      vertex -6.19218 -14.7545 0
      vertex -2.58186 -14.752 0
    endloop
  endfacet
  facet normal 0 0 -1
    outer loop
      vertex -2.25816 -9.59454 0
      vertex -5.71376 -9.1218 0
      vertex -5.42624 -8.25316 0
    endloop
  endfacet
  facet normal -0 0 -1
    outer loop
      vertex -2.58186 -14.752 0
      vertex -6.19218 -14.7545 0
      vertex -2.59882 -14.1675 0
    endloop
  endfacet
  facet normal 0 0 -1
    outer loop
      vertex -2.16255 -9.26099 0
      vertex -5.42624 -8.25316 0
      vertex -5.07483 -7.47943 0
    endloop
  endfacet
  facet normal 0 0 -1
    outer loop
      vertex -6.22491 -13.5456 0
      vertex -2.59882 -14.1675 0
      vertex -6.19218 -14.7545 0
    endloop
  endfacet
  facet normal 0 0 -1
    outer loop
      vertex -1.93112 -8.68144 0
      vertex -5.07483 -7.47943 0
      vertex -4.65952 -6.80063 0
    endloop
  endfacet
  facet normal 0 0 -1
    outer loop
      vertex -2.59882 -14.1675 0
      vertex -6.22491 -13.5456 0
      vertex -2.60448 -13.5456 0
    endloop
  endfacet
  facet normal 0 0 -1
    outer loop
      vertex -2.60448 -13.5456 0
      vertex -6.22491 -13.5456 0
      vertex -2.59908 -12.9171 0
    endloop
  endfacet
  facet normal 0 -0 -1
    outer loop
      vertex -6.19298 -12.2973 0
      vertex -2.59908 -12.9171 0
      vertex -6.22491 -13.5456 0
    endloop
  endfacet
  facet normal 0 0 -1
    outer loop
      vertex -1.64609 -8.21866 0
      vertex -4.17604 -6.21437 0
      vertex -3.62029 -5.71832 0
    endloop
  endfacet
  facet normal 0 0 -1
    outer loop
      vertex -1.7953 -8.43546 0
      vertex -4.65952 -6.80063 0
      vertex -4.17604 -6.21437 0
    endloop
  endfacet
  facet normal 0 0 -1
    outer loop
      vertex -1.48347 -8.03107 0
      vertex -3.62029 -5.71832 0
      vertex -2.99222 -5.31245 0
    endloop
  endfacet
  facet normal 0 0 -1
    outer loop
      vertex -1.10275 -7.73448 0
      vertex -2.99222 -5.31245 0
      vertex -2.29184 -4.9968 0
    endloop
  endfacet
  facet normal 0 0 -1
    outer loop
      vertex -1.21291 -15.0917 0
      vertex 1.55728 -11.8835 0
      vertex 1.55728 -15.0917 0
    endloop
  endfacet
  facet normal -0 0 -1
    outer loop
      vertex 1.55728 -11.8835 0
      vertex -1.21291 -15.0917 0
      vertex -1.21291 -11.8835 0
    endloop
  endfacet
  facet normal -0 0 1
    outer loop
      vertex 2.94331 -12.9171 1
      vertex 6.5822 -13.5456 1
      vertex 6.55038 -12.3137 1
    endloop
  endfacet
  facet normal -0 0 1
    outer loop
      vertex 2.89911 -11.7758 1
      vertex 6.55038 -12.3137 1
      vertex 6.45493 -11.1728 1
    endloop
  endfacet
  facet normal 0 0 1
    outer loop
      vertex 6.5822 -13.5456 1
      vertex 2.94331 -12.9171 1
      vertex 2.94884 -13.5456 1
    endloop
  endfacet
  facet normal 0 0 1
    outer loop
      vertex 2.86043 -11.2632 1
      vertex 6.45493 -11.1728 1
      vertex 6.29584 -10.1228 1
    endloop
  endfacet
  facet normal 0 0 1
    outer loop
      vertex 2.93568 -14.4494 1
      vertex 6.5822 -13.5456 1
      vertex 2.94884 -13.5456 1
    endloop
  endfacet
  facet normal 0 0 1
    outer loop
      vertex 2.74992 -10.3539 1
      vertex 6.29584 -10.1228 1
      vertex 6.0731 -9.16389 1
    endloop
  endfacet
  facet normal 0 0 1
    outer loop
      vertex 6.5822 -13.5456 1
      vertex 2.93568 -14.4494 1
      vertex 6.54855 -14.7512 1
    endloop
  endfacet
  facet normal 0 0 1
    outer loop
      vertex 2.59473 -9.59454 1
      vertex 6.0731 -9.16389 1
      vertex 5.78673 -8.29593 1
    endloop
  endfacet
  facet normal 0 0 1
    outer loop
      vertex 2.89624 -15.2758 1
      vertex 6.54855 -14.7512 1
      vertex 2.93568 -14.4494 1
    endloop
  endfacet
  facet normal 0 0 1
    outer loop
      vertex 2.49928 -9.26099 1
      vertex 5.78673 -8.29593 1
      vertex 5.43671 -7.51894 1
    endloop
  endfacet
  facet normal 0 0 1
    outer loop
      vertex 6.54855 -14.7512 1
      vertex 2.89624 -15.2758 1
      vertex 6.44757 -15.8721 1
    endloop
  endfacet
  facet normal 0 0 1
    outer loop
      vertex 2.27209 -8.68144 1
      vertex 5.43671 -7.51894 1
      vertex 5.02307 -6.83292 1
    endloop
  endfacet
  facet normal 0 0 1
    outer loop
      vertex 2.83049 -16.025 1
      vertex 6.44757 -15.8721 1
      vertex 2.89624 -15.2758 1
    endloop
  endfacet
  facet normal 0 0 1
    outer loop
      vertex 2.14035 -8.43546 1
      vertex 5.02307 -6.83292 1
      vertex 4.54373 -6.23811 1
    endloop
  endfacet
  facet normal 0 0 1
    outer loop
      vertex 6.44757 -15.8721 1
      vertex 2.83049 -16.025 1
      vertex 6.2793 -16.9084 1
    endloop
  endfacet
  facet normal 0 0 1
    outer loop
      vertex 1.99651 -8.21866 1
      vertex 4.54373 -6.23811 1
      vertex 3.99655 -5.7348 1
    endloop
  endfacet
  facet normal -0 0 1
    outer loop
      vertex 2.73845 -16.6968 1
      vertex 6.2793 -16.9084 1
      vertex 2.83049 -16.025 1
    endloop
  endfacet
  facet normal 0 0 1
    outer loop
      vertex 1.84056 -8.03107 1
      vertex 3.99655 -5.7348 1
      vertex 3.38153 -5.323 1
    endloop
  endfacet
  facet normal 0 0 1
    outer loop
      vertex 6.2793 -16.9084 1
      vertex 2.73845 -16.6968 1
      vertex 6.04369 -17.86 1
    endloop
  endfacet
  facet normal 0 0 1
    outer loop
      vertex 6.04369 -17.86 1
      vertex 2.62012 -17.2913 1
      vertex 5.74078 -18.7269 1
    endloop
  endfacet
  facet normal -0 0 1
    outer loop
      vertex 2.62012 -17.2913 1
      vertex 6.04369 -17.86 1
      vertex 2.73845 -16.6968 1
    endloop
  endfacet
  facet normal 0 0 1
    outer loop
      vertex 6.55038 -12.3137 1
      vertex 2.92673 -12.3271 1
      vertex 2.94331 -12.9171 1
    endloop
  endfacet
  facet normal 0 0 1
    outer loop
      vertex 6.55038 -12.3137 1
      vertex 2.89911 -11.7758 1
      vertex 2.92673 -12.3271 1
    endloop
  endfacet
  facet normal 0 0 1
    outer loop
      vertex 6.45493 -11.1728 1
      vertex 2.86043 -11.2632 1
      vertex 2.89911 -11.7758 1
    endloop
  endfacet
  facet normal 0 0 1
    outer loop
      vertex 6.29584 -10.1228 1
      vertex 2.8107 -10.7893 1
      vertex 2.86043 -11.2632 1
    endloop
  endfacet
  facet normal 0 0 1
    outer loop
      vertex 6.29584 -10.1228 1
      vertex 2.74992 -10.3539 1
      vertex 2.8107 -10.7893 1
    endloop
  endfacet
  facet normal 0 0 1
    outer loop
      vertex 1.47672 -7.73448 1
      vertex 3.38153 -5.323 1
      vertex 2.69867 -5.00272 1
    endloop
  endfacet
  facet normal 0 0 1
    outer loop
      vertex 6.0731 -9.16389 1
      vertex 2.67809 -9.95728 1
      vertex 2.74992 -10.3539 1
    endloop
  endfacet
  facet normal 0 0 1
    outer loop
      vertex 6.0731 -9.16389 1
      vertex 2.59473 -9.59454 1
      vertex 2.67809 -9.95728 1
    endloop
  endfacet
  facet normal 0 0 1
    outer loop
      vertex 5.78673 -8.29593 1
      vertex 2.49928 -9.26099 1
      vertex 2.59473 -9.59454 1
    endloop
  endfacet
  facet normal 0 0 1
    outer loop
      vertex 5.43671 -7.51894 1
      vertex 2.39174 -8.95662 1
      vertex 2.49928 -9.26099 1
    endloop
  endfacet
  facet normal 0 0 1
    outer loop
      vertex 5.43671 -7.51894 1
      vertex 2.27209 -8.68144 1
      vertex 2.39174 -8.95662 1
    endloop
  endfacet
  facet normal 0 0 1
    outer loop
      vertex 5.02307 -6.83292 1
      vertex 2.14035 -8.43546 1
      vertex 2.27209 -8.68144 1
    endloop
  endfacet
  facet normal 0 0 1
    outer loop
      vertex 4.54373 -6.23811 1
      vertex 1.99651 -8.21866 1
      vertex 2.14035 -8.43546 1
    endloop
  endfacet
  facet normal 0 0 1
    outer loop
      vertex 1.2648 -7.62326 1
      vertex 2.69867 -5.00272 1
      vertex 1.94797 -4.77396 1
    endloop
  endfacet
  facet normal 0 0 1
    outer loop
      vertex 3.99655 -5.7348 1
      vertex 1.84056 -8.03107 1
      vertex 1.99651 -8.21866 1
    endloop
  endfacet
  facet normal 0 0 1
    outer loop
      vertex 3.38153 -5.323 1
      vertex 1.66864 -7.87041 1
      vertex 1.84056 -8.03107 1
    endloop
  endfacet
  facet normal 0 0 1
    outer loop
      vertex 3.38153 -5.323 1
      vertex 1.47672 -7.73448 1
      vertex 1.66864 -7.87041 1
    endloop
  endfacet
  facet normal 0 0 1
    outer loop
      vertex 2.69867 -5.00272 1
      vertex 1.2648 -7.62326 1
      vertex 1.47672 -7.73448 1
    endloop
  endfacet
  facet normal 0 0 1
    outer loop
      vertex 1.03288 -7.53676 1
      vertex 1.94797 -4.77396 1
      vertex 1.12943 -4.63669 1
    endloop
  endfacet
  facet normal 0 0 1
    outer loop
      vertex 1.94797 -4.77396 1
      vertex 1.03288 -7.53676 1
      vertex 1.2648 -7.62326 1
    endloop
  endfacet
  facet normal 0 0 1
    outer loop
      vertex 1.12943 -4.63669 1
      vertex 0.780991 -7.47496 1
      vertex 1.03288 -7.53676 1
    endloop
  endfacet
  facet normal 0 0 1
    outer loop
      vertex 1.12943 -4.63669 1
      vertex 0.509094 -7.4379 1
      vertex 0.780991 -7.47496 1
    endloop
  endfacet
  facet normal 0 0 1
    outer loop
      vertex 0.243042 -4.59094 1
      vertex 0.509094 -7.4379 1
      vertex 1.12943 -4.63669 1
    endloop
  endfacet
  facet normal 0 0 1
    outer loop
      vertex 0.243042 -4.59094 1
      vertex 0.217209 -7.42554 1
      vertex 0.509094 -7.4379 1
    endloop
  endfacet
  facet normal 0 0 1
    outer loop
      vertex 0.243042 -4.59094 1
      vertex -0.0888519 -7.4379 1
      vertex 0.217209 -7.42554 1
    endloop
  endfacet
  facet normal -0 0 1
    outer loop
      vertex -0.67421 -4.63603 1
      vertex -0.0888519 -7.4379 1
      vertex 0.243042 -4.59094 1
    endloop
  endfacet
  facet normal 0 0 1
    outer loop
      vertex -0.0888519 -7.4379 1
      vertex -0.67421 -4.63603 1
      vertex -0.373886 -7.47496 1
    endloop
  endfacet
  facet normal 0 0 1
    outer loop
      vertex -0.373886 -7.47496 1
      vertex -0.67421 -4.63603 1
      vertex -0.637878 -7.53676 1
    endloop
  endfacet
  facet normal -0 0 1
    outer loop
      vertex -1.51918 -4.77132 1
      vertex -0.637878 -7.53676 1
      vertex -0.67421 -4.63603 1
    endloop
  endfacet
  facet normal 0 0 1
    outer loop
      vertex -0.637878 -7.53676 1
      vertex -1.51918 -4.77132 1
      vertex -0.880844 -7.62326 1
    endloop
  endfacet
  facet normal -0 0 1
    outer loop
      vertex -2.29184 -4.9968 1
      vertex -0.880844 -7.62326 1
      vertex -1.51918 -4.77132 1
    endloop
  endfacet
  facet normal 0 0 1
    outer loop
      vertex -0.880844 -7.62326 1
      vertex -2.29184 -4.9968 1
      vertex -1.10275 -7.73448 1
    endloop
  endfacet
  facet normal -0 0 1
    outer loop
      vertex -2.99222 -5.31245 1
      vertex -1.10275 -7.73448 1
      vertex -2.29184 -4.9968 1
    endloop
  endfacet
  facet normal 0 0 1
    outer loop
      vertex -1.10275 -7.73448 1
      vertex -2.99222 -5.31245 1
      vertex -1.30363 -7.87041 1
    endloop
  endfacet
  facet normal 0 0 1
    outer loop
      vertex -1.30363 -7.87041 1
      vertex -2.99222 -5.31245 1
      vertex -1.48347 -8.03107 1
    endloop
  endfacet
  facet normal -0 0 1
    outer loop
      vertex -3.62029 -5.71832 1
      vertex -1.48347 -8.03107 1
      vertex -2.99222 -5.31245 1
    endloop
  endfacet
  facet normal 0 0 1
    outer loop
      vertex -1.48347 -8.03107 1
      vertex -3.62029 -5.71832 1
      vertex -1.64609 -8.21866 1
    endloop
  endfacet
  facet normal -0 0 1
    outer loop
      vertex -4.17604 -6.21437 1
      vertex -1.64609 -8.21866 1
      vertex -3.62029 -5.71832 1
    endloop
  endfacet
  facet normal 0 0 1
    outer loop
      vertex -1.64609 -8.21866 1
      vertex -4.17604 -6.21437 1
      vertex -1.7953 -8.43546 1
    endloop
  endfacet
  facet normal -0 0 1
    outer loop
      vertex -4.65952 -6.80063 1
      vertex -1.7953 -8.43546 1
      vertex -4.17604 -6.21437 1
    endloop
  endfacet
  facet normal 0 0 1
    outer loop
      vertex -1.7953 -8.43546 1
      vertex -4.65952 -6.80063 1
      vertex -1.93112 -8.68144 1
    endloop
  endfacet
  facet normal -0 0 1
    outer loop
      vertex -5.07483 -7.47943 1
      vertex -1.93112 -8.68144 1
      vertex -4.65952 -6.80063 1
    endloop
  endfacet
  facet normal 0 0 1
    outer loop
      vertex -1.93112 -8.68144 1
      vertex -5.07483 -7.47943 1
      vertex -2.05353 -8.95662 1
    endloop
  endfacet
  facet normal 0 0 1
    outer loop
      vertex -2.05353 -8.95662 1
      vertex -5.07483 -7.47943 1
      vertex -2.16255 -9.26099 1
    endloop
  endfacet
  facet normal -0 0 1
    outer loop
      vertex -5.42624 -8.25316 1
      vertex -2.16255 -9.26099 1
      vertex -5.07483 -7.47943 1
    endloop
  endfacet
  facet normal 0 0 1
    outer loop
      vertex -2.16255 -9.26099 1
      vertex -5.42624 -8.25316 1
      vertex -2.25816 -9.59454 1
    endloop
  endfacet
  facet normal 0 0 1
    outer loop
      vertex -6.22491 -13.5456 1
      vertex -2.60448 -13.5456 1
      vertex -2.59908 -12.9171 1
    endloop
  endfacet
  facet normal 0 0 1
    outer loop
      vertex -6.19298 -12.2973 1
      vertex -2.59908 -12.9171 1
      vertex -2.58292 -12.3271 1
    endloop
  endfacet
  facet normal -0 0 1
    outer loop
      vertex -5.71376 -9.1218 1
      vertex -2.25816 -9.59454 1
      vertex -5.42624 -8.25316 1
    endloop
  endfacet
  facet normal 0 0 1
    outer loop
      vertex -2.25816 -9.59454 1
      vertex -5.71376 -9.1218 1
      vertex -2.34036 -9.95728 1
    endloop
  endfacet
  facet normal 0 0 1
    outer loop
      vertex -2.60448 -13.5456 1
      vertex -6.22491 -13.5456 1
      vertex -6.19218 -14.7545 1
    endloop
  endfacet
  facet normal 0 0 1
    outer loop
      vertex -2.34036 -9.95728 1
      vertex -5.71376 -9.1218 1
      vertex -2.41043 -10.3539 1
    endloop
  endfacet
  facet normal 0 0 1
    outer loop
      vertex -2.60448 -13.5456 1
      vertex -6.19218 -14.7545 1
      vertex -6.09398 -15.8779 1
    endloop
  endfacet
  facet normal -0 0 1
    outer loop
      vertex -5.93739 -10.0854 1
      vertex -2.41043 -10.3539 1
      vertex -5.71376 -9.1218 1
    endloop
  endfacet
  facet normal 0 0 1
    outer loop
      vertex -2.60448 -13.5456 1
      vertex -6.09398 -15.8779 1
      vertex -5.93031 -16.9159 1
    endloop
  endfacet
  facet normal 0 0 1
    outer loop
      vertex -2.41043 -10.3539 1
      vertex -5.93739 -10.0854 1
      vertex -2.46973 -10.7893 1
    endloop
  endfacet
  facet normal 0 0 1
    outer loop
      vertex -2.60448 -13.5456 1
      vertex -5.93031 -16.9159 1
      vertex -5.70117 -17.8684 1
    endloop
  endfacet
  facet normal 0 0 1
    outer loop
      vertex -2.46973 -10.7893 1
      vertex -5.93739 -10.0854 1
      vertex -2.51823 -11.2632 1
    endloop
  endfacet
  facet normal 0 0 1
    outer loop
      vertex -2.60448 -13.5456 1
      vertex -5.70117 -17.8684 1
      vertex -5.40657 -18.7355 1
    endloop
  endfacet
  facet normal -0 0 1
    outer loop
      vertex -6.09714 -11.1439 1
      vertex -2.51823 -11.2632 1
      vertex -5.93739 -10.0854 1
    endloop
  endfacet
  facet normal 0 0 1
    outer loop
      vertex -2.60448 -13.5456 1
      vertex -5.40657 -18.7355 1
      vertex -5.04648 -19.5171 1
    endloop
  endfacet
  facet normal 0 0 1
    outer loop
      vertex -2.51823 -11.2632 1
      vertex -6.09714 -11.1439 1
      vertex -2.55597 -11.7758 1
    endloop
  endfacet
  facet normal 0 0 1
    outer loop
      vertex -2.60448 -13.5456 1
      vertex -5.04648 -19.5171 1
      vertex -4.62094 -20.2133 1
    endloop
  endfacet
  facet normal 0 0 1
    outer loop
      vertex -6.19298 -12.2973 1
      vertex -2.55597 -11.7758 1
      vertex -6.09714 -11.1439 1
    endloop
  endfacet
  facet normal 0 0 1
    outer loop
      vertex -2.60448 -13.5456 1
      vertex -4.13092 -20.82 1
      vertex -3.57755 -21.3334 1
    endloop
  endfacet
  facet normal 0 0 1
    outer loop
      vertex -2.55597 -11.7758 1
      vertex -6.19298 -12.2973 1
      vertex -2.58292 -12.3271 1
    endloop
  endfacet
  facet normal 0 0 1
    outer loop
      vertex -2.60448 -13.5456 1
      vertex -3.57755 -21.3334 1
      vertex -2.96078 -21.7534 1
    endloop
  endfacet
  facet normal 0 0 1
    outer loop
      vertex -2.59908 -12.9171 1
      vertex -6.19298 -12.2973 1
      vertex -6.22491 -13.5456 1
    endloop
  endfacet
  facet normal 0 -0 1
    outer loop
      vertex -4.13092 -20.82 1
      vertex -2.60448 -13.5456 1
      vertex -4.62094 -20.2133 1
    endloop
  endfacet
  facet normal -0 0 1
    outer loop
      vertex 2.47548 -17.8086 1
      vertex 5.74078 -18.7269 1
      vertex 2.62012 -17.2913 1
    endloop
  endfacet
  facet normal 0 0 1
    outer loop
      vertex 5.74078 -18.7269 1
      vertex 2.47548 -17.8086 1
      vertex 5.37054 -19.5092 1
    endloop
  endfacet
  facet normal -0 0 1
    outer loop
      vertex 2.30455 -18.2485 1
      vertex 5.37054 -19.5092 1
      vertex 2.47548 -17.8086 1
    endloop
  endfacet
  facet normal 0 0 1
    outer loop
      vertex 5.37054 -19.5092 1
      vertex 2.30455 -18.2485 1
      vertex 4.933 -20.2068 1
    endloop
  endfacet
  facet normal -0 0 1
    outer loop
      vertex 2.1031 -18.6211 1
      vertex 4.933 -20.2068 1
      vertex 2.30455 -18.2485 1
    endloop
  endfacet
  facet normal 0 0 1
    outer loop
      vertex 4.933 -20.2068 1
      vertex 2.1031 -18.6211 1
      vertex 4.4313 -20.8153 1
    endloop
  endfacet
  facet normal -0 0 1
    outer loop
      vertex 1.86697 -18.9363 1
      vertex 4.4313 -20.8153 1
      vertex 2.1031 -18.6211 1
    endloop
  endfacet
  facet normal 0 0 1
    outer loop
      vertex 4.4313 -20.8153 1
      vertex 1.86697 -18.9363 1
      vertex 3.86859 -21.3301 1
    endloop
  endfacet
  facet normal -0 0 1
    outer loop
      vertex 1.59613 -19.1942 1
      vertex 3.86859 -21.3301 1
      vertex 1.86697 -18.9363 1
    endloop
  endfacet
  facet normal 0 0 1
    outer loop
      vertex 3.86859 -21.3301 1
      vertex 1.59613 -19.1942 1
      vertex 3.24486 -21.7513 1
    endloop
  endfacet
  facet normal -0 0 1
    outer loop
      vertex 1.29057 -19.3949 1
      vertex 3.24486 -21.7513 1
      vertex 1.59613 -19.1942 1
    endloop
  endfacet
  facet normal 0 0 1
    outer loop
      vertex 3.24486 -21.7513 1
      vertex 1.29057 -19.3949 1
      vertex 2.56013 -22.0789 1
    endloop
  endfacet
  facet normal 0 0 1
    outer loop
      vertex 2.56013 -22.0789 1
      vertex 1.29057 -19.3949 1
      vertex 1.81439 -22.3129 1
    endloop
  endfacet
  facet normal -0 0 1
    outer loop
      vertex 0.950333 -19.5382 1
      vertex 1.81439 -22.3129 1
      vertex 1.29057 -19.3949 1
    endloop
  endfacet
  facet normal 0 0 1
    outer loop
      vertex 1.81439 -22.3129 1
      vertex 0.950333 -19.5382 1
      vertex 1.00763 -22.4533 1
    endloop
  endfacet
  facet normal -0 0 1
    outer loop
      vertex 0.575378 -19.6241 1
      vertex 1.00763 -22.4533 1
      vertex 0.950333 -19.5382 1
    endloop
  endfacet
  facet normal 0 0 1
    outer loop
      vertex 0.139877 -22.5001 1
      vertex 0.575378 -19.6241 1
      vertex 0.16571 -19.6528 1
    endloop
  endfacet
  facet normal 0 0 1
    outer loop
      vertex 0.575378 -19.6241 1
      vertex 0.139877 -22.5001 1
      vertex 1.00763 -22.4533 1
    endloop
  endfacet
  facet normal 0 0 1
    outer loop
      vertex -0.126419 -19.6404 1
      vertex 0.139877 -22.5001 1
      vertex 0.16571 -19.6528 1
    endloop
  endfacet
  facet normal 0 0 1
    outer loop
      vertex -0.730331 -22.4535 1
      vertex -0.126419 -19.6404 1
      vertex -0.399124 -19.6034 1
    endloop
  endfacet
  facet normal 0 0 1
    outer loop
      vertex -0.730331 -22.4535 1
      vertex -0.399124 -19.6034 1
      vertex -0.652359 -19.5416 1
    endloop
  endfacet
  facet normal 0 0 1
    outer loop
      vertex -0.126419 -19.6404 1
      vertex -0.730331 -22.4535 1
      vertex 0.139877 -22.5001 1
    endloop
  endfacet
  facet normal 0 0 1
    outer loop
      vertex -1.53719 -22.3134 1
      vertex -0.652359 -19.5416 1
      vertex -0.886139 -19.4551 1
    endloop
  endfacet
  facet normal 0 0 1
    outer loop
      vertex -2.28067 -22.0801 1
      vertex -0.886139 -19.4551 1
      vertex -1.10046 -19.3438 1
    endloop
  endfacet
  facet normal 0 0 1
    outer loop
      vertex -2.96078 -21.7534 1
      vertex -1.10046 -19.3438 1
      vertex -1.29533 -19.2079 1
    endloop
  endfacet
  facet normal 0 0 1
    outer loop
      vertex -2.96078 -21.7534 1
      vertex -1.29533 -19.2079 1
      vertex -1.47073 -19.0473 1
    endloop
  endfacet
  facet normal 0 0 1
    outer loop
      vertex -0.652359 -19.5416 1
      vertex -1.53719 -22.3134 1
      vertex -0.730331 -22.4535 1
    endloop
  endfacet
  facet normal 0 0 1
    outer loop
      vertex -2.96078 -21.7534 1
      vertex -1.47073 -19.0473 1
      vertex -1.63019 -18.8595 1
    endloop
  endfacet
  facet normal 0 0 1
    outer loop
      vertex -2.96078 -21.7534 1
      vertex -1.63019 -18.8595 1
      vertex -1.77728 -18.6423 1
    endloop
  endfacet
  facet normal 0 0 1
    outer loop
      vertex -2.96078 -21.7534 1
      vertex -1.77728 -18.6423 1
      vertex -1.91202 -18.3956 1
    endloop
  endfacet
  facet normal 0 0 1
    outer loop
      vertex -2.96078 -21.7534 1
      vertex -1.91202 -18.3956 1
      vertex -2.03441 -18.1195 1
    endloop
  endfacet
  facet normal 0 0 1
    outer loop
      vertex -2.96078 -21.7534 1
      vertex -2.03441 -18.1195 1
      vertex -2.14444 -17.814 1
    endloop
  endfacet
  facet normal 0 0 1
    outer loop
      vertex -2.96078 -21.7534 1
      vertex -2.14444 -17.814 1
      vertex -2.24213 -17.479 1
    endloop
  endfacet
  facet normal 0 0 1
    outer loop
      vertex -0.886139 -19.4551 1
      vertex -2.28067 -22.0801 1
      vertex -1.53719 -22.3134 1
    endloop
  endfacet
  facet normal 0 0 1
    outer loop
      vertex -2.96078 -21.7534 1
      vertex -2.24213 -17.479 1
      vertex -2.32745 -17.1146 1
    endloop
  endfacet
  facet normal 0 0 1
    outer loop
      vertex -2.96078 -21.7534 1
      vertex -2.32745 -17.1146 1
      vertex -2.40094 -16.7167 1
    endloop
  endfacet
  facet normal 0 0 1
    outer loop
      vertex -2.96078 -21.7534 1
      vertex -2.40094 -16.7167 1
      vertex -2.46313 -16.2815 1
    endloop
  endfacet
  facet normal 0 0 1
    outer loop
      vertex -2.96078 -21.7534 1
      vertex -2.46313 -16.2815 1
      vertex -2.51401 -15.809 1
    endloop
  endfacet
  facet normal 0 0 1
    outer loop
      vertex -2.96078 -21.7534 1
      vertex -2.51401 -15.809 1
      vertex -2.55359 -15.2992 1
    endloop
  endfacet
  facet normal 0 0 1
    outer loop
      vertex -2.96078 -21.7534 1
      vertex -2.55359 -15.2992 1
      vertex -2.58186 -14.752 1
    endloop
  endfacet
  facet normal 0 0 1
    outer loop
      vertex -1.10046 -19.3438 1
      vertex -2.96078 -21.7534 1
      vertex -2.28067 -22.0801 1
    endloop
  endfacet
  facet normal 0 0 1
    outer loop
      vertex -2.59882 -14.1675 1
      vertex -2.96078 -21.7534 1
      vertex -2.58186 -14.752 1
    endloop
  endfacet
  facet normal 0 0 1
    outer loop
      vertex -2.96078 -21.7534 1
      vertex -2.59882 -14.1675 1
      vertex -2.60448 -13.5456 1
    endloop
  endfacet
  facet normal -0 0 1
    outer loop
      vertex -1.21291 -11.8835 1
      vertex 1.55728 -15.0917 1
      vertex 1.55728 -11.8835 1
    endloop
  endfacet
  facet normal 0 0 1
    outer loop
      vertex 1.55728 -15.0917 1
      vertex -1.21291 -11.8835 1
      vertex -1.21291 -15.0917 1
    endloop
  endfacet
  facet normal 0.171452 -0.985192 0
    outer loop
      vertex 1.00763 -22.4533 0
      vertex 1.81439 -22.3129 1
      vertex 1.00763 -22.4533 1
    endloop
  endfacet
  facet normal 0.171452 -0.985192 0
    outer loop
      vertex 1.81439 -22.3129 1
      vertex 1.00763 -22.4533 0
      vertex 1.81439 -22.3129 0
    endloop
  endfacet
  facet normal 0.299389 -0.954131 0
    outer loop
      vertex 1.81439 -22.3129 0
      vertex 2.56013 -22.0789 1
      vertex 1.81439 -22.3129 1
    endloop
  endfacet
  facet normal 0.299389 -0.954131 0
    outer loop
      vertex 2.56013 -22.0789 1
      vertex 1.81439 -22.3129 0
      vertex 2.56013 -22.0789 0
    endloop
  endfacet
  facet normal 0.431585 -0.902072 0
    outer loop
      vertex 2.56013 -22.0789 0
      vertex 3.24486 -21.7513 1
      vertex 2.56013 -22.0789 1
    endloop
  endfacet
  facet normal 0.431585 -0.902072 0
    outer loop
      vertex 3.24486 -21.7513 1
      vertex 2.56013 -22.0789 0
      vertex 3.24486 -21.7513 0
    endloop
  endfacet
  facet normal 0.559639 -0.828736 0
    outer loop
      vertex 3.24486 -21.7513 0
      vertex 3.86859 -21.3301 1
      vertex 3.24486 -21.7513 1
    endloop
  endfacet
  facet normal 0.559639 -0.828736 0
    outer loop
      vertex 3.86859 -21.3301 1
      vertex 3.24486 -21.7513 0
      vertex 3.86859 -21.3301 0
    endloop
  endfacet
  facet normal 0.674999 -0.737818 0
    outer loop
      vertex 3.86859 -21.3301 0
      vertex 4.4313 -20.8153 1
      vertex 3.86859 -21.3301 1
    endloop
  endfacet
  facet normal 0.674999 -0.737818 0
    outer loop
      vertex 4.4313 -20.8153 1
      vertex 3.86859 -21.3301 0
      vertex 4.4313 -20.8153 0
    endloop
  endfacet
  facet normal 0.771568 -0.636147 0
    outer loop
      vertex 4.4313 -20.8153 1
      vertex 4.933 -20.2068 0
      vertex 4.933 -20.2068 1
    endloop
  endfacet
  facet normal 0.771568 -0.636147 0
    outer loop
      vertex 4.933 -20.2068 0
      vertex 4.4313 -20.8153 1
      vertex 4.4313 -20.8153 0
    endloop
  endfacet
  facet normal 0.847157 -0.531343 0
    outer loop
      vertex 4.933 -20.2068 1
      vertex 5.37054 -19.5092 0
      vertex 5.37054 -19.5092 1
    endloop
  endfacet
  facet normal 0.847157 -0.531343 0
    outer loop
      vertex 5.37054 -19.5092 0
      vertex 4.933 -20.2068 1
      vertex 4.933 -20.2068 0
    endloop
  endfacet
  facet normal 0.903882 -0.427781 0
    outer loop
      vertex 5.37054 -19.5092 1
      vertex 5.74078 -18.7269 0
      vertex 5.74078 -18.7269 1
    endloop
  endfacet
  facet normal 0.903882 -0.427781 0
    outer loop
      vertex 5.74078 -18.7269 0
      vertex 5.37054 -19.5092 1
      vertex 5.37054 -19.5092 0
    endloop
  endfacet
  facet normal 0.94403 -0.32986 0
    outer loop
      vertex 5.74078 -18.7269 1
      vertex 6.04369 -17.86 0
      vertex 6.04369 -17.86 1
    endloop
  endfacet
  facet normal 0.94403 -0.32986 0
    outer loop
      vertex 6.04369 -17.86 0
      vertex 5.74078 -18.7269 1
      vertex 5.74078 -18.7269 0
    endloop
  endfacet
  facet normal 0.97069 -0.240336 0
    outer loop
      vertex 6.04369 -17.86 1
      vertex 6.2793 -16.9084 0
      vertex 6.2793 -16.9084 1
    endloop
  endfacet
  facet normal 0.97069 -0.240336 0
    outer loop
      vertex 6.2793 -16.9084 0
      vertex 6.04369 -17.86 1
      vertex 6.04369 -17.86 0
    endloop
  endfacet
  facet normal 0.987072 -0.160277 0
    outer loop
      vertex 6.2793 -16.9084 1
      vertex 6.44757 -15.8721 0
      vertex 6.44757 -15.8721 1
    endloop
  endfacet
  facet normal 0.987072 -0.160277 0
    outer loop
      vertex 6.44757 -15.8721 0
      vertex 6.2793 -16.9084 1
      vertex 6.2793 -16.9084 0
    endloop
  endfacet
  facet normal 0.995967 -0.089725 0
    outer loop
      vertex 6.44757 -15.8721 1
      vertex 6.54855 -14.7512 0
      vertex 6.54855 -14.7512 1
    endloop
  endfacet
  facet normal 0.995967 -0.089725 0
    outer loop
      vertex 6.54855 -14.7512 0
      vertex 6.44757 -15.8721 1
      vertex 6.44757 -15.8721 0
    endloop
  endfacet
  facet normal 0.999611 -0.0279005 0
    outer loop
      vertex 6.54855 -14.7512 1
      vertex 6.5822 -13.5456 0
      vertex 6.5822 -13.5456 1
    endloop
  endfacet
  facet normal 0.999611 -0.0279005 0
    outer loop
      vertex 6.5822 -13.5456 0
      vertex 6.54855 -14.7512 1
      vertex 6.54855 -14.7512 0
    endloop
  endfacet
  facet normal 0.999667 0.0258214 0
    outer loop
      vertex 6.5822 -13.5456 1
      vertex 6.55038 -12.3137 0
      vertex 6.55038 -12.3137 1
    endloop
  endfacet
  facet normal 0.999667 0.0258214 0
    outer loop
      vertex 6.55038 -12.3137 0
      vertex 6.5822 -13.5456 1
      vertex 6.5822 -13.5456 0
    endloop
  endfacet
  facet normal 0.996519 0.0833708 0
    outer loop
      vertex 6.55038 -12.3137 1
      vertex 6.45493 -11.1728 0
      vertex 6.45493 -11.1728 1
    endloop
  endfacet
  facet normal 0.996519 0.0833708 0
    outer loop
      vertex 6.45493 -11.1728 0
      vertex 6.55038 -12.3137 1
      vertex 6.55038 -12.3137 0
    endloop
  endfacet
  facet normal 0.988716 0.149805 0
    outer loop
      vertex 6.45493 -11.1728 1
      vertex 6.29584 -10.1228 0
      vertex 6.29584 -10.1228 1
    endloop
  endfacet
  facet normal 0.988716 0.149805 0
    outer loop
      vertex 6.29584 -10.1228 0
      vertex 6.45493 -11.1728 1
      vertex 6.45493 -11.1728 0
    endloop
  endfacet
  facet normal 0.974067 0.226261 0
    outer loop
      vertex 6.29584 -10.1228 1
      vertex 6.0731 -9.16389 0
      vertex 6.0731 -9.16389 1
    endloop
  endfacet
  facet normal 0.974067 0.226261 0
    outer loop
      vertex 6.0731 -9.16389 0
      vertex 6.29584 -10.1228 1
      vertex 6.29584 -10.1228 0
    endloop
  endfacet
  facet normal 0.949647 0.313321 0
    outer loop
      vertex 6.0731 -9.16389 1
      vertex 5.78673 -8.29593 0
      vertex 5.78673 -8.29593 1
    endloop
  endfacet
  facet normal 0.949647 0.313321 0
    outer loop
      vertex 5.78673 -8.29593 0
      vertex 6.0731 -9.16389 1
      vertex 6.0731 -9.16389 0
    endloop
  endfacet
  facet normal 0.911757 0.41073 0
    outer loop
      vertex 5.78673 -8.29593 1
      vertex 5.43671 -7.51894 0
      vertex 5.43671 -7.51894 1
    endloop
  endfacet
  facet normal 0.911757 0.41073 0
    outer loop
      vertex 5.43671 -7.51894 0
      vertex 5.78673 -8.29593 1
      vertex 5.78673 -8.29593 0
    endloop
  endfacet
  facet normal 0.856374 0.516356 0
    outer loop
      vertex 5.43671 -7.51894 1
      vertex 5.02307 -6.83292 0
      vertex 5.02307 -6.83292 1
    endloop
  endfacet
  facet normal 0.856374 0.516356 0
    outer loop
      vertex 5.02307 -6.83292 0
      vertex 5.43671 -7.51894 1
      vertex 5.43671 -7.51894 0
    endloop
  endfacet
  facet normal 0.778634 0.627478 0
    outer loop
      vertex 5.02307 -6.83292 1
      vertex 4.54373 -6.23811 0
      vertex 4.54373 -6.23811 1
    endloop
  endfacet
  facet normal 0.778634 0.627478 0
    outer loop
      vertex 4.54373 -6.23811 0
      vertex 5.02307 -6.83292 1
      vertex 5.02307 -6.83292 0
    endloop
  endfacet
  facet normal 0.676987 0.735995 -0
    outer loop
      vertex 4.54373 -6.23811 0
      vertex 3.99655 -5.7348 1
      vertex 4.54373 -6.23811 1
    endloop
  endfacet
  facet normal 0.676987 0.735995 0
    outer loop
      vertex 3.99655 -5.7348 1
      vertex 4.54373 -6.23811 0
      vertex 3.99655 -5.7348 0
    endloop
  endfacet
  facet normal 0.55637 0.830935 -0
    outer loop
      vertex 3.99655 -5.7348 0
      vertex 3.38153 -5.323 1
      vertex 3.99655 -5.7348 1
    endloop
  endfacet
  facet normal 0.55637 0.830935 0
    outer loop
      vertex 3.38153 -5.323 1
      vertex 3.99655 -5.7348 0
      vertex 3.38153 -5.323 0
    endloop
  endfacet
  facet normal 0.42464 0.905362 -0
    outer loop
      vertex 3.38153 -5.323 0
      vertex 2.69867 -5.00272 1
      vertex 3.38153 -5.323 1
    endloop
  endfacet
  facet normal 0.42464 0.905362 0
    outer loop
      vertex 2.69867 -5.00272 1
      vertex 3.38153 -5.323 0
      vertex 2.69867 -5.00272 0
    endloop
  endfacet
  facet normal 0.291495 0.956572 -0
    outer loop
      vertex 2.69867 -5.00272 0
      vertex 1.94797 -4.77396 1
      vertex 2.69867 -5.00272 1
    endloop
  endfacet
  facet normal 0.291495 0.956572 0
    outer loop
      vertex 1.94797 -4.77396 1
      vertex 2.69867 -5.00272 0
      vertex 1.94797 -4.77396 0
    endloop
  endfacet
  facet normal 0.165391 0.986228 -0
    outer loop
      vertex 1.94797 -4.77396 0
      vertex 1.12943 -4.63669 1
      vertex 1.94797 -4.77396 1
    endloop
  endfacet
  facet normal 0.165391 0.986228 0
    outer loop
      vertex 1.12943 -4.63669 1
      vertex 1.94797 -4.77396 0
      vertex 1.12943 -4.63669 0
    endloop
  endfacet
  facet normal 0.0515454 0.998671 -0
    outer loop
      vertex 1.12943 -4.63669 0
      vertex 0.243042 -4.59094 1
      vertex 1.12943 -4.63669 1
    endloop
  endfacet
  facet normal 0.0515454 0.998671 0
    outer loop
      vertex 0.243042 -4.59094 1
      vertex 1.12943 -4.63669 0
      vertex 0.243042 -4.59094 0
    endloop
  endfacet
  facet normal -0.0490984 0.998794 0
    outer loop
      vertex 0.243042 -4.59094 0
      vertex -0.67421 -4.63603 1
      vertex 0.243042 -4.59094 1
    endloop
  endfacet
  facet normal -0.0490984 0.998794 0
    outer loop
      vertex -0.67421 -4.63603 1
      vertex 0.243042 -4.59094 0
      vertex -0.67421 -4.63603 0
    endloop
  endfacet
  facet normal -0.158099 0.987423 0
    outer loop
      vertex -0.67421 -4.63603 0
      vertex -1.51918 -4.77132 1
      vertex -0.67421 -4.63603 1
    endloop
  endfacet
  facet normal -0.158099 0.987423 0
    outer loop
      vertex -1.51918 -4.77132 1
      vertex -0.67421 -4.63603 0
      vertex -1.51918 -4.77132 0
    endloop
  endfacet
  facet normal -0.280138 0.95996 0
    outer loop
      vertex -1.51918 -4.77132 0
      vertex -2.29184 -4.9968 1
      vertex -1.51918 -4.77132 1
    endloop
  endfacet
  facet normal -0.280138 0.95996 0
    outer loop
      vertex -2.29184 -4.9968 1
      vertex -1.51918 -4.77132 0
      vertex -2.29184 -4.9968 0
    endloop
  endfacet
  facet normal -0.410883 0.911688 0
    outer loop
      vertex -2.29184 -4.9968 0
      vertex -2.99222 -5.31245 1
      vertex -2.29184 -4.9968 1
    endloop
  endfacet
  facet normal -0.410883 0.911688 0
    outer loop
      vertex -2.99222 -5.31245 1
      vertex -2.29184 -4.9968 0
      vertex -2.99222 -5.31245 0
    endloop
  endfacet
  facet normal -0.542753 0.839892 0
    outer loop
      vertex -2.99222 -5.31245 0
      vertex -3.62029 -5.71832 1
      vertex -2.99222 -5.31245 1
    endloop
  endfacet
  facet normal -0.542753 0.839892 0
    outer loop
      vertex -3.62029 -5.71832 1
      vertex -2.99222 -5.31245 0
      vertex -3.62029 -5.71832 0
    endloop
  endfacet
  facet normal -0.6659 0.746041 0
    outer loop
      vertex -3.62029 -5.71832 0
      vertex -4.17604 -6.21437 1
      vertex -3.62029 -5.71832 1
    endloop
  endfacet
  facet normal -0.6659 0.746041 0
    outer loop
      vertex -4.17604 -6.21437 1
      vertex -3.62029 -5.71832 0
      vertex -4.17604 -6.21437 0
    endloop
  endfacet
  facet normal -0.771492 0.636238 0
    outer loop
      vertex -4.65952 -6.80063 0
      vertex -4.17604 -6.21437 1
      vertex -4.17604 -6.21437 0
    endloop
  endfacet
  facet normal -0.771492 0.636238 0
    outer loop
      vertex -4.17604 -6.21437 1
      vertex -4.65952 -6.80063 0
      vertex -4.65952 -6.80063 1
    endloop
  endfacet
  facet normal -0.853009 0.521896 0
    outer loop
      vertex -5.07483 -7.47943 0
      vertex -4.65952 -6.80063 1
      vertex -4.65952 -6.80063 0
    endloop
  endfacet
  facet normal -0.853009 0.521896 0
    outer loop
      vertex -4.65952 -6.80063 1
      vertex -5.07483 -7.47943 0
      vertex -5.07483 -7.47943 1
    endloop
  endfacet
  facet normal -0.910493 0.413525 0
    outer loop
      vertex -5.42624 -8.25316 0
      vertex -5.07483 -7.47943 1
      vertex -5.07483 -7.47943 0
    endloop
  endfacet
  facet normal -0.910493 0.413525 0
    outer loop
      vertex -5.07483 -7.47943 1
      vertex -5.42624 -8.25316 0
      vertex -5.42624 -8.25316 1
    endloop
  endfacet
  facet normal -0.949346 0.314234 0
    outer loop
      vertex -5.71376 -9.1218 0
      vertex -5.42624 -8.25316 1
      vertex -5.42624 -8.25316 0
    endloop
  endfacet
  facet normal -0.949346 0.314234 0
    outer loop
      vertex -5.42624 -8.25316 1
      vertex -5.71376 -9.1218 0
      vertex -5.71376 -9.1218 1
    endloop
  endfacet
  facet normal -0.974111 0.226069 0
    outer loop
      vertex -5.93739 -10.0854 0
      vertex -5.71376 -9.1218 1
      vertex -5.71376 -9.1218 0
    endloop
  endfacet
  facet normal -0.974111 0.226069 0
    outer loop
      vertex -5.71376 -9.1218 1
      vertex -5.93739 -10.0854 0
      vertex -5.93739 -10.0854 1
    endloop
  endfacet
  facet normal -0.988802 0.149231 0
    outer loop
      vertex -6.09714 -11.1439 0
      vertex -5.93739 -10.0854 1
      vertex -5.93739 -10.0854 0
    endloop
  endfacet
  facet normal -0.988802 0.149231 0
    outer loop
      vertex -5.93739 -10.0854 1
      vertex -6.09714 -11.1439 0
      vertex -6.09714 -11.1439 1
    endloop
  endfacet
  facet normal -0.996566 0.0828081 0
    outer loop
      vertex -6.19298 -12.2973 0
      vertex -6.09714 -11.1439 1
      vertex -6.09714 -11.1439 0
    endloop
  endfacet
  facet normal -0.996566 0.0828081 0
    outer loop
      vertex -6.09714 -11.1439 1
      vertex -6.19298 -12.2973 0
      vertex -6.19298 -12.2973 1
    endloop
  endfacet
  facet normal -0.999673 0.0255704 0
    outer loop
      vertex -6.22491 -13.5456 0
      vertex -6.19298 -12.2973 1
      vertex -6.19298 -12.2973 0
    endloop
  endfacet
  facet normal -0.999673 0.0255704 0
    outer loop
      vertex -6.19298 -12.2973 1
      vertex -6.22491 -13.5456 0
      vertex -6.22491 -13.5456 1
    endloop
  endfacet
  facet normal -0.999634 -0.0270643 0
    outer loop
      vertex -6.19218 -14.7545 0
      vertex -6.22491 -13.5456 1
      vertex -6.22491 -13.5456 0
    endloop
  endfacet
  facet normal -0.999634 -0.0270643 0
    outer loop
      vertex -6.22491 -13.5456 1
      vertex -6.19218 -14.7545 0
      vertex -6.19218 -14.7545 1
    endloop
  endfacet
  facet normal -0.996201 -0.0870811 0
    outer loop
      vertex -6.09398 -15.8779 0
      vertex -6.19218 -14.7545 1
      vertex -6.19218 -14.7545 0
    endloop
  endfacet
  facet normal -0.996201 -0.0870811 0
    outer loop
      vertex -6.19218 -14.7545 1
      vertex -6.09398 -15.8779 0
      vertex -6.09398 -15.8779 1
    endloop
  endfacet
  facet normal -0.987796 -0.155754 0
    outer loop
      vertex -5.93031 -16.9159 0
      vertex -6.09398 -15.8779 1
      vertex -6.09398 -15.8779 0
    endloop
  endfacet
  facet normal -0.987796 -0.155754 0
    outer loop
      vertex -6.09398 -15.8779 1
      vertex -5.93031 -16.9159 0
      vertex -5.93031 -16.9159 1
    endloop
  endfacet
  facet normal -0.972262 -0.233894 0
    outer loop
      vertex -5.70117 -17.8684 0
      vertex -5.93031 -16.9159 1
      vertex -5.93031 -16.9159 0
    endloop
  endfacet
  facet normal -0.972262 -0.233894 0
    outer loop
      vertex -5.93031 -16.9159 1
      vertex -5.70117 -17.8684 0
      vertex -5.70117 -17.8684 1
    endloop
  endfacet
  facet normal -0.946844 -0.321693 0
    outer loop
      vertex -5.40657 -18.7355 0
      vertex -5.70117 -17.8684 1
      vertex -5.70117 -17.8684 0
    endloop
  endfacet
  facet normal -0.946844 -0.321693 0
    outer loop
      vertex -5.70117 -17.8684 1
      vertex -5.40657 -18.7355 0
      vertex -5.40657 -18.7355 1
    endloop
  endfacet
  facet normal -0.908246 -0.418437 0
    outer loop
      vertex -5.04648 -19.5171 0
      vertex -5.40657 -18.7355 1
      vertex -5.40657 -18.7355 0
    endloop
  endfacet
  facet normal -0.908246 -0.418437 0
    outer loop
      vertex -5.40657 -18.7355 1
      vertex -5.04648 -19.5171 0
      vertex -5.04648 -19.5171 1
    endloop
  endfacet
  facet normal -0.853236 -0.521525 0
    outer loop
      vertex -4.62094 -20.2133 0
      vertex -5.04648 -19.5171 1
      vertex -5.04648 -19.5171 0
    endloop
  endfacet
  facet normal -0.853236 -0.521525 0
    outer loop
      vertex -5.04648 -19.5171 1
      vertex -4.62094 -20.2133 0
      vertex -4.62094 -20.2133 1
    endloop
  endfacet
  facet normal -0.777946 -0.628332 0
    outer loop
      vertex -4.13092 -20.82 0
      vertex -4.62094 -20.2133 1
      vertex -4.62094 -20.2133 0
    endloop
  endfacet
  facet normal -0.777946 -0.628332 0
    outer loop
      vertex -4.62094 -20.2133 1
      vertex -4.13092 -20.82 0
      vertex -4.13092 -20.82 1
    endloop
  endfacet
  facet normal -0.680135 -0.733086 0
    outer loop
      vertex -4.13092 -20.82 0
      vertex -3.57755 -21.3334 1
      vertex -4.13092 -20.82 1
    endloop
  endfacet
  facet normal -0.680135 -0.733086 -0
    outer loop
      vertex -3.57755 -21.3334 1
      vertex -4.13092 -20.82 0
      vertex -3.57755 -21.3334 0
    endloop
  endfacet
  facet normal -0.562856 -0.826555 0
    outer loop
      vertex -3.57755 -21.3334 0
      vertex -2.96078 -21.7534 1
      vertex -3.57755 -21.3334 1
    endloop
  endfacet
  facet normal -0.562856 -0.826555 -0
    outer loop
      vertex -2.96078 -21.7534 1
      vertex -3.57755 -21.3334 0
      vertex -2.96078 -21.7534 0
    endloop
  endfacet
  facet normal -0.432997 -0.901395 0
    outer loop
      vertex -2.96078 -21.7534 0
      vertex -2.28067 -22.0801 1
      vertex -2.96078 -21.7534 1
    endloop
  endfacet
  facet normal -0.432997 -0.901395 -0
    outer loop
      vertex -2.28067 -22.0801 1
      vertex -2.96078 -21.7534 0
      vertex -2.28067 -22.0801 0
    endloop
  endfacet
  facet normal -0.2994 -0.954128 0
    outer loop
      vertex -2.28067 -22.0801 0
      vertex -1.53719 -22.3134 1
      vertex -2.28067 -22.0801 1
    endloop
  endfacet
  facet normal -0.2994 -0.954128 -0
    outer loop
      vertex -1.53719 -22.3134 1
      vertex -2.28067 -22.0801 0
      vertex -1.53719 -22.3134 0
    endloop
  endfacet
  facet normal -0.171076 -0.985258 0
    outer loop
      vertex -1.53719 -22.3134 0
      vertex -0.730331 -22.4535 1
      vertex -1.53719 -22.3134 1
    endloop
  endfacet
  facet normal -0.171076 -0.985258 -0
    outer loop
      vertex -0.730331 -22.4535 1
      vertex -1.53719 -22.3134 0
      vertex -0.730331 -22.4535 0
    endloop
  endfacet
  facet normal -0.0534738 -0.998569 0
    outer loop
      vertex -0.730331 -22.4535 0
      vertex 0.139877 -22.5001 1
      vertex -0.730331 -22.4535 1
    endloop
  endfacet
  facet normal -0.0534738 -0.998569 -0
    outer loop
      vertex 0.139877 -22.5001 1
      vertex -0.730331 -22.4535 0
      vertex 0.139877 -22.5001 0
    endloop
  endfacet
  facet normal 0.0538541 -0.998549 0
    outer loop
      vertex 0.139877 -22.5001 0
      vertex 1.00763 -22.4533 1
      vertex 0.139877 -22.5001 1
    endloop
  endfacet
  facet normal 0.0538541 -0.998549 0
    outer loop
      vertex 1.00763 -22.4533 1
      vertex 0.139877 -22.5001 0
      vertex 1.00763 -22.4533 0
    endloop
  endfacet
  facet normal 0.134446 0.990921 -0
    outer loop
      vertex -0.126419 -19.6404 0
      vertex -0.399124 -19.6034 1
      vertex -0.126419 -19.6404 1
    endloop
  endfacet
  facet normal 0.134446 0.990921 0
    outer loop
      vertex -0.399124 -19.6034 1
      vertex -0.126419 -19.6404 0
      vertex -0.399124 -19.6034 0
    endloop
  endfacet
  facet normal 0.237084 0.971489 -0
    outer loop
      vertex -0.399124 -19.6034 0
      vertex -0.652359 -19.5416 1
      vertex -0.399124 -19.6034 1
    endloop
  endfacet
  facet normal 0.237084 0.971489 0
    outer loop
      vertex -0.652359 -19.5416 1
      vertex -0.399124 -19.6034 0
      vertex -0.652359 -19.5416 0
    endloop
  endfacet
  facet normal 0.347014 0.93786 -0
    outer loop
      vertex -0.652359 -19.5416 0
      vertex -0.886139 -19.4551 1
      vertex -0.652359 -19.5416 1
    endloop
  endfacet
  facet normal 0.347014 0.93786 0
    outer loop
      vertex -0.886139 -19.4551 1
      vertex -0.652359 -19.5416 0
      vertex -0.886139 -19.4551 0
    endloop
  endfacet
  facet normal 0.460874 0.887466 -0
    outer loop
      vertex -0.886139 -19.4551 0
      vertex -1.10046 -19.3438 1
      vertex -0.886139 -19.4551 1
    endloop
  endfacet
  facet normal 0.460874 0.887466 0
    outer loop
      vertex -1.10046 -19.3438 1
      vertex -0.886139 -19.4551 0
      vertex -1.10046 -19.3438 0
    endloop
  endfacet
  facet normal 0.572024 0.820237 -0
    outer loop
      vertex -1.10046 -19.3438 0
      vertex -1.29533 -19.2079 1
      vertex -1.10046 -19.3438 1
    endloop
  endfacet
  facet normal 0.572024 0.820237 0
    outer loop
      vertex -1.29533 -19.2079 1
      vertex -1.10046 -19.3438 0
      vertex -1.29533 -19.2079 0
    endloop
  endfacet
  facet normal 0.675306 0.737538 -0
    outer loop
      vertex -1.29533 -19.2079 0
      vertex -1.47073 -19.0473 1
      vertex -1.29533 -19.2079 1
    endloop
  endfacet
  facet normal 0.675306 0.737538 0
    outer loop
      vertex -1.47073 -19.0473 1
      vertex -1.29533 -19.2079 0
      vertex -1.47073 -19.0473 0
    endloop
  endfacet
  facet normal 0.76228 0.647248 0
    outer loop
      vertex -1.47073 -19.0473 1
      vertex -1.63019 -18.8595 0
      vertex -1.63019 -18.8595 1
    endloop
  endfacet
  facet normal 0.76228 0.647248 0
    outer loop
      vertex -1.63019 -18.8595 0
      vertex -1.47073 -19.0473 1
      vertex -1.47073 -19.0473 0
    endloop
  endfacet
  facet normal 0.827999 0.560729 0
    outer loop
      vertex -1.63019 -18.8595 1
      vertex -1.77728 -18.6423 0
      vertex -1.77728 -18.6423 1
    endloop
  endfacet
  facet normal 0.827999 0.560729 0
    outer loop
      vertex -1.77728 -18.6423 0
      vertex -1.63019 -18.8595 1
      vertex -1.63019 -18.8595 0
    endloop
  endfacet
  facet normal 0.877632 0.479336 0
    outer loop
      vertex -1.77728 -18.6423 1
      vertex -1.91202 -18.3956 0
      vertex -1.91202 -18.3956 1
    endloop
  endfacet
  facet normal 0.877632 0.479336 0
    outer loop
      vertex -1.91202 -18.3956 0
      vertex -1.77728 -18.6423 1
      vertex -1.77728 -18.6423 0
    endloop
  endfacet
  facet normal 0.914206 0.40525 0
    outer loop
      vertex -1.91202 -18.3956 1
      vertex -2.03441 -18.1195 0
      vertex -2.03441 -18.1195 1
    endloop
  endfacet
  facet normal 0.914206 0.40525 0
    outer loop
      vertex -2.03441 -18.1195 0
      vertex -1.91202 -18.3956 1
      vertex -1.91202 -18.3956 0
    endloop
  endfacet
  facet normal 0.940838 0.338856 0
    outer loop
      vertex -2.03441 -18.1195 1
      vertex -2.14444 -17.814 0
      vertex -2.14444 -17.814 1
    endloop
  endfacet
  facet normal 0.940838 0.338856 0
    outer loop
      vertex -2.14444 -17.814 0
      vertex -2.03441 -18.1195 1
      vertex -2.03441 -18.1195 0
    endloop
  endfacet
  facet normal 0.960014 0.279952 0
    outer loop
      vertex -2.14444 -17.814 1
      vertex -2.24213 -17.479 0
      vertex -2.24213 -17.479 1
    endloop
  endfacet
  facet normal 0.960014 0.279952 0
    outer loop
      vertex -2.24213 -17.479 0
      vertex -2.14444 -17.814 1
      vertex -2.14444 -17.814 0
    endloop
  endfacet
  facet normal 0.973667 0.227973 0
    outer loop
      vertex -2.24213 -17.479 1
      vertex -2.32745 -17.1146 0
      vertex -2.32745 -17.1146 1
    endloop
  endfacet
  facet normal 0.973667 0.227973 0
    outer loop
      vertex -2.32745 -17.1146 0
      vertex -2.24213 -17.479 1
      vertex -2.24213 -17.479 0
    endloop
  endfacet
  facet normal 0.983368 0.181623 0
    outer loop
      vertex -2.32745 -17.1146 1
      vertex -2.40094 -16.7167 0
      vertex -2.40094 -16.7167 1
    endloop
  endfacet
  facet normal 0.983368 0.181623 0
    outer loop
      vertex -2.40094 -16.7167 0
      vertex -2.32745 -17.1146 1
      vertex -2.32745 -17.1146 0
    endloop
  endfacet
  facet normal 0.989944 0.141463 0
    outer loop
      vertex -2.40094 -16.7167 1
      vertex -2.46313 -16.2815 0
      vertex -2.46313 -16.2815 1
    endloop
  endfacet
  facet normal 0.989944 0.141463 0
    outer loop
      vertex -2.46313 -16.2815 0
      vertex -2.40094 -16.7167 1
      vertex -2.40094 -16.7167 0
    endloop
  endfacet
  facet normal 0.994252 0.107064 0
    outer loop
      vertex -2.46313 -16.2815 1
      vertex -2.51401 -15.809 0
      vertex -2.51401 -15.809 1
    endloop
  endfacet
  facet normal 0.994252 0.107064 0
    outer loop
      vertex -2.51401 -15.809 0
      vertex -2.46313 -16.2815 1
      vertex -2.46313 -16.2815 0
    endloop
  endfacet
  facet normal 0.997 0.0774054 0
    outer loop
      vertex -2.51401 -15.809 1
      vertex -2.55359 -15.2992 0
      vertex -2.55359 -15.2992 1
    endloop
  endfacet
  facet normal 0.997 0.0774054 0
    outer loop
      vertex -2.55359 -15.2992 0
      vertex -2.51401 -15.809 1
      vertex -2.51401 -15.809 0
    endloop
  endfacet
  facet normal 0.998668 0.0515942 0
    outer loop
      vertex -2.55359 -15.2992 1
      vertex -2.58186 -14.752 0
      vertex -2.58186 -14.752 1
    endloop
  endfacet
  facet normal 0.998668 0.0515942 0
    outer loop
      vertex -2.58186 -14.752 0
      vertex -2.55359 -15.2992 1
      vertex -2.55359 -15.2992 0
    endloop
  endfacet
  facet normal 0.999579 0.029004 0
    outer loop
      vertex -2.58186 -14.752 1
      vertex -2.59882 -14.1675 0
      vertex -2.59882 -14.1675 1
    endloop
  endfacet
  facet normal 0.999579 0.029004 0
    outer loop
      vertex -2.59882 -14.1675 0
      vertex -2.58186 -14.752 1
      vertex -2.58186 -14.752 0
    endloop
  endfacet
  facet normal 0.999959 0.00910076 0
    outer loop
      vertex -2.59882 -14.1675 1
      vertex -2.60448 -13.5456 0
      vertex -2.60448 -13.5456 1
    endloop
  endfacet
  facet normal 0.999959 0.00910076 0
    outer loop
      vertex -2.60448 -13.5456 0
      vertex -2.59882 -14.1675 1
      vertex -2.59882 -14.1675 0
    endloop
  endfacet
  facet normal 0.999963 -0.00859157 0
    outer loop
      vertex -2.60448 -13.5456 1
      vertex -2.59908 -12.9171 0
      vertex -2.59908 -12.9171 1
    endloop
  endfacet
  facet normal 0.999963 -0.00859157 0
    outer loop
      vertex -2.59908 -12.9171 0
      vertex -2.60448 -13.5456 1
      vertex -2.60448 -13.5456 0
    endloop
  endfacet
  facet normal 0.999625 -0.0273796 0
    outer loop
      vertex -2.59908 -12.9171 1
      vertex -2.58292 -12.3271 0
      vertex -2.58292 -12.3271 1
    endloop
  endfacet
  facet normal 0.999625 -0.0273796 0
    outer loop
      vertex -2.58292 -12.3271 0
      vertex -2.59908 -12.9171 1
      vertex -2.59908 -12.9171 0
    endloop
  endfacet
  facet normal 0.998807 -0.0488262 0
    outer loop
      vertex -2.58292 -12.3271 1
      vertex -2.55597 -11.7758 0
      vertex -2.55597 -11.7758 1
    endloop
  endfacet
  facet normal 0.998807 -0.0488262 0
    outer loop
      vertex -2.55597 -11.7758 0
      vertex -2.58292 -12.3271 1
      vertex -2.58292 -12.3271 0
    endloop
  endfacet
  facet normal 0.997301 -0.0734259 0
    outer loop
      vertex -2.55597 -11.7758 1
      vertex -2.51823 -11.2632 0
      vertex -2.51823 -11.2632 1
    endloop
  endfacet
  facet normal 0.997301 -0.0734259 0
    outer loop
      vertex -2.51823 -11.2632 0
      vertex -2.55597 -11.7758 1
      vertex -2.55597 -11.7758 0
    endloop
  endfacet
  facet normal 0.994804 -0.10181 0
    outer loop
      vertex -2.51823 -11.2632 1
      vertex -2.46973 -10.7893 0
      vertex -2.46973 -10.7893 1
    endloop
  endfacet
  facet normal 0.994804 -0.10181 0
    outer loop
      vertex -2.46973 -10.7893 0
      vertex -2.51823 -11.2632 1
      vertex -2.51823 -11.2632 0
    endloop
  endfacet
  facet normal 0.990852 -0.134951 0
    outer loop
      vertex -2.46973 -10.7893 1
      vertex -2.41043 -10.3539 0
      vertex -2.41043 -10.3539 1
    endloop
  endfacet
  facet normal 0.990852 -0.134951 0
    outer loop
      vertex -2.41043 -10.3539 0
      vertex -2.46973 -10.7893 1
      vertex -2.46973 -10.7893 0
    endloop
  endfacet
  facet normal 0.98475 -0.173974 0
    outer loop
      vertex -2.41043 -10.3539 1
      vertex -2.34036 -9.95728 0
      vertex -2.34036 -9.95728 1
    endloop
  endfacet
  facet normal 0.98475 -0.173974 0
    outer loop
      vertex -2.34036 -9.95728 0
      vertex -2.41043 -10.3539 1
      vertex -2.41043 -10.3539 0
    endloop
  endfacet
  facet normal 0.975273 -0.221005 0
    outer loop
      vertex -2.34036 -9.95728 1
      vertex -2.25816 -9.59454 0
      vertex -2.25816 -9.59454 1
    endloop
  endfacet
  facet normal 0.975273 -0.221005 0
    outer loop
      vertex -2.25816 -9.59454 0
      vertex -2.34036 -9.95728 1
      vertex -2.34036 -9.95728 0
    endloop
  endfacet
  facet normal 0.961288 -0.275547 0
    outer loop
      vertex -2.25816 -9.59454 1
      vertex -2.16255 -9.26099 0
      vertex -2.16255 -9.26099 1
    endloop
  endfacet
  facet normal 0.961288 -0.275547 0
    outer loop
      vertex -2.16255 -9.26099 0
      vertex -2.25816 -9.59454 1
      vertex -2.25816 -9.59454 0
    endloop
  endfacet
  facet normal 0.941432 -0.337204 0
    outer loop
      vertex -2.16255 -9.26099 1
      vertex -2.05353 -8.95662 0
      vertex -2.05353 -8.95662 1
    endloop
  endfacet
  facet normal 0.941432 -0.337204 0
    outer loop
      vertex -2.05353 -8.95662 0
      vertex -2.16255 -9.26099 1
      vertex -2.16255 -9.26099 0
    endloop
  endfacet
  facet normal 0.913679 -0.406437 0
    outer loop
      vertex -2.05353 -8.95662 1
      vertex -1.93112 -8.68144 0
      vertex -1.93112 -8.68144 1
    endloop
  endfacet
  facet normal 0.913679 -0.406437 0
    outer loop
      vertex -1.93112 -8.68144 0
      vertex -2.05353 -8.95662 1
      vertex -2.05353 -8.95662 0
    endloop
  endfacet
  facet normal 0.875417 -0.483369 0
    outer loop
      vertex -1.93112 -8.68144 1
      vertex -1.7953 -8.43546 0
      vertex -1.7953 -8.43546 1
    endloop
  endfacet
  facet normal 0.875417 -0.483369 0
    outer loop
      vertex -1.7953 -8.43546 0
      vertex -1.93112 -8.68144 1
      vertex -1.93112 -8.68144 0
    endloop
  endfacet
  facet normal 0.823758 -0.566942 0
    outer loop
      vertex -1.7953 -8.43546 1
      vertex -1.64609 -8.21866 0
      vertex -1.64609 -8.21866 1
    endloop
  endfacet
  facet normal 0.823758 -0.566942 0
    outer loop
      vertex -1.64609 -8.21866 0
      vertex -1.7953 -8.43546 1
      vertex -1.7953 -8.43546 0
    endloop
  endfacet
  facet normal 0.755605 -0.655027 0
    outer loop
      vertex -1.64609 -8.21866 1
      vertex -1.48347 -8.03107 0
      vertex -1.48347 -8.03107 1
    endloop
  endfacet
  facet normal 0.755605 -0.655027 0
    outer loop
      vertex -1.48347 -8.03107 0
      vertex -1.64609 -8.21866 1
      vertex -1.64609 -8.21866 0
    endloop
  endfacet
  facet normal 0.66622 -0.745755 0
    outer loop
      vertex -1.48347 -8.03107 0
      vertex -1.30363 -7.87041 1
      vertex -1.48347 -8.03107 1
    endloop
  endfacet
  facet normal 0.66622 -0.745755 0
    outer loop
      vertex -1.30363 -7.87041 1
      vertex -1.48347 -8.03107 0
      vertex -1.30363 -7.87041 0
    endloop
  endfacet
  facet normal 0.560424 -0.828206 0
    outer loop
      vertex -1.30363 -7.87041 0
      vertex -1.10275 -7.73448 1
      vertex -1.30363 -7.87041 1
    endloop
  endfacet
  facet normal 0.560424 -0.828206 0
    outer loop
      vertex -1.10275 -7.73448 1
      vertex -1.30363 -7.87041 0
      vertex -1.10275 -7.73448 0
    endloop
  endfacet
  facet normal 0.448074 -0.893997 0
    outer loop
      vertex -1.10275 -7.73448 0
      vertex -0.880844 -7.62326 1
      vertex -1.10275 -7.73448 1
    endloop
  endfacet
  facet normal 0.448074 -0.893997 0
    outer loop
      vertex -0.880844 -7.62326 1
      vertex -1.10275 -7.73448 0
      vertex -0.880844 -7.62326 0
    endloop
  endfacet
  facet normal 0.335395 -0.942077 0
    outer loop
      vertex -0.880844 -7.62326 0
      vertex -0.637878 -7.53676 1
      vertex -0.880844 -7.62326 1
    endloop
  endfacet
  facet normal 0.335395 -0.942077 0
    outer loop
      vertex -0.637878 -7.53676 1
      vertex -0.880844 -7.62326 0
      vertex -0.637878 -7.53676 0
    endloop
  endfacet
  facet normal 0.227936 -0.973676 0
    outer loop
      vertex -0.637878 -7.53676 0
      vertex -0.373886 -7.47496 1
      vertex -0.637878 -7.53676 1
    endloop
  endfacet
  facet normal 0.227936 -0.973676 0
    outer loop
      vertex -0.373886 -7.47496 1
      vertex -0.637878 -7.53676 0
      vertex -0.373886 -7.47496 0
    endloop
  endfacet
  facet normal 0.128934 -0.991653 0
    outer loop
      vertex -0.373886 -7.47496 0
      vertex -0.0888519 -7.4379 1
      vertex -0.373886 -7.47496 1
    endloop
  endfacet
  facet normal 0.128934 -0.991653 0
    outer loop
      vertex -0.0888519 -7.4379 1
      vertex -0.373886 -7.47496 0
      vertex -0.0888519 -7.4379 0
    endloop
  endfacet
  facet normal 0.0403512 -0.999186 0
    outer loop
      vertex -0.0888519 -7.4379 0
      vertex 0.217209 -7.42554 1
      vertex -0.0888519 -7.4379 1
    endloop
  endfacet
  facet normal 0.0403512 -0.999186 0
    outer loop
      vertex 0.217209 -7.42554 1
      vertex -0.0888519 -7.4379 0
      vertex 0.217209 -7.42554 0
    endloop
  endfacet
  facet normal -0.0423075 -0.999105 0
    outer loop
      vertex 0.217209 -7.42554 0
      vertex 0.509094 -7.4379 1
      vertex 0.217209 -7.42554 1
    endloop
  endfacet
  facet normal -0.0423075 -0.999105 -0
    outer loop
      vertex 0.509094 -7.4379 1
      vertex 0.217209 -7.42554 0
      vertex 0.509094 -7.4379 0
    endloop
  endfacet
  facet normal -0.135053 -0.990838 0
    outer loop
      vertex 0.509094 -7.4379 0
      vertex 0.780991 -7.47496 1
      vertex 0.509094 -7.4379 1
    endloop
  endfacet
  facet normal -0.135053 -0.990838 -0
    outer loop
      vertex 0.780991 -7.47496 1
      vertex 0.509094 -7.4379 0
      vertex 0.780991 -7.47496 0
    endloop
  endfacet
  facet normal -0.238279 -0.971197 0
    outer loop
      vertex 0.780991 -7.47496 0
      vertex 1.03288 -7.53676 1
      vertex 0.780991 -7.47496 1
    endloop
  endfacet
  facet normal -0.238279 -0.971197 -0
    outer loop
      vertex 1.03288 -7.53676 1
      vertex 0.780991 -7.47496 0
      vertex 1.03288 -7.53676 0
    endloop
  endfacet
  facet normal -0.349458 -0.936952 0
    outer loop
      vertex 1.03288 -7.53676 0
      vertex 1.2648 -7.62326 1
      vertex 1.03288 -7.53676 1
    endloop
  endfacet
  facet normal -0.349458 -0.936952 -0
    outer loop
      vertex 1.2648 -7.62326 1
      vertex 1.03288 -7.53676 0
      vertex 1.2648 -7.62326 0
    endloop
  endfacet
  facet normal -0.464709 -0.885463 0
    outer loop
      vertex 1.2648 -7.62326 0
      vertex 1.47672 -7.73448 1
      vertex 1.2648 -7.62326 1
    endloop
  endfacet
  facet normal -0.464709 -0.885463 -0
    outer loop
      vertex 1.47672 -7.73448 1
      vertex 1.2648 -7.62326 0
      vertex 1.47672 -7.73448 0
    endloop
  endfacet
  facet normal -0.57798 -0.816051 0
    outer loop
      vertex 1.47672 -7.73448 0
      vertex 1.66864 -7.87041 1
      vertex 1.47672 -7.73448 1
    endloop
  endfacet
  facet normal -0.57798 -0.816051 -0
    outer loop
      vertex 1.66864 -7.87041 1
      vertex 1.47672 -7.73448 0
      vertex 1.66864 -7.87041 0
    endloop
  endfacet
  facet normal -0.682775 -0.730628 0
    outer loop
      vertex 1.66864 -7.87041 0
      vertex 1.84056 -8.03107 1
      vertex 1.66864 -7.87041 1
    endloop
  endfacet
  facet normal -0.682775 -0.730628 -0
    outer loop
      vertex 1.84056 -8.03107 1
      vertex 1.66864 -7.87041 0
      vertex 1.84056 -8.03107 0
    endloop
  endfacet
  facet normal -0.768977 -0.639277 0
    outer loop
      vertex 1.99651 -8.21866 0
      vertex 1.84056 -8.03107 1
      vertex 1.84056 -8.03107 0
    endloop
  endfacet
  facet normal -0.768977 -0.639277 0
    outer loop
      vertex 1.84056 -8.03107 1
      vertex 1.99651 -8.21866 0
      vertex 1.99651 -8.21866 1
    endloop
  endfacet
  facet normal -0.833278 -0.552854 0
    outer loop
      vertex 2.14035 -8.43546 0
      vertex 1.99651 -8.21866 1
      vertex 1.99651 -8.21866 0
    endloop
  endfacet
  facet normal -0.833278 -0.552854 0
    outer loop
      vertex 1.99651 -8.21866 1
      vertex 2.14035 -8.43546 0
      vertex 2.14035 -8.43546 1
    endloop
  endfacet
  facet normal -0.881532 -0.472124 0
    outer loop
      vertex 2.27209 -8.68144 0
      vertex 2.14035 -8.43546 1
      vertex 2.14035 -8.43546 0
    endloop
  endfacet
  facet normal -0.881532 -0.472124 0
    outer loop
      vertex 2.14035 -8.43546 1
      vertex 2.27209 -8.68144 0
      vertex 2.27209 -8.68144 1
    endloop
  endfacet
  facet normal -0.917062 -0.398744 0
    outer loop
      vertex 2.39174 -8.95662 0
      vertex 2.27209 -8.68144 1
      vertex 2.27209 -8.68144 0
    endloop
  endfacet
  facet normal -0.917062 -0.398744 0
    outer loop
      vertex 2.27209 -8.68144 1
      vertex 2.39174 -8.95662 0
      vertex 2.39174 -8.95662 1
    endloop
  endfacet
  facet normal -0.942878 -0.333138 0
    outer loop
      vertex 2.49928 -9.26099 0
      vertex 2.39174 -8.95662 1
      vertex 2.39174 -8.95662 0
    endloop
  endfacet
  facet normal -0.942878 -0.333138 0
    outer loop
      vertex 2.39174 -8.95662 1
      vertex 2.49928 -9.26099 0
      vertex 2.49928 -9.26099 1
    endloop
  endfacet
  facet normal -0.96141 -0.275121 0
    outer loop
      vertex 2.59473 -9.59454 0
      vertex 2.49928 -9.26099 1
      vertex 2.49928 -9.26099 0
    endloop
  endfacet
  facet normal -0.96141 -0.275121 0
    outer loop
      vertex 2.49928 -9.26099 1
      vertex 2.59473 -9.59454 0
      vertex 2.59473 -9.59454 1
    endloop
  endfacet
  facet normal -0.974596 -0.223969 0
    outer loop
      vertex 2.67809 -9.95728 0
      vertex 2.59473 -9.59454 1
      vertex 2.59473 -9.59454 0
    endloop
  endfacet
  facet normal -0.974596 -0.223969 0
    outer loop
      vertex 2.59473 -9.59454 1
      vertex 2.67809 -9.95728 0
      vertex 2.67809 -9.95728 1
    endloop
  endfacet
  facet normal -0.983993 -0.178206 0
    outer loop
      vertex 2.74992 -10.3539 0
      vertex 2.67809 -9.95728 1
      vertex 2.67809 -9.95728 0
    endloop
  endfacet
  facet normal -0.983993 -0.178206 0
    outer loop
      vertex 2.67809 -9.95728 1
      vertex 2.74992 -10.3539 0
      vertex 2.74992 -10.3539 1
    endloop
  endfacet
  facet normal -0.990397 -0.138255 0
    outer loop
      vertex 2.8107 -10.7893 0
      vertex 2.74992 -10.3539 1
      vertex 2.74992 -10.3539 0
    endloop
  endfacet
  facet normal -0.990397 -0.138255 0
    outer loop
      vertex 2.74992 -10.3539 1
      vertex 2.8107 -10.7893 0
      vertex 2.8107 -10.7893 1
    endloop
  endfacet
  facet normal -0.994539 -0.104365 0
    outer loop
      vertex 2.86043 -11.2632 0
      vertex 2.8107 -10.7893 1
      vertex 2.8107 -10.7893 0
    endloop
  endfacet
  facet normal -0.994539 -0.104365 0
    outer loop
      vertex 2.8107 -10.7893 1
      vertex 2.86043 -11.2632 0
      vertex 2.86043 -11.2632 1
    endloop
  endfacet
  facet normal -0.997165 -0.0752445 0
    outer loop
      vertex 2.89911 -11.7758 0
      vertex 2.86043 -11.2632 1
      vertex 2.86043 -11.2632 0
    endloop
  endfacet
  facet normal -0.997165 -0.0752445 0
    outer loop
      vertex 2.86043 -11.2632 1
      vertex 2.89911 -11.7758 0
      vertex 2.89911 -11.7758 1
    endloop
  endfacet
  facet normal -0.998747 -0.050037 0
    outer loop
      vertex 2.92673 -12.3271 0
      vertex 2.89911 -11.7758 1
      vertex 2.89911 -11.7758 0
    endloop
  endfacet
  facet normal -0.998747 -0.050037 0
    outer loop
      vertex 2.89911 -11.7758 1
      vertex 2.92673 -12.3271 0
      vertex 2.92673 -12.3271 1
    endloop
  endfacet
  facet normal -0.999605 -0.0280906 0
    outer loop
      vertex 2.94331 -12.9171 0
      vertex 2.92673 -12.3271 1
      vertex 2.92673 -12.3271 0
    endloop
  endfacet
  facet normal -0.999605 -0.0280906 0
    outer loop
      vertex 2.92673 -12.3271 1
      vertex 2.94331 -12.9171 0
      vertex 2.94331 -12.9171 1
    endloop
  endfacet
  facet normal -0.999961 -0.00879839 0
    outer loop
      vertex 2.94884 -13.5456 0
      vertex 2.94331 -12.9171 1
      vertex 2.94331 -12.9171 0
    endloop
  endfacet
  facet normal -0.999961 -0.00879839 0
    outer loop
      vertex 2.94331 -12.9171 1
      vertex 2.94884 -13.5456 0
      vertex 2.94884 -13.5456 1
    endloop
  endfacet
  facet normal -0.999894 0.0145592 0
    outer loop
      vertex 2.93568 -14.4494 0
      vertex 2.94884 -13.5456 1
      vertex 2.94884 -13.5456 0
    endloop
  endfacet
  facet normal -0.999894 0.0145592 0
    outer loop
      vertex 2.94884 -13.5456 1
      vertex 2.93568 -14.4494 0
      vertex 2.93568 -14.4494 1
    endloop
  endfacet
  facet normal -0.998863 0.0476708 0
    outer loop
      vertex 2.89624 -15.2758 0
      vertex 2.93568 -14.4494 1
      vertex 2.93568 -14.4494 0
    endloop
  endfacet
  facet normal -0.998863 0.0476708 0
    outer loop
      vertex 2.93568 -14.4494 1
      vertex 2.89624 -15.2758 0
      vertex 2.89624 -15.2758 1
    endloop
  endfacet
  facet normal -0.996171 0.0874243 0
    outer loop
      vertex 2.83049 -16.025 0
      vertex 2.89624 -15.2758 1
      vertex 2.89624 -15.2758 0
    endloop
  endfacet
  facet normal -0.996171 0.0874243 0
    outer loop
      vertex 2.89624 -15.2758 1
      vertex 2.83049 -16.025 0
      vertex 2.83049 -16.025 1
    endloop
  endfacet
  facet normal -0.990745 0.135737 0
    outer loop
      vertex 2.73845 -16.6968 0
      vertex 2.83049 -16.025 1
      vertex 2.83049 -16.025 0
    endloop
  endfacet
  facet normal -0.990745 0.135737 0
    outer loop
      vertex 2.83049 -16.025 1
      vertex 2.73845 -16.6968 0
      vertex 2.73845 -16.6968 1
    endloop
  endfacet
  facet normal -0.980761 0.195212 0
    outer loop
      vertex 2.62012 -17.2913 0
      vertex 2.73845 -16.6968 1
      vertex 2.73845 -16.6968 0
    endloop
  endfacet
  facet normal -0.980761 0.195212 0
    outer loop
      vertex 2.73845 -16.6968 1
      vertex 2.62012 -17.2913 0
      vertex 2.62012 -17.2913 1
    endloop
  endfacet
  facet normal -0.963063 0.269278 0
    outer loop
      vertex 2.47548 -17.8086 0
      vertex 2.62012 -17.2913 1
      vertex 2.62012 -17.2913 0
    endloop
  endfacet
  facet normal -0.963063 0.269278 0
    outer loop
      vertex 2.62012 -17.2913 1
      vertex 2.47548 -17.8086 0
      vertex 2.47548 -17.8086 1
    endloop
  endfacet
  facet normal -0.932106 0.362184 0
    outer loop
      vertex 2.30455 -18.2485 0
      vertex 2.47548 -17.8086 1
      vertex 2.47548 -17.8086 0
    endloop
  endfacet
  facet normal -0.932106 0.362184 0
    outer loop
      vertex 2.47548 -17.8086 1
      vertex 2.30455 -18.2485 0
      vertex 2.30455 -18.2485 1
    endloop
  endfacet
  facet normal -0.879662 0.475599 0
    outer loop
      vertex 2.1031 -18.6211 0
      vertex 2.30455 -18.2485 1
      vertex 2.30455 -18.2485 0
    endloop
  endfacet
  facet normal -0.879662 0.475599 0
    outer loop
      vertex 2.30455 -18.2485 1
      vertex 2.1031 -18.6211 0
      vertex 2.1031 -18.6211 1
    endloop
  endfacet
  facet normal -0.800329 0.599561 0
    outer loop
      vertex 1.86697 -18.9363 0
      vertex 2.1031 -18.6211 1
      vertex 2.1031 -18.6211 0
    endloop
  endfacet
  facet normal -0.800329 0.599561 0
    outer loop
      vertex 2.1031 -18.6211 1
      vertex 1.86697 -18.9363 0
      vertex 1.86697 -18.9363 1
    endloop
  endfacet
  facet normal -0.689595 0.724195 0
    outer loop
      vertex 1.86697 -18.9363 0
      vertex 1.59613 -19.1942 1
      vertex 1.86697 -18.9363 1
    endloop
  endfacet
  facet normal -0.689595 0.724195 0
    outer loop
      vertex 1.59613 -19.1942 1
      vertex 1.86697 -18.9363 0
      vertex 1.59613 -19.1942 0
    endloop
  endfacet
  facet normal -0.548993 0.835827 0
    outer loop
      vertex 1.59613 -19.1942 0
      vertex 1.29057 -19.3949 1
      vertex 1.59613 -19.1942 1
    endloop
  endfacet
  facet normal -0.548993 0.835827 0
    outer loop
      vertex 1.29057 -19.3949 1
      vertex 1.59613 -19.1942 0
      vertex 1.29057 -19.3949 0
    endloop
  endfacet
  facet normal -0.388154 0.921594 0
    outer loop
      vertex 1.29057 -19.3949 0
      vertex 0.950333 -19.5382 1
      vertex 1.29057 -19.3949 1
    endloop
  endfacet
  facet normal -0.388154 0.921594 0
    outer loop
      vertex 0.950333 -19.5382 1
      vertex 1.29057 -19.3949 0
      vertex 0.950333 -19.5382 0
    endloop
  endfacet
  facet normal -0.223309 0.974748 0
    outer loop
      vertex 0.950333 -19.5382 0
      vertex 0.575378 -19.6241 1
      vertex 0.950333 -19.5382 1
    endloop
  endfacet
  facet normal -0.223309 0.974748 0
    outer loop
      vertex 0.575378 -19.6241 1
      vertex 0.950333 -19.5382 0
      vertex 0.575378 -19.6241 0
    endloop
  endfacet
  facet normal -0.0698854 0.997555 0
    outer loop
      vertex 0.575378 -19.6241 0
      vertex 0.16571 -19.6528 1
      vertex 0.575378 -19.6241 1
    endloop
  endfacet
  facet normal -0.0698854 0.997555 0
    outer loop
      vertex 0.16571 -19.6528 1
      vertex 0.575378 -19.6241 0
      vertex 0.16571 -19.6528 0
    endloop
  endfacet
  facet normal 0.0424088 0.9991 -0
    outer loop
      vertex 0.16571 -19.6528 0
      vertex -0.126419 -19.6404 1
      vertex 0.16571 -19.6528 1
    endloop
  endfacet
  facet normal 0.0424088 0.9991 0
    outer loop
      vertex -0.126419 -19.6404 1
      vertex 0.16571 -19.6528 0
      vertex -0.126419 -19.6404 0
    endloop
  endfacet
  facet normal 0 1 -0
    outer loop
      vertex 1.55728 -11.8835 0
      vertex -1.21291 -11.8835 1
      vertex 1.55728 -11.8835 1
    endloop
  endfacet
  facet normal 0 1 0
    outer loop
      vertex -1.21291 -11.8835 1
      vertex 1.55728 -11.8835 0
      vertex -1.21291 -11.8835 0
    endloop
  endfacet
  facet normal -1 0 0
    outer loop
      vertex -1.21291 -15.0917 0
      vertex -1.21291 -11.8835 1
      vertex -1.21291 -11.8835 0
    endloop
  endfacet
  facet normal -1 -0 0
    outer loop
      vertex -1.21291 -11.8835 1
      vertex -1.21291 -15.0917 0
      vertex -1.21291 -15.0917 1
    endloop
  endfacet
  facet normal 0 -1 0
    outer loop
      vertex -1.21291 -15.0917 0
      vertex 1.55728 -15.0917 1
      vertex -1.21291 -15.0917 1
    endloop
  endfacet
  facet normal 0 -1 -0
    outer loop
      vertex 1.55728 -15.0917 1
      vertex -1.21291 -15.0917 0
      vertex 1.55728 -15.0917 0
    endloop
  endfacet
  facet normal 1 -0 0
    outer loop
      vertex 1.55728 -15.0917 1
      vertex 1.55728 -11.8835 0
      vertex 1.55728 -11.8835 1
    endloop
  endfacet
  facet normal 1 0 0
    outer loop
      vertex 1.55728 -11.8835 0
      vertex 1.55728 -15.0917 1
      vertex 1.55728 -15.0917 0
    endloop
  endfacet
endsolid OpenSCAD_Model
