solid OpenSCAD_Model
  facet normal 0 0 -1
    outer loop
      vertex -6.45691 -21.9812 0
      vertex -3.6223 -10.7977 0
      vertex -3.6223 -21.9812 0
    endloop
  endfacet
  facet normal 0 0 -1
    outer loop
      vertex -6.45691 -4.60025 0
      vertex -3.6223 -10.7977 0
      vertex -6.45691 -21.9812 0
    endloop
  endfacet
  facet normal 0 0 -1
    outer loop
      vertex -3.6223 -10.7977 0
      vertex -6.45691 -4.60025 0
      vertex -3.62415 -10.4419 0
    endloop
  endfacet
  facet normal 0 0 -1
    outer loop
      vertex -3.62415 -10.4419 0
      vertex -6.45691 -4.60025 0
      vertex -3.62965 -10.0814 0
    endloop
  endfacet
  facet normal 0 0 -1
    outer loop
      vertex -3.62965 -10.0814 0
      vertex -6.45691 -4.60025 0
      vertex -3.63884 -9.71613 0
    endloop
  endfacet
  facet normal 0 0 -1
    outer loop
      vertex -3.63884 -9.71613 0
      vertex -6.45691 -4.60025 0
      vertex -3.6517 -9.34615 0
    endloop
  endfacet
  facet normal 0 0 -1
    outer loop
      vertex -3.6517 -9.34615 0
      vertex -6.45691 -4.60025 0
      vertex -3.66824 -8.97142 0
    endloop
  endfacet
  facet normal 0 0 -1
    outer loop
      vertex -3.66824 -8.97142 0
      vertex -6.45691 -4.60025 0
      vertex -3.68846 -8.59196 0
    endloop
  endfacet
  facet normal 0 0 -1
    outer loop
      vertex -3.68846 -8.59196 0
      vertex -6.45691 -4.60025 0
      vertex -3.71236 -8.20776 0
    endloop
  endfacet
  facet normal 0 0 -1
    outer loop
      vertex 3.96666 -10.7977 0
      vertex 6.82692 -4.60025 0
      vertex 6.82692 -21.9812 0
    endloop
  endfacet
  facet normal 0 0 -1
    outer loop
      vertex 6.82692 -4.60025 0
      vertex 4.11812 -7.61696 0
      vertex 4.17282 -6.91937 0
    endloop
  endfacet
  facet normal 0 0 -1
    outer loop
      vertex 6.82692 -4.60025 0
      vertex 4.07184 -8.26669 0
      vertex 4.11812 -7.61696 0
    endloop
  endfacet
  facet normal 0 0 -1
    outer loop
      vertex 6.82692 -4.60025 0
      vertex 4.03398 -8.86859 0
      vertex 4.07184 -8.26669 0
    endloop
  endfacet
  facet normal 0 0 -1
    outer loop
      vertex 6.82692 -4.60025 0
      vertex 4.00453 -9.42262 0
      vertex 4.03398 -8.86859 0
    endloop
  endfacet
  facet normal 0 0 -1
    outer loop
      vertex 6.82692 -4.60025 0
      vertex 3.98349 -9.92882 0
      vertex 4.00453 -9.42262 0
    endloop
  endfacet
  facet normal 0 0 -1
    outer loop
      vertex 6.82692 -4.60025 0
      vertex 3.97087 -10.3872 0
      vertex 3.98349 -9.92882 0
    endloop
  endfacet
  facet normal 0 0 -1
    outer loop
      vertex 3.96666 -10.7977 0
      vertex 6.82692 -21.9812 0
      vertex 3.96666 -21.9812 0
    endloop
  endfacet
  facet normal 0 0 -1
    outer loop
      vertex 6.82692 -4.60025 0
      vertex 3.96666 -10.7977 0
      vertex 3.97087 -10.3872 0
    endloop
  endfacet
  facet normal 0 0 -1
    outer loop
      vertex 0.758331 -11.0424 0
      vertex 3.96692 -7.9241 0
      vertex 3.78365 -8.80315 0
    endloop
  endfacet
  facet normal 0 0 -1
    outer loop
      vertex 0.758331 -11.0424 0
      vertex 3.78365 -8.80315 0
      vertex 3.62299 -9.55649 0
    endloop
  endfacet
  facet normal 0 0 -1
    outer loop
      vertex 0.758331 -11.0424 0
      vertex 3.62299 -9.55649 0
      vertex 3.48494 -10.1841 0
    endloop
  endfacet
  facet normal 0 0 -1
    outer loop
      vertex 0.758331 -11.0424 0
      vertex 3.48494 -10.1841 0
      vertex 3.36951 -10.6861 0
    endloop
  endfacet
  facet normal 0 0 -1
    outer loop
      vertex 0.758331 -11.0424 0
      vertex 3.36951 -10.6861 0
      vertex 3.27669 -11.0624 0
    endloop
  endfacet
  facet normal 0 0 -1
    outer loop
      vertex 0.758331 -11.0424 0
      vertex 3.27669 -11.0624 0
      vertex 3.20648 -11.3129 0
    endloop
  endfacet
  facet normal 0 0 -1
    outer loop
      vertex 4.17282 -6.91937 0
      vertex 2.5107 -4.60025 0
      vertex 6.82692 -4.60025 0
    endloop
  endfacet
  facet normal -0 0 -1
    outer loop
      vertex 3.96692 -7.9241 0
      vertex 0.758331 -11.0424 0
      vertex 2.5107 -4.60025 0
    endloop
  endfacet
  facet normal 0 0 -1
    outer loop
      vertex 0.243042 -14.0058 0
      vertex 3.20648 -11.3129 0
      vertex 1.60876 -17.3428 0
    endloop
  endfacet
  facet normal 0 0 -1
    outer loop
      vertex 3.96692 -7.9241 0
      vertex 2.5107 -4.60025 0
      vertex 4.17282 -6.91937 0
    endloop
  endfacet
  facet normal -0 0 -1
    outer loop
      vertex 3.20648 -11.3129 0
      vertex 0.684708 -11.3395 0
      vertex 0.758331 -11.0424 0
    endloop
  endfacet
  facet normal 0 0 -1
    outer loop
      vertex 3.20648 -11.3129 0
      vertex 0.611099 -11.6787 0
      vertex 0.684708 -11.3395 0
    endloop
  endfacet
  facet normal 0 0 -1
    outer loop
      vertex 3.20648 -11.3129 0
      vertex 0.537491 -12.06 0
      vertex 0.611099 -11.6787 0
    endloop
  endfacet
  facet normal 0 0 -1
    outer loop
      vertex 3.20648 -11.3129 0
      vertex 0.463882 -12.4833 0
      vertex 0.537491 -12.06 0
    endloop
  endfacet
  facet normal 0 0 -1
    outer loop
      vertex 3.20648 -11.3129 0
      vertex 0.390274 -12.9487 0
      vertex 0.463882 -12.4833 0
    endloop
  endfacet
  facet normal 0 0 -1
    outer loop
      vertex 3.20648 -11.3129 0
      vertex 0.31665 -13.4562 0
      vertex 0.390274 -12.9487 0
    endloop
  endfacet
  facet normal 0 0 -1
    outer loop
      vertex 3.20648 -11.3129 0
      vertex 0.243042 -14.0058 0
      vertex 0.31665 -13.4562 0
    endloop
  endfacet
  facet normal 0 0 -1
    outer loop
      vertex -2.82335 -11.3129 0
      vertex 0.160461 -13.3645 0
      vertex 0.243042 -14.0058 0
    endloop
  endfacet
  facet normal 0 0 -1
    outer loop
      vertex 0.160461 -13.3645 0
      vertex -2.82335 -11.3129 0
      vertex 0.0820923 -12.7952 0
    endloop
  endfacet
  facet normal 0 0 -1
    outer loop
      vertex 0.0820923 -12.7952 0
      vertex -2.82335 -11.3129 0
      vertex 0.00793457 -12.298 0
    endloop
  endfacet
  facet normal 0 0 -1
    outer loop
      vertex 0.00793457 -12.298 0
      vertex -2.82335 -11.3129 0
      vertex -0.0619965 -11.8728 0
    endloop
  endfacet
  facet normal 0 0 -1
    outer loop
      vertex -0.0619965 -11.8728 0
      vertex -2.82335 -11.3129 0
      vertex -0.127731 -11.5197 0
    endloop
  endfacet
  facet normal 0 0 -1
    outer loop
      vertex -0.127731 -11.5197 0
      vertex -2.82335 -11.3129 0
      vertex -0.189255 -11.2385 0
    endloop
  endfacet
  facet normal 0 0 -1
    outer loop
      vertex -1.2 -17.3428 0
      vertex 0.243042 -14.0058 0
      vertex 1.60876 -17.3428 0
    endloop
  endfacet
  facet normal 0 0 -1
    outer loop
      vertex -2.82335 -11.3129 0
      vertex 0.243042 -14.0058 0
      vertex -1.2 -17.3428 0
    endloop
  endfacet
  facet normal -0 0 -1
    outer loop
      vertex -0.189255 -11.2385 0
      vertex -2.82335 -11.3129 0
      vertex -0.246567 -11.0294 0
    endloop
  endfacet
  facet normal 0 0 -1
    outer loop
      vertex -2.93486 -10.8825 0
      vertex -0.246567 -11.0294 0
      vertex -2.82335 -11.3129 0
    endloop
  endfacet
  facet normal 0 0 -1
    outer loop
      vertex -3.05583 -10.3863 0
      vertex -0.246567 -11.0294 0
      vertex -2.93486 -10.8825 0
    endloop
  endfacet
  facet normal 0 0 -1
    outer loop
      vertex -3.18626 -9.82437 0
      vertex -0.246567 -11.0294 0
      vertex -3.05583 -10.3863 0
    endloop
  endfacet
  facet normal 0 0 -1
    outer loop
      vertex -3.32616 -9.19672 0
      vertex -0.246567 -11.0294 0
      vertex -3.18626 -9.82437 0
    endloop
  endfacet
  facet normal 0 0 -1
    outer loop
      vertex -3.47551 -8.50334 0
      vertex -0.246567 -11.0294 0
      vertex -3.32616 -9.19672 0
    endloop
  endfacet
  facet normal 0 0 -1
    outer loop
      vertex -0.246567 -11.0294 0
      vertex -3.47551 -8.50334 0
      vertex -1.98602 -4.60025 0
    endloop
  endfacet
  facet normal 0 0 -1
    outer loop
      vertex -3.63434 -7.74422 0
      vertex -1.98602 -4.60025 0
      vertex -3.47551 -8.50334 0
    endloop
  endfacet
  facet normal 0 0 -1
    outer loop
      vertex -3.80261 -6.91937 0
      vertex -1.98602 -4.60025 0
      vertex -3.63434 -7.74422 0
    endloop
  endfacet
  facet normal 0 0 -1
    outer loop
      vertex -3.80261 -6.91937 0
      vertex -6.45691 -4.60025 0
      vertex -1.98602 -4.60025 0
    endloop
  endfacet
  facet normal 0 0 -1
    outer loop
      vertex -3.71236 -8.20776 0
      vertex -6.45691 -4.60025 0
      vertex -3.80261 -6.91937 0
    endloop
  endfacet
  facet normal 0 0 1
    outer loop
      vertex 4.11812 -7.61696 1
      vertex 6.82692 -4.60025 1
      vertex 4.17282 -6.91937 1
    endloop
  endfacet
  facet normal 0 0 1
    outer loop
      vertex 2.5107 -4.60025 1
      vertex 3.96692 -7.9241 1
      vertex 4.17282 -6.91937 1
    endloop
  endfacet
  facet normal 0 0 1
    outer loop
      vertex 0.758331 -11.0424 1
      vertex 3.96692 -7.9241 1
      vertex 2.5107 -4.60025 1
    endloop
  endfacet
  facet normal 0 0 1
    outer loop
      vertex 3.78365 -8.80315 1
      vertex 0.758331 -11.0424 1
      vertex 3.62299 -9.55649 1
    endloop
  endfacet
  facet normal 0 0 1
    outer loop
      vertex 3.62299 -9.55649 1
      vertex 0.758331 -11.0424 1
      vertex 3.48494 -10.1841 1
    endloop
  endfacet
  facet normal 0 0 1
    outer loop
      vertex 3.48494 -10.1841 1
      vertex 0.758331 -11.0424 1
      vertex 3.36951 -10.6861 1
    endloop
  endfacet
  facet normal 0 0 1
    outer loop
      vertex 3.36951 -10.6861 1
      vertex 0.758331 -11.0424 1
      vertex 3.27669 -11.0624 1
    endloop
  endfacet
  facet normal -0 0 1
    outer loop
      vertex 2.5107 -4.60025 1
      vertex 4.17282 -6.91937 1
      vertex 6.82692 -4.60025 1
    endloop
  endfacet
  facet normal 0 0 1
    outer loop
      vertex 3.96692 -7.9241 1
      vertex 0.758331 -11.0424 1
      vertex 3.78365 -8.80315 1
    endloop
  endfacet
  facet normal 0 0 1
    outer loop
      vertex 3.27669 -11.0624 1
      vertex 0.758331 -11.0424 1
      vertex 3.20648 -11.3129 1
    endloop
  endfacet
  facet normal 0 0 1
    outer loop
      vertex 0.684708 -11.3395 1
      vertex 3.20648 -11.3129 1
      vertex 0.758331 -11.0424 1
    endloop
  endfacet
  facet normal 0 0 1
    outer loop
      vertex 0.611099 -11.6787 1
      vertex 3.20648 -11.3129 1
      vertex 0.684708 -11.3395 1
    endloop
  endfacet
  facet normal 0 0 1
    outer loop
      vertex 0.537491 -12.06 1
      vertex 3.20648 -11.3129 1
      vertex 0.611099 -11.6787 1
    endloop
  endfacet
  facet normal 0 0 1
    outer loop
      vertex 0.463882 -12.4833 1
      vertex 3.20648 -11.3129 1
      vertex 0.537491 -12.06 1
    endloop
  endfacet
  facet normal 0 0 1
    outer loop
      vertex 0.390274 -12.9487 1
      vertex 3.20648 -11.3129 1
      vertex 0.463882 -12.4833 1
    endloop
  endfacet
  facet normal 0 0 1
    outer loop
      vertex 0.31665 -13.4562 1
      vertex 3.20648 -11.3129 1
      vertex 0.390274 -12.9487 1
    endloop
  endfacet
  facet normal 0 0 1
    outer loop
      vertex 0.243042 -14.0058 1
      vertex 3.20648 -11.3129 1
      vertex 0.31665 -13.4562 1
    endloop
  endfacet
  facet normal 0 0 1
    outer loop
      vertex 3.20648 -11.3129 1
      vertex 0.243042 -14.0058 1
      vertex 1.60876 -17.3428 1
    endloop
  endfacet
  facet normal 0 0 1
    outer loop
      vertex -2.82335 -11.3129 1
      vertex 0.160461 -13.3645 1
      vertex 0.0820923 -12.7952 1
    endloop
  endfacet
  facet normal 0 0 1
    outer loop
      vertex -2.82335 -11.3129 1
      vertex 0.0820923 -12.7952 1
      vertex 0.00793457 -12.298 1
    endloop
  endfacet
  facet normal 0 0 1
    outer loop
      vertex -2.82335 -11.3129 1
      vertex 0.00793457 -12.298 1
      vertex -0.0619965 -11.8728 1
    endloop
  endfacet
  facet normal 0 0 1
    outer loop
      vertex -2.82335 -11.3129 1
      vertex -0.0619965 -11.8728 1
      vertex -0.127731 -11.5197 1
    endloop
  endfacet
  facet normal -0 0 1
    outer loop
      vertex -2.82335 -11.3129 1
      vertex -0.127731 -11.5197 1
      vertex -0.189255 -11.2385 1
    endloop
  endfacet
  facet normal 0 0 1
    outer loop
      vertex -2.82335 -11.3129 1
      vertex -0.189255 -11.2385 1
      vertex -0.246567 -11.0294 1
    endloop
  endfacet
  facet normal 0 0 1
    outer loop
      vertex 0.243042 -14.0058 1
      vertex -1.2 -17.3428 1
      vertex 1.60876 -17.3428 1
    endloop
  endfacet
  facet normal 0 0 1
    outer loop
      vertex 0.160461 -13.3645 1
      vertex -2.82335 -11.3129 1
      vertex 0.243042 -14.0058 1
    endloop
  endfacet
  facet normal -0 0 1
    outer loop
      vertex -3.47551 -8.50334 1
      vertex -0.246567 -11.0294 1
      vertex -1.98602 -4.60025 1
    endloop
  endfacet
  facet normal 0 0 1
    outer loop
      vertex 0.243042 -14.0058 1
      vertex -2.82335 -11.3129 1
      vertex -1.2 -17.3428 1
    endloop
  endfacet
  facet normal 0 0 1
    outer loop
      vertex -0.246567 -11.0294 1
      vertex -2.93486 -10.8825 1
      vertex -2.82335 -11.3129 1
    endloop
  endfacet
  facet normal 0 0 1
    outer loop
      vertex -0.246567 -11.0294 1
      vertex -3.05583 -10.3863 1
      vertex -2.93486 -10.8825 1
    endloop
  endfacet
  facet normal 0 0 1
    outer loop
      vertex -0.246567 -11.0294 1
      vertex -3.18626 -9.82437 1
      vertex -3.05583 -10.3863 1
    endloop
  endfacet
  facet normal 0 0 1
    outer loop
      vertex -0.246567 -11.0294 1
      vertex -3.32616 -9.19672 1
      vertex -3.18626 -9.82437 1
    endloop
  endfacet
  facet normal 0 0 1
    outer loop
      vertex -0.246567 -11.0294 1
      vertex -3.47551 -8.50334 1
      vertex -3.32616 -9.19672 1
    endloop
  endfacet
  facet normal 0 0 1
    outer loop
      vertex -1.98602 -4.60025 1
      vertex -3.63434 -7.74422 1
      vertex -3.47551 -8.50334 1
    endloop
  endfacet
  facet normal 0 0 1
    outer loop
      vertex -1.98602 -4.60025 1
      vertex -3.80261 -6.91937 1
      vertex -3.63434 -7.74422 1
    endloop
  endfacet
  facet normal 0 -0 1
    outer loop
      vertex -3.80261 -6.91937 1
      vertex -1.98602 -4.60025 1
      vertex -6.45691 -4.60025 1
    endloop
  endfacet
  facet normal 0 0 1
    outer loop
      vertex 4.07184 -8.26669 1
      vertex 6.82692 -4.60025 1
      vertex 4.11812 -7.61696 1
    endloop
  endfacet
  facet normal 0 0 1
    outer loop
      vertex 4.03398 -8.86859 1
      vertex 6.82692 -4.60025 1
      vertex 4.07184 -8.26669 1
    endloop
  endfacet
  facet normal 0 0 1
    outer loop
      vertex 4.00453 -9.42262 1
      vertex 6.82692 -4.60025 1
      vertex 4.03398 -8.86859 1
    endloop
  endfacet
  facet normal 0 0 1
    outer loop
      vertex 3.98349 -9.92882 1
      vertex 6.82692 -4.60025 1
      vertex 4.00453 -9.42262 1
    endloop
  endfacet
  facet normal 0 0 1
    outer loop
      vertex 3.97087 -10.3872 1
      vertex 6.82692 -4.60025 1
      vertex 3.98349 -9.92882 1
    endloop
  endfacet
  facet normal 0 0 1
    outer loop
      vertex 3.96666 -10.7977 1
      vertex 6.82692 -4.60025 1
      vertex 3.97087 -10.3872 1
    endloop
  endfacet
  facet normal 0 0 1
    outer loop
      vertex 6.82692 -4.60025 1
      vertex 3.96666 -10.7977 1
      vertex 6.82692 -21.9812 1
    endloop
  endfacet
  facet normal 0 0 1
    outer loop
      vertex 6.82692 -21.9812 1
      vertex 3.96666 -10.7977 1
      vertex 3.96666 -21.9812 1
    endloop
  endfacet
  facet normal 0 0 1
    outer loop
      vertex -6.45691 -4.60025 1
      vertex -3.6223 -10.7977 1
      vertex -3.62415 -10.4419 1
    endloop
  endfacet
  facet normal 0 0 1
    outer loop
      vertex -6.45691 -4.60025 1
      vertex -3.62415 -10.4419 1
      vertex -3.62965 -10.0814 1
    endloop
  endfacet
  facet normal 0 0 1
    outer loop
      vertex -6.45691 -4.60025 1
      vertex -3.62965 -10.0814 1
      vertex -3.63884 -9.71613 1
    endloop
  endfacet
  facet normal 0 0 1
    outer loop
      vertex -6.45691 -4.60025 1
      vertex -3.63884 -9.71613 1
      vertex -3.6517 -9.34615 1
    endloop
  endfacet
  facet normal 0 0 1
    outer loop
      vertex -6.45691 -4.60025 1
      vertex -3.6517 -9.34615 1
      vertex -3.66824 -8.97142 1
    endloop
  endfacet
  facet normal 0 0 1
    outer loop
      vertex -6.45691 -4.60025 1
      vertex -3.66824 -8.97142 1
      vertex -3.68846 -8.59196 1
    endloop
  endfacet
  facet normal 0 0 1
    outer loop
      vertex -6.45691 -4.60025 1
      vertex -3.68846 -8.59196 1
      vertex -3.71236 -8.20776 1
    endloop
  endfacet
  facet normal 0 0 1
    outer loop
      vertex -6.45691 -4.60025 1
      vertex -3.71236 -8.20776 1
      vertex -3.80261 -6.91937 1
    endloop
  endfacet
  facet normal 0 0 1
    outer loop
      vertex -3.6223 -10.7977 1
      vertex -6.45691 -4.60025 1
      vertex -6.45691 -21.9812 1
    endloop
  endfacet
  facet normal 0 0 1
    outer loop
      vertex -3.6223 -10.7977 1
      vertex -6.45691 -21.9812 1
      vertex -3.6223 -21.9812 1
    endloop
  endfacet
  facet normal 0.999986 0.00519948 0
    outer loop
      vertex -3.6223 -10.7977 1
      vertex -3.62415 -10.4419 0
      vertex -3.62415 -10.4419 1
    endloop
  endfacet
  facet normal 0.999986 0.00519948 0
    outer loop
      vertex -3.62415 -10.4419 0
      vertex -3.6223 -10.7977 1
      vertex -3.6223 -10.7977 0
    endloop
  endfacet
  facet normal 0.999884 0.0152548 0
    outer loop
      vertex -3.62415 -10.4419 1
      vertex -3.62965 -10.0814 0
      vertex -3.62965 -10.0814 1
    endloop
  endfacet
  facet normal 0.999884 0.0152548 0
    outer loop
      vertex -3.62965 -10.0814 0
      vertex -3.62415 -10.4419 1
      vertex -3.62415 -10.4419 0
    endloop
  endfacet
  facet normal 0.999684 0.0251515 0
    outer loop
      vertex -3.62965 -10.0814 1
      vertex -3.63884 -9.71613 0
      vertex -3.63884 -9.71613 1
    endloop
  endfacet
  facet normal 0.999684 0.0251515 0
    outer loop
      vertex -3.63884 -9.71613 0
      vertex -3.62965 -10.0814 1
      vertex -3.62965 -10.0814 0
    endloop
  endfacet
  facet normal 0.999396 0.0347377 0
    outer loop
      vertex -3.63884 -9.71613 1
      vertex -3.6517 -9.34615 0
      vertex -3.6517 -9.34615 1
    endloop
  endfacet
  facet normal 0.999396 0.0347377 0
    outer loop
      vertex -3.6517 -9.34615 0
      vertex -3.63884 -9.71613 1
      vertex -3.63884 -9.71613 0
    endloop
  endfacet
  facet normal 0.999027 0.0440955 0
    outer loop
      vertex -3.6517 -9.34615 1
      vertex -3.66824 -8.97142 0
      vertex -3.66824 -8.97142 1
    endloop
  endfacet
  facet normal 0.999027 0.0440955 0
    outer loop
      vertex -3.66824 -8.97142 0
      vertex -3.6517 -9.34615 1
      vertex -3.6517 -9.34615 0
    endloop
  endfacet
  facet normal 0.998583 0.0532108 0
    outer loop
      vertex -3.66824 -8.97142 1
      vertex -3.68846 -8.59196 0
      vertex -3.68846 -8.59196 1
    endloop
  endfacet
  facet normal 0.998583 0.0532108 0
    outer loop
      vertex -3.68846 -8.59196 0
      vertex -3.66824 -8.97142 1
      vertex -3.66824 -8.97142 0
    endloop
  endfacet
  facet normal 0.998071 0.0620872 0
    outer loop
      vertex -3.68846 -8.59196 1
      vertex -3.71236 -8.20776 0
      vertex -3.71236 -8.20776 1
    endloop
  endfacet
  facet normal 0.998071 0.0620872 0
    outer loop
      vertex -3.71236 -8.20776 0
      vertex -3.68846 -8.59196 1
      vertex -3.68846 -8.59196 0
    endloop
  endfacet
  facet normal 0.997556 0.0698774 0
    outer loop
      vertex -3.71236 -8.20776 1
      vertex -3.80261 -6.91937 0
      vertex -3.80261 -6.91937 1
    endloop
  endfacet
  facet normal 0.997556 0.0698774 0
    outer loop
      vertex -3.80261 -6.91937 0
      vertex -3.71236 -8.20776 1
      vertex -3.71236 -8.20776 0
    endloop
  endfacet
  facet normal -0.97982 -0.199884 0
    outer loop
      vertex -3.63434 -7.74422 0
      vertex -3.80261 -6.91937 1
      vertex -3.80261 -6.91937 0
    endloop
  endfacet
  facet normal -0.97982 -0.199884 0
    outer loop
      vertex -3.80261 -6.91937 1
      vertex -3.63434 -7.74422 0
      vertex -3.63434 -7.74422 1
    endloop
  endfacet
  facet normal -0.978805 -0.204794 0
    outer loop
      vertex -3.47551 -8.50334 0
      vertex -3.63434 -7.74422 1
      vertex -3.63434 -7.74422 0
    endloop
  endfacet
  facet normal -0.978805 -0.204794 0
    outer loop
      vertex -3.63434 -7.74422 1
      vertex -3.47551 -8.50334 0
      vertex -3.47551 -8.50334 1
    endloop
  endfacet
  facet normal -0.97758 -0.210565 0
    outer loop
      vertex -3.32616 -9.19672 0
      vertex -3.47551 -8.50334 1
      vertex -3.47551 -8.50334 0
    endloop
  endfacet
  facet normal -0.97758 -0.210565 0
    outer loop
      vertex -3.47551 -8.50334 1
      vertex -3.32616 -9.19672 0
      vertex -3.32616 -9.19672 1
    endloop
  endfacet
  facet normal -0.976048 -0.217556 0
    outer loop
      vertex -3.18626 -9.82437 0
      vertex -3.32616 -9.19672 1
      vertex -3.32616 -9.19672 0
    endloop
  endfacet
  facet normal -0.976048 -0.217556 0
    outer loop
      vertex -3.32616 -9.19672 1
      vertex -3.18626 -9.82437 0
      vertex -3.18626 -9.82437 1
    endloop
  endfacet
  facet normal -0.974104 -0.2261 0
    outer loop
      vertex -3.05583 -10.3863 0
      vertex -3.18626 -9.82437 1
      vertex -3.18626 -9.82437 0
    endloop
  endfacet
  facet normal -0.974104 -0.2261 0
    outer loop
      vertex -3.18626 -9.82437 1
      vertex -3.05583 -10.3863 0
      vertex -3.05583 -10.3863 1
    endloop
  endfacet
  facet normal -0.971545 -0.236856 0
    outer loop
      vertex -2.93486 -10.8825 0
      vertex -3.05583 -10.3863 1
      vertex -3.05583 -10.3863 0
    endloop
  endfacet
  facet normal -0.971545 -0.236856 0
    outer loop
      vertex -3.05583 -10.3863 1
      vertex -2.93486 -10.8825 0
      vertex -2.93486 -10.8825 1
    endloop
  endfacet
  facet normal -0.968038 -0.250804 0
    outer loop
      vertex -2.82335 -11.3129 0
      vertex -2.93486 -10.8825 1
      vertex -2.93486 -10.8825 0
    endloop
  endfacet
  facet normal -0.968038 -0.250804 0
    outer loop
      vertex -2.93486 -10.8825 1
      vertex -2.82335 -11.3129 0
      vertex -2.82335 -11.3129 1
    endloop
  endfacet
  facet normal -0.965619 -0.259961 0
    outer loop
      vertex -1.2 -17.3428 0
      vertex -2.82335 -11.3129 1
      vertex -2.82335 -11.3129 0
    endloop
  endfacet
  facet normal -0.965619 -0.259961 0
    outer loop
      vertex -2.82335 -11.3129 1
      vertex -1.2 -17.3428 0
      vertex -1.2 -17.3428 1
    endloop
  endfacet
  facet normal 0 -1 0
    outer loop
      vertex -1.2 -17.3428 0
      vertex 1.60876 -17.3428 1
      vertex -1.2 -17.3428 1
    endloop
  endfacet
  facet normal 0 -1 -0
    outer loop
      vertex 1.60876 -17.3428 1
      vertex -1.2 -17.3428 0
      vertex 1.60876 -17.3428 0
    endloop
  endfacet
  facet normal 0.966643 -0.256128 0
    outer loop
      vertex 1.60876 -17.3428 1
      vertex 3.20648 -11.3129 0
      vertex 3.20648 -11.3129 1
    endloop
  endfacet
  facet normal 0.966643 -0.256128 0
    outer loop
      vertex 3.20648 -11.3129 0
      vertex 1.60876 -17.3428 1
      vertex 1.60876 -17.3428 0
    endloop
  endfacet
  facet normal 0.962894 -0.269879 0
    outer loop
      vertex 3.20648 -11.3129 1
      vertex 3.27669 -11.0624 0
      vertex 3.27669 -11.0624 1
    endloop
  endfacet
  facet normal 0.962894 -0.269879 0
    outer loop
      vertex 3.27669 -11.0624 0
      vertex 3.20648 -11.3129 1
      vertex 3.20648 -11.3129 0
    endloop
  endfacet
  facet normal 0.9709 -0.239487 0
    outer loop
      vertex 3.27669 -11.0624 1
      vertex 3.36951 -10.6861 0
      vertex 3.36951 -10.6861 1
    endloop
  endfacet
  facet normal 0.9709 -0.239487 0
    outer loop
      vertex 3.36951 -10.6861 0
      vertex 3.27669 -11.0624 1
      vertex 3.27669 -11.0624 0
    endloop
  endfacet
  facet normal 0.974568 -0.224092 0
    outer loop
      vertex 3.36951 -10.6861 1
      vertex 3.48494 -10.1841 0
      vertex 3.48494 -10.1841 1
    endloop
  endfacet
  facet normal 0.974568 -0.224092 0
    outer loop
      vertex 3.48494 -10.1841 0
      vertex 3.36951 -10.6861 1
      vertex 3.36951 -10.6861 0
    endloop
  endfacet
  facet normal 0.976652 -0.214826 0
    outer loop
      vertex 3.48494 -10.1841 1
      vertex 3.62299 -9.55649 0
      vertex 3.62299 -9.55649 1
    endloop
  endfacet
  facet normal 0.976652 -0.214826 0
    outer loop
      vertex 3.62299 -9.55649 0
      vertex 3.48494 -10.1841 1
      vertex 3.48494 -10.1841 0
    endloop
  endfacet
  facet normal 0.978007 -0.208573 0
    outer loop
      vertex 3.62299 -9.55649 1
      vertex 3.78365 -8.80315 0
      vertex 3.78365 -8.80315 1
    endloop
  endfacet
  facet normal 0.978007 -0.208573 0
    outer loop
      vertex 3.78365 -8.80315 0
      vertex 3.62299 -9.55649 1
      vertex 3.62299 -9.55649 0
    endloop
  endfacet
  facet normal 0.97895 -0.204098 0
    outer loop
      vertex 3.78365 -8.80315 1
      vertex 3.96692 -7.9241 0
      vertex 3.96692 -7.9241 1
    endloop
  endfacet
  facet normal 0.97895 -0.204098 0
    outer loop
      vertex 3.96692 -7.9241 0
      vertex 3.78365 -8.80315 1
      vertex 3.78365 -8.80315 0
    endloop
  endfacet
  facet normal 0.979641 -0.200758 0
    outer loop
      vertex 3.96692 -7.9241 1
      vertex 4.17282 -6.91937 0
      vertex 4.17282 -6.91937 1
    endloop
  endfacet
  facet normal 0.979641 -0.200758 0
    outer loop
      vertex 4.17282 -6.91937 0
      vertex 3.96692 -7.9241 1
      vertex 3.96692 -7.9241 0
    endloop
  endfacet
  facet normal -0.99694 0.0781729 0
    outer loop
      vertex 4.11812 -7.61696 0
      vertex 4.17282 -6.91937 1
      vertex 4.17282 -6.91937 0
    endloop
  endfacet
  facet normal -0.99694 0.0781729 0
    outer loop
      vertex 4.17282 -6.91937 1
      vertex 4.11812 -7.61696 0
      vertex 4.11812 -7.61696 1
    endloop
  endfacet
  facet normal -0.997473 0.0710496 0
    outer loop
      vertex 4.07184 -8.26669 0
      vertex 4.11812 -7.61696 1
      vertex 4.11812 -7.61696 0
    endloop
  endfacet
  facet normal -0.997473 0.0710496 0
    outer loop
      vertex 4.11812 -7.61696 1
      vertex 4.07184 -8.26669 0
      vertex 4.07184 -8.26669 1
    endloop
  endfacet
  facet normal -0.998028 0.0627767 0
    outer loop
      vertex 4.03398 -8.86859 0
      vertex 4.07184 -8.26669 1
      vertex 4.07184 -8.26669 0
    endloop
  endfacet
  facet normal -0.998028 0.0627767 0
    outer loop
      vertex 4.07184 -8.26669 1
      vertex 4.03398 -8.86859 0
      vertex 4.03398 -8.86859 1
    endloop
  endfacet
  facet normal -0.99859 0.053081 0
    outer loop
      vertex 4.00453 -9.42262 0
      vertex 4.03398 -8.86859 1
      vertex 4.03398 -8.86859 0
    endloop
  endfacet
  facet normal -0.99859 0.053081 0
    outer loop
      vertex 4.03398 -8.86859 1
      vertex 4.00453 -9.42262 0
      vertex 4.00453 -9.42262 1
    endloop
  endfacet
  facet normal -0.999137 0.0415287 0
    outer loop
      vertex 3.98349 -9.92882 0
      vertex 4.00453 -9.42262 1
      vertex 4.00453 -9.42262 0
    endloop
  endfacet
  facet normal -0.999137 0.0415287 0
    outer loop
      vertex 4.00453 -9.42262 1
      vertex 3.98349 -9.92882 0
      vertex 3.98349 -9.92882 1
    endloop
  endfacet
  facet normal -0.999621 0.0275213 0
    outer loop
      vertex 3.97087 -10.3872 0
      vertex 3.98349 -9.92882 1
      vertex 3.98349 -9.92882 0
    endloop
  endfacet
  facet normal -0.999621 0.0275213 0
    outer loop
      vertex 3.98349 -9.92882 1
      vertex 3.97087 -10.3872 0
      vertex 3.97087 -10.3872 1
    endloop
  endfacet
  facet normal -0.999947 0.0102552 0
    outer loop
      vertex 3.96666 -10.7977 0
      vertex 3.97087 -10.3872 1
      vertex 3.97087 -10.3872 0
    endloop
  endfacet
  facet normal -0.999947 0.0102552 0
    outer loop
      vertex 3.97087 -10.3872 1
      vertex 3.96666 -10.7977 0
      vertex 3.96666 -10.7977 1
    endloop
  endfacet
  facet normal -1 0 0
    outer loop
      vertex 3.96666 -21.9812 0
      vertex 3.96666 -10.7977 1
      vertex 3.96666 -10.7977 0
    endloop
  endfacet
  facet normal -1 -0 0
    outer loop
      vertex 3.96666 -10.7977 1
      vertex 3.96666 -21.9812 0
      vertex 3.96666 -21.9812 1
    endloop
  endfacet
  facet normal 0 -1 0
    outer loop
      vertex 3.96666 -21.9812 0
      vertex 6.82692 -21.9812 1
      vertex 3.96666 -21.9812 1
    endloop
  endfacet
  facet normal 0 -1 -0
    outer loop
      vertex 6.82692 -21.9812 1
      vertex 3.96666 -21.9812 0
      vertex 6.82692 -21.9812 0
    endloop
  endfacet
  facet normal 1 -0 0
    outer loop
      vertex 6.82692 -21.9812 1
      vertex 6.82692 -4.60025 0
      vertex 6.82692 -4.60025 1
    endloop
  endfacet
  facet normal 1 0 0
    outer loop
      vertex 6.82692 -4.60025 0
      vertex 6.82692 -21.9812 1
      vertex 6.82692 -21.9812 0
    endloop
  endfacet
  facet normal 0 1 -0
    outer loop
      vertex 6.82692 -4.60025 0
      vertex 2.5107 -4.60025 1
      vertex 6.82692 -4.60025 1
    endloop
  endfacet
  facet normal 0 1 0
    outer loop
      vertex 2.5107 -4.60025 1
      vertex 6.82692 -4.60025 0
      vertex 2.5107 -4.60025 0
    endloop
  endfacet
  facet normal -0.964938 0.262479 0
    outer loop
      vertex 0.758331 -11.0424 0
      vertex 2.5107 -4.60025 1
      vertex 2.5107 -4.60025 0
    endloop
  endfacet
  facet normal -0.964938 0.262479 0
    outer loop
      vertex 2.5107 -4.60025 1
      vertex 0.758331 -11.0424 0
      vertex 0.758331 -11.0424 1
    endloop
  endfacet
  facet normal -0.970642 0.24053 0
    outer loop
      vertex 0.684708 -11.3395 0
      vertex 0.758331 -11.0424 1
      vertex 0.758331 -11.0424 0
    endloop
  endfacet
  facet normal -0.970642 0.24053 0
    outer loop
      vertex 0.758331 -11.0424 1
      vertex 0.684708 -11.3395 0
      vertex 0.684708 -11.3395 1
    endloop
  endfacet
  facet normal -0.977254 0.212072 0
    outer loop
      vertex 0.611099 -11.6787 0
      vertex 0.684708 -11.3395 1
      vertex 0.684708 -11.3395 0
    endloop
  endfacet
  facet normal -0.977254 0.212072 0
    outer loop
      vertex 0.684708 -11.3395 1
      vertex 0.611099 -11.6787 0
      vertex 0.611099 -11.6787 1
    endloop
  endfacet
  facet normal -0.981872 0.189545 0
    outer loop
      vertex 0.537491 -12.06 0
      vertex 0.611099 -11.6787 1
      vertex 0.611099 -11.6787 0
    endloop
  endfacet
  facet normal -0.981872 0.189545 0
    outer loop
      vertex 0.611099 -11.6787 1
      vertex 0.537491 -12.06 0
      vertex 0.537491 -12.06 1
    endloop
  endfacet
  facet normal -0.985215 0.171322 0
    outer loop
      vertex 0.463882 -12.4833 0
      vertex 0.537491 -12.06 1
      vertex 0.537491 -12.06 0
    endloop
  endfacet
  facet normal -0.985215 0.171322 0
    outer loop
      vertex 0.537491 -12.06 1
      vertex 0.463882 -12.4833 0
      vertex 0.463882 -12.4833 1
    endloop
  endfacet
  facet normal -0.987722 0.156219 0
    outer loop
      vertex 0.390274 -12.9487 0
      vertex 0.463882 -12.4833 1
      vertex 0.463882 -12.4833 0
    endloop
  endfacet
  facet normal -0.987722 0.156219 0
    outer loop
      vertex 0.463882 -12.4833 1
      vertex 0.390274 -12.9487 0
      vertex 0.390274 -12.9487 1
    endloop
  endfacet
  facet normal -0.98964 0.143569 0
    outer loop
      vertex 0.31665 -13.4562 0
      vertex 0.390274 -12.9487 1
      vertex 0.390274 -12.9487 0
    endloop
  endfacet
  facet normal -0.98964 0.143569 0
    outer loop
      vertex 0.390274 -12.9487 1
      vertex 0.31665 -13.4562 0
      vertex 0.31665 -13.4562 1
    endloop
  endfacet
  facet normal -0.99115 0.132745 0
    outer loop
      vertex 0.243042 -14.0058 0
      vertex 0.31665 -13.4562 1
      vertex 0.31665 -13.4562 0
    endloop
  endfacet
  facet normal -0.99115 0.132745 0
    outer loop
      vertex 0.31665 -13.4562 1
      vertex 0.243042 -14.0058 0
      vertex 0.243042 -14.0058 1
    endloop
  endfacet
  facet normal 0.991811 0.127717 0
    outer loop
      vertex 0.243042 -14.0058 1
      vertex 0.160461 -13.3645 0
      vertex 0.160461 -13.3645 1
    endloop
  endfacet
  facet normal 0.991811 0.127717 0
    outer loop
      vertex 0.160461 -13.3645 0
      vertex 0.243042 -14.0058 1
      vertex 0.243042 -14.0058 0
    endloop
  endfacet
  facet normal 0.990658 0.136372 0
    outer loop
      vertex 0.160461 -13.3645 1
      vertex 0.0820923 -12.7952 0
      vertex 0.0820923 -12.7952 1
    endloop
  endfacet
  facet normal 0.990658 0.136372 0
    outer loop
      vertex 0.0820923 -12.7952 0
      vertex 0.160461 -13.3645 1
      vertex 0.160461 -13.3645 0
    endloop
  endfacet
  facet normal 0.989059 0.147519 0
    outer loop
      vertex 0.0820923 -12.7952 1
      vertex 0.00793457 -12.298 0
      vertex 0.00793457 -12.298 1
    endloop
  endfacet
  facet normal 0.989059 0.147519 0
    outer loop
      vertex 0.00793457 -12.298 0
      vertex 0.0820923 -12.7952 1
      vertex 0.0820923 -12.7952 0
    endloop
  endfacet
  facet normal 0.986744 0.162286 0
    outer loop
      vertex 0.00793457 -12.298 1
      vertex -0.0619965 -11.8728 0
      vertex -0.0619965 -11.8728 1
    endloop
  endfacet
  facet normal 0.986744 0.162286 0
    outer loop
      vertex -0.0619965 -11.8728 0
      vertex 0.00793457 -12.298 1
      vertex 0.00793457 -12.298 0
    endloop
  endfacet
  facet normal 0.983109 0.18302 0
    outer loop
      vertex -0.0619965 -11.8728 1
      vertex -0.127731 -11.5197 0
      vertex -0.127731 -11.5197 1
    endloop
  endfacet
  facet normal 0.983109 0.18302 0
    outer loop
      vertex -0.127731 -11.5197 0
      vertex -0.0619965 -11.8728 1
      vertex -0.0619965 -11.8728 0
    endloop
  endfacet
  facet normal 0.976892 0.213735 0
    outer loop
      vertex -0.127731 -11.5197 1
      vertex -0.189255 -11.2385 0
      vertex -0.189255 -11.2385 1
    endloop
  endfacet
  facet normal 0.976892 0.213735 0
    outer loop
      vertex -0.189255 -11.2385 0
      vertex -0.127731 -11.5197 1
      vertex -0.127731 -11.5197 0
    endloop
  endfacet
  facet normal 0.96443 0.26434 0
    outer loop
      vertex -0.189255 -11.2385 1
      vertex -0.246567 -11.0294 0
      vertex -0.246567 -11.0294 1
    endloop
  endfacet
  facet normal 0.96443 0.26434 0
    outer loop
      vertex -0.246567 -11.0294 0
      vertex -0.189255 -11.2385 1
      vertex -0.189255 -11.2385 0
    endloop
  endfacet
  facet normal 0.965294 0.261167 0
    outer loop
      vertex -0.246567 -11.0294 1
      vertex -1.98602 -4.60025 0
      vertex -1.98602 -4.60025 1
    endloop
  endfacet
  facet normal 0.965294 0.261167 0
    outer loop
      vertex -1.98602 -4.60025 0
      vertex -0.246567 -11.0294 1
      vertex -0.246567 -11.0294 0
    endloop
  endfacet
  facet normal 0 1 -0
    outer loop
      vertex -1.98602 -4.60025 0
      vertex -6.45691 -4.60025 1
      vertex -1.98602 -4.60025 1
    endloop
  endfacet
  facet normal 0 1 0
    outer loop
      vertex -6.45691 -4.60025 1
      vertex -1.98602 -4.60025 0
      vertex -6.45691 -4.60025 0
    endloop
  endfacet
  facet normal -1 0 0
    outer loop
      vertex -6.45691 -21.9812 0
      vertex -6.45691 -4.60025 1
      vertex -6.45691 -4.60025 0
    endloop
  endfacet
  facet normal -1 -0 0
    outer loop
      vertex -6.45691 -4.60025 1
      vertex -6.45691 -21.9812 0
      vertex -6.45691 -21.9812 1
    endloop
  endfacet
  facet normal 0 -1 0
    outer loop
      vertex -6.45691 -21.9812 0
      vertex -3.6223 -21.9812 1
      vertex -6.45691 -21.9812 1
    endloop
  endfacet
  facet normal 0 -1 -0
    outer loop
      vertex -3.6223 -21.9812 1
      vertex -6.45691 -21.9812 0
      vertex -3.6223 -21.9812 0
    endloop
  endfacet
  facet normal 1 -0 0
    outer loop
      vertex -3.6223 -21.9812 1
      vertex -3.6223 -10.7977 0
      vertex -3.6223 -10.7977 1
    endloop
  endfacet
  facet normal 1 0 0
    outer loop
      vertex -3.6223 -10.7977 0
      vertex -3.6223 -21.9812 1
      vertex -3.6223 -21.9812 0
    endloop
  endfacet
endsolid OpenSCAD_Model
