solid OpenSCAD_Model
  facet normal 0 0 -1
    outer loop
      vertex -32.2846 -84.9062 0
      vertex -18.1115 -28.9883 0
      vertex -18.1115 -84.9062 0
    endloop
  endfacet
  facet normal 0 0 -1
    outer loop
      vertex -32.2846 1.99879 0
      vertex -18.1115 -28.9883 0
      vertex -32.2846 -84.9062 0
    endloop
  endfacet
  facet normal 0 0 -1
    outer loop
      vertex -18.1115 -28.9883 0
      vertex -32.2846 1.99879 0
      vertex -18.1207 -27.2094 0
    endloop
  endfacet
  facet normal 0 0 -1
    outer loop
      vertex -18.1207 -27.2094 0
      vertex -32.2846 1.99879 0
      vertex -18.1483 -25.4069 0
    endloop
  endfacet
  facet normal 0 0 -1
    outer loop
      vertex -18.1483 -25.4069 0
      vertex -32.2846 1.99879 0
      vertex -18.1942 -23.5807 0
    endloop
  endfacet
  facet normal 0 0 -1
    outer loop
      vertex -18.1942 -23.5807 0
      vertex -32.2846 1.99879 0
      vertex -18.2586 -21.7308 0
    endloop
  endfacet
  facet normal 0 0 -1
    outer loop
      vertex -18.2586 -21.7308 0
      vertex -32.2846 1.99879 0
      vertex -18.3413 -19.8571 0
    endloop
  endfacet
  facet normal 0 0 -1
    outer loop
      vertex -18.3413 -19.8571 0
      vertex -32.2846 1.99879 0
      vertex -18.4424 -17.9598 0
    endloop
  endfacet
  facet normal 0 0 -1
    outer loop
      vertex -18.4424 -17.9598 0
      vertex -32.2846 1.99879 0
      vertex -18.5618 -16.0388 0
    endloop
  endfacet
  facet normal 0 0 -1
    outer loop
      vertex 19.8334 -28.9883 0
      vertex 34.1347 1.99879 0
      vertex 34.1347 -84.9062 0
    endloop
  endfacet
  facet normal 0 0 -1
    outer loop
      vertex 34.1347 1.99879 0
      vertex 20.5906 -13.0848 0
      vertex 20.8641 -9.59689 0
    endloop
  endfacet
  facet normal 0 0 -1
    outer loop
      vertex 34.1347 1.99879 0
      vertex 20.3593 -16.3335 0
      vertex 20.5906 -13.0848 0
    endloop
  endfacet
  facet normal 0 0 -1
    outer loop
      vertex 34.1347 1.99879 0
      vertex 20.1699 -19.343 0
      vertex 20.3593 -16.3335 0
    endloop
  endfacet
  facet normal 0 0 -1
    outer loop
      vertex 34.1347 1.99879 0
      vertex 20.0227 -22.1132 0
      vertex 20.1699 -19.343 0
    endloop
  endfacet
  facet normal 0 0 -1
    outer loop
      vertex 34.1347 1.99879 0
      vertex 19.9175 -24.6441 0
      vertex 20.0227 -22.1132 0
    endloop
  endfacet
  facet normal 0 0 -1
    outer loop
      vertex 34.1347 1.99879 0
      vertex 19.8544 -26.9358 0
      vertex 19.9175 -24.6441 0
    endloop
  endfacet
  facet normal 0 0 -1
    outer loop
      vertex 19.8334 -28.9883 0
      vertex 34.1347 -84.9062 0
      vertex 19.8334 -84.9062 0
    endloop
  endfacet
  facet normal 0 0 -1
    outer loop
      vertex 34.1347 1.99879 0
      vertex 19.8334 -28.9883 0
      vertex 19.8544 -26.9358 0
    endloop
  endfacet
  facet normal 0 0 -1
    outer loop
      vertex 3.79166 -30.2119 0
      vertex 19.8347 -14.6206 0
      vertex 18.9183 -19.0158 0
    endloop
  endfacet
  facet normal 0 0 -1
    outer loop
      vertex 3.79166 -30.2119 0
      vertex 18.9183 -19.0158 0
      vertex 18.115 -22.7825 0
    endloop
  endfacet
  facet normal 0 0 -1
    outer loop
      vertex 3.79166 -30.2119 0
      vertex 18.115 -22.7825 0
      vertex 17.4247 -25.9208 0
    endloop
  endfacet
  facet normal 0 0 -1
    outer loop
      vertex 3.79166 -30.2119 0
      vertex 17.4247 -25.9208 0
      vertex 16.8475 -28.4305 0
    endloop
  endfacet
  facet normal 0 0 -1
    outer loop
      vertex 3.79166 -30.2119 0
      vertex 16.8475 -28.4305 0
      vertex 16.3834 -30.3119 0
    endloop
  endfacet
  facet normal 0 0 -1
    outer loop
      vertex 3.79166 -30.2119 0
      vertex 16.3834 -30.3119 0
      vertex 16.0324 -31.5647 0
    endloop
  endfacet
  facet normal 0 0 -1
    outer loop
      vertex 20.8641 -9.59689 0
      vertex 12.5535 1.99879 0
      vertex 34.1347 1.99879 0
    endloop
  endfacet
  facet normal -0 0 -1
    outer loop
      vertex 19.8347 -14.6206 0
      vertex 3.79166 -30.2119 0
      vertex 12.5535 1.99879 0
    endloop
  endfacet
  facet normal 0 0 -1
    outer loop
      vertex 1.21526 -45.029 0
      vertex 16.0324 -31.5647 0
      vertex 8.04385 -61.7139 0
    endloop
  endfacet
  facet normal 0 0 -1
    outer loop
      vertex 19.8347 -14.6206 0
      vertex 12.5535 1.99879 0
      vertex 20.8641 -9.59689 0
    endloop
  endfacet
  facet normal -0 0 -1
    outer loop
      vertex 16.0324 -31.5647 0
      vertex 3.4236 -31.6976 0
      vertex 3.79166 -30.2119 0
    endloop
  endfacet
  facet normal 0 0 -1
    outer loop
      vertex 16.0324 -31.5647 0
      vertex 3.05554 -33.3936 0
      vertex 3.4236 -31.6976 0
    endloop
  endfacet
  facet normal 0 0 -1
    outer loop
      vertex 16.0324 -31.5647 0
      vertex 2.68748 -35.3 0
      vertex 3.05554 -33.3936 0
    endloop
  endfacet
  facet normal 0 0 -1
    outer loop
      vertex 16.0324 -31.5647 0
      vertex 2.31943 -37.4167 0
      vertex 2.68748 -35.3 0
    endloop
  endfacet
  facet normal 0 0 -1
    outer loop
      vertex 16.0324 -31.5647 0
      vertex 1.95137 -39.7438 0
      vertex 2.31943 -37.4167 0
    endloop
  endfacet
  facet normal 0 0 -1
    outer loop
      vertex 16.0324 -31.5647 0
      vertex 1.58331 -42.2812 0
      vertex 1.95137 -39.7438 0
    endloop
  endfacet
  facet normal 0 0 -1
    outer loop
      vertex 16.0324 -31.5647 0
      vertex 1.21526 -45.029 0
      vertex 1.58331 -42.2812 0
    endloop
  endfacet
  facet normal 0 0 -1
    outer loop
      vertex -14.1168 -31.5647 0
      vertex 0.802353 -41.8225 0
      vertex 1.21526 -45.029 0
    endloop
  endfacet
  facet normal 0 0 -1
    outer loop
      vertex 0.802353 -41.8225 0
      vertex -14.1168 -31.5647 0
      vertex 0.410507 -38.9762 0
    endloop
  endfacet
  facet normal 0 0 -1
    outer loop
      vertex 0.410507 -38.9762 0
      vertex -14.1168 -31.5647 0
      vertex 0.0397186 -36.49 0
    endloop
  endfacet
  facet normal 0 0 -1
    outer loop
      vertex 0.0397186 -36.49 0
      vertex -14.1168 -31.5647 0
      vertex -0.309998 -34.3641 0
    endloop
  endfacet
  facet normal 0 0 -1
    outer loop
      vertex -0.309998 -34.3641 0
      vertex -14.1168 -31.5647 0
      vertex -0.638687 -32.5983 0
    endloop
  endfacet
  facet normal 0 0 -1
    outer loop
      vertex -0.638687 -32.5983 0
      vertex -14.1168 -31.5647 0
      vertex -0.946304 -31.1927 0
    endloop
  endfacet
  facet normal 0 0 -1
    outer loop
      vertex -5.99998 -61.7139 0
      vertex 1.21526 -45.029 0
      vertex 8.04385 -61.7139 0
    endloop
  endfacet
  facet normal 0 0 -1
    outer loop
      vertex -14.1168 -31.5647 0
      vertex 1.21526 -45.029 0
      vertex -5.99998 -61.7139 0
    endloop
  endfacet
  facet normal -0 0 -1
    outer loop
      vertex -0.946304 -31.1927 0
      vertex -14.1168 -31.5647 0
      vertex -1.23288 -30.1473 0
    endloop
  endfacet
  facet normal 0 0 -1
    outer loop
      vertex -14.6743 -29.4124 0
      vertex -1.23288 -30.1473 0
      vertex -14.1168 -31.5647 0
    endloop
  endfacet
  facet normal 0 0 -1
    outer loop
      vertex -15.2792 -26.9315 0
      vertex -1.23288 -30.1473 0
      vertex -14.6743 -29.4124 0
    endloop
  endfacet
  facet normal 0 0 -1
    outer loop
      vertex -15.9314 -24.1219 0
      vertex -1.23288 -30.1473 0
      vertex -15.2792 -26.9315 0
    endloop
  endfacet
  facet normal 0 0 -1
    outer loop
      vertex -16.6308 -20.9836 0
      vertex -1.23288 -30.1473 0
      vertex -15.9314 -24.1219 0
    endloop
  endfacet
  facet normal 0 0 -1
    outer loop
      vertex -17.3776 -17.5167 0
      vertex -1.23288 -30.1473 0
      vertex -16.6308 -20.9836 0
    endloop
  endfacet
  facet normal 0 0 -1
    outer loop
      vertex -1.23288 -30.1473 0
      vertex -17.3776 -17.5167 0
      vertex -9.93013 1.99879 0
    endloop
  endfacet
  facet normal 0 0 -1
    outer loop
      vertex -18.1717 -13.7211 0
      vertex -9.93013 1.99879 0
      vertex -17.3776 -17.5167 0
    endloop
  endfacet
  facet normal 0 0 -1
    outer loop
      vertex -19.0131 -9.59689 0
      vertex -9.93013 1.99879 0
      vertex -18.1717 -13.7211 0
    endloop
  endfacet
  facet normal 0 0 -1
    outer loop
      vertex -19.0131 -9.59689 0
      vertex -32.2846 1.99879 0
      vertex -9.93013 1.99879 0
    endloop
  endfacet
  facet normal 0 0 -1
    outer loop
      vertex -18.5618 -16.0388 0
      vertex -32.2846 1.99879 0
      vertex -19.0131 -9.59689 0
    endloop
  endfacet
  facet normal 0 0 1
    outer loop
      vertex 20.5906 -13.0848 1
      vertex 34.1347 1.99879 1
      vertex 20.8641 -9.59689 1
    endloop
  endfacet
  facet normal 0 0 1
    outer loop
      vertex 12.5535 1.99879 1
      vertex 19.8347 -14.6206 1
      vertex 20.8641 -9.59689 1
    endloop
  endfacet
  facet normal 0 0 1
    outer loop
      vertex 3.79166 -30.2119 1
      vertex 19.8347 -14.6206 1
      vertex 12.5535 1.99879 1
    endloop
  endfacet
  facet normal 0 0 1
    outer loop
      vertex 18.9183 -19.0158 1
      vertex 3.79166 -30.2119 1
      vertex 18.115 -22.7825 1
    endloop
  endfacet
  facet normal 0 0 1
    outer loop
      vertex 18.115 -22.7825 1
      vertex 3.79166 -30.2119 1
      vertex 17.4247 -25.9208 1
    endloop
  endfacet
  facet normal 0 0 1
    outer loop
      vertex 17.4247 -25.9208 1
      vertex 3.79166 -30.2119 1
      vertex 16.8475 -28.4305 1
    endloop
  endfacet
  facet normal 0 0 1
    outer loop
      vertex 16.8475 -28.4305 1
      vertex 3.79166 -30.2119 1
      vertex 16.3834 -30.3119 1
    endloop
  endfacet
  facet normal -0 0 1
    outer loop
      vertex 12.5535 1.99879 1
      vertex 20.8641 -9.59689 1
      vertex 34.1347 1.99879 1
    endloop
  endfacet
  facet normal 0 0 1
    outer loop
      vertex 19.8347 -14.6206 1
      vertex 3.79166 -30.2119 1
      vertex 18.9183 -19.0158 1
    endloop
  endfacet
  facet normal 0 0 1
    outer loop
      vertex 16.3834 -30.3119 1
      vertex 3.79166 -30.2119 1
      vertex 16.0324 -31.5647 1
    endloop
  endfacet
  facet normal 0 0 1
    outer loop
      vertex 3.4236 -31.6976 1
      vertex 16.0324 -31.5647 1
      vertex 3.79166 -30.2119 1
    endloop
  endfacet
  facet normal 0 0 1
    outer loop
      vertex 3.05554 -33.3936 1
      vertex 16.0324 -31.5647 1
      vertex 3.4236 -31.6976 1
    endloop
  endfacet
  facet normal 0 0 1
    outer loop
      vertex 2.68748 -35.3 1
      vertex 16.0324 -31.5647 1
      vertex 3.05554 -33.3936 1
    endloop
  endfacet
  facet normal 0 0 1
    outer loop
      vertex 2.31943 -37.4167 1
      vertex 16.0324 -31.5647 1
      vertex 2.68748 -35.3 1
    endloop
  endfacet
  facet normal 0 0 1
    outer loop
      vertex 1.95137 -39.7438 1
      vertex 16.0324 -31.5647 1
      vertex 2.31943 -37.4167 1
    endloop
  endfacet
  facet normal 0 0 1
    outer loop
      vertex 1.58331 -42.2812 1
      vertex 16.0324 -31.5647 1
      vertex 1.95137 -39.7438 1
    endloop
  endfacet
  facet normal 0 0 1
    outer loop
      vertex 1.21526 -45.029 1
      vertex 16.0324 -31.5647 1
      vertex 1.58331 -42.2812 1
    endloop
  endfacet
  facet normal 0 0 1
    outer loop
      vertex 16.0324 -31.5647 1
      vertex 1.21526 -45.029 1
      vertex 8.04385 -61.7139 1
    endloop
  endfacet
  facet normal 0 0 1
    outer loop
      vertex -14.1168 -31.5647 1
      vertex 0.802353 -41.8225 1
      vertex 0.410507 -38.9762 1
    endloop
  endfacet
  facet normal 0 0 1
    outer loop
      vertex -14.1168 -31.5647 1
      vertex 0.410507 -38.9762 1
      vertex 0.0397186 -36.49 1
    endloop
  endfacet
  facet normal 0 0 1
    outer loop
      vertex -14.1168 -31.5647 1
      vertex 0.0397186 -36.49 1
      vertex -0.309998 -34.3641 1
    endloop
  endfacet
  facet normal 0 0 1
    outer loop
      vertex -14.1168 -31.5647 1
      vertex -0.309998 -34.3641 1
      vertex -0.638687 -32.5983 1
    endloop
  endfacet
  facet normal -0 0 1
    outer loop
      vertex -14.1168 -31.5647 1
      vertex -0.638687 -32.5983 1
      vertex -0.946304 -31.1927 1
    endloop
  endfacet
  facet normal 0 0 1
    outer loop
      vertex -14.1168 -31.5647 1
      vertex -0.946304 -31.1927 1
      vertex -1.23288 -30.1473 1
    endloop
  endfacet
  facet normal 0 0 1
    outer loop
      vertex 1.21526 -45.029 1
      vertex -5.99998 -61.7139 1
      vertex 8.04385 -61.7139 1
    endloop
  endfacet
  facet normal 0 0 1
    outer loop
      vertex 0.802353 -41.8225 1
      vertex -14.1168 -31.5647 1
      vertex 1.21526 -45.029 1
    endloop
  endfacet
  facet normal -0 0 1
    outer loop
      vertex -17.3776 -17.5167 1
      vertex -1.23288 -30.1473 1
      vertex -9.93013 1.99879 1
    endloop
  endfacet
  facet normal 0 0 1
    outer loop
      vertex 1.21526 -45.029 1
      vertex -14.1168 -31.5647 1
      vertex -5.99998 -61.7139 1
    endloop
  endfacet
  facet normal 0 0 1
    outer loop
      vertex -1.23288 -30.1473 1
      vertex -14.6743 -29.4124 1
      vertex -14.1168 -31.5647 1
    endloop
  endfacet
  facet normal 0 0 1
    outer loop
      vertex -1.23288 -30.1473 1
      vertex -15.2792 -26.9315 1
      vertex -14.6743 -29.4124 1
    endloop
  endfacet
  facet normal 0 0 1
    outer loop
      vertex -1.23288 -30.1473 1
      vertex -15.9314 -24.1219 1
      vertex -15.2792 -26.9315 1
    endloop
  endfacet
  facet normal 0 0 1
    outer loop
      vertex -1.23288 -30.1473 1
      vertex -16.6308 -20.9836 1
      vertex -15.9314 -24.1219 1
    endloop
  endfacet
  facet normal 0 0 1
    outer loop
      vertex -1.23288 -30.1473 1
      vertex -17.3776 -17.5167 1
      vertex -16.6308 -20.9836 1
    endloop
  endfacet
  facet normal 0 0 1
    outer loop
      vertex -9.93013 1.99879 1
      vertex -18.1717 -13.7211 1
      vertex -17.3776 -17.5167 1
    endloop
  endfacet
  facet normal 0 0 1
    outer loop
      vertex -9.93013 1.99879 1
      vertex -19.0131 -9.59689 1
      vertex -18.1717 -13.7211 1
    endloop
  endfacet
  facet normal 0 -0 1
    outer loop
      vertex -19.0131 -9.59689 1
      vertex -9.93013 1.99879 1
      vertex -32.2846 1.99879 1
    endloop
  endfacet
  facet normal 0 0 1
    outer loop
      vertex 20.3593 -16.3335 1
      vertex 34.1347 1.99879 1
      vertex 20.5906 -13.0848 1
    endloop
  endfacet
  facet normal 0 0 1
    outer loop
      vertex 20.1699 -19.343 1
      vertex 34.1347 1.99879 1
      vertex 20.3593 -16.3335 1
    endloop
  endfacet
  facet normal 0 0 1
    outer loop
      vertex 20.0227 -22.1132 1
      vertex 34.1347 1.99879 1
      vertex 20.1699 -19.343 1
    endloop
  endfacet
  facet normal 0 0 1
    outer loop
      vertex 19.9175 -24.6441 1
      vertex 34.1347 1.99879 1
      vertex 20.0227 -22.1132 1
    endloop
  endfacet
  facet normal 0 0 1
    outer loop
      vertex 19.8544 -26.9358 1
      vertex 34.1347 1.99879 1
      vertex 19.9175 -24.6441 1
    endloop
  endfacet
  facet normal 0 0 1
    outer loop
      vertex 19.8334 -28.9883 1
      vertex 34.1347 1.99879 1
      vertex 19.8544 -26.9358 1
    endloop
  endfacet
  facet normal 0 0 1
    outer loop
      vertex 34.1347 1.99879 1
      vertex 19.8334 -28.9883 1
      vertex 34.1347 -84.9062 1
    endloop
  endfacet
  facet normal 0 0 1
    outer loop
      vertex 34.1347 -84.9062 1
      vertex 19.8334 -28.9883 1
      vertex 19.8334 -84.9062 1
    endloop
  endfacet
  facet normal 0 0 1
    outer loop
      vertex -32.2846 1.99879 1
      vertex -18.1115 -28.9883 1
      vertex -18.1207 -27.2094 1
    endloop
  endfacet
  facet normal 0 0 1
    outer loop
      vertex -32.2846 1.99879 1
      vertex -18.1207 -27.2094 1
      vertex -18.1483 -25.4069 1
    endloop
  endfacet
  facet normal 0 0 1
    outer loop
      vertex -32.2846 1.99879 1
      vertex -18.1483 -25.4069 1
      vertex -18.1942 -23.5807 1
    endloop
  endfacet
  facet normal 0 0 1
    outer loop
      vertex -32.2846 1.99879 1
      vertex -18.1942 -23.5807 1
      vertex -18.2586 -21.7308 1
    endloop
  endfacet
  facet normal 0 0 1
    outer loop
      vertex -32.2846 1.99879 1
      vertex -18.2586 -21.7308 1
      vertex -18.3413 -19.8571 1
    endloop
  endfacet
  facet normal 0 0 1
    outer loop
      vertex -32.2846 1.99879 1
      vertex -18.3413 -19.8571 1
      vertex -18.4424 -17.9598 1
    endloop
  endfacet
  facet normal 0 0 1
    outer loop
      vertex -32.2846 1.99879 1
      vertex -18.4424 -17.9598 1
      vertex -18.5618 -16.0388 1
    endloop
  endfacet
  facet normal 0 0 1
    outer loop
      vertex -32.2846 1.99879 1
      vertex -18.5618 -16.0388 1
      vertex -19.0131 -9.59689 1
    endloop
  endfacet
  facet normal 0 0 1
    outer loop
      vertex -18.1115 -28.9883 1
      vertex -32.2846 1.99879 1
      vertex -32.2846 -84.9062 1
    endloop
  endfacet
  facet normal 0 0 1
    outer loop
      vertex -18.1115 -28.9883 1
      vertex -32.2846 -84.9062 1
      vertex -18.1115 -84.9062 1
    endloop
  endfacet
  facet normal 0.999987 0.00517167 0
    outer loop
      vertex -18.1115 -28.9883 1
      vertex -18.1207 -27.2094 0
      vertex -18.1207 -27.2094 1
    endloop
  endfacet
  facet normal 0.999987 0.00517167 0
    outer loop
      vertex -18.1207 -27.2094 0
      vertex -18.1115 -28.9883 1
      vertex -18.1115 -28.9883 0
    endloop
  endfacet
  facet normal 0.999883 0.0153103 0
    outer loop
      vertex -18.1207 -27.2094 1
      vertex -18.1483 -25.4069 0
      vertex -18.1483 -25.4069 1
    endloop
  endfacet
  facet normal 0.999883 0.0153103 0
    outer loop
      vertex -18.1483 -25.4069 0
      vertex -18.1207 -27.2094 1
      vertex -18.1207 -27.2094 0
    endloop
  endfacet
  facet normal 0.999684 0.0251262 0
    outer loop
      vertex -18.1483 -25.4069 1
      vertex -18.1942 -23.5807 0
      vertex -18.1942 -23.5807 1
    endloop
  endfacet
  facet normal 0.999684 0.0251262 0
    outer loop
      vertex -18.1942 -23.5807 0
      vertex -18.1483 -25.4069 1
      vertex -18.1483 -25.4069 0
    endloop
  endfacet
  facet normal 0.999395 0.0347916 0
    outer loop
      vertex -18.1942 -23.5807 1
      vertex -18.2586 -21.7308 0
      vertex -18.2586 -21.7308 1
    endloop
  endfacet
  facet normal 0.999395 0.0347916 0
    outer loop
      vertex -18.2586 -21.7308 0
      vertex -18.1942 -23.5807 1
      vertex -18.1942 -23.5807 0
    endloop
  endfacet
  facet normal 0.999027 0.0440943 0
    outer loop
      vertex -18.2586 -21.7308 1
      vertex -18.3413 -19.8571 0
      vertex -18.3413 -19.8571 1
    endloop
  endfacet
  facet normal 0.999027 0.0440943 0
    outer loop
      vertex -18.3413 -19.8571 0
      vertex -18.2586 -21.7308 1
      vertex -18.2586 -21.7308 0
    endloop
  endfacet
  facet normal 0.998583 0.0532108 0
    outer loop
      vertex -18.3413 -19.8571 1
      vertex -18.4424 -17.9598 0
      vertex -18.4424 -17.9598 1
    endloop
  endfacet
  facet normal 0.998583 0.0532108 0
    outer loop
      vertex -18.4424 -17.9598 0
      vertex -18.3413 -19.8571 1
      vertex -18.3413 -19.8571 0
    endloop
  endfacet
  facet normal 0.998074 0.0620354 0
    outer loop
      vertex -18.4424 -17.9598 1
      vertex -18.5618 -16.0388 0
      vertex -18.5618 -16.0388 1
    endloop
  endfacet
  facet normal 0.998074 0.0620354 0
    outer loop
      vertex -18.5618 -16.0388 0
      vertex -18.4424 -17.9598 1
      vertex -18.4424 -17.9598 0
    endloop
  endfacet
  facet normal 0.997555 0.0698856 0
    outer loop
      vertex -18.5618 -16.0388 1
      vertex -19.0131 -9.59689 0
      vertex -19.0131 -9.59689 1
    endloop
  endfacet
  facet normal 0.997555 0.0698856 0
    outer loop
      vertex -19.0131 -9.59689 0
      vertex -18.5618 -16.0388 1
      vertex -18.5618 -16.0388 0
    endloop
  endfacet
  facet normal -0.979817 -0.199897 0
    outer loop
      vertex -18.1717 -13.7211 0
      vertex -19.0131 -9.59689 1
      vertex -19.0131 -9.59689 0
    endloop
  endfacet
  facet normal -0.979817 -0.199897 0
    outer loop
      vertex -19.0131 -9.59689 1
      vertex -18.1717 -13.7211 0
      vertex -18.1717 -13.7211 1
    endloop
  endfacet
  facet normal -0.978808 -0.204782 0
    outer loop
      vertex -17.3776 -17.5167 0
      vertex -18.1717 -13.7211 1
      vertex -18.1717 -13.7211 0
    endloop
  endfacet
  facet normal -0.978808 -0.204782 0
    outer loop
      vertex -18.1717 -13.7211 1
      vertex -17.3776 -17.5167 0
      vertex -17.3776 -17.5167 1
    endloop
  endfacet
  facet normal -0.977577 -0.210578 0
    outer loop
      vertex -16.6308 -20.9836 0
      vertex -17.3776 -17.5167 1
      vertex -17.3776 -17.5167 0
    endloop
  endfacet
  facet normal -0.977577 -0.210578 0
    outer loop
      vertex -17.3776 -17.5167 1
      vertex -16.6308 -20.9836 0
      vertex -16.6308 -20.9836 1
    endloop
  endfacet
  facet normal -0.976055 -0.217523 0
    outer loop
      vertex -15.9314 -24.1219 0
      vertex -16.6308 -20.9836 1
      vertex -16.6308 -20.9836 0
    endloop
  endfacet
  facet normal -0.976055 -0.217523 0
    outer loop
      vertex -16.6308 -20.9836 1
      vertex -15.9314 -24.1219 0
      vertex -15.9314 -24.1219 1
    endloop
  endfacet
  facet normal -0.974099 -0.22612 0
    outer loop
      vertex -15.2792 -26.9315 0
      vertex -15.9314 -24.1219 1
      vertex -15.9314 -24.1219 0
    endloop
  endfacet
  facet normal -0.974099 -0.22612 0
    outer loop
      vertex -15.9314 -24.1219 1
      vertex -15.2792 -26.9315 0
      vertex -15.2792 -26.9315 1
    endloop
  endfacet
  facet normal -0.971538 -0.236883 0
    outer loop
      vertex -14.6743 -29.4124 0
      vertex -15.2792 -26.9315 1
      vertex -15.2792 -26.9315 0
    endloop
  endfacet
  facet normal -0.971538 -0.236883 0
    outer loop
      vertex -15.2792 -26.9315 1
      vertex -14.6743 -29.4124 0
      vertex -14.6743 -29.4124 1
    endloop
  endfacet
  facet normal -0.968052 -0.25075 0
    outer loop
      vertex -14.1168 -31.5647 0
      vertex -14.6743 -29.4124 1
      vertex -14.6743 -29.4124 0
    endloop
  endfacet
  facet normal -0.968052 -0.25075 0
    outer loop
      vertex -14.6743 -29.4124 1
      vertex -14.1168 -31.5647 0
      vertex -14.1168 -31.5647 1
    endloop
  endfacet
  facet normal -0.965618 -0.259965 0
    outer loop
      vertex -5.99998 -61.7139 0
      vertex -14.1168 -31.5647 1
      vertex -14.1168 -31.5647 0
    endloop
  endfacet
  facet normal -0.965618 -0.259965 0
    outer loop
      vertex -14.1168 -31.5647 1
      vertex -5.99998 -61.7139 0
      vertex -5.99998 -61.7139 1
    endloop
  endfacet
  facet normal 0 -1 0
    outer loop
      vertex -5.99998 -61.7139 0
      vertex 8.04385 -61.7139 1
      vertex -5.99998 -61.7139 1
    endloop
  endfacet
  facet normal 0 -1 -0
    outer loop
      vertex 8.04385 -61.7139 1
      vertex -5.99998 -61.7139 0
      vertex 8.04385 -61.7139 0
    endloop
  endfacet
  facet normal 0.966643 -0.256129 0
    outer loop
      vertex 8.04385 -61.7139 1
      vertex 16.0324 -31.5647 0
      vertex 16.0324 -31.5647 1
    endloop
  endfacet
  facet normal 0.966643 -0.256129 0
    outer loop
      vertex 16.0324 -31.5647 0
      vertex 8.04385 -61.7139 1
      vertex 8.04385 -61.7139 0
    endloop
  endfacet
  facet normal 0.962921 -0.269784 0
    outer loop
      vertex 16.0324 -31.5647 1
      vertex 16.3834 -30.3119 0
      vertex 16.3834 -30.3119 1
    endloop
  endfacet
  facet normal 0.962921 -0.269784 0
    outer loop
      vertex 16.3834 -30.3119 0
      vertex 16.0324 -31.5647 1
      vertex 16.0324 -31.5647 0
    endloop
  endfacet
  facet normal 0.970897 -0.239499 0
    outer loop
      vertex 16.3834 -30.3119 1
      vertex 16.8475 -28.4305 0
      vertex 16.8475 -28.4305 1
    endloop
  endfacet
  facet normal 0.970897 -0.239499 0
    outer loop
      vertex 16.8475 -28.4305 0
      vertex 16.3834 -30.3119 1
      vertex 16.3834 -30.3119 0
    endloop
  endfacet
  facet normal 0.974558 -0.224136 0
    outer loop
      vertex 16.8475 -28.4305 1
      vertex 17.4247 -25.9208 0
      vertex 17.4247 -25.9208 1
    endloop
  endfacet
  facet normal 0.974558 -0.224136 0
    outer loop
      vertex 17.4247 -25.9208 0
      vertex 16.8475 -28.4305 1
      vertex 16.8475 -28.4305 0
    endloop
  endfacet
  facet normal 0.976653 -0.214824 0
    outer loop
      vertex 17.4247 -25.9208 1
      vertex 18.115 -22.7825 0
      vertex 18.115 -22.7825 1
    endloop
  endfacet
  facet normal 0.976653 -0.214824 0
    outer loop
      vertex 18.115 -22.7825 0
      vertex 17.4247 -25.9208 1
      vertex 17.4247 -25.9208 0
    endloop
  endfacet
  facet normal 0.978007 -0.208573 0
    outer loop
      vertex 18.115 -22.7825 1
      vertex 18.9183 -19.0158 0
      vertex 18.9183 -19.0158 1
    endloop
  endfacet
  facet normal 0.978007 -0.208573 0
    outer loop
      vertex 18.9183 -19.0158 0
      vertex 18.115 -22.7825 1
      vertex 18.115 -22.7825 0
    endloop
  endfacet
  facet normal 0.978948 -0.204111 0
    outer loop
      vertex 18.9183 -19.0158 1
      vertex 19.8347 -14.6206 0
      vertex 19.8347 -14.6206 1
    endloop
  endfacet
  facet normal 0.978948 -0.204111 0
    outer loop
      vertex 19.8347 -14.6206 0
      vertex 18.9183 -19.0158 1
      vertex 18.9183 -19.0158 0
    endloop
  endfacet
  facet normal 0.979645 -0.200737 0
    outer loop
      vertex 19.8347 -14.6206 1
      vertex 20.8641 -9.59689 0
      vertex 20.8641 -9.59689 1
    endloop
  endfacet
  facet normal 0.979645 -0.200737 0
    outer loop
      vertex 20.8641 -9.59689 0
      vertex 19.8347 -14.6206 1
      vertex 19.8347 -14.6206 0
    endloop
  endfacet
  facet normal -0.99694 0.0781738 0
    outer loop
      vertex 20.5906 -13.0848 0
      vertex 20.8641 -9.59689 1
      vertex 20.8641 -9.59689 0
    endloop
  endfacet
  facet normal -0.99694 0.0781738 0
    outer loop
      vertex 20.8641 -9.59689 1
      vertex 20.5906 -13.0848 0
      vertex 20.5906 -13.0848 1
    endloop
  endfacet
  facet normal -0.997475 0.0710179 0
    outer loop
      vertex 20.3593 -16.3335 0
      vertex 20.5906 -13.0848 1
      vertex 20.5906 -13.0848 0
    endloop
  endfacet
  facet normal -0.997475 0.0710179 0
    outer loop
      vertex 20.5906 -13.0848 1
      vertex 20.3593 -16.3335 0
      vertex 20.3593 -16.3335 1
    endloop
  endfacet
  facet normal -0.998026 0.0628098 0
    outer loop
      vertex 20.1699 -19.343 0
      vertex 20.3593 -16.3335 1
      vertex 20.3593 -16.3335 0
    endloop
  endfacet
  facet normal -0.998026 0.0628098 0
    outer loop
      vertex 20.3593 -16.3335 1
      vertex 20.1699 -19.343 0
      vertex 20.1699 -19.343 1
    endloop
  endfacet
  facet normal -0.998591 0.0530621 0
    outer loop
      vertex 20.0227 -22.1132 0
      vertex 20.1699 -19.343 1
      vertex 20.1699 -19.343 0
    endloop
  endfacet
  facet normal -0.998591 0.0530621 0
    outer loop
      vertex 20.1699 -19.343 1
      vertex 20.0227 -22.1132 0
      vertex 20.0227 -22.1132 1
    endloop
  endfacet
  facet normal -0.999137 0.0415304 0
    outer loop
      vertex 19.9175 -24.6441 0
      vertex 20.0227 -22.1132 1
      vertex 20.0227 -22.1132 0
    endloop
  endfacet
  facet normal -0.999137 0.0415304 0
    outer loop
      vertex 20.0227 -22.1132 1
      vertex 19.9175 -24.6441 0
      vertex 19.9175 -24.6441 1
    endloop
  endfacet
  facet normal -0.999621 0.0275237 0
    outer loop
      vertex 19.8544 -26.9358 0
      vertex 19.9175 -24.6441 1
      vertex 19.9175 -24.6441 0
    endloop
  endfacet
  facet normal -0.999621 0.0275237 0
    outer loop
      vertex 19.9175 -24.6441 1
      vertex 19.8544 -26.9358 0
      vertex 19.8544 -26.9358 1
    endloop
  endfacet
  facet normal -0.999948 0.0102309 0
    outer loop
      vertex 19.8334 -28.9883 0
      vertex 19.8544 -26.9358 1
      vertex 19.8544 -26.9358 0
    endloop
  endfacet
  facet normal -0.999948 0.0102309 0
    outer loop
      vertex 19.8544 -26.9358 1
      vertex 19.8334 -28.9883 0
      vertex 19.8334 -28.9883 1
    endloop
  endfacet
  facet normal -1 0 0
    outer loop
      vertex 19.8334 -84.9062 0
      vertex 19.8334 -28.9883 1
      vertex 19.8334 -28.9883 0
    endloop
  endfacet
  facet normal -1 -0 0
    outer loop
      vertex 19.8334 -28.9883 1
      vertex 19.8334 -84.9062 0
      vertex 19.8334 -84.9062 1
    endloop
  endfacet
  facet normal 0 -1 0
    outer loop
      vertex 19.8334 -84.9062 0
      vertex 34.1347 -84.9062 1
      vertex 19.8334 -84.9062 1
    endloop
  endfacet
  facet normal 0 -1 -0
    outer loop
      vertex 34.1347 -84.9062 1
      vertex 19.8334 -84.9062 0
      vertex 34.1347 -84.9062 0
    endloop
  endfacet
  facet normal 1 -0 0
    outer loop
      vertex 34.1347 -84.9062 1
      vertex 34.1347 1.99879 0
      vertex 34.1347 1.99879 1
    endloop
  endfacet
  facet normal 1 0 0
    outer loop
      vertex 34.1347 1.99879 0
      vertex 34.1347 -84.9062 1
      vertex 34.1347 -84.9062 0
    endloop
  endfacet
  facet normal 0 1 -0
    outer loop
      vertex 34.1347 1.99879 0
      vertex 12.5535 1.99879 1
      vertex 34.1347 1.99879 1
    endloop
  endfacet
  facet normal 0 1 0
    outer loop
      vertex 12.5535 1.99879 1
      vertex 34.1347 1.99879 0
      vertex 12.5535 1.99879 0
    endloop
  endfacet
  facet normal -0.964938 0.262479 0
    outer loop
      vertex 3.79166 -30.2119 0
      vertex 12.5535 1.99879 1
      vertex 12.5535 1.99879 0
    endloop
  endfacet
  facet normal -0.964938 0.262479 0
    outer loop
      vertex 12.5535 1.99879 1
      vertex 3.79166 -30.2119 0
      vertex 3.79166 -30.2119 1
    endloop
  endfacet
  facet normal -0.970658 0.240466 0
    outer loop
      vertex 3.4236 -31.6976 0
      vertex 3.79166 -30.2119 1
      vertex 3.79166 -30.2119 0
    endloop
  endfacet
  facet normal -0.970658 0.240466 0
    outer loop
      vertex 3.79166 -30.2119 1
      vertex 3.4236 -31.6976 0
      vertex 3.4236 -31.6976 1
    endloop
  endfacet
  facet normal -0.977252 0.21208 0
    outer loop
      vertex 3.05554 -33.3936 0
      vertex 3.4236 -31.6976 1
      vertex 3.4236 -31.6976 0
    endloop
  endfacet
  facet normal -0.977252 0.21208 0
    outer loop
      vertex 3.4236 -31.6976 1
      vertex 3.05554 -33.3936 0
      vertex 3.05554 -33.3936 1
    endloop
  endfacet
  facet normal -0.981868 0.189565 0
    outer loop
      vertex 2.68748 -35.3 0
      vertex 3.05554 -33.3936 1
      vertex 3.05554 -33.3936 0
    endloop
  endfacet
  facet normal -0.981868 0.189565 0
    outer loop
      vertex 3.05554 -33.3936 1
      vertex 2.68748 -35.3 0
      vertex 2.68748 -35.3 1
    endloop
  endfacet
  facet normal -0.985217 0.171309 0
    outer loop
      vertex 2.31943 -37.4167 0
      vertex 2.68748 -35.3 1
      vertex 2.68748 -35.3 0
    endloop
  endfacet
  facet normal -0.985217 0.171309 0
    outer loop
      vertex 2.68748 -35.3 1
      vertex 2.31943 -37.4167 0
      vertex 2.31943 -37.4167 1
    endloop
  endfacet
  facet normal -0.987722 0.156221 0
    outer loop
      vertex 1.95137 -39.7438 0
      vertex 2.31943 -37.4167 1
      vertex 2.31943 -37.4167 0
    endloop
  endfacet
  facet normal -0.987722 0.156221 0
    outer loop
      vertex 2.31943 -37.4167 1
      vertex 1.95137 -39.7438 0
      vertex 1.95137 -39.7438 1
    endloop
  endfacet
  facet normal -0.989643 0.143552 0
    outer loop
      vertex 1.58331 -42.2812 0
      vertex 1.95137 -39.7438 1
      vertex 1.95137 -39.7438 0
    endloop
  endfacet
  facet normal -0.989643 0.143552 0
    outer loop
      vertex 1.95137 -39.7438 1
      vertex 1.58331 -42.2812 0
      vertex 1.58331 -42.2812 1
    endloop
  endfacet
  facet normal -0.991148 0.132758 0
    outer loop
      vertex 1.21526 -45.029 0
      vertex 1.58331 -42.2812 1
      vertex 1.58331 -42.2812 0
    endloop
  endfacet
  facet normal -0.991148 0.132758 0
    outer loop
      vertex 1.58331 -42.2812 1
      vertex 1.21526 -45.029 0
      vertex 1.21526 -45.029 1
    endloop
  endfacet
  facet normal 0.991811 0.127717 0
    outer loop
      vertex 1.21526 -45.029 1
      vertex 0.802353 -41.8225 0
      vertex 0.802353 -41.8225 1
    endloop
  endfacet
  facet normal 0.991811 0.127717 0
    outer loop
      vertex 0.802353 -41.8225 0
      vertex 1.21526 -45.029 1
      vertex 1.21526 -45.029 0
    endloop
  endfacet
  facet normal 0.990656 0.136382 0
    outer loop
      vertex 0.802353 -41.8225 1
      vertex 0.410507 -38.9762 0
      vertex 0.410507 -38.9762 1
    endloop
  endfacet
  facet normal 0.990656 0.136382 0
    outer loop
      vertex 0.410507 -38.9762 0
      vertex 0.802353 -41.8225 1
      vertex 0.802353 -41.8225 0
    endloop
  endfacet
  facet normal 0.989061 0.147507 0
    outer loop
      vertex 0.410507 -38.9762 1
      vertex 0.0397186 -36.49 0
      vertex 0.0397186 -36.49 1
    endloop
  endfacet
  facet normal 0.989061 0.147507 0
    outer loop
      vertex 0.0397186 -36.49 0
      vertex 0.410507 -38.9762 1
      vertex 0.410507 -38.9762 0
    endloop
  endfacet
  facet normal 0.986738 0.162321 0
    outer loop
      vertex 0.0397186 -36.49 1
      vertex -0.309998 -34.3641 0
      vertex -0.309998 -34.3641 1
    endloop
  endfacet
  facet normal 0.986738 0.162321 0
    outer loop
      vertex -0.309998 -34.3641 0
      vertex 0.0397186 -36.49 1
      vertex 0.0397186 -36.49 0
    endloop
  endfacet
  facet normal 0.983113 0.182998 0
    outer loop
      vertex -0.309998 -34.3641 1
      vertex -0.638687 -32.5983 0
      vertex -0.638687 -32.5983 1
    endloop
  endfacet
  facet normal 0.983113 0.182998 0
    outer loop
      vertex -0.638687 -32.5983 0
      vertex -0.309998 -34.3641 1
      vertex -0.309998 -34.3641 0
    endloop
  endfacet
  facet normal 0.976879 0.213791 0
    outer loop
      vertex -0.638687 -32.5983 1
      vertex -0.946304 -31.1927 0
      vertex -0.946304 -31.1927 1
    endloop
  endfacet
  facet normal 0.976879 0.213791 0
    outer loop
      vertex -0.946304 -31.1927 0
      vertex -0.638687 -32.5983 1
      vertex -0.638687 -32.5983 0
    endloop
  endfacet
  facet normal 0.964419 0.264377 0
    outer loop
      vertex -0.946304 -31.1927 1
      vertex -1.23288 -30.1473 0
      vertex -1.23288 -30.1473 1
    endloop
  endfacet
  facet normal 0.964419 0.264377 0
    outer loop
      vertex -1.23288 -30.1473 0
      vertex -0.946304 -31.1927 1
      vertex -0.946304 -31.1927 0
    endloop
  endfacet
  facet normal 0.965294 0.261164 0
    outer loop
      vertex -1.23288 -30.1473 1
      vertex -9.93013 1.99879 0
      vertex -9.93013 1.99879 1
    endloop
  endfacet
  facet normal 0.965294 0.261164 0
    outer loop
      vertex -9.93013 1.99879 0
      vertex -1.23288 -30.1473 1
      vertex -1.23288 -30.1473 0
    endloop
  endfacet
  facet normal 0 1 -0
    outer loop
      vertex -9.93013 1.99879 0
      vertex -32.2846 1.99879 1
      vertex -9.93013 1.99879 1
    endloop
  endfacet
  facet normal 0 1 0
    outer loop
      vertex -32.2846 1.99879 1
      vertex -9.93013 1.99879 0
      vertex -32.2846 1.99879 0
    endloop
  endfacet
  facet normal -1 0 0
    outer loop
      vertex -32.2846 -84.9062 0
      vertex -32.2846 1.99879 1
      vertex -32.2846 1.99879 0
    endloop
  endfacet
  facet normal -1 -0 0
    outer loop
      vertex -32.2846 1.99879 1
      vertex -32.2846 -84.9062 0
      vertex -32.2846 -84.9062 1
    endloop
  endfacet
  facet normal 0 -1 0
    outer loop
      vertex -32.2846 -84.9062 0
      vertex -18.1115 -84.9062 1
      vertex -32.2846 -84.9062 1
    endloop
  endfacet
  facet normal 0 -1 -0
    outer loop
      vertex -18.1115 -84.9062 1
      vertex -32.2846 -84.9062 0
      vertex -18.1115 -84.9062 0
    endloop
  endfacet
  facet normal 1 -0 0
    outer loop
      vertex -18.1115 -84.9062 1
      vertex -18.1115 -28.9883 0
      vertex -18.1115 -28.9883 1
    endloop
  endfacet
  facet normal 1 0 0
    outer loop
      vertex -18.1115 -28.9883 0
      vertex -18.1115 -84.9062 1
      vertex -18.1115 -84.9062 0
    endloop
  endfacet
endsolid OpenSCAD_Model
