solid OpenSCAD_Model
  facet normal 0 0 -1
    outer loop
      vertex 7.36189 -47.1193 0
      vertex 12.303 -54.9131 0
      vertex 9.58072 -56.0451 0
    endloop
  endfacet
  facet normal 0 0 -1
    outer loop
      vertex 12.303 -54.9131 0
      vertex 9.49188 -45.8824 0
      vertex 9.96713 -45.5179 0
    endloop
  endfacet
  facet normal 0 0 -1
    outer loop
      vertex 12.303 -54.9131 0
      vertex 8.99371 -46.2248 0
      vertex 9.49188 -45.8824 0
    endloop
  endfacet
  facet normal 0 0 -1
    outer loop
      vertex 12.303 -54.9131 0
      vertex 8.47267 -46.5451 0
      vertex 8.99371 -46.2248 0
    endloop
  endfacet
  facet normal 0 0 -1
    outer loop
      vertex 12.303 -54.9131 0
      vertex 7.92873 -46.8432 0
      vertex 8.47267 -46.5451 0
    endloop
  endfacet
  facet normal 0 0 -1
    outer loop
      vertex 12.303 -54.9131 0
      vertex 7.36189 -47.1193 0
      vertex 7.92873 -46.8432 0
    endloop
  endfacet
  facet normal 0 0 -1
    outer loop
      vertex 5.53839 -47.8103 0
      vertex 9.58072 -56.0451 0
      vertex 6.84738 -56.8536 0
    endloop
  endfacet
  facet normal 0 0 -1
    outer loop
      vertex 9.58072 -56.0451 0
      vertex 6.77216 -47.3733 0
      vertex 7.36189 -47.1193 0
    endloop
  endfacet
  facet normal 0 0 -1
    outer loop
      vertex 9.58072 -56.0451 0
      vertex 6.15955 -47.6052 0
      vertex 6.77216 -47.3733 0
    endloop
  endfacet
  facet normal 0 0 -1
    outer loop
      vertex 9.58072 -56.0451 0
      vertex 5.53839 -47.8103 0
      vertex 6.15955 -47.6052 0
    endloop
  endfacet
  facet normal 0 0 -1
    outer loop
      vertex 6.84738 -56.8536 0
      vertex 4.92276 -47.9838 0
      vertex 5.53839 -47.8103 0
    endloop
  endfacet
  facet normal 0 0 -1
    outer loop
      vertex 6.84738 -56.8536 0
      vertex 4.31264 -48.1257 0
      vertex 4.92276 -47.9838 0
    endloop
  endfacet
  facet normal 0 0 -1
    outer loop
      vertex 3.70802 -48.2362 0
      vertex 6.84738 -56.8536 0
      vertex 4.103 -57.3387 0
    endloop
  endfacet
  facet normal 0 0 -1
    outer loop
      vertex 6.84738 -56.8536 0
      vertex 3.70802 -48.2362 0
      vertex 4.31264 -48.1257 0
    endloop
  endfacet
  facet normal 0 0 -1
    outer loop
      vertex 4.103 -57.3387 0
      vertex 3.10893 -48.315 0
      vertex 3.70802 -48.2362 0
    endloop
  endfacet
  facet normal 0 0 -1
    outer loop
      vertex 4.103 -57.3387 0
      vertex 2.51535 -48.3624 0
      vertex 3.10893 -48.315 0
    endloop
  endfacet
  facet normal 0 0 -1
    outer loop
      vertex 1.3476 -57.5004 0
      vertex 2.51535 -48.3624 0
      vertex 4.103 -57.3387 0
    endloop
  endfacet
  facet normal 0 0 -1
    outer loop
      vertex 2.51535 -48.3624 0
      vertex 1.3476 -57.5004 0
      vertex 1.92729 -48.3781 0
    endloop
  endfacet
  facet normal 0 0 -1
    outer loop
      vertex 1.3476 -57.5004 0
      vertex 0.469559 -48.2827 0
      vertex 1.92729 -48.3781 0
    endloop
  endfacet
  facet normal 0 0 -1
    outer loop
      vertex -1.44487 -57.3557 0
      vertex 0.469559 -48.2827 0
      vertex 1.3476 -57.5004 0
    endloop
  endfacet
  facet normal -0 0 -1
    outer loop
      vertex 0.469559 -48.2827 0
      vertex -1.44487 -57.3557 0
      vertex -0.877747 -47.9964 0
    endloop
  endfacet
  facet normal 0 0 -1
    outer loop
      vertex -4.05753 -56.9214 0
      vertex -0.877747 -47.9964 0
      vertex -1.44487 -57.3557 0
    endloop
  endfacet
  facet normal -0 0 -1
    outer loop
      vertex -0.877747 -47.9964 0
      vertex -4.05753 -56.9214 0
      vertex -2.11464 -47.5191 0
    endloop
  endfacet
  facet normal 0 0 -1
    outer loop
      vertex -6.49033 -56.1977 0
      vertex -2.11464 -47.5191 0
      vertex -4.05753 -56.9214 0
    endloop
  endfacet
  facet normal -0 0 -1
    outer loop
      vertex -2.11464 -47.5191 0
      vertex -6.49033 -56.1977 0
      vertex -3.24113 -46.851 0
    endloop
  endfacet
  facet normal 0 0 -1
    outer loop
      vertex -8.74329 -55.1845 0
      vertex -3.24113 -46.851 0
      vertex -6.49033 -56.1977 0
    endloop
  endfacet
  facet normal -0 0 -1
    outer loop
      vertex -3.24113 -46.851 0
      vertex -8.74329 -55.1845 0
      vertex -4.2572 -45.992 0
    endloop
  endfacet
  facet normal 0 0 -1
    outer loop
      vertex -10.8164 -53.8818 0
      vertex -4.2572 -45.992 0
      vertex -8.74329 -55.1845 0
    endloop
  endfacet
  facet normal 0 0 -1
    outer loop
      vertex -12.7097 -52.2896 0
      vertex -4.2572 -45.992 0
      vertex -10.8164 -53.8818 0
    endloop
  endfacet
  facet normal -0 0 -1
    outer loop
      vertex -4.2572 -45.992 0
      vertex -12.7097 -52.2896 0
      vertex -5.16284 -44.9421 0
    endloop
  endfacet
  facet normal 0 0 -1
    outer loop
      vertex -14.4231 -50.4079 0
      vertex -5.16284 -44.9421 0
      vertex -12.7097 -52.2896 0
    endloop
  endfacet
  facet normal -0 0 -1
    outer loop
      vertex -5.16284 -44.9421 0
      vertex -14.4231 -50.4079 0
      vertex -5.95807 -43.7013 0
    endloop
  endfacet
  facet normal 0 0 -1
    outer loop
      vertex -15.9306 -48.2626 0
      vertex -5.95807 -43.7013 0
      vertex -14.4231 -50.4079 0
    endloop
  endfacet
  facet normal -0 0 -1
    outer loop
      vertex -6.6451 -42.2846 0
      vertex -17.2061 -45.8799 0
      vertex -7.22641 -40.7069 0
    endloop
  endfacet
  facet normal 0 0 -1
    outer loop
      vertex -17.2061 -45.8799 0
      vertex -6.6451 -42.2846 0
      vertex -15.9306 -48.2626 0
    endloop
  endfacet
  facet normal -0 0 -1
    outer loop
      vertex -5.95807 -43.7013 0
      vertex -15.9306 -48.2626 0
      vertex -6.6451 -42.2846 0
    endloop
  endfacet
  facet normal 0 0 -1
    outer loop
      vertex 9.96713 -45.5179 0
      vertex 20.4038 -49.5768 0
      vertex 17.7146 -51.679 0
    endloop
  endfacet
  facet normal 0 0 -1
    outer loop
      vertex 9.96713 -45.5179 0
      vertex 17.7146 -51.679 0
      vertex 15.0143 -53.4578 0
    endloop
  endfacet
  facet normal 0 0 -1
    outer loop
      vertex 9.96713 -45.5179 0
      vertex 15.0143 -53.4578 0
      vertex 12.303 -54.9131 0
    endloop
  endfacet
  facet normal 0 0 -1
    outer loop
      vertex 20.4038 -49.5768 0
      vertex 9.96713 -45.5179 0
      vertex 9.96713 -36.4344 0
    endloop
  endfacet
  facet normal 0 0 -1
    outer loop
      vertex 20.4038 -49.5768 0
      vertex 9.96713 -36.4344 0
      vertex 20.4038 -28.008 0
    endloop
  endfacet
  facet normal 0 0 -1
    outer loop
      vertex -0.623444 -28.008 0
      vertex 9.96713 -36.4344 0
      vertex -0.623444 -36.4344 0
    endloop
  endfacet
  facet normal 0 0 -1
    outer loop
      vertex 9.96713 -36.4344 0
      vertex -0.623444 -28.008 0
      vertex 20.4038 -28.008 0
    endloop
  endfacet
  facet normal 0 0 -1
    outer loop
      vertex 8.73024 -20.3546 0
      vertex 18.6777 -16.2563 0
      vertex 19.3214 -18.2679 0
    endloop
  endfacet
  facet normal 0 0 -1
    outer loop
      vertex 8.08261 -18.3344 0
      vertex 18.6777 -16.2563 0
      vertex 8.73024 -20.3546 0
    endloop
  endfacet
  facet normal -0 0 -1
    outer loop
      vertex 17.9393 -14.3962 0
      vertex 8.08261 -18.3344 0
      vertex 17.1063 -12.6875 0
    endloop
  endfacet
  facet normal 0 0 -1
    outer loop
      vertex 7.31036 -16.625 0
      vertex 17.1063 -12.6875 0
      vertex 8.08261 -18.3344 0
    endloop
  endfacet
  facet normal -0 0 -1
    outer loop
      vertex 17.1063 -12.6875 0
      vertex 7.31036 -16.625 0
      vertex 16.1785 -11.1304 0
    endloop
  endfacet
  facet normal -0 0 -1
    outer loop
      vertex 16.1785 -11.1304 0
      vertex 7.31036 -16.625 0
      vertex 15.1562 -9.72469 0
    endloop
  endfacet
  facet normal -0 0 -1
    outer loop
      vertex 15.1562 -9.72469 0
      vertex 6.41347 -15.2264 0
      vertex 14.0391 -8.47049 0
    endloop
  endfacet
  facet normal -0 0 -1
    outer loop
      vertex 14.0391 -8.47049 0
      vertex 6.41347 -15.2264 0
      vertex 12.8274 -7.36777 0
    endloop
  endfacet
  facet normal -0 0 -1
    outer loop
      vertex 18.6777 -16.2563 0
      vertex 8.08261 -18.3344 0
      vertex 17.9393 -14.3962 0
    endloop
  endfacet
  facet normal 0 0 -1
    outer loop
      vertex 6.41347 -15.2264 0
      vertex 15.1562 -9.72469 0
      vertex 7.31036 -16.625 0
    endloop
  endfacet
  facet normal 0 0 -1
    outer loop
      vertex 5.39195 -14.1386 0
      vertex 12.8274 -7.36777 0
      vertex 6.41347 -15.2264 0
    endloop
  endfacet
  facet normal -0 0 -1
    outer loop
      vertex 12.8274 -7.36777 0
      vertex 5.39195 -14.1386 0
      vertex 11.5164 -6.414 0
    endloop
  endfacet
  facet normal -0 0 -1
    outer loop
      vertex 11.5164 -6.414 0
      vertex 5.39195 -14.1386 0
      vertex 10.1013 -5.60696 0
    endloop
  endfacet
  facet normal 0 0 -1
    outer loop
      vertex 4.24579 -13.3616 0
      vertex 10.1013 -5.60696 0
      vertex 5.39195 -14.1386 0
    endloop
  endfacet
  facet normal -0 0 -1
    outer loop
      vertex 10.1013 -5.60696 0
      vertex 4.24579 -13.3616 0
      vertex 8.58203 -4.94667 0
    endloop
  endfacet
  facet normal -0 0 -1
    outer loop
      vertex 8.58203 -4.94667 0
      vertex 4.24579 -13.3616 0
      vertex 6.95859 -4.43311 0
    endloop
  endfacet
  facet normal 0 0 -1
    outer loop
      vertex 2.97501 -12.8954 0
      vertex 6.95859 -4.43311 0
      vertex 4.24579 -13.3616 0
    endloop
  endfacet
  facet normal -0 0 -1
    outer loop
      vertex 6.95859 -4.43311 0
      vertex 2.97501 -12.8954 0
      vertex 5.23099 -4.06627 0
    endloop
  endfacet
  facet normal -0 0 -1
    outer loop
      vertex 5.23099 -4.06627 0
      vertex 2.97501 -12.8954 0
      vertex 3.39923 -3.84616 0
    endloop
  endfacet
  facet normal 0 0 -1
    outer loop
      vertex 1.57959 -12.74 0
      vertex 3.39923 -3.84616 0
      vertex 2.97501 -12.8954 0
    endloop
  endfacet
  facet normal 0 0 -1
    outer loop
      vertex 1.57959 -12.74 0
      vertex 1.4633 -3.7728 0
      vertex 3.39923 -3.84616 0
    endloop
  endfacet
  facet normal 0 0 -1
    outer loop
      vertex 0.145035 -12.8252 0
      vertex 1.4633 -3.7728 0
      vertex 1.57959 -12.74 0
    endloop
  endfacet
  facet normal 0 0 -1
    outer loop
      vertex -4.25887 -4.31631 0
      vertex 0.145035 -12.8252 0
      vertex -1.17668 -13.0808 0
    endloop
  endfacet
  facet normal 0 0 -1
    outer loop
      vertex -4.25887 -4.31631 0
      vertex -1.17668 -13.0808 0
      vertex -2.3856 -13.5068 0
    endloop
  endfacet
  facet normal 0 0 -1
    outer loop
      vertex -9.10071 -5.94684 0
      vertex -2.3856 -13.5068 0
      vertex -3.48172 -14.1032 0
    endloop
  endfacet
  facet normal 0 0 -1
    outer loop
      vertex 0.145035 -12.8252 0
      vertex -4.25887 -4.31631 0
      vertex 1.4633 -3.7728 0
    endloop
  endfacet
  facet normal 0 0 -1
    outer loop
      vertex -9.10071 -5.94684 0
      vertex -3.48172 -14.1032 0
      vertex -4.46501 -14.87 0
    endloop
  endfacet
  facet normal 0 0 -1
    outer loop
      vertex -13.0622 -8.6644 0
      vertex -4.46501 -14.87 0
      vertex -5.33549 -15.8071 0
    endloop
  endfacet
  facet normal 0 0 -1
    outer loop
      vertex -13.0622 -8.6644 0
      vertex -5.33549 -15.8071 0
      vertex -6.09317 -16.9147 0
    endloop
  endfacet
  facet normal 0 0 -1
    outer loop
      vertex -16.1434 -12.469 0
      vertex -6.09317 -16.9147 0
      vertex -6.74434 -18.2124 0
    endloop
  endfacet
  facet normal 0 0 -1
    outer loop
      vertex -16.1434 -12.469 0
      vertex -6.74434 -18.2124 0
      vertex -7.29533 -19.7199 0
    endloop
  endfacet
  facet normal 0 0 -1
    outer loop
      vertex -18.3442 -17.3606 0
      vertex -7.29533 -19.7199 0
      vertex -7.74614 -21.4372 0
    endloop
  endfacet
  facet normal 0 0 -1
    outer loop
      vertex -2.3856 -13.5068 0
      vertex -9.10071 -5.94684 0
      vertex -4.25887 -4.31631 0
    endloop
  endfacet
  facet normal 0 0 -1
    outer loop
      vertex -18.3442 -17.3606 0
      vertex -7.74614 -21.4372 0
      vertex -8.09677 -23.3644 0
    endloop
  endfacet
  facet normal 0 0 -1
    outer loop
      vertex -19.6647 -23.3392 0
      vertex -8.09677 -23.3644 0
      vertex -8.34723 -25.5014 0
    endloop
  endfacet
  facet normal 0 0 -1
    outer loop
      vertex -19.6647 -23.3392 0
      vertex -8.34723 -25.5014 0
      vertex -8.4975 -27.8482 0
    endloop
  endfacet
  facet normal 0 0 -1
    outer loop
      vertex -20.1049 -30.4049 0
      vertex -8.4975 -27.8482 0
      vertex -8.54759 -30.4049 0
    endloop
  endfacet
  facet normal 0 0 -1
    outer loop
      vertex -18.2496 -43.2597 0
      vertex -7.22641 -40.7069 0
      vertex -17.2061 -45.8799 0
    endloop
  endfacet
  facet normal -0 0 -1
    outer loop
      vertex -7.22641 -40.7069 0
      vertex -18.2496 -43.2597 0
      vertex -7.70203 -38.9684 0
    endloop
  endfacet
  facet normal 0 0 -1
    outer loop
      vertex -19.0613 -40.4021 0
      vertex -7.70203 -38.9684 0
      vertex -18.2496 -43.2597 0
    endloop
  endfacet
  facet normal -0 0 -1
    outer loop
      vertex -8.4975 -27.8482 0
      vertex -20.1049 -30.4049 0
      vertex -19.6647 -23.3392 0
    endloop
  endfacet
  facet normal -0 0 -1
    outer loop
      vertex -7.70203 -38.9684 0
      vertex -19.0613 -40.4021 0
      vertex -8.07196 -37.0689 0
    endloop
  endfacet
  facet normal 0 0 -1
    outer loop
      vertex -19.6411 -37.3071 0
      vertex -8.07196 -37.0689 0
      vertex -19.0613 -40.4021 0
    endloop
  endfacet
  facet normal 0 0 -1
    outer loop
      vertex -8.09677 -23.3644 0
      vertex -19.6647 -23.3392 0
      vertex -18.3442 -17.3606 0
    endloop
  endfacet
  facet normal -0 0 -1
    outer loop
      vertex -8.07196 -37.0689 0
      vertex -19.6411 -37.3071 0
      vertex -8.3362 -35.0085 0
    endloop
  endfacet
  facet normal 0 0 -1
    outer loop
      vertex -19.989 -33.9747 0
      vertex -8.3362 -35.0085 0
      vertex -19.6411 -37.3071 0
    endloop
  endfacet
  facet normal 0 0 -1
    outer loop
      vertex -7.29533 -19.7199 0
      vertex -18.3442 -17.3606 0
      vertex -16.1434 -12.469 0
    endloop
  endfacet
  facet normal 0 0 -1
    outer loop
      vertex -8.3362 -35.0085 0
      vertex -19.989 -33.9747 0
      vertex -8.49474 -32.7872 0
    endloop
  endfacet
  facet normal 0 0 -1
    outer loop
      vertex -20.1049 -30.4049 0
      vertex -8.49474 -32.7872 0
      vertex -19.989 -33.9747 0
    endloop
  endfacet
  facet normal 0 0 -1
    outer loop
      vertex -8.49474 -32.7872 0
      vertex -20.1049 -30.4049 0
      vertex -8.54759 -30.4049 0
    endloop
  endfacet
  facet normal 0 0 -1
    outer loop
      vertex -6.09317 -16.9147 0
      vertex -16.1434 -12.469 0
      vertex -13.0622 -8.6644 0
    endloop
  endfacet
  facet normal 0 0 -1
    outer loop
      vertex -4.46501 -14.87 0
      vertex -13.0622 -8.6644 0
      vertex -9.10071 -5.94684 0
    endloop
  endfacet
  facet normal 0 0 1
    outer loop
      vertex 8.08261 -18.3344 1
      vertex 18.6777 -16.2563 1
      vertex 17.9393 -14.3962 1
    endloop
  endfacet
  facet normal 0 0 1
    outer loop
      vertex 8.08261 -18.3344 1
      vertex 17.9393 -14.3962 1
      vertex 17.1063 -12.6875 1
    endloop
  endfacet
  facet normal 0 0 1
    outer loop
      vertex 7.31036 -16.625 1
      vertex 17.1063 -12.6875 1
      vertex 16.1785 -11.1304 1
    endloop
  endfacet
  facet normal 0 0 1
    outer loop
      vertex 7.31036 -16.625 1
      vertex 16.1785 -11.1304 1
      vertex 15.1562 -9.72469 1
    endloop
  endfacet
  facet normal 0 0 1
    outer loop
      vertex 6.41347 -15.2264 1
      vertex 15.1562 -9.72469 1
      vertex 14.0391 -8.47049 1
    endloop
  endfacet
  facet normal 0 0 1
    outer loop
      vertex 6.41347 -15.2264 1
      vertex 14.0391 -8.47049 1
      vertex 12.8274 -7.36777 1
    endloop
  endfacet
  facet normal 0 0 1
    outer loop
      vertex 5.39195 -14.1386 1
      vertex 12.8274 -7.36777 1
      vertex 11.5164 -6.414 1
    endloop
  endfacet
  facet normal 0 0 1
    outer loop
      vertex 5.39195 -14.1386 1
      vertex 11.5164 -6.414 1
      vertex 10.1013 -5.60696 1
    endloop
  endfacet
  facet normal 0 0 1
    outer loop
      vertex 17.1063 -12.6875 1
      vertex 7.31036 -16.625 1
      vertex 8.08261 -18.3344 1
    endloop
  endfacet
  facet normal 0 0 1
    outer loop
      vertex 4.24579 -13.3616 1
      vertex 10.1013 -5.60696 1
      vertex 8.58203 -4.94667 1
    endloop
  endfacet
  facet normal 0 0 1
    outer loop
      vertex 18.6777 -16.2563 1
      vertex 8.73024 -20.3546 1
      vertex 19.3214 -18.2679 1
    endloop
  endfacet
  facet normal 0 0 1
    outer loop
      vertex 18.6777 -16.2563 1
      vertex 8.08261 -18.3344 1
      vertex 8.73024 -20.3546 1
    endloop
  endfacet
  facet normal 0 0 1
    outer loop
      vertex 4.24579 -13.3616 1
      vertex 8.58203 -4.94667 1
      vertex 6.95859 -4.43311 1
    endloop
  endfacet
  facet normal 0 0 1
    outer loop
      vertex 15.1562 -9.72469 1
      vertex 6.41347 -15.2264 1
      vertex 7.31036 -16.625 1
    endloop
  endfacet
  facet normal 0 0 1
    outer loop
      vertex 12.8274 -7.36777 1
      vertex 5.39195 -14.1386 1
      vertex 6.41347 -15.2264 1
    endloop
  endfacet
  facet normal 0 0 1
    outer loop
      vertex 2.97501 -12.8954 1
      vertex 6.95859 -4.43311 1
      vertex 5.23099 -4.06627 1
    endloop
  endfacet
  facet normal 0 0 1
    outer loop
      vertex 10.1013 -5.60696 1
      vertex 4.24579 -13.3616 1
      vertex 5.39195 -14.1386 1
    endloop
  endfacet
  facet normal 0 0 1
    outer loop
      vertex 2.97501 -12.8954 1
      vertex 5.23099 -4.06627 1
      vertex 3.39923 -3.84616 1
    endloop
  endfacet
  facet normal 0 0 1
    outer loop
      vertex 6.95859 -4.43311 1
      vertex 2.97501 -12.8954 1
      vertex 4.24579 -13.3616 1
    endloop
  endfacet
  facet normal 0 0 1
    outer loop
      vertex 3.39923 -3.84616 1
      vertex 1.57959 -12.74 1
      vertex 2.97501 -12.8954 1
    endloop
  endfacet
  facet normal 0 0 1
    outer loop
      vertex 1.4633 -3.7728 1
      vertex 1.57959 -12.74 1
      vertex 3.39923 -3.84616 1
    endloop
  endfacet
  facet normal 0 0 1
    outer loop
      vertex 1.4633 -3.7728 1
      vertex 0.145035 -12.8252 1
      vertex 1.57959 -12.74 1
    endloop
  endfacet
  facet normal -0 0 1
    outer loop
      vertex -4.25887 -4.31631 1
      vertex 0.145035 -12.8252 1
      vertex 1.4633 -3.7728 1
    endloop
  endfacet
  facet normal 0 0 1
    outer loop
      vertex 0.145035 -12.8252 1
      vertex -4.25887 -4.31631 1
      vertex -1.17668 -13.0808 1
    endloop
  endfacet
  facet normal 0 0 1
    outer loop
      vertex -1.17668 -13.0808 1
      vertex -4.25887 -4.31631 1
      vertex -2.3856 -13.5068 1
    endloop
  endfacet
  facet normal -0 0 1
    outer loop
      vertex -9.10071 -5.94684 1
      vertex -2.3856 -13.5068 1
      vertex -4.25887 -4.31631 1
    endloop
  endfacet
  facet normal 0 0 1
    outer loop
      vertex -2.3856 -13.5068 1
      vertex -9.10071 -5.94684 1
      vertex -3.48172 -14.1032 1
    endloop
  endfacet
  facet normal 0 0 1
    outer loop
      vertex -3.48172 -14.1032 1
      vertex -9.10071 -5.94684 1
      vertex -4.46501 -14.87 1
    endloop
  endfacet
  facet normal -0 0 1
    outer loop
      vertex -13.0622 -8.6644 1
      vertex -4.46501 -14.87 1
      vertex -9.10071 -5.94684 1
    endloop
  endfacet
  facet normal 0 0 1
    outer loop
      vertex -4.46501 -14.87 1
      vertex -13.0622 -8.6644 1
      vertex -5.33549 -15.8071 1
    endloop
  endfacet
  facet normal 0 0 1
    outer loop
      vertex -5.33549 -15.8071 1
      vertex -13.0622 -8.6644 1
      vertex -6.09317 -16.9147 1
    endloop
  endfacet
  facet normal -0 0 1
    outer loop
      vertex -16.1434 -12.469 1
      vertex -6.09317 -16.9147 1
      vertex -13.0622 -8.6644 1
    endloop
  endfacet
  facet normal 0 0 1
    outer loop
      vertex -6.09317 -16.9147 1
      vertex -16.1434 -12.469 1
      vertex -6.74434 -18.2124 1
    endloop
  endfacet
  facet normal 0 0 1
    outer loop
      vertex -6.74434 -18.2124 1
      vertex -16.1434 -12.469 1
      vertex -7.29533 -19.7199 1
    endloop
  endfacet
  facet normal -0 0 1
    outer loop
      vertex -18.3442 -17.3606 1
      vertex -7.29533 -19.7199 1
      vertex -16.1434 -12.469 1
    endloop
  endfacet
  facet normal 0 0 1
    outer loop
      vertex -7.29533 -19.7199 1
      vertex -18.3442 -17.3606 1
      vertex -7.74614 -21.4372 1
    endloop
  endfacet
  facet normal 0 0 1
    outer loop
      vertex -7.74614 -21.4372 1
      vertex -18.3442 -17.3606 1
      vertex -8.09677 -23.3644 1
    endloop
  endfacet
  facet normal -0 0 1
    outer loop
      vertex -19.6647 -23.3392 1
      vertex -8.09677 -23.3644 1
      vertex -18.3442 -17.3606 1
    endloop
  endfacet
  facet normal 0 -0 1
    outer loop
      vertex -19.989 -33.9747 1
      vertex -8.54759 -30.4049 1
      vertex -20.1049 -30.4049 1
    endloop
  endfacet
  facet normal 0 -0 1
    outer loop
      vertex -19.6411 -37.3071 1
      vertex -8.54759 -30.4049 1
      vertex -19.989 -33.9747 1
    endloop
  endfacet
  facet normal 0 0 1
    outer loop
      vertex -8.09677 -23.3644 1
      vertex -19.6647 -23.3392 1
      vertex -8.34723 -25.5014 1
    endloop
  endfacet
  facet normal 0 -0 1
    outer loop
      vertex -19.0613 -40.4021 1
      vertex -8.54759 -30.4049 1
      vertex -19.6411 -37.3071 1
    endloop
  endfacet
  facet normal 0 -0 1
    outer loop
      vertex -18.2496 -43.2597 1
      vertex -8.54759 -30.4049 1
      vertex -19.0613 -40.4021 1
    endloop
  endfacet
  facet normal 0 0 1
    outer loop
      vertex -8.34723 -25.5014 1
      vertex -19.6647 -23.3392 1
      vertex -8.4975 -27.8482 1
    endloop
  endfacet
  facet normal 0 -0 1
    outer loop
      vertex -17.2061 -45.8799 1
      vertex -8.54759 -30.4049 1
      vertex -18.2496 -43.2597 1
    endloop
  endfacet
  facet normal 0 -0 1
    outer loop
      vertex -15.9306 -48.2626 1
      vertex -8.54759 -30.4049 1
      vertex -17.2061 -45.8799 1
    endloop
  endfacet
  facet normal 0 0 1
    outer loop
      vertex -20.1049 -30.4049 1
      vertex -8.4975 -27.8482 1
      vertex -19.6647 -23.3392 1
    endloop
  endfacet
  facet normal 0 -0 1
    outer loop
      vertex -14.4231 -50.4079 1
      vertex -8.54759 -30.4049 1
      vertex -15.9306 -48.2626 1
    endloop
  endfacet
  facet normal 0 0 1
    outer loop
      vertex -8.54759 -30.4049 1
      vertex -10.8164 -53.8818 1
      vertex -8.74329 -55.1845 1
    endloop
  endfacet
  facet normal 0 0 1
    outer loop
      vertex -8.4975 -27.8482 1
      vertex -20.1049 -30.4049 1
      vertex -8.54759 -30.4049 1
    endloop
  endfacet
  facet normal 0 -0 1
    outer loop
      vertex -12.7097 -52.2896 1
      vertex -8.54759 -30.4049 1
      vertex -14.4231 -50.4079 1
    endloop
  endfacet
  facet normal 0 0 1
    outer loop
      vertex -8.54759 -30.4049 1
      vertex -12.7097 -52.2896 1
      vertex -10.8164 -53.8818 1
    endloop
  endfacet
  facet normal -0 0 1
    outer loop
      vertex 9.96713 -36.4344 1
      vertex 20.4038 -49.5768 1
      vertex 20.4038 -28.008 1
    endloop
  endfacet
  facet normal -0 0 1
    outer loop
      vertex 9.96713 -45.5179 1
      vertex 20.4038 -49.5768 1
      vertex 9.96713 -36.4344 1
    endloop
  endfacet
  facet normal 0 0 1
    outer loop
      vertex 17.7146 -51.679 1
      vertex 9.96713 -45.5179 1
      vertex 15.0143 -53.4578 1
    endloop
  endfacet
  facet normal 0 0 1
    outer loop
      vertex 20.4038 -49.5768 1
      vertex 9.96713 -45.5179 1
      vertex 17.7146 -51.679 1
    endloop
  endfacet
  facet normal -0 0 1
    outer loop
      vertex -0.623444 -28.008 1
      vertex 9.96713 -36.4344 1
      vertex 20.4038 -28.008 1
    endloop
  endfacet
  facet normal 0 0 1
    outer loop
      vertex 9.96713 -36.4344 1
      vertex -0.623444 -28.008 1
      vertex -0.623444 -36.4344 1
    endloop
  endfacet
  facet normal -0 0 1
    outer loop
      vertex 9.49188 -45.8824 1
      vertex 15.0143 -53.4578 1
      vertex 9.96713 -45.5179 1
    endloop
  endfacet
  facet normal -0 0 1
    outer loop
      vertex 8.99371 -46.2248 1
      vertex 15.0143 -53.4578 1
      vertex 9.49188 -45.8824 1
    endloop
  endfacet
  facet normal 0 0 1
    outer loop
      vertex 15.0143 -53.4578 1
      vertex 8.99371 -46.2248 1
      vertex 12.303 -54.9131 1
    endloop
  endfacet
  facet normal -0 0 1
    outer loop
      vertex 8.47267 -46.5451 1
      vertex 12.303 -54.9131 1
      vertex 8.99371 -46.2248 1
    endloop
  endfacet
  facet normal -0 0 1
    outer loop
      vertex 7.92873 -46.8432 1
      vertex 12.303 -54.9131 1
      vertex 8.47267 -46.5451 1
    endloop
  endfacet
  facet normal -0 0 1
    outer loop
      vertex 7.36189 -47.1193 1
      vertex 12.303 -54.9131 1
      vertex 7.92873 -46.8432 1
    endloop
  endfacet
  facet normal 0 0 1
    outer loop
      vertex 12.303 -54.9131 1
      vertex 7.36189 -47.1193 1
      vertex 9.58072 -56.0451 1
    endloop
  endfacet
  facet normal -0 0 1
    outer loop
      vertex 6.77216 -47.3733 1
      vertex 9.58072 -56.0451 1
      vertex 7.36189 -47.1193 1
    endloop
  endfacet
  facet normal -0 0 1
    outer loop
      vertex 6.15955 -47.6052 1
      vertex 9.58072 -56.0451 1
      vertex 6.77216 -47.3733 1
    endloop
  endfacet
  facet normal -0 0 1
    outer loop
      vertex 5.53839 -47.8103 1
      vertex 9.58072 -56.0451 1
      vertex 6.15955 -47.6052 1
    endloop
  endfacet
  facet normal 0 0 1
    outer loop
      vertex 9.58072 -56.0451 1
      vertex 5.53839 -47.8103 1
      vertex 6.84738 -56.8536 1
    endloop
  endfacet
  facet normal -0 0 1
    outer loop
      vertex 4.92276 -47.9838 1
      vertex 6.84738 -56.8536 1
      vertex 5.53839 -47.8103 1
    endloop
  endfacet
  facet normal -0 0 1
    outer loop
      vertex 4.31264 -48.1257 1
      vertex 6.84738 -56.8536 1
      vertex 4.92276 -47.9838 1
    endloop
  endfacet
  facet normal -0 0 1
    outer loop
      vertex 3.70802 -48.2362 1
      vertex 6.84738 -56.8536 1
      vertex 4.31264 -48.1257 1
    endloop
  endfacet
  facet normal 0 0 1
    outer loop
      vertex 6.84738 -56.8536 1
      vertex 3.70802 -48.2362 1
      vertex 4.103 -57.3387 1
    endloop
  endfacet
  facet normal -0 0 1
    outer loop
      vertex 3.10893 -48.315 1
      vertex 4.103 -57.3387 1
      vertex 3.70802 -48.2362 1
    endloop
  endfacet
  facet normal -0 0 1
    outer loop
      vertex 2.51535 -48.3624 1
      vertex 4.103 -57.3387 1
      vertex 3.10893 -48.315 1
    endloop
  endfacet
  facet normal 0 0 1
    outer loop
      vertex 1.3476 -57.5004 1
      vertex 2.51535 -48.3624 1
      vertex 1.92729 -48.3781 1
    endloop
  endfacet
  facet normal 0 0 1
    outer loop
      vertex 2.51535 -48.3624 1
      vertex 1.3476 -57.5004 1
      vertex 4.103 -57.3387 1
    endloop
  endfacet
  facet normal 0 0 1
    outer loop
      vertex 0.469559 -48.2827 1
      vertex 1.3476 -57.5004 1
      vertex 1.92729 -48.3781 1
    endloop
  endfacet
  facet normal 0 0 1
    outer loop
      vertex -1.44487 -57.3557 1
      vertex 0.469559 -48.2827 1
      vertex -0.877747 -47.9964 1
    endloop
  endfacet
  facet normal 0 0 1
    outer loop
      vertex 0.469559 -48.2827 1
      vertex -1.44487 -57.3557 1
      vertex 1.3476 -57.5004 1
    endloop
  endfacet
  facet normal 0 0 1
    outer loop
      vertex -4.05753 -56.9214 1
      vertex -0.877747 -47.9964 1
      vertex -2.11464 -47.5191 1
    endloop
  endfacet
  facet normal 0 0 1
    outer loop
      vertex -6.49033 -56.1977 1
      vertex -2.11464 -47.5191 1
      vertex -3.24113 -46.851 1
    endloop
  endfacet
  facet normal 0 0 1
    outer loop
      vertex -0.877747 -47.9964 1
      vertex -4.05753 -56.9214 1
      vertex -1.44487 -57.3557 1
    endloop
  endfacet
  facet normal 0 0 1
    outer loop
      vertex -8.74329 -55.1845 1
      vertex -3.24113 -46.851 1
      vertex -4.2572 -45.992 1
    endloop
  endfacet
  facet normal 0 0 1
    outer loop
      vertex -8.74329 -55.1845 1
      vertex -4.2572 -45.992 1
      vertex -5.16284 -44.9421 1
    endloop
  endfacet
  facet normal 0 0 1
    outer loop
      vertex -8.74329 -55.1845 1
      vertex -5.16284 -44.9421 1
      vertex -5.95807 -43.7013 1
    endloop
  endfacet
  facet normal 0 0 1
    outer loop
      vertex -2.11464 -47.5191 1
      vertex -6.49033 -56.1977 1
      vertex -4.05753 -56.9214 1
    endloop
  endfacet
  facet normal 0 0 1
    outer loop
      vertex -8.74329 -55.1845 1
      vertex -5.95807 -43.7013 1
      vertex -6.6451 -42.2846 1
    endloop
  endfacet
  facet normal 0 0 1
    outer loop
      vertex -8.74329 -55.1845 1
      vertex -6.6451 -42.2846 1
      vertex -7.22641 -40.7069 1
    endloop
  endfacet
  facet normal 0 0 1
    outer loop
      vertex -8.74329 -55.1845 1
      vertex -7.22641 -40.7069 1
      vertex -7.70203 -38.9684 1
    endloop
  endfacet
  facet normal 0 0 1
    outer loop
      vertex -8.74329 -55.1845 1
      vertex -7.70203 -38.9684 1
      vertex -8.07196 -37.0689 1
    endloop
  endfacet
  facet normal 0 0 1
    outer loop
      vertex -8.74329 -55.1845 1
      vertex -8.07196 -37.0689 1
      vertex -8.3362 -35.0085 1
    endloop
  endfacet
  facet normal 0 0 1
    outer loop
      vertex -3.24113 -46.851 1
      vertex -8.74329 -55.1845 1
      vertex -6.49033 -56.1977 1
    endloop
  endfacet
  facet normal 0 0 1
    outer loop
      vertex -8.49474 -32.7872 1
      vertex -8.74329 -55.1845 1
      vertex -8.3362 -35.0085 1
    endloop
  endfacet
  facet normal 0 0 1
    outer loop
      vertex -8.74329 -55.1845 1
      vertex -8.49474 -32.7872 1
      vertex -8.54759 -30.4049 1
    endloop
  endfacet
  facet normal 0.174063 -0.984735 0
    outer loop
      vertex 4.103 -57.3387 0
      vertex 6.84738 -56.8536 1
      vertex 4.103 -57.3387 1
    endloop
  endfacet
  facet normal 0.174063 -0.984735 0
    outer loop
      vertex 6.84738 -56.8536 1
      vertex 4.103 -57.3387 0
      vertex 6.84738 -56.8536 0
    endloop
  endfacet
  facet normal 0.283644 -0.95893 0
    outer loop
      vertex 6.84738 -56.8536 0
      vertex 9.58072 -56.0451 1
      vertex 6.84738 -56.8536 1
    endloop
  endfacet
  facet normal 0.283644 -0.95893 0
    outer loop
      vertex 9.58072 -56.0451 1
      vertex 6.84738 -56.8536 0
      vertex 9.58072 -56.0451 0
    endloop
  endfacet
  facet normal 0.383955 -0.923352 0
    outer loop
      vertex 9.58072 -56.0451 0
      vertex 12.303 -54.9131 1
      vertex 9.58072 -56.0451 1
    endloop
  endfacet
  facet normal 0.383955 -0.923352 0
    outer loop
      vertex 12.303 -54.9131 1
      vertex 9.58072 -56.0451 0
      vertex 12.303 -54.9131 0
    endloop
  endfacet
  facet normal 0.472933 -0.881099 0
    outer loop
      vertex 12.303 -54.9131 0
      vertex 15.0143 -53.4578 1
      vertex 12.303 -54.9131 1
    endloop
  endfacet
  facet normal 0.472933 -0.881099 0
    outer loop
      vertex 15.0143 -53.4578 1
      vertex 12.303 -54.9131 0
      vertex 15.0143 -53.4578 0
    endloop
  endfacet
  facet normal 0.55011 -0.835092 0
    outer loop
      vertex 15.0143 -53.4578 0
      vertex 17.7146 -51.679 1
      vertex 15.0143 -53.4578 1
    endloop
  endfacet
  facet normal 0.55011 -0.835092 0
    outer loop
      vertex 17.7146 -51.679 1
      vertex 15.0143 -53.4578 0
      vertex 17.7146 -51.679 0
    endloop
  endfacet
  facet normal 0.615874 -0.787845 0
    outer loop
      vertex 17.7146 -51.679 0
      vertex 20.4038 -49.5768 1
      vertex 17.7146 -51.679 1
    endloop
  endfacet
  facet normal 0.615874 -0.787845 0
    outer loop
      vertex 20.4038 -49.5768 1
      vertex 17.7146 -51.679 0
      vertex 20.4038 -49.5768 0
    endloop
  endfacet
  facet normal 1 -0 0
    outer loop
      vertex 20.4038 -49.5768 1
      vertex 20.4038 -28.008 0
      vertex 20.4038 -28.008 1
    endloop
  endfacet
  facet normal 1 0 0
    outer loop
      vertex 20.4038 -28.008 0
      vertex 20.4038 -49.5768 1
      vertex 20.4038 -49.5768 0
    endloop
  endfacet
  facet normal 0 1 -0
    outer loop
      vertex 20.4038 -28.008 0
      vertex -0.623444 -28.008 1
      vertex 20.4038 -28.008 1
    endloop
  endfacet
  facet normal 0 1 0
    outer loop
      vertex -0.623444 -28.008 1
      vertex 20.4038 -28.008 0
      vertex -0.623444 -28.008 0
    endloop
  endfacet
  facet normal -1 0 0
    outer loop
      vertex -0.623444 -36.4344 0
      vertex -0.623444 -28.008 1
      vertex -0.623444 -28.008 0
    endloop
  endfacet
  facet normal -1 -0 0
    outer loop
      vertex -0.623444 -28.008 1
      vertex -0.623444 -36.4344 0
      vertex -0.623444 -36.4344 1
    endloop
  endfacet
  facet normal 0 -1 0
    outer loop
      vertex -0.623444 -36.4344 0
      vertex 9.96713 -36.4344 1
      vertex -0.623444 -36.4344 1
    endloop
  endfacet
  facet normal 0 -1 -0
    outer loop
      vertex 9.96713 -36.4344 1
      vertex -0.623444 -36.4344 0
      vertex 9.96713 -36.4344 0
    endloop
  endfacet
  facet normal -1 0 0
    outer loop
      vertex 9.96713 -45.5179 0
      vertex 9.96713 -36.4344 1
      vertex 9.96713 -36.4344 0
    endloop
  endfacet
  facet normal -1 -0 0
    outer loop
      vertex 9.96713 -36.4344 1
      vertex 9.96713 -45.5179 0
      vertex 9.96713 -45.5179 1
    endloop
  endfacet
  facet normal -0.608581 0.793492 0
    outer loop
      vertex 9.96713 -45.5179 0
      vertex 9.49188 -45.8824 1
      vertex 9.96713 -45.5179 1
    endloop
  endfacet
  facet normal -0.608581 0.793492 0
    outer loop
      vertex 9.49188 -45.8824 1
      vertex 9.96713 -45.5179 0
      vertex 9.49188 -45.8824 0
    endloop
  endfacet
  facet normal -0.566426 0.824113 0
    outer loop
      vertex 9.49188 -45.8824 0
      vertex 8.99371 -46.2248 1
      vertex 9.49188 -45.8824 1
    endloop
  endfacet
  facet normal -0.566426 0.824113 0
    outer loop
      vertex 8.99371 -46.2248 1
      vertex 9.49188 -45.8824 0
      vertex 8.99371 -46.2248 0
    endloop
  endfacet
  facet normal -0.523694 0.851906 0
    outer loop
      vertex 8.99371 -46.2248 0
      vertex 8.47267 -46.5451 1
      vertex 8.99371 -46.2248 1
    endloop
  endfacet
  facet normal -0.523694 0.851906 0
    outer loop
      vertex 8.47267 -46.5451 1
      vertex 8.99371 -46.2248 0
      vertex 8.47267 -46.5451 0
    endloop
  endfacet
  facet normal -0.480597 0.876941 0
    outer loop
      vertex 8.47267 -46.5451 0
      vertex 7.92873 -46.8432 1
      vertex 8.47267 -46.5451 1
    endloop
  endfacet
  facet normal -0.480597 0.876941 0
    outer loop
      vertex 7.92873 -46.8432 1
      vertex 8.47267 -46.5451 0
      vertex 7.92873 -46.8432 0
    endloop
  endfacet
  facet normal -0.437902 0.899023 0
    outer loop
      vertex 7.92873 -46.8432 0
      vertex 7.36189 -47.1193 1
      vertex 7.92873 -46.8432 1
    endloop
  endfacet
  facet normal -0.437902 0.899023 0
    outer loop
      vertex 7.36189 -47.1193 1
      vertex 7.92873 -46.8432 0
      vertex 7.36189 -47.1193 0
    endloop
  endfacet
  facet normal -0.395575 0.918434 0
    outer loop
      vertex 7.36189 -47.1193 0
      vertex 6.77216 -47.3733 1
      vertex 7.36189 -47.1193 1
    endloop
  endfacet
  facet normal -0.395575 0.918434 0
    outer loop
      vertex 6.77216 -47.3733 1
      vertex 7.36189 -47.1193 0
      vertex 6.77216 -47.3733 0
    endloop
  endfacet
  facet normal -0.354028 0.935235 0
    outer loop
      vertex 6.77216 -47.3733 0
      vertex 6.15955 -47.6052 1
      vertex 6.77216 -47.3733 1
    endloop
  endfacet
  facet normal -0.354028 0.935235 0
    outer loop
      vertex 6.15955 -47.6052 1
      vertex 6.77216 -47.3733 0
      vertex 6.15955 -47.6052 0
    endloop
  endfacet
  facet normal -0.313539 0.949575 0
    outer loop
      vertex 6.15955 -47.6052 0
      vertex 5.53839 -47.8103 1
      vertex 6.15955 -47.6052 1
    endloop
  endfacet
  facet normal -0.313539 0.949575 0
    outer loop
      vertex 5.53839 -47.8103 1
      vertex 6.15955 -47.6052 0
      vertex 5.53839 -47.8103 0
    endloop
  endfacet
  facet normal -0.271259 0.962507 0
    outer loop
      vertex 5.53839 -47.8103 0
      vertex 4.92276 -47.9838 1
      vertex 5.53839 -47.8103 1
    endloop
  endfacet
  facet normal -0.271259 0.962507 0
    outer loop
      vertex 4.92276 -47.9838 1
      vertex 5.53839 -47.8103 0
      vertex 4.92276 -47.9838 0
    endloop
  endfacet
  facet normal -0.226531 0.974004 0
    outer loop
      vertex 4.92276 -47.9838 0
      vertex 4.31264 -48.1257 1
      vertex 4.92276 -47.9838 1
    endloop
  endfacet
  facet normal -0.226531 0.974004 0
    outer loop
      vertex 4.31264 -48.1257 1
      vertex 4.92276 -47.9838 0
      vertex 4.31264 -48.1257 0
    endloop
  endfacet
  facet normal -0.179782 0.983707 0
    outer loop
      vertex 4.31264 -48.1257 0
      vertex 3.70802 -48.2362 1
      vertex 4.31264 -48.1257 1
    endloop
  endfacet
  facet normal -0.179782 0.983707 0
    outer loop
      vertex 3.70802 -48.2362 1
      vertex 4.31264 -48.1257 0
      vertex 3.70802 -48.2362 0
    endloop
  endfacet
  facet normal -0.13041 0.99146 0
    outer loop
      vertex 3.70802 -48.2362 0
      vertex 3.10893 -48.315 1
      vertex 3.70802 -48.2362 1
    endloop
  endfacet
  facet normal -0.13041 0.99146 0
    outer loop
      vertex 3.10893 -48.315 1
      vertex 3.70802 -48.2362 0
      vertex 3.10893 -48.315 0
    endloop
  endfacet
  facet normal -0.079601 0.996827 0
    outer loop
      vertex 3.10893 -48.315 0
      vertex 2.51535 -48.3624 1
      vertex 3.10893 -48.315 1
    endloop
  endfacet
  facet normal -0.079601 0.996827 0
    outer loop
      vertex 2.51535 -48.3624 1
      vertex 3.10893 -48.315 0
      vertex 2.51535 -48.3624 0
    endloop
  endfacet
  facet normal -0.0266884 0.999644 0
    outer loop
      vertex 2.51535 -48.3624 0
      vertex 1.92729 -48.3781 1
      vertex 2.51535 -48.3624 1
    endloop
  endfacet
  facet normal -0.0266884 0.999644 0
    outer loop
      vertex 1.92729 -48.3781 1
      vertex 2.51535 -48.3624 0
      vertex 1.92729 -48.3781 0
    endloop
  endfacet
  facet normal 0.0653045 0.997865 -0
    outer loop
      vertex 1.92729 -48.3781 0
      vertex 0.469559 -48.2827 1
      vertex 1.92729 -48.3781 1
    endloop
  endfacet
  facet normal 0.0653045 0.997865 0
    outer loop
      vertex 0.469559 -48.2827 1
      vertex 1.92729 -48.3781 0
      vertex 0.469559 -48.2827 0
    endloop
  endfacet
  facet normal 0.207857 0.978159 -0
    outer loop
      vertex 0.469559 -48.2827 0
      vertex -0.877747 -47.9964 1
      vertex 0.469559 -48.2827 1
    endloop
  endfacet
  facet normal 0.207857 0.978159 0
    outer loop
      vertex -0.877747 -47.9964 1
      vertex 0.469559 -48.2827 0
      vertex -0.877747 -47.9964 0
    endloop
  endfacet
  facet normal 0.360012 0.932948 -0
    outer loop
      vertex -0.877747 -47.9964 0
      vertex -2.11464 -47.5191 1
      vertex -0.877747 -47.9964 1
    endloop
  endfacet
  facet normal 0.360012 0.932948 0
    outer loop
      vertex -2.11464 -47.5191 1
      vertex -0.877747 -47.9964 0
      vertex -2.11464 -47.5191 0
    endloop
  endfacet
  facet normal 0.510113 0.860107 -0
    outer loop
      vertex -2.11464 -47.5191 0
      vertex -3.24113 -46.851 1
      vertex -2.11464 -47.5191 1
    endloop
  endfacet
  facet normal 0.510113 0.860107 0
    outer loop
      vertex -3.24113 -46.851 1
      vertex -2.11464 -47.5191 0
      vertex -3.24113 -46.851 0
    endloop
  endfacet
  facet normal 0.645613 0.763665 -0
    outer loop
      vertex -3.24113 -46.851 0
      vertex -4.2572 -45.992 1
      vertex -3.24113 -46.851 1
    endloop
  endfacet
  facet normal 0.645613 0.763665 0
    outer loop
      vertex -4.2572 -45.992 1
      vertex -3.24113 -46.851 0
      vertex -4.2572 -45.992 0
    endloop
  endfacet
  facet normal 0.757212 0.653169 0
    outer loop
      vertex -4.2572 -45.992 1
      vertex -5.16284 -44.9421 0
      vertex -5.16284 -44.9421 1
    endloop
  endfacet
  facet normal 0.757212 0.653169 0
    outer loop
      vertex -5.16284 -44.9421 0
      vertex -4.2572 -45.992 1
      vertex -4.2572 -45.992 0
    endloop
  endfacet
  facet normal 0.841927 0.539592 0
    outer loop
      vertex -5.16284 -44.9421 1
      vertex -5.95807 -43.7013 0
      vertex -5.95807 -43.7013 1
    endloop
  endfacet
  facet normal 0.841927 0.539592 0
    outer loop
      vertex -5.95807 -43.7013 0
      vertex -5.16284 -44.9421 1
      vertex -5.16284 -44.9421 0
    endloop
  endfacet
  facet normal 0.899778 0.436348 0
    outer loop
      vertex -5.95807 -43.7013 1
      vertex -6.6451 -42.2846 0
      vertex -6.6451 -42.2846 1
    endloop
  endfacet
  facet normal 0.899778 0.436348 0
    outer loop
      vertex -6.6451 -42.2846 0
      vertex -5.95807 -43.7013 1
      vertex -5.95807 -43.7013 0
    endloop
  endfacet
  facet normal 0.938333 0.345733 0
    outer loop
      vertex -6.6451 -42.2846 1
      vertex -7.22641 -40.7069 0
      vertex -7.22641 -40.7069 1
    endloop
  endfacet
  facet normal 0.938333 0.345733 0
    outer loop
      vertex -7.22641 -40.7069 0
      vertex -6.6451 -42.2846 1
      vertex -6.6451 -42.2846 0
    endloop
  endfacet
  facet normal 0.964555 0.263883 0
    outer loop
      vertex -7.22641 -40.7069 1
      vertex -7.70203 -38.9684 0
      vertex -7.70203 -38.9684 1
    endloop
  endfacet
  facet normal 0.964555 0.263883 0
    outer loop
      vertex -7.70203 -38.9684 0
      vertex -7.22641 -40.7069 1
      vertex -7.22641 -40.7069 0
    endloop
  endfacet
  facet normal 0.981559 0.19116 0
    outer loop
      vertex -7.70203 -38.9684 1
      vertex -8.07196 -37.0689 0
      vertex -8.07196 -37.0689 1
    endloop
  endfacet
  facet normal 0.981559 0.19116 0
    outer loop
      vertex -8.07196 -37.0689 0
      vertex -7.70203 -38.9684 1
      vertex -7.70203 -38.9684 0
    endloop
  endfacet
  facet normal 0.991876 0.127205 0
    outer loop
      vertex -8.07196 -37.0689 1
      vertex -8.3362 -35.0085 0
      vertex -8.3362 -35.0085 1
    endloop
  endfacet
  facet normal 0.991876 0.127205 0
    outer loop
      vertex -8.3362 -35.0085 0
      vertex -8.07196 -37.0689 1
      vertex -8.07196 -37.0689 0
    endloop
  endfacet
  facet normal 0.997463 0.0711915 0
    outer loop
      vertex -8.3362 -35.0085 1
      vertex -8.49474 -32.7872 0
      vertex -8.49474 -32.7872 1
    endloop
  endfacet
  facet normal 0.997463 0.0711915 0
    outer loop
      vertex -8.49474 -32.7872 0
      vertex -8.3362 -35.0085 1
      vertex -8.3362 -35.0085 0
    endloop
  endfacet
  facet normal 0.999754 0.022179 0
    outer loop
      vertex -8.49474 -32.7872 1
      vertex -8.54759 -30.4049 0
      vertex -8.54759 -30.4049 1
    endloop
  endfacet
  facet normal 0.999754 0.022179 0
    outer loop
      vertex -8.54759 -30.4049 0
      vertex -8.49474 -32.7872 1
      vertex -8.49474 -32.7872 0
    endloop
  endfacet
  facet normal 0.999808 -0.0195879 0
    outer loop
      vertex -8.54759 -30.4049 1
      vertex -8.4975 -27.8482 0
      vertex -8.4975 -27.8482 1
    endloop
  endfacet
  facet normal 0.999808 -0.0195879 0
    outer loop
      vertex -8.4975 -27.8482 0
      vertex -8.54759 -30.4049 1
      vertex -8.54759 -30.4049 0
    endloop
  endfacet
  facet normal 0.997956 -0.063901 0
    outer loop
      vertex -8.4975 -27.8482 1
      vertex -8.34723 -25.5014 0
      vertex -8.34723 -25.5014 1
    endloop
  endfacet
  facet normal 0.997956 -0.063901 0
    outer loop
      vertex -8.34723 -25.5014 0
      vertex -8.4975 -27.8482 1
      vertex -8.4975 -27.8482 0
    endloop
  endfacet
  facet normal 0.993202 -0.116405 0
    outer loop
      vertex -8.34723 -25.5014 1
      vertex -8.09677 -23.3644 0
      vertex -8.09677 -23.3644 1
    endloop
  endfacet
  facet normal 0.993202 -0.116405 0
    outer loop
      vertex -8.09677 -23.3644 0
      vertex -8.34723 -25.5014 1
      vertex -8.34723 -25.5014 0
    endloop
  endfacet
  facet normal 0.983849 -0.178999 0
    outer loop
      vertex -8.09677 -23.3644 1
      vertex -7.74614 -21.4372 0
      vertex -7.74614 -21.4372 1
    endloop
  endfacet
  facet normal 0.983849 -0.178999 0
    outer loop
      vertex -7.74614 -21.4372 0
      vertex -8.09677 -23.3644 1
      vertex -8.09677 -23.3644 0
    endloop
  endfacet
  facet normal 0.967228 -0.253908 0
    outer loop
      vertex -7.74614 -21.4372 1
      vertex -7.29533 -19.7199 0
      vertex -7.29533 -19.7199 1
    endloop
  endfacet
  facet normal 0.967228 -0.253908 0
    outer loop
      vertex -7.29533 -19.7199 0
      vertex -7.74614 -21.4372 1
      vertex -7.74614 -21.4372 0
    endloop
  endfacet
  facet normal 0.93923 -0.343288 0
    outer loop
      vertex -7.29533 -19.7199 1
      vertex -6.74434 -18.2124 0
      vertex -6.74434 -18.2124 1
    endloop
  endfacet
  facet normal 0.93923 -0.343288 0
    outer loop
      vertex -6.74434 -18.2124 0
      vertex -7.29533 -19.7199 1
      vertex -7.29533 -19.7199 0
    endloop
  endfacet
  facet normal 0.893787 -0.448491 0
    outer loop
      vertex -6.74434 -18.2124 1
      vertex -6.09317 -16.9147 0
      vertex -6.09317 -16.9147 1
    endloop
  endfacet
  facet normal 0.893787 -0.448491 0
    outer loop
      vertex -6.09317 -16.9147 0
      vertex -6.74434 -18.2124 1
      vertex -6.74434 -18.2124 0
    endloop
  endfacet
  facet normal 0.82536 -0.564607 0
    outer loop
      vertex -6.09317 -16.9147 1
      vertex -5.33549 -15.8071 0
      vertex -5.33549 -15.8071 1
    endloop
  endfacet
  facet normal 0.82536 -0.564607 0
    outer loop
      vertex -5.33549 -15.8071 0
      vertex -6.09317 -16.9147 1
      vertex -6.09317 -16.9147 0
    endloop
  endfacet
  facet normal 0.73267 -0.680584 0
    outer loop
      vertex -5.33549 -15.8071 1
      vertex -4.46501 -14.87 0
      vertex -4.46501 -14.87 1
    endloop
  endfacet
  facet normal 0.73267 -0.680584 0
    outer loop
      vertex -4.46501 -14.87 0
      vertex -5.33549 -15.8071 1
      vertex -5.33549 -15.8071 0
    endloop
  endfacet
  facet normal 0.614949 -0.788567 0
    outer loop
      vertex -4.46501 -14.87 0
      vertex -3.48172 -14.1032 1
      vertex -4.46501 -14.87 1
    endloop
  endfacet
  facet normal 0.614949 -0.788567 0
    outer loop
      vertex -3.48172 -14.1032 1
      vertex -4.46501 -14.87 0
      vertex -3.48172 -14.1032 0
    endloop
  endfacet
  facet normal 0.477936 -0.878395 0
    outer loop
      vertex -3.48172 -14.1032 0
      vertex -2.3856 -13.5068 1
      vertex -3.48172 -14.1032 1
    endloop
  endfacet
  facet normal 0.477936 -0.878395 0
    outer loop
      vertex -2.3856 -13.5068 1
      vertex -3.48172 -14.1032 0
      vertex -2.3856 -13.5068 0
    endloop
  endfacet
  facet normal 0.33235 -0.943156 0
    outer loop
      vertex -2.3856 -13.5068 0
      vertex -1.17668 -13.0808 1
      vertex -2.3856 -13.5068 1
    endloop
  endfacet
  facet normal 0.33235 -0.943156 0
    outer loop
      vertex -1.17668 -13.0808 1
      vertex -2.3856 -13.5068 0
      vertex -1.17668 -13.0808 0
    endloop
  endfacet
  facet normal 0.189867 -0.98181 0
    outer loop
      vertex -1.17668 -13.0808 0
      vertex 0.145035 -12.8252 1
      vertex -1.17668 -13.0808 1
    endloop
  endfacet
  facet normal 0.189867 -0.98181 0
    outer loop
      vertex 0.145035 -12.8252 1
      vertex -1.17668 -13.0808 0
      vertex 0.145035 -12.8252 0
    endloop
  endfacet
  facet normal 0.0592868 -0.998241 0
    outer loop
      vertex 0.145035 -12.8252 0
      vertex 1.57959 -12.74 1
      vertex 0.145035 -12.8252 1
    endloop
  endfacet
  facet normal 0.0592868 -0.998241 0
    outer loop
      vertex 1.57959 -12.74 1
      vertex 0.145035 -12.8252 0
      vertex 1.57959 -12.74 0
    endloop
  endfacet
  facet normal -0.11068 -0.993856 0
    outer loop
      vertex 1.57959 -12.74 0
      vertex 2.97501 -12.8954 1
      vertex 1.57959 -12.74 1
    endloop
  endfacet
  facet normal -0.11068 -0.993856 -0
    outer loop
      vertex 2.97501 -12.8954 1
      vertex 1.57959 -12.74 0
      vertex 2.97501 -12.8954 0
    endloop
  endfacet
  facet normal -0.344416 -0.938817 0
    outer loop
      vertex 2.97501 -12.8954 0
      vertex 4.24579 -13.3616 1
      vertex 2.97501 -12.8954 1
    endloop
  endfacet
  facet normal -0.344416 -0.938817 -0
    outer loop
      vertex 4.24579 -13.3616 1
      vertex 2.97501 -12.8954 0
      vertex 4.24579 -13.3616 0
    endloop
  endfacet
  facet normal -0.56113 -0.827728 0
    outer loop
      vertex 4.24579 -13.3616 0
      vertex 5.39195 -14.1386 1
      vertex 4.24579 -13.3616 1
    endloop
  endfacet
  facet normal -0.56113 -0.827728 -0
    outer loop
      vertex 5.39195 -14.1386 1
      vertex 4.24579 -13.3616 0
      vertex 5.39195 -14.1386 0
    endloop
  endfacet
  facet normal -0.728966 -0.68455 0
    outer loop
      vertex 6.41347 -15.2264 0
      vertex 5.39195 -14.1386 1
      vertex 5.39195 -14.1386 0
    endloop
  endfacet
  facet normal -0.728966 -0.68455 0
    outer loop
      vertex 5.39195 -14.1386 1
      vertex 6.41347 -15.2264 0
      vertex 6.41347 -15.2264 1
    endloop
  endfacet
  facet normal -0.841783 -0.539816 0
    outer loop
      vertex 7.31036 -16.625 0
      vertex 6.41347 -15.2264 1
      vertex 6.41347 -15.2264 0
    endloop
  endfacet
  facet normal -0.841783 -0.539816 0
    outer loop
      vertex 6.41347 -15.2264 1
      vertex 7.31036 -16.625 0
      vertex 7.31036 -16.625 1
    endloop
  endfacet
  facet normal -0.911318 -0.411703 0
    outer loop
      vertex 8.08261 -18.3344 0
      vertex 7.31036 -16.625 1
      vertex 7.31036 -16.625 0
    endloop
  endfacet
  facet normal -0.911318 -0.411703 0
    outer loop
      vertex 7.31036 -16.625 1
      vertex 8.08261 -18.3344 0
      vertex 8.08261 -18.3344 1
    endloop
  endfacet
  facet normal -0.952264 -0.305274 0
    outer loop
      vertex 8.73024 -20.3546 0
      vertex 8.08261 -18.3344 1
      vertex 8.08261 -18.3344 0
    endloop
  endfacet
  facet normal -0.952264 -0.305274 0
    outer loop
      vertex 8.08261 -18.3344 1
      vertex 8.73024 -20.3546 0
      vertex 8.73024 -20.3546 1
    endloop
  endfacet
  facet normal 0.193307 -0.981138 0
    outer loop
      vertex 8.73024 -20.3546 0
      vertex 19.3214 -18.2679 1
      vertex 8.73024 -20.3546 1
    endloop
  endfacet
  facet normal 0.193307 -0.981138 0
    outer loop
      vertex 19.3214 -18.2679 1
      vertex 8.73024 -20.3546 0
      vertex 19.3214 -18.2679 0
    endloop
  endfacet
  facet normal 0.952426 0.304771 0
    outer loop
      vertex 19.3214 -18.2679 1
      vertex 18.6777 -16.2563 0
      vertex 18.6777 -16.2563 1
    endloop
  endfacet
  facet normal 0.952426 0.304771 0
    outer loop
      vertex 18.6777 -16.2563 0
      vertex 19.3214 -18.2679 1
      vertex 19.3214 -18.2679 0
    endloop
  endfacet
  facet normal 0.929445 0.36896 0
    outer loop
      vertex 18.6777 -16.2563 1
      vertex 17.9393 -14.3962 0
      vertex 17.9393 -14.3962 1
    endloop
  endfacet
  facet normal 0.929445 0.36896 0
    outer loop
      vertex 17.9393 -14.3962 0
      vertex 18.6777 -16.2563 1
      vertex 18.6777 -16.2563 0
    endloop
  endfacet
  facet normal 0.898875 0.438206 0
    outer loop
      vertex 17.9393 -14.3962 1
      vertex 17.1063 -12.6875 0
      vertex 17.1063 -12.6875 1
    endloop
  endfacet
  facet normal 0.898875 0.438206 0
    outer loop
      vertex 17.1063 -12.6875 0
      vertex 17.9393 -14.3962 1
      vertex 17.9393 -14.3962 0
    endloop
  endfacet
  facet normal 0.859061 0.511873 0
    outer loop
      vertex 17.1063 -12.6875 1
      vertex 16.1785 -11.1304 0
      vertex 16.1785 -11.1304 1
    endloop
  endfacet
  facet normal 0.859061 0.511873 0
    outer loop
      vertex 16.1785 -11.1304 0
      vertex 17.1063 -12.6875 1
      vertex 17.1063 -12.6875 0
    endloop
  endfacet
  facet normal 0.808746 0.588159 0
    outer loop
      vertex 16.1785 -11.1304 1
      vertex 15.1562 -9.72469 0
      vertex 15.1562 -9.72469 1
    endloop
  endfacet
  facet normal 0.808746 0.588159 0
    outer loop
      vertex 15.1562 -9.72469 0
      vertex 16.1785 -11.1304 1
      vertex 16.1785 -11.1304 0
    endloop
  endfacet
  facet normal 0.746742 0.665114 0
    outer loop
      vertex 15.1562 -9.72469 1
      vertex 14.0391 -8.47049 0
      vertex 14.0391 -8.47049 1
    endloop
  endfacet
  facet normal 0.746742 0.665114 0
    outer loop
      vertex 14.0391 -8.47049 0
      vertex 15.1562 -9.72469 1
      vertex 15.1562 -9.72469 0
    endloop
  endfacet
  facet normal 0.673065 0.739583 -0
    outer loop
      vertex 14.0391 -8.47049 0
      vertex 12.8274 -7.36777 1
      vertex 14.0391 -8.47049 1
    endloop
  endfacet
  facet normal 0.673065 0.739583 0
    outer loop
      vertex 12.8274 -7.36777 1
      vertex 14.0391 -8.47049 0
      vertex 12.8274 -7.36777 0
    endloop
  endfacet
  facet normal 0.588299 0.808644 -0
    outer loop
      vertex 12.8274 -7.36777 0
      vertex 11.5164 -6.414 1
      vertex 12.8274 -7.36777 1
    endloop
  endfacet
  facet normal 0.588299 0.808644 0
    outer loop
      vertex 11.5164 -6.414 1
      vertex 12.8274 -7.36777 0
      vertex 11.5164 -6.414 0
    endloop
  endfacet
  facet normal 0.495404 0.868663 -0
    outer loop
      vertex 11.5164 -6.414 0
      vertex 10.1013 -5.60696 1
      vertex 11.5164 -6.414 1
    endloop
  endfacet
  facet normal 0.495404 0.868663 0
    outer loop
      vertex 10.1013 -5.60696 1
      vertex 11.5164 -6.414 0
      vertex 10.1013 -5.60696 0
    endloop
  endfacet
  facet normal 0.398593 0.917128 -0
    outer loop
      vertex 10.1013 -5.60696 0
      vertex 8.58203 -4.94667 1
      vertex 10.1013 -5.60696 1
    endloop
  endfacet
  facet normal 0.398593 0.917128 0
    outer loop
      vertex 8.58203 -4.94667 1
      vertex 10.1013 -5.60696 0
      vertex 8.58203 -4.94667 0
    endloop
  endfacet
  facet normal 0.301609 0.953432 -0
    outer loop
      vertex 8.58203 -4.94667 0
      vertex 6.95859 -4.43311 1
      vertex 8.58203 -4.94667 1
    endloop
  endfacet
  facet normal 0.301609 0.953432 0
    outer loop
      vertex 6.95859 -4.43311 1
      vertex 8.58203 -4.94667 0
      vertex 6.95859 -4.43311 0
    endloop
  endfacet
  facet normal 0.20771 0.97819 -0
    outer loop
      vertex 6.95859 -4.43311 0
      vertex 5.23099 -4.06627 1
      vertex 6.95859 -4.43311 1
    endloop
  endfacet
  facet normal 0.20771 0.97819 0
    outer loop
      vertex 5.23099 -4.06627 1
      vertex 6.95859 -4.43311 0
      vertex 5.23099 -4.06627 0
    endloop
  endfacet
  facet normal 0.119305 0.992858 -0
    outer loop
      vertex 5.23099 -4.06627 0
      vertex 3.39923 -3.84616 1
      vertex 5.23099 -4.06627 1
    endloop
  endfacet
  facet normal 0.119305 0.992858 0
    outer loop
      vertex 3.39923 -3.84616 1
      vertex 5.23099 -4.06627 0
      vertex 3.39923 -3.84616 0
    endloop
  endfacet
  facet normal 0.0378668 0.999283 -0
    outer loop
      vertex 3.39923 -3.84616 0
      vertex 1.4633 -3.7728 1
      vertex 3.39923 -3.84616 1
    endloop
  endfacet
  facet normal 0.0378668 0.999283 0
    outer loop
      vertex 1.4633 -3.7728 1
      vertex 3.39923 -3.84616 0
      vertex 1.4633 -3.7728 0
    endloop
  endfacet
  facet normal -0.0945576 0.995519 0
    outer loop
      vertex 1.4633 -3.7728 0
      vertex -4.25887 -4.31631 1
      vertex 1.4633 -3.7728 1
    endloop
  endfacet
  facet normal -0.0945576 0.995519 0
    outer loop
      vertex -4.25887 -4.31631 1
      vertex 1.4633 -3.7728 0
      vertex -4.25887 -4.31631 0
    endloop
  endfacet
  facet normal -0.319148 0.947705 0
    outer loop
      vertex -4.25887 -4.31631 0
      vertex -9.10071 -5.94684 1
      vertex -4.25887 -4.31631 1
    endloop
  endfacet
  facet normal -0.319148 0.947705 0
    outer loop
      vertex -9.10071 -5.94684 1
      vertex -4.25887 -4.31631 0
      vertex -9.10071 -5.94684 0
    endloop
  endfacet
  facet normal -0.565685 0.824621 0
    outer loop
      vertex -9.10071 -5.94684 0
      vertex -13.0622 -8.6644 1
      vertex -9.10071 -5.94684 1
    endloop
  endfacet
  facet normal -0.565685 0.824621 0
    outer loop
      vertex -13.0622 -8.6644 1
      vertex -9.10071 -5.94684 0
      vertex -13.0622 -8.6644 0
    endloop
  endfacet
  facet normal -0.777116 0.629357 0
    outer loop
      vertex -16.1434 -12.469 0
      vertex -13.0622 -8.6644 1
      vertex -13.0622 -8.6644 0
    endloop
  endfacet
  facet normal -0.777116 0.629357 0
    outer loop
      vertex -13.0622 -8.6644 1
      vertex -16.1434 -12.469 0
      vertex -16.1434 -12.469 1
    endloop
  endfacet
  facet normal -0.911951 0.4103 0
    outer loop
      vertex -18.3442 -17.3606 0
      vertex -16.1434 -12.469 1
      vertex -16.1434 -12.469 0
    endloop
  endfacet
  facet normal -0.911951 0.4103 0
    outer loop
      vertex -16.1434 -12.469 1
      vertex -18.3442 -17.3606 0
      vertex -18.3442 -17.3606 1
    endloop
  endfacet
  facet normal -0.976466 0.215673 0
    outer loop
      vertex -19.6647 -23.3392 0
      vertex -18.3442 -17.3606 1
      vertex -18.3442 -17.3606 0
    endloop
  endfacet
  facet normal -0.976466 0.215673 0
    outer loop
      vertex -18.3442 -17.3606 1
      vertex -19.6647 -23.3392 0
      vertex -19.6647 -23.3392 1
    endloop
  endfacet
  facet normal -0.998065 0.0621804 0
    outer loop
      vertex -20.1049 -30.4049 0
      vertex -19.6647 -23.3392 1
      vertex -19.6647 -23.3392 0
    endloop
  endfacet
  facet normal -0.998065 0.0621804 0
    outer loop
      vertex -19.6647 -23.3392 1
      vertex -20.1049 -30.4049 0
      vertex -20.1049 -30.4049 1
    endloop
  endfacet
  facet normal -0.999473 -0.0324497 0
    outer loop
      vertex -19.989 -33.9747 0
      vertex -20.1049 -30.4049 1
      vertex -20.1049 -30.4049 0
    endloop
  endfacet
  facet normal -0.999473 -0.0324497 0
    outer loop
      vertex -20.1049 -30.4049 1
      vertex -19.989 -33.9747 0
      vertex -19.989 -33.9747 1
    endloop
  endfacet
  facet normal -0.994595 -0.103835 0
    outer loop
      vertex -19.6411 -37.3071 0
      vertex -19.989 -33.9747 1
      vertex -19.989 -33.9747 0
    endloop
  endfacet
  facet normal -0.994595 -0.103835 0
    outer loop
      vertex -19.989 -33.9747 1
      vertex -19.6411 -37.3071 0
      vertex -19.6411 -37.3071 1
    endloop
  endfacet
  facet normal -0.982902 -0.184131 0
    outer loop
      vertex -19.0613 -40.4021 0
      vertex -19.6411 -37.3071 1
      vertex -19.6411 -37.3071 0
    endloop
  endfacet
  facet normal -0.982902 -0.184131 0
    outer loop
      vertex -19.6411 -37.3071 1
      vertex -19.0613 -40.4021 0
      vertex -19.0613 -40.4021 1
    endloop
  endfacet
  facet normal -0.961946 -0.27324 0
    outer loop
      vertex -18.2496 -43.2597 0
      vertex -19.0613 -40.4021 1
      vertex -19.0613 -40.4021 0
    endloop
  endfacet
  facet normal -0.961946 -0.27324 0
    outer loop
      vertex -19.0613 -40.4021 1
      vertex -18.2496 -43.2597 0
      vertex -18.2496 -43.2597 1
    endloop
  endfacet
  facet normal -0.929036 -0.36999 0
    outer loop
      vertex -17.2061 -45.8799 0
      vertex -18.2496 -43.2597 1
      vertex -18.2496 -43.2597 0
    endloop
  endfacet
  facet normal -0.929036 -0.36999 0
    outer loop
      vertex -18.2496 -43.2597 1
      vertex -17.2061 -45.8799 0
      vertex -17.2061 -45.8799 1
    endloop
  endfacet
  facet normal -0.881626 -0.471949 0
    outer loop
      vertex -15.9306 -48.2626 0
      vertex -17.2061 -45.8799 1
      vertex -17.2061 -45.8799 0
    endloop
  endfacet
  facet normal -0.881626 -0.471949 0
    outer loop
      vertex -17.2061 -45.8799 1
      vertex -15.9306 -48.2626 0
      vertex -15.9306 -48.2626 1
    endloop
  endfacet
  facet normal -0.818193 -0.574943 0
    outer loop
      vertex -14.4231 -50.4079 0
      vertex -15.9306 -48.2626 1
      vertex -15.9306 -48.2626 0
    endloop
  endfacet
  facet normal -0.818193 -0.574943 0
    outer loop
      vertex -15.9306 -48.2626 1
      vertex -14.4231 -50.4079 0
      vertex -14.4231 -50.4079 1
    endloop
  endfacet
  facet normal -0.739399 -0.673267 0
    outer loop
      vertex -12.7097 -52.2896 0
      vertex -14.4231 -50.4079 1
      vertex -14.4231 -50.4079 0
    endloop
  endfacet
  facet normal -0.739399 -0.673267 0
    outer loop
      vertex -14.4231 -50.4079 1
      vertex -12.7097 -52.2896 0
      vertex -12.7097 -52.2896 1
    endloop
  endfacet
  facet normal -0.643625 -0.765341 0
    outer loop
      vertex -12.7097 -52.2896 0
      vertex -10.8164 -53.8818 1
      vertex -12.7097 -52.2896 1
    endloop
  endfacet
  facet normal -0.643625 -0.765341 -0
    outer loop
      vertex -10.8164 -53.8818 1
      vertex -12.7097 -52.2896 0
      vertex -10.8164 -53.8818 0
    endloop
  endfacet
  facet normal -0.532055 -0.84671 0
    outer loop
      vertex -10.8164 -53.8818 0
      vertex -8.74329 -55.1845 1
      vertex -10.8164 -53.8818 1
    endloop
  endfacet
  facet normal -0.532055 -0.84671 -0
    outer loop
      vertex -8.74329 -55.1845 1
      vertex -10.8164 -53.8818 0
      vertex -8.74329 -55.1845 0
    endloop
  endfacet
  facet normal -0.410152 -0.912017 0
    outer loop
      vertex -8.74329 -55.1845 0
      vertex -6.49033 -56.1977 1
      vertex -8.74329 -55.1845 1
    endloop
  endfacet
  facet normal -0.410152 -0.912017 -0
    outer loop
      vertex -6.49033 -56.1977 1
      vertex -8.74329 -55.1845 0
      vertex -6.49033 -56.1977 0
    endloop
  endfacet
  facet normal -0.285128 -0.95849 0
    outer loop
      vertex -6.49033 -56.1977 0
      vertex -4.05753 -56.9214 1
      vertex -6.49033 -56.1977 1
    endloop
  endfacet
  facet normal -0.285128 -0.95849 -0
    outer loop
      vertex -4.05753 -56.9214 1
      vertex -6.49033 -56.1977 0
      vertex -4.05753 -56.9214 0
    endloop
  endfacet
  facet normal -0.163979 -0.986464 0
    outer loop
      vertex -4.05753 -56.9214 0
      vertex -1.44487 -57.3557 1
      vertex -4.05753 -56.9214 1
    endloop
  endfacet
  facet normal -0.163979 -0.986464 -0
    outer loop
      vertex -1.44487 -57.3557 1
      vertex -4.05753 -56.9214 0
      vertex -1.44487 -57.3557 0
    endloop
  endfacet
  facet normal -0.0517485 -0.99866 0
    outer loop
      vertex -1.44487 -57.3557 0
      vertex 1.3476 -57.5004 1
      vertex -1.44487 -57.3557 1
    endloop
  endfacet
  facet normal -0.0517485 -0.99866 -0
    outer loop
      vertex 1.3476 -57.5004 1
      vertex -1.44487 -57.3557 0
      vertex 1.3476 -57.5004 0
    endloop
  endfacet
  facet normal 0.058584 -0.998282 0
    outer loop
      vertex 1.3476 -57.5004 0
      vertex 4.103 -57.3387 1
      vertex 1.3476 -57.5004 1
    endloop
  endfacet
  facet normal 0.058584 -0.998282 0
    outer loop
      vertex 4.103 -57.3387 1
      vertex 1.3476 -57.5004 0
      vertex 4.103 -57.3387 0
    endloop
  endfacet
endsolid OpenSCAD_Model
