solid OpenSCAD_Model
  facet normal 0 0 -1
    outer loop
      vertex 1.41092 -22.7671 0
      vertex 9.65311 -26.6952 0
      vertex 7.90894 -29.9208 0
    endloop
  endfacet
  facet normal 0 0 -1
    outer loop
      vertex -0.662567 -25.9946 0
      vertex 7.90894 -29.9208 0
      vertex 6.40298 -33.0091 0
    endloop
  endfacet
  facet normal 0 0 -1
    outer loop
      vertex 9.65311 -26.6952 0
      vertex 6.20393 -16.1347 0
      vertex 8.92346 -12.7298 0
    endloop
  endfacet
  facet normal 0 0 -1
    outer loop
      vertex -2.52072 -29.163 0
      vertex 6.40298 -33.0091 0
      vertex 5.13525 -35.9601 0
    endloop
  endfacet
  facet normal 0 0 -1
    outer loop
      vertex -4.16353 -32.2722 0
      vertex 5.13525 -35.9601 0
      vertex 4.06882 -38.8386 0
    endloop
  endfacet
  facet normal 0 0 -1
    outer loop
      vertex 9.65311 -26.6952 0
      vertex 3.69975 -19.4805 0
      vertex 6.20393 -16.1347 0
    endloop
  endfacet
  facet normal 0 0 -1
    outer loop
      vertex -5.59099 -35.3223 0
      vertex 4.06882 -38.8386 0
      vertex 3.16644 -41.7092 0
    endloop
  endfacet
  facet normal 0 0 -1
    outer loop
      vertex -7.85323 -41.3207 0
      vertex 3.16644 -41.7092 0
      vertex 2.42815 -44.5719 0
    endloop
  endfacet
  facet normal 0 0 -1
    outer loop
      vertex -8.70155 -44.2879 0
      vertex 2.42815 -44.5719 0
      vertex 1.85391 -47.4267 0
    endloop
  endfacet
  facet normal 0 0 -1
    outer loop
      vertex -9.36137 -47.2338 0
      vertex 1.85391 -47.4267 0
      vertex 1.44374 -50.2736 0
    endloop
  endfacet
  facet normal 0 0 -1
    outer loop
      vertex 9.65311 -26.6952 0
      vertex 1.41092 -22.7671 0
      vertex 3.69975 -19.4805 0
    endloop
  endfacet
  facet normal 0 0 -1
    outer loop
      vertex -9.83267 -50.1584 0
      vertex 1.44374 -50.2736 0
      vertex 1.19765 -53.1126 0
    endloop
  endfacet
  facet normal 0 0 -1
    outer loop
      vertex -10.1154 -53.0618 0
      vertex 1.19765 -53.1126 0
      vertex 1.11562 -55.9437 0
    endloop
  endfacet
  facet normal 0 0 -1
    outer loop
      vertex 7.90894 -29.9208 0
      vertex -0.662567 -25.9946 0
      vertex 1.41092 -22.7671 0
    endloop
  endfacet
  facet normal 0 0 -1
    outer loop
      vertex 6.40298 -33.0091 0
      vertex -2.52072 -29.163 0
      vertex -0.662567 -25.9946 0
    endloop
  endfacet
  facet normal 0 0 -1
    outer loop
      vertex 5.13525 -35.9601 0
      vertex -4.16353 -32.2722 0
      vertex -2.52072 -29.163 0
    endloop
  endfacet
  facet normal 0 0 -1
    outer loop
      vertex 4.06882 -38.8386 0
      vertex -5.59099 -35.3223 0
      vertex -4.16353 -32.2722 0
    endloop
  endfacet
  facet normal 0 0 -1
    outer loop
      vertex 3.16644 -41.7092 0
      vertex -6.81636 -38.3321 0
      vertex -5.59099 -35.3223 0
    endloop
  endfacet
  facet normal 0 0 -1
    outer loop
      vertex 3.16644 -41.7092 0
      vertex -7.85323 -41.3207 0
      vertex -6.81636 -38.3321 0
    endloop
  endfacet
  facet normal 0 0 -1
    outer loop
      vertex 2.42815 -44.5719 0
      vertex -8.70155 -44.2879 0
      vertex -7.85323 -41.3207 0
    endloop
  endfacet
  facet normal 0 0 -1
    outer loop
      vertex 1.85391 -47.4267 0
      vertex -9.36137 -47.2338 0
      vertex -8.70155 -44.2879 0
    endloop
  endfacet
  facet normal 0 0 -1
    outer loop
      vertex 1.44374 -50.2736 0
      vertex -9.83267 -50.1584 0
      vertex -9.36137 -47.2338 0
    endloop
  endfacet
  facet normal 0 0 -1
    outer loop
      vertex 1.19765 -53.1126 0
      vertex -10.1154 -53.0618 0
      vertex -9.83267 -50.1584 0
    endloop
  endfacet
  facet normal 0 -0 -1
    outer loop
      vertex -10.1154 -53.0618 0
      vertex 1.11562 -55.9437 0
      vertex -10.2097 -55.9437 0
    endloop
  endfacet
  facet normal 0 0 -1
    outer loop
      vertex 8.92346 -12.7298 0
      vertex 19.0119 -12.4203 0
      vertex 16.3149 -16.1949 0
    endloop
  endfacet
  facet normal 0 0 -1
    outer loop
      vertex 8.92346 -12.7298 0
      vertex 16.3149 -16.1949 0
      vertex 13.8561 -19.8323 0
    endloop
  endfacet
  facet normal 0 0 -1
    outer loop
      vertex 8.92346 -12.7298 0
      vertex 13.8561 -19.8323 0
      vertex 11.6355 -23.3324 0
    endloop
  endfacet
  facet normal 0 0 -1
    outer loop
      vertex 8.92346 -12.7298 0
      vertex 11.6355 -23.3324 0
      vertex 9.65311 -26.6952 0
    endloop
  endfacet
  facet normal -0 0 -1
    outer loop
      vertex 19.0119 -12.4203 0
      vertex 8.92346 -12.7298 0
      vertex 19.0119 -3.80072 0
    endloop
  endfacet
  facet normal 0 0 -1
    outer loop
      vertex -18.1339 -3.80072 0
      vertex 8.92346 -12.7298 0
      vertex -18.1339 -12.7298 0
    endloop
  endfacet
  facet normal 0 0 -1
    outer loop
      vertex 8.92346 -12.7298 0
      vertex -18.1339 -3.80072 0
      vertex 19.0119 -3.80072 0
    endloop
  endfacet
  facet normal 0 0 1
    outer loop
      vertex 8.92346 -12.7298 1
      vertex 19.0119 -12.4203 1
      vertex 19.0119 -3.80072 1
    endloop
  endfacet
  facet normal 0 0 1
    outer loop
      vertex 19.0119 -12.4203 1
      vertex 8.92346 -12.7298 1
      vertex 16.3149 -16.1949 1
    endloop
  endfacet
  facet normal 0 0 1
    outer loop
      vertex 16.3149 -16.1949 1
      vertex 8.92346 -12.7298 1
      vertex 13.8561 -19.8323 1
    endloop
  endfacet
  facet normal -0 0 1
    outer loop
      vertex 6.20393 -16.1347 1
      vertex 13.8561 -19.8323 1
      vertex 8.92346 -12.7298 1
    endloop
  endfacet
  facet normal 0 0 1
    outer loop
      vertex 13.8561 -19.8323 1
      vertex 6.20393 -16.1347 1
      vertex 11.6355 -23.3324 1
    endloop
  endfacet
  facet normal -0 0 1
    outer loop
      vertex -18.1339 -3.80072 1
      vertex 8.92346 -12.7298 1
      vertex 19.0119 -3.80072 1
    endloop
  endfacet
  facet normal 0 0 1
    outer loop
      vertex 8.92346 -12.7298 1
      vertex -18.1339 -3.80072 1
      vertex -18.1339 -12.7298 1
    endloop
  endfacet
  facet normal -0 0 1
    outer loop
      vertex 3.69975 -19.4805 1
      vertex 11.6355 -23.3324 1
      vertex 6.20393 -16.1347 1
    endloop
  endfacet
  facet normal 0 0 1
    outer loop
      vertex 11.6355 -23.3324 1
      vertex 3.69975 -19.4805 1
      vertex 9.65311 -26.6952 1
    endloop
  endfacet
  facet normal -0 0 1
    outer loop
      vertex 1.41092 -22.7671 1
      vertex 9.65311 -26.6952 1
      vertex 3.69975 -19.4805 1
    endloop
  endfacet
  facet normal 0 0 1
    outer loop
      vertex 9.65311 -26.6952 1
      vertex 1.41092 -22.7671 1
      vertex 7.90894 -29.9208 1
    endloop
  endfacet
  facet normal -0 0 1
    outer loop
      vertex -0.662567 -25.9946 1
      vertex 7.90894 -29.9208 1
      vertex 1.41092 -22.7671 1
    endloop
  endfacet
  facet normal 0 0 1
    outer loop
      vertex 7.90894 -29.9208 1
      vertex -0.662567 -25.9946 1
      vertex 6.40298 -33.0091 1
    endloop
  endfacet
  facet normal -0 0 1
    outer loop
      vertex -2.52072 -29.163 1
      vertex 6.40298 -33.0091 1
      vertex -0.662567 -25.9946 1
    endloop
  endfacet
  facet normal 0 0 1
    outer loop
      vertex 6.40298 -33.0091 1
      vertex -2.52072 -29.163 1
      vertex 5.13525 -35.9601 1
    endloop
  endfacet
  facet normal -0 0 1
    outer loop
      vertex -4.16353 -32.2722 1
      vertex 5.13525 -35.9601 1
      vertex -2.52072 -29.163 1
    endloop
  endfacet
  facet normal 0 0 1
    outer loop
      vertex 5.13525 -35.9601 1
      vertex -4.16353 -32.2722 1
      vertex 4.06882 -38.8386 1
    endloop
  endfacet
  facet normal -0 0 1
    outer loop
      vertex -5.59099 -35.3223 1
      vertex 4.06882 -38.8386 1
      vertex -4.16353 -32.2722 1
    endloop
  endfacet
  facet normal 0 0 1
    outer loop
      vertex 4.06882 -38.8386 1
      vertex -5.59099 -35.3223 1
      vertex 3.16644 -41.7092 1
    endloop
  endfacet
  facet normal -0 0 1
    outer loop
      vertex -6.81636 -38.3321 1
      vertex 3.16644 -41.7092 1
      vertex -5.59099 -35.3223 1
    endloop
  endfacet
  facet normal -0 0 1
    outer loop
      vertex -7.85323 -41.3207 1
      vertex 3.16644 -41.7092 1
      vertex -6.81636 -38.3321 1
    endloop
  endfacet
  facet normal 0 0 1
    outer loop
      vertex 3.16644 -41.7092 1
      vertex -7.85323 -41.3207 1
      vertex 2.42815 -44.5719 1
    endloop
  endfacet
  facet normal -0 0 1
    outer loop
      vertex -8.70155 -44.2879 1
      vertex 2.42815 -44.5719 1
      vertex -7.85323 -41.3207 1
    endloop
  endfacet
  facet normal 0 0 1
    outer loop
      vertex 2.42815 -44.5719 1
      vertex -8.70155 -44.2879 1
      vertex 1.85391 -47.4267 1
    endloop
  endfacet
  facet normal -0 0 1
    outer loop
      vertex -9.36137 -47.2338 1
      vertex 1.85391 -47.4267 1
      vertex -8.70155 -44.2879 1
    endloop
  endfacet
  facet normal 0 0 1
    outer loop
      vertex 1.85391 -47.4267 1
      vertex -9.36137 -47.2338 1
      vertex 1.44374 -50.2736 1
    endloop
  endfacet
  facet normal -0 0 1
    outer loop
      vertex -9.83267 -50.1584 1
      vertex 1.44374 -50.2736 1
      vertex -9.36137 -47.2338 1
    endloop
  endfacet
  facet normal 0 0 1
    outer loop
      vertex 1.44374 -50.2736 1
      vertex -9.83267 -50.1584 1
      vertex 1.19765 -53.1126 1
    endloop
  endfacet
  facet normal -0 0 1
    outer loop
      vertex -10.1154 -53.0618 1
      vertex 1.19765 -53.1126 1
      vertex -9.83267 -50.1584 1
    endloop
  endfacet
  facet normal 0 0 1
    outer loop
      vertex 1.19765 -53.1126 1
      vertex -10.1154 -53.0618 1
      vertex 1.11562 -55.9437 1
    endloop
  endfacet
  facet normal 0 0 1
    outer loop
      vertex 1.11562 -55.9437 1
      vertex -10.1154 -53.0618 1
      vertex -10.2097 -55.9437 1
    endloop
  endfacet
  facet normal 0.996264 -0.0863581 0
    outer loop
      vertex 1.19765 -53.1126 1
      vertex 1.44374 -50.2736 0
      vertex 1.44374 -50.2736 1
    endloop
  endfacet
  facet normal 0.996264 -0.0863581 0
    outer loop
      vertex 1.44374 -50.2736 0
      vertex 1.19765 -53.1126 1
      vertex 1.19765 -53.1126 0
    endloop
  endfacet
  facet normal 0.98978 -0.142604 0
    outer loop
      vertex 1.44374 -50.2736 1
      vertex 1.85391 -47.4267 0
      vertex 1.85391 -47.4267 1
    endloop
  endfacet
  facet normal 0.98978 -0.142604 0
    outer loop
      vertex 1.85391 -47.4267 0
      vertex 1.44374 -50.2736 1
      vertex 1.44374 -50.2736 0
    endloop
  endfacet
  facet normal 0.980363 -0.197199 0
    outer loop
      vertex 1.85391 -47.4267 1
      vertex 2.42815 -44.5719 0
      vertex 2.42815 -44.5719 1
    endloop
  endfacet
  facet normal 0.980363 -0.197199 0
    outer loop
      vertex 2.42815 -44.5719 0
      vertex 1.85391 -47.4267 1
      vertex 1.85391 -47.4267 0
    endloop
  endfacet
  facet normal 0.968316 -0.249729 0
    outer loop
      vertex 2.42815 -44.5719 1
      vertex 3.16644 -41.7092 0
      vertex 3.16644 -41.7092 1
    endloop
  endfacet
  facet normal 0.968316 -0.249729 0
    outer loop
      vertex 3.16644 -41.7092 0
      vertex 2.42815 -44.5719 1
      vertex 2.42815 -44.5719 0
    endloop
  endfacet
  facet normal 0.953976 -0.299884 0
    outer loop
      vertex 3.16644 -41.7092 1
      vertex 4.06882 -38.8386 0
      vertex 4.06882 -38.8386 1
    endloop
  endfacet
  facet normal 0.953976 -0.299884 0
    outer loop
      vertex 4.06882 -38.8386 0
      vertex 3.16644 -41.7092 1
      vertex 3.16644 -41.7092 0
    endloop
  endfacet
  facet normal 0.937715 -0.347406 0
    outer loop
      vertex 4.06882 -38.8386 1
      vertex 5.13525 -35.9601 0
      vertex 5.13525 -35.9601 1
    endloop
  endfacet
  facet normal 0.937715 -0.347406 0
    outer loop
      vertex 5.13525 -35.9601 0
      vertex 4.06882 -38.8386 1
      vertex 4.06882 -38.8386 0
    endloop
  endfacet
  facet normal 0.918805 -0.394712 0
    outer loop
      vertex 5.13525 -35.9601 1
      vertex 6.40298 -33.0091 0
      vertex 6.40298 -33.0091 1
    endloop
  endfacet
  facet normal 0.918805 -0.394712 0
    outer loop
      vertex 6.40298 -33.0091 0
      vertex 5.13525 -35.9601 1
      vertex 5.13525 -35.9601 0
    endloop
  endfacet
  facet normal 0.898829 -0.4383 0
    outer loop
      vertex 6.40298 -33.0091 1
      vertex 7.90894 -29.9208 0
      vertex 7.90894 -29.9208 1
    endloop
  endfacet
  facet normal 0.898829 -0.4383 0
    outer loop
      vertex 7.90894 -29.9208 0
      vertex 6.40298 -33.0091 1
      vertex 6.40298 -33.0091 0
    endloop
  endfacet
  facet normal 0.879638 -0.475644 0
    outer loop
      vertex 7.90894 -29.9208 1
      vertex 9.65311 -26.6952 0
      vertex 9.65311 -26.6952 1
    endloop
  endfacet
  facet normal 0.879638 -0.475644 0
    outer loop
      vertex 9.65311 -26.6952 0
      vertex 7.90894 -29.9208 1
      vertex 7.90894 -29.9208 0
    endloop
  endfacet
  facet normal 0.861456 -0.507833 0
    outer loop
      vertex 9.65311 -26.6952 1
      vertex 11.6355 -23.3324 0
      vertex 11.6355 -23.3324 1
    endloop
  endfacet
  facet normal 0.861456 -0.507833 0
    outer loop
      vertex 11.6355 -23.3324 0
      vertex 9.65311 -26.6952 1
      vertex 9.65311 -26.6952 0
    endloop
  endfacet
  facet normal 0.844397 -0.535718 0
    outer loop
      vertex 11.6355 -23.3324 1
      vertex 13.8561 -19.8323 0
      vertex 13.8561 -19.8323 1
    endloop
  endfacet
  facet normal 0.844397 -0.535718 0
    outer loop
      vertex 13.8561 -19.8323 0
      vertex 11.6355 -23.3324 1
      vertex 11.6355 -23.3324 0
    endloop
  endfacet
  facet normal 0.828473 -0.560029 0
    outer loop
      vertex 13.8561 -19.8323 1
      vertex 16.3149 -16.1949 0
      vertex 16.3149 -16.1949 1
    endloop
  endfacet
  facet normal 0.828473 -0.560029 0
    outer loop
      vertex 16.3149 -16.1949 0
      vertex 13.8561 -19.8323 1
      vertex 13.8561 -19.8323 0
    endloop
  endfacet
  facet normal 0.813646 -0.581361 0
    outer loop
      vertex 16.3149 -16.1949 1
      vertex 19.0119 -12.4203 0
      vertex 19.0119 -12.4203 1
    endloop
  endfacet
  facet normal 0.813646 -0.581361 0
    outer loop
      vertex 19.0119 -12.4203 0
      vertex 16.3149 -16.1949 1
      vertex 16.3149 -16.1949 0
    endloop
  endfacet
  facet normal 1 -0 0
    outer loop
      vertex 19.0119 -12.4203 1
      vertex 19.0119 -3.80072 0
      vertex 19.0119 -3.80072 1
    endloop
  endfacet
  facet normal 1 0 0
    outer loop
      vertex 19.0119 -3.80072 0
      vertex 19.0119 -12.4203 1
      vertex 19.0119 -12.4203 0
    endloop
  endfacet
  facet normal 0 1 -0
    outer loop
      vertex 19.0119 -3.80072 0
      vertex -18.1339 -3.80072 1
      vertex 19.0119 -3.80072 1
    endloop
  endfacet
  facet normal 0 1 0
    outer loop
      vertex -18.1339 -3.80072 1
      vertex 19.0119 -3.80072 0
      vertex -18.1339 -3.80072 0
    endloop
  endfacet
  facet normal -1 0 0
    outer loop
      vertex -18.1339 -12.7298 0
      vertex -18.1339 -3.80072 1
      vertex -18.1339 -3.80072 0
    endloop
  endfacet
  facet normal -1 -0 0
    outer loop
      vertex -18.1339 -3.80072 1
      vertex -18.1339 -12.7298 0
      vertex -18.1339 -12.7298 1
    endloop
  endfacet
  facet normal 0 -1 0
    outer loop
      vertex -18.1339 -12.7298 0
      vertex 8.92346 -12.7298 1
      vertex -18.1339 -12.7298 1
    endloop
  endfacet
  facet normal 0 -1 -0
    outer loop
      vertex 8.92346 -12.7298 1
      vertex -18.1339 -12.7298 0
      vertex 8.92346 -12.7298 0
    endloop
  endfacet
  facet normal -0.78136 0.624081 0
    outer loop
      vertex 6.20393 -16.1347 0
      vertex 8.92346 -12.7298 1
      vertex 8.92346 -12.7298 0
    endloop
  endfacet
  facet normal -0.78136 0.624081 0
    outer loop
      vertex 8.92346 -12.7298 1
      vertex 6.20393 -16.1347 0
      vertex 6.20393 -16.1347 1
    endloop
  endfacet
  facet normal -0.800593 0.599208 0
    outer loop
      vertex 3.69975 -19.4805 0
      vertex 6.20393 -16.1347 1
      vertex 6.20393 -16.1347 0
    endloop
  endfacet
  facet normal -0.800593 0.599208 0
    outer loop
      vertex 6.20393 -16.1347 1
      vertex 3.69975 -19.4805 0
      vertex 3.69975 -19.4805 1
    endloop
  endfacet
  facet normal -0.820613 0.571485 0
    outer loop
      vertex 1.41092 -22.7671 0
      vertex 3.69975 -19.4805 1
      vertex 3.69975 -19.4805 0
    endloop
  endfacet
  facet normal -0.820613 0.571485 0
    outer loop
      vertex 3.69975 -19.4805 1
      vertex 1.41092 -22.7671 0
      vertex 1.41092 -22.7671 1
    endloop
  endfacet
  facet normal -0.841337 0.540511 0
    outer loop
      vertex -0.662567 -25.9946 0
      vertex 1.41092 -22.7671 1
      vertex 1.41092 -22.7671 0
    endloop
  endfacet
  facet normal -0.841337 0.540511 0
    outer loop
      vertex 1.41092 -22.7671 1
      vertex -0.662567 -25.9946 0
      vertex -0.662567 -25.9946 1
    endloop
  endfacet
  facet normal -0.862601 0.505885 0
    outer loop
      vertex -2.52072 -29.163 0
      vertex -0.662567 -25.9946 1
      vertex -0.662567 -25.9946 0
    endloop
  endfacet
  facet normal -0.862601 0.505885 0
    outer loop
      vertex -0.662567 -25.9946 1
      vertex -2.52072 -29.163 0
      vertex -2.52072 -29.163 1
    endloop
  endfacet
  facet normal -0.884168 0.467169 0
    outer loop
      vertex -4.16353 -32.2722 0
      vertex -2.52072 -29.163 1
      vertex -2.52072 -29.163 0
    endloop
  endfacet
  facet normal -0.884168 0.467169 0
    outer loop
      vertex -2.52072 -29.163 1
      vertex -4.16353 -32.2722 0
      vertex -4.16353 -32.2722 1
    endloop
  endfacet
  facet normal -0.905718 0.42388 0
    outer loop
      vertex -5.59099 -35.3223 0
      vertex -4.16353 -32.2722 1
      vertex -4.16353 -32.2722 0
    endloop
  endfacet
  facet normal -0.905718 0.42388 0
    outer loop
      vertex -4.16353 -32.2722 1
      vertex -5.59099 -35.3223 0
      vertex -5.59099 -35.3223 1
    endloop
  endfacet
  facet normal -0.926183 0.377074 0
    outer loop
      vertex -6.81636 -38.3321 0
      vertex -5.59099 -35.3223 1
      vertex -5.59099 -35.3223 0
    endloop
  endfacet
  facet normal -0.926183 0.377074 0
    outer loop
      vertex -5.59099 -35.3223 1
      vertex -6.81636 -38.3321 0
      vertex -6.81636 -38.3321 1
    endloop
  endfacet
  facet normal -0.944756 0.327775 0
    outer loop
      vertex -7.85323 -41.3207 0
      vertex -6.81636 -38.3321 1
      vertex -6.81636 -38.3321 0
    endloop
  endfacet
  facet normal -0.944756 0.327775 0
    outer loop
      vertex -6.81636 -38.3321 1
      vertex -7.85323 -41.3207 0
      vertex -7.85323 -41.3207 1
    endloop
  endfacet
  facet normal -0.961477 0.274885 0
    outer loop
      vertex -8.70155 -44.2879 0
      vertex -7.85323 -41.3207 1
      vertex -7.85323 -41.3207 0
    endloop
  endfacet
  facet normal -0.961477 0.274885 0
    outer loop
      vertex -7.85323 -41.3207 1
      vertex -8.70155 -44.2879 0
      vertex -8.70155 -44.2879 1
    endloop
  endfacet
  facet normal -0.975823 0.218564 0
    outer loop
      vertex -9.36137 -47.2338 0
      vertex -8.70155 -44.2879 1
      vertex -8.70155 -44.2879 0
    endloop
  endfacet
  facet normal -0.975823 0.218564 0
    outer loop
      vertex -8.70155 -44.2879 1
      vertex -9.36137 -47.2338 0
      vertex -9.36137 -47.2338 1
    endloop
  endfacet
  facet normal -0.987263 0.159098 0
    outer loop
      vertex -9.83267 -50.1584 0
      vertex -9.36137 -47.2338 1
      vertex -9.36137 -47.2338 0
    endloop
  endfacet
  facet normal -0.987263 0.159098 0
    outer loop
      vertex -9.36137 -47.2338 1
      vertex -9.83267 -50.1584 0
      vertex -9.83267 -50.1584 1
    endloop
  endfacet
  facet normal -0.995292 0.0969205 0
    outer loop
      vertex -10.1154 -53.0618 0
      vertex -9.83267 -50.1584 1
      vertex -9.83267 -50.1584 0
    endloop
  endfacet
  facet normal -0.995292 0.0969205 0
    outer loop
      vertex -9.83267 -50.1584 1
      vertex -10.1154 -53.0618 0
      vertex -10.1154 -53.0618 1
    endloop
  endfacet
  facet normal -0.999465 0.032704 0
    outer loop
      vertex -10.2097 -55.9437 0
      vertex -10.1154 -53.0618 1
      vertex -10.1154 -53.0618 0
    endloop
  endfacet
  facet normal -0.999465 0.032704 0
    outer loop
      vertex -10.1154 -53.0618 1
      vertex -10.2097 -55.9437 0
      vertex -10.2097 -55.9437 1
    endloop
  endfacet
  facet normal 0 -1 0
    outer loop
      vertex -10.2097 -55.9437 0
      vertex 1.11562 -55.9437 1
      vertex -10.2097 -55.9437 1
    endloop
  endfacet
  facet normal 0 -1 -0
    outer loop
      vertex 1.11562 -55.9437 1
      vertex -10.2097 -55.9437 0
      vertex 1.11562 -55.9437 0
    endloop
  endfacet
  facet normal 0.999581 -0.0289624 0
    outer loop
      vertex 1.11562 -55.9437 1
      vertex 1.19765 -53.1126 0
      vertex 1.19765 -53.1126 1
    endloop
  endfacet
  facet normal 0.999581 -0.0289624 0
    outer loop
      vertex 1.19765 -53.1126 0
      vertex 1.11562 -55.9437 1
      vertex 1.11562 -55.9437 0
    endloop
  endfacet
endsolid OpenSCAD_Model
