solid OpenSCAD_Model
  facet normal 0 0 -1
    outer loop
      vertex 9.03975 -38.6271 0
      vertex 20.21 -38.3952 0
      vertex 20.1607 -39.9157 0
    endloop
  endfacet
  facet normal 0 0 -1
    outer loop
      vertex 8.99162 -39.8774 0
      vertex 20.1607 -39.9157 0
      vertex 20.0128 -41.3849 0
    endloop
  endfacet
  facet normal 0 0 -1
    outer loop
      vertex 8.99321 -37.5113 0
      vertex 20.21 -38.3952 0
      vertex 9.03975 -38.6271 0
    endloop
  endfacet
  facet normal 0 0 -1
    outer loop
      vertex 8.99162 -39.8774 0
      vertex 20.0128 -41.3849 0
      vertex 19.7663 -42.8029 0
    endloop
  endfacet
  facet normal 0 0 -1
    outer loop
      vertex 8.84726 -41.0441 0
      vertex 19.7663 -42.8029 0
      vertex 19.4212 -44.1696 0
    endloop
  endfacet
  facet normal 0 0 -1
    outer loop
      vertex 20.21 -38.3952 0
      vertex 8.99321 -37.5113 0
      vertex 20.115 -36.216 0
    endloop
  endfacet
  facet normal 0 0 -1
    outer loop
      vertex 8.60663 -42.1272 0
      vertex 19.4212 -44.1696 0
      vertex 18.9776 -45.485 0
    endloop
  endfacet
  facet normal 0 0 -1
    outer loop
      vertex 8.85358 -36.4609 0
      vertex 20.115 -36.216 0
      vertex 8.99321 -37.5113 0
    endloop
  endfacet
  facet normal 0 0 -1
    outer loop
      vertex 8.60663 -42.1272 0
      vertex 18.9776 -45.485 0
      vertex 18.4353 -46.7492 0
    endloop
  endfacet
  facet normal -0 0 -1
    outer loop
      vertex 20.115 -36.216 0
      vertex 8.85358 -36.4609 0
      vertex 19.8298 -34.1622 0
    endloop
  endfacet
  facet normal 0 0 -1
    outer loop
      vertex 8.26976 -43.1266 0
      vertex 18.4353 -46.7492 0
      vertex 17.7944 -47.962 0
    endloop
  endfacet
  facet normal 0 0 -1
    outer loop
      vertex 8.26976 -43.1266 0
      vertex 17.7944 -47.962 0
      vertex 17.06 -49.1114 0
    endloop
  endfacet
  facet normal 0 0 -1
    outer loop
      vertex 8.62086 -35.476 0
      vertex 19.8298 -34.1622 0
      vertex 8.85358 -36.4609 0
    endloop
  endfacet
  facet normal 0 0 -1
    outer loop
      vertex 7.83664 -44.0425 0
      vertex 17.06 -49.1114 0
      vertex 16.2373 -50.185 0
    endloop
  endfacet
  facet normal -0 0 -1
    outer loop
      vertex 19.8298 -34.1622 0
      vertex 8.62086 -35.476 0
      vertex 19.3546 -32.2339 0
    endloop
  endfacet
  facet normal 0 0 -1
    outer loop
      vertex 7.83664 -44.0425 0
      vertex 16.2373 -50.185 0
      vertex 15.3262 -51.1829 0
    endloop
  endfacet
  facet normal 0 0 -1
    outer loop
      vertex 7.30728 -44.8747 0
      vertex 15.3262 -51.1829 0
      vertex 14.3267 -52.1051 0
    endloop
  endfacet
  facet normal -0 0 -1
    outer loop
      vertex 19.3546 -32.2339 0
      vertex 8.62086 -35.476 0
      vertex 18.6892 -30.431 0
    endloop
  endfacet
  facet normal 0 0 -1
    outer loop
      vertex 6.68166 -45.6233 0
      vertex 14.3267 -52.1051 0
      vertex 13.2389 -52.9516 0
    endloop
  endfacet
  facet normal 0 0 -1
    outer loop
      vertex 8.29507 -34.5565 0
      vertex 18.6892 -30.431 0
      vertex 8.62086 -35.476 0
    endloop
  endfacet
  facet normal 0 0 -1
    outer loop
      vertex 6.68166 -45.6233 0
      vertex 13.2389 -52.9516 0
      vertex 12.0627 -53.7223 0
    endloop
  endfacet
  facet normal -0 0 -1
    outer loop
      vertex 18.6892 -30.431 0
      vertex 8.29507 -34.5565 0
      vertex 17.8338 -28.7535 0
    endloop
  endfacet
  facet normal 0 0 -1
    outer loop
      vertex 5.97099 -46.2796 0
      vertex 12.0627 -53.7223 0
      vertex 10.7982 -54.4173 0
    endloop
  endfacet
  facet normal 0 0 -1
    outer loop
      vertex 5.18617 -46.835 0
      vertex 10.7982 -54.4173 0
      vertex 9.45674 -55.0273 0
    endloop
  endfacet
  facet normal 0 0 -1
    outer loop
      vertex 7.87619 -33.7026 0
      vertex 17.8338 -28.7535 0
      vertex 8.29507 -34.5565 0
    endloop
  endfacet
  facet normal -0 0 -1
    outer loop
      vertex 17.8338 -28.7535 0
      vertex 7.87619 -33.7026 0
      vertex 16.7882 -27.2014 0
    endloop
  endfacet
  facet normal 0 0 -1
    outer loop
      vertex 20.1607 -39.9157 0
      vertex 8.99162 -39.8774 0
      vertex 9.03975 -38.6271 0
    endloop
  endfacet
  facet normal 0 0 -1
    outer loop
      vertex 19.7663 -42.8029 0
      vertex 8.84726 -41.0441 0
      vertex 8.99162 -39.8774 0
    endloop
  endfacet
  facet normal 0 0 -1
    outer loop
      vertex 19.4212 -44.1696 0
      vertex 8.60663 -42.1272 0
      vertex 8.84726 -41.0441 0
    endloop
  endfacet
  facet normal 0 0 -1
    outer loop
      vertex 18.4353 -46.7492 0
      vertex 8.26976 -43.1266 0
      vertex 8.60663 -42.1272 0
    endloop
  endfacet
  facet normal 0 0 -1
    outer loop
      vertex 5.18617 -46.835 0
      vertex 9.45674 -55.0273 0
      vertex 8.04982 -55.5435 0
    endloop
  endfacet
  facet normal 0 0 -1
    outer loop
      vertex 17.06 -49.1114 0
      vertex 7.83664 -44.0425 0
      vertex 8.26976 -43.1266 0
    endloop
  endfacet
  facet normal 0 0 -1
    outer loop
      vertex 15.3262 -51.1829 0
      vertex 7.30728 -44.8747 0
      vertex 7.83664 -44.0425 0
    endloop
  endfacet
  facet normal 0 0 -1
    outer loop
      vertex 14.3267 -52.1051 0
      vertex 6.68166 -45.6233 0
      vertex 7.30728 -44.8747 0
    endloop
  endfacet
  facet normal 0 0 -1
    outer loop
      vertex 4.32716 -47.2894 0
      vertex 8.04982 -55.5435 0
      vertex 6.57742 -55.9659 0
    endloop
  endfacet
  facet normal 0 0 -1
    outer loop
      vertex 12.0627 -53.7223 0
      vertex 5.97099 -46.2796 0
      vertex 6.68166 -45.6233 0
    endloop
  endfacet
  facet normal 0 0 -1
    outer loop
      vertex 10.7982 -54.4173 0
      vertex 5.18617 -46.835 0
      vertex 5.97099 -46.2796 0
    endloop
  endfacet
  facet normal 0 0 -1
    outer loop
      vertex 3.394 -47.6427 0
      vertex 6.57742 -55.9659 0
      vertex 5.03957 -56.2943 0
    endloop
  endfacet
  facet normal 0 0 -1
    outer loop
      vertex 8.04982 -55.5435 0
      vertex 4.32716 -47.2894 0
      vertex 5.18617 -46.835 0
    endloop
  endfacet
  facet normal 0 0 -1
    outer loop
      vertex 2.38666 -47.8952 0
      vertex 5.03957 -56.2943 0
      vertex 3.43625 -56.529 0
    endloop
  endfacet
  facet normal 0 0 -1
    outer loop
      vertex 6.57742 -55.9659 0
      vertex 3.394 -47.6427 0
      vertex 4.32716 -47.2894 0
    endloop
  endfacet
  facet normal 0 0 -1
    outer loop
      vertex 5.03957 -56.2943 0
      vertex 2.38666 -47.8952 0
      vertex 3.394 -47.6427 0
    endloop
  endfacet
  facet normal 0 0 -1
    outer loop
      vertex 1.30515 -48.0466 0
      vertex 3.43625 -56.529 0
      vertex 1.76744 -56.6697 0
    endloop
  endfacet
  facet normal 0 0 -1
    outer loop
      vertex 3.43625 -56.529 0
      vertex 1.30515 -48.0466 0
      vertex 2.38666 -47.8952 0
    endloop
  endfacet
  facet normal 0 0 -1
    outer loop
      vertex 1.76744 -56.6697 0
      vertex 0.14946 -48.0971 0
      vertex 1.30515 -48.0466 0
    endloop
  endfacet
  facet normal 0 0 -1
    outer loop
      vertex 0.0331726 -56.7167 0
      vertex 0.14946 -48.0971 0
      vertex 1.76744 -56.6697 0
    endloop
  endfacet
  facet normal 0 0 -1
    outer loop
      vertex 0.0331726 -56.7167 0
      vertex -0.766357 -48.0648 0
      vertex 0.14946 -48.0971 0
    endloop
  endfacet
  facet normal 0 0 -1
    outer loop
      vertex -2.24138 -56.6413 0
      vertex -0.766357 -48.0648 0
      vertex 0.0331726 -56.7167 0
    endloop
  endfacet
  facet normal -0 0 -1
    outer loop
      vertex -0.766357 -48.0648 0
      vertex -2.24138 -56.6413 0
      vertex -1.63646 -47.9678 0
    endloop
  endfacet
  facet normal 0 0 -1
    outer loop
      vertex -2.24138 -56.6413 0
      vertex -2.46082 -47.8061 0
      vertex -1.63646 -47.9678 0
    endloop
  endfacet
  facet normal 0 0 -1
    outer loop
      vertex -4.38266 -56.4153 0
      vertex -2.46082 -47.8061 0
      vertex -2.24138 -56.6413 0
    endloop
  endfacet
  facet normal -0 0 -1
    outer loop
      vertex -2.46082 -47.8061 0
      vertex -4.38266 -56.4153 0
      vertex -3.23944 -47.5797 0
    endloop
  endfacet
  facet normal 0 0 -1
    outer loop
      vertex -6.39061 -56.0387 0
      vertex -3.23944 -47.5797 0
      vertex -4.38266 -56.4153 0
    endloop
  endfacet
  facet normal -0 0 -1
    outer loop
      vertex -3.23944 -47.5797 0
      vertex -6.39061 -56.0387 0
      vertex -3.97232 -47.2887 0
    endloop
  endfacet
  facet normal 0 0 -1
    outer loop
      vertex -8.26526 -55.5113 0
      vertex -3.97232 -47.2887 0
      vertex -6.39061 -56.0387 0
    endloop
  endfacet
  facet normal -0 0 -1
    outer loop
      vertex -3.97232 -47.2887 0
      vertex -8.26526 -55.5113 0
      vertex -4.65947 -46.9329 0
    endloop
  endfacet
  facet normal 0 0 -1
    outer loop
      vertex -10.0066 -54.8333 0
      vertex -4.65947 -46.9329 0
      vertex -8.26526 -55.5113 0
    endloop
  endfacet
  facet normal -0 0 -1
    outer loop
      vertex -4.65947 -46.9329 0
      vertex -10.0066 -54.8333 0
      vertex -5.30087 -46.5125 0
    endloop
  endfacet
  facet normal 0 0 -1
    outer loop
      vertex -11.6146 -54.0047 0
      vertex -5.30087 -46.5125 0
      vertex -10.0066 -54.8333 0
    endloop
  endfacet
  facet normal -0 0 -1
    outer loop
      vertex -5.30087 -46.5125 0
      vertex -11.6146 -54.0047 0
      vertex -5.89243 -46.021 0
    endloop
  endfacet
  facet normal 0 0 -1
    outer loop
      vertex -13.0893 -53.0253 0
      vertex -5.89243 -46.021 0
      vertex -11.6146 -54.0047 0
    endloop
  endfacet
  facet normal -0 0 -1
    outer loop
      vertex -5.89243 -46.021 0
      vertex -13.0893 -53.0253 0
      vertex -6.43034 -45.4521 0
    endloop
  endfacet
  facet normal 0 0 -1
    outer loop
      vertex -14.4205 -51.9032 0
      vertex -6.43034 -45.4521 0
      vertex -13.0893 -53.0253 0
    endloop
  endfacet
  facet normal -0 0 -1
    outer loop
      vertex -6.43034 -45.4521 0
      vertex -14.4205 -51.9032 0
      vertex -6.91466 -44.806 0
    endloop
  endfacet
  facet normal 0 0 -1
    outer loop
      vertex -15.5978 -50.6462 0
      vertex -6.91466 -44.806 0
      vertex -14.4205 -51.9032 0
    endloop
  endfacet
  facet normal -0 0 -1
    outer loop
      vertex -6.91466 -44.806 0
      vertex -15.5978 -50.6462 0
      vertex -7.34532 -44.0826 0
    endloop
  endfacet
  facet normal 0 0 -1
    outer loop
      vertex -16.6213 -49.2543 0
      vertex -7.34532 -44.0826 0
      vertex -15.5978 -50.6462 0
    endloop
  endfacet
  facet normal -0 0 -1
    outer loop
      vertex -7.34532 -44.0826 0
      vertex -16.6213 -49.2543 0
      vertex -7.72238 -43.2819 0
    endloop
  endfacet
  facet normal 0 0 -1
    outer loop
      vertex -17.491 -47.7276 0
      vertex -7.72238 -43.2819 0
      vertex -16.6213 -49.2543 0
    endloop
  endfacet
  facet normal 0 0 -1
    outer loop
      vertex -18.2068 -46.0659 0
      vertex -7.72238 -43.2819 0
      vertex -17.491 -47.7276 0
    endloop
  endfacet
  facet normal -0 0 -1
    outer loop
      vertex -7.72238 -43.2819 0
      vertex -18.2068 -46.0659 0
      vertex -8.04581 -42.4039 0
    endloop
  endfacet
  facet normal 0 0 -1
    outer loop
      vertex -18.7688 -44.2693 0
      vertex -8.04581 -42.4039 0
      vertex -18.2068 -46.0659 0
    endloop
  endfacet
  facet normal -0 0 -1
    outer loop
      vertex -8.04581 -42.4039 0
      vertex -18.7688 -44.2693 0
      vertex -8.3156 -41.4486 0
    endloop
  endfacet
  facet normal 0 0 -1
    outer loop
      vertex -8.3156 -41.4486 0
      vertex -18.7688 -44.2693 0
      vertex -19.1769 -42.3378 0
    endloop
  endfacet
  facet normal 0 0 -1
    outer loop
      vertex 7.36423 -32.9142 0
      vertex 16.7882 -27.2014 0
      vertex 7.87619 -33.7026 0
    endloop
  endfacet
  facet normal -0 0 -1
    outer loop
      vertex 16.7882 -27.2014 0
      vertex 7.36423 -32.9142 0
      vertex 15.5526 -25.7748 0
    endloop
  endfacet
  facet normal -0 0 -1
    outer loop
      vertex 15.5526 -25.7748 0
      vertex 7.36423 -32.9142 0
      vertex 14.1584 -24.5083 0
    endloop
  endfacet
  facet normal 0 0 -1
    outer loop
      vertex 6.75919 -32.1913 0
      vertex 14.1584 -24.5083 0
      vertex 7.36423 -32.9142 0
    endloop
  endfacet
  facet normal -0 0 -1
    outer loop
      vertex 14.1584 -24.5083 0
      vertex 6.75919 -32.1913 0
      vertex 12.6371 -23.4366 0
    endloop
  endfacet
  facet normal 0 0 -1
    outer loop
      vertex 6.07051 -31.5504 0
      vertex 12.6371 -23.4366 0
      vertex 6.75919 -32.1913 0
    endloop
  endfacet
  facet normal -0 0 -1
    outer loop
      vertex 12.6371 -23.4366 0
      vertex 6.07051 -31.5504 0
      vertex 10.9888 -22.5598 0
    endloop
  endfacet
  facet normal 0 0 -1
    outer loop
      vertex 5.30771 -31.0081 0
      vertex 10.9888 -22.5598 0
      vertex 6.07051 -31.5504 0
    endloop
  endfacet
  facet normal -0 0 -1
    outer loop
      vertex 10.9888 -22.5598 0
      vertex 5.30771 -31.0081 0
      vertex 9.21352 -21.8778 0
    endloop
  endfacet
  facet normal 0 0 -1
    outer loop
      vertex 4.47075 -30.5644 0
      vertex 9.21352 -21.8778 0
      vertex 5.30771 -31.0081 0
    endloop
  endfacet
  facet normal -0 0 -1
    outer loop
      vertex 9.21352 -21.8778 0
      vertex 4.47075 -30.5644 0
      vertex 7.31119 -21.3907 0
    endloop
  endfacet
  facet normal 0 0 -1
    outer loop
      vertex 3.55965 -30.2193 0
      vertex 7.31119 -21.3907 0
      vertex 4.47075 -30.5644 0
    endloop
  endfacet
  facet normal -0 0 -1
    outer loop
      vertex 7.31119 -21.3907 0
      vertex 3.55965 -30.2193 0
      vertex 5.28181 -21.0984 0
    endloop
  endfacet
  facet normal 0 0 -1
    outer loop
      vertex 2.57439 -29.9728 0
      vertex 5.28181 -21.0984 0
      vertex 3.55965 -30.2193 0
    endloop
  endfacet
  facet normal -0 0 -1
    outer loop
      vertex 5.28181 -21.0984 0
      vertex 2.57439 -29.9728 0
      vertex 3.12543 -21.001 0
    endloop
  endfacet
  facet normal 0 0 -1
    outer loop
      vertex 1.515 -29.8249 0
      vertex 3.12543 -21.001 0
      vertex 2.57439 -29.9728 0
    endloop
  endfacet
  facet normal 0 0 -1
    outer loop
      vertex 1.515 -29.8249 0
      vertex 1.47601 -21.072 0
      vertex 3.12543 -21.001 0
    endloop
  endfacet
  facet normal 0 0 -1
    outer loop
      vertex -0.0929413 -21.285 0
      vertex 1.515 -29.8249 0
      vertex 0.381454 -29.7756 0
    endloop
  endfacet
  facet normal 0 0 -1
    outer loop
      vertex 1.515 -29.8249 0
      vertex -0.0929413 -21.285 0
      vertex 1.47601 -21.072 0
    endloop
  endfacet
  facet normal 0 0 -1
    outer loop
      vertex -1.58145 -21.6401 0
      vertex 0.381454 -29.7756 0
      vertex -0.87674 -29.8474 0
    endloop
  endfacet
  facet normal 0 0 -1
    outer loop
      vertex 0.381454 -29.7756 0
      vertex -1.58145 -21.6401 0
      vertex -0.0929413 -21.285 0
    endloop
  endfacet
  facet normal 0 0 -1
    outer loop
      vertex -4.31712 -22.7762 0
      vertex -0.87674 -29.8474 0
      vertex -2.06712 -30.0628 0
    endloop
  endfacet
  facet normal 0 0 -1
    outer loop
      vertex -0.87674 -29.8474 0
      vertex -2.98952 -22.1371 0
      vertex -1.58145 -21.6401 0
    endloop
  endfacet
  facet normal 0 0 -1
    outer loop
      vertex -5.56429 -23.5572 0
      vertex -2.06712 -30.0628 0
      vertex -3.18968 -30.4217 0
    endloop
  endfacet
  facet normal 0 0 -1
    outer loop
      vertex -6.731 -24.4803 0
      vertex -3.18968 -30.4217 0
      vertex -4.24442 -30.9242 0
    endloop
  endfacet
  facet normal 0 0 -1
    outer loop
      vertex -0.87674 -29.8474 0
      vertex -4.31712 -22.7762 0
      vertex -2.98952 -22.1371 0
    endloop
  endfacet
  facet normal 0 0 -1
    outer loop
      vertex -6.731 -24.4803 0
      vertex -4.24442 -30.9242 0
      vertex -5.23135 -31.5702 0
    endloop
  endfacet
  facet normal 0 0 -1
    outer loop
      vertex -2.06712 -30.0628 0
      vertex -5.56429 -23.5572 0
      vertex -4.31712 -22.7762 0
    endloop
  endfacet
  facet normal 0 0 -1
    outer loop
      vertex -6.731 -24.4803 0
      vertex -5.23135 -31.5702 0
      vertex -6.15045 -32.3599 0
    endloop
  endfacet
  facet normal 0 0 -1
    outer loop
      vertex -3.18968 -30.4217 0
      vertex -6.731 -24.4803 0
      vertex -5.56429 -23.5572 0
    endloop
  endfacet
  facet normal 0 -0 -1
    outer loop
      vertex -6.731 -24.4803 0
      vertex -6.15045 -32.3599 0
      vertex -7.00174 -33.2931 0
    endloop
  endfacet
  facet normal 0 0 -1
    outer loop
      vertex -5.8418 -11.8793 0
      vertex 17.0408 -3.80072 0
      vertex 17.0408 -11.8793 0
    endloop
  endfacet
  facet normal 0 0 -1
    outer loop
      vertex -5.8418 -11.8793 0
      vertex -15.6982 -3.80072 0
      vertex 17.0408 -3.80072 0
    endloop
  endfacet
  facet normal 0 0 -1
    outer loop
      vertex -6.731 -24.4803 0
      vertex -15.6982 -3.80072 0
      vertex -5.8418 -11.8793 0
    endloop
  endfacet
  facet normal 0 0 -1
    outer loop
      vertex -17.5923 -33.2931 0
      vertex -6.731 -24.4803 0
      vertex -7.00174 -33.2931 0
    endloop
  endfacet
  facet normal -0 0 -1
    outer loop
      vertex -6.731 -24.4803 0
      vertex -17.5923 -33.2931 0
      vertex -15.6982 -3.80072 0
    endloop
  endfacet
  facet normal 0 0 1
    outer loop
      vertex 17.0408 -3.80072 1
      vertex -5.8418 -11.8793 1
      vertex 17.0408 -11.8793 1
    endloop
  endfacet
  facet normal -0 0 1
    outer loop
      vertex -15.6982 -3.80072 1
      vertex -5.8418 -11.8793 1
      vertex 17.0408 -3.80072 1
    endloop
  endfacet
  facet normal 0 0 1
    outer loop
      vertex -15.6982 -3.80072 1
      vertex -6.731 -24.4803 1
      vertex -5.8418 -11.8793 1
    endloop
  endfacet
  facet normal 0 0 1
    outer loop
      vertex -17.5923 -33.2931 1
      vertex -6.731 -24.4803 1
      vertex -15.6982 -3.80072 1
    endloop
  endfacet
  facet normal 0 0 1
    outer loop
      vertex -6.731 -24.4803 1
      vertex -17.5923 -33.2931 1
      vertex -7.00174 -33.2931 1
    endloop
  endfacet
  facet normal 0 0 1
    outer loop
      vertex 20.21 -38.3952 1
      vertex 8.99321 -37.5113 1
      vertex 9.03975 -38.6271 1
    endloop
  endfacet
  facet normal 0 0 1
    outer loop
      vertex 10.9888 -22.5598 1
      vertex 8.85358 -36.4609 1
      vertex 8.99321 -37.5113 1
    endloop
  endfacet
  facet normal 0 0 1
    outer loop
      vertex 10.9888 -22.5598 1
      vertex 8.62086 -35.476 1
      vertex 8.85358 -36.4609 1
    endloop
  endfacet
  facet normal 0 0 1
    outer loop
      vertex 10.9888 -22.5598 1
      vertex 8.29507 -34.5565 1
      vertex 8.62086 -35.476 1
    endloop
  endfacet
  facet normal 0 0 1
    outer loop
      vertex 10.9888 -22.5598 1
      vertex 7.87619 -33.7026 1
      vertex 8.29507 -34.5565 1
    endloop
  endfacet
  facet normal 0 0 1
    outer loop
      vertex 10.9888 -22.5598 1
      vertex 7.36423 -32.9142 1
      vertex 7.87619 -33.7026 1
    endloop
  endfacet
  facet normal 0 0 1
    outer loop
      vertex 4.47075 -30.5644 1
      vertex 9.21352 -21.8778 1
      vertex 7.31119 -21.3907 1
    endloop
  endfacet
  facet normal 0 0 1
    outer loop
      vertex 10.9888 -22.5598 1
      vertex 6.75919 -32.1913 1
      vertex 7.36423 -32.9142 1
    endloop
  endfacet
  facet normal 0 0 1
    outer loop
      vertex 10.9888 -22.5598 1
      vertex 6.07051 -31.5504 1
      vertex 6.75919 -32.1913 1
    endloop
  endfacet
  facet normal 0 0 1
    outer loop
      vertex 10.9888 -22.5598 1
      vertex 5.30771 -31.0081 1
      vertex 6.07051 -31.5504 1
    endloop
  endfacet
  facet normal 0 0 1
    outer loop
      vertex 3.55965 -30.2193 1
      vertex 7.31119 -21.3907 1
      vertex 5.28181 -21.0984 1
    endloop
  endfacet
  facet normal 0 0 1
    outer loop
      vertex 9.21352 -21.8778 1
      vertex 4.47075 -30.5644 1
      vertex 5.30771 -31.0081 1
    endloop
  endfacet
  facet normal 0 0 1
    outer loop
      vertex 7.31119 -21.3907 1
      vertex 3.55965 -30.2193 1
      vertex 4.47075 -30.5644 1
    endloop
  endfacet
  facet normal 0 0 1
    outer loop
      vertex 2.57439 -29.9728 1
      vertex 5.28181 -21.0984 1
      vertex 3.12543 -21.001 1
    endloop
  endfacet
  facet normal 0 0 1
    outer loop
      vertex 5.28181 -21.0984 1
      vertex 2.57439 -29.9728 1
      vertex 3.55965 -30.2193 1
    endloop
  endfacet
  facet normal 0 0 1
    outer loop
      vertex 3.12543 -21.001 1
      vertex 1.515 -29.8249 1
      vertex 2.57439 -29.9728 1
    endloop
  endfacet
  facet normal -0 0 1
    outer loop
      vertex 1.47601 -21.072 1
      vertex 1.515 -29.8249 1
      vertex 3.12543 -21.001 1
    endloop
  endfacet
  facet normal -0 0 1
    outer loop
      vertex -0.0929413 -21.285 1
      vertex 1.515 -29.8249 1
      vertex 1.47601 -21.072 1
    endloop
  endfacet
  facet normal 0 0 1
    outer loop
      vertex 1.515 -29.8249 1
      vertex -0.0929413 -21.285 1
      vertex 0.381454 -29.7756 1
    endloop
  endfacet
  facet normal -0 0 1
    outer loop
      vertex -1.58145 -21.6401 1
      vertex 0.381454 -29.7756 1
      vertex -0.0929413 -21.285 1
    endloop
  endfacet
  facet normal 0 0 1
    outer loop
      vertex 0.381454 -29.7756 1
      vertex -1.58145 -21.6401 1
      vertex -0.87674 -29.8474 1
    endloop
  endfacet
  facet normal -0 0 1
    outer loop
      vertex -2.98952 -22.1371 1
      vertex -0.87674 -29.8474 1
      vertex -1.58145 -21.6401 1
    endloop
  endfacet
  facet normal -0 0 1
    outer loop
      vertex -4.31712 -22.7762 1
      vertex -0.87674 -29.8474 1
      vertex -2.98952 -22.1371 1
    endloop
  endfacet
  facet normal 0 0 1
    outer loop
      vertex -0.87674 -29.8474 1
      vertex -4.31712 -22.7762 1
      vertex -2.06712 -30.0628 1
    endloop
  endfacet
  facet normal -0 0 1
    outer loop
      vertex -5.56429 -23.5572 1
      vertex -2.06712 -30.0628 1
      vertex -4.31712 -22.7762 1
    endloop
  endfacet
  facet normal 0 0 1
    outer loop
      vertex -2.06712 -30.0628 1
      vertex -5.56429 -23.5572 1
      vertex -3.18968 -30.4217 1
    endloop
  endfacet
  facet normal -0 0 1
    outer loop
      vertex -6.731 -24.4803 1
      vertex -3.18968 -30.4217 1
      vertex -5.56429 -23.5572 1
    endloop
  endfacet
  facet normal 0 0 1
    outer loop
      vertex -3.18968 -30.4217 1
      vertex -6.731 -24.4803 1
      vertex -4.24442 -30.9242 1
    endloop
  endfacet
  facet normal 0 0 1
    outer loop
      vertex -4.24442 -30.9242 1
      vertex -6.731 -24.4803 1
      vertex -5.23135 -31.5702 1
    endloop
  endfacet
  facet normal 0 0 1
    outer loop
      vertex -5.23135 -31.5702 1
      vertex -6.731 -24.4803 1
      vertex -6.15045 -32.3599 1
    endloop
  endfacet
  facet normal 0 0 1
    outer loop
      vertex -6.15045 -32.3599 1
      vertex -6.731 -24.4803 1
      vertex -7.00174 -33.2931 1
    endloop
  endfacet
  facet normal -0 0 1
    outer loop
      vertex 8.99321 -37.5113 1
      vertex 20.21 -38.3952 1
      vertex 20.115 -36.216 1
    endloop
  endfacet
  facet normal 0 0 1
    outer loop
      vertex 20.21 -38.3952 1
      vertex 9.03975 -38.6271 1
      vertex 20.1607 -39.9157 1
    endloop
  endfacet
  facet normal 0 0 1
    outer loop
      vertex 8.99321 -37.5113 1
      vertex 20.115 -36.216 1
      vertex 19.8298 -34.1622 1
    endloop
  endfacet
  facet normal -0 0 1
    outer loop
      vertex 8.99162 -39.8774 1
      vertex 20.1607 -39.9157 1
      vertex 9.03975 -38.6271 1
    endloop
  endfacet
  facet normal 0 0 1
    outer loop
      vertex 20.1607 -39.9157 1
      vertex 8.99162 -39.8774 1
      vertex 20.0128 -41.3849 1
    endloop
  endfacet
  facet normal 0 0 1
    outer loop
      vertex 8.99321 -37.5113 1
      vertex 19.8298 -34.1622 1
      vertex 19.3546 -32.2339 1
    endloop
  endfacet
  facet normal 0 0 1
    outer loop
      vertex 20.0128 -41.3849 1
      vertex 8.99162 -39.8774 1
      vertex 19.7663 -42.8029 1
    endloop
  endfacet
  facet normal 0 0 1
    outer loop
      vertex 8.99321 -37.5113 1
      vertex 19.3546 -32.2339 1
      vertex 18.6892 -30.431 1
    endloop
  endfacet
  facet normal -0 0 1
    outer loop
      vertex 8.84726 -41.0441 1
      vertex 19.7663 -42.8029 1
      vertex 8.99162 -39.8774 1
    endloop
  endfacet
  facet normal 0 0 1
    outer loop
      vertex 8.99321 -37.5113 1
      vertex 18.6892 -30.431 1
      vertex 17.8338 -28.7535 1
    endloop
  endfacet
  facet normal 0 0 1
    outer loop
      vertex 19.7663 -42.8029 1
      vertex 8.84726 -41.0441 1
      vertex 19.4212 -44.1696 1
    endloop
  endfacet
  facet normal -0 0 1
    outer loop
      vertex 8.60663 -42.1272 1
      vertex 19.4212 -44.1696 1
      vertex 8.84726 -41.0441 1
    endloop
  endfacet
  facet normal 0 0 1
    outer loop
      vertex 8.99321 -37.5113 1
      vertex 17.8338 -28.7535 1
      vertex 16.7882 -27.2014 1
    endloop
  endfacet
  facet normal 0 0 1
    outer loop
      vertex 19.4212 -44.1696 1
      vertex 8.60663 -42.1272 1
      vertex 18.9776 -45.485 1
    endloop
  endfacet
  facet normal 0 0 1
    outer loop
      vertex 8.99321 -37.5113 1
      vertex 16.7882 -27.2014 1
      vertex 15.5526 -25.7748 1
    endloop
  endfacet
  facet normal 0 0 1
    outer loop
      vertex 18.9776 -45.485 1
      vertex 8.60663 -42.1272 1
      vertex 18.4353 -46.7492 1
    endloop
  endfacet
  facet normal -0 0 1
    outer loop
      vertex 8.26976 -43.1266 1
      vertex 18.4353 -46.7492 1
      vertex 8.60663 -42.1272 1
    endloop
  endfacet
  facet normal 0 0 1
    outer loop
      vertex 8.99321 -37.5113 1
      vertex 15.5526 -25.7748 1
      vertex 14.1584 -24.5083 1
    endloop
  endfacet
  facet normal 0 0 1
    outer loop
      vertex 18.4353 -46.7492 1
      vertex 8.26976 -43.1266 1
      vertex 17.7944 -47.962 1
    endloop
  endfacet
  facet normal 0 0 1
    outer loop
      vertex 8.99321 -37.5113 1
      vertex 14.1584 -24.5083 1
      vertex 12.6371 -23.4366 1
    endloop
  endfacet
  facet normal 0 0 1
    outer loop
      vertex 17.7944 -47.962 1
      vertex 8.26976 -43.1266 1
      vertex 17.06 -49.1114 1
    endloop
  endfacet
  facet normal 0 0 1
    outer loop
      vertex 8.99321 -37.5113 1
      vertex 12.6371 -23.4366 1
      vertex 10.9888 -22.5598 1
    endloop
  endfacet
  facet normal -0 0 1
    outer loop
      vertex 7.83664 -44.0425 1
      vertex 17.06 -49.1114 1
      vertex 8.26976 -43.1266 1
    endloop
  endfacet
  facet normal 0 0 1
    outer loop
      vertex 17.06 -49.1114 1
      vertex 7.83664 -44.0425 1
      vertex 16.2373 -50.185 1
    endloop
  endfacet
  facet normal 0 0 1
    outer loop
      vertex 5.30771 -31.0081 1
      vertex 10.9888 -22.5598 1
      vertex 9.21352 -21.8778 1
    endloop
  endfacet
  facet normal 0 0 1
    outer loop
      vertex 16.2373 -50.185 1
      vertex 7.83664 -44.0425 1
      vertex 15.3262 -51.1829 1
    endloop
  endfacet
  facet normal -0 0 1
    outer loop
      vertex 7.30728 -44.8747 1
      vertex 15.3262 -51.1829 1
      vertex 7.83664 -44.0425 1
    endloop
  endfacet
  facet normal 0 0 1
    outer loop
      vertex 15.3262 -51.1829 1
      vertex 7.30728 -44.8747 1
      vertex 14.3267 -52.1051 1
    endloop
  endfacet
  facet normal -0 0 1
    outer loop
      vertex 6.68166 -45.6233 1
      vertex 14.3267 -52.1051 1
      vertex 7.30728 -44.8747 1
    endloop
  endfacet
  facet normal 0 0 1
    outer loop
      vertex 14.3267 -52.1051 1
      vertex 6.68166 -45.6233 1
      vertex 13.2389 -52.9516 1
    endloop
  endfacet
  facet normal 0 0 1
    outer loop
      vertex 13.2389 -52.9516 1
      vertex 6.68166 -45.6233 1
      vertex 12.0627 -53.7223 1
    endloop
  endfacet
  facet normal -0 0 1
    outer loop
      vertex 5.97099 -46.2796 1
      vertex 12.0627 -53.7223 1
      vertex 6.68166 -45.6233 1
    endloop
  endfacet
  facet normal 0 0 1
    outer loop
      vertex 12.0627 -53.7223 1
      vertex 5.97099 -46.2796 1
      vertex 10.7982 -54.4173 1
    endloop
  endfacet
  facet normal -0 0 1
    outer loop
      vertex 5.18617 -46.835 1
      vertex 10.7982 -54.4173 1
      vertex 5.97099 -46.2796 1
    endloop
  endfacet
  facet normal 0 0 1
    outer loop
      vertex 10.7982 -54.4173 1
      vertex 5.18617 -46.835 1
      vertex 9.45674 -55.0273 1
    endloop
  endfacet
  facet normal 0 0 1
    outer loop
      vertex 9.45674 -55.0273 1
      vertex 5.18617 -46.835 1
      vertex 8.04982 -55.5435 1
    endloop
  endfacet
  facet normal -0 0 1
    outer loop
      vertex 4.32716 -47.2894 1
      vertex 8.04982 -55.5435 1
      vertex 5.18617 -46.835 1
    endloop
  endfacet
  facet normal 0 0 1
    outer loop
      vertex 8.04982 -55.5435 1
      vertex 4.32716 -47.2894 1
      vertex 6.57742 -55.9659 1
    endloop
  endfacet
  facet normal -0 0 1
    outer loop
      vertex 3.394 -47.6427 1
      vertex 6.57742 -55.9659 1
      vertex 4.32716 -47.2894 1
    endloop
  endfacet
  facet normal 0 0 1
    outer loop
      vertex 6.57742 -55.9659 1
      vertex 3.394 -47.6427 1
      vertex 5.03957 -56.2943 1
    endloop
  endfacet
  facet normal -0 0 1
    outer loop
      vertex 2.38666 -47.8952 1
      vertex 5.03957 -56.2943 1
      vertex 3.394 -47.6427 1
    endloop
  endfacet
  facet normal 0 0 1
    outer loop
      vertex 5.03957 -56.2943 1
      vertex 2.38666 -47.8952 1
      vertex 3.43625 -56.529 1
    endloop
  endfacet
  facet normal -0 0 1
    outer loop
      vertex 1.30515 -48.0466 1
      vertex 3.43625 -56.529 1
      vertex 2.38666 -47.8952 1
    endloop
  endfacet
  facet normal 0 0 1
    outer loop
      vertex 3.43625 -56.529 1
      vertex 1.30515 -48.0466 1
      vertex 1.76744 -56.6697 1
    endloop
  endfacet
  facet normal -0 0 1
    outer loop
      vertex 0.14946 -48.0971 1
      vertex 1.76744 -56.6697 1
      vertex 1.30515 -48.0466 1
    endloop
  endfacet
  facet normal 0 0 1
    outer loop
      vertex 0.14946 -48.0971 1
      vertex 0.0331726 -56.7167 1
      vertex 1.76744 -56.6697 1
    endloop
  endfacet
  facet normal 0 0 1
    outer loop
      vertex -0.766357 -48.0648 1
      vertex 0.0331726 -56.7167 1
      vertex 0.14946 -48.0971 1
    endloop
  endfacet
  facet normal 0 0 1
    outer loop
      vertex -2.24138 -56.6413 1
      vertex -0.766357 -48.0648 1
      vertex -1.63646 -47.9678 1
    endloop
  endfacet
  facet normal 0 0 1
    outer loop
      vertex -0.766357 -48.0648 1
      vertex -2.24138 -56.6413 1
      vertex 0.0331726 -56.7167 1
    endloop
  endfacet
  facet normal 0 0 1
    outer loop
      vertex -2.46082 -47.8061 1
      vertex -2.24138 -56.6413 1
      vertex -1.63646 -47.9678 1
    endloop
  endfacet
  facet normal 0 0 1
    outer loop
      vertex -4.38266 -56.4153 1
      vertex -2.46082 -47.8061 1
      vertex -3.23944 -47.5797 1
    endloop
  endfacet
  facet normal 0 0 1
    outer loop
      vertex -6.39061 -56.0387 1
      vertex -3.23944 -47.5797 1
      vertex -3.97232 -47.2887 1
    endloop
  endfacet
  facet normal 0 0 1
    outer loop
      vertex -2.46082 -47.8061 1
      vertex -4.38266 -56.4153 1
      vertex -2.24138 -56.6413 1
    endloop
  endfacet
  facet normal 0 0 1
    outer loop
      vertex -8.26526 -55.5113 1
      vertex -3.97232 -47.2887 1
      vertex -4.65947 -46.9329 1
    endloop
  endfacet
  facet normal 0 0 1
    outer loop
      vertex -10.0066 -54.8333 1
      vertex -4.65947 -46.9329 1
      vertex -5.30087 -46.5125 1
    endloop
  endfacet
  facet normal 0 0 1
    outer loop
      vertex -11.6146 -54.0047 1
      vertex -5.30087 -46.5125 1
      vertex -5.89243 -46.021 1
    endloop
  endfacet
  facet normal 0 0 1
    outer loop
      vertex -3.23944 -47.5797 1
      vertex -6.39061 -56.0387 1
      vertex -4.38266 -56.4153 1
    endloop
  endfacet
  facet normal 0 0 1
    outer loop
      vertex -13.0893 -53.0253 1
      vertex -5.89243 -46.021 1
      vertex -6.43034 -45.4521 1
    endloop
  endfacet
  facet normal 0 0 1
    outer loop
      vertex -14.4205 -51.9032 1
      vertex -6.43034 -45.4521 1
      vertex -6.91466 -44.806 1
    endloop
  endfacet
  facet normal 0 0 1
    outer loop
      vertex -15.5978 -50.6462 1
      vertex -6.91466 -44.806 1
      vertex -7.34532 -44.0826 1
    endloop
  endfacet
  facet normal 0 0 1
    outer loop
      vertex -16.6213 -49.2543 1
      vertex -7.34532 -44.0826 1
      vertex -7.72238 -43.2819 1
    endloop
  endfacet
  facet normal 0 0 1
    outer loop
      vertex -18.2068 -46.0659 1
      vertex -7.72238 -43.2819 1
      vertex -8.04581 -42.4039 1
    endloop
  endfacet
  facet normal 0 0 1
    outer loop
      vertex -3.97232 -47.2887 1
      vertex -8.26526 -55.5113 1
      vertex -6.39061 -56.0387 1
    endloop
  endfacet
  facet normal 0 0 1
    outer loop
      vertex -18.7688 -44.2693 1
      vertex -8.04581 -42.4039 1
      vertex -8.3156 -41.4486 1
    endloop
  endfacet
  facet normal 0 0 1
    outer loop
      vertex -4.65947 -46.9329 1
      vertex -10.0066 -54.8333 1
      vertex -8.26526 -55.5113 1
    endloop
  endfacet
  facet normal 0 0 1
    outer loop
      vertex -5.30087 -46.5125 1
      vertex -11.6146 -54.0047 1
      vertex -10.0066 -54.8333 1
    endloop
  endfacet
  facet normal 0 0 1
    outer loop
      vertex -5.89243 -46.021 1
      vertex -13.0893 -53.0253 1
      vertex -11.6146 -54.0047 1
    endloop
  endfacet
  facet normal 0 0 1
    outer loop
      vertex -6.43034 -45.4521 1
      vertex -14.4205 -51.9032 1
      vertex -13.0893 -53.0253 1
    endloop
  endfacet
  facet normal 0 0 1
    outer loop
      vertex -6.91466 -44.806 1
      vertex -15.5978 -50.6462 1
      vertex -14.4205 -51.9032 1
    endloop
  endfacet
  facet normal 0 0 1
    outer loop
      vertex -7.34532 -44.0826 1
      vertex -16.6213 -49.2543 1
      vertex -15.5978 -50.6462 1
    endloop
  endfacet
  facet normal 0 0 1
    outer loop
      vertex -7.72238 -43.2819 1
      vertex -17.491 -47.7276 1
      vertex -16.6213 -49.2543 1
    endloop
  endfacet
  facet normal 0 0 1
    outer loop
      vertex -7.72238 -43.2819 1
      vertex -18.2068 -46.0659 1
      vertex -17.491 -47.7276 1
    endloop
  endfacet
  facet normal 0 0 1
    outer loop
      vertex -8.04581 -42.4039 1
      vertex -18.7688 -44.2693 1
      vertex -18.2068 -46.0659 1
    endloop
  endfacet
  facet normal 0 -0 1
    outer loop
      vertex -18.7688 -44.2693 1
      vertex -8.3156 -41.4486 1
      vertex -19.1769 -42.3378 1
    endloop
  endfacet
  facet normal 0.0840135 -0.996465 0
    outer loop
      vertex 1.76744 -56.6697 0
      vertex 3.43625 -56.529 1
      vertex 1.76744 -56.6697 1
    endloop
  endfacet
  facet normal 0.0840135 -0.996465 0
    outer loop
      vertex 3.43625 -56.529 1
      vertex 1.76744 -56.6697 0
      vertex 3.43625 -56.529 0
    endloop
  endfacet
  facet normal 0.14484 -0.989455 0
    outer loop
      vertex 3.43625 -56.529 0
      vertex 5.03957 -56.2943 1
      vertex 3.43625 -56.529 1
    endloop
  endfacet
  facet normal 0.14484 -0.989455 0
    outer loop
      vertex 5.03957 -56.2943 1
      vertex 3.43625 -56.529 0
      vertex 5.03957 -56.2943 0
    endloop
  endfacet
  facet normal 0.208836 -0.977951 0
    outer loop
      vertex 5.03957 -56.2943 0
      vertex 6.57742 -55.9659 1
      vertex 5.03957 -56.2943 1
    endloop
  endfacet
  facet normal 0.208836 -0.977951 0
    outer loop
      vertex 6.57742 -55.9659 1
      vertex 5.03957 -56.2943 0
      vertex 6.57742 -55.9659 0
    endloop
  endfacet
  facet normal 0.275756 -0.961228 0
    outer loop
      vertex 6.57742 -55.9659 0
      vertex 8.04982 -55.5435 1
      vertex 6.57742 -55.9659 1
    endloop
  endfacet
  facet normal 0.275756 -0.961228 0
    outer loop
      vertex 8.04982 -55.5435 1
      vertex 6.57742 -55.9659 0
      vertex 8.04982 -55.5435 0
    endloop
  endfacet
  facet normal 0.344448 -0.938805 0
    outer loop
      vertex 8.04982 -55.5435 0
      vertex 9.45674 -55.0273 1
      vertex 8.04982 -55.5435 1
    endloop
  endfacet
  facet normal 0.344448 -0.938805 0
    outer loop
      vertex 9.45674 -55.0273 1
      vertex 8.04982 -55.5435 0
      vertex 9.45674 -55.0273 0
    endloop
  endfacet
  facet normal 0.413941 -0.910304 0
    outer loop
      vertex 9.45674 -55.0273 0
      vertex 10.7982 -54.4173 1
      vertex 9.45674 -55.0273 1
    endloop
  endfacet
  facet normal 0.413941 -0.910304 0
    outer loop
      vertex 10.7982 -54.4173 1
      vertex 9.45674 -55.0273 0
      vertex 10.7982 -54.4173 0
    endloop
  endfacet
  facet normal 0.481666 -0.876355 0
    outer loop
      vertex 10.7982 -54.4173 0
      vertex 12.0627 -53.7223 1
      vertex 10.7982 -54.4173 1
    endloop
  endfacet
  facet normal 0.481666 -0.876355 0
    outer loop
      vertex 12.0627 -53.7223 1
      vertex 10.7982 -54.4173 0
      vertex 12.0627 -53.7223 0
    endloop
  endfacet
  facet normal 0.548069 -0.836433 0
    outer loop
      vertex 12.0627 -53.7223 0
      vertex 13.2389 -52.9516 1
      vertex 12.0627 -53.7223 1
    endloop
  endfacet
  facet normal 0.548069 -0.836433 0
    outer loop
      vertex 13.2389 -52.9516 1
      vertex 12.0627 -53.7223 0
      vertex 13.2389 -52.9516 0
    endloop
  endfacet
  facet normal 0.614136 -0.7892 0
    outer loop
      vertex 13.2389 -52.9516 0
      vertex 14.3267 -52.1051 1
      vertex 13.2389 -52.9516 1
    endloop
  endfacet
  facet normal 0.614136 -0.7892 0
    outer loop
      vertex 14.3267 -52.1051 1
      vertex 13.2389 -52.9516 0
      vertex 14.3267 -52.1051 0
    endloop
  endfacet
  facet normal 0.678115 -0.734956 0
    outer loop
      vertex 14.3267 -52.1051 0
      vertex 15.3262 -51.1829 1
      vertex 14.3267 -52.1051 1
    endloop
  endfacet
  facet normal 0.678115 -0.734956 0
    outer loop
      vertex 15.3262 -51.1829 1
      vertex 14.3267 -52.1051 0
      vertex 15.3262 -51.1829 0
    endloop
  endfacet
  facet normal 0.738495 -0.674259 0
    outer loop
      vertex 15.3262 -51.1829 1
      vertex 16.2373 -50.185 0
      vertex 16.2373 -50.185 1
    endloop
  endfacet
  facet normal 0.738495 -0.674259 0
    outer loop
      vertex 16.2373 -50.185 0
      vertex 15.3262 -51.1829 1
      vertex 15.3262 -51.1829 0
    endloop
  endfacet
  facet normal 0.793747 -0.608248 0
    outer loop
      vertex 16.2373 -50.185 1
      vertex 17.06 -49.1114 0
      vertex 17.06 -49.1114 1
    endloop
  endfacet
  facet normal 0.793747 -0.608248 0
    outer loop
      vertex 17.06 -49.1114 0
      vertex 16.2373 -50.185 1
      vertex 16.2373 -50.185 0
    endloop
  endfacet
  facet normal 0.842676 -0.538421 0
    outer loop
      vertex 17.06 -49.1114 1
      vertex 17.7944 -47.962 0
      vertex 17.7944 -47.962 1
    endloop
  endfacet
  facet normal 0.842676 -0.538421 0
    outer loop
      vertex 17.7944 -47.962 0
      vertex 17.06 -49.1114 1
      vertex 17.06 -49.1114 0
    endloop
  endfacet
  facet normal 0.884141 -0.467221 0
    outer loop
      vertex 17.7944 -47.962 1
      vertex 18.4353 -46.7492 0
      vertex 18.4353 -46.7492 1
    endloop
  endfacet
  facet normal 0.884141 -0.467221 0
    outer loop
      vertex 18.4353 -46.7492 0
      vertex 17.7944 -47.962 1
      vertex 17.7944 -47.962 0
    endloop
  endfacet
  facet normal 0.919013 -0.394226 0
    outer loop
      vertex 18.4353 -46.7492 1
      vertex 18.9776 -45.485 0
      vertex 18.9776 -45.485 1
    endloop
  endfacet
  facet normal 0.919013 -0.394226 0
    outer loop
      vertex 18.9776 -45.485 0
      vertex 18.4353 -46.7492 1
      vertex 18.4353 -46.7492 0
    endloop
  endfacet
  facet normal 0.947568 -0.319554 0
    outer loop
      vertex 18.9776 -45.485 1
      vertex 19.4212 -44.1696 0
      vertex 19.4212 -44.1696 1
    endloop
  endfacet
  facet normal 0.947568 -0.319554 0
    outer loop
      vertex 19.4212 -44.1696 0
      vertex 18.9776 -45.485 1
      vertex 18.9776 -45.485 0
    endloop
  endfacet
  facet normal 0.969568 -0.244822 0
    outer loop
      vertex 19.4212 -44.1696 1
      vertex 19.7663 -42.8029 0
      vertex 19.7663 -42.8029 1
    endloop
  endfacet
  facet normal 0.969568 -0.244822 0
    outer loop
      vertex 19.7663 -42.8029 0
      vertex 19.4212 -44.1696 1
      vertex 19.4212 -44.1696 0
    endloop
  endfacet
  facet normal 0.985225 -0.171268 0
    outer loop
      vertex 19.7663 -42.8029 1
      vertex 20.0128 -41.3849 0
      vertex 20.0128 -41.3849 1
    endloop
  endfacet
  facet normal 0.985225 -0.171268 0
    outer loop
      vertex 20.0128 -41.3849 0
      vertex 19.7663 -42.8029 1
      vertex 19.7663 -42.8029 0
    endloop
  endfacet
  facet normal 0.994971 -0.100161 0
    outer loop
      vertex 20.0128 -41.3849 1
      vertex 20.1607 -39.9157 0
      vertex 20.1607 -39.9157 1
    endloop
  endfacet
  facet normal 0.994971 -0.100161 0
    outer loop
      vertex 20.1607 -39.9157 0
      vertex 20.0128 -41.3849 1
      vertex 20.0128 -41.3849 0
    endloop
  endfacet
  facet normal 0.999475 -0.0324065 0
    outer loop
      vertex 20.1607 -39.9157 1
      vertex 20.21 -38.3952 0
      vertex 20.21 -38.3952 1
    endloop
  endfacet
  facet normal 0.999475 -0.0324065 0
    outer loop
      vertex 20.21 -38.3952 0
      vertex 20.1607 -39.9157 1
      vertex 20.1607 -39.9157 0
    endloop
  endfacet
  facet normal 0.999051 0.0435526 0
    outer loop
      vertex 20.21 -38.3952 1
      vertex 20.115 -36.216 0
      vertex 20.115 -36.216 1
    endloop
  endfacet
  facet normal 0.999051 0.0435526 0
    outer loop
      vertex 20.115 -36.216 0
      vertex 20.21 -38.3952 1
      vertex 20.21 -38.3952 0
    endloop
  endfacet
  facet normal 0.990496 0.137545 0
    outer loop
      vertex 20.115 -36.216 1
      vertex 19.8298 -34.1622 0
      vertex 19.8298 -34.1622 1
    endloop
  endfacet
  facet normal 0.990496 0.137545 0
    outer loop
      vertex 19.8298 -34.1622 0
      vertex 20.115 -36.216 1
      vertex 20.115 -36.216 0
    endloop
  endfacet
  facet normal 0.970952 0.239276 0
    outer loop
      vertex 19.8298 -34.1622 1
      vertex 19.3546 -32.2339 0
      vertex 19.3546 -32.2339 1
    endloop
  endfacet
  facet normal 0.970952 0.239276 0
    outer loop
      vertex 19.3546 -32.2339 0
      vertex 19.8298 -34.1622 1
      vertex 19.8298 -34.1622 0
    endloop
  endfacet
  facet normal 0.938145 0.346243 0
    outer loop
      vertex 19.3546 -32.2339 1
      vertex 18.6892 -30.431 0
      vertex 18.6892 -30.431 1
    endloop
  endfacet
  facet normal 0.938145 0.346243 0
    outer loop
      vertex 18.6892 -30.431 0
      vertex 19.3546 -32.2339 1
      vertex 19.3546 -32.2339 0
    endloop
  endfacet
  facet normal 0.890862 0.454273 0
    outer loop
      vertex 18.6892 -30.431 1
      vertex 17.8338 -28.7535 0
      vertex 17.8338 -28.7535 1
    endloop
  endfacet
  facet normal 0.890862 0.454273 0
    outer loop
      vertex 17.8338 -28.7535 0
      vertex 18.6892 -30.431 1
      vertex 18.6892 -30.431 0
    endloop
  endfacet
  facet normal 0.829361 0.558714 0
    outer loop
      vertex 17.8338 -28.7535 1
      vertex 16.7882 -27.2014 0
      vertex 16.7882 -27.2014 1
    endloop
  endfacet
  facet normal 0.829361 0.558714 0
    outer loop
      vertex 16.7882 -27.2014 0
      vertex 17.8338 -28.7535 1
      vertex 17.8338 -28.7535 0
    endloop
  endfacet
  facet normal 0.755895 0.654692 0
    outer loop
      vertex 16.7882 -27.2014 1
      vertex 15.5526 -25.7748 0
      vertex 15.5526 -25.7748 1
    endloop
  endfacet
  facet normal 0.755895 0.654692 0
    outer loop
      vertex 15.5526 -25.7748 0
      vertex 16.7882 -27.2014 1
      vertex 16.7882 -27.2014 0
    endloop
  endfacet
  facet normal 0.672395 0.740192 -0
    outer loop
      vertex 15.5526 -25.7748 0
      vertex 14.1584 -24.5083 1
      vertex 15.5526 -25.7748 1
    endloop
  endfacet
  facet normal 0.672395 0.740192 0
    outer loop
      vertex 14.1584 -24.5083 1
      vertex 15.5526 -25.7748 0
      vertex 14.1584 -24.5083 0
    endloop
  endfacet
  facet normal 0.575909 0.817514 -0
    outer loop
      vertex 14.1584 -24.5083 0
      vertex 12.6371 -23.4366 1
      vertex 14.1584 -24.5083 1
    endloop
  endfacet
  facet normal 0.575909 0.817514 0
    outer loop
      vertex 12.6371 -23.4366 1
      vertex 14.1584 -24.5083 0
      vertex 12.6371 -23.4366 0
    endloop
  endfacet
  facet normal 0.469632 0.882862 -0
    outer loop
      vertex 12.6371 -23.4366 0
      vertex 10.9888 -22.5598 1
      vertex 12.6371 -23.4366 1
    endloop
  endfacet
  facet normal 0.469632 0.882862 0
    outer loop
      vertex 10.9888 -22.5598 1
      vertex 12.6371 -23.4366 0
      vertex 10.9888 -22.5598 0
    endloop
  endfacet
  facet normal 0.358613 0.933486 -0
    outer loop
      vertex 10.9888 -22.5598 0
      vertex 9.21352 -21.8778 1
      vertex 10.9888 -22.5598 1
    endloop
  endfacet
  facet normal 0.358613 0.933486 0
    outer loop
      vertex 9.21352 -21.8778 1
      vertex 10.9888 -22.5598 0
      vertex 9.21352 -21.8778 0
    endloop
  endfacet
  facet normal 0.248052 0.968747 -0
    outer loop
      vertex 9.21352 -21.8778 0
      vertex 7.31119 -21.3907 1
      vertex 9.21352 -21.8778 1
    endloop
  endfacet
  facet normal 0.248052 0.968747 0
    outer loop
      vertex 7.31119 -21.3907 1
      vertex 9.21352 -21.8778 0
      vertex 7.31119 -21.3907 0
    endloop
  endfacet
  facet normal 0.142563 0.989786 -0
    outer loop
      vertex 7.31119 -21.3907 0
      vertex 5.28181 -21.0984 1
      vertex 7.31119 -21.3907 1
    endloop
  endfacet
  facet normal 0.142563 0.989786 0
    outer loop
      vertex 5.28181 -21.0984 1
      vertex 7.31119 -21.3907 0
      vertex 5.28181 -21.0984 0
    endloop
  endfacet
  facet normal 0.0451223 0.998981 -0
    outer loop
      vertex 5.28181 -21.0984 0
      vertex 3.12543 -21.001 1
      vertex 5.28181 -21.0984 1
    endloop
  endfacet
  facet normal 0.0451223 0.998981 0
    outer loop
      vertex 3.12543 -21.001 1
      vertex 5.28181 -21.0984 0
      vertex 3.12543 -21.001 0
    endloop
  endfacet
  facet normal -0.0430056 0.999075 0
    outer loop
      vertex 3.12543 -21.001 0
      vertex 1.47601 -21.072 1
      vertex 3.12543 -21.001 1
    endloop
  endfacet
  facet normal -0.0430056 0.999075 0
    outer loop
      vertex 1.47601 -21.072 1
      vertex 3.12543 -21.001 0
      vertex 1.47601 -21.072 0
    endloop
  endfacet
  facet normal -0.134525 0.99091 0
    outer loop
      vertex 1.47601 -21.072 0
      vertex -0.0929413 -21.285 1
      vertex 1.47601 -21.072 1
    endloop
  endfacet
  facet normal -0.134525 0.99091 0
    outer loop
      vertex -0.0929413 -21.285 1
      vertex 1.47601 -21.072 0
      vertex -0.0929413 -21.285 0
    endloop
  endfacet
  facet normal -0.232049 0.972704 0
    outer loop
      vertex -0.0929413 -21.285 0
      vertex -1.58145 -21.6401 1
      vertex -0.0929413 -21.285 1
    endloop
  endfacet
  facet normal -0.232049 0.972704 0
    outer loop
      vertex -1.58145 -21.6401 1
      vertex -0.0929413 -21.285 0
      vertex -1.58145 -21.6401 0
    endloop
  endfacet
  facet normal -0.33284 0.942983 0
    outer loop
      vertex -1.58145 -21.6401 0
      vertex -2.98952 -22.1371 1
      vertex -1.58145 -21.6401 1
    endloop
  endfacet
  facet normal -0.33284 0.942983 0
    outer loop
      vertex -2.98952 -22.1371 1
      vertex -1.58145 -21.6401 0
      vertex -2.98952 -22.1371 0
    endloop
  endfacet
  facet normal -0.433752 0.901032 0
    outer loop
      vertex -2.98952 -22.1371 0
      vertex -4.31712 -22.7762 1
      vertex -2.98952 -22.1371 1
    endloop
  endfacet
  facet normal -0.433752 0.901032 0
    outer loop
      vertex -4.31712 -22.7762 1
      vertex -2.98952 -22.1371 0
      vertex -4.31712 -22.7762 0
    endloop
  endfacet
  facet normal -0.530741 0.847534 0
    outer loop
      vertex -4.31712 -22.7762 0
      vertex -5.56429 -23.5572 1
      vertex -4.31712 -22.7762 1
    endloop
  endfacet
  facet normal -0.530741 0.847534 0
    outer loop
      vertex -5.56429 -23.5572 1
      vertex -4.31712 -22.7762 0
      vertex -5.56429 -23.5572 0
    endloop
  endfacet
  facet normal -0.620478 0.784224 0
    outer loop
      vertex -5.56429 -23.5572 0
      vertex -6.731 -24.4803 1
      vertex -5.56429 -23.5572 1
    endloop
  endfacet
  facet normal -0.620478 0.784224 0
    outer loop
      vertex -6.731 -24.4803 1
      vertex -5.56429 -23.5572 0
      vertex -6.731 -24.4803 0
    endloop
  endfacet
  facet normal 0.997519 -0.0703908 0
    outer loop
      vertex -6.731 -24.4803 1
      vertex -5.8418 -11.8793 0
      vertex -5.8418 -11.8793 1
    endloop
  endfacet
  facet normal 0.997519 -0.0703908 0
    outer loop
      vertex -5.8418 -11.8793 0
      vertex -6.731 -24.4803 1
      vertex -6.731 -24.4803 0
    endloop
  endfacet
  facet normal 0 -1 0
    outer loop
      vertex -5.8418 -11.8793 0
      vertex 17.0408 -11.8793 1
      vertex -5.8418 -11.8793 1
    endloop
  endfacet
  facet normal 0 -1 -0
    outer loop
      vertex 17.0408 -11.8793 1
      vertex -5.8418 -11.8793 0
      vertex 17.0408 -11.8793 0
    endloop
  endfacet
  facet normal 1 -0 0
    outer loop
      vertex 17.0408 -11.8793 1
      vertex 17.0408 -3.80072 0
      vertex 17.0408 -3.80072 1
    endloop
  endfacet
  facet normal 1 0 0
    outer loop
      vertex 17.0408 -3.80072 0
      vertex 17.0408 -11.8793 1
      vertex 17.0408 -11.8793 0
    endloop
  endfacet
  facet normal 0 1 -0
    outer loop
      vertex 17.0408 -3.80072 0
      vertex -15.6982 -3.80072 1
      vertex 17.0408 -3.80072 1
    endloop
  endfacet
  facet normal 0 1 0
    outer loop
      vertex -15.6982 -3.80072 1
      vertex 17.0408 -3.80072 0
      vertex -15.6982 -3.80072 0
    endloop
  endfacet
  facet normal -0.997944 0.0640913 0
    outer loop
      vertex -17.5923 -33.2931 0
      vertex -15.6982 -3.80072 1
      vertex -15.6982 -3.80072 0
    endloop
  endfacet
  facet normal -0.997944 0.0640913 0
    outer loop
      vertex -15.6982 -3.80072 1
      vertex -17.5923 -33.2931 0
      vertex -17.5923 -33.2931 1
    endloop
  endfacet
  facet normal 0 -1 0
    outer loop
      vertex -17.5923 -33.2931 0
      vertex -7.00174 -33.2931 1
      vertex -17.5923 -33.2931 1
    endloop
  endfacet
  facet normal 0 -1 -0
    outer loop
      vertex -7.00174 -33.2931 1
      vertex -17.5923 -33.2931 0
      vertex -7.00174 -33.2931 0
    endloop
  endfacet
  facet normal 0.738786 -0.67394 0
    outer loop
      vertex -7.00174 -33.2931 1
      vertex -6.15045 -32.3599 0
      vertex -6.15045 -32.3599 1
    endloop
  endfacet
  facet normal 0.738786 -0.67394 0
    outer loop
      vertex -6.15045 -32.3599 0
      vertex -7.00174 -33.2931 1
      vertex -7.00174 -33.2931 0
    endloop
  endfacet
  facet normal 0.651695 -0.758481 0
    outer loop
      vertex -6.15045 -32.3599 0
      vertex -5.23135 -31.5702 1
      vertex -6.15045 -32.3599 1
    endloop
  endfacet
  facet normal 0.651695 -0.758481 0
    outer loop
      vertex -5.23135 -31.5702 1
      vertex -6.15045 -32.3599 0
      vertex -5.23135 -31.5702 0
    endloop
  endfacet
  facet normal 0.547665 -0.836698 0
    outer loop
      vertex -5.23135 -31.5702 0
      vertex -4.24442 -30.9242 1
      vertex -5.23135 -31.5702 1
    endloop
  endfacet
  facet normal 0.547665 -0.836698 0
    outer loop
      vertex -4.24442 -30.9242 1
      vertex -5.23135 -31.5702 0
      vertex -4.24442 -30.9242 0
    endloop
  endfacet
  facet normal 0.430103 -0.90278 0
    outer loop
      vertex -4.24442 -30.9242 0
      vertex -3.18968 -30.4217 1
      vertex -4.24442 -30.9242 1
    endloop
  endfacet
  facet normal 0.430103 -0.90278 0
    outer loop
      vertex -3.18968 -30.4217 1
      vertex -4.24442 -30.9242 0
      vertex -3.18968 -30.4217 0
    endloop
  endfacet
  facet normal 0.30453 -0.952503 0
    outer loop
      vertex -3.18968 -30.4217 0
      vertex -2.06712 -30.0628 1
      vertex -3.18968 -30.4217 1
    endloop
  endfacet
  facet normal 0.30453 -0.952503 0
    outer loop
      vertex -2.06712 -30.0628 1
      vertex -3.18968 -30.4217 0
      vertex -2.06712 -30.0628 0
    endloop
  endfacet
  facet normal 0.178059 -0.98402 0
    outer loop
      vertex -2.06712 -30.0628 0
      vertex -0.87674 -29.8474 1
      vertex -2.06712 -30.0628 1
    endloop
  endfacet
  facet normal 0.178059 -0.98402 0
    outer loop
      vertex -0.87674 -29.8474 1
      vertex -2.06712 -30.0628 0
      vertex -0.87674 -29.8474 0
    endloop
  endfacet
  facet normal 0.0569732 -0.998376 0
    outer loop
      vertex -0.87674 -29.8474 0
      vertex 0.381454 -29.7756 1
      vertex -0.87674 -29.8474 1
    endloop
  endfacet
  facet normal 0.0569732 -0.998376 0
    outer loop
      vertex 0.381454 -29.7756 1
      vertex -0.87674 -29.8474 0
      vertex 0.381454 -29.7756 0
    endloop
  endfacet
  facet normal -0.0434508 -0.999056 0
    outer loop
      vertex 0.381454 -29.7756 0
      vertex 1.515 -29.8249 1
      vertex 0.381454 -29.7756 1
    endloop
  endfacet
  facet normal -0.0434508 -0.999056 -0
    outer loop
      vertex 1.515 -29.8249 1
      vertex 0.381454 -29.7756 0
      vertex 1.515 -29.8249 0
    endloop
  endfacet
  facet normal -0.138268 -0.990395 0
    outer loop
      vertex 1.515 -29.8249 0
      vertex 2.57439 -29.9728 1
      vertex 1.515 -29.8249 1
    endloop
  endfacet
  facet normal -0.138268 -0.990395 -0
    outer loop
      vertex 2.57439 -29.9728 1
      vertex 1.515 -29.8249 0
      vertex 2.57439 -29.9728 0
    endloop
  endfacet
  facet normal -0.242707 -0.9701 0
    outer loop
      vertex 2.57439 -29.9728 0
      vertex 3.55965 -30.2193 1
      vertex 2.57439 -29.9728 1
    endloop
  endfacet
  facet normal -0.242707 -0.9701 -0
    outer loop
      vertex 3.55965 -30.2193 1
      vertex 2.57439 -29.9728 0
      vertex 3.55965 -30.2193 0
    endloop
  endfacet
  facet normal -0.354215 -0.935164 0
    outer loop
      vertex 3.55965 -30.2193 0
      vertex 4.47075 -30.5644 1
      vertex 3.55965 -30.2193 1
    endloop
  endfacet
  facet normal -0.354215 -0.935164 -0
    outer loop
      vertex 4.47075 -30.5644 1
      vertex 3.55965 -30.2193 0
      vertex 4.47075 -30.5644 0
    endloop
  endfacet
  facet normal -0.468385 -0.883524 0
    outer loop
      vertex 4.47075 -30.5644 0
      vertex 5.30771 -31.0081 1
      vertex 4.47075 -30.5644 1
    endloop
  endfacet
  facet normal -0.468385 -0.883524 -0
    outer loop
      vertex 5.30771 -31.0081 1
      vertex 4.47075 -30.5644 0
      vertex 5.30771 -31.0081 0
    endloop
  endfacet
  facet normal -0.579428 -0.815024 0
    outer loop
      vertex 5.30771 -31.0081 0
      vertex 6.07051 -31.5504 1
      vertex 5.30771 -31.0081 1
    endloop
  endfacet
  facet normal -0.579428 -0.815024 -0
    outer loop
      vertex 6.07051 -31.5504 1
      vertex 5.30771 -31.0081 0
      vertex 6.07051 -31.5504 0
    endloop
  endfacet
  facet normal -0.681256 -0.732045 0
    outer loop
      vertex 6.07051 -31.5504 0
      vertex 6.75919 -32.1913 1
      vertex 6.07051 -31.5504 1
    endloop
  endfacet
  facet normal -0.681256 -0.732045 -0
    outer loop
      vertex 6.75919 -32.1913 1
      vertex 6.07051 -31.5504 0
      vertex 6.75919 -32.1913 0
    endloop
  endfacet
  facet normal -0.766851 -0.641825 0
    outer loop
      vertex 7.36423 -32.9142 0
      vertex 6.75919 -32.1913 1
      vertex 6.75919 -32.1913 0
    endloop
  endfacet
  facet normal -0.766851 -0.641825 0
    outer loop
      vertex 6.75919 -32.1913 1
      vertex 7.36423 -32.9142 0
      vertex 7.36423 -32.9142 1
    endloop
  endfacet
  facet normal -0.838687 -0.544614 0
    outer loop
      vertex 7.87619 -33.7026 0
      vertex 7.36423 -32.9142 1
      vertex 7.36423 -32.9142 0
    endloop
  endfacet
  facet normal -0.838687 -0.544614 0
    outer loop
      vertex 7.36423 -32.9142 1
      vertex 7.87619 -33.7026 0
      vertex 7.87619 -33.7026 1
    endloop
  endfacet
  facet normal -0.897795 -0.440413 0
    outer loop
      vertex 8.29507 -34.5565 0
      vertex 7.87619 -33.7026 1
      vertex 7.87619 -33.7026 0
    endloop
  endfacet
  facet normal -0.897795 -0.440413 0
    outer loop
      vertex 7.87619 -33.7026 1
      vertex 8.29507 -34.5565 0
      vertex 8.29507 -34.5565 1
    endloop
  endfacet
  facet normal -0.942584 -0.333969 0
    outer loop
      vertex 8.62086 -35.476 0
      vertex 8.29507 -34.5565 1
      vertex 8.29507 -34.5565 0
    endloop
  endfacet
  facet normal -0.942584 -0.333969 0
    outer loop
      vertex 8.29507 -34.5565 1
      vertex 8.62086 -35.476 0
      vertex 8.62086 -35.476 1
    endloop
  endfacet
  facet normal -0.973201 -0.229956 0
    outer loop
      vertex 8.85358 -36.4609 0
      vertex 8.62086 -35.476 1
      vertex 8.62086 -35.476 0
    endloop
  endfacet
  facet normal -0.973201 -0.229956 0
    outer loop
      vertex 8.62086 -35.476 1
      vertex 8.85358 -36.4609 0
      vertex 8.85358 -36.4609 1
    endloop
  endfacet
  facet normal -0.99128 -0.131771 0
    outer loop
      vertex 8.99321 -37.5113 0
      vertex 8.85358 -36.4609 1
      vertex 8.85358 -36.4609 0
    endloop
  endfacet
  facet normal -0.99128 -0.131771 0
    outer loop
      vertex 8.85358 -36.4609 1
      vertex 8.99321 -37.5113 0
      vertex 8.99321 -37.5113 1
    endloop
  endfacet
  facet normal -0.999131 -0.0416737 0
    outer loop
      vertex 9.03975 -38.6271 0
      vertex 8.99321 -37.5113 1
      vertex 8.99321 -37.5113 0
    endloop
  endfacet
  facet normal -0.999131 -0.0416737 0
    outer loop
      vertex 8.99321 -37.5113 1
      vertex 9.03975 -38.6271 0
      vertex 9.03975 -38.6271 1
    endloop
  endfacet
  facet normal -0.99926 0.0384663 0
    outer loop
      vertex 8.99162 -39.8774 0
      vertex 9.03975 -38.6271 1
      vertex 9.03975 -38.6271 0
    endloop
  endfacet
  facet normal -0.99926 0.0384663 0
    outer loop
      vertex 9.03975 -38.6271 1
      vertex 8.99162 -39.8774 0
      vertex 8.99162 -39.8774 1
    endloop
  endfacet
  facet normal -0.992432 0.122797 0
    outer loop
      vertex 8.84726 -41.0441 0
      vertex 8.99162 -39.8774 1
      vertex 8.99162 -39.8774 0
    endloop
  endfacet
  facet normal -0.992432 0.122797 0
    outer loop
      vertex 8.99162 -39.8774 1
      vertex 8.84726 -41.0441 0
      vertex 8.84726 -41.0441 1
    endloop
  endfacet
  facet normal -0.976198 0.21688 0
    outer loop
      vertex 8.60663 -42.1272 0
      vertex 8.84726 -41.0441 1
      vertex 8.84726 -41.0441 0
    endloop
  endfacet
  facet normal -0.976198 0.21688 0
    outer loop
      vertex 8.84726 -41.0441 1
      vertex 8.60663 -42.1272 0
      vertex 8.60663 -42.1272 1
    endloop
  endfacet
  facet normal -0.947615 0.319415 0
    outer loop
      vertex 8.26976 -43.1266 0
      vertex 8.60663 -42.1272 1
      vertex 8.60663 -42.1272 0
    endloop
  endfacet
  facet normal -0.947615 0.319415 0
    outer loop
      vertex 8.60663 -42.1272 1
      vertex 8.26976 -43.1266 0
      vertex 8.26976 -43.1266 1
    endloop
  endfacet
  facet normal -0.904015 0.4275 0
    outer loop
      vertex 7.83664 -44.0425 0
      vertex 8.26976 -43.1266 1
      vertex 8.26976 -43.1266 0
    endloop
  endfacet
  facet normal -0.904015 0.4275 0
    outer loop
      vertex 8.26976 -43.1266 1
      vertex 7.83664 -44.0425 0
      vertex 7.83664 -44.0425 1
    endloop
  endfacet
  facet normal -0.843763 0.536715 0
    outer loop
      vertex 7.30728 -44.8747 0
      vertex 7.83664 -44.0425 1
      vertex 7.83664 -44.0425 0
    endloop
  endfacet
  facet normal -0.843763 0.536715 0
    outer loop
      vertex 7.83664 -44.0425 1
      vertex 7.30728 -44.8747 0
      vertex 7.30728 -44.8747 1
    endloop
  endfacet
  facet normal -0.76732 0.641265 0
    outer loop
      vertex 6.68166 -45.6233 0
      vertex 7.30728 -44.8747 1
      vertex 7.30728 -44.8747 0
    endloop
  endfacet
  facet normal -0.76732 0.641265 0
    outer loop
      vertex 7.30728 -44.8747 1
      vertex 6.68166 -45.6233 0
      vertex 6.68166 -45.6233 1
    endloop
  endfacet
  facet normal -0.678446 0.73465 0
    outer loop
      vertex 6.68166 -45.6233 0
      vertex 5.97099 -46.2796 1
      vertex 6.68166 -45.6233 1
    endloop
  endfacet
  facet normal -0.678446 0.73465 0
    outer loop
      vertex 5.97099 -46.2796 1
      vertex 6.68166 -45.6233 0
      vertex 5.97099 -46.2796 0
    endloop
  endfacet
  facet normal -0.577661 0.816277 0
    outer loop
      vertex 5.97099 -46.2796 0
      vertex 5.18617 -46.835 1
      vertex 5.97099 -46.2796 1
    endloop
  endfacet
  facet normal -0.577661 0.816277 0
    outer loop
      vertex 5.18617 -46.835 1
      vertex 5.97099 -46.2796 0
      vertex 5.18617 -46.835 0
    endloop
  endfacet
  facet normal -0.46759 0.883945 0
    outer loop
      vertex 5.18617 -46.835 0
      vertex 4.32716 -47.2894 1
      vertex 5.18617 -46.835 1
    endloop
  endfacet
  facet normal -0.46759 0.883945 0
    outer loop
      vertex 4.32716 -47.2894 1
      vertex 5.18617 -46.835 0
      vertex 4.32716 -47.2894 0
    endloop
  endfacet
  facet normal -0.354078 0.935216 0
    outer loop
      vertex 4.32716 -47.2894 0
      vertex 3.394 -47.6427 1
      vertex 4.32716 -47.2894 1
    endloop
  endfacet
  facet normal -0.354078 0.935216 0
    outer loop
      vertex 3.394 -47.6427 1
      vertex 4.32716 -47.2894 0
      vertex 3.394 -47.6427 0
    endloop
  endfacet
  facet normal -0.243138 0.969992 0
    outer loop
      vertex 3.394 -47.6427 0
      vertex 2.38666 -47.8952 1
      vertex 3.394 -47.6427 1
    endloop
  endfacet
  facet normal -0.243138 0.969992 0
    outer loop
      vertex 2.38666 -47.8952 1
      vertex 3.394 -47.6427 0
      vertex 2.38666 -47.8952 0
    endloop
  endfacet
  facet normal -0.138638 0.990343 0
    outer loop
      vertex 2.38666 -47.8952 0
      vertex 1.30515 -48.0466 1
      vertex 2.38666 -47.8952 1
    endloop
  endfacet
  facet normal -0.138638 0.990343 0
    outer loop
      vertex 1.30515 -48.0466 1
      vertex 2.38666 -47.8952 0
      vertex 1.30515 -48.0466 0
    endloop
  endfacet
  facet normal -0.0436552 0.999047 0
    outer loop
      vertex 1.30515 -48.0466 0
      vertex 0.14946 -48.0971 1
      vertex 1.30515 -48.0466 1
    endloop
  endfacet
  facet normal -0.0436552 0.999047 0
    outer loop
      vertex 0.14946 -48.0971 1
      vertex 1.30515 -48.0466 0
      vertex 0.14946 -48.0971 0
    endloop
  endfacet
  facet normal 0.0352471 0.999379 -0
    outer loop
      vertex 0.14946 -48.0971 0
      vertex -0.766357 -48.0648 1
      vertex 0.14946 -48.0971 1
    endloop
  endfacet
  facet normal 0.0352471 0.999379 0
    outer loop
      vertex -0.766357 -48.0648 1
      vertex 0.14946 -48.0971 0
      vertex -0.766357 -48.0648 0
    endloop
  endfacet
  facet normal 0.110795 0.993843 -0
    outer loop
      vertex -0.766357 -48.0648 0
      vertex -1.63646 -47.9678 1
      vertex -0.766357 -48.0648 1
    endloop
  endfacet
  facet normal 0.110795 0.993843 0
    outer loop
      vertex -1.63646 -47.9678 1
      vertex -0.766357 -48.0648 0
      vertex -1.63646 -47.9678 0
    endloop
  endfacet
  facet normal 0.192484 0.9813 -0
    outer loop
      vertex -1.63646 -47.9678 0
      vertex -2.46082 -47.8061 1
      vertex -1.63646 -47.9678 1
    endloop
  endfacet
  facet normal 0.192484 0.9813 0
    outer loop
      vertex -2.46082 -47.8061 1
      vertex -1.63646 -47.9678 0
      vertex -2.46082 -47.8061 0
    endloop
  endfacet
  facet normal 0.279207 0.960231 -0
    outer loop
      vertex -2.46082 -47.8061 0
      vertex -3.23944 -47.5797 1
      vertex -2.46082 -47.8061 1
    endloop
  endfacet
  facet normal 0.279207 0.960231 0
    outer loop
      vertex -3.23944 -47.5797 1
      vertex -2.46082 -47.8061 0
      vertex -3.23944 -47.5797 0
    endloop
  endfacet
  facet normal 0.369037 0.929415 -0
    outer loop
      vertex -3.23944 -47.5797 0
      vertex -3.97232 -47.2887 1
      vertex -3.23944 -47.5797 1
    endloop
  endfacet
  facet normal 0.369037 0.929415 0
    outer loop
      vertex -3.97232 -47.2887 1
      vertex -3.23944 -47.5797 0
      vertex -3.97232 -47.2887 0
    endloop
  endfacet
  facet normal 0.459808 0.888018 -0
    outer loop
      vertex -3.97232 -47.2887 0
      vertex -4.65947 -46.9329 1
      vertex -3.97232 -47.2887 1
    endloop
  endfacet
  facet normal 0.459808 0.888018 0
    outer loop
      vertex -4.65947 -46.9329 1
      vertex -3.97232 -47.2887 0
      vertex -4.65947 -46.9329 0
    endloop
  endfacet
  facet normal 0.548184 0.836358 -0
    outer loop
      vertex -4.65947 -46.9329 0
      vertex -5.30087 -46.5125 1
      vertex -4.65947 -46.9329 1
    endloop
  endfacet
  facet normal 0.548184 0.836358 0
    outer loop
      vertex -5.30087 -46.5125 1
      vertex -4.65947 -46.9329 0
      vertex -5.30087 -46.5125 0
    endloop
  endfacet
  facet normal 0.639058 0.769158 -0
    outer loop
      vertex -5.30087 -46.5125 0
      vertex -5.89243 -46.021 1
      vertex -5.30087 -46.5125 1
    endloop
  endfacet
  facet normal 0.639058 0.769158 0
    outer loop
      vertex -5.89243 -46.021 1
      vertex -5.30087 -46.5125 0
      vertex -5.89243 -46.021 0
    endloop
  endfacet
  facet normal 0.726621 0.687039 0
    outer loop
      vertex -5.89243 -46.021 1
      vertex -6.43034 -45.4521 0
      vertex -6.43034 -45.4521 1
    endloop
  endfacet
  facet normal 0.726621 0.687039 0
    outer loop
      vertex -6.43034 -45.4521 0
      vertex -5.89243 -46.021 1
      vertex -5.89243 -46.021 0
    endloop
  endfacet
  facet normal 0.800152 0.599798 0
    outer loop
      vertex -6.43034 -45.4521 1
      vertex -6.91466 -44.806 0
      vertex -6.91466 -44.806 1
    endloop
  endfacet
  facet normal 0.800152 0.599798 0
    outer loop
      vertex -6.91466 -44.806 0
      vertex -6.43034 -45.4521 1
      vertex -6.43034 -45.4521 0
    endloop
  endfacet
  facet normal 0.859259 0.511541 0
    outer loop
      vertex -6.91466 -44.806 1
      vertex -7.34532 -44.0826 0
      vertex -7.34532 -44.0826 1
    endloop
  endfacet
  facet normal 0.859259 0.511541 0
    outer loop
      vertex -7.34532 -44.0826 0
      vertex -6.91466 -44.806 1
      vertex -6.91466 -44.806 0
    endloop
  endfacet
  facet normal 0.904705 0.426038 0
    outer loop
      vertex -7.34532 -44.0826 1
      vertex -7.72238 -43.2819 0
      vertex -7.72238 -43.2819 1
    endloop
  endfacet
  facet normal 0.904705 0.426038 0
    outer loop
      vertex -7.72238 -43.2819 0
      vertex -7.34532 -44.0826 1
      vertex -7.34532 -44.0826 0
    endloop
  endfacet
  facet normal 0.938358 0.345664 0
    outer loop
      vertex -7.72238 -43.2819 1
      vertex -8.04581 -42.4039 0
      vertex -8.04581 -42.4039 1
    endloop
  endfacet
  facet normal 0.938358 0.345664 0
    outer loop
      vertex -8.04581 -42.4039 0
      vertex -7.72238 -43.2819 1
      vertex -7.72238 -43.2819 0
    endloop
  endfacet
  facet normal 0.962358 0.271783 0
    outer loop
      vertex -8.04581 -42.4039 1
      vertex -8.3156 -41.4486 0
      vertex -8.3156 -41.4486 1
    endloop
  endfacet
  facet normal 0.962358 0.271783 0
    outer loop
      vertex -8.3156 -41.4486 0
      vertex -8.04581 -42.4039 1
      vertex -8.04581 -42.4039 0
    endloop
  endfacet
  facet normal -0.0815957 0.996666 0
    outer loop
      vertex -8.3156 -41.4486 0
      vertex -19.1769 -42.3378 1
      vertex -8.3156 -41.4486 1
    endloop
  endfacet
  facet normal -0.0815957 0.996666 0
    outer loop
      vertex -19.1769 -42.3378 1
      vertex -8.3156 -41.4486 0
      vertex -19.1769 -42.3378 0
    endloop
  endfacet
  facet normal -0.9784 -0.206723 0
    outer loop
      vertex -18.7688 -44.2693 0
      vertex -19.1769 -42.3378 1
      vertex -19.1769 -42.3378 0
    endloop
  endfacet
  facet normal -0.9784 -0.206723 0
    outer loop
      vertex -19.1769 -42.3378 1
      vertex -18.7688 -44.2693 0
      vertex -18.7688 -44.2693 1
    endloop
  endfacet
  facet normal -0.954395 -0.298547 0
    outer loop
      vertex -18.2068 -46.0659 0
      vertex -18.7688 -44.2693 1
      vertex -18.7688 -44.2693 0
    endloop
  endfacet
  facet normal -0.954395 -0.298547 0
    outer loop
      vertex -18.7688 -44.2693 1
      vertex -18.2068 -46.0659 0
      vertex -18.2068 -46.0659 1
    endloop
  endfacet
  facet normal -0.918414 -0.39562 0
    outer loop
      vertex -17.491 -47.7276 0
      vertex -18.2068 -46.0659 1
      vertex -18.2068 -46.0659 0
    endloop
  endfacet
  facet normal -0.918414 -0.39562 0
    outer loop
      vertex -18.2068 -46.0659 1
      vertex -17.491 -47.7276 0
      vertex -17.491 -47.7276 1
    endloop
  endfacet
  facet normal -0.868904 -0.49498 0
    outer loop
      vertex -16.6213 -49.2543 0
      vertex -17.491 -47.7276 1
      vertex -17.491 -47.7276 0
    endloop
  endfacet
  facet normal -0.868904 -0.49498 0
    outer loop
      vertex -17.491 -47.7276 1
      vertex -16.6213 -49.2543 0
      vertex -16.6213 -49.2543 1
    endloop
  endfacet
  facet normal -0.805639 -0.592407 0
    outer loop
      vertex -15.5978 -50.6462 0
      vertex -16.6213 -49.2543 1
      vertex -16.6213 -49.2543 0
    endloop
  endfacet
  facet normal -0.805639 -0.592407 0
    outer loop
      vertex -16.6213 -49.2543 1
      vertex -15.5978 -50.6462 0
      vertex -15.5978 -50.6462 1
    endloop
  endfacet
  facet normal -0.729867 -0.68359 0
    outer loop
      vertex -14.4205 -51.9032 0
      vertex -15.5978 -50.6462 1
      vertex -15.5978 -50.6462 0
    endloop
  endfacet
  facet normal -0.729867 -0.68359 0
    outer loop
      vertex -15.5978 -50.6462 1
      vertex -14.4205 -51.9032 0
      vertex -14.4205 -51.9032 1
    endloop
  endfacet
  facet normal -0.644502 -0.764603 0
    outer loop
      vertex -14.4205 -51.9032 0
      vertex -13.0893 -53.0253 1
      vertex -14.4205 -51.9032 1
    endloop
  endfacet
  facet normal -0.644502 -0.764603 -0
    outer loop
      vertex -13.0893 -53.0253 1
      vertex -14.4205 -51.9032 0
      vertex -13.0893 -53.0253 0
    endloop
  endfacet
  facet normal -0.553239 -0.833022 0
    outer loop
      vertex -13.0893 -53.0253 0
      vertex -11.6146 -54.0047 1
      vertex -13.0893 -53.0253 1
    endloop
  endfacet
  facet normal -0.553239 -0.833022 -0
    outer loop
      vertex -11.6146 -54.0047 1
      vertex -13.0893 -53.0253 0
      vertex -11.6146 -54.0047 0
    endloop
  endfacet
  facet normal -0.45806 -0.888921 0
    outer loop
      vertex -11.6146 -54.0047 0
      vertex -10.0066 -54.8333 1
      vertex -11.6146 -54.0047 1
    endloop
  endfacet
  facet normal -0.45806 -0.888921 -0
    outer loop
      vertex -10.0066 -54.8333 1
      vertex -11.6146 -54.0047 0
      vertex -10.0066 -54.8333 0
    endloop
  endfacet
  facet normal -0.362824 -0.931858 0
    outer loop
      vertex -10.0066 -54.8333 0
      vertex -8.26526 -55.5113 1
      vertex -10.0066 -54.8333 1
    endloop
  endfacet
  facet normal -0.362824 -0.931858 -0
    outer loop
      vertex -8.26526 -55.5113 1
      vertex -10.0066 -54.8333 0
      vertex -8.26526 -55.5113 0
    endloop
  endfacet
  facet normal -0.270819 -0.96263 0
    outer loop
      vertex -8.26526 -55.5113 0
      vertex -6.39061 -56.0387 1
      vertex -8.26526 -55.5113 1
    endloop
  endfacet
  facet normal -0.270819 -0.96263 -0
    outer loop
      vertex -6.39061 -56.0387 1
      vertex -8.26526 -55.5113 0
      vertex -6.39061 -56.0387 0
    endloop
  endfacet
  facet normal -0.18434 -0.982862 0
    outer loop
      vertex -6.39061 -56.0387 0
      vertex -4.38266 -56.4153 1
      vertex -6.39061 -56.0387 1
    endloop
  endfacet
  facet normal -0.18434 -0.982862 -0
    outer loop
      vertex -4.38266 -56.4153 1
      vertex -6.39061 -56.0387 0
      vertex -4.38266 -56.4153 0
    endloop
  endfacet
  facet normal -0.104961 -0.994476 0
    outer loop
      vertex -4.38266 -56.4153 0
      vertex -2.24138 -56.6413 1
      vertex -4.38266 -56.4153 1
    endloop
  endfacet
  facet normal -0.104961 -0.994476 -0
    outer loop
      vertex -2.24138 -56.6413 1
      vertex -4.38266 -56.4153 0
      vertex -2.24138 -56.6413 0
    endloop
  endfacet
  facet normal -0.0331312 -0.999451 0
    outer loop
      vertex -2.24138 -56.6413 0
      vertex 0.0331726 -56.7167 1
      vertex -2.24138 -56.6413 1
    endloop
  endfacet
  facet normal -0.0331312 -0.999451 -0
    outer loop
      vertex 0.0331726 -56.7167 1
      vertex -2.24138 -56.6413 0
      vertex 0.0331726 -56.7167 0
    endloop
  endfacet
  facet normal 0.0270908 -0.999633 0
    outer loop
      vertex 0.0331726 -56.7167 0
      vertex 1.76744 -56.6697 1
      vertex 0.0331726 -56.7167 1
    endloop
  endfacet
  facet normal 0.0270908 -0.999633 0
    outer loop
      vertex 1.76744 -56.6697 1
      vertex 0.0331726 -56.7167 0
      vertex 1.76744 -56.6697 0
    endloop
  endfacet
endsolid OpenSCAD_Model
