solid OpenSCAD_Model
  facet normal 0 0 -1
    outer loop
      vertex 30.4629 -84.9062 0
      vertex 10.4274 -70.2183 0
      vertex 30.4629 -70.2183 0
    endloop
  endfacet
  facet normal 0 0 -1
    outer loop
      vertex 10.4274 -70.2183 0
      vertex -8.51273 -70.2183 0
      vertex 10.4274 -12.6891 0
    endloop
  endfacet
  facet normal 0 0 -1
    outer loop
      vertex 30.4629 -84.9062 0
      vertex -8.51273 -70.2183 0
      vertex 10.4274 -70.2183 0
    endloop
  endfacet
  facet normal 0 0 -1
    outer loop
      vertex -28.5473 -84.9062 0
      vertex -8.51273 -70.2183 0
      vertex 30.4629 -84.9062 0
    endloop
  endfacet
  facet normal -0 0 -1
    outer loop
      vertex -8.51273 -70.2183 0
      vertex -28.5473 -84.9062 0
      vertex -28.5473 -70.2183 0
    endloop
  endfacet
  facet normal 0 0 -1
    outer loop
      vertex 10.4274 -12.6891 0
      vertex 30.4629 1.99879 0
      vertex 30.4629 -12.6891 0
    endloop
  endfacet
  facet normal 0 0 -1
    outer loop
      vertex -8.51273 -12.6891 0
      vertex 10.4274 -12.6891 0
      vertex -8.51273 -70.2183 0
    endloop
  endfacet
  facet normal 0 0 -1
    outer loop
      vertex -8.51273 -12.6891 0
      vertex 30.4629 1.99879 0
      vertex 10.4274 -12.6891 0
    endloop
  endfacet
  facet normal 0 0 -1
    outer loop
      vertex -28.5473 1.99879 0
      vertex -8.51273 -12.6891 0
      vertex -28.5473 -12.6891 0
    endloop
  endfacet
  facet normal 0 0 -1
    outer loop
      vertex -8.51273 -12.6891 0
      vertex -28.5473 1.99879 0
      vertex 30.4629 1.99879 0
    endloop
  endfacet
  facet normal 0 0 1
    outer loop
      vertex 30.4629 1.99879 1
      vertex 10.4274 -12.6891 1
      vertex 30.4629 -12.6891 1
    endloop
  endfacet
  facet normal 0 0 1
    outer loop
      vertex 10.4274 -12.6891 1
      vertex -8.51273 -12.6891 1
      vertex 10.4274 -70.2183 1
    endloop
  endfacet
  facet normal 0 0 1
    outer loop
      vertex 30.4629 1.99879 1
      vertex -8.51273 -12.6891 1
      vertex 10.4274 -12.6891 1
    endloop
  endfacet
  facet normal -0 0 1
    outer loop
      vertex -28.5473 1.99879 1
      vertex -8.51273 -12.6891 1
      vertex 30.4629 1.99879 1
    endloop
  endfacet
  facet normal 0 0 1
    outer loop
      vertex -8.51273 -12.6891 1
      vertex -28.5473 1.99879 1
      vertex -28.5473 -12.6891 1
    endloop
  endfacet
  facet normal -0 0 1
    outer loop
      vertex 10.4274 -70.2183 1
      vertex 30.4629 -84.9062 1
      vertex 30.4629 -70.2183 1
    endloop
  endfacet
  facet normal 0 0 1
    outer loop
      vertex -8.51273 -70.2183 1
      vertex 10.4274 -70.2183 1
      vertex -8.51273 -12.6891 1
    endloop
  endfacet
  facet normal -0 0 1
    outer loop
      vertex -8.51273 -70.2183 1
      vertex 30.4629 -84.9062 1
      vertex 10.4274 -70.2183 1
    endloop
  endfacet
  facet normal 0 0 1
    outer loop
      vertex -28.5473 -84.9062 1
      vertex -8.51273 -70.2183 1
      vertex -28.5473 -70.2183 1
    endloop
  endfacet
  facet normal 0 0 1
    outer loop
      vertex -8.51273 -70.2183 1
      vertex -28.5473 -84.9062 1
      vertex 30.4629 -84.9062 1
    endloop
  endfacet
  facet normal 0 1 -0
    outer loop
      vertex 30.4629 -70.2183 0
      vertex 10.4274 -70.2183 1
      vertex 30.4629 -70.2183 1
    endloop
  endfacet
  facet normal 0 1 0
    outer loop
      vertex 10.4274 -70.2183 1
      vertex 30.4629 -70.2183 0
      vertex 10.4274 -70.2183 0
    endloop
  endfacet
  facet normal 1 -0 0
    outer loop
      vertex 10.4274 -70.2183 1
      vertex 10.4274 -12.6891 0
      vertex 10.4274 -12.6891 1
    endloop
  endfacet
  facet normal 1 0 0
    outer loop
      vertex 10.4274 -12.6891 0
      vertex 10.4274 -70.2183 1
      vertex 10.4274 -70.2183 0
    endloop
  endfacet
  facet normal 0 -1 0
    outer loop
      vertex 10.4274 -12.6891 0
      vertex 30.4629 -12.6891 1
      vertex 10.4274 -12.6891 1
    endloop
  endfacet
  facet normal 0 -1 -0
    outer loop
      vertex 30.4629 -12.6891 1
      vertex 10.4274 -12.6891 0
      vertex 30.4629 -12.6891 0
    endloop
  endfacet
  facet normal 1 -0 0
    outer loop
      vertex 30.4629 -12.6891 1
      vertex 30.4629 1.99879 0
      vertex 30.4629 1.99879 1
    endloop
  endfacet
  facet normal 1 0 0
    outer loop
      vertex 30.4629 1.99879 0
      vertex 30.4629 -12.6891 1
      vertex 30.4629 -12.6891 0
    endloop
  endfacet
  facet normal 0 1 -0
    outer loop
      vertex 30.4629 1.99879 0
      vertex -28.5473 1.99879 1
      vertex 30.4629 1.99879 1
    endloop
  endfacet
  facet normal 0 1 0
    outer loop
      vertex -28.5473 1.99879 1
      vertex 30.4629 1.99879 0
      vertex -28.5473 1.99879 0
    endloop
  endfacet
  facet normal -1 0 0
    outer loop
      vertex -28.5473 -12.6891 0
      vertex -28.5473 1.99879 1
      vertex -28.5473 1.99879 0
    endloop
  endfacet
  facet normal -1 -0 0
    outer loop
      vertex -28.5473 1.99879 1
      vertex -28.5473 -12.6891 0
      vertex -28.5473 -12.6891 1
    endloop
  endfacet
  facet normal 0 -1 0
    outer loop
      vertex -28.5473 -12.6891 0
      vertex -8.51273 -12.6891 1
      vertex -28.5473 -12.6891 1
    endloop
  endfacet
  facet normal 0 -1 -0
    outer loop
      vertex -8.51273 -12.6891 1
      vertex -28.5473 -12.6891 0
      vertex -8.51273 -12.6891 0
    endloop
  endfacet
  facet normal -1 0 0
    outer loop
      vertex -8.51273 -70.2183 0
      vertex -8.51273 -12.6891 1
      vertex -8.51273 -12.6891 0
    endloop
  endfacet
  facet normal -1 -0 0
    outer loop
      vertex -8.51273 -12.6891 1
      vertex -8.51273 -70.2183 0
      vertex -8.51273 -70.2183 1
    endloop
  endfacet
  facet normal 0 1 -0
    outer loop
      vertex -8.51273 -70.2183 0
      vertex -28.5473 -70.2183 1
      vertex -8.51273 -70.2183 1
    endloop
  endfacet
  facet normal 0 1 0
    outer loop
      vertex -28.5473 -70.2183 1
      vertex -8.51273 -70.2183 0
      vertex -28.5473 -70.2183 0
    endloop
  endfacet
  facet normal -1 0 0
    outer loop
      vertex -28.5473 -84.9062 0
      vertex -28.5473 -70.2183 1
      vertex -28.5473 -70.2183 0
    endloop
  endfacet
  facet normal -1 -0 0
    outer loop
      vertex -28.5473 -70.2183 1
      vertex -28.5473 -84.9062 0
      vertex -28.5473 -84.9062 1
    endloop
  endfacet
  facet normal 0 -1 0
    outer loop
      vertex -28.5473 -84.9062 0
      vertex 30.4629 -84.9062 1
      vertex -28.5473 -84.9062 1
    endloop
  endfacet
  facet normal 0 -1 -0
    outer loop
      vertex 30.4629 -84.9062 1
      vertex -28.5473 -84.9062 0
      vertex 30.4629 -84.9062 0
    endloop
  endfacet
  facet normal 1 -0 0
    outer loop
      vertex 30.4629 -84.9062 1
      vertex 30.4629 -70.2183 0
      vertex 30.4629 -70.2183 1
    endloop
  endfacet
  facet normal 1 0 0
    outer loop
      vertex 30.4629 -70.2183 0
      vertex 30.4629 -84.9062 1
      vertex 30.4629 -84.9062 0
    endloop
  endfacet
endsolid OpenSCAD_Model
