solid OpenSCAD_Model
  facet normal 0 0 -1
    outer loop
      vertex 10.4274 -84.9062 0
      vertex -8.57733 -84.9062 0
      vertex 10.4274 -12.6891 0
    endloop
  endfacet
  facet normal 0 0 -1
    outer loop
      vertex 10.4274 -12.6891 0
      vertex 36.5828 1.99879 0
      vertex 36.5828 -12.6891 0
    endloop
  endfacet
  facet normal 0 0 -1
    outer loop
      vertex -8.57733 -12.6891 0
      vertex 10.4274 -12.6891 0
      vertex -8.57733 -84.9062 0
    endloop
  endfacet
  facet normal 0 0 -1
    outer loop
      vertex -8.57733 -12.6891 0
      vertex 36.5828 1.99879 0
      vertex 10.4274 -12.6891 0
    endloop
  endfacet
  facet normal 0 0 -1
    outer loop
      vertex -34.7318 1.99879 0
      vertex -8.57733 -12.6891 0
      vertex -34.7318 -12.6891 0
    endloop
  endfacet
  facet normal 0 0 -1
    outer loop
      vertex -8.57733 -12.6891 0
      vertex -34.7318 1.99879 0
      vertex 36.5828 1.99879 0
    endloop
  endfacet
  facet normal 0 0 1
    outer loop
      vertex 36.5828 1.99879 1
      vertex 10.4274 -12.6891 1
      vertex 36.5828 -12.6891 1
    endloop
  endfacet
  facet normal 0 0 1
    outer loop
      vertex 10.4274 -12.6891 1
      vertex -8.57733 -12.6891 1
      vertex 10.4274 -84.9062 1
    endloop
  endfacet
  facet normal 0 0 1
    outer loop
      vertex 36.5828 1.99879 1
      vertex -8.57733 -12.6891 1
      vertex 10.4274 -12.6891 1
    endloop
  endfacet
  facet normal -0 0 1
    outer loop
      vertex -34.7318 1.99879 1
      vertex -8.57733 -12.6891 1
      vertex 36.5828 1.99879 1
    endloop
  endfacet
  facet normal 0 0 1
    outer loop
      vertex -8.57733 -12.6891 1
      vertex -34.7318 1.99879 1
      vertex -34.7318 -12.6891 1
    endloop
  endfacet
  facet normal 0 0 1
    outer loop
      vertex 10.4274 -84.9062 1
      vertex -8.57733 -12.6891 1
      vertex -8.57733 -84.9062 1
    endloop
  endfacet
  facet normal 0 -1 0
    outer loop
      vertex 10.4274 -12.6891 0
      vertex 36.5828 -12.6891 1
      vertex 10.4274 -12.6891 1
    endloop
  endfacet
  facet normal 0 -1 -0
    outer loop
      vertex 36.5828 -12.6891 1
      vertex 10.4274 -12.6891 0
      vertex 36.5828 -12.6891 0
    endloop
  endfacet
  facet normal 1 -0 0
    outer loop
      vertex 36.5828 -12.6891 1
      vertex 36.5828 1.99879 0
      vertex 36.5828 1.99879 1
    endloop
  endfacet
  facet normal 1 0 0
    outer loop
      vertex 36.5828 1.99879 0
      vertex 36.5828 -12.6891 1
      vertex 36.5828 -12.6891 0
    endloop
  endfacet
  facet normal 0 1 -0
    outer loop
      vertex 36.5828 1.99879 0
      vertex -34.7318 1.99879 1
      vertex 36.5828 1.99879 1
    endloop
  endfacet
  facet normal 0 1 0
    outer loop
      vertex -34.7318 1.99879 1
      vertex 36.5828 1.99879 0
      vertex -34.7318 1.99879 0
    endloop
  endfacet
  facet normal -1 0 0
    outer loop
      vertex -34.7318 -12.6891 0
      vertex -34.7318 1.99879 1
      vertex -34.7318 1.99879 0
    endloop
  endfacet
  facet normal -1 -0 0
    outer loop
      vertex -34.7318 1.99879 1
      vertex -34.7318 -12.6891 0
      vertex -34.7318 -12.6891 1
    endloop
  endfacet
  facet normal 0 -1 0
    outer loop
      vertex -34.7318 -12.6891 0
      vertex -8.57733 -12.6891 1
      vertex -34.7318 -12.6891 1
    endloop
  endfacet
  facet normal 0 -1 -0
    outer loop
      vertex -8.57733 -12.6891 1
      vertex -34.7318 -12.6891 0
      vertex -8.57733 -12.6891 0
    endloop
  endfacet
  facet normal -1 0 0
    outer loop
      vertex -8.57733 -84.9062 0
      vertex -8.57733 -12.6891 1
      vertex -8.57733 -12.6891 0
    endloop
  endfacet
  facet normal -1 -0 0
    outer loop
      vertex -8.57733 -12.6891 1
      vertex -8.57733 -84.9062 0
      vertex -8.57733 -84.9062 1
    endloop
  endfacet
  facet normal 0 -1 0
    outer loop
      vertex -8.57733 -84.9062 0
      vertex 10.4274 -84.9062 1
      vertex -8.57733 -84.9062 1
    endloop
  endfacet
  facet normal 0 -1 -0
    outer loop
      vertex 10.4274 -84.9062 1
      vertex -8.57733 -84.9062 0
      vertex 10.4274 -84.9062 0
    endloop
  endfacet
  facet normal 1 -0 0
    outer loop
      vertex 10.4274 -84.9062 1
      vertex 10.4274 -12.6891 0
      vertex 10.4274 -12.6891 1
    endloop
  endfacet
  facet normal 1 0 0
    outer loop
      vertex 10.4274 -12.6891 0
      vertex 10.4274 -84.9062 1
      vertex 10.4274 -84.9062 0
    endloop
  endfacet
endsolid OpenSCAD_Model
