solid OpenSCAD_Model
  facet normal 0 0 -1
    outer loop
      vertex 1.1579 -14.5857 0
      vertex 8.07675 -4.60025 0
      vertex 2.13696 -21.9812 0
    endloop
  endfacet
  facet normal -0 0 -1
    outer loop
      vertex 8.07675 -4.60025 0
      vertex 1.1579 -14.5857 0
      vertex 4.14697 -4.60025 0
    endloop
  endfacet
  facet normal 0 0 -1
    outer loop
      vertex 2.13696 -21.9812 0
      vertex 0.500687 -16.9048 0
      vertex 1.1579 -14.5857 0
    endloop
  endfacet
  facet normal 0 0 -1
    outer loop
      vertex 2.13696 -21.9812 0
      vertex 0.230118 -18.0129 0
      vertex 0.500687 -16.9048 0
    endloop
  endfacet
  facet normal 0 0 -1
    outer loop
      vertex -1.71545 -21.9812 0
      vertex 0.0623779 -17.3813 0
      vertex 0.230118 -18.0129 0
    endloop
  endfacet
  facet normal -0 0 -1
    outer loop
      vertex 0.0623779 -17.3813 0
      vertex -1.71545 -21.9812 0
      vertex -0.0948486 -16.797 0
    endloop
  endfacet
  facet normal -0 0 -1
    outer loop
      vertex -0.0948486 -16.797 0
      vertex -1.71545 -21.9812 0
      vertex -0.241562 -16.2601 0
    endloop
  endfacet
  facet normal -0 0 -1
    outer loop
      vertex -0.241562 -16.2601 0
      vertex -1.71545 -21.9812 0
      vertex -0.377762 -15.7705 0
    endloop
  endfacet
  facet normal -0 0 -1
    outer loop
      vertex -0.377762 -15.7705 0
      vertex -1.71545 -21.9812 0
      vertex -0.503448 -15.3282 0
    endloop
  endfacet
  facet normal -0 0 -1
    outer loop
      vertex -0.503448 -15.3282 0
      vertex -1.71545 -21.9812 0
      vertex -0.618622 -14.9333 0
    endloop
  endfacet
  facet normal 0 0 -1
    outer loop
      vertex -1.71545 -21.9812 0
      vertex 0.230118 -18.0129 0
      vertex 2.13696 -21.9812 0
    endloop
  endfacet
  facet normal -0 0 -1
    outer loop
      vertex -0.618622 -14.9333 0
      vertex -1.71545 -21.9812 0
      vertex -0.723282 -14.5857 0
    endloop
  endfacet
  facet normal 0 0 -1
    outer loop
      vertex -7.69382 -4.60025 0
      vertex -0.723282 -14.5857 0
      vertex -1.71545 -21.9812 0
    endloop
  endfacet
  facet normal 0 0 -1
    outer loop
      vertex -0.723282 -14.5857 0
      vertex -7.69382 -4.60025 0
      vertex -3.72528 -4.60025 0
    endloop
  endfacet
  facet normal 0 0 1
    outer loop
      vertex 1.1579 -14.5857 1
      vertex 8.07675 -4.60025 1
      vertex 4.14697 -4.60025 1
    endloop
  endfacet
  facet normal 0 0 1
    outer loop
      vertex 8.07675 -4.60025 1
      vertex 1.1579 -14.5857 1
      vertex 2.13696 -21.9812 1
    endloop
  endfacet
  facet normal -0 0 1
    outer loop
      vertex 0.500687 -16.9048 1
      vertex 2.13696 -21.9812 1
      vertex 1.1579 -14.5857 1
    endloop
  endfacet
  facet normal -0 0 1
    outer loop
      vertex 0.230118 -18.0129 1
      vertex 2.13696 -21.9812 1
      vertex 0.500687 -16.9048 1
    endloop
  endfacet
  facet normal 0 0 1
    outer loop
      vertex -1.71545 -21.9812 1
      vertex 0.0623779 -17.3813 1
      vertex -0.0948486 -16.797 1
    endloop
  endfacet
  facet normal 0 0 1
    outer loop
      vertex -1.71545 -21.9812 1
      vertex -0.0948486 -16.797 1
      vertex -0.241562 -16.2601 1
    endloop
  endfacet
  facet normal 0 0 1
    outer loop
      vertex -1.71545 -21.9812 1
      vertex -0.241562 -16.2601 1
      vertex -0.377762 -15.7705 1
    endloop
  endfacet
  facet normal 0 0 1
    outer loop
      vertex -1.71545 -21.9812 1
      vertex -0.377762 -15.7705 1
      vertex -0.503448 -15.3282 1
    endloop
  endfacet
  facet normal 0 0 1
    outer loop
      vertex -1.71545 -21.9812 1
      vertex -0.503448 -15.3282 1
      vertex -0.618622 -14.9333 1
    endloop
  endfacet
  facet normal 0 0 1
    outer loop
      vertex -1.71545 -21.9812 1
      vertex -0.618622 -14.9333 1
      vertex -0.723282 -14.5857 1
    endloop
  endfacet
  facet normal 0 0 1
    outer loop
      vertex 0.230118 -18.0129 1
      vertex -1.71545 -21.9812 1
      vertex 2.13696 -21.9812 1
    endloop
  endfacet
  facet normal 0 0 1
    outer loop
      vertex 0.0623779 -17.3813 1
      vertex -1.71545 -21.9812 1
      vertex 0.230118 -18.0129 1
    endloop
  endfacet
  facet normal -0 0 1
    outer loop
      vertex -7.69382 -4.60025 1
      vertex -0.723282 -14.5857 1
      vertex -3.72528 -4.60025 1
    endloop
  endfacet
  facet normal 0 0 1
    outer loop
      vertex -0.723282 -14.5857 1
      vertex -7.69382 -4.60025 1
      vertex -1.71545 -21.9812 1
    endloop
  endfacet
  facet normal 0 1 -0
    outer loop
      vertex 8.07675 -4.60025 0
      vertex 4.14697 -4.60025 1
      vertex 8.07675 -4.60025 1
    endloop
  endfacet
  facet normal 0 1 0
    outer loop
      vertex 4.14697 -4.60025 1
      vertex 8.07675 -4.60025 0
      vertex 4.14697 -4.60025 0
    endloop
  endfacet
  facet normal -0.957999 0.28677 0
    outer loop
      vertex 1.1579 -14.5857 0
      vertex 4.14697 -4.60025 1
      vertex 4.14697 -4.60025 0
    endloop
  endfacet
  facet normal -0.957999 0.28677 0
    outer loop
      vertex 4.14697 -4.60025 1
      vertex 1.1579 -14.5857 0
      vertex 1.1579 -14.5857 1
    endloop
  endfacet
  facet normal -0.962112 0.272654 0
    outer loop
      vertex 0.500687 -16.9048 0
      vertex 1.1579 -14.5857 1
      vertex 1.1579 -14.5857 0
    endloop
  endfacet
  facet normal -0.962112 0.272654 0
    outer loop
      vertex 1.1579 -14.5857 1
      vertex 0.500687 -16.9048 0
      vertex 0.500687 -16.9048 1
    endloop
  endfacet
  facet normal -0.97146 0.237205 0
    outer loop
      vertex 0.230118 -18.0129 0
      vertex 0.500687 -16.9048 1
      vertex 0.500687 -16.9048 0
    endloop
  endfacet
  facet normal -0.97146 0.237205 0
    outer loop
      vertex 0.500687 -16.9048 1
      vertex 0.230118 -18.0129 0
      vertex 0.230118 -18.0129 1
    endloop
  endfacet
  facet normal 0.966496 0.256682 0
    outer loop
      vertex 0.230118 -18.0129 1
      vertex 0.0623779 -17.3813 0
      vertex 0.0623779 -17.3813 1
    endloop
  endfacet
  facet normal 0.966496 0.256682 0
    outer loop
      vertex 0.0623779 -17.3813 0
      vertex 0.230118 -18.0129 1
      vertex 0.230118 -18.0129 0
    endloop
  endfacet
  facet normal 0.965651 0.259842 0
    outer loop
      vertex 0.0623779 -17.3813 1
      vertex -0.0948486 -16.797 0
      vertex -0.0948486 -16.797 1
    endloop
  endfacet
  facet normal 0.965651 0.259842 0
    outer loop
      vertex -0.0948486 -16.797 0
      vertex 0.0623779 -17.3813 1
      vertex 0.0623779 -17.3813 0
    endloop
  endfacet
  facet normal 0.964633 0.263596 0
    outer loop
      vertex -0.0948486 -16.797 1
      vertex -0.241562 -16.2601 0
      vertex -0.241562 -16.2601 1
    endloop
  endfacet
  facet normal 0.964633 0.263596 0
    outer loop
      vertex -0.241562 -16.2601 0
      vertex -0.0948486 -16.797 1
      vertex -0.0948486 -16.797 0
    endloop
  endfacet
  facet normal 0.963416 0.268009 0
    outer loop
      vertex -0.241562 -16.2601 1
      vertex -0.377762 -15.7705 0
      vertex -0.377762 -15.7705 1
    endloop
  endfacet
  facet normal 0.963416 0.268009 0
    outer loop
      vertex -0.377762 -15.7705 0
      vertex -0.241562 -16.2601 1
      vertex -0.241562 -16.2601 0
    endloop
  endfacet
  facet normal 0.961917 0.273343 0
    outer loop
      vertex -0.377762 -15.7705 1
      vertex -0.503448 -15.3282 0
      vertex -0.503448 -15.3282 1
    endloop
  endfacet
  facet normal 0.961917 0.273343 0
    outer loop
      vertex -0.503448 -15.3282 0
      vertex -0.377762 -15.7705 1
      vertex -0.377762 -15.7705 0
    endloop
  endfacet
  facet normal 0.960003 0.279988 0
    outer loop
      vertex -0.503448 -15.3282 1
      vertex -0.618622 -14.9333 0
      vertex -0.618622 -14.9333 1
    endloop
  endfacet
  facet normal 0.960003 0.279988 0
    outer loop
      vertex -0.618622 -14.9333 0
      vertex -0.503448 -15.3282 1
      vertex -0.503448 -15.3282 0
    endloop
  endfacet
  facet normal 0.957538 0.288308 0
    outer loop
      vertex -0.618622 -14.9333 1
      vertex -0.723282 -14.5857 0
      vertex -0.723282 -14.5857 1
    endloop
  endfacet
  facet normal 0.957538 0.288308 0
    outer loop
      vertex -0.723282 -14.5857 0
      vertex -0.618622 -14.9333 1
      vertex -0.618622 -14.9333 0
    endloop
  endfacet
  facet normal 0.957658 0.287908 0
    outer loop
      vertex -0.723282 -14.5857 1
      vertex -3.72528 -4.60025 0
      vertex -3.72528 -4.60025 1
    endloop
  endfacet
  facet normal 0.957658 0.287908 0
    outer loop
      vertex -3.72528 -4.60025 0
      vertex -0.723282 -14.5857 1
      vertex -0.723282 -14.5857 0
    endloop
  endfacet
  facet normal 0 1 -0
    outer loop
      vertex -3.72528 -4.60025 0
      vertex -7.69382 -4.60025 1
      vertex -3.72528 -4.60025 1
    endloop
  endfacet
  facet normal 0 1 0
    outer loop
      vertex -7.69382 -4.60025 1
      vertex -3.72528 -4.60025 0
      vertex -7.69382 -4.60025 0
    endloop
  endfacet
  facet normal -0.945625 -0.325258 0
    outer loop
      vertex -1.71545 -21.9812 0
      vertex -7.69382 -4.60025 1
      vertex -7.69382 -4.60025 0
    endloop
  endfacet
  facet normal -0.945625 -0.325258 0
    outer loop
      vertex -7.69382 -4.60025 1
      vertex -1.71545 -21.9812 0
      vertex -1.71545 -21.9812 1
    endloop
  endfacet
  facet normal 0 -1 0
    outer loop
      vertex -1.71545 -21.9812 0
      vertex 2.13696 -21.9812 1
      vertex -1.71545 -21.9812 1
    endloop
  endfacet
  facet normal 0 -1 -0
    outer loop
      vertex 2.13696 -21.9812 1
      vertex -1.71545 -21.9812 0
      vertex 2.13696 -21.9812 0
    endloop
  endfacet
  facet normal 0.946269 -0.323379 0
    outer loop
      vertex 2.13696 -21.9812 1
      vertex 8.07675 -4.60025 0
      vertex 8.07675 -4.60025 1
    endloop
  endfacet
  facet normal 0.946269 -0.323379 0
    outer loop
      vertex 8.07675 -4.60025 0
      vertex 2.13696 -21.9812 1
      vertex 2.13696 -21.9812 0
    endloop
  endfacet
endsolid OpenSCAD_Model
