solid OpenSCAD_Model
  facet normal 0 0 -1
    outer loop
      vertex 2.45396 -19.0398 0
      vertex 4.10101 -21.6377 0
      vertex 3.19357 -22.015 0
    endloop
  endfacet
  facet normal 0 0 -1
    outer loop
      vertex 4.10101 -21.6377 0
      vertex 3.16396 -18.6275 0
      vertex 3.32237 -18.506 0
    endloop
  endfacet
  facet normal 0 0 -1
    outer loop
      vertex 4.10101 -21.6377 0
      vertex 2.99789 -18.7416 0
      vertex 3.16396 -18.6275 0
    endloop
  endfacet
  facet normal 0 0 -1
    outer loop
      vertex 4.10101 -21.6377 0
      vertex 2.82422 -18.8483 0
      vertex 2.99789 -18.7416 0
    endloop
  endfacet
  facet normal 0 0 -1
    outer loop
      vertex 4.10101 -21.6377 0
      vertex 2.6429 -18.9477 0
      vertex 2.82422 -18.8483 0
    endloop
  endfacet
  facet normal 0 0 -1
    outer loop
      vertex 4.10101 -21.6377 0
      vertex 2.45396 -19.0398 0
      vertex 2.6429 -18.9477 0
    endloop
  endfacet
  facet normal 0 0 -1
    outer loop
      vertex 1.84613 -19.2701 0
      vertex 3.19357 -22.015 0
      vertex 2.28246 -22.2845 0
    endloop
  endfacet
  facet normal 0 0 -1
    outer loop
      vertex 3.19357 -22.015 0
      vertex 2.25739 -19.1244 0
      vertex 2.45396 -19.0398 0
    endloop
  endfacet
  facet normal 0 0 -1
    outer loop
      vertex 3.19357 -22.015 0
      vertex 2.05318 -19.2017 0
      vertex 2.25739 -19.1244 0
    endloop
  endfacet
  facet normal 0 0 -1
    outer loop
      vertex 3.19357 -22.015 0
      vertex 1.84613 -19.2701 0
      vertex 2.05318 -19.2017 0
    endloop
  endfacet
  facet normal 0 0 -1
    outer loop
      vertex 2.28246 -22.2845 0
      vertex 1.64091 -19.3279 0
      vertex 1.84613 -19.2701 0
    endloop
  endfacet
  facet normal 0 0 -1
    outer loop
      vertex 2.28246 -22.2845 0
      vertex 1.43755 -19.3752 0
      vertex 1.64091 -19.3279 0
    endloop
  endfacet
  facet normal 0 0 -1
    outer loop
      vertex 1.23601 -19.412 0
      vertex 2.28246 -22.2845 0
      vertex 1.36766 -22.4462 0
    endloop
  endfacet
  facet normal 0 0 -1
    outer loop
      vertex 2.28246 -22.2845 0
      vertex 1.23601 -19.412 0
      vertex 1.43755 -19.3752 0
    endloop
  endfacet
  facet normal 0 0 -1
    outer loop
      vertex 1.36766 -22.4462 0
      vertex 1.0363 -19.4383 0
      vertex 1.23601 -19.412 0
    endloop
  endfacet
  facet normal 0 0 -1
    outer loop
      vertex 1.36766 -22.4462 0
      vertex 0.83844 -19.4541 0
      vertex 1.0363 -19.4383 0
    endloop
  endfacet
  facet normal 0 0 -1
    outer loop
      vertex 0.449188 -22.5001 0
      vertex 0.83844 -19.4541 0
      vertex 1.36766 -22.4462 0
    endloop
  endfacet
  facet normal 0 0 -1
    outer loop
      vertex 0.83844 -19.4541 0
      vertex 0.449188 -22.5001 0
      vertex 0.642426 -19.4594 0
    endloop
  endfacet
  facet normal 0 0 -1
    outer loop
      vertex 0.449188 -22.5001 0
      vertex 0.156509 -19.4276 0
      vertex 0.642426 -19.4594 0
    endloop
  endfacet
  facet normal 0 0 -1
    outer loop
      vertex -0.481613 -22.4519 0
      vertex 0.156509 -19.4276 0
      vertex 0.449188 -22.5001 0
    endloop
  endfacet
  facet normal -0 0 -1
    outer loop
      vertex 0.156509 -19.4276 0
      vertex -0.481613 -22.4519 0
      vertex -0.292572 -19.3321 0
    endloop
  endfacet
  facet normal 0 0 -1
    outer loop
      vertex -1.35251 -22.3071 0
      vertex -0.292572 -19.3321 0
      vertex -0.481613 -22.4519 0
    endloop
  endfacet
  facet normal -0 0 -1
    outer loop
      vertex -0.292572 -19.3321 0
      vertex -1.35251 -22.3071 0
      vertex -0.70488 -19.173 0
    endloop
  endfacet
  facet normal 0 0 -1
    outer loop
      vertex -2.16344 -22.0659 0
      vertex -0.70488 -19.173 0
      vertex -1.35251 -22.3071 0
    endloop
  endfacet
  facet normal -0 0 -1
    outer loop
      vertex -0.70488 -19.173 0
      vertex -2.16344 -22.0659 0
      vertex -1.08037 -18.9503 0
    endloop
  endfacet
  facet normal 0 0 -1
    outer loop
      vertex -2.91443 -21.7282 0
      vertex -1.08037 -18.9503 0
      vertex -2.16344 -22.0659 0
    endloop
  endfacet
  facet normal -0 0 -1
    outer loop
      vertex -1.08037 -18.9503 0
      vertex -2.91443 -21.7282 0
      vertex -1.41907 -18.664 0
    endloop
  endfacet
  facet normal 0 0 -1
    outer loop
      vertex -3.60547 -21.2939 0
      vertex -1.41907 -18.664 0
      vertex -2.91443 -21.7282 0
    endloop
  endfacet
  facet normal 0 0 -1
    outer loop
      vertex -4.23656 -20.7632 0
      vertex -1.41907 -18.664 0
      vertex -3.60547 -21.2939 0
    endloop
  endfacet
  facet normal -0 0 -1
    outer loop
      vertex -1.41907 -18.664 0
      vertex -4.23656 -20.7632 0
      vertex -1.72095 -18.314 0
    endloop
  endfacet
  facet normal 0 0 -1
    outer loop
      vertex -4.80771 -20.136 0
      vertex -1.72095 -18.314 0
      vertex -4.23656 -20.7632 0
    endloop
  endfacet
  facet normal -0 0 -1
    outer loop
      vertex -1.72095 -18.314 0
      vertex -4.80771 -20.136 0
      vertex -1.98602 -17.9004 0
    endloop
  endfacet
  facet normal 0 0 -1
    outer loop
      vertex -5.31018 -19.4209 0
      vertex -1.98602 -17.9004 0
      vertex -4.80771 -20.136 0
    endloop
  endfacet
  facet normal -0 0 -1
    outer loop
      vertex -2.21503 -17.4282 0
      vertex -5.73535 -18.6266 0
      vertex -2.4088 -16.9023 0
    endloop
  endfacet
  facet normal 0 0 -1
    outer loop
      vertex -5.73535 -18.6266 0
      vertex -2.21503 -17.4282 0
      vertex -5.31018 -19.4209 0
    endloop
  endfacet
  facet normal -0 0 -1
    outer loop
      vertex -1.98602 -17.9004 0
      vertex -5.31018 -19.4209 0
      vertex -2.21503 -17.4282 0
    endloop
  endfacet
  facet normal 0 0 -1
    outer loop
      vertex 3.32237 -18.506 0
      vertex 6.80127 -19.8589 0
      vertex 5.90486 -20.5597 0
    endloop
  endfacet
  facet normal 0 0 -1
    outer loop
      vertex 3.32237 -18.506 0
      vertex 5.90486 -20.5597 0
      vertex 5.00478 -21.1526 0
    endloop
  endfacet
  facet normal 0 0 -1
    outer loop
      vertex 3.32237 -18.506 0
      vertex 5.00478 -21.1526 0
      vertex 4.10101 -21.6377 0
    endloop
  endfacet
  facet normal 0 0 -1
    outer loop
      vertex 6.80127 -19.8589 0
      vertex 3.32237 -18.506 0
      vertex 3.32237 -15.4781 0
    endloop
  endfacet
  facet normal 0 0 -1
    outer loop
      vertex 6.80127 -19.8589 0
      vertex 3.32237 -15.4781 0
      vertex 6.80127 -12.6693 0
    endloop
  endfacet
  facet normal 0 0 -1
    outer loop
      vertex -0.207809 -12.6693 0
      vertex 3.32237 -15.4781 0
      vertex -0.207809 -15.4781 0
    endloop
  endfacet
  facet normal 0 0 -1
    outer loop
      vertex 3.32237 -15.4781 0
      vertex -0.207809 -12.6693 0
      vertex 6.80127 -12.6693 0
    endloop
  endfacet
  facet normal 0 0 -1
    outer loop
      vertex 2.91008 -10.1182 0
      vertex 6.22589 -8.75209 0
      vertex 6.44046 -9.42262 0
    endloop
  endfacet
  facet normal 0 0 -1
    outer loop
      vertex 2.6942 -9.44481 0
      vertex 6.22589 -8.75209 0
      vertex 2.91008 -10.1182 0
    endloop
  endfacet
  facet normal -0 0 -1
    outer loop
      vertex 5.97977 -8.13205 0
      vertex 2.6942 -9.44481 0
      vertex 5.70209 -7.5625 0
    endloop
  endfacet
  facet normal 0 0 -1
    outer loop
      vertex 2.43678 -8.875 0
      vertex 5.70209 -7.5625 0
      vertex 2.6942 -9.44481 0
    endloop
  endfacet
  facet normal -0 0 -1
    outer loop
      vertex 5.70209 -7.5625 0
      vertex 2.43678 -8.875 0
      vertex 5.39284 -7.04346 0
    endloop
  endfacet
  facet normal -0 0 -1
    outer loop
      vertex 5.39284 -7.04346 0
      vertex 2.43678 -8.875 0
      vertex 5.05205 -6.57489 0
    endloop
  endfacet
  facet normal -0 0 -1
    outer loop
      vertex 5.05205 -6.57489 0
      vertex 2.13782 -8.4088 0
      vertex 4.6797 -6.15683 0
    endloop
  endfacet
  facet normal -0 0 -1
    outer loop
      vertex 4.6797 -6.15683 0
      vertex 2.13782 -8.4088 0
      vertex 4.27579 -5.78925 0
    endloop
  endfacet
  facet normal -0 0 -1
    outer loop
      vertex 6.22589 -8.75209 0
      vertex 2.6942 -9.44481 0
      vertex 5.97977 -8.13205 0
    endloop
  endfacet
  facet normal 0 0 -1
    outer loop
      vertex 2.13782 -8.4088 0
      vertex 5.05205 -6.57489 0
      vertex 2.43678 -8.875 0
    endloop
  endfacet
  facet normal 0 0 -1
    outer loop
      vertex 1.79732 -8.0462 0
      vertex 4.27579 -5.78925 0
      vertex 2.13782 -8.4088 0
    endloop
  endfacet
  facet normal -0 0 -1
    outer loop
      vertex 4.27579 -5.78925 0
      vertex 1.79732 -8.0462 0
      vertex 3.83881 -5.47133 0
    endloop
  endfacet
  facet normal -0 0 -1
    outer loop
      vertex 3.83881 -5.47133 0
      vertex 1.79732 -8.0462 0
      vertex 3.3671 -5.20232 0
    endloop
  endfacet
  facet normal 0 0 -1
    outer loop
      vertex 1.41525 -7.7872 0
      vertex 3.3671 -5.20232 0
      vertex 1.79732 -8.0462 0
    endloop
  endfacet
  facet normal -0 0 -1
    outer loop
      vertex 3.3671 -5.20232 0
      vertex 1.41525 -7.7872 0
      vertex 2.86067 -4.98222 0
    endloop
  endfacet
  facet normal -0 0 -1
    outer loop
      vertex 2.86067 -4.98222 0
      vertex 1.41525 -7.7872 0
      vertex 2.31952 -4.81104 0
    endloop
  endfacet
  facet normal 0 0 -1
    outer loop
      vertex 0.991669 -7.63181 0
      vertex 2.31952 -4.81104 0
      vertex 1.41525 -7.7872 0
    endloop
  endfacet
  facet normal -0 0 -1
    outer loop
      vertex 2.31952 -4.81104 0
      vertex 0.991669 -7.63181 0
      vertex 1.74365 -4.68877 0
    endloop
  endfacet
  facet normal -0 0 -1
    outer loop
      vertex 1.74365 -4.68877 0
      vertex 0.991669 -7.63181 0
      vertex 1.13307 -4.61539 0
    endloop
  endfacet
  facet normal 0 0 -1
    outer loop
      vertex 0.52652 -7.58 0
      vertex 1.13307 -4.61539 0
      vertex 0.991669 -7.63181 0
    endloop
  endfacet
  facet normal 0 0 -1
    outer loop
      vertex 0.52652 -7.58 0
      vertex 0.487762 -4.59094 0
      vertex 1.13307 -4.61539 0
    endloop
  endfacet
  facet normal 0 0 -1
    outer loop
      vertex 0.0483398 -7.6084 0
      vertex 0.487762 -4.59094 0
      vertex 0.52652 -7.58 0
    endloop
  endfacet
  facet normal 0 0 -1
    outer loop
      vertex -1.41962 -4.77211 0
      vertex 0.0483398 -7.6084 0
      vertex -0.392227 -7.6936 0
    endloop
  endfacet
  facet normal 0 0 -1
    outer loop
      vertex -1.41962 -4.77211 0
      vertex -0.392227 -7.6936 0
      vertex -0.795197 -7.8356 0
    endloop
  endfacet
  facet normal 0 0 -1
    outer loop
      vertex -3.03357 -5.31561 0
      vertex -0.795197 -7.8356 0
      vertex -1.16057 -8.03439 0
    endloop
  endfacet
  facet normal 0 0 -1
    outer loop
      vertex 0.0483398 -7.6084 0
      vertex -1.41962 -4.77211 0
      vertex 0.487762 -4.59094 0
    endloop
  endfacet
  facet normal 0 0 -1
    outer loop
      vertex -3.03357 -5.31561 0
      vertex -1.16057 -8.03439 0
      vertex -1.48833 -8.28998 0
    endloop
  endfacet
  facet normal 0 0 -1
    outer loop
      vertex -4.35406 -6.22147 0
      vertex -1.48833 -8.28998 0
      vertex -1.77849 -8.60237 0
    endloop
  endfacet
  facet normal 0 0 -1
    outer loop
      vertex -4.35406 -6.22147 0
      vertex -1.77849 -8.60237 0
      vertex -2.03105 -8.97156 0
    endloop
  endfacet
  facet normal 0 0 -1
    outer loop
      vertex -5.38112 -7.48965 0
      vertex -2.03105 -8.97156 0
      vertex -2.24811 -9.40413 0
    endloop
  endfacet
  facet normal 0 0 -1
    outer loop
      vertex -5.38112 -7.48965 0
      vertex -2.24811 -9.40413 0
      vertex -2.43178 -9.90663 0
    endloop
  endfacet
  facet normal 0 0 -1
    outer loop
      vertex -6.11475 -9.12019 0
      vertex -2.43178 -9.90663 0
      vertex -2.58205 -10.4791 0
    endloop
  endfacet
  facet normal 0 0 -1
    outer loop
      vertex -0.795197 -7.8356 0
      vertex -3.03357 -5.31561 0
      vertex -1.41962 -4.77211 0
    endloop
  endfacet
  facet normal 0 0 -1
    outer loop
      vertex -6.11475 -9.12019 0
      vertex -2.58205 -10.4791 0
      vertex -2.69891 -11.1215 0
    endloop
  endfacet
  facet normal 0 0 -1
    outer loop
      vertex -6.5549 -11.1131 0
      vertex -2.69891 -11.1215 0
      vertex -2.78241 -11.8338 0
    endloop
  endfacet
  facet normal 0 0 -1
    outer loop
      vertex -6.5549 -11.1131 0
      vertex -2.78241 -11.8338 0
      vertex -2.83249 -12.6161 0
    endloop
  endfacet
  facet normal 0 0 -1
    outer loop
      vertex -6.70163 -13.4683 0
      vertex -2.83249 -12.6161 0
      vertex -2.8492 -13.4683 0
    endloop
  endfacet
  facet normal 0 0 -1
    outer loop
      vertex -6.08321 -17.7532 0
      vertex -2.4088 -16.9023 0
      vertex -5.73535 -18.6266 0
    endloop
  endfacet
  facet normal -0 0 -1
    outer loop
      vertex -2.4088 -16.9023 0
      vertex -6.08321 -17.7532 0
      vertex -2.56734 -16.3228 0
    endloop
  endfacet
  facet normal 0 0 -1
    outer loop
      vertex -6.35376 -16.8007 0
      vertex -2.56734 -16.3228 0
      vertex -6.08321 -17.7532 0
    endloop
  endfacet
  facet normal -0 0 -1
    outer loop
      vertex -2.83249 -12.6161 0
      vertex -6.70163 -13.4683 0
      vertex -6.5549 -11.1131 0
    endloop
  endfacet
  facet normal -0 0 -1
    outer loop
      vertex -2.56734 -16.3228 0
      vertex -6.35376 -16.8007 0
      vertex -2.69064 -15.6896 0
    endloop
  endfacet
  facet normal 0 0 -1
    outer loop
      vertex -6.54703 -15.769 0
      vertex -2.69064 -15.6896 0
      vertex -6.35376 -16.8007 0
    endloop
  endfacet
  facet normal 0 0 -1
    outer loop
      vertex -2.69891 -11.1215 0
      vertex -6.5549 -11.1131 0
      vertex -6.11475 -9.12019 0
    endloop
  endfacet
  facet normal -0 0 -1
    outer loop
      vertex -2.69064 -15.6896 0
      vertex -6.54703 -15.769 0
      vertex -2.77873 -15.0028 0
    endloop
  endfacet
  facet normal 0 0 -1
    outer loop
      vertex -6.66298 -14.6582 0
      vertex -2.77873 -15.0028 0
      vertex -6.54703 -15.769 0
    endloop
  endfacet
  facet normal 0 0 -1
    outer loop
      vertex -2.43178 -9.90663 0
      vertex -6.11475 -9.12019 0
      vertex -5.38112 -7.48965 0
    endloop
  endfacet
  facet normal 0 0 -1
    outer loop
      vertex -2.77873 -15.0028 0
      vertex -6.66298 -14.6582 0
      vertex -2.83157 -14.2624 0
    endloop
  endfacet
  facet normal 0 0 -1
    outer loop
      vertex -6.70163 -13.4683 0
      vertex -2.83157 -14.2624 0
      vertex -6.66298 -14.6582 0
    endloop
  endfacet
  facet normal 0 0 -1
    outer loop
      vertex -2.83157 -14.2624 0
      vertex -6.70163 -13.4683 0
      vertex -2.8492 -13.4683 0
    endloop
  endfacet
  facet normal 0 0 -1
    outer loop
      vertex -2.03105 -8.97156 0
      vertex -5.38112 -7.48965 0
      vertex -4.35406 -6.22147 0
    endloop
  endfacet
  facet normal 0 0 -1
    outer loop
      vertex -1.48833 -8.28998 0
      vertex -4.35406 -6.22147 0
      vertex -3.03357 -5.31561 0
    endloop
  endfacet
  facet normal 0 0 1
    outer loop
      vertex 2.6942 -9.44481 1
      vertex 6.22589 -8.75209 1
      vertex 5.97977 -8.13205 1
    endloop
  endfacet
  facet normal 0 0 1
    outer loop
      vertex 2.6942 -9.44481 1
      vertex 5.97977 -8.13205 1
      vertex 5.70209 -7.5625 1
    endloop
  endfacet
  facet normal 0 0 1
    outer loop
      vertex 2.43678 -8.875 1
      vertex 5.70209 -7.5625 1
      vertex 5.39284 -7.04346 1
    endloop
  endfacet
  facet normal 0 0 1
    outer loop
      vertex 2.43678 -8.875 1
      vertex 5.39284 -7.04346 1
      vertex 5.05205 -6.57489 1
    endloop
  endfacet
  facet normal 0 0 1
    outer loop
      vertex 2.13782 -8.4088 1
      vertex 5.05205 -6.57489 1
      vertex 4.6797 -6.15683 1
    endloop
  endfacet
  facet normal 0 0 1
    outer loop
      vertex 2.13782 -8.4088 1
      vertex 4.6797 -6.15683 1
      vertex 4.27579 -5.78925 1
    endloop
  endfacet
  facet normal 0 0 1
    outer loop
      vertex 1.79732 -8.0462 1
      vertex 4.27579 -5.78925 1
      vertex 3.83881 -5.47133 1
    endloop
  endfacet
  facet normal 0 0 1
    outer loop
      vertex 1.79732 -8.0462 1
      vertex 3.83881 -5.47133 1
      vertex 3.3671 -5.20232 1
    endloop
  endfacet
  facet normal 0 0 1
    outer loop
      vertex 5.70209 -7.5625 1
      vertex 2.43678 -8.875 1
      vertex 2.6942 -9.44481 1
    endloop
  endfacet
  facet normal 0 0 1
    outer loop
      vertex 1.41525 -7.7872 1
      vertex 3.3671 -5.20232 1
      vertex 2.86067 -4.98222 1
    endloop
  endfacet
  facet normal 0 0 1
    outer loop
      vertex 6.22589 -8.75209 1
      vertex 2.91008 -10.1182 1
      vertex 6.44046 -9.42262 1
    endloop
  endfacet
  facet normal 0 0 1
    outer loop
      vertex 6.22589 -8.75209 1
      vertex 2.6942 -9.44481 1
      vertex 2.91008 -10.1182 1
    endloop
  endfacet
  facet normal 0 0 1
    outer loop
      vertex 1.41525 -7.7872 1
      vertex 2.86067 -4.98222 1
      vertex 2.31952 -4.81104 1
    endloop
  endfacet
  facet normal 0 0 1
    outer loop
      vertex 5.05205 -6.57489 1
      vertex 2.13782 -8.4088 1
      vertex 2.43678 -8.875 1
    endloop
  endfacet
  facet normal 0 0 1
    outer loop
      vertex 4.27579 -5.78925 1
      vertex 1.79732 -8.0462 1
      vertex 2.13782 -8.4088 1
    endloop
  endfacet
  facet normal 0 0 1
    outer loop
      vertex 0.991669 -7.63181 1
      vertex 2.31952 -4.81104 1
      vertex 1.74365 -4.68877 1
    endloop
  endfacet
  facet normal 0 0 1
    outer loop
      vertex 3.3671 -5.20232 1
      vertex 1.41525 -7.7872 1
      vertex 1.79732 -8.0462 1
    endloop
  endfacet
  facet normal 0 0 1
    outer loop
      vertex 0.991669 -7.63181 1
      vertex 1.74365 -4.68877 1
      vertex 1.13307 -4.61539 1
    endloop
  endfacet
  facet normal 0 0 1
    outer loop
      vertex 2.31952 -4.81104 1
      vertex 0.991669 -7.63181 1
      vertex 1.41525 -7.7872 1
    endloop
  endfacet
  facet normal 0 0 1
    outer loop
      vertex 1.13307 -4.61539 1
      vertex 0.52652 -7.58 1
      vertex 0.991669 -7.63181 1
    endloop
  endfacet
  facet normal 0 0 1
    outer loop
      vertex 0.487762 -4.59094 1
      vertex 0.52652 -7.58 1
      vertex 1.13307 -4.61539 1
    endloop
  endfacet
  facet normal 0 0 1
    outer loop
      vertex 0.487762 -4.59094 1
      vertex 0.0483398 -7.6084 1
      vertex 0.52652 -7.58 1
    endloop
  endfacet
  facet normal -0 0 1
    outer loop
      vertex -1.41962 -4.77211 1
      vertex 0.0483398 -7.6084 1
      vertex 0.487762 -4.59094 1
    endloop
  endfacet
  facet normal 0 0 1
    outer loop
      vertex 0.0483398 -7.6084 1
      vertex -1.41962 -4.77211 1
      vertex -0.392227 -7.6936 1
    endloop
  endfacet
  facet normal 0 0 1
    outer loop
      vertex -0.392227 -7.6936 1
      vertex -1.41962 -4.77211 1
      vertex -0.795197 -7.8356 1
    endloop
  endfacet
  facet normal -0 0 1
    outer loop
      vertex -3.03357 -5.31561 1
      vertex -0.795197 -7.8356 1
      vertex -1.41962 -4.77211 1
    endloop
  endfacet
  facet normal 0 0 1
    outer loop
      vertex -0.795197 -7.8356 1
      vertex -3.03357 -5.31561 1
      vertex -1.16057 -8.03439 1
    endloop
  endfacet
  facet normal 0 0 1
    outer loop
      vertex -1.16057 -8.03439 1
      vertex -3.03357 -5.31561 1
      vertex -1.48833 -8.28998 1
    endloop
  endfacet
  facet normal -0 0 1
    outer loop
      vertex -4.35406 -6.22147 1
      vertex -1.48833 -8.28998 1
      vertex -3.03357 -5.31561 1
    endloop
  endfacet
  facet normal 0 0 1
    outer loop
      vertex -1.48833 -8.28998 1
      vertex -4.35406 -6.22147 1
      vertex -1.77849 -8.60237 1
    endloop
  endfacet
  facet normal 0 0 1
    outer loop
      vertex -1.77849 -8.60237 1
      vertex -4.35406 -6.22147 1
      vertex -2.03105 -8.97156 1
    endloop
  endfacet
  facet normal -0 0 1
    outer loop
      vertex -5.38112 -7.48965 1
      vertex -2.03105 -8.97156 1
      vertex -4.35406 -6.22147 1
    endloop
  endfacet
  facet normal 0 0 1
    outer loop
      vertex -2.03105 -8.97156 1
      vertex -5.38112 -7.48965 1
      vertex -2.24811 -9.40413 1
    endloop
  endfacet
  facet normal 0 0 1
    outer loop
      vertex -2.24811 -9.40413 1
      vertex -5.38112 -7.48965 1
      vertex -2.43178 -9.90663 1
    endloop
  endfacet
  facet normal -0 0 1
    outer loop
      vertex -6.11475 -9.12019 1
      vertex -2.43178 -9.90663 1
      vertex -5.38112 -7.48965 1
    endloop
  endfacet
  facet normal 0 0 1
    outer loop
      vertex -2.43178 -9.90663 1
      vertex -6.11475 -9.12019 1
      vertex -2.58205 -10.4791 1
    endloop
  endfacet
  facet normal 0 0 1
    outer loop
      vertex -2.58205 -10.4791 1
      vertex -6.11475 -9.12019 1
      vertex -2.69891 -11.1215 1
    endloop
  endfacet
  facet normal -0 0 1
    outer loop
      vertex -6.5549 -11.1131 1
      vertex -2.69891 -11.1215 1
      vertex -6.11475 -9.12019 1
    endloop
  endfacet
  facet normal 0 -0 1
    outer loop
      vertex -6.66298 -14.6582 1
      vertex -2.8492 -13.4683 1
      vertex -6.70163 -13.4683 1
    endloop
  endfacet
  facet normal 0 -0 1
    outer loop
      vertex -6.54703 -15.769 1
      vertex -2.8492 -13.4683 1
      vertex -6.66298 -14.6582 1
    endloop
  endfacet
  facet normal 0 0 1
    outer loop
      vertex -2.69891 -11.1215 1
      vertex -6.5549 -11.1131 1
      vertex -2.78241 -11.8338 1
    endloop
  endfacet
  facet normal 0 -0 1
    outer loop
      vertex -6.35376 -16.8007 1
      vertex -2.8492 -13.4683 1
      vertex -6.54703 -15.769 1
    endloop
  endfacet
  facet normal 0 -0 1
    outer loop
      vertex -6.08321 -17.7532 1
      vertex -2.8492 -13.4683 1
      vertex -6.35376 -16.8007 1
    endloop
  endfacet
  facet normal 0 0 1
    outer loop
      vertex -2.78241 -11.8338 1
      vertex -6.5549 -11.1131 1
      vertex -2.83249 -12.6161 1
    endloop
  endfacet
  facet normal 0 -0 1
    outer loop
      vertex -5.73535 -18.6266 1
      vertex -2.8492 -13.4683 1
      vertex -6.08321 -17.7532 1
    endloop
  endfacet
  facet normal 0 -0 1
    outer loop
      vertex -5.31018 -19.4209 1
      vertex -2.8492 -13.4683 1
      vertex -5.73535 -18.6266 1
    endloop
  endfacet
  facet normal 0 0 1
    outer loop
      vertex -6.70163 -13.4683 1
      vertex -2.83249 -12.6161 1
      vertex -6.5549 -11.1131 1
    endloop
  endfacet
  facet normal 0 -0 1
    outer loop
      vertex -4.80771 -20.136 1
      vertex -2.8492 -13.4683 1
      vertex -5.31018 -19.4209 1
    endloop
  endfacet
  facet normal 0 0 1
    outer loop
      vertex -2.8492 -13.4683 1
      vertex -3.60547 -21.2939 1
      vertex -2.91443 -21.7282 1
    endloop
  endfacet
  facet normal 0 0 1
    outer loop
      vertex -2.83249 -12.6161 1
      vertex -6.70163 -13.4683 1
      vertex -2.8492 -13.4683 1
    endloop
  endfacet
  facet normal 0 -0 1
    outer loop
      vertex -4.23656 -20.7632 1
      vertex -2.8492 -13.4683 1
      vertex -4.80771 -20.136 1
    endloop
  endfacet
  facet normal 0 0 1
    outer loop
      vertex -2.8492 -13.4683 1
      vertex -4.23656 -20.7632 1
      vertex -3.60547 -21.2939 1
    endloop
  endfacet
  facet normal -0 0 1
    outer loop
      vertex 3.32237 -15.4781 1
      vertex 6.80127 -19.8589 1
      vertex 6.80127 -12.6693 1
    endloop
  endfacet
  facet normal -0 0 1
    outer loop
      vertex 3.32237 -18.506 1
      vertex 6.80127 -19.8589 1
      vertex 3.32237 -15.4781 1
    endloop
  endfacet
  facet normal 0 0 1
    outer loop
      vertex 5.90486 -20.5597 1
      vertex 3.32237 -18.506 1
      vertex 5.00478 -21.1526 1
    endloop
  endfacet
  facet normal 0 0 1
    outer loop
      vertex 6.80127 -19.8589 1
      vertex 3.32237 -18.506 1
      vertex 5.90486 -20.5597 1
    endloop
  endfacet
  facet normal -0 0 1
    outer loop
      vertex -0.207809 -12.6693 1
      vertex 3.32237 -15.4781 1
      vertex 6.80127 -12.6693 1
    endloop
  endfacet
  facet normal 0 0 1
    outer loop
      vertex 3.32237 -15.4781 1
      vertex -0.207809 -12.6693 1
      vertex -0.207809 -15.4781 1
    endloop
  endfacet
  facet normal -0 0 1
    outer loop
      vertex 3.16396 -18.6275 1
      vertex 5.00478 -21.1526 1
      vertex 3.32237 -18.506 1
    endloop
  endfacet
  facet normal -0 0 1
    outer loop
      vertex 2.99789 -18.7416 1
      vertex 5.00478 -21.1526 1
      vertex 3.16396 -18.6275 1
    endloop
  endfacet
  facet normal 0 0 1
    outer loop
      vertex 5.00478 -21.1526 1
      vertex 2.99789 -18.7416 1
      vertex 4.10101 -21.6377 1
    endloop
  endfacet
  facet normal -0 0 1
    outer loop
      vertex 2.82422 -18.8483 1
      vertex 4.10101 -21.6377 1
      vertex 2.99789 -18.7416 1
    endloop
  endfacet
  facet normal -0 0 1
    outer loop
      vertex 2.6429 -18.9477 1
      vertex 4.10101 -21.6377 1
      vertex 2.82422 -18.8483 1
    endloop
  endfacet
  facet normal -0 0 1
    outer loop
      vertex 2.45396 -19.0398 1
      vertex 4.10101 -21.6377 1
      vertex 2.6429 -18.9477 1
    endloop
  endfacet
  facet normal 0 0 1
    outer loop
      vertex 4.10101 -21.6377 1
      vertex 2.45396 -19.0398 1
      vertex 3.19357 -22.015 1
    endloop
  endfacet
  facet normal -0 0 1
    outer loop
      vertex 2.25739 -19.1244 1
      vertex 3.19357 -22.015 1
      vertex 2.45396 -19.0398 1
    endloop
  endfacet
  facet normal -0 0 1
    outer loop
      vertex 2.05318 -19.2017 1
      vertex 3.19357 -22.015 1
      vertex 2.25739 -19.1244 1
    endloop
  endfacet
  facet normal -0 0 1
    outer loop
      vertex 1.84613 -19.2701 1
      vertex 3.19357 -22.015 1
      vertex 2.05318 -19.2017 1
    endloop
  endfacet
  facet normal 0 0 1
    outer loop
      vertex 3.19357 -22.015 1
      vertex 1.84613 -19.2701 1
      vertex 2.28246 -22.2845 1
    endloop
  endfacet
  facet normal -0 0 1
    outer loop
      vertex 1.64091 -19.3279 1
      vertex 2.28246 -22.2845 1
      vertex 1.84613 -19.2701 1
    endloop
  endfacet
  facet normal -0 0 1
    outer loop
      vertex 1.43755 -19.3752 1
      vertex 2.28246 -22.2845 1
      vertex 1.64091 -19.3279 1
    endloop
  endfacet
  facet normal -0 0 1
    outer loop
      vertex 1.23601 -19.412 1
      vertex 2.28246 -22.2845 1
      vertex 1.43755 -19.3752 1
    endloop
  endfacet
  facet normal 0 0 1
    outer loop
      vertex 2.28246 -22.2845 1
      vertex 1.23601 -19.412 1
      vertex 1.36766 -22.4462 1
    endloop
  endfacet
  facet normal -0 0 1
    outer loop
      vertex 1.0363 -19.4383 1
      vertex 1.36766 -22.4462 1
      vertex 1.23601 -19.412 1
    endloop
  endfacet
  facet normal -0 0 1
    outer loop
      vertex 0.83844 -19.4541 1
      vertex 1.36766 -22.4462 1
      vertex 1.0363 -19.4383 1
    endloop
  endfacet
  facet normal 0 0 1
    outer loop
      vertex 0.449188 -22.5001 1
      vertex 0.83844 -19.4541 1
      vertex 0.642426 -19.4594 1
    endloop
  endfacet
  facet normal 0 0 1
    outer loop
      vertex 0.83844 -19.4541 1
      vertex 0.449188 -22.5001 1
      vertex 1.36766 -22.4462 1
    endloop
  endfacet
  facet normal 0 0 1
    outer loop
      vertex 0.156509 -19.4276 1
      vertex 0.449188 -22.5001 1
      vertex 0.642426 -19.4594 1
    endloop
  endfacet
  facet normal 0 0 1
    outer loop
      vertex -0.481613 -22.4519 1
      vertex 0.156509 -19.4276 1
      vertex -0.292572 -19.3321 1
    endloop
  endfacet
  facet normal 0 0 1
    outer loop
      vertex 0.156509 -19.4276 1
      vertex -0.481613 -22.4519 1
      vertex 0.449188 -22.5001 1
    endloop
  endfacet
  facet normal 0 0 1
    outer loop
      vertex -1.35251 -22.3071 1
      vertex -0.292572 -19.3321 1
      vertex -0.70488 -19.173 1
    endloop
  endfacet
  facet normal 0 0 1
    outer loop
      vertex -2.16344 -22.0659 1
      vertex -0.70488 -19.173 1
      vertex -1.08037 -18.9503 1
    endloop
  endfacet
  facet normal 0 0 1
    outer loop
      vertex -0.292572 -19.3321 1
      vertex -1.35251 -22.3071 1
      vertex -0.481613 -22.4519 1
    endloop
  endfacet
  facet normal 0 0 1
    outer loop
      vertex -2.91443 -21.7282 1
      vertex -1.08037 -18.9503 1
      vertex -1.41907 -18.664 1
    endloop
  endfacet
  facet normal 0 0 1
    outer loop
      vertex -2.91443 -21.7282 1
      vertex -1.41907 -18.664 1
      vertex -1.72095 -18.314 1
    endloop
  endfacet
  facet normal 0 0 1
    outer loop
      vertex -2.91443 -21.7282 1
      vertex -1.72095 -18.314 1
      vertex -1.98602 -17.9004 1
    endloop
  endfacet
  facet normal 0 0 1
    outer loop
      vertex -0.70488 -19.173 1
      vertex -2.16344 -22.0659 1
      vertex -1.35251 -22.3071 1
    endloop
  endfacet
  facet normal 0 0 1
    outer loop
      vertex -2.91443 -21.7282 1
      vertex -1.98602 -17.9004 1
      vertex -2.21503 -17.4282 1
    endloop
  endfacet
  facet normal 0 0 1
    outer loop
      vertex -2.91443 -21.7282 1
      vertex -2.21503 -17.4282 1
      vertex -2.4088 -16.9023 1
    endloop
  endfacet
  facet normal 0 0 1
    outer loop
      vertex -2.91443 -21.7282 1
      vertex -2.4088 -16.9023 1
      vertex -2.56734 -16.3228 1
    endloop
  endfacet
  facet normal 0 0 1
    outer loop
      vertex -2.91443 -21.7282 1
      vertex -2.56734 -16.3228 1
      vertex -2.69064 -15.6896 1
    endloop
  endfacet
  facet normal 0 0 1
    outer loop
      vertex -2.91443 -21.7282 1
      vertex -2.69064 -15.6896 1
      vertex -2.77873 -15.0028 1
    endloop
  endfacet
  facet normal 0 0 1
    outer loop
      vertex -1.08037 -18.9503 1
      vertex -2.91443 -21.7282 1
      vertex -2.16344 -22.0659 1
    endloop
  endfacet
  facet normal 0 0 1
    outer loop
      vertex -2.83157 -14.2624 1
      vertex -2.91443 -21.7282 1
      vertex -2.77873 -15.0028 1
    endloop
  endfacet
  facet normal 0 0 1
    outer loop
      vertex -2.91443 -21.7282 1
      vertex -2.83157 -14.2624 1
      vertex -2.8492 -13.4683 1
    endloop
  endfacet
  facet normal 0.174062 -0.984735 0
    outer loop
      vertex 1.36766 -22.4462 0
      vertex 2.28246 -22.2845 1
      vertex 1.36766 -22.4462 1
    endloop
  endfacet
  facet normal 0.174062 -0.984735 0
    outer loop
      vertex 2.28246 -22.2845 1
      vertex 1.36766 -22.4462 0
      vertex 2.28246 -22.2845 0
    endloop
  endfacet
  facet normal 0.283645 -0.958929 0
    outer loop
      vertex 2.28246 -22.2845 0
      vertex 3.19357 -22.015 1
      vertex 2.28246 -22.2845 1
    endloop
  endfacet
  facet normal 0.283645 -0.958929 0
    outer loop
      vertex 3.19357 -22.015 1
      vertex 2.28246 -22.2845 0
      vertex 3.19357 -22.015 0
    endloop
  endfacet
  facet normal 0.383922 -0.923366 0
    outer loop
      vertex 3.19357 -22.015 0
      vertex 4.10101 -21.6377 1
      vertex 3.19357 -22.015 1
    endloop
  endfacet
  facet normal 0.383922 -0.923366 0
    outer loop
      vertex 4.10101 -21.6377 1
      vertex 3.19357 -22.015 0
      vertex 4.10101 -21.6377 0
    endloop
  endfacet
  facet normal 0.472931 -0.881099 0
    outer loop
      vertex 4.10101 -21.6377 0
      vertex 5.00478 -21.1526 1
      vertex 4.10101 -21.6377 1
    endloop
  endfacet
  facet normal 0.472931 -0.881099 0
    outer loop
      vertex 5.00478 -21.1526 1
      vertex 4.10101 -21.6377 0
      vertex 5.00478 -21.1526 0
    endloop
  endfacet
  facet normal 0.550097 -0.835101 0
    outer loop
      vertex 5.00478 -21.1526 0
      vertex 5.90486 -20.5597 1
      vertex 5.00478 -21.1526 1
    endloop
  endfacet
  facet normal 0.550097 -0.835101 0
    outer loop
      vertex 5.90486 -20.5597 1
      vertex 5.00478 -21.1526 0
      vertex 5.90486 -20.5597 0
    endloop
  endfacet
  facet normal 0.615906 -0.78782 0
    outer loop
      vertex 5.90486 -20.5597 0
      vertex 6.80127 -19.8589 1
      vertex 5.90486 -20.5597 1
    endloop
  endfacet
  facet normal 0.615906 -0.78782 0
    outer loop
      vertex 6.80127 -19.8589 1
      vertex 5.90486 -20.5597 0
      vertex 6.80127 -19.8589 0
    endloop
  endfacet
  facet normal 1 -0 0
    outer loop
      vertex 6.80127 -19.8589 1
      vertex 6.80127 -12.6693 0
      vertex 6.80127 -12.6693 1
    endloop
  endfacet
  facet normal 1 0 0
    outer loop
      vertex 6.80127 -12.6693 0
      vertex 6.80127 -19.8589 1
      vertex 6.80127 -19.8589 0
    endloop
  endfacet
  facet normal 0 1 -0
    outer loop
      vertex 6.80127 -12.6693 0
      vertex -0.207809 -12.6693 1
      vertex 6.80127 -12.6693 1
    endloop
  endfacet
  facet normal 0 1 0
    outer loop
      vertex -0.207809 -12.6693 1
      vertex 6.80127 -12.6693 0
      vertex -0.207809 -12.6693 0
    endloop
  endfacet
  facet normal -1 0 0
    outer loop
      vertex -0.207809 -15.4781 0
      vertex -0.207809 -12.6693 1
      vertex -0.207809 -12.6693 0
    endloop
  endfacet
  facet normal -1 -0 0
    outer loop
      vertex -0.207809 -12.6693 1
      vertex -0.207809 -15.4781 0
      vertex -0.207809 -15.4781 1
    endloop
  endfacet
  facet normal 0 -1 0
    outer loop
      vertex -0.207809 -15.4781 0
      vertex 3.32237 -15.4781 1
      vertex -0.207809 -15.4781 1
    endloop
  endfacet
  facet normal 0 -1 -0
    outer loop
      vertex 3.32237 -15.4781 1
      vertex -0.207809 -15.4781 0
      vertex 3.32237 -15.4781 0
    endloop
  endfacet
  facet normal -1 0 0
    outer loop
      vertex 3.32237 -18.506 0
      vertex 3.32237 -15.4781 1
      vertex 3.32237 -15.4781 0
    endloop
  endfacet
  facet normal -1 -0 0
    outer loop
      vertex 3.32237 -15.4781 1
      vertex 3.32237 -18.506 0
      vertex 3.32237 -18.506 1
    endloop
  endfacet
  facet normal -0.608597 0.79348 0
    outer loop
      vertex 3.32237 -18.506 0
      vertex 3.16396 -18.6275 1
      vertex 3.32237 -18.506 1
    endloop
  endfacet
  facet normal -0.608597 0.79348 0
    outer loop
      vertex 3.16396 -18.6275 1
      vertex 3.32237 -18.506 0
      vertex 3.16396 -18.6275 0
    endloop
  endfacet
  facet normal -0.566282 0.824211 0
    outer loop
      vertex 3.16396 -18.6275 0
      vertex 2.99789 -18.7416 1
      vertex 3.16396 -18.6275 1
    endloop
  endfacet
  facet normal -0.566282 0.824211 0
    outer loop
      vertex 2.99789 -18.7416 1
      vertex 3.16396 -18.6275 0
      vertex 2.99789 -18.7416 0
    endloop
  endfacet
  facet normal -0.523479 0.852039 0
    outer loop
      vertex 2.99789 -18.7416 0
      vertex 2.82422 -18.8483 1
      vertex 2.99789 -18.7416 1
    endloop
  endfacet
  facet normal -0.523479 0.852039 0
    outer loop
      vertex 2.82422 -18.8483 1
      vertex 2.99789 -18.7416 0
      vertex 2.82422 -18.8483 0
    endloop
  endfacet
  facet normal -0.480708 0.876881 0
    outer loop
      vertex 2.82422 -18.8483 0
      vertex 2.6429 -18.9477 1
      vertex 2.82422 -18.8483 1
    endloop
  endfacet
  facet normal -0.480708 0.876881 0
    outer loop
      vertex 2.6429 -18.9477 1
      vertex 2.82422 -18.8483 0
      vertex 2.6429 -18.9477 0
    endloop
  endfacet
  facet normal -0.438171 0.898892 0
    outer loop
      vertex 2.6429 -18.9477 0
      vertex 2.45396 -19.0398 1
      vertex 2.6429 -18.9477 1
    endloop
  endfacet
  facet normal -0.438171 0.898892 0
    outer loop
      vertex 2.45396 -19.0398 1
      vertex 2.6429 -18.9477 0
      vertex 2.45396 -19.0398 0
    endloop
  endfacet
  facet normal -0.395323 0.918542 0
    outer loop
      vertex 2.45396 -19.0398 0
      vertex 2.25739 -19.1244 1
      vertex 2.45396 -19.0398 1
    endloop
  endfacet
  facet normal -0.395323 0.918542 0
    outer loop
      vertex 2.25739 -19.1244 1
      vertex 2.45396 -19.0398 0
      vertex 2.25739 -19.1244 0
    endloop
  endfacet
  facet normal -0.354018 0.935239 0
    outer loop
      vertex 2.25739 -19.1244 0
      vertex 2.05318 -19.2017 1
      vertex 2.25739 -19.1244 1
    endloop
  endfacet
  facet normal -0.354018 0.935239 0
    outer loop
      vertex 2.05318 -19.2017 1
      vertex 2.25739 -19.1244 0
      vertex 2.05318 -19.2017 0
    endloop
  endfacet
  facet normal -0.313681 0.949528 0
    outer loop
      vertex 2.05318 -19.2017 0
      vertex 1.84613 -19.2701 1
      vertex 2.05318 -19.2017 1
    endloop
  endfacet
  facet normal -0.313681 0.949528 0
    outer loop
      vertex 1.84613 -19.2701 1
      vertex 2.05318 -19.2017 0
      vertex 1.84613 -19.2701 0
    endloop
  endfacet
  facet normal -0.271101 0.962551 0
    outer loop
      vertex 1.84613 -19.2701 0
      vertex 1.64091 -19.3279 1
      vertex 1.84613 -19.2701 1
    endloop
  endfacet
  facet normal -0.271101 0.962551 0
    outer loop
      vertex 1.64091 -19.3279 1
      vertex 1.84613 -19.2701 0
      vertex 1.64091 -19.3279 0
    endloop
  endfacet
  facet normal -0.226545 0.974001 0
    outer loop
      vertex 1.64091 -19.3279 0
      vertex 1.43755 -19.3752 1
      vertex 1.64091 -19.3279 1
    endloop
  endfacet
  facet normal -0.226545 0.974001 0
    outer loop
      vertex 1.43755 -19.3752 1
      vertex 1.64091 -19.3279 0
      vertex 1.43755 -19.3752 0
    endloop
  endfacet
  facet normal -0.179624 0.983735 0
    outer loop
      vertex 1.43755 -19.3752 0
      vertex 1.23601 -19.412 1
      vertex 1.43755 -19.3752 1
    endloop
  endfacet
  facet normal -0.179624 0.983735 0
    outer loop
      vertex 1.23601 -19.412 1
      vertex 1.43755 -19.3752 0
      vertex 1.23601 -19.412 0
    endloop
  endfacet
  facet normal -0.130564 0.99144 0
    outer loop
      vertex 1.23601 -19.412 0
      vertex 1.0363 -19.4383 1
      vertex 1.23601 -19.412 1
    endloop
  endfacet
  facet normal -0.130564 0.99144 0
    outer loop
      vertex 1.0363 -19.4383 1
      vertex 1.23601 -19.412 0
      vertex 1.0363 -19.4383 0
    endloop
  endfacet
  facet normal -0.079601 0.996827 0
    outer loop
      vertex 1.0363 -19.4383 0
      vertex 0.83844 -19.4541 1
      vertex 1.0363 -19.4383 1
    endloop
  endfacet
  facet normal -0.079601 0.996827 0
    outer loop
      vertex 0.83844 -19.4541 1
      vertex 1.0363 -19.4383 0
      vertex 0.83844 -19.4541 0
    endloop
  endfacet
  facet normal -0.027029 0.999635 0
    outer loop
      vertex 0.83844 -19.4541 0
      vertex 0.642426 -19.4594 1
      vertex 0.83844 -19.4541 1
    endloop
  endfacet
  facet normal -0.027029 0.999635 0
    outer loop
      vertex 0.642426 -19.4594 1
      vertex 0.83844 -19.4541 0
      vertex 0.642426 -19.4594 0
    endloop
  endfacet
  facet normal 0.0653036 0.997865 -0
    outer loop
      vertex 0.642426 -19.4594 0
      vertex 0.156509 -19.4276 1
      vertex 0.642426 -19.4594 1
    endloop
  endfacet
  facet normal 0.0653036 0.997865 0
    outer loop
      vertex 0.156509 -19.4276 1
      vertex 0.642426 -19.4594 0
      vertex 0.156509 -19.4276 0
    endloop
  endfacet
  facet normal 0.208005 0.978128 -0
    outer loop
      vertex 0.156509 -19.4276 0
      vertex -0.292572 -19.3321 1
      vertex 0.156509 -19.4276 1
    endloop
  endfacet
  facet normal 0.208005 0.978128 0
    outer loop
      vertex -0.292572 -19.3321 1
      vertex 0.156509 -19.4276 0
      vertex -0.292572 -19.3321 0
    endloop
  endfacet
  facet normal 0.360004 0.932951 -0
    outer loop
      vertex -0.292572 -19.3321 0
      vertex -0.70488 -19.173 1
      vertex -0.292572 -19.3321 1
    endloop
  endfacet
  facet normal 0.360004 0.932951 0
    outer loop
      vertex -0.70488 -19.173 1
      vertex -0.292572 -19.3321 0
      vertex -0.70488 -19.173 0
    endloop
  endfacet
  facet normal 0.51012 0.860103 -0
    outer loop
      vertex -0.70488 -19.173 0
      vertex -1.08037 -18.9503 1
      vertex -0.70488 -19.173 1
    endloop
  endfacet
  facet normal 0.51012 0.860103 0
    outer loop
      vertex -1.08037 -18.9503 1
      vertex -0.70488 -19.173 0
      vertex -1.08037 -18.9503 0
    endloop
  endfacet
  facet normal 0.645558 0.763711 -0
    outer loop
      vertex -1.08037 -18.9503 0
      vertex -1.41907 -18.664 1
      vertex -1.08037 -18.9503 1
    endloop
  endfacet
  facet normal 0.645558 0.763711 0
    outer loop
      vertex -1.41907 -18.664 1
      vertex -1.08037 -18.9503 0
      vertex -1.41907 -18.664 0
    endloop
  endfacet
  facet normal 0.757243 0.653133 0
    outer loop
      vertex -1.41907 -18.664 1
      vertex -1.72095 -18.314 0
      vertex -1.72095 -18.314 1
    endloop
  endfacet
  facet normal 0.757243 0.653133 0
    outer loop
      vertex -1.72095 -18.314 0
      vertex -1.41907 -18.664 1
      vertex -1.41907 -18.664 0
    endloop
  endfacet
  facet normal 0.841933 0.539582 0
    outer loop
      vertex -1.72095 -18.314 1
      vertex -1.98602 -17.9004 0
      vertex -1.98602 -17.9004 1
    endloop
  endfacet
  facet normal 0.841933 0.539582 0
    outer loop
      vertex -1.98602 -17.9004 0
      vertex -1.72095 -18.314 1
      vertex -1.72095 -18.314 0
    endloop
  endfacet
  facet normal 0.899766 0.436373 0
    outer loop
      vertex -1.98602 -17.9004 1
      vertex -2.21503 -17.4282 0
      vertex -2.21503 -17.4282 1
    endloop
  endfacet
  facet normal 0.899766 0.436373 0
    outer loop
      vertex -2.21503 -17.4282 0
      vertex -1.98602 -17.9004 1
      vertex -1.98602 -17.9004 0
    endloop
  endfacet
  facet normal 0.938333 0.345733 0
    outer loop
      vertex -2.21503 -17.4282 1
      vertex -2.4088 -16.9023 0
      vertex -2.4088 -16.9023 1
    endloop
  endfacet
  facet normal 0.938333 0.345733 0
    outer loop
      vertex -2.4088 -16.9023 0
      vertex -2.21503 -17.4282 1
      vertex -2.21503 -17.4282 0
    endloop
  endfacet
  facet normal 0.964555 0.263883 0
    outer loop
      vertex -2.4088 -16.9023 1
      vertex -2.56734 -16.3228 0
      vertex -2.56734 -16.3228 1
    endloop
  endfacet
  facet normal 0.964555 0.263883 0
    outer loop
      vertex -2.56734 -16.3228 0
      vertex -2.4088 -16.9023 1
      vertex -2.4088 -16.9023 0
    endloop
  endfacet
  facet normal 0.981564 0.191135 0
    outer loop
      vertex -2.56734 -16.3228 1
      vertex -2.69064 -15.6896 0
      vertex -2.69064 -15.6896 1
    endloop
  endfacet
  facet normal 0.981564 0.191135 0
    outer loop
      vertex -2.69064 -15.6896 0
      vertex -2.56734 -16.3228 1
      vertex -2.56734 -16.3228 0
    endloop
  endfacet
  facet normal 0.991875 0.127219 0
    outer loop
      vertex -2.69064 -15.6896 1
      vertex -2.77873 -15.0028 0
      vertex -2.77873 -15.0028 1
    endloop
  endfacet
  facet normal 0.991875 0.127219 0
    outer loop
      vertex -2.77873 -15.0028 0
      vertex -2.69064 -15.6896 1
      vertex -2.69064 -15.6896 0
    endloop
  endfacet
  facet normal 0.997463 0.0711858 0
    outer loop
      vertex -2.77873 -15.0028 1
      vertex -2.83157 -14.2624 0
      vertex -2.83157 -14.2624 1
    endloop
  endfacet
  facet normal 0.997463 0.0711858 0
    outer loop
      vertex -2.83157 -14.2624 0
      vertex -2.77873 -15.0028 1
      vertex -2.77873 -15.0028 0
    endloop
  endfacet
  facet normal 0.999754 0.0221958 0
    outer loop
      vertex -2.83157 -14.2624 1
      vertex -2.8492 -13.4683 0
      vertex -2.8492 -13.4683 1
    endloop
  endfacet
  facet normal 0.999754 0.0221958 0
    outer loop
      vertex -2.8492 -13.4683 0
      vertex -2.83157 -14.2624 1
      vertex -2.83157 -14.2624 0
    endloop
  endfacet
  facet normal 0.999808 -0.0196043 0
    outer loop
      vertex -2.8492 -13.4683 1
      vertex -2.83249 -12.6161 0
      vertex -2.83249 -12.6161 1
    endloop
  endfacet
  facet normal 0.999808 -0.0196043 0
    outer loop
      vertex -2.83249 -12.6161 0
      vertex -2.8492 -13.4683 1
      vertex -2.8492 -13.4683 0
    endloop
  endfacet
  facet normal 0.997957 -0.0638856 0
    outer loop
      vertex -2.83249 -12.6161 1
      vertex -2.78241 -11.8338 0
      vertex -2.78241 -11.8338 1
    endloop
  endfacet
  facet normal 0.997957 -0.0638856 0
    outer loop
      vertex -2.78241 -11.8338 0
      vertex -2.83249 -12.6161 1
      vertex -2.83249 -12.6161 0
    endloop
  endfacet
  facet normal 0.993199 -0.116429 0
    outer loop
      vertex -2.78241 -11.8338 1
      vertex -2.69891 -11.1215 0
      vertex -2.69891 -11.1215 1
    endloop
  endfacet
  facet normal 0.993199 -0.116429 0
    outer loop
      vertex -2.69891 -11.1215 0
      vertex -2.78241 -11.8338 1
      vertex -2.78241 -11.8338 0
    endloop
  endfacet
  facet normal 0.983854 -0.178974 0
    outer loop
      vertex -2.69891 -11.1215 1
      vertex -2.58205 -10.4791 0
      vertex -2.58205 -10.4791 1
    endloop
  endfacet
  facet normal 0.983854 -0.178974 0
    outer loop
      vertex -2.58205 -10.4791 0
      vertex -2.69891 -11.1215 1
      vertex -2.69891 -11.1215 0
    endloop
  endfacet
  facet normal 0.967232 -0.253893 0
    outer loop
      vertex -2.58205 -10.4791 1
      vertex -2.43178 -9.90663 0
      vertex -2.43178 -9.90663 1
    endloop
  endfacet
  facet normal 0.967232 -0.253893 0
    outer loop
      vertex -2.43178 -9.90663 0
      vertex -2.58205 -10.4791 1
      vertex -2.58205 -10.4791 0
    endloop
  endfacet
  facet normal 0.939226 -0.343299 0
    outer loop
      vertex -2.43178 -9.90663 1
      vertex -2.24811 -9.40413 0
      vertex -2.24811 -9.40413 1
    endloop
  endfacet
  facet normal 0.939226 -0.343299 0
    outer loop
      vertex -2.24811 -9.40413 0
      vertex -2.43178 -9.90663 1
      vertex -2.43178 -9.90663 0
    endloop
  endfacet
  facet normal 0.893786 -0.448494 0
    outer loop
      vertex -2.24811 -9.40413 1
      vertex -2.03105 -8.97156 0
      vertex -2.03105 -8.97156 1
    endloop
  endfacet
  facet normal 0.893786 -0.448494 0
    outer loop
      vertex -2.03105 -8.97156 0
      vertex -2.24811 -9.40413 1
      vertex -2.24811 -9.40413 0
    endloop
  endfacet
  facet normal 0.825353 -0.564617 0
    outer loop
      vertex -2.03105 -8.97156 1
      vertex -1.77849 -8.60237 0
      vertex -1.77849 -8.60237 1
    endloop
  endfacet
  facet normal 0.825353 -0.564617 0
    outer loop
      vertex -1.77849 -8.60237 0
      vertex -2.03105 -8.97156 1
      vertex -2.03105 -8.97156 0
    endloop
  endfacet
  facet normal 0.732696 -0.680556 0
    outer loop
      vertex -1.77849 -8.60237 1
      vertex -1.48833 -8.28998 0
      vertex -1.48833 -8.28998 1
    endloop
  endfacet
  facet normal 0.732696 -0.680556 0
    outer loop
      vertex -1.48833 -8.28998 0
      vertex -1.77849 -8.60237 1
      vertex -1.77849 -8.60237 0
    endloop
  endfacet
  facet normal 0.614938 -0.788576 0
    outer loop
      vertex -1.48833 -8.28998 0
      vertex -1.16057 -8.03439 1
      vertex -1.48833 -8.28998 1
    endloop
  endfacet
  facet normal 0.614938 -0.788576 0
    outer loop
      vertex -1.16057 -8.03439 1
      vertex -1.48833 -8.28998 0
      vertex -1.16057 -8.03439 0
    endloop
  endfacet
  facet normal 0.477917 -0.878405 0
    outer loop
      vertex -1.16057 -8.03439 0
      vertex -0.795197 -7.8356 1
      vertex -1.16057 -8.03439 1
    endloop
  endfacet
  facet normal 0.477917 -0.878405 0
    outer loop
      vertex -0.795197 -7.8356 1
      vertex -1.16057 -8.03439 0
      vertex -0.795197 -7.8356 0
    endloop
  endfacet
  facet normal 0.332352 -0.943155 0
    outer loop
      vertex -0.795197 -7.8356 0
      vertex -0.392227 -7.6936 1
      vertex -0.795197 -7.8356 1
    endloop
  endfacet
  facet normal 0.332352 -0.943155 0
    outer loop
      vertex -0.392227 -7.6936 1
      vertex -0.795197 -7.8356 0
      vertex -0.392227 -7.6936 0
    endloop
  endfacet
  facet normal 0.189869 -0.981809 0
    outer loop
      vertex -0.392227 -7.6936 0
      vertex 0.0483398 -7.6084 1
      vertex -0.392227 -7.6936 1
    endloop
  endfacet
  facet normal 0.189869 -0.981809 0
    outer loop
      vertex 0.0483398 -7.6084 1
      vertex -0.392227 -7.6936 0
      vertex 0.0483398 -7.6084 0
    endloop
  endfacet
  facet normal 0.0592874 -0.998241 0
    outer loop
      vertex 0.0483398 -7.6084 0
      vertex 0.52652 -7.58 1
      vertex 0.0483398 -7.6084 1
    endloop
  endfacet
  facet normal 0.0592874 -0.998241 0
    outer loop
      vertex 0.52652 -7.58 1
      vertex 0.0483398 -7.6084 0
      vertex 0.52652 -7.58 0
    endloop
  endfacet
  facet normal -0.110699 -0.993854 0
    outer loop
      vertex 0.52652 -7.58 0
      vertex 0.991669 -7.63181 1
      vertex 0.52652 -7.58 1
    endloop
  endfacet
  facet normal -0.110699 -0.993854 -0
    outer loop
      vertex 0.991669 -7.63181 1
      vertex 0.52652 -7.58 0
      vertex 0.991669 -7.63181 0
    endloop
  endfacet
  facet normal -0.344405 -0.938821 0
    outer loop
      vertex 0.991669 -7.63181 0
      vertex 1.41525 -7.7872 1
      vertex 0.991669 -7.63181 1
    endloop
  endfacet
  facet normal -0.344405 -0.938821 -0
    outer loop
      vertex 1.41525 -7.7872 1
      vertex 0.991669 -7.63181 0
      vertex 1.41525 -7.7872 0
    endloop
  endfacet
  facet normal -0.561113 -0.827739 0
    outer loop
      vertex 1.41525 -7.7872 0
      vertex 1.79732 -8.0462 1
      vertex 1.41525 -7.7872 1
    endloop
  endfacet
  facet normal -0.561113 -0.827739 -0
    outer loop
      vertex 1.79732 -8.0462 1
      vertex 1.41525 -7.7872 0
      vertex 1.79732 -8.0462 0
    endloop
  endfacet
  facet normal -0.728973 -0.684543 0
    outer loop
      vertex 2.13782 -8.4088 0
      vertex 1.79732 -8.0462 1
      vertex 1.79732 -8.0462 0
    endloop
  endfacet
  facet normal -0.728973 -0.684543 0
    outer loop
      vertex 1.79732 -8.0462 1
      vertex 2.13782 -8.4088 0
      vertex 2.13782 -8.4088 1
    endloop
  endfacet
  facet normal -0.841786 -0.539812 0
    outer loop
      vertex 2.43678 -8.875 0
      vertex 2.13782 -8.4088 1
      vertex 2.13782 -8.4088 0
    endloop
  endfacet
  facet normal -0.841786 -0.539812 0
    outer loop
      vertex 2.13782 -8.4088 1
      vertex 2.43678 -8.875 0
      vertex 2.43678 -8.875 1
    endloop
  endfacet
  facet normal -0.911319 -0.411702 0
    outer loop
      vertex 2.6942 -9.44481 0
      vertex 2.43678 -8.875 1
      vertex 2.43678 -8.875 0
    endloop
  endfacet
  facet normal -0.911319 -0.411702 0
    outer loop
      vertex 2.43678 -8.875 1
      vertex 2.6942 -9.44481 0
      vertex 2.6942 -9.44481 1
    endloop
  endfacet
  facet normal -0.952262 -0.305283 0
    outer loop
      vertex 2.91008 -10.1182 0
      vertex 2.6942 -9.44481 1
      vertex 2.6942 -9.44481 0
    endloop
  endfacet
  facet normal -0.952262 -0.305283 0
    outer loop
      vertex 2.6942 -9.44481 1
      vertex 2.91008 -10.1182 0
      vertex 2.91008 -10.1182 1
    endloop
  endfacet
  facet normal 0.193311 -0.981138 0
    outer loop
      vertex 2.91008 -10.1182 0
      vertex 6.44046 -9.42262 1
      vertex 2.91008 -10.1182 1
    endloop
  endfacet
  facet normal 0.193311 -0.981138 0
    outer loop
      vertex 6.44046 -9.42262 1
      vertex 2.91008 -10.1182 0
      vertex 6.44046 -9.42262 0
    endloop
  endfacet
  facet normal 0.952424 0.304776 0
    outer loop
      vertex 6.44046 -9.42262 1
      vertex 6.22589 -8.75209 0
      vertex 6.22589 -8.75209 1
    endloop
  endfacet
  facet normal 0.952424 0.304776 0
    outer loop
      vertex 6.22589 -8.75209 0
      vertex 6.44046 -9.42262 1
      vertex 6.44046 -9.42262 0
    endloop
  endfacet
  facet normal 0.929454 0.368939 0
    outer loop
      vertex 6.22589 -8.75209 1
      vertex 5.97977 -8.13205 0
      vertex 5.97977 -8.13205 1
    endloop
  endfacet
  facet normal 0.929454 0.368939 0
    outer loop
      vertex 5.97977 -8.13205 0
      vertex 6.22589 -8.75209 1
      vertex 6.22589 -8.75209 0
    endloop
  endfacet
  facet normal 0.898861 0.438233 0
    outer loop
      vertex 5.97977 -8.13205 1
      vertex 5.70209 -7.5625 0
      vertex 5.70209 -7.5625 1
    endloop
  endfacet
  facet normal 0.898861 0.438233 0
    outer loop
      vertex 5.70209 -7.5625 0
      vertex 5.97977 -8.13205 1
      vertex 5.97977 -8.13205 0
    endloop
  endfacet
  facet normal 0.859076 0.511848 0
    outer loop
      vertex 5.70209 -7.5625 1
      vertex 5.39284 -7.04346 0
      vertex 5.39284 -7.04346 1
    endloop
  endfacet
  facet normal 0.859076 0.511848 0
    outer loop
      vertex 5.39284 -7.04346 0
      vertex 5.70209 -7.5625 1
      vertex 5.70209 -7.5625 0
    endloop
  endfacet
  facet normal 0.808726 0.588185 0
    outer loop
      vertex 5.39284 -7.04346 1
      vertex 5.05205 -6.57489 0
      vertex 5.05205 -6.57489 1
    endloop
  endfacet
  facet normal 0.808726 0.588185 0
    outer loop
      vertex 5.05205 -6.57489 0
      vertex 5.39284 -7.04346 1
      vertex 5.39284 -7.04346 0
    endloop
  endfacet
  facet normal 0.746752 0.665103 0
    outer loop
      vertex 5.05205 -6.57489 1
      vertex 4.6797 -6.15683 0
      vertex 4.6797 -6.15683 1
    endloop
  endfacet
  facet normal 0.746752 0.665103 0
    outer loop
      vertex 4.6797 -6.15683 0
      vertex 5.05205 -6.57489 1
      vertex 5.05205 -6.57489 0
    endloop
  endfacet
  facet normal 0.673063 0.739585 -0
    outer loop
      vertex 4.6797 -6.15683 0
      vertex 4.27579 -5.78925 1
      vertex 4.6797 -6.15683 1
    endloop
  endfacet
  facet normal 0.673063 0.739585 0
    outer loop
      vertex 4.27579 -5.78925 1
      vertex 4.6797 -6.15683 0
      vertex 4.27579 -5.78925 0
    endloop
  endfacet
  facet normal 0.588313 0.808634 -0
    outer loop
      vertex 4.27579 -5.78925 0
      vertex 3.83881 -5.47133 1
      vertex 4.27579 -5.78925 1
    endloop
  endfacet
  facet normal 0.588313 0.808634 0
    outer loop
      vertex 3.83881 -5.47133 1
      vertex 4.27579 -5.78925 0
      vertex 3.83881 -5.47133 0
    endloop
  endfacet
  facet normal 0.495391 0.86867 -0
    outer loop
      vertex 3.83881 -5.47133 0
      vertex 3.3671 -5.20232 1
      vertex 3.83881 -5.47133 1
    endloop
  endfacet
  facet normal 0.495391 0.86867 0
    outer loop
      vertex 3.3671 -5.20232 1
      vertex 3.83881 -5.47133 0
      vertex 3.3671 -5.20232 0
    endloop
  endfacet
  facet normal 0.398594 0.917128 -0
    outer loop
      vertex 3.3671 -5.20232 0
      vertex 2.86067 -4.98222 1
      vertex 3.3671 -5.20232 1
    endloop
  endfacet
  facet normal 0.398594 0.917128 0
    outer loop
      vertex 2.86067 -4.98222 1
      vertex 3.3671 -5.20232 0
      vertex 2.86067 -4.98222 0
    endloop
  endfacet
  facet normal 0.301597 0.953436 -0
    outer loop
      vertex 2.86067 -4.98222 0
      vertex 2.31952 -4.81104 1
      vertex 2.86067 -4.98222 1
    endloop
  endfacet
  facet normal 0.301597 0.953436 0
    outer loop
      vertex 2.31952 -4.81104 1
      vertex 2.86067 -4.98222 0
      vertex 2.31952 -4.81104 0
    endloop
  endfacet
  facet normal 0.207692 0.978194 -0
    outer loop
      vertex 2.31952 -4.81104 0
      vertex 1.74365 -4.68877 1
      vertex 2.31952 -4.81104 1
    endloop
  endfacet
  facet normal 0.207692 0.978194 0
    outer loop
      vertex 1.74365 -4.68877 1
      vertex 2.31952 -4.81104 0
      vertex 1.74365 -4.68877 0
    endloop
  endfacet
  facet normal 0.119322 0.992856 -0
    outer loop
      vertex 1.74365 -4.68877 0
      vertex 1.13307 -4.61539 1
      vertex 1.74365 -4.68877 1
    endloop
  endfacet
  facet normal 0.119322 0.992856 0
    outer loop
      vertex 1.13307 -4.61539 1
      vertex 1.74365 -4.68877 0
      vertex 1.13307 -4.61539 0
    endloop
  endfacet
  facet normal 0.0378617 0.999283 -0
    outer loop
      vertex 1.13307 -4.61539 0
      vertex 0.487762 -4.59094 1
      vertex 1.13307 -4.61539 1
    endloop
  endfacet
  facet normal 0.0378617 0.999283 0
    outer loop
      vertex 0.487762 -4.59094 1
      vertex 1.13307 -4.61539 0
      vertex 0.487762 -4.59094 0
    endloop
  endfacet
  facet normal -0.094558 0.995519 0
    outer loop
      vertex 0.487762 -4.59094 0
      vertex -1.41962 -4.77211 1
      vertex 0.487762 -4.59094 1
    endloop
  endfacet
  facet normal -0.094558 0.995519 0
    outer loop
      vertex -1.41962 -4.77211 1
      vertex 0.487762 -4.59094 0
      vertex -1.41962 -4.77211 0
    endloop
  endfacet
  facet normal -0.319142 0.947707 0
    outer loop
      vertex -1.41962 -4.77211 0
      vertex -3.03357 -5.31561 1
      vertex -1.41962 -4.77211 1
    endloop
  endfacet
  facet normal -0.319142 0.947707 0
    outer loop
      vertex -3.03357 -5.31561 1
      vertex -1.41962 -4.77211 0
      vertex -3.03357 -5.31561 0
    endloop
  endfacet
  facet normal -0.56569 0.824618 0
    outer loop
      vertex -3.03357 -5.31561 0
      vertex -4.35406 -6.22147 1
      vertex -3.03357 -5.31561 1
    endloop
  endfacet
  facet normal -0.56569 0.824618 0
    outer loop
      vertex -4.35406 -6.22147 1
      vertex -3.03357 -5.31561 0
      vertex -4.35406 -6.22147 0
    endloop
  endfacet
  facet normal -0.777114 0.62936 0
    outer loop
      vertex -5.38112 -7.48965 0
      vertex -4.35406 -6.22147 1
      vertex -4.35406 -6.22147 0
    endloop
  endfacet
  facet normal -0.777114 0.62936 0
    outer loop
      vertex -4.35406 -6.22147 1
      vertex -5.38112 -7.48965 0
      vertex -5.38112 -7.48965 1
    endloop
  endfacet
  facet normal -0.911945 0.410312 0
    outer loop
      vertex -6.11475 -9.12019 0
      vertex -5.38112 -7.48965 1
      vertex -5.38112 -7.48965 0
    endloop
  endfacet
  facet normal -0.911945 0.410312 0
    outer loop
      vertex -5.38112 -7.48965 1
      vertex -6.11475 -9.12019 0
      vertex -6.11475 -9.12019 1
    endloop
  endfacet
  facet normal -0.976468 0.215661 0
    outer loop
      vertex -6.5549 -11.1131 0
      vertex -6.11475 -9.12019 1
      vertex -6.11475 -9.12019 0
    endloop
  endfacet
  facet normal -0.976468 0.215661 0
    outer loop
      vertex -6.11475 -9.12019 1
      vertex -6.5549 -11.1131 0
      vertex -6.5549 -11.1131 1
    endloop
  endfacet
  facet normal -0.998065 0.0621799 0
    outer loop
      vertex -6.70163 -13.4683 0
      vertex -6.5549 -11.1131 1
      vertex -6.5549 -11.1131 0
    endloop
  endfacet
  facet normal -0.998065 0.0621799 0
    outer loop
      vertex -6.5549 -11.1131 1
      vertex -6.70163 -13.4683 0
      vertex -6.70163 -13.4683 1
    endloop
  endfacet
  facet normal -0.999473 -0.0324646 0
    outer loop
      vertex -6.66298 -14.6582 0
      vertex -6.70163 -13.4683 1
      vertex -6.70163 -13.4683 0
    endloop
  endfacet
  facet normal -0.999473 -0.0324646 0
    outer loop
      vertex -6.70163 -13.4683 1
      vertex -6.66298 -14.6582 0
      vertex -6.66298 -14.6582 1
    endloop
  endfacet
  facet normal -0.994596 -0.10382 0
    outer loop
      vertex -6.54703 -15.769 0
      vertex -6.66298 -14.6582 1
      vertex -6.66298 -14.6582 0
    endloop
  endfacet
  facet normal -0.994596 -0.10382 0
    outer loop
      vertex -6.66298 -14.6582 1
      vertex -6.54703 -15.769 0
      vertex -6.54703 -15.769 1
    endloop
  endfacet
  facet normal -0.982902 -0.184129 0
    outer loop
      vertex -6.35376 -16.8007 0
      vertex -6.54703 -15.769 1
      vertex -6.54703 -15.769 0
    endloop
  endfacet
  facet normal -0.982902 -0.184129 0
    outer loop
      vertex -6.54703 -15.769 1
      vertex -6.35376 -16.8007 0
      vertex -6.35376 -16.8007 1
    endloop
  endfacet
  facet normal -0.961948 -0.273234 0
    outer loop
      vertex -6.08321 -17.7532 0
      vertex -6.35376 -16.8007 1
      vertex -6.35376 -16.8007 0
    endloop
  endfacet
  facet normal -0.961948 -0.273234 0
    outer loop
      vertex -6.35376 -16.8007 1
      vertex -6.08321 -17.7532 0
      vertex -6.08321 -17.7532 1
    endloop
  endfacet
  facet normal -0.929026 -0.370015 0
    outer loop
      vertex -5.73535 -18.6266 0
      vertex -6.08321 -17.7532 1
      vertex -6.08321 -17.7532 0
    endloop
  endfacet
  facet normal -0.929026 -0.370015 0
    outer loop
      vertex -6.08321 -17.7532 1
      vertex -5.73535 -18.6266 0
      vertex -5.73535 -18.6266 1
    endloop
  endfacet
  facet normal -0.881641 -0.471921 0
    outer loop
      vertex -5.31018 -19.4209 0
      vertex -5.73535 -18.6266 1
      vertex -5.73535 -18.6266 0
    endloop
  endfacet
  facet normal -0.881641 -0.471921 0
    outer loop
      vertex -5.73535 -18.6266 1
      vertex -5.31018 -19.4209 0
      vertex -5.31018 -19.4209 1
    endloop
  endfacet
  facet normal -0.818209 -0.57492 0
    outer loop
      vertex -4.80771 -20.136 0
      vertex -5.31018 -19.4209 1
      vertex -5.31018 -19.4209 0
    endloop
  endfacet
  facet normal -0.818209 -0.57492 0
    outer loop
      vertex -5.31018 -19.4209 1
      vertex -4.80771 -20.136 0
      vertex -4.80771 -20.136 1
    endloop
  endfacet
  facet normal -0.739372 -0.673297 0
    outer loop
      vertex -4.23656 -20.7632 0
      vertex -4.80771 -20.136 1
      vertex -4.80771 -20.136 0
    endloop
  endfacet
  facet normal -0.739372 -0.673297 0
    outer loop
      vertex -4.80771 -20.136 1
      vertex -4.23656 -20.7632 0
      vertex -4.23656 -20.7632 1
    endloop
  endfacet
  facet normal -0.643608 -0.765356 0
    outer loop
      vertex -4.23656 -20.7632 0
      vertex -3.60547 -21.2939 1
      vertex -4.23656 -20.7632 1
    endloop
  endfacet
  facet normal -0.643608 -0.765356 -0
    outer loop
      vertex -3.60547 -21.2939 1
      vertex -4.23656 -20.7632 0
      vertex -3.60547 -21.2939 0
    endloop
  endfacet
  facet normal -0.532112 -0.846674 0
    outer loop
      vertex -3.60547 -21.2939 0
      vertex -2.91443 -21.7282 1
      vertex -3.60547 -21.2939 1
    endloop
  endfacet
  facet normal -0.532112 -0.846674 -0
    outer loop
      vertex -2.91443 -21.7282 1
      vertex -3.60547 -21.2939 0
      vertex -2.91443 -21.7282 0
    endloop
  endfacet
  facet normal -0.410117 -0.912033 0
    outer loop
      vertex -2.91443 -21.7282 0
      vertex -2.16344 -22.0659 1
      vertex -2.91443 -21.7282 1
    endloop
  endfacet
  facet normal -0.410117 -0.912033 -0
    outer loop
      vertex -2.16344 -22.0659 1
      vertex -2.91443 -21.7282 0
      vertex -2.16344 -22.0659 0
    endloop
  endfacet
  facet normal -0.285093 -0.9585 0
    outer loop
      vertex -2.16344 -22.0659 0
      vertex -1.35251 -22.3071 1
      vertex -2.16344 -22.0659 1
    endloop
  endfacet
  facet normal -0.285093 -0.9585 -0
    outer loop
      vertex -1.35251 -22.3071 1
      vertex -2.16344 -22.0659 0
      vertex -1.35251 -22.3071 0
    endloop
  endfacet
  facet normal -0.164014 -0.986458 0
    outer loop
      vertex -1.35251 -22.3071 0
      vertex -0.481613 -22.4519 1
      vertex -1.35251 -22.3071 1
    endloop
  endfacet
  facet normal -0.164014 -0.986458 -0
    outer loop
      vertex -0.481613 -22.4519 1
      vertex -1.35251 -22.3071 0
      vertex -0.481613 -22.4519 0
    endloop
  endfacet
  facet normal -0.0517141 -0.998662 0
    outer loop
      vertex -0.481613 -22.4519 0
      vertex 0.449188 -22.5001 1
      vertex -0.481613 -22.4519 1
    endloop
  endfacet
  facet normal -0.0517141 -0.998662 -0
    outer loop
      vertex 0.449188 -22.5001 1
      vertex -0.481613 -22.4519 0
      vertex 0.449188 -22.5001 0
    endloop
  endfacet
  facet normal 0.0585836 -0.998283 0
    outer loop
      vertex 0.449188 -22.5001 0
      vertex 1.36766 -22.4462 1
      vertex 0.449188 -22.5001 1
    endloop
  endfacet
  facet normal 0.0585836 -0.998283 0
    outer loop
      vertex 1.36766 -22.4462 1
      vertex 0.449188 -22.5001 0
      vertex 1.36766 -22.4462 0
    endloop
  endfacet
endsolid OpenSCAD_Model
