solid OpenSCAD_Model
  facet normal 0 0 -1
    outer loop
      vertex 15.1945 -39.2312 0
      vertex 13.1745 -25.1346 0
      vertex 13.3914 -22.4171 0
    endloop
  endfacet
  facet normal 0 0 -1
    outer loop
      vertex 11.7 -47.7031 0
      vertex 15.1945 -39.2312 0
      vertex 12.991 -48.2651 0
    endloop
  endfacet
  facet normal 0 0 -1
    outer loop
      vertex 15.1945 -39.2312 0
      vertex 12.5236 -27.4341 0
      vertex 13.1745 -25.1346 0
    endloop
  endfacet
  facet normal 0 0 -1
    outer loop
      vertex 10.2827 -47.2659 0
      vertex 15.1945 -39.2312 0
      vertex 11.7 -47.7031 0
    endloop
  endfacet
  facet normal 0 0 -1
    outer loop
      vertex 15.1945 -39.2312 0
      vertex 11.4389 -29.3154 0
      vertex 12.5236 -27.4341 0
    endloop
  endfacet
  facet normal 0 0 -1
    outer loop
      vertex 8.73926 -46.9537 0
      vertex 15.1945 -39.2312 0
      vertex 10.2827 -47.2659 0
    endloop
  endfacet
  facet normal 0 0 -1
    outer loop
      vertex 15.1945 -39.2312 0
      vertex 9.92023 -30.7787 0
      vertex 11.4389 -29.3154 0
    endloop
  endfacet
  facet normal 0 0 -1
    outer loop
      vertex 7.06956 -46.7663 0
      vertex 15.1945 -39.2312 0
      vertex 8.73926 -46.9537 0
    endloop
  endfacet
  facet normal 0 0 -1
    outer loop
      vertex 15.1945 -39.2312 0
      vertex 7.96768 -31.8239 0
      vertex 9.92023 -30.7787 0
    endloop
  endfacet
  facet normal 0 0 -1
    outer loop
      vertex 5.58124 -32.451 0
      vertex 15.1945 -39.2312 0
      vertex 7.06956 -46.7663 0
    endloop
  endfacet
  facet normal 0 0 -1
    outer loop
      vertex 15.1945 -39.2312 0
      vertex 5.58124 -32.451 0
      vertex 7.96768 -31.8239 0
    endloop
  endfacet
  facet normal 0 0 -1
    outer loop
      vertex 5.27365 -46.7039 0
      vertex 5.58124 -32.451 0
      vertex 7.06956 -46.7663 0
    endloop
  endfacet
  facet normal 0 0 -1
    outer loop
      vertex 5.27365 -46.7039 0
      vertex 2.76091 -32.66 0
      vertex 5.58124 -32.451 0
    endloop
  endfacet
  facet normal 0 0 -1
    outer loop
      vertex -10.8317 -46.7039 0
      vertex 2.76091 -32.66 0
      vertex 5.27365 -46.7039 0
    endloop
  endfacet
  facet normal -0 0 -1
    outer loop
      vertex 2.76091 -32.66 0
      vertex -10.8317 -46.7039 0
      vertex -10.8317 -32.66 0
    endloop
  endfacet
  facet normal -0 0 -1
    outer loop
      vertex 37.7428 -60.1036 0
      vertex 18.3459 -61.7578 0
      vertex 18.6088 -58.4934 0
    endloop
  endfacet
  facet normal 0 0 -1
    outer loop
      vertex 21.7828 -82.7606 0
      vertex 17.5571 -64.52 0
      vertex 18.3459 -61.7578 0
    endloop
  endfacet
  facet normal 0 0 -1
    outer loop
      vertex 21.7828 -82.7606 0
      vertex 16.2424 -66.78 0
      vertex 17.5571 -64.52 0
    endloop
  endfacet
  facet normal 0 0 -1
    outer loop
      vertex 12.0354 -69.7934 0
      vertex 18.6261 -83.6993 0
      vertex 15.2196 -84.3698 0
    endloop
  endfacet
  facet normal 0 0 -1
    outer loop
      vertex 21.7828 -82.7606 0
      vertex 14.4018 -68.5378 0
      vertex 16.2424 -66.78 0
    endloop
  endfacet
  facet normal 0 0 -1
    outer loop
      vertex 18.6261 -83.6993 0
      vertex 12.0354 -69.7934 0
      vertex 14.4018 -68.5378 0
    endloop
  endfacet
  facet normal 0 0 -1
    outer loop
      vertex 11.5633 -84.7721 0
      vertex 12.0354 -69.7934 0
      vertex 15.2196 -84.3698 0
    endloop
  endfacet
  facet normal 0 0 -1
    outer loop
      vertex 11.5633 -84.7721 0
      vertex 9.14308 -70.5467 0
      vertex 12.0354 -69.7934 0
    endloop
  endfacet
  facet normal 0 0 -1
    outer loop
      vertex 7.65721 -84.9062 0
      vertex 9.14308 -70.5467 0
      vertex 11.5633 -84.7721 0
    endloop
  endfacet
  facet normal 0 0 -1
    outer loop
      vertex 7.65721 -84.9062 0
      vertex 5.7249 -70.7978 0
      vertex 9.14308 -70.5467 0
    endloop
  endfacet
  facet normal 0 0 -1
    outer loop
      vertex 7.65721 -84.9062 0
      vertex -10.8317 -70.7978 0
      vertex 5.7249 -70.7978 0
    endloop
  endfacet
  facet normal 0 0 -1
    outer loop
      vertex -29.8364 -84.9062 0
      vertex -10.8317 -46.7039 0
      vertex -10.8317 -70.7978 0
    endloop
  endfacet
  facet normal 0 0 -1
    outer loop
      vertex -29.8364 1.99879 0
      vertex -10.8317 -46.7039 0
      vertex -29.8364 -84.9062 0
    endloop
  endfacet
  facet normal 0 0 -1
    outer loop
      vertex -10.8317 -46.7039 0
      vertex -29.8364 1.99879 0
      vertex -10.8317 -32.66 0
    endloop
  endfacet
  facet normal 0 0 -1
    outer loop
      vertex -29.8364 -84.9062 0
      vertex -10.8317 -70.7978 0
      vertex 7.65721 -84.9062 0
    endloop
  endfacet
  facet normal 0 0 -1
    outer loop
      vertex 18.3459 -61.7578 0
      vertex 37.7428 -60.1036 0
      vertex 37.5797 -63.3313 0
    endloop
  endfacet
  facet normal 0 0 -1
    outer loop
      vertex 37.7428 -60.1036 0
      vertex 18.6088 -58.4934 0
      vertex 37.6251 -57.6346 0
    endloop
  endfacet
  facet normal 0 0 -1
    outer loop
      vertex 18.3459 -61.7578 0
      vertex 37.5797 -63.3313 0
      vertex 37.0906 -66.3512 0
    endloop
  endfacet
  facet normal -0 0 -1
    outer loop
      vertex 37.6251 -57.6346 0
      vertex 18.6088 -58.4934 0
      vertex 37.272 -55.3076 0
    endloop
  endfacet
  facet normal 0 0 -1
    outer loop
      vertex 18.3459 -61.7578 0
      vertex 37.0906 -66.3512 0
      vertex 36.2755 -69.1634 0
    endloop
  endfacet
  facet normal 0 0 -1
    outer loop
      vertex 18.5391 -56.9268 0
      vertex 37.272 -55.3076 0
      vertex 18.6088 -58.4934 0
    endloop
  endfacet
  facet normal 0 0 -1
    outer loop
      vertex 18.3459 -61.7578 0
      vertex 36.2755 -69.1634 0
      vertex 35.1342 -71.7679 0
    endloop
  endfacet
  facet normal -0 0 -1
    outer loop
      vertex 37.272 -55.3076 0
      vertex 18.5391 -56.9268 0
      vertex 36.6836 -53.1225 0
    endloop
  endfacet
  facet normal 0 0 -1
    outer loop
      vertex 18.3459 -61.7578 0
      vertex 35.1342 -71.7679 0
      vertex 33.667 -74.1647 0
    endloop
  endfacet
  facet normal -0 0 -1
    outer loop
      vertex 36.6836 -53.1225 0
      vertex 18.5391 -56.9268 0
      vertex 35.8598 -51.0795 0
    endloop
  endfacet
  facet normal 0 0 -1
    outer loop
      vertex 18.3301 -55.4667 0
      vertex 35.8598 -51.0795 0
      vertex 18.5391 -56.9268 0
    endloop
  endfacet
  facet normal 0 0 -1
    outer loop
      vertex 18.3459 -61.7578 0
      vertex 33.667 -74.1647 0
      vertex 31.8736 -76.3538 0
    endloop
  endfacet
  facet normal -0 0 -1
    outer loop
      vertex 35.8598 -51.0795 0
      vertex 18.3301 -55.4667 0
      vertex 34.8007 -49.1785 0
    endloop
  endfacet
  facet normal 0 0 -1
    outer loop
      vertex 18.3459 -61.7578 0
      vertex 31.8736 -76.3538 0
      vertex 29.7542 -78.3351 0
    endloop
  endfacet
  facet normal -0 0 -1
    outer loop
      vertex 34.8007 -49.1785 0
      vertex 18.3301 -55.4667 0
      vertex 33.5061 -47.4194 0
    endloop
  endfacet
  facet normal 0 0 -1
    outer loop
      vertex 18.3459 -61.7578 0
      vertex 29.7542 -78.3351 0
      vertex 27.3469 -80.0785 0
    endloop
  endfacet
  facet normal 0 0 -1
    outer loop
      vertex 17.9817 -54.1131 0
      vertex 33.5061 -47.4194 0
      vertex 18.3301 -55.4667 0
    endloop
  endfacet
  facet normal 0 0 -1
    outer loop
      vertex 18.3459 -61.7578 0
      vertex 27.3469 -80.0785 0
      vertex 24.6897 -81.5536 0
    endloop
  endfacet
  facet normal -0 0 -1
    outer loop
      vertex 33.5061 -47.4194 0
      vertex 17.9817 -54.1131 0
      vertex 31.9763 -45.8023 0
    endloop
  endfacet
  facet normal 0 0 -1
    outer loop
      vertex 18.3459 -61.7578 0
      vertex 24.6897 -81.5536 0
      vertex 21.7828 -82.7606 0
    endloop
  endfacet
  facet normal -0 0 -1
    outer loop
      vertex 31.9763 -45.8023 0
      vertex 17.9817 -54.1131 0
      vertex 30.2218 -44.343 0
    endloop
  endfacet
  facet normal 0 0 -1
    outer loop
      vertex 14.4018 -68.5378 0
      vertex 21.7828 -82.7606 0
      vertex 18.6261 -83.6993 0
    endloop
  endfacet
  facet normal 0 0 -1
    outer loop
      vertex 17.4939 -52.866 0
      vertex 30.2218 -44.343 0
      vertex 17.9817 -54.1131 0
    endloop
  endfacet
  facet normal -0 0 -1
    outer loop
      vertex 30.2218 -44.343 0
      vertex 17.4939 -52.866 0
      vertex 28.253 -43.0573 0
    endloop
  endfacet
  facet normal -0 0 -1
    outer loop
      vertex 28.253 -43.0573 0
      vertex 17.4939 -52.866 0
      vertex 26.0699 -41.945 0
    endloop
  endfacet
  facet normal 0 0 -1
    outer loop
      vertex 16.8668 -51.7254 0
      vertex 26.0699 -41.945 0
      vertex 17.4939 -52.866 0
    endloop
  endfacet
  facet normal -0 0 -1
    outer loop
      vertex 26.0699 -41.945 0
      vertex 16.8668 -51.7254 0
      vertex 23.6726 -41.0063 0
    endloop
  endfacet
  facet normal 0 0 -1
    outer loop
      vertex 16.1003 -50.6914 0
      vertex 23.6726 -41.0063 0
      vertex 16.8668 -51.7254 0
    endloop
  endfacet
  facet normal -0 0 -1
    outer loop
      vertex 23.6726 -41.0063 0
      vertex 16.1003 -50.6914 0
      vertex 21.0609 -40.2411 0
    endloop
  endfacet
  facet normal 0 0 -1
    outer loop
      vertex 15.1945 -49.7638 0
      vertex 21.0609 -40.2411 0
      vertex 16.1003 -50.6914 0
    endloop
  endfacet
  facet normal -0 0 -1
    outer loop
      vertex 21.0609 -40.2411 0
      vertex 15.1945 -49.7638 0
      vertex 18.2348 -39.6494 0
    endloop
  endfacet
  facet normal 0 0 -1
    outer loop
      vertex 14.1559 -48.952 0
      vertex 18.2348 -39.6494 0
      vertex 15.1945 -49.7638 0
    endloop
  endfacet
  facet normal 0 0 -1
    outer loop
      vertex 12.991 -48.2651 0
      vertex 18.2348 -39.6494 0
      vertex 14.1559 -48.952 0
    endloop
  endfacet
  facet normal -0 0 -1
    outer loop
      vertex 18.2348 -39.6494 0
      vertex 12.991 -48.2651 0
      vertex 15.1945 -39.2312 0
    endloop
  endfacet
  facet normal 0 0 -1
    outer loop
      vertex 15.1945 -39.2312 0
      vertex 13.3914 -22.4171 0
      vertex 14.7747 0.963364 0
    endloop
  endfacet
  facet normal 0 0 -1
    outer loop
      vertex 13.1718 -19.6825 0
      vertex 14.7747 0.963364 0
      vertex 13.3914 -22.4171 0
    endloop
  endfacet
  facet normal 0 0 -1
    outer loop
      vertex 12.5131 -17.3686 0
      vertex 14.7747 0.963364 0
      vertex 13.1718 -19.6825 0
    endloop
  endfacet
  facet normal 0 0 -1
    outer loop
      vertex 11.4153 -15.4754 0
      vertex 14.7747 0.963364 0
      vertex 12.5131 -17.3686 0
    endloop
  endfacet
  facet normal 0 0 -1
    outer loop
      vertex 9.87834 -14.0029 0
      vertex 14.7747 0.963364 0
      vertex 11.4153 -15.4754 0
    endloop
  endfacet
  facet normal 0 0 -1
    outer loop
      vertex 7.90225 -12.9511 0
      vertex 14.7747 0.963364 0
      vertex 9.87834 -14.0029 0
    endloop
  endfacet
  facet normal -0 0 -1
    outer loop
      vertex 14.7747 0.963364 0
      vertex 7.90225 -12.9511 0
      vertex 11.4557 1.5386 0
    endloop
  endfacet
  facet normal 0 0 -1
    outer loop
      vertex 7.90225 -12.9511 0
      vertex 7.85928 1.88374 0
      vertex 11.4557 1.5386 0
    endloop
  endfacet
  facet normal 0 0 -1
    outer loop
      vertex 5.48701 -12.32 0
      vertex 7.85928 1.88374 0
      vertex 7.90225 -12.9511 0
    endloop
  endfacet
  facet normal 0 0 -1
    outer loop
      vertex 5.48701 -12.32 0
      vertex 3.98546 1.99879 0
      vertex 7.85928 1.88374 0
    endloop
  endfacet
  facet normal 0 0 -1
    outer loop
      vertex 2.63266 -12.1096 0
      vertex 3.98546 1.99879 0
      vertex 5.48701 -12.32 0
    endloop
  endfacet
  facet normal 0 0 -1
    outer loop
      vertex -10.8317 -12.1096 0
      vertex 3.98546 1.99879 0
      vertex 2.63266 -12.1096 0
    endloop
  endfacet
  facet normal 0 0 -1
    outer loop
      vertex -10.8317 -12.1096 0
      vertex -29.8364 1.99879 0
      vertex 3.98546 1.99879 0
    endloop
  endfacet
  facet normal 0 0 -1
    outer loop
      vertex -10.8317 -32.66 0
      vertex -29.8364 1.99879 0
      vertex -10.8317 -12.1096 0
    endloop
  endfacet
  facet normal 0 0 -1
    outer loop
      vertex 19.8647 -37.9031 0
      vertex 32.5244 -19.8398 0
      vertex 32.4376 -21.9087 0
    endloop
  endfacet
  facet normal 0 0 -1
    outer loop
      vertex 21.9197 -37.0439 0
      vertex 32.4376 -21.9087 0
      vertex 32.1773 -23.8815 0
    endloop
  endfacet
  facet normal -0 0 -1
    outer loop
      vertex 32.5244 -19.8398 0
      vertex 19.8647 -37.9031 0
      vertex 32.3765 -16.9218 0
    endloop
  endfacet
  facet normal 0 0 -1
    outer loop
      vertex 21.9197 -37.0439 0
      vertex 32.1773 -23.8815 0
      vertex 31.7434 -25.7584 0
    endloop
  endfacet
  facet normal 0 -0 -1
    outer loop
      vertex 20.5806 -0.877365 0
      vertex 32.3765 -16.9218 0
      vertex 19.8647 -37.9031 0
    endloop
  endfacet
  facet normal 0 0 -1
    outer loop
      vertex 23.7879 -36.0546 0
      vertex 31.7434 -25.7584 0
      vertex 31.1359 -27.5392 0
    endloop
  endfacet
  facet normal 0 0 -1
    outer loop
      vertex 23.7879 -36.0546 0
      vertex 31.1359 -27.5392 0
      vertex 30.3549 -29.224 0
    endloop
  endfacet
  facet normal 0 0 -1
    outer loop
      vertex 32.4376 -21.9087 0
      vertex 21.9197 -37.0439 0
      vertex 19.8647 -37.9031 0
    endloop
  endfacet
  facet normal 0 0 -1
    outer loop
      vertex 23.7879 -36.0546 0
      vertex 30.3549 -29.224 0
      vertex 29.4003 -30.8129 0
    endloop
  endfacet
  facet normal 0 0 -1
    outer loop
      vertex 32.3765 -16.9218 0
      vertex 20.5806 -0.877365 0
      vertex 31.9328 -14.205 0
    endloop
  endfacet
  facet normal 0 0 -1
    outer loop
      vertex 23.7879 -36.0546 0
      vertex 29.4003 -30.8129 0
      vertex 28.2722 -32.3057 0
    endloop
  endfacet
  facet normal 0 0 -1
    outer loop
      vertex 31.7434 -25.7584 0
      vertex 23.7879 -36.0546 0
      vertex 21.9197 -37.0439 0
    endloop
  endfacet
  facet normal 0 0 -1
    outer loop
      vertex 25.4694 -34.9351 0
      vertex 28.2722 -32.3057 0
      vertex 26.9642 -33.6854 0
    endloop
  endfacet
  facet normal 0 0 -1
    outer loop
      vertex 23.7879 -36.0546 0
      vertex 28.2722 -32.3057 0
      vertex 25.4694 -34.9351 0
    endloop
  endfacet
  facet normal 0 0 -1
    outer loop
      vertex 31.9328 -14.205 0
      vertex 23.0674 -2.14288 0
      vertex 31.1932 -11.6894 0
    endloop
  endfacet
  facet normal 0 0 -1
    outer loop
      vertex 30.1579 -9.37491 0
      vertex 25.2769 -3.63849 0
      vertex 28.8267 -7.2616 0
    endloop
  endfacet
  facet normal 0 0 -1
    outer loop
      vertex 28.8267 -7.2616 0
      vertex 25.2769 -3.63849 0
      vertex 27.1997 -5.34946 0
    endloop
  endfacet
  facet normal 0 0 -1
    outer loop
      vertex 31.1932 -11.6894 0
      vertex 25.2769 -3.63849 0
      vertex 30.1579 -9.37491 0
    endloop
  endfacet
  facet normal -0 -0 -1
    outer loop
      vertex 25.2769 -3.63849 0
      vertex 31.1932 -11.6894 0
      vertex 23.0674 -2.14288 0
    endloop
  endfacet
  facet normal 0 0 -1
    outer loop
      vertex 31.9328 -14.205 0
      vertex 20.5806 -0.877365 0
      vertex 23.0674 -2.14288 0
    endloop
  endfacet
  facet normal 0 0 -1
    outer loop
      vertex 17.623 -38.6322 0
      vertex 20.5806 -0.877365 0
      vertex 19.8647 -37.9031 0
    endloop
  endfacet
  facet normal -0 0 -1
    outer loop
      vertex 20.5806 -0.877365 0
      vertex 17.623 -38.6322 0
      vertex 17.8164 0.158035 0
    endloop
  endfacet
  facet normal 0 0 -1
    outer loop
      vertex 15.1945 -39.2312 0
      vertex 17.8164 0.158035 0
      vertex 17.623 -38.6322 0
    endloop
  endfacet
  facet normal -0 0 -1
    outer loop
      vertex 17.8164 0.158035 0
      vertex 15.1945 -39.2312 0
      vertex 14.7747 0.963364 0
    endloop
  endfacet
  facet normal -0 0 1
    outer loop
      vertex 13.1718 -19.6825 1
      vertex 32.5244 -19.8398 1
      vertex 32.3765 -16.9218 1
    endloop
  endfacet
  facet normal 0 -0 1
    outer loop
      vertex 13.3914 -22.4171 1
      vertex 32.5244 -19.8398 1
      vertex 13.1718 -19.6825 1
    endloop
  endfacet
  facet normal 0 0 1
    outer loop
      vertex 13.1718 -19.6825 1
      vertex 32.3765 -16.9218 1
      vertex 31.9328 -14.205 1
    endloop
  endfacet
  facet normal 0 0 1
    outer loop
      vertex 32.5244 -19.8398 1
      vertex 13.3914 -22.4171 1
      vertex 32.4376 -21.9087 1
    endloop
  endfacet
  facet normal 0 0 1
    outer loop
      vertex 12.5131 -17.3686 1
      vertex 31.9328 -14.205 1
      vertex 31.1932 -11.6894 1
    endloop
  endfacet
  facet normal 0 0 1
    outer loop
      vertex 32.4376 -21.9087 1
      vertex 13.3914 -22.4171 1
      vertex 32.1773 -23.8815 1
    endloop
  endfacet
  facet normal 0 0 1
    outer loop
      vertex 32.1773 -23.8815 1
      vertex 13.3914 -22.4171 1
      vertex 31.7434 -25.7584 1
    endloop
  endfacet
  facet normal 0 0 1
    outer loop
      vertex 12.5131 -17.3686 1
      vertex 31.1932 -11.6894 1
      vertex 30.1579 -9.37491 1
    endloop
  endfacet
  facet normal 0 0 1
    outer loop
      vertex 31.7434 -25.7584 1
      vertex 13.3914 -22.4171 1
      vertex 31.1359 -27.5392 1
    endloop
  endfacet
  facet normal 0 0 1
    outer loop
      vertex 12.5131 -17.3686 1
      vertex 30.1579 -9.37491 1
      vertex 28.8267 -7.2616 1
    endloop
  endfacet
  facet normal 0 0 1
    outer loop
      vertex 31.1359 -27.5392 1
      vertex 13.3914 -22.4171 1
      vertex 30.3549 -29.224 1
    endloop
  endfacet
  facet normal 0 0 1
    outer loop
      vertex 12.5131 -17.3686 1
      vertex 28.8267 -7.2616 1
      vertex 27.1997 -5.34946 1
    endloop
  endfacet
  facet normal -0 0 1
    outer loop
      vertex 13.1745 -25.1346 1
      vertex 30.3549 -29.224 1
      vertex 13.3914 -22.4171 1
    endloop
  endfacet
  facet normal 0 0 1
    outer loop
      vertex 30.3549 -29.224 1
      vertex 13.1745 -25.1346 1
      vertex 29.4003 -30.8129 1
    endloop
  endfacet
  facet normal 0 0 1
    outer loop
      vertex 11.4153 -15.4754 1
      vertex 27.1997 -5.34946 1
      vertex 25.2769 -3.63849 1
    endloop
  endfacet
  facet normal 0 0 1
    outer loop
      vertex 29.4003 -30.8129 1
      vertex 13.1745 -25.1346 1
      vertex 28.2722 -32.3057 1
    endloop
  endfacet
  facet normal 0 0 1
    outer loop
      vertex 11.4153 -15.4754 1
      vertex 25.2769 -3.63849 1
      vertex 23.0674 -2.14288 1
    endloop
  endfacet
  facet normal 0 0 1
    outer loop
      vertex 28.2722 -32.3057 1
      vertex 13.1745 -25.1346 1
      vertex 26.9642 -33.6854 1
    endloop
  endfacet
  facet normal 0 0 1
    outer loop
      vertex 11.4153 -15.4754 1
      vertex 23.0674 -2.14288 1
      vertex 20.5806 -0.877365 1
    endloop
  endfacet
  facet normal 0 0 1
    outer loop
      vertex 26.9642 -33.6854 1
      vertex 13.1745 -25.1346 1
      vertex 25.4694 -34.9351 1
    endloop
  endfacet
  facet normal 0 0 1
    outer loop
      vertex 9.87834 -14.0029 1
      vertex 20.5806 -0.877365 1
      vertex 17.8164 0.158035 1
    endloop
  endfacet
  facet normal -0 0 1
    outer loop
      vertex 12.5236 -27.4341 1
      vertex 25.4694 -34.9351 1
      vertex 13.1745 -25.1346 1
    endloop
  endfacet
  facet normal 0 0 1
    outer loop
      vertex 23.7879 -36.0546 1
      vertex 12.5236 -27.4341 1
      vertex 21.9197 -37.0439 1
    endloop
  endfacet
  facet normal 0 0 1
    outer loop
      vertex 9.87834 -14.0029 1
      vertex 17.8164 0.158035 1
      vertex 14.7747 0.963364 1
    endloop
  endfacet
  facet normal 0 0 1
    outer loop
      vertex 21.9197 -37.0439 1
      vertex 12.5236 -27.4341 1
      vertex 19.8647 -37.9031 1
    endloop
  endfacet
  facet normal -0 0 1
    outer loop
      vertex 11.4389 -29.3154 1
      vertex 19.8647 -37.9031 1
      vertex 12.5236 -27.4341 1
    endloop
  endfacet
  facet normal 0 0 1
    outer loop
      vertex 19.8647 -37.9031 1
      vertex 11.4389 -29.3154 1
      vertex 17.623 -38.6322 1
    endloop
  endfacet
  facet normal 0 0 1
    outer loop
      vertex 25.4694 -34.9351 1
      vertex 12.5236 -27.4341 1
      vertex 23.7879 -36.0546 1
    endloop
  endfacet
  facet normal 0 0 1
    outer loop
      vertex 31.9328 -14.205 1
      vertex 12.5131 -17.3686 1
      vertex 13.1718 -19.6825 1
    endloop
  endfacet
  facet normal 0 0 1
    outer loop
      vertex 7.90225 -12.9511 1
      vertex 14.7747 0.963364 1
      vertex 11.4557 1.5386 1
    endloop
  endfacet
  facet normal 0 0 1
    outer loop
      vertex 27.1997 -5.34946 1
      vertex 11.4153 -15.4754 1
      vertex 12.5131 -17.3686 1
    endloop
  endfacet
  facet normal 0 0 1
    outer loop
      vertex 20.5806 -0.877365 1
      vertex 9.87834 -14.0029 1
      vertex 11.4153 -15.4754 1
    endloop
  endfacet
  facet normal 0 0 1
    outer loop
      vertex 14.7747 0.963364 1
      vertex 7.90225 -12.9511 1
      vertex 9.87834 -14.0029 1
    endloop
  endfacet
  facet normal 0 0 1
    outer loop
      vertex 7.85928 1.88374 1
      vertex 7.90225 -12.9511 1
      vertex 11.4557 1.5386 1
    endloop
  endfacet
  facet normal 0 0 1
    outer loop
      vertex 7.85928 1.88374 1
      vertex 5.48701 -12.32 1
      vertex 7.90225 -12.9511 1
    endloop
  endfacet
  facet normal 0 0 1
    outer loop
      vertex 3.98546 1.99879 1
      vertex 5.48701 -12.32 1
      vertex 7.85928 1.88374 1
    endloop
  endfacet
  facet normal 0 0 1
    outer loop
      vertex 3.98546 1.99879 1
      vertex 2.63266 -12.1096 1
      vertex 5.48701 -12.32 1
    endloop
  endfacet
  facet normal 0 0 1
    outer loop
      vertex 3.98546 1.99879 1
      vertex -10.8317 -12.1096 1
      vertex 2.63266 -12.1096 1
    endloop
  endfacet
  facet normal 0 0 1
    outer loop
      vertex -29.8364 1.99879 1
      vertex -10.8317 -32.66 1
      vertex -10.8317 -12.1096 1
    endloop
  endfacet
  facet normal 0 0 1
    outer loop
      vertex -10.8317 -32.66 1
      vertex -29.8364 1.99879 1
      vertex -10.8317 -46.7039 1
    endloop
  endfacet
  facet normal 0 0 1
    outer loop
      vertex -29.8364 -84.9062 1
      vertex -10.8317 -46.7039 1
      vertex -29.8364 1.99879 1
    endloop
  endfacet
  facet normal -0 0 1
    outer loop
      vertex -29.8364 1.99879 1
      vertex -10.8317 -12.1096 1
      vertex 3.98546 1.99879 1
    endloop
  endfacet
  facet normal -0 0 1
    outer loop
      vertex 18.6088 -58.4934 1
      vertex 37.7428 -60.1036 1
      vertex 37.6251 -57.6346 1
    endloop
  endfacet
  facet normal 0 0 1
    outer loop
      vertex 18.6088 -58.4934 1
      vertex 37.6251 -57.6346 1
      vertex 37.272 -55.3076 1
    endloop
  endfacet
  facet normal 0 0 1
    outer loop
      vertex 18.3459 -61.7578 1
      vertex 37.7428 -60.1036 1
      vertex 18.6088 -58.4934 1
    endloop
  endfacet
  facet normal 0 0 1
    outer loop
      vertex 18.5391 -56.9268 1
      vertex 37.272 -55.3076 1
      vertex 36.6836 -53.1225 1
    endloop
  endfacet
  facet normal 0 0 1
    outer loop
      vertex 37.7428 -60.1036 1
      vertex 18.3459 -61.7578 1
      vertex 37.5797 -63.3313 1
    endloop
  endfacet
  facet normal 0 0 1
    outer loop
      vertex 18.5391 -56.9268 1
      vertex 36.6836 -53.1225 1
      vertex 35.8598 -51.0795 1
    endloop
  endfacet
  facet normal 0 0 1
    outer loop
      vertex 37.5797 -63.3313 1
      vertex 18.3459 -61.7578 1
      vertex 37.0906 -66.3512 1
    endloop
  endfacet
  facet normal 0 0 1
    outer loop
      vertex 18.3301 -55.4667 1
      vertex 35.8598 -51.0795 1
      vertex 34.8007 -49.1785 1
    endloop
  endfacet
  facet normal 0 0 1
    outer loop
      vertex 37.0906 -66.3512 1
      vertex 18.3459 -61.7578 1
      vertex 36.2755 -69.1634 1
    endloop
  endfacet
  facet normal 0 0 1
    outer loop
      vertex 18.3301 -55.4667 1
      vertex 34.8007 -49.1785 1
      vertex 33.5061 -47.4194 1
    endloop
  endfacet
  facet normal 0 0 1
    outer loop
      vertex 17.9817 -54.1131 1
      vertex 33.5061 -47.4194 1
      vertex 31.9763 -45.8023 1
    endloop
  endfacet
  facet normal -0 0 1
    outer loop
      vertex 17.5571 -64.52 1
      vertex 36.2755 -69.1634 1
      vertex 18.3459 -61.7578 1
    endloop
  endfacet
  facet normal 0 0 1
    outer loop
      vertex 17.9817 -54.1131 1
      vertex 31.9763 -45.8023 1
      vertex 30.2218 -44.343 1
    endloop
  endfacet
  facet normal 0 0 1
    outer loop
      vertex 36.2755 -69.1634 1
      vertex 17.5571 -64.52 1
      vertex 35.1342 -71.7679 1
    endloop
  endfacet
  facet normal 0 0 1
    outer loop
      vertex 17.4939 -52.866 1
      vertex 30.2218 -44.343 1
      vertex 28.253 -43.0573 1
    endloop
  endfacet
  facet normal 0 0 1
    outer loop
      vertex 35.1342 -71.7679 1
      vertex 17.5571 -64.52 1
      vertex 33.667 -74.1647 1
    endloop
  endfacet
  facet normal 0 0 1
    outer loop
      vertex 17.4939 -52.866 1
      vertex 28.253 -43.0573 1
      vertex 26.0699 -41.945 1
    endloop
  endfacet
  facet normal 0 0 1
    outer loop
      vertex 33.667 -74.1647 1
      vertex 17.5571 -64.52 1
      vertex 31.8736 -76.3538 1
    endloop
  endfacet
  facet normal 0 0 1
    outer loop
      vertex 16.8668 -51.7254 1
      vertex 26.0699 -41.945 1
      vertex 23.6726 -41.0063 1
    endloop
  endfacet
  facet normal -0 0 1
    outer loop
      vertex 16.2424 -66.78 1
      vertex 31.8736 -76.3538 1
      vertex 17.5571 -64.52 1
    endloop
  endfacet
  facet normal 0 0 1
    outer loop
      vertex 16.1003 -50.6914 1
      vertex 23.6726 -41.0063 1
      vertex 21.0609 -40.2411 1
    endloop
  endfacet
  facet normal 0 0 1
    outer loop
      vertex 31.8736 -76.3538 1
      vertex 16.2424 -66.78 1
      vertex 29.7542 -78.3351 1
    endloop
  endfacet
  facet normal 0 0 1
    outer loop
      vertex 29.7542 -78.3351 1
      vertex 16.2424 -66.78 1
      vertex 27.3469 -80.0785 1
    endloop
  endfacet
  facet normal 0 0 1
    outer loop
      vertex 37.272 -55.3076 1
      vertex 18.5391 -56.9268 1
      vertex 18.6088 -58.4934 1
    endloop
  endfacet
  facet normal 0 0 1
    outer loop
      vertex 35.8598 -51.0795 1
      vertex 18.3301 -55.4667 1
      vertex 18.5391 -56.9268 1
    endloop
  endfacet
  facet normal 0 0 1
    outer loop
      vertex 15.1945 -49.7638 1
      vertex 21.0609 -40.2411 1
      vertex 18.2348 -39.6494 1
    endloop
  endfacet
  facet normal 0 0 1
    outer loop
      vertex 33.5061 -47.4194 1
      vertex 17.9817 -54.1131 1
      vertex 18.3301 -55.4667 1
    endloop
  endfacet
  facet normal 0 0 1
    outer loop
      vertex 30.2218 -44.343 1
      vertex 17.4939 -52.866 1
      vertex 17.9817 -54.1131 1
    endloop
  endfacet
  facet normal 0 0 1
    outer loop
      vertex 26.0699 -41.945 1
      vertex 16.8668 -51.7254 1
      vertex 17.4939 -52.866 1
    endloop
  endfacet
  facet normal 0 0 1
    outer loop
      vertex 23.6726 -41.0063 1
      vertex 16.1003 -50.6914 1
      vertex 16.8668 -51.7254 1
    endloop
  endfacet
  facet normal 0 0 1
    outer loop
      vertex 15.1945 -49.7638 1
      vertex 18.2348 -39.6494 1
      vertex 15.1945 -39.2312 1
    endloop
  endfacet
  facet normal 0 0 1
    outer loop
      vertex 21.0609 -40.2411 1
      vertex 15.1945 -49.7638 1
      vertex 16.1003 -50.6914 1
    endloop
  endfacet
  facet normal 0 0 1
    outer loop
      vertex 27.3469 -80.0785 1
      vertex 16.2424 -66.78 1
      vertex 24.6897 -81.5536 1
    endloop
  endfacet
  facet normal -0 0 1
    outer loop
      vertex 14.4018 -68.5378 1
      vertex 24.6897 -81.5536 1
      vertex 16.2424 -66.78 1
    endloop
  endfacet
  facet normal 0 0 1
    outer loop
      vertex 24.6897 -81.5536 1
      vertex 14.4018 -68.5378 1
      vertex 21.7828 -82.7606 1
    endloop
  endfacet
  facet normal 0 0 1
    outer loop
      vertex 21.7828 -82.7606 1
      vertex 14.4018 -68.5378 1
      vertex 18.6261 -83.6993 1
    endloop
  endfacet
  facet normal -0 0 1
    outer loop
      vertex 12.0354 -69.7934 1
      vertex 18.6261 -83.6993 1
      vertex 14.4018 -68.5378 1
    endloop
  endfacet
  facet normal 0 0 1
    outer loop
      vertex 18.6261 -83.6993 1
      vertex 12.0354 -69.7934 1
      vertex 15.2196 -84.3698 1
    endloop
  endfacet
  facet normal 0 0 1
    outer loop
      vertex 12.0354 -69.7934 1
      vertex 11.5633 -84.7721 1
      vertex 15.2196 -84.3698 1
    endloop
  endfacet
  facet normal -0 0 1
    outer loop
      vertex 9.14308 -70.5467 1
      vertex 11.5633 -84.7721 1
      vertex 12.0354 -69.7934 1
    endloop
  endfacet
  facet normal 0 0 1
    outer loop
      vertex 9.14308 -70.5467 1
      vertex 7.65721 -84.9062 1
      vertex 11.5633 -84.7721 1
    endloop
  endfacet
  facet normal -0 0 1
    outer loop
      vertex 5.7249 -70.7978 1
      vertex 7.65721 -84.9062 1
      vertex 9.14308 -70.5467 1
    endloop
  endfacet
  facet normal -0 0 1
    outer loop
      vertex -10.8317 -70.7978 1
      vertex 7.65721 -84.9062 1
      vertex 5.7249 -70.7978 1
    endloop
  endfacet
  facet normal 0 0 1
    outer loop
      vertex -10.8317 -70.7978 1
      vertex -29.8364 -84.9062 1
      vertex 7.65721 -84.9062 1
    endloop
  endfacet
  facet normal 0 0 1
    outer loop
      vertex -10.8317 -46.7039 1
      vertex -29.8364 -84.9062 1
      vertex -10.8317 -70.7978 1
    endloop
  endfacet
  facet normal 0 0 1
    outer loop
      vertex 17.623 -38.6322 1
      vertex 11.4389 -29.3154 1
      vertex 15.1945 -39.2312 1
    endloop
  endfacet
  facet normal -0 0 1
    outer loop
      vertex 9.92023 -30.7787 1
      vertex 15.1945 -39.2312 1
      vertex 11.4389 -29.3154 1
    endloop
  endfacet
  facet normal 0 0 1
    outer loop
      vertex 15.1945 -39.2312 1
      vertex 14.1559 -48.952 1
      vertex 15.1945 -49.7638 1
    endloop
  endfacet
  facet normal 0 0 1
    outer loop
      vertex 15.1945 -39.2312 1
      vertex 12.991 -48.2651 1
      vertex 14.1559 -48.952 1
    endloop
  endfacet
  facet normal -0 0 1
    outer loop
      vertex 7.96768 -31.8239 1
      vertex 15.1945 -39.2312 1
      vertex 9.92023 -30.7787 1
    endloop
  endfacet
  facet normal 0 0 1
    outer loop
      vertex 15.1945 -39.2312 1
      vertex 11.7 -47.7031 1
      vertex 12.991 -48.2651 1
    endloop
  endfacet
  facet normal 0 0 1
    outer loop
      vertex 15.1945 -39.2312 1
      vertex 10.2827 -47.2659 1
      vertex 11.7 -47.7031 1
    endloop
  endfacet
  facet normal -0 0 1
    outer loop
      vertex 5.58124 -32.451 1
      vertex 15.1945 -39.2312 1
      vertex 7.96768 -31.8239 1
    endloop
  endfacet
  facet normal 0 0 1
    outer loop
      vertex 15.1945 -39.2312 1
      vertex 8.73926 -46.9537 1
      vertex 10.2827 -47.2659 1
    endloop
  endfacet
  facet normal 0 0 1
    outer loop
      vertex 15.1945 -39.2312 1
      vertex 7.06956 -46.7663 1
      vertex 8.73926 -46.9537 1
    endloop
  endfacet
  facet normal 0 0 1
    outer loop
      vertex 15.1945 -39.2312 1
      vertex 5.58124 -32.451 1
      vertex 7.06956 -46.7663 1
    endloop
  endfacet
  facet normal 0 0 1
    outer loop
      vertex 5.58124 -32.451 1
      vertex 5.27365 -46.7039 1
      vertex 7.06956 -46.7663 1
    endloop
  endfacet
  facet normal -0 0 1
    outer loop
      vertex 2.76091 -32.66 1
      vertex 5.27365 -46.7039 1
      vertex 5.58124 -32.451 1
    endloop
  endfacet
  facet normal 0 0 1
    outer loop
      vertex -10.8317 -46.7039 1
      vertex 2.76091 -32.66 1
      vertex -10.8317 -32.66 1
    endloop
  endfacet
  facet normal 0 0 1
    outer loop
      vertex 2.76091 -32.66 1
      vertex -10.8317 -46.7039 1
      vertex 5.27365 -46.7039 1
    endloop
  endfacet
  facet normal 0.109369 -0.994001 0
    outer loop
      vertex 11.5633 -84.7721 0
      vertex 15.2196 -84.3698 1
      vertex 11.5633 -84.7721 1
    endloop
  endfacet
  facet normal 0.109369 -0.994001 0
    outer loop
      vertex 15.2196 -84.3698 1
      vertex 11.5633 -84.7721 0
      vertex 15.2196 -84.3698 0
    endloop
  endfacet
  facet normal 0.193124 -0.981174 0
    outer loop
      vertex 15.2196 -84.3698 0
      vertex 18.6261 -83.6993 1
      vertex 15.2196 -84.3698 1
    endloop
  endfacet
  facet normal 0.193124 -0.981174 0
    outer loop
      vertex 18.6261 -83.6993 1
      vertex 15.2196 -84.3698 0
      vertex 18.6261 -83.6993 0
    endloop
  endfacet
  facet normal 0.285032 -0.958518 0
    outer loop
      vertex 18.6261 -83.6993 0
      vertex 21.7828 -82.7606 1
      vertex 18.6261 -83.6993 1
    endloop
  endfacet
  facet normal 0.285032 -0.958518 0
    outer loop
      vertex 21.7828 -82.7606 1
      vertex 18.6261 -83.6993 0
      vertex 21.7828 -82.7606 0
    endloop
  endfacet
  facet normal 0.383476 -0.923551 0
    outer loop
      vertex 21.7828 -82.7606 0
      vertex 24.6897 -81.5536 1
      vertex 21.7828 -82.7606 1
    endloop
  endfacet
  facet normal 0.383476 -0.923551 0
    outer loop
      vertex 24.6897 -81.5536 1
      vertex 21.7828 -82.7606 0
      vertex 24.6897 -81.5536 0
    endloop
  endfacet
  facet normal 0.485361 -0.874314 0
    outer loop
      vertex 24.6897 -81.5536 0
      vertex 27.3469 -80.0785 1
      vertex 24.6897 -81.5536 1
    endloop
  endfacet
  facet normal 0.485361 -0.874314 0
    outer loop
      vertex 27.3469 -80.0785 1
      vertex 24.6897 -81.5536 0
      vertex 27.3469 -80.0785 0
    endloop
  endfacet
  facet normal 0.58655 -0.809913 0
    outer loop
      vertex 27.3469 -80.0785 0
      vertex 29.7542 -78.3351 1
      vertex 27.3469 -80.0785 1
    endloop
  endfacet
  facet normal 0.58655 -0.809913 0
    outer loop
      vertex 29.7542 -78.3351 1
      vertex 27.3469 -80.0785 0
      vertex 29.7542 -78.3351 0
    endloop
  endfacet
  facet normal 0.682906 -0.730506 0
    outer loop
      vertex 29.7542 -78.3351 0
      vertex 31.8736 -76.3538 1
      vertex 29.7542 -78.3351 1
    endloop
  endfacet
  facet normal 0.682906 -0.730506 0
    outer loop
      vertex 31.8736 -76.3538 1
      vertex 29.7542 -78.3351 0
      vertex 31.8736 -76.3538 0
    endloop
  endfacet
  facet normal 0.773556 -0.633728 0
    outer loop
      vertex 31.8736 -76.3538 1
      vertex 33.667 -74.1647 0
      vertex 33.667 -74.1647 1
    endloop
  endfacet
  facet normal 0.773556 -0.633728 0
    outer loop
      vertex 33.667 -74.1647 0
      vertex 31.8736 -76.3538 1
      vertex 31.8736 -76.3538 0
    endloop
  endfacet
  facet normal 0.852888 -0.522095 0
    outer loop
      vertex 33.667 -74.1647 1
      vertex 35.1342 -71.7679 0
      vertex 35.1342 -71.7679 1
    endloop
  endfacet
  facet normal 0.852888 -0.522095 0
    outer loop
      vertex 35.1342 -71.7679 0
      vertex 33.667 -74.1647 1
      vertex 33.667 -74.1647 0
    endloop
  endfacet
  facet normal 0.915921 -0.401359 0
    outer loop
      vertex 35.1342 -71.7679 1
      vertex 36.2755 -69.1634 0
      vertex 36.2755 -69.1634 1
    endloop
  endfacet
  facet normal 0.915921 -0.401359 0
    outer loop
      vertex 36.2755 -69.1634 0
      vertex 35.1342 -71.7679 1
      vertex 35.1342 -71.7679 0
    endloop
  endfacet
  facet normal 0.960469 -0.278386 0
    outer loop
      vertex 36.2755 -69.1634 1
      vertex 37.0906 -66.3512 0
      vertex 37.0906 -66.3512 1
    endloop
  endfacet
  facet normal 0.960469 -0.278386 0
    outer loop
      vertex 37.0906 -66.3512 0
      vertex 36.2755 -69.1634 1
      vertex 36.2755 -69.1634 0
    endloop
  endfacet
  facet normal 0.987137 -0.159876 0
    outer loop
      vertex 37.0906 -66.3512 1
      vertex 37.5797 -63.3313 0
      vertex 37.5797 -63.3313 1
    endloop
  endfacet
  facet normal 0.987137 -0.159876 0
    outer loop
      vertex 37.5797 -63.3313 0
      vertex 37.0906 -66.3512 1
      vertex 37.0906 -66.3512 0
    endloop
  endfacet
  facet normal 0.998726 -0.0504669 0
    outer loop
      vertex 37.5797 -63.3313 1
      vertex 37.7428 -60.1036 0
      vertex 37.7428 -60.1036 1
    endloop
  endfacet
  facet normal 0.998726 -0.0504669 0
    outer loop
      vertex 37.7428 -60.1036 0
      vertex 37.5797 -63.3313 1
      vertex 37.5797 -63.3313 0
    endloop
  endfacet
  facet normal 0.998866 0.047617 0
    outer loop
      vertex 37.7428 -60.1036 1
      vertex 37.6251 -57.6346 0
      vertex 37.6251 -57.6346 1
    endloop
  endfacet
  facet normal 0.998866 0.047617 0
    outer loop
      vertex 37.6251 -57.6346 0
      vertex 37.7428 -60.1036 1
      vertex 37.7428 -60.1036 0
    endloop
  endfacet
  facet normal 0.988682 0.150023 0
    outer loop
      vertex 37.6251 -57.6346 1
      vertex 37.272 -55.3076 0
      vertex 37.272 -55.3076 1
    endloop
  endfacet
  facet normal 0.988682 0.150023 0
    outer loop
      vertex 37.272 -55.3076 0
      vertex 37.6251 -57.6346 1
      vertex 37.6251 -57.6346 0
    endloop
  endfacet
  facet normal 0.965604 0.260016 0
    outer loop
      vertex 37.272 -55.3076 1
      vertex 36.6836 -53.1225 0
      vertex 36.6836 -53.1225 1
    endloop
  endfacet
  facet normal 0.965604 0.260016 0
    outer loop
      vertex 36.6836 -53.1225 0
      vertex 37.272 -55.3076 1
      vertex 37.272 -55.3076 0
    endloop
  endfacet
  facet normal 0.92744 0.373972 0
    outer loop
      vertex 36.6836 -53.1225 1
      vertex 35.8598 -51.0795 0
      vertex 35.8598 -51.0795 1
    endloop
  endfacet
  facet normal 0.92744 0.373972 0
    outer loop
      vertex 35.8598 -51.0795 0
      vertex 36.6836 -53.1225 1
      vertex 36.6836 -53.1225 0
    endloop
  endfacet
  facet normal 0.873574 0.486692 0
    outer loop
      vertex 35.8598 -51.0795 1
      vertex 34.8007 -49.1785 0
      vertex 34.8007 -49.1785 1
    endloop
  endfacet
  facet normal 0.873574 0.486692 0
    outer loop
      vertex 34.8007 -49.1785 0
      vertex 35.8598 -51.0795 1
      vertex 35.8598 -51.0795 0
    endloop
  endfacet
  facet normal 0.805401 0.59273 0
    outer loop
      vertex 34.8007 -49.1785 1
      vertex 33.5061 -47.4194 0
      vertex 33.5061 -47.4194 1
    endloop
  endfacet
  facet normal 0.805401 0.59273 0
    outer loop
      vertex 33.5061 -47.4194 0
      vertex 34.8007 -49.1785 1
      vertex 34.8007 -49.1785 0
    endloop
  endfacet
  facet normal 0.726444 0.687226 0
    outer loop
      vertex 33.5061 -47.4194 1
      vertex 31.9763 -45.8023 0
      vertex 31.9763 -45.8023 1
    endloop
  endfacet
  facet normal 0.726444 0.687226 0
    outer loop
      vertex 31.9763 -45.8023 0
      vertex 33.5061 -47.4194 1
      vertex 33.5061 -47.4194 0
    endloop
  endfacet
  facet normal 0.639464 0.768821 -0
    outer loop
      vertex 31.9763 -45.8023 0
      vertex 30.2218 -44.343 1
      vertex 31.9763 -45.8023 1
    endloop
  endfacet
  facet normal 0.639464 0.768821 0
    outer loop
      vertex 30.2218 -44.343 1
      vertex 31.9763 -45.8023 0
      vertex 30.2218 -44.343 0
    endloop
  endfacet
  facet normal 0.546775 0.83728 -0
    outer loop
      vertex 30.2218 -44.343 0
      vertex 28.253 -43.0573 1
      vertex 30.2218 -44.343 1
    endloop
  endfacet
  facet normal 0.546775 0.83728 0
    outer loop
      vertex 28.253 -43.0573 1
      vertex 30.2218 -44.343 0
      vertex 28.253 -43.0573 0
    endloop
  endfacet
  facet normal 0.453976 0.891014 -0
    outer loop
      vertex 28.253 -43.0573 0
      vertex 26.0699 -41.945 1
      vertex 28.253 -43.0573 1
    endloop
  endfacet
  facet normal 0.453976 0.891014 0
    outer loop
      vertex 26.0699 -41.945 1
      vertex 28.253 -43.0573 0
      vertex 26.0699 -41.945 0
    endloop
  endfacet
  facet normal 0.36461 0.93116 -0
    outer loop
      vertex 26.0699 -41.945 0
      vertex 23.6726 -41.0063 1
      vertex 26.0699 -41.945 1
    endloop
  endfacet
  facet normal 0.36461 0.93116 0
    outer loop
      vertex 23.6726 -41.0063 1
      vertex 26.0699 -41.945 0
      vertex 23.6726 -41.0063 0
    endloop
  endfacet
  facet normal 0.28117 0.959658 -0
    outer loop
      vertex 23.6726 -41.0063 0
      vertex 21.0609 -40.2411 1
      vertex 23.6726 -41.0063 1
    endloop
  endfacet
  facet normal 0.28117 0.959658 0
    outer loop
      vertex 21.0609 -40.2411 1
      vertex 23.6726 -41.0063 0
      vertex 21.0609 -40.2411 0
    endloop
  endfacet
  facet normal 0.204926 0.978777 -0
    outer loop
      vertex 21.0609 -40.2411 0
      vertex 18.2348 -39.6494 1
      vertex 21.0609 -40.2411 1
    endloop
  endfacet
  facet normal 0.204926 0.978777 0
    outer loop
      vertex 18.2348 -39.6494 1
      vertex 21.0609 -40.2411 0
      vertex 18.2348 -39.6494 0
    endloop
  endfacet
  facet normal 0.136269 0.990672 -0
    outer loop
      vertex 18.2348 -39.6494 0
      vertex 15.1945 -39.2312 1
      vertex 18.2348 -39.6494 1
    endloop
  endfacet
  facet normal 0.136269 0.990672 0
    outer loop
      vertex 15.1945 -39.2312 1
      vertex 18.2348 -39.6494 0
      vertex 15.1945 -39.2312 0
    endloop
  endfacet
  facet normal 0.239477 -0.970902 0
    outer loop
      vertex 15.1945 -39.2312 0
      vertex 17.623 -38.6322 1
      vertex 15.1945 -39.2312 1
    endloop
  endfacet
  facet normal 0.239477 -0.970902 0
    outer loop
      vertex 17.623 -38.6322 1
      vertex 15.1945 -39.2312 0
      vertex 17.623 -38.6322 0
    endloop
  endfacet
  facet normal 0.309296 -0.950966 0
    outer loop
      vertex 17.623 -38.6322 0
      vertex 19.8647 -37.9031 1
      vertex 17.623 -38.6322 1
    endloop
  endfacet
  facet normal 0.309296 -0.950966 0
    outer loop
      vertex 19.8647 -37.9031 1
      vertex 17.623 -38.6322 0
      vertex 19.8647 -37.9031 0
    endloop
  endfacet
  facet normal 0.385744 -0.922606 0
    outer loop
      vertex 19.8647 -37.9031 0
      vertex 21.9197 -37.0439 1
      vertex 19.8647 -37.9031 1
    endloop
  endfacet
  facet normal 0.385744 -0.922606 0
    outer loop
      vertex 21.9197 -37.0439 1
      vertex 19.8647 -37.9031 0
      vertex 21.9197 -37.0439 0
    endloop
  endfacet
  facet normal 0.467981 -0.883738 0
    outer loop
      vertex 21.9197 -37.0439 0
      vertex 23.7879 -36.0546 1
      vertex 21.9197 -37.0439 1
    endloop
  endfacet
  facet normal 0.467981 -0.883738 0
    outer loop
      vertex 23.7879 -36.0546 1
      vertex 21.9197 -37.0439 0
      vertex 23.7879 -36.0546 0
    endloop
  endfacet
  facet normal 0.554186 -0.832393 0
    outer loop
      vertex 23.7879 -36.0546 0
      vertex 25.4694 -34.9351 1
      vertex 23.7879 -36.0546 1
    endloop
  endfacet
  facet normal 0.554186 -0.832393 0
    outer loop
      vertex 25.4694 -34.9351 1
      vertex 23.7879 -36.0546 0
      vertex 25.4694 -34.9351 0
    endloop
  endfacet
  facet normal 0.641405 -0.767202 0
    outer loop
      vertex 25.4694 -34.9351 0
      vertex 26.9642 -33.6854 1
      vertex 25.4694 -34.9351 1
    endloop
  endfacet
  facet normal 0.641405 -0.767202 0
    outer loop
      vertex 26.9642 -33.6854 1
      vertex 25.4694 -34.9351 0
      vertex 26.9642 -33.6854 0
    endloop
  endfacet
  facet normal 0.725712 -0.687998 0
    outer loop
      vertex 26.9642 -33.6854 1
      vertex 28.2722 -32.3057 0
      vertex 28.2722 -32.3057 1
    endloop
  endfacet
  facet normal 0.725712 -0.687998 0
    outer loop
      vertex 28.2722 -32.3057 0
      vertex 26.9642 -33.6854 1
      vertex 26.9642 -33.6854 0
    endloop
  endfacet
  facet normal 0.797814 -0.602903 0
    outer loop
      vertex 28.2722 -32.3057 1
      vertex 29.4003 -30.8129 0
      vertex 29.4003 -30.8129 1
    endloop
  endfacet
  facet normal 0.797814 -0.602903 0
    outer loop
      vertex 29.4003 -30.8129 0
      vertex 28.2722 -32.3057 1
      vertex 28.2722 -32.3057 0
    endloop
  endfacet
  facet normal 0.857193 -0.514995 0
    outer loop
      vertex 29.4003 -30.8129 1
      vertex 30.3549 -29.224 0
      vertex 30.3549 -29.224 1
    endloop
  endfacet
  facet normal 0.857193 -0.514995 0
    outer loop
      vertex 30.3549 -29.224 0
      vertex 29.4003 -30.8129 1
      vertex 29.4003 -30.8129 0
    endloop
  endfacet
  facet normal 0.907261 -0.420567 0
    outer loop
      vertex 30.3549 -29.224 1
      vertex 31.1359 -27.5392 0
      vertex 31.1359 -27.5392 1
    endloop
  endfacet
  facet normal 0.907261 -0.420567 0
    outer loop
      vertex 31.1359 -27.5392 0
      vertex 30.3549 -29.224 1
      vertex 30.3549 -29.224 0
    endloop
  endfacet
  facet normal 0.946444 -0.322869 0
    outer loop
      vertex 31.1359 -27.5392 1
      vertex 31.7434 -25.7584 0
      vertex 31.7434 -25.7584 1
    endloop
  endfacet
  facet normal 0.946444 -0.322869 0
    outer loop
      vertex 31.7434 -25.7584 0
      vertex 31.1359 -27.5392 1
      vertex 31.1359 -27.5392 0
    endloop
  endfacet
  facet normal 0.974304 -0.225239 0
    outer loop
      vertex 31.7434 -25.7584 1
      vertex 32.1773 -23.8815 0
      vertex 32.1773 -23.8815 1
    endloop
  endfacet
  facet normal 0.974304 -0.225239 0
    outer loop
      vertex 32.1773 -23.8815 0
      vertex 31.7434 -25.7584 1
      vertex 31.7434 -25.7584 0
    endloop
  endfacet
  facet normal 0.991407 -0.130811 0
    outer loop
      vertex 32.1773 -23.8815 1
      vertex 32.4376 -21.9087 0
      vertex 32.4376 -21.9087 1
    endloop
  endfacet
  facet normal 0.991407 -0.130811 0
    outer loop
      vertex 32.4376 -21.9087 0
      vertex 32.1773 -23.8815 1
      vertex 32.1773 -23.8815 0
    endloop
  endfacet
  facet normal 0.999121 -0.0419178 0
    outer loop
      vertex 32.4376 -21.9087 1
      vertex 32.5244 -19.8398 0
      vertex 32.5244 -19.8398 1
    endloop
  endfacet
  facet normal 0.999121 -0.0419178 0
    outer loop
      vertex 32.5244 -19.8398 0
      vertex 32.4376 -21.9087 1
      vertex 32.4376 -21.9087 0
    endloop
  endfacet
  facet normal 0.998718 0.0506204 0
    outer loop
      vertex 32.5244 -19.8398 1
      vertex 32.3765 -16.9218 0
      vertex 32.3765 -16.9218 1
    endloop
  endfacet
  facet normal 0.998718 0.0506204 0
    outer loop
      vertex 32.3765 -16.9218 0
      vertex 32.5244 -19.8398 1
      vertex 32.5244 -19.8398 0
    endloop
  endfacet
  facet normal 0.986925 0.161182 0
    outer loop
      vertex 32.3765 -16.9218 1
      vertex 31.9328 -14.205 0
      vertex 31.9328 -14.205 1
    endloop
  endfacet
  facet normal 0.986925 0.161182 0
    outer loop
      vertex 31.9328 -14.205 0
      vertex 32.3765 -16.9218 1
      vertex 32.3765 -16.9218 0
    endloop
  endfacet
  facet normal 0.959395 0.282067 0
    outer loop
      vertex 31.9328 -14.205 1
      vertex 31.1932 -11.6894 0
      vertex 31.1932 -11.6894 1
    endloop
  endfacet
  facet normal 0.959395 0.282067 0
    outer loop
      vertex 31.1932 -11.6894 0
      vertex 31.9328 -14.205 1
      vertex 31.9328 -14.205 0
    endloop
  endfacet
  facet normal 0.912837 0.408323 0
    outer loop
      vertex 31.1932 -11.6894 1
      vertex 30.1579 -9.37491 0
      vertex 30.1579 -9.37491 1
    endloop
  endfacet
  facet normal 0.912837 0.408323 0
    outer loop
      vertex 30.1579 -9.37491 0
      vertex 31.1932 -11.6894 1
      vertex 31.1932 -11.6894 0
    endloop
  endfacet
  facet normal 0.846125 0.532985 0
    outer loop
      vertex 30.1579 -9.37491 1
      vertex 28.8267 -7.2616 0
      vertex 28.8267 -7.2616 1
    endloop
  endfacet
  facet normal 0.846125 0.532985 0
    outer loop
      vertex 28.8267 -7.2616 0
      vertex 30.1579 -9.37491 1
      vertex 30.1579 -9.37491 0
    endloop
  endfacet
  facet normal 0.761609 0.648037 0
    outer loop
      vertex 28.8267 -7.2616 1
      vertex 27.1997 -5.34946 0
      vertex 27.1997 -5.34946 1
    endloop
  endfacet
  facet normal 0.761609 0.648037 0
    outer loop
      vertex 27.1997 -5.34946 0
      vertex 28.8267 -7.2616 1
      vertex 28.8267 -7.2616 0
    endloop
  endfacet
  facet normal 0.664758 0.747059 -0
    outer loop
      vertex 27.1997 -5.34946 0
      vertex 25.2769 -3.63849 1
      vertex 27.1997 -5.34946 1
    endloop
  endfacet
  facet normal 0.664758 0.747059 0
    outer loop
      vertex 25.2769 -3.63849 1
      vertex 27.1997 -5.34946 0
      vertex 25.2769 -3.63849 0
    endloop
  endfacet
  facet normal 0.560553 0.828118 -0
    outer loop
      vertex 25.2769 -3.63849 0
      vertex 23.0674 -2.14288 1
      vertex 25.2769 -3.63849 1
    endloop
  endfacet
  facet normal 0.560553 0.828118 0
    outer loop
      vertex 23.0674 -2.14288 1
      vertex 25.2769 -3.63849 0
      vertex 23.0674 -2.14288 0
    endloop
  endfacet
  facet normal 0.453543 0.891234 -0
    outer loop
      vertex 23.0674 -2.14288 0
      vertex 20.5806 -0.877365 1
      vertex 23.0674 -2.14288 1
    endloop
  endfacet
  facet normal 0.453543 0.891234 0
    outer loop
      vertex 20.5806 -0.877365 1
      vertex 23.0674 -2.14288 0
      vertex 20.5806 -0.877365 0
    endloop
  endfacet
  facet normal 0.350774 0.93646 -0
    outer loop
      vertex 20.5806 -0.877365 0
      vertex 17.8164 0.158035 1
      vertex 20.5806 -0.877365 1
    endloop
  endfacet
  facet normal 0.350774 0.93646 0
    outer loop
      vertex 17.8164 0.158035 1
      vertex 20.5806 -0.877365 0
      vertex 17.8164 0.158035 0
    endloop
  endfacet
  facet normal 0.255944 0.966692 -0
    outer loop
      vertex 17.8164 0.158035 0
      vertex 14.7747 0.963364 1
      vertex 17.8164 0.158035 1
    endloop
  endfacet
  facet normal 0.255944 0.966692 0
    outer loop
      vertex 14.7747 0.963364 1
      vertex 17.8164 0.158035 0
      vertex 14.7747 0.963364 0
    endloop
  endfacet
  facet normal 0.17077 0.985311 -0
    outer loop
      vertex 14.7747 0.963364 0
      vertex 11.4557 1.5386 1
      vertex 14.7747 0.963364 1
    endloop
  endfacet
  facet normal 0.17077 0.985311 0
    outer loop
      vertex 11.4557 1.5386 1
      vertex 14.7747 0.963364 0
      vertex 11.4557 1.5386 0
    endloop
  endfacet
  facet normal 0.0955288 0.995427 -0
    outer loop
      vertex 11.4557 1.5386 0
      vertex 7.85928 1.88374 1
      vertex 11.4557 1.5386 1
    endloop
  endfacet
  facet normal 0.0955288 0.995427 0
    outer loop
      vertex 7.85928 1.88374 1
      vertex 11.4557 1.5386 0
      vertex 7.85928 1.88374 0
    endloop
  endfacet
  facet normal 0.0296863 0.999559 -0
    outer loop
      vertex 7.85928 1.88374 0
      vertex 3.98546 1.99879 1
      vertex 7.85928 1.88374 1
    endloop
  endfacet
  facet normal 0.0296863 0.999559 0
    outer loop
      vertex 3.98546 1.99879 1
      vertex 7.85928 1.88374 0
      vertex 3.98546 1.99879 0
    endloop
  endfacet
  facet normal 0 1 -0
    outer loop
      vertex 3.98546 1.99879 0
      vertex -29.8364 1.99879 1
      vertex 3.98546 1.99879 1
    endloop
  endfacet
  facet normal 0 1 0
    outer loop
      vertex -29.8364 1.99879 1
      vertex 3.98546 1.99879 0
      vertex -29.8364 1.99879 0
    endloop
  endfacet
  facet normal -1 0 0
    outer loop
      vertex -29.8364 -84.9062 0
      vertex -29.8364 1.99879 1
      vertex -29.8364 1.99879 0
    endloop
  endfacet
  facet normal -1 -0 0
    outer loop
      vertex -29.8364 1.99879 1
      vertex -29.8364 -84.9062 0
      vertex -29.8364 -84.9062 1
    endloop
  endfacet
  facet normal 0 -1 0
    outer loop
      vertex -29.8364 -84.9062 0
      vertex 7.65721 -84.9062 1
      vertex -29.8364 -84.9062 1
    endloop
  endfacet
  facet normal 0 -1 -0
    outer loop
      vertex 7.65721 -84.9062 1
      vertex -29.8364 -84.9062 0
      vertex 7.65721 -84.9062 0
    endloop
  endfacet
  facet normal 0.0343108 -0.999411 0
    outer loop
      vertex 7.65721 -84.9062 0
      vertex 11.5633 -84.7721 1
      vertex 7.65721 -84.9062 1
    endloop
  endfacet
  facet normal 0.0343108 -0.999411 0
    outer loop
      vertex 11.5633 -84.7721 1
      vertex 7.65721 -84.9062 0
      vertex 11.5633 -84.7721 0
    endloop
  endfacet
  facet normal 1 -0 0
    outer loop
      vertex -10.8317 -32.66 1
      vertex -10.8317 -12.1096 0
      vertex -10.8317 -12.1096 1
    endloop
  endfacet
  facet normal 1 0 0
    outer loop
      vertex -10.8317 -12.1096 0
      vertex -10.8317 -32.66 1
      vertex -10.8317 -32.66 0
    endloop
  endfacet
  facet normal 0 -1 0
    outer loop
      vertex -10.8317 -12.1096 0
      vertex 2.63266 -12.1096 1
      vertex -10.8317 -12.1096 1
    endloop
  endfacet
  facet normal 0 -1 -0
    outer loop
      vertex 2.63266 -12.1096 1
      vertex -10.8317 -12.1096 0
      vertex 2.63266 -12.1096 0
    endloop
  endfacet
  facet normal -0.0735126 -0.997294 0
    outer loop
      vertex 2.63266 -12.1096 0
      vertex 5.48701 -12.32 1
      vertex 2.63266 -12.1096 1
    endloop
  endfacet
  facet normal -0.0735126 -0.997294 -0
    outer loop
      vertex 5.48701 -12.32 1
      vertex 2.63266 -12.1096 0
      vertex 5.48701 -12.32 0
    endloop
  endfacet
  facet normal -0.252811 -0.967516 0
    outer loop
      vertex 5.48701 -12.32 0
      vertex 7.90225 -12.9511 1
      vertex 5.48701 -12.32 1
    endloop
  endfacet
  facet normal -0.252811 -0.967516 -0
    outer loop
      vertex 7.90225 -12.9511 1
      vertex 5.48701 -12.32 0
      vertex 7.90225 -12.9511 0
    endloop
  endfacet
  facet normal -0.469853 -0.882745 0
    outer loop
      vertex 7.90225 -12.9511 0
      vertex 9.87834 -14.0029 1
      vertex 7.90225 -12.9511 1
    endloop
  endfacet
  facet normal -0.469853 -0.882745 -0
    outer loop
      vertex 9.87834 -14.0029 1
      vertex 7.90225 -12.9511 0
      vertex 9.87834 -14.0029 0
    endloop
  endfacet
  facet normal -0.691802 -0.722087 0
    outer loop
      vertex 9.87834 -14.0029 0
      vertex 11.4153 -15.4754 1
      vertex 9.87834 -14.0029 1
    endloop
  endfacet
  facet normal -0.691802 -0.722087 -0
    outer loop
      vertex 11.4153 -15.4754 1
      vertex 9.87834 -14.0029 0
      vertex 11.4153 -15.4754 0
    endloop
  endfacet
  facet normal -0.865082 -0.501631 0
    outer loop
      vertex 12.5131 -17.3686 0
      vertex 11.4153 -15.4754 1
      vertex 11.4153 -15.4754 0
    endloop
  endfacet
  facet normal -0.865082 -0.501631 0
    outer loop
      vertex 11.4153 -15.4754 1
      vertex 12.5131 -17.3686 0
      vertex 12.5131 -17.3686 1
    endloop
  endfacet
  facet normal -0.961789 -0.273793 0
    outer loop
      vertex 13.1718 -19.6825 0
      vertex 12.5131 -17.3686 1
      vertex 12.5131 -17.3686 0
    endloop
  endfacet
  facet normal -0.961789 -0.273793 0
    outer loop
      vertex 12.5131 -17.3686 1
      vertex 13.1718 -19.6825 0
      vertex 13.1718 -19.6825 1
    endloop
  endfacet
  facet normal -0.996791 -0.0800466 0
    outer loop
      vertex 13.3914 -22.4171 0
      vertex 13.1718 -19.6825 1
      vertex 13.1718 -19.6825 0
    endloop
  endfacet
  facet normal -0.996791 -0.0800466 0
    outer loop
      vertex 13.1718 -19.6825 1
      vertex 13.3914 -22.4171 0
      vertex 13.3914 -22.4171 1
    endloop
  endfacet
  facet normal -0.99683 0.079563 0
    outer loop
      vertex 13.1745 -25.1346 0
      vertex 13.3914 -22.4171 1
      vertex 13.3914 -22.4171 0
    endloop
  endfacet
  facet normal -0.99683 0.079563 0
    outer loop
      vertex 13.3914 -22.4171 1
      vertex 13.1745 -25.1346 0
      vertex 13.1745 -25.1346 1
    endloop
  endfacet
  facet normal -0.962195 0.27236 0
    outer loop
      vertex 12.5236 -27.4341 0
      vertex 13.1745 -25.1346 1
      vertex 13.1745 -25.1346 0
    endloop
  endfacet
  facet normal -0.962195 0.27236 0
    outer loop
      vertex 13.1745 -25.1346 1
      vertex 12.5236 -27.4341 0
      vertex 12.5236 -27.4341 1
    endloop
  endfacet
  facet normal -0.866318 0.499493 0
    outer loop
      vertex 11.4389 -29.3154 0
      vertex 12.5236 -27.4341 1
      vertex 12.5236 -27.4341 0
    endloop
  endfacet
  facet normal -0.866318 0.499493 0
    outer loop
      vertex 12.5236 -27.4341 1
      vertex 11.4389 -29.3154 0
      vertex 11.4389 -29.3154 1
    endloop
  endfacet
  facet normal -0.693857 0.720112 0
    outer loop
      vertex 11.4389 -29.3154 0
      vertex 9.92023 -30.7787 1
      vertex 11.4389 -29.3154 1
    endloop
  endfacet
  facet normal -0.693857 0.720112 0
    outer loop
      vertex 9.92023 -30.7787 1
      vertex 11.4389 -29.3154 0
      vertex 9.92023 -30.7787 0
    endloop
  endfacet
  facet normal -0.471938 0.881632 0
    outer loop
      vertex 9.92023 -30.7787 0
      vertex 7.96768 -31.8239 1
      vertex 9.92023 -30.7787 1
    endloop
  endfacet
  facet normal -0.471938 0.881632 0
    outer loop
      vertex 7.96768 -31.8239 1
      vertex 9.92023 -30.7787 0
      vertex 7.96768 -31.8239 0
    endloop
  endfacet
  facet normal -0.254148 0.967165 0
    outer loop
      vertex 7.96768 -31.8239 0
      vertex 5.58124 -32.451 1
      vertex 7.96768 -31.8239 1
    endloop
  endfacet
  facet normal -0.254148 0.967165 0
    outer loop
      vertex 5.58124 -32.451 1
      vertex 7.96768 -31.8239 0
      vertex 5.58124 -32.451 0
    endloop
  endfacet
  facet normal -0.0739022 0.997265 0
    outer loop
      vertex 5.58124 -32.451 0
      vertex 2.76091 -32.66 1
      vertex 5.58124 -32.451 1
    endloop
  endfacet
  facet normal -0.0739022 0.997265 0
    outer loop
      vertex 2.76091 -32.66 1
      vertex 5.58124 -32.451 0
      vertex 2.76091 -32.66 0
    endloop
  endfacet
  facet normal 0 1 -0
    outer loop
      vertex 2.76091 -32.66 0
      vertex -10.8317 -32.66 1
      vertex 2.76091 -32.66 1
    endloop
  endfacet
  facet normal 0 1 0
    outer loop
      vertex -10.8317 -32.66 1
      vertex 2.76091 -32.66 0
      vertex -10.8317 -32.66 0
    endloop
  endfacet
  facet normal 1 -0 0
    outer loop
      vertex -10.8317 -70.7978 1
      vertex -10.8317 -46.7039 0
      vertex -10.8317 -46.7039 1
    endloop
  endfacet
  facet normal 1 0 0
    outer loop
      vertex -10.8317 -46.7039 0
      vertex -10.8317 -70.7978 1
      vertex -10.8317 -70.7978 0
    endloop
  endfacet
  facet normal 0 -1 0
    outer loop
      vertex -10.8317 -46.7039 0
      vertex 5.27365 -46.7039 1
      vertex -10.8317 -46.7039 1
    endloop
  endfacet
  facet normal 0 -1 -0
    outer loop
      vertex 5.27365 -46.7039 1
      vertex -10.8317 -46.7039 0
      vertex 5.27365 -46.7039 0
    endloop
  endfacet
  facet normal -0.0347247 -0.999397 0
    outer loop
      vertex 5.27365 -46.7039 0
      vertex 7.06956 -46.7663 1
      vertex 5.27365 -46.7039 1
    endloop
  endfacet
  facet normal -0.0347247 -0.999397 -0
    outer loop
      vertex 7.06956 -46.7663 1
      vertex 5.27365 -46.7039 0
      vertex 7.06956 -46.7663 0
    endloop
  endfacet
  facet normal -0.111535 -0.99376 0
    outer loop
      vertex 7.06956 -46.7663 0
      vertex 8.73926 -46.9537 1
      vertex 7.06956 -46.7663 1
    endloop
  endfacet
  facet normal -0.111535 -0.99376 -0
    outer loop
      vertex 8.73926 -46.9537 1
      vertex 7.06956 -46.7663 0
      vertex 8.73926 -46.9537 0
    endloop
  endfacet
  facet normal -0.19826 -0.980149 0
    outer loop
      vertex 8.73926 -46.9537 0
      vertex 10.2827 -47.2659 1
      vertex 8.73926 -46.9537 1
    endloop
  endfacet
  facet normal -0.19826 -0.980149 -0
    outer loop
      vertex 10.2827 -47.2659 1
      vertex 8.73926 -46.9537 0
      vertex 10.2827 -47.2659 0
    endloop
  endfacet
  facet normal -0.294768 -0.955569 0
    outer loop
      vertex 10.2827 -47.2659 0
      vertex 11.7 -47.7031 1
      vertex 10.2827 -47.2659 1
    endloop
  endfacet
  facet normal -0.294768 -0.955569 -0
    outer loop
      vertex 11.7 -47.7031 1
      vertex 10.2827 -47.2659 0
      vertex 11.7 -47.7031 0
    endloop
  endfacet
  facet normal -0.399142 -0.916889 0
    outer loop
      vertex 11.7 -47.7031 0
      vertex 12.991 -48.2651 1
      vertex 11.7 -47.7031 1
    endloop
  endfacet
  facet normal -0.399142 -0.916889 -0
    outer loop
      vertex 12.991 -48.2651 1
      vertex 11.7 -47.7031 0
      vertex 12.991 -48.2651 0
    endloop
  endfacet
  facet normal -0.507934 -0.861396 0
    outer loop
      vertex 12.991 -48.2651 0
      vertex 14.1559 -48.952 1
      vertex 12.991 -48.2651 1
    endloop
  endfacet
  facet normal -0.507934 -0.861396 -0
    outer loop
      vertex 14.1559 -48.952 1
      vertex 12.991 -48.2651 0
      vertex 14.1559 -48.952 0
    endloop
  endfacet
  facet normal -0.61583 -0.787879 0
    outer loop
      vertex 14.1559 -48.952 0
      vertex 15.1945 -49.7638 1
      vertex 14.1559 -48.952 1
    endloop
  endfacet
  facet normal -0.61583 -0.787879 -0
    outer loop
      vertex 15.1945 -49.7638 1
      vertex 14.1559 -48.952 0
      vertex 15.1945 -49.7638 0
    endloop
  endfacet
  facet normal -0.715464 -0.69865 0
    outer loop
      vertex 16.1003 -50.6914 0
      vertex 15.1945 -49.7638 1
      vertex 15.1945 -49.7638 0
    endloop
  endfacet
  facet normal -0.715464 -0.69865 0
    outer loop
      vertex 15.1945 -49.7638 1
      vertex 16.1003 -50.6914 0
      vertex 16.1003 -50.6914 1
    endloop
  endfacet
  facet normal -0.803344 -0.595516 0
    outer loop
      vertex 16.8668 -51.7254 0
      vertex 16.1003 -50.6914 1
      vertex 16.1003 -50.6914 0
    endloop
  endfacet
  facet normal -0.803344 -0.595516 0
    outer loop
      vertex 16.1003 -50.6914 1
      vertex 16.8668 -51.7254 0
      vertex 16.8668 -51.7254 1
    endloop
  endfacet
  facet normal -0.876291 -0.481783 0
    outer loop
      vertex 17.4939 -52.866 0
      vertex 16.8668 -51.7254 1
      vertex 16.8668 -51.7254 0
    endloop
  endfacet
  facet normal -0.876291 -0.481783 0
    outer loop
      vertex 16.8668 -51.7254 1
      vertex 17.4939 -52.866 0
      vertex 17.4939 -52.866 1
    endloop
  endfacet
  facet normal -0.931292 -0.364273 0
    outer loop
      vertex 17.9817 -54.1131 0
      vertex 17.4939 -52.866 1
      vertex 17.4939 -52.866 0
    endloop
  endfacet
  facet normal -0.931292 -0.364273 0
    outer loop
      vertex 17.4939 -52.866 1
      vertex 17.9817 -54.1131 0
      vertex 17.9817 -54.1131 1
    endloop
  endfacet
  facet normal -0.968436 -0.249263 0
    outer loop
      vertex 18.3301 -55.4667 0
      vertex 17.9817 -54.1131 1
      vertex 17.9817 -54.1131 0
    endloop
  endfacet
  facet normal -0.968436 -0.249263 0
    outer loop
      vertex 17.9817 -54.1131 1
      vertex 18.3301 -55.4667 0
      vertex 18.3301 -55.4667 1
    endloop
  endfacet
  facet normal -0.98991 -0.141697 0
    outer loop
      vertex 18.5391 -56.9268 0
      vertex 18.3301 -55.4667 1
      vertex 18.3301 -55.4667 0
    endloop
  endfacet
  facet normal -0.98991 -0.141697 0
    outer loop
      vertex 18.3301 -55.4667 1
      vertex 18.5391 -56.9268 0
      vertex 18.5391 -56.9268 1
    endloop
  endfacet
  facet normal -0.999012 -0.0444473 0
    outer loop
      vertex 18.6088 -58.4934 0
      vertex 18.5391 -56.9268 1
      vertex 18.5391 -56.9268 0
    endloop
  endfacet
  facet normal -0.999012 -0.0444473 0
    outer loop
      vertex 18.5391 -56.9268 1
      vertex 18.6088 -58.4934 0
      vertex 18.6088 -58.4934 1
    endloop
  endfacet
  facet normal -0.996773 0.0802756 0
    outer loop
      vertex 18.3459 -61.7578 0
      vertex 18.6088 -58.4934 1
      vertex 18.6088 -58.4934 0
    endloop
  endfacet
  facet normal -0.996773 0.0802756 0
    outer loop
      vertex 18.6088 -58.4934 1
      vertex 18.3459 -61.7578 0
      vertex 18.3459 -61.7578 1
    endloop
  endfacet
  facet normal -0.961561 0.274592 0
    outer loop
      vertex 17.5571 -64.52 0
      vertex 18.3459 -61.7578 1
      vertex 18.3459 -61.7578 0
    endloop
  endfacet
  facet normal -0.961561 0.274592 0
    outer loop
      vertex 18.3459 -61.7578 1
      vertex 17.5571 -64.52 0
      vertex 17.5571 -64.52 1
    endloop
  endfacet
  facet normal -0.864383 0.502834 0
    outer loop
      vertex 16.2424 -66.78 0
      vertex 17.5571 -64.52 1
      vertex 17.5571 -64.52 0
    endloop
  endfacet
  facet normal -0.864383 0.502834 0
    outer loop
      vertex 17.5571 -64.52 1
      vertex 16.2424 -66.78 0
      vertex 16.2424 -66.78 1
    endloop
  endfacet
  facet normal -0.690653 0.723186 0
    outer loop
      vertex 16.2424 -66.78 0
      vertex 14.4018 -68.5378 1
      vertex 16.2424 -66.78 1
    endloop
  endfacet
  facet normal -0.690653 0.723186 0
    outer loop
      vertex 14.4018 -68.5378 1
      vertex 16.2424 -66.78 0
      vertex 14.4018 -68.5378 0
    endloop
  endfacet
  facet normal -0.468704 0.883355 0
    outer loop
      vertex 14.4018 -68.5378 0
      vertex 12.0354 -69.7934 1
      vertex 14.4018 -68.5378 1
    endloop
  endfacet
  facet normal -0.468704 0.883355 0
    outer loop
      vertex 12.0354 -69.7934 1
      vertex 14.4018 -68.5378 0
      vertex 12.0354 -69.7934 0
    endloop
  endfacet
  facet normal -0.25204 0.967717 0
    outer loop
      vertex 12.0354 -69.7934 0
      vertex 9.14308 -70.5467 1
      vertex 12.0354 -69.7934 1
    endloop
  endfacet
  facet normal -0.25204 0.967717 0
    outer loop
      vertex 9.14308 -70.5467 1
      vertex 12.0354 -69.7934 0
      vertex 9.14308 -70.5467 0
    endloop
  endfacet
  facet normal -0.0732627 0.997313 0
    outer loop
      vertex 9.14308 -70.5467 0
      vertex 5.7249 -70.7978 1
      vertex 9.14308 -70.5467 1
    endloop
  endfacet
  facet normal -0.0732627 0.997313 0
    outer loop
      vertex 5.7249 -70.7978 1
      vertex 9.14308 -70.5467 0
      vertex 5.7249 -70.7978 0
    endloop
  endfacet
  facet normal 0 1 -0
    outer loop
      vertex 5.7249 -70.7978 0
      vertex -10.8317 -70.7978 1
      vertex 5.7249 -70.7978 1
    endloop
  endfacet
  facet normal 0 1 0
    outer loop
      vertex -10.8317 -70.7978 1
      vertex 5.7249 -70.7978 0
      vertex -10.8317 -70.7978 0
    endloop
  endfacet
endsolid OpenSCAD_Model
