solid OpenSCAD_Model
  facet normal 0 0 -1
    outer loop
      vertex 21.9497 -71.2226 0
      vertex 21.1143 -63.548 0
      vertex 21.9497 -63.4147 0
    endloop
  endfacet
  facet normal 0 0 -1
    outer loop
      vertex 20.3311 -63.6607 0
      vertex 21.9497 -71.2226 0
      vertex 20.5661 -71.5096 0
    endloop
  endfacet
  facet normal 0 0 -1
    outer loop
      vertex 21.9497 -71.2226 0
      vertex 20.3311 -63.6607 0
      vertex 21.1143 -63.548 0
    endloop
  endfacet
  facet normal 0 0 -1
    outer loop
      vertex 20.5661 -71.5096 0
      vertex 19.5998 -63.7529 0
      vertex 20.3311 -63.6607 0
    endloop
  endfacet
  facet normal 0 0 -1
    outer loop
      vertex 18.9206 -63.8247 0
      vertex 20.5661 -71.5096 0
      vertex 19.1983 -71.7525 0
    endloop
  endfacet
  facet normal 0 0 -1
    outer loop
      vertex 20.5661 -71.5096 0
      vertex 18.9206 -63.8247 0
      vertex 19.5998 -63.7529 0
    endloop
  endfacet
  facet normal 0 0 -1
    outer loop
      vertex 19.1983 -71.7525 0
      vertex 18.2935 -63.8759 0
      vertex 18.9206 -63.8247 0
    endloop
  endfacet
  facet normal 0 0 -1
    outer loop
      vertex 17.7184 -63.9066 0
      vertex 19.1983 -71.7525 0
      vertex 17.8462 -71.9512 0
    endloop
  endfacet
  facet normal 0 0 -1
    outer loop
      vertex 19.1983 -71.7525 0
      vertex 17.7184 -63.9066 0
      vertex 18.2935 -63.8759 0
    endloop
  endfacet
  facet normal 0 0 -1
    outer loop
      vertex 17.8462 -71.9512 0
      vertex 17.1953 -63.9169 0
      vertex 17.7184 -63.9066 0
    endloop
  endfacet
  facet normal 0 0 -1
    outer loop
      vertex 16.5099 -72.1057 0
      vertex 17.1953 -63.9169 0
      vertex 17.8462 -71.9512 0
    endloop
  endfacet
  facet normal 0 0 -1
    outer loop
      vertex 16.5099 -72.1057 0
      vertex 16.0689 -63.8818 0
      vertex 17.1953 -63.9169 0
    endloop
  endfacet
  facet normal 0 0 -1
    outer loop
      vertex 15.1893 -72.2161 0
      vertex 16.0689 -63.8818 0
      vertex 16.5099 -72.1057 0
    endloop
  endfacet
  facet normal 0 0 -1
    outer loop
      vertex 15.1893 -72.2161 0
      vertex 15.0087 -63.7765 0
      vertex 16.0689 -63.8818 0
    endloop
  endfacet
  facet normal 0 0 -1
    outer loop
      vertex 13.8845 -72.2824 0
      vertex 15.0087 -63.7765 0
      vertex 15.1893 -72.2161 0
    endloop
  endfacet
  facet normal -0 0 -1
    outer loop
      vertex 15.0087 -63.7765 0
      vertex 13.8845 -72.2824 0
      vertex 14.0147 -63.6009 0
    endloop
  endfacet
  facet normal 0 0 -1
    outer loop
      vertex 12.5954 -72.3045 0
      vertex 14.0147 -63.6009 0
      vertex 13.8845 -72.2824 0
    endloop
  endfacet
  facet normal -0 0 -1
    outer loop
      vertex 14.0147 -63.6009 0
      vertex 12.5954 -72.3045 0
      vertex 13.087 -63.3552 0
    endloop
  endfacet
  facet normal 0 0 -1
    outer loop
      vertex 10.8292 -72.2315 0
      vertex 13.087 -63.3552 0
      vertex 12.5954 -72.3045 0
    endloop
  endfacet
  facet normal -0 0 -1
    outer loop
      vertex 13.087 -63.3552 0
      vertex 10.8292 -72.2315 0
      vertex 12.2256 -63.0392 0
    endloop
  endfacet
  facet normal 0 0 -1
    outer loop
      vertex 9.15298 -72.0126 0
      vertex 12.2256 -63.0392 0
      vertex 10.8292 -72.2315 0
    endloop
  endfacet
  facet normal -0 0 -1
    outer loop
      vertex 12.2256 -63.0392 0
      vertex 9.15298 -72.0126 0
      vertex 11.4303 -62.653 0
    endloop
  endfacet
  facet normal 0 0 -1
    outer loop
      vertex 7.56665 -71.6477 0
      vertex 11.4303 -62.653 0
      vertex 9.15298 -72.0126 0
    endloop
  endfacet
  facet normal -0 0 -1
    outer loop
      vertex 11.4303 -62.653 0
      vertex 7.56665 -71.6477 0
      vertex 10.7013 -62.1966 0
    endloop
  endfacet
  facet normal 0 0 -1
    outer loop
      vertex 6.07024 -71.1369 0
      vertex 10.7013 -62.1966 0
      vertex 7.56665 -71.6477 0
    endloop
  endfacet
  facet normal 0 0 -1
    outer loop
      vertex 4.66374 -70.4802 0
      vertex 10.7013 -62.1966 0
      vertex 6.07024 -71.1369 0
    endloop
  endfacet
  facet normal -0 0 -1
    outer loop
      vertex 10.7013 -62.1966 0
      vertex 4.66374 -70.4802 0
      vertex 10.0277 -61.6639 0
    endloop
  endfacet
  facet normal 0 0 -1
    outer loop
      vertex 3.34717 -69.6775 0
      vertex 10.0277 -61.6639 0
      vertex 4.66374 -70.4802 0
    endloop
  endfacet
  facet normal -0 0 -1
    outer loop
      vertex 10.0277 -61.6639 0
      vertex 3.34717 -69.6775 0
      vertex 9.39821 -61.0483 0
    endloop
  endfacet
  facet normal 0 0 -1
    outer loop
      vertex 2.12051 -68.7288 0
      vertex 9.39821 -61.0483 0
      vertex 3.34717 -69.6775 0
    endloop
  endfacet
  facet normal 0 0 -1
    outer loop
      vertex 0.971176 -67.6139 0
      vertex 9.39821 -61.0483 0
      vertex 2.12051 -68.7288 0
    endloop
  endfacet
  facet normal 0 0 -1
    outer loop
      vertex 13.9689 -52.9728 0
      vertex 6.07256 -46.1962 0
      vertex 6.88814 -45.1679 0
    endloop
  endfacet
  facet normal -0 0 -1
    outer loop
      vertex 9.39821 -61.0483 0
      vertex 0.971176 -67.6139 0
      vertex 8.81294 -60.3498 0
    endloop
  endfacet
  facet normal 0 0 -1
    outer loop
      vertex -0.113449 -66.312 0
      vertex 8.81294 -60.3498 0
      vertex 0.971176 -67.6139 0
    endloop
  endfacet
  facet normal 0 0 -1
    outer loop
      vertex 8.88689 -56.0704 0
      vertex 5.16232 -47.0375 0
      vertex 6.07256 -46.1962 0
    endloop
  endfacet
  facet normal -0 0 -1
    outer loop
      vertex 8.81294 -60.3498 0
      vertex -0.113449 -66.312 0
      vertex 8.27185 -59.5685 0
    endloop
  endfacet
  facet normal 0 0 -1
    outer loop
      vertex 8.88689 -56.0704 0
      vertex 4.15741 -47.6918 0
      vertex 5.16232 -47.0375 0
    endloop
  endfacet
  facet normal 0 0 -1
    outer loop
      vertex -1.13339 -64.8232 0
      vertex 8.27185 -59.5685 0
      vertex -0.113449 -66.312 0
    endloop
  endfacet
  facet normal -0 0 -1
    outer loop
      vertex 8.27185 -59.5685 0
      vertex -1.13339 -64.8232 0
      vertex 7.77493 -58.7043 0
    endloop
  endfacet
  facet normal 0 0 -1
    outer loop
      vertex -2.08862 -63.1474 0
      vertex 7.77493 -58.7043 0
      vertex -1.13339 -64.8232 0
    endloop
  endfacet
  facet normal -0 0 -1
    outer loop
      vertex 7.77493 -58.7043 0
      vertex -2.08862 -63.1474 0
      vertex 7.3222 -57.7573 0
    endloop
  endfacet
  facet normal 0 0 -1
    outer loop
      vertex -2.97916 -61.2846 0
      vertex 7.3222 -57.7573 0
      vertex -2.08862 -63.1474 0
    endloop
  endfacet
  facet normal -0 0 -1
    outer loop
      vertex 7.3222 -57.7573 0
      vertex -2.97916 -61.2846 0
      vertex 6.91365 -56.7275 0
    endloop
  endfacet
  facet normal 0 0 -1
    outer loop
      vertex 6.91365 -56.7275 0
      vertex 3.05783 -48.1593 0
      vertex 4.15741 -47.6918 0
    endloop
  endfacet
  facet normal 0 0 -1
    outer loop
      vertex -3.80499 -59.2349 0
      vertex 6.91365 -56.7275 0
      vertex -2.97916 -61.2846 0
    endloop
  endfacet
  facet normal 0 0 -1
    outer loop
      vertex -4.56613 -56.9982 0
      vertex 6.91365 -56.7275 0
      vertex -3.80499 -59.2349 0
    endloop
  endfacet
  facet normal 0 0 -1
    outer loop
      vertex 6.91365 -56.7275 0
      vertex 1.86359 -48.4397 0
      vertex 3.05783 -48.1593 0
    endloop
  endfacet
  facet normal 0 -0 -1
    outer loop
      vertex 0.574677 -48.5332 0
      vertex 6.91365 -56.7275 0
      vertex -4.56613 -56.9982 0
    endloop
  endfacet
  facet normal 0 0 -1
    outer loop
      vertex 6.91365 -56.7275 0
      vertex 0.574677 -48.5332 0
      vertex 1.86359 -48.4397 0
    endloop
  endfacet
  facet normal -0 0 -1
    outer loop
      vertex 0.574677 -48.5332 0
      vertex -4.56613 -56.9982 0
      vertex -0.714767 -48.4397 0
    endloop
  endfacet
  facet normal -0 0 -1
    outer loop
      vertex -0.714767 -48.4397 0
      vertex -4.56613 -56.9982 0
      vertex -1.91037 -48.1593 0
    endloop
  endfacet
  facet normal -0 0 -1
    outer loop
      vertex -1.91037 -48.1593 0
      vertex -4.56613 -56.9982 0
      vertex -3.01208 -47.6918 0
    endloop
  endfacet
  facet normal 0 0 -1
    outer loop
      vertex -6.70001 -56.4319 0
      vertex -3.01208 -47.6918 0
      vertex -4.56613 -56.9982 0
    endloop
  endfacet
  facet normal 0 0 -1
    outer loop
      vertex -8.68401 -55.6604 0
      vertex -3.01208 -47.6918 0
      vertex -6.70001 -56.4319 0
    endloop
  endfacet
  facet normal -0 0 -1
    outer loop
      vertex -3.01208 -47.6918 0
      vertex -8.68401 -55.6604 0
      vertex -4.01993 -47.0375 0
    endloop
  endfacet
  facet normal 0 0 -1
    outer loop
      vertex -10.5181 -54.6838 0
      vertex -4.01993 -47.0375 0
      vertex -8.68401 -55.6604 0
    endloop
  endfacet
  facet normal -0 0 -1
    outer loop
      vertex -4.01993 -47.0375 0
      vertex -10.5181 -54.6838 0
      vertex -4.93388 -46.1962 0
    endloop
  endfacet
  facet normal 0 0 -1
    outer loop
      vertex -12.2023 -53.5021 0
      vertex -4.93388 -46.1962 0
      vertex -10.5181 -54.6838 0
    endloop
  endfacet
  facet normal -0 0 -1
    outer loop
      vertex -4.93388 -46.1962 0
      vertex -12.2023 -53.5021 0
      vertex -5.75398 -45.1679 0
    endloop
  endfacet
  facet normal 0 0 -1
    outer loop
      vertex -13.7366 -52.1153 0
      vertex -5.75398 -45.1679 0
      vertex -12.2023 -53.5021 0
    endloop
  endfacet
  facet normal 0 0 -1
    outer loop
      vertex -15.121 -50.5234 0
      vertex -5.75398 -45.1679 0
      vertex -13.7366 -52.1153 0
    endloop
  endfacet
  facet normal -0 0 -1
    outer loop
      vertex -5.75398 -45.1679 0
      vertex -15.121 -50.5234 0
      vertex -6.48019 -43.9527 0
    endloop
  endfacet
  facet normal 0 0 -1
    outer loop
      vertex -16.3554 -48.7264 0
      vertex -6.48019 -43.9527 0
      vertex -15.121 -50.5234 0
    endloop
  endfacet
  facet normal -0 0 -1
    outer loop
      vertex -6.48019 -43.9527 0
      vertex -16.3554 -48.7264 0
      vertex -7.11079 -42.556 0
    endloop
  endfacet
  facet normal 0 0 -1
    outer loop
      vertex -17.4322 -46.7259 0
      vertex -7.11079 -42.556 0
      vertex -16.3554 -48.7264 0
    endloop
  endfacet
  facet normal -0 0 -1
    outer loop
      vertex -7.11079 -42.556 0
      vertex -17.4322 -46.7259 0
      vertex -7.64439 -40.9834 0
    endloop
  endfacet
  facet normal 0 0 -1
    outer loop
      vertex -18.3432 -44.5234 0
      vertex -7.64439 -40.9834 0
      vertex -17.4322 -46.7259 0
    endloop
  endfacet
  facet normal 0 -0 -1
    outer loop
      vertex -20.303 -26.8075 0
      vertex -8.8571 -30.4818 0
      vertex -20.4138 -30.4818 0
    endloop
  endfacet
  facet normal 0 0 -1
    outer loop
      vertex -19.0887 -42.119 0
      vertex -7.64439 -40.9834 0
      vertex -18.3432 -44.5234 0
    endloop
  endfacet
  facet normal 0 -0 -1
    outer loop
      vertex -19.9706 -23.4045 0
      vertex -8.8571 -30.4818 0
      vertex -20.303 -26.8075 0
    endloop
  endfacet
  facet normal -0 0 -1
    outer loop
      vertex -7.64439 -40.9834 0
      vertex -19.0887 -42.119 0
      vertex -8.08096 -39.2349 0
    endloop
  endfacet
  facet normal 0 -0 -1
    outer loop
      vertex -19.4164 -20.2729 0
      vertex -8.8571 -30.4818 0
      vertex -19.9706 -23.4045 0
    endloop
  endfacet
  facet normal 0 0 -1
    outer loop
      vertex -19.6684 -39.5126 0
      vertex -8.08096 -39.2349 0
      vertex -19.0887 -42.119 0
    endloop
  endfacet
  facet normal -0 0 -1
    outer loop
      vertex -8.08096 -39.2349 0
      vertex -19.6684 -39.5126 0
      vertex -8.42052 -37.3105 0
    endloop
  endfacet
  facet normal 0 -0 -1
    outer loop
      vertex -18.6407 -17.4126 0
      vertex -8.8571 -30.4818 0
      vertex -19.4164 -20.2729 0
    endloop
  endfacet
  facet normal 0 0 -1
    outer loop
      vertex -20.0826 -36.7043 0
      vertex -8.42052 -37.3105 0
      vertex -19.6684 -39.5126 0
    endloop
  endfacet
  facet normal 0 -0 -1
    outer loop
      vertex -17.6432 -14.8237 0
      vertex -8.8571 -30.4818 0
      vertex -18.6407 -17.4126 0
    endloop
  endfacet
  facet normal 0 0 -1
    outer loop
      vertex -8.42052 -37.3105 0
      vertex -20.0826 -36.7043 0
      vertex -8.66306 -35.2102 0
    endloop
  endfacet
  facet normal 0 0 -1
    outer loop
      vertex -8.80859 -32.934 0
      vertex -20.4138 -30.4818 0
      vertex -8.8571 -30.4818 0
    endloop
  endfacet
  facet normal 0 0 -1
    outer loop
      vertex -20.331 -33.694 0
      vertex -8.66306 -35.2102 0
      vertex -20.0826 -36.7043 0
    endloop
  endfacet
  facet normal 0 0 -1
    outer loop
      vertex -8.66306 -35.2102 0
      vertex -20.331 -33.694 0
      vertex -8.80859 -32.934 0
    endloop
  endfacet
  facet normal 0 0 -1
    outer loop
      vertex -20.4138 -30.4818 0
      vertex -8.80859 -32.934 0
      vertex -20.331 -33.694 0
    endloop
  endfacet
  facet normal 0 0 -1
    outer loop
      vertex -8.8571 -30.4818 0
      vertex -16.4242 -12.5062 0
      vertex -14.9835 -10.46 0
    endloop
  endfacet
  facet normal 0 -0 -1
    outer loop
      vertex -16.4242 -12.5062 0
      vertex -8.8571 -30.4818 0
      vertex -17.6432 -14.8237 0
    endloop
  endfacet
  facet normal 0 0 -1
    outer loop
      vertex -8.8571 -30.4818 0
      vertex -14.9835 -10.46 0
      vertex -13.3359 -8.68585 0
    endloop
  endfacet
  facet normal 0 0 -1
    outer loop
      vertex -8.8571 -30.4818 0
      vertex -11.4967 -7.18465 0
      vertex -9.46577 -5.95638 0
    endloop
  endfacet
  facet normal 0 0 -1
    outer loop
      vertex -8.8571 -30.4818 0
      vertex -13.3359 -8.68585 0
      vertex -11.4967 -7.18465 0
    endloop
  endfacet
  facet normal 0 0 -1
    outer loop
      vertex 9.91902 -32.934 0
      vertex 21.5245 -30.4818 0
      vertex 21.4483 -33.5694 0
    endloop
  endfacet
  facet normal 0 0 -1
    outer loop
      vertex 9.77464 -35.2102 0
      vertex 21.4483 -33.5694 0
      vertex 21.22 -36.4707 0
    endloop
  endfacet
  facet normal 0 0 -1
    outer loop
      vertex 21.5245 -30.4818 0
      vertex 9.96713 -30.4818 0
      vertex 21.414 -26.8075 0
    endloop
  endfacet
  facet normal 0 0 -1
    outer loop
      vertex 9.53403 -37.3105 0
      vertex 21.22 -36.4707 0
      vertex 20.8393 -39.186 0
    endloop
  endfacet
  facet normal 0 0 -1
    outer loop
      vertex 9.77545 -25.7748 0
      vertex 21.414 -26.8075 0
      vertex 9.96713 -30.4818 0
    endloop
  endfacet
  facet normal 0 0 -1
    outer loop
      vertex 9.53403 -37.3105 0
      vertex 20.8393 -39.186 0
      vertex 20.3065 -41.7151 0
    endloop
  endfacet
  facet normal 0 0 -1
    outer loop
      vertex 21.414 -26.8075 0
      vertex 9.77545 -25.7748 0
      vertex 21.0827 -23.4045 0
    endloop
  endfacet
  facet normal 0 0 -1
    outer loop
      vertex 9.19714 -39.2349 0
      vertex 20.3065 -41.7151 0
      vertex 19.6214 -44.058 0
    endloop
  endfacet
  facet normal 0 0 -1
    outer loop
      vertex 8.76404 -40.9834 0
      vertex 19.6214 -44.058 0
      vertex 18.784 -46.2148 0
    endloop
  endfacet
  facet normal 0 0 -1
    outer loop
      vertex 9.20041 -21.792 0
      vertex 21.0827 -23.4045 0
      vertex 9.77545 -25.7748 0
    endloop
  endfacet
  facet normal 0 0 -1
    outer loop
      vertex 8.23466 -42.556 0
      vertex 18.784 -46.2148 0
      vertex 17.7944 -48.1855 0
    endloop
  endfacet
  facet normal 0 0 -1
    outer loop
      vertex 21.0827 -23.4045 0
      vertex 9.20041 -21.792 0
      vertex 20.5305 -20.2729 0
    endloop
  endfacet
  facet normal 0 0 -1
    outer loop
      vertex 7.60905 -43.9527 0
      vertex 17.7944 -48.1855 0
      vertex 16.6588 -49.969 0
    endloop
  endfacet
  facet normal -0 0 -1
    outer loop
      vertex 20.5305 -20.2729 0
      vertex 9.20041 -21.792 0
      vertex 19.7574 -17.4126 0
    endloop
  endfacet
  facet normal 0 0 -1
    outer loop
      vertex 6.88814 -45.1679 0
      vertex 16.6588 -49.969 0
      vertex 15.3837 -51.5648 0
    endloop
  endfacet
  facet normal 0 0 -1
    outer loop
      vertex 8.24199 -18.5333 0
      vertex 19.7574 -17.4126 0
      vertex 9.20041 -21.792 0
    endloop
  endfacet
  facet normal 0 0 -1
    outer loop
      vertex 6.88814 -45.1679 0
      vertex 15.3837 -51.5648 0
      vertex 13.9689 -52.9728 0
    endloop
  endfacet
  facet normal -0 0 -1
    outer loop
      vertex 19.7574 -17.4126 0
      vertex 8.24199 -18.5333 0
      vertex 18.7634 -14.8237 0
    endloop
  endfacet
  facet normal 0 0 -1
    outer loop
      vertex 6.07256 -46.1962 0
      vertex 13.9689 -52.9728 0
      vertex 12.4145 -54.1931 0
    endloop
  endfacet
  facet normal 0 0 -1
    outer loop
      vertex 6.07256 -46.1962 0
      vertex 12.4145 -54.1931 0
      vertex 10.7205 -55.2257 0
    endloop
  endfacet
  facet normal -0 0 -1
    outer loop
      vertex 21.5245 -30.4818 0
      vertex 9.91902 -32.934 0
      vertex 9.96713 -30.4818 0
    endloop
  endfacet
  facet normal 0 0 -1
    outer loop
      vertex 6.90021 -15.9987 0
      vertex 17.5486 -12.5062 0
      vertex 8.24199 -18.5333 0
    endloop
  endfacet
  facet normal -0 0 -1
    outer loop
      vertex 18.7634 -14.8237 0
      vertex 8.24199 -18.5333 0
      vertex 17.5486 -12.5062 0
    endloop
  endfacet
  facet normal -0 0 -1
    outer loop
      vertex 21.4483 -33.5694 0
      vertex 9.77464 -35.2102 0
      vertex 9.91902 -32.934 0
    endloop
  endfacet
  facet normal -0 0 -1
    outer loop
      vertex 21.22 -36.4707 0
      vertex 9.53403 -37.3105 0
      vertex 9.77464 -35.2102 0
    endloop
  endfacet
  facet normal 0 0 -1
    outer loop
      vertex 20.3065 -41.7151 0
      vertex 9.19714 -39.2349 0
      vertex 9.53403 -37.3105 0
    endloop
  endfacet
  facet normal 0 0 -1
    outer loop
      vertex 6.07256 -46.1962 0
      vertex 10.7205 -55.2257 0
      vertex 8.88689 -56.0704 0
    endloop
  endfacet
  facet normal 0 0 -1
    outer loop
      vertex 19.6214 -44.058 0
      vertex 8.76404 -40.9834 0
      vertex 9.19714 -39.2349 0
    endloop
  endfacet
  facet normal 0 0 -1
    outer loop
      vertex 18.784 -46.2148 0
      vertex 8.23466 -42.556 0
      vertex 8.76404 -40.9834 0
    endloop
  endfacet
  facet normal 0 0 -1
    outer loop
      vertex 17.7944 -48.1855 0
      vertex 7.60905 -43.9527 0
      vertex 8.23466 -42.556 0
    endloop
  endfacet
  facet normal 0 0 -1
    outer loop
      vertex 4.15741 -47.6918 0
      vertex 8.88689 -56.0704 0
      vertex 6.91365 -56.7275 0
    endloop
  endfacet
  facet normal 0 0 -1
    outer loop
      vertex 16.6588 -49.969 0
      vertex 6.88814 -45.1679 0
      vertex 7.60905 -43.9527 0
    endloop
  endfacet
  facet normal -0 0 -1
    outer loop
      vertex 17.5486 -12.5062 0
      vertex 6.90021 -15.9987 0
      vertex 16.1129 -10.46 0
    endloop
  endfacet
  facet normal -0 0 -1
    outer loop
      vertex 16.1129 -10.46 0
      vertex 6.90021 -15.9987 0
      vertex 14.4706 -8.68585 0
    endloop
  endfacet
  facet normal -0 0 -1
    outer loop
      vertex 14.4706 -8.68585 0
      vertex 6.90021 -15.9987 0
      vertex 12.6359 -7.18465 0
    endloop
  endfacet
  facet normal 0 0 -1
    outer loop
      vertex 5.17506 -14.1883 0
      vertex 12.6359 -7.18465 0
      vertex 6.90021 -15.9987 0
    endloop
  endfacet
  facet normal -0 0 -1
    outer loop
      vertex 12.6359 -7.18465 0
      vertex 5.17506 -14.1883 0
      vertex 10.6086 -5.95638 0
    endloop
  endfacet
  facet normal -0 0 -1
    outer loop
      vertex 10.6086 -5.95638 0
      vertex 5.17506 -14.1883 0
      vertex 8.38889 -5.00105 0
    endloop
  endfacet
  facet normal 0 0 -1
    outer loop
      vertex 3.06656 -13.1021 0
      vertex 8.38889 -5.00105 0
      vertex 5.17506 -14.1883 0
    endloop
  endfacet
  facet normal -0 0 -1
    outer loop
      vertex 8.38889 -5.00105 0
      vertex 3.06656 -13.1021 0
      vertex 5.97665 -4.3187 0
    endloop
  endfacet
  facet normal -0 0 -1
    outer loop
      vertex 5.97665 -4.3187 0
      vertex 3.06656 -13.1021 0
      vertex 3.37192 -3.90927 0
    endloop
  endfacet
  facet normal 0 0 -1
    outer loop
      vertex 0.574677 -12.74 0
      vertex 3.37192 -3.90927 0
      vertex 3.06656 -13.1021 0
    endloop
  endfacet
  facet normal 0 0 -1
    outer loop
      vertex 0.574677 -12.74 0
      vertex 0.574677 -3.7728 0
      vertex 3.37192 -3.90927 0
    endloop
  endfacet
  facet normal 0 0 -1
    outer loop
      vertex -2.22295 -3.90927 0
      vertex 0.574677 -12.74 0
      vertex -1.92761 -13.1021 0
    endloop
  endfacet
  facet normal 0 0 -1
    outer loop
      vertex 0.574677 -12.74 0
      vertex -2.22295 -3.90927 0
      vertex 0.574677 -3.7728 0
    endloop
  endfacet
  facet normal 0 0 -1
    outer loop
      vertex -7.24318 -5.00105 0
      vertex -1.92761 -13.1021 0
      vertex -4.04495 -14.1883 0
    endloop
  endfacet
  facet normal 0 0 -1
    outer loop
      vertex -1.92761 -13.1021 0
      vertex -4.8289 -4.3187 0
      vertex -2.22295 -3.90927 0
    endloop
  endfacet
  facet normal 0 0 -1
    outer loop
      vertex -9.46577 -5.95638 0
      vertex -4.04495 -14.1883 0
      vertex -5.77733 -15.9987 0
    endloop
  endfacet
  facet normal 0 0 -1
    outer loop
      vertex -9.46577 -5.95638 0
      vertex -5.77733 -15.9987 0
      vertex -7.12473 -18.5333 0
    endloop
  endfacet
  facet normal 0 0 -1
    outer loop
      vertex -1.92761 -13.1021 0
      vertex -7.24318 -5.00105 0
      vertex -4.8289 -4.3187 0
    endloop
  endfacet
  facet normal 0 0 -1
    outer loop
      vertex -9.46577 -5.95638 0
      vertex -7.12473 -18.5333 0
      vertex -8.08716 -21.792 0
    endloop
  endfacet
  facet normal 0 0 -1
    outer loop
      vertex -9.46577 -5.95638 0
      vertex -8.08716 -21.792 0
      vertex -8.66461 -25.7748 0
    endloop
  endfacet
  facet normal 0 0 -1
    outer loop
      vertex -4.04495 -14.1883 0
      vertex -9.46577 -5.95638 0
      vertex -7.24318 -5.00105 0
    endloop
  endfacet
  facet normal 0 0 -1
    outer loop
      vertex -9.46577 -5.95638 0
      vertex -8.66461 -25.7748 0
      vertex -8.8571 -30.4818 0
    endloop
  endfacet
  facet normal 0 0 1
    outer loop
      vertex 21.414 -26.8075 1
      vertex 9.77545 -25.7748 1
      vertex 9.96713 -30.4818 1
    endloop
  endfacet
  facet normal 0 0 1
    outer loop
      vertex 12.6359 -7.18465 1
      vertex 9.20041 -21.792 1
      vertex 9.77545 -25.7748 1
    endloop
  endfacet
  facet normal 0 0 1
    outer loop
      vertex 5.17506 -14.1883 1
      vertex 10.6086 -5.95638 1
      vertex 8.38889 -5.00105 1
    endloop
  endfacet
  facet normal 0 0 1
    outer loop
      vertex 12.6359 -7.18465 1
      vertex 8.24199 -18.5333 1
      vertex 9.20041 -21.792 1
    endloop
  endfacet
  facet normal 0 0 1
    outer loop
      vertex 12.6359 -7.18465 1
      vertex 6.90021 -15.9987 1
      vertex 8.24199 -18.5333 1
    endloop
  endfacet
  facet normal 0 0 1
    outer loop
      vertex 3.06656 -13.1021 1
      vertex 8.38889 -5.00105 1
      vertex 5.97665 -4.3187 1
    endloop
  endfacet
  facet normal 0 0 1
    outer loop
      vertex 12.6359 -7.18465 1
      vertex 5.17506 -14.1883 1
      vertex 6.90021 -15.9987 1
    endloop
  endfacet
  facet normal 0 0 1
    outer loop
      vertex 3.06656 -13.1021 1
      vertex 5.97665 -4.3187 1
      vertex 3.37192 -3.90927 1
    endloop
  endfacet
  facet normal 0 0 1
    outer loop
      vertex 8.38889 -5.00105 1
      vertex 3.06656 -13.1021 1
      vertex 5.17506 -14.1883 1
    endloop
  endfacet
  facet normal 0 0 1
    outer loop
      vertex 0.574677 -12.74 1
      vertex 3.37192 -3.90927 1
      vertex 0.574677 -3.7728 1
    endloop
  endfacet
  facet normal 0 0 1
    outer loop
      vertex 3.37192 -3.90927 1
      vertex 0.574677 -12.74 1
      vertex 3.06656 -13.1021 1
    endloop
  endfacet
  facet normal -0 0 1
    outer loop
      vertex -2.22295 -3.90927 1
      vertex 0.574677 -12.74 1
      vertex 0.574677 -3.7728 1
    endloop
  endfacet
  facet normal 0 0 1
    outer loop
      vertex 0.574677 -12.74 1
      vertex -2.22295 -3.90927 1
      vertex -1.92761 -13.1021 1
    endloop
  endfacet
  facet normal -0 0 1
    outer loop
      vertex -4.8289 -4.3187 1
      vertex -1.92761 -13.1021 1
      vertex -2.22295 -3.90927 1
    endloop
  endfacet
  facet normal -0 0 1
    outer loop
      vertex -7.24318 -5.00105 1
      vertex -1.92761 -13.1021 1
      vertex -4.8289 -4.3187 1
    endloop
  endfacet
  facet normal 0 0 1
    outer loop
      vertex -1.92761 -13.1021 1
      vertex -7.24318 -5.00105 1
      vertex -4.04495 -14.1883 1
    endloop
  endfacet
  facet normal -0 0 1
    outer loop
      vertex -9.46577 -5.95638 1
      vertex -4.04495 -14.1883 1
      vertex -7.24318 -5.00105 1
    endloop
  endfacet
  facet normal -0 0 1
    outer loop
      vertex -11.4967 -7.18465 1
      vertex -4.04495 -14.1883 1
      vertex -9.46577 -5.95638 1
    endloop
  endfacet
  facet normal 0 0 1
    outer loop
      vertex -4.04495 -14.1883 1
      vertex -11.4967 -7.18465 1
      vertex -5.77733 -15.9987 1
    endloop
  endfacet
  facet normal -0 0 1
    outer loop
      vertex -13.3359 -8.68585 1
      vertex -5.77733 -15.9987 1
      vertex -11.4967 -7.18465 1
    endloop
  endfacet
  facet normal -0 0 1
    outer loop
      vertex -16.4242 -12.5062 1
      vertex -5.77733 -15.9987 1
      vertex -14.9835 -10.46 1
    endloop
  endfacet
  facet normal -0 0 1
    outer loop
      vertex -14.9835 -10.46 1
      vertex -5.77733 -15.9987 1
      vertex -13.3359 -8.68585 1
    endloop
  endfacet
  facet normal 0 0 1
    outer loop
      vertex 9.96713 -30.4818 1
      vertex 21.5245 -30.4818 1
      vertex 21.414 -26.8075 1
    endloop
  endfacet
  facet normal 0 0 1
    outer loop
      vertex 9.91902 -32.934 1
      vertex 21.5245 -30.4818 1
      vertex 9.96713 -30.4818 1
    endloop
  endfacet
  facet normal -0 0 1
    outer loop
      vertex 9.77545 -25.7748 1
      vertex 21.414 -26.8075 1
      vertex 21.0827 -23.4045 1
    endloop
  endfacet
  facet normal 0 0 1
    outer loop
      vertex 21.5245 -30.4818 1
      vertex 9.91902 -32.934 1
      vertex 21.4483 -33.5694 1
    endloop
  endfacet
  facet normal 0 0 1
    outer loop
      vertex 9.77545 -25.7748 1
      vertex 21.0827 -23.4045 1
      vertex 20.5305 -20.2729 1
    endloop
  endfacet
  facet normal 0 0 1
    outer loop
      vertex 9.77464 -35.2102 1
      vertex 21.4483 -33.5694 1
      vertex 9.91902 -32.934 1
    endloop
  endfacet
  facet normal 0 0 1
    outer loop
      vertex 9.77545 -25.7748 1
      vertex 20.5305 -20.2729 1
      vertex 19.7574 -17.4126 1
    endloop
  endfacet
  facet normal 0 0 1
    outer loop
      vertex 21.4483 -33.5694 1
      vertex 9.77464 -35.2102 1
      vertex 21.22 -36.4707 1
    endloop
  endfacet
  facet normal 0 0 1
    outer loop
      vertex 9.53403 -37.3105 1
      vertex 21.22 -36.4707 1
      vertex 9.77464 -35.2102 1
    endloop
  endfacet
  facet normal 0 0 1
    outer loop
      vertex 9.77545 -25.7748 1
      vertex 19.7574 -17.4126 1
      vertex 18.7634 -14.8237 1
    endloop
  endfacet
  facet normal 0 0 1
    outer loop
      vertex 21.22 -36.4707 1
      vertex 9.53403 -37.3105 1
      vertex 20.8393 -39.186 1
    endloop
  endfacet
  facet normal 0 0 1
    outer loop
      vertex 9.77545 -25.7748 1
      vertex 18.7634 -14.8237 1
      vertex 17.5486 -12.5062 1
    endloop
  endfacet
  facet normal 0 0 1
    outer loop
      vertex 20.8393 -39.186 1
      vertex 9.53403 -37.3105 1
      vertex 20.3065 -41.7151 1
    endloop
  endfacet
  facet normal 0 0 1
    outer loop
      vertex 9.77545 -25.7748 1
      vertex 17.5486 -12.5062 1
      vertex 16.1129 -10.46 1
    endloop
  endfacet
  facet normal -0 0 1
    outer loop
      vertex 9.19714 -39.2349 1
      vertex 20.3065 -41.7151 1
      vertex 9.53403 -37.3105 1
    endloop
  endfacet
  facet normal 0 0 1
    outer loop
      vertex 9.77545 -25.7748 1
      vertex 16.1129 -10.46 1
      vertex 14.4706 -8.68585 1
    endloop
  endfacet
  facet normal 0 0 1
    outer loop
      vertex 20.3065 -41.7151 1
      vertex 9.19714 -39.2349 1
      vertex 19.6214 -44.058 1
    endloop
  endfacet
  facet normal 0 0 1
    outer loop
      vertex 9.77545 -25.7748 1
      vertex 14.4706 -8.68585 1
      vertex 12.6359 -7.18465 1
    endloop
  endfacet
  facet normal -0 0 1
    outer loop
      vertex 8.76404 -40.9834 1
      vertex 19.6214 -44.058 1
      vertex 9.19714 -39.2349 1
    endloop
  endfacet
  facet normal 0 0 1
    outer loop
      vertex 19.6214 -44.058 1
      vertex 8.76404 -40.9834 1
      vertex 18.784 -46.2148 1
    endloop
  endfacet
  facet normal 0 0 1
    outer loop
      vertex 5.17506 -14.1883 1
      vertex 12.6359 -7.18465 1
      vertex 10.6086 -5.95638 1
    endloop
  endfacet
  facet normal -0 0 1
    outer loop
      vertex 8.23466 -42.556 1
      vertex 18.784 -46.2148 1
      vertex 8.76404 -40.9834 1
    endloop
  endfacet
  facet normal 0 0 1
    outer loop
      vertex 18.784 -46.2148 1
      vertex 8.23466 -42.556 1
      vertex 17.7944 -48.1855 1
    endloop
  endfacet
  facet normal -0 0 1
    outer loop
      vertex 7.60905 -43.9527 1
      vertex 17.7944 -48.1855 1
      vertex 8.23466 -42.556 1
    endloop
  endfacet
  facet normal 0 0 1
    outer loop
      vertex 17.7944 -48.1855 1
      vertex 7.60905 -43.9527 1
      vertex 16.6588 -49.969 1
    endloop
  endfacet
  facet normal -0 0 1
    outer loop
      vertex 6.88814 -45.1679 1
      vertex 16.6588 -49.969 1
      vertex 7.60905 -43.9527 1
    endloop
  endfacet
  facet normal 0 0 1
    outer loop
      vertex 16.6588 -49.969 1
      vertex 6.88814 -45.1679 1
      vertex 15.3837 -51.5648 1
    endloop
  endfacet
  facet normal 0 0 1
    outer loop
      vertex 15.3837 -51.5648 1
      vertex 6.88814 -45.1679 1
      vertex 13.9689 -52.9728 1
    endloop
  endfacet
  facet normal -0 0 1
    outer loop
      vertex 6.07256 -46.1962 1
      vertex 13.9689 -52.9728 1
      vertex 6.88814 -45.1679 1
    endloop
  endfacet
  facet normal 0 0 1
    outer loop
      vertex 13.9689 -52.9728 1
      vertex 6.07256 -46.1962 1
      vertex 12.4145 -54.1931 1
    endloop
  endfacet
  facet normal -0 0 1
    outer loop
      vertex 5.16232 -47.0375 1
      vertex 12.4145 -54.1931 1
      vertex 6.07256 -46.1962 1
    endloop
  endfacet
  facet normal 0 0 1
    outer loop
      vertex 12.4145 -54.1931 1
      vertex 5.16232 -47.0375 1
      vertex 10.7205 -55.2257 1
    endloop
  endfacet
  facet normal -0 0 1
    outer loop
      vertex 21.1143 -63.548 1
      vertex 21.9497 -71.2226 1
      vertex 21.9497 -63.4147 1
    endloop
  endfacet
  facet normal -0 0 1
    outer loop
      vertex 20.3311 -63.6607 1
      vertex 21.9497 -71.2226 1
      vertex 21.1143 -63.548 1
    endloop
  endfacet
  facet normal 0 0 1
    outer loop
      vertex 21.9497 -71.2226 1
      vertex 20.3311 -63.6607 1
      vertex 20.5661 -71.5096 1
    endloop
  endfacet
  facet normal -0 0 1
    outer loop
      vertex 19.5998 -63.7529 1
      vertex 20.5661 -71.5096 1
      vertex 20.3311 -63.6607 1
    endloop
  endfacet
  facet normal -0 0 1
    outer loop
      vertex 18.9206 -63.8247 1
      vertex 20.5661 -71.5096 1
      vertex 19.5998 -63.7529 1
    endloop
  endfacet
  facet normal 0 0 1
    outer loop
      vertex 20.5661 -71.5096 1
      vertex 18.9206 -63.8247 1
      vertex 19.1983 -71.7525 1
    endloop
  endfacet
  facet normal -0 0 1
    outer loop
      vertex 18.2935 -63.8759 1
      vertex 19.1983 -71.7525 1
      vertex 18.9206 -63.8247 1
    endloop
  endfacet
  facet normal -0 0 1
    outer loop
      vertex 17.7184 -63.9066 1
      vertex 19.1983 -71.7525 1
      vertex 18.2935 -63.8759 1
    endloop
  endfacet
  facet normal 0 0 1
    outer loop
      vertex 19.1983 -71.7525 1
      vertex 17.7184 -63.9066 1
      vertex 17.8462 -71.9512 1
    endloop
  endfacet
  facet normal -0 0 1
    outer loop
      vertex 17.1953 -63.9169 1
      vertex 17.8462 -71.9512 1
      vertex 17.7184 -63.9066 1
    endloop
  endfacet
  facet normal 0 0 1
    outer loop
      vertex 17.1953 -63.9169 1
      vertex 16.5099 -72.1057 1
      vertex 17.8462 -71.9512 1
    endloop
  endfacet
  facet normal 0 0 1
    outer loop
      vertex 16.0689 -63.8818 1
      vertex 16.5099 -72.1057 1
      vertex 17.1953 -63.9169 1
    endloop
  endfacet
  facet normal 0 0 1
    outer loop
      vertex 16.0689 -63.8818 1
      vertex 15.1893 -72.2161 1
      vertex 16.5099 -72.1057 1
    endloop
  endfacet
  facet normal 0 0 1
    outer loop
      vertex 15.0087 -63.7765 1
      vertex 15.1893 -72.2161 1
      vertex 16.0689 -63.8818 1
    endloop
  endfacet
  facet normal 0 0 1
    outer loop
      vertex 13.8845 -72.2824 1
      vertex 15.0087 -63.7765 1
      vertex 14.0147 -63.6009 1
    endloop
  endfacet
  facet normal 0 0 1
    outer loop
      vertex 15.0087 -63.7765 1
      vertex 13.8845 -72.2824 1
      vertex 15.1893 -72.2161 1
    endloop
  endfacet
  facet normal 0 0 1
    outer loop
      vertex 12.5954 -72.3045 1
      vertex 14.0147 -63.6009 1
      vertex 13.087 -63.3552 1
    endloop
  endfacet
  facet normal 0 0 1
    outer loop
      vertex 14.0147 -63.6009 1
      vertex 12.5954 -72.3045 1
      vertex 13.8845 -72.2824 1
    endloop
  endfacet
  facet normal 0 0 1
    outer loop
      vertex 10.8292 -72.2315 1
      vertex 13.087 -63.3552 1
      vertex 12.2256 -63.0392 1
    endloop
  endfacet
  facet normal 0 0 1
    outer loop
      vertex 9.15298 -72.0126 1
      vertex 12.2256 -63.0392 1
      vertex 11.4303 -62.653 1
    endloop
  endfacet
  facet normal 0 0 1
    outer loop
      vertex 13.087 -63.3552 1
      vertex 10.8292 -72.2315 1
      vertex 12.5954 -72.3045 1
    endloop
  endfacet
  facet normal 0 0 1
    outer loop
      vertex 7.56665 -71.6477 1
      vertex 11.4303 -62.653 1
      vertex 10.7013 -62.1966 1
    endloop
  endfacet
  facet normal 0 0 1
    outer loop
      vertex 4.66374 -70.4802 1
      vertex 10.7013 -62.1966 1
      vertex 10.0277 -61.6639 1
    endloop
  endfacet
  facet normal 0 0 1
    outer loop
      vertex 3.34717 -69.6775 1
      vertex 10.0277 -61.6639 1
      vertex 9.39821 -61.0483 1
    endloop
  endfacet
  facet normal 0 0 1
    outer loop
      vertex 12.2256 -63.0392 1
      vertex 9.15298 -72.0126 1
      vertex 10.8292 -72.2315 1
    endloop
  endfacet
  facet normal 0 0 1
    outer loop
      vertex 0.971176 -67.6139 1
      vertex 9.39821 -61.0483 1
      vertex 8.81294 -60.3498 1
    endloop
  endfacet
  facet normal 0 0 1
    outer loop
      vertex -0.113449 -66.312 1
      vertex 8.81294 -60.3498 1
      vertex 8.27185 -59.5685 1
    endloop
  endfacet
  facet normal 0 0 1
    outer loop
      vertex -1.13339 -64.8232 1
      vertex 8.27185 -59.5685 1
      vertex 7.77493 -58.7043 1
    endloop
  endfacet
  facet normal 0 0 1
    outer loop
      vertex 11.4303 -62.653 1
      vertex 7.56665 -71.6477 1
      vertex 9.15298 -72.0126 1
    endloop
  endfacet
  facet normal 0 0 1
    outer loop
      vertex -2.08862 -63.1474 1
      vertex 7.77493 -58.7043 1
      vertex 7.3222 -57.7573 1
    endloop
  endfacet
  facet normal 0 0 1
    outer loop
      vertex -2.97916 -61.2846 1
      vertex 7.3222 -57.7573 1
      vertex 6.91365 -56.7275 1
    endloop
  endfacet
  facet normal 0 0 1
    outer loop
      vertex 10.7205 -55.2257 1
      vertex 5.16232 -47.0375 1
      vertex 8.88689 -56.0704 1
    endloop
  endfacet
  facet normal -0 0 1
    outer loop
      vertex 4.15741 -47.6918 1
      vertex 8.88689 -56.0704 1
      vertex 5.16232 -47.0375 1
    endloop
  endfacet
  facet normal 0 0 1
    outer loop
      vertex 8.88689 -56.0704 1
      vertex 4.15741 -47.6918 1
      vertex 6.91365 -56.7275 1
    endloop
  endfacet
  facet normal -0 0 1
    outer loop
      vertex 3.05783 -48.1593 1
      vertex 6.91365 -56.7275 1
      vertex 4.15741 -47.6918 1
    endloop
  endfacet
  facet normal 0 0 1
    outer loop
      vertex 10.7013 -62.1966 1
      vertex 6.07024 -71.1369 1
      vertex 7.56665 -71.6477 1
    endloop
  endfacet
  facet normal 0 0 1
    outer loop
      vertex 10.7013 -62.1966 1
      vertex 4.66374 -70.4802 1
      vertex 6.07024 -71.1369 1
    endloop
  endfacet
  facet normal 0 0 1
    outer loop
      vertex 10.0277 -61.6639 1
      vertex 3.34717 -69.6775 1
      vertex 4.66374 -70.4802 1
    endloop
  endfacet
  facet normal -0 0 1
    outer loop
      vertex 1.86359 -48.4397 1
      vertex 6.91365 -56.7275 1
      vertex 3.05783 -48.1593 1
    endloop
  endfacet
  facet normal 0 0 1
    outer loop
      vertex 9.39821 -61.0483 1
      vertex 2.12051 -68.7288 1
      vertex 3.34717 -69.6775 1
    endloop
  endfacet
  facet normal -0 0 1
    outer loop
      vertex 0.574677 -48.5332 1
      vertex 6.91365 -56.7275 1
      vertex 1.86359 -48.4397 1
    endloop
  endfacet
  facet normal 0 0 1
    outer loop
      vertex 9.39821 -61.0483 1
      vertex 0.971176 -67.6139 1
      vertex 2.12051 -68.7288 1
    endloop
  endfacet
  facet normal 0 0 1
    outer loop
      vertex 6.91365 -56.7275 1
      vertex 0.574677 -48.5332 1
      vertex -4.56613 -56.9982 1
    endloop
  endfacet
  facet normal 0 0 1
    outer loop
      vertex 8.81294 -60.3498 1
      vertex -0.113449 -66.312 1
      vertex 0.971176 -67.6139 1
    endloop
  endfacet
  facet normal 0 0 1
    outer loop
      vertex -4.56613 -56.9982 1
      vertex 0.574677 -48.5332 1
      vertex -0.714767 -48.4397 1
    endloop
  endfacet
  facet normal 0 0 1
    outer loop
      vertex 8.27185 -59.5685 1
      vertex -1.13339 -64.8232 1
      vertex -0.113449 -66.312 1
    endloop
  endfacet
  facet normal 0 0 1
    outer loop
      vertex -4.56613 -56.9982 1
      vertex -0.714767 -48.4397 1
      vertex -1.91037 -48.1593 1
    endloop
  endfacet
  facet normal 0 0 1
    outer loop
      vertex 7.77493 -58.7043 1
      vertex -2.08862 -63.1474 1
      vertex -1.13339 -64.8232 1
    endloop
  endfacet
  facet normal 0 0 1
    outer loop
      vertex 7.3222 -57.7573 1
      vertex -2.97916 -61.2846 1
      vertex -2.08862 -63.1474 1
    endloop
  endfacet
  facet normal 0 0 1
    outer loop
      vertex -4.56613 -56.9982 1
      vertex -1.91037 -48.1593 1
      vertex -3.01208 -47.6918 1
    endloop
  endfacet
  facet normal 0 0 1
    outer loop
      vertex 6.91365 -56.7275 1
      vertex -3.80499 -59.2349 1
      vertex -2.97916 -61.2846 1
    endloop
  endfacet
  facet normal 0 0 1
    outer loop
      vertex -8.68401 -55.6604 1
      vertex -3.01208 -47.6918 1
      vertex -4.01993 -47.0375 1
    endloop
  endfacet
  facet normal 0 0 1
    outer loop
      vertex 6.91365 -56.7275 1
      vertex -4.56613 -56.9982 1
      vertex -3.80499 -59.2349 1
    endloop
  endfacet
  facet normal 0 0 1
    outer loop
      vertex -10.5181 -54.6838 1
      vertex -4.01993 -47.0375 1
      vertex -4.93388 -46.1962 1
    endloop
  endfacet
  facet normal 0 0 1
    outer loop
      vertex -12.2023 -53.5021 1
      vertex -4.93388 -46.1962 1
      vertex -5.75398 -45.1679 1
    endloop
  endfacet
  facet normal 0 0 1
    outer loop
      vertex -15.121 -50.5234 1
      vertex -5.75398 -45.1679 1
      vertex -6.48019 -43.9527 1
    endloop
  endfacet
  facet normal 0 0 1
    outer loop
      vertex -3.01208 -47.6918 1
      vertex -6.70001 -56.4319 1
      vertex -4.56613 -56.9982 1
    endloop
  endfacet
  facet normal 0 0 1
    outer loop
      vertex -16.3554 -48.7264 1
      vertex -6.48019 -43.9527 1
      vertex -7.11079 -42.556 1
    endloop
  endfacet
  facet normal 0 0 1
    outer loop
      vertex -17.4322 -46.7259 1
      vertex -7.11079 -42.556 1
      vertex -7.64439 -40.9834 1
    endloop
  endfacet
  facet normal 0 0 1
    outer loop
      vertex -19.0887 -42.119 1
      vertex -7.64439 -40.9834 1
      vertex -8.08096 -39.2349 1
    endloop
  endfacet
  facet normal 0 0 1
    outer loop
      vertex -19.6684 -39.5126 1
      vertex -8.08096 -39.2349 1
      vertex -8.42052 -37.3105 1
    endloop
  endfacet
  facet normal -0 0 1
    outer loop
      vertex -20.0826 -36.7043 1
      vertex -8.42052 -37.3105 1
      vertex -8.66306 -35.2102 1
    endloop
  endfacet
  facet normal 0 0 1
    outer loop
      vertex -3.01208 -47.6918 1
      vertex -8.68401 -55.6604 1
      vertex -6.70001 -56.4319 1
    endloop
  endfacet
  facet normal -0 0 1
    outer loop
      vertex -20.331 -33.694 1
      vertex -8.66306 -35.2102 1
      vertex -8.80859 -32.934 1
    endloop
  endfacet
  facet normal -0 0 1
    outer loop
      vertex -20.4138 -30.4818 1
      vertex -8.80859 -32.934 1
      vertex -8.8571 -30.4818 1
    endloop
  endfacet
  facet normal 0 0 1
    outer loop
      vertex -5.77733 -15.9987 1
      vertex -16.4242 -12.5062 1
      vertex -7.12473 -18.5333 1
    endloop
  endfacet
  facet normal 0 0 1
    outer loop
      vertex -8.80859 -32.934 1
      vertex -20.4138 -30.4818 1
      vertex -20.331 -33.694 1
    endloop
  endfacet
  facet normal -0 0 1
    outer loop
      vertex -17.6432 -14.8237 1
      vertex -7.12473 -18.5333 1
      vertex -16.4242 -12.5062 1
    endloop
  endfacet
  facet normal 0 0 1
    outer loop
      vertex -8.66306 -35.2102 1
      vertex -20.331 -33.694 1
      vertex -20.0826 -36.7043 1
    endloop
  endfacet
  facet normal -0 0 1
    outer loop
      vertex -18.6407 -17.4126 1
      vertex -7.12473 -18.5333 1
      vertex -17.6432 -14.8237 1
    endloop
  endfacet
  facet normal 0 0 1
    outer loop
      vertex -8.42052 -37.3105 1
      vertex -20.0826 -36.7043 1
      vertex -19.6684 -39.5126 1
    endloop
  endfacet
  facet normal 0 0 1
    outer loop
      vertex -7.12473 -18.5333 1
      vertex -18.6407 -17.4126 1
      vertex -8.08716 -21.792 1
    endloop
  endfacet
  facet normal 0 0 1
    outer loop
      vertex -8.08096 -39.2349 1
      vertex -19.6684 -39.5126 1
      vertex -19.0887 -42.119 1
    endloop
  endfacet
  facet normal 0 0 1
    outer loop
      vertex -7.64439 -40.9834 1
      vertex -19.0887 -42.119 1
      vertex -18.3432 -44.5234 1
    endloop
  endfacet
  facet normal -0 0 1
    outer loop
      vertex -19.4164 -20.2729 1
      vertex -8.08716 -21.792 1
      vertex -18.6407 -17.4126 1
    endloop
  endfacet
  facet normal 0 0 1
    outer loop
      vertex -7.64439 -40.9834 1
      vertex -18.3432 -44.5234 1
      vertex -17.4322 -46.7259 1
    endloop
  endfacet
  facet normal 0 0 1
    outer loop
      vertex -19.9706 -23.4045 1
      vertex -8.08716 -21.792 1
      vertex -19.4164 -20.2729 1
    endloop
  endfacet
  facet normal 0 0 1
    outer loop
      vertex -7.11079 -42.556 1
      vertex -17.4322 -46.7259 1
      vertex -16.3554 -48.7264 1
    endloop
  endfacet
  facet normal 0 0 1
    outer loop
      vertex -8.08716 -21.792 1
      vertex -19.9706 -23.4045 1
      vertex -8.66461 -25.7748 1
    endloop
  endfacet
  facet normal 0 0 1
    outer loop
      vertex -4.01993 -47.0375 1
      vertex -10.5181 -54.6838 1
      vertex -8.68401 -55.6604 1
    endloop
  endfacet
  facet normal 0 0 1
    outer loop
      vertex -20.303 -26.8075 1
      vertex -8.66461 -25.7748 1
      vertex -19.9706 -23.4045 1
    endloop
  endfacet
  facet normal 0 0 1
    outer loop
      vertex -5.75398 -45.1679 1
      vertex -15.121 -50.5234 1
      vertex -13.7366 -52.1153 1
    endloop
  endfacet
  facet normal 0 0 1
    outer loop
      vertex -8.66461 -25.7748 1
      vertex -20.303 -26.8075 1
      vertex -8.8571 -30.4818 1
    endloop
  endfacet
  facet normal 0 0 1
    outer loop
      vertex -5.75398 -45.1679 1
      vertex -13.7366 -52.1153 1
      vertex -12.2023 -53.5021 1
    endloop
  endfacet
  facet normal 0 0 1
    outer loop
      vertex -8.8571 -30.4818 1
      vertex -20.303 -26.8075 1
      vertex -20.4138 -30.4818 1
    endloop
  endfacet
  facet normal 0 0 1
    outer loop
      vertex -4.93388 -46.1962 1
      vertex -12.2023 -53.5021 1
      vertex -10.5181 -54.6838 1
    endloop
  endfacet
  facet normal 0 0 1
    outer loop
      vertex -6.48019 -43.9527 1
      vertex -16.3554 -48.7264 1
      vertex -15.121 -50.5234 1
    endloop
  endfacet
  facet normal 0.0507469 -0.998712 0
    outer loop
      vertex 13.8845 -72.2824 0
      vertex 15.1893 -72.2161 1
      vertex 13.8845 -72.2824 1
    endloop
  endfacet
  facet normal 0.0507469 -0.998712 0
    outer loop
      vertex 15.1893 -72.2161 1
      vertex 13.8845 -72.2824 0
      vertex 15.1893 -72.2161 0
    endloop
  endfacet
  facet normal 0.0833078 -0.996524 0
    outer loop
      vertex 15.1893 -72.2161 0
      vertex 16.5099 -72.1057 1
      vertex 15.1893 -72.2161 1
    endloop
  endfacet
  facet normal 0.0833078 -0.996524 0
    outer loop
      vertex 16.5099 -72.1057 1
      vertex 15.1893 -72.2161 0
      vertex 16.5099 -72.1057 0
    endloop
  endfacet
  facet normal 0.114853 -0.993383 0
    outer loop
      vertex 16.5099 -72.1057 0
      vertex 17.8462 -71.9512 1
      vertex 16.5099 -72.1057 1
    endloop
  endfacet
  facet normal 0.114853 -0.993383 0
    outer loop
      vertex 17.8462 -71.9512 1
      vertex 16.5099 -72.1057 0
      vertex 17.8462 -71.9512 0
    endloop
  endfacet
  facet normal 0.145395 -0.989374 0
    outer loop
      vertex 17.8462 -71.9512 0
      vertex 19.1983 -71.7525 1
      vertex 17.8462 -71.9512 1
    endloop
  endfacet
  facet normal 0.145395 -0.989374 0
    outer loop
      vertex 19.1983 -71.7525 1
      vertex 17.8462 -71.9512 0
      vertex 19.1983 -71.7525 0
    endloop
  endfacet
  facet normal 0.174849 -0.984595 0
    outer loop
      vertex 19.1983 -71.7525 0
      vertex 20.5661 -71.5096 1
      vertex 19.1983 -71.7525 1
    endloop
  endfacet
  facet normal 0.174849 -0.984595 0
    outer loop
      vertex 20.5661 -71.5096 1
      vertex 19.1983 -71.7525 0
      vertex 20.5661 -71.5096 0
    endloop
  endfacet
  facet normal 0.203106 -0.979157 0
    outer loop
      vertex 20.5661 -71.5096 0
      vertex 21.9497 -71.2226 1
      vertex 20.5661 -71.5096 1
    endloop
  endfacet
  facet normal 0.203106 -0.979157 0
    outer loop
      vertex 21.9497 -71.2226 1
      vertex 20.5661 -71.5096 0
      vertex 21.9497 -71.2226 0
    endloop
  endfacet
  facet normal 1 -0 0
    outer loop
      vertex 21.9497 -71.2226 1
      vertex 21.9497 -63.4147 0
      vertex 21.9497 -63.4147 1
    endloop
  endfacet
  facet normal 1 0 0
    outer loop
      vertex 21.9497 -63.4147 0
      vertex 21.9497 -71.2226 1
      vertex 21.9497 -71.2226 0
    endloop
  endfacet
  facet normal -0.157571 0.987508 0
    outer loop
      vertex 21.9497 -63.4147 0
      vertex 21.1143 -63.548 1
      vertex 21.9497 -63.4147 1
    endloop
  endfacet
  facet normal -0.157571 0.987508 0
    outer loop
      vertex 21.1143 -63.548 1
      vertex 21.9497 -63.4147 0
      vertex 21.1143 -63.548 0
    endloop
  endfacet
  facet normal -0.14243 0.989805 0
    outer loop
      vertex 21.1143 -63.548 0
      vertex 20.3311 -63.6607 1
      vertex 21.1143 -63.548 1
    endloop
  endfacet
  facet normal -0.14243 0.989805 0
    outer loop
      vertex 20.3311 -63.6607 1
      vertex 21.1143 -63.548 0
      vertex 20.3311 -63.6607 0
    endloop
  endfacet
  facet normal -0.125087 0.992146 0
    outer loop
      vertex 20.3311 -63.6607 0
      vertex 19.5998 -63.7529 1
      vertex 20.3311 -63.6607 1
    endloop
  endfacet
  facet normal -0.125087 0.992146 0
    outer loop
      vertex 19.5998 -63.7529 1
      vertex 20.3311 -63.6607 0
      vertex 19.5998 -63.7529 0
    endloop
  endfacet
  facet normal -0.105127 0.994459 0
    outer loop
      vertex 19.5998 -63.7529 0
      vertex 18.9206 -63.8247 1
      vertex 19.5998 -63.7529 1
    endloop
  endfacet
  facet normal -0.105127 0.994459 0
    outer loop
      vertex 18.9206 -63.8247 1
      vertex 19.5998 -63.7529 0
      vertex 18.9206 -63.8247 0
    endloop
  endfacet
  facet normal -0.0813749 0.996684 0
    outer loop
      vertex 18.9206 -63.8247 0
      vertex 18.2935 -63.8759 1
      vertex 18.9206 -63.8247 1
    endloop
  endfacet
  facet normal -0.0813749 0.996684 0
    outer loop
      vertex 18.2935 -63.8759 1
      vertex 18.9206 -63.8247 0
      vertex 18.2935 -63.8759 0
    endloop
  endfacet
  facet normal -0.0533061 0.998578 0
    outer loop
      vertex 18.2935 -63.8759 0
      vertex 17.7184 -63.9066 1
      vertex 18.2935 -63.8759 1
    endloop
  endfacet
  facet normal -0.0533061 0.998578 0
    outer loop
      vertex 17.7184 -63.9066 1
      vertex 18.2935 -63.8759 0
      vertex 17.7184 -63.9066 0
    endloop
  endfacet
  facet normal -0.0196865 0.999806 0
    outer loop
      vertex 17.7184 -63.9066 0
      vertex 17.1953 -63.9169 1
      vertex 17.7184 -63.9066 1
    endloop
  endfacet
  facet normal -0.0196865 0.999806 0
    outer loop
      vertex 17.1953 -63.9169 1
      vertex 17.7184 -63.9066 0
      vertex 17.1953 -63.9169 0
    endloop
  endfacet
  facet normal 0.0311461 0.999515 -0
    outer loop
      vertex 17.1953 -63.9169 0
      vertex 16.0689 -63.8818 1
      vertex 17.1953 -63.9169 1
    endloop
  endfacet
  facet normal 0.0311461 0.999515 0
    outer loop
      vertex 16.0689 -63.8818 1
      vertex 17.1953 -63.9169 0
      vertex 16.0689 -63.8818 0
    endloop
  endfacet
  facet normal 0.0988346 0.995104 -0
    outer loop
      vertex 16.0689 -63.8818 0
      vertex 15.0087 -63.7765 1
      vertex 16.0689 -63.8818 1
    endloop
  endfacet
  facet normal 0.0988346 0.995104 0
    outer loop
      vertex 15.0087 -63.7765 1
      vertex 16.0689 -63.8818 0
      vertex 15.0087 -63.7765 0
    endloop
  endfacet
  facet normal 0.173966 0.984752 -0
    outer loop
      vertex 15.0087 -63.7765 0
      vertex 14.0147 -63.6009 1
      vertex 15.0087 -63.7765 1
    endloop
  endfacet
  facet normal 0.173966 0.984752 0
    outer loop
      vertex 14.0147 -63.6009 1
      vertex 15.0087 -63.7765 0
      vertex 14.0147 -63.6009 0
    endloop
  endfacet
  facet normal 0.256021 0.966671 -0
    outer loop
      vertex 14.0147 -63.6009 0
      vertex 13.087 -63.3552 1
      vertex 14.0147 -63.6009 1
    endloop
  endfacet
  facet normal 0.256021 0.966671 0
    outer loop
      vertex 13.087 -63.3552 1
      vertex 14.0147 -63.6009 0
      vertex 13.087 -63.3552 0
    endloop
  endfacet
  facet normal 0.344402 0.938822 -0
    outer loop
      vertex 13.087 -63.3552 0
      vertex 12.2256 -63.0392 1
      vertex 13.087 -63.3552 1
    endloop
  endfacet
  facet normal 0.344402 0.938822 0
    outer loop
      vertex 12.2256 -63.0392 1
      vertex 13.087 -63.3552 0
      vertex 12.2256 -63.0392 0
    endloop
  endfacet
  facet normal 0.436823 0.899548 -0
    outer loop
      vertex 12.2256 -63.0392 0
      vertex 11.4303 -62.653 1
      vertex 12.2256 -63.0392 1
    endloop
  endfacet
  facet normal 0.436823 0.899548 0
    outer loop
      vertex 11.4303 -62.653 1
      vertex 12.2256 -63.0392 0
      vertex 11.4303 -62.653 0
    endloop
  endfacet
  facet normal 0.530647 0.847593 -0
    outer loop
      vertex 11.4303 -62.653 0
      vertex 10.7013 -62.1966 1
      vertex 11.4303 -62.653 1
    endloop
  endfacet
  facet normal 0.530647 0.847593 0
    outer loop
      vertex 10.7013 -62.1966 1
      vertex 11.4303 -62.653 0
      vertex 10.7013 -62.1966 0
    endloop
  endfacet
  facet normal 0.620297 0.784367 -0
    outer loop
      vertex 10.7013 -62.1966 0
      vertex 10.0277 -61.6639 1
      vertex 10.7013 -62.1966 1
    endloop
  endfacet
  facet normal 0.620297 0.784367 0
    outer loop
      vertex 10.0277 -61.6639 1
      vertex 10.7013 -62.1966 0
      vertex 10.0277 -61.6639 0
    endloop
  endfacet
  facet normal 0.699175 0.714951 -0
    outer loop
      vertex 10.0277 -61.6639 0
      vertex 9.39821 -61.0483 1
      vertex 10.0277 -61.6639 1
    endloop
  endfacet
  facet normal 0.699175 0.714951 0
    outer loop
      vertex 9.39821 -61.0483 1
      vertex 10.0277 -61.6639 0
      vertex 9.39821 -61.0483 0
    endloop
  endfacet
  facet normal 0.766499 0.642246 0
    outer loop
      vertex 9.39821 -61.0483 1
      vertex 8.81294 -60.3498 0
      vertex 8.81294 -60.3498 1
    endloop
  endfacet
  facet normal 0.766499 0.642246 0
    outer loop
      vertex 8.81294 -60.3498 0
      vertex 9.39821 -61.0483 1
      vertex 9.39821 -61.0483 0
    endloop
  endfacet
  facet normal 0.822099 0.569345 0
    outer loop
      vertex 8.81294 -60.3498 1
      vertex 8.27185 -59.5685 0
      vertex 8.27185 -59.5685 1
    endloop
  endfacet
  facet normal 0.822099 0.569345 0
    outer loop
      vertex 8.27185 -59.5685 0
      vertex 8.81294 -60.3498 1
      vertex 8.81294 -60.3498 0
    endloop
  endfacet
  facet normal 0.866904 0.498475 0
    outer loop
      vertex 8.27185 -59.5685 1
      vertex 7.77493 -58.7043 0
      vertex 7.77493 -58.7043 1
    endloop
  endfacet
  facet normal 0.866904 0.498475 0
    outer loop
      vertex 7.77493 -58.7043 0
      vertex 8.27185 -59.5685 1
      vertex 8.27185 -59.5685 0
    endloop
  endfacet
  facet normal 0.902202 0.431314 0
    outer loop
      vertex 7.77493 -58.7043 1
      vertex 7.3222 -57.7573 0
      vertex 7.3222 -57.7573 1
    endloop
  endfacet
  facet normal 0.902202 0.431314 0
    outer loop
      vertex 7.3222 -57.7573 0
      vertex 7.77493 -58.7043 1
      vertex 7.77493 -58.7043 0
    endloop
  endfacet
  facet normal 0.929522 0.368767 0
    outer loop
      vertex 7.3222 -57.7573 1
      vertex 6.91365 -56.7275 0
      vertex 6.91365 -56.7275 1
    endloop
  endfacet
  facet normal 0.929522 0.368767 0
    outer loop
      vertex 6.91365 -56.7275 0
      vertex 7.3222 -57.7573 1
      vertex 7.3222 -57.7573 0
    endloop
  endfacet
  facet normal 0.315948 -0.948777 0
    outer loop
      vertex 6.91365 -56.7275 0
      vertex 8.88689 -56.0704 1
      vertex 6.91365 -56.7275 1
    endloop
  endfacet
  facet normal 0.315948 -0.948777 0
    outer loop
      vertex 8.88689 -56.0704 1
      vertex 6.91365 -56.7275 0
      vertex 8.88689 -56.0704 0
    endloop
  endfacet
  facet normal 0.418412 -0.908257 0
    outer loop
      vertex 8.88689 -56.0704 0
      vertex 10.7205 -55.2257 1
      vertex 8.88689 -56.0704 1
    endloop
  endfacet
  facet normal 0.418412 -0.908257 0
    outer loop
      vertex 10.7205 -55.2257 1
      vertex 8.88689 -56.0704 0
      vertex 10.7205 -55.2257 0
    endloop
  endfacet
  facet normal 0.520487 -0.853869 0
    outer loop
      vertex 10.7205 -55.2257 0
      vertex 12.4145 -54.1931 1
      vertex 10.7205 -55.2257 1
    endloop
  endfacet
  facet normal 0.520487 -0.853869 0
    outer loop
      vertex 12.4145 -54.1931 1
      vertex 10.7205 -55.2257 0
      vertex 12.4145 -54.1931 0
    endloop
  endfacet
  facet normal 0.617504 -0.786568 0
    outer loop
      vertex 12.4145 -54.1931 0
      vertex 13.9689 -52.9728 1
      vertex 12.4145 -54.1931 1
    endloop
  endfacet
  facet normal 0.617504 -0.786568 0
    outer loop
      vertex 13.9689 -52.9728 1
      vertex 12.4145 -54.1931 0
      vertex 13.9689 -52.9728 0
    endloop
  endfacet
  facet normal 0.705401 -0.708808 0
    outer loop
      vertex 13.9689 -52.9728 0
      vertex 15.3837 -51.5648 1
      vertex 13.9689 -52.9728 1
    endloop
  endfacet
  facet normal 0.705401 -0.708808 0
    outer loop
      vertex 15.3837 -51.5648 1
      vertex 13.9689 -52.9728 0
      vertex 15.3837 -51.5648 0
    endloop
  endfacet
  facet normal 0.781236 -0.624235 0
    outer loop
      vertex 15.3837 -51.5648 1
      vertex 16.6588 -49.969 0
      vertex 16.6588 -49.969 1
    endloop
  endfacet
  facet normal 0.781236 -0.624235 0
    outer loop
      vertex 16.6588 -49.969 0
      vertex 15.3837 -51.5648 1
      vertex 15.3837 -51.5648 0
    endloop
  endfacet
  facet normal 0.843523 -0.537093 0
    outer loop
      vertex 16.6588 -49.969 1
      vertex 17.7944 -48.1855 0
      vertex 17.7944 -48.1855 1
    endloop
  endfacet
  facet normal 0.843523 -0.537093 0
    outer loop
      vertex 17.7944 -48.1855 0
      vertex 16.6588 -49.969 1
      vertex 16.6588 -49.969 0
    endloop
  endfacet
  facet normal 0.893655 -0.448755 0
    outer loop
      vertex 17.7944 -48.1855 1
      vertex 18.784 -46.2148 0
      vertex 18.784 -46.2148 1
    endloop
  endfacet
  facet normal 0.893655 -0.448755 0
    outer loop
      vertex 18.784 -46.2148 0
      vertex 17.7944 -48.1855 1
      vertex 17.7944 -48.1855 0
    endloop
  endfacet
  facet normal 0.932202 -0.361937 0
    outer loop
      vertex 18.784 -46.2148 1
      vertex 19.6214 -44.058 0
      vertex 19.6214 -44.058 1
    endloop
  endfacet
  facet normal 0.932202 -0.361937 0
    outer loop
      vertex 19.6214 -44.058 0
      vertex 18.784 -46.2148 1
      vertex 18.784 -46.2148 0
    endloop
  endfacet
  facet normal 0.959807 -0.280662 0
    outer loop
      vertex 19.6214 -44.058 1
      vertex 20.3065 -41.7151 0
      vertex 20.3065 -41.7151 1
    endloop
  endfacet
  facet normal 0.959807 -0.280662 0
    outer loop
      vertex 20.3065 -41.7151 0
      vertex 19.6214 -44.058 1
      vertex 19.6214 -44.058 0
    endloop
  endfacet
  facet normal 0.978522 -0.206143 0
    outer loop
      vertex 20.3065 -41.7151 1
      vertex 20.8393 -39.186 0
      vertex 20.8393 -39.186 1
    endloop
  endfacet
  facet normal 0.978522 -0.206143 0
    outer loop
      vertex 20.8393 -39.186 0
      vertex 20.3065 -41.7151 1
      vertex 20.3065 -41.7151 0
    endloop
  endfacet
  facet normal 0.990314 -0.138847 0
    outer loop
      vertex 20.8393 -39.186 1
      vertex 21.22 -36.4707 0
      vertex 21.22 -36.4707 1
    endloop
  endfacet
  facet normal 0.990314 -0.138847 0
    outer loop
      vertex 21.22 -36.4707 0
      vertex 20.8393 -39.186 1
      vertex 20.8393 -39.186 0
    endloop
  endfacet
  facet normal 0.996918 -0.0784464 0
    outer loop
      vertex 21.22 -36.4707 1
      vertex 21.4483 -33.5694 0
      vertex 21.4483 -33.5694 1
    endloop
  endfacet
  facet normal 0.996918 -0.0784464 0
    outer loop
      vertex 21.4483 -33.5694 0
      vertex 21.22 -36.4707 1
      vertex 21.22 -36.4707 0
    endloop
  endfacet
  facet normal 0.999696 -0.0246719 0
    outer loop
      vertex 21.4483 -33.5694 1
      vertex 21.5245 -30.4818 0
      vertex 21.5245 -30.4818 1
    endloop
  endfacet
  facet normal 0.999696 -0.0246719 0
    outer loop
      vertex 21.5245 -30.4818 0
      vertex 21.4483 -33.5694 1
      vertex 21.4483 -33.5694 0
    endloop
  endfacet
  facet normal 0.999548 0.0300602 0
    outer loop
      vertex 21.5245 -30.4818 1
      vertex 21.414 -26.8075 0
      vertex 21.414 -26.8075 1
    endloop
  endfacet
  facet normal 0.999548 0.0300602 0
    outer loop
      vertex 21.414 -26.8075 0
      vertex 21.5245 -30.4818 1
      vertex 21.5245 -30.4818 0
    endloop
  endfacet
  facet normal 0.995294 0.0968972 0
    outer loop
      vertex 21.414 -26.8075 1
      vertex 21.0827 -23.4045 0
      vertex 21.0827 -23.4045 1
    endloop
  endfacet
  facet normal 0.995294 0.0968972 0
    outer loop
      vertex 21.0827 -23.4045 0
      vertex 21.414 -26.8075 1
      vertex 21.414 -26.8075 0
    endloop
  endfacet
  facet normal 0.984807 0.173653 0
    outer loop
      vertex 21.0827 -23.4045 1
      vertex 20.5305 -20.2729 0
      vertex 20.5305 -20.2729 1
    endloop
  endfacet
  facet normal 0.984807 0.173653 0
    outer loop
      vertex 20.5305 -20.2729 0
      vertex 21.0827 -23.4045 1
      vertex 21.0827 -23.4045 0
    endloop
  endfacet
  facet normal 0.965359 0.260923 0
    outer loop
      vertex 20.5305 -20.2729 1
      vertex 19.7574 -17.4126 0
      vertex 19.7574 -17.4126 1
    endloop
  endfacet
  facet normal 0.965359 0.260923 0
    outer loop
      vertex 19.7574 -17.4126 0
      vertex 20.5305 -20.2729 1
      vertex 20.5305 -20.2729 0
    endloop
  endfacet
  facet normal 0.933555 0.358435 0
    outer loop
      vertex 19.7574 -17.4126 1
      vertex 18.7634 -14.8237 0
      vertex 18.7634 -14.8237 1
    endloop
  endfacet
  facet normal 0.933555 0.358435 0
    outer loop
      vertex 18.7634 -14.8237 0
      vertex 19.7574 -17.4126 1
      vertex 19.7574 -17.4126 0
    endloop
  endfacet
  facet normal 0.885695 0.464268 0
    outer loop
      vertex 18.7634 -14.8237 1
      vertex 17.5486 -12.5062 0
      vertex 17.5486 -12.5062 1
    endloop
  endfacet
  facet normal 0.885695 0.464268 0
    outer loop
      vertex 17.5486 -12.5062 0
      vertex 18.7634 -14.8237 1
      vertex 18.7634 -14.8237 0
    endloop
  endfacet
  facet normal 0.8186 0.574364 0
    outer loop
      vertex 17.5486 -12.5062 1
      vertex 16.1129 -10.46 0
      vertex 16.1129 -10.46 1
    endloop
  endfacet
  facet normal 0.8186 0.574364 0
    outer loop
      vertex 16.1129 -10.46 0
      vertex 17.5486 -12.5062 1
      vertex 17.5486 -12.5062 0
    endloop
  endfacet
  facet normal 0.73385 0.679312 0
    outer loop
      vertex 16.1129 -10.46 1
      vertex 14.4706 -8.68585 0
      vertex 14.4706 -8.68585 1
    endloop
  endfacet
  facet normal 0.73385 0.679312 0
    outer loop
      vertex 14.4706 -8.68585 0
      vertex 16.1129 -10.46 1
      vertex 16.1129 -10.46 0
    endloop
  endfacet
  facet normal 0.633258 0.77394 -0
    outer loop
      vertex 14.4706 -8.68585 0
      vertex 12.6359 -7.18465 1
      vertex 14.4706 -8.68585 1
    endloop
  endfacet
  facet normal 0.633258 0.77394 0
    outer loop
      vertex 12.6359 -7.18465 1
      vertex 14.4706 -8.68585 0
      vertex 12.6359 -7.18465 0
    endloop
  endfacet
  facet normal 0.518179 0.855272 -0
    outer loop
      vertex 12.6359 -7.18465 0
      vertex 10.6086 -5.95638 1
      vertex 12.6359 -7.18465 1
    endloop
  endfacet
  facet normal 0.518179 0.855272 0
    outer loop
      vertex 10.6086 -5.95638 1
      vertex 12.6359 -7.18465 0
      vertex 10.6086 -5.95638 0
    endloop
  endfacet
  facet normal 0.395326 0.918541 -0
    outer loop
      vertex 10.6086 -5.95638 0
      vertex 8.38889 -5.00105 1
      vertex 10.6086 -5.95638 1
    endloop
  endfacet
  facet normal 0.395326 0.918541 0
    outer loop
      vertex 8.38889 -5.00105 1
      vertex 10.6086 -5.95638 0
      vertex 8.38889 -5.00105 0
    endloop
  endfacet
  facet normal 0.27219 0.962244 -0
    outer loop
      vertex 8.38889 -5.00105 0
      vertex 5.97665 -4.3187 1
      vertex 8.38889 -5.00105 1
    endloop
  endfacet
  facet normal 0.27219 0.962244 0
    outer loop
      vertex 5.97665 -4.3187 1
      vertex 8.38889 -5.00105 0
      vertex 5.97665 -4.3187 0
    endloop
  endfacet
  facet normal 0.155281 0.98787 -0
    outer loop
      vertex 5.97665 -4.3187 0
      vertex 3.37192 -3.90927 1
      vertex 5.97665 -4.3187 1
    endloop
  endfacet
  facet normal 0.155281 0.98787 0
    outer loop
      vertex 3.37192 -3.90927 1
      vertex 5.97665 -4.3187 0
      vertex 3.37192 -3.90927 0
    endloop
  endfacet
  facet normal 0.0487294 0.998812 -0
    outer loop
      vertex 3.37192 -3.90927 0
      vertex 0.574677 -3.7728 1
      vertex 3.37192 -3.90927 1
    endloop
  endfacet
  facet normal 0.0487294 0.998812 0
    outer loop
      vertex 0.574677 -3.7728 1
      vertex 3.37192 -3.90927 0
      vertex 0.574677 -3.7728 0
    endloop
  endfacet
  facet normal -0.0487227 0.998812 0
    outer loop
      vertex 0.574677 -3.7728 0
      vertex -2.22295 -3.90927 1
      vertex 0.574677 -3.7728 1
    endloop
  endfacet
  facet normal -0.0487227 0.998812 0
    outer loop
      vertex -2.22295 -3.90927 1
      vertex 0.574677 -3.7728 0
      vertex -2.22295 -3.90927 0
    endloop
  endfacet
  facet normal -0.15521 0.987882 0
    outer loop
      vertex -2.22295 -3.90927 0
      vertex -4.8289 -4.3187 1
      vertex -2.22295 -3.90927 1
    endloop
  endfacet
  facet normal -0.15521 0.987882 0
    outer loop
      vertex -4.8289 -4.3187 1
      vertex -2.22295 -3.90927 0
      vertex -4.8289 -4.3187 0
    endloop
  endfacet
  facet normal -0.271977 0.962304 0
    outer loop
      vertex -4.8289 -4.3187 0
      vertex -7.24318 -5.00105 1
      vertex -4.8289 -4.3187 1
    endloop
  endfacet
  facet normal -0.271977 0.962304 0
    outer loop
      vertex -7.24318 -5.00105 1
      vertex -4.8289 -4.3187 0
      vertex -7.24318 -5.00105 0
    endloop
  endfacet
  facet normal -0.394894 0.918727 0
    outer loop
      vertex -7.24318 -5.00105 0
      vertex -9.46577 -5.95638 1
      vertex -7.24318 -5.00105 1
    endloop
  endfacet
  facet normal -0.394894 0.918727 0
    outer loop
      vertex -9.46577 -5.95638 1
      vertex -7.24318 -5.00105 0
      vertex -9.46577 -5.95638 0
    endloop
  endfacet
  facet normal -0.517501 0.855682 0
    outer loop
      vertex -9.46577 -5.95638 0
      vertex -11.4967 -7.18465 1
      vertex -9.46577 -5.95638 1
    endloop
  endfacet
  facet normal -0.517501 0.855682 0
    outer loop
      vertex -11.4967 -7.18465 1
      vertex -9.46577 -5.95638 0
      vertex -11.4967 -7.18465 0
    endloop
  endfacet
  facet normal -0.632329 0.7747 0
    outer loop
      vertex -11.4967 -7.18465 0
      vertex -13.3359 -8.68585 1
      vertex -11.4967 -7.18465 1
    endloop
  endfacet
  facet normal -0.632329 0.7747 0
    outer loop
      vertex -13.3359 -8.68585 1
      vertex -11.4967 -7.18465 0
      vertex -13.3359 -8.68585 0
    endloop
  endfacet
  facet normal -0.732757 0.68049 0
    outer loop
      vertex -14.9835 -10.46 0
      vertex -13.3359 -8.68585 1
      vertex -13.3359 -8.68585 0
    endloop
  endfacet
  facet normal -0.732757 0.68049 0
    outer loop
      vertex -13.3359 -8.68585 1
      vertex -14.9835 -10.46 0
      vertex -14.9835 -10.46 1
    endloop
  endfacet
  facet normal -0.817659 0.575702 0
    outer loop
      vertex -16.4242 -12.5062 0
      vertex -14.9835 -10.46 1
      vertex -14.9835 -10.46 0
    endloop
  endfacet
  facet normal -0.817659 0.575702 0
    outer loop
      vertex -14.9835 -10.46 1
      vertex -16.4242 -12.5062 0
      vertex -16.4242 -12.5062 1
    endloop
  endfacet
  facet normal -0.885034 0.465526 0
    outer loop
      vertex -17.6432 -14.8237 0
      vertex -16.4242 -12.5062 1
      vertex -16.4242 -12.5062 0
    endloop
  endfacet
  facet normal -0.885034 0.465526 0
    outer loop
      vertex -16.4242 -12.5062 1
      vertex -17.6432 -14.8237 0
      vertex -17.6432 -14.8237 1
    endloop
  endfacet
  facet normal -0.933132 0.359535 0
    outer loop
      vertex -18.6407 -17.4126 0
      vertex -17.6432 -14.8237 1
      vertex -17.6432 -14.8237 0
    endloop
  endfacet
  facet normal -0.933132 0.359535 0
    outer loop
      vertex -17.6432 -14.8237 1
      vertex -18.6407 -17.4126 0
      vertex -18.6407 -17.4126 1
    endloop
  endfacet
  facet normal -0.965138 0.261741 0
    outer loop
      vertex -19.4164 -20.2729 0
      vertex -18.6407 -17.4126 1
      vertex -18.6407 -17.4126 0
    endloop
  endfacet
  facet normal -0.965138 0.261741 0
    outer loop
      vertex -18.6407 -17.4126 1
      vertex -19.4164 -20.2729 0
      vertex -19.4164 -20.2729 1
    endloop
  endfacet
  facet normal -0.984699 0.174262 0
    outer loop
      vertex -19.9706 -23.4045 0
      vertex -19.4164 -20.2729 1
      vertex -19.4164 -20.2729 0
    endloop
  endfacet
  facet normal -0.984699 0.174262 0
    outer loop
      vertex -19.4164 -20.2729 1
      vertex -19.9706 -23.4045 0
      vertex -19.9706 -23.4045 1
    endloop
  endfacet
  facet normal -0.995263 0.0972158 0
    outer loop
      vertex -20.303 -26.8075 0
      vertex -19.9706 -23.4045 1
      vertex -19.9706 -23.4045 0
    endloop
  endfacet
  facet normal -0.995263 0.0972158 0
    outer loop
      vertex -19.9706 -23.4045 1
      vertex -20.303 -26.8075 0
      vertex -20.303 -26.8075 1
    endloop
  endfacet
  facet normal -0.999546 0.0301417 0
    outer loop
      vertex -20.4138 -30.4818 0
      vertex -20.303 -26.8075 1
      vertex -20.303 -26.8075 0
    endloop
  endfacet
  facet normal -0.999546 0.0301417 0
    outer loop
      vertex -20.303 -26.8075 1
      vertex -20.4138 -30.4818 0
      vertex -20.4138 -30.4818 1
    endloop
  endfacet
  facet normal -0.999668 -0.0257682 0
    outer loop
      vertex -20.331 -33.694 0
      vertex -20.4138 -30.4818 1
      vertex -20.4138 -30.4818 0
    endloop
  endfacet
  facet normal -0.999668 -0.0257682 0
    outer loop
      vertex -20.4138 -30.4818 1
      vertex -20.331 -33.694 0
      vertex -20.331 -33.694 1
    endloop
  endfacet
  facet normal -0.996613 -0.0822372 0
    outer loop
      vertex -20.0826 -36.7043 0
      vertex -20.331 -33.694 1
      vertex -20.331 -33.694 0
    endloop
  endfacet
  facet normal -0.996613 -0.0822372 0
    outer loop
      vertex -20.331 -33.694 1
      vertex -20.0826 -36.7043 0
      vertex -20.0826 -36.7043 1
    endloop
  endfacet
  facet normal -0.989297 -0.145913 0
    outer loop
      vertex -19.6684 -39.5126 0
      vertex -20.0826 -36.7043 1
      vertex -20.0826 -36.7043 0
    endloop
  endfacet
  facet normal -0.989297 -0.145913 0
    outer loop
      vertex -20.0826 -36.7043 1
      vertex -19.6684 -39.5126 0
      vertex -19.6684 -39.5126 1
    endloop
  endfacet
  facet normal -0.976147 -0.217109 0
    outer loop
      vertex -19.0887 -42.119 0
      vertex -19.6684 -39.5126 1
      vertex -19.6684 -39.5126 0
    endloop
  endfacet
  facet normal -0.976147 -0.217109 0
    outer loop
      vertex -19.6684 -39.5126 1
      vertex -19.0887 -42.119 0
      vertex -19.0887 -42.119 1
    endloop
  endfacet
  facet normal -0.955142 -0.296148 0
    outer loop
      vertex -18.3432 -44.5234 0
      vertex -19.0887 -42.119 1
      vertex -19.0887 -42.119 0
    endloop
  endfacet
  facet normal -0.955142 -0.296148 0
    outer loop
      vertex -19.0887 -42.119 1
      vertex -18.3432 -44.5234 0
      vertex -18.3432 -44.5234 1
    endloop
  endfacet
  facet normal -0.924073 -0.382216 0
    outer loop
      vertex -17.4322 -46.7259 0
      vertex -18.3432 -44.5234 1
      vertex -18.3432 -44.5234 0
    endloop
  endfacet
  facet normal -0.924073 -0.382216 0
    outer loop
      vertex -18.3432 -44.5234 1
      vertex -17.4322 -46.7259 0
      vertex -17.4322 -46.7259 1
    endloop
  endfacet
  facet normal -0.880543 -0.473966 0
    outer loop
      vertex -16.3554 -48.7264 0
      vertex -17.4322 -46.7259 1
      vertex -17.4322 -46.7259 0
    endloop
  endfacet
  facet normal -0.880543 -0.473966 0
    outer loop
      vertex -17.4322 -46.7259 1
      vertex -16.3554 -48.7264 0
      vertex -16.3554 -48.7264 1
    endloop
  endfacet
  facet normal -0.824264 -0.566206 0
    outer loop
      vertex -15.121 -50.5234 0
      vertex -16.3554 -48.7264 1
      vertex -16.3554 -48.7264 0
    endloop
  endfacet
  facet normal -0.824264 -0.566206 0
    outer loop
      vertex -16.3554 -48.7264 1
      vertex -15.121 -50.5234 0
      vertex -15.121 -50.5234 1
    endloop
  endfacet
  facet normal -0.754573 -0.656216 0
    outer loop
      vertex -13.7366 -52.1153 0
      vertex -15.121 -50.5234 1
      vertex -15.121 -50.5234 0
    endloop
  endfacet
  facet normal -0.754573 -0.656216 0
    outer loop
      vertex -15.121 -50.5234 1
      vertex -13.7366 -52.1153 0
      vertex -13.7366 -52.1153 1
    endloop
  endfacet
  facet normal -0.670547 -0.741867 0
    outer loop
      vertex -13.7366 -52.1153 0
      vertex -12.2023 -53.5021 1
      vertex -13.7366 -52.1153 1
    endloop
  endfacet
  facet normal -0.670547 -0.741867 -0
    outer loop
      vertex -12.2023 -53.5021 1
      vertex -13.7366 -52.1153 0
      vertex -12.2023 -53.5021 0
    endloop
  endfacet
  facet normal -0.574362 -0.818601 0
    outer loop
      vertex -12.2023 -53.5021 0
      vertex -10.5181 -54.6838 1
      vertex -12.2023 -53.5021 1
    endloop
  endfacet
  facet normal -0.574362 -0.818601 -0
    outer loop
      vertex -10.5181 -54.6838 1
      vertex -12.2023 -53.5021 0
      vertex -10.5181 -54.6838 0
    endloop
  endfacet
  facet normal -0.469996 -0.882669 0
    outer loop
      vertex -10.5181 -54.6838 0
      vertex -8.68401 -55.6604 1
      vertex -10.5181 -54.6838 1
    endloop
  endfacet
  facet normal -0.469996 -0.882669 -0
    outer loop
      vertex -8.68401 -55.6604 1
      vertex -10.5181 -54.6838 0
      vertex -8.68401 -55.6604 0
    endloop
  endfacet
  facet normal -0.362424 -0.932013 0
    outer loop
      vertex -8.68401 -55.6604 0
      vertex -6.70001 -56.4319 1
      vertex -8.68401 -55.6604 1
    endloop
  endfacet
  facet normal -0.362424 -0.932013 -0
    outer loop
      vertex -6.70001 -56.4319 1
      vertex -8.68401 -55.6604 0
      vertex -6.70001 -56.4319 0
    endloop
  endfacet
  facet normal -0.256506 -0.966543 0
    outer loop
      vertex -6.70001 -56.4319 0
      vertex -4.56613 -56.9982 1
      vertex -6.70001 -56.4319 1
    endloop
  endfacet
  facet normal -0.256506 -0.966543 -0
    outer loop
      vertex -4.56613 -56.9982 1
      vertex -6.70001 -56.4319 0
      vertex -4.56613 -56.9982 0
    endloop
  endfacet
  facet normal -0.946687 -0.322154 0
    outer loop
      vertex -3.80499 -59.2349 0
      vertex -4.56613 -56.9982 1
      vertex -4.56613 -56.9982 0
    endloop
  endfacet
  facet normal -0.946687 -0.322154 0
    outer loop
      vertex -4.56613 -56.9982 1
      vertex -3.80499 -59.2349 0
      vertex -3.80499 -59.2349 1
    endloop
  endfacet
  facet normal -0.927545 -0.373711 0
    outer loop
      vertex -2.97916 -61.2846 0
      vertex -3.80499 -59.2349 1
      vertex -3.80499 -59.2349 0
    endloop
  endfacet
  facet normal -0.927545 -0.373711 0
    outer loop
      vertex -3.80499 -59.2349 1
      vertex -2.97916 -61.2846 0
      vertex -2.97916 -61.2846 1
    endloop
  endfacet
  facet normal -0.902203 -0.431312 0
    outer loop
      vertex -2.08862 -63.1474 0
      vertex -2.97916 -61.2846 1
      vertex -2.97916 -61.2846 0
    endloop
  endfacet
  facet normal -0.902203 -0.431312 0
    outer loop
      vertex -2.97916 -61.2846 1
      vertex -2.08862 -63.1474 0
      vertex -2.08862 -63.1474 1
    endloop
  endfacet
  facet normal -0.868772 -0.495212 0
    outer loop
      vertex -1.13339 -64.8232 0
      vertex -2.08862 -63.1474 1
      vertex -2.08862 -63.1474 0
    endloop
  endfacet
  facet normal -0.868772 -0.495212 0
    outer loop
      vertex -2.08862 -63.1474 1
      vertex -1.13339 -64.8232 0
      vertex -1.13339 -64.8232 1
    endloop
  endfacet
  facet normal -0.824974 -0.56517 0
    outer loop
      vertex -0.113449 -66.312 0
      vertex -1.13339 -64.8232 1
      vertex -1.13339 -64.8232 0
    endloop
  endfacet
  facet normal -0.824974 -0.56517 0
    outer loop
      vertex -1.13339 -64.8232 1
      vertex -0.113449 -66.312 0
      vertex -0.113449 -66.312 1
    endloop
  endfacet
  facet normal -0.768306 -0.640083 0
    outer loop
      vertex 0.971176 -67.6139 0
      vertex -0.113449 -66.312 1
      vertex -0.113449 -66.312 0
    endloop
  endfacet
  facet normal -0.768306 -0.640083 0
    outer loop
      vertex -0.113449 -66.312 1
      vertex 0.971176 -67.6139 0
      vertex 0.971176 -67.6139 1
    endloop
  endfacet
  facet normal -0.696273 -0.717777 0
    outer loop
      vertex 0.971176 -67.6139 0
      vertex 2.12051 -68.7288 1
      vertex 0.971176 -67.6139 1
    endloop
  endfacet
  facet normal -0.696273 -0.717777 -0
    outer loop
      vertex 2.12051 -68.7288 1
      vertex 0.971176 -67.6139 0
      vertex 2.12051 -68.7288 0
    endloop
  endfacet
  facet normal -0.611781 -0.791027 0
    outer loop
      vertex 2.12051 -68.7288 0
      vertex 3.34717 -69.6775 1
      vertex 2.12051 -68.7288 1
    endloop
  endfacet
  facet normal -0.611781 -0.791027 -0
    outer loop
      vertex 3.34717 -69.6775 1
      vertex 2.12051 -68.7288 0
      vertex 3.34717 -69.6775 0
    endloop
  endfacet
  facet normal -0.520566 -0.853821 0
    outer loop
      vertex 3.34717 -69.6775 0
      vertex 4.66374 -70.4802 1
      vertex 3.34717 -69.6775 1
    endloop
  endfacet
  facet normal -0.520566 -0.853821 -0
    outer loop
      vertex 4.66374 -70.4802 1
      vertex 3.34717 -69.6775 0
      vertex 4.66374 -70.4802 0
    endloop
  endfacet
  facet normal -0.423062 -0.906101 0
    outer loop
      vertex 4.66374 -70.4802 0
      vertex 6.07024 -71.1369 1
      vertex 4.66374 -70.4802 1
    endloop
  endfacet
  facet normal -0.423062 -0.906101 -0
    outer loop
      vertex 6.07024 -71.1369 1
      vertex 4.66374 -70.4802 0
      vertex 6.07024 -71.1369 0
    endloop
  endfacet
  facet normal -0.323048 -0.946383 0
    outer loop
      vertex 6.07024 -71.1369 0
      vertex 7.56665 -71.6477 1
      vertex 6.07024 -71.1369 1
    endloop
  endfacet
  facet normal -0.323048 -0.946383 -0
    outer loop
      vertex 7.56665 -71.6477 1
      vertex 6.07024 -71.1369 0
      vertex 7.56665 -71.6477 0
    endloop
  endfacet
  facet normal -0.224173 -0.974549 0
    outer loop
      vertex 7.56665 -71.6477 0
      vertex 9.15298 -72.0126 1
      vertex 7.56665 -71.6477 1
    endloop
  endfacet
  facet normal -0.224173 -0.974549 -0
    outer loop
      vertex 9.15298 -72.0126 1
      vertex 7.56665 -71.6477 0
      vertex 9.15298 -72.0126 0
    endloop
  endfacet
  facet normal -0.129492 -0.99158 0
    outer loop
      vertex 9.15298 -72.0126 0
      vertex 10.8292 -72.2315 1
      vertex 9.15298 -72.0126 1
    endloop
  endfacet
  facet normal -0.129492 -0.99158 -0
    outer loop
      vertex 10.8292 -72.2315 1
      vertex 9.15298 -72.0126 0
      vertex 10.8292 -72.2315 0
    endloop
  endfacet
  facet normal -0.0412964 -0.999147 0
    outer loop
      vertex 10.8292 -72.2315 0
      vertex 12.5954 -72.3045 1
      vertex 10.8292 -72.2315 1
    endloop
  endfacet
  facet normal -0.0412964 -0.999147 -0
    outer loop
      vertex 12.5954 -72.3045 1
      vertex 10.8292 -72.2315 0
      vertex 12.5954 -72.3045 0
    endloop
  endfacet
  facet normal 0.0171412 -0.999853 0
    outer loop
      vertex 12.5954 -72.3045 0
      vertex 13.8845 -72.2824 1
      vertex 12.5954 -72.3045 1
    endloop
  endfacet
  facet normal 0.0171412 -0.999853 0
    outer loop
      vertex 13.8845 -72.2824 1
      vertex 12.5954 -72.3045 0
      vertex 13.8845 -72.2824 0
    endloop
  endfacet
  facet normal 0.228331 0.973584 -0
    outer loop
      vertex -0.714767 -48.4397 0
      vertex -1.91037 -48.1593 1
      vertex -0.714767 -48.4397 1
    endloop
  endfacet
  facet normal 0.228331 0.973584 0
    outer loop
      vertex -1.91037 -48.1593 1
      vertex -0.714767 -48.4397 0
      vertex -1.91037 -48.1593 0
    endloop
  endfacet
  facet normal 0.390626 0.920549 -0
    outer loop
      vertex -1.91037 -48.1593 0
      vertex -3.01208 -47.6918 1
      vertex -1.91037 -48.1593 1
    endloop
  endfacet
  facet normal 0.390626 0.920549 0
    outer loop
      vertex -3.01208 -47.6918 1
      vertex -1.91037 -48.1593 0
      vertex -3.01208 -47.6918 0
    endloop
  endfacet
  facet normal 0.544519 0.838749 -0
    outer loop
      vertex -3.01208 -47.6918 0
      vertex -4.01993 -47.0375 1
      vertex -3.01208 -47.6918 1
    endloop
  endfacet
  facet normal 0.544519 0.838749 0
    outer loop
      vertex -4.01993 -47.0375 1
      vertex -3.01208 -47.6918 0
      vertex -4.01993 -47.0375 0
    endloop
  endfacet
  facet normal 0.67726 0.735744 -0
    outer loop
      vertex -4.01993 -47.0375 0
      vertex -4.93388 -46.1962 1
      vertex -4.01993 -47.0375 1
    endloop
  endfacet
  facet normal 0.67726 0.735744 0
    outer loop
      vertex -4.93388 -46.1962 1
      vertex -4.01993 -47.0375 0
      vertex -4.93388 -46.1962 0
    endloop
  endfacet
  facet normal 0.78181 0.623517 0
    outer loop
      vertex -4.93388 -46.1962 1
      vertex -5.75398 -45.1679 0
      vertex -5.75398 -45.1679 1
    endloop
  endfacet
  facet normal 0.78181 0.623517 0
    outer loop
      vertex -5.75398 -45.1679 0
      vertex -4.93388 -46.1962 1
      vertex -4.93388 -46.1962 0
    endloop
  endfacet
  facet normal 0.858398 0.512984 0
    outer loop
      vertex -5.75398 -45.1679 1
      vertex -6.48019 -43.9527 0
      vertex -6.48019 -43.9527 1
    endloop
  endfacet
  facet normal 0.858398 0.512984 0
    outer loop
      vertex -6.48019 -43.9527 0
      vertex -5.75398 -45.1679 1
      vertex -5.75398 -45.1679 0
    endloop
  endfacet
  facet normal 0.911412 0.411496 0
    outer loop
      vertex -6.48019 -43.9527 1
      vertex -7.11079 -42.556 0
      vertex -7.11079 -42.556 1
    endloop
  endfacet
  facet normal 0.911412 0.411496 0
    outer loop
      vertex -7.11079 -42.556 0
      vertex -6.48019 -43.9527 1
      vertex -6.48019 -43.9527 0
    endloop
  endfacet
  facet normal 0.946972 0.321318 0
    outer loop
      vertex -7.11079 -42.556 1
      vertex -7.64439 -40.9834 0
      vertex -7.64439 -40.9834 1
    endloop
  endfacet
  facet normal 0.946972 0.321318 0
    outer loop
      vertex -7.64439 -40.9834 0
      vertex -7.11079 -42.556 1
      vertex -7.11079 -42.556 0
    endloop
  endfacet
  facet normal 0.970215 0.242246 0
    outer loop
      vertex -7.64439 -40.9834 1
      vertex -8.08096 -39.2349 0
      vertex -8.08096 -39.2349 1
    endloop
  endfacet
  facet normal 0.970215 0.242246 0
    outer loop
      vertex -8.08096 -39.2349 0
      vertex -7.64439 -40.9834 1
      vertex -7.64439 -40.9834 0
    endloop
  endfacet
  facet normal 0.984787 0.173765 0
    outer loop
      vertex -8.08096 -39.2349 1
      vertex -8.42052 -37.3105 0
      vertex -8.42052 -37.3105 1
    endloop
  endfacet
  facet normal 0.984787 0.173765 0
    outer loop
      vertex -8.42052 -37.3105 0
      vertex -8.08096 -39.2349 1
      vertex -8.08096 -39.2349 0
    endloop
  endfacet
  facet normal 0.993398 0.114716 0
    outer loop
      vertex -8.42052 -37.3105 1
      vertex -8.66306 -35.2102 0
      vertex -8.66306 -35.2102 1
    endloop
  endfacet
  facet normal 0.993398 0.114716 0
    outer loop
      vertex -8.66306 -35.2102 0
      vertex -8.42052 -37.3105 1
      vertex -8.42052 -37.3105 0
    endloop
  endfacet
  facet normal 0.997962 0.0638052 0
    outer loop
      vertex -8.66306 -35.2102 1
      vertex -8.80859 -32.934 0
      vertex -8.80859 -32.934 1
    endloop
  endfacet
  facet normal 0.997962 0.0638052 0
    outer loop
      vertex -8.80859 -32.934 0
      vertex -8.66306 -35.2102 1
      vertex -8.66306 -35.2102 0
    endloop
  endfacet
  facet normal 0.999804 0.0197784 0
    outer loop
      vertex -8.80859 -32.934 1
      vertex -8.8571 -30.4818 0
      vertex -8.8571 -30.4818 1
    endloop
  endfacet
  facet normal 0.999804 0.0197784 0
    outer loop
      vertex -8.8571 -30.4818 0
      vertex -8.80859 -32.934 1
      vertex -8.80859 -32.934 0
    endloop
  endfacet
  facet normal 0.999165 -0.0408603 0
    outer loop
      vertex -8.8571 -30.4818 1
      vertex -8.66461 -25.7748 0
      vertex -8.66461 -25.7748 1
    endloop
  endfacet
  facet normal 0.999165 -0.0408603 0
    outer loop
      vertex -8.66461 -25.7748 0
      vertex -8.8571 -30.4818 1
      vertex -8.8571 -30.4818 0
    endloop
  endfacet
  facet normal 0.989652 -0.143486 0
    outer loop
      vertex -8.66461 -25.7748 1
      vertex -8.08716 -21.792 0
      vertex -8.08716 -21.792 1
    endloop
  endfacet
  facet normal 0.989652 -0.143486 0
    outer loop
      vertex -8.08716 -21.792 0
      vertex -8.66461 -25.7748 1
      vertex -8.66461 -25.7748 0
    endloop
  endfacet
  facet normal 0.959047 -0.283247 0
    outer loop
      vertex -8.08716 -21.792 1
      vertex -7.12473 -18.5333 0
      vertex -7.12473 -18.5333 1
    endloop
  endfacet
  facet normal 0.959047 -0.283247 0
    outer loop
      vertex -7.12473 -18.5333 0
      vertex -8.08716 -21.792 1
      vertex -8.08716 -21.792 0
    endloop
  endfacet
  facet normal 0.882987 -0.469398 0
    outer loop
      vertex -7.12473 -18.5333 1
      vertex -5.77733 -15.9987 0
      vertex -5.77733 -15.9987 1
    endloop
  endfacet
  facet normal 0.882987 -0.469398 0
    outer loop
      vertex -5.77733 -15.9987 0
      vertex -7.12473 -18.5333 1
      vertex -7.12473 -18.5333 0
    endloop
  endfacet
  facet normal 0.722504 -0.691367 0
    outer loop
      vertex -5.77733 -15.9987 1
      vertex -4.04495 -14.1883 0
      vertex -4.04495 -14.1883 1
    endloop
  endfacet
  facet normal 0.722504 -0.691367 0
    outer loop
      vertex -4.04495 -14.1883 0
      vertex -5.77733 -15.9987 1
      vertex -5.77733 -15.9987 0
    endloop
  endfacet
  facet normal 0.456445 -0.889752 0
    outer loop
      vertex -4.04495 -14.1883 0
      vertex -1.92761 -13.1021 1
      vertex -4.04495 -14.1883 1
    endloop
  endfacet
  facet normal 0.456445 -0.889752 0
    outer loop
      vertex -1.92761 -13.1021 1
      vertex -4.04495 -14.1883 0
      vertex -1.92761 -13.1021 0
    endloop
  endfacet
  facet normal 0.143216 -0.989691 0
    outer loop
      vertex -1.92761 -13.1021 0
      vertex 0.574677 -12.74 1
      vertex -1.92761 -13.1021 1
    endloop
  endfacet
  facet normal 0.143216 -0.989691 0
    outer loop
      vertex 0.574677 -12.74 1
      vertex -1.92761 -13.1021 0
      vertex 0.574677 -12.74 0
    endloop
  endfacet
  facet normal -0.143802 -0.989607 0
    outer loop
      vertex 0.574677 -12.74 0
      vertex 3.06656 -13.1021 1
      vertex 0.574677 -12.74 1
    endloop
  endfacet
  facet normal -0.143802 -0.989607 -0
    outer loop
      vertex 3.06656 -13.1021 1
      vertex 0.574677 -12.74 0
      vertex 3.06656 -13.1021 0
    endloop
  endfacet
  facet normal -0.457958 -0.888974 0
    outer loop
      vertex 3.06656 -13.1021 0
      vertex 5.17506 -14.1883 1
      vertex 3.06656 -13.1021 1
    endloop
  endfacet
  facet normal -0.457958 -0.888974 -0
    outer loop
      vertex 5.17506 -14.1883 1
      vertex 3.06656 -13.1021 0
      vertex 5.17506 -14.1883 0
    endloop
  endfacet
  facet normal -0.723946 -0.689856 0
    outer loop
      vertex 6.90021 -15.9987 0
      vertex 5.17506 -14.1883 1
      vertex 5.17506 -14.1883 0
    endloop
  endfacet
  facet normal -0.723946 -0.689856 0
    outer loop
      vertex 5.17506 -14.1883 1
      vertex 6.90021 -15.9987 0
      vertex 6.90021 -15.9987 1
    endloop
  endfacet
  facet normal -0.883798 -0.467869 0
    outer loop
      vertex 8.24199 -18.5333 0
      vertex 6.90021 -15.9987 1
      vertex 6.90021 -15.9987 0
    endloop
  endfacet
  facet normal -0.883798 -0.467869 0
    outer loop
      vertex 6.90021 -15.9987 1
      vertex 8.24199 -18.5333 0
      vertex 8.24199 -18.5333 1
    endloop
  endfacet
  facet normal -0.959367 -0.282161 0
    outer loop
      vertex 9.20041 -21.792 0
      vertex 8.24199 -18.5333 1
      vertex 8.24199 -18.5333 0
    endloop
  endfacet
  facet normal -0.959367 -0.282161 0
    outer loop
      vertex 8.24199 -18.5333 1
      vertex 9.20041 -21.792 0
      vertex 9.20041 -21.792 1
    endloop
  endfacet
  facet normal -0.989737 -0.142899 0
    outer loop
      vertex 9.77545 -25.7748 0
      vertex 9.20041 -21.792 1
      vertex 9.20041 -21.792 0
    endloop
  endfacet
  facet normal -0.989737 -0.142899 0
    outer loop
      vertex 9.20041 -21.792 1
      vertex 9.77545 -25.7748 0
      vertex 9.77545 -25.7748 1
    endloop
  endfacet
  facet normal -0.999172 -0.0406886 0
    outer loop
      vertex 9.96713 -30.4818 0
      vertex 9.77545 -25.7748 1
      vertex 9.77545 -25.7748 0
    endloop
  endfacet
  facet normal -0.999172 -0.0406886 0
    outer loop
      vertex 9.77545 -25.7748 1
      vertex 9.96713 -30.4818 0
      vertex 9.96713 -30.4818 1
    endloop
  endfacet
  facet normal -0.999808 0.0196153 0
    outer loop
      vertex 9.91902 -32.934 0
      vertex 9.96713 -30.4818 1
      vertex 9.96713 -30.4818 0
    endloop
  endfacet
  facet normal -0.999808 0.0196153 0
    outer loop
      vertex 9.96713 -30.4818 1
      vertex 9.91902 -32.934 0
      vertex 9.91902 -32.934 1
    endloop
  endfacet
  facet normal -0.997994 0.0633031 0
    outer loop
      vertex 9.77464 -35.2102 0
      vertex 9.91902 -32.934 1
      vertex 9.91902 -32.934 0
    endloop
  endfacet
  facet normal -0.997994 0.0633031 0
    outer loop
      vertex 9.91902 -32.934 1
      vertex 9.77464 -35.2102 0
      vertex 9.77464 -35.2102 1
    endloop
  endfacet
  facet normal -0.993502 0.113815 0
    outer loop
      vertex 9.53403 -37.3105 0
      vertex 9.77464 -35.2102 1
      vertex 9.77464 -35.2102 0
    endloop
  endfacet
  facet normal -0.993502 0.113815 0
    outer loop
      vertex 9.77464 -35.2102 1
      vertex 9.53403 -37.3105 0
      vertex 9.53403 -37.3105 1
    endloop
  endfacet
  facet normal -0.98502 0.17244 0
    outer loop
      vertex 9.19714 -39.2349 0
      vertex 9.53403 -37.3105 1
      vertex 9.53403 -37.3105 0
    endloop
  endfacet
  facet normal -0.98502 0.17244 0
    outer loop
      vertex 9.53403 -37.3105 1
      vertex 9.19714 -39.2349 0
      vertex 9.19714 -39.2349 1
    endloop
  endfacet
  facet normal -0.970666 0.240432 0
    outer loop
      vertex 8.76404 -40.9834 0
      vertex 9.19714 -39.2349 1
      vertex 9.19714 -39.2349 0
    endloop
  endfacet
  facet normal -0.970666 0.240432 0
    outer loop
      vertex 9.19714 -39.2349 1
      vertex 8.76404 -40.9834 0
      vertex 8.76404 -40.9834 1
    endloop
  endfacet
  facet normal -0.947743 0.319036 0
    outer loop
      vertex 8.23466 -42.556 0
      vertex 8.76404 -40.9834 1
      vertex 8.76404 -40.9834 0
    endloop
  endfacet
  facet normal -0.947743 0.319036 0
    outer loop
      vertex 8.76404 -40.9834 1
      vertex 8.23466 -42.556 0
      vertex 8.23466 -42.556 1
    endloop
  endfacet
  facet normal -0.91263 0.408786 0
    outer loop
      vertex 7.60905 -43.9527 0
      vertex 8.23466 -42.556 1
      vertex 8.23466 -42.556 0
    endloop
  endfacet
  facet normal -0.91263 0.408786 0
    outer loop
      vertex 8.23466 -42.556 1
      vertex 7.60905 -43.9527 0
      vertex 7.60905 -43.9527 1
    endloop
  endfacet
  facet normal -0.860046 0.510217 0
    outer loop
      vertex 6.88814 -45.1679 0
      vertex 7.60905 -43.9527 1
      vertex 7.60905 -43.9527 0
    endloop
  endfacet
  facet normal -0.860046 0.510217 0
    outer loop
      vertex 7.60905 -43.9527 1
      vertex 6.88814 -45.1679 0
      vertex 6.88814 -45.1679 1
    endloop
  endfacet
  facet normal -0.783486 0.62141 0
    outer loop
      vertex 6.07256 -46.1962 0
      vertex 6.88814 -45.1679 1
      vertex 6.88814 -45.1679 0
    endloop
  endfacet
  facet normal -0.783486 0.62141 0
    outer loop
      vertex 6.88814 -45.1679 1
      vertex 6.07256 -46.1962 0
      vertex 6.07256 -46.1962 1
    endloop
  endfacet
  facet normal -0.67875 0.73437 0
    outer loop
      vertex 6.07256 -46.1962 0
      vertex 5.16232 -47.0375 1
      vertex 6.07256 -46.1962 1
    endloop
  endfacet
  facet normal -0.67875 0.73437 0
    outer loop
      vertex 5.16232 -47.0375 1
      vertex 6.07256 -46.1962 0
      vertex 5.16232 -47.0375 0
    endloop
  endfacet
  facet normal -0.545638 0.838021 0
    outer loop
      vertex 5.16232 -47.0375 0
      vertex 4.15741 -47.6918 1
      vertex 5.16232 -47.0375 1
    endloop
  endfacet
  facet normal -0.545638 0.838021 0
    outer loop
      vertex 4.15741 -47.6918 1
      vertex 5.16232 -47.0375 0
      vertex 4.15741 -47.6918 0
    endloop
  endfacet
  facet normal -0.391267 0.920277 0
    outer loop
      vertex 4.15741 -47.6918 0
      vertex 3.05783 -48.1593 1
      vertex 4.15741 -47.6918 1
    endloop
  endfacet
  facet normal -0.391267 0.920277 0
    outer loop
      vertex 3.05783 -48.1593 1
      vertex 4.15741 -47.6918 0
      vertex 3.05783 -48.1593 0
    endloop
  endfacet
  facet normal -0.228578 0.973526 0
    outer loop
      vertex 3.05783 -48.1593 0
      vertex 1.86359 -48.4397 1
      vertex 3.05783 -48.1593 1
    endloop
  endfacet
  facet normal -0.228578 0.973526 0
    outer loop
      vertex 1.86359 -48.4397 1
      vertex 3.05783 -48.1593 0
      vertex 1.86359 -48.4397 0
    endloop
  endfacet
  facet normal -0.0723516 0.997379 0
    outer loop
      vertex 1.86359 -48.4397 0
      vertex 0.574677 -48.5332 1
      vertex 1.86359 -48.4397 1
    endloop
  endfacet
  facet normal -0.0723516 0.997379 0
    outer loop
      vertex 0.574677 -48.5332 1
      vertex 1.86359 -48.4397 0
      vertex 0.574677 -48.5332 0
    endloop
  endfacet
  facet normal 0.072322 0.997381 -0
    outer loop
      vertex 0.574677 -48.5332 0
      vertex -0.714767 -48.4397 1
      vertex 0.574677 -48.5332 1
    endloop
  endfacet
  facet normal 0.072322 0.997381 0
    outer loop
      vertex -0.714767 -48.4397 1
      vertex 0.574677 -48.5332 0
      vertex -0.714767 -48.4397 0
    endloop
  endfacet
endsolid OpenSCAD_Model
