solid OpenSCAD_Model
  facet normal 0 0 -1
    outer loop
      vertex 6.44046 -14.9851 0
      vertex 2.62715 -15.6326 0
      vertex 2.63951 -15.0107 0
    endloop
  endfacet
  facet normal 0 0 -1
    outer loop
      vertex 3.80267 -21.3284 0
      vertex 2.59009 -16.2024 0
      vertex 2.62715 -15.6326 0
    endloop
  endfacet
  facet normal 0 0 -1
    outer loop
      vertex 3.80267 -21.3284 0
      vertex 2.52829 -16.7201 0
      vertex 2.59009 -16.2024 0
    endloop
  endfacet
  facet normal 0 0 -1
    outer loop
      vertex 1.38005 -18.9388 0
      vertex 3.17647 -21.6562 0
      vertex 2.48164 -21.9111 0
    endloop
  endfacet
  facet normal 0 0 -1
    outer loop
      vertex 3.80267 -21.3284 0
      vertex 2.44179 -17.1858 0
      vertex 2.52829 -16.7201 0
    endloop
  endfacet
  facet normal 0 0 -1
    outer loop
      vertex 3.80267 -21.3284 0
      vertex 2.33057 -17.5995 0
      vertex 2.44179 -17.1858 0
    endloop
  endfacet
  facet normal 0 0 -1
    outer loop
      vertex 3.80267 -21.3284 0
      vertex 2.19464 -17.961 0
      vertex 2.33057 -17.5995 0
    endloop
  endfacet
  facet normal 0 0 -1
    outer loop
      vertex 3.80267 -21.3284 0
      vertex 2.03398 -18.2705 0
      vertex 2.19464 -17.961 0
    endloop
  endfacet
  facet normal 0 0 -1
    outer loop
      vertex 3.80267 -21.3284 0
      vertex 1.84599 -18.5338 0
      vertex 2.03398 -18.2705 0
    endloop
  endfacet
  facet normal 0 0 -1
    outer loop
      vertex 1.1021 -19.0805 0
      vertex 2.48164 -21.9111 0
      vertex 1.71819 -22.0932 0
    endloop
  endfacet
  facet normal 0 0 -1
    outer loop
      vertex 3.80267 -21.3284 0
      vertex 1.62801 -18.7565 0
      vertex 1.84599 -18.5338 0
    endloop
  endfacet
  facet normal 0 0 -1
    outer loop
      vertex 3.17647 -21.6562 0
      vertex 1.38005 -18.9388 0
      vertex 1.62801 -18.7565 0
    endloop
  endfacet
  facet normal 0 0 -1
    outer loop
      vertex 2.48164 -21.9111 0
      vertex 1.1021 -19.0805 0
      vertex 1.38005 -18.9388 0
    endloop
  endfacet
  facet normal 0 0 -1
    outer loop
      vertex 0.794174 -19.1817 0
      vertex 1.71819 -22.0932 0
      vertex 0.886108 -22.2025 0
    endloop
  endfacet
  facet normal 0 0 -1
    outer loop
      vertex 1.71819 -22.0932 0
      vertex 0.794174 -19.1817 0
      vertex 1.1021 -19.0805 0
    endloop
  endfacet
  facet normal 0 0 -1
    outer loop
      vertex 0.886108 -22.2025 0
      vertex 0.456268 -19.2425 0
      vertex 0.794174 -19.1817 0
    endloop
  endfacet
  facet normal 0 0 -1
    outer loop
      vertex -0.0145874 -22.2389 0
      vertex 0.456268 -19.2425 0
      vertex 0.886108 -22.2025 0
    endloop
  endfacet
  facet normal 0 0 -1
    outer loop
      vertex 0.456268 -19.2425 0
      vertex -0.0145874 -22.2389 0
      vertex 0.0883789 -19.2627 0
    endloop
  endfacet
  facet normal 0 0 -1
    outer loop
      vertex -0.0145874 -22.2389 0
      vertex -0.27092 -19.2437 0
      vertex 0.0883789 -19.2627 0
    endloop
  endfacet
  facet normal 0 0 -1
    outer loop
      vertex -0.884933 -22.2036 0
      vertex -0.27092 -19.2437 0
      vertex -0.0145874 -22.2389 0
    endloop
  endfacet
  facet normal -0 0 -1
    outer loop
      vertex -0.27092 -19.2437 0
      vertex -0.884933 -22.2036 0
      vertex -0.5979 -19.1865 0
    endloop
  endfacet
  facet normal 0 0 -1
    outer loop
      vertex -1.68483 -22.0979 0
      vertex -0.5979 -19.1865 0
      vertex -0.884933 -22.2036 0
    endloop
  endfacet
  facet normal -0 0 -1
    outer loop
      vertex -0.5979 -19.1865 0
      vertex -1.68483 -22.0979 0
      vertex -0.892517 -19.0912 0
    endloop
  endfacet
  facet normal 0 0 -1
    outer loop
      vertex -2.41425 -21.9218 0
      vertex -0.892517 -19.0912 0
      vertex -1.68483 -22.0979 0
    endloop
  endfacet
  facet normal -0 0 -1
    outer loop
      vertex -0.892517 -19.0912 0
      vertex -2.41425 -21.9218 0
      vertex -1.1548 -18.9577 0
    endloop
  endfacet
  facet normal 0 0 -1
    outer loop
      vertex -3.0732 -21.6751 0
      vertex -1.1548 -18.9577 0
      vertex -2.41425 -21.9218 0
    endloop
  endfacet
  facet normal -0 0 -1
    outer loop
      vertex -1.1548 -18.9577 0
      vertex -3.0732 -21.6751 0
      vertex -1.38474 -18.7862 0
    endloop
  endfacet
  facet normal 0 0 -1
    outer loop
      vertex -3.66167 -21.358 0
      vertex -1.38474 -18.7862 0
      vertex -3.0732 -21.6751 0
    endloop
  endfacet
  facet normal -0 0 -1
    outer loop
      vertex -1.38474 -18.7862 0
      vertex -3.66167 -21.358 0
      vertex -1.58232 -18.5765 0
    endloop
  endfacet
  facet normal 0 0 -1
    outer loop
      vertex -4.17967 -20.9704 0
      vertex -1.58232 -18.5765 0
      vertex -3.66167 -21.358 0
    endloop
  endfacet
  facet normal 0 0 -1
    outer loop
      vertex -4.62721 -20.5124 0
      vertex -1.58232 -18.5765 0
      vertex -4.17967 -20.9704 0
    endloop
  endfacet
  facet normal -0 0 -1
    outer loop
      vertex -1.58232 -18.5765 0
      vertex -4.62721 -20.5124 0
      vertex -1.74757 -18.3287 0
    endloop
  endfacet
  facet normal 0 0 -1
    outer loop
      vertex -5.01006 -19.9807 0
      vertex -1.74757 -18.3287 0
      vertex -4.62721 -20.5124 0
    endloop
  endfacet
  facet normal -0 0 -1
    outer loop
      vertex -1.74757 -18.3287 0
      vertex -5.01006 -19.9807 0
      vertex -1.88599 -18.0348 0
    endloop
  endfacet
  facet normal 0 0 -1
    outer loop
      vertex -5.33401 -19.3722 0
      vertex -1.88599 -18.0348 0
      vertex -5.01006 -19.9807 0
    endloop
  endfacet
  facet normal -0 0 -1
    outer loop
      vertex -1.88599 -18.0348 0
      vertex -5.33401 -19.3722 0
      vertex -2.00311 -17.687 0
    endloop
  endfacet
  facet normal 0 0 -1
    outer loop
      vertex -5.59906 -18.687 0
      vertex -2.00311 -17.687 0
      vertex -5.33401 -19.3722 0
    endloop
  endfacet
  facet normal -0 0 -1
    outer loop
      vertex -2.00311 -17.687 0
      vertex -5.59906 -18.687 0
      vertex -2.09895 -17.2854 0
    endloop
  endfacet
  facet normal 0 0 -1
    outer loop
      vertex -5.80521 -17.925 0
      vertex -2.09895 -17.2854 0
      vertex -5.59906 -18.687 0
    endloop
  endfacet
  facet normal -0 0 -1
    outer loop
      vertex -2.09895 -17.2854 0
      vertex -5.80521 -17.925 0
      vertex -2.17348 -16.8298 0
    endloop
  endfacet
  facet normal 0 0 -1
    outer loop
      vertex -5.95245 -17.0862 0
      vertex -2.17348 -16.8298 0
      vertex -5.80521 -17.925 0
    endloop
  endfacet
  facet normal -0 0 -1
    outer loop
      vertex -2.17348 -16.8298 0
      vertex -5.95245 -17.0862 0
      vertex -2.22672 -16.3203 0
    endloop
  endfacet
  facet normal 0 0 -1
    outer loop
      vertex -6.04082 -16.1706 0
      vertex -2.22672 -16.3203 0
      vertex -5.95245 -17.0862 0
    endloop
  endfacet
  facet normal 0 0 -1
    outer loop
      vertex -2.22672 -16.3203 0
      vertex -6.04082 -16.1706 0
      vertex -2.25867 -15.757 0
    endloop
  endfacet
  facet normal 0 0 -1
    outer loop
      vertex -6.07027 -15.1783 0
      vertex -2.25867 -15.757 0
      vertex -6.04082 -16.1706 0
    endloop
  endfacet
  facet normal 0 0 -1
    outer loop
      vertex -2.25867 -15.757 0
      vertex -6.07027 -15.1783 0
      vertex -2.26932 -15.1397 0
    endloop
  endfacet
  facet normal 0 0 -1
    outer loop
      vertex -6.07027 -4.60025 0
      vertex -2.26932 -15.1397 0
      vertex -6.07027 -15.1783 0
    endloop
  endfacet
  facet normal 0 0 -1
    outer loop
      vertex -2.26932 -15.1397 0
      vertex -6.07027 -4.60025 0
      vertex -2.26932 -4.60025 0
    endloop
  endfacet
  facet normal 0 0 -1
    outer loop
      vertex 2.62715 -15.6326 0
      vertex 6.44046 -14.9851 0
      vertex 6.40799 -15.9991 0
    endloop
  endfacet
  facet normal 0 0 -1
    outer loop
      vertex 2.62715 -15.6326 0
      vertex 6.40799 -15.9991 0
      vertex 6.31056 -16.9356 0
    endloop
  endfacet
  facet normal 0 0 -1
    outer loop
      vertex 2.62715 -15.6326 0
      vertex 6.31056 -16.9356 0
      vertex 6.14819 -17.7945 0
    endloop
  endfacet
  facet normal 0 0 -1
    outer loop
      vertex 2.62715 -15.6326 0
      vertex 6.14819 -17.7945 0
      vertex 5.92087 -18.5758 0
    endloop
  endfacet
  facet normal 0 0 -1
    outer loop
      vertex 2.62715 -15.6326 0
      vertex 5.92087 -18.5758 0
      vertex 5.6286 -19.2796 0
    endloop
  endfacet
  facet normal 0 0 -1
    outer loop
      vertex 2.62715 -15.6326 0
      vertex 5.6286 -19.2796 0
      vertex 5.27138 -19.9058 0
    endloop
  endfacet
  facet normal 0 0 -1
    outer loop
      vertex 2.62715 -15.6326 0
      vertex 5.27138 -19.9058 0
      vertex 4.84921 -20.4544 0
    endloop
  endfacet
  facet normal 0 0 -1
    outer loop
      vertex 2.62715 -15.6326 0
      vertex 4.84921 -20.4544 0
      vertex 4.36026 -20.9278 0
    endloop
  endfacet
  facet normal 0 0 -1
    outer loop
      vertex 2.62715 -15.6326 0
      vertex 4.36026 -20.9278 0
      vertex 3.80267 -21.3284 0
    endloop
  endfacet
  facet normal 0 0 -1
    outer loop
      vertex 1.62801 -18.7565 0
      vertex 3.80267 -21.3284 0
      vertex 3.17647 -21.6562 0
    endloop
  endfacet
  facet normal -0 0 -1
    outer loop
      vertex 6.44046 -14.9851 0
      vertex 2.63951 -15.0107 0
      vertex 6.44046 -4.60025 0
    endloop
  endfacet
  facet normal -0 0 -1
    outer loop
      vertex 6.44046 -4.60025 0
      vertex 2.63951 -15.0107 0
      vertex 2.63951 -4.60025 0
    endloop
  endfacet
  facet normal -0 0 1
    outer loop
      vertex -6.07027 -4.60025 1
      vertex -2.26932 -15.1397 1
      vertex -2.26932 -4.60025 1
    endloop
  endfacet
  facet normal 0 -0 1
    outer loop
      vertex -6.04082 -16.1706 1
      vertex -2.26932 -15.1397 1
      vertex -6.07027 -15.1783 1
    endloop
  endfacet
  facet normal 0 -0 1
    outer loop
      vertex -5.95245 -17.0862 1
      vertex -2.26932 -15.1397 1
      vertex -6.04082 -16.1706 1
    endloop
  endfacet
  facet normal 0 -0 1
    outer loop
      vertex -5.80521 -17.925 1
      vertex -2.26932 -15.1397 1
      vertex -5.95245 -17.0862 1
    endloop
  endfacet
  facet normal 0 -0 1
    outer loop
      vertex -5.59906 -18.687 1
      vertex -2.26932 -15.1397 1
      vertex -5.80521 -17.925 1
    endloop
  endfacet
  facet normal 0 -0 1
    outer loop
      vertex -5.33401 -19.3722 1
      vertex -2.26932 -15.1397 1
      vertex -5.59906 -18.687 1
    endloop
  endfacet
  facet normal 0 -0 1
    outer loop
      vertex -5.01006 -19.9807 1
      vertex -2.26932 -15.1397 1
      vertex -5.33401 -19.3722 1
    endloop
  endfacet
  facet normal 0 0 1
    outer loop
      vertex -2.26932 -15.1397 1
      vertex -3.0732 -21.6751 1
      vertex -2.41425 -21.9218 1
    endloop
  endfacet
  facet normal 0 -0 1
    outer loop
      vertex -4.62721 -20.5124 1
      vertex -2.26932 -15.1397 1
      vertex -5.01006 -19.9807 1
    endloop
  endfacet
  facet normal 0 0 1
    outer loop
      vertex -2.26932 -15.1397 1
      vertex -3.66167 -21.358 1
      vertex -3.0732 -21.6751 1
    endloop
  endfacet
  facet normal 0 0 1
    outer loop
      vertex -2.26932 -15.1397 1
      vertex -4.62721 -20.5124 1
      vertex -4.17967 -20.9704 1
    endloop
  endfacet
  facet normal 0 0 1
    outer loop
      vertex -2.26932 -15.1397 1
      vertex -6.07027 -4.60025 1
      vertex -6.07027 -15.1783 1
    endloop
  endfacet
  facet normal 0 0 1
    outer loop
      vertex -2.26932 -15.1397 1
      vertex -4.17967 -20.9704 1
      vertex -3.66167 -21.358 1
    endloop
  endfacet
  facet normal 0 0 1
    outer loop
      vertex 2.63951 -15.0107 1
      vertex 6.44046 -14.9851 1
      vertex 6.44046 -4.60025 1
    endloop
  endfacet
  facet normal 0 0 1
    outer loop
      vertex 2.62715 -15.6326 1
      vertex 6.44046 -14.9851 1
      vertex 2.63951 -15.0107 1
    endloop
  endfacet
  facet normal 0 0 1
    outer loop
      vertex 6.44046 -14.9851 1
      vertex 2.62715 -15.6326 1
      vertex 6.40799 -15.9991 1
    endloop
  endfacet
  facet normal 0 0 1
    outer loop
      vertex 2.59009 -16.2024 1
      vertex 6.40799 -15.9991 1
      vertex 2.62715 -15.6326 1
    endloop
  endfacet
  facet normal 0 0 1
    outer loop
      vertex 6.40799 -15.9991 1
      vertex 2.59009 -16.2024 1
      vertex 6.31056 -16.9356 1
    endloop
  endfacet
  facet normal -0 0 1
    outer loop
      vertex 2.52829 -16.7201 1
      vertex 6.31056 -16.9356 1
      vertex 2.59009 -16.2024 1
    endloop
  endfacet
  facet normal 0 0 1
    outer loop
      vertex 6.31056 -16.9356 1
      vertex 2.52829 -16.7201 1
      vertex 6.14819 -17.7945 1
    endloop
  endfacet
  facet normal -0 0 1
    outer loop
      vertex 2.44179 -17.1858 1
      vertex 6.14819 -17.7945 1
      vertex 2.52829 -16.7201 1
    endloop
  endfacet
  facet normal 0 0 1
    outer loop
      vertex 6.14819 -17.7945 1
      vertex 2.44179 -17.1858 1
      vertex 5.92087 -18.5758 1
    endloop
  endfacet
  facet normal -0 0 1
    outer loop
      vertex 2.33057 -17.5995 1
      vertex 5.92087 -18.5758 1
      vertex 2.44179 -17.1858 1
    endloop
  endfacet
  facet normal 0 0 1
    outer loop
      vertex 2.63951 -15.0107 1
      vertex 6.44046 -4.60025 1
      vertex 2.63951 -4.60025 1
    endloop
  endfacet
  facet normal 0 0 1
    outer loop
      vertex 5.92087 -18.5758 1
      vertex 2.33057 -17.5995 1
      vertex 5.6286 -19.2796 1
    endloop
  endfacet
  facet normal -0 0 1
    outer loop
      vertex 2.19464 -17.961 1
      vertex 5.6286 -19.2796 1
      vertex 2.33057 -17.5995 1
    endloop
  endfacet
  facet normal 0 0 1
    outer loop
      vertex 5.6286 -19.2796 1
      vertex 2.19464 -17.961 1
      vertex 5.27138 -19.9058 1
    endloop
  endfacet
  facet normal -0 0 1
    outer loop
      vertex 2.03398 -18.2705 1
      vertex 5.27138 -19.9058 1
      vertex 2.19464 -17.961 1
    endloop
  endfacet
  facet normal 0 0 1
    outer loop
      vertex 5.27138 -19.9058 1
      vertex 2.03398 -18.2705 1
      vertex 4.84921 -20.4544 1
    endloop
  endfacet
  facet normal 0 0 1
    outer loop
      vertex 4.84921 -20.4544 1
      vertex 2.03398 -18.2705 1
      vertex 4.36026 -20.9278 1
    endloop
  endfacet
  facet normal -0 0 1
    outer loop
      vertex 1.84599 -18.5338 1
      vertex 4.36026 -20.9278 1
      vertex 2.03398 -18.2705 1
    endloop
  endfacet
  facet normal 0 0 1
    outer loop
      vertex 4.36026 -20.9278 1
      vertex 1.84599 -18.5338 1
      vertex 3.80267 -21.3284 1
    endloop
  endfacet
  facet normal -0 0 1
    outer loop
      vertex 1.62801 -18.7565 1
      vertex 3.80267 -21.3284 1
      vertex 1.84599 -18.5338 1
    endloop
  endfacet
  facet normal 0 0 1
    outer loop
      vertex 3.80267 -21.3284 1
      vertex 1.62801 -18.7565 1
      vertex 3.17647 -21.6562 1
    endloop
  endfacet
  facet normal -0 0 1
    outer loop
      vertex 1.38005 -18.9388 1
      vertex 3.17647 -21.6562 1
      vertex 1.62801 -18.7565 1
    endloop
  endfacet
  facet normal 0 0 1
    outer loop
      vertex 3.17647 -21.6562 1
      vertex 1.38005 -18.9388 1
      vertex 2.48164 -21.9111 1
    endloop
  endfacet
  facet normal -0 0 1
    outer loop
      vertex 1.1021 -19.0805 1
      vertex 2.48164 -21.9111 1
      vertex 1.38005 -18.9388 1
    endloop
  endfacet
  facet normal 0 0 1
    outer loop
      vertex 2.48164 -21.9111 1
      vertex 1.1021 -19.0805 1
      vertex 1.71819 -22.0932 1
    endloop
  endfacet
  facet normal -0 0 1
    outer loop
      vertex 0.794174 -19.1817 1
      vertex 1.71819 -22.0932 1
      vertex 1.1021 -19.0805 1
    endloop
  endfacet
  facet normal 0 0 1
    outer loop
      vertex 1.71819 -22.0932 1
      vertex 0.794174 -19.1817 1
      vertex 0.886108 -22.2025 1
    endloop
  endfacet
  facet normal -0 0 1
    outer loop
      vertex 0.456268 -19.2425 1
      vertex 0.886108 -22.2025 1
      vertex 0.794174 -19.1817 1
    endloop
  endfacet
  facet normal 0 0 1
    outer loop
      vertex -0.0145874 -22.2389 1
      vertex 0.456268 -19.2425 1
      vertex 0.0883789 -19.2627 1
    endloop
  endfacet
  facet normal 0 0 1
    outer loop
      vertex 0.456268 -19.2425 1
      vertex -0.0145874 -22.2389 1
      vertex 0.886108 -22.2025 1
    endloop
  endfacet
  facet normal 0 0 1
    outer loop
      vertex -0.27092 -19.2437 1
      vertex -0.0145874 -22.2389 1
      vertex 0.0883789 -19.2627 1
    endloop
  endfacet
  facet normal 0 0 1
    outer loop
      vertex -0.884933 -22.2036 1
      vertex -0.27092 -19.2437 1
      vertex -0.5979 -19.1865 1
    endloop
  endfacet
  facet normal 0 0 1
    outer loop
      vertex -0.27092 -19.2437 1
      vertex -0.884933 -22.2036 1
      vertex -0.0145874 -22.2389 1
    endloop
  endfacet
  facet normal 0 0 1
    outer loop
      vertex -1.68483 -22.0979 1
      vertex -0.5979 -19.1865 1
      vertex -0.892517 -19.0912 1
    endloop
  endfacet
  facet normal 0 0 1
    outer loop
      vertex -2.41425 -21.9218 1
      vertex -0.892517 -19.0912 1
      vertex -1.1548 -18.9577 1
    endloop
  endfacet
  facet normal 0 0 1
    outer loop
      vertex -2.41425 -21.9218 1
      vertex -1.1548 -18.9577 1
      vertex -1.38474 -18.7862 1
    endloop
  endfacet
  facet normal 0 0 1
    outer loop
      vertex -2.41425 -21.9218 1
      vertex -1.38474 -18.7862 1
      vertex -1.58232 -18.5765 1
    endloop
  endfacet
  facet normal 0 0 1
    outer loop
      vertex -0.5979 -19.1865 1
      vertex -1.68483 -22.0979 1
      vertex -0.884933 -22.2036 1
    endloop
  endfacet
  facet normal 0 0 1
    outer loop
      vertex -2.41425 -21.9218 1
      vertex -1.58232 -18.5765 1
      vertex -1.74757 -18.3287 1
    endloop
  endfacet
  facet normal 0 0 1
    outer loop
      vertex -2.41425 -21.9218 1
      vertex -1.74757 -18.3287 1
      vertex -1.88599 -18.0348 1
    endloop
  endfacet
  facet normal 0 0 1
    outer loop
      vertex -2.41425 -21.9218 1
      vertex -1.88599 -18.0348 1
      vertex -2.00311 -17.687 1
    endloop
  endfacet
  facet normal 0 0 1
    outer loop
      vertex -2.41425 -21.9218 1
      vertex -2.00311 -17.687 1
      vertex -2.09895 -17.2854 1
    endloop
  endfacet
  facet normal 0 0 1
    outer loop
      vertex -2.41425 -21.9218 1
      vertex -2.09895 -17.2854 1
      vertex -2.17348 -16.8298 1
    endloop
  endfacet
  facet normal 0 0 1
    outer loop
      vertex -2.41425 -21.9218 1
      vertex -2.17348 -16.8298 1
      vertex -2.22672 -16.3203 1
    endloop
  endfacet
  facet normal 0 0 1
    outer loop
      vertex -0.892517 -19.0912 1
      vertex -2.41425 -21.9218 1
      vertex -1.68483 -22.0979 1
    endloop
  endfacet
  facet normal 0 0 1
    outer loop
      vertex -2.25867 -15.757 1
      vertex -2.41425 -21.9218 1
      vertex -2.22672 -16.3203 1
    endloop
  endfacet
  facet normal 0 0 1
    outer loop
      vertex -2.41425 -21.9218 1
      vertex -2.25867 -15.757 1
      vertex -2.26932 -15.1397 1
    endloop
  endfacet
  facet normal 0.130238 -0.991483 0
    outer loop
      vertex 0.886108 -22.2025 0
      vertex 1.71819 -22.0932 1
      vertex 0.886108 -22.2025 1
    endloop
  endfacet
  facet normal 0.130238 -0.991483 0
    outer loop
      vertex 1.71819 -22.0932 1
      vertex 0.886108 -22.2025 0
      vertex 1.71819 -22.0932 0
    endloop
  endfacet
  facet normal 0.232014 -0.972712 0
    outer loop
      vertex 1.71819 -22.0932 0
      vertex 2.48164 -21.9111 1
      vertex 1.71819 -22.0932 1
    endloop
  endfacet
  facet normal 0.232014 -0.972712 0
    outer loop
      vertex 2.48164 -21.9111 1
      vertex 1.71819 -22.0932 0
      vertex 2.48164 -21.9111 0
    endloop
  endfacet
  facet normal 0.344408 -0.93882 0
    outer loop
      vertex 2.48164 -21.9111 0
      vertex 3.17647 -21.6562 1
      vertex 2.48164 -21.9111 1
    endloop
  endfacet
  facet normal 0.344408 -0.93882 0
    outer loop
      vertex 3.17647 -21.6562 1
      vertex 2.48164 -21.9111 0
      vertex 3.17647 -21.6562 0
    endloop
  endfacet
  facet normal 0.463774 -0.885953 0
    outer loop
      vertex 3.17647 -21.6562 0
      vertex 3.80267 -21.3284 1
      vertex 3.17647 -21.6562 1
    endloop
  endfacet
  facet normal 0.463774 -0.885953 0
    outer loop
      vertex 3.80267 -21.3284 1
      vertex 3.17647 -21.6562 0
      vertex 3.80267 -21.3284 0
    endloop
  endfacet
  facet normal 0.583475 -0.812131 0
    outer loop
      vertex 3.80267 -21.3284 0
      vertex 4.36026 -20.9278 1
      vertex 3.80267 -21.3284 1
    endloop
  endfacet
  facet normal 0.583475 -0.812131 0
    outer loop
      vertex 4.36026 -20.9278 1
      vertex 3.80267 -21.3284 0
      vertex 4.36026 -20.9278 0
    endloop
  endfacet
  facet normal 0.69559 -0.718439 0
    outer loop
      vertex 4.36026 -20.9278 0
      vertex 4.84921 -20.4544 1
      vertex 4.36026 -20.9278 1
    endloop
  endfacet
  facet normal 0.69559 -0.718439 0
    outer loop
      vertex 4.84921 -20.4544 1
      vertex 4.36026 -20.9278 0
      vertex 4.84921 -20.4544 0
    endloop
  endfacet
  facet normal 0.792505 -0.609865 0
    outer loop
      vertex 4.84921 -20.4544 1
      vertex 5.27138 -19.9058 0
      vertex 5.27138 -19.9058 1
    endloop
  endfacet
  facet normal 0.792505 -0.609865 0
    outer loop
      vertex 5.27138 -19.9058 0
      vertex 4.84921 -20.4544 1
      vertex 4.84921 -20.4544 0
    endloop
  endfacet
  facet normal 0.868607 -0.495502 0
    outer loop
      vertex 5.27138 -19.9058 1
      vertex 5.6286 -19.2796 0
      vertex 5.6286 -19.2796 1
    endloop
  endfacet
  facet normal 0.868607 -0.495502 0
    outer loop
      vertex 5.6286 -19.2796 0
      vertex 5.27138 -19.9058 1
      vertex 5.27138 -19.9058 0
    endloop
  endfacet
  facet normal 0.923533 -0.383519 0
    outer loop
      vertex 5.6286 -19.2796 1
      vertex 5.92087 -18.5758 0
      vertex 5.92087 -18.5758 1
    endloop
  endfacet
  facet normal 0.923533 -0.383519 0
    outer loop
      vertex 5.92087 -18.5758 0
      vertex 5.6286 -19.2796 1
      vertex 5.6286 -19.2796 0
    endloop
  endfacet
  facet normal 0.960185 -0.279367 0
    outer loop
      vertex 5.92087 -18.5758 1
      vertex 6.14819 -17.7945 0
      vertex 6.14819 -17.7945 1
    endloop
  endfacet
  facet normal 0.960185 -0.279367 0
    outer loop
      vertex 6.14819 -17.7945 0
      vertex 5.92087 -18.5758 1
      vertex 5.92087 -18.5758 0
    endloop
  endfacet
  facet normal 0.982596 -0.185754 0
    outer loop
      vertex 6.14819 -17.7945 1
      vertex 6.31056 -16.9356 0
      vertex 6.31056 -16.9356 1
    endloop
  endfacet
  facet normal 0.982596 -0.185754 0
    outer loop
      vertex 6.31056 -16.9356 0
      vertex 6.14819 -17.7945 1
      vertex 6.14819 -17.7945 0
    endloop
  endfacet
  facet normal 0.994632 -0.103478 0
    outer loop
      vertex 6.31056 -16.9356 1
      vertex 6.40799 -15.9991 0
      vertex 6.40799 -15.9991 1
    endloop
  endfacet
  facet normal 0.994632 -0.103478 0
    outer loop
      vertex 6.40799 -15.9991 0
      vertex 6.31056 -16.9356 1
      vertex 6.31056 -16.9356 0
    endloop
  endfacet
  facet normal 0.999488 -0.0320053 0
    outer loop
      vertex 6.40799 -15.9991 1
      vertex 6.44046 -14.9851 0
      vertex 6.44046 -14.9851 1
    endloop
  endfacet
  facet normal 0.999488 -0.0320053 0
    outer loop
      vertex 6.44046 -14.9851 0
      vertex 6.40799 -15.9991 1
      vertex 6.40799 -15.9991 0
    endloop
  endfacet
  facet normal 1 -0 0
    outer loop
      vertex 6.44046 -14.9851 1
      vertex 6.44046 -4.60025 0
      vertex 6.44046 -4.60025 1
    endloop
  endfacet
  facet normal 1 0 0
    outer loop
      vertex 6.44046 -4.60025 0
      vertex 6.44046 -14.9851 1
      vertex 6.44046 -14.9851 0
    endloop
  endfacet
  facet normal 0 1 -0
    outer loop
      vertex 6.44046 -4.60025 0
      vertex 2.63951 -4.60025 1
      vertex 6.44046 -4.60025 1
    endloop
  endfacet
  facet normal 0 1 0
    outer loop
      vertex 2.63951 -4.60025 1
      vertex 6.44046 -4.60025 0
      vertex 2.63951 -4.60025 0
    endloop
  endfacet
  facet normal -1 0 0
    outer loop
      vertex 2.63951 -15.0107 0
      vertex 2.63951 -4.60025 1
      vertex 2.63951 -4.60025 0
    endloop
  endfacet
  facet normal -1 -0 0
    outer loop
      vertex 2.63951 -4.60025 1
      vertex 2.63951 -15.0107 0
      vertex 2.63951 -15.0107 1
    endloop
  endfacet
  facet normal -0.999803 0.0198707 0
    outer loop
      vertex 2.62715 -15.6326 0
      vertex 2.63951 -15.0107 1
      vertex 2.63951 -15.0107 0
    endloop
  endfacet
  facet normal -0.999803 0.0198707 0
    outer loop
      vertex 2.63951 -15.0107 1
      vertex 2.62715 -15.6326 0
      vertex 2.62715 -15.6326 1
    endloop
  endfacet
  facet normal -0.997892 0.0649032 0
    outer loop
      vertex 2.59009 -16.2024 0
      vertex 2.62715 -15.6326 1
      vertex 2.62715 -15.6326 0
    endloop
  endfacet
  facet normal -0.997892 0.0649032 0
    outer loop
      vertex 2.62715 -15.6326 1
      vertex 2.59009 -16.2024 0
      vertex 2.59009 -16.2024 1
    endloop
  endfacet
  facet normal -0.99295 0.118533 0
    outer loop
      vertex 2.52829 -16.7201 0
      vertex 2.59009 -16.2024 1
      vertex 2.59009 -16.2024 0
    endloop
  endfacet
  facet normal -0.99295 0.118533 0
    outer loop
      vertex 2.59009 -16.2024 1
      vertex 2.52829 -16.7201 0
      vertex 2.52829 -16.7201 1
    endloop
  endfacet
  facet normal -0.983184 0.182618 0
    outer loop
      vertex 2.44179 -17.1858 0
      vertex 2.52829 -16.7201 1
      vertex 2.52829 -16.7201 0
    endloop
  endfacet
  facet normal -0.983184 0.182618 0
    outer loop
      vertex 2.52829 -16.7201 1
      vertex 2.44179 -17.1858 0
      vertex 2.44179 -17.1858 1
    endloop
  endfacet
  facet normal -0.96571 0.259624 0
    outer loop
      vertex 2.33057 -17.5995 0
      vertex 2.44179 -17.1858 1
      vertex 2.44179 -17.1858 0
    endloop
  endfacet
  facet normal -0.96571 0.259624 0
    outer loop
      vertex 2.44179 -17.1858 1
      vertex 2.33057 -17.5995 0
      vertex 2.33057 -17.5995 1
    endloop
  endfacet
  facet normal -0.936016 0.351958 0
    outer loop
      vertex 2.19464 -17.961 0
      vertex 2.33057 -17.5995 1
      vertex 2.33057 -17.5995 0
    endloop
  endfacet
  facet normal -0.936016 0.351958 0
    outer loop
      vertex 2.33057 -17.5995 1
      vertex 2.19464 -17.961 0
      vertex 2.19464 -17.961 1
    endloop
  endfacet
  facet normal -0.887545 0.460721 0
    outer loop
      vertex 2.03398 -18.2705 0
      vertex 2.19464 -17.961 1
      vertex 2.19464 -17.961 0
    endloop
  endfacet
  facet normal -0.887545 0.460721 0
    outer loop
      vertex 2.19464 -17.961 1
      vertex 2.03398 -18.2705 0
      vertex 2.03398 -18.2705 1
    endloop
  endfacet
  facet normal -0.813852 0.581072 0
    outer loop
      vertex 1.84599 -18.5338 0
      vertex 2.03398 -18.2705 1
      vertex 2.03398 -18.2705 0
    endloop
  endfacet
  facet normal -0.813852 0.581072 0
    outer loop
      vertex 2.03398 -18.2705 1
      vertex 1.84599 -18.5338 0
      vertex 1.84599 -18.5338 1
    endloop
  endfacet
  facet normal -0.714639 0.699493 0
    outer loop
      vertex 1.62801 -18.7565 0
      vertex 1.84599 -18.5338 1
      vertex 1.84599 -18.5338 0
    endloop
  endfacet
  facet normal -0.714639 0.699493 0
    outer loop
      vertex 1.84599 -18.5338 1
      vertex 1.62801 -18.7565 0
      vertex 1.62801 -18.7565 1
    endloop
  endfacet
  facet normal -0.592341 0.805687 0
    outer loop
      vertex 1.62801 -18.7565 0
      vertex 1.38005 -18.9388 1
      vertex 1.62801 -18.7565 1
    endloop
  endfacet
  facet normal -0.592341 0.805687 0
    outer loop
      vertex 1.38005 -18.9388 1
      vertex 1.62801 -18.7565 0
      vertex 1.38005 -18.9388 0
    endloop
  endfacet
  facet normal -0.454187 0.890906 0
    outer loop
      vertex 1.38005 -18.9388 0
      vertex 1.1021 -19.0805 1
      vertex 1.38005 -18.9388 1
    endloop
  endfacet
  facet normal -0.454187 0.890906 0
    outer loop
      vertex 1.1021 -19.0805 1
      vertex 1.38005 -18.9388 0
      vertex 1.1021 -19.0805 0
    endloop
  endfacet
  facet normal -0.312221 0.95001 0
    outer loop
      vertex 1.1021 -19.0805 0
      vertex 0.794174 -19.1817 1
      vertex 1.1021 -19.0805 1
    endloop
  endfacet
  facet normal -0.312221 0.95001 0
    outer loop
      vertex 0.794174 -19.1817 1
      vertex 1.1021 -19.0805 0
      vertex 0.794174 -19.1817 0
    endloop
  endfacet
  facet normal -0.177088 0.984195 0
    outer loop
      vertex 0.794174 -19.1817 0
      vertex 0.456268 -19.2425 1
      vertex 0.794174 -19.1817 1
    endloop
  endfacet
  facet normal -0.177088 0.984195 0
    outer loop
      vertex 0.456268 -19.2425 1
      vertex 0.794174 -19.1817 0
      vertex 0.456268 -19.2425 0
    endloop
  endfacet
  facet normal -0.0548253 0.998496 0
    outer loop
      vertex 0.456268 -19.2425 0
      vertex 0.0883789 -19.2627 1
      vertex 0.456268 -19.2425 1
    endloop
  endfacet
  facet normal -0.0548253 0.998496 0
    outer loop
      vertex 0.0883789 -19.2627 1
      vertex 0.456268 -19.2425 0
      vertex 0.0883789 -19.2627 0
    endloop
  endfacet
  facet normal 0.052807 0.998605 -0
    outer loop
      vertex 0.0883789 -19.2627 0
      vertex -0.27092 -19.2437 1
      vertex 0.0883789 -19.2627 1
    endloop
  endfacet
  facet normal 0.052807 0.998605 0
    outer loop
      vertex -0.27092 -19.2437 1
      vertex 0.0883789 -19.2627 0
      vertex -0.27092 -19.2437 0
    endloop
  endfacet
  facet normal 0.172317 0.985041 -0
    outer loop
      vertex -0.27092 -19.2437 0
      vertex -0.5979 -19.1865 1
      vertex -0.27092 -19.2437 1
    endloop
  endfacet
  facet normal 0.172317 0.985041 0
    outer loop
      vertex -0.5979 -19.1865 1
      vertex -0.27092 -19.2437 0
      vertex -0.5979 -19.1865 0
    endloop
  endfacet
  facet normal 0.30777 0.951461 -0
    outer loop
      vertex -0.5979 -19.1865 0
      vertex -0.892517 -19.0912 1
      vertex -0.5979 -19.1865 1
    endloop
  endfacet
  facet normal 0.30777 0.951461 0
    outer loop
      vertex -0.892517 -19.0912 1
      vertex -0.5979 -19.1865 0
      vertex -0.892517 -19.0912 0
    endloop
  endfacet
  facet normal 0.453613 0.891199 -0
    outer loop
      vertex -0.892517 -19.0912 0
      vertex -1.1548 -18.9577 1
      vertex -0.892517 -19.0912 1
    endloop
  endfacet
  facet normal 0.453613 0.891199 0
    outer loop
      vertex -1.1548 -18.9577 1
      vertex -0.892517 -19.0912 0
      vertex -1.1548 -18.9577 0
    endloop
  endfacet
  facet normal 0.597867 0.801595 -0
    outer loop
      vertex -1.1548 -18.9577 0
      vertex -1.38474 -18.7862 1
      vertex -1.1548 -18.9577 1
    endloop
  endfacet
  facet normal 0.597867 0.801595 0
    outer loop
      vertex -1.38474 -18.7862 1
      vertex -1.1548 -18.9577 0
      vertex -1.38474 -18.7862 0
    endloop
  endfacet
  facet normal 0.727827 0.685761 0
    outer loop
      vertex -1.38474 -18.7862 1
      vertex -1.58232 -18.5765 0
      vertex -1.58232 -18.5765 1
    endloop
  endfacet
  facet normal 0.727827 0.685761 0
    outer loop
      vertex -1.58232 -18.5765 0
      vertex -1.38474 -18.7862 1
      vertex -1.38474 -18.7862 0
    endloop
  endfacet
  facet normal 0.831973 0.554816 0
    outer loop
      vertex -1.58232 -18.5765 1
      vertex -1.74757 -18.3287 0
      vertex -1.74757 -18.3287 1
    endloop
  endfacet
  facet normal 0.831973 0.554816 0
    outer loop
      vertex -1.74757 -18.3287 0
      vertex -1.58232 -18.5765 1
      vertex -1.58232 -18.5765 0
    endloop
  endfacet
  facet normal 0.904683 0.426085 0
    outer loop
      vertex -1.74757 -18.3287 1
      vertex -1.88599 -18.0348 0
      vertex -1.88599 -18.0348 1
    endloop
  endfacet
  facet normal 0.904683 0.426085 0
    outer loop
      vertex -1.88599 -18.0348 0
      vertex -1.74757 -18.3287 1
      vertex -1.74757 -18.3287 0
    endloop
  endfacet
  facet normal 0.947709 0.319136 0
    outer loop
      vertex -1.88599 -18.0348 1
      vertex -2.00311 -17.687 0
      vertex -2.00311 -17.687 1
    endloop
  endfacet
  facet normal 0.947709 0.319136 0
    outer loop
      vertex -2.00311 -17.687 0
      vertex -1.88599 -18.0348 1
      vertex -1.88599 -18.0348 0
    endloop
  endfacet
  facet normal 0.972686 0.232127 0
    outer loop
      vertex -2.00311 -17.687 1
      vertex -2.09895 -17.2854 0
      vertex -2.09895 -17.2854 1
    endloop
  endfacet
  facet normal 0.972686 0.232127 0
    outer loop
      vertex -2.09895 -17.2854 0
      vertex -2.00311 -17.687 1
      vertex -2.00311 -17.687 0
    endloop
  endfacet
  facet normal 0.986882 0.161441 0
    outer loop
      vertex -2.09895 -17.2854 1
      vertex -2.17348 -16.8298 0
      vertex -2.17348 -16.8298 1
    endloop
  endfacet
  facet normal 0.986882 0.161441 0
    outer loop
      vertex -2.17348 -16.8298 0
      vertex -2.09895 -17.2854 1
      vertex -2.09895 -17.2854 0
    endloop
  endfacet
  facet normal 0.994585 0.103929 0
    outer loop
      vertex -2.17348 -16.8298 1
      vertex -2.22672 -16.3203 0
      vertex -2.22672 -16.3203 1
    endloop
  endfacet
  facet normal 0.994585 0.103929 0
    outer loop
      vertex -2.22672 -16.3203 0
      vertex -2.17348 -16.8298 1
      vertex -2.17348 -16.8298 0
    endloop
  endfacet
  facet normal 0.998395 0.0566283 0
    outer loop
      vertex -2.22672 -16.3203 1
      vertex -2.25867 -15.757 0
      vertex -2.25867 -15.757 1
    endloop
  endfacet
  facet normal 0.998395 0.0566283 0
    outer loop
      vertex -2.25867 -15.757 0
      vertex -2.22672 -16.3203 1
      vertex -2.22672 -16.3203 0
    endloop
  endfacet
  facet normal 0.999851 0.01725 0
    outer loop
      vertex -2.25867 -15.757 1
      vertex -2.26932 -15.1397 0
      vertex -2.26932 -15.1397 1
    endloop
  endfacet
  facet normal 0.999851 0.01725 0
    outer loop
      vertex -2.26932 -15.1397 0
      vertex -2.25867 -15.757 1
      vertex -2.25867 -15.757 0
    endloop
  endfacet
  facet normal 1 -0 0
    outer loop
      vertex -2.26932 -15.1397 1
      vertex -2.26932 -4.60025 0
      vertex -2.26932 -4.60025 1
    endloop
  endfacet
  facet normal 1 0 0
    outer loop
      vertex -2.26932 -4.60025 0
      vertex -2.26932 -15.1397 1
      vertex -2.26932 -15.1397 0
    endloop
  endfacet
  facet normal 0 1 -0
    outer loop
      vertex -2.26932 -4.60025 0
      vertex -6.07027 -4.60025 1
      vertex -2.26932 -4.60025 1
    endloop
  endfacet
  facet normal 0 1 0
    outer loop
      vertex -6.07027 -4.60025 1
      vertex -2.26932 -4.60025 0
      vertex -6.07027 -4.60025 0
    endloop
  endfacet
  facet normal -1 0 0
    outer loop
      vertex -6.07027 -15.1783 0
      vertex -6.07027 -4.60025 1
      vertex -6.07027 -4.60025 0
    endloop
  endfacet
  facet normal -1 -0 0
    outer loop
      vertex -6.07027 -4.60025 1
      vertex -6.07027 -15.1783 0
      vertex -6.07027 -15.1783 1
    endloop
  endfacet
  facet normal -0.99956 -0.0296655 0
    outer loop
      vertex -6.04082 -16.1706 0
      vertex -6.07027 -15.1783 1
      vertex -6.07027 -15.1783 0
    endloop
  endfacet
  facet normal -0.99956 -0.0296655 0
    outer loop
      vertex -6.07027 -15.1783 1
      vertex -6.04082 -16.1706 0
      vertex -6.04082 -16.1706 1
    endloop
  endfacet
  facet normal -0.995375 -0.0960695 0
    outer loop
      vertex -5.95245 -17.0862 0
      vertex -6.04082 -16.1706 1
      vertex -6.04082 -16.1706 0
    endloop
  endfacet
  facet normal -0.995375 -0.0960695 0
    outer loop
      vertex -6.04082 -16.1706 1
      vertex -5.95245 -17.0862 0
      vertex -5.95245 -17.0862 1
    endloop
  endfacet
  facet normal -0.984941 -0.172893 0
    outer loop
      vertex -5.80521 -17.925 0
      vertex -5.95245 -17.0862 1
      vertex -5.95245 -17.0862 0
    endloop
  endfacet
  facet normal -0.984941 -0.172893 0
    outer loop
      vertex -5.95245 -17.0862 1
      vertex -5.80521 -17.925 0
      vertex -5.80521 -17.925 1
    endloop
  endfacet
  facet normal -0.965298 -0.26115 0
    outer loop
      vertex -5.59906 -18.687 0
      vertex -5.80521 -17.925 1
      vertex -5.80521 -17.925 0
    endloop
  endfacet
  facet normal -0.965298 -0.26115 0
    outer loop
      vertex -5.80521 -17.925 1
      vertex -5.59906 -18.687 0
      vertex -5.59906 -18.687 1
    endloop
  endfacet
  facet normal -0.932655 -0.360771 0
    outer loop
      vertex -5.33401 -19.3722 0
      vertex -5.59906 -18.687 1
      vertex -5.59906 -18.687 0
    endloop
  endfacet
  facet normal -0.932655 -0.360771 0
    outer loop
      vertex -5.59906 -18.687 1
      vertex -5.33401 -19.3722 0
      vertex -5.33401 -19.3722 1
    endloop
  endfacet
  facet normal -0.882704 -0.469929 0
    outer loop
      vertex -5.01006 -19.9807 0
      vertex -5.33401 -19.3722 1
      vertex -5.33401 -19.3722 0
    endloop
  endfacet
  facet normal -0.882704 -0.469929 0
    outer loop
      vertex -5.33401 -19.3722 1
      vertex -5.01006 -19.9807 0
      vertex -5.01006 -19.9807 1
    endloop
  endfacet
  facet normal -0.811516 -0.584331 0
    outer loop
      vertex -4.62721 -20.5124 0
      vertex -5.01006 -19.9807 1
      vertex -5.01006 -19.9807 0
    endloop
  endfacet
  facet normal -0.811516 -0.584331 0
    outer loop
      vertex -5.01006 -19.9807 1
      vertex -4.62721 -20.5124 0
      vertex -4.62721 -20.5124 1
    endloop
  endfacet
  facet normal -0.715227 -0.698892 0
    outer loop
      vertex -4.17967 -20.9704 0
      vertex -4.62721 -20.5124 1
      vertex -4.62721 -20.5124 0
    endloop
  endfacet
  facet normal -0.715227 -0.698892 0
    outer loop
      vertex -4.62721 -20.5124 1
      vertex -4.17967 -20.9704 0
      vertex -4.17967 -20.9704 1
    endloop
  endfacet
  facet normal -0.599109 -0.800667 0
    outer loop
      vertex -4.17967 -20.9704 0
      vertex -3.66167 -21.358 1
      vertex -4.17967 -20.9704 1
    endloop
  endfacet
  facet normal -0.599109 -0.800667 -0
    outer loop
      vertex -3.66167 -21.358 1
      vertex -4.17967 -20.9704 0
      vertex -3.66167 -21.358 0
    endloop
  endfacet
  facet normal -0.474368 -0.880326 0
    outer loop
      vertex -3.66167 -21.358 0
      vertex -3.0732 -21.6751 1
      vertex -3.66167 -21.358 1
    endloop
  endfacet
  facet normal -0.474368 -0.880326 -0
    outer loop
      vertex -3.0732 -21.6751 1
      vertex -3.66167 -21.358 0
      vertex -3.0732 -21.6751 0
    endloop
  endfacet
  facet normal -0.350617 -0.936519 0
    outer loop
      vertex -3.0732 -21.6751 0
      vertex -2.41425 -21.9218 1
      vertex -3.0732 -21.6751 1
    endloop
  endfacet
  facet normal -0.350617 -0.936519 -0
    outer loop
      vertex -2.41425 -21.9218 1
      vertex -3.0732 -21.6751 0
      vertex -2.41425 -21.9218 0
    endloop
  endfacet
  facet normal -0.234682 -0.972072 0
    outer loop
      vertex -2.41425 -21.9218 0
      vertex -1.68483 -22.0979 1
      vertex -2.41425 -21.9218 1
    endloop
  endfacet
  facet normal -0.234682 -0.972072 -0
    outer loop
      vertex -1.68483 -22.0979 1
      vertex -2.41425 -21.9218 0
      vertex -1.68483 -22.0979 0
    endloop
  endfacet
  facet normal -0.131003 -0.991382 0
    outer loop
      vertex -1.68483 -22.0979 0
      vertex -0.884933 -22.2036 1
      vertex -1.68483 -22.0979 1
    endloop
  endfacet
  facet normal -0.131003 -0.991382 -0
    outer loop
      vertex -0.884933 -22.2036 1
      vertex -1.68483 -22.0979 0
      vertex -0.884933 -22.2036 0
    endloop
  endfacet
  facet normal -0.0405253 -0.999179 0
    outer loop
      vertex -0.884933 -22.2036 0
      vertex -0.0145874 -22.2389 1
      vertex -0.884933 -22.2036 1
    endloop
  endfacet
  facet normal -0.0405253 -0.999179 -0
    outer loop
      vertex -0.0145874 -22.2389 1
      vertex -0.884933 -22.2036 0
      vertex -0.0145874 -22.2389 0
    endloop
  endfacet
  facet normal 0.0403803 -0.999184 0
    outer loop
      vertex -0.0145874 -22.2389 0
      vertex 0.886108 -22.2025 1
      vertex -0.0145874 -22.2389 1
    endloop
  endfacet
  facet normal 0.0403803 -0.999184 0
    outer loop
      vertex 0.886108 -22.2025 1
      vertex -0.0145874 -22.2389 0
      vertex 0.886108 -22.2025 0
    endloop
  endfacet
endsolid OpenSCAD_Model
