solid OpenSCAD_Model
  facet normal 0 0 -1
    outer loop
      vertex 3.30634 -14.3113 0
      vertex 7.17482 -13.4939 0
      vertex 7.138 -14.7198 0
    endloop
  endfacet
  facet normal 0 0 -1
    outer loop
      vertex 3.25821 -15.0701 0
      vertex 7.138 -14.7198 0
      vertex 7.02756 -15.8574 0
    endloop
  endfacet
  facet normal -0 0 -1
    outer loop
      vertex 7.17482 -13.4939 0
      vertex 3.30634 -14.3113 0
      vertex 3.32237 -13.4939 0
    endloop
  endfacet
  facet normal 0 0 -1
    outer loop
      vertex 3.17801 -15.7702 0
      vertex 7.02756 -15.8574 0
      vertex 6.84349 -16.9066 0
    endloop
  endfacet
  facet normal 0 0 -1
    outer loop
      vertex 7.17482 -13.4939 0
      vertex 3.32237 -13.4939 0
      vertex 7.138 -12.2691 0
    endloop
  endfacet
  facet normal 0 0 -1
    outer loop
      vertex 3.0657 -16.4116 0
      vertex 6.84349 -16.9066 0
      vertex 6.5858 -17.8674 0
    endloop
  endfacet
  facet normal 0 0 -1
    outer loop
      vertex 7.138 -12.2691 0
      vertex 3.25848 -11.9249 0
      vertex 7.02756 -11.1348 0
    endloop
  endfacet
  facet normal 0 0 -1
    outer loop
      vertex 2.92134 -16.9945 0
      vertex 6.5858 -17.8674 0
      vertex 6.25447 -18.7399 0
    endloop
  endfacet
  facet normal 0 0 -1
    outer loop
      vertex 3.0668 -10.5973 0
      vertex 7.02756 -11.1348 0
      vertex 3.25848 -11.9249 0
    endloop
  endfacet
  facet normal 0 0 -1
    outer loop
      vertex 2.74489 -17.5187 0
      vertex 6.25447 -18.7399 0
      vertex 5.84953 -19.524 0
    endloop
  endfacet
  facet normal 0 0 -1
    outer loop
      vertex 7.02756 -11.1348 0
      vertex 3.0668 -10.5973 0
      vertex 6.84349 -10.0909 0
    endloop
  endfacet
  facet normal 0 0 -1
    outer loop
      vertex 2.53635 -17.9842 0
      vertex 5.84953 -19.524 0
      vertex 5.37096 -20.2198 0
    endloop
  endfacet
  facet normal -0 0 -1
    outer loop
      vertex 6.84349 -10.0909 0
      vertex 3.0668 -10.5973 0
      vertex 6.5858 -9.13753 0
    endloop
  endfacet
  facet normal 0 0 -1
    outer loop
      vertex 2.29604 -18.3893 0
      vertex 5.37096 -20.2198 0
      vertex 4.82353 -20.8248 0
    endloop
  endfacet
  facet normal 0 0 -1
    outer loop
      vertex 3.25848 -11.9249 0
      vertex 7.138 -12.2691 0
      vertex 3.32237 -13.4939 0
    endloop
  endfacet
  facet normal 0 0 -1
    outer loop
      vertex 2.02419 -18.7321 0
      vertex 4.82353 -20.8248 0
      vertex 4.21196 -21.3367 0
    endloop
  endfacet
  facet normal 0 0 -1
    outer loop
      vertex 2.74733 -9.51108 0
      vertex 6.5858 -9.13753 0
      vertex 3.0668 -10.5973 0
    endloop
  endfacet
  facet normal 0 0 -1
    outer loop
      vertex 1.72076 -19.0125 0
      vertex 4.21196 -21.3367 0
      vertex 3.53621 -21.7555 0
    endloop
  endfacet
  facet normal -0 0 -1
    outer loop
      vertex 6.5858 -9.13753 0
      vertex 2.74733 -9.51108 0
      vertex 6.25447 -8.27457 0
    endloop
  endfacet
  facet normal 0 0 -1
    outer loop
      vertex 2.30006 -8.66623 0
      vertex 5.84953 -7.50206 0
      vertex 2.74733 -9.51108 0
    endloop
  endfacet
  facet normal -0 0 -1
    outer loop
      vertex 6.25447 -8.27457 0
      vertex 2.74733 -9.51108 0
      vertex 5.84953 -7.50206 0
    endloop
  endfacet
  facet normal -0 0 -1
    outer loop
      vertex 7.138 -14.7198 0
      vertex 3.25821 -15.0701 0
      vertex 3.30634 -14.3113 0
    endloop
  endfacet
  facet normal 0 0 -1
    outer loop
      vertex 7.02756 -15.8574 0
      vertex 3.17801 -15.7702 0
      vertex 3.25821 -15.0701 0
    endloop
  endfacet
  facet normal 0 0 -1
    outer loop
      vertex 6.84349 -16.9066 0
      vertex 3.0657 -16.4116 0
      vertex 3.17801 -15.7702 0
    endloop
  endfacet
  facet normal 0 0 -1
    outer loop
      vertex 6.5858 -17.8674 0
      vertex 2.92134 -16.9945 0
      vertex 3.0657 -16.4116 0
    endloop
  endfacet
  facet normal 0 0 -1
    outer loop
      vertex 1.72076 -19.0125 0
      vertex 3.53621 -21.7555 0
      vertex 2.7963 -22.0813 0
    endloop
  endfacet
  facet normal 0 0 -1
    outer loop
      vertex 6.25447 -18.7399 0
      vertex 2.74489 -17.5187 0
      vertex 2.92134 -16.9945 0
    endloop
  endfacet
  facet normal 0 0 -1
    outer loop
      vertex 5.84953 -19.524 0
      vertex 2.53635 -17.9842 0
      vertex 2.74489 -17.5187 0
    endloop
  endfacet
  facet normal 0 0 -1
    outer loop
      vertex 5.37096 -20.2198 0
      vertex 2.29604 -18.3893 0
      vertex 2.53635 -17.9842 0
    endloop
  endfacet
  facet normal 0 0 -1
    outer loop
      vertex 4.82353 -20.8248 0
      vertex 2.02419 -18.7321 0
      vertex 2.29604 -18.3893 0
    endloop
  endfacet
  facet normal 0 0 -1
    outer loop
      vertex 1.3858 -19.2306 0
      vertex 2.7963 -22.0813 0
      vertex 1.99222 -22.314 0
    endloop
  endfacet
  facet normal 0 0 -1
    outer loop
      vertex 4.21196 -21.3367 0
      vertex 1.72076 -19.0125 0
      vertex 2.02419 -18.7321 0
    endloop
  endfacet
  facet normal 0 0 -1
    outer loop
      vertex 2.7963 -22.0813 0
      vertex 1.3858 -19.2306 0
      vertex 1.72076 -19.0125 0
    endloop
  endfacet
  facet normal 0 0 -1
    outer loop
      vertex 1.01927 -19.3864 0
      vertex 1.99222 -22.314 0
      vertex 1.12396 -22.4536 0
    endloop
  endfacet
  facet normal 0 0 -1
    outer loop
      vertex 1.99222 -22.314 0
      vertex 1.01927 -19.3864 0
      vertex 1.3858 -19.2306 0
    endloop
  endfacet
  facet normal 0 0 -1
    outer loop
      vertex 1.12396 -22.4536 0
      vertex 0.621185 -19.4799 0
      vertex 1.01927 -19.3864 0
    endloop
  endfacet
  facet normal 0 0 -1
    outer loop
      vertex 0.191559 -22.5001 0
      vertex 0.621185 -19.4799 0
      vertex 1.12396 -22.4536 0
    endloop
  endfacet
  facet normal 0 0 -1
    outer loop
      vertex 0.191559 -22.5001 0
      vertex 0.191559 -19.511 0
      vertex 0.621185 -19.4799 0
    endloop
  endfacet
  facet normal 0 0 -1
    outer loop
      vertex 0.191559 -22.5001 0
      vertex -0.238251 -19.4799 0
      vertex 0.191559 -19.511 0
    endloop
  endfacet
  facet normal 0 0 -1
    outer loop
      vertex -0.740982 -22.4536 0
      vertex -0.238251 -19.4799 0
      vertex 0.191559 -22.5001 0
    endloop
  endfacet
  facet normal -0 0 -1
    outer loop
      vertex -0.238251 -19.4799 0
      vertex -0.740982 -22.4536 0
      vertex -0.63678 -19.3864 0
    endloop
  endfacet
  facet normal 0 0 -1
    outer loop
      vertex -1.60963 -22.314 0
      vertex -0.63678 -19.3864 0
      vertex -0.740982 -22.4536 0
    endloop
  endfacet
  facet normal -0 0 -1
    outer loop
      vertex -0.63678 -19.3864 0
      vertex -1.60963 -22.314 0
      vertex -1.00403 -19.2306 0
    endloop
  endfacet
  facet normal 0 0 -1
    outer loop
      vertex -2.41438 -22.0813 0
      vertex -1.00403 -19.2306 0
      vertex -1.60963 -22.314 0
    endloop
  endfacet
  facet normal -0 0 -1
    outer loop
      vertex -1.00403 -19.2306 0
      vertex -2.41438 -22.0813 0
      vertex -1.33997 -19.0125 0
    endloop
  endfacet
  facet normal 0 0 -1
    outer loop
      vertex -3.15526 -21.7555 0
      vertex -1.33997 -19.0125 0
      vertex -2.41438 -22.0813 0
    endloop
  endfacet
  facet normal 0 0 -1
    outer loop
      vertex -3.83223 -21.3367 0
      vertex -1.33997 -19.0125 0
      vertex -3.15526 -21.7555 0
    endloop
  endfacet
  facet normal -0 0 -1
    outer loop
      vertex -1.33997 -19.0125 0
      vertex -3.83223 -21.3367 0
      vertex -1.64462 -18.7321 0
    endloop
  endfacet
  facet normal 0 0 -1
    outer loop
      vertex -4.4453 -20.8248 0
      vertex -1.64462 -18.7321 0
      vertex -3.83223 -21.3367 0
    endloop
  endfacet
  facet normal -0 0 -1
    outer loop
      vertex -1.64462 -18.7321 0
      vertex -4.4453 -20.8248 0
      vertex -1.91798 -18.3893 0
    endloop
  endfacet
  facet normal 0 0 -1
    outer loop
      vertex -4.99448 -20.2198 0
      vertex -1.91798 -18.3893 0
      vertex -4.4453 -20.8248 0
    endloop
  endfacet
  facet normal -0 0 -1
    outer loop
      vertex -1.91798 -18.3893 0
      vertex -4.99448 -20.2198 0
      vertex -2.16006 -17.9842 0
    endloop
  endfacet
  facet normal 0 0 -1
    outer loop
      vertex -5.47472 -19.524 0
      vertex -2.16006 -17.9842 0
      vertex -4.99448 -20.2198 0
    endloop
  endfacet
  facet normal -0 0 -1
    outer loop
      vertex -2.37025 -17.5187 0
      vertex -5.88107 -18.7399 0
      vertex -2.54813 -16.9945 0
    endloop
  endfacet
  facet normal 0 0 -1
    outer loop
      vertex -5.88107 -18.7399 0
      vertex -2.37025 -17.5187 0
      vertex -5.47472 -19.524 0
    endloop
  endfacet
  facet normal -0 0 -1
    outer loop
      vertex -2.16006 -17.9842 0
      vertex -5.47472 -19.524 0
      vertex -2.37025 -17.5187 0
    endloop
  endfacet
  facet normal -0 0 -1
    outer loop
      vertex 5.84953 -7.50206 0
      vertex 2.30006 -8.66623 0
      vertex 5.37096 -6.82001 0
    endloop
  endfacet
  facet normal -0 0 -1
    outer loop
      vertex 5.37096 -6.82001 0
      vertex 2.30006 -8.66623 0
      vertex 4.82353 -6.22861 0
    endloop
  endfacet
  facet normal -0 0 -1
    outer loop
      vertex 4.82353 -6.22861 0
      vertex 2.30006 -8.66623 0
      vertex 4.21196 -5.72821 0
    endloop
  endfacet
  facet normal 0 0 -1
    outer loop
      vertex 1.72502 -8.06277 0
      vertex 4.21196 -5.72821 0
      vertex 2.30006 -8.66623 0
    endloop
  endfacet
  facet normal -0 0 -1
    outer loop
      vertex 4.21196 -5.72821 0
      vertex 1.72502 -8.06277 0
      vertex 3.53621 -5.31879 0
    endloop
  endfacet
  facet normal -0 0 -1
    outer loop
      vertex 3.53621 -5.31879 0
      vertex 1.72502 -8.06277 0
      vertex 2.7963 -5.00035 0
    endloop
  endfacet
  facet normal 0 0 -1
    outer loop
      vertex 1.02219 -7.7007 0
      vertex 2.7963 -5.00035 0
      vertex 1.72502 -8.06277 0
    endloop
  endfacet
  facet normal -0 0 -1
    outer loop
      vertex 2.7963 -5.00035 0
      vertex 1.02219 -7.7007 0
      vertex 1.99222 -4.7729 0
    endloop
  endfacet
  facet normal -0 0 -1
    outer loop
      vertex 1.99222 -4.7729 0
      vertex 1.02219 -7.7007 0
      vertex 1.12396 -4.63643 0
    endloop
  endfacet
  facet normal 0 0 -1
    outer loop
      vertex 0.191559 -7.58 0
      vertex 1.12396 -4.63643 0
      vertex 1.02219 -7.7007 0
    endloop
  endfacet
  facet normal 0 0 -1
    outer loop
      vertex 0.191559 -7.58 0
      vertex 0.191559 -4.59094 0
      vertex 1.12396 -4.63643 0
    endloop
  endfacet
  facet normal 0 0 -1
    outer loop
      vertex -0.740982 -4.63643 0
      vertex 0.191559 -7.58 0
      vertex -0.642532 -7.7007 0
    endloop
  endfacet
  facet normal 0 0 -1
    outer loop
      vertex 0.191559 -7.58 0
      vertex -0.740982 -4.63643 0
      vertex 0.191559 -4.59094 0
    endloop
  endfacet
  facet normal 0 0 -1
    outer loop
      vertex -2.41438 -5.00035 0
      vertex -0.642532 -7.7007 0
      vertex -1.34831 -8.06277 0
    endloop
  endfacet
  facet normal 0 0 -1
    outer loop
      vertex -0.642532 -7.7007 0
      vertex -1.60963 -4.7729 0
      vertex -0.740982 -4.63643 0
    endloop
  endfacet
  facet normal 0 0 -1
    outer loop
      vertex -3.83223 -5.72821 0
      vertex -1.34831 -8.06277 0
      vertex -1.92577 -8.66623 0
    endloop
  endfacet
  facet normal 0 0 -1
    outer loop
      vertex -5.47472 -7.50206 0
      vertex -1.92577 -8.66623 0
      vertex -2.37491 -9.51108 0
    endloop
  endfacet
  facet normal 0 0 -1
    outer loop
      vertex -0.642532 -7.7007 0
      vertex -2.41438 -5.00035 0
      vertex -1.60963 -4.7729 0
    endloop
  endfacet
  facet normal 0 0 -1
    outer loop
      vertex -6.21355 -9.13753 0
      vertex -2.37491 -9.51108 0
      vertex -2.69571 -10.5973 0
    endloop
  endfacet
  facet normal 0 0 -1
    outer loop
      vertex -6.65685 -11.1348 0
      vertex -2.69571 -10.5973 0
      vertex -2.8882 -11.9249 0
    endloop
  endfacet
  facet normal 0 0 -1
    outer loop
      vertex -1.34831 -8.06277 0
      vertex -3.15526 -5.31879 0
      vertex -2.41438 -5.00035 0
    endloop
  endfacet
  facet normal 0 0 -1
    outer loop
      vertex -6.76767 -12.2691 0
      vertex -2.8882 -11.9249 0
      vertex -2.95236 -13.4939 0
    endloop
  endfacet
  facet normal 0 0 -1
    outer loop
      vertex -6.21355 -17.8674 0
      vertex -2.54813 -16.9945 0
      vertex -5.88107 -18.7399 0
    endloop
  endfacet
  facet normal -0 0 -1
    outer loop
      vertex -2.54813 -16.9945 0
      vertex -6.21355 -17.8674 0
      vertex -2.69365 -16.4116 0
    endloop
  endfacet
  facet normal 0 -0 -1
    outer loop
      vertex -6.76767 -12.2691 0
      vertex -2.95236 -13.4939 0
      vertex -6.80461 -13.4939 0
    endloop
  endfacet
  facet normal 0 0 -1
    outer loop
      vertex -6.47214 -16.9066 0
      vertex -2.69365 -16.4116 0
      vertex -6.21355 -17.8674 0
    endloop
  endfacet
  facet normal -0 0 -1
    outer loop
      vertex -2.8882 -11.9249 0
      vertex -6.76767 -12.2691 0
      vertex -6.65685 -11.1348 0
    endloop
  endfacet
  facet normal -0 0 -1
    outer loop
      vertex -2.69365 -16.4116 0
      vertex -6.47214 -16.9066 0
      vertex -2.80684 -15.7702 0
    endloop
  endfacet
  facet normal -0 0 -1
    outer loop
      vertex -2.69571 -10.5973 0
      vertex -6.65685 -11.1348 0
      vertex -6.47214 -10.0909 0
    endloop
  endfacet
  facet normal 0 0 -1
    outer loop
      vertex -6.65685 -15.8574 0
      vertex -2.80684 -15.7702 0
      vertex -6.47214 -16.9066 0
    endloop
  endfacet
  facet normal 0 0 -1
    outer loop
      vertex -2.69571 -10.5973 0
      vertex -6.47214 -10.0909 0
      vertex -6.21355 -9.13753 0
    endloop
  endfacet
  facet normal -0 0 -1
    outer loop
      vertex -2.80684 -15.7702 0
      vertex -6.65685 -15.8574 0
      vertex -2.88768 -15.0701 0
    endloop
  endfacet
  facet normal 0 0 -1
    outer loop
      vertex -2.37491 -9.51108 0
      vertex -6.21355 -9.13753 0
      vertex -5.88107 -8.27457 0
    endloop
  endfacet
  facet normal 0 0 -1
    outer loop
      vertex -6.76767 -14.7198 0
      vertex -2.88768 -15.0701 0
      vertex -6.65685 -15.8574 0
    endloop
  endfacet
  facet normal 0 0 -1
    outer loop
      vertex -2.93619 -14.3113 0
      vertex -6.80461 -13.4939 0
      vertex -2.95236 -13.4939 0
    endloop
  endfacet
  facet normal 0 0 -1
    outer loop
      vertex -2.88768 -15.0701 0
      vertex -6.76767 -14.7198 0
      vertex -2.93619 -14.3113 0
    endloop
  endfacet
  facet normal 0 0 -1
    outer loop
      vertex -2.37491 -9.51108 0
      vertex -5.88107 -8.27457 0
      vertex -5.47472 -7.50206 0
    endloop
  endfacet
  facet normal 0 0 -1
    outer loop
      vertex -6.80461 -13.4939 0
      vertex -2.93619 -14.3113 0
      vertex -6.76767 -14.7198 0
    endloop
  endfacet
  facet normal 0 0 -1
    outer loop
      vertex -1.34831 -8.06277 0
      vertex -3.83223 -5.72821 0
      vertex -3.15526 -5.31879 0
    endloop
  endfacet
  facet normal 0 0 -1
    outer loop
      vertex -1.92577 -8.66623 0
      vertex -4.4453 -6.22861 0
      vertex -3.83223 -5.72821 0
    endloop
  endfacet
  facet normal 0 0 -1
    outer loop
      vertex -1.92577 -8.66623 0
      vertex -5.47472 -7.50206 0
      vertex -4.99448 -6.82001 0
    endloop
  endfacet
  facet normal 0 0 -1
    outer loop
      vertex -1.92577 -8.66623 0
      vertex -4.99448 -6.82001 0
      vertex -4.4453 -6.22861 0
    endloop
  endfacet
  facet normal 0 0 1
    outer loop
      vertex 3.32237 -13.4939 1
      vertex 7.17482 -13.4939 1
      vertex 7.138 -12.2691 1
    endloop
  endfacet
  facet normal -0 0 1
    outer loop
      vertex 3.25848 -11.9249 1
      vertex 7.138 -12.2691 1
      vertex 7.02756 -11.1348 1
    endloop
  endfacet
  facet normal 0 0 1
    outer loop
      vertex 3.30634 -14.3113 1
      vertex 7.17482 -13.4939 1
      vertex 3.32237 -13.4939 1
    endloop
  endfacet
  facet normal -0 0 1
    outer loop
      vertex 3.0668 -10.5973 1
      vertex 7.02756 -11.1348 1
      vertex 6.84349 -10.0909 1
    endloop
  endfacet
  facet normal 0 0 1
    outer loop
      vertex 7.17482 -13.4939 1
      vertex 3.30634 -14.3113 1
      vertex 7.138 -14.7198 1
    endloop
  endfacet
  facet normal 0 0 1
    outer loop
      vertex 3.0668 -10.5973 1
      vertex 6.84349 -10.0909 1
      vertex 6.5858 -9.13753 1
    endloop
  endfacet
  facet normal 0 0 1
    outer loop
      vertex 3.25821 -15.0701 1
      vertex 7.138 -14.7198 1
      vertex 3.30634 -14.3113 1
    endloop
  endfacet
  facet normal 0 0 1
    outer loop
      vertex 2.74733 -9.51108 1
      vertex 6.5858 -9.13753 1
      vertex 6.25447 -8.27457 1
    endloop
  endfacet
  facet normal 0 0 1
    outer loop
      vertex 7.138 -14.7198 1
      vertex 3.25821 -15.0701 1
      vertex 7.02756 -15.8574 1
    endloop
  endfacet
  facet normal 0 0 1
    outer loop
      vertex 2.74733 -9.51108 1
      vertex 6.25447 -8.27457 1
      vertex 5.84953 -7.50206 1
    endloop
  endfacet
  facet normal -0 0 1
    outer loop
      vertex 3.17801 -15.7702 1
      vertex 7.02756 -15.8574 1
      vertex 3.25821 -15.0701 1
    endloop
  endfacet
  facet normal 0 0 1
    outer loop
      vertex 2.30006 -8.66623 1
      vertex 5.84953 -7.50206 1
      vertex 5.37096 -6.82001 1
    endloop
  endfacet
  facet normal 0 0 1
    outer loop
      vertex 7.02756 -15.8574 1
      vertex 3.17801 -15.7702 1
      vertex 6.84349 -16.9066 1
    endloop
  endfacet
  facet normal 0 0 1
    outer loop
      vertex 2.30006 -8.66623 1
      vertex 5.37096 -6.82001 1
      vertex 4.82353 -6.22861 1
    endloop
  endfacet
  facet normal -0 0 1
    outer loop
      vertex 3.0657 -16.4116 1
      vertex 6.84349 -16.9066 1
      vertex 3.17801 -15.7702 1
    endloop
  endfacet
  facet normal 0 0 1
    outer loop
      vertex 2.30006 -8.66623 1
      vertex 4.82353 -6.22861 1
      vertex 4.21196 -5.72821 1
    endloop
  endfacet
  facet normal 0 0 1
    outer loop
      vertex 6.84349 -16.9066 1
      vertex 3.0657 -16.4116 1
      vertex 6.5858 -17.8674 1
    endloop
  endfacet
  facet normal 0 0 1
    outer loop
      vertex 1.72502 -8.06277 1
      vertex 4.21196 -5.72821 1
      vertex 3.53621 -5.31879 1
    endloop
  endfacet
  facet normal -0 0 1
    outer loop
      vertex 2.92134 -16.9945 1
      vertex 6.5858 -17.8674 1
      vertex 3.0657 -16.4116 1
    endloop
  endfacet
  facet normal 0 0 1
    outer loop
      vertex 6.5858 -17.8674 1
      vertex 2.92134 -16.9945 1
      vertex 6.25447 -18.7399 1
    endloop
  endfacet
  facet normal 0 0 1
    outer loop
      vertex 7.138 -12.2691 1
      vertex 3.25848 -11.9249 1
      vertex 3.32237 -13.4939 1
    endloop
  endfacet
  facet normal 0 0 1
    outer loop
      vertex 7.02756 -11.1348 1
      vertex 3.0668 -10.5973 1
      vertex 3.25848 -11.9249 1
    endloop
  endfacet
  facet normal 0 0 1
    outer loop
      vertex 1.72502 -8.06277 1
      vertex 3.53621 -5.31879 1
      vertex 2.7963 -5.00035 1
    endloop
  endfacet
  facet normal 0 0 1
    outer loop
      vertex 6.5858 -9.13753 1
      vertex 2.74733 -9.51108 1
      vertex 3.0668 -10.5973 1
    endloop
  endfacet
  facet normal 0 0 1
    outer loop
      vertex 5.84953 -7.50206 1
      vertex 2.30006 -8.66623 1
      vertex 2.74733 -9.51108 1
    endloop
  endfacet
  facet normal 0 0 1
    outer loop
      vertex 1.02219 -7.7007 1
      vertex 2.7963 -5.00035 1
      vertex 1.99222 -4.7729 1
    endloop
  endfacet
  facet normal 0 0 1
    outer loop
      vertex 4.21196 -5.72821 1
      vertex 1.72502 -8.06277 1
      vertex 2.30006 -8.66623 1
    endloop
  endfacet
  facet normal 0 0 1
    outer loop
      vertex 1.02219 -7.7007 1
      vertex 1.99222 -4.7729 1
      vertex 1.12396 -4.63643 1
    endloop
  endfacet
  facet normal 0 0 1
    outer loop
      vertex 2.7963 -5.00035 1
      vertex 1.02219 -7.7007 1
      vertex 1.72502 -8.06277 1
    endloop
  endfacet
  facet normal 0 0 1
    outer loop
      vertex 0.191559 -7.58 1
      vertex 1.12396 -4.63643 1
      vertex 0.191559 -4.59094 1
    endloop
  endfacet
  facet normal 0 0 1
    outer loop
      vertex 1.12396 -4.63643 1
      vertex 0.191559 -7.58 1
      vertex 1.02219 -7.7007 1
    endloop
  endfacet
  facet normal -0 0 1
    outer loop
      vertex -0.740982 -4.63643 1
      vertex 0.191559 -7.58 1
      vertex 0.191559 -4.59094 1
    endloop
  endfacet
  facet normal 0 0 1
    outer loop
      vertex 0.191559 -7.58 1
      vertex -0.740982 -4.63643 1
      vertex -0.642532 -7.7007 1
    endloop
  endfacet
  facet normal -0 0 1
    outer loop
      vertex -1.60963 -4.7729 1
      vertex -0.642532 -7.7007 1
      vertex -0.740982 -4.63643 1
    endloop
  endfacet
  facet normal -0 0 1
    outer loop
      vertex -2.41438 -5.00035 1
      vertex -0.642532 -7.7007 1
      vertex -1.60963 -4.7729 1
    endloop
  endfacet
  facet normal 0 0 1
    outer loop
      vertex -0.642532 -7.7007 1
      vertex -2.41438 -5.00035 1
      vertex -1.34831 -8.06277 1
    endloop
  endfacet
  facet normal -0 0 1
    outer loop
      vertex -3.15526 -5.31879 1
      vertex -1.34831 -8.06277 1
      vertex -2.41438 -5.00035 1
    endloop
  endfacet
  facet normal -0 0 1
    outer loop
      vertex -3.83223 -5.72821 1
      vertex -1.34831 -8.06277 1
      vertex -3.15526 -5.31879 1
    endloop
  endfacet
  facet normal 0 0 1
    outer loop
      vertex -1.34831 -8.06277 1
      vertex -3.83223 -5.72821 1
      vertex -1.92577 -8.66623 1
    endloop
  endfacet
  facet normal -0 0 1
    outer loop
      vertex -4.4453 -6.22861 1
      vertex -1.92577 -8.66623 1
      vertex -3.83223 -5.72821 1
    endloop
  endfacet
  facet normal -0 0 1
    outer loop
      vertex -5.47472 -7.50206 1
      vertex -1.92577 -8.66623 1
      vertex -4.99448 -6.82001 1
    endloop
  endfacet
  facet normal -0 0 1
    outer loop
      vertex -4.99448 -6.82001 1
      vertex -1.92577 -8.66623 1
      vertex -4.4453 -6.22861 1
    endloop
  endfacet
  facet normal -0 0 1
    outer loop
      vertex 2.74489 -17.5187 1
      vertex 6.25447 -18.7399 1
      vertex 2.92134 -16.9945 1
    endloop
  endfacet
  facet normal 0 0 1
    outer loop
      vertex 6.25447 -18.7399 1
      vertex 2.74489 -17.5187 1
      vertex 5.84953 -19.524 1
    endloop
  endfacet
  facet normal -0 0 1
    outer loop
      vertex 2.53635 -17.9842 1
      vertex 5.84953 -19.524 1
      vertex 2.74489 -17.5187 1
    endloop
  endfacet
  facet normal 0 0 1
    outer loop
      vertex 5.84953 -19.524 1
      vertex 2.53635 -17.9842 1
      vertex 5.37096 -20.2198 1
    endloop
  endfacet
  facet normal -0 0 1
    outer loop
      vertex 2.29604 -18.3893 1
      vertex 5.37096 -20.2198 1
      vertex 2.53635 -17.9842 1
    endloop
  endfacet
  facet normal 0 0 1
    outer loop
      vertex 5.37096 -20.2198 1
      vertex 2.29604 -18.3893 1
      vertex 4.82353 -20.8248 1
    endloop
  endfacet
  facet normal -0 0 1
    outer loop
      vertex 2.02419 -18.7321 1
      vertex 4.82353 -20.8248 1
      vertex 2.29604 -18.3893 1
    endloop
  endfacet
  facet normal 0 0 1
    outer loop
      vertex 4.82353 -20.8248 1
      vertex 2.02419 -18.7321 1
      vertex 4.21196 -21.3367 1
    endloop
  endfacet
  facet normal -0 0 1
    outer loop
      vertex 1.72076 -19.0125 1
      vertex 4.21196 -21.3367 1
      vertex 2.02419 -18.7321 1
    endloop
  endfacet
  facet normal 0 0 1
    outer loop
      vertex 4.21196 -21.3367 1
      vertex 1.72076 -19.0125 1
      vertex 3.53621 -21.7555 1
    endloop
  endfacet
  facet normal 0 0 1
    outer loop
      vertex 3.53621 -21.7555 1
      vertex 1.72076 -19.0125 1
      vertex 2.7963 -22.0813 1
    endloop
  endfacet
  facet normal -0 0 1
    outer loop
      vertex 1.3858 -19.2306 1
      vertex 2.7963 -22.0813 1
      vertex 1.72076 -19.0125 1
    endloop
  endfacet
  facet normal 0 0 1
    outer loop
      vertex 2.7963 -22.0813 1
      vertex 1.3858 -19.2306 1
      vertex 1.99222 -22.314 1
    endloop
  endfacet
  facet normal -0 0 1
    outer loop
      vertex 1.01927 -19.3864 1
      vertex 1.99222 -22.314 1
      vertex 1.3858 -19.2306 1
    endloop
  endfacet
  facet normal 0 0 1
    outer loop
      vertex 1.99222 -22.314 1
      vertex 1.01927 -19.3864 1
      vertex 1.12396 -22.4536 1
    endloop
  endfacet
  facet normal -0 0 1
    outer loop
      vertex 0.621185 -19.4799 1
      vertex 1.12396 -22.4536 1
      vertex 1.01927 -19.3864 1
    endloop
  endfacet
  facet normal 0 0 1
    outer loop
      vertex 0.191559 -22.5001 1
      vertex 0.621185 -19.4799 1
      vertex 0.191559 -19.511 1
    endloop
  endfacet
  facet normal 0 0 1
    outer loop
      vertex 0.621185 -19.4799 1
      vertex 0.191559 -22.5001 1
      vertex 1.12396 -22.4536 1
    endloop
  endfacet
  facet normal 0 0 1
    outer loop
      vertex -0.238251 -19.4799 1
      vertex 0.191559 -22.5001 1
      vertex 0.191559 -19.511 1
    endloop
  endfacet
  facet normal 0 0 1
    outer loop
      vertex -0.740982 -22.4536 1
      vertex -0.238251 -19.4799 1
      vertex -0.63678 -19.3864 1
    endloop
  endfacet
  facet normal 0 0 1
    outer loop
      vertex -0.238251 -19.4799 1
      vertex -0.740982 -22.4536 1
      vertex 0.191559 -22.5001 1
    endloop
  endfacet
  facet normal 0 0 1
    outer loop
      vertex -1.60963 -22.314 1
      vertex -0.63678 -19.3864 1
      vertex -1.00403 -19.2306 1
    endloop
  endfacet
  facet normal 0 0 1
    outer loop
      vertex -2.41438 -22.0813 1
      vertex -1.00403 -19.2306 1
      vertex -1.33997 -19.0125 1
    endloop
  endfacet
  facet normal 0 0 1
    outer loop
      vertex -0.63678 -19.3864 1
      vertex -1.60963 -22.314 1
      vertex -0.740982 -22.4536 1
    endloop
  endfacet
  facet normal 0 0 1
    outer loop
      vertex -3.83223 -21.3367 1
      vertex -1.33997 -19.0125 1
      vertex -1.64462 -18.7321 1
    endloop
  endfacet
  facet normal 0 0 1
    outer loop
      vertex -4.4453 -20.8248 1
      vertex -1.64462 -18.7321 1
      vertex -1.91798 -18.3893 1
    endloop
  endfacet
  facet normal 0 0 1
    outer loop
      vertex -4.99448 -20.2198 1
      vertex -1.91798 -18.3893 1
      vertex -2.16006 -17.9842 1
    endloop
  endfacet
  facet normal 0 0 1
    outer loop
      vertex -5.47472 -19.524 1
      vertex -2.16006 -17.9842 1
      vertex -2.37025 -17.5187 1
    endloop
  endfacet
  facet normal 0 0 1
    outer loop
      vertex -1.00403 -19.2306 1
      vertex -2.41438 -22.0813 1
      vertex -1.60963 -22.314 1
    endloop
  endfacet
  facet normal 0 0 1
    outer loop
      vertex -5.88107 -18.7399 1
      vertex -2.37025 -17.5187 1
      vertex -2.54813 -16.9945 1
    endloop
  endfacet
  facet normal 0 0 1
    outer loop
      vertex -6.21355 -17.8674 1
      vertex -2.54813 -16.9945 1
      vertex -2.69365 -16.4116 1
    endloop
  endfacet
  facet normal 0 0 1
    outer loop
      vertex -6.47214 -16.9066 1
      vertex -2.69365 -16.4116 1
      vertex -2.80684 -15.7702 1
    endloop
  endfacet
  facet normal 0 0 1
    outer loop
      vertex -6.65685 -15.8574 1
      vertex -2.80684 -15.7702 1
      vertex -2.88768 -15.0701 1
    endloop
  endfacet
  facet normal 0 0 1
    outer loop
      vertex -1.92577 -8.66623 1
      vertex -5.47472 -7.50206 1
      vertex -2.37491 -9.51108 1
    endloop
  endfacet
  facet normal 0 0 1
    outer loop
      vertex -1.33997 -19.0125 1
      vertex -3.15526 -21.7555 1
      vertex -2.41438 -22.0813 1
    endloop
  endfacet
  facet normal -0 0 1
    outer loop
      vertex -6.76767 -14.7198 1
      vertex -2.88768 -15.0701 1
      vertex -2.93619 -14.3113 1
    endloop
  endfacet
  facet normal -0 0 1
    outer loop
      vertex -5.88107 -8.27457 1
      vertex -2.37491 -9.51108 1
      vertex -5.47472 -7.50206 1
    endloop
  endfacet
  facet normal -0 0 1
    outer loop
      vertex -6.21355 -9.13753 1
      vertex -2.37491 -9.51108 1
      vertex -5.88107 -8.27457 1
    endloop
  endfacet
  facet normal 0 -0 1
    outer loop
      vertex -6.76767 -14.7198 1
      vertex -2.93619 -14.3113 1
      vertex -6.80461 -13.4939 1
    endloop
  endfacet
  facet normal 0 0 1
    outer loop
      vertex -2.37491 -9.51108 1
      vertex -6.21355 -9.13753 1
      vertex -2.69571 -10.5973 1
    endloop
  endfacet
  facet normal 0 0 1
    outer loop
      vertex -2.88768 -15.0701 1
      vertex -6.76767 -14.7198 1
      vertex -6.65685 -15.8574 1
    endloop
  endfacet
  facet normal -0 0 1
    outer loop
      vertex -6.47214 -10.0909 1
      vertex -2.69571 -10.5973 1
      vertex -6.21355 -9.13753 1
    endloop
  endfacet
  facet normal 0 0 1
    outer loop
      vertex -2.80684 -15.7702 1
      vertex -6.65685 -15.8574 1
      vertex -6.47214 -16.9066 1
    endloop
  endfacet
  facet normal 0 0 1
    outer loop
      vertex -6.65685 -11.1348 1
      vertex -2.69571 -10.5973 1
      vertex -6.47214 -10.0909 1
    endloop
  endfacet
  facet normal 0 0 1
    outer loop
      vertex -2.69365 -16.4116 1
      vertex -6.47214 -16.9066 1
      vertex -6.21355 -17.8674 1
    endloop
  endfacet
  facet normal 0 0 1
    outer loop
      vertex -2.69571 -10.5973 1
      vertex -6.65685 -11.1348 1
      vertex -2.8882 -11.9249 1
    endloop
  endfacet
  facet normal 0 0 1
    outer loop
      vertex -2.54813 -16.9945 1
      vertex -6.21355 -17.8674 1
      vertex -5.88107 -18.7399 1
    endloop
  endfacet
  facet normal 0 0 1
    outer loop
      vertex -6.76767 -12.2691 1
      vertex -2.8882 -11.9249 1
      vertex -6.65685 -11.1348 1
    endloop
  endfacet
  facet normal 0 0 1
    outer loop
      vertex -2.37025 -17.5187 1
      vertex -5.88107 -18.7399 1
      vertex -5.47472 -19.524 1
    endloop
  endfacet
  facet normal 0 0 1
    outer loop
      vertex -2.8882 -11.9249 1
      vertex -6.76767 -12.2691 1
      vertex -2.95236 -13.4939 1
    endloop
  endfacet
  facet normal 0 0 1
    outer loop
      vertex -2.95236 -13.4939 1
      vertex -6.80461 -13.4939 1
      vertex -2.93619 -14.3113 1
    endloop
  endfacet
  facet normal 0 0 1
    outer loop
      vertex -6.80461 -13.4939 1
      vertex -2.95236 -13.4939 1
      vertex -6.76767 -12.2691 1
    endloop
  endfacet
  facet normal 0 0 1
    outer loop
      vertex -1.33997 -19.0125 1
      vertex -3.83223 -21.3367 1
      vertex -3.15526 -21.7555 1
    endloop
  endfacet
  facet normal 0 0 1
    outer loop
      vertex -1.64462 -18.7321 1
      vertex -4.4453 -20.8248 1
      vertex -3.83223 -21.3367 1
    endloop
  endfacet
  facet normal 0 0 1
    outer loop
      vertex -2.16006 -17.9842 1
      vertex -5.47472 -19.524 1
      vertex -4.99448 -20.2198 1
    endloop
  endfacet
  facet normal 0 0 1
    outer loop
      vertex -1.91798 -18.3893 1
      vertex -4.99448 -20.2198 1
      vertex -4.4453 -20.8248 1
    endloop
  endfacet
  facet normal 0.158743 -0.98732 0
    outer loop
      vertex 1.12396 -22.4536 0
      vertex 1.99222 -22.314 1
      vertex 1.12396 -22.4536 1
    endloop
  endfacet
  facet normal 0.158743 -0.98732 0
    outer loop
      vertex 1.99222 -22.314 1
      vertex 1.12396 -22.4536 0
      vertex 1.99222 -22.314 0
    endloop
  endfacet
  facet normal 0.277992 -0.960583 0
    outer loop
      vertex 1.99222 -22.314 0
      vertex 2.7963 -22.0813 1
      vertex 1.99222 -22.314 1
    endloop
  endfacet
  facet normal 0.277992 -0.960583 0
    outer loop
      vertex 2.7963 -22.0813 1
      vertex 1.99222 -22.314 0
      vertex 2.7963 -22.0813 0
    endloop
  endfacet
  facet normal 0.402987 -0.915206 0
    outer loop
      vertex 2.7963 -22.0813 0
      vertex 3.53621 -21.7555 1
      vertex 2.7963 -22.0813 1
    endloop
  endfacet
  facet normal 0.402987 -0.915206 0
    outer loop
      vertex 3.53621 -21.7555 1
      vertex 2.7963 -22.0813 0
      vertex 3.53621 -21.7555 0
    endloop
  endfacet
  facet normal 0.52679 -0.849996 0
    outer loop
      vertex 3.53621 -21.7555 0
      vertex 4.21196 -21.3367 1
      vertex 3.53621 -21.7555 1
    endloop
  endfacet
  facet normal 0.52679 -0.849996 0
    outer loop
      vertex 4.21196 -21.3367 1
      vertex 3.53621 -21.7555 0
      vertex 4.21196 -21.3367 0
    endloop
  endfacet
  facet normal 0.641854 -0.766827 0
    outer loop
      vertex 4.21196 -21.3367 0
      vertex 4.82353 -20.8248 1
      vertex 4.21196 -21.3367 1
    endloop
  endfacet
  facet normal 0.641854 -0.766827 0
    outer loop
      vertex 4.82353 -20.8248 1
      vertex 4.21196 -21.3367 0
      vertex 4.82353 -20.8248 0
    endloop
  endfacet
  facet normal 0.741506 -0.670946 0
    outer loop
      vertex 4.82353 -20.8248 1
      vertex 5.37096 -20.2198 0
      vertex 5.37096 -20.2198 1
    endloop
  endfacet
  facet normal 0.741506 -0.670946 0
    outer loop
      vertex 5.37096 -20.2198 0
      vertex 4.82353 -20.8248 1
      vertex 4.82353 -20.8248 0
    endloop
  endfacet
  facet normal 0.823927 -0.566696 0
    outer loop
      vertex 5.37096 -20.2198 1
      vertex 5.84953 -19.524 0
      vertex 5.84953 -19.524 1
    endloop
  endfacet
  facet normal 0.823927 -0.566696 0
    outer loop
      vertex 5.84953 -19.524 0
      vertex 5.37096 -20.2198 1
      vertex 5.37096 -20.2198 0
    endloop
  endfacet
  facet normal 0.888508 -0.458861 0
    outer loop
      vertex 5.84953 -19.524 1
      vertex 6.25447 -18.7399 0
      vertex 6.25447 -18.7399 1
    endloop
  endfacet
  facet normal 0.888508 -0.458861 0
    outer loop
      vertex 6.25447 -18.7399 0
      vertex 5.84953 -19.524 1
      vertex 5.84953 -19.524 0
    endloop
  endfacet
  facet normal 0.934862 -0.355012 0
    outer loop
      vertex 6.25447 -18.7399 1
      vertex 6.5858 -17.8674 0
      vertex 6.5858 -17.8674 1
    endloop
  endfacet
  facet normal 0.934862 -0.355012 0
    outer loop
      vertex 6.5858 -17.8674 0
      vertex 6.25447 -18.7399 1
      vertex 6.25447 -18.7399 0
    endloop
  endfacet
  facet normal 0.965864 -0.259048 0
    outer loop
      vertex 6.5858 -17.8674 1
      vertex 6.84349 -16.9066 0
      vertex 6.84349 -16.9066 1
    endloop
  endfacet
  facet normal 0.965864 -0.259048 0
    outer loop
      vertex 6.84349 -16.9066 0
      vertex 6.5858 -17.8674 1
      vertex 6.5858 -17.8674 0
    endloop
  endfacet
  facet normal 0.984957 -0.172799 0
    outer loop
      vertex 6.84349 -16.9066 1
      vertex 7.02756 -15.8574 0
      vertex 7.02756 -15.8574 1
    endloop
  endfacet
  facet normal 0.984957 -0.172799 0
    outer loop
      vertex 7.02756 -15.8574 0
      vertex 6.84349 -16.9066 1
      vertex 6.84349 -16.9066 0
    endloop
  endfacet
  facet normal 0.995321 -0.0966273 0
    outer loop
      vertex 7.02756 -15.8574 1
      vertex 7.138 -14.7198 0
      vertex 7.138 -14.7198 1
    endloop
  endfacet
  facet normal 0.995321 -0.0966273 0
    outer loop
      vertex 7.138 -14.7198 0
      vertex 7.02756 -15.8574 1
      vertex 7.02756 -15.8574 0
    endloop
  endfacet
  facet normal 0.999549 -0.0300215 0
    outer loop
      vertex 7.138 -14.7198 1
      vertex 7.17482 -13.4939 0
      vertex 7.17482 -13.4939 1
    endloop
  endfacet
  facet normal 0.999549 -0.0300215 0
    outer loop
      vertex 7.17482 -13.4939 0
      vertex 7.138 -14.7198 1
      vertex 7.138 -14.7198 0
    endloop
  endfacet
  facet normal 0.999548 0.0300485 0
    outer loop
      vertex 7.17482 -13.4939 1
      vertex 7.138 -12.2691 0
      vertex 7.138 -12.2691 1
    endloop
  endfacet
  facet normal 0.999548 0.0300485 0
    outer loop
      vertex 7.138 -12.2691 0
      vertex 7.17482 -13.4939 1
      vertex 7.17482 -13.4939 0
    endloop
  endfacet
  facet normal 0.995294 0.0969058 0
    outer loop
      vertex 7.138 -12.2691 1
      vertex 7.02756 -11.1348 0
      vertex 7.02756 -11.1348 1
    endloop
  endfacet
  facet normal 0.995294 0.0969058 0
    outer loop
      vertex 7.02756 -11.1348 0
      vertex 7.138 -12.2691 1
      vertex 7.138 -12.2691 0
    endloop
  endfacet
  facet normal 0.984807 0.17365 0
    outer loop
      vertex 7.02756 -11.1348 1
      vertex 6.84349 -10.0909 0
      vertex 6.84349 -10.0909 1
    endloop
  endfacet
  facet normal 0.984807 0.17365 0
    outer loop
      vertex 6.84349 -10.0909 0
      vertex 7.02756 -11.1348 1
      vertex 7.02756 -11.1348 0
    endloop
  endfacet
  facet normal 0.965358 0.26093 0
    outer loop
      vertex 6.84349 -10.0909 1
      vertex 6.5858 -9.13753 0
      vertex 6.5858 -9.13753 1
    endloop
  endfacet
  facet normal 0.965358 0.26093 0
    outer loop
      vertex 6.5858 -9.13753 0
      vertex 6.84349 -10.0909 1
      vertex 6.84349 -10.0909 0
    endloop
  endfacet
  facet normal 0.933555 0.358435 0
    outer loop
      vertex 6.5858 -9.13753 1
      vertex 6.25447 -8.27457 0
      vertex 6.25447 -8.27457 1
    endloop
  endfacet
  facet normal 0.933555 0.358435 0
    outer loop
      vertex 6.25447 -8.27457 0
      vertex 6.5858 -9.13753 1
      vertex 6.5858 -9.13753 0
    endloop
  endfacet
  facet normal 0.885694 0.46427 0
    outer loop
      vertex 6.25447 -8.27457 1
      vertex 5.84953 -7.50206 0
      vertex 5.84953 -7.50206 1
    endloop
  endfacet
  facet normal 0.885694 0.46427 0
    outer loop
      vertex 5.84953 -7.50206 0
      vertex 6.25447 -8.27457 1
      vertex 6.25447 -8.27457 0
    endloop
  endfacet
  facet normal 0.818591 0.574376 0
    outer loop
      vertex 5.84953 -7.50206 1
      vertex 5.37096 -6.82001 0
      vertex 5.37096 -6.82001 1
    endloop
  endfacet
  facet normal 0.818591 0.574376 0
    outer loop
      vertex 5.37096 -6.82001 0
      vertex 5.84953 -7.50206 1
      vertex 5.84953 -7.50206 0
    endloop
  endfacet
  facet normal 0.733861 0.679299 0
    outer loop
      vertex 5.37096 -6.82001 1
      vertex 4.82353 -6.22861 0
      vertex 4.82353 -6.22861 1
    endloop
  endfacet
  facet normal 0.733861 0.679299 0
    outer loop
      vertex 4.82353 -6.22861 0
      vertex 5.37096 -6.82001 1
      vertex 5.37096 -6.82001 0
    endloop
  endfacet
  facet normal 0.633256 0.773942 -0
    outer loop
      vertex 4.82353 -6.22861 0
      vertex 4.21196 -5.72821 1
      vertex 4.82353 -6.22861 1
    endloop
  endfacet
  facet normal 0.633256 0.773942 0
    outer loop
      vertex 4.21196 -5.72821 1
      vertex 4.82353 -6.22861 0
      vertex 4.21196 -5.72821 0
    endloop
  endfacet
  facet normal 0.518186 0.855268 -0
    outer loop
      vertex 4.21196 -5.72821 0
      vertex 3.53621 -5.31879 1
      vertex 4.21196 -5.72821 1
    endloop
  endfacet
  facet normal 0.518186 0.855268 0
    outer loop
      vertex 3.53621 -5.31879 1
      vertex 4.21196 -5.72821 0
      vertex 3.53621 -5.31879 0
    endloop
  endfacet
  facet normal 0.39532 0.918544 -0
    outer loop
      vertex 3.53621 -5.31879 0
      vertex 2.7963 -5.00035 1
      vertex 3.53621 -5.31879 1
    endloop
  endfacet
  facet normal 0.39532 0.918544 0
    outer loop
      vertex 2.7963 -5.00035 1
      vertex 3.53621 -5.31879 0
      vertex 2.7963 -5.00035 0
    endloop
  endfacet
  facet normal 0.27219 0.962244 -0
    outer loop
      vertex 2.7963 -5.00035 0
      vertex 1.99222 -4.7729 1
      vertex 2.7963 -5.00035 1
    endloop
  endfacet
  facet normal 0.27219 0.962244 0
    outer loop
      vertex 1.99222 -4.7729 1
      vertex 2.7963 -5.00035 0
      vertex 1.99222 -4.7729 0
    endloop
  endfacet
  facet normal 0.15527 0.987872 -0
    outer loop
      vertex 1.99222 -4.7729 0
      vertex 1.12396 -4.63643 1
      vertex 1.99222 -4.7729 1
    endloop
  endfacet
  facet normal 0.15527 0.987872 0
    outer loop
      vertex 1.12396 -4.63643 1
      vertex 1.99222 -4.7729 0
      vertex 1.12396 -4.63643 0
    endloop
  endfacet
  facet normal 0.0487301 0.998812 -0
    outer loop
      vertex 1.12396 -4.63643 0
      vertex 0.191559 -4.59094 1
      vertex 1.12396 -4.63643 1
    endloop
  endfacet
  facet normal 0.0487301 0.998812 0
    outer loop
      vertex 0.191559 -4.59094 1
      vertex 1.12396 -4.63643 0
      vertex 0.191559 -4.59094 0
    endloop
  endfacet
  facet normal -0.0487228 0.998812 0
    outer loop
      vertex 0.191559 -4.59094 0
      vertex -0.740982 -4.63643 1
      vertex 0.191559 -4.59094 1
    endloop
  endfacet
  facet normal -0.0487228 0.998812 0
    outer loop
      vertex -0.740982 -4.63643 1
      vertex 0.191559 -4.59094 0
      vertex -0.740982 -4.63643 0
    endloop
  endfacet
  facet normal -0.155203 0.987883 0
    outer loop
      vertex -0.740982 -4.63643 0
      vertex -1.60963 -4.7729 1
      vertex -0.740982 -4.63643 1
    endloop
  endfacet
  facet normal -0.155203 0.987883 0
    outer loop
      vertex -1.60963 -4.7729 1
      vertex -0.740982 -4.63643 0
      vertex -1.60963 -4.7729 0
    endloop
  endfacet
  facet normal -0.27198 0.962303 0
    outer loop
      vertex -1.60963 -4.7729 0
      vertex -2.41438 -5.00035 1
      vertex -1.60963 -4.7729 1
    endloop
  endfacet
  facet normal -0.27198 0.962303 0
    outer loop
      vertex -2.41438 -5.00035 1
      vertex -1.60963 -4.7729 0
      vertex -2.41438 -5.00035 0
    endloop
  endfacet
  facet normal -0.394883 0.918731 0
    outer loop
      vertex -2.41438 -5.00035 0
      vertex -3.15526 -5.31879 1
      vertex -2.41438 -5.00035 1
    endloop
  endfacet
  facet normal -0.394883 0.918731 0
    outer loop
      vertex -3.15526 -5.31879 1
      vertex -2.41438 -5.00035 0
      vertex -3.15526 -5.31879 0
    endloop
  endfacet
  facet normal -0.517502 0.855682 0
    outer loop
      vertex -3.15526 -5.31879 0
      vertex -3.83223 -5.72821 1
      vertex -3.15526 -5.31879 1
    endloop
  endfacet
  facet normal -0.517502 0.855682 0
    outer loop
      vertex -3.83223 -5.72821 1
      vertex -3.15526 -5.31879 0
      vertex -3.83223 -5.72821 0
    endloop
  endfacet
  facet normal -0.632327 0.774702 0
    outer loop
      vertex -3.83223 -5.72821 0
      vertex -4.4453 -6.22861 1
      vertex -3.83223 -5.72821 1
    endloop
  endfacet
  facet normal -0.632327 0.774702 0
    outer loop
      vertex -4.4453 -6.22861 1
      vertex -3.83223 -5.72821 0
      vertex -4.4453 -6.22861 0
    endloop
  endfacet
  facet normal -0.732779 0.680466 0
    outer loop
      vertex -4.99448 -6.82001 0
      vertex -4.4453 -6.22861 1
      vertex -4.4453 -6.22861 0
    endloop
  endfacet
  facet normal -0.732779 0.680466 0
    outer loop
      vertex -4.4453 -6.22861 1
      vertex -4.99448 -6.82001 0
      vertex -4.99448 -6.82001 1
    endloop
  endfacet
  facet normal -0.817649 0.575717 0
    outer loop
      vertex -5.47472 -7.50206 0
      vertex -4.99448 -6.82001 1
      vertex -4.99448 -6.82001 0
    endloop
  endfacet
  facet normal -0.817649 0.575717 0
    outer loop
      vertex -4.99448 -6.82001 1
      vertex -5.47472 -7.50206 0
      vertex -5.47472 -7.50206 1
    endloop
  endfacet
  facet normal -0.885029 0.465536 0
    outer loop
      vertex -5.88107 -8.27457 0
      vertex -5.47472 -7.50206 1
      vertex -5.47472 -7.50206 0
    endloop
  endfacet
  facet normal -0.885029 0.465536 0
    outer loop
      vertex -5.47472 -7.50206 1
      vertex -5.88107 -8.27457 0
      vertex -5.88107 -8.27457 1
    endloop
  endfacet
  facet normal -0.933138 0.359518 0
    outer loop
      vertex -6.21355 -9.13753 0
      vertex -5.88107 -8.27457 1
      vertex -5.88107 -8.27457 0
    endloop
  endfacet
  facet normal -0.933138 0.359518 0
    outer loop
      vertex -5.88107 -8.27457 1
      vertex -6.21355 -9.13753 0
      vertex -6.21355 -9.13753 1
    endloop
  endfacet
  facet normal -0.965128 0.261779 0
    outer loop
      vertex -6.47214 -10.0909 0
      vertex -6.21355 -9.13753 1
      vertex -6.21355 -9.13753 0
    endloop
  endfacet
  facet normal -0.965128 0.261779 0
    outer loop
      vertex -6.21355 -9.13753 1
      vertex -6.47214 -10.0909 0
      vertex -6.47214 -10.0909 1
    endloop
  endfacet
  facet normal -0.984704 0.174236 0
    outer loop
      vertex -6.65685 -11.1348 0
      vertex -6.47214 -10.0909 1
      vertex -6.47214 -10.0909 0
    endloop
  endfacet
  facet normal -0.984704 0.174236 0
    outer loop
      vertex -6.47214 -10.0909 1
      vertex -6.65685 -11.1348 0
      vertex -6.65685 -11.1348 1
    endloop
  endfacet
  facet normal -0.995261 0.0972361 0
    outer loop
      vertex -6.76767 -12.2691 0
      vertex -6.65685 -11.1348 1
      vertex -6.65685 -11.1348 0
    endloop
  endfacet
  facet normal -0.995261 0.0972361 0
    outer loop
      vertex -6.65685 -11.1348 1
      vertex -6.76767 -12.2691 0
      vertex -6.76767 -12.2691 1
    endloop
  endfacet
  facet normal -0.999545 0.0301463 0
    outer loop
      vertex -6.80461 -13.4939 0
      vertex -6.76767 -12.2691 1
      vertex -6.76767 -12.2691 0
    endloop
  endfacet
  facet normal -0.999545 0.0301463 0
    outer loop
      vertex -6.76767 -12.2691 1
      vertex -6.80461 -13.4939 0
      vertex -6.80461 -13.4939 1
    endloop
  endfacet
  facet normal -0.999546 -0.0301193 0
    outer loop
      vertex -6.76767 -14.7198 0
      vertex -6.80461 -13.4939 1
      vertex -6.80461 -13.4939 0
    endloop
  endfacet
  facet normal -0.999546 -0.0301193 0
    outer loop
      vertex -6.80461 -13.4939 1
      vertex -6.76767 -14.7198 0
      vertex -6.76767 -14.7198 1
    endloop
  endfacet
  facet normal -0.995289 -0.0969566 0
    outer loop
      vertex -6.65685 -15.8574 0
      vertex -6.76767 -14.7198 1
      vertex -6.76767 -14.7198 0
    endloop
  endfacet
  facet normal -0.995289 -0.0969566 0
    outer loop
      vertex -6.76767 -14.7198 1
      vertex -6.65685 -15.8574 0
      vertex -6.65685 -15.8574 1
    endloop
  endfacet
  facet normal -0.984855 -0.173382 0
    outer loop
      vertex -6.47214 -16.9066 0
      vertex -6.65685 -15.8574 1
      vertex -6.65685 -15.8574 0
    endloop
  endfacet
  facet normal -0.984855 -0.173382 0
    outer loop
      vertex -6.65685 -15.8574 1
      vertex -6.47214 -16.9066 0
      vertex -6.47214 -16.9066 1
    endloop
  endfacet
  facet normal -0.965638 -0.259892 0
    outer loop
      vertex -6.21355 -17.8674 0
      vertex -6.47214 -16.9066 1
      vertex -6.47214 -16.9066 0
    endloop
  endfacet
  facet normal -0.965638 -0.259892 0
    outer loop
      vertex -6.47214 -16.9066 1
      vertex -6.21355 -17.8674 0
      vertex -6.21355 -17.8674 1
    endloop
  endfacet
  facet normal -0.934452 -0.356088 0
    outer loop
      vertex -5.88107 -18.7399 0
      vertex -6.21355 -17.8674 1
      vertex -6.21355 -17.8674 0
    endloop
  endfacet
  facet normal -0.934452 -0.356088 0
    outer loop
      vertex -6.21355 -17.8674 1
      vertex -5.88107 -18.7399 0
      vertex -5.88107 -18.7399 1
    endloop
  endfacet
  facet normal -0.887856 -0.46012 0
    outer loop
      vertex -5.47472 -19.524 0
      vertex -5.88107 -18.7399 1
      vertex -5.88107 -18.7399 0
    endloop
  endfacet
  facet normal -0.887856 -0.46012 0
    outer loop
      vertex -5.88107 -18.7399 1
      vertex -5.47472 -19.524 0
      vertex -5.47472 -19.524 1
    endloop
  endfacet
  facet normal -0.823004 -0.568036 0
    outer loop
      vertex -4.99448 -20.2198 0
      vertex -5.47472 -19.524 1
      vertex -5.47472 -19.524 0
    endloop
  endfacet
  facet normal -0.823004 -0.568036 0
    outer loop
      vertex -5.47472 -19.524 1
      vertex -4.99448 -20.2198 0
      vertex -4.99448 -20.2198 1
    endloop
  endfacet
  facet normal -0.740439 -0.672123 0
    outer loop
      vertex -4.4453 -20.8248 0
      vertex -4.99448 -20.2198 1
      vertex -4.99448 -20.2198 0
    endloop
  endfacet
  facet normal -0.740439 -0.672123 0
    outer loop
      vertex -4.99448 -20.2198 1
      vertex -4.4453 -20.8248 0
      vertex -4.4453 -20.8248 1
    endloop
  endfacet
  facet normal -0.640929 -0.7676 0
    outer loop
      vertex -4.4453 -20.8248 0
      vertex -3.83223 -21.3367 1
      vertex -4.4453 -20.8248 1
    endloop
  endfacet
  facet normal -0.640929 -0.7676 -0
    outer loop
      vertex -3.83223 -21.3367 1
      vertex -4.4453 -20.8248 0
      vertex -3.83223 -21.3367 0
    endloop
  endfacet
  facet normal -0.526103 -0.850421 0
    outer loop
      vertex -3.83223 -21.3367 0
      vertex -3.15526 -21.7555 1
      vertex -3.83223 -21.3367 1
    endloop
  endfacet
  facet normal -0.526103 -0.850421 -0
    outer loop
      vertex -3.15526 -21.7555 1
      vertex -3.83223 -21.3367 0
      vertex -3.15526 -21.7555 0
    endloop
  endfacet
  facet normal -0.402545 -0.9154 0
    outer loop
      vertex -3.15526 -21.7555 0
      vertex -2.41438 -22.0813 1
      vertex -3.15526 -21.7555 1
    endloop
  endfacet
  facet normal -0.402545 -0.9154 -0
    outer loop
      vertex -2.41438 -22.0813 1
      vertex -3.15526 -21.7555 0
      vertex -2.41438 -22.0813 0
    endloop
  endfacet
  facet normal -0.277778 -0.960645 0
    outer loop
      vertex -2.41438 -22.0813 0
      vertex -1.60963 -22.314 1
      vertex -2.41438 -22.0813 1
    endloop
  endfacet
  facet normal -0.277778 -0.960645 -0
    outer loop
      vertex -1.60963 -22.314 1
      vertex -2.41438 -22.0813 0
      vertex -1.60963 -22.314 0
    endloop
  endfacet
  facet normal -0.158674 -0.987331 0
    outer loop
      vertex -1.60963 -22.314 0
      vertex -0.740982 -22.4536 1
      vertex -1.60963 -22.314 1
    endloop
  endfacet
  facet normal -0.158674 -0.987331 -0
    outer loop
      vertex -0.740982 -22.4536 1
      vertex -1.60963 -22.314 0
      vertex -0.740982 -22.4536 0
    endloop
  endfacet
  facet normal -0.0498019 -0.998759 0
    outer loop
      vertex -0.740982 -22.4536 0
      vertex 0.191559 -22.5001 1
      vertex -0.740982 -22.4536 1
    endloop
  endfacet
  facet normal -0.0498019 -0.998759 -0
    outer loop
      vertex 0.191559 -22.5001 1
      vertex -0.740982 -22.4536 0
      vertex 0.191559 -22.5001 0
    endloop
  endfacet
  facet normal 0.0498093 -0.998759 0
    outer loop
      vertex 0.191559 -22.5001 0
      vertex 1.12396 -22.4536 1
      vertex 0.191559 -22.5001 1
    endloop
  endfacet
  facet normal 0.0498093 -0.998759 0
    outer loop
      vertex 1.12396 -22.4536 1
      vertex 0.191559 -22.5001 0
      vertex 1.12396 -22.4536 0
    endloop
  endfacet
  facet normal 0.228411 0.973565 -0
    outer loop
      vertex -0.238251 -19.4799 0
      vertex -0.63678 -19.3864 1
      vertex -0.238251 -19.4799 1
    endloop
  endfacet
  facet normal 0.228411 0.973565 0
    outer loop
      vertex -0.63678 -19.3864 1
      vertex -0.238251 -19.4799 0
      vertex -0.63678 -19.3864 0
    endloop
  endfacet
  facet normal 0.390543 0.920585 -0
    outer loop
      vertex -0.63678 -19.3864 0
      vertex -1.00403 -19.2306 1
      vertex -0.63678 -19.3864 1
    endloop
  endfacet
  facet normal 0.390543 0.920585 0
    outer loop
      vertex -1.00403 -19.2306 1
      vertex -0.63678 -19.3864 0
      vertex -1.00403 -19.2306 0
    endloop
  endfacet
  facet normal 0.54453 0.838741 -0
    outer loop
      vertex -1.00403 -19.2306 0
      vertex -1.33997 -19.0125 1
      vertex -1.00403 -19.2306 1
    endloop
  endfacet
  facet normal 0.54453 0.838741 0
    outer loop
      vertex -1.33997 -19.0125 1
      vertex -1.00403 -19.2306 0
      vertex -1.33997 -19.0125 0
    endloop
  endfacet
  facet normal 0.677216 0.735784 -0
    outer loop
      vertex -1.33997 -19.0125 0
      vertex -1.64462 -18.7321 1
      vertex -1.33997 -19.0125 1
    endloop
  endfacet
  facet normal 0.677216 0.735784 0
    outer loop
      vertex -1.64462 -18.7321 1
      vertex -1.33997 -19.0125 0
      vertex -1.64462 -18.7321 0
    endloop
  endfacet
  facet normal 0.781847 0.62347 0
    outer loop
      vertex -1.64462 -18.7321 1
      vertex -1.91798 -18.3893 0
      vertex -1.91798 -18.3893 1
    endloop
  endfacet
  facet normal 0.781847 0.62347 0
    outer loop
      vertex -1.91798 -18.3893 0
      vertex -1.64462 -18.7321 1
      vertex -1.64462 -18.7321 0
    endloop
  endfacet
  facet normal 0.858408 0.512968 0
    outer loop
      vertex -1.91798 -18.3893 1
      vertex -2.16006 -17.9842 0
      vertex -2.16006 -17.9842 1
    endloop
  endfacet
  facet normal 0.858408 0.512968 0
    outer loop
      vertex -2.16006 -17.9842 0
      vertex -1.91798 -18.3893 1
      vertex -1.91798 -18.3893 0
    endloop
  endfacet
  facet normal 0.911397 0.411528 0
    outer loop
      vertex -2.16006 -17.9842 1
      vertex -2.37025 -17.5187 0
      vertex -2.37025 -17.5187 1
    endloop
  endfacet
  facet normal 0.911397 0.411528 0
    outer loop
      vertex -2.37025 -17.5187 0
      vertex -2.16006 -17.9842 1
      vertex -2.16006 -17.9842 0
    endloop
  endfacet
  facet normal 0.946964 0.321339 0
    outer loop
      vertex -2.37025 -17.5187 1
      vertex -2.54813 -16.9945 0
      vertex -2.54813 -16.9945 1
    endloop
  endfacet
  facet normal 0.946964 0.321339 0
    outer loop
      vertex -2.54813 -16.9945 0
      vertex -2.37025 -17.5187 1
      vertex -2.37025 -17.5187 0
    endloop
  endfacet
  facet normal 0.970223 0.242214 0
    outer loop
      vertex -2.54813 -16.9945 1
      vertex -2.69365 -16.4116 0
      vertex -2.69365 -16.4116 1
    endloop
  endfacet
  facet normal 0.970223 0.242214 0
    outer loop
      vertex -2.69365 -16.4116 0
      vertex -2.54813 -16.9945 1
      vertex -2.54813 -16.9945 0
    endloop
  endfacet
  facet normal 0.984783 0.173788 0
    outer loop
      vertex -2.69365 -16.4116 1
      vertex -2.80684 -15.7702 0
      vertex -2.80684 -15.7702 1
    endloop
  endfacet
  facet normal 0.984783 0.173788 0
    outer loop
      vertex -2.80684 -15.7702 0
      vertex -2.69365 -16.4116 1
      vertex -2.69365 -16.4116 0
    endloop
  endfacet
  facet normal 0.993399 0.114707 0
    outer loop
      vertex -2.80684 -15.7702 1
      vertex -2.88768 -15.0701 0
      vertex -2.88768 -15.0701 1
    endloop
  endfacet
  facet normal 0.993399 0.114707 0
    outer loop
      vertex -2.88768 -15.0701 0
      vertex -2.80684 -15.7702 1
      vertex -2.80684 -15.7702 0
    endloop
  endfacet
  facet normal 0.997963 0.0637996 0
    outer loop
      vertex -2.88768 -15.0701 1
      vertex -2.93619 -14.3113 0
      vertex -2.93619 -14.3113 1
    endloop
  endfacet
  facet normal 0.997963 0.0637996 0
    outer loop
      vertex -2.93619 -14.3113 0
      vertex -2.88768 -15.0701 1
      vertex -2.88768 -15.0701 0
    endloop
  endfacet
  facet normal 0.999804 0.0197784 0
    outer loop
      vertex -2.93619 -14.3113 1
      vertex -2.95236 -13.4939 0
      vertex -2.95236 -13.4939 1
    endloop
  endfacet
  facet normal 0.999804 0.0197784 0
    outer loop
      vertex -2.95236 -13.4939 0
      vertex -2.93619 -14.3113 1
      vertex -2.93619 -14.3113 0
    endloop
  endfacet
  facet normal 0.999165 -0.0408581 0
    outer loop
      vertex -2.95236 -13.4939 1
      vertex -2.8882 -11.9249 0
      vertex -2.8882 -11.9249 1
    endloop
  endfacet
  facet normal 0.999165 -0.0408581 0
    outer loop
      vertex -2.8882 -11.9249 0
      vertex -2.95236 -13.4939 1
      vertex -2.95236 -13.4939 0
    endloop
  endfacet
  facet normal 0.989652 -0.143491 0
    outer loop
      vertex -2.8882 -11.9249 1
      vertex -2.69571 -10.5973 0
      vertex -2.69571 -10.5973 1
    endloop
  endfacet
  facet normal 0.989652 -0.143491 0
    outer loop
      vertex -2.69571 -10.5973 0
      vertex -2.8882 -11.9249 1
      vertex -2.8882 -11.9249 0
    endloop
  endfacet
  facet normal 0.959049 -0.283242 0
    outer loop
      vertex -2.69571 -10.5973 1
      vertex -2.37491 -9.51108 0
      vertex -2.37491 -9.51108 1
    endloop
  endfacet
  facet normal 0.959049 -0.283242 0
    outer loop
      vertex -2.37491 -9.51108 0
      vertex -2.69571 -10.5973 1
      vertex -2.69571 -10.5973 0
    endloop
  endfacet
  facet normal 0.88298 -0.469411 0
    outer loop
      vertex -2.37491 -9.51108 1
      vertex -1.92577 -8.66623 0
      vertex -1.92577 -8.66623 1
    endloop
  endfacet
  facet normal 0.88298 -0.469411 0
    outer loop
      vertex -1.92577 -8.66623 0
      vertex -2.37491 -9.51108 1
      vertex -2.37491 -9.51108 0
    endloop
  endfacet
  facet normal 0.7225 -0.691371 0
    outer loop
      vertex -1.92577 -8.66623 1
      vertex -1.34831 -8.06277 0
      vertex -1.34831 -8.06277 1
    endloop
  endfacet
  facet normal 0.7225 -0.691371 0
    outer loop
      vertex -1.34831 -8.06277 0
      vertex -1.92577 -8.66623 1
      vertex -1.92577 -8.66623 0
    endloop
  endfacet
  facet normal 0.456449 -0.88975 0
    outer loop
      vertex -1.34831 -8.06277 0
      vertex -0.642532 -7.7007 1
      vertex -1.34831 -8.06277 1
    endloop
  endfacet
  facet normal 0.456449 -0.88975 0
    outer loop
      vertex -0.642532 -7.7007 1
      vertex -1.34831 -8.06277 0
      vertex -0.642532 -7.7007 0
    endloop
  endfacet
  facet normal 0.143217 -0.989691 0
    outer loop
      vertex -0.642532 -7.7007 0
      vertex 0.191559 -7.58 1
      vertex -0.642532 -7.7007 1
    endloop
  endfacet
  facet normal 0.143217 -0.989691 0
    outer loop
      vertex 0.191559 -7.58 1
      vertex -0.642532 -7.7007 0
      vertex 0.191559 -7.58 0
    endloop
  endfacet
  facet normal -0.143801 -0.989607 0
    outer loop
      vertex 0.191559 -7.58 0
      vertex 1.02219 -7.7007 1
      vertex 0.191559 -7.58 1
    endloop
  endfacet
  facet normal -0.143801 -0.989607 -0
    outer loop
      vertex 1.02219 -7.7007 1
      vertex 0.191559 -7.58 0
      vertex 1.02219 -7.7007 0
    endloop
  endfacet
  facet normal -0.457963 -0.888971 0
    outer loop
      vertex 1.02219 -7.7007 0
      vertex 1.72502 -8.06277 1
      vertex 1.02219 -7.7007 1
    endloop
  endfacet
  facet normal -0.457963 -0.888971 -0
    outer loop
      vertex 1.72502 -8.06277 1
      vertex 1.02219 -7.7007 0
      vertex 1.72502 -8.06277 0
    endloop
  endfacet
  facet normal -0.723948 -0.689854 0
    outer loop
      vertex 2.30006 -8.66623 0
      vertex 1.72502 -8.06277 1
      vertex 1.72502 -8.06277 0
    endloop
  endfacet
  facet normal -0.723948 -0.689854 0
    outer loop
      vertex 1.72502 -8.06277 1
      vertex 2.30006 -8.66623 0
      vertex 2.30006 -8.66623 1
    endloop
  endfacet
  facet normal -0.883789 -0.467885 0
    outer loop
      vertex 2.74733 -9.51108 0
      vertex 2.30006 -8.66623 1
      vertex 2.30006 -8.66623 0
    endloop
  endfacet
  facet normal -0.883789 -0.467885 0
    outer loop
      vertex 2.30006 -8.66623 1
      vertex 2.74733 -9.51108 0
      vertex 2.74733 -9.51108 1
    endloop
  endfacet
  facet normal -0.959367 -0.282161 0
    outer loop
      vertex 3.0668 -10.5973 0
      vertex 2.74733 -9.51108 1
      vertex 2.74733 -9.51108 0
    endloop
  endfacet
  facet normal -0.959367 -0.282161 0
    outer loop
      vertex 2.74733 -9.51108 1
      vertex 3.0668 -10.5973 0
      vertex 3.0668 -10.5973 1
    endloop
  endfacet
  facet normal -0.989737 -0.142899 0
    outer loop
      vertex 3.25848 -11.9249 0
      vertex 3.0668 -10.5973 1
      vertex 3.0668 -10.5973 0
    endloop
  endfacet
  facet normal -0.989737 -0.142899 0
    outer loop
      vertex 3.0668 -10.5973 1
      vertex 3.25848 -11.9249 0
      vertex 3.25848 -11.9249 1
    endloop
  endfacet
  facet normal -0.999172 -0.0406865 0
    outer loop
      vertex 3.32237 -13.4939 0
      vertex 3.25848 -11.9249 1
      vertex 3.25848 -11.9249 0
    endloop
  endfacet
  facet normal -0.999172 -0.0406865 0
    outer loop
      vertex 3.25848 -11.9249 1
      vertex 3.32237 -13.4939 0
      vertex 3.32237 -13.4939 1
    endloop
  endfacet
  facet normal -0.999808 0.0196072 0
    outer loop
      vertex 3.30634 -14.3113 0
      vertex 3.32237 -13.4939 1
      vertex 3.32237 -13.4939 0
    endloop
  endfacet
  facet normal -0.999808 0.0196072 0
    outer loop
      vertex 3.32237 -13.4939 1
      vertex 3.30634 -14.3113 0
      vertex 3.30634 -14.3113 1
    endloop
  endfacet
  facet normal -0.997994 0.0633019 0
    outer loop
      vertex 3.25821 -15.0701 0
      vertex 3.30634 -14.3113 1
      vertex 3.30634 -14.3113 0
    endloop
  endfacet
  facet normal -0.997994 0.0633019 0
    outer loop
      vertex 3.30634 -14.3113 1
      vertex 3.25821 -15.0701 0
      vertex 3.25821 -15.0701 1
    endloop
  endfacet
  facet normal -0.993502 0.113811 0
    outer loop
      vertex 3.17801 -15.7702 0
      vertex 3.25821 -15.0701 1
      vertex 3.25821 -15.0701 0
    endloop
  endfacet
  facet normal -0.993502 0.113811 0
    outer loop
      vertex 3.25821 -15.0701 1
      vertex 3.17801 -15.7702 0
      vertex 3.17801 -15.7702 1
    endloop
  endfacet
  facet normal -0.985014 0.172477 0
    outer loop
      vertex 3.0657 -16.4116 0
      vertex 3.17801 -15.7702 1
      vertex 3.17801 -15.7702 0
    endloop
  endfacet
  facet normal -0.985014 0.172477 0
    outer loop
      vertex 3.17801 -15.7702 1
      vertex 3.0657 -16.4116 0
      vertex 3.0657 -16.4116 1
    endloop
  endfacet
  facet normal -0.970675 0.240396 0
    outer loop
      vertex 2.92134 -16.9945 0
      vertex 3.0657 -16.4116 1
      vertex 3.0657 -16.4116 0
    endloop
  endfacet
  facet normal -0.970675 0.240396 0
    outer loop
      vertex 3.0657 -16.4116 1
      vertex 2.92134 -16.9945 0
      vertex 2.92134 -16.9945 1
    endloop
  endfacet
  facet normal -0.947748 0.31902 0
    outer loop
      vertex 2.74489 -17.5187 0
      vertex 2.92134 -16.9945 1
      vertex 2.92134 -16.9945 0
    endloop
  endfacet
  facet normal -0.947748 0.31902 0
    outer loop
      vertex 2.92134 -16.9945 1
      vertex 2.74489 -17.5187 0
      vertex 2.74489 -17.5187 1
    endloop
  endfacet
  facet normal -0.912606 0.40884 0
    outer loop
      vertex 2.53635 -17.9842 0
      vertex 2.74489 -17.5187 1
      vertex 2.74489 -17.5187 0
    endloop
  endfacet
  facet normal -0.912606 0.40884 0
    outer loop
      vertex 2.74489 -17.5187 1
      vertex 2.53635 -17.9842 0
      vertex 2.53635 -17.9842 1
    endloop
  endfacet
  facet normal -0.860058 0.510196 0
    outer loop
      vertex 2.29604 -18.3893 0
      vertex 2.53635 -17.9842 1
      vertex 2.53635 -17.9842 0
    endloop
  endfacet
  facet normal -0.860058 0.510196 0
    outer loop
      vertex 2.53635 -17.9842 1
      vertex 2.29604 -18.3893 0
      vertex 2.29604 -18.3893 1
    endloop
  endfacet
  facet normal -0.783526 0.621358 0
    outer loop
      vertex 2.02419 -18.7321 0
      vertex 2.29604 -18.3893 1
      vertex 2.29604 -18.3893 0
    endloop
  endfacet
  facet normal -0.783526 0.621358 0
    outer loop
      vertex 2.29604 -18.3893 1
      vertex 2.02419 -18.7321 0
      vertex 2.02419 -18.7321 1
    endloop
  endfacet
  facet normal -0.678686 0.734428 0
    outer loop
      vertex 2.02419 -18.7321 0
      vertex 1.72076 -19.0125 1
      vertex 2.02419 -18.7321 1
    endloop
  endfacet
  facet normal -0.678686 0.734428 0
    outer loop
      vertex 1.72076 -19.0125 1
      vertex 2.02419 -18.7321 0
      vertex 1.72076 -19.0125 0
    endloop
  endfacet
  facet normal -0.545649 0.838014 0
    outer loop
      vertex 1.72076 -19.0125 0
      vertex 1.3858 -19.2306 1
      vertex 1.72076 -19.0125 1
    endloop
  endfacet
  facet normal -0.545649 0.838014 0
    outer loop
      vertex 1.3858 -19.2306 1
      vertex 1.72076 -19.0125 0
      vertex 1.3858 -19.2306 0
    endloop
  endfacet
  facet normal -0.391193 0.920309 0
    outer loop
      vertex 1.3858 -19.2306 0
      vertex 1.01927 -19.3864 1
      vertex 1.3858 -19.2306 1
    endloop
  endfacet
  facet normal -0.391193 0.920309 0
    outer loop
      vertex 1.01927 -19.3864 1
      vertex 1.3858 -19.2306 0
      vertex 1.01927 -19.3864 0
    endloop
  endfacet
  facet normal -0.228652 0.973508 0
    outer loop
      vertex 1.01927 -19.3864 0
      vertex 0.621185 -19.4799 1
      vertex 1.01927 -19.3864 1
    endloop
  endfacet
  facet normal -0.228652 0.973508 0
    outer loop
      vertex 0.621185 -19.4799 1
      vertex 1.01927 -19.3864 0
      vertex 0.621185 -19.4799 0
    endloop
  endfacet
  facet normal -0.0721996 0.99739 0
    outer loop
      vertex 0.621185 -19.4799 0
      vertex 0.191559 -19.511 1
      vertex 0.621185 -19.4799 1
    endloop
  endfacet
  facet normal -0.0721996 0.99739 0
    outer loop
      vertex 0.191559 -19.511 1
      vertex 0.621185 -19.4799 0
      vertex 0.191559 -19.511 0
    endloop
  endfacet
  facet normal 0.0721689 0.997392 -0
    outer loop
      vertex 0.191559 -19.511 0
      vertex -0.238251 -19.4799 1
      vertex 0.191559 -19.511 1
    endloop
  endfacet
  facet normal 0.0721689 0.997392 0
    outer loop
      vertex -0.238251 -19.4799 1
      vertex 0.191559 -19.511 0
      vertex -0.238251 -19.4799 0
    endloop
  endfacet
endsolid OpenSCAD_Model
