solid OpenSCAD_Model
  facet normal 0 0 -1
    outer loop
      vertex 7.20691 -66.4173 0
      vertex -18.8848 -52.953 0
      vertex 7.20691 -52.953 0
    endloop
  endfacet
  facet normal 0 -0 -1
    outer loop
      vertex -18.8848 -52.953 0
      vertex 7.20691 -66.4173 0
      vertex -34.0877 -66.4173 0
    endloop
  endfacet
  facet normal 0 0 -1
    outer loop
      vertex 7.20691 -66.4173 0
      vertex 24.4713 -66.4173 0
      vertex 24.4713 -84.9062 0
    endloop
  endfacet
  facet normal 0 0 -1
    outer loop
      vertex 24.4713 -66.4173 0
      vertex 7.20691 -66.4173 0
      vertex 24.4713 -52.953 0
    endloop
  endfacet
  facet normal 0 0 -1
    outer loop
      vertex 7.20691 -26.4755 0
      vertex 24.4713 -52.953 0
      vertex 7.20691 -52.953 0
    endloop
  endfacet
  facet normal 0 -0 -1
    outer loop
      vertex 7.74753 -14.1105 0
      vertex 24.4713 1.99879 0
      vertex 7.70474 -14.6193 0
    endloop
  endfacet
  facet normal 0 0 -1
    outer loop
      vertex 24.4713 1.99879 0
      vertex 7.74753 -14.1105 0
      vertex 7.78641 -13.7199 0
    endloop
  endfacet
  facet normal 0 0 -1
    outer loop
      vertex 24.4713 1.99879 0
      vertex 7.65804 -15.2465 0
      vertex 7.70474 -14.6193 0
    endloop
  endfacet
  facet normal 0 0 -1
    outer loop
      vertex 24.4713 1.99879 0
      vertex 7.60742 -15.992 0
      vertex 7.65804 -15.2465 0
    endloop
  endfacet
  facet normal 0 0 -1
    outer loop
      vertex 24.4713 1.99879 0
      vertex 7.55287 -16.8558 0
      vertex 7.60742 -15.992 0
    endloop
  endfacet
  facet normal 0 0 -1
    outer loop
      vertex 24.4713 1.99879 0
      vertex 7.49443 -17.8378 0
      vertex 7.55287 -16.8558 0
    endloop
  endfacet
  facet normal 0 0 -1
    outer loop
      vertex 24.4713 1.99879 0
      vertex 7.43205 -18.9382 0
      vertex 7.49443 -17.8378 0
    endloop
  endfacet
  facet normal 0 0 -1
    outer loop
      vertex 24.4713 1.99879 0
      vertex 7.37231 -20.086 0
      vertex 7.43205 -18.9382 0
    endloop
  endfacet
  facet normal 0 0 -1
    outer loop
      vertex 24.4713 1.99879 0
      vertex 7.32178 -21.21 0
      vertex 7.37231 -20.086 0
    endloop
  endfacet
  facet normal 0 0 -1
    outer loop
      vertex 24.4713 1.99879 0
      vertex 7.28043 -22.3104 0
      vertex 7.32178 -21.21 0
    endloop
  endfacet
  facet normal 0 0 -1
    outer loop
      vertex 24.4713 1.99879 0
      vertex 7.24826 -23.3872 0
      vertex 7.28043 -22.3104 0
    endloop
  endfacet
  facet normal 0 0 -1
    outer loop
      vertex 24.4713 1.99879 0
      vertex 7.22528 -24.4403 0
      vertex 7.24826 -23.3872 0
    endloop
  endfacet
  facet normal 0 0 -1
    outer loop
      vertex 24.4713 1.99879 0
      vertex 7.2115 -25.4697 0
      vertex 7.22528 -24.4403 0
    endloop
  endfacet
  facet normal 0 0 -1
    outer loop
      vertex 7.20691 -66.4173 0
      vertex 24.4713 -84.9062 0
      vertex 7.20691 -84.9062 0
    endloop
  endfacet
  facet normal -0 0 -1
    outer loop
      vertex 24.4713 -52.953 0
      vertex 7.20691 -66.4173 0
      vertex 7.20691 -52.953 0
    endloop
  endfacet
  facet normal 0 -0 -1
    outer loop
      vertex 7.2115 -25.4697 0
      vertex 24.4713 -52.953 0
      vertex 7.20691 -26.4755 0
    endloop
  endfacet
  facet normal 0 0 -1
    outer loop
      vertex 24.4713 -52.953 0
      vertex 7.2115 -25.4697 0
      vertex 24.4713 1.99879 0
    endloop
  endfacet
  facet normal 0 0 -1
    outer loop
      vertex 24.4713 -66.4173 0
      vertex 36.5828 -52.953 0
      vertex 36.5828 -66.4173 0
    endloop
  endfacet
  facet normal -0 0 -1
    outer loop
      vertex 36.5828 -52.953 0
      vertex 24.4713 -66.4173 0
      vertex 24.4713 -52.953 0
    endloop
  endfacet
  facet normal 0 0 -1
    outer loop
      vertex 4.2429 1.99879 0
      vertex 7.25264 -14.8165 0
      vertex 6.6084 -16.0446 0
    endloop
  endfacet
  facet normal 0 0 -1
    outer loop
      vertex 4.2429 1.99879 0
      vertex 6.6084 -16.0446 0
      vertex 5.8537 -17.4041 0
    endloop
  endfacet
  facet normal 0 0 -1
    outer loop
      vertex 4.2429 1.99879 0
      vertex 5.8537 -17.4041 0
      vertex 4.98853 -18.895 0
    endloop
  endfacet
  facet normal 0 0 -1
    outer loop
      vertex 7.78641 -13.7199 0
      vertex 4.2429 1.99879 0
      vertex 24.4713 1.99879 0
    endloop
  endfacet
  facet normal 0 0 -1
    outer loop
      vertex 7.25264 -14.8165 0
      vertex 4.2429 1.99879 0
      vertex 7.78641 -13.7199 0
    endloop
  endfacet
  facet normal 0 0 -1
    outer loop
      vertex 4.01286 -20.5174 0
      vertex 4.2429 1.99879 0
      vertex 4.98853 -18.895 0
    endloop
  endfacet
  facet normal 0 0 -1
    outer loop
      vertex 2.92674 -22.2713 0
      vertex 4.2429 1.99879 0
      vertex 4.01286 -20.5174 0
    endloop
  endfacet
  facet normal 0 0 -1
    outer loop
      vertex 1.73015 -24.1566 0
      vertex 4.2429 1.99879 0
      vertex 2.92674 -22.2713 0
    endloop
  endfacet
  facet normal 0 0 -1
    outer loop
      vertex -34.0877 -52.8238 0
      vertex 1.73015 -24.1566 0
      vertex -18.8848 -52.953 0
    endloop
  endfacet
  facet normal 0 0 -1
    outer loop
      vertex -34.0877 -52.8238 0
      vertex -18.8848 -52.953 0
      vertex -34.0877 -66.4173 0
    endloop
  endfacet
  facet normal -0 0 -1
    outer loop
      vertex 1.73015 -24.1566 0
      vertex -34.0877 -52.8238 0
      vertex 4.2429 1.99879 0
    endloop
  endfacet
  facet normal -0 0 1
    outer loop
      vertex -18.8848 -52.953 1
      vertex 7.20691 -66.4173 1
      vertex 7.20691 -52.953 1
    endloop
  endfacet
  facet normal 0 0 1
    outer loop
      vertex -34.0877 -66.4173 1
      vertex -18.8848 -52.953 1
      vertex -34.0877 -52.8238 1
    endloop
  endfacet
  facet normal 0 0 1
    outer loop
      vertex -18.8848 -52.953 1
      vertex -34.0877 -66.4173 1
      vertex 7.20691 -66.4173 1
    endloop
  endfacet
  facet normal -0 0 1
    outer loop
      vertex 7.2115 -25.4697 1
      vertex 24.4713 -52.953 1
      vertex 24.4713 1.99879 1
    endloop
  endfacet
  facet normal 0 0 1
    outer loop
      vertex 7.20691 -52.953 1
      vertex 24.4713 -52.953 1
      vertex 7.20691 -26.4755 1
    endloop
  endfacet
  facet normal 0 0 1
    outer loop
      vertex 7.74753 -14.1105 1
      vertex 24.4713 1.99879 1
      vertex 7.78641 -13.7199 1
    endloop
  endfacet
  facet normal 0 0 1
    outer loop
      vertex 4.2429 1.99879 1
      vertex 7.25264 -14.8165 1
      vertex 7.78641 -13.7199 1
    endloop
  endfacet
  facet normal 0 0 1
    outer loop
      vertex 7.25264 -14.8165 1
      vertex 4.2429 1.99879 1
      vertex 6.6084 -16.0446 1
    endloop
  endfacet
  facet normal 0 0 1
    outer loop
      vertex 6.6084 -16.0446 1
      vertex 4.2429 1.99879 1
      vertex 5.8537 -17.4041 1
    endloop
  endfacet
  facet normal -0 0 1
    outer loop
      vertex 4.2429 1.99879 1
      vertex 7.78641 -13.7199 1
      vertex 24.4713 1.99879 1
    endloop
  endfacet
  facet normal 0 0 1
    outer loop
      vertex 5.8537 -17.4041 1
      vertex 4.2429 1.99879 1
      vertex 4.98853 -18.895 1
    endloop
  endfacet
  facet normal 0 0 1
    outer loop
      vertex 4.2429 1.99879 1
      vertex 4.01286 -20.5174 1
      vertex 4.98853 -18.895 1
    endloop
  endfacet
  facet normal 0 0 1
    outer loop
      vertex 4.2429 1.99879 1
      vertex 2.92674 -22.2713 1
      vertex 4.01286 -20.5174 1
    endloop
  endfacet
  facet normal 0 0 1
    outer loop
      vertex 4.2429 1.99879 1
      vertex 1.73015 -24.1566 1
      vertex 2.92674 -22.2713 1
    endloop
  endfacet
  facet normal 0 0 1
    outer loop
      vertex -34.0877 -52.8238 1
      vertex 1.73015 -24.1566 1
      vertex 4.2429 1.99879 1
    endloop
  endfacet
  facet normal 0 0 1
    outer loop
      vertex 1.73015 -24.1566 1
      vertex -34.0877 -52.8238 1
      vertex -18.8848 -52.953 1
    endloop
  endfacet
  facet normal -0 0 1
    outer loop
      vertex 24.4713 -52.953 1
      vertex 36.5828 -66.4173 1
      vertex 36.5828 -52.953 1
    endloop
  endfacet
  facet normal 0 0 1
    outer loop
      vertex 36.5828 -66.4173 1
      vertex 24.4713 -52.953 1
      vertex 24.4713 -66.4173 1
    endloop
  endfacet
  facet normal 0 0 1
    outer loop
      vertex 24.4713 1.99879 1
      vertex 7.74753 -14.1105 1
      vertex 7.70474 -14.6193 1
    endloop
  endfacet
  facet normal 0 0 1
    outer loop
      vertex 7.65804 -15.2465 1
      vertex 24.4713 1.99879 1
      vertex 7.70474 -14.6193 1
    endloop
  endfacet
  facet normal 0 0 1
    outer loop
      vertex 7.60742 -15.992 1
      vertex 24.4713 1.99879 1
      vertex 7.65804 -15.2465 1
    endloop
  endfacet
  facet normal 0 0 1
    outer loop
      vertex 7.55287 -16.8558 1
      vertex 24.4713 1.99879 1
      vertex 7.60742 -15.992 1
    endloop
  endfacet
  facet normal 0 0 1
    outer loop
      vertex 7.49443 -17.8378 1
      vertex 24.4713 1.99879 1
      vertex 7.55287 -16.8558 1
    endloop
  endfacet
  facet normal 0 0 1
    outer loop
      vertex 7.43205 -18.9382 1
      vertex 24.4713 1.99879 1
      vertex 7.49443 -17.8378 1
    endloop
  endfacet
  facet normal 0 0 1
    outer loop
      vertex 7.37231 -20.086 1
      vertex 24.4713 1.99879 1
      vertex 7.43205 -18.9382 1
    endloop
  endfacet
  facet normal 0 0 1
    outer loop
      vertex 7.32178 -21.21 1
      vertex 24.4713 1.99879 1
      vertex 7.37231 -20.086 1
    endloop
  endfacet
  facet normal 0 0 1
    outer loop
      vertex 7.28043 -22.3104 1
      vertex 24.4713 1.99879 1
      vertex 7.32178 -21.21 1
    endloop
  endfacet
  facet normal 0 0 1
    outer loop
      vertex 7.24826 -23.3872 1
      vertex 24.4713 1.99879 1
      vertex 7.28043 -22.3104 1
    endloop
  endfacet
  facet normal 0 0 1
    outer loop
      vertex 7.22528 -24.4403 1
      vertex 24.4713 1.99879 1
      vertex 7.24826 -23.3872 1
    endloop
  endfacet
  facet normal 0 0 1
    outer loop
      vertex 7.2115 -25.4697 1
      vertex 24.4713 1.99879 1
      vertex 7.22528 -24.4403 1
    endloop
  endfacet
  facet normal 0 0 1
    outer loop
      vertex 24.4713 -52.953 1
      vertex 7.2115 -25.4697 1
      vertex 7.20691 -26.4755 1
    endloop
  endfacet
  facet normal 0 0 1
    outer loop
      vertex 24.4713 -52.953 1
      vertex 7.20691 -52.953 1
      vertex 24.4713 -66.4173 1
    endloop
  endfacet
  facet normal 0 0 1
    outer loop
      vertex 7.20691 -66.4173 1
      vertex 24.4713 -66.4173 1
      vertex 7.20691 -52.953 1
    endloop
  endfacet
  facet normal 0 0 1
    outer loop
      vertex 24.4713 -66.4173 1
      vertex 7.20691 -66.4173 1
      vertex 24.4713 -84.9062 1
    endloop
  endfacet
  facet normal 0 0 1
    outer loop
      vertex 24.4713 -84.9062 1
      vertex 7.20691 -66.4173 1
      vertex 7.20691 -84.9062 1
    endloop
  endfacet
  facet normal 0 -1 0
    outer loop
      vertex 24.4713 -66.4173 0
      vertex 36.5828 -66.4173 1
      vertex 24.4713 -66.4173 1
    endloop
  endfacet
  facet normal 0 -1 -0
    outer loop
      vertex 36.5828 -66.4173 1
      vertex 24.4713 -66.4173 0
      vertex 36.5828 -66.4173 0
    endloop
  endfacet
  facet normal 1 -0 0
    outer loop
      vertex 36.5828 -66.4173 1
      vertex 36.5828 -52.953 0
      vertex 36.5828 -52.953 1
    endloop
  endfacet
  facet normal 1 0 0
    outer loop
      vertex 36.5828 -52.953 0
      vertex 36.5828 -66.4173 1
      vertex 36.5828 -66.4173 0
    endloop
  endfacet
  facet normal 0 1 -0
    outer loop
      vertex 36.5828 -52.953 0
      vertex 24.4713 -52.953 1
      vertex 36.5828 -52.953 1
    endloop
  endfacet
  facet normal 0 1 0
    outer loop
      vertex 24.4713 -52.953 1
      vertex 36.5828 -52.953 0
      vertex 24.4713 -52.953 0
    endloop
  endfacet
  facet normal 1 -0 0
    outer loop
      vertex 24.4713 -52.953 1
      vertex 24.4713 1.99879 0
      vertex 24.4713 1.99879 1
    endloop
  endfacet
  facet normal 1 0 0
    outer loop
      vertex 24.4713 1.99879 0
      vertex 24.4713 -52.953 1
      vertex 24.4713 -52.953 0
    endloop
  endfacet
  facet normal 0 1 -0
    outer loop
      vertex 24.4713 1.99879 0
      vertex 4.2429 1.99879 1
      vertex 24.4713 1.99879 1
    endloop
  endfacet
  facet normal 0 1 0
    outer loop
      vertex 4.2429 1.99879 1
      vertex 24.4713 1.99879 0
      vertex 4.2429 1.99879 0
    endloop
  endfacet
  facet normal -0.819549 0.573009 0
    outer loop
      vertex -34.0877 -52.8238 0
      vertex 4.2429 1.99879 1
      vertex 4.2429 1.99879 0
    endloop
  endfacet
  facet normal -0.819549 0.573009 0
    outer loop
      vertex 4.2429 1.99879 1
      vertex -34.0877 -52.8238 0
      vertex -34.0877 -52.8238 1
    endloop
  endfacet
  facet normal -1 0 0
    outer loop
      vertex -34.0877 -66.4173 0
      vertex -34.0877 -52.8238 1
      vertex -34.0877 -52.8238 0
    endloop
  endfacet
  facet normal -1 -0 0
    outer loop
      vertex -34.0877 -52.8238 1
      vertex -34.0877 -66.4173 0
      vertex -34.0877 -66.4173 1
    endloop
  endfacet
  facet normal 0 -1 0
    outer loop
      vertex -34.0877 -66.4173 0
      vertex 7.20691 -66.4173 1
      vertex -34.0877 -66.4173 1
    endloop
  endfacet
  facet normal 0 -1 -0
    outer loop
      vertex 7.20691 -66.4173 1
      vertex -34.0877 -66.4173 0
      vertex 7.20691 -66.4173 0
    endloop
  endfacet
  facet normal -1 0 0
    outer loop
      vertex 7.20691 -84.9062 0
      vertex 7.20691 -66.4173 1
      vertex 7.20691 -66.4173 0
    endloop
  endfacet
  facet normal -1 -0 0
    outer loop
      vertex 7.20691 -66.4173 1
      vertex 7.20691 -84.9062 0
      vertex 7.20691 -84.9062 1
    endloop
  endfacet
  facet normal 0 -1 0
    outer loop
      vertex 7.20691 -84.9062 0
      vertex 24.4713 -84.9062 1
      vertex 7.20691 -84.9062 1
    endloop
  endfacet
  facet normal 0 -1 -0
    outer loop
      vertex 24.4713 -84.9062 1
      vertex 7.20691 -84.9062 0
      vertex 24.4713 -84.9062 0
    endloop
  endfacet
  facet normal 1 -0 0
    outer loop
      vertex 24.4713 -84.9062 1
      vertex 24.4713 -66.4173 0
      vertex 24.4713 -66.4173 1
    endloop
  endfacet
  facet normal 1 0 0
    outer loop
      vertex 24.4713 -66.4173 0
      vertex 24.4713 -84.9062 1
      vertex 24.4713 -84.9062 0
    endloop
  endfacet
  facet normal 0.813117 -0.5821 0
    outer loop
      vertex -18.8848 -52.953 1
      vertex 1.73015 -24.1566 0
      vertex 1.73015 -24.1566 1
    endloop
  endfacet
  facet normal 0.813117 -0.5821 0
    outer loop
      vertex 1.73015 -24.1566 0
      vertex -18.8848 -52.953 1
      vertex -18.8848 -52.953 0
    endloop
  endfacet
  facet normal 0.844299 -0.535872 0
    outer loop
      vertex 1.73015 -24.1566 1
      vertex 2.92674 -22.2713 0
      vertex 2.92674 -22.2713 1
    endloop
  endfacet
  facet normal 0.844299 -0.535872 0
    outer loop
      vertex 2.92674 -22.2713 0
      vertex 1.73015 -24.1566 1
      vertex 1.73015 -24.1566 0
    endloop
  endfacet
  facet normal 0.850184 -0.526485 0
    outer loop
      vertex 2.92674 -22.2713 1
      vertex 4.01286 -20.5174 0
      vertex 4.01286 -20.5174 1
    endloop
  endfacet
  facet normal 0.850184 -0.526485 0
    outer loop
      vertex 4.01286 -20.5174 0
      vertex 2.92674 -22.2713 1
      vertex 2.92674 -22.2713 0
    endloop
  endfacet
  facet normal 0.856973 -0.515362 0
    outer loop
      vertex 4.01286 -20.5174 1
      vertex 4.98853 -18.895 0
      vertex 4.98853 -18.895 1
    endloop
  endfacet
  facet normal 0.856973 -0.515362 0
    outer loop
      vertex 4.98853 -18.895 0
      vertex 4.01286 -20.5174 1
      vertex 4.01286 -20.5174 0
    endloop
  endfacet
  facet normal 0.864918 -0.501913 0
    outer loop
      vertex 4.98853 -18.895 1
      vertex 5.8537 -17.4041 0
      vertex 5.8537 -17.4041 1
    endloop
  endfacet
  facet normal 0.864918 -0.501913 0
    outer loop
      vertex 5.8537 -17.4041 0
      vertex 4.98853 -18.895 1
      vertex 4.98853 -18.895 0
    endloop
  endfacet
  facet normal 0.874315 -0.485359 0
    outer loop
      vertex 5.8537 -17.4041 1
      vertex 6.6084 -16.0446 0
      vertex 6.6084 -16.0446 1
    endloop
  endfacet
  facet normal 0.874315 -0.485359 0
    outer loop
      vertex 6.6084 -16.0446 0
      vertex 5.8537 -17.4041 1
      vertex 5.8537 -17.4041 0
    endloop
  endfacet
  facet normal 0.88555 -0.464544 0
    outer loop
      vertex 6.6084 -16.0446 1
      vertex 7.25264 -14.8165 0
      vertex 7.25264 -14.8165 1
    endloop
  endfacet
  facet normal 0.88555 -0.464544 0
    outer loop
      vertex 7.25264 -14.8165 0
      vertex 6.6084 -16.0446 1
      vertex 6.6084 -16.0446 0
    endloop
  endfacet
  facet normal 0.899142 -0.437657 0
    outer loop
      vertex 7.25264 -14.8165 1
      vertex 7.78641 -13.7199 0
      vertex 7.78641 -13.7199 1
    endloop
  endfacet
  facet normal 0.899142 -0.437657 0
    outer loop
      vertex 7.78641 -13.7199 0
      vertex 7.25264 -14.8165 1
      vertex 7.25264 -14.8165 0
    endloop
  endfacet
  facet normal -0.995082 0.0990497 0
    outer loop
      vertex 7.74753 -14.1105 0
      vertex 7.78641 -13.7199 1
      vertex 7.78641 -13.7199 0
    endloop
  endfacet
  facet normal -0.995082 0.0990497 0
    outer loop
      vertex 7.78641 -13.7199 1
      vertex 7.74753 -14.1105 0
      vertex 7.74753 -14.1105 1
    endloop
  endfacet
  facet normal -0.996482 0.083804 0
    outer loop
      vertex 7.70474 -14.6193 0
      vertex 7.74753 -14.1105 1
      vertex 7.74753 -14.1105 0
    endloop
  endfacet
  facet normal -0.996482 0.083804 0
    outer loop
      vertex 7.74753 -14.1105 1
      vertex 7.70474 -14.6193 0
      vertex 7.70474 -14.6193 1
    endloop
  endfacet
  facet normal -0.997239 0.0742524 0
    outer loop
      vertex 7.65804 -15.2465 0
      vertex 7.70474 -14.6193 1
      vertex 7.70474 -14.6193 0
    endloop
  endfacet
  facet normal -0.997239 0.0742524 0
    outer loop
      vertex 7.70474 -14.6193 1
      vertex 7.65804 -15.2465 0
      vertex 7.65804 -15.2465 1
    endloop
  endfacet
  facet normal -0.997703 0.0677447 0
    outer loop
      vertex 7.60742 -15.992 0
      vertex 7.65804 -15.2465 1
      vertex 7.65804 -15.2465 0
    endloop
  endfacet
  facet normal -0.997703 0.0677447 0
    outer loop
      vertex 7.65804 -15.2465 1
      vertex 7.60742 -15.992 0
      vertex 7.60742 -15.992 1
    endloop
  endfacet
  facet normal -0.998012 0.0630256 0
    outer loop
      vertex 7.55287 -16.8558 0
      vertex 7.60742 -15.992 1
      vertex 7.60742 -15.992 0
    endloop
  endfacet
  facet normal -0.998012 0.0630256 0
    outer loop
      vertex 7.60742 -15.992 1
      vertex 7.55287 -16.8558 0
      vertex 7.55287 -16.8558 1
    endloop
  endfacet
  facet normal -0.998234 0.0594061 0
    outer loop
      vertex 7.49443 -17.8378 0
      vertex 7.55287 -16.8558 1
      vertex 7.55287 -16.8558 0
    endloop
  endfacet
  facet normal -0.998234 0.0594061 0
    outer loop
      vertex 7.55287 -16.8558 1
      vertex 7.49443 -17.8378 0
      vertex 7.49443 -17.8378 1
    endloop
  endfacet
  facet normal -0.998397 0.0565976 0
    outer loop
      vertex 7.43205 -18.9382 0
      vertex 7.49443 -17.8378 1
      vertex 7.49443 -17.8378 0
    endloop
  endfacet
  facet normal -0.998397 0.0565976 0
    outer loop
      vertex 7.49443 -17.8378 1
      vertex 7.43205 -18.9382 0
      vertex 7.43205 -18.9382 1
    endloop
  endfacet
  facet normal -0.998648 0.051977 0
    outer loop
      vertex 7.37231 -20.086 0
      vertex 7.43205 -18.9382 1
      vertex 7.43205 -18.9382 0
    endloop
  endfacet
  facet normal -0.998648 0.051977 0
    outer loop
      vertex 7.43205 -18.9382 1
      vertex 7.37231 -20.086 0
      vertex 7.37231 -20.086 1
    endloop
  endfacet
  facet normal -0.998991 0.0449102 0
    outer loop
      vertex 7.32178 -21.21 0
      vertex 7.37231 -20.086 1
      vertex 7.37231 -20.086 0
    endloop
  endfacet
  facet normal -0.998991 0.0449102 0
    outer loop
      vertex 7.37231 -20.086 1
      vertex 7.32178 -21.21 0
      vertex 7.32178 -21.21 1
    endloop
  endfacet
  facet normal -0.999295 0.0375507 0
    outer loop
      vertex 7.28043 -22.3104 0
      vertex 7.32178 -21.21 1
      vertex 7.32178 -21.21 0
    endloop
  endfacet
  facet normal -0.999295 0.0375507 0
    outer loop
      vertex 7.32178 -21.21 1
      vertex 7.28043 -22.3104 0
      vertex 7.28043 -22.3104 1
    endloop
  endfacet
  facet normal -0.999554 0.0298622 0
    outer loop
      vertex 7.24826 -23.3872 0
      vertex 7.28043 -22.3104 1
      vertex 7.28043 -22.3104 0
    endloop
  endfacet
  facet normal -0.999554 0.0298622 0
    outer loop
      vertex 7.28043 -22.3104 1
      vertex 7.24826 -23.3872 0
      vertex 7.24826 -23.3872 1
    endloop
  endfacet
  facet normal -0.999762 0.0218161 0
    outer loop
      vertex 7.22528 -24.4403 0
      vertex 7.24826 -23.3872 1
      vertex 7.24826 -23.3872 0
    endloop
  endfacet
  facet normal -0.999762 0.0218161 0
    outer loop
      vertex 7.24826 -23.3872 1
      vertex 7.22528 -24.4403 0
      vertex 7.22528 -24.4403 1
    endloop
  endfacet
  facet normal -0.99991 0.0133852 0
    outer loop
      vertex 7.2115 -25.4697 0
      vertex 7.22528 -24.4403 1
      vertex 7.22528 -24.4403 0
    endloop
  endfacet
  facet normal -0.99991 0.0133852 0
    outer loop
      vertex 7.22528 -24.4403 1
      vertex 7.2115 -25.4697 0
      vertex 7.2115 -25.4697 1
    endloop
  endfacet
  facet normal -0.99999 0.00456348 0
    outer loop
      vertex 7.20691 -26.4755 0
      vertex 7.2115 -25.4697 1
      vertex 7.2115 -25.4697 0
    endloop
  endfacet
  facet normal -0.99999 0.00456348 0
    outer loop
      vertex 7.2115 -25.4697 1
      vertex 7.20691 -26.4755 0
      vertex 7.20691 -26.4755 1
    endloop
  endfacet
  facet normal -1 0 0
    outer loop
      vertex 7.20691 -52.953 0
      vertex 7.20691 -26.4755 1
      vertex 7.20691 -26.4755 0
    endloop
  endfacet
  facet normal -1 -0 0
    outer loop
      vertex 7.20691 -26.4755 1
      vertex 7.20691 -52.953 0
      vertex 7.20691 -52.953 1
    endloop
  endfacet
  facet normal 0 1 -0
    outer loop
      vertex 7.20691 -52.953 0
      vertex -18.8848 -52.953 1
      vertex 7.20691 -52.953 1
    endloop
  endfacet
  facet normal 0 1 0
    outer loop
      vertex -18.8848 -52.953 1
      vertex 7.20691 -52.953 0
      vertex -18.8848 -52.953 0
    endloop
  endfacet
endsolid OpenSCAD_Model
