solid OpenSCAD_Model
  facet normal 0 0 -1
    outer loop
      vertex -1.71545 -14.8175 0
      vertex 2.07256 -14.8175 0
      vertex 2.07256 -21.9812 0
    endloop
  endfacet
  facet normal 0 0 -1
    outer loop
      vertex -1.71545 -14.8175 0
      vertex 2.07256 -21.9812 0
      vertex -1.71545 -21.9812 0
    endloop
  endfacet
  facet normal 0 0 -1
    outer loop
      vertex 2.07256 -14.8175 0
      vertex -1.71545 -14.8175 0
      vertex 0.152802 -11.8928 0
    endloop
  endfacet
  facet normal 0 0 -1
    outer loop
      vertex -1.71545 -14.8175 0
      vertex -3.71236 -4.60025 0
      vertex 0.152802 -11.8928 0
    endloop
  endfacet
  facet normal -0 -0 -1
    outer loop
      vertex -3.71236 -4.60025 0
      vertex -1.71545 -14.8175 0
      vertex -7.69382 -4.60025 0
    endloop
  endfacet
  facet normal 0 0 -1
    outer loop
      vertex 2.07256 -14.8175 0
      vertex 4.06964 -4.60025 0
      vertex 8.0509 -4.60025 0
    endloop
  endfacet
  facet normal 0 0 -1
    outer loop
      vertex 4.06964 -4.60025 0
      vertex 2.07256 -14.8175 0
      vertex 0.152802 -11.8928 0
    endloop
  endfacet
  facet normal 0 0 1
    outer loop
      vertex -3.71236 -4.60025 1
      vertex -1.71545 -14.8175 1
      vertex 0.152802 -11.8928 1
    endloop
  endfacet
  facet normal 0 0 1
    outer loop
      vertex -1.71545 -14.8175 1
      vertex -3.71236 -4.60025 1
      vertex -7.69382 -4.60025 1
    endloop
  endfacet
  facet normal -0 0 1
    outer loop
      vertex 4.06964 -4.60025 1
      vertex 2.07256 -14.8175 1
      vertex 8.0509 -4.60025 1
    endloop
  endfacet
  facet normal -0 0 1
    outer loop
      vertex 0.152802 -11.8928 1
      vertex 2.07256 -14.8175 1
      vertex 4.06964 -4.60025 1
    endloop
  endfacet
  facet normal 0 0 1
    outer loop
      vertex -1.71545 -14.8175 1
      vertex 2.07256 -14.8175 1
      vertex 0.152802 -11.8928 1
    endloop
  endfacet
  facet normal 0 0 1
    outer loop
      vertex 2.07256 -14.8175 1
      vertex -1.71545 -14.8175 1
      vertex 2.07256 -21.9812 1
    endloop
  endfacet
  facet normal 0 0 1
    outer loop
      vertex 2.07256 -21.9812 1
      vertex -1.71545 -14.8175 1
      vertex -1.71545 -21.9812 1
    endloop
  endfacet
  facet normal 0.863106 -0.505023 0
    outer loop
      vertex 2.07256 -14.8175 1
      vertex 8.0509 -4.60025 0
      vertex 8.0509 -4.60025 1
    endloop
  endfacet
  facet normal 0.863106 -0.505023 0
    outer loop
      vertex 8.0509 -4.60025 0
      vertex 2.07256 -14.8175 1
      vertex 2.07256 -14.8175 0
    endloop
  endfacet
  facet normal 0 1 -0
    outer loop
      vertex 8.0509 -4.60025 0
      vertex 4.06964 -4.60025 1
      vertex 8.0509 -4.60025 1
    endloop
  endfacet
  facet normal 0 1 0
    outer loop
      vertex 4.06964 -4.60025 1
      vertex 8.0509 -4.60025 0
      vertex 4.06964 -4.60025 0
    endloop
  endfacet
  facet normal -0.880971 0.473171 0
    outer loop
      vertex 0.152802 -11.8928 0
      vertex 4.06964 -4.60025 1
      vertex 4.06964 -4.60025 0
    endloop
  endfacet
  facet normal -0.880971 0.473171 0
    outer loop
      vertex 4.06964 -4.60025 1
      vertex 0.152802 -11.8928 0
      vertex 0.152802 -11.8928 1
    endloop
  endfacet
  facet normal 0.883567 0.468304 0
    outer loop
      vertex 0.152802 -11.8928 1
      vertex -3.71236 -4.60025 0
      vertex -3.71236 -4.60025 1
    endloop
  endfacet
  facet normal 0.883567 0.468304 0
    outer loop
      vertex -3.71236 -4.60025 0
      vertex 0.152802 -11.8928 1
      vertex 0.152802 -11.8928 0
    endloop
  endfacet
  facet normal 0 1 -0
    outer loop
      vertex -3.71236 -4.60025 0
      vertex -7.69382 -4.60025 1
      vertex -3.71236 -4.60025 1
    endloop
  endfacet
  facet normal 0 1 0
    outer loop
      vertex -7.69382 -4.60025 1
      vertex -3.71236 -4.60025 0
      vertex -7.69382 -4.60025 0
    endloop
  endfacet
  facet normal -0.863105 -0.505024 0
    outer loop
      vertex -1.71545 -14.8175 0
      vertex -7.69382 -4.60025 1
      vertex -7.69382 -4.60025 0
    endloop
  endfacet
  facet normal -0.863105 -0.505024 0
    outer loop
      vertex -7.69382 -4.60025 1
      vertex -1.71545 -14.8175 0
      vertex -1.71545 -14.8175 1
    endloop
  endfacet
  facet normal -1 0 0
    outer loop
      vertex -1.71545 -21.9812 0
      vertex -1.71545 -14.8175 1
      vertex -1.71545 -14.8175 0
    endloop
  endfacet
  facet normal -1 -0 0
    outer loop
      vertex -1.71545 -14.8175 1
      vertex -1.71545 -21.9812 0
      vertex -1.71545 -21.9812 1
    endloop
  endfacet
  facet normal 0 -1 0
    outer loop
      vertex -1.71545 -21.9812 0
      vertex 2.07256 -21.9812 1
      vertex -1.71545 -21.9812 1
    endloop
  endfacet
  facet normal 0 -1 -0
    outer loop
      vertex 2.07256 -21.9812 1
      vertex -1.71545 -21.9812 0
      vertex 2.07256 -21.9812 0
    endloop
  endfacet
  facet normal 1 -0 0
    outer loop
      vertex 2.07256 -21.9812 1
      vertex 2.07256 -14.8175 0
      vertex 2.07256 -14.8175 1
    endloop
  endfacet
  facet normal 1 0 0
    outer loop
      vertex 2.07256 -14.8175 0
      vertex 2.07256 -21.9812 1
      vertex 2.07256 -21.9812 0
    endloop
  endfacet
endsolid OpenSCAD_Model
