solid OpenSCAD_Model
  facet normal 0 0 -1
    outer loop
      vertex 32.2023 -49.9253 0
      vertex 13.1358 -53.1629 0
      vertex 13.1976 -50.0536 0
    endloop
  endfacet
  facet normal 0 0 -1
    outer loop
      vertex 19.0134 -81.6422 0
      vertex 12.9505 -56.012 0
      vertex 13.1358 -53.1629 0
    endloop
  endfacet
  facet normal 0 0 -1
    outer loop
      vertex 19.0134 -81.6422 0
      vertex 12.6415 -58.6007 0
      vertex 12.9505 -56.012 0
    endloop
  endfacet
  facet normal 0 0 -1
    outer loop
      vertex 6.90025 -69.6938 0
      vertex 15.8824 -83.281 0
      vertex 12.4082 -84.5556 0
    endloop
  endfacet
  facet normal 0 0 -1
    outer loop
      vertex 19.0134 -81.6422 0
      vertex 12.209 -60.9292 0
      vertex 12.6415 -58.6007 0
    endloop
  endfacet
  facet normal 0 0 -1
    outer loop
      vertex 19.0134 -81.6422 0
      vertex 11.6529 -62.9973 0
      vertex 12.209 -60.9292 0
    endloop
  endfacet
  facet normal 0 0 -1
    outer loop
      vertex 19.0134 -81.6422 0
      vertex 10.9732 -64.8052 0
      vertex 11.6529 -62.9973 0
    endloop
  endfacet
  facet normal 0 0 -1
    outer loop
      vertex 19.0134 -81.6422 0
      vertex 10.17 -66.3527 0
      vertex 10.9732 -64.8052 0
    endloop
  endfacet
  facet normal 0 0 -1
    outer loop
      vertex 19.0134 -81.6422 0
      vertex 9.22997 -67.6689 0
      vertex 10.17 -66.3527 0
    endloop
  endfacet
  facet normal 0 0 -1
    outer loop
      vertex 5.51053 -70.4025 0
      vertex 12.4082 -84.5556 0
      vertex 8.59097 -85.4661 0
    endloop
  endfacet
  facet normal 0 0 -1
    outer loop
      vertex 19.0134 -81.6422 0
      vertex 8.14006 -68.7826 0
      vertex 9.22997 -67.6689 0
    endloop
  endfacet
  facet normal 0 0 -1
    outer loop
      vertex 15.8824 -83.281 0
      vertex 6.90025 -69.6938 0
      vertex 8.14006 -68.7826 0
    endloop
  endfacet
  facet normal 0 0 -1
    outer loop
      vertex 12.4082 -84.5556 0
      vertex 5.51053 -70.4025 0
      vertex 6.90025 -69.6938 0
    endloop
  endfacet
  facet normal 0 0 -1
    outer loop
      vertex 3.97092 -70.9087 0
      vertex 8.59097 -85.4661 0
      vertex 4.43057 -86.0124 0
    endloop
  endfacet
  facet normal 0 0 -1
    outer loop
      vertex 8.59097 -85.4661 0
      vertex 3.97092 -70.9087 0
      vertex 5.51053 -70.4025 0
    endloop
  endfacet
  facet normal 0 0 -1
    outer loop
      vertex 4.43057 -86.0124 0
      vertex 2.28139 -71.2124 0
      vertex 3.97092 -70.9087 0
    endloop
  endfacet
  facet normal 0 0 -1
    outer loop
      vertex -0.072937 -86.1944 0
      vertex 2.28139 -71.2124 0
      vertex 4.43057 -86.0124 0
    endloop
  endfacet
  facet normal 0 0 -1
    outer loop
      vertex 2.28139 -71.2124 0
      vertex -0.072937 -86.1944 0
      vertex 0.441956 -71.3136 0
    endloop
  endfacet
  facet normal 0 0 -1
    outer loop
      vertex -0.072937 -86.1944 0
      vertex -1.35463 -71.2183 0
      vertex 0.441956 -71.3136 0
    endloop
  endfacet
  facet normal 0 0 -1
    outer loop
      vertex -4.42473 -86.0183 0
      vertex -1.35463 -71.2183 0
      vertex -0.072937 -86.1944 0
    endloop
  endfacet
  facet normal -0 0 -1
    outer loop
      vertex -1.35463 -71.2183 0
      vertex -4.42473 -86.0183 0
      vertex -2.9895 -70.9324 0
    endloop
  endfacet
  facet normal 0 0 -1
    outer loop
      vertex -8.42416 -85.4897 0
      vertex -2.9895 -70.9324 0
      vertex -4.42473 -86.0183 0
    endloop
  endfacet
  facet normal -0 0 -1
    outer loop
      vertex -2.9895 -70.9324 0
      vertex -8.42416 -85.4897 0
      vertex -4.46265 -70.4559 0
    endloop
  endfacet
  facet normal 0 0 -1
    outer loop
      vertex -12.0713 -84.6089 0
      vertex -4.46265 -70.4559 0
      vertex -8.42416 -85.4897 0
    endloop
  endfacet
  facet normal -0 0 -1
    outer loop
      vertex -4.46265 -70.4559 0
      vertex -12.0713 -84.6089 0
      vertex -5.77405 -69.7887 0
    endloop
  endfacet
  facet normal 0 0 -1
    outer loop
      vertex -15.366 -83.3756 0
      vertex -5.77405 -69.7887 0
      vertex -12.0713 -84.6089 0
    endloop
  endfacet
  facet normal -0 0 -1
    outer loop
      vertex -5.77405 -69.7887 0
      vertex -15.366 -83.3756 0
      vertex -6.92374 -68.9309 0
    endloop
  endfacet
  facet normal 0 0 -1
    outer loop
      vertex -18.3084 -81.79 0
      vertex -6.92374 -68.9309 0
      vertex -15.366 -83.3756 0
    endloop
  endfacet
  facet normal -0 0 -1
    outer loop
      vertex -6.92374 -68.9309 0
      vertex -18.3084 -81.79 0
      vertex -7.91167 -67.8825 0
    endloop
  endfacet
  facet normal 0 0 -1
    outer loop
      vertex -20.8984 -79.8521 0
      vertex -7.91167 -67.8825 0
      vertex -18.3084 -81.79 0
    endloop
  endfacet
  facet normal 0 0 -1
    outer loop
      vertex -23.1361 -77.5618 0
      vertex -7.91167 -67.8825 0
      vertex -20.8984 -79.8521 0
    endloop
  endfacet
  facet normal -0 0 -1
    outer loop
      vertex -7.91167 -67.8825 0
      vertex -23.1361 -77.5618 0
      vertex -8.73788 -66.6434 0
    endloop
  endfacet
  facet normal 0 0 -1
    outer loop
      vertex -25.0503 -74.9034 0
      vertex -8.73788 -66.6434 0
      vertex -23.1361 -77.5618 0
    endloop
  endfacet
  facet normal -0 0 -1
    outer loop
      vertex -8.73788 -66.6434 0
      vertex -25.0503 -74.9034 0
      vertex -9.42998 -65.1741 0
    endloop
  endfacet
  facet normal 0 0 -1
    outer loop
      vertex -26.6701 -71.8611 0
      vertex -9.42998 -65.1741 0
      vertex -25.0503 -74.9034 0
    endloop
  endfacet
  facet normal -0 0 -1
    outer loop
      vertex -9.42998 -65.1741 0
      vertex -26.6701 -71.8611 0
      vertex -10.0156 -63.4352 0
    endloop
  endfacet
  facet normal 0 0 -1
    outer loop
      vertex -27.9953 -68.4349 0
      vertex -10.0156 -63.4352 0
      vertex -26.6701 -71.8611 0
    endloop
  endfacet
  facet normal -0 0 -1
    outer loop
      vertex -10.0156 -63.4352 0
      vertex -27.9953 -68.4349 0
      vertex -10.4948 -61.4269 0
    endloop
  endfacet
  facet normal 0 0 -1
    outer loop
      vertex -29.0261 -64.6249 0
      vertex -10.4948 -61.4269 0
      vertex -27.9953 -68.4349 0
    endloop
  endfacet
  facet normal -0 0 -1
    outer loop
      vertex -10.4948 -61.4269 0
      vertex -29.0261 -64.6249 0
      vertex -10.8674 -59.1491 0
    endloop
  endfacet
  facet normal 0 0 -1
    outer loop
      vertex -29.7623 -60.431 0
      vertex -10.8674 -59.1491 0
      vertex -29.0261 -64.6249 0
    endloop
  endfacet
  facet normal -0 0 -1
    outer loop
      vertex -10.8674 -59.1491 0
      vertex -29.7623 -60.431 0
      vertex -11.1336 -56.6017 0
    endloop
  endfacet
  facet normal 0 0 -1
    outer loop
      vertex -30.2041 -55.8532 0
      vertex -11.1336 -56.6017 0
      vertex -29.7623 -60.431 0
    endloop
  endfacet
  facet normal 0 0 -1
    outer loop
      vertex -11.1336 -56.6017 0
      vertex -30.2041 -55.8532 0
      vertex -11.2933 -53.7849 0
    endloop
  endfacet
  facet normal 0 0 -1
    outer loop
      vertex -30.3513 -50.8915 0
      vertex -11.2933 -53.7849 0
      vertex -30.2041 -55.8532 0
    endloop
  endfacet
  facet normal 0 0 -1
    outer loop
      vertex -11.2933 -53.7849 0
      vertex -30.3513 -50.8915 0
      vertex -11.3466 -50.6986 0
    endloop
  endfacet
  facet normal 0 0 -1
    outer loop
      vertex -30.3513 1.99879 0
      vertex -11.3466 -50.6986 0
      vertex -30.3513 -50.8915 0
    endloop
  endfacet
  facet normal 0 0 -1
    outer loop
      vertex -11.3466 -50.6986 0
      vertex -30.3513 1.99879 0
      vertex -11.3466 1.99879 0
    endloop
  endfacet
  facet normal 0 0 -1
    outer loop
      vertex 13.1358 -53.1629 0
      vertex 32.2023 -49.9253 0
      vertex 32.04 -54.9955 0
    endloop
  endfacet
  facet normal 0 0 -1
    outer loop
      vertex 13.1358 -53.1629 0
      vertex 32.04 -54.9955 0
      vertex 31.5529 -59.6778 0
    endloop
  endfacet
  facet normal 0 0 -1
    outer loop
      vertex 13.1358 -53.1629 0
      vertex 31.5529 -59.6778 0
      vertex 30.741 -63.9724 0
    endloop
  endfacet
  facet normal 0 0 -1
    outer loop
      vertex 13.1358 -53.1629 0
      vertex 30.741 -63.9724 0
      vertex 29.6044 -67.879 0
    endloop
  endfacet
  facet normal 0 0 -1
    outer loop
      vertex 13.1358 -53.1629 0
      vertex 29.6044 -67.879 0
      vertex 28.143 -71.3979 0
    endloop
  endfacet
  facet normal 0 0 -1
    outer loop
      vertex 13.1358 -53.1629 0
      vertex 28.143 -71.3979 0
      vertex 26.3569 -74.5289 0
    endloop
  endfacet
  facet normal 0 0 -1
    outer loop
      vertex 13.1358 -53.1629 0
      vertex 26.3569 -74.5289 0
      vertex 24.2461 -77.272 0
    endloop
  endfacet
  facet normal 0 0 -1
    outer loop
      vertex 13.1358 -53.1629 0
      vertex 24.2461 -77.272 0
      vertex 21.8013 -79.6392 0
    endloop
  endfacet
  facet normal 0 0 -1
    outer loop
      vertex 13.1358 -53.1629 0
      vertex 21.8013 -79.6392 0
      vertex 19.0134 -81.6422 0
    endloop
  endfacet
  facet normal 0 0 -1
    outer loop
      vertex 8.14006 -68.7826 0
      vertex 19.0134 -81.6422 0
      vertex 15.8824 -83.281 0
    endloop
  endfacet
  facet normal -0 0 -1
    outer loop
      vertex 32.2023 -49.9253 0
      vertex 13.1976 -50.0536 0
      vertex 32.2023 1.99879 0
    endloop
  endfacet
  facet normal -0 0 -1
    outer loop
      vertex 32.2023 1.99879 0
      vertex 13.1976 -50.0536 0
      vertex 13.1976 1.99879 0
    endloop
  endfacet
  facet normal -0 0 1
    outer loop
      vertex -30.3513 1.99879 1
      vertex -11.3466 -50.6986 1
      vertex -11.3466 1.99879 1
    endloop
  endfacet
  facet normal 0 -0 1
    outer loop
      vertex -30.2041 -55.8532 1
      vertex -11.3466 -50.6986 1
      vertex -30.3513 -50.8915 1
    endloop
  endfacet
  facet normal 0 -0 1
    outer loop
      vertex -29.7623 -60.431 1
      vertex -11.3466 -50.6986 1
      vertex -30.2041 -55.8532 1
    endloop
  endfacet
  facet normal 0 -0 1
    outer loop
      vertex -29.0261 -64.6249 1
      vertex -11.3466 -50.6986 1
      vertex -29.7623 -60.431 1
    endloop
  endfacet
  facet normal 0 -0 1
    outer loop
      vertex -27.9953 -68.4349 1
      vertex -11.3466 -50.6986 1
      vertex -29.0261 -64.6249 1
    endloop
  endfacet
  facet normal 0 -0 1
    outer loop
      vertex -26.6701 -71.8611 1
      vertex -11.3466 -50.6986 1
      vertex -27.9953 -68.4349 1
    endloop
  endfacet
  facet normal 0 -0 1
    outer loop
      vertex -25.0503 -74.9034 1
      vertex -11.3466 -50.6986 1
      vertex -26.6701 -71.8611 1
    endloop
  endfacet
  facet normal 0 0 1
    outer loop
      vertex -11.3466 -50.6986 1
      vertex -15.366 -83.3756 1
      vertex -12.0713 -84.6089 1
    endloop
  endfacet
  facet normal 0 -0 1
    outer loop
      vertex -23.1361 -77.5618 1
      vertex -11.3466 -50.6986 1
      vertex -25.0503 -74.9034 1
    endloop
  endfacet
  facet normal 0 0 1
    outer loop
      vertex -11.3466 -50.6986 1
      vertex -18.3084 -81.79 1
      vertex -15.366 -83.3756 1
    endloop
  endfacet
  facet normal 0 0 1
    outer loop
      vertex -11.3466 -50.6986 1
      vertex -23.1361 -77.5618 1
      vertex -20.8984 -79.8521 1
    endloop
  endfacet
  facet normal 0 0 1
    outer loop
      vertex -11.3466 -50.6986 1
      vertex -30.3513 1.99879 1
      vertex -30.3513 -50.8915 1
    endloop
  endfacet
  facet normal 0 0 1
    outer loop
      vertex -11.3466 -50.6986 1
      vertex -20.8984 -79.8521 1
      vertex -18.3084 -81.79 1
    endloop
  endfacet
  facet normal 0 0 1
    outer loop
      vertex 13.1976 -50.0536 1
      vertex 32.2023 -49.9253 1
      vertex 32.2023 1.99879 1
    endloop
  endfacet
  facet normal 0 0 1
    outer loop
      vertex 13.1358 -53.1629 1
      vertex 32.2023 -49.9253 1
      vertex 13.1976 -50.0536 1
    endloop
  endfacet
  facet normal 0 0 1
    outer loop
      vertex 32.2023 -49.9253 1
      vertex 13.1358 -53.1629 1
      vertex 32.04 -54.9955 1
    endloop
  endfacet
  facet normal 0 0 1
    outer loop
      vertex 12.9505 -56.012 1
      vertex 32.04 -54.9955 1
      vertex 13.1358 -53.1629 1
    endloop
  endfacet
  facet normal 0 0 1
    outer loop
      vertex 32.04 -54.9955 1
      vertex 12.9505 -56.012 1
      vertex 31.5529 -59.6778 1
    endloop
  endfacet
  facet normal -0 0 1
    outer loop
      vertex 12.6415 -58.6007 1
      vertex 31.5529 -59.6778 1
      vertex 12.9505 -56.012 1
    endloop
  endfacet
  facet normal 0 0 1
    outer loop
      vertex 31.5529 -59.6778 1
      vertex 12.6415 -58.6007 1
      vertex 30.741 -63.9724 1
    endloop
  endfacet
  facet normal -0 0 1
    outer loop
      vertex 12.209 -60.9292 1
      vertex 30.741 -63.9724 1
      vertex 12.6415 -58.6007 1
    endloop
  endfacet
  facet normal 0 0 1
    outer loop
      vertex 30.741 -63.9724 1
      vertex 12.209 -60.9292 1
      vertex 29.6044 -67.879 1
    endloop
  endfacet
  facet normal -0 0 1
    outer loop
      vertex 11.6529 -62.9973 1
      vertex 29.6044 -67.879 1
      vertex 12.209 -60.9292 1
    endloop
  endfacet
  facet normal 0 0 1
    outer loop
      vertex 13.1976 -50.0536 1
      vertex 32.2023 1.99879 1
      vertex 13.1976 1.99879 1
    endloop
  endfacet
  facet normal 0 0 1
    outer loop
      vertex 29.6044 -67.879 1
      vertex 11.6529 -62.9973 1
      vertex 28.143 -71.3979 1
    endloop
  endfacet
  facet normal -0 0 1
    outer loop
      vertex 10.9732 -64.8052 1
      vertex 28.143 -71.3979 1
      vertex 11.6529 -62.9973 1
    endloop
  endfacet
  facet normal 0 0 1
    outer loop
      vertex 28.143 -71.3979 1
      vertex 10.9732 -64.8052 1
      vertex 26.3569 -74.5289 1
    endloop
  endfacet
  facet normal -0 0 1
    outer loop
      vertex 10.17 -66.3527 1
      vertex 26.3569 -74.5289 1
      vertex 10.9732 -64.8052 1
    endloop
  endfacet
  facet normal 0 0 1
    outer loop
      vertex 26.3569 -74.5289 1
      vertex 10.17 -66.3527 1
      vertex 24.2461 -77.272 1
    endloop
  endfacet
  facet normal 0 0 1
    outer loop
      vertex 24.2461 -77.272 1
      vertex 10.17 -66.3527 1
      vertex 21.8013 -79.6392 1
    endloop
  endfacet
  facet normal -0 0 1
    outer loop
      vertex 9.22997 -67.6689 1
      vertex 21.8013 -79.6392 1
      vertex 10.17 -66.3527 1
    endloop
  endfacet
  facet normal 0 0 1
    outer loop
      vertex 21.8013 -79.6392 1
      vertex 9.22997 -67.6689 1
      vertex 19.0134 -81.6422 1
    endloop
  endfacet
  facet normal -0 0 1
    outer loop
      vertex 8.14006 -68.7826 1
      vertex 19.0134 -81.6422 1
      vertex 9.22997 -67.6689 1
    endloop
  endfacet
  facet normal 0 0 1
    outer loop
      vertex 19.0134 -81.6422 1
      vertex 8.14006 -68.7826 1
      vertex 15.8824 -83.281 1
    endloop
  endfacet
  facet normal -0 0 1
    outer loop
      vertex 6.90025 -69.6938 1
      vertex 15.8824 -83.281 1
      vertex 8.14006 -68.7826 1
    endloop
  endfacet
  facet normal 0 0 1
    outer loop
      vertex 15.8824 -83.281 1
      vertex 6.90025 -69.6938 1
      vertex 12.4082 -84.5556 1
    endloop
  endfacet
  facet normal -0 0 1
    outer loop
      vertex 5.51053 -70.4025 1
      vertex 12.4082 -84.5556 1
      vertex 6.90025 -69.6938 1
    endloop
  endfacet
  facet normal 0 0 1
    outer loop
      vertex 12.4082 -84.5556 1
      vertex 5.51053 -70.4025 1
      vertex 8.59097 -85.4661 1
    endloop
  endfacet
  facet normal -0 0 1
    outer loop
      vertex 3.97092 -70.9087 1
      vertex 8.59097 -85.4661 1
      vertex 5.51053 -70.4025 1
    endloop
  endfacet
  facet normal 0 0 1
    outer loop
      vertex 8.59097 -85.4661 1
      vertex 3.97092 -70.9087 1
      vertex 4.43057 -86.0124 1
    endloop
  endfacet
  facet normal -0 0 1
    outer loop
      vertex 2.28139 -71.2124 1
      vertex 4.43057 -86.0124 1
      vertex 3.97092 -70.9087 1
    endloop
  endfacet
  facet normal 0 0 1
    outer loop
      vertex -0.072937 -86.1944 1
      vertex 2.28139 -71.2124 1
      vertex 0.441956 -71.3136 1
    endloop
  endfacet
  facet normal 0 0 1
    outer loop
      vertex 2.28139 -71.2124 1
      vertex -0.072937 -86.1944 1
      vertex 4.43057 -86.0124 1
    endloop
  endfacet
  facet normal 0 0 1
    outer loop
      vertex -1.35463 -71.2183 1
      vertex -0.072937 -86.1944 1
      vertex 0.441956 -71.3136 1
    endloop
  endfacet
  facet normal 0 0 1
    outer loop
      vertex -4.42473 -86.0183 1
      vertex -1.35463 -71.2183 1
      vertex -2.9895 -70.9324 1
    endloop
  endfacet
  facet normal 0 0 1
    outer loop
      vertex -1.35463 -71.2183 1
      vertex -4.42473 -86.0183 1
      vertex -0.072937 -86.1944 1
    endloop
  endfacet
  facet normal 0 0 1
    outer loop
      vertex -8.42416 -85.4897 1
      vertex -2.9895 -70.9324 1
      vertex -4.46265 -70.4559 1
    endloop
  endfacet
  facet normal 0 0 1
    outer loop
      vertex -12.0713 -84.6089 1
      vertex -4.46265 -70.4559 1
      vertex -5.77405 -69.7887 1
    endloop
  endfacet
  facet normal 0 0 1
    outer loop
      vertex -12.0713 -84.6089 1
      vertex -5.77405 -69.7887 1
      vertex -6.92374 -68.9309 1
    endloop
  endfacet
  facet normal 0 0 1
    outer loop
      vertex -12.0713 -84.6089 1
      vertex -6.92374 -68.9309 1
      vertex -7.91167 -67.8825 1
    endloop
  endfacet
  facet normal 0 0 1
    outer loop
      vertex -2.9895 -70.9324 1
      vertex -8.42416 -85.4897 1
      vertex -4.42473 -86.0183 1
    endloop
  endfacet
  facet normal 0 0 1
    outer loop
      vertex -12.0713 -84.6089 1
      vertex -7.91167 -67.8825 1
      vertex -8.73788 -66.6434 1
    endloop
  endfacet
  facet normal 0 0 1
    outer loop
      vertex -12.0713 -84.6089 1
      vertex -8.73788 -66.6434 1
      vertex -9.42998 -65.1741 1
    endloop
  endfacet
  facet normal 0 0 1
    outer loop
      vertex -12.0713 -84.6089 1
      vertex -9.42998 -65.1741 1
      vertex -10.0156 -63.4352 1
    endloop
  endfacet
  facet normal 0 0 1
    outer loop
      vertex -12.0713 -84.6089 1
      vertex -10.0156 -63.4352 1
      vertex -10.4948 -61.4269 1
    endloop
  endfacet
  facet normal 0 0 1
    outer loop
      vertex -12.0713 -84.6089 1
      vertex -10.4948 -61.4269 1
      vertex -10.8674 -59.1491 1
    endloop
  endfacet
  facet normal 0 0 1
    outer loop
      vertex -12.0713 -84.6089 1
      vertex -10.8674 -59.1491 1
      vertex -11.1336 -56.6017 1
    endloop
  endfacet
  facet normal 0 0 1
    outer loop
      vertex -4.46265 -70.4559 1
      vertex -12.0713 -84.6089 1
      vertex -8.42416 -85.4897 1
    endloop
  endfacet
  facet normal 0 0 1
    outer loop
      vertex -11.2933 -53.7849 1
      vertex -12.0713 -84.6089 1
      vertex -11.1336 -56.6017 1
    endloop
  endfacet
  facet normal 0 0 1
    outer loop
      vertex -12.0713 -84.6089 1
      vertex -11.2933 -53.7849 1
      vertex -11.3466 -50.6986 1
    endloop
  endfacet
  facet normal 0.130192 -0.991489 0
    outer loop
      vertex 4.43057 -86.0124 0
      vertex 8.59097 -85.4661 1
      vertex 4.43057 -86.0124 1
    endloop
  endfacet
  facet normal 0.130192 -0.991489 0
    outer loop
      vertex 8.59097 -85.4661 1
      vertex 4.43057 -86.0124 0
      vertex 8.59097 -85.4661 0
    endloop
  endfacet
  facet normal 0.232015 -0.972712 0
    outer loop
      vertex 8.59097 -85.4661 0
      vertex 12.4082 -84.5556 1
      vertex 8.59097 -85.4661 1
    endloop
  endfacet
  facet normal 0.232015 -0.972712 0
    outer loop
      vertex 12.4082 -84.5556 1
      vertex 8.59097 -85.4661 0
      vertex 12.4082 -84.5556 0
    endloop
  endfacet
  facet normal 0.344428 -0.938813 0
    outer loop
      vertex 12.4082 -84.5556 0
      vertex 15.8824 -83.281 1
      vertex 12.4082 -84.5556 1
    endloop
  endfacet
  facet normal 0.344428 -0.938813 0
    outer loop
      vertex 15.8824 -83.281 1
      vertex 12.4082 -84.5556 0
      vertex 15.8824 -83.281 0
    endloop
  endfacet
  facet normal 0.46373 -0.885977 0
    outer loop
      vertex 15.8824 -83.281 0
      vertex 19.0134 -81.6422 1
      vertex 15.8824 -83.281 1
    endloop
  endfacet
  facet normal 0.46373 -0.885977 0
    outer loop
      vertex 19.0134 -81.6422 1
      vertex 15.8824 -83.281 0
      vertex 19.0134 -81.6422 0
    endloop
  endfacet
  facet normal 0.583482 -0.812126 0
    outer loop
      vertex 19.0134 -81.6422 0
      vertex 21.8013 -79.6392 1
      vertex 19.0134 -81.6422 1
    endloop
  endfacet
  facet normal 0.583482 -0.812126 0
    outer loop
      vertex 21.8013 -79.6392 1
      vertex 19.0134 -81.6422 0
      vertex 21.8013 -79.6392 0
    endloop
  endfacet
  facet normal 0.695613 -0.718416 0
    outer loop
      vertex 21.8013 -79.6392 0
      vertex 24.2461 -77.272 1
      vertex 21.8013 -79.6392 1
    endloop
  endfacet
  facet normal 0.695613 -0.718416 0
    outer loop
      vertex 24.2461 -77.272 1
      vertex 21.8013 -79.6392 0
      vertex 24.2461 -77.272 0
    endloop
  endfacet
  facet normal 0.792523 -0.609842 0
    outer loop
      vertex 24.2461 -77.272 1
      vertex 26.3569 -74.5289 0
      vertex 26.3569 -74.5289 1
    endloop
  endfacet
  facet normal 0.792523 -0.609842 0
    outer loop
      vertex 26.3569 -74.5289 0
      vertex 24.2461 -77.272 1
      vertex 24.2461 -77.272 0
    endloop
  endfacet
  facet normal 0.868607 -0.495502 0
    outer loop
      vertex 26.3569 -74.5289 1
      vertex 28.143 -71.3979 0
      vertex 28.143 -71.3979 1
    endloop
  endfacet
  facet normal 0.868607 -0.495502 0
    outer loop
      vertex 28.143 -71.3979 0
      vertex 26.3569 -74.5289 1
      vertex 26.3569 -74.5289 0
    endloop
  endfacet
  facet normal 0.923524 -0.38354 0
    outer loop
      vertex 28.143 -71.3979 1
      vertex 29.6044 -67.879 0
      vertex 29.6044 -67.879 1
    endloop
  endfacet
  facet normal 0.923524 -0.38354 0
    outer loop
      vertex 29.6044 -67.879 0
      vertex 28.143 -71.3979 1
      vertex 28.143 -71.3979 0
    endloop
  endfacet
  facet normal 0.960186 -0.27936 0
    outer loop
      vertex 29.6044 -67.879 1
      vertex 30.741 -63.9724 0
      vertex 30.741 -63.9724 1
    endloop
  endfacet
  facet normal 0.960186 -0.27936 0
    outer loop
      vertex 30.741 -63.9724 0
      vertex 29.6044 -67.879 1
      vertex 29.6044 -67.879 0
    endloop
  endfacet
  facet normal 0.982595 -0.185761 0
    outer loop
      vertex 30.741 -63.9724 1
      vertex 31.5529 -59.6778 0
      vertex 31.5529 -59.6778 1
    endloop
  endfacet
  facet normal 0.982595 -0.185761 0
    outer loop
      vertex 31.5529 -59.6778 0
      vertex 30.741 -63.9724 1
      vertex 30.741 -63.9724 0
    endloop
  endfacet
  facet normal 0.994632 -0.103472 0
    outer loop
      vertex 31.5529 -59.6778 1
      vertex 32.04 -54.9955 0
      vertex 32.04 -54.9955 1
    endloop
  endfacet
  facet normal 0.994632 -0.103472 0
    outer loop
      vertex 32.04 -54.9955 0
      vertex 31.5529 -59.6778 1
      vertex 31.5529 -59.6778 0
    endloop
  endfacet
  facet normal 0.999488 -0.0319942 0
    outer loop
      vertex 32.04 -54.9955 1
      vertex 32.2023 -49.9253 0
      vertex 32.2023 -49.9253 1
    endloop
  endfacet
  facet normal 0.999488 -0.0319942 0
    outer loop
      vertex 32.2023 -49.9253 0
      vertex 32.04 -54.9955 1
      vertex 32.04 -54.9955 0
    endloop
  endfacet
  facet normal 1 -0 0
    outer loop
      vertex 32.2023 -49.9253 1
      vertex 32.2023 1.99879 0
      vertex 32.2023 1.99879 1
    endloop
  endfacet
  facet normal 1 0 0
    outer loop
      vertex 32.2023 1.99879 0
      vertex 32.2023 -49.9253 1
      vertex 32.2023 -49.9253 0
    endloop
  endfacet
  facet normal 0 1 -0
    outer loop
      vertex 32.2023 1.99879 0
      vertex 13.1976 1.99879 1
      vertex 32.2023 1.99879 1
    endloop
  endfacet
  facet normal 0 1 0
    outer loop
      vertex 13.1976 1.99879 1
      vertex 32.2023 1.99879 0
      vertex 13.1976 1.99879 0
    endloop
  endfacet
  facet normal -1 0 0
    outer loop
      vertex 13.1976 -50.0536 0
      vertex 13.1976 1.99879 1
      vertex 13.1976 1.99879 0
    endloop
  endfacet
  facet normal -1 -0 0
    outer loop
      vertex 13.1976 1.99879 1
      vertex 13.1976 -50.0536 0
      vertex 13.1976 -50.0536 1
    endloop
  endfacet
  facet normal -0.999803 0.0198719 0
    outer loop
      vertex 13.1358 -53.1629 0
      vertex 13.1976 -50.0536 1
      vertex 13.1976 -50.0536 0
    endloop
  endfacet
  facet normal -0.999803 0.0198719 0
    outer loop
      vertex 13.1976 -50.0536 1
      vertex 13.1358 -53.1629 0
      vertex 13.1358 -53.1629 1
    endloop
  endfacet
  facet normal -0.997892 0.064901 0
    outer loop
      vertex 12.9505 -56.012 0
      vertex 13.1358 -53.1629 1
      vertex 13.1358 -53.1629 0
    endloop
  endfacet
  facet normal -0.997892 0.064901 0
    outer loop
      vertex 13.1358 -53.1629 1
      vertex 12.9505 -56.012 0
      vertex 12.9505 -56.012 1
    endloop
  endfacet
  facet normal -0.992951 0.118524 0
    outer loop
      vertex 12.6415 -58.6007 0
      vertex 12.9505 -56.012 1
      vertex 12.9505 -56.012 0
    endloop
  endfacet
  facet normal -0.992951 0.118524 0
    outer loop
      vertex 12.9505 -56.012 1
      vertex 12.6415 -58.6007 0
      vertex 12.6415 -58.6007 1
    endloop
  endfacet
  facet normal -0.983184 0.182618 0
    outer loop
      vertex 12.209 -60.9292 0
      vertex 12.6415 -58.6007 1
      vertex 12.6415 -58.6007 0
    endloop
  endfacet
  facet normal -0.983184 0.182618 0
    outer loop
      vertex 12.6415 -58.6007 1
      vertex 12.209 -60.9292 0
      vertex 12.209 -60.9292 1
    endloop
  endfacet
  facet normal -0.965697 0.25967 0
    outer loop
      vertex 11.6529 -62.9973 0
      vertex 12.209 -60.9292 1
      vertex 12.209 -60.9292 0
    endloop
  endfacet
  facet normal -0.965697 0.25967 0
    outer loop
      vertex 12.209 -60.9292 1
      vertex 11.6529 -62.9973 0
      vertex 11.6529 -62.9973 1
    endloop
  endfacet
  facet normal -0.936033 0.351912 0
    outer loop
      vertex 10.9732 -64.8052 0
      vertex 11.6529 -62.9973 1
      vertex 11.6529 -62.9973 0
    endloop
  endfacet
  facet normal -0.936033 0.351912 0
    outer loop
      vertex 11.6529 -62.9973 1
      vertex 10.9732 -64.8052 0
      vertex 10.9732 -64.8052 1
    endloop
  endfacet
  facet normal -0.887569 0.460675 0
    outer loop
      vertex 10.17 -66.3527 0
      vertex 10.9732 -64.8052 1
      vertex 10.9732 -64.8052 0
    endloop
  endfacet
  facet normal -0.887569 0.460675 0
    outer loop
      vertex 10.9732 -64.8052 1
      vertex 10.17 -66.3527 0
      vertex 10.17 -66.3527 1
    endloop
  endfacet
  facet normal -0.813766 0.581192 0
    outer loop
      vertex 9.22997 -67.6689 0
      vertex 10.17 -66.3527 1
      vertex 10.17 -66.3527 0
    endloop
  endfacet
  facet normal -0.813766 0.581192 0
    outer loop
      vertex 10.17 -66.3527 1
      vertex 9.22997 -67.6689 0
      vertex 9.22997 -67.6689 1
    endloop
  endfacet
  facet normal -0.714699 0.699432 0
    outer loop
      vertex 8.14006 -68.7826 0
      vertex 9.22997 -67.6689 1
      vertex 9.22997 -67.6689 0
    endloop
  endfacet
  facet normal -0.714699 0.699432 0
    outer loop
      vertex 9.22997 -67.6689 1
      vertex 8.14006 -68.7826 0
      vertex 8.14006 -68.7826 1
    endloop
  endfacet
  facet normal -0.592211 0.805783 0
    outer loop
      vertex 8.14006 -68.7826 0
      vertex 6.90025 -69.6938 1
      vertex 8.14006 -68.7826 1
    endloop
  endfacet
  facet normal -0.592211 0.805783 0
    outer loop
      vertex 6.90025 -69.6938 1
      vertex 8.14006 -68.7826 0
      vertex 6.90025 -69.6938 0
    endloop
  endfacet
  facet normal -0.454297 0.89085 0
    outer loop
      vertex 6.90025 -69.6938 0
      vertex 5.51053 -70.4025 1
      vertex 6.90025 -69.6938 1
    endloop
  endfacet
  facet normal -0.454297 0.89085 0
    outer loop
      vertex 5.51053 -70.4025 1
      vertex 6.90025 -69.6938 0
      vertex 5.51053 -70.4025 0
    endloop
  endfacet
  facet normal -0.312336 0.949972 0
    outer loop
      vertex 5.51053 -70.4025 0
      vertex 3.97092 -70.9087 1
      vertex 5.51053 -70.4025 1
    endloop
  endfacet
  facet normal -0.312336 0.949972 0
    outer loop
      vertex 3.97092 -70.9087 1
      vertex 5.51053 -70.4025 0
      vertex 3.97092 -70.9087 0
    endloop
  endfacet
  facet normal -0.176919 0.984225 0
    outer loop
      vertex 3.97092 -70.9087 0
      vertex 2.28139 -71.2124 1
      vertex 3.97092 -70.9087 1
    endloop
  endfacet
  facet normal -0.176919 0.984225 0
    outer loop
      vertex 2.28139 -71.2124 1
      vertex 3.97092 -70.9087 0
      vertex 2.28139 -71.2124 0
    endloop
  endfacet
  facet normal -0.0549338 0.99849 0
    outer loop
      vertex 2.28139 -71.2124 0
      vertex 0.441956 -71.3136 1
      vertex 2.28139 -71.2124 1
    endloop
  endfacet
  facet normal -0.0549338 0.99849 0
    outer loop
      vertex 0.441956 -71.3136 1
      vertex 2.28139 -71.2124 0
      vertex 0.441956 -71.3136 0
    endloop
  endfacet
  facet normal 0.0529706 0.998596 -0
    outer loop
      vertex 0.441956 -71.3136 0
      vertex -1.35463 -71.2183 1
      vertex 0.441956 -71.3136 1
    endloop
  endfacet
  facet normal 0.0529706 0.998596 0
    outer loop
      vertex -1.35463 -71.2183 1
      vertex 0.441956 -71.3136 0
      vertex -1.35463 -71.2183 0
    endloop
  endfacet
  facet normal 0.172262 0.985051 -0
    outer loop
      vertex -1.35463 -71.2183 0
      vertex -2.9895 -70.9324 1
      vertex -1.35463 -71.2183 1
    endloop
  endfacet
  facet normal 0.172262 0.985051 0
    outer loop
      vertex -2.9895 -70.9324 1
      vertex -1.35463 -71.2183 0
      vertex -2.9895 -70.9324 0
    endloop
  endfacet
  facet normal 0.307758 0.951465 -0
    outer loop
      vertex -2.9895 -70.9324 0
      vertex -4.46265 -70.4559 1
      vertex -2.9895 -70.9324 1
    endloop
  endfacet
  facet normal 0.307758 0.951465 0
    outer loop
      vertex -4.46265 -70.4559 1
      vertex -2.9895 -70.9324 0
      vertex -4.46265 -70.4559 0
    endloop
  endfacet
  facet normal 0.453455 0.891279 -0
    outer loop
      vertex -4.46265 -70.4559 0
      vertex -5.77405 -69.7887 1
      vertex -4.46265 -70.4559 1
    endloop
  endfacet
  facet normal 0.453455 0.891279 0
    outer loop
      vertex -5.77405 -69.7887 1
      vertex -4.46265 -70.4559 0
      vertex -5.77405 -69.7887 0
    endloop
  endfacet
  facet normal 0.598005 0.801492 -0
    outer loop
      vertex -5.77405 -69.7887 0
      vertex -6.92374 -68.9309 1
      vertex -5.77405 -69.7887 1
    endloop
  endfacet
  facet normal 0.598005 0.801492 0
    outer loop
      vertex -6.92374 -68.9309 1
      vertex -5.77405 -69.7887 0
      vertex -6.92374 -68.9309 0
    endloop
  endfacet
  facet normal 0.727784 0.685807 0
    outer loop
      vertex -6.92374 -68.9309 1
      vertex -7.91167 -67.8825 0
      vertex -7.91167 -67.8825 1
    endloop
  endfacet
  facet normal 0.727784 0.685807 0
    outer loop
      vertex -7.91167 -67.8825 0
      vertex -6.92374 -68.9309 1
      vertex -6.92374 -68.9309 0
    endloop
  endfacet
  facet normal 0.832006 0.554767 0
    outer loop
      vertex -7.91167 -67.8825 1
      vertex -8.73788 -66.6434 0
      vertex -8.73788 -66.6434 1
    endloop
  endfacet
  facet normal 0.832006 0.554767 0
    outer loop
      vertex -8.73788 -66.6434 0
      vertex -7.91167 -67.8825 1
      vertex -7.91167 -67.8825 0
    endloop
  endfacet
  facet normal 0.904661 0.426132 0
    outer loop
      vertex -8.73788 -66.6434 1
      vertex -9.42998 -65.1741 0
      vertex -9.42998 -65.1741 1
    endloop
  endfacet
  facet normal 0.904661 0.426132 0
    outer loop
      vertex -9.42998 -65.1741 0
      vertex -8.73788 -66.6434 1
      vertex -8.73788 -66.6434 0
    endloop
  endfacet
  facet normal 0.9477 0.319163 0
    outer loop
      vertex -9.42998 -65.1741 1
      vertex -10.0156 -63.4352 0
      vertex -10.0156 -63.4352 1
    endloop
  endfacet
  facet normal 0.9477 0.319163 0
    outer loop
      vertex -10.0156 -63.4352 0
      vertex -9.42998 -65.1741 1
      vertex -9.42998 -65.1741 0
    endloop
  endfacet
  facet normal 0.972693 0.232094 0
    outer loop
      vertex -10.0156 -63.4352 1
      vertex -10.4948 -61.4269 0
      vertex -10.4948 -61.4269 1
    endloop
  endfacet
  facet normal 0.972693 0.232094 0
    outer loop
      vertex -10.4948 -61.4269 0
      vertex -10.0156 -63.4352 1
      vertex -10.0156 -63.4352 0
    endloop
  endfacet
  facet normal 0.986884 0.161433 0
    outer loop
      vertex -10.4948 -61.4269 1
      vertex -10.8674 -59.1491 0
      vertex -10.8674 -59.1491 1
    endloop
  endfacet
  facet normal 0.986884 0.161433 0
    outer loop
      vertex -10.8674 -59.1491 0
      vertex -10.4948 -61.4269 1
      vertex -10.4948 -61.4269 0
    endloop
  endfacet
  facet normal 0.994584 0.103933 0
    outer loop
      vertex -10.8674 -59.1491 1
      vertex -11.1336 -56.6017 0
      vertex -11.1336 -56.6017 1
    endloop
  endfacet
  facet normal 0.994584 0.103933 0
    outer loop
      vertex -11.1336 -56.6017 0
      vertex -10.8674 -59.1491 1
      vertex -10.8674 -59.1491 0
    endloop
  endfacet
  facet normal 0.998397 0.0566046 0
    outer loop
      vertex -11.1336 -56.6017 1
      vertex -11.2933 -53.7849 0
      vertex -11.2933 -53.7849 1
    endloop
  endfacet
  facet normal 0.998397 0.0566046 0
    outer loop
      vertex -11.2933 -53.7849 0
      vertex -11.1336 -56.6017 1
      vertex -11.1336 -56.6017 0
    endloop
  endfacet
  facet normal 0.999851 0.0172673 0
    outer loop
      vertex -11.2933 -53.7849 1
      vertex -11.3466 -50.6986 0
      vertex -11.3466 -50.6986 1
    endloop
  endfacet
  facet normal 0.999851 0.0172673 0
    outer loop
      vertex -11.3466 -50.6986 0
      vertex -11.2933 -53.7849 1
      vertex -11.2933 -53.7849 0
    endloop
  endfacet
  facet normal 1 -0 0
    outer loop
      vertex -11.3466 -50.6986 1
      vertex -11.3466 1.99879 0
      vertex -11.3466 1.99879 1
    endloop
  endfacet
  facet normal 1 0 0
    outer loop
      vertex -11.3466 1.99879 0
      vertex -11.3466 -50.6986 1
      vertex -11.3466 -50.6986 0
    endloop
  endfacet
  facet normal 0 1 -0
    outer loop
      vertex -11.3466 1.99879 0
      vertex -30.3513 1.99879 1
      vertex -11.3466 1.99879 1
    endloop
  endfacet
  facet normal 0 1 0
    outer loop
      vertex -30.3513 1.99879 1
      vertex -11.3466 1.99879 0
      vertex -30.3513 1.99879 0
    endloop
  endfacet
  facet normal -1 0 0
    outer loop
      vertex -30.3513 -50.8915 0
      vertex -30.3513 1.99879 1
      vertex -30.3513 1.99879 0
    endloop
  endfacet
  facet normal -1 -0 0
    outer loop
      vertex -30.3513 1.99879 1
      vertex -30.3513 -50.8915 0
      vertex -30.3513 -50.8915 1
    endloop
  endfacet
  facet normal -0.99956 -0.0296542 0
    outer loop
      vertex -30.2041 -55.8532 0
      vertex -30.3513 -50.8915 1
      vertex -30.3513 -50.8915 0
    endloop
  endfacet
  facet normal -0.99956 -0.0296542 0
    outer loop
      vertex -30.3513 -50.8915 1
      vertex -30.2041 -55.8532 0
      vertex -30.2041 -55.8532 1
    endloop
  endfacet
  facet normal -0.995375 -0.0960629 0
    outer loop
      vertex -29.7623 -60.431 0
      vertex -30.2041 -55.8532 1
      vertex -30.2041 -55.8532 0
    endloop
  endfacet
  facet normal -0.995375 -0.0960629 0
    outer loop
      vertex -30.2041 -55.8532 1
      vertex -29.7623 -60.431 0
      vertex -29.7623 -60.431 1
    endloop
  endfacet
  facet normal -0.98494 -0.172897 0
    outer loop
      vertex -29.0261 -64.6249 0
      vertex -29.7623 -60.431 1
      vertex -29.7623 -60.431 0
    endloop
  endfacet
  facet normal -0.98494 -0.172897 0
    outer loop
      vertex -29.7623 -60.431 1
      vertex -29.0261 -64.6249 0
      vertex -29.0261 -64.6249 1
    endloop
  endfacet
  facet normal -0.965295 -0.261162 0
    outer loop
      vertex -27.9953 -68.4349 0
      vertex -29.0261 -64.6249 1
      vertex -29.0261 -64.6249 0
    endloop
  endfacet
  facet normal -0.965295 -0.261162 0
    outer loop
      vertex -29.0261 -64.6249 1
      vertex -27.9953 -68.4349 0
      vertex -27.9953 -68.4349 1
    endloop
  endfacet
  facet normal -0.932666 -0.360741 0
    outer loop
      vertex -26.6701 -71.8611 0
      vertex -27.9953 -68.4349 1
      vertex -27.9953 -68.4349 0
    endloop
  endfacet
  facet normal -0.932666 -0.360741 0
    outer loop
      vertex -27.9953 -68.4349 1
      vertex -26.6701 -71.8611 0
      vertex -26.6701 -71.8611 1
    endloop
  endfacet
  facet normal -0.882685 -0.469965 0
    outer loop
      vertex -25.0503 -74.9034 0
      vertex -26.6701 -71.8611 1
      vertex -26.6701 -71.8611 0
    endloop
  endfacet
  facet normal -0.882685 -0.469965 0
    outer loop
      vertex -26.6701 -71.8611 1
      vertex -25.0503 -74.9034 0
      vertex -25.0503 -74.9034 1
    endloop
  endfacet
  facet normal -0.811512 -0.584335 0
    outer loop
      vertex -23.1361 -77.5618 0
      vertex -25.0503 -74.9034 1
      vertex -25.0503 -74.9034 0
    endloop
  endfacet
  facet normal -0.811512 -0.584335 0
    outer loop
      vertex -25.0503 -74.9034 1
      vertex -23.1361 -77.5618 0
      vertex -23.1361 -77.5618 1
    endloop
  endfacet
  facet normal -0.715273 -0.698845 0
    outer loop
      vertex -20.8984 -79.8521 0
      vertex -23.1361 -77.5618 1
      vertex -23.1361 -77.5618 0
    endloop
  endfacet
  facet normal -0.715273 -0.698845 0
    outer loop
      vertex -23.1361 -77.5618 1
      vertex -20.8984 -79.8521 0
      vertex -20.8984 -79.8521 1
    endloop
  endfacet
  facet normal -0.599089 -0.800682 0
    outer loop
      vertex -20.8984 -79.8521 0
      vertex -18.3084 -81.79 1
      vertex -20.8984 -79.8521 1
    endloop
  endfacet
  facet normal -0.599089 -0.800682 -0
    outer loop
      vertex -18.3084 -81.79 1
      vertex -20.8984 -79.8521 0
      vertex -18.3084 -81.79 0
    endloop
  endfacet
  facet normal -0.474385 -0.880317 0
    outer loop
      vertex -18.3084 -81.79 0
      vertex -15.366 -83.3756 1
      vertex -18.3084 -81.79 1
    endloop
  endfacet
  facet normal -0.474385 -0.880317 -0
    outer loop
      vertex -15.366 -83.3756 1
      vertex -18.3084 -81.79 0
      vertex -15.366 -83.3756 0
    endloop
  endfacet
  facet normal -0.350572 -0.936536 0
    outer loop
      vertex -15.366 -83.3756 0
      vertex -12.0713 -84.6089 1
      vertex -15.366 -83.3756 1
    endloop
  endfacet
  facet normal -0.350572 -0.936536 -0
    outer loop
      vertex -12.0713 -84.6089 1
      vertex -15.366 -83.3756 0
      vertex -12.0713 -84.6089 0
    endloop
  endfacet
  facet normal -0.234755 -0.972054 0
    outer loop
      vertex -12.0713 -84.6089 0
      vertex -8.42416 -85.4897 1
      vertex -12.0713 -84.6089 1
    endloop
  endfacet
  facet normal -0.234755 -0.972054 -0
    outer loop
      vertex -8.42416 -85.4897 1
      vertex -12.0713 -84.6089 0
      vertex -8.42416 -85.4897 0
    endloop
  endfacet
  facet normal -0.131029 -0.991378 0
    outer loop
      vertex -8.42416 -85.4897 0
      vertex -4.42473 -86.0183 1
      vertex -8.42416 -85.4897 1
    endloop
  endfacet
  facet normal -0.131029 -0.991378 -0
    outer loop
      vertex -4.42473 -86.0183 1
      vertex -8.42416 -85.4897 0
      vertex -4.42473 -86.0183 0
    endloop
  endfacet
  facet normal -0.040433 -0.999182 0
    outer loop
      vertex -4.42473 -86.0183 0
      vertex -0.072937 -86.1944 1
      vertex -4.42473 -86.0183 1
    endloop
  endfacet
  facet normal -0.040433 -0.999182 -0
    outer loop
      vertex -0.072937 -86.1944 1
      vertex -4.42473 -86.0183 0
      vertex -0.072937 -86.1944 0
    endloop
  endfacet
  facet normal 0.04038 -0.999184 0
    outer loop
      vertex -0.072937 -86.1944 0
      vertex 4.43057 -86.0124 1
      vertex -0.072937 -86.1944 1
    endloop
  endfacet
  facet normal 0.04038 -0.999184 0
    outer loop
      vertex 4.43057 -86.0124 1
      vertex -0.072937 -86.1944 0
      vertex 4.43057 -86.0124 0
    endloop
  endfacet
endsolid OpenSCAD_Model
