solid OpenSCAD_Model
  facet normal 0 0 -1
    outer loop
      vertex 18.2777 -55.9437 0
      vertex 6.25644 -47.131 0
      vertex 18.2777 -47.131 0
    endloop
  endfacet
  facet normal 0 0 -1
    outer loop
      vertex 6.25644 -47.131 0
      vertex -5.10764 -47.131 0
      vertex 6.25644 -12.6135 0
    endloop
  endfacet
  facet normal 0 0 -1
    outer loop
      vertex 18.2777 -55.9437 0
      vertex -5.10764 -47.131 0
      vertex 6.25644 -47.131 0
    endloop
  endfacet
  facet normal 0 0 -1
    outer loop
      vertex -17.1284 -55.9437 0
      vertex -5.10764 -47.131 0
      vertex 18.2777 -55.9437 0
    endloop
  endfacet
  facet normal -0 0 -1
    outer loop
      vertex -5.10764 -47.131 0
      vertex -17.1284 -55.9437 0
      vertex -17.1284 -47.131 0
    endloop
  endfacet
  facet normal 0 0 -1
    outer loop
      vertex 6.25644 -12.6135 0
      vertex 18.2777 -3.80072 0
      vertex 18.2777 -12.6135 0
    endloop
  endfacet
  facet normal 0 0 -1
    outer loop
      vertex -5.10764 -12.6135 0
      vertex 6.25644 -12.6135 0
      vertex -5.10764 -47.131 0
    endloop
  endfacet
  facet normal 0 0 -1
    outer loop
      vertex -5.10764 -12.6135 0
      vertex 18.2777 -3.80072 0
      vertex 6.25644 -12.6135 0
    endloop
  endfacet
  facet normal 0 0 -1
    outer loop
      vertex -17.1284 -3.80072 0
      vertex -5.10764 -12.6135 0
      vertex -17.1284 -12.6135 0
    endloop
  endfacet
  facet normal 0 0 -1
    outer loop
      vertex -5.10764 -12.6135 0
      vertex -17.1284 -3.80072 0
      vertex 18.2777 -3.80072 0
    endloop
  endfacet
  facet normal 0 0 1
    outer loop
      vertex 18.2777 -3.80072 1
      vertex 6.25644 -12.6135 1
      vertex 18.2777 -12.6135 1
    endloop
  endfacet
  facet normal 0 0 1
    outer loop
      vertex 6.25644 -12.6135 1
      vertex -5.10764 -12.6135 1
      vertex 6.25644 -47.131 1
    endloop
  endfacet
  facet normal 0 0 1
    outer loop
      vertex 18.2777 -3.80072 1
      vertex -5.10764 -12.6135 1
      vertex 6.25644 -12.6135 1
    endloop
  endfacet
  facet normal -0 0 1
    outer loop
      vertex -17.1284 -3.80072 1
      vertex -5.10764 -12.6135 1
      vertex 18.2777 -3.80072 1
    endloop
  endfacet
  facet normal 0 0 1
    outer loop
      vertex -5.10764 -12.6135 1
      vertex -17.1284 -3.80072 1
      vertex -17.1284 -12.6135 1
    endloop
  endfacet
  facet normal -0 0 1
    outer loop
      vertex 6.25644 -47.131 1
      vertex 18.2777 -55.9437 1
      vertex 18.2777 -47.131 1
    endloop
  endfacet
  facet normal 0 0 1
    outer loop
      vertex -5.10764 -47.131 1
      vertex 6.25644 -47.131 1
      vertex -5.10764 -12.6135 1
    endloop
  endfacet
  facet normal -0 0 1
    outer loop
      vertex -5.10764 -47.131 1
      vertex 18.2777 -55.9437 1
      vertex 6.25644 -47.131 1
    endloop
  endfacet
  facet normal 0 0 1
    outer loop
      vertex -17.1284 -55.9437 1
      vertex -5.10764 -47.131 1
      vertex -17.1284 -47.131 1
    endloop
  endfacet
  facet normal 0 0 1
    outer loop
      vertex -5.10764 -47.131 1
      vertex -17.1284 -55.9437 1
      vertex 18.2777 -55.9437 1
    endloop
  endfacet
  facet normal 0 1 -0
    outer loop
      vertex 18.2777 -47.131 0
      vertex 6.25644 -47.131 1
      vertex 18.2777 -47.131 1
    endloop
  endfacet
  facet normal 0 1 0
    outer loop
      vertex 6.25644 -47.131 1
      vertex 18.2777 -47.131 0
      vertex 6.25644 -47.131 0
    endloop
  endfacet
  facet normal 1 -0 0
    outer loop
      vertex 6.25644 -47.131 1
      vertex 6.25644 -12.6135 0
      vertex 6.25644 -12.6135 1
    endloop
  endfacet
  facet normal 1 0 0
    outer loop
      vertex 6.25644 -12.6135 0
      vertex 6.25644 -47.131 1
      vertex 6.25644 -47.131 0
    endloop
  endfacet
  facet normal 0 -1 0
    outer loop
      vertex 6.25644 -12.6135 0
      vertex 18.2777 -12.6135 1
      vertex 6.25644 -12.6135 1
    endloop
  endfacet
  facet normal 0 -1 -0
    outer loop
      vertex 18.2777 -12.6135 1
      vertex 6.25644 -12.6135 0
      vertex 18.2777 -12.6135 0
    endloop
  endfacet
  facet normal 1 -0 0
    outer loop
      vertex 18.2777 -12.6135 1
      vertex 18.2777 -3.80072 0
      vertex 18.2777 -3.80072 1
    endloop
  endfacet
  facet normal 1 0 0
    outer loop
      vertex 18.2777 -3.80072 0
      vertex 18.2777 -12.6135 1
      vertex 18.2777 -12.6135 0
    endloop
  endfacet
  facet normal 0 1 -0
    outer loop
      vertex 18.2777 -3.80072 0
      vertex -17.1284 -3.80072 1
      vertex 18.2777 -3.80072 1
    endloop
  endfacet
  facet normal 0 1 0
    outer loop
      vertex -17.1284 -3.80072 1
      vertex 18.2777 -3.80072 0
      vertex -17.1284 -3.80072 0
    endloop
  endfacet
  facet normal -1 0 0
    outer loop
      vertex -17.1284 -12.6135 0
      vertex -17.1284 -3.80072 1
      vertex -17.1284 -3.80072 0
    endloop
  endfacet
  facet normal -1 -0 0
    outer loop
      vertex -17.1284 -3.80072 1
      vertex -17.1284 -12.6135 0
      vertex -17.1284 -12.6135 1
    endloop
  endfacet
  facet normal 0 -1 0
    outer loop
      vertex -17.1284 -12.6135 0
      vertex -5.10764 -12.6135 1
      vertex -17.1284 -12.6135 1
    endloop
  endfacet
  facet normal 0 -1 -0
    outer loop
      vertex -5.10764 -12.6135 1
      vertex -17.1284 -12.6135 0
      vertex -5.10764 -12.6135 0
    endloop
  endfacet
  facet normal -1 0 0
    outer loop
      vertex -5.10764 -47.131 0
      vertex -5.10764 -12.6135 1
      vertex -5.10764 -12.6135 0
    endloop
  endfacet
  facet normal -1 -0 0
    outer loop
      vertex -5.10764 -12.6135 1
      vertex -5.10764 -47.131 0
      vertex -5.10764 -47.131 1
    endloop
  endfacet
  facet normal 0 1 -0
    outer loop
      vertex -5.10764 -47.131 0
      vertex -17.1284 -47.131 1
      vertex -5.10764 -47.131 1
    endloop
  endfacet
  facet normal 0 1 0
    outer loop
      vertex -17.1284 -47.131 1
      vertex -5.10764 -47.131 0
      vertex -17.1284 -47.131 0
    endloop
  endfacet
  facet normal -1 0 0
    outer loop
      vertex -17.1284 -55.9437 0
      vertex -17.1284 -47.131 1
      vertex -17.1284 -47.131 0
    endloop
  endfacet
  facet normal -1 -0 0
    outer loop
      vertex -17.1284 -47.131 1
      vertex -17.1284 -55.9437 0
      vertex -17.1284 -55.9437 1
    endloop
  endfacet
  facet normal 0 -1 0
    outer loop
      vertex -17.1284 -55.9437 0
      vertex 18.2777 -55.9437 1
      vertex -17.1284 -55.9437 1
    endloop
  endfacet
  facet normal 0 -1 -0
    outer loop
      vertex 18.2777 -55.9437 1
      vertex -17.1284 -55.9437 0
      vertex 18.2777 -55.9437 0
    endloop
  endfacet
  facet normal 1 -0 0
    outer loop
      vertex 18.2777 -55.9437 1
      vertex 18.2777 -47.131 0
      vertex 18.2777 -47.131 1
    endloop
  endfacet
  facet normal 1 0 0
    outer loop
      vertex 18.2777 -47.131 0
      vertex 18.2777 -55.9437 1
      vertex 18.2777 -55.9437 0
    endloop
  endfacet
endsolid OpenSCAD_Model
