solid OpenSCAD_Model
  facet normal 0 0 -1
    outer loop
      vertex 9.38745 -43.1883 0
      vertex 24.3078 -55.9437 0
      vertex 12.9437 -55.9437 0
    endloop
  endfacet
  facet normal 0 0 -1
    outer loop
      vertex 6.99117 -34.6069 0
      vertex 24.3078 -55.9437 0
      vertex 9.38745 -43.1883 0
    endloop
  endfacet
  facet normal 0 0 -1
    outer loop
      vertex 5.77518 -30.3181 0
      vertex 24.3078 -55.9437 0
      vertex 6.99117 -34.6069 0
    endloop
  endfacet
  facet normal 0 0 -1
    outer loop
      vertex 9.38745 -43.1883 0
      vertex -5.8418 -34.6069 0
      vertex 6.99117 -34.6069 0
    endloop
  endfacet
  facet normal 0 0 -1
    outer loop
      vertex -8.23865 -43.1883 0
      vertex -5.8418 -34.6069 0
      vertex 9.38745 -43.1883 0
    endloop
  endfacet
  facet normal 0 0 -1
    outer loop
      vertex -23.1972 -55.9437 0
      vertex -5.8418 -34.6069 0
      vertex -8.23865 -43.1883 0
    endloop
  endfacet
  facet normal 0 0 -1
    outer loop
      vertex -23.1972 -55.9437 0
      vertex -8.23865 -43.1883 0
      vertex -11.7943 -55.9437 0
    endloop
  endfacet
  facet normal -0 0 -1
    outer loop
      vertex -5.8418 -34.6069 0
      vertex -23.1972 -55.9437 0
      vertex -6.07379 -3.80072 0
    endloop
  endfacet
  facet normal 0 0 -1
    outer loop
      vertex 24.3078 -55.9437 0
      vertex 5.77518 -30.3181 0
      vertex 7.2226 -3.80072 0
    endloop
  endfacet
  facet normal 0 0 -1
    outer loop
      vertex 4.7114 -26.5515 0
      vertex 7.2226 -3.80072 0
      vertex 5.77518 -30.3181 0
    endloop
  endfacet
  facet normal 0 0 -1
    outer loop
      vertex 3.79985 -23.3071 0
      vertex 7.2226 -3.80072 0
      vertex 4.7114 -26.5515 0
    endloop
  endfacet
  facet normal 0 0 -1
    outer loop
      vertex 3.04053 -20.5848 0
      vertex 7.2226 -3.80072 0
      vertex 3.79985 -23.3071 0
    endloop
  endfacet
  facet normal 0 0 -1
    outer loop
      vertex 2.43344 -18.3848 0
      vertex 7.2226 -3.80072 0
      vertex 3.04053 -20.5848 0
    endloop
  endfacet
  facet normal 0 0 -1
    outer loop
      vertex 1.97856 -16.7069 0
      vertex 7.2226 -3.80072 0
      vertex 2.43344 -18.3848 0
    endloop
  endfacet
  facet normal 0 0 -1
    outer loop
      vertex 1.67592 -15.5513 0
      vertex 7.2226 -3.80072 0
      vertex 1.97856 -16.7069 0
    endloop
  endfacet
  facet normal 0 0 -1
    outer loop
      vertex 1.45941 -14.6882 0
      vertex 7.2226 -3.80072 0
      vertex 1.67592 -15.5513 0
    endloop
  endfacet
  facet normal 0 0 -1
    outer loop
      vertex 1.26263 -13.8884 0
      vertex 7.2226 -3.80072 0
      vertex 1.45941 -14.6882 0
    endloop
  endfacet
  facet normal 0 0 -1
    outer loop
      vertex 1.08559 -13.1516 0
      vertex 7.2226 -3.80072 0
      vertex 1.26263 -13.8884 0
    endloop
  endfacet
  facet normal 0 0 -1
    outer loop
      vertex 0.928268 -12.4779 0
      vertex 7.2226 -3.80072 0
      vertex 1.08559 -13.1516 0
    endloop
  endfacet
  facet normal 0 0 -1
    outer loop
      vertex 0.79068 -11.8674 0
      vertex 7.2226 -3.80072 0
      vertex 0.928268 -12.4779 0
    endloop
  endfacet
  facet normal 0 0 -1
    outer loop
      vertex 0.672806 -11.32 0
      vertex 7.2226 -3.80072 0
      vertex 0.79068 -11.8674 0
    endloop
  endfacet
  facet normal 0 0 -1
    outer loop
      vertex 0.574677 -10.8356 0
      vertex 7.2226 -3.80072 0
      vertex 0.672806 -11.32 0
    endloop
  endfacet
  facet normal 0 0 -1
    outer loop
      vertex -6.07379 -3.80072 0
      vertex 0.475601 -11.3322 0
      vertex 0.35524 -11.8943 0
    endloop
  endfacet
  facet normal 0 0 -1
    outer loop
      vertex -6.07379 -3.80072 0
      vertex 0.35524 -11.8943 0
      vertex 0.213593 -12.5218 0
    endloop
  endfacet
  facet normal 0 0 -1
    outer loop
      vertex -6.07379 -3.80072 0
      vertex 0.213593 -12.5218 0
      vertex 0.0506439 -13.2149 0
    endloop
  endfacet
  facet normal 0 0 -1
    outer loop
      vertex -6.07379 -3.80072 0
      vertex 0.0506439 -13.2149 0
      vertex -0.13356 -13.9734 0
    endloop
  endfacet
  facet normal 0 0 -1
    outer loop
      vertex -6.07379 -3.80072 0
      vertex -0.13356 -13.9734 0
      vertex -0.339081 -14.7974 0
    endloop
  endfacet
  facet normal 0 0 -1
    outer loop
      vertex -6.07379 -3.80072 0
      vertex -0.339081 -14.7974 0
      vertex -0.565872 -15.6869 0
    endloop
  endfacet
  facet normal 0 0 -1
    outer loop
      vertex -6.07379 -3.80072 0
      vertex -0.565872 -15.6869 0
      vertex -0.877075 -16.8634 0
    endloop
  endfacet
  facet normal 0 0 -1
    outer loop
      vertex -6.07379 -3.80072 0
      vertex -0.877075 -16.8634 0
      vertex -1.33577 -18.5487 0
    endloop
  endfacet
  facet normal 0 0 -1
    outer loop
      vertex -6.07379 -3.80072 0
      vertex -1.33577 -18.5487 0
      vertex -1.94197 -20.7428 0
    endloop
  endfacet
  facet normal 0 0 -1
    outer loop
      vertex -6.07379 -3.80072 0
      vertex -1.94197 -20.7428 0
      vertex -2.69568 -23.4456 0
    endloop
  endfacet
  facet normal 0 0 -1
    outer loop
      vertex -6.07379 -3.80072 0
      vertex -2.69568 -23.4456 0
      vertex -3.59688 -26.6573 0
    endloop
  endfacet
  facet normal 0 0 -1
    outer loop
      vertex -6.07379 -3.80072 0
      vertex -3.59688 -26.6573 0
      vertex -4.64558 -30.3777 0
    endloop
  endfacet
  facet normal 0 0 -1
    outer loop
      vertex -6.07379 -3.80072 0
      vertex -4.64558 -30.3777 0
      vertex -5.8418 -34.6069 0
    endloop
  endfacet
  facet normal 0 0 -1
    outer loop
      vertex 0.574677 -10.8356 0
      vertex -6.07379 -3.80072 0
      vertex 7.2226 -3.80072 0
    endloop
  endfacet
  facet normal 0 0 -1
    outer loop
      vertex 0.475601 -11.3322 0
      vertex -6.07379 -3.80072 0
      vertex 0.574677 -10.8356 0
    endloop
  endfacet
  facet normal 0 0 1
    outer loop
      vertex 24.3078 -55.9437 1
      vertex 5.77518 -30.3181 1
      vertex 6.99117 -34.6069 1
    endloop
  endfacet
  facet normal 0 0 1
    outer loop
      vertex 7.2226 -3.80072 1
      vertex 4.7114 -26.5515 1
      vertex 5.77518 -30.3181 1
    endloop
  endfacet
  facet normal 0 0 1
    outer loop
      vertex 7.2226 -3.80072 1
      vertex 3.79985 -23.3071 1
      vertex 4.7114 -26.5515 1
    endloop
  endfacet
  facet normal 0 0 1
    outer loop
      vertex 7.2226 -3.80072 1
      vertex 3.04053 -20.5848 1
      vertex 3.79985 -23.3071 1
    endloop
  endfacet
  facet normal 0 0 1
    outer loop
      vertex 7.2226 -3.80072 1
      vertex 2.43344 -18.3848 1
      vertex 3.04053 -20.5848 1
    endloop
  endfacet
  facet normal 0 0 1
    outer loop
      vertex 7.2226 -3.80072 1
      vertex 1.97856 -16.7069 1
      vertex 2.43344 -18.3848 1
    endloop
  endfacet
  facet normal 0 0 1
    outer loop
      vertex 7.2226 -3.80072 1
      vertex 1.67592 -15.5513 1
      vertex 1.97856 -16.7069 1
    endloop
  endfacet
  facet normal 0 0 1
    outer loop
      vertex 7.2226 -3.80072 1
      vertex 1.45941 -14.6882 1
      vertex 1.67592 -15.5513 1
    endloop
  endfacet
  facet normal 0 0 1
    outer loop
      vertex 7.2226 -3.80072 1
      vertex 1.26263 -13.8884 1
      vertex 1.45941 -14.6882 1
    endloop
  endfacet
  facet normal 0 0 1
    outer loop
      vertex 7.2226 -3.80072 1
      vertex 1.08559 -13.1516 1
      vertex 1.26263 -13.8884 1
    endloop
  endfacet
  facet normal 0 0 1
    outer loop
      vertex 7.2226 -3.80072 1
      vertex 0.928268 -12.4779 1
      vertex 1.08559 -13.1516 1
    endloop
  endfacet
  facet normal 0 0 1
    outer loop
      vertex 7.2226 -3.80072 1
      vertex 0.79068 -11.8674 1
      vertex 0.928268 -12.4779 1
    endloop
  endfacet
  facet normal 0 0 1
    outer loop
      vertex 7.2226 -3.80072 1
      vertex 0.672806 -11.32 1
      vertex 0.79068 -11.8674 1
    endloop
  endfacet
  facet normal 0 0 1
    outer loop
      vertex 7.2226 -3.80072 1
      vertex 0.574677 -10.8356 1
      vertex 0.672806 -11.32 1
    endloop
  endfacet
  facet normal 0 0 1
    outer loop
      vertex -6.07379 -3.80072 1
      vertex 0.475601 -11.3322 1
      vertex 0.574677 -10.8356 1
    endloop
  endfacet
  facet normal 0 0 1
    outer loop
      vertex 0.475601 -11.3322 1
      vertex -6.07379 -3.80072 1
      vertex 0.35524 -11.8943 1
    endloop
  endfacet
  facet normal 0 0 1
    outer loop
      vertex 0.35524 -11.8943 1
      vertex -6.07379 -3.80072 1
      vertex 0.213593 -12.5218 1
    endloop
  endfacet
  facet normal 0 0 1
    outer loop
      vertex 0.213593 -12.5218 1
      vertex -6.07379 -3.80072 1
      vertex 0.0506439 -13.2149 1
    endloop
  endfacet
  facet normal 0 0 1
    outer loop
      vertex 0.0506439 -13.2149 1
      vertex -6.07379 -3.80072 1
      vertex -0.13356 -13.9734 1
    endloop
  endfacet
  facet normal 0 0 1
    outer loop
      vertex -0.13356 -13.9734 1
      vertex -6.07379 -3.80072 1
      vertex -0.339081 -14.7974 1
    endloop
  endfacet
  facet normal 0 0 1
    outer loop
      vertex -0.339081 -14.7974 1
      vertex -6.07379 -3.80072 1
      vertex -0.565872 -15.6869 1
    endloop
  endfacet
  facet normal 0 0 1
    outer loop
      vertex -0.565872 -15.6869 1
      vertex -6.07379 -3.80072 1
      vertex -0.877075 -16.8634 1
    endloop
  endfacet
  facet normal 0 0 1
    outer loop
      vertex -0.877075 -16.8634 1
      vertex -6.07379 -3.80072 1
      vertex -1.33577 -18.5487 1
    endloop
  endfacet
  facet normal 0 0 1
    outer loop
      vertex -1.33577 -18.5487 1
      vertex -6.07379 -3.80072 1
      vertex -1.94197 -20.7428 1
    endloop
  endfacet
  facet normal 0 0 1
    outer loop
      vertex -1.94197 -20.7428 1
      vertex -6.07379 -3.80072 1
      vertex -2.69568 -23.4456 1
    endloop
  endfacet
  facet normal 0 0 1
    outer loop
      vertex -2.69568 -23.4456 1
      vertex -6.07379 -3.80072 1
      vertex -3.59688 -26.6573 1
    endloop
  endfacet
  facet normal 0 0 1
    outer loop
      vertex -3.59688 -26.6573 1
      vertex -6.07379 -3.80072 1
      vertex -4.64558 -30.3777 1
    endloop
  endfacet
  facet normal 0 0 1
    outer loop
      vertex -23.1972 -55.9437 1
      vertex -4.64558 -30.3777 1
      vertex -6.07379 -3.80072 1
    endloop
  endfacet
  facet normal -0 0 1
    outer loop
      vertex -6.07379 -3.80072 1
      vertex 0.574677 -10.8356 1
      vertex 7.2226 -3.80072 1
    endloop
  endfacet
  facet normal 0 0 1
    outer loop
      vertex 24.3078 -55.9437 1
      vertex 9.38745 -43.1883 1
      vertex 12.9437 -55.9437 1
    endloop
  endfacet
  facet normal -0 0 1
    outer loop
      vertex 5.77518 -30.3181 1
      vertex 24.3078 -55.9437 1
      vertex 7.2226 -3.80072 1
    endloop
  endfacet
  facet normal 0 0 1
    outer loop
      vertex 24.3078 -55.9437 1
      vertex 6.99117 -34.6069 1
      vertex 9.38745 -43.1883 1
    endloop
  endfacet
  facet normal -0 0 1
    outer loop
      vertex -5.8418 -34.6069 1
      vertex 9.38745 -43.1883 1
      vertex 6.99117 -34.6069 1
    endloop
  endfacet
  facet normal 0 0 1
    outer loop
      vertex -5.8418 -34.6069 1
      vertex -8.23865 -43.1883 1
      vertex 9.38745 -43.1883 1
    endloop
  endfacet
  facet normal 0 0 1
    outer loop
      vertex -4.64558 -30.3777 1
      vertex -23.1972 -55.9437 1
      vertex -5.8418 -34.6069 1
    endloop
  endfacet
  facet normal 0 0 1
    outer loop
      vertex -5.8418 -34.6069 1
      vertex -23.1972 -55.9437 1
      vertex -8.23865 -43.1883 1
    endloop
  endfacet
  facet normal 0 0 1
    outer loop
      vertex -8.23865 -43.1883 1
      vertex -23.1972 -55.9437 1
      vertex -11.7943 -55.9437 1
    endloop
  endfacet
  facet normal 0 -1 0
    outer loop
      vertex -8.23865 -43.1883 0
      vertex 9.38745 -43.1883 1
      vertex -8.23865 -43.1883 1
    endloop
  endfacet
  facet normal 0 -1 -0
    outer loop
      vertex 9.38745 -43.1883 1
      vertex -8.23865 -43.1883 0
      vertex 9.38745 -43.1883 0
    endloop
  endfacet
  facet normal -0.963263 -0.268561 0
    outer loop
      vertex 12.9437 -55.9437 0
      vertex 9.38745 -43.1883 1
      vertex 9.38745 -43.1883 0
    endloop
  endfacet
  facet normal -0.963263 -0.268561 0
    outer loop
      vertex 9.38745 -43.1883 1
      vertex 12.9437 -55.9437 0
      vertex 12.9437 -55.9437 1
    endloop
  endfacet
  facet normal 0 -1 0
    outer loop
      vertex 12.9437 -55.9437 0
      vertex 24.3078 -55.9437 1
      vertex 12.9437 -55.9437 1
    endloop
  endfacet
  facet normal 0 -1 -0
    outer loop
      vertex 24.3078 -55.9437 1
      vertex 12.9437 -55.9437 0
      vertex 24.3078 -55.9437 0
    endloop
  endfacet
  facet normal 0.950288 0.311372 0
    outer loop
      vertex 24.3078 -55.9437 1
      vertex 7.2226 -3.80072 0
      vertex 7.2226 -3.80072 1
    endloop
  endfacet
  facet normal 0.950288 0.311372 0
    outer loop
      vertex 7.2226 -3.80072 0
      vertex 24.3078 -55.9437 1
      vertex 24.3078 -55.9437 0
    endloop
  endfacet
  facet normal 0 1 -0
    outer loop
      vertex 7.2226 -3.80072 0
      vertex -6.07379 -3.80072 1
      vertex 7.2226 -3.80072 1
    endloop
  endfacet
  facet normal 0 1 0
    outer loop
      vertex -6.07379 -3.80072 1
      vertex 7.2226 -3.80072 0
      vertex -6.07379 -3.80072 0
    endloop
  endfacet
  facet normal -0.950082 0.312001 0
    outer loop
      vertex -23.1972 -55.9437 0
      vertex -6.07379 -3.80072 1
      vertex -6.07379 -3.80072 0
    endloop
  endfacet
  facet normal -0.950082 0.312001 0
    outer loop
      vertex -6.07379 -3.80072 1
      vertex -23.1972 -55.9437 0
      vertex -23.1972 -55.9437 1
    endloop
  endfacet
  facet normal 0 -1 0
    outer loop
      vertex -23.1972 -55.9437 0
      vertex -11.7943 -55.9437 1
      vertex -23.1972 -55.9437 1
    endloop
  endfacet
  facet normal 0 -1 -0
    outer loop
      vertex -11.7943 -55.9437 1
      vertex -23.1972 -55.9437 0
      vertex -11.7943 -55.9437 0
    endloop
  endfacet
  facet normal 0.963274 -0.268519 0
    outer loop
      vertex -11.7943 -55.9437 1
      vertex -8.23865 -43.1883 0
      vertex -8.23865 -43.1883 1
    endloop
  endfacet
  facet normal 0.963274 -0.268519 0
    outer loop
      vertex -8.23865 -43.1883 0
      vertex -11.7943 -55.9437 1
      vertex -11.7943 -55.9437 0
    endloop
  endfacet
  facet normal 0.962249 -0.27217 0
    outer loop
      vertex -5.8418 -34.6069 1
      vertex -4.64558 -30.3777 0
      vertex -4.64558 -30.3777 1
    endloop
  endfacet
  facet normal 0.962249 -0.27217 0
    outer loop
      vertex -4.64558 -30.3777 0
      vertex -5.8418 -34.6069 1
      vertex -5.8418 -34.6069 0
    endloop
  endfacet
  facet normal 0.962493 -0.271306 0
    outer loop
      vertex -4.64558 -30.3777 1
      vertex -3.59688 -26.6573 0
      vertex -3.59688 -26.6573 1
    endloop
  endfacet
  facet normal 0.962493 -0.271306 0
    outer loop
      vertex -3.59688 -26.6573 0
      vertex -4.64558 -30.3777 1
      vertex -4.64558 -30.3777 0
    endloop
  endfacet
  facet normal 0.962814 -0.270165 0
    outer loop
      vertex -3.59688 -26.6573 1
      vertex -2.69568 -23.4456 0
      vertex -2.69568 -23.4456 1
    endloop
  endfacet
  facet normal 0.962814 -0.270165 0
    outer loop
      vertex -2.69568 -23.4456 0
      vertex -3.59688 -26.6573 1
      vertex -3.59688 -26.6573 0
    endloop
  endfacet
  facet normal 0.963248 -0.268614 0
    outer loop
      vertex -2.69568 -23.4456 1
      vertex -1.94197 -20.7428 0
      vertex -1.94197 -20.7428 1
    endloop
  endfacet
  facet normal 0.963248 -0.268614 0
    outer loop
      vertex -1.94197 -20.7428 0
      vertex -2.69568 -23.4456 1
      vertex -2.69568 -23.4456 0
    endloop
  endfacet
  facet normal 0.963888 -0.266309 0
    outer loop
      vertex -1.94197 -20.7428 1
      vertex -1.33577 -18.5487 0
      vertex -1.33577 -18.5487 1
    endloop
  endfacet
  facet normal 0.963888 -0.266309 0
    outer loop
      vertex -1.33577 -18.5487 0
      vertex -1.94197 -20.7428 1
      vertex -1.94197 -20.7428 0
    endloop
  endfacet
  facet normal 0.964899 -0.262621 0
    outer loop
      vertex -1.33577 -18.5487 1
      vertex -0.877075 -16.8634 0
      vertex -0.877075 -16.8634 1
    endloop
  endfacet
  facet normal 0.964899 -0.262621 0
    outer loop
      vertex -0.877075 -16.8634 0
      vertex -1.33577 -18.5487 1
      vertex -1.33577 -18.5487 0
    endloop
  endfacet
  facet normal 0.966751 -0.255721 0
    outer loop
      vertex -0.877075 -16.8634 1
      vertex -0.565872 -15.6869 0
      vertex -0.565872 -15.6869 1
    endloop
  endfacet
  facet normal 0.966751 -0.255721 0
    outer loop
      vertex -0.565872 -15.6869 0
      vertex -0.877075 -16.8634 1
      vertex -0.877075 -16.8634 0
    endloop
  endfacet
  facet normal 0.969 -0.247061 0
    outer loop
      vertex -0.565872 -15.6869 1
      vertex -0.339081 -14.7974 0
      vertex -0.339081 -14.7974 1
    endloop
  endfacet
  facet normal 0.969 -0.247061 0
    outer loop
      vertex -0.339081 -14.7974 0
      vertex -0.565872 -15.6869 1
      vertex -0.565872 -15.6869 0
    endloop
  endfacet
  facet normal 0.970275 -0.242005 0
    outer loop
      vertex -0.339081 -14.7974 1
      vertex -0.13356 -13.9734 0
      vertex -0.13356 -13.9734 1
    endloop
  endfacet
  facet normal 0.970275 -0.242005 0
    outer loop
      vertex -0.13356 -13.9734 0
      vertex -0.339081 -14.7974 1
      vertex -0.339081 -14.7974 0
    endloop
  endfacet
  facet normal 0.971755 -0.235993 0
    outer loop
      vertex -0.13356 -13.9734 1
      vertex 0.0506439 -13.2149 0
      vertex 0.0506439 -13.2149 1
    endloop
  endfacet
  facet normal 0.971755 -0.235993 0
    outer loop
      vertex 0.0506439 -13.2149 0
      vertex -0.13356 -13.9734 1
      vertex -0.13356 -13.9734 0
    endloop
  endfacet
  facet normal 0.973459 -0.228862 0
    outer loop
      vertex 0.0506439 -13.2149 1
      vertex 0.213593 -12.5218 0
      vertex 0.213593 -12.5218 1
    endloop
  endfacet
  facet normal 0.973459 -0.228862 0
    outer loop
      vertex 0.213593 -12.5218 0
      vertex 0.0506439 -13.2149 1
      vertex 0.0506439 -13.2149 0
    endloop
  endfacet
  facet normal 0.975457 -0.220192 0
    outer loop
      vertex 0.213593 -12.5218 1
      vertex 0.35524 -11.8943 0
      vertex 0.35524 -11.8943 1
    endloop
  endfacet
  facet normal 0.975457 -0.220192 0
    outer loop
      vertex 0.35524 -11.8943 0
      vertex 0.213593 -12.5218 1
      vertex 0.213593 -12.5218 0
    endloop
  endfacet
  facet normal 0.977834 -0.209381 0
    outer loop
      vertex 0.35524 -11.8943 1
      vertex 0.475601 -11.3322 0
      vertex 0.475601 -11.3322 1
    endloop
  endfacet
  facet normal 0.977834 -0.209381 0
    outer loop
      vertex 0.475601 -11.3322 0
      vertex 0.35524 -11.8943 1
      vertex 0.35524 -11.8943 0
    endloop
  endfacet
  facet normal 0.980673 -0.195653 0
    outer loop
      vertex 0.475601 -11.3322 1
      vertex 0.574677 -10.8356 0
      vertex 0.574677 -10.8356 1
    endloop
  endfacet
  facet normal 0.980673 -0.195653 0
    outer loop
      vertex 0.574677 -10.8356 0
      vertex 0.475601 -11.3322 1
      vertex 0.475601 -11.3322 0
    endloop
  endfacet
  facet normal -0.980092 -0.198545 0
    outer loop
      vertex 0.672806 -11.32 0
      vertex 0.574677 -10.8356 1
      vertex 0.574677 -10.8356 0
    endloop
  endfacet
  facet normal -0.980092 -0.198545 0
    outer loop
      vertex 0.574677 -10.8356 1
      vertex 0.672806 -11.32 0
      vertex 0.672806 -11.32 1
    endloop
  endfacet
  facet normal -0.977592 -0.210509 0
    outer loop
      vertex 0.79068 -11.8674 0
      vertex 0.672806 -11.32 1
      vertex 0.672806 -11.32 0
    endloop
  endfacet
  facet normal -0.977592 -0.210509 0
    outer loop
      vertex 0.672806 -11.32 1
      vertex 0.79068 -11.8674 0
      vertex 0.79068 -11.8674 1
    endloop
  endfacet
  facet normal -0.975533 -0.219855 0
    outer loop
      vertex 0.928268 -12.4779 0
      vertex 0.79068 -11.8674 1
      vertex 0.79068 -11.8674 0
    endloop
  endfacet
  facet normal -0.975533 -0.219855 0
    outer loop
      vertex 0.79068 -11.8674 1
      vertex 0.928268 -12.4779 0
      vertex 0.928268 -12.4779 1
    endloop
  endfacet
  facet normal -0.973801 -0.227401 0
    outer loop
      vertex 1.08559 -13.1516 0
      vertex 0.928268 -12.4779 1
      vertex 0.928268 -12.4779 0
    endloop
  endfacet
  facet normal -0.973801 -0.227401 0
    outer loop
      vertex 0.928268 -12.4779 1
      vertex 1.08559 -13.1516 0
      vertex 1.08559 -13.1516 1
    endloop
  endfacet
  facet normal -0.972325 -0.233632 0
    outer loop
      vertex 1.26263 -13.8884 0
      vertex 1.08559 -13.1516 1
      vertex 1.08559 -13.1516 0
    endloop
  endfacet
  facet normal -0.972325 -0.233632 0
    outer loop
      vertex 1.08559 -13.1516 1
      vertex 1.26263 -13.8884 0
      vertex 1.26263 -13.8884 1
    endloop
  endfacet
  facet normal -0.971041 -0.238912 0
    outer loop
      vertex 1.45941 -14.6882 0
      vertex 1.26263 -13.8884 1
      vertex 1.26263 -13.8884 0
    endloop
  endfacet
  facet normal -0.971041 -0.238912 0
    outer loop
      vertex 1.26263 -13.8884 1
      vertex 1.45941 -14.6882 0
      vertex 1.45941 -14.6882 1
    endloop
  endfacet
  facet normal -0.969948 -0.243313 0
    outer loop
      vertex 1.67592 -15.5513 0
      vertex 1.45941 -14.6882 1
      vertex 1.45941 -14.6882 0
    endloop
  endfacet
  facet normal -0.969948 -0.243313 0
    outer loop
      vertex 1.45941 -14.6882 1
      vertex 1.67592 -15.5513 0
      vertex 1.67592 -15.5513 1
    endloop
  endfacet
  facet normal -0.967376 -0.253346 0
    outer loop
      vertex 1.97856 -16.7069 0
      vertex 1.67592 -15.5513 1
      vertex 1.67592 -15.5513 0
    endloop
  endfacet
  facet normal -0.967376 -0.253346 0
    outer loop
      vertex 1.67592 -15.5513 1
      vertex 1.97856 -16.7069 0
      vertex 1.97856 -16.7069 1
    endloop
  endfacet
  facet normal -0.965161 -0.261656 0
    outer loop
      vertex 2.43344 -18.3848 0
      vertex 1.97856 -16.7069 1
      vertex 1.97856 -16.7069 0
    endloop
  endfacet
  facet normal -0.965161 -0.261656 0
    outer loop
      vertex 1.97856 -16.7069 1
      vertex 2.43344 -18.3848 0
      vertex 2.43344 -18.3848 1
    endloop
  endfacet
  facet normal -0.963971 -0.266008 0
    outer loop
      vertex 3.04053 -20.5848 0
      vertex 2.43344 -18.3848 1
      vertex 2.43344 -18.3848 0
    endloop
  endfacet
  facet normal -0.963971 -0.266008 0
    outer loop
      vertex 2.43344 -18.3848 1
      vertex 3.04053 -20.5848 0
      vertex 3.04053 -20.5848 1
    endloop
  endfacet
  facet normal -0.963232 -0.26867 0
    outer loop
      vertex 3.79985 -23.3071 0
      vertex 3.04053 -20.5848 1
      vertex 3.04053 -20.5848 0
    endloop
  endfacet
  facet normal -0.963232 -0.26867 0
    outer loop
      vertex 3.04053 -20.5848 1
      vertex 3.79985 -23.3071 0
      vertex 3.79985 -23.3071 1
    endloop
  endfacet
  facet normal -0.962723 -0.270488 0
    outer loop
      vertex 4.7114 -26.5515 0
      vertex 3.79985 -23.3071 1
      vertex 3.79985 -23.3071 0
    endloop
  endfacet
  facet normal -0.962723 -0.270488 0
    outer loop
      vertex 3.79985 -23.3071 1
      vertex 4.7114 -26.5515 0
      vertex 4.7114 -26.5515 1
    endloop
  endfacet
  facet normal -0.962356 -0.271793 0
    outer loop
      vertex 5.77518 -30.3181 0
      vertex 4.7114 -26.5515 1
      vertex 4.7114 -26.5515 0
    endloop
  endfacet
  facet normal -0.962356 -0.271793 0
    outer loop
      vertex 4.7114 -26.5515 1
      vertex 5.77518 -30.3181 0
      vertex 5.77518 -30.3181 1
    endloop
  endfacet
  facet normal -0.962078 -0.272775 0
    outer loop
      vertex 6.99117 -34.6069 0
      vertex 5.77518 -30.3181 1
      vertex 5.77518 -30.3181 0
    endloop
  endfacet
  facet normal -0.962078 -0.272775 0
    outer loop
      vertex 5.77518 -30.3181 1
      vertex 6.99117 -34.6069 0
      vertex 6.99117 -34.6069 1
    endloop
  endfacet
  facet normal 0 1 -0
    outer loop
      vertex 6.99117 -34.6069 0
      vertex -5.8418 -34.6069 1
      vertex 6.99117 -34.6069 1
    endloop
  endfacet
  facet normal 0 1 0
    outer loop
      vertex -5.8418 -34.6069 1
      vertex 6.99117 -34.6069 0
      vertex -5.8418 -34.6069 0
    endloop
  endfacet
endsolid OpenSCAD_Model
