solid OpenSCAD_Model
  facet normal 0 0 -1
    outer loop
      vertex -5.95436 -21.9812 0
      vertex -2.15341 -14.5857 0
      vertex -2.15341 -21.9812 0
    endloop
  endfacet
  facet normal 0 0 -1
    outer loop
      vertex -5.95436 -4.60025 0
      vertex -2.15341 -14.5857 0
      vertex -5.95436 -21.9812 0
    endloop
  endfacet
  facet normal 0 0 -1
    outer loop
      vertex -2.15341 -14.5857 0
      vertex -5.95436 -4.60025 0
      vertex -2.15341 -11.4418 0
    endloop
  endfacet
  facet normal 0 0 -1
    outer loop
      vertex -2.15341 -11.4418 0
      vertex -5.95436 -4.60025 0
      vertex -2.15341 -4.60025 0
    endloop
  endfacet
  facet normal 0 0 -1
    outer loop
      vertex -2.15341 -14.5857 0
      vertex 2.52362 -11.4418 0
      vertex 2.52362 -14.5857 0
    endloop
  endfacet
  facet normal -0 0 -1
    outer loop
      vertex 2.52362 -11.4418 0
      vertex -2.15341 -14.5857 0
      vertex -2.15341 -11.4418 0
    endloop
  endfacet
  facet normal 0 0 -1
    outer loop
      vertex 2.52362 -14.5857 0
      vertex 6.32437 -21.9812 0
      vertex 2.52362 -21.9812 0
    endloop
  endfacet
  facet normal 0 0 -1
    outer loop
      vertex 6.32437 -21.9812 0
      vertex 2.52362 -14.5857 0
      vertex 6.32437 -4.60025 0
    endloop
  endfacet
  facet normal 0 0 -1
    outer loop
      vertex 2.52362 -11.4418 0
      vertex 6.32437 -4.60025 0
      vertex 2.52362 -14.5857 0
    endloop
  endfacet
  facet normal -0 0 -1
    outer loop
      vertex 6.32437 -4.60025 0
      vertex 2.52362 -11.4418 0
      vertex 2.52362 -4.60025 0
    endloop
  endfacet
  facet normal -0 0 1
    outer loop
      vertex -5.95436 -4.60025 1
      vertex -2.15341 -11.4418 1
      vertex -2.15341 -4.60025 1
    endloop
  endfacet
  facet normal 0 0 1
    outer loop
      vertex -2.15341 -11.4418 1
      vertex -5.95436 -4.60025 1
      vertex -2.15341 -14.5857 1
    endloop
  endfacet
  facet normal 0 0 1
    outer loop
      vertex -5.95436 -21.9812 1
      vertex -2.15341 -14.5857 1
      vertex -5.95436 -4.60025 1
    endloop
  endfacet
  facet normal 0 0 1
    outer loop
      vertex -2.15341 -14.5857 1
      vertex -5.95436 -21.9812 1
      vertex -2.15341 -21.9812 1
    endloop
  endfacet
  facet normal -0 0 1
    outer loop
      vertex -2.15341 -11.4418 1
      vertex 2.52362 -14.5857 1
      vertex 2.52362 -11.4418 1
    endloop
  endfacet
  facet normal 0 0 1
    outer loop
      vertex 2.52362 -14.5857 1
      vertex -2.15341 -11.4418 1
      vertex -2.15341 -14.5857 1
    endloop
  endfacet
  facet normal 0 0 1
    outer loop
      vertex 2.52362 -11.4418 1
      vertex 6.32437 -4.60025 1
      vertex 2.52362 -4.60025 1
    endloop
  endfacet
  facet normal 0 0 1
    outer loop
      vertex 2.52362 -14.5857 1
      vertex 6.32437 -4.60025 1
      vertex 2.52362 -11.4418 1
    endloop
  endfacet
  facet normal 0 0 1
    outer loop
      vertex 6.32437 -4.60025 1
      vertex 2.52362 -14.5857 1
      vertex 6.32437 -21.9812 1
    endloop
  endfacet
  facet normal 0 0 1
    outer loop
      vertex 6.32437 -21.9812 1
      vertex 2.52362 -14.5857 1
      vertex 2.52362 -21.9812 1
    endloop
  endfacet
  facet normal 0 -1 0
    outer loop
      vertex -2.15341 -14.5857 0
      vertex 2.52362 -14.5857 1
      vertex -2.15341 -14.5857 1
    endloop
  endfacet
  facet normal 0 -1 -0
    outer loop
      vertex 2.52362 -14.5857 1
      vertex -2.15341 -14.5857 0
      vertex 2.52362 -14.5857 0
    endloop
  endfacet
  facet normal -1 0 0
    outer loop
      vertex 2.52362 -21.9812 0
      vertex 2.52362 -14.5857 1
      vertex 2.52362 -14.5857 0
    endloop
  endfacet
  facet normal -1 -0 0
    outer loop
      vertex 2.52362 -14.5857 1
      vertex 2.52362 -21.9812 0
      vertex 2.52362 -21.9812 1
    endloop
  endfacet
  facet normal 0 -1 0
    outer loop
      vertex 2.52362 -21.9812 0
      vertex 6.32437 -21.9812 1
      vertex 2.52362 -21.9812 1
    endloop
  endfacet
  facet normal 0 -1 -0
    outer loop
      vertex 6.32437 -21.9812 1
      vertex 2.52362 -21.9812 0
      vertex 6.32437 -21.9812 0
    endloop
  endfacet
  facet normal 1 -0 0
    outer loop
      vertex 6.32437 -21.9812 1
      vertex 6.32437 -4.60025 0
      vertex 6.32437 -4.60025 1
    endloop
  endfacet
  facet normal 1 0 0
    outer loop
      vertex 6.32437 -4.60025 0
      vertex 6.32437 -21.9812 1
      vertex 6.32437 -21.9812 0
    endloop
  endfacet
  facet normal 0 1 -0
    outer loop
      vertex 6.32437 -4.60025 0
      vertex 2.52362 -4.60025 1
      vertex 6.32437 -4.60025 1
    endloop
  endfacet
  facet normal 0 1 0
    outer loop
      vertex 2.52362 -4.60025 1
      vertex 6.32437 -4.60025 0
      vertex 2.52362 -4.60025 0
    endloop
  endfacet
  facet normal -1 0 0
    outer loop
      vertex 2.52362 -11.4418 0
      vertex 2.52362 -4.60025 1
      vertex 2.52362 -4.60025 0
    endloop
  endfacet
  facet normal -1 -0 0
    outer loop
      vertex 2.52362 -4.60025 1
      vertex 2.52362 -11.4418 0
      vertex 2.52362 -11.4418 1
    endloop
  endfacet
  facet normal 0 1 -0
    outer loop
      vertex 2.52362 -11.4418 0
      vertex -2.15341 -11.4418 1
      vertex 2.52362 -11.4418 1
    endloop
  endfacet
  facet normal 0 1 0
    outer loop
      vertex -2.15341 -11.4418 1
      vertex 2.52362 -11.4418 0
      vertex -2.15341 -11.4418 0
    endloop
  endfacet
  facet normal 1 -0 0
    outer loop
      vertex -2.15341 -11.4418 1
      vertex -2.15341 -4.60025 0
      vertex -2.15341 -4.60025 1
    endloop
  endfacet
  facet normal 1 0 0
    outer loop
      vertex -2.15341 -4.60025 0
      vertex -2.15341 -11.4418 1
      vertex -2.15341 -11.4418 0
    endloop
  endfacet
  facet normal 0 1 -0
    outer loop
      vertex -2.15341 -4.60025 0
      vertex -5.95436 -4.60025 1
      vertex -2.15341 -4.60025 1
    endloop
  endfacet
  facet normal 0 1 0
    outer loop
      vertex -5.95436 -4.60025 1
      vertex -2.15341 -4.60025 0
      vertex -5.95436 -4.60025 0
    endloop
  endfacet
  facet normal -1 0 0
    outer loop
      vertex -5.95436 -21.9812 0
      vertex -5.95436 -4.60025 1
      vertex -5.95436 -4.60025 0
    endloop
  endfacet
  facet normal -1 -0 0
    outer loop
      vertex -5.95436 -4.60025 1
      vertex -5.95436 -21.9812 0
      vertex -5.95436 -21.9812 1
    endloop
  endfacet
  facet normal 0 -1 0
    outer loop
      vertex -5.95436 -21.9812 0
      vertex -2.15341 -21.9812 1
      vertex -5.95436 -21.9812 1
    endloop
  endfacet
  facet normal 0 -1 -0
    outer loop
      vertex -2.15341 -21.9812 1
      vertex -5.95436 -21.9812 0
      vertex -2.15341 -21.9812 0
    endloop
  endfacet
  facet normal 1 -0 0
    outer loop
      vertex -2.15341 -21.9812 1
      vertex -2.15341 -14.5857 0
      vertex -2.15341 -14.5857 1
    endloop
  endfacet
  facet normal 1 0 0
    outer loop
      vertex -2.15341 -14.5857 0
      vertex -2.15341 -21.9812 1
      vertex -2.15341 -21.9812 0
    endloop
  endfacet
endsolid OpenSCAD_Model
