solid OpenSCAD_Model
  facet normal 0 0 -1
    outer loop
      vertex 20.9448 -55.9437 0
      vertex 8.45949 -47.8651 0
      vertex 20.9448 -47.8651 0
    endloop
  endfacet
  facet normal 0 0 -1
    outer loop
      vertex -2.40184 -13.4252 0
      vertex 8.45949 -3.80072 0
      vertex 8.45949 -47.8651 0
    endloop
  endfacet
  facet normal 0 0 -1
    outer loop
      vertex -2.40184 -13.4252 0
      vertex 8.45949 -47.8651 0
      vertex -2.40184 -47.8651 0
    endloop
  endfacet
  facet normal 0 0 -1
    outer loop
      vertex 20.9448 -55.9437 0
      vertex -2.40184 -47.8651 0
      vertex 8.45949 -47.8651 0
    endloop
  endfacet
  facet normal 0 0 -1
    outer loop
      vertex -17.4379 -55.9437 0
      vertex -2.40184 -47.8651 0
      vertex 20.9448 -55.9437 0
    endloop
  endfacet
  facet normal -0 0 -1
    outer loop
      vertex -2.40184 -47.8651 0
      vertex -17.4379 -55.9437 0
      vertex -17.4379 -47.8651 0
    endloop
  endfacet
  facet normal 0 0 -1
    outer loop
      vertex -2.48314 -4.94614 0
      vertex 8.45949 -3.80072 0
      vertex -2.40184 -13.4252 0
    endloop
  endfacet
  facet normal -0 0 -1
    outer loop
      vertex 8.45949 -3.80072 0
      vertex -2.48314 -4.94614 0
      vertex -1.82216 -3.80072 0
    endloop
  endfacet
  facet normal 0 0 -1
    outer loop
      vertex -7.06635 -9.5847 0
      vertex -2.40184 -13.4252 0
      vertex -2.89374 -14.3103 0
    endloop
  endfacet
  facet normal 0 0 -1
    outer loop
      vertex -2.40184 -13.4252 0
      vertex -3.22934 -6.01897 0
      vertex -2.48314 -4.94614 0
    endloop
  endfacet
  facet normal 0 0 -1
    outer loop
      vertex -7.06635 -9.5847 0
      vertex -2.89374 -14.3103 0
      vertex -3.50787 -15.1544 0
    endloop
  endfacet
  facet normal 0 0 -1
    outer loop
      vertex -2.40184 -13.4252 0
      vertex -4.06076 -7.01924 0
      vertex -3.22934 -6.01897 0
    endloop
  endfacet
  facet normal 0 0 -1
    outer loop
      vertex -8.23865 -10.2947 0
      vertex -3.50787 -15.1544 0
      vertex -4.24428 -15.9575 0
    endloop
  endfacet
  facet normal 0 0 -1
    outer loop
      vertex -2.40184 -13.4252 0
      vertex -4.9774 -7.94696 0
      vertex -4.06076 -7.01924 0
    endloop
  endfacet
  facet normal 0 0 -1
    outer loop
      vertex -8.23865 -10.2947 0
      vertex -4.24428 -15.9575 0
      vertex -5.10295 -16.7196 0
    endloop
  endfacet
  facet normal 0 0 -1
    outer loop
      vertex -2.40184 -13.4252 0
      vertex -5.97926 -8.80211 0
      vertex -4.9774 -7.94696 0
    endloop
  endfacet
  facet normal 0 0 -1
    outer loop
      vertex -9.47627 -10.9202 0
      vertex -5.10295 -16.7196 0
      vertex -6.08388 -17.4407 0
    endloop
  endfacet
  facet normal 0 0 -1
    outer loop
      vertex -2.40184 -13.4252 0
      vertex -7.06635 -9.5847 0
      vertex -5.97926 -8.80211 0
    endloop
  endfacet
  facet normal 0 0 -1
    outer loop
      vertex -9.47627 -10.9202 0
      vertex -6.08388 -17.4407 0
      vertex -7.18706 -18.1208 0
    endloop
  endfacet
  facet normal 0 0 -1
    outer loop
      vertex -3.50787 -15.1544 0
      vertex -8.23865 -10.2947 0
      vertex -7.06635 -9.5847 0
    endloop
  endfacet
  facet normal 0 0 -1
    outer loop
      vertex -10.7597 -11.4494 0
      vertex -7.18706 -18.1208 0
      vertex -8.41249 -18.7598 0
    endloop
  endfacet
  facet normal 0 0 -1
    outer loop
      vertex -5.10295 -16.7196 0
      vertex -9.47627 -10.9202 0
      vertex -8.23865 -10.2947 0
    endloop
  endfacet
  facet normal 0 0 -1
    outer loop
      vertex -12.0888 -11.8824 0
      vertex -8.41249 -18.7598 0
      vertex -9.70815 -19.334 0
    endloop
  endfacet
  facet normal 0 0 -1
    outer loop
      vertex -7.18706 -18.1208 0
      vertex -10.7597 -11.4494 0
      vertex -9.47627 -10.9202 0
    endloop
  endfacet
  facet normal 0 0 -1
    outer loop
      vertex -12.0888 -11.8824 0
      vertex -9.70815 -19.334 0
      vertex -11.0219 -19.8199 0
    endloop
  endfacet
  facet normal 0 0 -1
    outer loop
      vertex -8.41249 -18.7598 0
      vertex -12.0888 -11.8824 0
      vertex -10.7597 -11.4494 0
    endloop
  endfacet
  facet normal 0 0 -1
    outer loop
      vertex -13.4638 -12.2192 0
      vertex -11.0219 -19.8199 0
      vertex -12.3539 -20.2174 0
    endloop
  endfacet
  facet normal 0 0 -1
    outer loop
      vertex -11.0219 -19.8199 0
      vertex -13.4638 -12.2192 0
      vertex -12.0888 -11.8824 0
    endloop
  endfacet
  facet normal 0 0 -1
    outer loop
      vertex -14.8844 -12.4598 0
      vertex -12.3539 -20.2174 0
      vertex -13.704 -20.5266 0
    endloop
  endfacet
  facet normal 0 0 -1
    outer loop
      vertex -12.3539 -20.2174 0
      vertex -14.8844 -12.4598 0
      vertex -13.4638 -12.2192 0
    endloop
  endfacet
  facet normal 0 0 -1
    outer loop
      vertex -15.0722 -20.7474 0
      vertex -14.8844 -12.4598 0
      vertex -13.704 -20.5266 0
    endloop
  endfacet
  facet normal 0 0 -1
    outer loop
      vertex -15.0722 -20.7474 0
      vertex -16.3509 -12.6041 0
      vertex -14.8844 -12.4598 0
    endloop
  endfacet
  facet normal 0 0 -1
    outer loop
      vertex -16.4586 -20.8799 0
      vertex -16.3509 -12.6041 0
      vertex -15.0722 -20.7474 0
    endloop
  endfacet
  facet normal 0 0 -1
    outer loop
      vertex -17.8631 -12.6522 0
      vertex -16.4586 -20.8799 0
      vertex -17.8631 -20.9241 0
    endloop
  endfacet
  facet normal 0 0 -1
    outer loop
      vertex -16.4586 -20.8799 0
      vertex -17.8631 -12.6522 0
      vertex -16.3509 -12.6041 0
    endloop
  endfacet
  facet normal 0 0 1
    outer loop
      vertex -2.48314 -4.94614 1
      vertex 8.45949 -3.80072 1
      vertex -1.82216 -3.80072 1
    endloop
  endfacet
  facet normal -0 0 1
    outer loop
      vertex 8.45949 -47.8651 1
      vertex 20.9448 -55.9437 1
      vertex 20.9448 -47.8651 1
    endloop
  endfacet
  facet normal 0 0 1
    outer loop
      vertex 8.45949 -3.80072 1
      vertex -2.40184 -13.4252 1
      vertex 8.45949 -47.8651 1
    endloop
  endfacet
  facet normal 0 0 1
    outer loop
      vertex -2.40184 -47.8651 1
      vertex 8.45949 -47.8651 1
      vertex -2.40184 -13.4252 1
    endloop
  endfacet
  facet normal -0 0 1
    outer loop
      vertex -2.40184 -47.8651 1
      vertex 20.9448 -55.9437 1
      vertex 8.45949 -47.8651 1
    endloop
  endfacet
  facet normal 0 0 1
    outer loop
      vertex -17.4379 -55.9437 1
      vertex -2.40184 -47.8651 1
      vertex -17.4379 -47.8651 1
    endloop
  endfacet
  facet normal 0 0 1
    outer loop
      vertex -2.40184 -47.8651 1
      vertex -17.4379 -55.9437 1
      vertex 20.9448 -55.9437 1
    endloop
  endfacet
  facet normal 0 0 1
    outer loop
      vertex 8.45949 -3.80072 1
      vertex -2.48314 -4.94614 1
      vertex -2.40184 -13.4252 1
    endloop
  endfacet
  facet normal -0 0 1
    outer loop
      vertex -3.22934 -6.01897 1
      vertex -2.40184 -13.4252 1
      vertex -2.48314 -4.94614 1
    endloop
  endfacet
  facet normal -0 0 1
    outer loop
      vertex -4.06076 -7.01924 1
      vertex -2.40184 -13.4252 1
      vertex -3.22934 -6.01897 1
    endloop
  endfacet
  facet normal -0 0 1
    outer loop
      vertex -4.9774 -7.94696 1
      vertex -2.40184 -13.4252 1
      vertex -4.06076 -7.01924 1
    endloop
  endfacet
  facet normal -0 0 1
    outer loop
      vertex -5.97926 -8.80211 1
      vertex -2.40184 -13.4252 1
      vertex -4.9774 -7.94696 1
    endloop
  endfacet
  facet normal -0 0 1
    outer loop
      vertex -7.06635 -9.5847 1
      vertex -2.40184 -13.4252 1
      vertex -5.97926 -8.80211 1
    endloop
  endfacet
  facet normal 0 0 1
    outer loop
      vertex -2.40184 -13.4252 1
      vertex -7.06635 -9.5847 1
      vertex -2.89374 -14.3103 1
    endloop
  endfacet
  facet normal 0 0 1
    outer loop
      vertex -2.89374 -14.3103 1
      vertex -7.06635 -9.5847 1
      vertex -3.50787 -15.1544 1
    endloop
  endfacet
  facet normal -0 0 1
    outer loop
      vertex -8.23865 -10.2947 1
      vertex -3.50787 -15.1544 1
      vertex -7.06635 -9.5847 1
    endloop
  endfacet
  facet normal 0 0 1
    outer loop
      vertex -3.50787 -15.1544 1
      vertex -8.23865 -10.2947 1
      vertex -4.24428 -15.9575 1
    endloop
  endfacet
  facet normal 0 0 1
    outer loop
      vertex -4.24428 -15.9575 1
      vertex -8.23865 -10.2947 1
      vertex -5.10295 -16.7196 1
    endloop
  endfacet
  facet normal -0 0 1
    outer loop
      vertex -9.47627 -10.9202 1
      vertex -5.10295 -16.7196 1
      vertex -8.23865 -10.2947 1
    endloop
  endfacet
  facet normal 0 0 1
    outer loop
      vertex -5.10295 -16.7196 1
      vertex -9.47627 -10.9202 1
      vertex -6.08388 -17.4407 1
    endloop
  endfacet
  facet normal 0 0 1
    outer loop
      vertex -6.08388 -17.4407 1
      vertex -9.47627 -10.9202 1
      vertex -7.18706 -18.1208 1
    endloop
  endfacet
  facet normal -0 0 1
    outer loop
      vertex -10.7597 -11.4494 1
      vertex -7.18706 -18.1208 1
      vertex -9.47627 -10.9202 1
    endloop
  endfacet
  facet normal 0 0 1
    outer loop
      vertex -7.18706 -18.1208 1
      vertex -10.7597 -11.4494 1
      vertex -8.41249 -18.7598 1
    endloop
  endfacet
  facet normal -0 0 1
    outer loop
      vertex -12.0888 -11.8824 1
      vertex -8.41249 -18.7598 1
      vertex -10.7597 -11.4494 1
    endloop
  endfacet
  facet normal 0 0 1
    outer loop
      vertex -8.41249 -18.7598 1
      vertex -12.0888 -11.8824 1
      vertex -9.70815 -19.334 1
    endloop
  endfacet
  facet normal 0 0 1
    outer loop
      vertex -9.70815 -19.334 1
      vertex -12.0888 -11.8824 1
      vertex -11.0219 -19.8199 1
    endloop
  endfacet
  facet normal -0 0 1
    outer loop
      vertex -13.4638 -12.2192 1
      vertex -11.0219 -19.8199 1
      vertex -12.0888 -11.8824 1
    endloop
  endfacet
  facet normal 0 0 1
    outer loop
      vertex -11.0219 -19.8199 1
      vertex -13.4638 -12.2192 1
      vertex -12.3539 -20.2174 1
    endloop
  endfacet
  facet normal -0 0 1
    outer loop
      vertex -14.8844 -12.4598 1
      vertex -12.3539 -20.2174 1
      vertex -13.4638 -12.2192 1
    endloop
  endfacet
  facet normal 0 0 1
    outer loop
      vertex -12.3539 -20.2174 1
      vertex -14.8844 -12.4598 1
      vertex -13.704 -20.5266 1
    endloop
  endfacet
  facet normal 0 0 1
    outer loop
      vertex -14.8844 -12.4598 1
      vertex -15.0722 -20.7474 1
      vertex -13.704 -20.5266 1
    endloop
  endfacet
  facet normal -0 0 1
    outer loop
      vertex -16.3509 -12.6041 1
      vertex -15.0722 -20.7474 1
      vertex -14.8844 -12.4598 1
    endloop
  endfacet
  facet normal 0 0 1
    outer loop
      vertex -16.3509 -12.6041 1
      vertex -16.4586 -20.8799 1
      vertex -15.0722 -20.7474 1
    endloop
  endfacet
  facet normal -0 0 1
    outer loop
      vertex -17.8631 -12.6522 1
      vertex -16.4586 -20.8799 1
      vertex -16.3509 -12.6041 1
    endloop
  endfacet
  facet normal 0 0 1
    outer loop
      vertex -16.4586 -20.8799 1
      vertex -17.8631 -12.6522 1
      vertex -17.8631 -20.9241 1
    endloop
  endfacet
  facet normal 0 1 -0
    outer loop
      vertex 20.9448 -47.8651 0
      vertex 8.45949 -47.8651 1
      vertex 20.9448 -47.8651 1
    endloop
  endfacet
  facet normal 0 1 0
    outer loop
      vertex 8.45949 -47.8651 1
      vertex 20.9448 -47.8651 0
      vertex 8.45949 -47.8651 0
    endloop
  endfacet
  facet normal 1 -0 0
    outer loop
      vertex 8.45949 -47.8651 1
      vertex 8.45949 -3.80072 0
      vertex 8.45949 -3.80072 1
    endloop
  endfacet
  facet normal 1 0 0
    outer loop
      vertex 8.45949 -3.80072 0
      vertex 8.45949 -47.8651 1
      vertex 8.45949 -47.8651 0
    endloop
  endfacet
  facet normal 0 1 -0
    outer loop
      vertex 8.45949 -3.80072 0
      vertex -1.82216 -3.80072 1
      vertex 8.45949 -3.80072 1
    endloop
  endfacet
  facet normal 0 1 0
    outer loop
      vertex -1.82216 -3.80072 1
      vertex 8.45949 -3.80072 0
      vertex -1.82216 -3.80072 0
    endloop
  endfacet
  facet normal -0.866133 0.499814 0
    outer loop
      vertex -2.48314 -4.94614 0
      vertex -1.82216 -3.80072 1
      vertex -1.82216 -3.80072 0
    endloop
  endfacet
  facet normal -0.866133 0.499814 0
    outer loop
      vertex -1.82216 -3.80072 1
      vertex -2.48314 -4.94614 0
      vertex -2.48314 -4.94614 1
    endloop
  endfacet
  facet normal -0.820947 0.571004 0
    outer loop
      vertex -3.22934 -6.01897 0
      vertex -2.48314 -4.94614 1
      vertex -2.48314 -4.94614 0
    endloop
  endfacet
  facet normal -0.820947 0.571004 0
    outer loop
      vertex -2.48314 -4.94614 1
      vertex -3.22934 -6.01897 0
      vertex -3.22934 -6.01897 1
    endloop
  endfacet
  facet normal -0.769029 0.639214 0
    outer loop
      vertex -4.06076 -7.01924 0
      vertex -3.22934 -6.01897 1
      vertex -3.22934 -6.01897 0
    endloop
  endfacet
  facet normal -0.769029 0.639214 0
    outer loop
      vertex -3.22934 -6.01897 1
      vertex -4.06076 -7.01924 0
      vertex -4.06076 -7.01924 1
    endloop
  endfacet
  facet normal -0.711342 0.702846 0
    outer loop
      vertex -4.9774 -7.94696 0
      vertex -4.06076 -7.01924 1
      vertex -4.06076 -7.01924 0
    endloop
  endfacet
  facet normal -0.711342 0.702846 0
    outer loop
      vertex -4.06076 -7.01924 1
      vertex -4.9774 -7.94696 0
      vertex -4.9774 -7.94696 1
    endloop
  endfacet
  facet normal -0.64922 0.760601 0
    outer loop
      vertex -4.9774 -7.94696 0
      vertex -5.97926 -8.80211 1
      vertex -4.9774 -7.94696 1
    endloop
  endfacet
  facet normal -0.64922 0.760601 0
    outer loop
      vertex -5.97926 -8.80211 1
      vertex -4.9774 -7.94696 0
      vertex -5.97926 -8.80211 0
    endloop
  endfacet
  facet normal -0.584248 0.811575 0
    outer loop
      vertex -5.97926 -8.80211 0
      vertex -7.06635 -9.5847 1
      vertex -5.97926 -8.80211 1
    endloop
  endfacet
  facet normal -0.584248 0.811575 0
    outer loop
      vertex -7.06635 -9.5847 1
      vertex -5.97926 -8.80211 0
      vertex -7.06635 -9.5847 0
    endloop
  endfacet
  facet normal -0.518043 0.855355 0
    outer loop
      vertex -7.06635 -9.5847 0
      vertex -8.23865 -10.2947 1
      vertex -7.06635 -9.5847 1
    endloop
  endfacet
  facet normal -0.518043 0.855355 0
    outer loop
      vertex -8.23865 -10.2947 1
      vertex -7.06635 -9.5847 0
      vertex -8.23865 -10.2947 0
    endloop
  endfacet
  facet normal -0.451069 0.892489 0
    outer loop
      vertex -8.23865 -10.2947 0
      vertex -9.47627 -10.9202 1
      vertex -8.23865 -10.2947 1
    endloop
  endfacet
  facet normal -0.451069 0.892489 0
    outer loop
      vertex -9.47627 -10.9202 1
      vertex -8.23865 -10.2947 0
      vertex -9.47627 -10.9202 0
    endloop
  endfacet
  facet normal -0.381199 0.924493 0
    outer loop
      vertex -9.47627 -10.9202 0
      vertex -10.7597 -11.4494 1
      vertex -9.47627 -10.9202 1
    endloop
  endfacet
  facet normal -0.381199 0.924493 0
    outer loop
      vertex -10.7597 -11.4494 1
      vertex -9.47627 -10.9202 0
      vertex -10.7597 -11.4494 0
    endloop
  endfacet
  facet normal -0.309761 0.950815 0
    outer loop
      vertex -10.7597 -11.4494 0
      vertex -12.0888 -11.8824 1
      vertex -10.7597 -11.4494 1
    endloop
  endfacet
  facet normal -0.309761 0.950815 0
    outer loop
      vertex -12.0888 -11.8824 1
      vertex -10.7597 -11.4494 0
      vertex -12.0888 -11.8824 0
    endloop
  endfacet
  facet normal -0.237912 0.971287 0
    outer loop
      vertex -12.0888 -11.8824 0
      vertex -13.4638 -12.2192 1
      vertex -12.0888 -11.8824 1
    endloop
  endfacet
  facet normal -0.237912 0.971287 0
    outer loop
      vertex -13.4638 -12.2192 1
      vertex -12.0888 -11.8824 0
      vertex -13.4638 -12.2192 0
    endloop
  endfacet
  facet normal -0.166987 0.985959 0
    outer loop
      vertex -13.4638 -12.2192 0
      vertex -14.8844 -12.4598 1
      vertex -13.4638 -12.2192 1
    endloop
  endfacet
  facet normal -0.166987 0.985959 0
    outer loop
      vertex -14.8844 -12.4598 1
      vertex -13.4638 -12.2192 0
      vertex -14.8844 -12.4598 0
    endloop
  endfacet
  facet normal -0.0979246 0.995194 0
    outer loop
      vertex -14.8844 -12.4598 0
      vertex -16.3509 -12.6041 1
      vertex -14.8844 -12.4598 1
    endloop
  endfacet
  facet normal -0.0979246 0.995194 0
    outer loop
      vertex -16.3509 -12.6041 1
      vertex -14.8844 -12.4598 0
      vertex -16.3509 -12.6041 0
    endloop
  endfacet
  facet normal -0.0317919 0.999495 0
    outer loop
      vertex -16.3509 -12.6041 0
      vertex -17.8631 -12.6522 1
      vertex -16.3509 -12.6041 1
    endloop
  endfacet
  facet normal -0.0317919 0.999495 0
    outer loop
      vertex -17.8631 -12.6522 1
      vertex -16.3509 -12.6041 0
      vertex -17.8631 -12.6522 0
    endloop
  endfacet
  facet normal -1 0 0
    outer loop
      vertex -17.8631 -20.9241 0
      vertex -17.8631 -12.6522 1
      vertex -17.8631 -12.6522 0
    endloop
  endfacet
  facet normal -1 -0 0
    outer loop
      vertex -17.8631 -12.6522 1
      vertex -17.8631 -20.9241 0
      vertex -17.8631 -20.9241 1
    endloop
  endfacet
  facet normal 0.0314547 -0.999505 0
    outer loop
      vertex -17.8631 -20.9241 0
      vertex -16.4586 -20.8799 1
      vertex -17.8631 -20.9241 1
    endloop
  endfacet
  facet normal 0.0314547 -0.999505 0
    outer loop
      vertex -16.4586 -20.8799 1
      vertex -17.8631 -20.9241 0
      vertex -16.4586 -20.8799 0
    endloop
  endfacet
  facet normal 0.0951378 -0.995464 0
    outer loop
      vertex -16.4586 -20.8799 0
      vertex -15.0722 -20.7474 1
      vertex -16.4586 -20.8799 1
    endloop
  endfacet
  facet normal 0.0951378 -0.995464 0
    outer loop
      vertex -15.0722 -20.7474 1
      vertex -16.4586 -20.8799 0
      vertex -15.0722 -20.7474 0
    endloop
  endfacet
  facet normal 0.159319 -0.987227 0
    outer loop
      vertex -15.0722 -20.7474 0
      vertex -13.704 -20.5266 1
      vertex -15.0722 -20.7474 1
    endloop
  endfacet
  facet normal 0.159319 -0.987227 0
    outer loop
      vertex -13.704 -20.5266 1
      vertex -15.0722 -20.7474 0
      vertex -13.704 -20.5266 0
    endloop
  endfacet
  facet normal 0.22324 -0.974763 0
    outer loop
      vertex -13.704 -20.5266 0
      vertex -12.3539 -20.2174 1
      vertex -13.704 -20.5266 1
    endloop
  endfacet
  facet normal 0.22324 -0.974763 0
    outer loop
      vertex -12.3539 -20.2174 1
      vertex -13.704 -20.5266 0
      vertex -12.3539 -20.2174 0
    endloop
  endfacet
  facet normal 0.285962 -0.958241 0
    outer loop
      vertex -12.3539 -20.2174 0
      vertex -11.0219 -19.8199 1
      vertex -12.3539 -20.2174 1
    endloop
  endfacet
  facet normal 0.285962 -0.958241 0
    outer loop
      vertex -11.0219 -19.8199 1
      vertex -12.3539 -20.2174 0
      vertex -11.0219 -19.8199 0
    endloop
  endfacet
  facet normal 0.346891 -0.937905 0
    outer loop
      vertex -11.0219 -19.8199 0
      vertex -9.70815 -19.334 1
      vertex -11.0219 -19.8199 1
    endloop
  endfacet
  facet normal 0.346891 -0.937905 0
    outer loop
      vertex -9.70815 -19.334 1
      vertex -11.0219 -19.8199 0
      vertex -9.70815 -19.334 0
    endloop
  endfacet
  facet normal 0.405167 -0.914243 0
    outer loop
      vertex -9.70815 -19.334 0
      vertex -8.41249 -18.7598 1
      vertex -9.70815 -19.334 1
    endloop
  endfacet
  facet normal 0.405167 -0.914243 0
    outer loop
      vertex -8.41249 -18.7598 1
      vertex -9.70815 -19.334 0
      vertex -8.41249 -18.7598 0
    endloop
  endfacet
  facet normal 0.462364 -0.88669 0
    outer loop
      vertex -8.41249 -18.7598 0
      vertex -7.18706 -18.1208 1
      vertex -8.41249 -18.7598 1
    endloop
  endfacet
  facet normal 0.462364 -0.88669 0
    outer loop
      vertex -7.18706 -18.1208 1
      vertex -8.41249 -18.7598 0
      vertex -7.18706 -18.1208 0
    endloop
  endfacet
  facet normal 0.52478 -0.851238 0
    outer loop
      vertex -7.18706 -18.1208 0
      vertex -6.08388 -17.4407 1
      vertex -7.18706 -18.1208 1
    endloop
  endfacet
  facet normal 0.52478 -0.851238 0
    outer loop
      vertex -6.08388 -17.4407 1
      vertex -7.18706 -18.1208 0
      vertex -6.08388 -17.4407 0
    endloop
  endfacet
  facet normal 0.592299 -0.805718 0
    outer loop
      vertex -6.08388 -17.4407 0
      vertex -5.10295 -16.7196 1
      vertex -6.08388 -17.4407 1
    endloop
  endfacet
  facet normal 0.592299 -0.805718 0
    outer loop
      vertex -5.10295 -16.7196 1
      vertex -6.08388 -17.4407 0
      vertex -5.10295 -16.7196 0
    endloop
  endfacet
  facet normal 0.663798 -0.747912 0
    outer loop
      vertex -5.10295 -16.7196 0
      vertex -4.24428 -15.9575 1
      vertex -5.10295 -16.7196 1
    endloop
  endfacet
  facet normal 0.663798 -0.747912 0
    outer loop
      vertex -4.24428 -15.9575 1
      vertex -5.10295 -16.7196 0
      vertex -4.24428 -15.9575 0
    endloop
  endfacet
  facet normal 0.737047 -0.675842 0
    outer loop
      vertex -4.24428 -15.9575 1
      vertex -3.50787 -15.1544 0
      vertex -3.50787 -15.1544 1
    endloop
  endfacet
  facet normal 0.737047 -0.675842 0
    outer loop
      vertex -3.50787 -15.1544 0
      vertex -4.24428 -15.9575 1
      vertex -4.24428 -15.9575 0
    endloop
  endfacet
  facet normal 0.808627 -0.588321 0
    outer loop
      vertex -3.50787 -15.1544 1
      vertex -2.89374 -14.3103 0
      vertex -2.89374 -14.3103 1
    endloop
  endfacet
  facet normal 0.808627 -0.588321 0
    outer loop
      vertex -2.89374 -14.3103 0
      vertex -3.50787 -15.1544 1
      vertex -3.50787 -15.1544 0
    endloop
  endfacet
  facet normal 0.874083 -0.485777 0
    outer loop
      vertex -2.89374 -14.3103 1
      vertex -2.40184 -13.4252 0
      vertex -2.40184 -13.4252 1
    endloop
  endfacet
  facet normal 0.874083 -0.485777 0
    outer loop
      vertex -2.40184 -13.4252 0
      vertex -2.89374 -14.3103 1
      vertex -2.89374 -14.3103 0
    endloop
  endfacet
  facet normal -1 0 0
    outer loop
      vertex -2.40184 -47.8651 0
      vertex -2.40184 -13.4252 1
      vertex -2.40184 -13.4252 0
    endloop
  endfacet
  facet normal -1 -0 0
    outer loop
      vertex -2.40184 -13.4252 1
      vertex -2.40184 -47.8651 0
      vertex -2.40184 -47.8651 1
    endloop
  endfacet
  facet normal 0 1 -0
    outer loop
      vertex -2.40184 -47.8651 0
      vertex -17.4379 -47.8651 1
      vertex -2.40184 -47.8651 1
    endloop
  endfacet
  facet normal 0 1 0
    outer loop
      vertex -17.4379 -47.8651 1
      vertex -2.40184 -47.8651 0
      vertex -17.4379 -47.8651 0
    endloop
  endfacet
  facet normal -1 0 0
    outer loop
      vertex -17.4379 -55.9437 0
      vertex -17.4379 -47.8651 1
      vertex -17.4379 -47.8651 0
    endloop
  endfacet
  facet normal -1 -0 0
    outer loop
      vertex -17.4379 -47.8651 1
      vertex -17.4379 -55.9437 0
      vertex -17.4379 -55.9437 1
    endloop
  endfacet
  facet normal 0 -1 0
    outer loop
      vertex -17.4379 -55.9437 0
      vertex 20.9448 -55.9437 1
      vertex -17.4379 -55.9437 1
    endloop
  endfacet
  facet normal 0 -1 -0
    outer loop
      vertex 20.9448 -55.9437 1
      vertex -17.4379 -55.9437 0
      vertex 20.9448 -55.9437 0
    endloop
  endfacet
  facet normal 1 -0 0
    outer loop
      vertex 20.9448 -55.9437 1
      vertex 20.9448 -47.8651 0
      vertex 20.9448 -47.8651 1
    endloop
  endfacet
  facet normal 1 0 0
    outer loop
      vertex 20.9448 -47.8651 0
      vertex 20.9448 -55.9437 1
      vertex 20.9448 -55.9437 0
    endloop
  endfacet
endsolid OpenSCAD_Model
