solid OpenSCAD_Model
  facet normal 0 0 -1
    outer loop
      vertex -5.14639 -34.4525 0
      vertex 6.21768 -34.4525 0
      vertex 6.21768 -55.9437 0
    endloop
  endfacet
  facet normal 0 0 -1
    outer loop
      vertex -5.14639 -34.4525 0
      vertex 6.21768 -55.9437 0
      vertex -5.14639 -55.9437 0
    endloop
  endfacet
  facet normal 0 0 -1
    outer loop
      vertex 6.21768 -34.4525 0
      vertex -5.14639 -34.4525 0
      vertex 0.458405 -25.6785 0
    endloop
  endfacet
  facet normal 0 0 -1
    outer loop
      vertex -5.14639 -34.4525 0
      vertex -11.1371 -3.80072 0
      vertex 0.458405 -25.6785 0
    endloop
  endfacet
  facet normal -0 -0 -1
    outer loop
      vertex -11.1371 -3.80072 0
      vertex -5.14639 -34.4525 0
      vertex -23.0815 -3.80072 0
    endloop
  endfacet
  facet normal 0 0 -1
    outer loop
      vertex 6.21768 -34.4525 0
      vertex 12.209 -3.80072 0
      vertex 24.1527 -3.80072 0
    endloop
  endfacet
  facet normal 0 0 -1
    outer loop
      vertex 12.209 -3.80072 0
      vertex 6.21768 -34.4525 0
      vertex 0.458405 -25.6785 0
    endloop
  endfacet
  facet normal 0 0 1
    outer loop
      vertex -11.1371 -3.80072 1
      vertex -5.14639 -34.4525 1
      vertex 0.458405 -25.6785 1
    endloop
  endfacet
  facet normal 0 0 1
    outer loop
      vertex -5.14639 -34.4525 1
      vertex -11.1371 -3.80072 1
      vertex -23.0815 -3.80072 1
    endloop
  endfacet
  facet normal -0 0 1
    outer loop
      vertex 12.209 -3.80072 1
      vertex 6.21768 -34.4525 1
      vertex 24.1527 -3.80072 1
    endloop
  endfacet
  facet normal -0 0 1
    outer loop
      vertex 0.458405 -25.6785 1
      vertex 6.21768 -34.4525 1
      vertex 12.209 -3.80072 1
    endloop
  endfacet
  facet normal 0 0 1
    outer loop
      vertex -5.14639 -34.4525 1
      vertex 6.21768 -34.4525 1
      vertex 0.458405 -25.6785 1
    endloop
  endfacet
  facet normal 0 0 1
    outer loop
      vertex 6.21768 -34.4525 1
      vertex -5.14639 -34.4525 1
      vertex 6.21768 -55.9437 1
    endloop
  endfacet
  facet normal 0 0 1
    outer loop
      vertex 6.21768 -55.9437 1
      vertex -5.14639 -34.4525 1
      vertex -5.14639 -55.9437 1
    endloop
  endfacet
  facet normal 0.863106 -0.505022 0
    outer loop
      vertex 6.21768 -34.4525 1
      vertex 24.1527 -3.80072 0
      vertex 24.1527 -3.80072 1
    endloop
  endfacet
  facet normal 0.863106 -0.505022 0
    outer loop
      vertex 24.1527 -3.80072 0
      vertex 6.21768 -34.4525 1
      vertex 6.21768 -34.4525 0
    endloop
  endfacet
  facet normal 0 1 -0
    outer loop
      vertex 24.1527 -3.80072 0
      vertex 12.209 -3.80072 1
      vertex 24.1527 -3.80072 1
    endloop
  endfacet
  facet normal 0 1 0
    outer loop
      vertex 12.209 -3.80072 1
      vertex 24.1527 -3.80072 0
      vertex 12.209 -3.80072 0
    endloop
  endfacet
  facet normal -0.880971 0.473171 0
    outer loop
      vertex 0.458405 -25.6785 0
      vertex 12.209 -3.80072 1
      vertex 12.209 -3.80072 0
    endloop
  endfacet
  facet normal -0.880971 0.473171 0
    outer loop
      vertex 12.209 -3.80072 1
      vertex 0.458405 -25.6785 0
      vertex 0.458405 -25.6785 1
    endloop
  endfacet
  facet normal 0.883568 0.468303 0
    outer loop
      vertex 0.458405 -25.6785 1
      vertex -11.1371 -3.80072 0
      vertex -11.1371 -3.80072 1
    endloop
  endfacet
  facet normal 0.883568 0.468303 0
    outer loop
      vertex -11.1371 -3.80072 0
      vertex 0.458405 -25.6785 1
      vertex 0.458405 -25.6785 0
    endloop
  endfacet
  facet normal 0 1 -0
    outer loop
      vertex -11.1371 -3.80072 0
      vertex -23.0815 -3.80072 1
      vertex -11.1371 -3.80072 1
    endloop
  endfacet
  facet normal 0 1 0
    outer loop
      vertex -23.0815 -3.80072 1
      vertex -11.1371 -3.80072 0
      vertex -23.0815 -3.80072 0
    endloop
  endfacet
  facet normal -0.863105 -0.505024 0
    outer loop
      vertex -5.14639 -34.4525 0
      vertex -23.0815 -3.80072 1
      vertex -23.0815 -3.80072 0
    endloop
  endfacet
  facet normal -0.863105 -0.505024 0
    outer loop
      vertex -23.0815 -3.80072 1
      vertex -5.14639 -34.4525 0
      vertex -5.14639 -34.4525 1
    endloop
  endfacet
  facet normal -1 0 0
    outer loop
      vertex -5.14639 -55.9437 0
      vertex -5.14639 -34.4525 1
      vertex -5.14639 -34.4525 0
    endloop
  endfacet
  facet normal -1 -0 0
    outer loop
      vertex -5.14639 -34.4525 1
      vertex -5.14639 -55.9437 0
      vertex -5.14639 -55.9437 1
    endloop
  endfacet
  facet normal 0 -1 0
    outer loop
      vertex -5.14639 -55.9437 0
      vertex 6.21768 -55.9437 1
      vertex -5.14639 -55.9437 1
    endloop
  endfacet
  facet normal 0 -1 -0
    outer loop
      vertex 6.21768 -55.9437 1
      vertex -5.14639 -55.9437 0
      vertex 6.21768 -55.9437 0
    endloop
  endfacet
  facet normal 1 -0 0
    outer loop
      vertex 6.21768 -55.9437 1
      vertex 6.21768 -34.4525 0
      vertex 6.21768 -34.4525 1
    endloop
  endfacet
  facet normal 1 0 0
    outer loop
      vertex 6.21768 -34.4525 0
      vertex 6.21768 -55.9437 1
      vertex 6.21768 -55.9437 0
    endloop
  endfacet
endsolid OpenSCAD_Model
