solid OpenSCAD_Model
  facet normal 0 0 -1
    outer loop
      vertex -5.98001 -21.9812 0
      vertex -2.17924 -15.8482 0
      vertex -2.17924 -21.9812 0
    endloop
  endfacet
  facet normal -0 0 -1
    outer loop
      vertex -2.17924 -15.8482 0
      vertex -5.98001 -21.9812 0
      vertex -2.17924 -12.9236 0
    endloop
  endfacet
  facet normal 0 0 -1
    outer loop
      vertex -5.98001 -4.60025 0
      vertex -2.17924 -12.9236 0
      vertex -5.98001 -21.9812 0
    endloop
  endfacet
  facet normal 0 0 -1
    outer loop
      vertex 3.15498 -10.1534 0
      vertex 6.98158 -10.089 0
      vertex 6.96555 -10.5737 0
    endloop
  endfacet
  facet normal 0 0 -1
    outer loop
      vertex 3.13895 -10.53 0
      vertex 6.96555 -10.5737 0
      vertex 6.91742 -11.0414 0
    endloop
  endfacet
  facet normal 0 0 -1
    outer loop
      vertex 3.13776 -9.76857 0
      vertex 6.98158 -10.089 0
      vertex 3.15498 -10.1534 0
    endloop
  endfacet
  facet normal 0 0 -1
    outer loop
      vertex 3.13895 -10.53 0
      vertex 6.91742 -11.0414 0
      vertex 6.83722 -11.4919 0
    endloop
  endfacet
  facet normal 0 0 -1
    outer loop
      vertex 3.09082 -10.8796 0
      vertex 6.83722 -11.4919 0
      vertex 6.72491 -11.9254 0
    endloop
  endfacet
  facet normal 0 0 -1
    outer loop
      vertex 6.98158 -10.089 0
      vertex 3.13776 -9.76857 0
      vertex 6.94621 -9.34599 0
    endloop
  endfacet
  facet normal 0 0 -1
    outer loop
      vertex 3.0106 -11.2021 0
      vertex 6.72491 -11.9254 0
      vertex 6.58055 -12.3418 0
    endloop
  endfacet
  facet normal 0 0 -1
    outer loop
      vertex 3.08609 -9.41664 0
      vertex 6.94621 -9.34599 0
      vertex 3.13776 -9.76857 0
    endloop
  endfacet
  facet normal 0 0 -1
    outer loop
      vertex 3.0106 -11.2021 0
      vertex 6.58055 -12.3418 0
      vertex 6.4041 -12.7411 0
    endloop
  endfacet
  facet normal 0 0 -1
    outer loop
      vertex 2.89832 -11.4975 0
      vertex 6.4041 -12.7411 0
      vertex 6.19556 -13.1232 0
    endloop
  endfacet
  facet normal -0 0 -1
    outer loop
      vertex 6.94621 -9.34599 0
      vertex 3.08609 -9.41664 0
      vertex 6.84012 -8.65588 0
    endloop
  endfacet
  facet normal 0 0 -1
    outer loop
      vertex 2.89832 -11.4975 0
      vertex 6.19556 -13.1232 0
      vertex 5.9567 -13.4847 0
    endloop
  endfacet
  facet normal -0 0 -1
    outer loop
      vertex 6.84012 -8.65588 0
      vertex 3.08609 -9.41664 0
      vertex 6.66328 -8.01865 0
    endloop
  endfacet
  facet normal 0 0 -1
    outer loop
      vertex 2.75395 -11.7659 0
      vertex 5.9567 -13.4847 0
      vertex 5.68916 -13.8216 0
    endloop
  endfacet
  facet normal 0 0 -1
    outer loop
      vertex 2.75395 -11.7659 0
      vertex 5.68916 -13.8216 0
      vertex 5.39296 -14.1342 0
    endloop
  endfacet
  facet normal 0 0 -1
    outer loop
      vertex 2.99997 -9.09758 0
      vertex 6.66328 -8.01865 0
      vertex 3.08609 -9.41664 0
    endloop
  endfacet
  facet normal 0 0 -1
    outer loop
      vertex 2.5775 -12.0071 0
      vertex 5.39296 -14.1342 0
      vertex 5.06808 -14.4222 0
    endloop
  endfacet
  facet normal -0 0 -1
    outer loop
      vertex 6.66328 -8.01865 0
      vertex 2.99997 -9.09758 0
      vertex 6.41571 -7.43425 0
    endloop
  endfacet
  facet normal 0 0 -1
    outer loop
      vertex 2.5775 -12.0071 0
      vertex 5.06808 -14.4222 0
      vertex 4.71454 -14.6859 0
    endloop
  endfacet
  facet normal 0 0 -1
    outer loop
      vertex 2.36896 -12.2213 0
      vertex 4.71454 -14.6859 0
      vertex 4.33234 -14.925 0
    endloop
  endfacet
  facet normal 0 0 -1
    outer loop
      vertex 2.87939 -8.81139 0
      vertex 6.41571 -7.43425 0
      vertex 2.99997 -9.09758 0
    endloop
  endfacet
  facet normal 0 0 -1
    outer loop
      vertex 2.36896 -12.2213 0
      vertex 4.33234 -14.925 0
      vertex 3.92145 -15.1397 0
    endloop
  endfacet
  facet normal 0 0 -1
    outer loop
      vertex 2.1257 -12.4076 0
      vertex 3.92145 -15.1397 0
      vertex 3.48431 -15.3277 0
    endloop
  endfacet
  facet normal 0 0 -1
    outer loop
      vertex 6.96555 -10.5737 0
      vertex 3.13895 -10.53 0
      vertex 3.15498 -10.1534 0
    endloop
  endfacet
  facet normal -0 0 -1
    outer loop
      vertex 6.09741 -6.90273 0
      vertex 2.87939 -8.81139 0
      vertex 5.70837 -6.42406 0
    endloop
  endfacet
  facet normal -0 0 -1
    outer loop
      vertex 6.41571 -7.43425 0
      vertex 2.87939 -8.81139 0
      vertex 6.09741 -6.90273 0
    endloop
  endfacet
  facet normal 0 0 -1
    outer loop
      vertex 6.83722 -11.4919 0
      vertex 3.09082 -10.8796 0
      vertex 3.13895 -10.53 0
    endloop
  endfacet
  facet normal 0 0 -1
    outer loop
      vertex 1.84512 -12.5653 0
      vertex 3.48431 -15.3277 0
      vertex 3.02325 -15.4867 0
    endloop
  endfacet
  facet normal 0 0 -1
    outer loop
      vertex 6.72491 -11.9254 0
      vertex 3.0106 -11.2021 0
      vertex 3.09082 -10.8796 0
    endloop
  endfacet
  facet normal 0 0 -1
    outer loop
      vertex 6.4041 -12.7411 0
      vertex 2.89832 -11.4975 0
      vertex 3.0106 -11.2021 0
    endloop
  endfacet
  facet normal 0 0 -1
    outer loop
      vertex 5.9567 -13.4847 0
      vertex 2.75395 -11.7659 0
      vertex 2.89832 -11.4975 0
    endloop
  endfacet
  facet normal 0 0 -1
    outer loop
      vertex 5.39296 -14.1342 0
      vertex 2.5775 -12.0071 0
      vertex 2.75395 -11.7659 0
    endloop
  endfacet
  facet normal 0 0 -1
    outer loop
      vertex 1.84512 -12.5653 0
      vertex 3.02325 -15.4867 0
      vertex 2.53825 -15.6169 0
    endloop
  endfacet
  facet normal 0 0 -1
    outer loop
      vertex 4.71454 -14.6859 0
      vertex 2.36896 -12.2213 0
      vertex 2.5775 -12.0071 0
    endloop
  endfacet
  facet normal 0 0 -1
    outer loop
      vertex 3.92145 -15.1397 0
      vertex 2.1257 -12.4076 0
      vertex 2.36896 -12.2213 0
    endloop
  endfacet
  facet normal 0 0 -1
    outer loop
      vertex 1.52722 -12.6943 0
      vertex 2.53825 -15.6169 0
      vertex 2.02933 -15.7181 0
    endloop
  endfacet
  facet normal 0 0 -1
    outer loop
      vertex 3.48431 -15.3277 0
      vertex 1.84512 -12.5653 0
      vertex 2.1257 -12.4076 0
    endloop
  endfacet
  facet normal 0 0 -1
    outer loop
      vertex 2.53825 -15.6169 0
      vertex 1.52722 -12.6943 0
      vertex 1.84512 -12.5653 0
    endloop
  endfacet
  facet normal 0 0 -1
    outer loop
      vertex 1.17197 -12.7946 0
      vertex 2.02933 -15.7181 0
      vertex 1.49646 -15.7904 0
    endloop
  endfacet
  facet normal 0 0 -1
    outer loop
      vertex 2.02933 -15.7181 0
      vertex 1.17197 -12.7946 0
      vertex 1.52722 -12.6943 0
    endloop
  endfacet
  facet normal 0 0 -1
    outer loop
      vertex 0.779388 -12.8662 0
      vertex 1.49646 -15.7904 0
      vertex 0.939667 -15.8338 0
    endloop
  endfacet
  facet normal 0 0 -1
    outer loop
      vertex 1.49646 -15.7904 0
      vertex 0.779388 -12.8662 0
      vertex 1.17197 -12.7946 0
    endloop
  endfacet
  facet normal 0 0 -1
    outer loop
      vertex 0.349472 -12.9092 0
      vertex 0.939667 -15.8338 0
      vertex 0.358948 -15.8482 0
    endloop
  endfacet
  facet normal 0 0 -1
    outer loop
      vertex 0.939667 -15.8338 0
      vertex 0.349472 -12.9092 0
      vertex 0.779388 -12.8662 0
    endloop
  endfacet
  facet normal 0 0 -1
    outer loop
      vertex 0.358948 -15.8482 0
      vertex -0.117752 -12.9236 0
      vertex 0.349472 -12.9092 0
    endloop
  endfacet
  facet normal 0 0 -1
    outer loop
      vertex -2.17924 -15.8482 0
      vertex -0.117752 -12.9236 0
      vertex 0.358948 -15.8482 0
    endloop
  endfacet
  facet normal -0 0 -1
    outer loop
      vertex -0.117752 -12.9236 0
      vertex -2.17924 -15.8482 0
      vertex -2.17924 -12.9236 0
    endloop
  endfacet
  facet normal 0 0 -1
    outer loop
      vertex 2.72438 -8.55806 0
      vertex 5.70837 -6.42406 0
      vertex 2.87939 -8.81139 0
    endloop
  endfacet
  facet normal -0 0 -1
    outer loop
      vertex 5.70837 -6.42406 0
      vertex 2.72438 -8.55806 0
      vertex 5.2486 -5.99825 0
    endloop
  endfacet
  facet normal 0 0 -1
    outer loop
      vertex 2.53491 -8.3376 0
      vertex 5.2486 -5.99825 0
      vertex 2.72438 -8.55806 0
    endloop
  endfacet
  facet normal -0 0 -1
    outer loop
      vertex 5.2486 -5.99825 0
      vertex 2.53491 -8.3376 0
      vertex 4.72125 -5.62735 0
    endloop
  endfacet
  facet normal -0 0 -1
    outer loop
      vertex 4.72125 -5.62735 0
      vertex 2.53491 -8.3376 0
      vertex 4.12949 -5.31351 0
    endloop
  endfacet
  facet normal 0 0 -1
    outer loop
      vertex 2.311 -8.15001 0
      vertex 4.12949 -5.31351 0
      vertex 2.53491 -8.3376 0
    endloop
  endfacet
  facet normal -0 0 -1
    outer loop
      vertex 4.12949 -5.31351 0
      vertex 2.311 -8.15001 0
      vertex 3.47331 -5.05673 0
    endloop
  endfacet
  facet normal 0 0 -1
    outer loop
      vertex 2.05264 -7.99101 0
      vertex 3.47331 -5.05673 0
      vertex 2.311 -8.15001 0
    endloop
  endfacet
  facet normal -0 0 -1
    outer loop
      vertex 3.47331 -5.05673 0
      vertex 2.05264 -7.99101 0
      vertex 2.75272 -4.85703 0
    endloop
  endfacet
  facet normal 0 0 -1
    outer loop
      vertex 1.75986 -7.85649 0
      vertex 2.75272 -4.85703 0
      vertex 2.05264 -7.99101 0
    endloop
  endfacet
  facet normal -0 0 -1
    outer loop
      vertex 2.75272 -4.85703 0
      vertex 1.75986 -7.85649 0
      vertex 1.96773 -4.71437 0
    endloop
  endfacet
  facet normal 0 0 -1
    outer loop
      vertex 1.43262 -7.74641 0
      vertex 1.96773 -4.71437 0
      vertex 1.75986 -7.85649 0
    endloop
  endfacet
  facet normal 0 0 -1
    outer loop
      vertex 1.07094 -7.66081 0
      vertex 1.96773 -4.71437 0
      vertex 1.43262 -7.74641 0
    endloop
  endfacet
  facet normal -0 0 -1
    outer loop
      vertex 1.96773 -4.71437 0
      vertex 1.07094 -7.66081 0
      vertex 1.1183 -4.62878 0
    endloop
  endfacet
  facet normal 0 0 -1
    outer loop
      vertex 0.67482 -7.59966 0
      vertex 1.1183 -4.62878 0
      vertex 1.07094 -7.66081 0
    endloop
  endfacet
  facet normal 0 0 -1
    outer loop
      vertex 0.204468 -4.60025 0
      vertex 0.67482 -7.59966 0
      vertex 0.244247 -7.56297 0
    endloop
  endfacet
  facet normal 0 0 -1
    outer loop
      vertex 0.67482 -7.59966 0
      vertex 0.204468 -4.60025 0
      vertex 1.1183 -4.62878 0
    endloop
  endfacet
  facet normal 0 0 -1
    outer loop
      vertex -0.220734 -7.55074 0
      vertex 0.204468 -4.60025 0
      vertex 0.244247 -7.56297 0
    endloop
  endfacet
  facet normal 0 0 -1
    outer loop
      vertex -2.17924 -7.55074 0
      vertex 0.204468 -4.60025 0
      vertex -0.220734 -7.55074 0
    endloop
  endfacet
  facet normal 0 0 -1
    outer loop
      vertex -2.17924 -7.55074 0
      vertex -5.98001 -4.60025 0
      vertex 0.204468 -4.60025 0
    endloop
  endfacet
  facet normal 0 0 -1
    outer loop
      vertex -2.17924 -12.9236 0
      vertex -5.98001 -4.60025 0
      vertex -2.17924 -7.55074 0
    endloop
  endfacet
  facet normal 0 0 1
    outer loop
      vertex 6.98158 -10.089 1
      vertex 3.13776 -9.76857 1
      vertex 3.15498 -10.1534 1
    endloop
  endfacet
  facet normal 0 0 1
    outer loop
      vertex 4.12949 -5.31351 1
      vertex 3.08609 -9.41664 1
      vertex 3.13776 -9.76857 1
    endloop
  endfacet
  facet normal 0 0 1
    outer loop
      vertex 4.12949 -5.31351 1
      vertex 2.99997 -9.09758 1
      vertex 3.08609 -9.41664 1
    endloop
  endfacet
  facet normal 0 0 1
    outer loop
      vertex 4.12949 -5.31351 1
      vertex 2.87939 -8.81139 1
      vertex 2.99997 -9.09758 1
    endloop
  endfacet
  facet normal 0 0 1
    outer loop
      vertex 2.05264 -7.99101 1
      vertex 3.47331 -5.05673 1
      vertex 2.75272 -4.85703 1
    endloop
  endfacet
  facet normal 0 0 1
    outer loop
      vertex 4.12949 -5.31351 1
      vertex 2.72438 -8.55806 1
      vertex 2.87939 -8.81139 1
    endloop
  endfacet
  facet normal 0 0 1
    outer loop
      vertex 4.12949 -5.31351 1
      vertex 2.53491 -8.3376 1
      vertex 2.72438 -8.55806 1
    endloop
  endfacet
  facet normal 0 0 1
    outer loop
      vertex 4.12949 -5.31351 1
      vertex 2.311 -8.15001 1
      vertex 2.53491 -8.3376 1
    endloop
  endfacet
  facet normal 0 0 1
    outer loop
      vertex 3.47331 -5.05673 1
      vertex 2.05264 -7.99101 1
      vertex 2.311 -8.15001 1
    endloop
  endfacet
  facet normal 0 0 1
    outer loop
      vertex 1.75986 -7.85649 1
      vertex 2.75272 -4.85703 1
      vertex 1.96773 -4.71437 1
    endloop
  endfacet
  facet normal 0 0 1
    outer loop
      vertex 2.75272 -4.85703 1
      vertex 1.75986 -7.85649 1
      vertex 2.05264 -7.99101 1
    endloop
  endfacet
  facet normal 0 0 1
    outer loop
      vertex 1.96773 -4.71437 1
      vertex 1.43262 -7.74641 1
      vertex 1.75986 -7.85649 1
    endloop
  endfacet
  facet normal 0 0 1
    outer loop
      vertex 1.07094 -7.66081 1
      vertex 1.96773 -4.71437 1
      vertex 1.1183 -4.62878 1
    endloop
  endfacet
  facet normal 0 0 1
    outer loop
      vertex 1.96773 -4.71437 1
      vertex 1.07094 -7.66081 1
      vertex 1.43262 -7.74641 1
    endloop
  endfacet
  facet normal 0 0 1
    outer loop
      vertex 1.1183 -4.62878 1
      vertex 0.67482 -7.59966 1
      vertex 1.07094 -7.66081 1
    endloop
  endfacet
  facet normal 0 0 1
    outer loop
      vertex 0.204468 -4.60025 1
      vertex 0.67482 -7.59966 1
      vertex 1.1183 -4.62878 1
    endloop
  endfacet
  facet normal 0 0 1
    outer loop
      vertex 0.67482 -7.59966 1
      vertex 0.204468 -4.60025 1
      vertex 0.244247 -7.56297 1
    endloop
  endfacet
  facet normal 0 0 1
    outer loop
      vertex 0.204468 -4.60025 1
      vertex -0.220734 -7.55074 1
      vertex 0.244247 -7.56297 1
    endloop
  endfacet
  facet normal 0 0 1
    outer loop
      vertex 0.204468 -4.60025 1
      vertex -2.17924 -7.55074 1
      vertex -0.220734 -7.55074 1
    endloop
  endfacet
  facet normal 0 0 1
    outer loop
      vertex -5.98001 -4.60025 1
      vertex -2.17924 -12.9236 1
      vertex -2.17924 -7.55074 1
    endloop
  endfacet
  facet normal 0 0 1
    outer loop
      vertex -5.98001 -21.9812 1
      vertex -2.17924 -12.9236 1
      vertex -5.98001 -4.60025 1
    endloop
  endfacet
  facet normal -0 0 1
    outer loop
      vertex -5.98001 -4.60025 1
      vertex -2.17924 -7.55074 1
      vertex 0.204468 -4.60025 1
    endloop
  endfacet
  facet normal 0 0 1
    outer loop
      vertex -2.17924 -12.9236 1
      vertex -5.98001 -21.9812 1
      vertex -2.17924 -15.8482 1
    endloop
  endfacet
  facet normal 0 0 1
    outer loop
      vertex -2.17924 -15.8482 1
      vertex -5.98001 -21.9812 1
      vertex -2.17924 -21.9812 1
    endloop
  endfacet
  facet normal -0 0 1
    outer loop
      vertex 3.13776 -9.76857 1
      vertex 6.98158 -10.089 1
      vertex 6.94621 -9.34599 1
    endloop
  endfacet
  facet normal 0 0 1
    outer loop
      vertex 6.98158 -10.089 1
      vertex 3.15498 -10.1534 1
      vertex 6.96555 -10.5737 1
    endloop
  endfacet
  facet normal 0 0 1
    outer loop
      vertex 3.13776 -9.76857 1
      vertex 6.94621 -9.34599 1
      vertex 6.84012 -8.65588 1
    endloop
  endfacet
  facet normal -0 0 1
    outer loop
      vertex 3.13895 -10.53 1
      vertex 6.96555 -10.5737 1
      vertex 3.15498 -10.1534 1
    endloop
  endfacet
  facet normal 0 0 1
    outer loop
      vertex 6.96555 -10.5737 1
      vertex 3.13895 -10.53 1
      vertex 6.91742 -11.0414 1
    endloop
  endfacet
  facet normal 0 0 1
    outer loop
      vertex 3.13776 -9.76857 1
      vertex 6.84012 -8.65588 1
      vertex 6.66328 -8.01865 1
    endloop
  endfacet
  facet normal 0 0 1
    outer loop
      vertex 6.91742 -11.0414 1
      vertex 3.13895 -10.53 1
      vertex 6.83722 -11.4919 1
    endloop
  endfacet
  facet normal 0 0 1
    outer loop
      vertex 3.13776 -9.76857 1
      vertex 6.66328 -8.01865 1
      vertex 6.41571 -7.43425 1
    endloop
  endfacet
  facet normal -0 0 1
    outer loop
      vertex 3.09082 -10.8796 1
      vertex 6.83722 -11.4919 1
      vertex 3.13895 -10.53 1
    endloop
  endfacet
  facet normal 0 0 1
    outer loop
      vertex 6.83722 -11.4919 1
      vertex 3.09082 -10.8796 1
      vertex 6.72491 -11.9254 1
    endloop
  endfacet
  facet normal 0 0 1
    outer loop
      vertex 3.13776 -9.76857 1
      vertex 6.41571 -7.43425 1
      vertex 6.09741 -6.90273 1
    endloop
  endfacet
  facet normal -0 0 1
    outer loop
      vertex 3.0106 -11.2021 1
      vertex 6.72491 -11.9254 1
      vertex 3.09082 -10.8796 1
    endloop
  endfacet
  facet normal 0 0 1
    outer loop
      vertex 3.13776 -9.76857 1
      vertex 6.09741 -6.90273 1
      vertex 5.70837 -6.42406 1
    endloop
  endfacet
  facet normal 0 0 1
    outer loop
      vertex 6.72491 -11.9254 1
      vertex 3.0106 -11.2021 1
      vertex 6.58055 -12.3418 1
    endloop
  endfacet
  facet normal 0 0 1
    outer loop
      vertex 6.58055 -12.3418 1
      vertex 3.0106 -11.2021 1
      vertex 6.4041 -12.7411 1
    endloop
  endfacet
  facet normal 0 0 1
    outer loop
      vertex 3.13776 -9.76857 1
      vertex 5.70837 -6.42406 1
      vertex 5.2486 -5.99825 1
    endloop
  endfacet
  facet normal -0 0 1
    outer loop
      vertex 2.89832 -11.4975 1
      vertex 6.4041 -12.7411 1
      vertex 3.0106 -11.2021 1
    endloop
  endfacet
  facet normal 0 0 1
    outer loop
      vertex 3.13776 -9.76857 1
      vertex 5.2486 -5.99825 1
      vertex 4.72125 -5.62735 1
    endloop
  endfacet
  facet normal 0 0 1
    outer loop
      vertex 6.4041 -12.7411 1
      vertex 2.89832 -11.4975 1
      vertex 6.19556 -13.1232 1
    endloop
  endfacet
  facet normal 0 0 1
    outer loop
      vertex 6.19556 -13.1232 1
      vertex 2.89832 -11.4975 1
      vertex 5.9567 -13.4847 1
    endloop
  endfacet
  facet normal 0 0 1
    outer loop
      vertex 3.13776 -9.76857 1
      vertex 4.72125 -5.62735 1
      vertex 4.12949 -5.31351 1
    endloop
  endfacet
  facet normal -0 0 1
    outer loop
      vertex 2.75395 -11.7659 1
      vertex 5.9567 -13.4847 1
      vertex 2.89832 -11.4975 1
    endloop
  endfacet
  facet normal 0 0 1
    outer loop
      vertex 5.9567 -13.4847 1
      vertex 2.75395 -11.7659 1
      vertex 5.68916 -13.8216 1
    endloop
  endfacet
  facet normal 0 0 1
    outer loop
      vertex 2.311 -8.15001 1
      vertex 4.12949 -5.31351 1
      vertex 3.47331 -5.05673 1
    endloop
  endfacet
  facet normal 0 0 1
    outer loop
      vertex 5.68916 -13.8216 1
      vertex 2.75395 -11.7659 1
      vertex 5.39296 -14.1342 1
    endloop
  endfacet
  facet normal -0 0 1
    outer loop
      vertex 2.5775 -12.0071 1
      vertex 5.39296 -14.1342 1
      vertex 2.75395 -11.7659 1
    endloop
  endfacet
  facet normal 0 0 1
    outer loop
      vertex 5.39296 -14.1342 1
      vertex 2.5775 -12.0071 1
      vertex 5.06808 -14.4222 1
    endloop
  endfacet
  facet normal 0 0 1
    outer loop
      vertex 5.06808 -14.4222 1
      vertex 2.5775 -12.0071 1
      vertex 4.71454 -14.6859 1
    endloop
  endfacet
  facet normal -0 0 1
    outer loop
      vertex 2.36896 -12.2213 1
      vertex 4.71454 -14.6859 1
      vertex 2.5775 -12.0071 1
    endloop
  endfacet
  facet normal 0 0 1
    outer loop
      vertex 4.71454 -14.6859 1
      vertex 2.36896 -12.2213 1
      vertex 4.33234 -14.925 1
    endloop
  endfacet
  facet normal 0 0 1
    outer loop
      vertex 4.33234 -14.925 1
      vertex 2.36896 -12.2213 1
      vertex 3.92145 -15.1397 1
    endloop
  endfacet
  facet normal -0 0 1
    outer loop
      vertex 2.1257 -12.4076 1
      vertex 3.92145 -15.1397 1
      vertex 2.36896 -12.2213 1
    endloop
  endfacet
  facet normal 0 0 1
    outer loop
      vertex 3.92145 -15.1397 1
      vertex 2.1257 -12.4076 1
      vertex 3.48431 -15.3277 1
    endloop
  endfacet
  facet normal -0 0 1
    outer loop
      vertex 1.84512 -12.5653 1
      vertex 3.48431 -15.3277 1
      vertex 2.1257 -12.4076 1
    endloop
  endfacet
  facet normal 0 0 1
    outer loop
      vertex 3.48431 -15.3277 1
      vertex 1.84512 -12.5653 1
      vertex 3.02325 -15.4867 1
    endloop
  endfacet
  facet normal 0 0 1
    outer loop
      vertex 3.02325 -15.4867 1
      vertex 1.84512 -12.5653 1
      vertex 2.53825 -15.6169 1
    endloop
  endfacet
  facet normal -0 0 1
    outer loop
      vertex 1.52722 -12.6943 1
      vertex 2.53825 -15.6169 1
      vertex 1.84512 -12.5653 1
    endloop
  endfacet
  facet normal 0 0 1
    outer loop
      vertex 2.53825 -15.6169 1
      vertex 1.52722 -12.6943 1
      vertex 2.02933 -15.7181 1
    endloop
  endfacet
  facet normal -0 0 1
    outer loop
      vertex 1.17197 -12.7946 1
      vertex 2.02933 -15.7181 1
      vertex 1.52722 -12.6943 1
    endloop
  endfacet
  facet normal 0 0 1
    outer loop
      vertex 2.02933 -15.7181 1
      vertex 1.17197 -12.7946 1
      vertex 1.49646 -15.7904 1
    endloop
  endfacet
  facet normal -0 0 1
    outer loop
      vertex 0.779388 -12.8662 1
      vertex 1.49646 -15.7904 1
      vertex 1.17197 -12.7946 1
    endloop
  endfacet
  facet normal 0 0 1
    outer loop
      vertex 1.49646 -15.7904 1
      vertex 0.779388 -12.8662 1
      vertex 0.939667 -15.8338 1
    endloop
  endfacet
  facet normal -0 0 1
    outer loop
      vertex 0.349472 -12.9092 1
      vertex 0.939667 -15.8338 1
      vertex 0.779388 -12.8662 1
    endloop
  endfacet
  facet normal 0 0 1
    outer loop
      vertex 0.939667 -15.8338 1
      vertex 0.349472 -12.9092 1
      vertex 0.358948 -15.8482 1
    endloop
  endfacet
  facet normal -0 0 1
    outer loop
      vertex -0.117752 -12.9236 1
      vertex 0.358948 -15.8482 1
      vertex 0.349472 -12.9092 1
    endloop
  endfacet
  facet normal 0 0 1
    outer loop
      vertex -2.17924 -15.8482 1
      vertex -0.117752 -12.9236 1
      vertex -2.17924 -12.9236 1
    endloop
  endfacet
  facet normal 0 0 1
    outer loop
      vertex -0.117752 -12.9236 1
      vertex -2.17924 -15.8482 1
      vertex 0.358948 -15.8482 1
    endloop
  endfacet
  facet normal 0 -1 0
    outer loop
      vertex -2.17924 -15.8482 0
      vertex 0.358948 -15.8482 1
      vertex -2.17924 -15.8482 1
    endloop
  endfacet
  facet normal 0 -1 -0
    outer loop
      vertex 0.358948 -15.8482 1
      vertex -2.17924 -15.8482 0
      vertex 0.358948 -15.8482 0
    endloop
  endfacet
  facet normal 0.0247892 -0.999693 0
    outer loop
      vertex 0.358948 -15.8482 0
      vertex 0.939667 -15.8338 1
      vertex 0.358948 -15.8482 1
    endloop
  endfacet
  facet normal 0.0247892 -0.999693 0
    outer loop
      vertex 0.939667 -15.8338 1
      vertex 0.358948 -15.8482 0
      vertex 0.939667 -15.8338 0
    endloop
  endfacet
  facet normal 0.0777107 -0.996976 0
    outer loop
      vertex 0.939667 -15.8338 0
      vertex 1.49646 -15.7904 1
      vertex 0.939667 -15.8338 1
    endloop
  endfacet
  facet normal 0.0777107 -0.996976 0
    outer loop
      vertex 1.49646 -15.7904 1
      vertex 0.939667 -15.8338 0
      vertex 1.49646 -15.7904 0
    endloop
  endfacet
  facet normal 0.134448 -0.990921 0
    outer loop
      vertex 1.49646 -15.7904 0
      vertex 2.02933 -15.7181 1
      vertex 1.49646 -15.7904 1
    endloop
  endfacet
  facet normal 0.134448 -0.990921 0
    outer loop
      vertex 2.02933 -15.7181 1
      vertex 1.49646 -15.7904 0
      vertex 2.02933 -15.7181 0
    endloop
  endfacet
  facet normal 0.195034 -0.980797 0
    outer loop
      vertex 2.02933 -15.7181 0
      vertex 2.53825 -15.6169 1
      vertex 2.02933 -15.7181 1
    endloop
  endfacet
  facet normal 0.195034 -0.980797 0
    outer loop
      vertex 2.53825 -15.6169 1
      vertex 2.02933 -15.7181 0
      vertex 2.53825 -15.6169 0
    endloop
  endfacet
  facet normal 0.259274 -0.965804 0
    outer loop
      vertex 2.53825 -15.6169 0
      vertex 3.02325 -15.4867 1
      vertex 2.53825 -15.6169 1
    endloop
  endfacet
  facet normal 0.259274 -0.965804 0
    outer loop
      vertex 3.02325 -15.4867 1
      vertex 2.53825 -15.6169 0
      vertex 3.02325 -15.4867 0
    endloop
  endfacet
  facet normal 0.326016 -0.945364 0
    outer loop
      vertex 3.02325 -15.4867 0
      vertex 3.48431 -15.3277 1
      vertex 3.02325 -15.4867 1
    endloop
  endfacet
  facet normal 0.326016 -0.945364 0
    outer loop
      vertex 3.48431 -15.3277 1
      vertex 3.02325 -15.4867 0
      vertex 3.48431 -15.3277 0
    endloop
  endfacet
  facet normal 0.395081 -0.918646 0
    outer loop
      vertex 3.48431 -15.3277 0
      vertex 3.92145 -15.1397 1
      vertex 3.48431 -15.3277 1
    endloop
  endfacet
  facet normal 0.395081 -0.918646 0
    outer loop
      vertex 3.92145 -15.1397 1
      vertex 3.48431 -15.3277 0
      vertex 3.92145 -15.1397 0
    endloop
  endfacet
  facet normal 0.463113 -0.886299 0
    outer loop
      vertex 3.92145 -15.1397 0
      vertex 4.33234 -14.925 1
      vertex 3.92145 -15.1397 1
    endloop
  endfacet
  facet normal 0.463113 -0.886299 0
    outer loop
      vertex 4.33234 -14.925 1
      vertex 3.92145 -15.1397 0
      vertex 4.33234 -14.925 0
    endloop
  endfacet
  facet normal 0.530358 -0.847774 0
    outer loop
      vertex 4.33234 -14.925 0
      vertex 4.71454 -14.6859 1
      vertex 4.33234 -14.925 1
    endloop
  endfacet
  facet normal 0.530358 -0.847774 0
    outer loop
      vertex 4.71454 -14.6859 1
      vertex 4.33234 -14.925 0
      vertex 4.71454 -14.6859 0
    endloop
  endfacet
  facet normal 0.597887 -0.801581 0
    outer loop
      vertex 4.71454 -14.6859 0
      vertex 5.06808 -14.4222 1
      vertex 4.71454 -14.6859 1
    endloop
  endfacet
  facet normal 0.597887 -0.801581 0
    outer loop
      vertex 5.06808 -14.4222 1
      vertex 4.71454 -14.6859 0
      vertex 5.06808 -14.4222 0
    endloop
  endfacet
  facet normal 0.663357 -0.748303 0
    outer loop
      vertex 5.06808 -14.4222 0
      vertex 5.39296 -14.1342 1
      vertex 5.06808 -14.4222 1
    endloop
  endfacet
  facet normal 0.663357 -0.748303 0
    outer loop
      vertex 5.39296 -14.1342 1
      vertex 5.06808 -14.4222 0
      vertex 5.39296 -14.1342 0
    endloop
  endfacet
  facet normal 0.725892 -0.687809 0
    outer loop
      vertex 5.39296 -14.1342 1
      vertex 5.68916 -13.8216 0
      vertex 5.68916 -13.8216 1
    endloop
  endfacet
  facet normal 0.725892 -0.687809 0
    outer loop
      vertex 5.68916 -13.8216 0
      vertex 5.39296 -14.1342 1
      vertex 5.39296 -14.1342 0
    endloop
  endfacet
  facet normal 0.783109 -0.621885 0
    outer loop
      vertex 5.68916 -13.8216 1
      vertex 5.9567 -13.4847 0
      vertex 5.9567 -13.4847 1
    endloop
  endfacet
  facet normal 0.783109 -0.621885 0
    outer loop
      vertex 5.9567 -13.4847 0
      vertex 5.68916 -13.8216 1
      vertex 5.68916 -13.8216 0
    endloop
  endfacet
  facet normal 0.834323 -0.551276 0
    outer loop
      vertex 5.9567 -13.4847 1
      vertex 6.19556 -13.1232 0
      vertex 6.19556 -13.1232 1
    endloop
  endfacet
  facet normal 0.834323 -0.551276 0
    outer loop
      vertex 6.19556 -13.1232 0
      vertex 5.9567 -13.4847 1
      vertex 5.9567 -13.4847 0
    endloop
  endfacet
  facet normal 0.877778 -0.479068 0
    outer loop
      vertex 6.19556 -13.1232 1
      vertex 6.4041 -12.7411 0
      vertex 6.4041 -12.7411 1
    endloop
  endfacet
  facet normal 0.877778 -0.479068 0
    outer loop
      vertex 6.4041 -12.7411 0
      vertex 6.19556 -13.1232 1
      vertex 6.19556 -13.1232 0
    endloop
  endfacet
  facet normal 0.914674 -0.404193 0
    outer loop
      vertex 6.4041 -12.7411 1
      vertex 6.58055 -12.3418 0
      vertex 6.58055 -12.3418 1
    endloop
  endfacet
  facet normal 0.914674 -0.404193 0
    outer loop
      vertex 6.58055 -12.3418 0
      vertex 6.4041 -12.7411 1
      vertex 6.4041 -12.7411 0
    endloop
  endfacet
  facet normal 0.944831 -0.327559 0
    outer loop
      vertex 6.58055 -12.3418 1
      vertex 6.72491 -11.9254 0
      vertex 6.72491 -11.9254 1
    endloop
  endfacet
  facet normal 0.944831 -0.327559 0
    outer loop
      vertex 6.72491 -11.9254 0
      vertex 6.58055 -12.3418 1
      vertex 6.58055 -12.3418 0
    endloop
  endfacet
  facet normal 0.96804 -0.250797 0
    outer loop
      vertex 6.72491 -11.9254 1
      vertex 6.83722 -11.4919 0
      vertex 6.83722 -11.4919 1
    endloop
  endfacet
  facet normal 0.96804 -0.250797 0
    outer loop
      vertex 6.83722 -11.4919 0
      vertex 6.72491 -11.9254 1
      vertex 6.72491 -11.9254 0
    endloop
  endfacet
  facet normal 0.984521 -0.175269 0
    outer loop
      vertex 6.83722 -11.4919 1
      vertex 6.91742 -11.0414 0
      vertex 6.91742 -11.0414 1
    endloop
  endfacet
  facet normal 0.984521 -0.175269 0
    outer loop
      vertex 6.91742 -11.0414 0
      vertex 6.83722 -11.4919 1
      vertex 6.83722 -11.4919 0
    endloop
  endfacet
  facet normal 0.994747 -0.102367 0
    outer loop
      vertex 6.91742 -11.0414 1
      vertex 6.96555 -10.5737 0
      vertex 6.96555 -10.5737 1
    endloop
  endfacet
  facet normal 0.994747 -0.102367 0
    outer loop
      vertex 6.96555 -10.5737 0
      vertex 6.91742 -11.0414 1
      vertex 6.91742 -11.0414 0
    endloop
  endfacet
  facet normal 0.999454 -0.0330539 0
    outer loop
      vertex 6.96555 -10.5737 1
      vertex 6.98158 -10.089 0
      vertex 6.98158 -10.089 1
    endloop
  endfacet
  facet normal 0.999454 -0.0330539 0
    outer loop
      vertex 6.98158 -10.089 0
      vertex 6.96555 -10.5737 1
      vertex 6.96555 -10.5737 0
    endloop
  endfacet
  facet normal 0.998869 0.0475498 0
    outer loop
      vertex 6.98158 -10.089 1
      vertex 6.94621 -9.34599 0
      vertex 6.94621 -9.34599 1
    endloop
  endfacet
  facet normal 0.998869 0.0475498 0
    outer loop
      vertex 6.94621 -9.34599 0
      vertex 6.98158 -10.089 1
      vertex 6.98158 -10.089 0
    endloop
  endfacet
  facet normal 0.988389 0.151944 0
    outer loop
      vertex 6.94621 -9.34599 1
      vertex 6.84012 -8.65588 0
      vertex 6.84012 -8.65588 1
    endloop
  endfacet
  facet normal 0.988389 0.151944 0
    outer loop
      vertex 6.84012 -8.65588 0
      vertex 6.94621 -9.34599 1
      vertex 6.94621 -9.34599 0
    endloop
  endfacet
  facet normal 0.963584 0.267408 0
    outer loop
      vertex 6.84012 -8.65588 1
      vertex 6.66328 -8.01865 0
      vertex 6.66328 -8.01865 1
    endloop
  endfacet
  facet normal 0.963584 0.267408 0
    outer loop
      vertex 6.66328 -8.01865 0
      vertex 6.84012 -8.65588 1
      vertex 6.84012 -8.65588 0
    endloop
  endfacet
  facet normal 0.920784 0.390073 0
    outer loop
      vertex 6.66328 -8.01865 1
      vertex 6.41571 -7.43425 0
      vertex 6.41571 -7.43425 1
    endloop
  endfacet
  facet normal 0.920784 0.390073 0
    outer loop
      vertex 6.41571 -7.43425 0
      vertex 6.66328 -8.01865 1
      vertex 6.66328 -8.01865 0
    endloop
  endfacet
  facet normal 0.857928 0.513769 0
    outer loop
      vertex 6.41571 -7.43425 1
      vertex 6.09741 -6.90273 0
      vertex 6.09741 -6.90273 1
    endloop
  endfacet
  facet normal 0.857928 0.513769 0
    outer loop
      vertex 6.09741 -6.90273 0
      vertex 6.41571 -7.43425 1
      vertex 6.41571 -7.43425 0
    endloop
  endfacet
  facet normal 0.776018 0.63071 0
    outer loop
      vertex 6.09741 -6.90273 1
      vertex 5.70837 -6.42406 0
      vertex 5.70837 -6.42406 1
    endloop
  endfacet
  facet normal 0.776018 0.63071 0
    outer loop
      vertex 5.70837 -6.42406 0
      vertex 6.09741 -6.90273 1
      vertex 6.09741 -6.90273 0
    endloop
  endfacet
  facet normal 0.679491 0.733683 -0
    outer loop
      vertex 5.70837 -6.42406 0
      vertex 5.2486 -5.99825 1
      vertex 5.70837 -6.42406 1
    endloop
  endfacet
  facet normal 0.679491 0.733683 0
    outer loop
      vertex 5.2486 -5.99825 1
      vertex 5.70837 -6.42406 0
      vertex 5.2486 -5.99825 0
    endloop
  endfacet
  facet normal 0.575288 0.817951 -0
    outer loop
      vertex 5.2486 -5.99825 0
      vertex 4.72125 -5.62735 1
      vertex 5.2486 -5.99825 1
    endloop
  endfacet
  facet normal 0.575288 0.817951 0
    outer loop
      vertex 4.72125 -5.62735 1
      vertex 5.2486 -5.99825 0
      vertex 4.72125 -5.62735 0
    endloop
  endfacet
  facet normal 0.468535 0.883445 -0
    outer loop
      vertex 4.72125 -5.62735 0
      vertex 4.12949 -5.31351 1
      vertex 4.72125 -5.62735 1
    endloop
  endfacet
  facet normal 0.468535 0.883445 0
    outer loop
      vertex 4.12949 -5.31351 1
      vertex 4.72125 -5.62735 0
      vertex 4.12949 -5.31351 0
    endloop
  endfacet
  facet normal 0.364416 0.931236 -0
    outer loop
      vertex 4.12949 -5.31351 0
      vertex 3.47331 -5.05673 1
      vertex 4.12949 -5.31351 1
    endloop
  endfacet
  facet normal 0.364416 0.931236 0
    outer loop
      vertex 3.47331 -5.05673 1
      vertex 4.12949 -5.31351 0
      vertex 3.47331 -5.05673 0
    endloop
  endfacet
  facet normal 0.267068 0.963678 -0
    outer loop
      vertex 3.47331 -5.05673 0
      vertex 2.75272 -4.85703 1
      vertex 3.47331 -5.05673 1
    endloop
  endfacet
  facet normal 0.267068 0.963678 0
    outer loop
      vertex 2.75272 -4.85703 1
      vertex 3.47331 -5.05673 0
      vertex 2.75272 -4.85703 0
    endloop
  endfacet
  facet normal 0.178806 0.983884 -0
    outer loop
      vertex 2.75272 -4.85703 0
      vertex 1.96773 -4.71437 1
      vertex 2.75272 -4.85703 1
    endloop
  endfacet
  facet normal 0.178806 0.983884 0
    outer loop
      vertex 1.96773 -4.71437 1
      vertex 2.75272 -4.85703 0
      vertex 1.96773 -4.71437 0
    endloop
  endfacet
  facet normal 0.100254 0.994962 -0
    outer loop
      vertex 1.96773 -4.71437 0
      vertex 1.1183 -4.62878 1
      vertex 1.96773 -4.71437 1
    endloop
  endfacet
  facet normal 0.100254 0.994962 0
    outer loop
      vertex 1.1183 -4.62878 1
      vertex 1.96773 -4.71437 0
      vertex 1.1183 -4.62878 0
    endloop
  endfacet
  facet normal 0.031205 0.999513 -0
    outer loop
      vertex 1.1183 -4.62878 0
      vertex 0.204468 -4.60025 1
      vertex 1.1183 -4.62878 1
    endloop
  endfacet
  facet normal 0.031205 0.999513 0
    outer loop
      vertex 0.204468 -4.60025 1
      vertex 1.1183 -4.62878 0
      vertex 0.204468 -4.60025 0
    endloop
  endfacet
  facet normal 0 1 -0
    outer loop
      vertex 0.204468 -4.60025 0
      vertex -5.98001 -4.60025 1
      vertex 0.204468 -4.60025 1
    endloop
  endfacet
  facet normal 0 1 0
    outer loop
      vertex -5.98001 -4.60025 1
      vertex 0.204468 -4.60025 0
      vertex -5.98001 -4.60025 0
    endloop
  endfacet
  facet normal -1 0 0
    outer loop
      vertex -5.98001 -21.9812 0
      vertex -5.98001 -4.60025 1
      vertex -5.98001 -4.60025 0
    endloop
  endfacet
  facet normal -1 -0 0
    outer loop
      vertex -5.98001 -4.60025 1
      vertex -5.98001 -21.9812 0
      vertex -5.98001 -21.9812 1
    endloop
  endfacet
  facet normal 0 -1 0
    outer loop
      vertex -5.98001 -21.9812 0
      vertex -2.17924 -21.9812 1
      vertex -5.98001 -21.9812 1
    endloop
  endfacet
  facet normal 0 -1 -0
    outer loop
      vertex -2.17924 -21.9812 1
      vertex -5.98001 -21.9812 0
      vertex -2.17924 -21.9812 0
    endloop
  endfacet
  facet normal 1 -0 0
    outer loop
      vertex -2.17924 -21.9812 1
      vertex -2.17924 -15.8482 0
      vertex -2.17924 -15.8482 1
    endloop
  endfacet
  facet normal 1 0 0
    outer loop
      vertex -2.17924 -15.8482 0
      vertex -2.17924 -21.9812 1
      vertex -2.17924 -21.9812 0
    endloop
  endfacet
  facet normal 1 -0 0
    outer loop
      vertex -2.17924 -12.9236 1
      vertex -2.17924 -7.55074 0
      vertex -2.17924 -7.55074 1
    endloop
  endfacet
  facet normal 1 0 0
    outer loop
      vertex -2.17924 -7.55074 0
      vertex -2.17924 -12.9236 1
      vertex -2.17924 -12.9236 0
    endloop
  endfacet
  facet normal 0 -1 0
    outer loop
      vertex -2.17924 -7.55074 0
      vertex -0.220734 -7.55074 1
      vertex -2.17924 -7.55074 1
    endloop
  endfacet
  facet normal 0 -1 -0
    outer loop
      vertex -0.220734 -7.55074 1
      vertex -2.17924 -7.55074 0
      vertex -0.220734 -7.55074 0
    endloop
  endfacet
  facet normal -0.0262931 -0.999654 0
    outer loop
      vertex -0.220734 -7.55074 0
      vertex 0.244247 -7.56297 1
      vertex -0.220734 -7.55074 1
    endloop
  endfacet
  facet normal -0.0262931 -0.999654 -0
    outer loop
      vertex 0.244247 -7.56297 1
      vertex -0.220734 -7.55074 0
      vertex 0.244247 -7.56297 0
    endloop
  endfacet
  facet normal -0.0849043 -0.996389 0
    outer loop
      vertex 0.244247 -7.56297 0
      vertex 0.67482 -7.59966 1
      vertex 0.244247 -7.56297 1
    endloop
  endfacet
  facet normal -0.0849043 -0.996389 -0
    outer loop
      vertex 0.67482 -7.59966 1
      vertex 0.244247 -7.56297 0
      vertex 0.67482 -7.59966 0
    endloop
  endfacet
  facet normal -0.152565 -0.988293 0
    outer loop
      vertex 0.67482 -7.59966 0
      vertex 1.07094 -7.66081 1
      vertex 0.67482 -7.59966 1
    endloop
  endfacet
  facet normal -0.152565 -0.988293 -0
    outer loop
      vertex 1.07094 -7.66081 1
      vertex 0.67482 -7.59966 0
      vertex 1.07094 -7.66081 0
    endloop
  endfacet
  facet normal -0.230311 -0.973117 0
    outer loop
      vertex 1.07094 -7.66081 0
      vertex 1.43262 -7.74641 1
      vertex 1.07094 -7.66081 1
    endloop
  endfacet
  facet normal -0.230311 -0.973117 -0
    outer loop
      vertex 1.43262 -7.74641 1
      vertex 1.07094 -7.66081 0
      vertex 1.43262 -7.74641 0
    endloop
  endfacet
  facet normal -0.318833 -0.947811 0
    outer loop
      vertex 1.43262 -7.74641 0
      vertex 1.75986 -7.85649 1
      vertex 1.43262 -7.74641 1
    endloop
  endfacet
  facet normal -0.318833 -0.947811 -0
    outer loop
      vertex 1.75986 -7.85649 1
      vertex 1.43262 -7.74641 0
      vertex 1.75986 -7.85649 0
    endloop
  endfacet
  facet normal -0.417499 -0.908677 0
    outer loop
      vertex 1.75986 -7.85649 0
      vertex 2.05264 -7.99101 1
      vertex 1.75986 -7.85649 1
    endloop
  endfacet
  facet normal -0.417499 -0.908677 -0
    outer loop
      vertex 2.05264 -7.99101 1
      vertex 1.75986 -7.85649 0
      vertex 2.05264 -7.99101 0
    endloop
  endfacet
  facet normal -0.524119 -0.851645 0
    outer loop
      vertex 2.05264 -7.99101 0
      vertex 2.311 -8.15001 1
      vertex 2.05264 -7.99101 1
    endloop
  endfacet
  facet normal -0.524119 -0.851645 -0
    outer loop
      vertex 2.311 -8.15001 1
      vertex 2.05264 -7.99101 0
      vertex 2.311 -8.15001 0
    endloop
  endfacet
  facet normal -0.642199 -0.766538 0
    outer loop
      vertex 2.311 -8.15001 0
      vertex 2.53491 -8.3376 1
      vertex 2.311 -8.15001 1
    endloop
  endfacet
  facet normal -0.642199 -0.766538 -0
    outer loop
      vertex 2.53491 -8.3376 1
      vertex 2.311 -8.15001 0
      vertex 2.53491 -8.3376 0
    endloop
  endfacet
  facet normal -0.758399 -0.651791 0
    outer loop
      vertex 2.72438 -8.55806 0
      vertex 2.53491 -8.3376 1
      vertex 2.53491 -8.3376 0
    endloop
  endfacet
  facet normal -0.758399 -0.651791 0
    outer loop
      vertex 2.53491 -8.3376 1
      vertex 2.72438 -8.55806 0
      vertex 2.72438 -8.55806 1
    endloop
  endfacet
  facet normal -0.852986 -0.521933 0
    outer loop
      vertex 2.87939 -8.81139 0
      vertex 2.72438 -8.55806 1
      vertex 2.72438 -8.55806 0
    endloop
  endfacet
  facet normal -0.852986 -0.521933 0
    outer loop
      vertex 2.72438 -8.55806 1
      vertex 2.87939 -8.81139 0
      vertex 2.87939 -8.81139 1
    endloop
  endfacet
  facet normal -0.921544 -0.388273 0
    outer loop
      vertex 2.99997 -9.09758 0
      vertex 2.87939 -8.81139 1
      vertex 2.87939 -8.81139 0
    endloop
  endfacet
  facet normal -0.921544 -0.388273 0
    outer loop
      vertex 2.87939 -8.81139 1
      vertex 2.99997 -9.09758 0
      vertex 2.99997 -9.09758 1
    endloop
  endfacet
  facet normal -0.965449 -0.260592 0
    outer loop
      vertex 3.08609 -9.41664 0
      vertex 2.99997 -9.09758 1
      vertex 2.99997 -9.09758 0
    endloop
  endfacet
  facet normal -0.965449 -0.260592 0
    outer loop
      vertex 2.99997 -9.09758 1
      vertex 3.08609 -9.41664 0
      vertex 3.08609 -9.41664 1
    endloop
  endfacet
  facet normal -0.989393 -0.145262 0
    outer loop
      vertex 3.13776 -9.76857 0
      vertex 3.08609 -9.41664 1
      vertex 3.08609 -9.41664 0
    endloop
  endfacet
  facet normal -0.989393 -0.145262 0
    outer loop
      vertex 3.08609 -9.41664 1
      vertex 3.13776 -9.76857 0
      vertex 3.13776 -9.76857 1
    endloop
  endfacet
  facet normal -0.999 -0.0447023 0
    outer loop
      vertex 3.15498 -10.1534 0
      vertex 3.13776 -9.76857 1
      vertex 3.13776 -9.76857 0
    endloop
  endfacet
  facet normal -0.999 -0.0447023 0
    outer loop
      vertex 3.13776 -9.76857 1
      vertex 3.15498 -10.1534 0
      vertex 3.15498 -10.1534 1
    endloop
  endfacet
  facet normal -0.999095 0.0425265 0
    outer loop
      vertex 3.13895 -10.53 0
      vertex 3.15498 -10.1534 1
      vertex 3.15498 -10.1534 0
    endloop
  endfacet
  facet normal -0.999095 0.0425265 0
    outer loop
      vertex 3.15498 -10.1534 1
      vertex 3.13895 -10.53 0
      vertex 3.13895 -10.53 1
    endloop
  endfacet
  facet normal -0.990656 0.136385 0
    outer loop
      vertex 3.09082 -10.8796 0
      vertex 3.13895 -10.53 1
      vertex 3.13895 -10.53 0
    endloop
  endfacet
  facet normal -0.990656 0.136385 0
    outer loop
      vertex 3.13895 -10.53 1
      vertex 3.09082 -10.8796 0
      vertex 3.09082 -10.8796 1
    endloop
  endfacet
  facet normal -0.970429 0.241388 0
    outer loop
      vertex 3.0106 -11.2021 0
      vertex 3.09082 -10.8796 1
      vertex 3.09082 -10.8796 0
    endloop
  endfacet
  facet normal -0.970429 0.241388 0
    outer loop
      vertex 3.09082 -10.8796 1
      vertex 3.0106 -11.2021 0
      vertex 3.0106 -11.2021 1
    endloop
  endfacet
  facet normal -0.934754 0.355295 0
    outer loop
      vertex 2.89832 -11.4975 0
      vertex 3.0106 -11.2021 1
      vertex 3.0106 -11.2021 0
    endloop
  endfacet
  facet normal -0.934754 0.355295 0
    outer loop
      vertex 3.0106 -11.2021 1
      vertex 2.89832 -11.4975 0
      vertex 2.89832 -11.4975 1
    endloop
  endfacet
  facet normal -0.880681 0.47371 0
    outer loop
      vertex 2.75395 -11.7659 0
      vertex 2.89832 -11.4975 1
      vertex 2.89832 -11.4975 0
    endloop
  endfacet
  facet normal -0.880681 0.47371 0
    outer loop
      vertex 2.89832 -11.4975 1
      vertex 2.75395 -11.7659 0
      vertex 2.75395 -11.7659 1
    endloop
  endfacet
  facet normal -0.807091 0.590428 0
    outer loop
      vertex 2.5775 -12.0071 0
      vertex 2.75395 -11.7659 1
      vertex 2.75395 -11.7659 0
    endloop
  endfacet
  facet normal -0.807091 0.590428 0
    outer loop
      vertex 2.75395 -11.7659 1
      vertex 2.5775 -12.0071 0
      vertex 2.5775 -12.0071 1
    endloop
  endfacet
  facet normal -0.71651 0.697577 0
    outer loop
      vertex 2.36896 -12.2213 0
      vertex 2.5775 -12.0071 1
      vertex 2.5775 -12.0071 0
    endloop
  endfacet
  facet normal -0.71651 0.697577 0
    outer loop
      vertex 2.5775 -12.0071 1
      vertex 2.36896 -12.2213 0
      vertex 2.36896 -12.2213 1
    endloop
  endfacet
  facet normal -0.608022 0.79392 0
    outer loop
      vertex 2.36896 -12.2213 0
      vertex 2.1257 -12.4076 1
      vertex 2.36896 -12.2213 1
    endloop
  endfacet
  facet normal -0.608022 0.79392 0
    outer loop
      vertex 2.1257 -12.4076 1
      vertex 2.36896 -12.2213 0
      vertex 2.1257 -12.4076 0
    endloop
  endfacet
  facet normal -0.489963 0.871743 0
    outer loop
      vertex 2.1257 -12.4076 0
      vertex 1.84512 -12.5653 1
      vertex 2.1257 -12.4076 1
    endloop
  endfacet
  facet normal -0.489963 0.871743 0
    outer loop
      vertex 1.84512 -12.5653 1
      vertex 2.1257 -12.4076 0
      vertex 1.84512 -12.5653 0
    endloop
  endfacet
  facet normal -0.37601 0.926616 0
    outer loop
      vertex 1.84512 -12.5653 0
      vertex 1.52722 -12.6943 1
      vertex 1.84512 -12.5653 1
    endloop
  endfacet
  facet normal -0.37601 0.926616 0
    outer loop
      vertex 1.52722 -12.6943 1
      vertex 1.84512 -12.5653 0
      vertex 1.52722 -12.6943 0
    endloop
  endfacet
  facet normal -0.271714 0.962378 0
    outer loop
      vertex 1.52722 -12.6943 0
      vertex 1.17197 -12.7946 1
      vertex 1.52722 -12.6943 1
    endloop
  endfacet
  facet normal -0.271714 0.962378 0
    outer loop
      vertex 1.17197 -12.7946 1
      vertex 1.52722 -12.6943 0
      vertex 1.17197 -12.7946 0
    endloop
  endfacet
  facet normal -0.179423 0.983772 0
    outer loop
      vertex 1.17197 -12.7946 0
      vertex 0.779388 -12.8662 1
      vertex 1.17197 -12.7946 1
    endloop
  endfacet
  facet normal -0.179423 0.983772 0
    outer loop
      vertex 0.779388 -12.8662 1
      vertex 1.17197 -12.7946 0
      vertex 0.779388 -12.8662 0
    endloop
  endfacet
  facet normal -0.099523 0.995035 0
    outer loop
      vertex 0.779388 -12.8662 0
      vertex 0.349472 -12.9092 1
      vertex 0.779388 -12.8662 1
    endloop
  endfacet
  facet normal -0.099523 0.995035 0
    outer loop
      vertex 0.349472 -12.9092 1
      vertex 0.779388 -12.8662 0
      vertex 0.349472 -12.9092 0
    endloop
  endfacet
  facet normal -0.0308057 0.999525 0
    outer loop
      vertex 0.349472 -12.9092 0
      vertex -0.117752 -12.9236 1
      vertex 0.349472 -12.9092 1
    endloop
  endfacet
  facet normal -0.0308057 0.999525 0
    outer loop
      vertex -0.117752 -12.9236 1
      vertex 0.349472 -12.9092 0
      vertex -0.117752 -12.9236 0
    endloop
  endfacet
  facet normal 0 1 -0
    outer loop
      vertex -0.117752 -12.9236 0
      vertex -2.17924 -12.9236 1
      vertex -0.117752 -12.9236 1
    endloop
  endfacet
  facet normal 0 1 0
    outer loop
      vertex -2.17924 -12.9236 1
      vertex -0.117752 -12.9236 0
      vertex -2.17924 -12.9236 0
    endloop
  endfacet
endsolid OpenSCAD_Model
