solid OpenSCAD_Model
  facet normal 0 0 -1
    outer loop
      vertex 4.1084 -21.9812 0
      vertex 2.05983 -12.8204 0
      vertex 8.10258 -21.9812 0
    endloop
  endfacet
  facet normal 0 -0 -1
    outer loop
      vertex 2.05983 -12.8204 0
      vertex 4.1084 -21.9812 0
      vertex 0.204468 -15.6292 0
    endloop
  endfacet
  facet normal 0 0 -1
    outer loop
      vertex 2.05983 -12.8204 0
      vertex 3.58002 -4.60025 0
      vertex 7.57419 -4.60025 0
    endloop
  endfacet
  facet normal 0 0 -1
    outer loop
      vertex -1.81844 -12.8204 0
      vertex 2.05983 -12.8204 0
      vertex 0.204468 -15.6292 0
    endloop
  endfacet
  facet normal 0 0 -1
    outer loop
      vertex 2.05983 -12.8204 0
      vertex 0.204468 -10.1404 0
      vertex 3.58002 -4.60025 0
    endloop
  endfacet
  facet normal 0 0 -1
    outer loop
      vertex 2.05983 -12.8204 0
      vertex -1.81844 -12.8204 0
      vertex 0.204468 -10.1404 0
    endloop
  endfacet
  facet normal 0 0 -1
    outer loop
      vertex -3.71236 -21.9812 0
      vertex -1.81844 -12.8204 0
      vertex 0.204468 -15.6292 0
    endloop
  endfacet
  facet normal 0 0 -1
    outer loop
      vertex -1.81844 -12.8204 0
      vertex -3.71236 -21.9812 0
      vertex -7.73238 -21.9812 0
    endloop
  endfacet
  facet normal 0 0 -1
    outer loop
      vertex -1.81844 -12.8204 0
      vertex -3.18416 -4.60025 0
      vertex 0.204468 -10.1404 0
    endloop
  endfacet
  facet normal -0 -0 -1
    outer loop
      vertex -3.18416 -4.60025 0
      vertex -1.81844 -12.8204 0
      vertex -7.20418 -4.60025 0
    endloop
  endfacet
  facet normal -0 0 1
    outer loop
      vertex 3.58002 -4.60025 1
      vertex 2.05983 -12.8204 1
      vertex 7.57419 -4.60025 1
    endloop
  endfacet
  facet normal 0 -0 1
    outer loop
      vertex 2.05983 -12.8204 1
      vertex 3.58002 -4.60025 1
      vertex 0.204468 -10.1404 1
    endloop
  endfacet
  facet normal 0 0 1
    outer loop
      vertex 2.05983 -12.8204 1
      vertex 4.1084 -21.9812 1
      vertex 8.10258 -21.9812 1
    endloop
  endfacet
  facet normal 0 0 1
    outer loop
      vertex -1.81844 -12.8204 1
      vertex 2.05983 -12.8204 1
      vertex 0.204468 -10.1404 1
    endloop
  endfacet
  facet normal 0 0 1
    outer loop
      vertex 2.05983 -12.8204 1
      vertex 0.204468 -15.6292 1
      vertex 4.1084 -21.9812 1
    endloop
  endfacet
  facet normal 0 0 1
    outer loop
      vertex 2.05983 -12.8204 1
      vertex -1.81844 -12.8204 1
      vertex 0.204468 -15.6292 1
    endloop
  endfacet
  facet normal 0 0 1
    outer loop
      vertex -3.18416 -4.60025 1
      vertex -1.81844 -12.8204 1
      vertex 0.204468 -10.1404 1
    endloop
  endfacet
  facet normal 0 0 1
    outer loop
      vertex -1.81844 -12.8204 1
      vertex -3.18416 -4.60025 1
      vertex -7.20418 -4.60025 1
    endloop
  endfacet
  facet normal 0 0 1
    outer loop
      vertex -1.81844 -12.8204 1
      vertex -3.71236 -21.9812 1
      vertex 0.204468 -15.6292 1
    endloop
  endfacet
  facet normal 0 -0 1
    outer loop
      vertex -3.71236 -21.9812 1
      vertex -1.81844 -12.8204 1
      vertex -7.73238 -21.9812 1
    endloop
  endfacet
  facet normal -0.851957 -0.523612 0
    outer loop
      vertex 4.1084 -21.9812 0
      vertex 0.204468 -15.6292 1
      vertex 0.204468 -15.6292 0
    endloop
  endfacet
  facet normal -0.851957 -0.523612 0
    outer loop
      vertex 0.204468 -15.6292 1
      vertex 4.1084 -21.9812 0
      vertex 4.1084 -21.9812 1
    endloop
  endfacet
  facet normal 0 -1 0
    outer loop
      vertex 4.1084 -21.9812 0
      vertex 8.10258 -21.9812 1
      vertex 4.1084 -21.9812 1
    endloop
  endfacet
  facet normal 0 -1 -0
    outer loop
      vertex 8.10258 -21.9812 1
      vertex 4.1084 -21.9812 0
      vertex 8.10258 -21.9812 0
    endloop
  endfacet
  facet normal 0.834751 0.550628 0
    outer loop
      vertex 8.10258 -21.9812 1
      vertex 2.05983 -12.8204 0
      vertex 2.05983 -12.8204 1
    endloop
  endfacet
  facet normal 0.834751 0.550628 0
    outer loop
      vertex 2.05983 -12.8204 0
      vertex 8.10258 -21.9812 1
      vertex 8.10258 -21.9812 0
    endloop
  endfacet
  facet normal 0.830449 -0.557094 0
    outer loop
      vertex 2.05983 -12.8204 1
      vertex 7.57419 -4.60025 0
      vertex 7.57419 -4.60025 1
    endloop
  endfacet
  facet normal 0.830449 -0.557094 0
    outer loop
      vertex 7.57419 -4.60025 0
      vertex 2.05983 -12.8204 1
      vertex 2.05983 -12.8204 0
    endloop
  endfacet
  facet normal 0 1 -0
    outer loop
      vertex 7.57419 -4.60025 0
      vertex 3.58002 -4.60025 1
      vertex 7.57419 -4.60025 1
    endloop
  endfacet
  facet normal 0 1 0
    outer loop
      vertex 3.58002 -4.60025 1
      vertex 7.57419 -4.60025 0
      vertex 3.58002 -4.60025 0
    endloop
  endfacet
  facet normal -0.853973 0.520317 0
    outer loop
      vertex 0.204468 -10.1404 0
      vertex 3.58002 -4.60025 1
      vertex 3.58002 -4.60025 0
    endloop
  endfacet
  facet normal -0.853973 0.520317 0
    outer loop
      vertex 3.58002 -4.60025 1
      vertex 0.204468 -10.1404 0
      vertex 0.204468 -10.1404 1
    endloop
  endfacet
  facet normal 0.853078 0.521784 0
    outer loop
      vertex 0.204468 -10.1404 1
      vertex -3.18416 -4.60025 0
      vertex -3.18416 -4.60025 1
    endloop
  endfacet
  facet normal 0.853078 0.521784 0
    outer loop
      vertex -3.18416 -4.60025 0
      vertex 0.204468 -10.1404 1
      vertex 0.204468 -10.1404 0
    endloop
  endfacet
  facet normal 0 1 -0
    outer loop
      vertex -3.18416 -4.60025 0
      vertex -7.20418 -4.60025 1
      vertex -3.18416 -4.60025 1
    endloop
  endfacet
  facet normal 0 1 0
    outer loop
      vertex -7.20418 -4.60025 1
      vertex -3.18416 -4.60025 0
      vertex -7.20418 -4.60025 0
    endloop
  endfacet
  facet normal -0.836455 -0.548035 0
    outer loop
      vertex -1.81844 -12.8204 0
      vertex -7.20418 -4.60025 1
      vertex -7.20418 -4.60025 0
    endloop
  endfacet
  facet normal -0.836455 -0.548035 0
    outer loop
      vertex -7.20418 -4.60025 1
      vertex -1.81844 -12.8204 0
      vertex -1.81844 -12.8204 1
    endloop
  endfacet
  facet normal -0.84014 0.542369 0
    outer loop
      vertex -7.73238 -21.9812 0
      vertex -1.81844 -12.8204 1
      vertex -1.81844 -12.8204 0
    endloop
  endfacet
  facet normal -0.84014 0.542369 0
    outer loop
      vertex -1.81844 -12.8204 1
      vertex -7.73238 -21.9812 0
      vertex -7.73238 -21.9812 1
    endloop
  endfacet
  facet normal 0 -1 0
    outer loop
      vertex -7.73238 -21.9812 0
      vertex -3.71236 -21.9812 1
      vertex -7.73238 -21.9812 1
    endloop
  endfacet
  facet normal 0 -1 -0
    outer loop
      vertex -3.71236 -21.9812 1
      vertex -7.73238 -21.9812 0
      vertex -3.71236 -21.9812 0
    endloop
  endfacet
  facet normal 0.851185 -0.524866 0
    outer loop
      vertex -3.71236 -21.9812 1
      vertex 0.204468 -15.6292 0
      vertex 0.204468 -15.6292 1
    endloop
  endfacet
  facet normal 0.851185 -0.524866 0
    outer loop
      vertex 0.204468 -15.6292 0
      vertex -3.71236 -21.9812 1
      vertex -3.71236 -21.9812 0
    endloop
  endfacet
endsolid OpenSCAD_Model
