solid OpenSCAD_Model
  facet normal 0 0 -1
    outer loop
      vertex 3.54137 -17.2012 0
      vertex 6.8127 -18.4866 0
      vertex 6.1259 -19.713 0
    endloop
  endfacet
  facet normal 0 0 -1
    outer loop
      vertex 3.18797 -17.907 0
      vertex 6.1259 -19.713 0
      vertex 5.30762 -20.7163 0
    endloop
  endfacet
  facet normal 0 0 -1
    outer loop
      vertex 2.79041 -18.4845 0
      vertex 5.30762 -20.7163 0
      vertex 4.35785 -21.4967 0
    endloop
  endfacet
  facet normal 0 0 -1
    outer loop
      vertex 6.1259 -19.713 0
      vertex 3.18797 -17.907 0
      vertex 3.54137 -17.2012 0
    endloop
  endfacet
  facet normal 0 0 -1
    outer loop
      vertex 6.8127 -18.4866 0
      vertex 3.85057 -16.3671 0
      vertex 7.36804 -17.0372 0
    endloop
  endfacet
  facet normal 0 0 -1
    outer loop
      vertex 2.34866 -18.9336 0
      vertex 4.35785 -21.4967 0
      vertex 3.27663 -22.0542 0
    endloop
  endfacet
  facet normal 0 -0 -1
    outer loop
      vertex 3.85057 -16.3671 0
      vertex 6.8127 -18.4866 0
      vertex 3.54137 -17.2012 0
    endloop
  endfacet
  facet normal 0 0 -1
    outer loop
      vertex 5.30762 -20.7163 0
      vertex 2.79041 -18.4845 0
      vertex 3.18797 -17.907 0
    endloop
  endfacet
  facet normal 0 0 -1
    outer loop
      vertex 4.35785 -21.4967 0
      vertex 2.34866 -18.9336 0
      vertex 2.79041 -18.4845 0
    endloop
  endfacet
  facet normal 0 0 -1
    outer loop
      vertex 1.86273 -19.2544 0
      vertex 3.27663 -22.0542 0
      vertex 2.06393 -22.3886 0
    endloop
  endfacet
  facet normal 0 0 -1
    outer loop
      vertex 3.27663 -22.0542 0
      vertex 1.86273 -19.2544 0
      vertex 2.34866 -18.9336 0
    endloop
  endfacet
  facet normal 0 0 -1
    outer loop
      vertex 2.06393 -22.3886 0
      vertex 1.33261 -19.4469 0
      vertex 1.86273 -19.2544 0
    endloop
  endfacet
  facet normal 0 0 -1
    outer loop
      vertex 0.719757 -22.5001 0
      vertex 1.33261 -19.4469 0
      vertex 2.06393 -22.3886 0
    endloop
  endfacet
  facet normal 0 0 -1
    outer loop
      vertex 1.33261 -19.4469 0
      vertex 0.719757 -22.5001 0
      vertex 0.758331 -19.511 0
    endloop
  endfacet
  facet normal 0 0 -1
    outer loop
      vertex 0.719757 -22.5001 0
      vertex 0.264816 -19.479 0
      vertex 0.758331 -19.511 0
    endloop
  endfacet
  facet normal 0 0 -1
    outer loop
      vertex -0.279541 -22.4532 0
      vertex 0.264816 -19.479 0
      vertex 0.719757 -22.5001 0
    endloop
  endfacet
  facet normal -0 0 -1
    outer loop
      vertex 0.264816 -19.479 0
      vertex -0.279541 -22.4532 0
      vertex -0.192383 -19.3827 0
    endloop
  endfacet
  facet normal 0 0 -1
    outer loop
      vertex -1.20866 -22.3124 0
      vertex -0.192383 -19.3827 0
      vertex -0.279541 -22.4532 0
    endloop
  endfacet
  facet normal -0 0 -1
    outer loop
      vertex -0.192383 -19.3827 0
      vertex -1.20866 -22.3124 0
      vertex -0.613342 -19.2223 0
    endloop
  endfacet
  facet normal 0 0 -1
    outer loop
      vertex -2.06758 -22.0777 0
      vertex -0.613342 -19.2223 0
      vertex -1.20866 -22.3124 0
    endloop
  endfacet
  facet normal -0 0 -1
    outer loop
      vertex -0.613342 -19.2223 0
      vertex -2.06758 -22.0777 0
      vertex -0.998001 -18.9978 0
    endloop
  endfacet
  facet normal 0 0 -1
    outer loop
      vertex -2.85629 -21.7492 0
      vertex -0.998001 -18.9978 0
      vertex -2.06758 -22.0777 0
    endloop
  endfacet
  facet normal -0 0 -1
    outer loop
      vertex -0.998001 -18.9978 0
      vertex -2.85629 -21.7492 0
      vertex -1.34639 -18.7091 0
    endloop
  endfacet
  facet normal 0 0 -1
    outer loop
      vertex -3.57481 -21.3268 0
      vertex -1.34639 -18.7091 0
      vertex -2.85629 -21.7492 0
    endloop
  endfacet
  facet normal -0 0 -1
    outer loop
      vertex -1.34639 -18.7091 0
      vertex -3.57481 -21.3268 0
      vertex -1.65851 -18.3562 0
    endloop
  endfacet
  facet normal 0 0 -1
    outer loop
      vertex -4.22313 -20.8105 0
      vertex -1.65851 -18.3562 0
      vertex -3.57481 -21.3268 0
    endloop
  endfacet
  facet normal 0 0 -1
    outer loop
      vertex -4.80125 -20.2004 0
      vertex -1.65851 -18.3562 0
      vertex -4.22313 -20.8105 0
    endloop
  endfacet
  facet normal -0 0 -1
    outer loop
      vertex -1.65851 -18.3562 0
      vertex -4.80125 -20.2004 0
      vertex -1.93434 -17.9392 0
    endloop
  endfacet
  facet normal 0 0 -1
    outer loop
      vertex -5.30544 -19.4997 0
      vertex -1.93434 -17.9392 0
      vertex -4.80125 -20.2004 0
    endloop
  endfacet
  facet normal -0 0 -1
    outer loop
      vertex -2.17363 -17.463 0
      vertex -5.73206 -18.7121 0
      vertex -2.3761 -16.9326 0
    endloop
  endfacet
  facet normal 0 0 -1
    outer loop
      vertex -5.73206 -18.7121 0
      vertex -2.17363 -17.463 0
      vertex -5.30544 -19.4997 0
    endloop
  endfacet
  facet normal -0 0 -1
    outer loop
      vertex -1.93434 -17.9392 0
      vertex -5.30544 -19.4997 0
      vertex -2.17363 -17.463 0
    endloop
  endfacet
  facet normal 0 0 -1
    outer loop
      vertex 3.50287 -10.4534 0
      vertex 6.77274 -8.91742 0
      vertex 7.00743 -9.60294 0
    endloop
  endfacet
  facet normal -0 0 -1
    outer loop
      vertex 6.77274 -8.91742 0
      vertex 3.38847 -10.0756 0
      vertex 6.50308 -8.28188 0
    endloop
  endfacet
  facet normal 0 0 -1
    outer loop
      vertex 3.25882 -9.72282 0
      vertex 6.50308 -8.28188 0
      vertex 3.38847 -10.0756 0
    endloop
  endfacet
  facet normal -0 0 -1
    outer loop
      vertex 6.50308 -8.28188 0
      vertex 3.11392 -9.39503 0
      vertex 6.19844 -7.6963 0
    endloop
  endfacet
  facet normal -0 0 -1
    outer loop
      vertex 6.19844 -7.6963 0
      vertex 2.95378 -9.09222 0
      vertex 5.85883 -7.16069 0
    endloop
  endfacet
  facet normal 0 0 -1
    outer loop
      vertex 2.7784 -8.81441 0
      vertex 5.85883 -7.16069 0
      vertex 2.95378 -9.09222 0
    endloop
  endfacet
  facet normal -0 0 -1
    outer loop
      vertex 5.85883 -7.16069 0
      vertex 2.7784 -8.81441 0
      vertex 5.48424 -6.67505 0
    endloop
  endfacet
  facet normal -0 0 -1
    outer loop
      vertex 5.48424 -6.67505 0
      vertex 2.58775 -8.56158 0
      vertex 5.07468 -6.23938 0
    endloop
  endfacet
  facet normal 0 0 -1
    outer loop
      vertex 6.77274 -8.91742 0
      vertex 3.50287 -10.4534 0
      vertex 3.38847 -10.0756 0
    endloop
  endfacet
  facet normal 0 0 -1
    outer loop
      vertex 3.11392 -9.39503 0
      vertex 6.50308 -8.28188 0
      vertex 3.25882 -9.72282 0
    endloop
  endfacet
  facet normal 0 0 -1
    outer loop
      vertex 2.95378 -9.09222 0
      vertex 6.19844 -7.6963 0
      vertex 3.11392 -9.39503 0
    endloop
  endfacet
  facet normal 0 0 -1
    outer loop
      vertex 2.58775 -8.56158 0
      vertex 5.48424 -6.67505 0
      vertex 2.7784 -8.81441 0
    endloop
  endfacet
  facet normal -0 0 -1
    outer loop
      vertex 5.07468 -6.23938 0
      vertex 2.58775 -8.56158 0
      vertex 4.63014 -5.85367 0
    endloop
  endfacet
  facet normal 0 0 -1
    outer loop
      vertex 2.38188 -8.33372 0
      vertex 4.63014 -5.85367 0
      vertex 2.58775 -8.56158 0
    endloop
  endfacet
  facet normal -0 0 -1
    outer loop
      vertex 4.63014 -5.85367 0
      vertex 2.38188 -8.33372 0
      vertex 4.15227 -5.51865 0
    endloop
  endfacet
  facet normal 0 0 -1
    outer loop
      vertex 2.16389 -8.13376 0
      vertex 4.15227 -5.51865 0
      vertex 2.38188 -8.33372 0
    endloop
  endfacet
  facet normal -0 0 -1
    outer loop
      vertex 4.15227 -5.51865 0
      vertex 2.16389 -8.13376 0
      vertex 3.64256 -5.23518 0
    endloop
  endfacet
  facet normal 0 0 -1
    outer loop
      vertex 1.93698 -7.96455 0
      vertex 3.64256 -5.23518 0
      vertex 2.16389 -8.13376 0
    endloop
  endfacet
  facet normal -0 0 -1
    outer loop
      vertex 3.64256 -5.23518 0
      vertex 1.93698 -7.96455 0
      vertex 3.10104 -5.00325 0
    endloop
  endfacet
  facet normal 0 0 -1
    outer loop
      vertex 1.70113 -7.82611 0
      vertex 3.10104 -5.00325 0
      vertex 1.93698 -7.96455 0
    endloop
  endfacet
  facet normal -0 0 -1
    outer loop
      vertex 3.10104 -5.00325 0
      vertex 1.70113 -7.82611 0
      vertex 2.52771 -4.82288 0
    endloop
  endfacet
  facet normal 0 0 -1
    outer loop
      vertex 1.45631 -7.71844 0
      vertex 2.52771 -4.82288 0
      vertex 1.70113 -7.82611 0
    endloop
  endfacet
  facet normal -0 0 -1
    outer loop
      vertex 2.52771 -4.82288 0
      vertex 1.45631 -7.71844 0
      vertex 1.92255 -4.69402 0
    endloop
  endfacet
  facet normal 0 0 -1
    outer loop
      vertex 1.20258 -7.64153 0
      vertex 1.92255 -4.69402 0
      vertex 1.45631 -7.71844 0
    endloop
  endfacet
  facet normal -0 0 -1
    outer loop
      vertex 1.92255 -4.69402 0
      vertex 1.20258 -7.64153 0
      vertex 1.28557 -4.61671 0
    endloop
  endfacet
  facet normal 0 0 -1
    outer loop
      vertex 0.939896 -7.59538 0
      vertex 1.28557 -4.61671 0
      vertex 1.20258 -7.64153 0
    endloop
  endfacet
  facet normal 0 0 -1
    outer loop
      vertex 0.668259 -7.58 0
      vertex 1.28557 -4.61671 0
      vertex 0.939896 -7.59538 0
    endloop
  endfacet
  facet normal 0 0 -1
    outer loop
      vertex 0.668259 -7.58 0
      vertex 0.616776 -4.59094 0
      vertex 1.28557 -4.61671 0
    endloop
  endfacet
  facet normal 0 0 -1
    outer loop
      vertex -0.261505 -7.70016 0
      vertex 0.616776 -4.59094 0
      vertex 0.668259 -7.58 0
    endloop
  endfacet
  facet normal 0 0 -1
    outer loop
      vertex -1.32483 -4.77211 0
      vertex -0.261505 -7.70016 0
      vertex -1.04823 -8.06068 0
    endloop
  endfacet
  facet normal 0 0 -1
    outer loop
      vertex -0.261505 -7.70016 0
      vertex -1.32483 -4.77211 0
      vertex 0.616776 -4.59094 0
    endloop
  endfacet
  facet normal 0 0 -1
    outer loop
      vertex -2.96774 -5.31561 0
      vertex -1.04823 -8.06068 0
      vertex -1.69193 -8.66153 0
    endloop
  endfacet
  facet normal 0 0 -1
    outer loop
      vertex -5.35744 -7.48965 0
      vertex -1.69193 -8.66153 0
      vertex -2.19258 -9.50272 0
    endloop
  endfacet
  facet normal 0 0 -1
    outer loop
      vertex -6.1042 -9.12019 0
      vertex -2.19258 -9.50272 0
      vertex -2.55019 -10.5842 0
    endloop
  endfacet
  facet normal 0 0 -1
    outer loop
      vertex -1.04823 -8.06068 0
      vertex -2.96774 -5.31561 0
      vertex -1.32483 -4.77211 0
    endloop
  endfacet
  facet normal 0 0 -1
    outer loop
      vertex -6.55228 -11.1131 0
      vertex -2.55019 -10.5842 0
      vertex -2.76476 -11.9061 0
    endloop
  endfacet
  facet normal 0 0 -1
    outer loop
      vertex -6.70163 -13.4683 0
      vertex -2.76476 -11.9061 0
      vertex -2.83627 -13.4683 0
    endloop
  endfacet
  facet normal 0 0 -1
    outer loop
      vertex -6.0811 -17.8374 0
      vertex -2.3761 -16.9326 0
      vertex -5.73206 -18.7121 0
    endloop
  endfacet
  facet normal -0 0 -1
    outer loop
      vertex -2.3761 -16.9326 0
      vertex -6.0811 -17.8374 0
      vertex -2.54176 -16.348 0
    endloop
  endfacet
  facet normal 0 0 -1
    outer loop
      vertex -6.35258 -16.8756 0
      vertex -2.54176 -16.348 0
      vertex -6.0811 -17.8374 0
    endloop
  endfacet
  facet normal -0 0 -1
    outer loop
      vertex -2.76476 -11.9061 0
      vertex -6.70163 -13.4683 0
      vertex -6.55228 -11.1131 0
    endloop
  endfacet
  facet normal -0 0 -1
    outer loop
      vertex -2.54176 -16.348 0
      vertex -6.35258 -16.8756 0
      vertex -2.67061 -15.7093 0
    endloop
  endfacet
  facet normal 0 0 -1
    outer loop
      vertex -6.54649 -15.8269 0
      vertex -2.67061 -15.7093 0
      vertex -6.35258 -16.8756 0
    endloop
  endfacet
  facet normal -0 0 -1
    outer loop
      vertex -2.55019 -10.5842 0
      vertex -6.55228 -11.1131 0
      vertex -6.1042 -9.12019 0
    endloop
  endfacet
  facet normal -0 0 -1
    outer loop
      vertex -2.67061 -15.7093 0
      vertex -6.54649 -15.8269 0
      vertex -2.76265 -15.0165 0
    endloop
  endfacet
  facet normal 0 0 -1
    outer loop
      vertex -6.66284 -14.6911 0
      vertex -2.76265 -15.0165 0
      vertex -6.54649 -15.8269 0
    endloop
  endfacet
  facet normal 0 0 -1
    outer loop
      vertex -2.19258 -9.50272 0
      vertex -6.1042 -9.12019 0
      vertex -5.35744 -7.48965 0
    endloop
  endfacet
  facet normal 0 0 -1
    outer loop
      vertex -2.76265 -15.0165 0
      vertex -6.66284 -14.6911 0
      vertex -2.81786 -14.2695 0
    endloop
  endfacet
  facet normal 0 0 -1
    outer loop
      vertex -6.70163 -13.4683 0
      vertex -2.81786 -14.2695 0
      vertex -6.66284 -14.6911 0
    endloop
  endfacet
  facet normal 0 0 -1
    outer loop
      vertex -2.81786 -14.2695 0
      vertex -6.70163 -13.4683 0
      vertex -2.83627 -13.4683 0
    endloop
  endfacet
  facet normal 0 0 -1
    outer loop
      vertex -1.69193 -8.66153 0
      vertex -5.35744 -7.48965 0
      vertex -4.31194 -6.22147 0
    endloop
  endfacet
  facet normal 0 0 -1
    outer loop
      vertex -1.69193 -8.66153 0
      vertex -4.31194 -6.22147 0
      vertex -2.96774 -5.31561 0
    endloop
  endfacet
  facet normal 0 0 1
    outer loop
      vertex 3.38847 -10.0756 1
      vertex 6.77274 -8.91742 1
      vertex 6.50308 -8.28188 1
    endloop
  endfacet
  facet normal 0 0 1
    outer loop
      vertex 3.11392 -9.39503 1
      vertex 6.50308 -8.28188 1
      vertex 6.19844 -7.6963 1
    endloop
  endfacet
  facet normal 0 0 1
    outer loop
      vertex 2.95378 -9.09222 1
      vertex 6.19844 -7.6963 1
      vertex 5.85883 -7.16069 1
    endloop
  endfacet
  facet normal 0 0 1
    outer loop
      vertex 2.7784 -8.81441 1
      vertex 5.85883 -7.16069 1
      vertex 5.48424 -6.67505 1
    endloop
  endfacet
  facet normal 0 0 1
    outer loop
      vertex 2.58775 -8.56158 1
      vertex 5.48424 -6.67505 1
      vertex 5.07468 -6.23938 1
    endloop
  endfacet
  facet normal 0 0 1
    outer loop
      vertex 2.58775 -8.56158 1
      vertex 5.07468 -6.23938 1
      vertex 4.63014 -5.85367 1
    endloop
  endfacet
  facet normal 0 0 1
    outer loop
      vertex 2.38188 -8.33372 1
      vertex 4.63014 -5.85367 1
      vertex 4.15227 -5.51865 1
    endloop
  endfacet
  facet normal 0 0 1
    outer loop
      vertex 2.16389 -8.13376 1
      vertex 4.15227 -5.51865 1
      vertex 3.64256 -5.23518 1
    endloop
  endfacet
  facet normal 0 0 1
    outer loop
      vertex 6.19844 -7.6963 1
      vertex 2.95378 -9.09222 1
      vertex 3.11392 -9.39503 1
    endloop
  endfacet
  facet normal 0 0 1
    outer loop
      vertex 6.77274 -8.91742 1
      vertex 3.50287 -10.4534 1
      vertex 7.00743 -9.60294 1
    endloop
  endfacet
  facet normal 0 -0 1
    outer loop
      vertex 3.50287 -10.4534 1
      vertex 6.77274 -8.91742 1
      vertex 3.38847 -10.0756 1
    endloop
  endfacet
  facet normal 0 0 1
    outer loop
      vertex 6.50308 -8.28188 1
      vertex 3.25882 -9.72282 1
      vertex 3.38847 -10.0756 1
    endloop
  endfacet
  facet normal 0 0 1
    outer loop
      vertex 1.93698 -7.96455 1
      vertex 3.64256 -5.23518 1
      vertex 3.10104 -5.00325 1
    endloop
  endfacet
  facet normal 0 0 1
    outer loop
      vertex 6.50308 -8.28188 1
      vertex 3.11392 -9.39503 1
      vertex 3.25882 -9.72282 1
    endloop
  endfacet
  facet normal 0 0 1
    outer loop
      vertex 5.85883 -7.16069 1
      vertex 2.7784 -8.81441 1
      vertex 2.95378 -9.09222 1
    endloop
  endfacet
  facet normal 0 0 1
    outer loop
      vertex 5.48424 -6.67505 1
      vertex 2.58775 -8.56158 1
      vertex 2.7784 -8.81441 1
    endloop
  endfacet
  facet normal 0 0 1
    outer loop
      vertex 1.70113 -7.82611 1
      vertex 3.10104 -5.00325 1
      vertex 2.52771 -4.82288 1
    endloop
  endfacet
  facet normal 0 0 1
    outer loop
      vertex 4.63014 -5.85367 1
      vertex 2.38188 -8.33372 1
      vertex 2.58775 -8.56158 1
    endloop
  endfacet
  facet normal 0 0 1
    outer loop
      vertex 4.15227 -5.51865 1
      vertex 2.16389 -8.13376 1
      vertex 2.38188 -8.33372 1
    endloop
  endfacet
  facet normal 0 0 1
    outer loop
      vertex 3.64256 -5.23518 1
      vertex 1.93698 -7.96455 1
      vertex 2.16389 -8.13376 1
    endloop
  endfacet
  facet normal 0 0 1
    outer loop
      vertex 1.45631 -7.71844 1
      vertex 2.52771 -4.82288 1
      vertex 1.92255 -4.69402 1
    endloop
  endfacet
  facet normal 0 0 1
    outer loop
      vertex 3.10104 -5.00325 1
      vertex 1.70113 -7.82611 1
      vertex 1.93698 -7.96455 1
    endloop
  endfacet
  facet normal 0 0 1
    outer loop
      vertex 2.52771 -4.82288 1
      vertex 1.45631 -7.71844 1
      vertex 1.70113 -7.82611 1
    endloop
  endfacet
  facet normal 0 0 1
    outer loop
      vertex 1.20258 -7.64153 1
      vertex 1.92255 -4.69402 1
      vertex 1.28557 -4.61671 1
    endloop
  endfacet
  facet normal 0 0 1
    outer loop
      vertex 1.92255 -4.69402 1
      vertex 1.20258 -7.64153 1
      vertex 1.45631 -7.71844 1
    endloop
  endfacet
  facet normal 0 0 1
    outer loop
      vertex 1.28557 -4.61671 1
      vertex 0.939896 -7.59538 1
      vertex 1.20258 -7.64153 1
    endloop
  endfacet
  facet normal 0 0 1
    outer loop
      vertex 1.28557 -4.61671 1
      vertex 0.668259 -7.58 1
      vertex 0.939896 -7.59538 1
    endloop
  endfacet
  facet normal 0 0 1
    outer loop
      vertex 0.616776 -4.59094 1
      vertex 0.668259 -7.58 1
      vertex 1.28557 -4.61671 1
    endloop
  endfacet
  facet normal 0 0 1
    outer loop
      vertex 0.616776 -4.59094 1
      vertex -0.261505 -7.70016 1
      vertex 0.668259 -7.58 1
    endloop
  endfacet
  facet normal -0 0 1
    outer loop
      vertex -1.32483 -4.77211 1
      vertex -0.261505 -7.70016 1
      vertex 0.616776 -4.59094 1
    endloop
  endfacet
  facet normal 0 0 1
    outer loop
      vertex -0.261505 -7.70016 1
      vertex -1.32483 -4.77211 1
      vertex -1.04823 -8.06068 1
    endloop
  endfacet
  facet normal -0 0 1
    outer loop
      vertex -2.96774 -5.31561 1
      vertex -1.04823 -8.06068 1
      vertex -1.32483 -4.77211 1
    endloop
  endfacet
  facet normal 0 0 1
    outer loop
      vertex -1.04823 -8.06068 1
      vertex -2.96774 -5.31561 1
      vertex -1.69193 -8.66153 1
    endloop
  endfacet
  facet normal -0 0 1
    outer loop
      vertex -4.31194 -6.22147 1
      vertex -1.69193 -8.66153 1
      vertex -2.96774 -5.31561 1
    endloop
  endfacet
  facet normal -0 0 1
    outer loop
      vertex -5.35744 -7.48965 1
      vertex -1.69193 -8.66153 1
      vertex -4.31194 -6.22147 1
    endloop
  endfacet
  facet normal 0 0 1
    outer loop
      vertex -1.69193 -8.66153 1
      vertex -5.35744 -7.48965 1
      vertex -2.19258 -9.50272 1
    endloop
  endfacet
  facet normal -0 0 1
    outer loop
      vertex -6.1042 -9.12019 1
      vertex -2.19258 -9.50272 1
      vertex -5.35744 -7.48965 1
    endloop
  endfacet
  facet normal 0 0 1
    outer loop
      vertex -2.19258 -9.50272 1
      vertex -6.1042 -9.12019 1
      vertex -2.55019 -10.5842 1
    endloop
  endfacet
  facet normal 0 -0 1
    outer loop
      vertex -6.66284 -14.6911 1
      vertex -2.83627 -13.4683 1
      vertex -6.70163 -13.4683 1
    endloop
  endfacet
  facet normal 0 -0 1
    outer loop
      vertex -6.54649 -15.8269 1
      vertex -2.83627 -13.4683 1
      vertex -6.66284 -14.6911 1
    endloop
  endfacet
  facet normal 0 0 1
    outer loop
      vertex -6.55228 -11.1131 1
      vertex -2.55019 -10.5842 1
      vertex -6.1042 -9.12019 1
    endloop
  endfacet
  facet normal 0 -0 1
    outer loop
      vertex -6.35258 -16.8756 1
      vertex -2.83627 -13.4683 1
      vertex -6.54649 -15.8269 1
    endloop
  endfacet
  facet normal 0 -0 1
    outer loop
      vertex -6.0811 -17.8374 1
      vertex -2.83627 -13.4683 1
      vertex -6.35258 -16.8756 1
    endloop
  endfacet
  facet normal 0 0 1
    outer loop
      vertex -2.55019 -10.5842 1
      vertex -6.55228 -11.1131 1
      vertex -2.76476 -11.9061 1
    endloop
  endfacet
  facet normal 0 -0 1
    outer loop
      vertex -5.73206 -18.7121 1
      vertex -2.83627 -13.4683 1
      vertex -6.0811 -17.8374 1
    endloop
  endfacet
  facet normal 0 -0 1
    outer loop
      vertex -5.30544 -19.4997 1
      vertex -2.83627 -13.4683 1
      vertex -5.73206 -18.7121 1
    endloop
  endfacet
  facet normal 0 0 1
    outer loop
      vertex -6.70163 -13.4683 1
      vertex -2.76476 -11.9061 1
      vertex -6.55228 -11.1131 1
    endloop
  endfacet
  facet normal 0 0 1
    outer loop
      vertex -2.83627 -13.4683 1
      vertex -3.57481 -21.3268 1
      vertex -2.85629 -21.7492 1
    endloop
  endfacet
  facet normal 0 0 1
    outer loop
      vertex -2.83627 -13.4683 1
      vertex -4.80125 -20.2004 1
      vertex -4.22313 -20.8105 1
    endloop
  endfacet
  facet normal 0 0 1
    outer loop
      vertex -2.76476 -11.9061 1
      vertex -6.70163 -13.4683 1
      vertex -2.83627 -13.4683 1
    endloop
  endfacet
  facet normal 0 0 1
    outer loop
      vertex -2.83627 -13.4683 1
      vertex -5.30544 -19.4997 1
      vertex -4.80125 -20.2004 1
    endloop
  endfacet
  facet normal 0 0 1
    outer loop
      vertex -2.83627 -13.4683 1
      vertex -4.22313 -20.8105 1
      vertex -3.57481 -21.3268 1
    endloop
  endfacet
  facet normal 0 0 1
    outer loop
      vertex 3.85057 -16.3671 1
      vertex 6.8127 -18.4866 1
      vertex 7.36804 -17.0372 1
    endloop
  endfacet
  facet normal 0 0 1
    outer loop
      vertex 6.8127 -18.4866 1
      vertex 3.54137 -17.2012 1
      vertex 6.1259 -19.713 1
    endloop
  endfacet
  facet normal -0 0 1
    outer loop
      vertex 3.18797 -17.907 1
      vertex 6.1259 -19.713 1
      vertex 3.54137 -17.2012 1
    endloop
  endfacet
  facet normal 0 0 1
    outer loop
      vertex 6.8127 -18.4866 1
      vertex 3.85057 -16.3671 1
      vertex 3.54137 -17.2012 1
    endloop
  endfacet
  facet normal 0 0 1
    outer loop
      vertex 6.1259 -19.713 1
      vertex 3.18797 -17.907 1
      vertex 5.30762 -20.7163 1
    endloop
  endfacet
  facet normal -0 0 1
    outer loop
      vertex 2.79041 -18.4845 1
      vertex 5.30762 -20.7163 1
      vertex 3.18797 -17.907 1
    endloop
  endfacet
  facet normal 0 0 1
    outer loop
      vertex 5.30762 -20.7163 1
      vertex 2.79041 -18.4845 1
      vertex 4.35785 -21.4967 1
    endloop
  endfacet
  facet normal -0 0 1
    outer loop
      vertex 2.34866 -18.9336 1
      vertex 4.35785 -21.4967 1
      vertex 2.79041 -18.4845 1
    endloop
  endfacet
  facet normal 0 0 1
    outer loop
      vertex 4.35785 -21.4967 1
      vertex 2.34866 -18.9336 1
      vertex 3.27663 -22.0542 1
    endloop
  endfacet
  facet normal -0 0 1
    outer loop
      vertex 1.86273 -19.2544 1
      vertex 3.27663 -22.0542 1
      vertex 2.34866 -18.9336 1
    endloop
  endfacet
  facet normal 0 0 1
    outer loop
      vertex 3.27663 -22.0542 1
      vertex 1.86273 -19.2544 1
      vertex 2.06393 -22.3886 1
    endloop
  endfacet
  facet normal -0 0 1
    outer loop
      vertex 1.33261 -19.4469 1
      vertex 2.06393 -22.3886 1
      vertex 1.86273 -19.2544 1
    endloop
  endfacet
  facet normal 0 0 1
    outer loop
      vertex 0.719757 -22.5001 1
      vertex 1.33261 -19.4469 1
      vertex 0.758331 -19.511 1
    endloop
  endfacet
  facet normal 0 0 1
    outer loop
      vertex 1.33261 -19.4469 1
      vertex 0.719757 -22.5001 1
      vertex 2.06393 -22.3886 1
    endloop
  endfacet
  facet normal 0 0 1
    outer loop
      vertex 0.264816 -19.479 1
      vertex 0.719757 -22.5001 1
      vertex 0.758331 -19.511 1
    endloop
  endfacet
  facet normal 0 0 1
    outer loop
      vertex -0.279541 -22.4532 1
      vertex 0.264816 -19.479 1
      vertex -0.192383 -19.3827 1
    endloop
  endfacet
  facet normal 0 0 1
    outer loop
      vertex 0.264816 -19.479 1
      vertex -0.279541 -22.4532 1
      vertex 0.719757 -22.5001 1
    endloop
  endfacet
  facet normal 0 0 1
    outer loop
      vertex -1.20866 -22.3124 1
      vertex -0.192383 -19.3827 1
      vertex -0.613342 -19.2223 1
    endloop
  endfacet
  facet normal 0 0 1
    outer loop
      vertex -2.06758 -22.0777 1
      vertex -0.613342 -19.2223 1
      vertex -0.998001 -18.9978 1
    endloop
  endfacet
  facet normal 0 0 1
    outer loop
      vertex -0.192383 -19.3827 1
      vertex -1.20866 -22.3124 1
      vertex -0.279541 -22.4532 1
    endloop
  endfacet
  facet normal 0 0 1
    outer loop
      vertex -2.85629 -21.7492 1
      vertex -0.998001 -18.9978 1
      vertex -1.34639 -18.7091 1
    endloop
  endfacet
  facet normal 0 0 1
    outer loop
      vertex -2.85629 -21.7492 1
      vertex -1.34639 -18.7091 1
      vertex -1.65851 -18.3562 1
    endloop
  endfacet
  facet normal 0 0 1
    outer loop
      vertex -2.85629 -21.7492 1
      vertex -1.65851 -18.3562 1
      vertex -1.93434 -17.9392 1
    endloop
  endfacet
  facet normal 0 0 1
    outer loop
      vertex -0.613342 -19.2223 1
      vertex -2.06758 -22.0777 1
      vertex -1.20866 -22.3124 1
    endloop
  endfacet
  facet normal 0 0 1
    outer loop
      vertex -2.85629 -21.7492 1
      vertex -1.93434 -17.9392 1
      vertex -2.17363 -17.463 1
    endloop
  endfacet
  facet normal 0 0 1
    outer loop
      vertex -2.85629 -21.7492 1
      vertex -2.17363 -17.463 1
      vertex -2.3761 -16.9326 1
    endloop
  endfacet
  facet normal 0 0 1
    outer loop
      vertex -2.85629 -21.7492 1
      vertex -2.3761 -16.9326 1
      vertex -2.54176 -16.348 1
    endloop
  endfacet
  facet normal 0 0 1
    outer loop
      vertex -2.85629 -21.7492 1
      vertex -2.54176 -16.348 1
      vertex -2.67061 -15.7093 1
    endloop
  endfacet
  facet normal 0 0 1
    outer loop
      vertex -2.85629 -21.7492 1
      vertex -2.67061 -15.7093 1
      vertex -2.76265 -15.0165 1
    endloop
  endfacet
  facet normal 0 0 1
    outer loop
      vertex -0.998001 -18.9978 1
      vertex -2.85629 -21.7492 1
      vertex -2.06758 -22.0777 1
    endloop
  endfacet
  facet normal 0 0 1
    outer loop
      vertex -2.81786 -14.2695 1
      vertex -2.85629 -21.7492 1
      vertex -2.76265 -15.0165 1
    endloop
  endfacet
  facet normal 0 0 1
    outer loop
      vertex -2.85629 -21.7492 1
      vertex -2.81786 -14.2695 1
      vertex -2.83627 -13.4683 1
    endloop
  endfacet
  facet normal 0.265827 -0.964021 0
    outer loop
      vertex 2.06393 -22.3886 0
      vertex 3.27663 -22.0542 1
      vertex 2.06393 -22.3886 1
    endloop
  endfacet
  facet normal 0.265827 -0.964021 0
    outer loop
      vertex 3.27663 -22.0542 1
      vertex 2.06393 -22.3886 0
      vertex 3.27663 -22.0542 0
    endloop
  endfacet
  facet normal 0.458286 -0.888805 0
    outer loop
      vertex 3.27663 -22.0542 0
      vertex 4.35785 -21.4967 1
      vertex 3.27663 -22.0542 1
    endloop
  endfacet
  facet normal 0.458286 -0.888805 0
    outer loop
      vertex 4.35785 -21.4967 1
      vertex 3.27663 -22.0542 0
      vertex 4.35785 -21.4967 0
    endloop
  endfacet
  facet normal 0.634852 -0.772634 0
    outer loop
      vertex 4.35785 -21.4967 0
      vertex 5.30762 -20.7163 1
      vertex 4.35785 -21.4967 1
    endloop
  endfacet
  facet normal 0.634852 -0.772634 0
    outer loop
      vertex 5.30762 -20.7163 1
      vertex 4.35785 -21.4967 0
      vertex 5.30762 -20.7163 0
    endloop
  endfacet
  facet normal 0.774941 -0.632033 0
    outer loop
      vertex 5.30762 -20.7163 1
      vertex 6.1259 -19.713 0
      vertex 6.1259 -19.713 1
    endloop
  endfacet
  facet normal 0.774941 -0.632033 0
    outer loop
      vertex 6.1259 -19.713 0
      vertex 5.30762 -20.7163 1
      vertex 5.30762 -20.7163 0
    endloop
  endfacet
  facet normal 0.872501 -0.488612 0
    outer loop
      vertex 6.1259 -19.713 1
      vertex 6.8127 -18.4866 0
      vertex 6.8127 -18.4866 1
    endloop
  endfacet
  facet normal 0.872501 -0.488612 0
    outer loop
      vertex 6.8127 -18.4866 0
      vertex 6.1259 -19.713 1
      vertex 6.1259 -19.713 0
    endloop
  endfacet
  facet normal 0.933803 -0.357788 0
    outer loop
      vertex 6.8127 -18.4866 1
      vertex 7.36804 -17.0372 0
      vertex 7.36804 -17.0372 1
    endloop
  endfacet
  facet normal 0.933803 -0.357788 0
    outer loop
      vertex 7.36804 -17.0372 0
      vertex 6.8127 -18.4866 1
      vertex 6.8127 -18.4866 0
    endloop
  endfacet
  facet normal 0.187141 0.982333 -0
    outer loop
      vertex 7.36804 -17.0372 0
      vertex 3.85057 -16.3671 1
      vertex 7.36804 -17.0372 1
    endloop
  endfacet
  facet normal 0.187141 0.982333 0
    outer loop
      vertex 3.85057 -16.3671 1
      vertex 7.36804 -17.0372 0
      vertex 3.85057 -16.3671 0
    endloop
  endfacet
  facet normal -0.937648 0.347585 0
    outer loop
      vertex 3.54137 -17.2012 0
      vertex 3.85057 -16.3671 1
      vertex 3.85057 -16.3671 0
    endloop
  endfacet
  facet normal -0.937648 0.347585 0
    outer loop
      vertex 3.85057 -16.3671 1
      vertex 3.54137 -17.2012 0
      vertex 3.54137 -17.2012 1
    endloop
  endfacet
  facet normal -0.894174 0.44772 0
    outer loop
      vertex 3.18797 -17.907 0
      vertex 3.54137 -17.2012 1
      vertex 3.54137 -17.2012 0
    endloop
  endfacet
  facet normal -0.894174 0.44772 0
    outer loop
      vertex 3.54137 -17.2012 1
      vertex 3.18797 -17.907 0
      vertex 3.18797 -17.907 1
    endloop
  endfacet
  facet normal -0.82369 0.567041 0
    outer loop
      vertex 2.79041 -18.4845 0
      vertex 3.18797 -17.907 1
      vertex 3.18797 -17.907 0
    endloop
  endfacet
  facet normal -0.82369 0.567041 0
    outer loop
      vertex 3.18797 -17.907 1
      vertex 2.79041 -18.4845 0
      vertex 2.79041 -18.4845 1
    endloop
  endfacet
  facet normal -0.712917 0.701249 0
    outer loop
      vertex 2.34866 -18.9336 0
      vertex 2.79041 -18.4845 1
      vertex 2.79041 -18.4845 0
    endloop
  endfacet
  facet normal -0.712917 0.701249 0
    outer loop
      vertex 2.79041 -18.4845 1
      vertex 2.34866 -18.9336 0
      vertex 2.34866 -18.9336 1
    endloop
  endfacet
  facet normal -0.550945 0.834541 0
    outer loop
      vertex 2.34866 -18.9336 0
      vertex 1.86273 -19.2544 1
      vertex 2.34866 -18.9336 1
    endloop
  endfacet
  facet normal -0.550945 0.834541 0
    outer loop
      vertex 1.86273 -19.2544 1
      vertex 2.34866 -18.9336 0
      vertex 1.86273 -19.2544 0
    endloop
  endfacet
  facet normal -0.341319 0.939948 0
    outer loop
      vertex 1.86273 -19.2544 0
      vertex 1.33261 -19.4469 1
      vertex 1.86273 -19.2544 1
    endloop
  endfacet
  facet normal -0.341319 0.939948 0
    outer loop
      vertex 1.33261 -19.4469 1
      vertex 1.86273 -19.2544 0
      vertex 1.33261 -19.4469 0
    endloop
  endfacet
  facet normal -0.110929 0.993828 0
    outer loop
      vertex 1.33261 -19.4469 0
      vertex 0.758331 -19.511 1
      vertex 1.33261 -19.4469 1
    endloop
  endfacet
  facet normal -0.110929 0.993828 0
    outer loop
      vertex 0.758331 -19.511 1
      vertex 1.33261 -19.4469 0
      vertex 0.758331 -19.511 0
    endloop
  endfacet
  facet normal 0.0647051 0.997904 -0
    outer loop
      vertex 0.758331 -19.511 0
      vertex 0.264816 -19.479 1
      vertex 0.758331 -19.511 1
    endloop
  endfacet
  facet normal 0.0647051 0.997904 0
    outer loop
      vertex 0.264816 -19.479 1
      vertex 0.758331 -19.511 0
      vertex 0.264816 -19.479 0
    endloop
  endfacet
  facet normal 0.206108 0.978529 -0
    outer loop
      vertex 0.264816 -19.479 0
      vertex -0.192383 -19.3827 1
      vertex 0.264816 -19.479 1
    endloop
  endfacet
  facet normal 0.206108 0.978529 0
    outer loop
      vertex -0.192383 -19.3827 1
      vertex 0.264816 -19.479 0
      vertex -0.192383 -19.3827 0
    endloop
  endfacet
  facet normal 0.356063 0.934462 -0
    outer loop
      vertex -0.192383 -19.3827 0
      vertex -0.613342 -19.2223 1
      vertex -0.192383 -19.3827 1
    endloop
  endfacet
  facet normal 0.356063 0.934462 0
    outer loop
      vertex -0.613342 -19.2223 1
      vertex -0.192383 -19.3827 0
      vertex -0.613342 -19.2223 0
    endloop
  endfacet
  facet normal 0.504065 0.863666 -0
    outer loop
      vertex -0.613342 -19.2223 0
      vertex -0.998001 -18.9978 1
      vertex -0.613342 -19.2223 1
    endloop
  endfacet
  facet normal 0.504065 0.863666 0
    outer loop
      vertex -0.998001 -18.9978 1
      vertex -0.613342 -19.2223 0
      vertex -0.998001 -18.9978 0
    endloop
  endfacet
  facet normal 0.638064 0.769984 -0
    outer loop
      vertex -0.998001 -18.9978 0
      vertex -1.34639 -18.7091 1
      vertex -0.998001 -18.9978 1
    endloop
  endfacet
  facet normal 0.638064 0.769984 0
    outer loop
      vertex -1.34639 -18.7091 1
      vertex -0.998001 -18.9978 0
      vertex -1.34639 -18.7091 0
    endloop
  endfacet
  facet normal 0.749061 0.662502 0
    outer loop
      vertex -1.34639 -18.7091 1
      vertex -1.65851 -18.3562 0
      vertex -1.65851 -18.3562 1
    endloop
  endfacet
  facet normal 0.749061 0.662502 0
    outer loop
      vertex -1.65851 -18.3562 0
      vertex -1.34639 -18.7091 1
      vertex -1.34639 -18.7091 0
    endloop
  endfacet
  facet normal 0.834048 0.551692 0
    outer loop
      vertex -1.65851 -18.3562 1
      vertex -1.93434 -17.9392 0
      vertex -1.93434 -17.9392 1
    endloop
  endfacet
  facet normal 0.834048 0.551692 0
    outer loop
      vertex -1.93434 -17.9392 0
      vertex -1.65851 -18.3562 1
      vertex -1.65851 -18.3562 0
    endloop
  endfacet
  facet normal 0.893532 0.448999 0
    outer loop
      vertex -1.93434 -17.9392 1
      vertex -2.17363 -17.463 0
      vertex -2.17363 -17.463 1
    endloop
  endfacet
  facet normal 0.893532 0.448999 0
    outer loop
      vertex -2.17363 -17.463 0
      vertex -1.93434 -17.9392 1
      vertex -1.93434 -17.9392 0
    endloop
  endfacet
  facet normal 0.934246 0.35663 0
    outer loop
      vertex -2.17363 -17.463 1
      vertex -2.3761 -16.9326 0
      vertex -2.3761 -16.9326 1
    endloop
  endfacet
  facet normal 0.934246 0.35663 0
    outer loop
      vertex -2.3761 -16.9326 0
      vertex -2.17363 -17.463 1
      vertex -2.17363 -17.463 0
    endloop
  endfacet
  facet normal 0.962117 0.272638 0
    outer loop
      vertex -2.3761 -16.9326 1
      vertex -2.54176 -16.348 0
      vertex -2.54176 -16.348 1
    endloop
  endfacet
  facet normal 0.962117 0.272638 0
    outer loop
      vertex -2.54176 -16.348 0
      vertex -2.3761 -16.9326 1
      vertex -2.3761 -16.9326 0
    endloop
  endfacet
  facet normal 0.980252 0.197754 0
    outer loop
      vertex -2.54176 -16.348 1
      vertex -2.67061 -15.7093 0
      vertex -2.67061 -15.7093 1
    endloop
  endfacet
  facet normal 0.980252 0.197754 0
    outer loop
      vertex -2.67061 -15.7093 0
      vertex -2.54176 -16.348 1
      vertex -2.54176 -16.348 0
    endloop
  endfacet
  facet normal 0.99129 0.131695 0
    outer loop
      vertex -2.67061 -15.7093 1
      vertex -2.76265 -15.0165 0
      vertex -2.76265 -15.0165 1
    endloop
  endfacet
  facet normal 0.99129 0.131695 0
    outer loop
      vertex -2.76265 -15.0165 0
      vertex -2.67061 -15.7093 1
      vertex -2.67061 -15.7093 0
    endloop
  endfacet
  facet normal 0.99728 0.0737079 0
    outer loop
      vertex -2.76265 -15.0165 1
      vertex -2.81786 -14.2695 0
      vertex -2.81786 -14.2695 1
    endloop
  endfacet
  facet normal 0.99728 0.0737079 0
    outer loop
      vertex -2.81786 -14.2695 0
      vertex -2.76265 -15.0165 1
      vertex -2.76265 -15.0165 0
    endloop
  endfacet
  facet normal 0.999736 0.022972 0
    outer loop
      vertex -2.81786 -14.2695 1
      vertex -2.83627 -13.4683 0
      vertex -2.83627 -13.4683 1
    endloop
  endfacet
  facet normal 0.999736 0.022972 0
    outer loop
      vertex -2.83627 -13.4683 0
      vertex -2.81786 -14.2695 1
      vertex -2.81786 -14.2695 0
    endloop
  endfacet
  facet normal 0.998954 -0.0457273 0
    outer loop
      vertex -2.83627 -13.4683 1
      vertex -2.76476 -11.9061 0
      vertex -2.76476 -11.9061 1
    endloop
  endfacet
  facet normal 0.998954 -0.0457273 0
    outer loop
      vertex -2.76476 -11.9061 0
      vertex -2.83627 -13.4683 1
      vertex -2.83627 -13.4683 0
    endloop
  endfacet
  facet normal 0.987081 -0.160222 0
    outer loop
      vertex -2.76476 -11.9061 1
      vertex -2.55019 -10.5842 0
      vertex -2.55019 -10.5842 1
    endloop
  endfacet
  facet normal 0.987081 -0.160222 0
    outer loop
      vertex -2.55019 -10.5842 0
      vertex -2.76476 -11.9061 1
      vertex -2.76476 -11.9061 0
    endloop
  endfacet
  facet normal 0.94944 -0.313949 0
    outer loop
      vertex -2.55019 -10.5842 1
      vertex -2.19258 -9.50272 0
      vertex -2.19258 -9.50272 1
    endloop
  endfacet
  facet normal 0.94944 -0.313949 0
    outer loop
      vertex -2.19258 -9.50272 0
      vertex -2.55019 -10.5842 1
      vertex -2.55019 -10.5842 0
    endloop
  endfacet
  facet normal 0.859319 -0.51144 0
    outer loop
      vertex -2.19258 -9.50272 1
      vertex -1.69193 -8.66153 0
      vertex -1.69193 -8.66153 1
    endloop
  endfacet
  facet normal 0.859319 -0.51144 0
    outer loop
      vertex -1.69193 -8.66153 0
      vertex -2.19258 -9.50272 1
      vertex -2.19258 -9.50272 0
    endloop
  endfacet
  facet normal 0.682357 -0.731019 0
    outer loop
      vertex -1.69193 -8.66153 0
      vertex -1.04823 -8.06068 1
      vertex -1.69193 -8.66153 1
    endloop
  endfacet
  facet normal 0.682357 -0.731019 0
    outer loop
      vertex -1.04823 -8.06068 1
      vertex -1.69193 -8.66153 0
      vertex -1.04823 -8.06068 0
    endloop
  endfacet
  facet normal 0.416595 -0.909092 0
    outer loop
      vertex -1.04823 -8.06068 0
      vertex -0.261505 -7.70016 1
      vertex -1.04823 -8.06068 1
    endloop
  endfacet
  facet normal 0.416595 -0.909092 0
    outer loop
      vertex -0.261505 -7.70016 1
      vertex -1.04823 -8.06068 0
      vertex -0.261505 -7.70016 0
    endloop
  endfacet
  facet normal 0.128171 -0.991752 0
    outer loop
      vertex -0.261505 -7.70016 0
      vertex 0.668259 -7.58 1
      vertex -0.261505 -7.70016 1
    endloop
  endfacet
  facet normal 0.128171 -0.991752 0
    outer loop
      vertex 0.668259 -7.58 1
      vertex -0.261505 -7.70016 0
      vertex 0.668259 -7.58 0
    endloop
  endfacet
  facet normal -0.0565291 -0.998401 0
    outer loop
      vertex 0.668259 -7.58 0
      vertex 0.939896 -7.59538 1
      vertex 0.668259 -7.58 1
    endloop
  endfacet
  facet normal -0.0565291 -0.998401 -0
    outer loop
      vertex 0.939896 -7.59538 1
      vertex 0.668259 -7.58 0
      vertex 0.939896 -7.59538 0
    endloop
  endfacet
  facet normal -0.173036 -0.984915 0
    outer loop
      vertex 0.939896 -7.59538 0
      vertex 1.20258 -7.64153 1
      vertex 0.939896 -7.59538 1
    endloop
  endfacet
  facet normal -0.173036 -0.984915 -0
    outer loop
      vertex 1.20258 -7.64153 1
      vertex 0.939896 -7.59538 0
      vertex 1.20258 -7.64153 0
    endloop
  endfacet
  facet normal -0.290084 -0.957001 0
    outer loop
      vertex 1.20258 -7.64153 0
      vertex 1.45631 -7.71844 1
      vertex 1.20258 -7.64153 1
    endloop
  endfacet
  facet normal -0.290084 -0.957001 -0
    outer loop
      vertex 1.45631 -7.71844 1
      vertex 1.20258 -7.64153 0
      vertex 1.45631 -7.71844 0
    endloop
  endfacet
  facet normal -0.402579 -0.915385 0
    outer loop
      vertex 1.45631 -7.71844 0
      vertex 1.70113 -7.82611 1
      vertex 1.45631 -7.71844 1
    endloop
  endfacet
  facet normal -0.402579 -0.915385 -0
    outer loop
      vertex 1.70113 -7.82611 1
      vertex 1.45631 -7.71844 0
      vertex 1.70113 -7.82611 0
    endloop
  endfacet
  facet normal -0.506218 -0.862406 0
    outer loop
      vertex 1.70113 -7.82611 0
      vertex 1.93698 -7.96455 1
      vertex 1.70113 -7.82611 1
    endloop
  endfacet
  facet normal -0.506218 -0.862406 -0
    outer loop
      vertex 1.93698 -7.96455 1
      vertex 1.70113 -7.82611 0
      vertex 1.93698 -7.96455 0
    endloop
  endfacet
  facet normal -0.597799 -0.801646 0
    outer loop
      vertex 1.93698 -7.96455 0
      vertex 2.16389 -8.13376 1
      vertex 1.93698 -7.96455 1
    endloop
  endfacet
  facet normal -0.597799 -0.801646 -0
    outer loop
      vertex 2.16389 -8.13376 1
      vertex 1.93698 -7.96455 0
      vertex 2.16389 -8.13376 0
    endloop
  endfacet
  facet normal -0.675974 -0.736925 0
    outer loop
      vertex 2.16389 -8.13376 0
      vertex 2.38188 -8.33372 1
      vertex 2.16389 -8.13376 1
    endloop
  endfacet
  facet normal -0.675974 -0.736925 -0
    outer loop
      vertex 2.38188 -8.33372 1
      vertex 2.16389 -8.13376 0
      vertex 2.38188 -8.33372 0
    endloop
  endfacet
  facet normal -0.742004 -0.670396 0
    outer loop
      vertex 2.58775 -8.56158 0
      vertex 2.38188 -8.33372 1
      vertex 2.38188 -8.33372 0
    endloop
  endfacet
  facet normal -0.742004 -0.670396 0
    outer loop
      vertex 2.38188 -8.33372 1
      vertex 2.58775 -8.56158 0
      vertex 2.58775 -8.56158 1
    endloop
  endfacet
  facet normal -0.79844 -0.602075 0
    outer loop
      vertex 2.7784 -8.81441 0
      vertex 2.58775 -8.56158 1
      vertex 2.58775 -8.56158 0
    endloop
  endfacet
  facet normal -0.79844 -0.602075 0
    outer loop
      vertex 2.58775 -8.56158 1
      vertex 2.7784 -8.81441 0
      vertex 2.7784 -8.81441 1
    endloop
  endfacet
  facet normal -0.845597 -0.533821 0
    outer loop
      vertex 2.95378 -9.09222 0
      vertex 2.7784 -8.81441 1
      vertex 2.7784 -8.81441 0
    endloop
  endfacet
  facet normal -0.845597 -0.533821 0
    outer loop
      vertex 2.7784 -8.81441 1
      vertex 2.95378 -9.09222 0
      vertex 2.95378 -9.09222 1
    endloop
  endfacet
  facet normal -0.883994 -0.467497 0
    outer loop
      vertex 3.11392 -9.39503 0
      vertex 2.95378 -9.09222 1
      vertex 2.95378 -9.09222 0
    endloop
  endfacet
  facet normal -0.883994 -0.467497 0
    outer loop
      vertex 2.95378 -9.09222 1
      vertex 3.11392 -9.39503 0
      vertex 3.11392 -9.39503 1
    endloop
  endfacet
  facet normal -0.914622 -0.40431 0
    outer loop
      vertex 3.25882 -9.72282 0
      vertex 3.11392 -9.39503 1
      vertex 3.11392 -9.39503 0
    endloop
  endfacet
  facet normal -0.914622 -0.40431 0
    outer loop
      vertex 3.11392 -9.39503 1
      vertex 3.25882 -9.72282 0
      vertex 3.25882 -9.72282 1
    endloop
  endfacet
  facet normal -0.93862 -0.344952 0
    outer loop
      vertex 3.38847 -10.0756 0
      vertex 3.25882 -9.72282 1
      vertex 3.25882 -9.72282 0
    endloop
  endfacet
  facet normal -0.93862 -0.344952 0
    outer loop
      vertex 3.25882 -9.72282 1
      vertex 3.38847 -10.0756 0
      vertex 3.38847 -10.0756 1
    endloop
  endfacet
  facet normal -0.957084 -0.289811 0
    outer loop
      vertex 3.50287 -10.4534 0
      vertex 3.38847 -10.0756 1
      vertex 3.38847 -10.0756 0
    endloop
  endfacet
  facet normal -0.957084 -0.289811 0
    outer loop
      vertex 3.38847 -10.0756 1
      vertex 3.50287 -10.4534 0
      vertex 3.50287 -10.4534 1
    endloop
  endfacet
  facet normal 0.235828 -0.971795 0
    outer loop
      vertex 3.50287 -10.4534 0
      vertex 7.00743 -9.60294 1
      vertex 3.50287 -10.4534 1
    endloop
  endfacet
  facet normal 0.235828 -0.971795 0
    outer loop
      vertex 7.00743 -9.60294 1
      vertex 3.50287 -10.4534 0
      vertex 7.00743 -9.60294 0
    endloop
  endfacet
  facet normal 0.946092 0.323898 0
    outer loop
      vertex 7.00743 -9.60294 1
      vertex 6.77274 -8.91742 0
      vertex 6.77274 -8.91742 1
    endloop
  endfacet
  facet normal 0.946092 0.323898 0
    outer loop
      vertex 6.77274 -8.91742 0
      vertex 7.00743 -9.60294 1
      vertex 7.00743 -9.60294 0
    endloop
  endfacet
  facet normal 0.920563 0.390595 0
    outer loop
      vertex 6.77274 -8.91742 1
      vertex 6.50308 -8.28188 0
      vertex 6.50308 -8.28188 1
    endloop
  endfacet
  facet normal 0.920563 0.390595 0
    outer loop
      vertex 6.50308 -8.28188 0
      vertex 6.77274 -8.91742 1
      vertex 6.77274 -8.91742 0
    endloop
  endfacet
  facet normal 0.887131 0.461518 0
    outer loop
      vertex 6.50308 -8.28188 1
      vertex 6.19844 -7.6963 0
      vertex 6.19844 -7.6963 1
    endloop
  endfacet
  facet normal 0.887131 0.461518 0
    outer loop
      vertex 6.19844 -7.6963 0
      vertex 6.50308 -8.28188 1
      vertex 6.50308 -8.28188 0
    endloop
  endfacet
  facet normal 0.844541 0.535491 0
    outer loop
      vertex 6.19844 -7.6963 1
      vertex 5.85883 -7.16069 0
      vertex 5.85883 -7.16069 1
    endloop
  endfacet
  facet normal 0.844541 0.535491 0
    outer loop
      vertex 5.85883 -7.16069 0
      vertex 6.19844 -7.6963 1
      vertex 6.19844 -7.6963 0
    endloop
  endfacet
  facet normal 0.791819 0.610756 0
    outer loop
      vertex 5.85883 -7.16069 1
      vertex 5.48424 -6.67505 0
      vertex 5.48424 -6.67505 1
    endloop
  endfacet
  facet normal 0.791819 0.610756 0
    outer loop
      vertex 5.48424 -6.67505 0
      vertex 5.85883 -7.16069 1
      vertex 5.85883 -7.16069 0
    endloop
  endfacet
  facet normal 0.728602 0.684937 0
    outer loop
      vertex 5.48424 -6.67505 1
      vertex 5.07468 -6.23938 0
      vertex 5.07468 -6.23938 1
    endloop
  endfacet
  facet normal 0.728602 0.684937 0
    outer loop
      vertex 5.07468 -6.23938 0
      vertex 5.48424 -6.67505 1
      vertex 5.48424 -6.67505 0
    endloop
  endfacet
  facet normal 0.655359 0.755317 -0
    outer loop
      vertex 5.07468 -6.23938 0
      vertex 4.63014 -5.85367 1
      vertex 5.07468 -6.23938 1
    endloop
  endfacet
  facet normal 0.655359 0.755317 0
    outer loop
      vertex 4.63014 -5.85367 1
      vertex 5.07468 -6.23938 0
      vertex 4.63014 -5.85367 0
    endloop
  endfacet
  facet normal 0.57405 0.81882 -0
    outer loop
      vertex 4.63014 -5.85367 0
      vertex 4.15227 -5.51865 1
      vertex 4.63014 -5.85367 1
    endloop
  endfacet
  facet normal 0.57405 0.81882 0
    outer loop
      vertex 4.15227 -5.51865 1
      vertex 4.63014 -5.85367 0
      vertex 4.15227 -5.51865 0
    endloop
  endfacet
  facet normal 0.486033 0.87394 -0
    outer loop
      vertex 4.15227 -5.51865 0
      vertex 3.64256 -5.23518 1
      vertex 4.15227 -5.51865 1
    endloop
  endfacet
  facet normal 0.486033 0.87394 0
    outer loop
      vertex 3.64256 -5.23518 1
      vertex 4.15227 -5.51865 0
      vertex 3.64256 -5.23518 0
    endloop
  endfacet
  facet normal 0.393704 0.919237 -0
    outer loop
      vertex 3.64256 -5.23518 0
      vertex 3.10104 -5.00325 1
      vertex 3.64256 -5.23518 1
    endloop
  endfacet
  facet normal 0.393704 0.919237 0
    outer loop
      vertex 3.10104 -5.00325 1
      vertex 3.64256 -5.23518 0
      vertex 3.10104 -5.00325 0
    endloop
  endfacet
  facet normal 0.3001 0.953908 -0
    outer loop
      vertex 3.10104 -5.00325 0
      vertex 2.52771 -4.82288 1
      vertex 3.10104 -5.00325 1
    endloop
  endfacet
  facet normal 0.3001 0.953908 0
    outer loop
      vertex 2.52771 -4.82288 1
      vertex 3.10104 -5.00325 0
      vertex 2.52771 -4.82288 0
    endloop
  endfacet
  facet normal 0.208266 0.978072 -0
    outer loop
      vertex 2.52771 -4.82288 0
      vertex 1.92255 -4.69402 1
      vertex 2.52771 -4.82288 1
    endloop
  endfacet
  facet normal 0.208266 0.978072 0
    outer loop
      vertex 1.92255 -4.69402 1
      vertex 2.52771 -4.82288 0
      vertex 1.92255 -4.69402 0
    endloop
  endfacet
  facet normal 0.120485 0.992715 -0
    outer loop
      vertex 1.92255 -4.69402 0
      vertex 1.28557 -4.61671 1
      vertex 1.92255 -4.69402 1
    endloop
  endfacet
  facet normal 0.120485 0.992715 0
    outer loop
      vertex 1.28557 -4.61671 1
      vertex 1.92255 -4.69402 0
      vertex 1.28557 -4.61671 0
    endloop
  endfacet
  facet normal 0.0385035 0.999258 -0
    outer loop
      vertex 1.28557 -4.61671 0
      vertex 0.616776 -4.59094 1
      vertex 1.28557 -4.61671 1
    endloop
  endfacet
  facet normal 0.0385035 0.999258 0
    outer loop
      vertex 0.616776 -4.59094 1
      vertex 1.28557 -4.61671 0
      vertex 0.616776 -4.59094 0
    endloop
  endfacet
  facet normal -0.0929058 0.995675 0
    outer loop
      vertex 0.616776 -4.59094 0
      vertex -1.32483 -4.77211 1
      vertex 0.616776 -4.59094 1
    endloop
  endfacet
  facet normal -0.0929058 0.995675 0
    outer loop
      vertex -1.32483 -4.77211 1
      vertex 0.616776 -4.59094 0
      vertex -1.32483 -4.77211 0
    endloop
  endfacet
  facet normal -0.314076 0.949398 0
    outer loop
      vertex -1.32483 -4.77211 0
      vertex -2.96774 -5.31561 1
      vertex -1.32483 -4.77211 1
    endloop
  endfacet
  facet normal -0.314076 0.949398 0
    outer loop
      vertex -2.96774 -5.31561 1
      vertex -1.32483 -4.77211 0
      vertex -2.96774 -5.31561 0
    endloop
  endfacet
  facet normal -0.558848 0.82927 0
    outer loop
      vertex -2.96774 -5.31561 0
      vertex -4.31194 -6.22147 1
      vertex -2.96774 -5.31561 1
    endloop
  endfacet
  facet normal -0.558848 0.82927 0
    outer loop
      vertex -4.31194 -6.22147 1
      vertex -2.96774 -5.31561 0
      vertex -4.31194 -6.22147 0
    endloop
  endfacet
  facet normal -0.771597 0.636112 0
    outer loop
      vertex -5.35744 -7.48965 0
      vertex -4.31194 -6.22147 1
      vertex -4.31194 -6.22147 0
    endloop
  endfacet
  facet normal -0.771597 0.636112 0
    outer loop
      vertex -4.31194 -6.22147 1
      vertex -5.35744 -7.48965 0
      vertex -5.35744 -7.48965 1
    endloop
  endfacet
  facet normal -0.909185 0.416392 0
    outer loop
      vertex -6.1042 -9.12019 0
      vertex -5.35744 -7.48965 1
      vertex -5.35744 -7.48965 0
    endloop
  endfacet
  facet normal -0.909185 0.416392 0
    outer loop
      vertex -5.35744 -7.48965 1
      vertex -6.1042 -9.12019 0
      vertex -6.1042 -9.12019 1
    endloop
  endfacet
  facet normal -0.975644 0.219361 0
    outer loop
      vertex -6.55228 -11.1131 0
      vertex -6.1042 -9.12019 1
      vertex -6.1042 -9.12019 0
    endloop
  endfacet
  facet normal -0.975644 0.219361 0
    outer loop
      vertex -6.1042 -9.12019 1
      vertex -6.55228 -11.1131 0
      vertex -6.55228 -11.1131 1
    endloop
  endfacet
  facet normal -0.997995 0.0632858 0
    outer loop
      vertex -6.70163 -13.4683 0
      vertex -6.55228 -11.1131 1
      vertex -6.55228 -11.1131 0
    endloop
  endfacet
  facet normal -0.997995 0.0632858 0
    outer loop
      vertex -6.55228 -11.1131 1
      vertex -6.70163 -13.4683 0
      vertex -6.70163 -13.4683 1
    endloop
  endfacet
  facet normal -0.999497 -0.0317063 0
    outer loop
      vertex -6.66284 -14.6911 0
      vertex -6.70163 -13.4683 1
      vertex -6.70163 -13.4683 0
    endloop
  endfacet
  facet normal -0.999497 -0.0317063 0
    outer loop
      vertex -6.70163 -13.4683 1
      vertex -6.66284 -14.6911 0
      vertex -6.66284 -14.6911 1
    endloop
  endfacet
  facet normal -0.994794 -0.101906 0
    outer loop
      vertex -6.54649 -15.8269 0
      vertex -6.66284 -14.6911 1
      vertex -6.66284 -14.6911 0
    endloop
  endfacet
  facet normal -0.994794 -0.101906 0
    outer loop
      vertex -6.66284 -14.6911 1
      vertex -6.54649 -15.8269 0
      vertex -6.54649 -15.8269 1
    endloop
  endfacet
  facet normal -0.983331 -0.181823 0
    outer loop
      vertex -6.35258 -16.8756 0
      vertex -6.54649 -15.8269 1
      vertex -6.54649 -15.8269 0
    endloop
  endfacet
  facet normal -0.983331 -0.181823 0
    outer loop
      vertex -6.54649 -15.8269 1
      vertex -6.35258 -16.8756 0
      vertex -6.35258 -16.8756 1
    endloop
  endfacet
  facet normal -0.962397 -0.271648 0
    outer loop
      vertex -6.0811 -17.8374 0
      vertex -6.35258 -16.8756 1
      vertex -6.35258 -16.8756 0
    endloop
  endfacet
  facet normal -0.962397 -0.271648 0
    outer loop
      vertex -6.35258 -16.8756 1
      vertex -6.0811 -17.8374 0
      vertex -6.0811 -17.8374 1
    endloop
  endfacet
  facet normal -0.928784 -0.370622 0
    outer loop
      vertex -5.73206 -18.7121 0
      vertex -6.0811 -17.8374 1
      vertex -6.0811 -17.8374 0
    endloop
  endfacet
  facet normal -0.928784 -0.370622 0
    outer loop
      vertex -6.0811 -17.8374 1
      vertex -5.73206 -18.7121 0
      vertex -5.73206 -18.7121 1
    endloop
  endfacet
  facet normal -0.87929 -0.476286 0
    outer loop
      vertex -5.30544 -19.4997 0
      vertex -5.73206 -18.7121 1
      vertex -5.73206 -18.7121 0
    endloop
  endfacet
  facet normal -0.87929 -0.476286 0
    outer loop
      vertex -5.73206 -18.7121 1
      vertex -5.30544 -19.4997 0
      vertex -5.30544 -19.4997 1
    endloop
  endfacet
  facet normal -0.811707 -0.584065 0
    outer loop
      vertex -4.80125 -20.2004 0
      vertex -5.30544 -19.4997 1
      vertex -5.30544 -19.4997 0
    endloop
  endfacet
  facet normal -0.811707 -0.584065 0
    outer loop
      vertex -5.30544 -19.4997 1
      vertex -4.80125 -20.2004 0
      vertex -4.80125 -20.2004 1
    endloop
  endfacet
  facet normal -0.725875 -0.687826 0
    outer loop
      vertex -4.22313 -20.8105 0
      vertex -4.80125 -20.2004 1
      vertex -4.80125 -20.2004 0
    endloop
  endfacet
  facet normal -0.725875 -0.687826 0
    outer loop
      vertex -4.80125 -20.2004 1
      vertex -4.22313 -20.8105 0
      vertex -4.22313 -20.8105 1
    endloop
  endfacet
  facet normal -0.62296 -0.782254 0
    outer loop
      vertex -4.22313 -20.8105 0
      vertex -3.57481 -21.3268 1
      vertex -4.22313 -20.8105 1
    endloop
  endfacet
  facet normal -0.62296 -0.782254 -0
    outer loop
      vertex -3.57481 -21.3268 1
      vertex -4.22313 -20.8105 0
      vertex -3.57481 -21.3268 0
    endloop
  endfacet
  facet normal -0.506789 -0.86207 0
    outer loop
      vertex -3.57481 -21.3268 0
      vertex -2.85629 -21.7492 1
      vertex -3.57481 -21.3268 1
    endloop
  endfacet
  facet normal -0.506789 -0.86207 -0
    outer loop
      vertex -2.85629 -21.7492 1
      vertex -3.57481 -21.3268 0
      vertex -2.85629 -21.7492 0
    endloop
  endfacet
  facet normal -0.384487 -0.923131 0
    outer loop
      vertex -2.85629 -21.7492 0
      vertex -2.06758 -22.0777 1
      vertex -2.85629 -21.7492 1
    endloop
  endfacet
  facet normal -0.384487 -0.923131 -0
    outer loop
      vertex -2.06758 -22.0777 1
      vertex -2.85629 -21.7492 0
      vertex -2.06758 -22.0777 0
    endloop
  endfacet
  facet normal -0.263587 -0.964636 0
    outer loop
      vertex -2.06758 -22.0777 0
      vertex -1.20866 -22.3124 1
      vertex -2.06758 -22.0777 1
    endloop
  endfacet
  facet normal -0.263587 -0.964636 -0
    outer loop
      vertex -1.20866 -22.3124 1
      vertex -2.06758 -22.0777 0
      vertex -1.20866 -22.3124 0
    endloop
  endfacet
  facet normal -0.149831 -0.988712 0
    outer loop
      vertex -1.20866 -22.3124 0
      vertex -0.279541 -22.4532 1
      vertex -1.20866 -22.3124 1
    endloop
  endfacet
  facet normal -0.149831 -0.988712 -0
    outer loop
      vertex -0.279541 -22.4532 1
      vertex -1.20866 -22.3124 0
      vertex -0.279541 -22.4532 0
    endloop
  endfacet
  facet normal -0.0468813 -0.9989 0
    outer loop
      vertex -0.279541 -22.4532 0
      vertex 0.719757 -22.5001 1
      vertex -0.279541 -22.4532 1
    endloop
  endfacet
  facet normal -0.0468813 -0.9989 -0
    outer loop
      vertex 0.719757 -22.5001 1
      vertex -0.279541 -22.4532 0
      vertex 0.719757 -22.5001 0
    endloop
  endfacet
  facet normal 0.0826667 -0.996577 0
    outer loop
      vertex 0.719757 -22.5001 0
      vertex 2.06393 -22.3886 1
      vertex 0.719757 -22.5001 1
    endloop
  endfacet
  facet normal 0.0826667 -0.996577 0
    outer loop
      vertex 2.06393 -22.3886 1
      vertex 0.719757 -22.5001 0
      vertex 2.06393 -22.3886 0
    endloop
  endfacet
endsolid OpenSCAD_Model
