solid OpenSCAD_Model
  facet normal 0 0 -1
    outer loop
      vertex -5.96729 -21.9812 0
      vertex -2.16634 -15.3459 0
      vertex -2.16634 -21.9812 0
    endloop
  endfacet
  facet normal -0 0 -1
    outer loop
      vertex -2.16634 -15.3459 0
      vertex -5.96729 -21.9812 0
      vertex -2.16634 -12.3952 0
    endloop
  endfacet
  facet normal 0 0 -1
    outer loop
      vertex -5.96729 -4.60025 0
      vertex -2.16634 -12.3952 0
      vertex -5.96729 -21.9812 0
    endloop
  endfacet
  facet normal 0 0 -1
    outer loop
      vertex 3.79909 -21.9812 0
      vertex 3.58002 -14.4954 0
      vertex 8.07675 -21.9812 0
    endloop
  endfacet
  facet normal 0 0 -1
    outer loop
      vertex 0.0627289 -15.3459 0
      vertex 3.58002 -14.4954 0
      vertex 3.79909 -21.9812 0
    endloop
  endfacet
  facet normal 0 0 -1
    outer loop
      vertex 3.58002 -14.4954 0
      vertex 3.28195 -10.5683 0
      vertex 3.34822 -9.90865 0
    endloop
  endfacet
  facet normal 0 0 -1
    outer loop
      vertex 3.58002 -14.4954 0
      vertex 3.08316 -11.1265 0
      vertex 3.28195 -10.5683 0
    endloop
  endfacet
  facet normal 0 0 -1
    outer loop
      vertex 3.58002 -14.4954 0
      vertex 2.75185 -11.5832 0
      vertex 3.08316 -11.1265 0
    endloop
  endfacet
  facet normal 0 0 -1
    outer loop
      vertex 3.58002 -14.4954 0
      vertex 2.28799 -11.9385 0
      vertex 2.75185 -11.5832 0
    endloop
  endfacet
  facet normal 0 -0 -1
    outer loop
      vertex 0.962723 -12.3444 0
      vertex 3.58002 -14.4954 0
      vertex 0.0627289 -15.3459 0
    endloop
  endfacet
  facet normal 0 0 -1
    outer loop
      vertex 3.58002 -14.4954 0
      vertex 1.69164 -12.1922 0
      vertex 2.28799 -11.9385 0
    endloop
  endfacet
  facet normal 0 0 -1
    outer loop
      vertex 3.58002 -14.4954 0
      vertex 0.962723 -12.3444 0
      vertex 1.69164 -12.1922 0
    endloop
  endfacet
  facet normal 0 0 -1
    outer loop
      vertex 0.962723 -12.3444 0
      vertex 0.0627289 -15.3459 0
      vertex 0.101303 -12.3952 0
    endloop
  endfacet
  facet normal 0 0 -1
    outer loop
      vertex -2.16634 -12.3952 0
      vertex 0.0627289 -15.3459 0
      vertex -2.16634 -15.3459 0
    endloop
  endfacet
  facet normal 0 0 -1
    outer loop
      vertex 0.0627289 -15.3459 0
      vertex -2.16634 -12.3952 0
      vertex 0.101303 -12.3952 0
    endloop
  endfacet
  facet normal 0 0 -1
    outer loop
      vertex 3.34822 -9.90865 0
      vertex 7.17482 -9.75398 0
      vertex 7.15535 -10.2475 0
    endloop
  endfacet
  facet normal 0 0 -1
    outer loop
      vertex 3.34822 -9.90865 0
      vertex 7.15535 -10.2475 0
      vertex 7.09698 -10.7195 0
    endloop
  endfacet
  facet normal 0 0 -1
    outer loop
      vertex 3.33191 -9.57559 0
      vertex 7.17482 -9.75398 0
      vertex 3.34822 -9.90865 0
    endloop
  endfacet
  facet normal 0 0 -1
    outer loop
      vertex 3.34822 -9.90865 0
      vertex 7.09698 -10.7195 0
      vertex 6.99969 -11.1699 0
    endloop
  endfacet
  facet normal 0 0 -1
    outer loop
      vertex 7.17482 -9.75398 0
      vertex 3.33191 -9.57559 0
      vertex 7.14037 -9.06374 0
    endloop
  endfacet
  facet normal 0 0 -1
    outer loop
      vertex 3.34822 -9.90865 0
      vertex 6.99969 -11.1699 0
      vertex 6.86349 -11.5988 0
    endloop
  endfacet
  facet normal 0 0 -1
    outer loop
      vertex 3.34822 -9.90865 0
      vertex 6.86349 -11.5988 0
      vertex 6.68837 -12.0061 0
    endloop
  endfacet
  facet normal 0 0 -1
    outer loop
      vertex 3.28299 -9.26859 0
      vertex 7.14037 -9.06374 0
      vertex 3.33191 -9.57559 0
    endloop
  endfacet
  facet normal 0 0 -1
    outer loop
      vertex 3.34822 -9.90865 0
      vertex 6.68837 -12.0061 0
      vertex 6.47435 -12.3918 0
    endloop
  endfacet
  facet normal -0 0 -1
    outer loop
      vertex 7.14037 -9.06374 0
      vertex 3.28299 -9.26859 0
      vertex 7.03702 -8.42134 0
    endloop
  endfacet
  facet normal 0 0 -1
    outer loop
      vertex 3.34822 -9.90865 0
      vertex 6.47435 -12.3918 0
      vertex 6.22139 -12.756 0
    endloop
  endfacet
  facet normal -0 0 -1
    outer loop
      vertex 7.03702 -8.42134 0
      vertex 3.28299 -9.26859 0
      vertex 6.86478 -7.82683 0
    endloop
  endfacet
  facet normal 0 0 -1
    outer loop
      vertex 3.34822 -9.90865 0
      vertex 6.22139 -12.756 0
      vertex 5.93401 -13.0944 0
    endloop
  endfacet
  facet normal 0 0 -1
    outer loop
      vertex 3.34822 -9.90865 0
      vertex 5.93401 -13.0944 0
      vertex 5.61662 -13.4028 0
    endloop
  endfacet
  facet normal 0 0 -1
    outer loop
      vertex 3.20146 -8.98761 0
      vertex 6.86478 -7.82683 0
      vertex 3.28299 -9.26859 0
    endloop
  endfacet
  facet normal 0 0 -1
    outer loop
      vertex 3.34822 -9.90865 0
      vertex 5.61662 -13.4028 0
      vertex 5.26926 -13.6813 0
    endloop
  endfacet
  facet normal -0 0 -1
    outer loop
      vertex 6.86478 -7.82683 0
      vertex 3.20146 -8.98761 0
      vertex 6.62364 -7.28017 0
    endloop
  endfacet
  facet normal 0 0 -1
    outer loop
      vertex 3.34822 -9.90865 0
      vertex 5.26926 -13.6813 0
      vertex 4.89192 -13.9298 0
    endloop
  endfacet
  facet normal 0 0 -1
    outer loop
      vertex 3.34822 -9.90865 0
      vertex 4.89192 -13.9298 0
      vertex 4.4846 -14.1483 0
    endloop
  endfacet
  facet normal 0 0 -1
    outer loop
      vertex 3.08733 -8.7327 0
      vertex 6.62364 -7.28017 0
      vertex 3.20146 -8.98761 0
    endloop
  endfacet
  facet normal 0 0 -1
    outer loop
      vertex 3.34822 -9.90865 0
      vertex 4.4846 -14.1483 0
      vertex 4.0473 -14.3369 0
    endloop
  endfacet
  facet normal -0 0 -1
    outer loop
      vertex 6.62364 -7.28017 0
      vertex 3.08733 -8.7327 0
      vertex 6.31361 -6.78137 0
    endloop
  endfacet
  facet normal 0 0 -1
    outer loop
      vertex 3.34822 -9.90865 0
      vertex 4.0473 -14.3369 0
      vertex 3.58002 -14.4954 0
    endloop
  endfacet
  facet normal -0 0 -1
    outer loop
      vertex 6.31361 -6.78137 0
      vertex 3.08733 -8.7327 0
      vertex 5.93468 -6.33044 0
    endloop
  endfacet
  facet normal 0 0 -1
    outer loop
      vertex 2.94058 -8.5038 0
      vertex 5.93468 -6.33044 0
      vertex 3.08733 -8.7327 0
    endloop
  endfacet
  facet normal -0 0 -1
    outer loop
      vertex 5.93468 -6.33044 0
      vertex 2.94058 -8.5038 0
      vertex 5.48686 -5.92738 0
    endloop
  endfacet
  facet normal -0 0 -1
    outer loop
      vertex 5.48686 -5.92738 0
      vertex 2.94058 -8.5038 0
      vertex 4.96967 -5.57529 0
    endloop
  endfacet
  facet normal 0 0 -1
    outer loop
      vertex 2.76123 -8.30096 0
      vertex 4.96967 -5.57529 0
      vertex 2.94058 -8.5038 0
    endloop
  endfacet
  facet normal -0 0 -1
    outer loop
      vertex 4.96967 -5.57529 0
      vertex 2.76123 -8.30096 0
      vertex 4.38252 -5.27734 0
    endloop
  endfacet
  facet normal 0 0 -1
    outer loop
      vertex 2.54927 -8.12416 0
      vertex 4.38252 -5.27734 0
      vertex 2.76123 -8.30096 0
    endloop
  endfacet
  facet normal -0 0 -1
    outer loop
      vertex 4.38252 -5.27734 0
      vertex 2.54927 -8.12416 0
      vertex 3.72545 -5.03358 0
    endloop
  endfacet
  facet normal 0 0 -1
    outer loop
      vertex 2.30159 -7.97203 0
      vertex 3.72545 -5.03358 0
      vertex 2.54927 -8.12416 0
    endloop
  endfacet
  facet normal -0 0 -1
    outer loop
      vertex 3.72545 -5.03358 0
      vertex 2.30159 -7.97203 0
      vertex 2.99843 -4.84401 0
    endloop
  endfacet
  facet normal 0 0 -1
    outer loop
      vertex 2.015 -7.84331 0
      vertex 2.99843 -4.84401 0
      vertex 2.30159 -7.97203 0
    endloop
  endfacet
  facet normal -0 0 -1
    outer loop
      vertex 2.99843 -4.84401 0
      vertex 2.015 -7.84331 0
      vertex 2.20146 -4.70859 0
    endloop
  endfacet
  facet normal 0 0 -1
    outer loop
      vertex 1.6895 -7.73798 0
      vertex 2.20146 -4.70859 0
      vertex 2.015 -7.84331 0
    endloop
  endfacet
  facet normal 0 0 -1
    outer loop
      vertex 1.32507 -7.65607 0
      vertex 2.20146 -4.70859 0
      vertex 1.6895 -7.73798 0
    endloop
  endfacet
  facet normal -0 0 -1
    outer loop
      vertex 2.20146 -4.70859 0
      vertex 1.32507 -7.65607 0
      vertex 1.33455 -4.62733 0
    endloop
  endfacet
  facet normal 0 0 -1
    outer loop
      vertex 0.921738 -7.59755 0
      vertex 1.33455 -4.62733 0
      vertex 1.32507 -7.65607 0
    endloop
  endfacet
  facet normal 0 0 -1
    outer loop
      vertex 0.479492 -7.56244 0
      vertex 1.33455 -4.62733 0
      vertex 0.921738 -7.59755 0
    endloop
  endfacet
  facet normal 0 0 -1
    outer loop
      vertex 0.479492 -7.56244 0
      vertex 0.397705 -4.60025 0
      vertex 1.33455 -4.62733 0
    endloop
  endfacet
  facet normal 0 0 -1
    outer loop
      vertex -0.00166321 -7.55074 0
      vertex 0.397705 -4.60025 0
      vertex 0.479492 -7.56244 0
    endloop
  endfacet
  facet normal 0 0 -1
    outer loop
      vertex -2.16634 -7.55074 0
      vertex 0.397705 -4.60025 0
      vertex -0.00166321 -7.55074 0
    endloop
  endfacet
  facet normal 0 0 -1
    outer loop
      vertex -2.16634 -7.55074 0
      vertex -5.96729 -4.60025 0
      vertex 0.397705 -4.60025 0
    endloop
  endfacet
  facet normal 0 0 -1
    outer loop
      vertex -2.16634 -12.3952 0
      vertex -5.96729 -4.60025 0
      vertex -2.16634 -7.55074 0
    endloop
  endfacet
  facet normal -0 0 1
    outer loop
      vertex 3.33191 -9.57559 1
      vertex 7.17482 -9.75398 1
      vertex 7.14037 -9.06374 1
    endloop
  endfacet
  facet normal 0 0 1
    outer loop
      vertex 7.17482 -9.75398 1
      vertex 3.34822 -9.90865 1
      vertex 7.15535 -10.2475 1
    endloop
  endfacet
  facet normal 0 0 1
    outer loop
      vertex 3.28299 -9.26859 1
      vertex 7.14037 -9.06374 1
      vertex 7.03702 -8.42134 1
    endloop
  endfacet
  facet normal 0 0 1
    outer loop
      vertex 7.17482 -9.75398 1
      vertex 3.33191 -9.57559 1
      vertex 3.34822 -9.90865 1
    endloop
  endfacet
  facet normal 0 0 1
    outer loop
      vertex 3.28299 -9.26859 1
      vertex 7.03702 -8.42134 1
      vertex 6.86478 -7.82683 1
    endloop
  endfacet
  facet normal 0 0 1
    outer loop
      vertex 7.15535 -10.2475 1
      vertex 3.34822 -9.90865 1
      vertex 7.09698 -10.7195 1
    endloop
  endfacet
  facet normal 0 0 1
    outer loop
      vertex 7.09698 -10.7195 1
      vertex 3.28195 -10.5683 1
      vertex 6.99969 -11.1699 1
    endloop
  endfacet
  facet normal 0 0 1
    outer loop
      vertex 3.20146 -8.98761 1
      vertex 6.86478 -7.82683 1
      vertex 6.62364 -7.28017 1
    endloop
  endfacet
  facet normal 0 0 1
    outer loop
      vertex 6.99969 -11.1699 1
      vertex 3.28195 -10.5683 1
      vertex 6.86349 -11.5988 1
    endloop
  endfacet
  facet normal 0 0 1
    outer loop
      vertex 3.08733 -8.7327 1
      vertex 6.62364 -7.28017 1
      vertex 6.31361 -6.78137 1
    endloop
  endfacet
  facet normal 0 0 1
    outer loop
      vertex 6.86349 -11.5988 1
      vertex 3.28195 -10.5683 1
      vertex 6.68837 -12.0061 1
    endloop
  endfacet
  facet normal 0 0 1
    outer loop
      vertex 3.08733 -8.7327 1
      vertex 6.31361 -6.78137 1
      vertex 5.93468 -6.33044 1
    endloop
  endfacet
  facet normal -0 0 1
    outer loop
      vertex 3.28195 -10.5683 1
      vertex 7.09698 -10.7195 1
      vertex 3.34822 -9.90865 1
    endloop
  endfacet
  facet normal -0 0 1
    outer loop
      vertex 3.08316 -11.1265 1
      vertex 6.47435 -12.3918 1
      vertex 3.28195 -10.5683 1
    endloop
  endfacet
  facet normal 0 0 1
    outer loop
      vertex 2.94058 -8.5038 1
      vertex 5.93468 -6.33044 1
      vertex 5.48686 -5.92738 1
    endloop
  endfacet
  facet normal 0 0 1
    outer loop
      vertex 6.47435 -12.3918 1
      vertex 3.08316 -11.1265 1
      vertex 6.22139 -12.756 1
    endloop
  endfacet
  facet normal 0 0 1
    outer loop
      vertex 2.94058 -8.5038 1
      vertex 5.48686 -5.92738 1
      vertex 4.96967 -5.57529 1
    endloop
  endfacet
  facet normal 0 0 1
    outer loop
      vertex 6.22139 -12.756 1
      vertex 3.08316 -11.1265 1
      vertex 5.93401 -13.0944 1
    endloop
  endfacet
  facet normal 0 0 1
    outer loop
      vertex 5.93401 -13.0944 1
      vertex 3.08316 -11.1265 1
      vertex 5.61662 -13.4028 1
    endloop
  endfacet
  facet normal 0 0 1
    outer loop
      vertex 2.76123 -8.30096 1
      vertex 4.96967 -5.57529 1
      vertex 4.38252 -5.27734 1
    endloop
  endfacet
  facet normal 0 0 1
    outer loop
      vertex 5.61662 -13.4028 1
      vertex 3.08316 -11.1265 1
      vertex 5.26926 -13.6813 1
    endloop
  endfacet
  facet normal 0 0 1
    outer loop
      vertex 2.54927 -8.12416 1
      vertex 4.38252 -5.27734 1
      vertex 3.72545 -5.03358 1
    endloop
  endfacet
  facet normal -0 0 1
    outer loop
      vertex 2.75185 -11.5832 1
      vertex 5.26926 -13.6813 1
      vertex 3.08316 -11.1265 1
    endloop
  endfacet
  facet normal 0 0 1
    outer loop
      vertex 5.26926 -13.6813 1
      vertex 2.75185 -11.5832 1
      vertex 4.89192 -13.9298 1
    endloop
  endfacet
  facet normal 0 0 1
    outer loop
      vertex 6.68837 -12.0061 1
      vertex 3.28195 -10.5683 1
      vertex 6.47435 -12.3918 1
    endloop
  endfacet
  facet normal 0 0 1
    outer loop
      vertex 7.14037 -9.06374 1
      vertex 3.28299 -9.26859 1
      vertex 3.33191 -9.57559 1
    endloop
  endfacet
  facet normal 0 0 1
    outer loop
      vertex 6.86478 -7.82683 1
      vertex 3.20146 -8.98761 1
      vertex 3.28299 -9.26859 1
    endloop
  endfacet
  facet normal 0 0 1
    outer loop
      vertex 6.62364 -7.28017 1
      vertex 3.08733 -8.7327 1
      vertex 3.20146 -8.98761 1
    endloop
  endfacet
  facet normal 0 0 1
    outer loop
      vertex 2.30159 -7.97203 1
      vertex 3.72545 -5.03358 1
      vertex 2.99843 -4.84401 1
    endloop
  endfacet
  facet normal 0 0 1
    outer loop
      vertex 5.93468 -6.33044 1
      vertex 2.94058 -8.5038 1
      vertex 3.08733 -8.7327 1
    endloop
  endfacet
  facet normal 0 0 1
    outer loop
      vertex 4.96967 -5.57529 1
      vertex 2.76123 -8.30096 1
      vertex 2.94058 -8.5038 1
    endloop
  endfacet
  facet normal 0 0 1
    outer loop
      vertex 4.38252 -5.27734 1
      vertex 2.54927 -8.12416 1
      vertex 2.76123 -8.30096 1
    endloop
  endfacet
  facet normal 0 0 1
    outer loop
      vertex 3.72545 -5.03358 1
      vertex 2.30159 -7.97203 1
      vertex 2.54927 -8.12416 1
    endloop
  endfacet
  facet normal 0 0 1
    outer loop
      vertex 2.015 -7.84331 1
      vertex 2.99843 -4.84401 1
      vertex 2.20146 -4.70859 1
    endloop
  endfacet
  facet normal 0 0 1
    outer loop
      vertex 2.99843 -4.84401 1
      vertex 2.015 -7.84331 1
      vertex 2.30159 -7.97203 1
    endloop
  endfacet
  facet normal 0 0 1
    outer loop
      vertex 2.20146 -4.70859 1
      vertex 1.6895 -7.73798 1
      vertex 2.015 -7.84331 1
    endloop
  endfacet
  facet normal 0 0 1
    outer loop
      vertex 1.32507 -7.65607 1
      vertex 2.20146 -4.70859 1
      vertex 1.33455 -4.62733 1
    endloop
  endfacet
  facet normal 0 0 1
    outer loop
      vertex 2.20146 -4.70859 1
      vertex 1.32507 -7.65607 1
      vertex 1.6895 -7.73798 1
    endloop
  endfacet
  facet normal 0 0 1
    outer loop
      vertex 1.33455 -4.62733 1
      vertex 0.921738 -7.59755 1
      vertex 1.32507 -7.65607 1
    endloop
  endfacet
  facet normal 0 0 1
    outer loop
      vertex 1.33455 -4.62733 1
      vertex 0.479492 -7.56244 1
      vertex 0.921738 -7.59755 1
    endloop
  endfacet
  facet normal 0 0 1
    outer loop
      vertex 0.397705 -4.60025 1
      vertex 0.479492 -7.56244 1
      vertex 1.33455 -4.62733 1
    endloop
  endfacet
  facet normal 0 0 1
    outer loop
      vertex 0.397705 -4.60025 1
      vertex -0.00166321 -7.55074 1
      vertex 0.479492 -7.56244 1
    endloop
  endfacet
  facet normal 0 0 1
    outer loop
      vertex 0.397705 -4.60025 1
      vertex -2.16634 -7.55074 1
      vertex -0.00166321 -7.55074 1
    endloop
  endfacet
  facet normal 0 0 1
    outer loop
      vertex -5.96729 -4.60025 1
      vertex -2.16634 -12.3952 1
      vertex -2.16634 -7.55074 1
    endloop
  endfacet
  facet normal 0 0 1
    outer loop
      vertex -5.96729 -21.9812 1
      vertex -2.16634 -12.3952 1
      vertex -5.96729 -4.60025 1
    endloop
  endfacet
  facet normal -0 0 1
    outer loop
      vertex -5.96729 -4.60025 1
      vertex -2.16634 -7.55074 1
      vertex 0.397705 -4.60025 1
    endloop
  endfacet
  facet normal 0 0 1
    outer loop
      vertex -2.16634 -12.3952 1
      vertex -5.96729 -21.9812 1
      vertex -2.16634 -15.3459 1
    endloop
  endfacet
  facet normal 0 0 1
    outer loop
      vertex -2.16634 -15.3459 1
      vertex -5.96729 -21.9812 1
      vertex -2.16634 -21.9812 1
    endloop
  endfacet
  facet normal 0 0 1
    outer loop
      vertex 3.58002 -14.4954 1
      vertex 3.79909 -21.9812 1
      vertex 8.07675 -21.9812 1
    endloop
  endfacet
  facet normal 0 0 1
    outer loop
      vertex 4.89192 -13.9298 1
      vertex 2.75185 -11.5832 1
      vertex 4.4846 -14.1483 1
    endloop
  endfacet
  facet normal 0 0 1
    outer loop
      vertex 4.4846 -14.1483 1
      vertex 2.75185 -11.5832 1
      vertex 4.0473 -14.3369 1
    endloop
  endfacet
  facet normal -0 0 1
    outer loop
      vertex 2.28799 -11.9385 1
      vertex 4.0473 -14.3369 1
      vertex 2.75185 -11.5832 1
    endloop
  endfacet
  facet normal 0 0 1
    outer loop
      vertex 4.0473 -14.3369 1
      vertex 2.28799 -11.9385 1
      vertex 3.58002 -14.4954 1
    endloop
  endfacet
  facet normal -0 0 1
    outer loop
      vertex 1.69164 -12.1922 1
      vertex 3.58002 -14.4954 1
      vertex 2.28799 -11.9385 1
    endloop
  endfacet
  facet normal -0 0 1
    outer loop
      vertex 0.962723 -12.3444 1
      vertex 3.58002 -14.4954 1
      vertex 1.69164 -12.1922 1
    endloop
  endfacet
  facet normal 0 0 1
    outer loop
      vertex 3.58002 -14.4954 1
      vertex 0.962723 -12.3444 1
      vertex 0.0627289 -15.3459 1
    endloop
  endfacet
  facet normal 0 0 1
    outer loop
      vertex 0.0627289 -15.3459 1
      vertex 0.962723 -12.3444 1
      vertex 0.101303 -12.3952 1
    endloop
  endfacet
  facet normal 0 0 1
    outer loop
      vertex 3.58002 -14.4954 1
      vertex 0.0627289 -15.3459 1
      vertex 3.79909 -21.9812 1
    endloop
  endfacet
  facet normal -0 0 1
    outer loop
      vertex -2.16634 -12.3952 1
      vertex 0.0627289 -15.3459 1
      vertex 0.101303 -12.3952 1
    endloop
  endfacet
  facet normal 0 0 1
    outer loop
      vertex 0.0627289 -15.3459 1
      vertex -2.16634 -12.3952 1
      vertex -2.16634 -15.3459 1
    endloop
  endfacet
  facet normal 0 -1 0
    outer loop
      vertex -2.16634 -15.3459 0
      vertex 0.0627289 -15.3459 1
      vertex -2.16634 -15.3459 1
    endloop
  endfacet
  facet normal 0 -1 -0
    outer loop
      vertex 0.0627289 -15.3459 1
      vertex -2.16634 -15.3459 0
      vertex 0.0627289 -15.3459 0
    endloop
  endfacet
  facet normal -0.871351 -0.490661 0
    outer loop
      vertex 3.79909 -21.9812 0
      vertex 0.0627289 -15.3459 1
      vertex 0.0627289 -15.3459 0
    endloop
  endfacet
  facet normal -0.871351 -0.490661 0
    outer loop
      vertex 0.0627289 -15.3459 1
      vertex 3.79909 -21.9812 0
      vertex 3.79909 -21.9812 1
    endloop
  endfacet
  facet normal 0 -1 0
    outer loop
      vertex 3.79909 -21.9812 0
      vertex 8.07675 -21.9812 1
      vertex 3.79909 -21.9812 1
    endloop
  endfacet
  facet normal 0 -1 -0
    outer loop
      vertex 8.07675 -21.9812 1
      vertex 3.79909 -21.9812 0
      vertex 8.07675 -21.9812 0
    endloop
  endfacet
  facet normal 0.857228 0.514938 0
    outer loop
      vertex 8.07675 -21.9812 1
      vertex 3.58002 -14.4954 0
      vertex 3.58002 -14.4954 1
    endloop
  endfacet
  facet normal 0.857228 0.514938 0
    outer loop
      vertex 3.58002 -14.4954 0
      vertex 8.07675 -21.9812 1
      vertex 8.07675 -21.9812 0
    endloop
  endfacet
  facet normal 0.321221 -0.947004 0
    outer loop
      vertex 3.58002 -14.4954 0
      vertex 4.0473 -14.3369 1
      vertex 3.58002 -14.4954 1
    endloop
  endfacet
  facet normal 0.321221 -0.947004 0
    outer loop
      vertex 4.0473 -14.3369 1
      vertex 3.58002 -14.4954 0
      vertex 4.0473 -14.3369 0
    endloop
  endfacet
  facet normal 0.396022 -0.918241 0
    outer loop
      vertex 4.0473 -14.3369 0
      vertex 4.4846 -14.1483 1
      vertex 4.0473 -14.3369 1
    endloop
  endfacet
  facet normal 0.396022 -0.918241 0
    outer loop
      vertex 4.4846 -14.1483 1
      vertex 4.0473 -14.3369 0
      vertex 4.4846 -14.1483 0
    endloop
  endfacet
  facet normal 0.472714 -0.881216 0
    outer loop
      vertex 4.4846 -14.1483 0
      vertex 4.89192 -13.9298 1
      vertex 4.4846 -14.1483 1
    endloop
  endfacet
  facet normal 0.472714 -0.881216 0
    outer loop
      vertex 4.89192 -13.9298 1
      vertex 4.4846 -14.1483 0
      vertex 4.89192 -13.9298 0
    endloop
  endfacet
  facet normal 0.550003 -0.835163 0
    outer loop
      vertex 4.89192 -13.9298 0
      vertex 5.26926 -13.6813 1
      vertex 4.89192 -13.9298 1
    endloop
  endfacet
  facet normal 0.550003 -0.835163 0
    outer loop
      vertex 5.26926 -13.6813 1
      vertex 4.89192 -13.9298 0
      vertex 5.26926 -13.6813 0
    endloop
  endfacet
  facet normal 0.625533 -0.780198 0
    outer loop
      vertex 5.26926 -13.6813 0
      vertex 5.61662 -13.4028 1
      vertex 5.26926 -13.6813 1
    endloop
  endfacet
  facet normal 0.625533 -0.780198 0
    outer loop
      vertex 5.61662 -13.4028 1
      vertex 5.26926 -13.6813 0
      vertex 5.61662 -13.4028 0
    endloop
  endfacet
  facet normal 0.696877 -0.717191 0
    outer loop
      vertex 5.61662 -13.4028 0
      vertex 5.93401 -13.0944 1
      vertex 5.61662 -13.4028 1
    endloop
  endfacet
  facet normal 0.696877 -0.717191 0
    outer loop
      vertex 5.93401 -13.0944 1
      vertex 5.61662 -13.4028 0
      vertex 5.93401 -13.0944 0
    endloop
  endfacet
  facet normal 0.762228 -0.647308 0
    outer loop
      vertex 5.93401 -13.0944 1
      vertex 6.22139 -12.756 0
      vertex 6.22139 -12.756 1
    endloop
  endfacet
  facet normal 0.762228 -0.647308 0
    outer loop
      vertex 6.22139 -12.756 0
      vertex 5.93401 -13.0944 1
      vertex 5.93401 -13.0944 0
    endloop
  endfacet
  facet normal 0.821324 -0.570462 0
    outer loop
      vertex 6.22139 -12.756 1
      vertex 6.47435 -12.3918 0
      vertex 6.47435 -12.3918 1
    endloop
  endfacet
  facet normal 0.821324 -0.570462 0
    outer loop
      vertex 6.47435 -12.3918 0
      vertex 6.22139 -12.756 1
      vertex 6.22139 -12.756 0
    endloop
  endfacet
  facet normal 0.874405 -0.485196 0
    outer loop
      vertex 6.47435 -12.3918 1
      vertex 6.68837 -12.0061 0
      vertex 6.68837 -12.0061 1
    endloop
  endfacet
  facet normal 0.874405 -0.485196 0
    outer loop
      vertex 6.68837 -12.0061 0
      vertex 6.47435 -12.3918 1
      vertex 6.47435 -12.3918 0
    endloop
  endfacet
  facet normal 0.918685 -0.394992 0
    outer loop
      vertex 6.68837 -12.0061 1
      vertex 6.86349 -11.5988 0
      vertex 6.86349 -11.5988 1
    endloop
  endfacet
  facet normal 0.918685 -0.394992 0
    outer loop
      vertex 6.86349 -11.5988 0
      vertex 6.68837 -12.0061 1
      vertex 6.68837 -12.0061 0
    endloop
  endfacet
  facet normal 0.953098 -0.302662 0
    outer loop
      vertex 6.86349 -11.5988 1
      vertex 6.99969 -11.1699 0
      vertex 6.99969 -11.1699 1
    endloop
  endfacet
  facet normal 0.953098 -0.302662 0
    outer loop
      vertex 6.99969 -11.1699 0
      vertex 6.86349 -11.5988 1
      vertex 6.86349 -11.5988 0
    endloop
  endfacet
  facet normal 0.977456 -0.211138 0
    outer loop
      vertex 6.99969 -11.1699 1
      vertex 7.09698 -10.7195 0
      vertex 7.09698 -10.7195 1
    endloop
  endfacet
  facet normal 0.977456 -0.211138 0
    outer loop
      vertex 7.09698 -10.7195 0
      vertex 6.99969 -11.1699 1
      vertex 6.99969 -11.1699 0
    endloop
  endfacet
  facet normal 0.99244 -0.12273 0
    outer loop
      vertex 7.09698 -10.7195 1
      vertex 7.15535 -10.2475 0
      vertex 7.15535 -10.2475 1
    endloop
  endfacet
  facet normal 0.99244 -0.12273 0
    outer loop
      vertex 7.15535 -10.2475 0
      vertex 7.09698 -10.7195 1
      vertex 7.09698 -10.7195 0
    endloop
  endfacet
  facet normal 0.999223 -0.0394206 0
    outer loop
      vertex 7.15535 -10.2475 1
      vertex 7.17482 -9.75398 0
      vertex 7.17482 -9.75398 1
    endloop
  endfacet
  facet normal 0.999223 -0.0394206 0
    outer loop
      vertex 7.17482 -9.75398 0
      vertex 7.15535 -10.2475 1
      vertex 7.15535 -10.2475 0
    endloop
  endfacet
  facet normal 0.998757 0.0498481 0
    outer loop
      vertex 7.17482 -9.75398 1
      vertex 7.14037 -9.06374 0
      vertex 7.14037 -9.06374 1
    endloop
  endfacet
  facet normal 0.998757 0.0498481 0
    outer loop
      vertex 7.14037 -9.06374 0
      vertex 7.17482 -9.75398 1
      vertex 7.17482 -9.75398 0
    endloop
  endfacet
  facet normal 0.987305 0.158839 0
    outer loop
      vertex 7.14037 -9.06374 1
      vertex 7.03702 -8.42134 0
      vertex 7.03702 -8.42134 1
    endloop
  endfacet
  facet normal 0.987305 0.158839 0
    outer loop
      vertex 7.03702 -8.42134 0
      vertex 7.14037 -9.06374 1
      vertex 7.14037 -9.06374 0
    endloop
  endfacet
  facet normal 0.960502 0.278274 0
    outer loop
      vertex 7.03702 -8.42134 1
      vertex 6.86478 -7.82683 0
      vertex 6.86478 -7.82683 1
    endloop
  endfacet
  facet normal 0.960502 0.278274 0
    outer loop
      vertex 6.86478 -7.82683 0
      vertex 7.03702 -8.42134 1
      vertex 7.03702 -8.42134 0
    endloop
  endfacet
  facet normal 0.914939 0.403593 0
    outer loop
      vertex 6.86478 -7.82683 1
      vertex 6.62364 -7.28017 0
      vertex 6.62364 -7.28017 1
    endloop
  endfacet
  facet normal 0.914939 0.403593 0
    outer loop
      vertex 6.62364 -7.28017 0
      vertex 6.86478 -7.82683 1
      vertex 6.86478 -7.82683 0
    endloop
  endfacet
  facet normal 0.849312 0.527891 0
    outer loop
      vertex 6.62364 -7.28017 1
      vertex 6.31361 -6.78137 0
      vertex 6.31361 -6.78137 1
    endloop
  endfacet
  facet normal 0.849312 0.527891 0
    outer loop
      vertex 6.31361 -6.78137 0
      vertex 6.62364 -7.28017 1
      vertex 6.62364 -7.28017 0
    endloop
  endfacet
  facet normal 0.76558 0.64334 0
    outer loop
      vertex 6.31361 -6.78137 1
      vertex 5.93468 -6.33044 0
      vertex 5.93468 -6.33044 1
    endloop
  endfacet
  facet normal 0.76558 0.64334 0
    outer loop
      vertex 5.93468 -6.33044 0
      vertex 6.31361 -6.78137 1
      vertex 6.31361 -6.78137 0
    endloop
  endfacet
  facet normal 0.668985 0.743276 -0
    outer loop
      vertex 5.93468 -6.33044 0
      vertex 5.48686 -5.92738 1
      vertex 5.93468 -6.33044 1
    endloop
  endfacet
  facet normal 0.668985 0.743276 0
    outer loop
      vertex 5.48686 -5.92738 1
      vertex 5.93468 -6.33044 0
      vertex 5.48686 -5.92738 0
    endloop
  endfacet
  facet normal 0.562748 0.826629 -0
    outer loop
      vertex 5.48686 -5.92738 0
      vertex 4.96967 -5.57529 1
      vertex 5.48686 -5.92738 1
    endloop
  endfacet
  facet normal 0.562748 0.826629 0
    outer loop
      vertex 4.96967 -5.57529 1
      vertex 5.48686 -5.92738 0
      vertex 4.96967 -5.57529 0
    endloop
  endfacet
  facet normal 0.452521 0.891754 -0
    outer loop
      vertex 4.96967 -5.57529 0
      vertex 4.38252 -5.27734 1
      vertex 4.96967 -5.57529 1
    endloop
  endfacet
  facet normal 0.452521 0.891754 0
    outer loop
      vertex 4.38252 -5.27734 1
      vertex 4.96967 -5.57529 0
      vertex 4.38252 -5.27734 0
    endloop
  endfacet
  facet normal 0.347817 0.937562 -0
    outer loop
      vertex 4.38252 -5.27734 0
      vertex 3.72545 -5.03358 1
      vertex 4.38252 -5.27734 1
    endloop
  endfacet
  facet normal 0.347817 0.937562 0
    outer loop
      vertex 3.72545 -5.03358 1
      vertex 4.38252 -5.27734 0
      vertex 3.72545 -5.03358 0
    endloop
  endfacet
  facet normal 0.252313 0.967646 -0
    outer loop
      vertex 3.72545 -5.03358 0
      vertex 2.99843 -4.84401 1
      vertex 3.72545 -5.03358 1
    endloop
  endfacet
  facet normal 0.252313 0.967646 0
    outer loop
      vertex 2.99843 -4.84401 1
      vertex 3.72545 -5.03358 0
      vertex 2.99843 -4.84401 0
    endloop
  endfacet
  facet normal 0.167517 0.985869 -0
    outer loop
      vertex 2.99843 -4.84401 0
      vertex 2.20146 -4.70859 1
      vertex 2.99843 -4.84401 1
    endloop
  endfacet
  facet normal 0.167517 0.985869 0
    outer loop
      vertex 2.20146 -4.70859 1
      vertex 2.99843 -4.84401 0
      vertex 2.20146 -4.70859 0
    endloop
  endfacet
  facet normal 0.0933261 0.995636 -0
    outer loop
      vertex 2.20146 -4.70859 0
      vertex 1.33455 -4.62733 1
      vertex 2.20146 -4.70859 1
    endloop
  endfacet
  facet normal 0.0933261 0.995636 0
    outer loop
      vertex 1.33455 -4.62733 1
      vertex 2.20146 -4.70859 0
      vertex 1.33455 -4.62733 0
    endloop
  endfacet
  facet normal 0.0288935 0.999582 -0
    outer loop
      vertex 1.33455 -4.62733 0
      vertex 0.397705 -4.60025 1
      vertex 1.33455 -4.62733 1
    endloop
  endfacet
  facet normal 0.0288935 0.999582 0
    outer loop
      vertex 0.397705 -4.60025 1
      vertex 1.33455 -4.62733 0
      vertex 0.397705 -4.60025 0
    endloop
  endfacet
  facet normal 0 1 -0
    outer loop
      vertex 0.397705 -4.60025 0
      vertex -5.96729 -4.60025 1
      vertex 0.397705 -4.60025 1
    endloop
  endfacet
  facet normal 0 1 0
    outer loop
      vertex -5.96729 -4.60025 1
      vertex 0.397705 -4.60025 0
      vertex -5.96729 -4.60025 0
    endloop
  endfacet
  facet normal -1 0 0
    outer loop
      vertex -5.96729 -21.9812 0
      vertex -5.96729 -4.60025 1
      vertex -5.96729 -4.60025 0
    endloop
  endfacet
  facet normal -1 -0 0
    outer loop
      vertex -5.96729 -4.60025 1
      vertex -5.96729 -21.9812 0
      vertex -5.96729 -21.9812 1
    endloop
  endfacet
  facet normal 0 -1 0
    outer loop
      vertex -5.96729 -21.9812 0
      vertex -2.16634 -21.9812 1
      vertex -5.96729 -21.9812 1
    endloop
  endfacet
  facet normal 0 -1 -0
    outer loop
      vertex -2.16634 -21.9812 1
      vertex -5.96729 -21.9812 0
      vertex -2.16634 -21.9812 0
    endloop
  endfacet
  facet normal 1 -0 0
    outer loop
      vertex -2.16634 -21.9812 1
      vertex -2.16634 -15.3459 0
      vertex -2.16634 -15.3459 1
    endloop
  endfacet
  facet normal 1 0 0
    outer loop
      vertex -2.16634 -15.3459 0
      vertex -2.16634 -21.9812 1
      vertex -2.16634 -21.9812 0
    endloop
  endfacet
  facet normal 1 -0 0
    outer loop
      vertex -2.16634 -12.3952 1
      vertex -2.16634 -7.55074 0
      vertex -2.16634 -7.55074 1
    endloop
  endfacet
  facet normal 1 0 0
    outer loop
      vertex -2.16634 -7.55074 0
      vertex -2.16634 -12.3952 1
      vertex -2.16634 -12.3952 0
    endloop
  endfacet
  facet normal 0 -1 0
    outer loop
      vertex -2.16634 -7.55074 0
      vertex -0.00166321 -7.55074 1
      vertex -2.16634 -7.55074 1
    endloop
  endfacet
  facet normal 0 -1 -0
    outer loop
      vertex -0.00166321 -7.55074 1
      vertex -2.16634 -7.55074 0
      vertex -0.00166321 -7.55074 0
    endloop
  endfacet
  facet normal -0.0243093 -0.999704 0
    outer loop
      vertex -0.00166321 -7.55074 0
      vertex 0.479492 -7.56244 1
      vertex -0.00166321 -7.55074 1
    endloop
  endfacet
  facet normal -0.0243093 -0.999704 -0
    outer loop
      vertex 0.479492 -7.56244 1
      vertex -0.00166321 -7.55074 0
      vertex 0.479492 -7.56244 0
    endloop
  endfacet
  facet normal -0.0791412 -0.996863 0
    outer loop
      vertex 0.479492 -7.56244 0
      vertex 0.921738 -7.59755 1
      vertex 0.479492 -7.56244 1
    endloop
  endfacet
  facet normal -0.0791412 -0.996863 -0
    outer loop
      vertex 0.921738 -7.59755 1
      vertex 0.479492 -7.56244 0
      vertex 0.921738 -7.59755 0
    endloop
  endfacet
  facet normal -0.143588 -0.989638 0
    outer loop
      vertex 0.921738 -7.59755 0
      vertex 1.32507 -7.65607 1
      vertex 0.921738 -7.59755 1
    endloop
  endfacet
  facet normal -0.143588 -0.989638 -0
    outer loop
      vertex 1.32507 -7.65607 1
      vertex 0.921738 -7.59755 0
      vertex 1.32507 -7.65607 0
    endloop
  endfacet
  facet normal -0.219291 -0.975659 0
    outer loop
      vertex 1.32507 -7.65607 0
      vertex 1.6895 -7.73798 1
      vertex 1.32507 -7.65607 1
    endloop
  endfacet
  facet normal -0.219291 -0.975659 -0
    outer loop
      vertex 1.6895 -7.73798 1
      vertex 1.32507 -7.65607 0
      vertex 1.6895 -7.73798 0
    endloop
  endfacet
  facet normal -0.307876 -0.951426 0
    outer loop
      vertex 1.6895 -7.73798 0
      vertex 2.015 -7.84331 1
      vertex 1.6895 -7.73798 1
    endloop
  endfacet
  facet normal -0.307876 -0.951426 -0
    outer loop
      vertex 2.015 -7.84331 1
      vertex 1.6895 -7.73798 0
      vertex 2.015 -7.84331 0
    endloop
  endfacet
  facet normal -0.409715 -0.912214 0
    outer loop
      vertex 2.015 -7.84331 0
      vertex 2.30159 -7.97203 1
      vertex 2.015 -7.84331 1
    endloop
  endfacet
  facet normal -0.409715 -0.912214 -0
    outer loop
      vertex 2.30159 -7.97203 1
      vertex 2.015 -7.84331 0
      vertex 2.30159 -7.97203 0
    endloop
  endfacet
  facet normal -0.523377 -0.852101 0
    outer loop
      vertex 2.30159 -7.97203 0
      vertex 2.54927 -8.12416 1
      vertex 2.30159 -7.97203 1
    endloop
  endfacet
  facet normal -0.523377 -0.852101 -0
    outer loop
      vertex 2.54927 -8.12416 1
      vertex 2.30159 -7.97203 0
      vertex 2.54927 -8.12416 0
    endloop
  endfacet
  facet normal -0.640541 -0.767924 0
    outer loop
      vertex 2.54927 -8.12416 0
      vertex 2.76123 -8.30096 1
      vertex 2.54927 -8.12416 1
    endloop
  endfacet
  facet normal -0.640541 -0.767924 -0
    outer loop
      vertex 2.76123 -8.30096 1
      vertex 2.54927 -8.12416 0
      vertex 2.76123 -8.30096 0
    endloop
  endfacet
  facet normal -0.749153 -0.662397 0
    outer loop
      vertex 2.94058 -8.5038 0
      vertex 2.76123 -8.30096 1
      vertex 2.76123 -8.30096 0
    endloop
  endfacet
  facet normal -0.749153 -0.662397 0
    outer loop
      vertex 2.76123 -8.30096 1
      vertex 2.94058 -8.5038 0
      vertex 2.94058 -8.5038 1
    endloop
  endfacet
  facet normal -0.841847 -0.539716 0
    outer loop
      vertex 3.08733 -8.7327 0
      vertex 2.94058 -8.5038 1
      vertex 2.94058 -8.5038 0
    endloop
  endfacet
  facet normal -0.841847 -0.539716 0
    outer loop
      vertex 2.94058 -8.5038 1
      vertex 3.08733 -8.7327 0
      vertex 3.08733 -8.7327 1
    endloop
  endfacet
  facet normal -0.912696 -0.408638 0
    outer loop
      vertex 3.20146 -8.98761 0
      vertex 3.08733 -8.7327 1
      vertex 3.08733 -8.7327 0
    endloop
  endfacet
  facet normal -0.912696 -0.408638 0
    outer loop
      vertex 3.08733 -8.7327 1
      vertex 3.20146 -8.98761 0
      vertex 3.20146 -8.98761 1
    endloop
  endfacet
  facet normal -0.960387 -0.278669 0
    outer loop
      vertex 3.28299 -9.26859 0
      vertex 3.20146 -8.98761 1
      vertex 3.20146 -8.98761 0
    endloop
  endfacet
  facet normal -0.960387 -0.278669 0
    outer loop
      vertex 3.20146 -8.98761 1
      vertex 3.28299 -9.26859 0
      vertex 3.28299 -9.26859 1
    endloop
  endfacet
  facet normal -0.987541 -0.157363 0
    outer loop
      vertex 3.33191 -9.57559 0
      vertex 3.28299 -9.26859 1
      vertex 3.28299 -9.26859 0
    endloop
  endfacet
  facet normal -0.987541 -0.157363 0
    outer loop
      vertex 3.28299 -9.26859 1
      vertex 3.33191 -9.57559 0
      vertex 3.33191 -9.57559 1
    endloop
  endfacet
  facet normal -0.998803 -0.0489115 0
    outer loop
      vertex 3.34822 -9.90865 0
      vertex 3.33191 -9.57559 1
      vertex 3.33191 -9.57559 0
    endloop
  endfacet
  facet normal -0.998803 -0.0489115 0
    outer loop
      vertex 3.33191 -9.57559 1
      vertex 3.34822 -9.90865 0
      vertex 3.34822 -9.90865 1
    endloop
  endfacet
  facet normal -0.994992 0.0999592 0
    outer loop
      vertex 3.28195 -10.5683 0
      vertex 3.34822 -9.90865 1
      vertex 3.34822 -9.90865 0
    endloop
  endfacet
  facet normal -0.994992 0.0999592 0
    outer loop
      vertex 3.34822 -9.90865 1
      vertex 3.28195 -10.5683 0
      vertex 3.28195 -10.5683 1
    endloop
  endfacet
  facet normal -0.942045 0.335487 0
    outer loop
      vertex 3.08316 -11.1265 0
      vertex 3.28195 -10.5683 1
      vertex 3.28195 -10.5683 0
    endloop
  endfacet
  facet normal -0.942045 0.335487 0
    outer loop
      vertex 3.28195 -10.5683 1
      vertex 3.08316 -11.1265 0
      vertex 3.08316 -11.1265 1
    endloop
  endfacet
  facet normal -0.80944 0.587203 0
    outer loop
      vertex 2.75185 -11.5832 0
      vertex 3.08316 -11.1265 1
      vertex 3.08316 -11.1265 0
    endloop
  endfacet
  facet normal -0.80944 0.587203 0
    outer loop
      vertex 3.08316 -11.1265 1
      vertex 2.75185 -11.5832 0
      vertex 2.75185 -11.5832 1
    endloop
  endfacet
  facet normal -0.60808 0.793876 0
    outer loop
      vertex 2.75185 -11.5832 0
      vertex 2.28799 -11.9385 1
      vertex 2.75185 -11.5832 1
    endloop
  endfacet
  facet normal -0.60808 0.793876 0
    outer loop
      vertex 2.28799 -11.9385 1
      vertex 2.75185 -11.5832 0
      vertex 2.28799 -11.9385 0
    endloop
  endfacet
  facet normal -0.391469 0.920191 0
    outer loop
      vertex 2.28799 -11.9385 0
      vertex 1.69164 -12.1922 1
      vertex 2.28799 -11.9385 1
    endloop
  endfacet
  facet normal -0.391469 0.920191 0
    outer loop
      vertex 1.69164 -12.1922 1
      vertex 2.28799 -11.9385 0
      vertex 1.69164 -12.1922 0
    endloop
  endfacet
  facet normal -0.204395 0.978889 0
    outer loop
      vertex 1.69164 -12.1922 0
      vertex 0.962723 -12.3444 1
      vertex 1.69164 -12.1922 1
    endloop
  endfacet
  facet normal -0.204395 0.978889 0
    outer loop
      vertex 0.962723 -12.3444 1
      vertex 1.69164 -12.1922 0
      vertex 0.962723 -12.3444 0
    endloop
  endfacet
  facet normal -0.0588701 0.998266 0
    outer loop
      vertex 0.962723 -12.3444 0
      vertex 0.101303 -12.3952 1
      vertex 0.962723 -12.3444 1
    endloop
  endfacet
  facet normal -0.0588701 0.998266 0
    outer loop
      vertex 0.101303 -12.3952 1
      vertex 0.962723 -12.3444 0
      vertex 0.101303 -12.3952 0
    endloop
  endfacet
  facet normal 0 1 -0
    outer loop
      vertex 0.101303 -12.3952 0
      vertex -2.16634 -12.3952 1
      vertex 0.101303 -12.3952 1
    endloop
  endfacet
  facet normal 0 1 0
    outer loop
      vertex -2.16634 -12.3952 1
      vertex 0.101303 -12.3952 0
      vertex -2.16634 -12.3952 0
    endloop
  endfacet
endsolid OpenSCAD_Model
