solid OpenSCAD_Model
  facet normal 0 0 -1
    outer loop
      vertex -17.9788 -55.9437 0
      vertex -8.04485 -30.5873 0
      vertex -8.04485 -55.9437 0
    endloop
  endfacet
  facet normal -0 0 -1
    outer loop
      vertex -8.04485 -30.5873 0
      vertex -17.9788 -55.9437 0
      vertex -8.06694 -29.3425 0
    endloop
  endfacet
  facet normal -0 0 -1
    outer loop
      vertex -8.06694 -29.3425 0
      vertex -17.9788 -55.9437 0
      vertex -8.13321 -27.861 0
    endloop
  endfacet
  facet normal -0 0 -1
    outer loop
      vertex -8.13321 -27.861 0
      vertex -17.9788 -55.9437 0
      vertex -8.24365 -26.1429 0
    endloop
  endfacet
  facet normal 0 0 -1
    outer loop
      vertex -17.9788 -3.80072 0
      vertex -8.24365 -26.1429 0
      vertex -17.9788 -55.9437 0
    endloop
  endfacet
  facet normal 0 0 -1
    outer loop
      vertex -8.24365 -26.1429 0
      vertex -17.9788 -3.80072 0
      vertex -8.39828 -24.1881 0
    endloop
  endfacet
  facet normal 0 0 -1
    outer loop
      vertex -8.39828 -24.1881 0
      vertex -17.9788 -3.80072 0
      vertex -8.59711 -21.9967 0
    endloop
  endfacet
  facet normal 0 0 -1
    outer loop
      vertex -8.59711 -21.9967 0
      vertex -17.9788 -3.80072 0
      vertex -8.8401 -19.5686 0
    endloop
  endfacet
  facet normal 0 0 -1
    outer loop
      vertex 9.95071 -41.3714 0
      vertex 19.0894 -55.9437 0
      vertex 10.2379 -43.8837 0
    endloop
  endfacet
  facet normal 0 0 -1
    outer loop
      vertex 5.71552 -55.9437 0
      vertex 10.2379 -43.8837 0
      vertex 19.0894 -55.9437 0
    endloop
  endfacet
  facet normal 0 0 -1
    outer loop
      vertex -9.12727 -16.9039 0
      vertex 10.2379 -43.8837 0
      vertex 5.71552 -55.9437 0
    endloop
  endfacet
  facet normal 0 0 -1
    outer loop
      vertex 10.2379 -43.8837 0
      vertex -9.12727 -16.9039 0
      vertex -4.95259 -3.80072 0
    endloop
  endfacet
  facet normal 0 0 -1
    outer loop
      vertex -9.12727 -16.9039 0
      vertex -17.9788 -3.80072 0
      vertex -4.95259 -3.80072 0
    endloop
  endfacet
  facet normal 0 0 -1
    outer loop
      vertex -8.8401 -19.5686 0
      vertex -17.9788 -3.80072 0
      vertex -9.12727 -16.9039 0
    endloop
  endfacet
  facet normal 0 0 -1
    outer loop
      vertex 9.70772 -39.0247 0
      vertex 19.0894 -55.9437 0
      vertex 9.95071 -41.3714 0
    endloop
  endfacet
  facet normal 0 0 -1
    outer loop
      vertex 9.50891 -36.8436 0
      vertex 19.0894 -55.9437 0
      vertex 9.70772 -39.0247 0
    endloop
  endfacet
  facet normal 0 0 -1
    outer loop
      vertex 9.35428 -34.8282 0
      vertex 19.0894 -55.9437 0
      vertex 9.50891 -36.8436 0
    endloop
  endfacet
  facet normal 0 0 -1
    outer loop
      vertex 9.24382 -32.9784 0
      vertex 19.0894 -55.9437 0
      vertex 9.35428 -34.8282 0
    endloop
  endfacet
  facet normal 0 0 -1
    outer loop
      vertex 9.17755 -31.2942 0
      vertex 19.0894 -55.9437 0
      vertex 9.24382 -32.9784 0
    endloop
  endfacet
  facet normal 0 0 -1
    outer loop
      vertex 19.0894 -55.9437 0
      vertex 9.17755 -31.2942 0
      vertex 19.0894 -3.80072 0
    endloop
  endfacet
  facet normal 0 0 -1
    outer loop
      vertex 9.15546 -29.7756 0
      vertex 19.0894 -3.80072 0
      vertex 9.17755 -31.2942 0
    endloop
  endfacet
  facet normal -0 0 -1
    outer loop
      vertex 19.0894 -3.80072 0
      vertex 9.15546 -29.7756 0
      vertex 9.15546 -3.80072 0
    endloop
  endfacet
  facet normal -0 0 1
    outer loop
      vertex 9.17755 -31.2942 1
      vertex 19.0894 -55.9437 1
      vertex 19.0894 -3.80072 1
    endloop
  endfacet
  facet normal 0 0 1
    outer loop
      vertex 19.0894 -55.9437 1
      vertex 9.95071 -41.3714 1
      vertex 10.2379 -43.8837 1
    endloop
  endfacet
  facet normal 0 0 1
    outer loop
      vertex 19.0894 -55.9437 1
      vertex 9.70772 -39.0247 1
      vertex 9.95071 -41.3714 1
    endloop
  endfacet
  facet normal 0 0 1
    outer loop
      vertex 19.0894 -55.9437 1
      vertex 9.50891 -36.8436 1
      vertex 9.70772 -39.0247 1
    endloop
  endfacet
  facet normal 0 0 1
    outer loop
      vertex 19.0894 -55.9437 1
      vertex 9.35428 -34.8282 1
      vertex 9.50891 -36.8436 1
    endloop
  endfacet
  facet normal 0 0 1
    outer loop
      vertex 19.0894 -55.9437 1
      vertex 9.24382 -32.9784 1
      vertex 9.35428 -34.8282 1
    endloop
  endfacet
  facet normal 0 0 1
    outer loop
      vertex 19.0894 -55.9437 1
      vertex 9.17755 -31.2942 1
      vertex 9.24382 -32.9784 1
    endloop
  endfacet
  facet normal 0 0 1
    outer loop
      vertex 9.15546 -29.7756 1
      vertex 19.0894 -3.80072 1
      vertex 9.15546 -3.80072 1
    endloop
  endfacet
  facet normal 0 0 1
    outer loop
      vertex 19.0894 -3.80072 1
      vertex 9.15546 -29.7756 1
      vertex 9.17755 -31.2942 1
    endloop
  endfacet
  facet normal 0 0 1
    outer loop
      vertex 10.2379 -43.8837 1
      vertex 5.71552 -55.9437 1
      vertex 19.0894 -55.9437 1
    endloop
  endfacet
  facet normal -0 0 1
    outer loop
      vertex -9.12727 -16.9039 1
      vertex 10.2379 -43.8837 1
      vertex -4.95259 -3.80072 1
    endloop
  endfacet
  facet normal 0 0 1
    outer loop
      vertex 10.2379 -43.8837 1
      vertex -9.12727 -16.9039 1
      vertex 5.71552 -55.9437 1
    endloop
  endfacet
  facet normal 0 -0 1
    outer loop
      vertex -9.12727 -16.9039 1
      vertex -4.95259 -3.80072 1
      vertex -17.9788 -3.80072 1
    endloop
  endfacet
  facet normal 0 0 1
    outer loop
      vertex -17.9788 -55.9437 1
      vertex -8.04485 -30.5873 1
      vertex -8.06694 -29.3425 1
    endloop
  endfacet
  facet normal 0 0 1
    outer loop
      vertex -17.9788 -55.9437 1
      vertex -8.06694 -29.3425 1
      vertex -8.13321 -27.861 1
    endloop
  endfacet
  facet normal 0 0 1
    outer loop
      vertex -17.9788 -55.9437 1
      vertex -8.13321 -27.861 1
      vertex -8.24365 -26.1429 1
    endloop
  endfacet
  facet normal 0 0 1
    outer loop
      vertex -17.9788 -3.80072 1
      vertex -8.24365 -26.1429 1
      vertex -8.39828 -24.1881 1
    endloop
  endfacet
  facet normal 0 0 1
    outer loop
      vertex -17.9788 -3.80072 1
      vertex -8.39828 -24.1881 1
      vertex -8.59711 -21.9967 1
    endloop
  endfacet
  facet normal 0 0 1
    outer loop
      vertex -17.9788 -3.80072 1
      vertex -8.59711 -21.9967 1
      vertex -8.8401 -19.5686 1
    endloop
  endfacet
  facet normal 0 0 1
    outer loop
      vertex -17.9788 -3.80072 1
      vertex -8.8401 -19.5686 1
      vertex -9.12727 -16.9039 1
    endloop
  endfacet
  facet normal 0 0 1
    outer loop
      vertex -8.24365 -26.1429 1
      vertex -17.9788 -3.80072 1
      vertex -17.9788 -55.9437 1
    endloop
  endfacet
  facet normal 0 0 1
    outer loop
      vertex -8.04485 -30.5873 1
      vertex -17.9788 -55.9437 1
      vertex -8.04485 -55.9437 1
    endloop
  endfacet
  facet normal 0.999843 0.017743 0
    outer loop
      vertex -8.04485 -30.5873 1
      vertex -8.06694 -29.3425 0
      vertex -8.06694 -29.3425 1
    endloop
  endfacet
  facet normal 0.999843 0.017743 0
    outer loop
      vertex -8.06694 -29.3425 0
      vertex -8.04485 -30.5873 1
      vertex -8.04485 -30.5873 0
    endloop
  endfacet
  facet normal 0.999001 0.044687 0
    outer loop
      vertex -8.06694 -29.3425 1
      vertex -8.13321 -27.861 0
      vertex -8.13321 -27.861 1
    endloop
  endfacet
  facet normal 0.999001 0.044687 0
    outer loop
      vertex -8.13321 -27.861 0
      vertex -8.06694 -29.3425 1
      vertex -8.06694 -29.3425 0
    endloop
  endfacet
  facet normal 0.99794 0.0641479 0
    outer loop
      vertex -8.13321 -27.861 1
      vertex -8.24365 -26.1429 0
      vertex -8.24365 -26.1429 1
    endloop
  endfacet
  facet normal 0.99794 0.0641479 0
    outer loop
      vertex -8.24365 -26.1429 0
      vertex -8.13321 -27.861 1
      vertex -8.13321 -27.861 0
    endloop
  endfacet
  facet normal 0.996886 0.0788564 0
    outer loop
      vertex -8.24365 -26.1429 1
      vertex -8.39828 -24.1881 0
      vertex -8.39828 -24.1881 1
    endloop
  endfacet
  facet normal 0.996886 0.0788564 0
    outer loop
      vertex -8.39828 -24.1881 0
      vertex -8.24365 -26.1429 1
      vertex -8.24365 -26.1429 0
    endloop
  endfacet
  facet normal 0.995909 0.0903608 0
    outer loop
      vertex -8.39828 -24.1881 1
      vertex -8.59711 -21.9967 0
      vertex -8.59711 -21.9967 1
    endloop
  endfacet
  facet normal 0.995909 0.0903608 0
    outer loop
      vertex -8.59711 -21.9967 0
      vertex -8.39828 -24.1881 1
      vertex -8.39828 -24.1881 0
    endloop
  endfacet
  facet normal 0.99503 0.0995768 0
    outer loop
      vertex -8.59711 -21.9967 1
      vertex -8.8401 -19.5686 0
      vertex -8.8401 -19.5686 1
    endloop
  endfacet
  facet normal 0.99503 0.0995768 0
    outer loop
      vertex -8.8401 -19.5686 0
      vertex -8.59711 -21.9967 1
      vertex -8.59711 -21.9967 0
    endloop
  endfacet
  facet normal 0.994243 0.107148 0
    outer loop
      vertex -8.8401 -19.5686 1
      vertex -9.12727 -16.9039 0
      vertex -9.12727 -16.9039 1
    endloop
  endfacet
  facet normal 0.994243 0.107148 0
    outer loop
      vertex -9.12727 -16.9039 0
      vertex -8.8401 -19.5686 1
      vertex -8.8401 -19.5686 0
    endloop
  endfacet
  facet normal -0.934723 -0.355378 0
    outer loop
      vertex 5.71552 -55.9437 0
      vertex -9.12727 -16.9039 1
      vertex -9.12727 -16.9039 0
    endloop
  endfacet
  facet normal -0.934723 -0.355378 0
    outer loop
      vertex -9.12727 -16.9039 1
      vertex 5.71552 -55.9437 0
      vertex 5.71552 -55.9437 1
    endloop
  endfacet
  facet normal 0 -1 0
    outer loop
      vertex 5.71552 -55.9437 0
      vertex 19.0894 -55.9437 1
      vertex 5.71552 -55.9437 1
    endloop
  endfacet
  facet normal 0 -1 -0
    outer loop
      vertex 19.0894 -55.9437 1
      vertex 5.71552 -55.9437 0
      vertex 19.0894 -55.9437 0
    endloop
  endfacet
  facet normal 1 -0 0
    outer loop
      vertex 19.0894 -55.9437 1
      vertex 19.0894 -3.80072 0
      vertex 19.0894 -3.80072 1
    endloop
  endfacet
  facet normal 1 0 0
    outer loop
      vertex 19.0894 -3.80072 0
      vertex 19.0894 -55.9437 1
      vertex 19.0894 -55.9437 0
    endloop
  endfacet
  facet normal 0 1 -0
    outer loop
      vertex 19.0894 -3.80072 0
      vertex 9.15546 -3.80072 1
      vertex 19.0894 -3.80072 1
    endloop
  endfacet
  facet normal 0 1 0
    outer loop
      vertex 9.15546 -3.80072 1
      vertex 19.0894 -3.80072 0
      vertex 9.15546 -3.80072 0
    endloop
  endfacet
  facet normal -1 0 0
    outer loop
      vertex 9.15546 -29.7756 0
      vertex 9.15546 -3.80072 1
      vertex 9.15546 -3.80072 0
    endloop
  endfacet
  facet normal -1 -0 0
    outer loop
      vertex 9.15546 -3.80072 1
      vertex 9.15546 -29.7756 0
      vertex 9.15546 -29.7756 1
    endloop
  endfacet
  facet normal -0.999894 -0.0145448 0
    outer loop
      vertex 9.17755 -31.2942 0
      vertex 9.15546 -29.7756 1
      vertex 9.15546 -29.7756 0
    endloop
  endfacet
  facet normal -0.999894 -0.0145448 0
    outer loop
      vertex 9.15546 -29.7756 1
      vertex 9.17755 -31.2942 0
      vertex 9.17755 -31.2942 1
    endloop
  endfacet
  facet normal -0.999227 -0.0393176 0
    outer loop
      vertex 9.24382 -32.9784 0
      vertex 9.17755 -31.2942 1
      vertex 9.17755 -31.2942 0
    endloop
  endfacet
  facet normal -0.999227 -0.0393176 0
    outer loop
      vertex 9.17755 -31.2942 1
      vertex 9.24382 -32.9784 0
      vertex 9.24382 -32.9784 1
    endloop
  endfacet
  facet normal -0.998222 -0.0596084 0
    outer loop
      vertex 9.35428 -34.8282 0
      vertex 9.24382 -32.9784 1
      vertex 9.24382 -32.9784 0
    endloop
  endfacet
  facet normal -0.998222 -0.0596084 0
    outer loop
      vertex 9.24382 -32.9784 1
      vertex 9.35428 -34.8282 0
      vertex 9.35428 -34.8282 1
    endloop
  endfacet
  facet normal -0.99707 -0.0764994 0
    outer loop
      vertex 9.50891 -36.8436 0
      vertex 9.35428 -34.8282 1
      vertex 9.35428 -34.8282 0
    endloop
  endfacet
  facet normal -0.99707 -0.0764994 0
    outer loop
      vertex 9.35428 -34.8282 1
      vertex 9.50891 -36.8436 0
      vertex 9.50891 -36.8436 1
    endloop
  endfacet
  facet normal -0.995871 -0.0907749 0
    outer loop
      vertex 9.70772 -39.0247 0
      vertex 9.50891 -36.8436 1
      vertex 9.50891 -36.8436 0
    endloop
  endfacet
  facet normal -0.995871 -0.0907749 0
    outer loop
      vertex 9.50891 -36.8436 1
      vertex 9.70772 -39.0247 0
      vertex 9.70772 -39.0247 1
    endloop
  endfacet
  facet normal -0.994682 -0.102995 0
    outer loop
      vertex 9.95071 -41.3714 0
      vertex 9.70772 -39.0247 1
      vertex 9.70772 -39.0247 0
    endloop
  endfacet
  facet normal -0.994682 -0.102995 0
    outer loop
      vertex 9.70772 -39.0247 1
      vertex 9.95071 -41.3714 0
      vertex 9.95071 -41.3714 1
    endloop
  endfacet
  facet normal -0.99353 -0.113574 0
    outer loop
      vertex 10.2379 -43.8837 0
      vertex 9.95071 -41.3714 1
      vertex 9.95071 -41.3714 0
    endloop
  endfacet
  facet normal -0.99353 -0.113574 0
    outer loop
      vertex 9.95071 -41.3714 1
      vertex 10.2379 -43.8837 0
      vertex 10.2379 -43.8837 1
    endloop
  endfacet
  facet normal 0.935101 0.354381 0
    outer loop
      vertex 10.2379 -43.8837 1
      vertex -4.95259 -3.80072 0
      vertex -4.95259 -3.80072 1
    endloop
  endfacet
  facet normal 0.935101 0.354381 0
    outer loop
      vertex -4.95259 -3.80072 0
      vertex 10.2379 -43.8837 1
      vertex 10.2379 -43.8837 0
    endloop
  endfacet
  facet normal 0 1 -0
    outer loop
      vertex -4.95259 -3.80072 0
      vertex -17.9788 -3.80072 1
      vertex -4.95259 -3.80072 1
    endloop
  endfacet
  facet normal 0 1 0
    outer loop
      vertex -17.9788 -3.80072 1
      vertex -4.95259 -3.80072 0
      vertex -17.9788 -3.80072 0
    endloop
  endfacet
  facet normal -1 0 0
    outer loop
      vertex -17.9788 -55.9437 0
      vertex -17.9788 -3.80072 1
      vertex -17.9788 -3.80072 0
    endloop
  endfacet
  facet normal -1 -0 0
    outer loop
      vertex -17.9788 -3.80072 1
      vertex -17.9788 -55.9437 0
      vertex -17.9788 -55.9437 1
    endloop
  endfacet
  facet normal 0 -1 0
    outer loop
      vertex -17.9788 -55.9437 0
      vertex -8.04485 -55.9437 1
      vertex -17.9788 -55.9437 1
    endloop
  endfacet
  facet normal 0 -1 -0
    outer loop
      vertex -8.04485 -55.9437 1
      vertex -17.9788 -55.9437 0
      vertex -8.04485 -55.9437 0
    endloop
  endfacet
  facet normal 1 -0 0
    outer loop
      vertex -8.04485 -55.9437 1
      vertex -8.04485 -30.5873 0
      vertex -8.04485 -30.5873 1
    endloop
  endfacet
  facet normal 1 0 0
    outer loop
      vertex -8.04485 -30.5873 0
      vertex -8.04485 -55.9437 1
      vertex -8.04485 -55.9437 0
    endloop
  endfacet
endsolid OpenSCAD_Model
