solid OpenSCAD_Model
  facet normal 0 0 -1
    outer loop
      vertex -29.7718 -84.9062 0
      vertex -10.7671 -47.9284 0
      vertex -10.7671 -84.9062 0
    endloop
  endfacet
  facet normal 0 0 -1
    outer loop
      vertex -29.7718 1.99879 0
      vertex -10.7671 -47.9284 0
      vertex -29.7718 -84.9062 0
    endloop
  endfacet
  facet normal 0 0 -1
    outer loop
      vertex -10.7671 -47.9284 0
      vertex -29.7718 1.99879 0
      vertex -10.7671 -32.2088 0
    endloop
  endfacet
  facet normal 0 0 -1
    outer loop
      vertex -10.7671 -32.2088 0
      vertex -29.7718 1.99879 0
      vertex -10.7671 1.99879 0
    endloop
  endfacet
  facet normal 0 0 -1
    outer loop
      vertex -10.7671 -47.9284 0
      vertex 12.6181 -32.2088 0
      vertex 12.6181 -47.9284 0
    endloop
  endfacet
  facet normal -0 0 -1
    outer loop
      vertex 12.6181 -32.2088 0
      vertex -10.7671 -47.9284 0
      vertex -10.7671 -32.2088 0
    endloop
  endfacet
  facet normal 0 0 -1
    outer loop
      vertex 12.6181 -47.9284 0
      vertex 31.6219 -84.9062 0
      vertex 12.6181 -84.9062 0
    endloop
  endfacet
  facet normal 0 0 -1
    outer loop
      vertex 31.6219 -84.9062 0
      vertex 12.6181 -47.9284 0
      vertex 31.6219 1.99879 0
    endloop
  endfacet
  facet normal 0 0 -1
    outer loop
      vertex 12.6181 -32.2088 0
      vertex 31.6219 1.99879 0
      vertex 12.6181 -47.9284 0
    endloop
  endfacet
  facet normal -0 0 -1
    outer loop
      vertex 31.6219 1.99879 0
      vertex 12.6181 -32.2088 0
      vertex 12.6181 1.99879 0
    endloop
  endfacet
  facet normal -0 0 1
    outer loop
      vertex -29.7718 1.99879 1
      vertex -10.7671 -32.2088 1
      vertex -10.7671 1.99879 1
    endloop
  endfacet
  facet normal 0 0 1
    outer loop
      vertex -10.7671 -32.2088 1
      vertex -29.7718 1.99879 1
      vertex -10.7671 -47.9284 1
    endloop
  endfacet
  facet normal 0 0 1
    outer loop
      vertex -29.7718 -84.9062 1
      vertex -10.7671 -47.9284 1
      vertex -29.7718 1.99879 1
    endloop
  endfacet
  facet normal 0 0 1
    outer loop
      vertex -10.7671 -47.9284 1
      vertex -29.7718 -84.9062 1
      vertex -10.7671 -84.9062 1
    endloop
  endfacet
  facet normal -0 0 1
    outer loop
      vertex -10.7671 -32.2088 1
      vertex 12.6181 -47.9284 1
      vertex 12.6181 -32.2088 1
    endloop
  endfacet
  facet normal 0 0 1
    outer loop
      vertex 12.6181 -47.9284 1
      vertex -10.7671 -32.2088 1
      vertex -10.7671 -47.9284 1
    endloop
  endfacet
  facet normal 0 0 1
    outer loop
      vertex 12.6181 -32.2088 1
      vertex 31.6219 1.99879 1
      vertex 12.6181 1.99879 1
    endloop
  endfacet
  facet normal 0 0 1
    outer loop
      vertex 12.6181 -47.9284 1
      vertex 31.6219 1.99879 1
      vertex 12.6181 -32.2088 1
    endloop
  endfacet
  facet normal 0 0 1
    outer loop
      vertex 31.6219 1.99879 1
      vertex 12.6181 -47.9284 1
      vertex 31.6219 -84.9062 1
    endloop
  endfacet
  facet normal 0 0 1
    outer loop
      vertex 31.6219 -84.9062 1
      vertex 12.6181 -47.9284 1
      vertex 12.6181 -84.9062 1
    endloop
  endfacet
  facet normal 0 -1 0
    outer loop
      vertex -10.7671 -47.9284 0
      vertex 12.6181 -47.9284 1
      vertex -10.7671 -47.9284 1
    endloop
  endfacet
  facet normal 0 -1 -0
    outer loop
      vertex 12.6181 -47.9284 1
      vertex -10.7671 -47.9284 0
      vertex 12.6181 -47.9284 0
    endloop
  endfacet
  facet normal -1 0 0
    outer loop
      vertex 12.6181 -84.9062 0
      vertex 12.6181 -47.9284 1
      vertex 12.6181 -47.9284 0
    endloop
  endfacet
  facet normal -1 -0 0
    outer loop
      vertex 12.6181 -47.9284 1
      vertex 12.6181 -84.9062 0
      vertex 12.6181 -84.9062 1
    endloop
  endfacet
  facet normal 0 -1 0
    outer loop
      vertex 12.6181 -84.9062 0
      vertex 31.6219 -84.9062 1
      vertex 12.6181 -84.9062 1
    endloop
  endfacet
  facet normal 0 -1 -0
    outer loop
      vertex 31.6219 -84.9062 1
      vertex 12.6181 -84.9062 0
      vertex 31.6219 -84.9062 0
    endloop
  endfacet
  facet normal 1 -0 0
    outer loop
      vertex 31.6219 -84.9062 1
      vertex 31.6219 1.99879 0
      vertex 31.6219 1.99879 1
    endloop
  endfacet
  facet normal 1 0 0
    outer loop
      vertex 31.6219 1.99879 0
      vertex 31.6219 -84.9062 1
      vertex 31.6219 -84.9062 0
    endloop
  endfacet
  facet normal 0 1 -0
    outer loop
      vertex 31.6219 1.99879 0
      vertex 12.6181 1.99879 1
      vertex 31.6219 1.99879 1
    endloop
  endfacet
  facet normal 0 1 0
    outer loop
      vertex 12.6181 1.99879 1
      vertex 31.6219 1.99879 0
      vertex 12.6181 1.99879 0
    endloop
  endfacet
  facet normal -1 0 0
    outer loop
      vertex 12.6181 -32.2088 0
      vertex 12.6181 1.99879 1
      vertex 12.6181 1.99879 0
    endloop
  endfacet
  facet normal -1 -0 0
    outer loop
      vertex 12.6181 1.99879 1
      vertex 12.6181 -32.2088 0
      vertex 12.6181 -32.2088 1
    endloop
  endfacet
  facet normal 0 1 -0
    outer loop
      vertex 12.6181 -32.2088 0
      vertex -10.7671 -32.2088 1
      vertex 12.6181 -32.2088 1
    endloop
  endfacet
  facet normal 0 1 0
    outer loop
      vertex -10.7671 -32.2088 1
      vertex 12.6181 -32.2088 0
      vertex -10.7671 -32.2088 0
    endloop
  endfacet
  facet normal 1 -0 0
    outer loop
      vertex -10.7671 -32.2088 1
      vertex -10.7671 1.99879 0
      vertex -10.7671 1.99879 1
    endloop
  endfacet
  facet normal 1 0 0
    outer loop
      vertex -10.7671 1.99879 0
      vertex -10.7671 -32.2088 1
      vertex -10.7671 -32.2088 0
    endloop
  endfacet
  facet normal 0 1 -0
    outer loop
      vertex -10.7671 1.99879 0
      vertex -29.7718 1.99879 1
      vertex -10.7671 1.99879 1
    endloop
  endfacet
  facet normal 0 1 0
    outer loop
      vertex -29.7718 1.99879 1
      vertex -10.7671 1.99879 0
      vertex -29.7718 1.99879 0
    endloop
  endfacet
  facet normal -1 0 0
    outer loop
      vertex -29.7718 -84.9062 0
      vertex -29.7718 1.99879 1
      vertex -29.7718 1.99879 0
    endloop
  endfacet
  facet normal -1 -0 0
    outer loop
      vertex -29.7718 1.99879 1
      vertex -29.7718 -84.9062 0
      vertex -29.7718 -84.9062 1
    endloop
  endfacet
  facet normal 0 -1 0
    outer loop
      vertex -29.7718 -84.9062 0
      vertex -10.7671 -84.9062 1
      vertex -29.7718 -84.9062 1
    endloop
  endfacet
  facet normal 0 -1 -0
    outer loop
      vertex -10.7671 -84.9062 1
      vertex -29.7718 -84.9062 0
      vertex -10.7671 -84.9062 0
    endloop
  endfacet
  facet normal 1 -0 0
    outer loop
      vertex -10.7671 -84.9062 1
      vertex -10.7671 -47.9284 0
      vertex -10.7671 -47.9284 1
    endloop
  endfacet
  facet normal 1 0 0
    outer loop
      vertex -10.7671 -47.9284 0
      vertex -10.7671 -84.9062 1
      vertex -10.7671 -84.9062 0
    endloop
  endfacet
endsolid OpenSCAD_Model
