solid OpenSCAD_Model
  facet normal 0 0 -1
    outer loop
      vertex -17.94 -55.9437 0
      vertex -6.53777 -37.5447 0
      vertex -6.53777 -55.9437 0
    endloop
  endfacet
  facet normal -0 0 -1
    outer loop
      vertex -6.53777 -37.5447 0
      vertex -17.94 -55.9437 0
      vertex -6.53777 -28.7707 0
    endloop
  endfacet
  facet normal 0 0 -1
    outer loop
      vertex -17.94 -3.80072 0
      vertex -6.53777 -28.7707 0
      vertex -17.94 -55.9437 0
    endloop
  endfacet
  facet normal 0 0 -1
    outer loop
      vertex 9.46497 -20.4601 0
      vertex 20.9448 -20.2669 0
      vertex 20.8967 -21.7211 0
    endloop
  endfacet
  facet normal 0 0 -1
    outer loop
      vertex 9.41684 -21.5901 0
      vertex 20.8967 -21.7211 0
      vertex 20.7523 -23.1241 0
    endloop
  endfacet
  facet normal 0 0 -1
    outer loop
      vertex 9.4133 -19.3057 0
      vertex 20.9448 -20.2669 0
      vertex 9.46497 -20.4601 0
    endloop
  endfacet
  facet normal 0 0 -1
    outer loop
      vertex 9.41684 -21.5901 0
      vertex 20.7523 -23.1241 0
      vertex 20.5117 -24.4758 0
    endloop
  endfacet
  facet normal 0 0 -1
    outer loop
      vertex 9.27248 -22.6389 0
      vertex 20.5117 -24.4758 0
      vertex 20.1748 -25.7762 0
    endloop
  endfacet
  facet normal 0 0 -1
    outer loop
      vertex 20.9448 -20.2669 0
      vertex 9.4133 -19.3057 0
      vertex 20.8387 -18.038 0
    endloop
  endfacet
  facet normal 0 0 -1
    outer loop
      vertex 9.03185 -23.6064 0
      vertex 20.1748 -25.7762 0
      vertex 19.7417 -27.0253 0
    endloop
  endfacet
  facet normal 0 0 -1
    outer loop
      vertex 9.25829 -18.2499 0
      vertex 20.8387 -18.038 0
      vertex 9.4133 -19.3057 0
    endloop
  endfacet
  facet normal 0 0 -1
    outer loop
      vertex 9.03185 -23.6064 0
      vertex 19.7417 -27.0253 0
      vertex 19.2123 -28.2232 0
    endloop
  endfacet
  facet normal 0 0 -1
    outer loop
      vertex 8.69498 -24.4926 0
      vertex 19.2123 -28.2232 0
      vertex 18.5867 -29.3698 0
    endloop
  endfacet
  facet normal -0 0 -1
    outer loop
      vertex 20.8387 -18.038 0
      vertex 9.25829 -18.2499 0
      vertex 20.5204 -15.9677 0
    endloop
  endfacet
  facet normal 0 0 -1
    outer loop
      vertex 8.69498 -24.4926 0
      vertex 18.5867 -29.3698 0
      vertex 17.8701 -30.454 0
    endloop
  endfacet
  facet normal -0 0 -1
    outer loop
      vertex 20.5204 -15.9677 0
      vertex 9.25829 -18.2499 0
      vertex 19.9899 -14.0559 0
    endloop
  endfacet
  facet normal 0 0 -1
    outer loop
      vertex 8.26186 -25.2977 0
      vertex 17.8701 -30.454 0
      vertex 17.0675 -31.465 0
    endloop
  endfacet
  facet normal 0 0 -1
    outer loop
      vertex 8.26186 -25.2977 0
      vertex 17.0675 -31.465 0
      vertex 16.1789 -32.4025 0
    endloop
  endfacet
  facet normal 0 0 -1
    outer loop
      vertex 8.99992 -17.2928 0
      vertex 19.9899 -14.0559 0
      vertex 9.25829 -18.2499 0
    endloop
  endfacet
  facet normal 0 0 -1
    outer loop
      vertex 7.7325 -26.0214 0
      vertex 16.1789 -32.4025 0
      vertex 15.2043 -33.2667 0
    endloop
  endfacet
  facet normal -0 0 -1
    outer loop
      vertex 19.9899 -14.0559 0
      vertex 8.99992 -17.2928 0
      vertex 19.2471 -12.3028 0
    endloop
  endfacet
  facet normal 0 0 -1
    outer loop
      vertex 7.7325 -26.0214 0
      vertex 15.2043 -33.2667 0
      vertex 14.1436 -34.0576 0
    endloop
  endfacet
  facet normal 0 0 -1
    outer loop
      vertex 7.10687 -26.664 0
      vertex 14.1436 -34.0576 0
      vertex 12.997 -34.7751 0
    endloop
  endfacet
  facet normal 0 0 -1
    outer loop
      vertex 8.63821 -16.4342 0
      vertex 19.2471 -12.3028 0
      vertex 8.99992 -17.2928 0
    endloop
  endfacet
  facet normal 0 0 -1
    outer loop
      vertex 7.10687 -26.664 0
      vertex 12.997 -34.7751 0
      vertex 11.7643 -35.4192 0
    endloop
  endfacet
  facet normal 0 0 -1
    outer loop
      vertex 6.37714 -27.2229 0
      vertex 11.7643 -35.4192 0
      vertex 10.453 -35.9831 0
    endloop
  endfacet
  facet normal 0 0 -1
    outer loop
      vertex 20.8967 -21.7211 0
      vertex 9.41684 -21.5901 0
      vertex 9.46497 -20.4601 0
    endloop
  endfacet
  facet normal -0 0 -1
    outer loop
      vertex 18.2922 -10.7082 0
      vertex 8.63821 -16.4342 0
      vertex 17.1251 -9.2722 0
    endloop
  endfacet
  facet normal -0 0 -1
    outer loop
      vertex 19.2471 -12.3028 0
      vertex 8.63821 -16.4342 0
      vertex 18.2922 -10.7082 0
    endloop
  endfacet
  facet normal 0 0 -1
    outer loop
      vertex 20.5117 -24.4758 0
      vertex 9.27248 -22.6389 0
      vertex 9.41684 -21.5901 0
    endloop
  endfacet
  facet normal 0 0 -1
    outer loop
      vertex 5.5354 -27.6958 0
      vertex 10.453 -35.9831 0
      vertex 9.06976 -36.4603 0
    endloop
  endfacet
  facet normal 0 0 -1
    outer loop
      vertex 20.1748 -25.7762 0
      vertex 9.03185 -23.6064 0
      vertex 9.27248 -22.6389 0
    endloop
  endfacet
  facet normal 0 0 -1
    outer loop
      vertex 19.2123 -28.2232 0
      vertex 8.69498 -24.4926 0
      vertex 9.03185 -23.6064 0
    endloop
  endfacet
  facet normal 0 0 -1
    outer loop
      vertex 17.8701 -30.454 0
      vertex 8.26186 -25.2977 0
      vertex 8.69498 -24.4926 0
    endloop
  endfacet
  facet normal 0 0 -1
    outer loop
      vertex 16.1789 -32.4025 0
      vertex 7.7325 -26.0214 0
      vertex 8.26186 -25.2977 0
    endloop
  endfacet
  facet normal 0 0 -1
    outer loop
      vertex 5.5354 -27.6958 0
      vertex 9.06976 -36.4603 0
      vertex 7.61478 -36.8507 0
    endloop
  endfacet
  facet normal 0 0 -1
    outer loop
      vertex 14.1436 -34.0576 0
      vertex 7.10687 -26.664 0
      vertex 7.7325 -26.0214 0
    endloop
  endfacet
  facet normal 0 0 -1
    outer loop
      vertex 11.7643 -35.4192 0
      vertex 6.37714 -27.2229 0
      vertex 7.10687 -26.664 0
    endloop
  endfacet
  facet normal 0 0 -1
    outer loop
      vertex 4.58167 -28.0828 0
      vertex 7.61478 -36.8507 0
      vertex 6.08798 -37.1543 0
    endloop
  endfacet
  facet normal 0 0 -1
    outer loop
      vertex 10.453 -35.9831 0
      vertex 5.5354 -27.6958 0
      vertex 6.37714 -27.2229 0
    endloop
  endfacet
  facet normal 0 0 -1
    outer loop
      vertex 7.61478 -36.8507 0
      vertex 4.58167 -28.0828 0
      vertex 5.5354 -27.6958 0
    endloop
  endfacet
  facet normal 0 0 -1
    outer loop
      vertex 3.51593 -28.3838 0
      vertex 6.08798 -37.1543 0
      vertex 4.48941 -37.3712 0
    endloop
  endfacet
  facet normal 0 0 -1
    outer loop
      vertex 6.08798 -37.1543 0
      vertex 3.51593 -28.3838 0
      vertex 4.58167 -28.0828 0
    endloop
  endfacet
  facet normal 0 0 -1
    outer loop
      vertex 2.3382 -28.5987 0
      vertex 4.48941 -37.3712 0
      vertex 2.81903 -37.5013 0
    endloop
  endfacet
  facet normal 0 0 -1
    outer loop
      vertex 4.48941 -37.3712 0
      vertex 2.3382 -28.5987 0
      vertex 3.51593 -28.3838 0
    endloop
  endfacet
  facet normal 0 0 -1
    outer loop
      vertex 1.04845 -28.7277 0
      vertex 2.81903 -37.5013 0
      vertex 1.07684 -37.5447 0
    endloop
  endfacet
  facet normal 0 0 -1
    outer loop
      vertex 2.81903 -37.5013 0
      vertex 1.04845 -28.7277 0
      vertex 2.3382 -28.5987 0
    endloop
  endfacet
  facet normal 0 0 -1
    outer loop
      vertex 1.07684 -37.5447 0
      vertex -0.353271 -28.7707 0
      vertex 1.04845 -28.7277 0
    endloop
  endfacet
  facet normal 0 0 -1
    outer loop
      vertex -6.53777 -37.5447 0
      vertex -0.353271 -28.7707 0
      vertex 1.07684 -37.5447 0
    endloop
  endfacet
  facet normal -0 0 -1
    outer loop
      vertex -0.353271 -28.7707 0
      vertex -6.53777 -37.5447 0
      vertex -6.53777 -28.7707 0
    endloop
  endfacet
  facet normal 0 0 -1
    outer loop
      vertex 8.17316 -15.6742 0
      vertex 17.1251 -9.2722 0
      vertex 8.63821 -16.4342 0
    endloop
  endfacet
  facet normal -0 0 -1
    outer loop
      vertex 17.1251 -9.2722 0
      vertex 8.17316 -15.6742 0
      vertex 15.7458 -7.99477 0
    endloop
  endfacet
  facet normal 0 0 -1
    outer loop
      vertex 7.60477 -15.0128 0
      vertex 15.7458 -7.99477 0
      vertex 8.17316 -15.6742 0
    endloop
  endfacet
  facet normal -0 0 -1
    outer loop
      vertex 15.7458 -7.99477 0
      vertex 7.60477 -15.0128 0
      vertex 14.1638 -6.88206 0
    endloop
  endfacet
  facet normal -0 0 -1
    outer loop
      vertex 14.1638 -6.88206 0
      vertex 7.60477 -15.0128 0
      vertex 12.3885 -5.94054 0
    endloop
  endfacet
  facet normal 0 0 -1
    outer loop
      vertex 6.93303 -14.45 0
      vertex 12.3885 -5.94054 0
      vertex 7.60477 -15.0128 0
    endloop
  endfacet
  facet normal -0 0 -1
    outer loop
      vertex 12.3885 -5.94054 0
      vertex 6.93303 -14.45 0
      vertex 10.42 -5.1702 0
    endloop
  endfacet
  facet normal 0 0 -1
    outer loop
      vertex 6.15796 -13.9731 0
      vertex 10.42 -5.1702 0
      vertex 6.93303 -14.45 0
    endloop
  endfacet
  facet normal -0 0 -1
    outer loop
      vertex 10.42 -5.1702 0
      vertex 6.15796 -13.9731 0
      vertex 8.25818 -4.57106 0
    endloop
  endfacet
  facet normal 0 0 -1
    outer loop
      vertex 5.27957 -13.5695 0
      vertex 8.25818 -4.57106 0
      vertex 6.15796 -13.9731 0
    endloop
  endfacet
  facet normal -0 0 -1
    outer loop
      vertex 8.25818 -4.57106 0
      vertex 5.27957 -13.5695 0
      vertex 5.90318 -4.1431 0
    endloop
  endfacet
  facet normal 0 0 -1
    outer loop
      vertex 4.29785 -13.2393 0
      vertex 5.90318 -4.1431 0
      vertex 5.27957 -13.5695 0
    endloop
  endfacet
  facet normal 0 0 -1
    outer loop
      vertex 3.21281 -12.9825 0
      vertex 5.90318 -4.1431 0
      vertex 4.29785 -13.2393 0
    endloop
  endfacet
  facet normal -0 0 -1
    outer loop
      vertex 5.90318 -4.1431 0
      vertex 3.21281 -12.9825 0
      vertex 3.35493 -3.88632 0
    endloop
  endfacet
  facet normal 0 0 -1
    outer loop
      vertex 2.02446 -12.799 0
      vertex 3.35493 -3.88632 0
      vertex 3.21281 -12.9825 0
    endloop
  endfacet
  facet normal 0 0 -1
    outer loop
      vertex 0.613434 -3.80072 0
      vertex 2.02446 -12.799 0
      vertex 0.732773 -12.6889 0
    endloop
  endfacet
  facet normal 0 0 -1
    outer loop
      vertex 2.02446 -12.799 0
      vertex 0.613434 -3.80072 0
      vertex 3.35493 -3.88632 0
    endloop
  endfacet
  facet normal 0 0 -1
    outer loop
      vertex -0.662201 -12.6522 0
      vertex 0.613434 -3.80072 0
      vertex 0.732773 -12.6889 0
    endloop
  endfacet
  facet normal 0 0 -1
    outer loop
      vertex -6.53777 -12.6522 0
      vertex 0.613434 -3.80072 0
      vertex -0.662201 -12.6522 0
    endloop
  endfacet
  facet normal 0 0 -1
    outer loop
      vertex -6.53777 -12.6522 0
      vertex -17.94 -3.80072 0
      vertex 0.613434 -3.80072 0
    endloop
  endfacet
  facet normal 0 0 -1
    outer loop
      vertex -6.53777 -28.7707 0
      vertex -17.94 -3.80072 0
      vertex -6.53777 -12.6522 0
    endloop
  endfacet
  facet normal 0 0 1
    outer loop
      vertex 20.9448 -20.2669 1
      vertex 9.4133 -19.3057 1
      vertex 9.46497 -20.4601 1
    endloop
  endfacet
  facet normal 0 0 1
    outer loop
      vertex 12.3885 -5.94054 1
      vertex 9.25829 -18.2499 1
      vertex 9.4133 -19.3057 1
    endloop
  endfacet
  facet normal 0 0 1
    outer loop
      vertex 12.3885 -5.94054 1
      vertex 8.99992 -17.2928 1
      vertex 9.25829 -18.2499 1
    endloop
  endfacet
  facet normal 0 0 1
    outer loop
      vertex 12.3885 -5.94054 1
      vertex 8.63821 -16.4342 1
      vertex 8.99992 -17.2928 1
    endloop
  endfacet
  facet normal 0 0 1
    outer loop
      vertex 6.15796 -13.9731 1
      vertex 10.42 -5.1702 1
      vertex 8.25818 -4.57106 1
    endloop
  endfacet
  facet normal 0 0 1
    outer loop
      vertex 12.3885 -5.94054 1
      vertex 8.17316 -15.6742 1
      vertex 8.63821 -16.4342 1
    endloop
  endfacet
  facet normal 0 0 1
    outer loop
      vertex 12.3885 -5.94054 1
      vertex 7.60477 -15.0128 1
      vertex 8.17316 -15.6742 1
    endloop
  endfacet
  facet normal 0 0 1
    outer loop
      vertex 12.3885 -5.94054 1
      vertex 6.93303 -14.45 1
      vertex 7.60477 -15.0128 1
    endloop
  endfacet
  facet normal 0 0 1
    outer loop
      vertex 10.42 -5.1702 1
      vertex 6.15796 -13.9731 1
      vertex 6.93303 -14.45 1
    endloop
  endfacet
  facet normal 0 0 1
    outer loop
      vertex 5.27957 -13.5695 1
      vertex 8.25818 -4.57106 1
      vertex 5.90318 -4.1431 1
    endloop
  endfacet
  facet normal 0 0 1
    outer loop
      vertex 8.25818 -4.57106 1
      vertex 5.27957 -13.5695 1
      vertex 6.15796 -13.9731 1
    endloop
  endfacet
  facet normal 0 0 1
    outer loop
      vertex 5.90318 -4.1431 1
      vertex 4.29785 -13.2393 1
      vertex 5.27957 -13.5695 1
    endloop
  endfacet
  facet normal 0 0 1
    outer loop
      vertex 3.21281 -12.9825 1
      vertex 5.90318 -4.1431 1
      vertex 3.35493 -3.88632 1
    endloop
  endfacet
  facet normal 0 0 1
    outer loop
      vertex 5.90318 -4.1431 1
      vertex 3.21281 -12.9825 1
      vertex 4.29785 -13.2393 1
    endloop
  endfacet
  facet normal 0 0 1
    outer loop
      vertex 3.35493 -3.88632 1
      vertex 2.02446 -12.799 1
      vertex 3.21281 -12.9825 1
    endloop
  endfacet
  facet normal 0 0 1
    outer loop
      vertex 0.613434 -3.80072 1
      vertex 2.02446 -12.799 1
      vertex 3.35493 -3.88632 1
    endloop
  endfacet
  facet normal 0 0 1
    outer loop
      vertex 2.02446 -12.799 1
      vertex 0.613434 -3.80072 1
      vertex 0.732773 -12.6889 1
    endloop
  endfacet
  facet normal 0 0 1
    outer loop
      vertex 0.613434 -3.80072 1
      vertex -0.662201 -12.6522 1
      vertex 0.732773 -12.6889 1
    endloop
  endfacet
  facet normal 0 0 1
    outer loop
      vertex 0.613434 -3.80072 1
      vertex -6.53777 -12.6522 1
      vertex -0.662201 -12.6522 1
    endloop
  endfacet
  facet normal 0 0 1
    outer loop
      vertex -17.94 -3.80072 1
      vertex -6.53777 -28.7707 1
      vertex -6.53777 -12.6522 1
    endloop
  endfacet
  facet normal 0 0 1
    outer loop
      vertex -17.94 -55.9437 1
      vertex -6.53777 -28.7707 1
      vertex -17.94 -3.80072 1
    endloop
  endfacet
  facet normal -0 0 1
    outer loop
      vertex -17.94 -3.80072 1
      vertex -6.53777 -12.6522 1
      vertex 0.613434 -3.80072 1
    endloop
  endfacet
  facet normal 0 0 1
    outer loop
      vertex -6.53777 -28.7707 1
      vertex -17.94 -55.9437 1
      vertex -6.53777 -37.5447 1
    endloop
  endfacet
  facet normal 0 0 1
    outer loop
      vertex -6.53777 -37.5447 1
      vertex -17.94 -55.9437 1
      vertex -6.53777 -55.9437 1
    endloop
  endfacet
  facet normal -0 0 1
    outer loop
      vertex 9.4133 -19.3057 1
      vertex 20.9448 -20.2669 1
      vertex 20.8387 -18.038 1
    endloop
  endfacet
  facet normal 0 0 1
    outer loop
      vertex 20.9448 -20.2669 1
      vertex 9.46497 -20.4601 1
      vertex 20.8967 -21.7211 1
    endloop
  endfacet
  facet normal 0 0 1
    outer loop
      vertex 9.4133 -19.3057 1
      vertex 20.8387 -18.038 1
      vertex 20.5204 -15.9677 1
    endloop
  endfacet
  facet normal -0 0 1
    outer loop
      vertex 9.41684 -21.5901 1
      vertex 20.8967 -21.7211 1
      vertex 9.46497 -20.4601 1
    endloop
  endfacet
  facet normal 0 0 1
    outer loop
      vertex 20.8967 -21.7211 1
      vertex 9.41684 -21.5901 1
      vertex 20.7523 -23.1241 1
    endloop
  endfacet
  facet normal 0 0 1
    outer loop
      vertex 9.4133 -19.3057 1
      vertex 20.5204 -15.9677 1
      vertex 19.9899 -14.0559 1
    endloop
  endfacet
  facet normal 0 0 1
    outer loop
      vertex 20.7523 -23.1241 1
      vertex 9.41684 -21.5901 1
      vertex 20.5117 -24.4758 1
    endloop
  endfacet
  facet normal 0 0 1
    outer loop
      vertex 9.4133 -19.3057 1
      vertex 19.9899 -14.0559 1
      vertex 19.2471 -12.3028 1
    endloop
  endfacet
  facet normal -0 0 1
    outer loop
      vertex 9.27248 -22.6389 1
      vertex 20.5117 -24.4758 1
      vertex 9.41684 -21.5901 1
    endloop
  endfacet
  facet normal 0 0 1
    outer loop
      vertex 20.5117 -24.4758 1
      vertex 9.27248 -22.6389 1
      vertex 20.1748 -25.7762 1
    endloop
  endfacet
  facet normal 0 0 1
    outer loop
      vertex 9.4133 -19.3057 1
      vertex 19.2471 -12.3028 1
      vertex 18.2922 -10.7082 1
    endloop
  endfacet
  facet normal -0 0 1
    outer loop
      vertex 9.03185 -23.6064 1
      vertex 20.1748 -25.7762 1
      vertex 9.27248 -22.6389 1
    endloop
  endfacet
  facet normal 0 0 1
    outer loop
      vertex 9.4133 -19.3057 1
      vertex 18.2922 -10.7082 1
      vertex 17.1251 -9.2722 1
    endloop
  endfacet
  facet normal 0 0 1
    outer loop
      vertex 20.1748 -25.7762 1
      vertex 9.03185 -23.6064 1
      vertex 19.7417 -27.0253 1
    endloop
  endfacet
  facet normal 0 0 1
    outer loop
      vertex 19.7417 -27.0253 1
      vertex 9.03185 -23.6064 1
      vertex 19.2123 -28.2232 1
    endloop
  endfacet
  facet normal 0 0 1
    outer loop
      vertex 9.4133 -19.3057 1
      vertex 17.1251 -9.2722 1
      vertex 15.7458 -7.99477 1
    endloop
  endfacet
  facet normal -0 0 1
    outer loop
      vertex 8.69498 -24.4926 1
      vertex 19.2123 -28.2232 1
      vertex 9.03185 -23.6064 1
    endloop
  endfacet
  facet normal 0 0 1
    outer loop
      vertex 9.4133 -19.3057 1
      vertex 15.7458 -7.99477 1
      vertex 14.1638 -6.88206 1
    endloop
  endfacet
  facet normal 0 0 1
    outer loop
      vertex 19.2123 -28.2232 1
      vertex 8.69498 -24.4926 1
      vertex 18.5867 -29.3698 1
    endloop
  endfacet
  facet normal 0 0 1
    outer loop
      vertex 18.5867 -29.3698 1
      vertex 8.69498 -24.4926 1
      vertex 17.8701 -30.454 1
    endloop
  endfacet
  facet normal 0 0 1
    outer loop
      vertex 9.4133 -19.3057 1
      vertex 14.1638 -6.88206 1
      vertex 12.3885 -5.94054 1
    endloop
  endfacet
  facet normal -0 0 1
    outer loop
      vertex 8.26186 -25.2977 1
      vertex 17.8701 -30.454 1
      vertex 8.69498 -24.4926 1
    endloop
  endfacet
  facet normal 0 0 1
    outer loop
      vertex 17.8701 -30.454 1
      vertex 8.26186 -25.2977 1
      vertex 17.0675 -31.465 1
    endloop
  endfacet
  facet normal 0 0 1
    outer loop
      vertex 6.93303 -14.45 1
      vertex 12.3885 -5.94054 1
      vertex 10.42 -5.1702 1
    endloop
  endfacet
  facet normal 0 0 1
    outer loop
      vertex 17.0675 -31.465 1
      vertex 8.26186 -25.2977 1
      vertex 16.1789 -32.4025 1
    endloop
  endfacet
  facet normal -0 0 1
    outer loop
      vertex 7.7325 -26.0214 1
      vertex 16.1789 -32.4025 1
      vertex 8.26186 -25.2977 1
    endloop
  endfacet
  facet normal 0 0 1
    outer loop
      vertex 16.1789 -32.4025 1
      vertex 7.7325 -26.0214 1
      vertex 15.2043 -33.2667 1
    endloop
  endfacet
  facet normal 0 0 1
    outer loop
      vertex 15.2043 -33.2667 1
      vertex 7.7325 -26.0214 1
      vertex 14.1436 -34.0576 1
    endloop
  endfacet
  facet normal -0 0 1
    outer loop
      vertex 7.10687 -26.664 1
      vertex 14.1436 -34.0576 1
      vertex 7.7325 -26.0214 1
    endloop
  endfacet
  facet normal 0 0 1
    outer loop
      vertex 14.1436 -34.0576 1
      vertex 7.10687 -26.664 1
      vertex 12.997 -34.7751 1
    endloop
  endfacet
  facet normal 0 0 1
    outer loop
      vertex 12.997 -34.7751 1
      vertex 7.10687 -26.664 1
      vertex 11.7643 -35.4192 1
    endloop
  endfacet
  facet normal -0 0 1
    outer loop
      vertex 6.37714 -27.2229 1
      vertex 11.7643 -35.4192 1
      vertex 7.10687 -26.664 1
    endloop
  endfacet
  facet normal 0 0 1
    outer loop
      vertex 11.7643 -35.4192 1
      vertex 6.37714 -27.2229 1
      vertex 10.453 -35.9831 1
    endloop
  endfacet
  facet normal -0 0 1
    outer loop
      vertex 5.5354 -27.6958 1
      vertex 10.453 -35.9831 1
      vertex 6.37714 -27.2229 1
    endloop
  endfacet
  facet normal 0 0 1
    outer loop
      vertex 10.453 -35.9831 1
      vertex 5.5354 -27.6958 1
      vertex 9.06976 -36.4603 1
    endloop
  endfacet
  facet normal 0 0 1
    outer loop
      vertex 9.06976 -36.4603 1
      vertex 5.5354 -27.6958 1
      vertex 7.61478 -36.8507 1
    endloop
  endfacet
  facet normal -0 0 1
    outer loop
      vertex 4.58167 -28.0828 1
      vertex 7.61478 -36.8507 1
      vertex 5.5354 -27.6958 1
    endloop
  endfacet
  facet normal 0 0 1
    outer loop
      vertex 7.61478 -36.8507 1
      vertex 4.58167 -28.0828 1
      vertex 6.08798 -37.1543 1
    endloop
  endfacet
  facet normal -0 0 1
    outer loop
      vertex 3.51593 -28.3838 1
      vertex 6.08798 -37.1543 1
      vertex 4.58167 -28.0828 1
    endloop
  endfacet
  facet normal 0 0 1
    outer loop
      vertex 6.08798 -37.1543 1
      vertex 3.51593 -28.3838 1
      vertex 4.48941 -37.3712 1
    endloop
  endfacet
  facet normal -0 0 1
    outer loop
      vertex 2.3382 -28.5987 1
      vertex 4.48941 -37.3712 1
      vertex 3.51593 -28.3838 1
    endloop
  endfacet
  facet normal 0 0 1
    outer loop
      vertex 4.48941 -37.3712 1
      vertex 2.3382 -28.5987 1
      vertex 2.81903 -37.5013 1
    endloop
  endfacet
  facet normal -0 0 1
    outer loop
      vertex 1.04845 -28.7277 1
      vertex 2.81903 -37.5013 1
      vertex 2.3382 -28.5987 1
    endloop
  endfacet
  facet normal 0 0 1
    outer loop
      vertex 2.81903 -37.5013 1
      vertex 1.04845 -28.7277 1
      vertex 1.07684 -37.5447 1
    endloop
  endfacet
  facet normal -0 0 1
    outer loop
      vertex -0.353271 -28.7707 1
      vertex 1.07684 -37.5447 1
      vertex 1.04845 -28.7277 1
    endloop
  endfacet
  facet normal 0 0 1
    outer loop
      vertex -6.53777 -37.5447 1
      vertex -0.353271 -28.7707 1
      vertex -6.53777 -28.7707 1
    endloop
  endfacet
  facet normal 0 0 1
    outer loop
      vertex -0.353271 -28.7707 1
      vertex -6.53777 -37.5447 1
      vertex 1.07684 -37.5447 1
    endloop
  endfacet
  facet normal 0 -1 0
    outer loop
      vertex -6.53777 -37.5447 0
      vertex 1.07684 -37.5447 1
      vertex -6.53777 -37.5447 1
    endloop
  endfacet
  facet normal 0 -1 -0
    outer loop
      vertex 1.07684 -37.5447 1
      vertex -6.53777 -37.5447 0
      vertex 1.07684 -37.5447 0
    endloop
  endfacet
  facet normal 0.0249034 -0.99969 0
    outer loop
      vertex 1.07684 -37.5447 0
      vertex 2.81903 -37.5013 1
      vertex 1.07684 -37.5447 1
    endloop
  endfacet
  facet normal 0.0249034 -0.99969 0
    outer loop
      vertex 2.81903 -37.5013 1
      vertex 1.07684 -37.5447 0
      vertex 2.81903 -37.5013 0
    endloop
  endfacet
  facet normal 0.0776513 -0.996981 0
    outer loop
      vertex 2.81903 -37.5013 0
      vertex 4.48941 -37.3712 1
      vertex 2.81903 -37.5013 1
    endloop
  endfacet
  facet normal 0.0776513 -0.996981 0
    outer loop
      vertex 4.48941 -37.3712 1
      vertex 2.81903 -37.5013 0
      vertex 4.48941 -37.3712 0
    endloop
  endfacet
  facet normal 0.134452 -0.99092 0
    outer loop
      vertex 4.48941 -37.3712 0
      vertex 6.08798 -37.1543 1
      vertex 4.48941 -37.3712 1
    endloop
  endfacet
  facet normal 0.134452 -0.99092 0
    outer loop
      vertex 6.08798 -37.1543 1
      vertex 4.48941 -37.3712 0
      vertex 6.08798 -37.1543 0
    endloop
  endfacet
  facet normal 0.195029 -0.980797 0
    outer loop
      vertex 6.08798 -37.1543 0
      vertex 7.61478 -36.8507 1
      vertex 6.08798 -37.1543 1
    endloop
  endfacet
  facet normal 0.195029 -0.980797 0
    outer loop
      vertex 7.61478 -36.8507 1
      vertex 6.08798 -37.1543 0
      vertex 7.61478 -36.8507 0
    endloop
  endfacet
  facet normal 0.259153 -0.965836 0
    outer loop
      vertex 7.61478 -36.8507 0
      vertex 9.06976 -36.4603 1
      vertex 7.61478 -36.8507 1
    endloop
  endfacet
  facet normal 0.259153 -0.965836 0
    outer loop
      vertex 9.06976 -36.4603 1
      vertex 7.61478 -36.8507 0
      vertex 9.06976 -36.4603 0
    endloop
  endfacet
  facet normal 0.326125 -0.945326 0
    outer loop
      vertex 9.06976 -36.4603 0
      vertex 10.453 -35.9831 1
      vertex 9.06976 -36.4603 1
    endloop
  endfacet
  facet normal 0.326125 -0.945326 0
    outer loop
      vertex 10.453 -35.9831 1
      vertex 9.06976 -36.4603 0
      vertex 10.453 -35.9831 0
    endloop
  endfacet
  facet normal 0.395052 -0.918659 0
    outer loop
      vertex 10.453 -35.9831 0
      vertex 11.7643 -35.4192 1
      vertex 10.453 -35.9831 1
    endloop
  endfacet
  facet normal 0.395052 -0.918659 0
    outer loop
      vertex 11.7643 -35.4192 1
      vertex 10.453 -35.9831 0
      vertex 11.7643 -35.4192 0
    endloop
  endfacet
  facet normal 0.463104 -0.886304 0
    outer loop
      vertex 11.7643 -35.4192 0
      vertex 12.997 -34.7751 1
      vertex 11.7643 -35.4192 1
    endloop
  endfacet
  facet normal 0.463104 -0.886304 0
    outer loop
      vertex 12.997 -34.7751 1
      vertex 11.7643 -35.4192 0
      vertex 12.997 -34.7751 0
    endloop
  endfacet
  facet normal 0.530464 -0.847707 0
    outer loop
      vertex 12.997 -34.7751 0
      vertex 14.1436 -34.0576 1
      vertex 12.997 -34.7751 1
    endloop
  endfacet
  facet normal 0.530464 -0.847707 0
    outer loop
      vertex 14.1436 -34.0576 1
      vertex 12.997 -34.7751 0
      vertex 14.1436 -34.0576 0
    endloop
  endfacet
  facet normal 0.59776 -0.801675 0
    outer loop
      vertex 14.1436 -34.0576 0
      vertex 15.2043 -33.2667 1
      vertex 14.1436 -34.0576 1
    endloop
  endfacet
  facet normal 0.59776 -0.801675 0
    outer loop
      vertex 15.2043 -33.2667 1
      vertex 14.1436 -34.0576 0
      vertex 15.2043 -33.2667 0
    endloop
  endfacet
  facet normal 0.663458 -0.748214 0
    outer loop
      vertex 15.2043 -33.2667 0
      vertex 16.1789 -32.4025 1
      vertex 15.2043 -33.2667 1
    endloop
  endfacet
  facet normal 0.663458 -0.748214 0
    outer loop
      vertex 16.1789 -32.4025 1
      vertex 15.2043 -33.2667 0
      vertex 16.1789 -32.4025 0
    endloop
  endfacet
  facet normal 0.725782 -0.687925 0
    outer loop
      vertex 16.1789 -32.4025 1
      vertex 17.0675 -31.465 0
      vertex 17.0675 -31.465 1
    endloop
  endfacet
  facet normal 0.725782 -0.687925 0
    outer loop
      vertex 17.0675 -31.465 0
      vertex 16.1789 -32.4025 1
      vertex 16.1789 -32.4025 0
    endloop
  endfacet
  facet normal 0.783206 -0.621762 0
    outer loop
      vertex 17.0675 -31.465 1
      vertex 17.8701 -30.454 0
      vertex 17.8701 -30.454 1
    endloop
  endfacet
  facet normal 0.783206 -0.621762 0
    outer loop
      vertex 17.8701 -30.454 0
      vertex 17.0675 -31.465 1
      vertex 17.0675 -31.465 0
    endloop
  endfacet
  facet normal 0.834246 -0.551393 0
    outer loop
      vertex 17.8701 -30.454 1
      vertex 18.5867 -29.3698 0
      vertex 18.5867 -29.3698 1
    endloop
  endfacet
  facet normal 0.834246 -0.551393 0
    outer loop
      vertex 18.5867 -29.3698 0
      vertex 17.8701 -30.454 1
      vertex 17.8701 -30.454 0
    endloop
  endfacet
  facet normal 0.877837 -0.478959 0
    outer loop
      vertex 18.5867 -29.3698 1
      vertex 19.2123 -28.2232 0
      vertex 19.2123 -28.2232 1
    endloop
  endfacet
  facet normal 0.877837 -0.478959 0
    outer loop
      vertex 19.2123 -28.2232 0
      vertex 18.5867 -29.3698 1
      vertex 18.5867 -29.3698 0
    endloop
  endfacet
  facet normal 0.91466 -0.404225 0
    outer loop
      vertex 19.2123 -28.2232 1
      vertex 19.7417 -27.0253 0
      vertex 19.7417 -27.0253 1
    endloop
  endfacet
  facet normal 0.91466 -0.404225 0
    outer loop
      vertex 19.7417 -27.0253 0
      vertex 19.2123 -28.2232 1
      vertex 19.2123 -28.2232 0
    endloop
  endfacet
  facet normal 0.944818 -0.327596 0
    outer loop
      vertex 19.7417 -27.0253 1
      vertex 20.1748 -25.7762 0
      vertex 20.1748 -25.7762 1
    endloop
  endfacet
  facet normal 0.944818 -0.327596 0
    outer loop
      vertex 20.1748 -25.7762 0
      vertex 19.7417 -27.0253 1
      vertex 19.7417 -27.0253 0
    endloop
  endfacet
  facet normal 0.96804 -0.250794 0
    outer loop
      vertex 20.1748 -25.7762 1
      vertex 20.5117 -24.4758 0
      vertex 20.5117 -24.4758 1
    endloop
  endfacet
  facet normal 0.96804 -0.250794 0
    outer loop
      vertex 20.5117 -24.4758 0
      vertex 20.1748 -25.7762 1
      vertex 20.1748 -25.7762 0
    endloop
  endfacet
  facet normal 0.984525 -0.175244 0
    outer loop
      vertex 20.5117 -24.4758 1
      vertex 20.7523 -23.1241 0
      vertex 20.7523 -23.1241 1
    endloop
  endfacet
  facet normal 0.984525 -0.175244 0
    outer loop
      vertex 20.7523 -23.1241 0
      vertex 20.5117 -24.4758 1
      vertex 20.5117 -24.4758 0
    endloop
  endfacet
  facet normal 0.994745 -0.102381 0
    outer loop
      vertex 20.7523 -23.1241 1
      vertex 20.8967 -21.7211 0
      vertex 20.8967 -21.7211 1
    endloop
  endfacet
  facet normal 0.994745 -0.102381 0
    outer loop
      vertex 20.8967 -21.7211 0
      vertex 20.7523 -23.1241 1
      vertex 20.7523 -23.1241 0
    endloop
  endfacet
  facet normal 0.999453 -0.0330585 0
    outer loop
      vertex 20.8967 -21.7211 1
      vertex 20.9448 -20.2669 0
      vertex 20.9448 -20.2669 1
    endloop
  endfacet
  facet normal 0.999453 -0.0330585 0
    outer loop
      vertex 20.9448 -20.2669 0
      vertex 20.8967 -21.7211 1
      vertex 20.8967 -21.7211 0
    endloop
  endfacet
  facet normal 0.998869 0.0475481 0
    outer loop
      vertex 20.9448 -20.2669 1
      vertex 20.8387 -18.038 0
      vertex 20.8387 -18.038 1
    endloop
  endfacet
  facet normal 0.998869 0.0475481 0
    outer loop
      vertex 20.8387 -18.038 0
      vertex 20.9448 -20.2669 1
      vertex 20.9448 -20.2669 0
    endloop
  endfacet
  facet normal 0.988387 0.15196 0
    outer loop
      vertex 20.8387 -18.038 1
      vertex 20.5204 -15.9677 0
      vertex 20.5204 -15.9677 1
    endloop
  endfacet
  facet normal 0.988387 0.15196 0
    outer loop
      vertex 20.5204 -15.9677 0
      vertex 20.8387 -18.038 1
      vertex 20.8387 -18.038 0
    endloop
  endfacet
  facet normal 0.96359 0.267384 0
    outer loop
      vertex 20.5204 -15.9677 1
      vertex 19.9899 -14.0559 0
      vertex 19.9899 -14.0559 1
    endloop
  endfacet
  facet normal 0.96359 0.267384 0
    outer loop
      vertex 19.9899 -14.0559 0
      vertex 20.5204 -15.9677 1
      vertex 20.5204 -15.9677 0
    endloop
  endfacet
  facet normal 0.920759 0.390132 0
    outer loop
      vertex 19.9899 -14.0559 1
      vertex 19.2471 -12.3028 0
      vertex 19.2471 -12.3028 1
    endloop
  endfacet
  facet normal 0.920759 0.390132 0
    outer loop
      vertex 19.2471 -12.3028 0
      vertex 19.9899 -14.0559 1
      vertex 19.9899 -14.0559 0
    endloop
  endfacet
  facet normal 0.857934 0.51376 0
    outer loop
      vertex 19.2471 -12.3028 1
      vertex 18.2922 -10.7082 0
      vertex 18.2922 -10.7082 1
    endloop
  endfacet
  facet normal 0.857934 0.51376 0
    outer loop
      vertex 18.2922 -10.7082 0
      vertex 19.2471 -12.3028 1
      vertex 19.2471 -12.3028 0
    endloop
  endfacet
  facet normal 0.776021 0.630707 0
    outer loop
      vertex 18.2922 -10.7082 1
      vertex 17.1251 -9.2722 0
      vertex 17.1251 -9.2722 1
    endloop
  endfacet
  facet normal 0.776021 0.630707 0
    outer loop
      vertex 17.1251 -9.2722 0
      vertex 18.2922 -10.7082 1
      vertex 18.2922 -10.7082 0
    endloop
  endfacet
  facet normal 0.679494 0.733681 -0
    outer loop
      vertex 17.1251 -9.2722 0
      vertex 15.7458 -7.99477 1
      vertex 17.1251 -9.2722 1
    endloop
  endfacet
  facet normal 0.679494 0.733681 0
    outer loop
      vertex 15.7458 -7.99477 1
      vertex 17.1251 -9.2722 0
      vertex 15.7458 -7.99477 0
    endloop
  endfacet
  facet normal 0.575303 0.81794 -0
    outer loop
      vertex 15.7458 -7.99477 0
      vertex 14.1638 -6.88206 1
      vertex 15.7458 -7.99477 1
    endloop
  endfacet
  facet normal 0.575303 0.81794 0
    outer loop
      vertex 14.1638 -6.88206 1
      vertex 15.7458 -7.99477 0
      vertex 14.1638 -6.88206 0
    endloop
  endfacet
  facet normal 0.468531 0.883447 -0
    outer loop
      vertex 14.1638 -6.88206 0
      vertex 12.3885 -5.94054 1
      vertex 14.1638 -6.88206 1
    endloop
  endfacet
  facet normal 0.468531 0.883447 0
    outer loop
      vertex 12.3885 -5.94054 1
      vertex 14.1638 -6.88206 0
      vertex 12.3885 -5.94054 0
    endloop
  endfacet
  facet normal 0.364423 0.931234 -0
    outer loop
      vertex 12.3885 -5.94054 0
      vertex 10.42 -5.1702 1
      vertex 12.3885 -5.94054 1
    endloop
  endfacet
  facet normal 0.364423 0.931234 0
    outer loop
      vertex 10.42 -5.1702 1
      vertex 12.3885 -5.94054 0
      vertex 10.42 -5.1702 0
    endloop
  endfacet
  facet normal 0.267079 0.963675 -0
    outer loop
      vertex 10.42 -5.1702 0
      vertex 8.25818 -4.57106 1
      vertex 10.42 -5.1702 1
    endloop
  endfacet
  facet normal 0.267079 0.963675 0
    outer loop
      vertex 8.25818 -4.57106 1
      vertex 10.42 -5.1702 0
      vertex 8.25818 -4.57106 0
    endloop
  endfacet
  facet normal 0.178796 0.983886 -0
    outer loop
      vertex 8.25818 -4.57106 0
      vertex 5.90318 -4.1431 1
      vertex 8.25818 -4.57106 1
    endloop
  endfacet
  facet normal 0.178796 0.983886 0
    outer loop
      vertex 5.90318 -4.1431 1
      vertex 8.25818 -4.57106 0
      vertex 5.90318 -4.1431 0
    endloop
  endfacet
  facet normal 0.100259 0.994961 -0
    outer loop
      vertex 5.90318 -4.1431 0
      vertex 3.35493 -3.88632 1
      vertex 5.90318 -4.1431 1
    endloop
  endfacet
  facet normal 0.100259 0.994961 0
    outer loop
      vertex 3.35493 -3.88632 1
      vertex 5.90318 -4.1431 0
      vertex 3.35493 -3.88632 0
    endloop
  endfacet
  facet normal 0.0312086 0.999513 -0
    outer loop
      vertex 3.35493 -3.88632 0
      vertex 0.613434 -3.80072 1
      vertex 3.35493 -3.88632 1
    endloop
  endfacet
  facet normal 0.0312086 0.999513 0
    outer loop
      vertex 0.613434 -3.80072 1
      vertex 3.35493 -3.88632 0
      vertex 0.613434 -3.80072 0
    endloop
  endfacet
  facet normal 0 1 -0
    outer loop
      vertex 0.613434 -3.80072 0
      vertex -17.94 -3.80072 1
      vertex 0.613434 -3.80072 1
    endloop
  endfacet
  facet normal 0 1 0
    outer loop
      vertex -17.94 -3.80072 1
      vertex 0.613434 -3.80072 0
      vertex -17.94 -3.80072 0
    endloop
  endfacet
  facet normal -1 0 0
    outer loop
      vertex -17.94 -55.9437 0
      vertex -17.94 -3.80072 1
      vertex -17.94 -3.80072 0
    endloop
  endfacet
  facet normal -1 -0 0
    outer loop
      vertex -17.94 -3.80072 1
      vertex -17.94 -55.9437 0
      vertex -17.94 -55.9437 1
    endloop
  endfacet
  facet normal 0 -1 0
    outer loop
      vertex -17.94 -55.9437 0
      vertex -6.53777 -55.9437 1
      vertex -17.94 -55.9437 1
    endloop
  endfacet
  facet normal 0 -1 -0
    outer loop
      vertex -6.53777 -55.9437 1
      vertex -17.94 -55.9437 0
      vertex -6.53777 -55.9437 0
    endloop
  endfacet
  facet normal 1 -0 0
    outer loop
      vertex -6.53777 -55.9437 1
      vertex -6.53777 -37.5447 0
      vertex -6.53777 -37.5447 1
    endloop
  endfacet
  facet normal 1 0 0
    outer loop
      vertex -6.53777 -37.5447 0
      vertex -6.53777 -55.9437 1
      vertex -6.53777 -55.9437 0
    endloop
  endfacet
  facet normal 1 -0 0
    outer loop
      vertex -6.53777 -28.7707 1
      vertex -6.53777 -12.6522 0
      vertex -6.53777 -12.6522 1
    endloop
  endfacet
  facet normal 1 0 0
    outer loop
      vertex -6.53777 -12.6522 0
      vertex -6.53777 -28.7707 1
      vertex -6.53777 -28.7707 0
    endloop
  endfacet
  facet normal 0 -1 0
    outer loop
      vertex -6.53777 -12.6522 0
      vertex -0.662201 -12.6522 1
      vertex -6.53777 -12.6522 1
    endloop
  endfacet
  facet normal 0 -1 -0
    outer loop
      vertex -0.662201 -12.6522 1
      vertex -6.53777 -12.6522 0
      vertex -0.662201 -12.6522 0
    endloop
  endfacet
  facet normal -0.0262996 -0.999654 0
    outer loop
      vertex -0.662201 -12.6522 0
      vertex 0.732773 -12.6889 1
      vertex -0.662201 -12.6522 1
    endloop
  endfacet
  facet normal -0.0262996 -0.999654 -0
    outer loop
      vertex 0.732773 -12.6889 1
      vertex -0.662201 -12.6522 0
      vertex 0.732773 -12.6889 0
    endloop
  endfacet
  facet normal -0.0849294 -0.996387 0
    outer loop
      vertex 0.732773 -12.6889 0
      vertex 2.02446 -12.799 1
      vertex 0.732773 -12.6889 1
    endloop
  endfacet
  facet normal -0.0849294 -0.996387 -0
    outer loop
      vertex 2.02446 -12.799 1
      vertex 0.732773 -12.6889 0
      vertex 2.02446 -12.799 0
    endloop
  endfacet
  facet normal -0.152607 -0.988287 0
    outer loop
      vertex 2.02446 -12.799 0
      vertex 3.21281 -12.9825 1
      vertex 2.02446 -12.799 1
    endloop
  endfacet
  facet normal -0.152607 -0.988287 -0
    outer loop
      vertex 3.21281 -12.9825 1
      vertex 2.02446 -12.799 0
      vertex 3.21281 -12.9825 0
    endloop
  endfacet
  facet normal -0.230311 -0.973117 0
    outer loop
      vertex 3.21281 -12.9825 0
      vertex 4.29785 -13.2393 1
      vertex 3.21281 -12.9825 1
    endloop
  endfacet
  facet normal -0.230311 -0.973117 -0
    outer loop
      vertex 4.29785 -13.2393 1
      vertex 3.21281 -12.9825 0
      vertex 4.29785 -13.2393 0
    endloop
  endfacet
  facet normal -0.318799 -0.947822 0
    outer loop
      vertex 4.29785 -13.2393 0
      vertex 5.27957 -13.5695 1
      vertex 4.29785 -13.2393 1
    endloop
  endfacet
  facet normal -0.318799 -0.947822 -0
    outer loop
      vertex 5.27957 -13.5695 1
      vertex 4.29785 -13.2393 0
      vertex 5.27957 -13.5695 0
    endloop
  endfacet
  facet normal -0.417513 -0.908671 0
    outer loop
      vertex 5.27957 -13.5695 0
      vertex 6.15796 -13.9731 1
      vertex 5.27957 -13.5695 1
    endloop
  endfacet
  facet normal -0.417513 -0.908671 -0
    outer loop
      vertex 6.15796 -13.9731 1
      vertex 5.27957 -13.5695 0
      vertex 6.15796 -13.9731 0
    endloop
  endfacet
  facet normal -0.524045 -0.851691 0
    outer loop
      vertex 6.15796 -13.9731 0
      vertex 6.93303 -14.45 1
      vertex 6.15796 -13.9731 1
    endloop
  endfacet
  facet normal -0.524045 -0.851691 -0
    outer loop
      vertex 6.93303 -14.45 1
      vertex 6.15796 -13.9731 0
      vertex 6.93303 -14.45 0
    endloop
  endfacet
  facet normal -0.642214 -0.766526 0
    outer loop
      vertex 6.93303 -14.45 0
      vertex 7.60477 -15.0128 1
      vertex 6.93303 -14.45 1
    endloop
  endfacet
  facet normal -0.642214 -0.766526 -0
    outer loop
      vertex 7.60477 -15.0128 1
      vertex 6.93303 -14.45 0
      vertex 7.60477 -15.0128 0
    endloop
  endfacet
  facet normal -0.75842 -0.651766 0
    outer loop
      vertex 8.17316 -15.6742 0
      vertex 7.60477 -15.0128 1
      vertex 7.60477 -15.0128 0
    endloop
  endfacet
  facet normal -0.75842 -0.651766 0
    outer loop
      vertex 7.60477 -15.0128 1
      vertex 8.17316 -15.6742 0
      vertex 8.17316 -15.6742 1
    endloop
  endfacet
  facet normal -0.852979 -0.521945 0
    outer loop
      vertex 8.63821 -16.4342 0
      vertex 8.17316 -15.6742 1
      vertex 8.17316 -15.6742 0
    endloop
  endfacet
  facet normal -0.852979 -0.521945 0
    outer loop
      vertex 8.17316 -15.6742 1
      vertex 8.63821 -16.4342 0
      vertex 8.63821 -16.4342 1
    endloop
  endfacet
  facet normal -0.921561 -0.388234 0
    outer loop
      vertex 8.99992 -17.2928 0
      vertex 8.63821 -16.4342 1
      vertex 8.63821 -16.4342 0
    endloop
  endfacet
  facet normal -0.921561 -0.388234 0
    outer loop
      vertex 8.63821 -16.4342 1
      vertex 8.99992 -17.2928 0
      vertex 8.99992 -17.2928 1
    endloop
  endfacet
  facet normal -0.965441 -0.260622 0
    outer loop
      vertex 9.25829 -18.2499 0
      vertex 8.99992 -17.2928 1
      vertex 8.99992 -17.2928 0
    endloop
  endfacet
  facet normal -0.965441 -0.260622 0
    outer loop
      vertex 8.99992 -17.2928 1
      vertex 9.25829 -18.2499 0
      vertex 9.25829 -18.2499 1
    endloop
  endfacet
  facet normal -0.989393 -0.14526 0
    outer loop
      vertex 9.4133 -19.3057 0
      vertex 9.25829 -18.2499 1
      vertex 9.25829 -18.2499 0
    endloop
  endfacet
  facet normal -0.989393 -0.14526 0
    outer loop
      vertex 9.25829 -18.2499 1
      vertex 9.4133 -19.3057 0
      vertex 9.4133 -19.3057 1
    endloop
  endfacet
  facet normal -0.999 -0.0447144 0
    outer loop
      vertex 9.46497 -20.4601 0
      vertex 9.4133 -19.3057 1
      vertex 9.4133 -19.3057 0
    endloop
  endfacet
  facet normal -0.999 -0.0447144 0
    outer loop
      vertex 9.4133 -19.3057 1
      vertex 9.46497 -20.4601 0
      vertex 9.46497 -20.4601 1
    endloop
  endfacet
  facet normal -0.999094 0.0425543 0
    outer loop
      vertex 9.41684 -21.5901 0
      vertex 9.46497 -20.4601 1
      vertex 9.46497 -20.4601 0
    endloop
  endfacet
  facet normal -0.999094 0.0425543 0
    outer loop
      vertex 9.46497 -20.4601 1
      vertex 9.41684 -21.5901 0
      vertex 9.41684 -21.5901 1
    endloop
  endfacet
  facet normal -0.99066 0.136357 0
    outer loop
      vertex 9.27248 -22.6389 0
      vertex 9.41684 -21.5901 1
      vertex 9.41684 -21.5901 0
    endloop
  endfacet
  facet normal -0.99066 0.136357 0
    outer loop
      vertex 9.41684 -21.5901 1
      vertex 9.27248 -22.6389 0
      vertex 9.27248 -22.6389 1
    endloop
  endfacet
  facet normal -0.970436 0.24136 0
    outer loop
      vertex 9.03185 -23.6064 0
      vertex 9.27248 -22.6389 1
      vertex 9.27248 -22.6389 0
    endloop
  endfacet
  facet normal -0.970436 0.24136 0
    outer loop
      vertex 9.27248 -22.6389 1
      vertex 9.03185 -23.6064 0
      vertex 9.03185 -23.6064 1
    endloop
  endfacet
  facet normal -0.934744 0.355323 0
    outer loop
      vertex 8.69498 -24.4926 0
      vertex 9.03185 -23.6064 1
      vertex 9.03185 -23.6064 0
    endloop
  endfacet
  facet normal -0.934744 0.355323 0
    outer loop
      vertex 9.03185 -23.6064 1
      vertex 8.69498 -24.4926 0
      vertex 8.69498 -24.4926 1
    endloop
  endfacet
  facet normal -0.880652 0.473765 0
    outer loop
      vertex 8.26186 -25.2977 0
      vertex 8.69498 -24.4926 1
      vertex 8.69498 -24.4926 0
    endloop
  endfacet
  facet normal -0.880652 0.473765 0
    outer loop
      vertex 8.69498 -24.4926 1
      vertex 8.26186 -25.2977 0
      vertex 8.26186 -25.2977 1
    endloop
  endfacet
  facet normal -0.807124 0.590382 0
    outer loop
      vertex 7.7325 -26.0214 0
      vertex 8.26186 -25.2977 1
      vertex 8.26186 -25.2977 0
    endloop
  endfacet
  facet normal -0.807124 0.590382 0
    outer loop
      vertex 8.26186 -25.2977 1
      vertex 7.7325 -26.0214 0
      vertex 7.7325 -26.0214 1
    endloop
  endfacet
  facet normal -0.716504 0.697583 0
    outer loop
      vertex 7.10687 -26.664 0
      vertex 7.7325 -26.0214 1
      vertex 7.7325 -26.0214 0
    endloop
  endfacet
  facet normal -0.716504 0.697583 0
    outer loop
      vertex 7.7325 -26.0214 1
      vertex 7.10687 -26.664 0
      vertex 7.10687 -26.664 1
    endloop
  endfacet
  facet normal -0.608048 0.7939 0
    outer loop
      vertex 7.10687 -26.664 0
      vertex 6.37714 -27.2229 1
      vertex 7.10687 -26.664 1
    endloop
  endfacet
  facet normal -0.608048 0.7939 0
    outer loop
      vertex 6.37714 -27.2229 1
      vertex 7.10687 -26.664 0
      vertex 6.37714 -27.2229 0
    endloop
  endfacet
  facet normal -0.489806 0.871832 0
    outer loop
      vertex 6.37714 -27.2229 0
      vertex 5.5354 -27.6958 1
      vertex 6.37714 -27.2229 1
    endloop
  endfacet
  facet normal -0.489806 0.871832 0
    outer loop
      vertex 5.5354 -27.6958 1
      vertex 6.37714 -27.2229 0
      vertex 5.5354 -27.6958 0
    endloop
  endfacet
  facet normal -0.375999 0.92662 0
    outer loop
      vertex 5.5354 -27.6958 0
      vertex 4.58167 -28.0828 1
      vertex 5.5354 -27.6958 1
    endloop
  endfacet
  facet normal -0.375999 0.92662 0
    outer loop
      vertex 4.58167 -28.0828 1
      vertex 5.5354 -27.6958 0
      vertex 4.58167 -28.0828 0
    endloop
  endfacet
  facet normal -0.2718 0.962354 0
    outer loop
      vertex 4.58167 -28.0828 0
      vertex 3.51593 -28.3838 1
      vertex 4.58167 -28.0828 1
    endloop
  endfacet
  facet normal -0.2718 0.962354 0
    outer loop
      vertex 3.51593 -28.3838 1
      vertex 4.58167 -28.0828 0
      vertex 3.51593 -28.3838 0
    endloop
  endfacet
  facet normal -0.179506 0.983757 0
    outer loop
      vertex 3.51593 -28.3838 0
      vertex 2.3382 -28.5987 1
      vertex 3.51593 -28.3838 1
    endloop
  endfacet
  facet normal -0.179506 0.983757 0
    outer loop
      vertex 2.3382 -28.5987 1
      vertex 3.51593 -28.3838 0
      vertex 2.3382 -28.5987 0
    endloop
  endfacet
  facet normal -0.0995228 0.995035 0
    outer loop
      vertex 2.3382 -28.5987 0
      vertex 1.04845 -28.7277 1
      vertex 2.3382 -28.5987 1
    endloop
  endfacet
  facet normal -0.0995228 0.995035 0
    outer loop
      vertex 1.04845 -28.7277 1
      vertex 2.3382 -28.5987 0
      vertex 1.04845 -28.7277 0
    endloop
  endfacet
  facet normal -0.0306622 0.99953 0
    outer loop
      vertex 1.04845 -28.7277 0
      vertex -0.353271 -28.7707 1
      vertex 1.04845 -28.7277 1
    endloop
  endfacet
  facet normal -0.0306622 0.99953 0
    outer loop
      vertex -0.353271 -28.7707 1
      vertex 1.04845 -28.7277 0
      vertex -0.353271 -28.7707 0
    endloop
  endfacet
  facet normal 0 1 -0
    outer loop
      vertex -0.353271 -28.7707 0
      vertex -6.53777 -28.7707 1
      vertex -0.353271 -28.7707 1
    endloop
  endfacet
  facet normal 0 1 0
    outer loop
      vertex -6.53777 -28.7707 1
      vertex -0.353271 -28.7707 0
      vertex -6.53777 -28.7707 0
    endloop
  endfacet
endsolid OpenSCAD_Model
