<?xml version="1.0" standalone="no"?>
<!DOCTYPE svg PUBLIC "-//W3C//DTD SVG 1.1//EN" "http://www.w3.org/Graphics/SVG/1.1/DTD/svg11.dtd">
<svg width="43mm" height="53mm" viewBox="-21 3 43 53" xmlns="http://www.w3.org/2000/svg" version="1.1">
<title>OpenSCAD Model</title>
<path d="
M 14.6828,44.8504 L 21.9497,44.8504 L 21.9497,36.7718 L 14.6828,36.7718 L 14.6828,3.80072 L 2.54575,3.80072
 L -20.4526,36.6943 L -20.4526,44.8504 L 4.32414,44.8504 L 4.32414,55.9437 L 14.6828,55.9437 z
M -11.3309,36.7718 L 1.03809,19.494 L 1.75604,18.3628 L 2.40771,17.3105 L 2.9931,16.337 L 3.51222,15.4424
 L 3.96504,14.6267 L 4.35158,13.8899 L 4.67184,13.2319 L 4.64851,13.4663 L 4.62285,13.7716 L 4.59482,14.1479
 L 4.56445,14.5952 L 4.53172,15.1134 L 4.49666,15.7027 L 4.45923,16.3629 L 4.42339,17.0516 L 4.39307,17.726
 L 4.36826,18.3863 L 4.34895,19.0323 L 4.33517,19.6642 L 4.32689,20.2818 L 4.32414,20.8853 L 4.32414,36.7718
 z
" stroke="black" fill="lightgray" stroke-width="0.5"/>
</svg>
