solid OpenSCAD_Model
  facet normal 0 0 -1
    outer loop
      vertex 4.32414 -44.8504 0
      vertex -11.3309 -36.7718 0
      vertex 4.32414 -36.7718 0
    endloop
  endfacet
  facet normal 0 -0 -1
    outer loop
      vertex -11.3309 -36.7718 0
      vertex 4.32414 -44.8504 0
      vertex -20.4526 -44.8504 0
    endloop
  endfacet
  facet normal 0 0 -1
    outer loop
      vertex 4.32414 -44.8504 0
      vertex 14.6828 -44.8504 0
      vertex 14.6828 -55.9437 0
    endloop
  endfacet
  facet normal 0 0 -1
    outer loop
      vertex 14.6828 -44.8504 0
      vertex 4.32414 -44.8504 0
      vertex 14.6828 -36.7718 0
    endloop
  endfacet
  facet normal 0 0 -1
    outer loop
      vertex 4.32414 -20.8853 0
      vertex 14.6828 -36.7718 0
      vertex 4.32414 -36.7718 0
    endloop
  endfacet
  facet normal 0 0 -1
    outer loop
      vertex 14.6828 -3.80072 0
      vertex 4.62285 -13.7716 0
      vertex 4.67184 -13.2319 0
    endloop
  endfacet
  facet normal 0 0 -1
    outer loop
      vertex 4.67184 -13.2319 0
      vertex 4.62285 -13.7716 0
      vertex 4.64851 -13.4663 0
    endloop
  endfacet
  facet normal 0 0 -1
    outer loop
      vertex 14.6828 -3.80072 0
      vertex 4.59482 -14.1479 0
      vertex 4.62285 -13.7716 0
    endloop
  endfacet
  facet normal 0 0 -1
    outer loop
      vertex 14.6828 -3.80072 0
      vertex 4.56445 -14.5952 0
      vertex 4.59482 -14.1479 0
    endloop
  endfacet
  facet normal 0 0 -1
    outer loop
      vertex 14.6828 -3.80072 0
      vertex 4.53172 -15.1134 0
      vertex 4.56445 -14.5952 0
    endloop
  endfacet
  facet normal 0 0 -1
    outer loop
      vertex 14.6828 -3.80072 0
      vertex 4.49666 -15.7027 0
      vertex 4.53172 -15.1134 0
    endloop
  endfacet
  facet normal 0 0 -1
    outer loop
      vertex 14.6828 -3.80072 0
      vertex 4.45923 -16.3629 0
      vertex 4.49666 -15.7027 0
    endloop
  endfacet
  facet normal 0 0 -1
    outer loop
      vertex 14.6828 -3.80072 0
      vertex 4.42339 -17.0516 0
      vertex 4.45923 -16.3629 0
    endloop
  endfacet
  facet normal 0 0 -1
    outer loop
      vertex 14.6828 -3.80072 0
      vertex 4.39307 -17.726 0
      vertex 4.42339 -17.0516 0
    endloop
  endfacet
  facet normal 0 0 -1
    outer loop
      vertex 14.6828 -3.80072 0
      vertex 4.36826 -18.3863 0
      vertex 4.39307 -17.726 0
    endloop
  endfacet
  facet normal 0 0 -1
    outer loop
      vertex 14.6828 -3.80072 0
      vertex 4.34895 -19.0323 0
      vertex 4.36826 -18.3863 0
    endloop
  endfacet
  facet normal 0 0 -1
    outer loop
      vertex 14.6828 -3.80072 0
      vertex 4.33517 -19.6642 0
      vertex 4.34895 -19.0323 0
    endloop
  endfacet
  facet normal 0 0 -1
    outer loop
      vertex 14.6828 -3.80072 0
      vertex 4.32689 -20.2818 0
      vertex 4.33517 -19.6642 0
    endloop
  endfacet
  facet normal 0 0 -1
    outer loop
      vertex 4.32414 -44.8504 0
      vertex 14.6828 -55.9437 0
      vertex 4.32414 -55.9437 0
    endloop
  endfacet
  facet normal -0 0 -1
    outer loop
      vertex 14.6828 -36.7718 0
      vertex 4.32414 -44.8504 0
      vertex 4.32414 -36.7718 0
    endloop
  endfacet
  facet normal 0 -0 -1
    outer loop
      vertex 4.32689 -20.2818 0
      vertex 14.6828 -36.7718 0
      vertex 4.32414 -20.8853 0
    endloop
  endfacet
  facet normal 0 0 -1
    outer loop
      vertex 14.6828 -36.7718 0
      vertex 4.32689 -20.2818 0
      vertex 14.6828 -3.80072 0
    endloop
  endfacet
  facet normal 0 0 -1
    outer loop
      vertex 14.6828 -44.8504 0
      vertex 21.9497 -36.7718 0
      vertex 21.9497 -44.8504 0
    endloop
  endfacet
  facet normal -0 0 -1
    outer loop
      vertex 21.9497 -36.7718 0
      vertex 14.6828 -44.8504 0
      vertex 14.6828 -36.7718 0
    endloop
  endfacet
  facet normal 0 0 -1
    outer loop
      vertex 2.54575 -3.80072 0
      vertex 4.35158 -13.8899 0
      vertex 3.96504 -14.6267 0
    endloop
  endfacet
  facet normal 0 0 -1
    outer loop
      vertex 2.54575 -3.80072 0
      vertex 3.96504 -14.6267 0
      vertex 3.51222 -15.4424 0
    endloop
  endfacet
  facet normal 0 0 -1
    outer loop
      vertex 2.54575 -3.80072 0
      vertex 3.51222 -15.4424 0
      vertex 2.9931 -16.337 0
    endloop
  endfacet
  facet normal 0 0 -1
    outer loop
      vertex 4.67184 -13.2319 0
      vertex 2.54575 -3.80072 0
      vertex 14.6828 -3.80072 0
    endloop
  endfacet
  facet normal 0 0 -1
    outer loop
      vertex 4.35158 -13.8899 0
      vertex 2.54575 -3.80072 0
      vertex 4.67184 -13.2319 0
    endloop
  endfacet
  facet normal 0 0 -1
    outer loop
      vertex 2.40771 -17.3105 0
      vertex 2.54575 -3.80072 0
      vertex 2.9931 -16.337 0
    endloop
  endfacet
  facet normal 0 0 -1
    outer loop
      vertex 1.75604 -18.3628 0
      vertex 2.54575 -3.80072 0
      vertex 2.40771 -17.3105 0
    endloop
  endfacet
  facet normal 0 0 -1
    outer loop
      vertex 1.03809 -19.494 0
      vertex 2.54575 -3.80072 0
      vertex 1.75604 -18.3628 0
    endloop
  endfacet
  facet normal 0 0 -1
    outer loop
      vertex -20.4526 -36.6943 0
      vertex 1.03809 -19.494 0
      vertex -11.3309 -36.7718 0
    endloop
  endfacet
  facet normal 0 0 -1
    outer loop
      vertex -20.4526 -36.6943 0
      vertex -11.3309 -36.7718 0
      vertex -20.4526 -44.8504 0
    endloop
  endfacet
  facet normal -0 0 -1
    outer loop
      vertex 1.03809 -19.494 0
      vertex -20.4526 -36.6943 0
      vertex 2.54575 -3.80072 0
    endloop
  endfacet
  facet normal -0 0 1
    outer loop
      vertex -11.3309 -36.7718 1
      vertex 4.32414 -44.8504 1
      vertex 4.32414 -36.7718 1
    endloop
  endfacet
  facet normal 0 0 1
    outer loop
      vertex -20.4526 -44.8504 1
      vertex -11.3309 -36.7718 1
      vertex -20.4526 -36.6943 1
    endloop
  endfacet
  facet normal 0 0 1
    outer loop
      vertex -11.3309 -36.7718 1
      vertex -20.4526 -44.8504 1
      vertex 4.32414 -44.8504 1
    endloop
  endfacet
  facet normal -0 0 1
    outer loop
      vertex 4.32689 -20.2818 1
      vertex 14.6828 -36.7718 1
      vertex 14.6828 -3.80072 1
    endloop
  endfacet
  facet normal 0 0 1
    outer loop
      vertex 4.32414 -36.7718 1
      vertex 14.6828 -36.7718 1
      vertex 4.32414 -20.8853 1
    endloop
  endfacet
  facet normal 0 0 1
    outer loop
      vertex 4.62285 -13.7716 1
      vertex 14.6828 -3.80072 1
      vertex 4.67184 -13.2319 1
    endloop
  endfacet
  facet normal 0 0 1
    outer loop
      vertex 2.54575 -3.80072 1
      vertex 4.35158 -13.8899 1
      vertex 4.67184 -13.2319 1
    endloop
  endfacet
  facet normal 0 0 1
    outer loop
      vertex 4.35158 -13.8899 1
      vertex 2.54575 -3.80072 1
      vertex 3.96504 -14.6267 1
    endloop
  endfacet
  facet normal 0 0 1
    outer loop
      vertex 3.96504 -14.6267 1
      vertex 2.54575 -3.80072 1
      vertex 3.51222 -15.4424 1
    endloop
  endfacet
  facet normal -0 0 1
    outer loop
      vertex 2.54575 -3.80072 1
      vertex 4.67184 -13.2319 1
      vertex 14.6828 -3.80072 1
    endloop
  endfacet
  facet normal 0 0 1
    outer loop
      vertex 3.51222 -15.4424 1
      vertex 2.54575 -3.80072 1
      vertex 2.9931 -16.337 1
    endloop
  endfacet
  facet normal 0 0 1
    outer loop
      vertex 2.54575 -3.80072 1
      vertex 2.40771 -17.3105 1
      vertex 2.9931 -16.337 1
    endloop
  endfacet
  facet normal 0 0 1
    outer loop
      vertex 2.54575 -3.80072 1
      vertex 1.75604 -18.3628 1
      vertex 2.40771 -17.3105 1
    endloop
  endfacet
  facet normal 0 0 1
    outer loop
      vertex 2.54575 -3.80072 1
      vertex 1.03809 -19.494 1
      vertex 1.75604 -18.3628 1
    endloop
  endfacet
  facet normal 0 0 1
    outer loop
      vertex -20.4526 -36.6943 1
      vertex 1.03809 -19.494 1
      vertex 2.54575 -3.80072 1
    endloop
  endfacet
  facet normal 0 0 1
    outer loop
      vertex 1.03809 -19.494 1
      vertex -20.4526 -36.6943 1
      vertex -11.3309 -36.7718 1
    endloop
  endfacet
  facet normal -0 0 1
    outer loop
      vertex 14.6828 -36.7718 1
      vertex 21.9497 -44.8504 1
      vertex 21.9497 -36.7718 1
    endloop
  endfacet
  facet normal 0 0 1
    outer loop
      vertex 21.9497 -44.8504 1
      vertex 14.6828 -36.7718 1
      vertex 14.6828 -44.8504 1
    endloop
  endfacet
  facet normal 0 0 1
    outer loop
      vertex 4.62285 -13.7716 1
      vertex 4.67184 -13.2319 1
      vertex 4.64851 -13.4663 1
    endloop
  endfacet
  facet normal 0 0 1
    outer loop
      vertex 4.59482 -14.1479 1
      vertex 14.6828 -3.80072 1
      vertex 4.62285 -13.7716 1
    endloop
  endfacet
  facet normal 0 0 1
    outer loop
      vertex 4.56445 -14.5952 1
      vertex 14.6828 -3.80072 1
      vertex 4.59482 -14.1479 1
    endloop
  endfacet
  facet normal 0 0 1
    outer loop
      vertex 4.53172 -15.1134 1
      vertex 14.6828 -3.80072 1
      vertex 4.56445 -14.5952 1
    endloop
  endfacet
  facet normal 0 0 1
    outer loop
      vertex 4.49666 -15.7027 1
      vertex 14.6828 -3.80072 1
      vertex 4.53172 -15.1134 1
    endloop
  endfacet
  facet normal 0 0 1
    outer loop
      vertex 4.45923 -16.3629 1
      vertex 14.6828 -3.80072 1
      vertex 4.49666 -15.7027 1
    endloop
  endfacet
  facet normal 0 0 1
    outer loop
      vertex 4.42339 -17.0516 1
      vertex 14.6828 -3.80072 1
      vertex 4.45923 -16.3629 1
    endloop
  endfacet
  facet normal 0 0 1
    outer loop
      vertex 4.39307 -17.726 1
      vertex 14.6828 -3.80072 1
      vertex 4.42339 -17.0516 1
    endloop
  endfacet
  facet normal 0 0 1
    outer loop
      vertex 4.36826 -18.3863 1
      vertex 14.6828 -3.80072 1
      vertex 4.39307 -17.726 1
    endloop
  endfacet
  facet normal 0 0 1
    outer loop
      vertex 4.34895 -19.0323 1
      vertex 14.6828 -3.80072 1
      vertex 4.36826 -18.3863 1
    endloop
  endfacet
  facet normal 0 0 1
    outer loop
      vertex 4.33517 -19.6642 1
      vertex 14.6828 -3.80072 1
      vertex 4.34895 -19.0323 1
    endloop
  endfacet
  facet normal 0 0 1
    outer loop
      vertex 4.32689 -20.2818 1
      vertex 14.6828 -3.80072 1
      vertex 4.33517 -19.6642 1
    endloop
  endfacet
  facet normal 0 0 1
    outer loop
      vertex 14.6828 -36.7718 1
      vertex 4.32689 -20.2818 1
      vertex 4.32414 -20.8853 1
    endloop
  endfacet
  facet normal 0 0 1
    outer loop
      vertex 14.6828 -36.7718 1
      vertex 4.32414 -36.7718 1
      vertex 14.6828 -44.8504 1
    endloop
  endfacet
  facet normal 0 0 1
    outer loop
      vertex 4.32414 -44.8504 1
      vertex 14.6828 -44.8504 1
      vertex 4.32414 -36.7718 1
    endloop
  endfacet
  facet normal 0 0 1
    outer loop
      vertex 14.6828 -44.8504 1
      vertex 4.32414 -44.8504 1
      vertex 14.6828 -55.9437 1
    endloop
  endfacet
  facet normal 0 0 1
    outer loop
      vertex 14.6828 -55.9437 1
      vertex 4.32414 -44.8504 1
      vertex 4.32414 -55.9437 1
    endloop
  endfacet
  facet normal 0 -1 0
    outer loop
      vertex 14.6828 -44.8504 0
      vertex 21.9497 -44.8504 1
      vertex 14.6828 -44.8504 1
    endloop
  endfacet
  facet normal 0 -1 -0
    outer loop
      vertex 21.9497 -44.8504 1
      vertex 14.6828 -44.8504 0
      vertex 21.9497 -44.8504 0
    endloop
  endfacet
  facet normal 1 -0 0
    outer loop
      vertex 21.9497 -44.8504 1
      vertex 21.9497 -36.7718 0
      vertex 21.9497 -36.7718 1
    endloop
  endfacet
  facet normal 1 0 0
    outer loop
      vertex 21.9497 -36.7718 0
      vertex 21.9497 -44.8504 1
      vertex 21.9497 -44.8504 0
    endloop
  endfacet
  facet normal 0 1 -0
    outer loop
      vertex 21.9497 -36.7718 0
      vertex 14.6828 -36.7718 1
      vertex 21.9497 -36.7718 1
    endloop
  endfacet
  facet normal 0 1 0
    outer loop
      vertex 14.6828 -36.7718 1
      vertex 21.9497 -36.7718 0
      vertex 14.6828 -36.7718 0
    endloop
  endfacet
  facet normal 1 -0 0
    outer loop
      vertex 14.6828 -36.7718 1
      vertex 14.6828 -3.80072 0
      vertex 14.6828 -3.80072 1
    endloop
  endfacet
  facet normal 1 0 0
    outer loop
      vertex 14.6828 -3.80072 0
      vertex 14.6828 -36.7718 1
      vertex 14.6828 -36.7718 0
    endloop
  endfacet
  facet normal 0 1 -0
    outer loop
      vertex 14.6828 -3.80072 0
      vertex 2.54575 -3.80072 1
      vertex 14.6828 -3.80072 1
    endloop
  endfacet
  facet normal 0 1 0
    outer loop
      vertex 2.54575 -3.80072 1
      vertex 14.6828 -3.80072 0
      vertex 2.54575 -3.80072 0
    endloop
  endfacet
  facet normal -0.81955 0.573008 0
    outer loop
      vertex -20.4526 -36.6943 0
      vertex 2.54575 -3.80072 1
      vertex 2.54575 -3.80072 0
    endloop
  endfacet
  facet normal -0.81955 0.573008 0
    outer loop
      vertex 2.54575 -3.80072 1
      vertex -20.4526 -36.6943 0
      vertex -20.4526 -36.6943 1
    endloop
  endfacet
  facet normal -1 0 0
    outer loop
      vertex -20.4526 -44.8504 0
      vertex -20.4526 -36.6943 1
      vertex -20.4526 -36.6943 0
    endloop
  endfacet
  facet normal -1 -0 0
    outer loop
      vertex -20.4526 -36.6943 1
      vertex -20.4526 -44.8504 0
      vertex -20.4526 -44.8504 1
    endloop
  endfacet
  facet normal 0 -1 0
    outer loop
      vertex -20.4526 -44.8504 0
      vertex 4.32414 -44.8504 1
      vertex -20.4526 -44.8504 1
    endloop
  endfacet
  facet normal 0 -1 -0
    outer loop
      vertex 4.32414 -44.8504 1
      vertex -20.4526 -44.8504 0
      vertex 4.32414 -44.8504 0
    endloop
  endfacet
  facet normal -1 0 0
    outer loop
      vertex 4.32414 -55.9437 0
      vertex 4.32414 -44.8504 1
      vertex 4.32414 -44.8504 0
    endloop
  endfacet
  facet normal -1 -0 0
    outer loop
      vertex 4.32414 -44.8504 1
      vertex 4.32414 -55.9437 0
      vertex 4.32414 -55.9437 1
    endloop
  endfacet
  facet normal 0 -1 0
    outer loop
      vertex 4.32414 -55.9437 0
      vertex 14.6828 -55.9437 1
      vertex 4.32414 -55.9437 1
    endloop
  endfacet
  facet normal 0 -1 -0
    outer loop
      vertex 14.6828 -55.9437 1
      vertex 4.32414 -55.9437 0
      vertex 14.6828 -55.9437 0
    endloop
  endfacet
  facet normal 1 -0 0
    outer loop
      vertex 14.6828 -55.9437 1
      vertex 14.6828 -44.8504 0
      vertex 14.6828 -44.8504 1
    endloop
  endfacet
  facet normal 1 0 0
    outer loop
      vertex 14.6828 -44.8504 0
      vertex 14.6828 -55.9437 1
      vertex 14.6828 -55.9437 0
    endloop
  endfacet
  facet normal 0.813116 -0.582101 0
    outer loop
      vertex -11.3309 -36.7718 1
      vertex 1.03809 -19.494 0
      vertex 1.03809 -19.494 1
    endloop
  endfacet
  facet normal 0.813116 -0.582101 0
    outer loop
      vertex 1.03809 -19.494 0
      vertex -11.3309 -36.7718 1
      vertex -11.3309 -36.7718 0
    endloop
  endfacet
  facet normal 0.844305 -0.535863 0
    outer loop
      vertex 1.03809 -19.494 1
      vertex 1.75604 -18.3628 0
      vertex 1.75604 -18.3628 1
    endloop
  endfacet
  facet normal 0.844305 -0.535863 0
    outer loop
      vertex 1.75604 -18.3628 0
      vertex 1.03809 -19.494 1
      vertex 1.03809 -19.494 0
    endloop
  endfacet
  facet normal 0.850176 -0.526498 0
    outer loop
      vertex 1.75604 -18.3628 1
      vertex 2.40771 -17.3105 0
      vertex 2.40771 -17.3105 1
    endloop
  endfacet
  facet normal 0.850176 -0.526498 0
    outer loop
      vertex 2.40771 -17.3105 0
      vertex 1.75604 -18.3628 1
      vertex 1.75604 -18.3628 0
    endloop
  endfacet
  facet normal 0.856992 -0.515331 0
    outer loop
      vertex 2.40771 -17.3105 1
      vertex 2.9931 -16.337 0
      vertex 2.9931 -16.337 1
    endloop
  endfacet
  facet normal 0.856992 -0.515331 0
    outer loop
      vertex 2.9931 -16.337 0
      vertex 2.40771 -17.3105 1
      vertex 2.40771 -17.3105 0
    endloop
  endfacet
  facet normal 0.864925 -0.5019 0
    outer loop
      vertex 2.9931 -16.337 1
      vertex 3.51222 -15.4424 0
      vertex 3.51222 -15.4424 1
    endloop
  endfacet
  facet normal 0.864925 -0.5019 0
    outer loop
      vertex 3.51222 -15.4424 0
      vertex 2.9931 -16.337 1
      vertex 2.9931 -16.337 0
    endloop
  endfacet
  facet normal 0.874315 -0.485359 0
    outer loop
      vertex 3.51222 -15.4424 1
      vertex 3.96504 -14.6267 0
      vertex 3.96504 -14.6267 1
    endloop
  endfacet
  facet normal 0.874315 -0.485359 0
    outer loop
      vertex 3.96504 -14.6267 0
      vertex 3.51222 -15.4424 1
      vertex 3.51222 -15.4424 0
    endloop
  endfacet
  facet normal 0.885536 -0.46457 0
    outer loop
      vertex 3.96504 -14.6267 1
      vertex 4.35158 -13.8899 0
      vertex 4.35158 -13.8899 1
    endloop
  endfacet
  facet normal 0.885536 -0.46457 0
    outer loop
      vertex 4.35158 -13.8899 0
      vertex 3.96504 -14.6267 1
      vertex 3.96504 -14.6267 0
    endloop
  endfacet
  facet normal 0.899153 -0.437634 0
    outer loop
      vertex 4.35158 -13.8899 1
      vertex 4.67184 -13.2319 0
      vertex 4.67184 -13.2319 1
    endloop
  endfacet
  facet normal 0.899153 -0.437634 0
    outer loop
      vertex 4.67184 -13.2319 0
      vertex 4.35158 -13.8899 1
      vertex 4.35158 -13.8899 0
    endloop
  endfacet
  facet normal -0.995083 0.0990414 0
    outer loop
      vertex 4.64851 -13.4663 0
      vertex 4.67184 -13.2319 1
      vertex 4.67184 -13.2319 0
    endloop
  endfacet
  facet normal -0.995083 0.0990414 0
    outer loop
      vertex 4.67184 -13.2319 1
      vertex 4.64851 -13.4663 0
      vertex 4.64851 -13.4663 1
    endloop
  endfacet
  facet normal -0.996487 0.0837532 0
    outer loop
      vertex 4.62285 -13.7716 0
      vertex 4.64851 -13.4663 1
      vertex 4.64851 -13.4663 0
    endloop
  endfacet
  facet normal -0.996487 0.0837532 0
    outer loop
      vertex 4.64851 -13.4663 1
      vertex 4.62285 -13.7716 0
      vertex 4.62285 -13.7716 1
    endloop
  endfacet
  facet normal -0.997237 0.0742826 0
    outer loop
      vertex 4.59482 -14.1479 0
      vertex 4.62285 -13.7716 1
      vertex 4.62285 -13.7716 0
    endloop
  endfacet
  facet normal -0.997237 0.0742826 0
    outer loop
      vertex 4.62285 -13.7716 1
      vertex 4.59482 -14.1479 0
      vertex 4.59482 -14.1479 1
    endloop
  endfacet
  facet normal -0.997703 0.0677403 0
    outer loop
      vertex 4.56445 -14.5952 0
      vertex 4.59482 -14.1479 1
      vertex 4.59482 -14.1479 0
    endloop
  endfacet
  facet normal -0.997703 0.0677403 0
    outer loop
      vertex 4.59482 -14.1479 1
      vertex 4.56445 -14.5952 0
      vertex 4.56445 -14.5952 1
    endloop
  endfacet
  facet normal -0.998011 0.0630353 0
    outer loop
      vertex 4.53172 -15.1134 0
      vertex 4.56445 -14.5952 1
      vertex 4.56445 -14.5952 0
    endloop
  endfacet
  facet normal -0.998011 0.0630353 0
    outer loop
      vertex 4.56445 -14.5952 1
      vertex 4.53172 -15.1134 0
      vertex 4.53172 -15.1134 1
    endloop
  endfacet
  facet normal -0.998235 0.0593893 0
    outer loop
      vertex 4.49666 -15.7027 0
      vertex 4.53172 -15.1134 1
      vertex 4.53172 -15.1134 0
    endloop
  endfacet
  facet normal -0.998235 0.0593893 0
    outer loop
      vertex 4.53172 -15.1134 1
      vertex 4.49666 -15.7027 0
      vertex 4.49666 -15.7027 1
    endloop
  endfacet
  facet normal -0.998397 0.056604 0
    outer loop
      vertex 4.45923 -16.3629 0
      vertex 4.49666 -15.7027 1
      vertex 4.49666 -15.7027 0
    endloop
  endfacet
  facet normal -0.998397 0.056604 0
    outer loop
      vertex 4.49666 -15.7027 1
      vertex 4.45923 -16.3629 0
      vertex 4.45923 -16.3629 1
    endloop
  endfacet
  facet normal -0.998649 0.0519698 0
    outer loop
      vertex 4.42339 -17.0516 0
      vertex 4.45923 -16.3629 1
      vertex 4.45923 -16.3629 0
    endloop
  endfacet
  facet normal -0.998649 0.0519698 0
    outer loop
      vertex 4.45923 -16.3629 1
      vertex 4.42339 -17.0516 0
      vertex 4.42339 -17.0516 1
    endloop
  endfacet
  facet normal -0.998991 0.0449131 0
    outer loop
      vertex 4.39307 -17.726 0
      vertex 4.42339 -17.0516 1
      vertex 4.42339 -17.0516 0
    endloop
  endfacet
  facet normal -0.998991 0.0449131 0
    outer loop
      vertex 4.42339 -17.0516 1
      vertex 4.39307 -17.726 0
      vertex 4.39307 -17.726 1
    endloop
  endfacet
  facet normal -0.999295 0.0375473 0
    outer loop
      vertex 4.36826 -18.3863 0
      vertex 4.39307 -17.726 1
      vertex 4.39307 -17.726 0
    endloop
  endfacet
  facet normal -0.999295 0.0375473 0
    outer loop
      vertex 4.39307 -17.726 1
      vertex 4.36826 -18.3863 0
      vertex 4.36826 -18.3863 1
    endloop
  endfacet
  facet normal -0.999554 0.0298783 0
    outer loop
      vertex 4.34895 -19.0323 0
      vertex 4.36826 -18.3863 1
      vertex 4.36826 -18.3863 0
    endloop
  endfacet
  facet normal -0.999554 0.0298783 0
    outer loop
      vertex 4.36826 -18.3863 1
      vertex 4.34895 -19.0323 0
      vertex 4.34895 -19.0323 1
    endloop
  endfacet
  facet normal -0.999762 0.0218021 0
    outer loop
      vertex 4.33517 -19.6642 0
      vertex 4.34895 -19.0323 1
      vertex 4.34895 -19.0323 0
    endloop
  endfacet
  facet normal -0.999762 0.0218021 0
    outer loop
      vertex 4.34895 -19.0323 1
      vertex 4.33517 -19.6642 0
      vertex 4.33517 -19.6642 1
    endloop
  endfacet
  facet normal -0.99991 0.0134055 0
    outer loop
      vertex 4.32689 -20.2818 0
      vertex 4.33517 -19.6642 1
      vertex 4.33517 -19.6642 0
    endloop
  endfacet
  facet normal -0.99991 0.0134055 0
    outer loop
      vertex 4.33517 -19.6642 1
      vertex 4.32689 -20.2818 0
      vertex 4.32689 -20.2818 1
    endloop
  endfacet
  facet normal -0.99999 0.0045567 0
    outer loop
      vertex 4.32414 -20.8853 0
      vertex 4.32689 -20.2818 1
      vertex 4.32689 -20.2818 0
    endloop
  endfacet
  facet normal -0.99999 0.0045567 0
    outer loop
      vertex 4.32689 -20.2818 1
      vertex 4.32414 -20.8853 0
      vertex 4.32414 -20.8853 1
    endloop
  endfacet
  facet normal -1 0 0
    outer loop
      vertex 4.32414 -36.7718 0
      vertex 4.32414 -20.8853 1
      vertex 4.32414 -20.8853 0
    endloop
  endfacet
  facet normal -1 -0 0
    outer loop
      vertex 4.32414 -20.8853 1
      vertex 4.32414 -36.7718 0
      vertex 4.32414 -36.7718 1
    endloop
  endfacet
  facet normal 0 1 -0
    outer loop
      vertex 4.32414 -36.7718 0
      vertex -11.3309 -36.7718 1
      vertex 4.32414 -36.7718 1
    endloop
  endfacet
  facet normal 0 1 0
    outer loop
      vertex -11.3309 -36.7718 1
      vertex 4.32414 -36.7718 0
      vertex -11.3309 -36.7718 0
    endloop
  endfacet
endsolid OpenSCAD_Model
