  0
SECTION
  2
BLOCKS
  0
ENDSEC
  0
SECTION
  2
ENTITIES
  0
LINE
  8
0
 10
14.6828
 20
-44.8504
 11
21.9497
 21
-44.8504
  0
LINE
  8
0
 10
21.9497
 20
-44.8504
 11
21.9497
 21
-36.7718
  0
LINE
  8
0
 10
21.9497
 20
-36.7718
 11
14.6828
 21
-36.7718
  0
LINE
  8
0
 10
14.6828
 20
-36.7718
 11
14.6828
 21
-3.80072
  0
LINE
  8
0
 10
14.6828
 20
-3.80072
 11
2.54575
 21
-3.80072
  0
LINE
  8
0
 10
2.54575
 20
-3.80072
 11
-20.4526
 21
-36.6943
  0
LINE
  8
0
 10
-20.4526
 20
-36.6943
 11
-20.4526
 21
-44.8504
  0
LINE
  8
0
 10
-20.4526
 20
-44.8504
 11
4.32414
 21
-44.8504
  0
LINE
  8
0
 10
4.32414
 20
-44.8504
 11
4.32414
 21
-55.9437
  0
LINE
  8
0
 10
4.32414
 20
-55.9437
 11
14.6828
 21
-55.9437
  0
LINE
  8
0
 10
14.6828
 20
-55.9437
 11
14.6828
 21
-44.8504
  0
LINE
  8
0
 10
-11.3309
 20
-36.7718
 11
1.03809
 21
-19.494
  0
LINE
  8
0
 10
1.03809
 20
-19.494
 11
1.75604
 21
-18.3628
  0
LINE
  8
0
 10
1.75604
 20
-18.3628
 11
2.40771
 21
-17.3105
  0
LINE
  8
0
 10
2.40771
 20
-17.3105
 11
2.9931
 21
-16.337
  0
LINE
  8
0
 10
2.9931
 20
-16.337
 11
3.51222
 21
-15.4424
  0
LINE
  8
0
 10
3.51222
 20
-15.4424
 11
3.96504
 21
-14.6267
  0
LINE
  8
0
 10
3.96504
 20
-14.6267
 11
4.35158
 21
-13.8899
  0
LINE
  8
0
 10
4.35158
 20
-13.8899
 11
4.67184
 21
-13.2319
  0
LINE
  8
0
 10
4.67184
 20
-13.2319
 11
4.64851
 21
-13.4663
  0
LINE
  8
0
 10
4.64851
 20
-13.4663
 11
4.62285
 21
-13.7716
  0
LINE
  8
0
 10
4.62285
 20
-13.7716
 11
4.59482
 21
-14.1479
  0
LINE
  8
0
 10
4.59482
 20
-14.1479
 11
4.56445
 21
-14.5952
  0
LINE
  8
0
 10
4.56445
 20
-14.5952
 11
4.53172
 21
-15.1134
  0
LINE
  8
0
 10
4.53172
 20
-15.1134
 11
4.49666
 21
-15.7027
  0
LINE
  8
0
 10
4.49666
 20
-15.7027
 11
4.45923
 21
-16.3629
  0
LINE
  8
0
 10
4.45923
 20
-16.3629
 11
4.42339
 21
-17.0516
  0
LINE
  8
0
 10
4.42339
 20
-17.0516
 11
4.39307
 21
-17.726
  0
LINE
  8
0
 10
4.39307
 20
-17.726
 11
4.36826
 21
-18.3863
  0
LINE
  8
0
 10
4.36826
 20
-18.3863
 11
4.34895
 21
-19.0323
  0
LINE
  8
0
 10
4.34895
 20
-19.0323
 11
4.33517
 21
-19.6642
  0
LINE
  8
0
 10
4.33517
 20
-19.6642
 11
4.32689
 21
-20.2818
  0
LINE
  8
0
 10
4.32689
 20
-20.2818
 11
4.32414
 21
-20.8853
  0
LINE
  8
0
 10
4.32414
 20
-20.8853
 11
4.32414
 21
-36.7718
  0
LINE
  8
0
 10
4.32414
 20
-36.7718
 11
-11.3309
 21
-36.7718
  0
ENDSEC
  0
SECTION
  2
OBJECTS
  0
DICTIONARY
  0
ENDSEC
  0
EOF
