solid OpenSCAD_Model
  facet normal 0 0 -1
    outer loop
      vertex -16.7419 -55.9437 0
      vertex -5.33963 -36.2691 0
      vertex -5.33963 -55.9437 0
    endloop
  endfacet
  facet normal -0 0 -1
    outer loop
      vertex -5.33963 -36.2691 0
      vertex -16.7419 -55.9437 0
      vertex -5.33963 -27.4563 0
    endloop
  endfacet
  facet normal 0 0 -1
    outer loop
      vertex -16.7419 -3.80072 0
      vertex -5.33963 -27.4563 0
      vertex -16.7419 -55.9437 0
    endloop
  endfacet
  facet normal 0 0 -1
    outer loop
      vertex -5.33963 -36.2691 0
      vertex 18.6642 -27.4563 0
      vertex 18.6642 -36.2691 0
    endloop
  endfacet
  facet normal -0 0 -1
    outer loop
      vertex 18.6642 -27.4563 0
      vertex -5.33963 -36.2691 0
      vertex -5.33963 -27.4563 0
    endloop
  endfacet
  facet normal 0 0 -1
    outer loop
      vertex -5.33963 -12.6135 0
      vertex 19.5534 -3.80072 0
      vertex 19.5534 -12.6135 0
    endloop
  endfacet
  facet normal 0 0 -1
    outer loop
      vertex -5.33963 -12.6135 0
      vertex -16.7419 -3.80072 0
      vertex 19.5534 -3.80072 0
    endloop
  endfacet
  facet normal 0 0 -1
    outer loop
      vertex -5.33963 -27.4563 0
      vertex -16.7419 -3.80072 0
      vertex -5.33963 -12.6135 0
    endloop
  endfacet
  facet normal 0 0 1
    outer loop
      vertex 19.5534 -3.80072 1
      vertex -5.33963 -12.6135 1
      vertex 19.5534 -12.6135 1
    endloop
  endfacet
  facet normal 0 0 1
    outer loop
      vertex -16.7419 -3.80072 1
      vertex -5.33963 -27.4563 1
      vertex -5.33963 -12.6135 1
    endloop
  endfacet
  facet normal 0 0 1
    outer loop
      vertex -16.7419 -55.9437 1
      vertex -5.33963 -27.4563 1
      vertex -16.7419 -3.80072 1
    endloop
  endfacet
  facet normal -0 0 1
    outer loop
      vertex -16.7419 -3.80072 1
      vertex -5.33963 -12.6135 1
      vertex 19.5534 -3.80072 1
    endloop
  endfacet
  facet normal 0 0 1
    outer loop
      vertex -5.33963 -27.4563 1
      vertex -16.7419 -55.9437 1
      vertex -5.33963 -36.2691 1
    endloop
  endfacet
  facet normal 0 0 1
    outer loop
      vertex -5.33963 -36.2691 1
      vertex -16.7419 -55.9437 1
      vertex -5.33963 -55.9437 1
    endloop
  endfacet
  facet normal -0 0 1
    outer loop
      vertex -5.33963 -27.4563 1
      vertex 18.6642 -36.2691 1
      vertex 18.6642 -27.4563 1
    endloop
  endfacet
  facet normal 0 0 1
    outer loop
      vertex 18.6642 -36.2691 1
      vertex -5.33963 -27.4563 1
      vertex -5.33963 -36.2691 1
    endloop
  endfacet
  facet normal 0 -1 0
    outer loop
      vertex -5.33963 -36.2691 0
      vertex 18.6642 -36.2691 1
      vertex -5.33963 -36.2691 1
    endloop
  endfacet
  facet normal 0 -1 -0
    outer loop
      vertex 18.6642 -36.2691 1
      vertex -5.33963 -36.2691 0
      vertex 18.6642 -36.2691 0
    endloop
  endfacet
  facet normal 1 -0 0
    outer loop
      vertex 18.6642 -36.2691 1
      vertex 18.6642 -27.4563 0
      vertex 18.6642 -27.4563 1
    endloop
  endfacet
  facet normal 1 0 0
    outer loop
      vertex 18.6642 -27.4563 0
      vertex 18.6642 -36.2691 1
      vertex 18.6642 -36.2691 0
    endloop
  endfacet
  facet normal 0 1 -0
    outer loop
      vertex 18.6642 -27.4563 0
      vertex -5.33963 -27.4563 1
      vertex 18.6642 -27.4563 1
    endloop
  endfacet
  facet normal 0 1 0
    outer loop
      vertex -5.33963 -27.4563 1
      vertex 18.6642 -27.4563 0
      vertex -5.33963 -27.4563 0
    endloop
  endfacet
  facet normal 1 -0 0
    outer loop
      vertex -5.33963 -27.4563 1
      vertex -5.33963 -12.6135 0
      vertex -5.33963 -12.6135 1
    endloop
  endfacet
  facet normal 1 0 0
    outer loop
      vertex -5.33963 -12.6135 0
      vertex -5.33963 -27.4563 1
      vertex -5.33963 -27.4563 0
    endloop
  endfacet
  facet normal 0 -1 0
    outer loop
      vertex -5.33963 -12.6135 0
      vertex 19.5534 -12.6135 1
      vertex -5.33963 -12.6135 1
    endloop
  endfacet
  facet normal 0 -1 -0
    outer loop
      vertex 19.5534 -12.6135 1
      vertex -5.33963 -12.6135 0
      vertex 19.5534 -12.6135 0
    endloop
  endfacet
  facet normal 1 -0 0
    outer loop
      vertex 19.5534 -12.6135 1
      vertex 19.5534 -3.80072 0
      vertex 19.5534 -3.80072 1
    endloop
  endfacet
  facet normal 1 0 0
    outer loop
      vertex 19.5534 -3.80072 0
      vertex 19.5534 -12.6135 1
      vertex 19.5534 -12.6135 0
    endloop
  endfacet
  facet normal 0 1 -0
    outer loop
      vertex 19.5534 -3.80072 0
      vertex -16.7419 -3.80072 1
      vertex 19.5534 -3.80072 1
    endloop
  endfacet
  facet normal 0 1 0
    outer loop
      vertex -16.7419 -3.80072 1
      vertex 19.5534 -3.80072 0
      vertex -16.7419 -3.80072 0
    endloop
  endfacet
  facet normal -1 0 0
    outer loop
      vertex -16.7419 -55.9437 0
      vertex -16.7419 -3.80072 1
      vertex -16.7419 -3.80072 0
    endloop
  endfacet
  facet normal -1 -0 0
    outer loop
      vertex -16.7419 -3.80072 1
      vertex -16.7419 -55.9437 0
      vertex -16.7419 -55.9437 1
    endloop
  endfacet
  facet normal 0 -1 0
    outer loop
      vertex -16.7419 -55.9437 0
      vertex -5.33963 -55.9437 1
      vertex -16.7419 -55.9437 1
    endloop
  endfacet
  facet normal 0 -1 -0
    outer loop
      vertex -5.33963 -55.9437 1
      vertex -16.7419 -55.9437 0
      vertex -5.33963 -55.9437 0
    endloop
  endfacet
  facet normal 1 -0 0
    outer loop
      vertex -5.33963 -55.9437 1
      vertex -5.33963 -36.2691 0
      vertex -5.33963 -36.2691 1
    endloop
  endfacet
  facet normal 1 0 0
    outer loop
      vertex -5.33963 -36.2691 0
      vertex -5.33963 -55.9437 1
      vertex -5.33963 -55.9437 0
    endloop
  endfacet
endsolid OpenSCAD_Model
