solid OpenSCAD_Model
  facet normal 0 0 -1
    outer loop
      vertex 20.1718 -55.9437 0
      vertex -3.63875 -47.131 0
      vertex 20.1718 -47.131 0
    endloop
  endfacet
  facet normal 0 0 -1
    outer loop
      vertex -15.0416 -55.9437 0
      vertex -3.63875 -47.131 0
      vertex 20.1718 -55.9437 0
    endloop
  endfacet
  facet normal 0 0 -1
    outer loop
      vertex -15.0416 -3.80072 0
      vertex -3.63875 -47.131 0
      vertex -15.0416 -55.9437 0
    endloop
  endfacet
  facet normal 0 0 -1
    outer loop
      vertex -3.63875 -47.131 0
      vertex -15.0416 -3.80072 0
      vertex -3.63875 -3.80072 0
    endloop
  endfacet
  facet normal 0 0 1
    outer loop
      vertex -3.63875 -3.80072 1
      vertex -15.0416 -3.80072 1
      vertex -3.63875 -47.131 1
    endloop
  endfacet
  facet normal -0 0 1
    outer loop
      vertex -3.63875 -47.131 1
      vertex 20.1718 -55.9437 1
      vertex 20.1718 -47.131 1
    endloop
  endfacet
  facet normal 0 0 1
    outer loop
      vertex -3.63875 -47.131 1
      vertex -15.0416 -55.9437 1
      vertex 20.1718 -55.9437 1
    endloop
  endfacet
  facet normal 0 0 1
    outer loop
      vertex -15.0416 -55.9437 1
      vertex -3.63875 -47.131 1
      vertex -15.0416 -3.80072 1
    endloop
  endfacet
  facet normal 0 1 -0
    outer loop
      vertex 20.1718 -47.131 0
      vertex -3.63875 -47.131 1
      vertex 20.1718 -47.131 1
    endloop
  endfacet
  facet normal 0 1 0
    outer loop
      vertex -3.63875 -47.131 1
      vertex 20.1718 -47.131 0
      vertex -3.63875 -47.131 0
    endloop
  endfacet
  facet normal 1 -0 0
    outer loop
      vertex -3.63875 -47.131 1
      vertex -3.63875 -3.80072 0
      vertex -3.63875 -3.80072 1
    endloop
  endfacet
  facet normal 1 0 0
    outer loop
      vertex -3.63875 -3.80072 0
      vertex -3.63875 -47.131 1
      vertex -3.63875 -47.131 0
    endloop
  endfacet
  facet normal 0 1 -0
    outer loop
      vertex -3.63875 -3.80072 0
      vertex -15.0416 -3.80072 1
      vertex -3.63875 -3.80072 1
    endloop
  endfacet
  facet normal 0 1 0
    outer loop
      vertex -15.0416 -3.80072 1
      vertex -3.63875 -3.80072 0
      vertex -15.0416 -3.80072 0
    endloop
  endfacet
  facet normal -1 0 0
    outer loop
      vertex -15.0416 -55.9437 0
      vertex -15.0416 -3.80072 1
      vertex -15.0416 -3.80072 0
    endloop
  endfacet
  facet normal -1 -0 0
    outer loop
      vertex -15.0416 -3.80072 1
      vertex -15.0416 -55.9437 0
      vertex -15.0416 -55.9437 1
    endloop
  endfacet
  facet normal 0 -1 0
    outer loop
      vertex -15.0416 -55.9437 0
      vertex 20.1718 -55.9437 1
      vertex -15.0416 -55.9437 1
    endloop
  endfacet
  facet normal 0 -1 -0
    outer loop
      vertex 20.1718 -55.9437 1
      vertex -15.0416 -55.9437 0
      vertex 20.1718 -55.9437 0
    endloop
  endfacet
  facet normal 1 -0 0
    outer loop
      vertex 20.1718 -55.9437 1
      vertex 20.1718 -47.131 0
      vertex 20.1718 -47.131 1
    endloop
  endfacet
  facet normal 1 0 0
    outer loop
      vertex 20.1718 -47.131 0
      vertex 20.1718 -55.9437 1
      vertex 20.1718 -55.9437 0
    endloop
  endfacet
endsolid OpenSCAD_Model
