solid OpenSCAD_Model
  facet normal 0 0 -1
    outer loop
      vertex 5.36497 -17.0127 0
      vertex 1.59746 -16.7165 0
      vertex 1.60876 -16.3249 0
    endloop
  endfacet
  facet normal 0 0 -1
    outer loop
      vertex 2.28368 -21.7172 0
      vertex 1.56354 -17.0812 0
      vertex 1.59746 -16.7165 0
    endloop
  endfacet
  facet normal 0 0 -1
    outer loop
      vertex 2.28368 -21.7172 0
      vertex 1.507 -17.4191 0
      vertex 1.56354 -17.0812 0
    endloop
  endfacet
  facet normal 0 0 -1
    outer loop
      vertex 2.28368 -21.7172 0
      vertex 1.42786 -17.7302 0
      vertex 1.507 -17.4191 0
    endloop
  endfacet
  facet normal 0 0 -1
    outer loop
      vertex 2.28368 -21.7172 0
      vertex 1.3261 -18.0145 0
      vertex 1.42786 -17.7302 0
    endloop
  endfacet
  facet normal 0 0 -1
    outer loop
      vertex 2.28368 -21.7172 0
      vertex 1.20172 -18.2719 0
      vertex 1.3261 -18.0145 0
    endloop
  endfacet
  facet normal 0 0 -1
    outer loop
      vertex 2.28368 -21.7172 0
      vertex 1.05472 -18.5025 0
      vertex 1.20172 -18.2719 0
    endloop
  endfacet
  facet normal 0 0 -1
    outer loop
      vertex 0.295349 -19.1231 0
      vertex 1.66893 -21.9455 0
      vertex 1.00578 -22.1085 0
    endloop
  endfacet
  facet normal 0 0 -1
    outer loop
      vertex 2.28368 -21.7172 0
      vertex 0.888535 -18.7042 0
      vertex 1.05472 -18.5025 0
    endloop
  endfacet
  facet normal 0 0 -1
    outer loop
      vertex 2.28368 -21.7172 0
      vertex 0.706589 -18.8749 0
      vertex 0.888535 -18.7042 0
    endloop
  endfacet
  facet normal 0 0 -1
    outer loop
      vertex 2.28368 -21.7172 0
      vertex 0.50885 -19.0145 0
      vertex 0.706589 -18.8749 0
    endloop
  endfacet
  facet normal 0 0 -1
    outer loop
      vertex 1.66893 -21.9455 0
      vertex 0.295349 -19.1231 0
      vertex 0.50885 -19.0145 0
    endloop
  endfacet
  facet normal 0 0 -1
    outer loop
      vertex 0.0660706 -19.2007 0
      vertex 1.00578 -22.1085 0
      vertex 0.29425 -22.2063 0
    endloop
  endfacet
  facet normal 0 0 -1
    outer loop
      vertex 1.00578 -22.1085 0
      vertex 0.0660706 -19.2007 0
      vertex 0.295349 -19.1231 0
    endloop
  endfacet
  facet normal 0 0 -1
    outer loop
      vertex 0.29425 -22.2063 0
      vertex -0.17897 -19.2472 0
      vertex 0.0660706 -19.2007 0
    endloop
  endfacet
  facet normal 0 0 -1
    outer loop
      vertex -0.465637 -22.2389 0
      vertex -0.17897 -19.2472 0
      vertex 0.29425 -22.2063 0
    endloop
  endfacet
  facet normal 0 0 -1
    outer loop
      vertex -0.17897 -19.2472 0
      vertex -0.465637 -22.2389 0
      vertex -0.439804 -19.2627 0
    endloop
  endfacet
  facet normal 0 0 -1
    outer loop
      vertex -0.465637 -22.2389 0
      vertex -0.666977 -19.2475 0
      vertex -0.439804 -19.2627 0
    endloop
  endfacet
  facet normal 0 0 -1
    outer loop
      vertex -1.16664 -22.2102 0
      vertex -0.666977 -19.2475 0
      vertex -0.465637 -22.2389 0
    endloop
  endfacet
  facet normal -0 0 -1
    outer loop
      vertex -0.666977 -19.2475 0
      vertex -1.16664 -22.2102 0
      vertex -0.884689 -19.2017 0
    endloop
  endfacet
  facet normal 0 0 -1
    outer loop
      vertex -1.82663 -22.1243 0
      vertex -0.884689 -19.2017 0
      vertex -1.16664 -22.2102 0
    endloop
  endfacet
  facet normal -0 0 -1
    outer loop
      vertex -0.884689 -19.2017 0
      vertex -1.82663 -22.1243 0
      vertex -1.09296 -19.1255 0
    endloop
  endfacet
  facet normal 0 0 -1
    outer loop
      vertex -2.4456 -21.981 0
      vertex -1.09296 -19.1255 0
      vertex -1.82663 -22.1243 0
    endloop
  endfacet
  facet normal -0 0 -1
    outer loop
      vertex -1.09296 -19.1255 0
      vertex -2.4456 -21.981 0
      vertex -1.29175 -19.0187 0
    endloop
  endfacet
  facet normal 0 0 -1
    outer loop
      vertex -3.02354 -21.7803 0
      vertex -1.29175 -19.0187 0
      vertex -2.4456 -21.981 0
    endloop
  endfacet
  facet normal -0 0 -1
    outer loop
      vertex -1.29175 -19.0187 0
      vertex -3.02354 -21.7803 0
      vertex -1.48108 -18.8815 0
    endloop
  endfacet
  facet normal 0 0 -1
    outer loop
      vertex -3.56049 -21.5224 0
      vertex -1.48108 -18.8815 0
      vertex -3.02354 -21.7803 0
    endloop
  endfacet
  facet normal -0 0 -1
    outer loop
      vertex -1.48108 -18.8815 0
      vertex -3.56049 -21.5224 0
      vertex -1.66095 -18.7137 0
    endloop
  endfacet
  facet normal 0 0 -1
    outer loop
      vertex -4.05641 -21.2072 0
      vertex -1.66095 -18.7137 0
      vertex -3.56049 -21.5224 0
    endloop
  endfacet
  facet normal -0 0 -1
    outer loop
      vertex -1.66095 -18.7137 0
      vertex -4.05641 -21.2072 0
      vertex -1.83136 -18.5155 0
    endloop
  endfacet
  facet normal 0 0 -1
    outer loop
      vertex -4.51131 -20.8346 0
      vertex -1.83136 -18.5155 0
      vertex -4.05641 -21.2072 0
    endloop
  endfacet
  facet normal -0 0 -1
    outer loop
      vertex -1.83136 -18.5155 0
      vertex -4.51131 -20.8346 0
      vertex -1.99042 -18.2861 0
    endloop
  endfacet
  facet normal 0 0 -1
    outer loop
      vertex -4.92256 -20.4083 0
      vertex -1.99042 -18.2861 0
      vertex -4.51131 -20.8346 0
    endloop
  endfacet
  facet normal -0 0 -1
    outer loop
      vertex -1.99042 -18.2861 0
      vertex -4.92256 -20.4083 0
      vertex -2.13634 -18.0252 0
    endloop
  endfacet
  facet normal 0 0 -1
    outer loop
      vertex -5.28754 -19.9321 0
      vertex -2.13634 -18.0252 0
      vertex -4.92256 -20.4083 0
    endloop
  endfacet
  facet normal 0 0 -1
    outer loop
      vertex -5.60622 -19.4059 0
      vertex -2.13634 -18.0252 0
      vertex -5.28754 -19.9321 0
    endloop
  endfacet
  facet normal -0 0 -1
    outer loop
      vertex -2.13634 -18.0252 0
      vertex -5.60622 -19.4059 0
      vertex -2.26912 -17.7328 0
    endloop
  endfacet
  facet normal 0 0 -1
    outer loop
      vertex -5.87863 -18.8298 0
      vertex -2.26912 -17.7328 0
      vertex -5.60622 -19.4059 0
    endloop
  endfacet
  facet normal -0 0 -1
    outer loop
      vertex -2.26912 -17.7328 0
      vertex -5.87863 -18.8298 0
      vertex -2.38876 -17.4088 0
    endloop
  endfacet
  facet normal 0 0 -1
    outer loop
      vertex -6.10475 -18.2037 0
      vertex -2.38876 -17.4088 0
      vertex -5.87863 -18.8298 0
    endloop
  endfacet
  facet normal -0 0 -1
    outer loop
      vertex -2.38876 -17.4088 0
      vertex -6.10475 -18.2037 0
      vertex -2.49527 -17.0533 0
    endloop
  endfacet
  facet normal 0 0 -1
    outer loop
      vertex -6.28459 -17.5277 0
      vertex -2.49527 -17.0533 0
      vertex -6.10475 -18.2037 0
    endloop
  endfacet
  facet normal -0 0 -1
    outer loop
      vertex -2.49527 -17.0533 0
      vertex -6.28459 -17.5277 0
      vertex -2.58864 -16.6662 0
    endloop
  endfacet
  facet normal -0 0 -1
    outer loop
      vertex -2.58864 -16.6662 0
      vertex -6.28459 -17.5277 0
      vertex -2.66888 -16.2476 0
    endloop
  endfacet
  facet normal 0 0 -1
    outer loop
      vertex -2.66888 -16.2476 0
      vertex -6.28459 -17.5277 0
      vertex -6.41815 -16.8017 0
    endloop
  endfacet
  facet normal 0 0 -1
    outer loop
      vertex 1.60876 -16.3249 0
      vertex 5.39679 -16.2349 0
      vertex 5.36497 -17.0127 0
    endloop
  endfacet
  facet normal 0 0 -1
    outer loop
      vertex 1.59746 -16.7165 0
      vertex 5.36497 -17.0127 0
      vertex 5.26952 -17.741 0
    endloop
  endfacet
  facet normal 0 0 -1
    outer loop
      vertex 1.59746 -16.7165 0
      vertex 5.26952 -17.741 0
      vertex 5.11043 -18.42 0
    endloop
  endfacet
  facet normal 0 0 -1
    outer loop
      vertex 1.59746 -16.7165 0
      vertex 5.11043 -18.42 0
      vertex 4.8877 -19.0495 0
    endloop
  endfacet
  facet normal 0 0 -1
    outer loop
      vertex 1.59746 -16.7165 0
      vertex 4.8877 -19.0495 0
      vertex 4.60132 -19.6295 0
    endloop
  endfacet
  facet normal 0 0 -1
    outer loop
      vertex 1.59746 -16.7165 0
      vertex 4.60132 -19.6295 0
      vertex 4.2513 -20.1602 0
    endloop
  endfacet
  facet normal 0 0 -1
    outer loop
      vertex 1.59746 -16.7165 0
      vertex 4.2513 -20.1602 0
      vertex 3.83766 -20.6414 0
    endloop
  endfacet
  facet normal 0 0 -1
    outer loop
      vertex 1.59746 -16.7165 0
      vertex 3.83766 -20.6414 0
      vertex 3.36804 -21.0652 0
    endloop
  endfacet
  facet normal 0 0 -1
    outer loop
      vertex 1.59746 -16.7165 0
      vertex 3.36804 -21.0652 0
      vertex 2.85005 -21.4238 0
    endloop
  endfacet
  facet normal 0 0 -1
    outer loop
      vertex 1.59746 -16.7165 0
      vertex 2.85005 -21.4238 0
      vertex 2.28368 -21.7172 0
    endloop
  endfacet
  facet normal 0 0 -1
    outer loop
      vertex 0.50885 -19.0145 0
      vertex 2.28368 -21.7172 0
      vertex 1.66893 -21.9455 0
    endloop
  endfacet
  facet normal -0 0 -1
    outer loop
      vertex 5.39679 -16.2349 0
      vertex 1.60876 -16.3249 0
      vertex 1.60876 -7.57658 0
    endloop
  endfacet
  facet normal 0 0 -1
    outer loop
      vertex 5.39679 -16.2349 0
      vertex 1.60876 -7.57658 0
      vertex 5.39679 -4.60025 0
    endloop
  endfacet
  facet normal 0 0 -1
    outer loop
      vertex -2.26932 -4.60025 0
      vertex 1.60876 -7.57658 0
      vertex -2.26932 -7.57658 0
    endloop
  endfacet
  facet normal 0 0 -1
    outer loop
      vertex 1.60876 -7.57658 0
      vertex -2.26932 -4.60025 0
      vertex 5.39679 -4.60025 0
    endloop
  endfacet
  facet normal -0 0 1
    outer loop
      vertex 1.60876 -7.57658 1
      vertex 5.39679 -16.2349 1
      vertex 5.39679 -4.60025 1
    endloop
  endfacet
  facet normal 0 0 1
    outer loop
      vertex 1.60876 -16.3249 1
      vertex 5.39679 -16.2349 1
      vertex 1.60876 -7.57658 1
    endloop
  endfacet
  facet normal 0 0 1
    outer loop
      vertex 5.39679 -16.2349 1
      vertex 1.60876 -16.3249 1
      vertex 5.36497 -17.0127 1
    endloop
  endfacet
  facet normal -0 0 1
    outer loop
      vertex 1.59746 -16.7165 1
      vertex 5.36497 -17.0127 1
      vertex 1.60876 -16.3249 1
    endloop
  endfacet
  facet normal 0 0 1
    outer loop
      vertex 5.36497 -17.0127 1
      vertex 1.56354 -17.0812 1
      vertex 5.26952 -17.741 1
    endloop
  endfacet
  facet normal -0 0 1
    outer loop
      vertex 1.507 -17.4191 1
      vertex 5.26952 -17.741 1
      vertex 1.56354 -17.0812 1
    endloop
  endfacet
  facet normal 0 0 1
    outer loop
      vertex 5.26952 -17.741 1
      vertex 1.507 -17.4191 1
      vertex 5.11043 -18.42 1
    endloop
  endfacet
  facet normal -0 0 1
    outer loop
      vertex 1.42786 -17.7302 1
      vertex 5.11043 -18.42 1
      vertex 1.507 -17.4191 1
    endloop
  endfacet
  facet normal 0 0 1
    outer loop
      vertex 5.11043 -18.42 1
      vertex 1.42786 -17.7302 1
      vertex 4.8877 -19.0495 1
    endloop
  endfacet
  facet normal -0 0 1
    outer loop
      vertex 1.3261 -18.0145 1
      vertex 4.8877 -19.0495 1
      vertex 1.42786 -17.7302 1
    endloop
  endfacet
  facet normal 0 0 1
    outer loop
      vertex 4.8877 -19.0495 1
      vertex 1.3261 -18.0145 1
      vertex 4.60132 -19.6295 1
    endloop
  endfacet
  facet normal 0 0 1
    outer loop
      vertex 1.56354 -17.0812 1
      vertex 5.36497 -17.0127 1
      vertex 1.59746 -16.7165 1
    endloop
  endfacet
  facet normal -0 0 1
    outer loop
      vertex -2.26932 -4.60025 1
      vertex 1.60876 -7.57658 1
      vertex 5.39679 -4.60025 1
    endloop
  endfacet
  facet normal 0 0 1
    outer loop
      vertex 1.60876 -7.57658 1
      vertex -2.26932 -4.60025 1
      vertex -2.26932 -7.57658 1
    endloop
  endfacet
  facet normal 0 0 1
    outer loop
      vertex 4.60132 -19.6295 1
      vertex 1.3261 -18.0145 1
      vertex 4.2513 -20.1602 1
    endloop
  endfacet
  facet normal -0 0 1
    outer loop
      vertex 1.20172 -18.2719 1
      vertex 4.2513 -20.1602 1
      vertex 1.3261 -18.0145 1
    endloop
  endfacet
  facet normal 0 0 1
    outer loop
      vertex 4.2513 -20.1602 1
      vertex 1.20172 -18.2719 1
      vertex 3.83766 -20.6414 1
    endloop
  endfacet
  facet normal -0 0 1
    outer loop
      vertex 1.05472 -18.5025 1
      vertex 3.83766 -20.6414 1
      vertex 1.20172 -18.2719 1
    endloop
  endfacet
  facet normal 0 0 1
    outer loop
      vertex 3.83766 -20.6414 1
      vertex 1.05472 -18.5025 1
      vertex 3.36804 -21.0652 1
    endloop
  endfacet
  facet normal -0 0 1
    outer loop
      vertex 0.888535 -18.7042 1
      vertex 3.36804 -21.0652 1
      vertex 1.05472 -18.5025 1
    endloop
  endfacet
  facet normal 0 0 1
    outer loop
      vertex 3.36804 -21.0652 1
      vertex 0.888535 -18.7042 1
      vertex 2.85005 -21.4238 1
    endloop
  endfacet
  facet normal -0 0 1
    outer loop
      vertex 0.706589 -18.8749 1
      vertex 2.85005 -21.4238 1
      vertex 0.888535 -18.7042 1
    endloop
  endfacet
  facet normal 0 0 1
    outer loop
      vertex 2.85005 -21.4238 1
      vertex 0.706589 -18.8749 1
      vertex 2.28368 -21.7172 1
    endloop
  endfacet
  facet normal -0 0 1
    outer loop
      vertex 0.50885 -19.0145 1
      vertex 2.28368 -21.7172 1
      vertex 0.706589 -18.8749 1
    endloop
  endfacet
  facet normal 0 0 1
    outer loop
      vertex 2.28368 -21.7172 1
      vertex 0.50885 -19.0145 1
      vertex 1.66893 -21.9455 1
    endloop
  endfacet
  facet normal -0 0 1
    outer loop
      vertex 0.295349 -19.1231 1
      vertex 1.66893 -21.9455 1
      vertex 0.50885 -19.0145 1
    endloop
  endfacet
  facet normal 0 0 1
    outer loop
      vertex 1.66893 -21.9455 1
      vertex 0.295349 -19.1231 1
      vertex 1.00578 -22.1085 1
    endloop
  endfacet
  facet normal -0 0 1
    outer loop
      vertex 0.0660706 -19.2007 1
      vertex 1.00578 -22.1085 1
      vertex 0.295349 -19.1231 1
    endloop
  endfacet
  facet normal 0 0 1
    outer loop
      vertex 1.00578 -22.1085 1
      vertex 0.0660706 -19.2007 1
      vertex 0.29425 -22.2063 1
    endloop
  endfacet
  facet normal -0 0 1
    outer loop
      vertex -0.17897 -19.2472 1
      vertex 0.29425 -22.2063 1
      vertex 0.0660706 -19.2007 1
    endloop
  endfacet
  facet normal 0 0 1
    outer loop
      vertex -0.465637 -22.2389 1
      vertex -0.17897 -19.2472 1
      vertex -0.439804 -19.2627 1
    endloop
  endfacet
  facet normal 0 0 1
    outer loop
      vertex -0.17897 -19.2472 1
      vertex -0.465637 -22.2389 1
      vertex 0.29425 -22.2063 1
    endloop
  endfacet
  facet normal 0 0 1
    outer loop
      vertex -0.666977 -19.2475 1
      vertex -0.465637 -22.2389 1
      vertex -0.439804 -19.2627 1
    endloop
  endfacet
  facet normal 0 0 1
    outer loop
      vertex -1.16664 -22.2102 1
      vertex -0.666977 -19.2475 1
      vertex -0.884689 -19.2017 1
    endloop
  endfacet
  facet normal 0 0 1
    outer loop
      vertex -1.82663 -22.1243 1
      vertex -0.884689 -19.2017 1
      vertex -1.09296 -19.1255 1
    endloop
  endfacet
  facet normal 0 0 1
    outer loop
      vertex -0.666977 -19.2475 1
      vertex -1.16664 -22.2102 1
      vertex -0.465637 -22.2389 1
    endloop
  endfacet
  facet normal 0 0 1
    outer loop
      vertex -2.4456 -21.981 1
      vertex -1.09296 -19.1255 1
      vertex -1.29175 -19.0187 1
    endloop
  endfacet
  facet normal 0 0 1
    outer loop
      vertex -3.02354 -21.7803 1
      vertex -1.29175 -19.0187 1
      vertex -1.48108 -18.8815 1
    endloop
  endfacet
  facet normal 0 0 1
    outer loop
      vertex -3.56049 -21.5224 1
      vertex -1.48108 -18.8815 1
      vertex -1.66095 -18.7137 1
    endloop
  endfacet
  facet normal 0 0 1
    outer loop
      vertex -0.884689 -19.2017 1
      vertex -1.82663 -22.1243 1
      vertex -1.16664 -22.2102 1
    endloop
  endfacet
  facet normal 0 0 1
    outer loop
      vertex -4.05641 -21.2072 1
      vertex -1.66095 -18.7137 1
      vertex -1.83136 -18.5155 1
    endloop
  endfacet
  facet normal 0 0 1
    outer loop
      vertex -4.51131 -20.8346 1
      vertex -1.83136 -18.5155 1
      vertex -1.99042 -18.2861 1
    endloop
  endfacet
  facet normal 0 0 1
    outer loop
      vertex -4.92256 -20.4083 1
      vertex -1.99042 -18.2861 1
      vertex -2.13634 -18.0252 1
    endloop
  endfacet
  facet normal 0 0 1
    outer loop
      vertex -5.60622 -19.4059 1
      vertex -2.13634 -18.0252 1
      vertex -2.26912 -17.7328 1
    endloop
  endfacet
  facet normal 0 0 1
    outer loop
      vertex -5.87863 -18.8298 1
      vertex -2.26912 -17.7328 1
      vertex -2.38876 -17.4088 1
    endloop
  endfacet
  facet normal 0 0 1
    outer loop
      vertex -1.09296 -19.1255 1
      vertex -2.4456 -21.981 1
      vertex -1.82663 -22.1243 1
    endloop
  endfacet
  facet normal 0 0 1
    outer loop
      vertex -6.10475 -18.2037 1
      vertex -2.38876 -17.4088 1
      vertex -2.49527 -17.0533 1
    endloop
  endfacet
  facet normal 0 0 1
    outer loop
      vertex -6.28459 -17.5277 1
      vertex -2.49527 -17.0533 1
      vertex -2.58864 -16.6662 1
    endloop
  endfacet
  facet normal 0 0 1
    outer loop
      vertex -6.28459 -17.5277 1
      vertex -2.58864 -16.6662 1
      vertex -2.66888 -16.2476 1
    endloop
  endfacet
  facet normal 0 0 1
    outer loop
      vertex -1.29175 -19.0187 1
      vertex -3.02354 -21.7803 1
      vertex -2.4456 -21.981 1
    endloop
  endfacet
  facet normal 0 0 1
    outer loop
      vertex -1.48108 -18.8815 1
      vertex -3.56049 -21.5224 1
      vertex -3.02354 -21.7803 1
    endloop
  endfacet
  facet normal 0 0 1
    outer loop
      vertex -1.66095 -18.7137 1
      vertex -4.05641 -21.2072 1
      vertex -3.56049 -21.5224 1
    endloop
  endfacet
  facet normal 0 0 1
    outer loop
      vertex -1.83136 -18.5155 1
      vertex -4.51131 -20.8346 1
      vertex -4.05641 -21.2072 1
    endloop
  endfacet
  facet normal 0 0 1
    outer loop
      vertex -1.99042 -18.2861 1
      vertex -4.92256 -20.4083 1
      vertex -4.51131 -20.8346 1
    endloop
  endfacet
  facet normal 0 0 1
    outer loop
      vertex -2.13634 -18.0252 1
      vertex -5.28754 -19.9321 1
      vertex -4.92256 -20.4083 1
    endloop
  endfacet
  facet normal 0 0 1
    outer loop
      vertex -2.13634 -18.0252 1
      vertex -5.60622 -19.4059 1
      vertex -5.28754 -19.9321 1
    endloop
  endfacet
  facet normal 0 0 1
    outer loop
      vertex -2.26912 -17.7328 1
      vertex -5.87863 -18.8298 1
      vertex -5.60622 -19.4059 1
    endloop
  endfacet
  facet normal 0 0 1
    outer loop
      vertex -2.38876 -17.4088 1
      vertex -6.10475 -18.2037 1
      vertex -5.87863 -18.8298 1
    endloop
  endfacet
  facet normal 0 0 1
    outer loop
      vertex -2.49527 -17.0533 1
      vertex -6.28459 -17.5277 1
      vertex -6.10475 -18.2037 1
    endloop
  endfacet
  facet normal 0 -0 1
    outer loop
      vertex -6.28459 -17.5277 1
      vertex -2.66888 -16.2476 1
      vertex -6.41815 -16.8017 1
    endloop
  endfacet
  facet normal 0.13617 -0.990685 0
    outer loop
      vertex 0.29425 -22.2063 0
      vertex 1.00578 -22.1085 1
      vertex 0.29425 -22.2063 1
    endloop
  endfacet
  facet normal 0.13617 -0.990685 0
    outer loop
      vertex 1.00578 -22.1085 1
      vertex 0.29425 -22.2063 0
      vertex 1.00578 -22.1085 0
    endloop
  endfacet
  facet normal 0.238692 -0.971095 0
    outer loop
      vertex 1.00578 -22.1085 0
      vertex 1.66893 -21.9455 1
      vertex 1.00578 -22.1085 1
    endloop
  endfacet
  facet normal 0.238692 -0.971095 0
    outer loop
      vertex 1.66893 -21.9455 1
      vertex 1.00578 -22.1085 0
      vertex 1.66893 -21.9455 0
    endloop
  endfacet
  facet normal 0.348139 -0.937443 0
    outer loop
      vertex 1.66893 -21.9455 0
      vertex 2.28368 -21.7172 1
      vertex 1.66893 -21.9455 1
    endloop
  endfacet
  facet normal 0.348139 -0.937443 0
    outer loop
      vertex 2.28368 -21.7172 1
      vertex 1.66893 -21.9455 0
      vertex 2.28368 -21.7172 0
    endloop
  endfacet
  facet normal 0.459979 -0.88793 0
    outer loop
      vertex 2.28368 -21.7172 0
      vertex 2.85005 -21.4238 1
      vertex 2.28368 -21.7172 1
    endloop
  endfacet
  facet normal 0.459979 -0.88793 0
    outer loop
      vertex 2.85005 -21.4238 1
      vertex 2.28368 -21.7172 0
      vertex 2.85005 -21.4238 0
    endloop
  endfacet
  facet normal 0.569201 -0.822198 0
    outer loop
      vertex 2.85005 -21.4238 0
      vertex 3.36804 -21.0652 1
      vertex 2.85005 -21.4238 1
    endloop
  endfacet
  facet normal 0.569201 -0.822198 0
    outer loop
      vertex 3.36804 -21.0652 1
      vertex 2.85005 -21.4238 0
      vertex 3.36804 -21.0652 0
    endloop
  endfacet
  facet normal 0.669962 -0.742396 0
    outer loop
      vertex 3.36804 -21.0652 0
      vertex 3.83766 -20.6414 1
      vertex 3.36804 -21.0652 1
    endloop
  endfacet
  facet normal 0.669962 -0.742396 0
    outer loop
      vertex 3.83766 -20.6414 1
      vertex 3.36804 -21.0652 0
      vertex 3.83766 -20.6414 0
    endloop
  endfacet
  facet normal 0.758335 -0.651865 0
    outer loop
      vertex 3.83766 -20.6414 1
      vertex 4.2513 -20.1602 0
      vertex 4.2513 -20.1602 1
    endloop
  endfacet
  facet normal 0.758335 -0.651865 0
    outer loop
      vertex 4.2513 -20.1602 0
      vertex 3.83766 -20.6414 1
      vertex 3.83766 -20.6414 0
    endloop
  endfacet
  facet normal 0.834784 -0.550577 0
    outer loop
      vertex 4.2513 -20.1602 1
      vertex 4.60132 -19.6295 0
      vertex 4.60132 -19.6295 1
    endloop
  endfacet
  facet normal 0.834784 -0.550577 0
    outer loop
      vertex 4.60132 -19.6295 0
      vertex 4.2513 -20.1602 1
      vertex 4.2513 -20.1602 0
    endloop
  endfacet
  facet normal 0.896655 -0.442731 0
    outer loop
      vertex 4.60132 -19.6295 1
      vertex 4.8877 -19.0495 0
      vertex 4.8877 -19.0495 1
    endloop
  endfacet
  facet normal 0.896655 -0.442731 0
    outer loop
      vertex 4.8877 -19.0495 0
      vertex 4.60132 -19.6295 1
      vertex 4.60132 -19.6295 0
    endloop
  endfacet
  facet normal 0.94273 -0.333557 0
    outer loop
      vertex 4.8877 -19.0495 1
      vertex 5.11043 -18.42 0
      vertex 5.11043 -18.42 1
    endloop
  endfacet
  facet normal 0.94273 -0.333557 0
    outer loop
      vertex 5.11043 -18.42 0
      vertex 4.8877 -19.0495 1
      vertex 4.8877 -19.0495 0
    endloop
  endfacet
  facet normal 0.973632 -0.228123 0
    outer loop
      vertex 5.11043 -18.42 1
      vertex 5.26952 -17.741 0
      vertex 5.26952 -17.741 1
    endloop
  endfacet
  facet normal 0.973632 -0.228123 0
    outer loop
      vertex 5.26952 -17.741 0
      vertex 5.11043 -18.42 1
      vertex 5.11043 -18.42 0
    endloop
  endfacet
  facet normal 0.991521 -0.129947 0
    outer loop
      vertex 5.26952 -17.741 1
      vertex 5.36497 -17.0127 0
      vertex 5.36497 -17.0127 1
    endloop
  endfacet
  facet normal 0.991521 -0.129947 0
    outer loop
      vertex 5.36497 -17.0127 0
      vertex 5.26952 -17.741 1
      vertex 5.26952 -17.741 0
    endloop
  endfacet
  facet normal 0.999164 -0.0408761 0
    outer loop
      vertex 5.36497 -17.0127 1
      vertex 5.39679 -16.2349 0
      vertex 5.39679 -16.2349 1
    endloop
  endfacet
  facet normal 0.999164 -0.0408761 0
    outer loop
      vertex 5.39679 -16.2349 0
      vertex 5.36497 -17.0127 1
      vertex 5.36497 -17.0127 0
    endloop
  endfacet
  facet normal 1 -0 0
    outer loop
      vertex 5.39679 -16.2349 1
      vertex 5.39679 -4.60025 0
      vertex 5.39679 -4.60025 1
    endloop
  endfacet
  facet normal 1 0 0
    outer loop
      vertex 5.39679 -4.60025 0
      vertex 5.39679 -16.2349 1
      vertex 5.39679 -16.2349 0
    endloop
  endfacet
  facet normal 0 1 -0
    outer loop
      vertex 5.39679 -4.60025 0
      vertex -2.26932 -4.60025 1
      vertex 5.39679 -4.60025 1
    endloop
  endfacet
  facet normal 0 1 0
    outer loop
      vertex -2.26932 -4.60025 1
      vertex 5.39679 -4.60025 0
      vertex -2.26932 -4.60025 0
    endloop
  endfacet
  facet normal -1 0 0
    outer loop
      vertex -2.26932 -7.57658 0
      vertex -2.26932 -4.60025 1
      vertex -2.26932 -4.60025 0
    endloop
  endfacet
  facet normal -1 -0 0
    outer loop
      vertex -2.26932 -4.60025 1
      vertex -2.26932 -7.57658 0
      vertex -2.26932 -7.57658 1
    endloop
  endfacet
  facet normal 0 -1 0
    outer loop
      vertex -2.26932 -7.57658 0
      vertex 1.60876 -7.57658 1
      vertex -2.26932 -7.57658 1
    endloop
  endfacet
  facet normal 0 -1 -0
    outer loop
      vertex 1.60876 -7.57658 1
      vertex -2.26932 -7.57658 0
      vertex 1.60876 -7.57658 0
    endloop
  endfacet
  facet normal -1 0 0
    outer loop
      vertex 1.60876 -16.3249 0
      vertex 1.60876 -7.57658 1
      vertex 1.60876 -7.57658 0
    endloop
  endfacet
  facet normal -1 -0 0
    outer loop
      vertex 1.60876 -7.57658 1
      vertex 1.60876 -16.3249 0
      vertex 1.60876 -16.3249 1
    endloop
  endfacet
  facet normal -0.999584 0.028844 0
    outer loop
      vertex 1.59746 -16.7165 0
      vertex 1.60876 -16.3249 1
      vertex 1.60876 -16.3249 0
    endloop
  endfacet
  facet normal -0.999584 0.028844 0
    outer loop
      vertex 1.60876 -16.3249 1
      vertex 1.59746 -16.7165 0
      vertex 1.59746 -16.7165 1
    endloop
  endfacet
  facet normal -0.995703 0.0926083 0
    outer loop
      vertex 1.56354 -17.0812 0
      vertex 1.59746 -16.7165 1
      vertex 1.59746 -16.7165 0
    endloop
  endfacet
  facet normal -0.995703 0.0926083 0
    outer loop
      vertex 1.59746 -16.7165 1
      vertex 1.56354 -17.0812 0
      vertex 1.56354 -17.0812 1
    endloop
  endfacet
  facet normal -0.986288 0.165033 0
    outer loop
      vertex 1.507 -17.4191 0
      vertex 1.56354 -17.0812 1
      vertex 1.56354 -17.0812 0
    endloop
  endfacet
  facet normal -0.986288 0.165033 0
    outer loop
      vertex 1.56354 -17.0812 1
      vertex 1.507 -17.4191 0
      vertex 1.507 -17.4191 1
    endloop
  endfacet
  facet normal -0.969134 0.246536 0
    outer loop
      vertex 1.42786 -17.7302 0
      vertex 1.507 -17.4191 1
      vertex 1.507 -17.4191 0
    endloop
  endfacet
  facet normal -0.969134 0.246536 0
    outer loop
      vertex 1.507 -17.4191 1
      vertex 1.42786 -17.7302 0
      vertex 1.42786 -17.7302 1
    endloop
  endfacet
  facet normal -0.941506 0.336995 0
    outer loop
      vertex 1.3261 -18.0145 0
      vertex 1.42786 -17.7302 1
      vertex 1.42786 -17.7302 0
    endloop
  endfacet
  facet normal -0.941506 0.336995 0
    outer loop
      vertex 1.42786 -17.7302 1
      vertex 1.3261 -18.0145 0
      vertex 1.3261 -18.0145 1
    endloop
  endfacet
  facet normal -0.90039 0.435084 0
    outer loop
      vertex 1.20172 -18.2719 0
      vertex 1.3261 -18.0145 1
      vertex 1.3261 -18.0145 0
    endloop
  endfacet
  facet normal -0.90039 0.435084 0
    outer loop
      vertex 1.3261 -18.0145 1
      vertex 1.20172 -18.2719 0
      vertex 1.20172 -18.2719 1
    endloop
  endfacet
  facet normal -0.84324 0.537538 0
    outer loop
      vertex 1.05472 -18.5025 0
      vertex 1.20172 -18.2719 1
      vertex 1.20172 -18.2719 0
    endloop
  endfacet
  facet normal -0.84324 0.537538 0
    outer loop
      vertex 1.20172 -18.2719 1
      vertex 1.05472 -18.5025 0
      vertex 1.05472 -18.5025 1
    endloop
  endfacet
  facet normal -0.771782 0.635888 0
    outer loop
      vertex 0.888535 -18.7042 0
      vertex 1.05472 -18.5025 1
      vertex 1.05472 -18.5025 0
    endloop
  endfacet
  facet normal -0.771782 0.635888 0
    outer loop
      vertex 1.05472 -18.5025 1
      vertex 0.888535 -18.7042 0
      vertex 0.888535 -18.7042 1
    endloop
  endfacet
  facet normal -0.684209 0.729286 0
    outer loop
      vertex 0.888535 -18.7042 0
      vertex 0.706589 -18.8749 1
      vertex 0.888535 -18.7042 1
    endloop
  endfacet
  facet normal -0.684209 0.729286 0
    outer loop
      vertex 0.706589 -18.8749 1
      vertex 0.888535 -18.7042 0
      vertex 0.706589 -18.8749 0
    endloop
  endfacet
  facet normal -0.576737 0.81693 0
    outer loop
      vertex 0.706589 -18.8749 0
      vertex 0.50885 -19.0145 1
      vertex 0.706589 -18.8749 1
    endloop
  endfacet
  facet normal -0.576737 0.81693 0
    outer loop
      vertex 0.50885 -19.0145 1
      vertex 0.706589 -18.8749 0
      vertex 0.50885 -19.0145 0
    endloop
  endfacet
  facet normal -0.45338 0.891317 0
    outer loop
      vertex 0.50885 -19.0145 0
      vertex 0.295349 -19.1231 1
      vertex 0.50885 -19.0145 1
    endloop
  endfacet
  facet normal -0.45338 0.891317 0
    outer loop
      vertex 0.295349 -19.1231 1
      vertex 0.50885 -19.0145 0
      vertex 0.295349 -19.1231 0
    endloop
  endfacet
  facet normal -0.320589 0.947218 0
    outer loop
      vertex 0.295349 -19.1231 0
      vertex 0.0660706 -19.2007 1
      vertex 0.295349 -19.1231 1
    endloop
  endfacet
  facet normal -0.320589 0.947218 0
    outer loop
      vertex 0.0660706 -19.2007 1
      vertex 0.295349 -19.1231 0
      vertex 0.0660706 -19.2007 0
    endloop
  endfacet
  facet normal -0.186437 0.982467 0
    outer loop
      vertex 0.0660706 -19.2007 0
      vertex -0.17897 -19.2472 1
      vertex 0.0660706 -19.2007 1
    endloop
  endfacet
  facet normal -0.186437 0.982467 0
    outer loop
      vertex -0.17897 -19.2472 1
      vertex 0.0660706 -19.2007 0
      vertex -0.17897 -19.2472 0
    endloop
  endfacet
  facet normal -0.0593201 0.998239 0
    outer loop
      vertex -0.17897 -19.2472 0
      vertex -0.439804 -19.2627 1
      vertex -0.17897 -19.2472 1
    endloop
  endfacet
  facet normal -0.0593201 0.998239 0
    outer loop
      vertex -0.439804 -19.2627 1
      vertex -0.17897 -19.2472 0
      vertex -0.439804 -19.2627 0
    endloop
  endfacet
  facet normal 0.0667601 0.997769 -0
    outer loop
      vertex -0.439804 -19.2627 0
      vertex -0.666977 -19.2475 1
      vertex -0.439804 -19.2627 1
    endloop
  endfacet
  facet normal 0.0667601 0.997769 0
    outer loop
      vertex -0.666977 -19.2475 1
      vertex -0.439804 -19.2627 0
      vertex -0.666977 -19.2475 0
    endloop
  endfacet
  facet normal 0.205864 0.978581 -0
    outer loop
      vertex -0.666977 -19.2475 0
      vertex -0.884689 -19.2017 1
      vertex -0.666977 -19.2475 1
    endloop
  endfacet
  facet normal 0.205864 0.978581 0
    outer loop
      vertex -0.884689 -19.2017 1
      vertex -0.666977 -19.2475 0
      vertex -0.884689 -19.2017 0
    endloop
  endfacet
  facet normal 0.343595 0.939118 -0
    outer loop
      vertex -0.884689 -19.2017 0
      vertex -1.09296 -19.1255 1
      vertex -0.884689 -19.2017 1
    endloop
  endfacet
  facet normal 0.343595 0.939118 0
    outer loop
      vertex -1.09296 -19.1255 1
      vertex -0.884689 -19.2017 0
      vertex -1.09296 -19.1255 0
    endloop
  endfacet
  facet normal 0.473272 0.880916 -0
    outer loop
      vertex -1.09296 -19.1255 0
      vertex -1.29175 -19.0187 1
      vertex -1.09296 -19.1255 1
    endloop
  endfacet
  facet normal 0.473272 0.880916 0
    outer loop
      vertex -1.29175 -19.0187 1
      vertex -1.09296 -19.1255 0
      vertex -1.29175 -19.0187 0
    endloop
  endfacet
  facet normal 0.586787 0.809741 -0
    outer loop
      vertex -1.29175 -19.0187 0
      vertex -1.48108 -18.8815 1
      vertex -1.29175 -19.0187 1
    endloop
  endfacet
  facet normal 0.586787 0.809741 0
    outer loop
      vertex -1.48108 -18.8815 1
      vertex -1.29175 -19.0187 0
      vertex -1.48108 -18.8815 0
    endloop
  endfacet
  facet normal 0.682147 0.731215 -0
    outer loop
      vertex -1.48108 -18.8815 0
      vertex -1.66095 -18.7137 1
      vertex -1.48108 -18.8815 1
    endloop
  endfacet
  facet normal 0.682147 0.731215 0
    outer loop
      vertex -1.66095 -18.7137 1
      vertex -1.48108 -18.8815 0
      vertex -1.66095 -18.7137 0
    endloop
  endfacet
  facet normal 0.758265 0.651947 0
    outer loop
      vertex -1.66095 -18.7137 1
      vertex -1.83136 -18.5155 0
      vertex -1.83136 -18.5155 1
    endloop
  endfacet
  facet normal 0.758265 0.651947 0
    outer loop
      vertex -1.83136 -18.5155 0
      vertex -1.66095 -18.7137 1
      vertex -1.66095 -18.7137 0
    endloop
  endfacet
  facet normal 0.821782 0.569802 0
    outer loop
      vertex -1.83136 -18.5155 1
      vertex -1.99042 -18.2861 0
      vertex -1.99042 -18.2861 1
    endloop
  endfacet
  facet normal 0.821782 0.569802 0
    outer loop
      vertex -1.99042 -18.2861 0
      vertex -1.83136 -18.5155 1
      vertex -1.83136 -18.5155 0
    endloop
  endfacet
  facet normal 0.872768 0.488135 0
    outer loop
      vertex -1.99042 -18.2861 1
      vertex -2.13634 -18.0252 0
      vertex -2.13634 -18.0252 1
    endloop
  endfacet
  facet normal 0.872768 0.488135 0
    outer loop
      vertex -2.13634 -18.0252 0
      vertex -1.99042 -18.2861 1
      vertex -1.99042 -18.2861 0
    endloop
  endfacet
  facet normal 0.910518 0.41347 0
    outer loop
      vertex -2.13634 -18.0252 1
      vertex -2.26912 -17.7328 0
      vertex -2.26912 -17.7328 1
    endloop
  endfacet
  facet normal 0.910518 0.41347 0
    outer loop
      vertex -2.26912 -17.7328 0
      vertex -2.13634 -18.0252 1
      vertex -2.13634 -18.0252 0
    endloop
  endfacet
  facet normal 0.938088 0.346398 0
    outer loop
      vertex -2.26912 -17.7328 1
      vertex -2.38876 -17.4088 0
      vertex -2.38876 -17.4088 1
    endloop
  endfacet
  facet normal 0.938088 0.346398 0
    outer loop
      vertex -2.38876 -17.4088 0
      vertex -2.26912 -17.7328 1
      vertex -2.26912 -17.7328 0
    endloop
  endfacet
  facet normal 0.95793 0.287002 0
    outer loop
      vertex -2.38876 -17.4088 1
      vertex -2.49527 -17.0533 0
      vertex -2.49527 -17.0533 1
    endloop
  endfacet
  facet normal 0.95793 0.287002 0
    outer loop
      vertex -2.49527 -17.0533 0
      vertex -2.38876 -17.4088 1
      vertex -2.38876 -17.4088 0
    endloop
  endfacet
  facet normal 0.972121 0.234479 0
    outer loop
      vertex -2.49527 -17.0533 1
      vertex -2.58864 -16.6662 0
      vertex -2.58864 -16.6662 1
    endloop
  endfacet
  facet normal 0.972121 0.234479 0
    outer loop
      vertex -2.58864 -16.6662 0
      vertex -2.49527 -17.0533 1
      vertex -2.49527 -17.0533 0
    endloop
  endfacet
  facet normal 0.982119 0.188259 0
    outer loop
      vertex -2.58864 -16.6662 1
      vertex -2.66888 -16.2476 0
      vertex -2.66888 -16.2476 1
    endloop
  endfacet
  facet normal 0.982119 0.188259 0
    outer loop
      vertex -2.66888 -16.2476 0
      vertex -2.58864 -16.6662 1
      vertex -2.58864 -16.6662 0
    endloop
  endfacet
  facet normal -0.146201 0.989255 0
    outer loop
      vertex -2.66888 -16.2476 0
      vertex -6.41815 -16.8017 1
      vertex -2.66888 -16.2476 1
    endloop
  endfacet
  facet normal -0.146201 0.989255 0
    outer loop
      vertex -6.41815 -16.8017 1
      vertex -2.66888 -16.2476 0
      vertex -6.41815 -16.8017 0
    endloop
  endfacet
  facet normal -0.983496 -0.180931 0
    outer loop
      vertex -6.28459 -17.5277 0
      vertex -6.41815 -16.8017 1
      vertex -6.41815 -16.8017 0
    endloop
  endfacet
  facet normal -0.983496 -0.180931 0
    outer loop
      vertex -6.41815 -16.8017 1
      vertex -6.28459 -17.5277 0
      vertex -6.28459 -17.5277 1
    endloop
  endfacet
  facet normal -0.966387 -0.257093 0
    outer loop
      vertex -6.10475 -18.2037 0
      vertex -6.28459 -17.5277 1
      vertex -6.28459 -17.5277 0
    endloop
  endfacet
  facet normal -0.966387 -0.257093 0
    outer loop
      vertex -6.28459 -17.5277 1
      vertex -6.10475 -18.2037 0
      vertex -6.10475 -18.2037 1
    endloop
  endfacet
  facet normal -0.94054 -0.339682 0
    outer loop
      vertex -5.87863 -18.8298 0
      vertex -6.10475 -18.2037 1
      vertex -6.10475 -18.2037 0
    endloop
  endfacet
  facet normal -0.94054 -0.339682 0
    outer loop
      vertex -6.10475 -18.2037 1
      vertex -5.87863 -18.8298 0
      vertex -5.87863 -18.8298 1
    endloop
  endfacet
  facet normal -0.904029 -0.427472 0
    outer loop
      vertex -5.60622 -19.4059 0
      vertex -5.87863 -18.8298 1
      vertex -5.87863 -18.8298 0
    endloop
  endfacet
  facet normal -0.904029 -0.427472 0
    outer loop
      vertex -5.87863 -18.8298 1
      vertex -5.60622 -19.4059 0
      vertex -5.60622 -19.4059 1
    endloop
  endfacet
  facet normal -0.855363 -0.518029 0
    outer loop
      vertex -5.28754 -19.9321 0
      vertex -5.60622 -19.4059 1
      vertex -5.60622 -19.4059 0
    endloop
  endfacet
  facet normal -0.855363 -0.518029 0
    outer loop
      vertex -5.60622 -19.4059 1
      vertex -5.28754 -19.9321 0
      vertex -5.28754 -19.9321 1
    endloop
  endfacet
  facet normal -0.793692 -0.60832 0
    outer loop
      vertex -4.92256 -20.4083 0
      vertex -5.28754 -19.9321 1
      vertex -5.28754 -19.9321 0
    endloop
  endfacet
  facet normal -0.793692 -0.60832 0
    outer loop
      vertex -5.28754 -19.9321 1
      vertex -4.92256 -20.4083 0
      vertex -4.92256 -20.4083 1
    endloop
  endfacet
  facet normal -0.719697 -0.694289 0
    outer loop
      vertex -4.51131 -20.8346 0
      vertex -4.92256 -20.4083 1
      vertex -4.92256 -20.4083 0
    endloop
  endfacet
  facet normal -0.719697 -0.694289 0
    outer loop
      vertex -4.92256 -20.4083 1
      vertex -4.51131 -20.8346 0
      vertex -4.51131 -20.8346 1
    endloop
  endfacet
  facet normal -0.633654 -0.773616 0
    outer loop
      vertex -4.51131 -20.8346 0
      vertex -4.05641 -21.2072 1
      vertex -4.51131 -20.8346 1
    endloop
  endfacet
  facet normal -0.633654 -0.773616 -0
    outer loop
      vertex -4.05641 -21.2072 1
      vertex -4.51131 -20.8346 0
      vertex -4.05641 -21.2072 0
    endloop
  endfacet
  facet normal -0.536409 -0.843958 0
    outer loop
      vertex -4.05641 -21.2072 0
      vertex -3.56049 -21.5224 1
      vertex -4.05641 -21.2072 1
    endloop
  endfacet
  facet normal -0.536409 -0.843958 -0
    outer loop
      vertex -3.56049 -21.5224 1
      vertex -4.05641 -21.2072 0
      vertex -3.56049 -21.5224 0
    endloop
  endfacet
  facet normal -0.432955 -0.901416 0
    outer loop
      vertex -3.56049 -21.5224 0
      vertex -3.02354 -21.7803 1
      vertex -3.56049 -21.5224 1
    endloop
  endfacet
  facet normal -0.432955 -0.901416 -0
    outer loop
      vertex -3.02354 -21.7803 1
      vertex -3.56049 -21.5224 0
      vertex -3.02354 -21.7803 0
    endloop
  endfacet
  facet normal -0.32805 -0.94466 0
    outer loop
      vertex -3.02354 -21.7803 0
      vertex -2.4456 -21.981 1
      vertex -3.02354 -21.7803 1
    endloop
  endfacet
  facet normal -0.32805 -0.94466 -0
    outer loop
      vertex -2.4456 -21.981 1
      vertex -3.02354 -21.7803 0
      vertex -2.4456 -21.981 0
    endloop
  endfacet
  facet normal -0.225548 -0.974232 0
    outer loop
      vertex -2.4456 -21.981 0
      vertex -1.82663 -22.1243 1
      vertex -2.4456 -21.981 1
    endloop
  endfacet
  facet normal -0.225548 -0.974232 -0
    outer loop
      vertex -1.82663 -22.1243 1
      vertex -2.4456 -21.981 0
      vertex -1.82663 -22.1243 0
    endloop
  endfacet
  facet normal -0.129065 -0.991636 0
    outer loop
      vertex -1.82663 -22.1243 0
      vertex -1.16664 -22.2102 1
      vertex -1.82663 -22.1243 1
    endloop
  endfacet
  facet normal -0.129065 -0.991636 -0
    outer loop
      vertex -1.16664 -22.2102 1
      vertex -1.82663 -22.1243 0
      vertex -1.16664 -22.2102 0
    endloop
  endfacet
  facet normal -0.0409071 -0.999163 0
    outer loop
      vertex -1.16664 -22.2102 0
      vertex -0.465637 -22.2389 1
      vertex -1.16664 -22.2102 1
    endloop
  endfacet
  facet normal -0.0409071 -0.999163 -0
    outer loop
      vertex -0.465637 -22.2389 1
      vertex -1.16664 -22.2102 0
      vertex -0.465637 -22.2389 0
    endloop
  endfacet
  facet normal 0.0428617 -0.999081 0
    outer loop
      vertex -0.465637 -22.2389 0
      vertex 0.29425 -22.2063 1
      vertex -0.465637 -22.2389 1
    endloop
  endfacet
  facet normal 0.0428617 -0.999081 0
    outer loop
      vertex 0.29425 -22.2063 1
      vertex -0.465637 -22.2389 0
      vertex 0.29425 -22.2063 0
    endloop
  endfacet
endsolid OpenSCAD_Model
