  0
SECTION
  2
BLOCKS
  0
ENDSEC
  0
SECTION
  2
ENTITIES
  0
LINE
  8
0
 10
0.29425
 20
-22.2063
 11
1.00578
 21
-22.1085
  0
LINE
  8
0
 10
1.00578
 20
-22.1085
 11
1.66893
 21
-21.9455
  0
LINE
  8
0
 10
1.66893
 20
-21.9455
 11
2.28368
 21
-21.7172
  0
LINE
  8
0
 10
2.28368
 20
-21.7172
 11
2.85005
 21
-21.4238
  0
LINE
  8
0
 10
2.85005
 20
-21.4238
 11
3.36804
 21
-21.0652
  0
LINE
  8
0
 10
3.36804
 20
-21.0652
 11
3.83766
 21
-20.6414
  0
LINE
  8
0
 10
3.83766
 20
-20.6414
 11
4.2513
 21
-20.1602
  0
LINE
  8
0
 10
4.2513
 20
-20.1602
 11
4.60132
 21
-19.6295
  0
LINE
  8
0
 10
4.60132
 20
-19.6295
 11
4.8877
 21
-19.0495
  0
LINE
  8
0
 10
4.8877
 20
-19.0495
 11
5.11043
 21
-18.42
  0
LINE
  8
0
 10
5.11043
 20
-18.42
 11
5.26952
 21
-17.741
  0
LINE
  8
0
 10
5.26952
 20
-17.741
 11
5.36497
 21
-17.0127
  0
LINE
  8
0
 10
5.36497
 20
-17.0127
 11
5.39679
 21
-16.2349
  0
LINE
  8
0
 10
5.39679
 20
-16.2349
 11
5.39679
 21
-4.60025
  0
LINE
  8
0
 10
5.39679
 20
-4.60025
 11
-2.26932
 21
-4.60025
  0
LINE
  8
0
 10
-2.26932
 20
-4.60025
 11
-2.26932
 21
-7.57658
  0
LINE
  8
0
 10
-2.26932
 20
-7.57658
 11
1.60876
 21
-7.57658
  0
LINE
  8
0
 10
1.60876
 20
-7.57658
 11
1.60876
 21
-16.3249
  0
LINE
  8
0
 10
1.60876
 20
-16.3249
 11
1.59746
 21
-16.7165
  0
LINE
  8
0
 10
1.59746
 20
-16.7165
 11
1.56354
 21
-17.0812
  0
LINE
  8
0
 10
1.56354
 20
-17.0812
 11
1.507
 21
-17.4191
  0
LINE
  8
0
 10
1.507
 20
-17.4191
 11
1.42786
 21
-17.7302
  0
LINE
  8
0
 10
1.42786
 20
-17.7302
 11
1.3261
 21
-18.0145
  0
LINE
  8
0
 10
1.3261
 20
-18.0145
 11
1.20172
 21
-18.2719
  0
LINE
  8
0
 10
1.20172
 20
-18.2719
 11
1.05472
 21
-18.5025
  0
LINE
  8
0
 10
1.05472
 20
-18.5025
 11
0.888535
 21
-18.7042
  0
LINE
  8
0
 10
0.888535
 20
-18.7042
 11
0.706589
 21
-18.8749
  0
LINE
  8
0
 10
0.706589
 20
-18.8749
 11
0.50885
 21
-19.0145
  0
LINE
  8
0
 10
0.50885
 20
-19.0145
 11
0.295349
 21
-19.1231
  0
LINE
  8
0
 10
0.295349
 20
-19.1231
 11
0.0660706
 21
-19.2007
  0
LINE
  8
0
 10
0.0660706
 20
-19.2007
 11
-0.17897
 21
-19.2472
  0
LINE
  8
0
 10
-0.17897
 20
-19.2472
 11
-0.439804
 21
-19.2627
  0
LINE
  8
0
 10
-0.439804
 20
-19.2627
 11
-0.666977
 21
-19.2475
  0
LINE
  8
0
 10
-0.666977
 20
-19.2475
 11
-0.884689
 21
-19.2017
  0
LINE
  8
0
 10
-0.884689
 20
-19.2017
 11
-1.09296
 21
-19.1255
  0
LINE
  8
0
 10
-1.09296
 20
-19.1255
 11
-1.29175
 21
-19.0187
  0
LINE
  8
0
 10
-1.29175
 20
-19.0187
 11
-1.48108
 21
-18.8815
  0
LINE
  8
0
 10
-1.48108
 20
-18.8815
 11
-1.66095
 21
-18.7137
  0
LINE
  8
0
 10
-1.66095
 20
-18.7137
 11
-1.83136
 21
-18.5155
  0
LINE
  8
0
 10
-1.83136
 20
-18.5155
 11
-1.99042
 21
-18.2861
  0
LINE
  8
0
 10
-1.99042
 20
-18.2861
 11
-2.13634
 21
-18.0252
  0
LINE
  8
0
 10
-2.13634
 20
-18.0252
 11
-2.26912
 21
-17.7328
  0
LINE
  8
0
 10
-2.26912
 20
-17.7328
 11
-2.38876
 21
-17.4088
  0
LINE
  8
0
 10
-2.38876
 20
-17.4088
 11
-2.49527
 21
-17.0533
  0
LINE
  8
0
 10
-2.49527
 20
-17.0533
 11
-2.58864
 21
-16.6662
  0
LINE
  8
0
 10
-2.58864
 20
-16.6662
 11
-2.66888
 21
-16.2476
  0
LINE
  8
0
 10
-2.66888
 20
-16.2476
 11
-6.41815
 21
-16.8017
  0
LINE
  8
0
 10
-6.41815
 20
-16.8017
 11
-6.28459
 21
-17.5277
  0
LINE
  8
0
 10
-6.28459
 20
-17.5277
 11
-6.10475
 21
-18.2037
  0
LINE
  8
0
 10
-6.10475
 20
-18.2037
 11
-5.87863
 21
-18.8298
  0
LINE
  8
0
 10
-5.87863
 20
-18.8298
 11
-5.60622
 21
-19.4059
  0
LINE
  8
0
 10
-5.60622
 20
-19.4059
 11
-5.28754
 21
-19.9321
  0
LINE
  8
0
 10
-5.28754
 20
-19.9321
 11
-4.92256
 21
-20.4083
  0
LINE
  8
0
 10
-4.92256
 20
-20.4083
 11
-4.51131
 21
-20.8346
  0
LINE
  8
0
 10
-4.51131
 20
-20.8346
 11
-4.05641
 21
-21.2072
  0
LINE
  8
0
 10
-4.05641
 20
-21.2072
 11
-3.56049
 21
-21.5224
  0
LINE
  8
0
 10
-3.56049
 20
-21.5224
 11
-3.02354
 21
-21.7803
  0
LINE
  8
0
 10
-3.02354
 20
-21.7803
 11
-2.4456
 21
-21.981
  0
LINE
  8
0
 10
-2.4456
 20
-21.981
 11
-1.82663
 21
-22.1243
  0
LINE
  8
0
 10
-1.82663
 20
-22.1243
 11
-1.16664
 21
-22.2102
  0
LINE
  8
0
 10
-1.16664
 20
-22.2102
 11
-0.465637
 21
-22.2389
  0
LINE
  8
0
 10
-0.465637
 20
-22.2389
 11
0.29425
 21
-22.2063
  0
ENDSEC
  0
SECTION
  2
OBJECTS
  0
DICTIONARY
  0
ENDSEC
  0
EOF
