  0
SECTION
  2
BLOCKS
  0
ENDSEC
  0
SECTION
  2
ENTITIES
  0
LINE
  8
0
 10
3.02292
 20
-57.36
 11
5.44318
 21
-56.9388
  0
LINE
  8
0
 10
5.44318
 20
-56.9388
 11
7.6804
 21
-56.2368
  0
LINE
  8
0
 10
7.6804
 20
-56.2368
 11
9.7346
 21
-55.2539
  0
LINE
  8
0
 10
9.7346
 20
-55.2539
 11
11.6058
 21
-53.9903
  0
LINE
  8
0
 10
11.6058
 20
-53.9903
 11
13.2939
 21
-52.4458
  0
LINE
  8
0
 10
13.2939
 20
-52.4458
 11
14.799
 21
-50.6205
  0
LINE
  8
0
 10
14.799
 20
-50.6205
 11
16.1117
 21
-48.5277
  0
LINE
  8
0
 10
16.1117
 20
-48.5277
 11
17.2224
 21
-46.1808
  0
LINE
  8
0
 10
17.2224
 20
-46.1808
 11
18.1311
 21
-43.58
  0
LINE
  8
0
 10
18.1311
 20
-43.58
 11
18.8379
 21
-40.7252
  0
LINE
  8
0
 10
18.8379
 20
-40.7252
 11
19.3427
 21
-37.6164
  0
LINE
  8
0
 10
19.3427
 20
-37.6164
 11
19.6457
 21
-34.2536
  0
LINE
  8
0
 10
19.6457
 20
-34.2536
 11
19.7466
 21
-30.6369
  0
LINE
  8
0
 10
19.7466
 20
-30.6369
 11
19.6512
 21
-26.9412
  0
LINE
  8
0
 10
19.6512
 20
-26.9412
 11
19.3648
 21
-23.5184
  0
LINE
  8
0
 10
19.3648
 20
-23.5184
 11
18.8875
 21
-20.3686
  0
LINE
  8
0
 10
18.8875
 20
-20.3686
 11
18.2193
 21
-17.4917
  0
LINE
  8
0
 10
18.2193
 20
-17.4917
 11
17.3602
 21
-14.8878
  0
LINE
  8
0
 10
17.3602
 20
-14.8878
 11
16.3102
 21
-12.5568
  0
LINE
  8
0
 10
16.3102
 20
-12.5568
 11
15.0692
 21
-10.4988
  0
LINE
  8
0
 10
15.0692
 20
-10.4988
 11
13.6312
 21
-8.71434
  0
LINE
  8
0
 10
13.6312
 20
-8.71434
 11
11.9897
 21
-7.20442
  0
LINE
  8
0
 10
11.9897
 20
-7.20442
 11
10.1446
 21
-5.96902
  0
LINE
  8
0
 10
10.1446
 20
-5.96902
 11
8.09604
 21
-5.00816
  0
LINE
  8
0
 10
8.09604
 20
-5.00816
 11
5.84393
 21
-4.32185
  0
LINE
  8
0
 10
5.84393
 20
-4.32185
 11
3.38831
 21
-3.91006
  0
LINE
  8
0
 10
3.38831
 20
-3.91006
 11
0.729156
 21
-3.7728
  0
LINE
  8
0
 10
0.729156
 20
-3.7728
 11
-2.02264
 21
-3.90808
  0
LINE
  8
0
 10
-2.02264
 20
-3.90808
 11
-4.55756
 21
-4.31395
  0
LINE
  8
0
 10
-4.55756
 20
-4.31395
 11
-6.87555
 21
-4.99039
  0
LINE
  8
0
 10
-6.87555
 20
-4.99039
 11
-8.97665
 21
-5.93739
  0
LINE
  8
0
 10
-8.97665
 20
-5.93739
 11
-10.8609
 21
-7.15498
  0
LINE
  8
0
 10
-10.8609
 20
-7.15498
 11
-12.5282
 21
-8.64314
  0
LINE
  8
0
 10
-12.5282
 20
-8.64314
 11
-13.9785
 21
-10.4019
  0
LINE
  8
0
 10
-13.9785
 20
-10.4019
 11
-15.2245
 21
-12.4383
  0
LINE
  8
0
 10
-15.2245
 20
-12.4383
 11
-16.2787
 21
-14.7595
  0
LINE
  8
0
 10
-16.2787
 20
-14.7595
 11
-17.1413
 21
-17.3654
  0
LINE
  8
0
 10
-17.1413
 20
-17.3654
 11
-17.8122
 21
-20.2561
  0
LINE
  8
0
 10
-17.8122
 20
-20.2561
 11
-18.2914
 21
-23.4316
  0
LINE
  8
0
 10
-18.2914
 20
-23.4316
 11
-18.5789
 21
-26.8919
  0
LINE
  8
0
 10
-18.5789
 20
-26.8919
 11
-18.6748
 21
-30.6369
  0
LINE
  8
0
 10
-18.6748
 20
-30.6369
 11
-18.5766
 21
-34.2635
  0
LINE
  8
0
 10
-18.5766
 20
-34.2635
 11
-18.282
 21
-37.6338
  0
LINE
  8
0
 10
-18.282
 20
-37.6338
 11
-17.791
 21
-40.7478
  0
LINE
  8
0
 10
-17.791
 20
-40.7478
 11
-17.1035
 21
-43.6053
  0
LINE
  8
0
 10
-17.1035
 20
-43.6053
 11
-16.2197
 21
-46.2065
  0
LINE
  8
0
 10
-16.2197
 20
-46.2065
 11
-15.1395
 21
-48.5514
  0
LINE
  8
0
 10
-15.1395
 20
-48.5514
 11
-13.8628
 21
-50.6399
  0
LINE
  8
0
 10
-13.8628
 20
-50.6399
 11
-12.3928
 21
-52.46
  0
LINE
  8
0
 10
-12.3928
 20
-52.46
 11
-10.7326
 21
-54.0002
  0
LINE
  8
0
 10
-10.7326
 20
-54.0002
 11
-8.88237
 21
-55.2602
  0
LINE
  8
0
 10
-8.88237
 20
-55.2602
 11
-6.84201
 21
-56.2403
  0
LINE
  8
0
 10
-6.84201
 20
-56.2403
 11
-4.61156
 21
-56.9404
  0
LINE
  8
0
 10
-4.61156
 20
-56.9404
 11
-2.19101
 21
-57.3604
  0
LINE
  8
0
 10
-2.19101
 20
-57.3604
 11
0.419632
 21
-57.5004
  0
LINE
  8
0
 10
0.419632
 20
-57.5004
 11
3.02292
 21
-57.36
  0
LINE
  8
0
 10
-0.379288
 20
-48.9213
 11
-1.19737
 21
-48.8101
  0
LINE
  8
0
 10
-1.19737
 20
-48.8101
 11
-1.95709
 21
-48.6247
  0
LINE
  8
0
 10
-1.95709
 20
-48.6247
 11
-2.65843
 21
-48.3652
  0
LINE
  8
0
 10
-2.65843
 20
-48.3652
 11
-3.30141
 21
-48.0316
  0
LINE
  8
0
 10
-3.30141
 20
-48.0316
 11
-3.886
 21
-47.6237
  0
LINE
  8
0
 10
-3.886
 20
-47.6237
 11
-4.41223
 21
-47.1418
  0
LINE
  8
0
 10
-4.41223
 20
-47.1418
 11
-4.89058
 21
-46.5785
  0
LINE
  8
0
 10
-4.89058
 20
-46.5785
 11
-5.33186
 21
-45.9268
  0
LINE
  8
0
 10
-5.33186
 20
-45.9268
 11
-5.73608
 21
-45.1868
  0
LINE
  8
0
 10
-5.73608
 20
-45.1868
 11
-6.10326
 21
-44.3585
  0
LINE
  8
0
 10
-6.10326
 20
-44.3585
 11
-6.43335
 21
-43.4419
  0
LINE
  8
0
 10
-6.43335
 20
-43.4419
 11
-6.72639
 21
-42.437
  0
LINE
  8
0
 10
-6.72639
 20
-42.437
 11
-6.98236
 21
-41.3438
  0
LINE
  8
0
 10
-6.98236
 20
-41.3438
 11
-7.20285
 21
-40.1502
  0
LINE
  8
0
 10
-7.20285
 20
-40.1502
 11
-7.38942
 21
-38.8447
  0
LINE
  8
0
 10
-7.38942
 20
-38.8447
 11
-7.54205
 21
-37.4271
  0
LINE
  8
0
 10
-7.54205
 20
-37.4271
 11
-7.66078
 21
-35.8975
  0
LINE
  8
0
 10
-7.66078
 20
-35.8975
 11
-7.74559
 21
-34.256
  0
LINE
  8
0
 10
-7.74559
 20
-34.256
 11
-7.79646
 21
-32.5024
  0
LINE
  8
0
 10
-7.79646
 20
-32.5024
 11
-7.81343
 21
-30.6369
  0
LINE
  8
0
 10
-7.81343
 20
-30.6369
 11
-7.79726
 21
-28.7512
  0
LINE
  8
0
 10
-7.79726
 20
-28.7512
 11
-7.74875
 21
-26.9814
  0
LINE
  8
0
 10
-7.74875
 20
-26.9814
 11
-7.66791
 21
-25.3276
  0
LINE
  8
0
 10
-7.66791
 20
-25.3276
 11
-7.55472
 21
-23.7897
  0
LINE
  8
0
 10
-7.55472
 20
-23.7897
 11
-7.40919
 21
-22.3678
  0
LINE
  8
0
 10
-7.40919
 20
-22.3678
 11
-7.23132
 21
-21.0619
  0
LINE
  8
0
 10
-7.23132
 20
-21.0619
 11
-7.02112
 21
-19.8719
  0
LINE
  8
0
 10
-7.02112
 20
-19.8719
 11
-6.77449
 21
-18.7836
  0
LINE
  8
0
 10
-6.77449
 20
-18.7836
 11
-6.48766
 21
-17.783
  0
LINE
  8
0
 10
-6.48766
 20
-17.783
 11
-6.16061
 21
-16.8699
  0
LINE
  8
0
 10
-6.16061
 20
-16.8699
 11
-5.79337
 21
-16.0443
  0
LINE
  8
0
 10
-5.79337
 20
-16.0443
 11
-5.38593
 21
-15.3064
  0
LINE
  8
0
 10
-5.38593
 20
-15.3064
 11
-4.93828
 21
-14.656
  0
LINE
  8
0
 10
-4.93828
 20
-14.656
 11
-4.45042
 21
-14.0932
  0
LINE
  8
0
 10
-4.45042
 20
-14.0932
 11
-3.91092
 21
-13.6113
  0
LINE
  8
0
 10
-3.91092
 20
-13.6113
 11
-3.30829
 21
-13.2034
  0
LINE
  8
0
 10
-3.30829
 20
-13.2034
 11
-2.64253
 21
-12.8698
  0
LINE
  8
0
 10
-2.64253
 20
-12.8698
 11
-1.91367
 21
-12.6103
  0
LINE
  8
0
 10
-1.91367
 20
-12.6103
 11
-1.12169
 21
-12.4249
  0
LINE
  8
0
 10
-1.12169
 20
-12.4249
 11
-0.266586
 21
-12.3137
  0
LINE
  8
0
 10
-0.266586
 20
-12.3137
 11
0.651627
 21
-12.2766
  0
LINE
  8
0
 10
0.651627
 20
-12.2766
 11
1.52728
 21
-12.3137
  0
LINE
  8
0
 10
1.52728
 20
-12.3137
 11
2.34297
 21
-12.4249
  0
LINE
  8
0
 10
2.34297
 20
-12.4249
 11
3.09868
 21
-12.6103
  0
LINE
  8
0
 10
3.09868
 20
-12.6103
 11
3.7944
 21
-12.8698
  0
LINE
  8
0
 10
3.7944
 20
-12.8698
 11
4.43015
 21
-13.2034
  0
LINE
  8
0
 10
4.43015
 20
-13.2034
 11
5.00592
 21
-13.6113
  0
LINE
  8
0
 10
5.00592
 20
-13.6113
 11
5.52171
 21
-14.0932
  0
LINE
  8
0
 10
5.52171
 20
-14.0932
 11
5.98953
 21
-14.656
  0
LINE
  8
0
 10
5.98953
 20
-14.656
 11
6.42105
 21
-15.3064
  0
LINE
  8
0
 10
6.42105
 20
-15.3064
 11
6.81628
 21
-16.0443
  0
LINE
  8
0
 10
6.81628
 20
-16.0443
 11
7.17522
 21
-16.8699
  0
LINE
  8
0
 10
7.17522
 20
-16.8699
 11
7.49786
 21
-17.783
  0
LINE
  8
0
 10
7.49786
 20
-17.783
 11
7.78421
 21
-18.7836
  0
LINE
  8
0
 10
7.78421
 20
-18.7836
 11
8.03427
 21
-19.8719
  0
LINE
  8
0
 10
8.03427
 20
-19.8719
 11
8.24977
 21
-21.0619
  0
LINE
  8
0
 10
8.24977
 20
-21.0619
 11
8.43211
 21
-22.3678
  0
LINE
  8
0
 10
8.43211
 20
-22.3678
 11
8.5813
 21
-23.7897
  0
LINE
  8
0
 10
8.5813
 20
-23.7897
 11
8.69733
 21
-25.3276
  0
LINE
  8
0
 10
8.69733
 20
-25.3276
 11
8.78021
 21
-26.9814
  0
LINE
  8
0
 10
8.78021
 20
-26.9814
 11
8.82994
 21
-28.7512
  0
LINE
  8
0
 10
8.82994
 20
-28.7512
 11
8.84651
 21
-30.6369
  0
LINE
  8
0
 10
8.84651
 20
-30.6369
 11
8.80707
 21
-33.3481
  0
LINE
  8
0
 10
8.80707
 20
-33.3481
 11
8.68874
 21
-35.8275
  0
LINE
  8
0
 10
8.68874
 20
-35.8275
 11
8.4915
 21
-38.0749
  0
LINE
  8
0
 10
8.4915
 20
-38.0749
 11
8.21538
 21
-40.0904
  0
LINE
  8
0
 10
8.21538
 20
-40.0904
 11
7.86037
 21
-41.874
  0
LINE
  8
0
 10
7.86037
 20
-41.874
 11
7.42645
 21
-43.4257
  0
LINE
  8
0
 10
7.42645
 20
-43.4257
 11
6.91365
 21
-44.7455
  0
LINE
  8
0
 10
6.91365
 20
-44.7455
 11
6.30934
 21
-45.8632
  0
LINE
  8
0
 10
6.30934
 20
-45.8632
 11
5.60092
 21
-46.809
  0
LINE
  8
0
 10
5.60092
 20
-46.809
 11
4.78839
 21
-47.5828
  0
LINE
  8
0
 10
4.78839
 20
-47.5828
 11
3.87175
 21
-48.1846
  0
LINE
  8
0
 10
3.87175
 20
-48.1846
 11
2.851
 21
-48.6145
  0
LINE
  8
0
 10
2.851
 20
-48.6145
 11
1.72614
 21
-48.8724
  0
LINE
  8
0
 10
1.72614
 20
-48.8724
 11
0.497162
 21
-48.9584
  0
LINE
  8
0
 10
0.497162
 20
-48.9584
 11
-0.379288
 21
-48.9213
  0
LINE
  8
0
 10
4.67184
 20
-25.6505
 11
-3.63875
 21
-25.6505
  0
LINE
  8
0
 10
-3.63875
 20
-25.6505
 11
-3.63875
 21
-35.275
  0
LINE
  8
0
 10
-3.63875
 20
-35.275
 11
4.67184
 21
-35.275
  0
LINE
  8
0
 10
4.67184
 20
-35.275
 11
4.67184
 21
-25.6505
  0
ENDSEC
  0
SECTION
  2
OBJECTS
  0
DICTIONARY
  0
ENDSEC
  0
EOF
