<?xml version="1.0" standalone="no"?>
<!DOCTYPE svg PUBLIC "-//W3C//DTD SVG 1.1//EN" "http://www.w3.org/Graphics/SVG/1.1/DTD/svg11.dtd">
<svg width="39mm" height="55mm" viewBox="-19 3 39 55" xmlns="http://www.w3.org/2000/svg" version="1.1">
<title>OpenSCAD Model</title>
<path d="
M 3.02292,57.36 L 5.44318,56.9388 L 7.6804,56.2368 L 9.7346,55.2539 L 11.6058,53.9903 L 13.2939,52.4458
 L 14.799,50.6205 L 16.1117,48.5277 L 17.2224,46.1808 L 18.1311,43.58 L 18.8379,40.7252 L 19.3427,37.6164
 L 19.6457,34.2536 L 19.7466,30.6369 L 19.6512,26.9412 L 19.3648,23.5184 L 18.8875,20.3686 L 18.2193,17.4917
 L 17.3602,14.8878 L 16.3102,12.5568 L 15.0692,10.4988 L 13.6312,8.71434 L 11.9897,7.20442 L 10.1446,5.96902
 L 8.09604,5.00816 L 5.84393,4.32185 L 3.38831,3.91006 L 0.729156,3.7728 L -2.02264,3.90808 L -4.55756,4.31395
 L -6.87555,4.99039 L -8.97665,5.93739 L -10.8609,7.15498 L -12.5282,8.64314 L -13.9785,10.4019 L -15.2245,12.4383
 L -16.2787,14.7595 L -17.1413,17.3654 L -17.8122,20.2561 L -18.2914,23.4316 L -18.5789,26.8919 L -18.6748,30.6369
 L -18.5766,34.2635 L -18.282,37.6338 L -17.791,40.7478 L -17.1035,43.6053 L -16.2197,46.2065 L -15.1395,48.5514
 L -13.8628,50.6399 L -12.3928,52.46 L -10.7326,54.0002 L -8.88237,55.2602 L -6.84201,56.2403 L -4.61156,56.9404
 L -2.19101,57.3604 L 0.419632,57.5004 z
M -0.379288,48.9213 L -1.19737,48.8101 L -1.95709,48.6247 L -2.65843,48.3652 L -3.30141,48.0316 L -3.886,47.6237
 L -4.41223,47.1418 L -4.89058,46.5785 L -5.33186,45.9268 L -5.73608,45.1868 L -6.10326,44.3585 L -6.43335,43.4419
 L -6.72639,42.437 L -6.98236,41.3438 L -7.20285,40.1502 L -7.38942,38.8447 L -7.54205,37.4271 L -7.66078,35.8975
 L -7.74559,34.256 L -7.79646,32.5024 L -7.81343,30.6369 L -7.79726,28.7512 L -7.74875,26.9814 L -7.66791,25.3276
 L -7.55472,23.7897 L -7.40919,22.3678 L -7.23132,21.0619 L -7.02112,19.8719 L -6.77449,18.7836 L -6.48766,17.783
 L -6.16061,16.8699 L -5.79337,16.0443 L -5.38593,15.3064 L -4.93828,14.656 L -4.45042,14.0932 L -3.91092,13.6113
 L -3.30829,13.2034 L -2.64253,12.8698 L -1.91367,12.6103 L -1.12169,12.4249 L -0.266586,12.3137 L 0.651627,12.2766
 L 1.52728,12.3137 L 2.34297,12.4249 L 3.09868,12.6103 L 3.7944,12.8698 L 4.43015,13.2034 L 5.00592,13.6113
 L 5.52171,14.0932 L 5.98953,14.656 L 6.42105,15.3064 L 6.81628,16.0443 L 7.17522,16.8699 L 7.49786,17.783
 L 7.78421,18.7836 L 8.03427,19.8719 L 8.24977,21.0619 L 8.43211,22.3678 L 8.5813,23.7897 L 8.69733,25.3276
 L 8.78021,26.9814 L 8.82994,28.7512 L 8.84651,30.6369 L 8.80707,33.3481 L 8.68874,35.8275 L 8.4915,38.0749
 L 8.21538,40.0904 L 7.86037,41.874 L 7.42645,43.4257 L 6.91365,44.7455 L 6.30934,45.8632 L 5.60092,46.809
 L 4.78839,47.5828 L 3.87175,48.1846 L 2.851,48.6145 L 1.72614,48.8724 L 0.497162,48.9584 z
M 4.67184,25.6505 L -3.63875,25.6505 L -3.63875,35.275 L 4.67184,35.275 z
" stroke="black" fill="lightgray" stroke-width="0.5"/>
</svg>
