solid OpenSCAD_Model
  facet normal 0 0 -1
    outer loop
      vertex -3.63875 -35.275 0
      vertex 4.67184 -25.6505 0
      vertex 4.67184 -35.275 0
    endloop
  endfacet
  facet normal -0 0 -1
    outer loop
      vertex 4.67184 -25.6505 0
      vertex -3.63875 -35.275 0
      vertex -3.63875 -25.6505 0
    endloop
  endfacet
  facet normal -0 0 -1
    outer loop
      vertex 19.7466 -30.6369 0
      vertex 8.80707 -33.3481 0
      vertex 8.84651 -30.6369 0
    endloop
  endfacet
  facet normal 0 0 -1
    outer loop
      vertex 11.6058 -53.9903 0
      vertex 8.68874 -35.8275 0
      vertex 8.80707 -33.3481 0
    endloop
  endfacet
  facet normal 0 0 -1
    outer loop
      vertex 11.6058 -53.9903 0
      vertex 8.4915 -38.0749 0
      vertex 8.68874 -35.8275 0
    endloop
  endfacet
  facet normal 0 0 -1
    outer loop
      vertex 11.6058 -53.9903 0
      vertex 8.21538 -40.0904 0
      vertex 8.4915 -38.0749 0
    endloop
  endfacet
  facet normal 0 0 -1
    outer loop
      vertex 11.6058 -53.9903 0
      vertex 7.86037 -41.874 0
      vertex 8.21538 -40.0904 0
    endloop
  endfacet
  facet normal 0 0 -1
    outer loop
      vertex 3.87175 -48.1846 0
      vertex 9.7346 -55.2539 0
      vertex 7.6804 -56.2368 0
    endloop
  endfacet
  facet normal 0 0 -1
    outer loop
      vertex 11.6058 -53.9903 0
      vertex 7.42645 -43.4257 0
      vertex 7.86037 -41.874 0
    endloop
  endfacet
  facet normal 0 0 -1
    outer loop
      vertex 11.6058 -53.9903 0
      vertex 6.91365 -44.7455 0
      vertex 7.42645 -43.4257 0
    endloop
  endfacet
  facet normal 0 0 -1
    outer loop
      vertex 11.6058 -53.9903 0
      vertex 6.30934 -45.8632 0
      vertex 6.91365 -44.7455 0
    endloop
  endfacet
  facet normal 0 0 -1
    outer loop
      vertex 11.6058 -53.9903 0
      vertex 5.60092 -46.809 0
      vertex 6.30934 -45.8632 0
    endloop
  endfacet
  facet normal 0 0 -1
    outer loop
      vertex 3.87175 -48.1846 0
      vertex 7.6804 -56.2368 0
      vertex 5.44318 -56.9388 0
    endloop
  endfacet
  facet normal 0 0 -1
    outer loop
      vertex 11.6058 -53.9903 0
      vertex 4.78839 -47.5828 0
      vertex 5.60092 -46.809 0
    endloop
  endfacet
  facet normal 0 0 -1
    outer loop
      vertex 9.7346 -55.2539 0
      vertex 3.87175 -48.1846 0
      vertex 4.78839 -47.5828 0
    endloop
  endfacet
  facet normal 0 0 -1
    outer loop
      vertex 2.851 -48.6145 0
      vertex 5.44318 -56.9388 0
      vertex 3.02292 -57.36 0
    endloop
  endfacet
  facet normal 0 0 -1
    outer loop
      vertex 5.44318 -56.9388 0
      vertex 2.851 -48.6145 0
      vertex 3.87175 -48.1846 0
    endloop
  endfacet
  facet normal 0 0 -1
    outer loop
      vertex 3.02292 -57.36 0
      vertex 1.72614 -48.8724 0
      vertex 2.851 -48.6145 0
    endloop
  endfacet
  facet normal 0 0 -1
    outer loop
      vertex 0.419632 -57.5004 0
      vertex 1.72614 -48.8724 0
      vertex 3.02292 -57.36 0
    endloop
  endfacet
  facet normal 0 0 -1
    outer loop
      vertex 1.72614 -48.8724 0
      vertex 0.419632 -57.5004 0
      vertex 0.497162 -48.9584 0
    endloop
  endfacet
  facet normal 0 0 -1
    outer loop
      vertex 0.419632 -57.5004 0
      vertex -0.379288 -48.9213 0
      vertex 0.497162 -48.9584 0
    endloop
  endfacet
  facet normal 0 0 -1
    outer loop
      vertex -2.19101 -57.3604 0
      vertex -0.379288 -48.9213 0
      vertex 0.419632 -57.5004 0
    endloop
  endfacet
  facet normal -0 0 -1
    outer loop
      vertex -0.379288 -48.9213 0
      vertex -2.19101 -57.3604 0
      vertex -1.19737 -48.8101 0
    endloop
  endfacet
  facet normal -0 0 -1
    outer loop
      vertex -1.19737 -48.8101 0
      vertex -2.19101 -57.3604 0
      vertex -1.95709 -48.6247 0
    endloop
  endfacet
  facet normal 0 0 -1
    outer loop
      vertex -4.61156 -56.9404 0
      vertex -1.95709 -48.6247 0
      vertex -2.19101 -57.3604 0
    endloop
  endfacet
  facet normal -0 0 -1
    outer loop
      vertex -1.95709 -48.6247 0
      vertex -4.61156 -56.9404 0
      vertex -2.65843 -48.3652 0
    endloop
  endfacet
  facet normal 0 0 -1
    outer loop
      vertex -6.84201 -56.2403 0
      vertex -2.65843 -48.3652 0
      vertex -4.61156 -56.9404 0
    endloop
  endfacet
  facet normal -0 0 -1
    outer loop
      vertex -2.65843 -48.3652 0
      vertex -6.84201 -56.2403 0
      vertex -3.30141 -48.0316 0
    endloop
  endfacet
  facet normal 0 0 -1
    outer loop
      vertex -8.88237 -55.2602 0
      vertex -3.30141 -48.0316 0
      vertex -6.84201 -56.2403 0
    endloop
  endfacet
  facet normal -0 0 -1
    outer loop
      vertex -3.30141 -48.0316 0
      vertex -8.88237 -55.2602 0
      vertex -3.886 -47.6237 0
    endloop
  endfacet
  facet normal 0 0 -1
    outer loop
      vertex -10.7326 -54.0002 0
      vertex -3.886 -47.6237 0
      vertex -8.88237 -55.2602 0
    endloop
  endfacet
  facet normal -0 0 -1
    outer loop
      vertex -3.886 -47.6237 0
      vertex -10.7326 -54.0002 0
      vertex -4.41223 -47.1418 0
    endloop
  endfacet
  facet normal -0 0 -1
    outer loop
      vertex -4.41223 -47.1418 0
      vertex -10.7326 -54.0002 0
      vertex -4.89058 -46.5785 0
    endloop
  endfacet
  facet normal 0 0 -1
    outer loop
      vertex -12.3928 -52.46 0
      vertex -4.89058 -46.5785 0
      vertex -10.7326 -54.0002 0
    endloop
  endfacet
  facet normal -0 0 -1
    outer loop
      vertex -4.89058 -46.5785 0
      vertex -12.3928 -52.46 0
      vertex -5.33186 -45.9268 0
    endloop
  endfacet
  facet normal 0 0 -1
    outer loop
      vertex -13.8628 -50.6399 0
      vertex -5.33186 -45.9268 0
      vertex -12.3928 -52.46 0
    endloop
  endfacet
  facet normal -0 0 -1
    outer loop
      vertex -5.33186 -45.9268 0
      vertex -13.8628 -50.6399 0
      vertex -5.73608 -45.1868 0
    endloop
  endfacet
  facet normal 0 0 -1
    outer loop
      vertex -15.1395 -48.5514 0
      vertex -5.73608 -45.1868 0
      vertex -13.8628 -50.6399 0
    endloop
  endfacet
  facet normal -0 0 -1
    outer loop
      vertex -5.73608 -45.1868 0
      vertex -15.1395 -48.5514 0
      vertex -6.10326 -44.3585 0
    endloop
  endfacet
  facet normal -0 0 -1
    outer loop
      vertex -6.10326 -44.3585 0
      vertex -15.1395 -48.5514 0
      vertex -6.43335 -43.4419 0
    endloop
  endfacet
  facet normal 0 0 -1
    outer loop
      vertex -16.2197 -46.2065 0
      vertex -6.43335 -43.4419 0
      vertex -15.1395 -48.5514 0
    endloop
  endfacet
  facet normal -0 0 -1
    outer loop
      vertex -6.43335 -43.4419 0
      vertex -16.2197 -46.2065 0
      vertex -6.72639 -42.437 0
    endloop
  endfacet
  facet normal -0 0 -1
    outer loop
      vertex -6.98236 -41.3438 0
      vertex -17.1035 -43.6053 0
      vertex -7.20285 -40.1502 0
    endloop
  endfacet
  facet normal -0 0 -1
    outer loop
      vertex -6.72639 -42.437 0
      vertex -17.1035 -43.6053 0
      vertex -6.98236 -41.3438 0
    endloop
  endfacet
  facet normal 0 0 -1
    outer loop
      vertex -17.1035 -43.6053 0
      vertex -6.72639 -42.437 0
      vertex -16.2197 -46.2065 0
    endloop
  endfacet
  facet normal 0 0 -1
    outer loop
      vertex 8.80707 -33.3481 0
      vertex 19.7466 -30.6369 0
      vertex 19.6457 -34.2536 0
    endloop
  endfacet
  facet normal 0 0 -1
    outer loop
      vertex 8.82994 -28.7512 0
      vertex 19.7466 -30.6369 0
      vertex 8.84651 -30.6369 0
    endloop
  endfacet
  facet normal 0 0 -1
    outer loop
      vertex 8.80707 -33.3481 0
      vertex 19.6457 -34.2536 0
      vertex 19.3427 -37.6164 0
    endloop
  endfacet
  facet normal 0 0 -1
    outer loop
      vertex 19.7466 -30.6369 0
      vertex 8.82994 -28.7512 0
      vertex 19.6512 -26.9412 0
    endloop
  endfacet
  facet normal 0 0 -1
    outer loop
      vertex 8.80707 -33.3481 0
      vertex 19.3427 -37.6164 0
      vertex 18.8379 -40.7252 0
    endloop
  endfacet
  facet normal 0 0 -1
    outer loop
      vertex 8.78021 -26.9814 0
      vertex 19.6512 -26.9412 0
      vertex 8.82994 -28.7512 0
    endloop
  endfacet
  facet normal 0 0 -1
    outer loop
      vertex 8.80707 -33.3481 0
      vertex 18.8379 -40.7252 0
      vertex 18.1311 -43.58 0
    endloop
  endfacet
  facet normal 0 0 -1
    outer loop
      vertex 8.69733 -25.3276 0
      vertex 19.6512 -26.9412 0
      vertex 8.78021 -26.9814 0
    endloop
  endfacet
  facet normal 0 0 -1
    outer loop
      vertex 8.80707 -33.3481 0
      vertex 18.1311 -43.58 0
      vertex 17.2224 -46.1808 0
    endloop
  endfacet
  facet normal 0 0 -1
    outer loop
      vertex 19.6512 -26.9412 0
      vertex 8.69733 -25.3276 0
      vertex 19.3648 -23.5184 0
    endloop
  endfacet
  facet normal 0 0 -1
    outer loop
      vertex 8.80707 -33.3481 0
      vertex 17.2224 -46.1808 0
      vertex 16.1117 -48.5277 0
    endloop
  endfacet
  facet normal 0 0 -1
    outer loop
      vertex 8.5813 -23.7897 0
      vertex 19.3648 -23.5184 0
      vertex 8.69733 -25.3276 0
    endloop
  endfacet
  facet normal 0 0 -1
    outer loop
      vertex 8.80707 -33.3481 0
      vertex 16.1117 -48.5277 0
      vertex 14.799 -50.6205 0
    endloop
  endfacet
  facet normal -0 0 -1
    outer loop
      vertex 19.3648 -23.5184 0
      vertex 8.5813 -23.7897 0
      vertex 18.8875 -20.3686 0
    endloop
  endfacet
  facet normal 0 0 -1
    outer loop
      vertex 8.80707 -33.3481 0
      vertex 14.799 -50.6205 0
      vertex 13.2939 -52.4458 0
    endloop
  endfacet
  facet normal 0 0 -1
    outer loop
      vertex 8.43211 -22.3678 0
      vertex 18.8875 -20.3686 0
      vertex 8.5813 -23.7897 0
    endloop
  endfacet
  facet normal 0 0 -1
    outer loop
      vertex 8.80707 -33.3481 0
      vertex 13.2939 -52.4458 0
      vertex 11.6058 -53.9903 0
    endloop
  endfacet
  facet normal 0 0 -1
    outer loop
      vertex 8.24977 -21.0619 0
      vertex 18.8875 -20.3686 0
      vertex 8.43211 -22.3678 0
    endloop
  endfacet
  facet normal 0 0 -1
    outer loop
      vertex 4.78839 -47.5828 0
      vertex 11.6058 -53.9903 0
      vertex 9.7346 -55.2539 0
    endloop
  endfacet
  facet normal -0 0 -1
    outer loop
      vertex 18.8875 -20.3686 0
      vertex 8.24977 -21.0619 0
      vertex 18.2193 -17.4917 0
    endloop
  endfacet
  facet normal 0 0 -1
    outer loop
      vertex 8.03427 -19.8719 0
      vertex 18.2193 -17.4917 0
      vertex 8.24977 -21.0619 0
    endloop
  endfacet
  facet normal 0 0 -1
    outer loop
      vertex 7.78421 -18.7836 0
      vertex 18.2193 -17.4917 0
      vertex 8.03427 -19.8719 0
    endloop
  endfacet
  facet normal -0 0 -1
    outer loop
      vertex 18.2193 -17.4917 0
      vertex 7.78421 -18.7836 0
      vertex 17.3602 -14.8878 0
    endloop
  endfacet
  facet normal 0 0 -1
    outer loop
      vertex 7.49786 -17.783 0
      vertex 17.3602 -14.8878 0
      vertex 7.78421 -18.7836 0
    endloop
  endfacet
  facet normal -0 0 -1
    outer loop
      vertex 17.3602 -14.8878 0
      vertex 7.49786 -17.783 0
      vertex 16.3102 -12.5568 0
    endloop
  endfacet
  facet normal 0 0 -1
    outer loop
      vertex 7.17522 -16.8699 0
      vertex 16.3102 -12.5568 0
      vertex 7.49786 -17.783 0
    endloop
  endfacet
  facet normal 0 0 -1
    outer loop
      vertex 6.81628 -16.0443 0
      vertex 16.3102 -12.5568 0
      vertex 7.17522 -16.8699 0
    endloop
  endfacet
  facet normal -0 0 -1
    outer loop
      vertex 16.3102 -12.5568 0
      vertex 6.81628 -16.0443 0
      vertex 15.0692 -10.4988 0
    endloop
  endfacet
  facet normal 0 0 -1
    outer loop
      vertex 6.42105 -15.3064 0
      vertex 15.0692 -10.4988 0
      vertex 6.81628 -16.0443 0
    endloop
  endfacet
  facet normal -0 0 -1
    outer loop
      vertex 15.0692 -10.4988 0
      vertex 6.42105 -15.3064 0
      vertex 13.6312 -8.71434 0
    endloop
  endfacet
  facet normal 0 0 -1
    outer loop
      vertex 5.98953 -14.656 0
      vertex 13.6312 -8.71434 0
      vertex 6.42105 -15.3064 0
    endloop
  endfacet
  facet normal -0 0 -1
    outer loop
      vertex 13.6312 -8.71434 0
      vertex 5.98953 -14.656 0
      vertex 11.9897 -7.20442 0
    endloop
  endfacet
  facet normal 0 0 -1
    outer loop
      vertex 5.52171 -14.0932 0
      vertex 11.9897 -7.20442 0
      vertex 5.98953 -14.656 0
    endloop
  endfacet
  facet normal -0 0 -1
    outer loop
      vertex 11.9897 -7.20442 0
      vertex 5.52171 -14.0932 0
      vertex 10.1446 -5.96902 0
    endloop
  endfacet
  facet normal 0 0 -1
    outer loop
      vertex 5.00592 -13.6113 0
      vertex 10.1446 -5.96902 0
      vertex 5.52171 -14.0932 0
    endloop
  endfacet
  facet normal 0 0 -1
    outer loop
      vertex 4.43015 -13.2034 0
      vertex 10.1446 -5.96902 0
      vertex 5.00592 -13.6113 0
    endloop
  endfacet
  facet normal -0 0 -1
    outer loop
      vertex 10.1446 -5.96902 0
      vertex 4.43015 -13.2034 0
      vertex 8.09604 -5.00816 0
    endloop
  endfacet
  facet normal 0 0 -1
    outer loop
      vertex 3.7944 -12.8698 0
      vertex 8.09604 -5.00816 0
      vertex 4.43015 -13.2034 0
    endloop
  endfacet
  facet normal -0 0 -1
    outer loop
      vertex 8.09604 -5.00816 0
      vertex 3.7944 -12.8698 0
      vertex 5.84393 -4.32185 0
    endloop
  endfacet
  facet normal 0 0 -1
    outer loop
      vertex 3.09868 -12.6103 0
      vertex 5.84393 -4.32185 0
      vertex 3.7944 -12.8698 0
    endloop
  endfacet
  facet normal -0 0 -1
    outer loop
      vertex 5.84393 -4.32185 0
      vertex 3.09868 -12.6103 0
      vertex 3.38831 -3.91006 0
    endloop
  endfacet
  facet normal 0 0 -1
    outer loop
      vertex 2.34297 -12.4249 0
      vertex 3.38831 -3.91006 0
      vertex 3.09868 -12.6103 0
    endloop
  endfacet
  facet normal 0 0 -1
    outer loop
      vertex 1.52728 -12.3137 0
      vertex 3.38831 -3.91006 0
      vertex 2.34297 -12.4249 0
    endloop
  endfacet
  facet normal 0 0 -1
    outer loop
      vertex 1.52728 -12.3137 0
      vertex 0.729156 -3.7728 0
      vertex 3.38831 -3.91006 0
    endloop
  endfacet
  facet normal 0 0 -1
    outer loop
      vertex 0.651627 -12.2766 0
      vertex 0.729156 -3.7728 0
      vertex 1.52728 -12.3137 0
    endloop
  endfacet
  facet normal 0 0 -1
    outer loop
      vertex -0.266586 -12.3137 0
      vertex 0.729156 -3.7728 0
      vertex 0.651627 -12.2766 0
    endloop
  endfacet
  facet normal 0 0 -1
    outer loop
      vertex -2.02264 -3.90808 0
      vertex -0.266586 -12.3137 0
      vertex -1.12169 -12.4249 0
    endloop
  endfacet
  facet normal 0 0 -1
    outer loop
      vertex -2.02264 -3.90808 0
      vertex -1.12169 -12.4249 0
      vertex -1.91367 -12.6103 0
    endloop
  endfacet
  facet normal 0 0 -1
    outer loop
      vertex -0.266586 -12.3137 0
      vertex -2.02264 -3.90808 0
      vertex 0.729156 -3.7728 0
    endloop
  endfacet
  facet normal 0 0 -1
    outer loop
      vertex -4.55756 -4.31395 0
      vertex -1.91367 -12.6103 0
      vertex -2.64253 -12.8698 0
    endloop
  endfacet
  facet normal 0 0 -1
    outer loop
      vertex -6.87555 -4.99039 0
      vertex -2.64253 -12.8698 0
      vertex -3.30829 -13.2034 0
    endloop
  endfacet
  facet normal 0 0 -1
    outer loop
      vertex -8.97665 -5.93739 0
      vertex -3.30829 -13.2034 0
      vertex -3.91092 -13.6113 0
    endloop
  endfacet
  facet normal 0 0 -1
    outer loop
      vertex -8.97665 -5.93739 0
      vertex -3.91092 -13.6113 0
      vertex -4.45042 -14.0932 0
    endloop
  endfacet
  facet normal 0 0 -1
    outer loop
      vertex -1.91367 -12.6103 0
      vertex -4.55756 -4.31395 0
      vertex -2.02264 -3.90808 0
    endloop
  endfacet
  facet normal 0 0 -1
    outer loop
      vertex -10.8609 -7.15498 0
      vertex -4.45042 -14.0932 0
      vertex -4.93828 -14.656 0
    endloop
  endfacet
  facet normal 0 0 -1
    outer loop
      vertex -12.5282 -8.64314 0
      vertex -4.93828 -14.656 0
      vertex -5.38593 -15.3064 0
    endloop
  endfacet
  facet normal 0 0 -1
    outer loop
      vertex -13.9785 -10.4019 0
      vertex -5.38593 -15.3064 0
      vertex -5.79337 -16.0443 0
    endloop
  endfacet
  facet normal 0 0 -1
    outer loop
      vertex -15.2245 -12.4383 0
      vertex -5.79337 -16.0443 0
      vertex -6.16061 -16.8699 0
    endloop
  endfacet
  facet normal 0 0 -1
    outer loop
      vertex -15.2245 -12.4383 0
      vertex -6.16061 -16.8699 0
      vertex -6.48766 -17.783 0
    endloop
  endfacet
  facet normal 0 0 -1
    outer loop
      vertex -16.2787 -14.7595 0
      vertex -6.48766 -17.783 0
      vertex -6.77449 -18.7836 0
    endloop
  endfacet
  facet normal 0 0 -1
    outer loop
      vertex -2.64253 -12.8698 0
      vertex -6.87555 -4.99039 0
      vertex -4.55756 -4.31395 0
    endloop
  endfacet
  facet normal 0 0 -1
    outer loop
      vertex -17.1413 -17.3654 0
      vertex -6.77449 -18.7836 0
      vertex -7.02112 -19.8719 0
    endloop
  endfacet
  facet normal 0 0 -1
    outer loop
      vertex -17.1413 -17.3654 0
      vertex -7.02112 -19.8719 0
      vertex -7.23132 -21.0619 0
    endloop
  endfacet
  facet normal 0 0 -1
    outer loop
      vertex -17.8122 -20.2561 0
      vertex -7.23132 -21.0619 0
      vertex -7.40919 -22.3678 0
    endloop
  endfacet
  facet normal 0 0 -1
    outer loop
      vertex -17.8122 -20.2561 0
      vertex -7.40919 -22.3678 0
      vertex -7.55472 -23.7897 0
    endloop
  endfacet
  facet normal 0 0 -1
    outer loop
      vertex -18.2914 -23.4316 0
      vertex -7.55472 -23.7897 0
      vertex -7.66791 -25.3276 0
    endloop
  endfacet
  facet normal 0 0 -1
    outer loop
      vertex -18.5789 -26.8919 0
      vertex -7.66791 -25.3276 0
      vertex -7.74875 -26.9814 0
    endloop
  endfacet
  facet normal 0 0 -1
    outer loop
      vertex -17.791 -40.7478 0
      vertex -7.20285 -40.1502 0
      vertex -17.1035 -43.6053 0
    endloop
  endfacet
  facet normal 0 0 -1
    outer loop
      vertex -18.282 -37.6338 0
      vertex -7.54205 -37.4271 0
      vertex -17.791 -40.7478 0
    endloop
  endfacet
  facet normal -0 0 -1
    outer loop
      vertex -7.54205 -37.4271 0
      vertex -18.282 -37.6338 0
      vertex -7.66078 -35.8975 0
    endloop
  endfacet
  facet normal 0 0 -1
    outer loop
      vertex -7.79726 -28.7512 0
      vertex -18.5789 -26.8919 0
      vertex -7.74875 -26.9814 0
    endloop
  endfacet
  facet normal -0 0 -1
    outer loop
      vertex -7.20285 -40.1502 0
      vertex -17.791 -40.7478 0
      vertex -7.38942 -38.8447 0
    endloop
  endfacet
  facet normal -0 0 -1
    outer loop
      vertex -7.66791 -25.3276 0
      vertex -18.5789 -26.8919 0
      vertex -18.2914 -23.4316 0
    endloop
  endfacet
  facet normal -0 0 -1
    outer loop
      vertex -7.38942 -38.8447 0
      vertex -17.791 -40.7478 0
      vertex -7.54205 -37.4271 0
    endloop
  endfacet
  facet normal 0 0 -1
    outer loop
      vertex -7.55472 -23.7897 0
      vertex -18.2914 -23.4316 0
      vertex -17.8122 -20.2561 0
    endloop
  endfacet
  facet normal 0 0 -1
    outer loop
      vertex -18.5766 -34.2635 0
      vertex -7.66078 -35.8975 0
      vertex -18.282 -37.6338 0
    endloop
  endfacet
  facet normal 0 0 -1
    outer loop
      vertex -7.23132 -21.0619 0
      vertex -17.8122 -20.2561 0
      vertex -17.1413 -17.3654 0
    endloop
  endfacet
  facet normal 0 0 -1
    outer loop
      vertex -7.66078 -35.8975 0
      vertex -18.5766 -34.2635 0
      vertex -7.74559 -34.256 0
    endloop
  endfacet
  facet normal 0 0 -1
    outer loop
      vertex -6.77449 -18.7836 0
      vertex -17.1413 -17.3654 0
      vertex -16.2787 -14.7595 0
    endloop
  endfacet
  facet normal -0 0 -1
    outer loop
      vertex -7.74559 -34.256 0
      vertex -18.5766 -34.2635 0
      vertex -7.79646 -32.5024 0
    endloop
  endfacet
  facet normal 0 0 -1
    outer loop
      vertex -6.48766 -17.783 0
      vertex -16.2787 -14.7595 0
      vertex -15.2245 -12.4383 0
    endloop
  endfacet
  facet normal 0 0 -1
    outer loop
      vertex -18.6748 -30.6369 0
      vertex -7.79646 -32.5024 0
      vertex -18.5766 -34.2635 0
    endloop
  endfacet
  facet normal 0 0 -1
    outer loop
      vertex -5.79337 -16.0443 0
      vertex -15.2245 -12.4383 0
      vertex -13.9785 -10.4019 0
    endloop
  endfacet
  facet normal 0 0 -1
    outer loop
      vertex -7.79646 -32.5024 0
      vertex -18.6748 -30.6369 0
      vertex -7.81343 -30.6369 0
    endloop
  endfacet
  facet normal 0 0 -1
    outer loop
      vertex -7.81343 -30.6369 0
      vertex -18.6748 -30.6369 0
      vertex -7.79726 -28.7512 0
    endloop
  endfacet
  facet normal 0 -0 -1
    outer loop
      vertex -18.5789 -26.8919 0
      vertex -7.79726 -28.7512 0
      vertex -18.6748 -30.6369 0
    endloop
  endfacet
  facet normal 0 0 -1
    outer loop
      vertex -4.93828 -14.656 0
      vertex -12.5282 -8.64314 0
      vertex -10.8609 -7.15498 0
    endloop
  endfacet
  facet normal 0 0 -1
    outer loop
      vertex -5.38593 -15.3064 0
      vertex -13.9785 -10.4019 0
      vertex -12.5282 -8.64314 0
    endloop
  endfacet
  facet normal 0 0 -1
    outer loop
      vertex -4.45042 -14.0932 0
      vertex -10.8609 -7.15498 0
      vertex -8.97665 -5.93739 0
    endloop
  endfacet
  facet normal 0 0 -1
    outer loop
      vertex -3.30829 -13.2034 0
      vertex -8.97665 -5.93739 0
      vertex -6.87555 -4.99039 0
    endloop
  endfacet
  facet normal -0 0 1
    outer loop
      vertex 8.82994 -28.7512 1
      vertex 19.7466 -30.6369 1
      vertex 19.6512 -26.9412 1
    endloop
  endfacet
  facet normal -0 0 1
    outer loop
      vertex 8.69733 -25.3276 1
      vertex 19.6512 -26.9412 1
      vertex 19.3648 -23.5184 1
    endloop
  endfacet
  facet normal 0 0 1
    outer loop
      vertex 19.7466 -30.6369 1
      vertex 8.82994 -28.7512 1
      vertex 8.84651 -30.6369 1
    endloop
  endfacet
  facet normal 0 0 1
    outer loop
      vertex 8.5813 -23.7897 1
      vertex 19.3648 -23.5184 1
      vertex 18.8875 -20.3686 1
    endloop
  endfacet
  facet normal 0 0 1
    outer loop
      vertex 8.80707 -33.3481 1
      vertex 19.7466 -30.6369 1
      vertex 8.84651 -30.6369 1
    endloop
  endfacet
  facet normal 0 0 1
    outer loop
      vertex 8.24977 -21.0619 1
      vertex 18.8875 -20.3686 1
      vertex 18.2193 -17.4917 1
    endloop
  endfacet
  facet normal 0 0 1
    outer loop
      vertex 19.7466 -30.6369 1
      vertex 8.80707 -33.3481 1
      vertex 19.6457 -34.2536 1
    endloop
  endfacet
  facet normal 0 0 1
    outer loop
      vertex 7.78421 -18.7836 1
      vertex 18.2193 -17.4917 1
      vertex 17.3602 -14.8878 1
    endloop
  endfacet
  facet normal 0 0 1
    outer loop
      vertex 8.68874 -35.8275 1
      vertex 19.6457 -34.2536 1
      vertex 8.80707 -33.3481 1
    endloop
  endfacet
  facet normal 0 0 1
    outer loop
      vertex 7.49786 -17.783 1
      vertex 17.3602 -14.8878 1
      vertex 16.3102 -12.5568 1
    endloop
  endfacet
  facet normal 0 0 1
    outer loop
      vertex 19.6457 -34.2536 1
      vertex 8.68874 -35.8275 1
      vertex 19.3427 -37.6164 1
    endloop
  endfacet
  facet normal 0 0 1
    outer loop
      vertex 6.81628 -16.0443 1
      vertex 16.3102 -12.5568 1
      vertex 15.0692 -10.4988 1
    endloop
  endfacet
  facet normal 0 0 1
    outer loop
      vertex 8.4915 -38.0749 1
      vertex 19.3427 -37.6164 1
      vertex 8.68874 -35.8275 1
    endloop
  endfacet
  facet normal 0 0 1
    outer loop
      vertex 6.42105 -15.3064 1
      vertex 15.0692 -10.4988 1
      vertex 13.6312 -8.71434 1
    endloop
  endfacet
  facet normal 0 0 1
    outer loop
      vertex 19.3427 -37.6164 1
      vertex 8.4915 -38.0749 1
      vertex 18.8379 -40.7252 1
    endloop
  endfacet
  facet normal 0 0 1
    outer loop
      vertex 5.98953 -14.656 1
      vertex 13.6312 -8.71434 1
      vertex 11.9897 -7.20442 1
    endloop
  endfacet
  facet normal -0 0 1
    outer loop
      vertex 8.21538 -40.0904 1
      vertex 18.8379 -40.7252 1
      vertex 8.4915 -38.0749 1
    endloop
  endfacet
  facet normal 0 0 1
    outer loop
      vertex 5.52171 -14.0932 1
      vertex 11.9897 -7.20442 1
      vertex 10.1446 -5.96902 1
    endloop
  endfacet
  facet normal 0 0 1
    outer loop
      vertex 18.8379 -40.7252 1
      vertex 8.21538 -40.0904 1
      vertex 18.1311 -43.58 1
    endloop
  endfacet
  facet normal 0 0 1
    outer loop
      vertex 18.1311 -43.58 1
      vertex 7.86037 -41.874 1
      vertex 17.2224 -46.1808 1
    endloop
  endfacet
  facet normal -0 0 1
    outer loop
      vertex 7.86037 -41.874 1
      vertex 18.1311 -43.58 1
      vertex 8.21538 -40.0904 1
    endloop
  endfacet
  facet normal 0 0 1
    outer loop
      vertex 19.6512 -26.9412 1
      vertex 8.78021 -26.9814 1
      vertex 8.82994 -28.7512 1
    endloop
  endfacet
  facet normal 0 0 1
    outer loop
      vertex 19.6512 -26.9412 1
      vertex 8.69733 -25.3276 1
      vertex 8.78021 -26.9814 1
    endloop
  endfacet
  facet normal 0 0 1
    outer loop
      vertex 19.3648 -23.5184 1
      vertex 8.5813 -23.7897 1
      vertex 8.69733 -25.3276 1
    endloop
  endfacet
  facet normal 0 0 1
    outer loop
      vertex 18.8875 -20.3686 1
      vertex 8.43211 -22.3678 1
      vertex 8.5813 -23.7897 1
    endloop
  endfacet
  facet normal 0 0 1
    outer loop
      vertex 18.8875 -20.3686 1
      vertex 8.24977 -21.0619 1
      vertex 8.43211 -22.3678 1
    endloop
  endfacet
  facet normal 0 0 1
    outer loop
      vertex 4.43015 -13.2034 1
      vertex 10.1446 -5.96902 1
      vertex 8.09604 -5.00816 1
    endloop
  endfacet
  facet normal 0 0 1
    outer loop
      vertex 18.2193 -17.4917 1
      vertex 8.03427 -19.8719 1
      vertex 8.24977 -21.0619 1
    endloop
  endfacet
  facet normal 0 0 1
    outer loop
      vertex 18.2193 -17.4917 1
      vertex 7.78421 -18.7836 1
      vertex 8.03427 -19.8719 1
    endloop
  endfacet
  facet normal 0 0 1
    outer loop
      vertex 17.3602 -14.8878 1
      vertex 7.49786 -17.783 1
      vertex 7.78421 -18.7836 1
    endloop
  endfacet
  facet normal 0 0 1
    outer loop
      vertex 16.3102 -12.5568 1
      vertex 7.17522 -16.8699 1
      vertex 7.49786 -17.783 1
    endloop
  endfacet
  facet normal 0 0 1
    outer loop
      vertex 16.3102 -12.5568 1
      vertex 6.81628 -16.0443 1
      vertex 7.17522 -16.8699 1
    endloop
  endfacet
  facet normal 0 0 1
    outer loop
      vertex 15.0692 -10.4988 1
      vertex 6.42105 -15.3064 1
      vertex 6.81628 -16.0443 1
    endloop
  endfacet
  facet normal 0 0 1
    outer loop
      vertex 13.6312 -8.71434 1
      vertex 5.98953 -14.656 1
      vertex 6.42105 -15.3064 1
    endloop
  endfacet
  facet normal 0 0 1
    outer loop
      vertex 3.7944 -12.8698 1
      vertex 8.09604 -5.00816 1
      vertex 5.84393 -4.32185 1
    endloop
  endfacet
  facet normal 0 0 1
    outer loop
      vertex 11.9897 -7.20442 1
      vertex 5.52171 -14.0932 1
      vertex 5.98953 -14.656 1
    endloop
  endfacet
  facet normal 0 0 1
    outer loop
      vertex 10.1446 -5.96902 1
      vertex 5.00592 -13.6113 1
      vertex 5.52171 -14.0932 1
    endloop
  endfacet
  facet normal 0 0 1
    outer loop
      vertex 10.1446 -5.96902 1
      vertex 4.43015 -13.2034 1
      vertex 5.00592 -13.6113 1
    endloop
  endfacet
  facet normal 0 0 1
    outer loop
      vertex 8.09604 -5.00816 1
      vertex 3.7944 -12.8698 1
      vertex 4.43015 -13.2034 1
    endloop
  endfacet
  facet normal 0 0 1
    outer loop
      vertex 3.09868 -12.6103 1
      vertex 5.84393 -4.32185 1
      vertex 3.38831 -3.91006 1
    endloop
  endfacet
  facet normal 0 0 1
    outer loop
      vertex 5.84393 -4.32185 1
      vertex 3.09868 -12.6103 1
      vertex 3.7944 -12.8698 1
    endloop
  endfacet
  facet normal 0 0 1
    outer loop
      vertex 3.38831 -3.91006 1
      vertex 2.34297 -12.4249 1
      vertex 3.09868 -12.6103 1
    endloop
  endfacet
  facet normal 0 0 1
    outer loop
      vertex 3.38831 -3.91006 1
      vertex 1.52728 -12.3137 1
      vertex 2.34297 -12.4249 1
    endloop
  endfacet
  facet normal 0 0 1
    outer loop
      vertex 0.729156 -3.7728 1
      vertex 1.52728 -12.3137 1
      vertex 3.38831 -3.91006 1
    endloop
  endfacet
  facet normal 0 0 1
    outer loop
      vertex 0.729156 -3.7728 1
      vertex 0.651627 -12.2766 1
      vertex 1.52728 -12.3137 1
    endloop
  endfacet
  facet normal 0 0 1
    outer loop
      vertex 0.729156 -3.7728 1
      vertex -0.266586 -12.3137 1
      vertex 0.651627 -12.2766 1
    endloop
  endfacet
  facet normal -0 0 1
    outer loop
      vertex -2.02264 -3.90808 1
      vertex -0.266586 -12.3137 1
      vertex 0.729156 -3.7728 1
    endloop
  endfacet
  facet normal 0 0 1
    outer loop
      vertex -0.266586 -12.3137 1
      vertex -2.02264 -3.90808 1
      vertex -1.12169 -12.4249 1
    endloop
  endfacet
  facet normal 0 0 1
    outer loop
      vertex -1.12169 -12.4249 1
      vertex -2.02264 -3.90808 1
      vertex -1.91367 -12.6103 1
    endloop
  endfacet
  facet normal -0 0 1
    outer loop
      vertex -4.55756 -4.31395 1
      vertex -1.91367 -12.6103 1
      vertex -2.02264 -3.90808 1
    endloop
  endfacet
  facet normal 0 0 1
    outer loop
      vertex -1.91367 -12.6103 1
      vertex -4.55756 -4.31395 1
      vertex -2.64253 -12.8698 1
    endloop
  endfacet
  facet normal -0 0 1
    outer loop
      vertex -6.87555 -4.99039 1
      vertex -2.64253 -12.8698 1
      vertex -4.55756 -4.31395 1
    endloop
  endfacet
  facet normal 0 0 1
    outer loop
      vertex -2.64253 -12.8698 1
      vertex -6.87555 -4.99039 1
      vertex -3.30829 -13.2034 1
    endloop
  endfacet
  facet normal -0 0 1
    outer loop
      vertex -8.97665 -5.93739 1
      vertex -3.30829 -13.2034 1
      vertex -6.87555 -4.99039 1
    endloop
  endfacet
  facet normal 0 0 1
    outer loop
      vertex -3.30829 -13.2034 1
      vertex -8.97665 -5.93739 1
      vertex -3.91092 -13.6113 1
    endloop
  endfacet
  facet normal 0 0 1
    outer loop
      vertex -3.91092 -13.6113 1
      vertex -8.97665 -5.93739 1
      vertex -4.45042 -14.0932 1
    endloop
  endfacet
  facet normal -0 0 1
    outer loop
      vertex -10.8609 -7.15498 1
      vertex -4.45042 -14.0932 1
      vertex -8.97665 -5.93739 1
    endloop
  endfacet
  facet normal 0 0 1
    outer loop
      vertex -4.45042 -14.0932 1
      vertex -10.8609 -7.15498 1
      vertex -4.93828 -14.656 1
    endloop
  endfacet
  facet normal -0 0 1
    outer loop
      vertex -12.5282 -8.64314 1
      vertex -4.93828 -14.656 1
      vertex -10.8609 -7.15498 1
    endloop
  endfacet
  facet normal 0 0 1
    outer loop
      vertex -4.93828 -14.656 1
      vertex -12.5282 -8.64314 1
      vertex -5.38593 -15.3064 1
    endloop
  endfacet
  facet normal -0 0 1
    outer loop
      vertex -13.9785 -10.4019 1
      vertex -5.38593 -15.3064 1
      vertex -12.5282 -8.64314 1
    endloop
  endfacet
  facet normal 0 0 1
    outer loop
      vertex -5.38593 -15.3064 1
      vertex -13.9785 -10.4019 1
      vertex -5.79337 -16.0443 1
    endloop
  endfacet
  facet normal -0 0 1
    outer loop
      vertex -15.2245 -12.4383 1
      vertex -5.79337 -16.0443 1
      vertex -13.9785 -10.4019 1
    endloop
  endfacet
  facet normal 0 0 1
    outer loop
      vertex -5.79337 -16.0443 1
      vertex -15.2245 -12.4383 1
      vertex -6.16061 -16.8699 1
    endloop
  endfacet
  facet normal 0 0 1
    outer loop
      vertex -6.16061 -16.8699 1
      vertex -15.2245 -12.4383 1
      vertex -6.48766 -17.783 1
    endloop
  endfacet
  facet normal -0 0 1
    outer loop
      vertex -16.2787 -14.7595 1
      vertex -6.48766 -17.783 1
      vertex -15.2245 -12.4383 1
    endloop
  endfacet
  facet normal 0 0 1
    outer loop
      vertex -6.48766 -17.783 1
      vertex -16.2787 -14.7595 1
      vertex -6.77449 -18.7836 1
    endloop
  endfacet
  facet normal 0 0 1
    outer loop
      vertex -18.6748 -30.6369 1
      vertex -7.81343 -30.6369 1
      vertex -7.79726 -28.7512 1
    endloop
  endfacet
  facet normal 0 0 1
    outer loop
      vertex -18.5789 -26.8919 1
      vertex -7.79726 -28.7512 1
      vertex -7.74875 -26.9814 1
    endloop
  endfacet
  facet normal -0 0 1
    outer loop
      vertex -17.1413 -17.3654 1
      vertex -6.77449 -18.7836 1
      vertex -16.2787 -14.7595 1
    endloop
  endfacet
  facet normal 0 0 1
    outer loop
      vertex -6.77449 -18.7836 1
      vertex -17.1413 -17.3654 1
      vertex -7.02112 -19.8719 1
    endloop
  endfacet
  facet normal 0 0 1
    outer loop
      vertex -7.81343 -30.6369 1
      vertex -18.6748 -30.6369 1
      vertex -18.5766 -34.2635 1
    endloop
  endfacet
  facet normal 0 0 1
    outer loop
      vertex -7.02112 -19.8719 1
      vertex -17.1413 -17.3654 1
      vertex -7.23132 -21.0619 1
    endloop
  endfacet
  facet normal 0 0 1
    outer loop
      vertex -7.81343 -30.6369 1
      vertex -18.5766 -34.2635 1
      vertex -18.282 -37.6338 1
    endloop
  endfacet
  facet normal -0 0 1
    outer loop
      vertex -17.8122 -20.2561 1
      vertex -7.23132 -21.0619 1
      vertex -17.1413 -17.3654 1
    endloop
  endfacet
  facet normal 0 0 1
    outer loop
      vertex -7.81343 -30.6369 1
      vertex -18.282 -37.6338 1
      vertex -17.791 -40.7478 1
    endloop
  endfacet
  facet normal 0 0 1
    outer loop
      vertex -7.23132 -21.0619 1
      vertex -17.8122 -20.2561 1
      vertex -7.40919 -22.3678 1
    endloop
  endfacet
  facet normal 0 0 1
    outer loop
      vertex -7.81343 -30.6369 1
      vertex -17.791 -40.7478 1
      vertex -17.1035 -43.6053 1
    endloop
  endfacet
  facet normal 0 0 1
    outer loop
      vertex -7.40919 -22.3678 1
      vertex -17.8122 -20.2561 1
      vertex -7.55472 -23.7897 1
    endloop
  endfacet
  facet normal 0 0 1
    outer loop
      vertex -7.81343 -30.6369 1
      vertex -17.1035 -43.6053 1
      vertex -16.2197 -46.2065 1
    endloop
  endfacet
  facet normal -0 0 1
    outer loop
      vertex -18.2914 -23.4316 1
      vertex -7.55472 -23.7897 1
      vertex -17.8122 -20.2561 1
    endloop
  endfacet
  facet normal 0 0 1
    outer loop
      vertex -7.81343 -30.6369 1
      vertex -16.2197 -46.2065 1
      vertex -15.1395 -48.5514 1
    endloop
  endfacet
  facet normal 0 0 1
    outer loop
      vertex -7.55472 -23.7897 1
      vertex -18.2914 -23.4316 1
      vertex -7.66791 -25.3276 1
    endloop
  endfacet
  facet normal 0 0 1
    outer loop
      vertex -7.81343 -30.6369 1
      vertex -15.1395 -48.5514 1
      vertex -13.8628 -50.6399 1
    endloop
  endfacet
  facet normal 0 0 1
    outer loop
      vertex -18.5789 -26.8919 1
      vertex -7.66791 -25.3276 1
      vertex -18.2914 -23.4316 1
    endloop
  endfacet
  facet normal 0 0 1
    outer loop
      vertex -7.81343 -30.6369 1
      vertex -12.3928 -52.46 1
      vertex -10.7326 -54.0002 1
    endloop
  endfacet
  facet normal 0 0 1
    outer loop
      vertex -7.66791 -25.3276 1
      vertex -18.5789 -26.8919 1
      vertex -7.74875 -26.9814 1
    endloop
  endfacet
  facet normal 0 0 1
    outer loop
      vertex -7.81343 -30.6369 1
      vertex -10.7326 -54.0002 1
      vertex -8.88237 -55.2602 1
    endloop
  endfacet
  facet normal 0 0 1
    outer loop
      vertex -7.79726 -28.7512 1
      vertex -18.5789 -26.8919 1
      vertex -18.6748 -30.6369 1
    endloop
  endfacet
  facet normal 0 -0 1
    outer loop
      vertex -12.3928 -52.46 1
      vertex -7.81343 -30.6369 1
      vertex -13.8628 -50.6399 1
    endloop
  endfacet
  facet normal -0 0 1
    outer loop
      vertex 7.42645 -43.4257 1
      vertex 17.2224 -46.1808 1
      vertex 7.86037 -41.874 1
    endloop
  endfacet
  facet normal 0 0 1
    outer loop
      vertex 17.2224 -46.1808 1
      vertex 7.42645 -43.4257 1
      vertex 16.1117 -48.5277 1
    endloop
  endfacet
  facet normal -0 0 1
    outer loop
      vertex 6.91365 -44.7455 1
      vertex 16.1117 -48.5277 1
      vertex 7.42645 -43.4257 1
    endloop
  endfacet
  facet normal 0 0 1
    outer loop
      vertex 16.1117 -48.5277 1
      vertex 6.91365 -44.7455 1
      vertex 14.799 -50.6205 1
    endloop
  endfacet
  facet normal -0 0 1
    outer loop
      vertex 6.30934 -45.8632 1
      vertex 14.799 -50.6205 1
      vertex 6.91365 -44.7455 1
    endloop
  endfacet
  facet normal 0 0 1
    outer loop
      vertex 14.799 -50.6205 1
      vertex 6.30934 -45.8632 1
      vertex 13.2939 -52.4458 1
    endloop
  endfacet
  facet normal -0 0 1
    outer loop
      vertex 5.60092 -46.809 1
      vertex 13.2939 -52.4458 1
      vertex 6.30934 -45.8632 1
    endloop
  endfacet
  facet normal 0 0 1
    outer loop
      vertex 13.2939 -52.4458 1
      vertex 5.60092 -46.809 1
      vertex 11.6058 -53.9903 1
    endloop
  endfacet
  facet normal -0 0 1
    outer loop
      vertex 4.78839 -47.5828 1
      vertex 11.6058 -53.9903 1
      vertex 5.60092 -46.809 1
    endloop
  endfacet
  facet normal 0 0 1
    outer loop
      vertex 11.6058 -53.9903 1
      vertex 4.78839 -47.5828 1
      vertex 9.7346 -55.2539 1
    endloop
  endfacet
  facet normal -0 0 1
    outer loop
      vertex 3.87175 -48.1846 1
      vertex 9.7346 -55.2539 1
      vertex 4.78839 -47.5828 1
    endloop
  endfacet
  facet normal 0 0 1
    outer loop
      vertex 9.7346 -55.2539 1
      vertex 3.87175 -48.1846 1
      vertex 7.6804 -56.2368 1
    endloop
  endfacet
  facet normal 0 0 1
    outer loop
      vertex 7.6804 -56.2368 1
      vertex 3.87175 -48.1846 1
      vertex 5.44318 -56.9388 1
    endloop
  endfacet
  facet normal -0 0 1
    outer loop
      vertex 2.851 -48.6145 1
      vertex 5.44318 -56.9388 1
      vertex 3.87175 -48.1846 1
    endloop
  endfacet
  facet normal 0 0 1
    outer loop
      vertex 5.44318 -56.9388 1
      vertex 2.851 -48.6145 1
      vertex 3.02292 -57.36 1
    endloop
  endfacet
  facet normal -0 0 1
    outer loop
      vertex 1.72614 -48.8724 1
      vertex 3.02292 -57.36 1
      vertex 2.851 -48.6145 1
    endloop
  endfacet
  facet normal 0 0 1
    outer loop
      vertex 0.419632 -57.5004 1
      vertex 1.72614 -48.8724 1
      vertex 0.497162 -48.9584 1
    endloop
  endfacet
  facet normal 0 0 1
    outer loop
      vertex 1.72614 -48.8724 1
      vertex 0.419632 -57.5004 1
      vertex 3.02292 -57.36 1
    endloop
  endfacet
  facet normal 0 0 1
    outer loop
      vertex -0.379288 -48.9213 1
      vertex 0.419632 -57.5004 1
      vertex 0.497162 -48.9584 1
    endloop
  endfacet
  facet normal 0 0 1
    outer loop
      vertex -2.19101 -57.3604 1
      vertex -0.379288 -48.9213 1
      vertex -1.19737 -48.8101 1
    endloop
  endfacet
  facet normal 0 0 1
    outer loop
      vertex -2.19101 -57.3604 1
      vertex -1.19737 -48.8101 1
      vertex -1.95709 -48.6247 1
    endloop
  endfacet
  facet normal 0 0 1
    outer loop
      vertex -0.379288 -48.9213 1
      vertex -2.19101 -57.3604 1
      vertex 0.419632 -57.5004 1
    endloop
  endfacet
  facet normal 0 0 1
    outer loop
      vertex -4.61156 -56.9404 1
      vertex -1.95709 -48.6247 1
      vertex -2.65843 -48.3652 1
    endloop
  endfacet
  facet normal 0 0 1
    outer loop
      vertex -6.84201 -56.2403 1
      vertex -2.65843 -48.3652 1
      vertex -3.30141 -48.0316 1
    endloop
  endfacet
  facet normal 0 0 1
    outer loop
      vertex -8.88237 -55.2602 1
      vertex -3.30141 -48.0316 1
      vertex -3.886 -47.6237 1
    endloop
  endfacet
  facet normal 0 0 1
    outer loop
      vertex -8.88237 -55.2602 1
      vertex -3.886 -47.6237 1
      vertex -4.41223 -47.1418 1
    endloop
  endfacet
  facet normal 0 0 1
    outer loop
      vertex -1.95709 -48.6247 1
      vertex -4.61156 -56.9404 1
      vertex -2.19101 -57.3604 1
    endloop
  endfacet
  facet normal 0 0 1
    outer loop
      vertex -8.88237 -55.2602 1
      vertex -4.41223 -47.1418 1
      vertex -4.89058 -46.5785 1
    endloop
  endfacet
  facet normal 0 0 1
    outer loop
      vertex -8.88237 -55.2602 1
      vertex -4.89058 -46.5785 1
      vertex -5.33186 -45.9268 1
    endloop
  endfacet
  facet normal 0 0 1
    outer loop
      vertex -8.88237 -55.2602 1
      vertex -5.33186 -45.9268 1
      vertex -5.73608 -45.1868 1
    endloop
  endfacet
  facet normal 0 0 1
    outer loop
      vertex -8.88237 -55.2602 1
      vertex -5.73608 -45.1868 1
      vertex -6.10326 -44.3585 1
    endloop
  endfacet
  facet normal 0 0 1
    outer loop
      vertex -8.88237 -55.2602 1
      vertex -6.10326 -44.3585 1
      vertex -6.43335 -43.4419 1
    endloop
  endfacet
  facet normal 0 0 1
    outer loop
      vertex -8.88237 -55.2602 1
      vertex -6.43335 -43.4419 1
      vertex -6.72639 -42.437 1
    endloop
  endfacet
  facet normal 0 0 1
    outer loop
      vertex -2.65843 -48.3652 1
      vertex -6.84201 -56.2403 1
      vertex -4.61156 -56.9404 1
    endloop
  endfacet
  facet normal 0 0 1
    outer loop
      vertex -8.88237 -55.2602 1
      vertex -6.72639 -42.437 1
      vertex -6.98236 -41.3438 1
    endloop
  endfacet
  facet normal 0 0 1
    outer loop
      vertex -8.88237 -55.2602 1
      vertex -6.98236 -41.3438 1
      vertex -7.20285 -40.1502 1
    endloop
  endfacet
  facet normal 0 0 1
    outer loop
      vertex -8.88237 -55.2602 1
      vertex -7.20285 -40.1502 1
      vertex -7.38942 -38.8447 1
    endloop
  endfacet
  facet normal 0 0 1
    outer loop
      vertex -8.88237 -55.2602 1
      vertex -7.38942 -38.8447 1
      vertex -7.54205 -37.4271 1
    endloop
  endfacet
  facet normal 0 0 1
    outer loop
      vertex -8.88237 -55.2602 1
      vertex -7.54205 -37.4271 1
      vertex -7.66078 -35.8975 1
    endloop
  endfacet
  facet normal 0 0 1
    outer loop
      vertex -8.88237 -55.2602 1
      vertex -7.66078 -35.8975 1
      vertex -7.74559 -34.256 1
    endloop
  endfacet
  facet normal 0 0 1
    outer loop
      vertex -3.30141 -48.0316 1
      vertex -8.88237 -55.2602 1
      vertex -6.84201 -56.2403 1
    endloop
  endfacet
  facet normal 0 0 1
    outer loop
      vertex -7.79646 -32.5024 1
      vertex -8.88237 -55.2602 1
      vertex -7.74559 -34.256 1
    endloop
  endfacet
  facet normal 0 0 1
    outer loop
      vertex -8.88237 -55.2602 1
      vertex -7.79646 -32.5024 1
      vertex -7.81343 -30.6369 1
    endloop
  endfacet
  facet normal -0 0 1
    outer loop
      vertex -3.63875 -25.6505 1
      vertex 4.67184 -35.275 1
      vertex 4.67184 -25.6505 1
    endloop
  endfacet
  facet normal 0 0 1
    outer loop
      vertex 4.67184 -35.275 1
      vertex -3.63875 -25.6505 1
      vertex -3.63875 -35.275 1
    endloop
  endfacet
  facet normal 0.171454 -0.985192 0
    outer loop
      vertex 3.02292 -57.36 0
      vertex 5.44318 -56.9388 1
      vertex 3.02292 -57.36 1
    endloop
  endfacet
  facet normal 0.171454 -0.985192 0
    outer loop
      vertex 5.44318 -56.9388 1
      vertex 3.02292 -57.36 0
      vertex 5.44318 -56.9388 0
    endloop
  endfacet
  facet normal 0.299389 -0.954131 0
    outer loop
      vertex 5.44318 -56.9388 0
      vertex 7.6804 -56.2368 1
      vertex 5.44318 -56.9388 1
    endloop
  endfacet
  facet normal 0.299389 -0.954131 0
    outer loop
      vertex 7.6804 -56.2368 1
      vertex 5.44318 -56.9388 0
      vertex 7.6804 -56.2368 0
    endloop
  endfacet
  facet normal 0.431619 -0.902056 0
    outer loop
      vertex 7.6804 -56.2368 0
      vertex 9.7346 -55.2539 1
      vertex 7.6804 -56.2368 1
    endloop
  endfacet
  facet normal 0.431619 -0.902056 0
    outer loop
      vertex 9.7346 -55.2539 1
      vertex 7.6804 -56.2368 0
      vertex 9.7346 -55.2539 0
    endloop
  endfacet
  facet normal 0.559637 -0.828738 0
    outer loop
      vertex 9.7346 -55.2539 0
      vertex 11.6058 -53.9903 1
      vertex 9.7346 -55.2539 1
    endloop
  endfacet
  facet normal 0.559637 -0.828738 0
    outer loop
      vertex 11.6058 -53.9903 1
      vertex 9.7346 -55.2539 0
      vertex 11.6058 -53.9903 0
    endloop
  endfacet
  facet normal 0.67503 -0.737791 0
    outer loop
      vertex 11.6058 -53.9903 0
      vertex 13.2939 -52.4458 1
      vertex 11.6058 -53.9903 1
    endloop
  endfacet
  facet normal 0.67503 -0.737791 0
    outer loop
      vertex 13.2939 -52.4458 1
      vertex 11.6058 -53.9903 0
      vertex 13.2939 -52.4458 0
    endloop
  endfacet
  facet normal 0.771534 -0.636189 0
    outer loop
      vertex 13.2939 -52.4458 1
      vertex 14.799 -50.6205 0
      vertex 14.799 -50.6205 1
    endloop
  endfacet
  facet normal 0.771534 -0.636189 0
    outer loop
      vertex 14.799 -50.6205 0
      vertex 13.2939 -52.4458 1
      vertex 13.2939 -52.4458 0
    endloop
  endfacet
  facet normal 0.847142 -0.531366 0
    outer loop
      vertex 14.799 -50.6205 1
      vertex 16.1117 -48.5277 0
      vertex 16.1117 -48.5277 1
    endloop
  endfacet
  facet normal 0.847142 -0.531366 0
    outer loop
      vertex 16.1117 -48.5277 0
      vertex 14.799 -50.6205 1
      vertex 14.799 -50.6205 0
    endloop
  endfacet
  facet normal 0.903885 -0.427775 0
    outer loop
      vertex 16.1117 -48.5277 1
      vertex 17.2224 -46.1808 0
      vertex 17.2224 -46.1808 1
    endloop
  endfacet
  facet normal 0.903885 -0.427775 0
    outer loop
      vertex 17.2224 -46.1808 0
      vertex 16.1117 -48.5277 1
      vertex 16.1117 -48.5277 0
    endloop
  endfacet
  facet normal 0.944037 -0.329839 0
    outer loop
      vertex 17.2224 -46.1808 1
      vertex 18.1311 -43.58 0
      vertex 18.1311 -43.58 1
    endloop
  endfacet
  facet normal 0.944037 -0.329839 0
    outer loop
      vertex 18.1311 -43.58 0
      vertex 17.2224 -46.1808 1
      vertex 17.2224 -46.1808 0
    endloop
  endfacet
  facet normal 0.970692 -0.240327 0
    outer loop
      vertex 18.1311 -43.58 1
      vertex 18.8379 -40.7252 0
      vertex 18.8379 -40.7252 1
    endloop
  endfacet
  facet normal 0.970692 -0.240327 0
    outer loop
      vertex 18.8379 -40.7252 0
      vertex 18.1311 -43.58 1
      vertex 18.1311 -43.58 0
    endloop
  endfacet
  facet normal 0.987072 -0.160279 0
    outer loop
      vertex 18.8379 -40.7252 1
      vertex 19.3427 -37.6164 0
      vertex 19.3427 -37.6164 1
    endloop
  endfacet
  facet normal 0.987072 -0.160279 0
    outer loop
      vertex 19.3427 -37.6164 0
      vertex 18.8379 -40.7252 1
      vertex 18.8379 -40.7252 0
    endloop
  endfacet
  facet normal 0.995965 -0.0897399 0
    outer loop
      vertex 19.3427 -37.6164 1
      vertex 19.6457 -34.2536 0
      vertex 19.6457 -34.2536 1
    endloop
  endfacet
  facet normal 0.995965 -0.0897399 0
    outer loop
      vertex 19.6457 -34.2536 0
      vertex 19.3427 -37.6164 1
      vertex 19.3427 -37.6164 0
    endloop
  endfacet
  facet normal 0.999611 -0.0278875 0
    outer loop
      vertex 19.6457 -34.2536 1
      vertex 19.7466 -30.6369 0
      vertex 19.7466 -30.6369 1
    endloop
  endfacet
  facet normal 0.999611 -0.0278875 0
    outer loop
      vertex 19.7466 -30.6369 0
      vertex 19.6457 -34.2536 1
      vertex 19.6457 -34.2536 0
    endloop
  endfacet
  facet normal 0.999667 0.0258052 0
    outer loop
      vertex 19.7466 -30.6369 1
      vertex 19.6512 -26.9412 0
      vertex 19.6512 -26.9412 1
    endloop
  endfacet
  facet normal 0.999667 0.0258052 0
    outer loop
      vertex 19.6512 -26.9412 0
      vertex 19.7466 -30.6369 1
      vertex 19.7466 -30.6369 0
    endloop
  endfacet
  facet normal 0.996518 0.0833828 0
    outer loop
      vertex 19.6512 -26.9412 1
      vertex 19.3648 -23.5184 0
      vertex 19.3648 -23.5184 1
    endloop
  endfacet
  facet normal 0.996518 0.0833828 0
    outer loop
      vertex 19.3648 -23.5184 0
      vertex 19.6512 -26.9412 1
      vertex 19.6512 -26.9412 0
    endloop
  endfacet
  facet normal 0.988713 0.149823 0
    outer loop
      vertex 19.3648 -23.5184 1
      vertex 18.8875 -20.3686 0
      vertex 18.8875 -20.3686 1
    endloop
  endfacet
  facet normal 0.988713 0.149823 0
    outer loop
      vertex 18.8875 -20.3686 0
      vertex 19.3648 -23.5184 1
      vertex 19.3648 -23.5184 0
    endloop
  endfacet
  facet normal 0.974071 0.226242 0
    outer loop
      vertex 18.8875 -20.3686 1
      vertex 18.2193 -17.4917 0
      vertex 18.2193 -17.4917 1
    endloop
  endfacet
  facet normal 0.974071 0.226242 0
    outer loop
      vertex 18.2193 -17.4917 0
      vertex 18.8875 -20.3686 1
      vertex 18.8875 -20.3686 0
    endloop
  endfacet
  facet normal 0.949649 0.313316 0
    outer loop
      vertex 18.2193 -17.4917 1
      vertex 17.3602 -14.8878 0
      vertex 17.3602 -14.8878 1
    endloop
  endfacet
  facet normal 0.949649 0.313316 0
    outer loop
      vertex 17.3602 -14.8878 0
      vertex 18.2193 -17.4917 1
      vertex 18.2193 -17.4917 0
    endloop
  endfacet
  facet normal 0.911768 0.410706 0
    outer loop
      vertex 17.3602 -14.8878 1
      vertex 16.3102 -12.5568 0
      vertex 16.3102 -12.5568 1
    endloop
  endfacet
  facet normal 0.911768 0.410706 0
    outer loop
      vertex 16.3102 -12.5568 0
      vertex 17.3602 -14.8878 1
      vertex 17.3602 -14.8878 0
    endloop
  endfacet
  facet normal 0.856353 0.516391 0
    outer loop
      vertex 16.3102 -12.5568 1
      vertex 15.0692 -10.4988 0
      vertex 15.0692 -10.4988 1
    endloop
  endfacet
  facet normal 0.856353 0.516391 0
    outer loop
      vertex 15.0692 -10.4988 0
      vertex 16.3102 -12.5568 1
      vertex 16.3102 -12.5568 0
    endloop
  endfacet
  facet normal 0.778643 0.627467 0
    outer loop
      vertex 15.0692 -10.4988 1
      vertex 13.6312 -8.71434 0
      vertex 13.6312 -8.71434 1
    endloop
  endfacet
  facet normal 0.778643 0.627467 0
    outer loop
      vertex 13.6312 -8.71434 0
      vertex 15.0692 -10.4988 1
      vertex 15.0692 -10.4988 0
    endloop
  endfacet
  facet normal 0.676993 0.735989 -0
    outer loop
      vertex 13.6312 -8.71434 0
      vertex 11.9897 -7.20442 1
      vertex 13.6312 -8.71434 1
    endloop
  endfacet
  facet normal 0.676993 0.735989 0
    outer loop
      vertex 11.9897 -7.20442 1
      vertex 13.6312 -8.71434 0
      vertex 11.9897 -7.20442 0
    endloop
  endfacet
  facet normal 0.556362 0.83094 -0
    outer loop
      vertex 11.9897 -7.20442 0
      vertex 10.1446 -5.96902 1
      vertex 11.9897 -7.20442 1
    endloop
  endfacet
  facet normal 0.556362 0.83094 0
    outer loop
      vertex 10.1446 -5.96902 1
      vertex 11.9897 -7.20442 0
      vertex 10.1446 -5.96902 0
    endloop
  endfacet
  facet normal 0.42465 0.905357 -0
    outer loop
      vertex 10.1446 -5.96902 0
      vertex 8.09604 -5.00816 1
      vertex 10.1446 -5.96902 1
    endloop
  endfacet
  facet normal 0.42465 0.905357 0
    outer loop
      vertex 8.09604 -5.00816 1
      vertex 10.1446 -5.96902 0
      vertex 8.09604 -5.00816 0
    endloop
  endfacet
  facet normal 0.291506 0.956569 -0
    outer loop
      vertex 8.09604 -5.00816 0
      vertex 5.84393 -4.32185 1
      vertex 8.09604 -5.00816 1
    endloop
  endfacet
  facet normal 0.291506 0.956569 0
    outer loop
      vertex 5.84393 -4.32185 1
      vertex 8.09604 -5.00816 0
      vertex 5.84393 -4.32185 0
    endloop
  endfacet
  facet normal 0.165384 0.986229 -0
    outer loop
      vertex 5.84393 -4.32185 0
      vertex 3.38831 -3.91006 1
      vertex 5.84393 -4.32185 1
    endloop
  endfacet
  facet normal 0.165384 0.986229 0
    outer loop
      vertex 3.38831 -3.91006 1
      vertex 5.84393 -4.32185 0
      vertex 3.38831 -3.91006 0
    endloop
  endfacet
  facet normal 0.0515493 0.99867 -0
    outer loop
      vertex 3.38831 -3.91006 0
      vertex 0.729156 -3.7728 1
      vertex 3.38831 -3.91006 1
    endloop
  endfacet
  facet normal 0.0515493 0.99867 0
    outer loop
      vertex 0.729156 -3.7728 1
      vertex 3.38831 -3.91006 0
      vertex 0.729156 -3.7728 0
    endloop
  endfacet
  facet normal -0.0491013 0.998794 0
    outer loop
      vertex 0.729156 -3.7728 0
      vertex -2.02264 -3.90808 1
      vertex 0.729156 -3.7728 1
    endloop
  endfacet
  facet normal -0.0491013 0.998794 0
    outer loop
      vertex -2.02264 -3.90808 1
      vertex 0.729156 -3.7728 0
      vertex -2.02264 -3.90808 0
    endloop
  endfacet
  facet normal -0.158098 0.987423 0
    outer loop
      vertex -2.02264 -3.90808 0
      vertex -4.55756 -4.31395 1
      vertex -2.02264 -3.90808 1
    endloop
  endfacet
  facet normal -0.158098 0.987423 0
    outer loop
      vertex -4.55756 -4.31395 1
      vertex -2.02264 -3.90808 0
      vertex -4.55756 -4.31395 0
    endloop
  endfacet
  facet normal -0.280137 0.95996 0
    outer loop
      vertex -4.55756 -4.31395 0
      vertex -6.87555 -4.99039 1
      vertex -4.55756 -4.31395 1
    endloop
  endfacet
  facet normal -0.280137 0.95996 0
    outer loop
      vertex -6.87555 -4.99039 1
      vertex -4.55756 -4.31395 0
      vertex -6.87555 -4.99039 0
    endloop
  endfacet
  facet normal -0.410908 0.911677 0
    outer loop
      vertex -6.87555 -4.99039 0
      vertex -8.97665 -5.93739 1
      vertex -6.87555 -4.99039 1
    endloop
  endfacet
  facet normal -0.410908 0.911677 0
    outer loop
      vertex -8.97665 -5.93739 1
      vertex -6.87555 -4.99039 0
      vertex -8.97665 -5.93739 0
    endloop
  endfacet
  facet normal -0.542739 0.839902 0
    outer loop
      vertex -8.97665 -5.93739 0
      vertex -10.8609 -7.15498 1
      vertex -8.97665 -5.93739 1
    endloop
  endfacet
  facet normal -0.542739 0.839902 0
    outer loop
      vertex -10.8609 -7.15498 1
      vertex -8.97665 -5.93739 0
      vertex -10.8609 -7.15498 0
    endloop
  endfacet
  facet normal -0.665891 0.746049 0
    outer loop
      vertex -10.8609 -7.15498 0
      vertex -12.5282 -8.64314 1
      vertex -10.8609 -7.15498 1
    endloop
  endfacet
  facet normal -0.665891 0.746049 0
    outer loop
      vertex -12.5282 -8.64314 1
      vertex -10.8609 -7.15498 0
      vertex -12.5282 -8.64314 0
    endloop
  endfacet
  facet normal -0.771519 0.636206 0
    outer loop
      vertex -13.9785 -10.4019 0
      vertex -12.5282 -8.64314 1
      vertex -12.5282 -8.64314 0
    endloop
  endfacet
  facet normal -0.771519 0.636206 0
    outer loop
      vertex -12.5282 -8.64314 1
      vertex -13.9785 -10.4019 0
      vertex -13.9785 -10.4019 1
    endloop
  endfacet
  facet normal -0.852996 0.521918 0
    outer loop
      vertex -15.2245 -12.4383 0
      vertex -13.9785 -10.4019 1
      vertex -13.9785 -10.4019 0
    endloop
  endfacet
  facet normal -0.852996 0.521918 0
    outer loop
      vertex -13.9785 -10.4019 1
      vertex -15.2245 -12.4383 0
      vertex -15.2245 -12.4383 1
    endloop
  endfacet
  facet normal -0.910498 0.413513 0
    outer loop
      vertex -16.2787 -14.7595 0
      vertex -15.2245 -12.4383 1
      vertex -15.2245 -12.4383 0
    endloop
  endfacet
  facet normal -0.910498 0.413513 0
    outer loop
      vertex -15.2245 -12.4383 1
      vertex -16.2787 -14.7595 0
      vertex -16.2787 -14.7595 1
    endloop
  endfacet
  facet normal -0.949341 0.314249 0
    outer loop
      vertex -17.1413 -17.3654 0
      vertex -16.2787 -14.7595 1
      vertex -16.2787 -14.7595 0
    endloop
  endfacet
  facet normal -0.949341 0.314249 0
    outer loop
      vertex -16.2787 -14.7595 1
      vertex -17.1413 -17.3654 0
      vertex -17.1413 -17.3654 1
    endloop
  endfacet
  facet normal -0.974109 0.22608 0
    outer loop
      vertex -17.8122 -20.2561 0
      vertex -17.1413 -17.3654 1
      vertex -17.1413 -17.3654 0
    endloop
  endfacet
  facet normal -0.974109 0.22608 0
    outer loop
      vertex -17.1413 -17.3654 1
      vertex -17.8122 -20.2561 0
      vertex -17.8122 -20.2561 1
    endloop
  endfacet
  facet normal -0.988805 0.149216 0
    outer loop
      vertex -18.2914 -23.4316 0
      vertex -17.8122 -20.2561 1
      vertex -17.8122 -20.2561 0
    endloop
  endfacet
  facet normal -0.988805 0.149216 0
    outer loop
      vertex -17.8122 -20.2561 1
      vertex -18.2914 -23.4316 0
      vertex -18.2914 -23.4316 1
    endloop
  endfacet
  facet normal -0.996566 0.0828 0
    outer loop
      vertex -18.5789 -26.8919 0
      vertex -18.2914 -23.4316 1
      vertex -18.2914 -23.4316 0
    endloop
  endfacet
  facet normal -0.996566 0.0828 0
    outer loop
      vertex -18.2914 -23.4316 1
      vertex -18.5789 -26.8919 0
      vertex -18.5789 -26.8919 1
    endloop
  endfacet
  facet normal -0.999672 0.0255991 0
    outer loop
      vertex -18.6748 -30.6369 0
      vertex -18.5789 -26.8919 1
      vertex -18.5789 -26.8919 0
    endloop
  endfacet
  facet normal -0.999672 0.0255991 0
    outer loop
      vertex -18.5789 -26.8919 1
      vertex -18.6748 -30.6369 0
      vertex -18.6748 -30.6369 1
    endloop
  endfacet
  facet normal -0.999634 -0.0270678 0
    outer loop
      vertex -18.5766 -34.2635 0
      vertex -18.6748 -30.6369 1
      vertex -18.6748 -30.6369 0
    endloop
  endfacet
  facet normal -0.999634 -0.0270678 0
    outer loop
      vertex -18.6748 -30.6369 1
      vertex -18.5766 -34.2635 0
      vertex -18.5766 -34.2635 1
    endloop
  endfacet
  facet normal -0.996201 -0.0870786 0
    outer loop
      vertex -18.282 -37.6338 0
      vertex -18.5766 -34.2635 1
      vertex -18.5766 -34.2635 0
    endloop
  endfacet
  facet normal -0.996201 -0.0870786 0
    outer loop
      vertex -18.5766 -34.2635 1
      vertex -18.282 -37.6338 0
      vertex -18.282 -37.6338 1
    endloop
  endfacet
  facet normal -0.987796 -0.155751 0
    outer loop
      vertex -17.791 -40.7478 0
      vertex -18.282 -37.6338 1
      vertex -18.282 -37.6338 0
    endloop
  endfacet
  facet normal -0.987796 -0.155751 0
    outer loop
      vertex -18.282 -37.6338 1
      vertex -17.791 -40.7478 0
      vertex -17.791 -40.7478 1
    endloop
  endfacet
  facet normal -0.972256 -0.23392 0
    outer loop
      vertex -17.1035 -43.6053 0
      vertex -17.791 -40.7478 1
      vertex -17.791 -40.7478 0
    endloop
  endfacet
  facet normal -0.972256 -0.23392 0
    outer loop
      vertex -17.791 -40.7478 1
      vertex -17.1035 -43.6053 0
      vertex -17.1035 -43.6053 1
    endloop
  endfacet
  facet normal -0.94684 -0.321704 0
    outer loop
      vertex -16.2197 -46.2065 0
      vertex -17.1035 -43.6053 1
      vertex -17.1035 -43.6053 0
    endloop
  endfacet
  facet normal -0.94684 -0.321704 0
    outer loop
      vertex -17.1035 -43.6053 1
      vertex -16.2197 -46.2065 0
      vertex -16.2197 -46.2065 1
    endloop
  endfacet
  facet normal -0.908263 -0.4184 0
    outer loop
      vertex -15.1395 -48.5514 0
      vertex -16.2197 -46.2065 1
      vertex -16.2197 -46.2065 0
    endloop
  endfacet
  facet normal -0.908263 -0.4184 0
    outer loop
      vertex -16.2197 -46.2065 1
      vertex -15.1395 -48.5514 0
      vertex -15.1395 -48.5514 1
    endloop
  endfacet
  facet normal -0.85321 -0.521567 0
    outer loop
      vertex -13.8628 -50.6399 0
      vertex -15.1395 -48.5514 1
      vertex -15.1395 -48.5514 0
    endloop
  endfacet
  facet normal -0.85321 -0.521567 0
    outer loop
      vertex -15.1395 -48.5514 1
      vertex -13.8628 -50.6399 0
      vertex -13.8628 -50.6399 1
    endloop
  endfacet
  facet normal -0.777958 -0.628316 0
    outer loop
      vertex -12.3928 -52.46 0
      vertex -13.8628 -50.6399 1
      vertex -13.8628 -50.6399 0
    endloop
  endfacet
  facet normal -0.777958 -0.628316 0
    outer loop
      vertex -13.8628 -50.6399 1
      vertex -12.3928 -52.46 0
      vertex -12.3928 -52.46 1
    endloop
  endfacet
  facet normal -0.680116 -0.733105 0
    outer loop
      vertex -12.3928 -52.46 0
      vertex -10.7326 -54.0002 1
      vertex -12.3928 -52.46 1
    endloop
  endfacet
  facet normal -0.680116 -0.733105 -0
    outer loop
      vertex -10.7326 -54.0002 1
      vertex -12.3928 -52.46 0
      vertex -10.7326 -54.0002 0
    endloop
  endfacet
  facet normal -0.562873 -0.826543 0
    outer loop
      vertex -10.7326 -54.0002 0
      vertex -8.88237 -55.2602 1
      vertex -10.7326 -54.0002 1
    endloop
  endfacet
  facet normal -0.562873 -0.826543 -0
    outer loop
      vertex -8.88237 -55.2602 1
      vertex -10.7326 -54.0002 0
      vertex -8.88237 -55.2602 0
    endloop
  endfacet
  facet normal -0.432992 -0.901398 0
    outer loop
      vertex -8.88237 -55.2602 0
      vertex -6.84201 -56.2403 1
      vertex -8.88237 -55.2602 1
    endloop
  endfacet
  facet normal -0.432992 -0.901398 -0
    outer loop
      vertex -6.84201 -56.2403 1
      vertex -8.88237 -55.2602 0
      vertex -6.84201 -56.2403 0
    endloop
  endfacet
  facet normal -0.299477 -0.954104 0
    outer loop
      vertex -6.84201 -56.2403 0
      vertex -4.61156 -56.9404 1
      vertex -6.84201 -56.2403 1
    endloop
  endfacet
  facet normal -0.299477 -0.954104 -0
    outer loop
      vertex -4.61156 -56.9404 1
      vertex -6.84201 -56.2403 0
      vertex -4.61156 -56.9404 0
    endloop
  endfacet
  facet normal -0.17096 -0.985278 0
    outer loop
      vertex -4.61156 -56.9404 0
      vertex -2.19101 -57.3604 1
      vertex -4.61156 -56.9404 1
    endloop
  endfacet
  facet normal -0.17096 -0.985278 -0
    outer loop
      vertex -2.19101 -57.3604 1
      vertex -4.61156 -56.9404 0
      vertex -2.19101 -57.3604 0
    endloop
  endfacet
  facet normal -0.0535497 -0.998565 0
    outer loop
      vertex -2.19101 -57.3604 0
      vertex 0.419632 -57.5004 1
      vertex -2.19101 -57.3604 1
    endloop
  endfacet
  facet normal -0.0535497 -0.998565 -0
    outer loop
      vertex 0.419632 -57.5004 1
      vertex -2.19101 -57.3604 0
      vertex 0.419632 -57.5004 0
    endloop
  endfacet
  facet normal 0.0538535 -0.998549 0
    outer loop
      vertex 0.419632 -57.5004 0
      vertex 3.02292 -57.36 1
      vertex 0.419632 -57.5004 1
    endloop
  endfacet
  facet normal 0.0538535 -0.998549 0
    outer loop
      vertex 3.02292 -57.36 1
      vertex 0.419632 -57.5004 0
      vertex 3.02292 -57.36 0
    endloop
  endfacet
  facet normal 0.134689 0.990888 -0
    outer loop
      vertex -0.379288 -48.9213 0
      vertex -1.19737 -48.8101 1
      vertex -0.379288 -48.9213 1
    endloop
  endfacet
  facet normal 0.134689 0.990888 0
    outer loop
      vertex -1.19737 -48.8101 1
      vertex -0.379288 -48.9213 0
      vertex -1.19737 -48.8101 0
    endloop
  endfacet
  facet normal 0.23708 0.97149 -0
    outer loop
      vertex -1.19737 -48.8101 0
      vertex -1.95709 -48.6247 1
      vertex -1.19737 -48.8101 1
    endloop
  endfacet
  facet normal 0.23708 0.97149 0
    outer loop
      vertex -1.95709 -48.6247 1
      vertex -1.19737 -48.8101 0
      vertex -1.95709 -48.6247 0
    endloop
  endfacet
  facet normal 0.347014 0.93786 -0
    outer loop
      vertex -1.95709 -48.6247 0
      vertex -2.65843 -48.3652 1
      vertex -1.95709 -48.6247 1
    endloop
  endfacet
  facet normal 0.347014 0.93786 0
    outer loop
      vertex -2.65843 -48.3652 1
      vertex -1.95709 -48.6247 0
      vertex -2.65843 -48.3652 0
    endloop
  endfacet
  facet normal 0.460538 0.88764 -0
    outer loop
      vertex -2.65843 -48.3652 0
      vertex -3.30141 -48.0316 1
      vertex -2.65843 -48.3652 1
    endloop
  endfacet
  facet normal 0.460538 0.88764 0
    outer loop
      vertex -3.30141 -48.0316 1
      vertex -2.65843 -48.3652 0
      vertex -3.30141 -48.0316 0
    endloop
  endfacet
  facet normal 0.572225 0.820096 -0
    outer loop
      vertex -3.30141 -48.0316 0
      vertex -3.886 -47.6237 1
      vertex -3.30141 -48.0316 1
    endloop
  endfacet
  facet normal 0.572225 0.820096 0
    outer loop
      vertex -3.886 -47.6237 1
      vertex -3.30141 -48.0316 0
      vertex -3.886 -47.6237 0
    endloop
  endfacet
  facet normal 0.675361 0.737487 -0
    outer loop
      vertex -3.886 -47.6237 0
      vertex -4.41223 -47.1418 1
      vertex -3.886 -47.6237 1
    endloop
  endfacet
  facet normal 0.675361 0.737487 0
    outer loop
      vertex -4.41223 -47.1418 1
      vertex -3.886 -47.6237 0
      vertex -4.41223 -47.1418 0
    endloop
  endfacet
  facet normal 0.762243 0.647291 0
    outer loop
      vertex -4.41223 -47.1418 1
      vertex -4.89058 -46.5785 0
      vertex -4.89058 -46.5785 1
    endloop
  endfacet
  facet normal 0.762243 0.647291 0
    outer loop
      vertex -4.89058 -46.5785 0
      vertex -4.41223 -47.1418 1
      vertex -4.41223 -47.1418 0
    endloop
  endfacet
  facet normal 0.828033 0.560679 0
    outer loop
      vertex -4.89058 -46.5785 1
      vertex -5.33186 -45.9268 0
      vertex -5.33186 -45.9268 1
    endloop
  endfacet
  facet normal 0.828033 0.560679 0
    outer loop
      vertex -5.33186 -45.9268 0
      vertex -4.89058 -46.5785 1
      vertex -4.89058 -46.5785 0
    endloop
  endfacet
  facet normal 0.877604 0.479385 0
    outer loop
      vertex -5.33186 -45.9268 1
      vertex -5.73608 -45.1868 0
      vertex -5.73608 -45.1868 1
    endloop
  endfacet
  facet normal 0.877604 0.479385 0
    outer loop
      vertex -5.73608 -45.1868 0
      vertex -5.33186 -45.9268 1
      vertex -5.33186 -45.9268 0
    endloop
  endfacet
  facet normal 0.914202 0.40526 0
    outer loop
      vertex -5.73608 -45.1868 1
      vertex -6.10326 -44.3585 0
      vertex -6.10326 -44.3585 1
    endloop
  endfacet
  facet normal 0.914202 0.40526 0
    outer loop
      vertex -6.10326 -44.3585 0
      vertex -5.73608 -45.1868 1
      vertex -5.73608 -45.1868 0
    endloop
  endfacet
  facet normal 0.94085 0.338823 0
    outer loop
      vertex -6.10326 -44.3585 1
      vertex -6.43335 -43.4419 0
      vertex -6.43335 -43.4419 1
    endloop
  endfacet
  facet normal 0.94085 0.338823 0
    outer loop
      vertex -6.43335 -43.4419 0
      vertex -6.10326 -44.3585 1
      vertex -6.10326 -44.3585 0
    endloop
  endfacet
  facet normal 0.960014 0.279951 0
    outer loop
      vertex -6.43335 -43.4419 1
      vertex -6.72639 -42.437 0
      vertex -6.72639 -42.437 1
    endloop
  endfacet
  facet normal 0.960014 0.279951 0
    outer loop
      vertex -6.72639 -42.437 0
      vertex -6.43335 -43.4419 1
      vertex -6.43335 -43.4419 0
    endloop
  endfacet
  facet normal 0.973666 0.227981 0
    outer loop
      vertex -6.72639 -42.437 1
      vertex -6.98236 -41.3438 0
      vertex -6.98236 -41.3438 1
    endloop
  endfacet
  facet normal 0.973666 0.227981 0
    outer loop
      vertex -6.98236 -41.3438 0
      vertex -6.72639 -42.437 1
      vertex -6.72639 -42.437 0
    endloop
  endfacet
  facet normal 0.983363 0.181654 0
    outer loop
      vertex -6.98236 -41.3438 1
      vertex -7.20285 -40.1502 0
      vertex -7.20285 -40.1502 1
    endloop
  endfacet
  facet normal 0.983363 0.181654 0
    outer loop
      vertex -7.20285 -40.1502 0
      vertex -6.98236 -41.3438 1
      vertex -6.98236 -41.3438 0
    endloop
  endfacet
  facet normal 0.989942 0.141473 0
    outer loop
      vertex -7.20285 -40.1502 1
      vertex -7.38942 -38.8447 0
      vertex -7.38942 -38.8447 1
    endloop
  endfacet
  facet normal 0.989942 0.141473 0
    outer loop
      vertex -7.38942 -38.8447 0
      vertex -7.20285 -40.1502 1
      vertex -7.20285 -40.1502 0
    endloop
  endfacet
  facet normal 0.994254 0.107049 0
    outer loop
      vertex -7.38942 -38.8447 1
      vertex -7.54205 -37.4271 0
      vertex -7.54205 -37.4271 1
    endloop
  endfacet
  facet normal 0.994254 0.107049 0
    outer loop
      vertex -7.54205 -37.4271 0
      vertex -7.38942 -38.8447 1
      vertex -7.38942 -38.8447 0
    endloop
  endfacet
  facet normal 0.997001 0.0773888 0
    outer loop
      vertex -7.54205 -37.4271 1
      vertex -7.66078 -35.8975 0
      vertex -7.66078 -35.8975 1
    endloop
  endfacet
  facet normal 0.997001 0.0773888 0
    outer loop
      vertex -7.66078 -35.8975 0
      vertex -7.54205 -37.4271 1
      vertex -7.54205 -37.4271 0
    endloop
  endfacet
  facet normal 0.998668 0.0515973 0
    outer loop
      vertex -7.66078 -35.8975 1
      vertex -7.74559 -34.256 0
      vertex -7.74559 -34.256 1
    endloop
  endfacet
  facet normal 0.998668 0.0515973 0
    outer loop
      vertex -7.74559 -34.256 0
      vertex -7.66078 -35.8975 1
      vertex -7.66078 -35.8975 0
    endloop
  endfacet
  facet normal 0.99958 0.0289967 0
    outer loop
      vertex -7.74559 -34.256 1
      vertex -7.79646 -32.5024 0
      vertex -7.79646 -32.5024 1
    endloop
  endfacet
  facet normal 0.99958 0.0289967 0
    outer loop
      vertex -7.79646 -32.5024 0
      vertex -7.74559 -34.256 1
      vertex -7.74559 -34.256 0
    endloop
  endfacet
  facet normal 0.999959 0.00909638 0
    outer loop
      vertex -7.79646 -32.5024 1
      vertex -7.81343 -30.6369 0
      vertex -7.81343 -30.6369 1
    endloop
  endfacet
  facet normal 0.999959 0.00909638 0
    outer loop
      vertex -7.81343 -30.6369 0
      vertex -7.79646 -32.5024 1
      vertex -7.79646 -32.5024 0
    endloop
  endfacet
  facet normal 0.999963 -0.00857475 0
    outer loop
      vertex -7.81343 -30.6369 1
      vertex -7.79726 -28.7512 0
      vertex -7.79726 -28.7512 1
    endloop
  endfacet
  facet normal 0.999963 -0.00857475 0
    outer loop
      vertex -7.79726 -28.7512 0
      vertex -7.81343 -30.6369 1
      vertex -7.81343 -30.6369 0
    endloop
  endfacet
  facet normal 0.999625 -0.0273996 0
    outer loop
      vertex -7.79726 -28.7512 1
      vertex -7.74875 -26.9814 0
      vertex -7.74875 -26.9814 1
    endloop
  endfacet
  facet normal 0.999625 -0.0273996 0
    outer loop
      vertex -7.74875 -26.9814 0
      vertex -7.79726 -28.7512 1
      vertex -7.79726 -28.7512 0
    endloop
  endfacet
  facet normal 0.998807 -0.0488231 0
    outer loop
      vertex -7.74875 -26.9814 1
      vertex -7.66791 -25.3276 0
      vertex -7.66791 -25.3276 1
    endloop
  endfacet
  facet normal 0.998807 -0.0488231 0
    outer loop
      vertex -7.66791 -25.3276 0
      vertex -7.74875 -26.9814 1
      vertex -7.74875 -26.9814 0
    endloop
  endfacet
  facet normal 0.997302 -0.0734018 0
    outer loop
      vertex -7.66791 -25.3276 1
      vertex -7.55472 -23.7897 0
      vertex -7.55472 -23.7897 1
    endloop
  endfacet
  facet normal 0.997302 -0.0734018 0
    outer loop
      vertex -7.55472 -23.7897 0
      vertex -7.66791 -25.3276 1
      vertex -7.66791 -25.3276 0
    endloop
  endfacet
  facet normal 0.994803 -0.101817 0
    outer loop
      vertex -7.55472 -23.7897 1
      vertex -7.40919 -22.3678 0
      vertex -7.40919 -22.3678 1
    endloop
  endfacet
  facet normal 0.994803 -0.101817 0
    outer loop
      vertex -7.40919 -22.3678 0
      vertex -7.55472 -23.7897 1
      vertex -7.55472 -23.7897 0
    endloop
  endfacet
  facet normal 0.990851 -0.134959 0
    outer loop
      vertex -7.40919 -22.3678 1
      vertex -7.23132 -21.0619 0
      vertex -7.23132 -21.0619 1
    endloop
  endfacet
  facet normal 0.990851 -0.134959 0
    outer loop
      vertex -7.23132 -21.0619 0
      vertex -7.40919 -22.3678 1
      vertex -7.40919 -22.3678 0
    endloop
  endfacet
  facet normal 0.984755 -0.173946 0
    outer loop
      vertex -7.23132 -21.0619 1
      vertex -7.02112 -19.8719 0
      vertex -7.02112 -19.8719 1
    endloop
  endfacet
  facet normal 0.984755 -0.173946 0
    outer loop
      vertex -7.02112 -19.8719 0
      vertex -7.23132 -21.0619 1
      vertex -7.23132 -21.0619 0
    endloop
  endfacet
  facet normal 0.97527 -0.221015 0
    outer loop
      vertex -7.02112 -19.8719 1
      vertex -6.77449 -18.7836 0
      vertex -6.77449 -18.7836 1
    endloop
  endfacet
  facet normal 0.97527 -0.221015 0
    outer loop
      vertex -6.77449 -18.7836 0
      vertex -7.02112 -19.8719 1
      vertex -7.02112 -19.8719 0
    endloop
  endfacet
  facet normal 0.961284 -0.27556 0
    outer loop
      vertex -6.77449 -18.7836 1
      vertex -6.48766 -17.783 0
      vertex -6.48766 -17.783 1
    endloop
  endfacet
  facet normal 0.961284 -0.27556 0
    outer loop
      vertex -6.48766 -17.783 0
      vertex -6.77449 -18.7836 1
      vertex -6.77449 -18.7836 0
    endloop
  endfacet
  facet normal 0.941434 -0.337198 0
    outer loop
      vertex -6.48766 -17.783 1
      vertex -6.16061 -16.8699 0
      vertex -6.16061 -16.8699 1
    endloop
  endfacet
  facet normal 0.941434 -0.337198 0
    outer loop
      vertex -6.16061 -16.8699 0
      vertex -6.48766 -17.783 1
      vertex -6.48766 -17.783 0
    endloop
  endfacet
  facet normal 0.913686 -0.406422 0
    outer loop
      vertex -6.16061 -16.8699 1
      vertex -5.79337 -16.0443 0
      vertex -5.79337 -16.0443 1
    endloop
  endfacet
  facet normal 0.913686 -0.406422 0
    outer loop
      vertex -5.79337 -16.0443 0
      vertex -6.16061 -16.8699 1
      vertex -6.16061 -16.8699 0
    endloop
  endfacet
  facet normal 0.875416 -0.483371 0
    outer loop
      vertex -5.79337 -16.0443 1
      vertex -5.38593 -15.3064 0
      vertex -5.38593 -15.3064 1
    endloop
  endfacet
  facet normal 0.875416 -0.483371 0
    outer loop
      vertex -5.38593 -15.3064 0
      vertex -5.79337 -16.0443 1
      vertex -5.79337 -16.0443 0
    endloop
  endfacet
  facet normal 0.823746 -0.566959 0
    outer loop
      vertex -5.38593 -15.3064 1
      vertex -4.93828 -14.656 0
      vertex -4.93828 -14.656 1
    endloop
  endfacet
  facet normal 0.823746 -0.566959 0
    outer loop
      vertex -4.93828 -14.656 0
      vertex -5.38593 -15.3064 1
      vertex -5.38593 -15.3064 0
    endloop
  endfacet
  facet normal 0.755623 -0.655007 0
    outer loop
      vertex -4.93828 -14.656 1
      vertex -4.45042 -14.0932 0
      vertex -4.45042 -14.0932 1
    endloop
  endfacet
  facet normal 0.755623 -0.655007 0
    outer loop
      vertex -4.45042 -14.0932 0
      vertex -4.93828 -14.656 1
      vertex -4.93828 -14.656 0
    endloop
  endfacet
  facet normal 0.666172 -0.745798 0
    outer loop
      vertex -4.45042 -14.0932 0
      vertex -3.91092 -13.6113 1
      vertex -4.45042 -14.0932 1
    endloop
  endfacet
  facet normal 0.666172 -0.745798 0
    outer loop
      vertex -3.91092 -13.6113 1
      vertex -4.45042 -14.0932 0
      vertex -3.91092 -13.6113 0
    endloop
  endfacet
  facet normal 0.560534 -0.828131 0
    outer loop
      vertex -3.91092 -13.6113 0
      vertex -3.30829 -13.2034 1
      vertex -3.91092 -13.6113 1
    endloop
  endfacet
  facet normal 0.560534 -0.828131 0
    outer loop
      vertex -3.30829 -13.2034 1
      vertex -3.91092 -13.6113 0
      vertex -3.30829 -13.2034 0
    endloop
  endfacet
  facet normal 0.447987 -0.89404 0
    outer loop
      vertex -3.30829 -13.2034 0
      vertex -2.64253 -12.8698 1
      vertex -3.30829 -13.2034 1
    endloop
  endfacet
  facet normal 0.447987 -0.89404 0
    outer loop
      vertex -2.64253 -12.8698 1
      vertex -3.30829 -13.2034 0
      vertex -2.64253 -12.8698 0
    endloop
  endfacet
  facet normal 0.335411 -0.942072 0
    outer loop
      vertex -2.64253 -12.8698 0
      vertex -1.91367 -12.6103 1
      vertex -2.64253 -12.8698 1
    endloop
  endfacet
  facet normal 0.335411 -0.942072 0
    outer loop
      vertex -1.91367 -12.6103 1
      vertex -2.64253 -12.8698 0
      vertex -1.91367 -12.6103 0
    endloop
  endfacet
  facet normal 0.227935 -0.973676 0
    outer loop
      vertex -1.91367 -12.6103 0
      vertex -1.12169 -12.4249 1
      vertex -1.91367 -12.6103 1
    endloop
  endfacet
  facet normal 0.227935 -0.973676 0
    outer loop
      vertex -1.12169 -12.4249 1
      vertex -1.91367 -12.6103 0
      vertex -1.12169 -12.4249 0
    endloop
  endfacet
  facet normal 0.128957 -0.99165 0
    outer loop
      vertex -1.12169 -12.4249 0
      vertex -0.266586 -12.3137 1
      vertex -1.12169 -12.4249 1
    endloop
  endfacet
  facet normal 0.128957 -0.99165 0
    outer loop
      vertex -0.266586 -12.3137 1
      vertex -1.12169 -12.4249 0
      vertex -0.266586 -12.3137 0
    endloop
  endfacet
  facet normal 0.0403716 -0.999185 0
    outer loop
      vertex -0.266586 -12.3137 0
      vertex 0.651627 -12.2766 1
      vertex -0.266586 -12.3137 1
    endloop
  endfacet
  facet normal 0.0403716 -0.999185 0
    outer loop
      vertex 0.651627 -12.2766 1
      vertex -0.266586 -12.3137 0
      vertex 0.651627 -12.2766 0
    endloop
  endfacet
  facet normal -0.0423304 -0.999104 0
    outer loop
      vertex 0.651627 -12.2766 0
      vertex 1.52728 -12.3137 1
      vertex 0.651627 -12.2766 1
    endloop
  endfacet
  facet normal -0.0423304 -0.999104 -0
    outer loop
      vertex 1.52728 -12.3137 1
      vertex 0.651627 -12.2766 0
      vertex 1.52728 -12.3137 0
    endloop
  endfacet
  facet normal -0.135077 -0.990835 0
    outer loop
      vertex 1.52728 -12.3137 0
      vertex 2.34297 -12.4249 1
      vertex 1.52728 -12.3137 1
    endloop
  endfacet
  facet normal -0.135077 -0.990835 -0
    outer loop
      vertex 2.34297 -12.4249 1
      vertex 1.52728 -12.3137 0
      vertex 2.34297 -12.4249 0
    endloop
  endfacet
  facet normal -0.238267 -0.9712 0
    outer loop
      vertex 2.34297 -12.4249 0
      vertex 3.09868 -12.6103 1
      vertex 2.34297 -12.4249 1
    endloop
  endfacet
  facet normal -0.238267 -0.9712 -0
    outer loop
      vertex 3.09868 -12.6103 1
      vertex 2.34297 -12.4249 0
      vertex 3.09868 -12.6103 0
    endloop
  endfacet
  facet normal -0.349476 -0.936945 0
    outer loop
      vertex 3.09868 -12.6103 0
      vertex 3.7944 -12.8698 1
      vertex 3.09868 -12.6103 1
    endloop
  endfacet
  facet normal -0.349476 -0.936945 -0
    outer loop
      vertex 3.7944 -12.8698 1
      vertex 3.09868 -12.6103 0
      vertex 3.7944 -12.8698 0
    endloop
  endfacet
  facet normal -0.46465 -0.885495 0
    outer loop
      vertex 3.7944 -12.8698 0
      vertex 4.43015 -13.2034 1
      vertex 3.7944 -12.8698 1
    endloop
  endfacet
  facet normal -0.46465 -0.885495 -0
    outer loop
      vertex 4.43015 -13.2034 1
      vertex 3.7944 -12.8698 0
      vertex 4.43015 -13.2034 0
    endloop
  endfacet
  facet normal -0.578077 -0.815982 0
    outer loop
      vertex 4.43015 -13.2034 0
      vertex 5.00592 -13.6113 1
      vertex 4.43015 -13.2034 1
    endloop
  endfacet
  facet normal -0.578077 -0.815982 -0
    outer loop
      vertex 5.00592 -13.6113 1
      vertex 4.43015 -13.2034 0
      vertex 5.00592 -13.6113 0
    endloop
  endfacet
  facet normal -0.682694 -0.730705 0
    outer loop
      vertex 5.00592 -13.6113 0
      vertex 5.52171 -14.0932 1
      vertex 5.00592 -13.6113 1
    endloop
  endfacet
  facet normal -0.682694 -0.730705 -0
    outer loop
      vertex 5.52171 -14.0932 1
      vertex 5.00592 -13.6113 0
      vertex 5.52171 -14.0932 0
    endloop
  endfacet
  facet normal -0.769014 -0.639232 0
    outer loop
      vertex 5.98953 -14.656 0
      vertex 5.52171 -14.0932 1
      vertex 5.52171 -14.0932 0
    endloop
  endfacet
  facet normal -0.769014 -0.639232 0
    outer loop
      vertex 5.52171 -14.0932 1
      vertex 5.98953 -14.656 0
      vertex 5.98953 -14.656 1
    endloop
  endfacet
  facet normal -0.833278 -0.552854 0
    outer loop
      vertex 6.42105 -15.3064 0
      vertex 5.98953 -14.656 1
      vertex 5.98953 -14.656 0
    endloop
  endfacet
  facet normal -0.833278 -0.552854 0
    outer loop
      vertex 5.98953 -14.656 1
      vertex 6.42105 -15.3064 0
      vertex 6.42105 -15.3064 1
    endloop
  endfacet
  facet normal -0.881517 -0.472153 0
    outer loop
      vertex 6.81628 -16.0443 0
      vertex 6.42105 -15.3064 1
      vertex 6.42105 -15.3064 0
    endloop
  endfacet
  facet normal -0.881517 -0.472153 0
    outer loop
      vertex 6.42105 -15.3064 1
      vertex 6.81628 -16.0443 0
      vertex 6.81628 -16.0443 1
    endloop
  endfacet
  facet normal -0.917077 -0.398711 0
    outer loop
      vertex 7.17522 -16.8699 0
      vertex 6.81628 -16.0443 1
      vertex 6.81628 -16.0443 0
    endloop
  endfacet
  facet normal -0.917077 -0.398711 0
    outer loop
      vertex 6.81628 -16.0443 1
      vertex 7.17522 -16.8699 0
      vertex 7.17522 -16.8699 1
    endloop
  endfacet
  facet normal -0.942871 -0.333159 0
    outer loop
      vertex 7.49786 -17.783 0
      vertex 7.17522 -16.8699 1
      vertex 7.17522 -16.8699 0
    endloop
  endfacet
  facet normal -0.942871 -0.333159 0
    outer loop
      vertex 7.17522 -16.8699 1
      vertex 7.49786 -17.783 0
      vertex 7.49786 -17.783 1
    endloop
  endfacet
  facet normal -0.961406 -0.275134 0
    outer loop
      vertex 7.78421 -18.7836 0
      vertex 7.49786 -17.783 1
      vertex 7.49786 -17.783 0
    endloop
  endfacet
  facet normal -0.961406 -0.275134 0
    outer loop
      vertex 7.49786 -17.783 1
      vertex 7.78421 -18.7836 0
      vertex 7.78421 -18.7836 1
    endloop
  endfacet
  facet normal -0.974604 -0.223936 0
    outer loop
      vertex 8.03427 -19.8719 0
      vertex 7.78421 -18.7836 1
      vertex 7.78421 -18.7836 0
    endloop
  endfacet
  facet normal -0.974604 -0.223936 0
    outer loop
      vertex 7.78421 -18.7836 1
      vertex 8.03427 -19.8719 0
      vertex 8.03427 -19.8719 1
    endloop
  endfacet
  facet normal -0.983995 -0.178194 0
    outer loop
      vertex 8.24977 -21.0619 0
      vertex 8.03427 -19.8719 1
      vertex 8.03427 -19.8719 0
    endloop
  endfacet
  facet normal -0.983995 -0.178194 0
    outer loop
      vertex 8.03427 -19.8719 1
      vertex 8.24977 -21.0619 0
      vertex 8.24977 -21.0619 1
    endloop
  endfacet
  facet normal -0.990392 -0.138286 0
    outer loop
      vertex 8.43211 -22.3678 0
      vertex 8.24977 -21.0619 1
      vertex 8.24977 -21.0619 0
    endloop
  endfacet
  facet normal -0.990392 -0.138286 0
    outer loop
      vertex 8.24977 -21.0619 1
      vertex 8.43211 -22.3678 0
      vertex 8.43211 -22.3678 1
    endloop
  endfacet
  facet normal -0.994541 -0.10435 0
    outer loop
      vertex 8.5813 -23.7897 0
      vertex 8.43211 -22.3678 1
      vertex 8.43211 -22.3678 0
    endloop
  endfacet
  facet normal -0.994541 -0.10435 0
    outer loop
      vertex 8.43211 -22.3678 1
      vertex 8.5813 -23.7897 0
      vertex 8.5813 -23.7897 1
    endloop
  endfacet
  facet normal -0.997166 -0.0752332 0
    outer loop
      vertex 8.69733 -25.3276 0
      vertex 8.5813 -23.7897 1
      vertex 8.5813 -23.7897 0
    endloop
  endfacet
  facet normal -0.997166 -0.0752332 0
    outer loop
      vertex 8.5813 -23.7897 1
      vertex 8.69733 -25.3276 0
      vertex 8.69733 -25.3276 1
    endloop
  endfacet
  facet normal -0.998747 -0.0500521 0
    outer loop
      vertex 8.78021 -26.9814 0
      vertex 8.69733 -25.3276 1
      vertex 8.69733 -25.3276 0
    endloop
  endfacet
  facet normal -0.998747 -0.0500521 0
    outer loop
      vertex 8.69733 -25.3276 1
      vertex 8.78021 -26.9814 0
      vertex 8.78021 -26.9814 1
    endloop
  endfacet
  facet normal -0.999605 -0.0280881 0
    outer loop
      vertex 8.82994 -28.7512 0
      vertex 8.78021 -26.9814 1
      vertex 8.78021 -26.9814 0
    endloop
  endfacet
  facet normal -0.999605 -0.0280881 0
    outer loop
      vertex 8.78021 -26.9814 1
      vertex 8.82994 -28.7512 0
      vertex 8.82994 -28.7512 1
    endloop
  endfacet
  facet normal -0.999961 -0.00878685 0
    outer loop
      vertex 8.84651 -30.6369 0
      vertex 8.82994 -28.7512 1
      vertex 8.82994 -28.7512 0
    endloop
  endfacet
  facet normal -0.999961 -0.00878685 0
    outer loop
      vertex 8.82994 -28.7512 1
      vertex 8.84651 -30.6369 0
      vertex 8.84651 -30.6369 1
    endloop
  endfacet
  facet normal -0.999894 0.0145455 0
    outer loop
      vertex 8.80707 -33.3481 0
      vertex 8.84651 -30.6369 1
      vertex 8.84651 -30.6369 0
    endloop
  endfacet
  facet normal -0.999894 0.0145455 0
    outer loop
      vertex 8.84651 -30.6369 1
      vertex 8.80707 -33.3481 0
      vertex 8.80707 -33.3481 1
    endloop
  endfacet
  facet normal -0.998863 0.047671 0
    outer loop
      vertex 8.68874 -35.8275 0
      vertex 8.80707 -33.3481 1
      vertex 8.80707 -33.3481 0
    endloop
  endfacet
  facet normal -0.998863 0.047671 0
    outer loop
      vertex 8.80707 -33.3481 1
      vertex 8.68874 -35.8275 0
      vertex 8.68874 -35.8275 1
    endloop
  endfacet
  facet normal -0.996171 0.0874276 0
    outer loop
      vertex 8.4915 -38.0749 0
      vertex 8.68874 -35.8275 1
      vertex 8.68874 -35.8275 0
    endloop
  endfacet
  facet normal -0.996171 0.0874276 0
    outer loop
      vertex 8.68874 -35.8275 1
      vertex 8.4915 -38.0749 0
      vertex 8.4915 -38.0749 1
    endloop
  endfacet
  facet normal -0.990746 0.13573 0
    outer loop
      vertex 8.21538 -40.0904 0
      vertex 8.4915 -38.0749 1
      vertex 8.4915 -38.0749 0
    endloop
  endfacet
  facet normal -0.990746 0.13573 0
    outer loop
      vertex 8.4915 -38.0749 1
      vertex 8.21538 -40.0904 0
      vertex 8.21538 -40.0904 1
    endloop
  endfacet
  facet normal -0.980761 0.195212 0
    outer loop
      vertex 7.86037 -41.874 0
      vertex 8.21538 -40.0904 1
      vertex 8.21538 -40.0904 0
    endloop
  endfacet
  facet normal -0.980761 0.195212 0
    outer loop
      vertex 8.21538 -40.0904 1
      vertex 7.86037 -41.874 0
      vertex 7.86037 -41.874 1
    endloop
  endfacet
  facet normal -0.963054 0.26931 0
    outer loop
      vertex 7.42645 -43.4257 0
      vertex 7.86037 -41.874 1
      vertex 7.86037 -41.874 0
    endloop
  endfacet
  facet normal -0.963054 0.26931 0
    outer loop
      vertex 7.86037 -41.874 1
      vertex 7.42645 -43.4257 0
      vertex 7.42645 -43.4257 1
    endloop
  endfacet
  facet normal -0.932113 0.362167 0
    outer loop
      vertex 6.91365 -44.7455 0
      vertex 7.42645 -43.4257 1
      vertex 7.42645 -43.4257 0
    endloop
  endfacet
  facet normal -0.932113 0.362167 0
    outer loop
      vertex 7.42645 -43.4257 1
      vertex 6.91365 -44.7455 0
      vertex 6.91365 -44.7455 1
    endloop
  endfacet
  facet normal -0.879658 0.475607 0
    outer loop
      vertex 6.30934 -45.8632 0
      vertex 6.91365 -44.7455 1
      vertex 6.91365 -44.7455 0
    endloop
  endfacet
  facet normal -0.879658 0.475607 0
    outer loop
      vertex 6.91365 -44.7455 1
      vertex 6.30934 -45.8632 0
      vertex 6.30934 -45.8632 1
    endloop
  endfacet
  facet normal -0.800378 0.599496 0
    outer loop
      vertex 5.60092 -46.809 0
      vertex 6.30934 -45.8632 1
      vertex 6.30934 -45.8632 0
    endloop
  endfacet
  facet normal -0.800378 0.599496 0
    outer loop
      vertex 6.30934 -45.8632 1
      vertex 5.60092 -46.809 0
      vertex 5.60092 -46.809 1
    endloop
  endfacet
  facet normal -0.689637 0.724155 0
    outer loop
      vertex 5.60092 -46.809 0
      vertex 4.78839 -47.5828 1
      vertex 5.60092 -46.809 1
    endloop
  endfacet
  facet normal -0.689637 0.724155 0
    outer loop
      vertex 4.78839 -47.5828 1
      vertex 5.60092 -46.809 0
      vertex 4.78839 -47.5828 0
    endloop
  endfacet
  facet normal -0.548819 0.835941 0
    outer loop
      vertex 4.78839 -47.5828 0
      vertex 3.87175 -48.1846 1
      vertex 4.78839 -47.5828 1
    endloop
  endfacet
  facet normal -0.548819 0.835941 0
    outer loop
      vertex 3.87175 -48.1846 1
      vertex 4.78839 -47.5828 0
      vertex 3.87175 -48.1846 0
    endloop
  endfacet
  facet normal -0.388142 0.9216 0
    outer loop
      vertex 3.87175 -48.1846 0
      vertex 2.851 -48.6145 1
      vertex 3.87175 -48.1846 1
    endloop
  endfacet
  facet normal -0.388142 0.9216 0
    outer loop
      vertex 2.851 -48.6145 1
      vertex 3.87175 -48.1846 0
      vertex 2.851 -48.6145 0
    endloop
  endfacet
  facet normal -0.223475 0.97471 0
    outer loop
      vertex 2.851 -48.6145 0
      vertex 1.72614 -48.8724 1
      vertex 2.851 -48.6145 1
    endloop
  endfacet
  facet normal -0.223475 0.97471 0
    outer loop
      vertex 1.72614 -48.8724 1
      vertex 2.851 -48.6145 0
      vertex 1.72614 -48.8724 0
    endloop
  endfacet
  facet normal -0.0698061 0.997561 0
    outer loop
      vertex 1.72614 -48.8724 0
      vertex 0.497162 -48.9584 1
      vertex 1.72614 -48.8724 1
    endloop
  endfacet
  facet normal -0.0698061 0.997561 0
    outer loop
      vertex 0.497162 -48.9584 1
      vertex 1.72614 -48.8724 0
      vertex 0.497162 -48.9584 0
    endloop
  endfacet
  facet normal 0.042292 0.999105 -0
    outer loop
      vertex 0.497162 -48.9584 0
      vertex -0.379288 -48.9213 1
      vertex 0.497162 -48.9584 1
    endloop
  endfacet
  facet normal 0.042292 0.999105 0
    outer loop
      vertex -0.379288 -48.9213 1
      vertex 0.497162 -48.9584 0
      vertex -0.379288 -48.9213 0
    endloop
  endfacet
  facet normal 0 1 -0
    outer loop
      vertex 4.67184 -25.6505 0
      vertex -3.63875 -25.6505 1
      vertex 4.67184 -25.6505 1
    endloop
  endfacet
  facet normal 0 1 0
    outer loop
      vertex -3.63875 -25.6505 1
      vertex 4.67184 -25.6505 0
      vertex -3.63875 -25.6505 0
    endloop
  endfacet
  facet normal -1 0 0
    outer loop
      vertex -3.63875 -35.275 0
      vertex -3.63875 -25.6505 1
      vertex -3.63875 -25.6505 0
    endloop
  endfacet
  facet normal -1 -0 0
    outer loop
      vertex -3.63875 -25.6505 1
      vertex -3.63875 -35.275 0
      vertex -3.63875 -35.275 1
    endloop
  endfacet
  facet normal 0 -1 0
    outer loop
      vertex -3.63875 -35.275 0
      vertex 4.67184 -35.275 1
      vertex -3.63875 -35.275 1
    endloop
  endfacet
  facet normal 0 -1 -0
    outer loop
      vertex 4.67184 -35.275 1
      vertex -3.63875 -35.275 0
      vertex 4.67184 -35.275 0
    endloop
  endfacet
  facet normal 1 -0 0
    outer loop
      vertex 4.67184 -35.275 1
      vertex 4.67184 -25.6505 0
      vertex 4.67184 -25.6505 1
    endloop
  endfacet
  facet normal 1 0 0
    outer loop
      vertex 4.67184 -25.6505 0
      vertex 4.67184 -35.275 1
      vertex 4.67184 -35.275 0
    endloop
  endfacet
endsolid OpenSCAD_Model
