<?xml version="1.0" standalone="no"?>
<!DOCTYPE svg PUBLIC "-//W3C//DTD SVG 1.1//EN" "http://www.w3.org/Graphics/SVG/1.1/DTD/svg11.dtd">
<svg width="15mm" height="19mm" viewBox="-7 4 15 19" xmlns="http://www.w3.org/2000/svg" version="1.1">
<title>OpenSCAD Model</title>
<path d="
M 1.12396,22.4536 L 1.99222,22.314 L 2.7963,22.0813 L 3.53621,21.7555 L 4.21196,21.3367 L 4.82353,20.8248
 L 5.37096,20.2198 L 5.84953,19.524 L 6.25447,18.7399 L 6.5858,17.8674 L 6.84349,16.9066 L 7.02756,15.8574
 L 7.138,14.7198 L 7.17482,13.4939 L 7.138,12.2691 L 7.02756,11.1348 L 6.84349,10.0909 L 6.5858,9.13753
 L 6.25447,8.27457 L 5.84953,7.50206 L 5.37096,6.82001 L 4.82353,6.22861 L 4.21196,5.72821 L 3.53621,5.31879
 L 2.7963,5.00035 L 1.99222,4.7729 L 1.12396,4.63643 L 0.191559,4.59094 L -0.740982,4.63643 L -1.60963,4.7729
 L -2.41438,5.00035 L -3.15526,5.31879 L -3.83223,5.72821 L -4.4453,6.22861 L -4.99448,6.82001 L -5.47472,7.50206
 L -5.88107,8.27457 L -6.21355,9.13753 L -6.47214,10.0909 L -6.65685,11.1348 L -6.76767,12.2691 L -6.80461,13.4939
 L -6.76767,14.7198 L -6.65685,15.8574 L -6.47214,16.9066 L -6.21355,17.8674 L -5.88107,18.7399 L -5.47472,19.524
 L -4.99448,20.2198 L -4.4453,20.8248 L -3.83223,21.3367 L -3.15526,21.7555 L -2.41438,22.0813 L -1.60963,22.314
 L -0.740982,22.4536 L 0.191559,22.5001 z
M -0.238251,19.4799 L -0.63678,19.3864 L -1.00403,19.2306 L -1.33997,19.0125 L -1.64462,18.7321 L -1.91798,18.3893
 L -2.16006,17.9842 L -2.37025,17.5187 L -2.54813,16.9945 L -2.69365,16.4116 L -2.80684,15.7702 L -2.88768,15.0701
 L -2.93619,14.3113 L -2.95236,13.4939 L -2.8882,11.9249 L -2.69571,10.5973 L -2.37491,9.51108 L -1.92577,8.66623
 L -1.34831,8.06277 L -0.642532,7.7007 L 0.191559,7.58 L 1.02219,7.7007 L 1.72502,8.06277 L 2.30006,8.66623
 L 2.74733,9.51108 L 3.0668,10.5973 L 3.25848,11.9249 L 3.32237,13.4939 L 3.30634,14.3113 L 3.25821,15.0701
 L 3.17801,15.7702 L 3.0657,16.4116 L 2.92134,16.9945 L 2.74489,17.5187 L 2.53635,17.9842 L 2.29604,18.3893
 L 2.02419,18.7321 L 1.72076,19.0125 L 1.3858,19.2306 L 1.01927,19.3864 L 0.621185,19.4799 L 0.191559,19.511
 z
" stroke="black" fill="lightgray" stroke-width="0.5"/>
</svg>
