  0
SECTION
  2
BLOCKS
  0
ENDSEC
  0
SECTION
  2
ENTITIES
  0
LINE
  8
0
 10
1.12396
 20
-22.4536
 11
1.99222
 21
-22.314
  0
LINE
  8
0
 10
1.99222
 20
-22.314
 11
2.7963
 21
-22.0813
  0
LINE
  8
0
 10
2.7963
 20
-22.0813
 11
3.53621
 21
-21.7555
  0
LINE
  8
0
 10
3.53621
 20
-21.7555
 11
4.21196
 21
-21.3367
  0
LINE
  8
0
 10
4.21196
 20
-21.3367
 11
4.82353
 21
-20.8248
  0
LINE
  8
0
 10
4.82353
 20
-20.8248
 11
5.37096
 21
-20.2198
  0
LINE
  8
0
 10
5.37096
 20
-20.2198
 11
5.84953
 21
-19.524
  0
LINE
  8
0
 10
5.84953
 20
-19.524
 11
6.25447
 21
-18.7399
  0
LINE
  8
0
 10
6.25447
 20
-18.7399
 11
6.5858
 21
-17.8674
  0
LINE
  8
0
 10
6.5858
 20
-17.8674
 11
6.84349
 21
-16.9066
  0
LINE
  8
0
 10
6.84349
 20
-16.9066
 11
7.02756
 21
-15.8574
  0
LINE
  8
0
 10
7.02756
 20
-15.8574
 11
7.138
 21
-14.7198
  0
LINE
  8
0
 10
7.138
 20
-14.7198
 11
7.17482
 21
-13.4939
  0
LINE
  8
0
 10
7.17482
 20
-13.4939
 11
7.138
 21
-12.2691
  0
LINE
  8
0
 10
7.138
 20
-12.2691
 11
7.02756
 21
-11.1348
  0
LINE
  8
0
 10
7.02756
 20
-11.1348
 11
6.84349
 21
-10.0909
  0
LINE
  8
0
 10
6.84349
 20
-10.0909
 11
6.5858
 21
-9.13753
  0
LINE
  8
0
 10
6.5858
 20
-9.13753
 11
6.25447
 21
-8.27457
  0
LINE
  8
0
 10
6.25447
 20
-8.27457
 11
5.84953
 21
-7.50206
  0
LINE
  8
0
 10
5.84953
 20
-7.50206
 11
5.37096
 21
-6.82001
  0
LINE
  8
0
 10
5.37096
 20
-6.82001
 11
4.82353
 21
-6.22861
  0
LINE
  8
0
 10
4.82353
 20
-6.22861
 11
4.21196
 21
-5.72821
  0
LINE
  8
0
 10
4.21196
 20
-5.72821
 11
3.53621
 21
-5.31879
  0
LINE
  8
0
 10
3.53621
 20
-5.31879
 11
2.7963
 21
-5.00035
  0
LINE
  8
0
 10
2.7963
 20
-5.00035
 11
1.99222
 21
-4.7729
  0
LINE
  8
0
 10
1.99222
 20
-4.7729
 11
1.12396
 21
-4.63643
  0
LINE
  8
0
 10
1.12396
 20
-4.63643
 11
0.191559
 21
-4.59094
  0
LINE
  8
0
 10
0.191559
 20
-4.59094
 11
-0.740982
 21
-4.63643
  0
LINE
  8
0
 10
-0.740982
 20
-4.63643
 11
-1.60963
 21
-4.7729
  0
LINE
  8
0
 10
-1.60963
 20
-4.7729
 11
-2.41438
 21
-5.00035
  0
LINE
  8
0
 10
-2.41438
 20
-5.00035
 11
-3.15526
 21
-5.31879
  0
LINE
  8
0
 10
-3.15526
 20
-5.31879
 11
-3.83223
 21
-5.72821
  0
LINE
  8
0
 10
-3.83223
 20
-5.72821
 11
-4.4453
 21
-6.22861
  0
LINE
  8
0
 10
-4.4453
 20
-6.22861
 11
-4.99448
 21
-6.82001
  0
LINE
  8
0
 10
-4.99448
 20
-6.82001
 11
-5.47472
 21
-7.50206
  0
LINE
  8
0
 10
-5.47472
 20
-7.50206
 11
-5.88107
 21
-8.27457
  0
LINE
  8
0
 10
-5.88107
 20
-8.27457
 11
-6.21355
 21
-9.13753
  0
LINE
  8
0
 10
-6.21355
 20
-9.13753
 11
-6.47214
 21
-10.0909
  0
LINE
  8
0
 10
-6.47214
 20
-10.0909
 11
-6.65685
 21
-11.1348
  0
LINE
  8
0
 10
-6.65685
 20
-11.1348
 11
-6.76767
 21
-12.2691
  0
LINE
  8
0
 10
-6.76767
 20
-12.2691
 11
-6.80461
 21
-13.4939
  0
LINE
  8
0
 10
-6.80461
 20
-13.4939
 11
-6.76767
 21
-14.7198
  0
LINE
  8
0
 10
-6.76767
 20
-14.7198
 11
-6.65685
 21
-15.8574
  0
LINE
  8
0
 10
-6.65685
 20
-15.8574
 11
-6.47214
 21
-16.9066
  0
LINE
  8
0
 10
-6.47214
 20
-16.9066
 11
-6.21355
 21
-17.8674
  0
LINE
  8
0
 10
-6.21355
 20
-17.8674
 11
-5.88107
 21
-18.7399
  0
LINE
  8
0
 10
-5.88107
 20
-18.7399
 11
-5.47472
 21
-19.524
  0
LINE
  8
0
 10
-5.47472
 20
-19.524
 11
-4.99448
 21
-20.2198
  0
LINE
  8
0
 10
-4.99448
 20
-20.2198
 11
-4.4453
 21
-20.8248
  0
LINE
  8
0
 10
-4.4453
 20
-20.8248
 11
-3.83223
 21
-21.3367
  0
LINE
  8
0
 10
-3.83223
 20
-21.3367
 11
-3.15526
 21
-21.7555
  0
LINE
  8
0
 10
-3.15526
 20
-21.7555
 11
-2.41438
 21
-22.0813
  0
LINE
  8
0
 10
-2.41438
 20
-22.0813
 11
-1.60963
 21
-22.314
  0
LINE
  8
0
 10
-1.60963
 20
-22.314
 11
-0.740982
 21
-22.4536
  0
LINE
  8
0
 10
-0.740982
 20
-22.4536
 11
0.191559
 21
-22.5001
  0
LINE
  8
0
 10
0.191559
 20
-22.5001
 11
1.12396
 21
-22.4536
  0
LINE
  8
0
 10
-0.238251
 20
-19.4799
 11
-0.63678
 21
-19.3864
  0
LINE
  8
0
 10
-0.63678
 20
-19.3864
 11
-1.00403
 21
-19.2306
  0
LINE
  8
0
 10
-1.00403
 20
-19.2306
 11
-1.33997
 21
-19.0125
  0
LINE
  8
0
 10
-1.33997
 20
-19.0125
 11
-1.64462
 21
-18.7321
  0
LINE
  8
0
 10
-1.64462
 20
-18.7321
 11
-1.91798
 21
-18.3893
  0
LINE
  8
0
 10
-1.91798
 20
-18.3893
 11
-2.16006
 21
-17.9842
  0
LINE
  8
0
 10
-2.16006
 20
-17.9842
 11
-2.37025
 21
-17.5187
  0
LINE
  8
0
 10
-2.37025
 20
-17.5187
 11
-2.54813
 21
-16.9945
  0
LINE
  8
0
 10
-2.54813
 20
-16.9945
 11
-2.69365
 21
-16.4116
  0
LINE
  8
0
 10
-2.69365
 20
-16.4116
 11
-2.80684
 21
-15.7702
  0
LINE
  8
0
 10
-2.80684
 20
-15.7702
 11
-2.88768
 21
-15.0701
  0
LINE
  8
0
 10
-2.88768
 20
-15.0701
 11
-2.93619
 21
-14.3113
  0
LINE
  8
0
 10
-2.93619
 20
-14.3113
 11
-2.95236
 21
-13.4939
  0
LINE
  8
0
 10
-2.95236
 20
-13.4939
 11
-2.8882
 21
-11.9249
  0
LINE
  8
0
 10
-2.8882
 20
-11.9249
 11
-2.69571
 21
-10.5973
  0
LINE
  8
0
 10
-2.69571
 20
-10.5973
 11
-2.37491
 21
-9.51108
  0
LINE
  8
0
 10
-2.37491
 20
-9.51108
 11
-1.92577
 21
-8.66623
  0
LINE
  8
0
 10
-1.92577
 20
-8.66623
 11
-1.34831
 21
-8.06277
  0
LINE
  8
0
 10
-1.34831
 20
-8.06277
 11
-0.642532
 21
-7.7007
  0
LINE
  8
0
 10
-0.642532
 20
-7.7007
 11
0.191559
 21
-7.58
  0
LINE
  8
0
 10
0.191559
 20
-7.58
 11
1.02219
 21
-7.7007
  0
LINE
  8
0
 10
1.02219
 20
-7.7007
 11
1.72502
 21
-8.06277
  0
LINE
  8
0
 10
1.72502
 20
-8.06277
 11
2.30006
 21
-8.66623
  0
LINE
  8
0
 10
2.30006
 20
-8.66623
 11
2.74733
 21
-9.51108
  0
LINE
  8
0
 10
2.74733
 20
-9.51108
 11
3.0668
 21
-10.5973
  0
LINE
  8
0
 10
3.0668
 20
-10.5973
 11
3.25848
 21
-11.9249
  0
LINE
  8
0
 10
3.25848
 20
-11.9249
 11
3.32237
 21
-13.4939
  0
LINE
  8
0
 10
3.32237
 20
-13.4939
 11
3.30634
 21
-14.3113
  0
LINE
  8
0
 10
3.30634
 20
-14.3113
 11
3.25821
 21
-15.0701
  0
LINE
  8
0
 10
3.25821
 20
-15.0701
 11
3.17801
 21
-15.7702
  0
LINE
  8
0
 10
3.17801
 20
-15.7702
 11
3.0657
 21
-16.4116
  0
LINE
  8
0
 10
3.0657
 20
-16.4116
 11
2.92134
 21
-16.9945
  0
LINE
  8
0
 10
2.92134
 20
-16.9945
 11
2.74489
 21
-17.5187
  0
LINE
  8
0
 10
2.74489
 20
-17.5187
 11
2.53635
 21
-17.9842
  0
LINE
  8
0
 10
2.53635
 20
-17.9842
 11
2.29604
 21
-18.3893
  0
LINE
  8
0
 10
2.29604
 20
-18.3893
 11
2.02419
 21
-18.7321
  0
LINE
  8
0
 10
2.02419
 20
-18.7321
 11
1.72076
 21
-19.0125
  0
LINE
  8
0
 10
1.72076
 20
-19.0125
 11
1.3858
 21
-19.2306
  0
LINE
  8
0
 10
1.3858
 20
-19.2306
 11
1.01927
 21
-19.3864
  0
LINE
  8
0
 10
1.01927
 20
-19.3864
 11
0.621185
 21
-19.4799
  0
LINE
  8
0
 10
0.621185
 20
-19.4799
 11
0.191559
 21
-19.511
  0
LINE
  8
0
 10
0.191559
 20
-19.511
 11
-0.238251
 21
-19.4799
  0
ENDSEC
  0
SECTION
  2
OBJECTS
  0
DICTIONARY
  0
ENDSEC
  0
EOF
