  0
SECTION
  2
BLOCKS
  0
ENDSEC
  0
SECTION
  2
ENTITIES
  0
LINE
  8
0
 10
0.589142
 20
-22.2232
 11
1.14542
 21
-22.1763
  0
LINE
  8
0
 10
1.14542
 20
-22.1763
 11
1.67986
 21
-22.0981
  0
LINE
  8
0
 10
1.67986
 20
-22.0981
 11
2.19247
 21
-21.9886
  0
LINE
  8
0
 10
2.19247
 20
-21.9886
 11
2.68327
 21
-21.8478
  0
LINE
  8
0
 10
2.68327
 20
-21.8478
 11
3.15224
 21
-21.6758
  0
LINE
  8
0
 10
3.15224
 20
-21.6758
 11
3.5994
 21
-21.4724
  0
LINE
  8
0
 10
3.5994
 20
-21.4724
 11
4.0209
 21
-21.2408
  0
LINE
  8
0
 10
4.0209
 20
-21.2408
 11
4.41296
 21
-20.9839
  0
LINE
  8
0
 10
4.41296
 20
-20.9839
 11
4.77557
 21
-20.7017
  0
LINE
  8
0
 10
4.77557
 20
-20.7017
 11
5.10872
 21
-20.3943
  0
LINE
  8
0
 10
5.10872
 20
-20.3943
 11
5.41241
 21
-20.0617
  0
LINE
  8
0
 10
5.41241
 20
-20.0617
 11
5.68666
 21
-19.7038
  0
LINE
  8
0
 10
5.68666
 20
-19.7038
 11
5.93146
 21
-19.3207
  0
LINE
  8
0
 10
5.93146
 20
-19.3207
 11
6.14508
 21
-18.9164
  0
LINE
  8
0
 10
6.14508
 20
-18.9164
 11
6.32585
 21
-18.495
  0
LINE
  8
0
 10
6.32585
 20
-18.495
 11
6.47374
 21
-18.0565
  0
LINE
  8
0
 10
6.47374
 20
-18.0565
 11
6.58878
 21
-17.601
  0
LINE
  8
0
 10
6.58878
 20
-17.601
 11
6.67094
 21
-17.1283
  0
LINE
  8
0
 10
6.67094
 20
-17.1283
 11
6.72025
 21
-16.6385
  0
LINE
  8
0
 10
6.72025
 20
-16.6385
 11
6.73668
 21
-16.1317
  0
LINE
  8
0
 10
6.73668
 20
-16.1317
 11
6.70499
 21
-15.4053
  0
LINE
  8
0
 10
6.70499
 20
-15.4053
 11
6.60994
 21
-14.7207
  0
LINE
  8
0
 10
6.60994
 20
-14.7207
 11
6.45152
 21
-14.078
  0
LINE
  8
0
 10
6.45152
 20
-14.078
 11
6.22974
 21
-13.477
  0
LINE
  8
0
 10
6.22974
 20
-13.477
 11
5.9446
 21
-12.9178
  0
LINE
  8
0
 10
5.9446
 20
-12.9178
 11
5.59607
 21
-12.4005
  0
LINE
  8
0
 10
5.59607
 20
-12.4005
 11
5.18419
 21
-11.9249
  0
LINE
  8
0
 10
5.18419
 20
-11.9249
 11
4.71945
 21
-11.5027
  0
LINE
  8
0
 10
4.71945
 20
-11.5027
 11
4.21236
 21
-11.1455
  0
LINE
  8
0
 10
4.21236
 20
-11.1455
 11
3.66293
 21
-10.8533
  0
LINE
  8
0
 10
3.66293
 20
-10.8533
 11
3.07117
 21
-10.6259
  0
LINE
  8
0
 10
3.07117
 20
-10.6259
 11
2.43706
 21
-10.4636
  0
LINE
  8
0
 10
2.43706
 20
-10.4636
 11
1.7606
 21
-10.3661
  0
LINE
  8
0
 10
1.7606
 20
-10.3661
 11
1.04181
 21
-10.3337
  0
LINE
  8
0
 10
1.04181
 20
-10.3337
 11
0.492004
 21
-10.3573
  0
LINE
  8
0
 10
0.492004
 20
-10.3573
 11
-0.0309753
 21
-10.4283
  0
LINE
  8
0
 10
-0.0309753
 20
-10.4283
 11
-0.527145
 21
-10.5467
  0
LINE
  8
0
 10
-0.527145
 20
-10.5467
 11
-0.996506
 21
-10.7124
  0
LINE
  8
0
 10
-0.996506
 20
-10.7124
 11
-1.43904
 21
-10.9254
  0
LINE
  8
0
 10
-1.43904
 20
-10.9254
 11
-1.85475
 21
-11.1857
  0
LINE
  8
0
 10
-1.85475
 20
-11.1857
 11
-2.24367
 21
-11.4934
  0
LINE
  8
0
 10
-2.24367
 20
-11.4934
 11
-1.94727
 21
-7.29311
  0
LINE
  8
0
 10
-1.94727
 20
-7.29311
 11
5.68027
 21
-7.29311
  0
LINE
  8
0
 10
5.68027
 20
-7.29311
 11
5.68027
 21
-4.60025
  0
LINE
  8
0
 10
5.68027
 20
-4.60025
 11
-5.23274
 21
-4.60025
  0
LINE
  8
0
 10
-5.23274
 20
-4.60025
 11
-5.86411
 21
-14.431
  0
LINE
  8
0
 10
-5.86411
 20
-14.431
 11
-2.33391
 21
-14.431
  0
LINE
  8
0
 10
-2.33391
 20
-14.431
 11
-2.05014
 21
-14.1199
  0
LINE
  8
0
 10
-2.05014
 20
-14.1199
 11
-1.74377
 21
-13.8567
  0
LINE
  8
0
 10
-1.74377
 20
-13.8567
 11
-1.41479
 21
-13.6414
  0
LINE
  8
0
 10
-1.41479
 20
-13.6414
 11
-1.06322
 21
-13.4739
  0
LINE
  8
0
 10
-1.06322
 20
-13.4739
 11
-0.689041
 21
-13.3542
  0
LINE
  8
0
 10
-0.689041
 20
-13.3542
 11
-0.292236
 21
-13.2825
  0
LINE
  8
0
 10
-0.292236
 20
-13.2825
 11
0.127151
 21
-13.2585
  0
LINE
  8
0
 10
0.127151
 20
-13.2585
 11
0.50499
 21
-13.275
  0
LINE
  8
0
 10
0.50499
 20
-13.275
 11
0.858124
 21
-13.3243
  0
LINE
  8
0
 10
0.858124
 20
-13.3243
 11
1.18654
 21
-13.4064
  0
LINE
  8
0
 10
1.18654
 20
-13.4064
 11
1.49025
 21
-13.5215
  0
LINE
  8
0
 10
1.49025
 20
-13.5215
 11
1.76923
 21
-13.6694
  0
LINE
  8
0
 10
1.76923
 20
-13.6694
 11
2.0235
 21
-13.8501
  0
LINE
  8
0
 10
2.0235
 20
-13.8501
 11
2.25305
 21
-14.0638
  0
LINE
  8
0
 10
2.25305
 20
-14.0638
 11
2.45474
 21
-14.3047
  0
LINE
  8
0
 10
2.45474
 20
-14.3047
 11
2.6254
 21
-14.5675
  0
LINE
  8
0
 10
2.6254
 20
-14.5675
 11
2.76501
 21
-14.8522
  0
LINE
  8
0
 10
2.76501
 20
-14.8522
 11
2.87361
 21
-15.1586
  0
LINE
  8
0
 10
2.87361
 20
-15.1586
 11
2.95119
 21
-15.487
  0
LINE
  8
0
 10
2.95119
 20
-15.487
 11
2.99773
 21
-15.8371
  0
LINE
  8
0
 10
2.99773
 20
-15.8371
 11
3.01324
 21
-16.209
  0
LINE
  8
0
 10
3.01324
 20
-16.209
 11
2.99721
 21
-16.6258
  0
LINE
  8
0
 10
2.99721
 20
-16.6258
 11
2.94908
 21
-17.0147
  0
LINE
  8
0
 10
2.94908
 20
-17.0147
 11
2.86887
 21
-17.3757
  0
LINE
  8
0
 10
2.86887
 20
-17.3757
 11
2.75658
 21
-17.7089
  0
LINE
  8
0
 10
2.75658
 20
-17.7089
 11
2.61221
 21
-18.0142
  0
LINE
  8
0
 10
2.61221
 20
-18.0142
 11
2.43576
 21
-18.2916
  0
LINE
  8
0
 10
2.43576
 20
-18.2916
 11
2.22722
 21
-18.5411
  0
LINE
  8
0
 10
2.22722
 20
-18.5411
 11
1.99033
 21
-18.7599
  0
LINE
  8
0
 10
1.99033
 20
-18.7599
 11
1.72871
 21
-18.945
  0
LINE
  8
0
 10
1.72871
 20
-18.945
 11
1.44238
 21
-19.0965
  0
LINE
  8
0
 10
1.44238
 20
-19.0965
 11
1.13133
 21
-19.2142
  0
LINE
  8
0
 10
1.13133
 20
-19.2142
 11
0.795547
 21
-19.2984
  0
LINE
  8
0
 10
0.795547
 20
-19.2984
 11
0.435043
 21
-19.3489
  0
LINE
  8
0
 10
0.435043
 20
-19.3489
 11
0.0498199
 21
-19.3657
  0
LINE
  8
0
 10
0.0498199
 20
-19.3657
 11
-0.255447
 21
-19.3549
  0
LINE
  8
0
 10
-0.255447
 20
-19.3549
 11
-0.545486
 21
-19.3226
  0
LINE
  8
0
 10
-0.545486
 20
-19.3226
 11
-0.820267
 21
-19.2687
  0
LINE
  8
0
 10
-0.820267
 20
-19.2687
 11
-1.0798
 21
-19.1932
  0
LINE
  8
0
 10
-1.0798
 20
-19.1932
 11
-1.3241
 21
-19.0962
  0
LINE
  8
0
 10
-1.3241
 20
-19.0962
 11
-1.55315
 21
-18.9776
  0
LINE
  8
0
 10
-1.55315
 20
-18.9776
 11
-1.76695
 21
-18.8375
  0
LINE
  8
0
 10
-1.76695
 20
-18.8375
 11
-1.96414
 21
-18.6736
  0
LINE
  8
0
 10
-1.96414
 20
-18.6736
 11
-2.14345
 21
-18.484
  0
LINE
  8
0
 10
-2.14345
 20
-18.484
 11
-2.30489
 21
-18.2687
  0
LINE
  8
0
 10
-2.30489
 20
-18.2687
 11
-2.44844
 21
-18.0275
  0
LINE
  8
0
 10
-2.44844
 20
-18.0275
 11
-2.57413
 21
-17.7606
  0
LINE
  8
0
 10
-2.57413
 20
-17.7606
 11
-2.68193
 21
-17.468
  0
LINE
  8
0
 10
-2.68193
 20
-17.468
 11
-2.77187
 21
-17.1495
  0
LINE
  8
0
 10
-2.77187
 20
-17.1495
 11
-6.3923
 21
-17.4459
  0
LINE
  8
0
 10
-6.3923
 20
-17.4459
 11
-6.25626
 21
-18.0898
  0
LINE
  8
0
 10
-6.25626
 20
-18.0898
 11
-6.06892
 21
-18.6886
  0
LINE
  8
0
 10
-6.06892
 20
-18.6886
 11
-5.83031
 21
-19.2425
  0
LINE
  8
0
 10
-5.83031
 20
-19.2425
 11
-5.54042
 21
-19.7514
  0
LINE
  8
0
 10
-5.54042
 20
-19.7514
 11
-5.19926
 21
-20.2154
  0
LINE
  8
0
 10
-5.19926
 20
-20.2154
 11
-4.80682
 21
-20.6344
  0
LINE
  8
0
 10
-4.80682
 20
-20.6344
 11
-4.36311
 21
-21.0084
  0
LINE
  8
0
 10
-4.36311
 20
-21.0084
 11
-3.87154
 21
-21.3349
  0
LINE
  8
0
 10
-3.87154
 20
-21.3349
 11
-3.33553
 21
-21.6111
  0
LINE
  8
0
 10
-3.33553
 20
-21.6111
 11
-2.75508
 21
-21.8371
  0
LINE
  8
0
 10
-2.75508
 20
-21.8371
 11
-2.1302
 21
-22.0129
  0
LINE
  8
0
 10
-2.1302
 20
-22.0129
 11
-1.46088
 21
-22.1384
  0
LINE
  8
0
 10
-1.46088
 20
-22.1384
 11
-0.747116
 21
-22.2138
  0
LINE
  8
0
 10
-0.747116
 20
-22.2138
 11
0.0110474
 21
-22.2389
  0
LINE
  8
0
 10
0.0110474
 20
-22.2389
 11
0.589142
 21
-22.2232
  0
ENDSEC
  0
SECTION
  2
OBJECTS
  0
DICTIONARY
  0
ENDSEC
  0
EOF
