solid OpenSCAD_Model
  facet normal 0 0 -1
    outer loop
      vertex 3.47369 -33.7571 0
      vertex 24.2303 -3.80072 0
      vertex 6.4109 -55.9437 0
    endloop
  endfacet
  facet normal -0 0 -1
    outer loop
      vertex 24.2303 -3.80072 0
      vertex 3.47369 -33.7571 0
      vertex 12.4409 -3.80072 0
    endloop
  endfacet
  facet normal 0 0 -1
    outer loop
      vertex 6.4109 -55.9437 0
      vertex 1.50208 -40.7145 0
      vertex 3.47369 -33.7571 0
    endloop
  endfacet
  facet normal 0 0 -1
    outer loop
      vertex 6.4109 -55.9437 0
      vertex 0.690384 -44.0387 0
      vertex 1.50208 -40.7145 0
    endloop
  endfacet
  facet normal 0 0 -1
    outer loop
      vertex -5.14639 -55.9437 0
      vertex 0.187134 -42.1439 0
      vertex 0.690384 -44.0387 0
    endloop
  endfacet
  facet normal -0 0 -1
    outer loop
      vertex 0.187134 -42.1439 0
      vertex -5.14639 -55.9437 0
      vertex -0.284546 -40.3911 0
    endloop
  endfacet
  facet normal -0 0 -1
    outer loop
      vertex -0.284546 -40.3911 0
      vertex -5.14639 -55.9437 0
      vertex -0.724701 -38.7802 0
    endloop
  endfacet
  facet normal -0 0 -1
    outer loop
      vertex -0.724701 -38.7802 0
      vertex -5.14639 -55.9437 0
      vertex -1.13332 -37.3114 0
    endloop
  endfacet
  facet normal -0 0 -1
    outer loop
      vertex -1.13332 -37.3114 0
      vertex -5.14639 -55.9437 0
      vertex -1.51038 -35.9846 0
    endloop
  endfacet
  facet normal -0 0 -1
    outer loop
      vertex -1.51038 -35.9846 0
      vertex -5.14639 -55.9437 0
      vertex -1.8559 -34.7998 0
    endloop
  endfacet
  facet normal 0 0 -1
    outer loop
      vertex -5.14639 -55.9437 0
      vertex 0.690384 -44.0387 0
      vertex 6.4109 -55.9437 0
    endloop
  endfacet
  facet normal -0 0 -1
    outer loop
      vertex -1.8559 -34.7998 0
      vertex -5.14639 -55.9437 0
      vertex -2.16986 -33.7571 0
    endloop
  endfacet
  facet normal 0 0 -1
    outer loop
      vertex -23.0815 -3.80072 0
      vertex -2.16986 -33.7571 0
      vertex -5.14639 -55.9437 0
    endloop
  endfacet
  facet normal 0 0 -1
    outer loop
      vertex -2.16986 -33.7571 0
      vertex -23.0815 -3.80072 0
      vertex -11.1759 -3.80072 0
    endloop
  endfacet
  facet normal 0 0 1
    outer loop
      vertex 3.47369 -33.7571 1
      vertex 24.2303 -3.80072 1
      vertex 12.4409 -3.80072 1
    endloop
  endfacet
  facet normal 0 0 1
    outer loop
      vertex 24.2303 -3.80072 1
      vertex 3.47369 -33.7571 1
      vertex 6.4109 -55.9437 1
    endloop
  endfacet
  facet normal -0 0 1
    outer loop
      vertex 1.50208 -40.7145 1
      vertex 6.4109 -55.9437 1
      vertex 3.47369 -33.7571 1
    endloop
  endfacet
  facet normal -0 0 1
    outer loop
      vertex 0.690384 -44.0387 1
      vertex 6.4109 -55.9437 1
      vertex 1.50208 -40.7145 1
    endloop
  endfacet
  facet normal 0 0 1
    outer loop
      vertex -5.14639 -55.9437 1
      vertex 0.187134 -42.1439 1
      vertex -0.284546 -40.3911 1
    endloop
  endfacet
  facet normal 0 0 1
    outer loop
      vertex -5.14639 -55.9437 1
      vertex -0.284546 -40.3911 1
      vertex -0.724701 -38.7802 1
    endloop
  endfacet
  facet normal 0 0 1
    outer loop
      vertex -5.14639 -55.9437 1
      vertex -0.724701 -38.7802 1
      vertex -1.13332 -37.3114 1
    endloop
  endfacet
  facet normal 0 0 1
    outer loop
      vertex -5.14639 -55.9437 1
      vertex -1.13332 -37.3114 1
      vertex -1.51038 -35.9846 1
    endloop
  endfacet
  facet normal 0 0 1
    outer loop
      vertex -5.14639 -55.9437 1
      vertex -1.51038 -35.9846 1
      vertex -1.8559 -34.7998 1
    endloop
  endfacet
  facet normal 0 0 1
    outer loop
      vertex -5.14639 -55.9437 1
      vertex -1.8559 -34.7998 1
      vertex -2.16986 -33.7571 1
    endloop
  endfacet
  facet normal 0 0 1
    outer loop
      vertex 0.690384 -44.0387 1
      vertex -5.14639 -55.9437 1
      vertex 6.4109 -55.9437 1
    endloop
  endfacet
  facet normal 0 0 1
    outer loop
      vertex 0.187134 -42.1439 1
      vertex -5.14639 -55.9437 1
      vertex 0.690384 -44.0387 1
    endloop
  endfacet
  facet normal -0 0 1
    outer loop
      vertex -23.0815 -3.80072 1
      vertex -2.16986 -33.7571 1
      vertex -11.1759 -3.80072 1
    endloop
  endfacet
  facet normal 0 0 1
    outer loop
      vertex -2.16986 -33.7571 1
      vertex -23.0815 -3.80072 1
      vertex -5.14639 -55.9437 1
    endloop
  endfacet
  facet normal 0 1 -0
    outer loop
      vertex 24.2303 -3.80072 0
      vertex 12.4409 -3.80072 1
      vertex 24.2303 -3.80072 1
    endloop
  endfacet
  facet normal 0 1 0
    outer loop
      vertex 12.4409 -3.80072 1
      vertex 24.2303 -3.80072 0
      vertex 12.4409 -3.80072 0
    endloop
  endfacet
  facet normal -0.958 0.28677 0
    outer loop
      vertex 3.47369 -33.7571 0
      vertex 12.4409 -3.80072 1
      vertex 12.4409 -3.80072 0
    endloop
  endfacet
  facet normal -0.958 0.28677 0
    outer loop
      vertex 12.4409 -3.80072 1
      vertex 3.47369 -33.7571 0
      vertex 3.47369 -33.7571 1
    endloop
  endfacet
  facet normal -0.962114 0.272647 0
    outer loop
      vertex 1.50208 -40.7145 0
      vertex 3.47369 -33.7571 1
      vertex 3.47369 -33.7571 0
    endloop
  endfacet
  facet normal -0.962114 0.272647 0
    outer loop
      vertex 3.47369 -33.7571 1
      vertex 1.50208 -40.7145 0
      vertex 1.50208 -40.7145 1
    endloop
  endfacet
  facet normal -0.971459 0.237209 0
    outer loop
      vertex 0.690384 -44.0387 0
      vertex 1.50208 -40.7145 1
      vertex 1.50208 -40.7145 0
    endloop
  endfacet
  facet normal -0.971459 0.237209 0
    outer loop
      vertex 1.50208 -40.7145 1
      vertex 0.690384 -44.0387 0
      vertex 0.690384 -44.0387 1
    endloop
  endfacet
  facet normal 0.966492 0.256696 0
    outer loop
      vertex 0.690384 -44.0387 1
      vertex 0.187134 -42.1439 0
      vertex 0.187134 -42.1439 1
    endloop
  endfacet
  facet normal 0.966492 0.256696 0
    outer loop
      vertex 0.187134 -42.1439 0
      vertex 0.690384 -44.0387 1
      vertex 0.690384 -44.0387 0
    endloop
  endfacet
  facet normal 0.965647 0.259857 0
    outer loop
      vertex 0.187134 -42.1439 1
      vertex -0.284546 -40.3911 0
      vertex -0.284546 -40.3911 1
    endloop
  endfacet
  facet normal 0.965647 0.259857 0
    outer loop
      vertex -0.284546 -40.3911 0
      vertex 0.187134 -42.1439 1
      vertex 0.187134 -42.1439 0
    endloop
  endfacet
  facet normal 0.964639 0.263574 0
    outer loop
      vertex -0.284546 -40.3911 1
      vertex -0.724701 -38.7802 0
      vertex -0.724701 -38.7802 1
    endloop
  endfacet
  facet normal 0.964639 0.263574 0
    outer loop
      vertex -0.724701 -38.7802 0
      vertex -0.284546 -40.3911 1
      vertex -0.284546 -40.3911 0
    endloop
  endfacet
  facet normal 0.963413 0.268021 0
    outer loop
      vertex -0.724701 -38.7802 1
      vertex -1.13332 -37.3114 0
      vertex -1.13332 -37.3114 1
    endloop
  endfacet
  facet normal 0.963413 0.268021 0
    outer loop
      vertex -1.13332 -37.3114 0
      vertex -0.724701 -38.7802 1
      vertex -0.724701 -38.7802 0
    endloop
  endfacet
  facet normal 0.961911 0.273363 0
    outer loop
      vertex -1.13332 -37.3114 1
      vertex -1.51038 -35.9846 0
      vertex -1.51038 -35.9846 1
    endloop
  endfacet
  facet normal 0.961911 0.273363 0
    outer loop
      vertex -1.51038 -35.9846 0
      vertex -1.13332 -37.3114 1
      vertex -1.13332 -37.3114 0
    endloop
  endfacet
  facet normal 0.96001 0.279965 0
    outer loop
      vertex -1.51038 -35.9846 1
      vertex -1.8559 -34.7998 0
      vertex -1.8559 -34.7998 1
    endloop
  endfacet
  facet normal 0.96001 0.279965 0
    outer loop
      vertex -1.8559 -34.7998 0
      vertex -1.51038 -35.9846 1
      vertex -1.51038 -35.9846 0
    endloop
  endfacet
  facet normal 0.957535 0.288317 0
    outer loop
      vertex -1.8559 -34.7998 1
      vertex -2.16986 -33.7571 0
      vertex -2.16986 -33.7571 1
    endloop
  endfacet
  facet normal 0.957535 0.288317 0
    outer loop
      vertex -2.16986 -33.7571 0
      vertex -1.8559 -34.7998 1
      vertex -1.8559 -34.7998 0
    endloop
  endfacet
  facet normal 0.957658 0.287909 0
    outer loop
      vertex -2.16986 -33.7571 1
      vertex -11.1759 -3.80072 0
      vertex -11.1759 -3.80072 1
    endloop
  endfacet
  facet normal 0.957658 0.287909 0
    outer loop
      vertex -11.1759 -3.80072 0
      vertex -2.16986 -33.7571 1
      vertex -2.16986 -33.7571 0
    endloop
  endfacet
  facet normal 0 1 -0
    outer loop
      vertex -11.1759 -3.80072 0
      vertex -23.0815 -3.80072 1
      vertex -11.1759 -3.80072 1
    endloop
  endfacet
  facet normal 0 1 0
    outer loop
      vertex -23.0815 -3.80072 1
      vertex -11.1759 -3.80072 0
      vertex -23.0815 -3.80072 0
    endloop
  endfacet
  facet normal -0.945625 -0.325258 0
    outer loop
      vertex -5.14639 -55.9437 0
      vertex -23.0815 -3.80072 1
      vertex -23.0815 -3.80072 0
    endloop
  endfacet
  facet normal -0.945625 -0.325258 0
    outer loop
      vertex -23.0815 -3.80072 1
      vertex -5.14639 -55.9437 0
      vertex -5.14639 -55.9437 1
    endloop
  endfacet
  facet normal 0 -1 0
    outer loop
      vertex -5.14639 -55.9437 0
      vertex 6.4109 -55.9437 1
      vertex -5.14639 -55.9437 1
    endloop
  endfacet
  facet normal 0 -1 -0
    outer loop
      vertex 6.4109 -55.9437 1
      vertex -5.14639 -55.9437 0
      vertex 6.4109 -55.9437 0
    endloop
  endfacet
  facet normal 0.946269 -0.323379 0
    outer loop
      vertex 6.4109 -55.9437 1
      vertex 24.2303 -3.80072 0
      vertex 24.2303 -3.80072 1
    endloop
  endfacet
  facet normal 0.946269 -0.323379 0
    outer loop
      vertex 24.2303 -3.80072 0
      vertex 6.4109 -55.9437 1
      vertex 6.4109 -55.9437 0
    endloop
  endfacet
endsolid OpenSCAD_Model
