<?xml version="1.0" standalone="no"?>
<!DOCTYPE svg PUBLIC "-//W3C//DTD SVG 1.1//EN" "http://www.w3.org/Graphics/SVG/1.1/DTD/svg11.dtd">
<svg width="17mm" height="18mm" viewBox="-8 4 17 18" xmlns="http://www.w3.org/2000/svg" version="1.1">
<title>OpenSCAD Model</title>
<path d="
M -0.813538,17.9612 L -0.246567,15.6808 L 0.204468,13.7867 L 0.354324,14.4517 L 0.509445,15.1214 L 0.669846,15.7959
 L 0.835495,16.4751 L 1.00641,17.159 L 1.1826,17.8477 L 1.36404,18.5411 L 2.18864,21.9812 L 5.38388,21.9812
 L 8.08966,4.60025 L 4.7525,4.60025 L 3.67026,13.5549 L 3.63451,13.8639 L 3.60086,14.2165 L 3.56931,14.6127
 L 3.53986,15.0526 L 3.51251,15.5362 L 3.48726,16.0634 L 3.46411,16.6343 L 3.43828,16.9821 L 3.35719,16.5879
 L 3.28319,16.2296 L 3.21628,15.9073 L 3.15645,15.6211 L 3.10371,15.3709 L 3.05807,15.1568 L 3.01952,14.9786
 L 2.98364,14.8181 L 2.94592,14.6567 L 2.90636,14.4946 L 2.86497,14.3317 L 2.82175,14.168 L 2.77667,14.0035
 L 2.72977,13.8382 L 1.4541,9.4705 L -1.05824,9.4705 L -2.33391,13.8382 L -2.8492,16.0029 L -3.04242,16.9821
 L -3.05923,16.3758 L -3.08026,15.8084 L -3.1055,15.2798 L -3.13495,14.7903 L -3.16861,14.3396 L -3.20648,13.9278
 L -3.24857,13.5549 L -4.39542,4.60025 L -7.73238,4.60025 L -5.01385,21.9812 L -1.81844,21.9812 z
" stroke="black" fill="lightgray" stroke-width="0.5"/>
</svg>
