  0
SECTION
  2
BLOCKS
  0
ENDSEC
  0
SECTION
  2
ENTITIES
  0
LINE
  8
0
 10
2.31265
 20
-21.9544
 11
3.04391
 21
-21.874
  0
LINE
  8
0
 10
3.04391
 20
-21.874
 11
3.72522
 21
-21.7399
  0
LINE
  8
0
 10
3.72522
 20
-21.7399
 11
4.35655
 21
-21.5521
  0
LINE
  8
0
 10
4.35655
 20
-21.5521
 11
4.93794
 21
-21.3107
  0
LINE
  8
0
 10
4.93794
 20
-21.3107
 11
5.46936
 21
-21.0157
  0
LINE
  8
0
 10
5.46936
 20
-21.0157
 11
5.95084
 21
-20.667
  0
LINE
  8
0
 10
5.95084
 20
-20.667
 11
6.37471
 21
-20.2708
  0
LINE
  8
0
 10
6.37471
 20
-20.2708
 11
6.73338
 21
-19.8329
  0
LINE
  8
0
 10
6.73338
 20
-19.8329
 11
7.02684
 21
-19.3536
  0
LINE
  8
0
 10
7.02684
 20
-19.3536
 11
7.25508
 21
-18.8327
  0
LINE
  8
0
 10
7.25508
 20
-18.8327
 11
7.41812
 21
-18.2702
  0
LINE
  8
0
 10
7.41812
 20
-18.2702
 11
7.51595
 21
-17.6663
  0
LINE
  8
0
 10
7.51595
 20
-17.6663
 11
7.54854
 21
-17.0207
  0
LINE
  8
0
 10
7.54854
 20
-17.0207
 11
7.52501
 21
-16.5269
  0
LINE
  8
0
 10
7.52501
 20
-16.5269
 11
7.45439
 21
-16.0615
  0
LINE
  8
0
 10
7.45439
 20
-16.0615
 11
7.33672
 21
-15.6245
  0
LINE
  8
0
 10
7.33672
 20
-15.6245
 11
7.17195
 21
-15.2159
  0
LINE
  8
0
 10
7.17195
 20
-15.2159
 11
6.96013
 21
-14.8357
  0
LINE
  8
0
 10
6.96013
 20
-14.8357
 11
6.70122
 21
-14.4839
  0
LINE
  8
0
 10
6.70122
 20
-14.4839
 11
6.39525
 21
-14.1605
  0
LINE
  8
0
 10
6.39525
 20
-14.1605
 11
6.04436
 21
-13.8686
  0
LINE
  8
0
 10
6.04436
 20
-13.8686
 11
5.6506
 21
-13.6115
  0
LINE
  8
0
 10
5.6506
 20
-13.6115
 11
5.21399
 21
-13.389
  0
LINE
  8
0
 10
5.21399
 20
-13.389
 11
4.73451
 21
-13.2012
  0
LINE
  8
0
 10
4.73451
 20
-13.2012
 11
4.21216
 21
-13.0482
  0
LINE
  8
0
 10
4.21216
 20
-13.0482
 11
3.64696
 21
-12.9299
  0
LINE
  8
0
 10
3.64696
 20
-12.9299
 11
3.03889
 21
-12.8462
  0
LINE
  8
0
 10
3.03889
 20
-12.8462
 11
3.52458
 21
-12.7264
  0
LINE
  8
0
 10
3.52458
 20
-12.7264
 11
3.97293
 21
-12.5806
  0
LINE
  8
0
 10
3.97293
 20
-12.5806
 11
4.38393
 21
-12.4088
  0
LINE
  8
0
 10
4.38393
 20
-12.4088
 11
4.75758
 21
-12.2109
  0
LINE
  8
0
 10
4.75758
 20
-12.2109
 11
5.09389
 21
-11.987
  0
LINE
  8
0
 10
5.09389
 20
-11.987
 11
5.39284
 21
-11.7371
  0
LINE
  8
0
 10
5.39284
 20
-11.7371
 11
5.65443
 21
-11.4611
  0
LINE
  8
0
 10
5.65443
 20
-11.4611
 11
5.88007
 21
-11.1626
  0
LINE
  8
0
 10
5.88007
 20
-11.1626
 11
6.07098
 21
-10.8448
  0
LINE
  8
0
 10
6.07098
 20
-10.8448
 11
6.22717
 21
-10.5078
  0
LINE
  8
0
 10
6.22717
 20
-10.5078
 11
6.34868
 21
-10.1517
  0
LINE
  8
0
 10
6.34868
 20
-10.1517
 11
6.43546
 21
-9.77629
  0
LINE
  8
0
 10
6.43546
 20
-9.77629
 11
6.48752
 21
-9.38173
  0
LINE
  8
0
 10
6.48752
 20
-9.38173
 11
6.50487
 21
-8.96796
  0
LINE
  8
0
 10
6.50487
 20
-8.96796
 11
6.4753
 21
-8.38435
  0
LINE
  8
0
 10
6.4753
 20
-8.38435
 11
6.38655
 21
-7.841
  0
LINE
  8
0
 10
6.38655
 20
-7.841
 11
6.23863
 21
-7.33788
  0
LINE
  8
0
 10
6.23863
 20
-7.33788
 11
6.03157
 21
-6.87497
  0
LINE
  8
0
 10
6.03157
 20
-6.87497
 11
5.76534
 21
-6.45232
  0
LINE
  8
0
 10
5.76534
 20
-6.45232
 11
5.43993
 21
-6.06989
  0
LINE
  8
0
 10
5.43993
 20
-6.06989
 11
5.05536
 21
-5.72769
  0
LINE
  8
0
 10
5.05536
 20
-5.72769
 11
4.61348
 21
-5.42857
  0
LINE
  8
0
 10
4.61348
 20
-5.42857
 11
4.11612
 21
-5.17546
  0
LINE
  8
0
 10
4.11612
 20
-5.17546
 11
3.56326
 21
-4.9684
  0
LINE
  8
0
 10
3.56326
 20
-4.9684
 11
2.95494
 21
-4.80733
  0
LINE
  8
0
 10
2.95494
 20
-4.80733
 11
2.29114
 21
-4.69229
  0
LINE
  8
0
 10
2.29114
 20
-4.69229
 11
1.57185
 21
-4.62326
  0
LINE
  8
0
 10
1.57185
 20
-4.62326
 11
0.797089
 21
-4.60025
  0
LINE
  8
0
 10
0.797089
 20
-4.60025
 11
-5.96729
 21
-4.60025
  0
LINE
  8
0
 10
-5.96729
 20
-4.60025
 11
-5.96729
 21
-21.9812
  0
LINE
  8
0
 10
-5.96729
 20
-21.9812
 11
1.53143
 21
-21.9812
  0
LINE
  8
0
 10
1.53143
 20
-21.9812
 11
2.31265
 21
-21.9544
  0
LINE
  8
0
 10
-2.16634
 20
-11.532
 11
-2.16634
 21
-7.42192
  0
LINE
  8
0
 10
-2.16634
 20
-7.42192
 11
0.52652
 21
-7.42192
  0
LINE
  8
0
 10
0.52652
 20
-7.42192
 11
1.0974
 21
-7.46399
  0
LINE
  8
0
 10
1.0974
 20
-7.46399
 11
1.58044
 21
-7.59021
  0
LINE
  8
0
 10
1.58044
 20
-7.59021
 11
1.97566
 21
-7.80057
  0
LINE
  8
0
 10
1.97566
 20
-7.80057
 11
2.28305
 21
-8.09506
  0
LINE
  8
0
 10
2.28305
 20
-8.09506
 11
2.50262
 21
-8.47371
  0
LINE
  8
0
 10
2.50262
 20
-8.47371
 11
2.63437
 21
-8.93649
  0
LINE
  8
0
 10
2.63437
 20
-8.93649
 11
2.67827
 21
-9.48343
  0
LINE
  8
0
 10
2.67827
 20
-9.48343
 11
2.63489
 21
-10.0269
  0
LINE
  8
0
 10
2.63489
 20
-10.0269
 11
2.50471
 21
-10.4868
  0
LINE
  8
0
 10
2.50471
 20
-10.4868
 11
2.28777
 21
-10.8631
  0
LINE
  8
0
 10
2.28777
 20
-10.8631
 11
1.98404
 21
-11.1557
  0
LINE
  8
0
 10
1.98404
 20
-11.1557
 11
1.59354
 21
-11.3648
  0
LINE
  8
0
 10
1.59354
 20
-11.3648
 11
1.11624
 21
-11.4902
  0
LINE
  8
0
 10
1.11624
 20
-11.4902
 11
0.55217
 21
-11.532
  0
LINE
  8
0
 10
0.55217
 20
-11.532
 11
-2.16634
 21
-11.532
  0
LINE
  8
0
 10
-2.16634
 20
-19.1595
 11
-2.16634
 21
-14.3408
  0
LINE
  8
0
 10
-2.16634
 20
-14.3408
 11
1.05472
 21
-14.3408
  0
LINE
  8
0
 10
1.05472
 20
-14.3408
 11
1.41391
 21
-14.3533
  0
LINE
  8
0
 10
1.41391
 20
-14.3533
 11
1.74785
 21
-14.3907
  0
LINE
  8
0
 10
1.74785
 20
-14.3907
 11
2.05653
 21
-14.4532
  0
LINE
  8
0
 10
2.05653
 20
-14.4532
 11
2.34
 21
-14.5406
  0
LINE
  8
0
 10
2.34
 20
-14.5406
 11
2.59821
 21
-14.653
  0
LINE
  8
0
 10
2.59821
 20
-14.653
 11
2.83118
 21
-14.7904
  0
LINE
  8
0
 10
2.83118
 20
-14.7904
 11
3.03889
 21
-14.9528
  0
LINE
  8
0
 10
3.03889
 20
-14.9528
 11
3.22006
 21
-15.1383
  0
LINE
  8
0
 10
3.22006
 20
-15.1383
 11
3.37335
 21
-15.3451
  0
LINE
  8
0
 10
3.37335
 20
-15.3451
 11
3.49878
 21
-15.5732
  0
LINE
  8
0
 10
3.49878
 20
-15.5732
 11
3.59633
 21
-15.8226
  0
LINE
  8
0
 10
3.59633
 20
-15.8226
 11
3.66602
 21
-16.0933
  0
LINE
  8
0
 10
3.66602
 20
-16.0933
 11
3.70782
 21
-16.3853
  0
LINE
  8
0
 10
3.70782
 20
-16.3853
 11
3.72176
 21
-16.6987
  0
LINE
  8
0
 10
3.72176
 20
-16.6987
 11
3.66917
 21
-17.3516
  0
LINE
  8
0
 10
3.66917
 20
-17.3516
 11
3.5114
 21
-17.904
  0
LINE
  8
0
 10
3.5114
 20
-17.904
 11
3.24847
 21
-18.356
  0
LINE
  8
0
 10
3.24847
 20
-18.356
 11
2.88036
 21
-18.7076
  0
LINE
  8
0
 10
2.88036
 20
-18.7076
 11
2.40707
 21
-18.9587
  0
LINE
  8
0
 10
2.40707
 20
-18.9587
 11
1.82861
 21
-19.1093
  0
LINE
  8
0
 10
1.82861
 20
-19.1093
 11
1.14497
 21
-19.1595
  0
LINE
  8
0
 10
1.14497
 20
-19.1595
 11
-2.16634
 21
-19.1595
  0
ENDSEC
  0
SECTION
  2
OBJECTS
  0
DICTIONARY
  0
ENDSEC
  0
EOF
