solid OpenSCAD_Model
  facet normal 0 0 -1
    outer loop
      vertex 3.03889 -12.8462 0
      vertex 2.63489 -10.0269 0
      vertex 2.67827 -9.48343 0
    endloop
  endfacet
  facet normal 0 0 -1
    outer loop
      vertex 2.34 -14.5406 0
      vertex 3.03889 -12.8462 0
      vertex 2.59821 -14.653 0
    endloop
  endfacet
  facet normal 0 0 -1
    outer loop
      vertex 3.03889 -12.8462 0
      vertex 2.50471 -10.4868 0
      vertex 2.63489 -10.0269 0
    endloop
  endfacet
  facet normal 0 0 -1
    outer loop
      vertex 2.05653 -14.4532 0
      vertex 3.03889 -12.8462 0
      vertex 2.34 -14.5406 0
    endloop
  endfacet
  facet normal 0 0 -1
    outer loop
      vertex 3.03889 -12.8462 0
      vertex 2.28777 -10.8631 0
      vertex 2.50471 -10.4868 0
    endloop
  endfacet
  facet normal 0 0 -1
    outer loop
      vertex 1.74785 -14.3907 0
      vertex 3.03889 -12.8462 0
      vertex 2.05653 -14.4532 0
    endloop
  endfacet
  facet normal 0 0 -1
    outer loop
      vertex 3.03889 -12.8462 0
      vertex 1.98404 -11.1557 0
      vertex 2.28777 -10.8631 0
    endloop
  endfacet
  facet normal 0 0 -1
    outer loop
      vertex 1.41391 -14.3533 0
      vertex 3.03889 -12.8462 0
      vertex 1.74785 -14.3907 0
    endloop
  endfacet
  facet normal 0 0 -1
    outer loop
      vertex 3.03889 -12.8462 0
      vertex 1.59354 -11.3648 0
      vertex 1.98404 -11.1557 0
    endloop
  endfacet
  facet normal 0 0 -1
    outer loop
      vertex 1.11624 -11.4902 0
      vertex 3.03889 -12.8462 0
      vertex 1.41391 -14.3533 0
    endloop
  endfacet
  facet normal 0 0 -1
    outer loop
      vertex 3.03889 -12.8462 0
      vertex 1.11624 -11.4902 0
      vertex 1.59354 -11.3648 0
    endloop
  endfacet
  facet normal 0 0 -1
    outer loop
      vertex 1.05472 -14.3408 0
      vertex 1.11624 -11.4902 0
      vertex 1.41391 -14.3533 0
    endloop
  endfacet
  facet normal 0 0 -1
    outer loop
      vertex 1.05472 -14.3408 0
      vertex 0.55217 -11.532 0
      vertex 1.11624 -11.4902 0
    endloop
  endfacet
  facet normal 0 0 -1
    outer loop
      vertex -2.16634 -14.3408 0
      vertex 0.55217 -11.532 0
      vertex 1.05472 -14.3408 0
    endloop
  endfacet
  facet normal -0 0 -1
    outer loop
      vertex 0.55217 -11.532 0
      vertex -2.16634 -14.3408 0
      vertex -2.16634 -11.532 0
    endloop
  endfacet
  facet normal -0 0 -1
    outer loop
      vertex 7.54854 -17.0207 0
      vertex 3.66917 -17.3516 0
      vertex 3.72176 -16.6987 0
    endloop
  endfacet
  facet normal 0 0 -1
    outer loop
      vertex 4.35655 -21.5521 0
      vertex 3.5114 -17.904 0
      vertex 3.66917 -17.3516 0
    endloop
  endfacet
  facet normal 0 0 -1
    outer loop
      vertex 4.35655 -21.5521 0
      vertex 3.24847 -18.356 0
      vertex 3.5114 -17.904 0
    endloop
  endfacet
  facet normal 0 0 -1
    outer loop
      vertex 2.40707 -18.9587 0
      vertex 3.72522 -21.7399 0
      vertex 3.04391 -21.874 0
    endloop
  endfacet
  facet normal 0 0 -1
    outer loop
      vertex 4.35655 -21.5521 0
      vertex 2.88036 -18.7076 0
      vertex 3.24847 -18.356 0
    endloop
  endfacet
  facet normal 0 0 -1
    outer loop
      vertex 3.72522 -21.7399 0
      vertex 2.40707 -18.9587 0
      vertex 2.88036 -18.7076 0
    endloop
  endfacet
  facet normal 0 0 -1
    outer loop
      vertex 2.31265 -21.9544 0
      vertex 2.40707 -18.9587 0
      vertex 3.04391 -21.874 0
    endloop
  endfacet
  facet normal 0 0 -1
    outer loop
      vertex 2.31265 -21.9544 0
      vertex 1.82861 -19.1093 0
      vertex 2.40707 -18.9587 0
    endloop
  endfacet
  facet normal 0 0 -1
    outer loop
      vertex 1.53143 -21.9812 0
      vertex 1.82861 -19.1093 0
      vertex 2.31265 -21.9544 0
    endloop
  endfacet
  facet normal 0 0 -1
    outer loop
      vertex 1.53143 -21.9812 0
      vertex 1.14497 -19.1595 0
      vertex 1.82861 -19.1093 0
    endloop
  endfacet
  facet normal 0 0 -1
    outer loop
      vertex 1.53143 -21.9812 0
      vertex -2.16634 -19.1595 0
      vertex 1.14497 -19.1595 0
    endloop
  endfacet
  facet normal 0 0 -1
    outer loop
      vertex -5.96729 -21.9812 0
      vertex -2.16634 -14.3408 0
      vertex -2.16634 -19.1595 0
    endloop
  endfacet
  facet normal 0 0 -1
    outer loop
      vertex -5.96729 -4.60025 0
      vertex -2.16634 -14.3408 0
      vertex -5.96729 -21.9812 0
    endloop
  endfacet
  facet normal 0 0 -1
    outer loop
      vertex -2.16634 -14.3408 0
      vertex -5.96729 -4.60025 0
      vertex -2.16634 -11.532 0
    endloop
  endfacet
  facet normal 0 0 -1
    outer loop
      vertex -5.96729 -21.9812 0
      vertex -2.16634 -19.1595 0
      vertex 1.53143 -21.9812 0
    endloop
  endfacet
  facet normal 0 0 -1
    outer loop
      vertex 3.66917 -17.3516 0
      vertex 7.54854 -17.0207 0
      vertex 7.51595 -17.6663 0
    endloop
  endfacet
  facet normal 0 0 -1
    outer loop
      vertex 7.54854 -17.0207 0
      vertex 3.72176 -16.6987 0
      vertex 7.52501 -16.5269 0
    endloop
  endfacet
  facet normal 0 0 -1
    outer loop
      vertex 3.66917 -17.3516 0
      vertex 7.51595 -17.6663 0
      vertex 7.41812 -18.2702 0
    endloop
  endfacet
  facet normal -0 0 -1
    outer loop
      vertex 7.52501 -16.5269 0
      vertex 3.72176 -16.6987 0
      vertex 7.45439 -16.0615 0
    endloop
  endfacet
  facet normal 0 0 -1
    outer loop
      vertex 3.66917 -17.3516 0
      vertex 7.41812 -18.2702 0
      vertex 7.25508 -18.8327 0
    endloop
  endfacet
  facet normal 0 0 -1
    outer loop
      vertex 3.70782 -16.3853 0
      vertex 7.45439 -16.0615 0
      vertex 3.72176 -16.6987 0
    endloop
  endfacet
  facet normal 0 0 -1
    outer loop
      vertex 3.66917 -17.3516 0
      vertex 7.25508 -18.8327 0
      vertex 7.02684 -19.3536 0
    endloop
  endfacet
  facet normal -0 0 -1
    outer loop
      vertex 7.45439 -16.0615 0
      vertex 3.70782 -16.3853 0
      vertex 7.33672 -15.6245 0
    endloop
  endfacet
  facet normal 0 0 -1
    outer loop
      vertex 3.66917 -17.3516 0
      vertex 7.02684 -19.3536 0
      vertex 6.73338 -19.8329 0
    endloop
  endfacet
  facet normal -0 0 -1
    outer loop
      vertex 7.33672 -15.6245 0
      vertex 3.70782 -16.3853 0
      vertex 7.17195 -15.2159 0
    endloop
  endfacet
  facet normal 0 0 -1
    outer loop
      vertex 3.66602 -16.0933 0
      vertex 7.17195 -15.2159 0
      vertex 3.70782 -16.3853 0
    endloop
  endfacet
  facet normal 0 0 -1
    outer loop
      vertex 3.66917 -17.3516 0
      vertex 6.73338 -19.8329 0
      vertex 6.37471 -20.2708 0
    endloop
  endfacet
  facet normal -0 0 -1
    outer loop
      vertex 7.17195 -15.2159 0
      vertex 3.66602 -16.0933 0
      vertex 6.96013 -14.8357 0
    endloop
  endfacet
  facet normal 0 0 -1
    outer loop
      vertex 3.66917 -17.3516 0
      vertex 6.37471 -20.2708 0
      vertex 5.95084 -20.667 0
    endloop
  endfacet
  facet normal -0 0 -1
    outer loop
      vertex 6.96013 -14.8357 0
      vertex 3.66602 -16.0933 0
      vertex 6.70122 -14.4839 0
    endloop
  endfacet
  facet normal 0 0 -1
    outer loop
      vertex 3.66917 -17.3516 0
      vertex 5.95084 -20.667 0
      vertex 5.46936 -21.0157 0
    endloop
  endfacet
  facet normal 0 0 -1
    outer loop
      vertex 3.59633 -15.8226 0
      vertex 6.70122 -14.4839 0
      vertex 3.66602 -16.0933 0
    endloop
  endfacet
  facet normal 0 0 -1
    outer loop
      vertex 3.66917 -17.3516 0
      vertex 5.46936 -21.0157 0
      vertex 4.93794 -21.3107 0
    endloop
  endfacet
  facet normal -0 0 -1
    outer loop
      vertex 6.70122 -14.4839 0
      vertex 3.59633 -15.8226 0
      vertex 6.39525 -14.1605 0
    endloop
  endfacet
  facet normal 0 0 -1
    outer loop
      vertex 3.66917 -17.3516 0
      vertex 4.93794 -21.3107 0
      vertex 4.35655 -21.5521 0
    endloop
  endfacet
  facet normal -0 0 -1
    outer loop
      vertex 6.39525 -14.1605 0
      vertex 3.59633 -15.8226 0
      vertex 6.04436 -13.8686 0
    endloop
  endfacet
  facet normal 0 0 -1
    outer loop
      vertex 2.88036 -18.7076 0
      vertex 4.35655 -21.5521 0
      vertex 3.72522 -21.7399 0
    endloop
  endfacet
  facet normal 0 0 -1
    outer loop
      vertex 3.49878 -15.5732 0
      vertex 6.04436 -13.8686 0
      vertex 3.59633 -15.8226 0
    endloop
  endfacet
  facet normal -0 0 -1
    outer loop
      vertex 6.04436 -13.8686 0
      vertex 3.49878 -15.5732 0
      vertex 5.6506 -13.6115 0
    endloop
  endfacet
  facet normal -0 0 -1
    outer loop
      vertex 5.6506 -13.6115 0
      vertex 3.49878 -15.5732 0
      vertex 5.21399 -13.389 0
    endloop
  endfacet
  facet normal 0 0 -1
    outer loop
      vertex 3.37335 -15.3451 0
      vertex 5.21399 -13.389 0
      vertex 3.49878 -15.5732 0
    endloop
  endfacet
  facet normal -0 0 -1
    outer loop
      vertex 5.21399 -13.389 0
      vertex 3.37335 -15.3451 0
      vertex 4.73451 -13.2012 0
    endloop
  endfacet
  facet normal 0 0 -1
    outer loop
      vertex 3.22006 -15.1383 0
      vertex 4.73451 -13.2012 0
      vertex 3.37335 -15.3451 0
    endloop
  endfacet
  facet normal -0 0 -1
    outer loop
      vertex 4.73451 -13.2012 0
      vertex 3.22006 -15.1383 0
      vertex 4.21216 -13.0482 0
    endloop
  endfacet
  facet normal 0 0 -1
    outer loop
      vertex 3.03889 -14.9528 0
      vertex 4.21216 -13.0482 0
      vertex 3.22006 -15.1383 0
    endloop
  endfacet
  facet normal -0 0 -1
    outer loop
      vertex 4.21216 -13.0482 0
      vertex 3.03889 -14.9528 0
      vertex 3.64696 -12.9299 0
    endloop
  endfacet
  facet normal 0 0 -1
    outer loop
      vertex 2.83118 -14.7904 0
      vertex 3.64696 -12.9299 0
      vertex 3.03889 -14.9528 0
    endloop
  endfacet
  facet normal 0 0 -1
    outer loop
      vertex 2.59821 -14.653 0
      vertex 3.64696 -12.9299 0
      vertex 2.83118 -14.7904 0
    endloop
  endfacet
  facet normal -0 0 -1
    outer loop
      vertex 3.64696 -12.9299 0
      vertex 2.59821 -14.653 0
      vertex 3.03889 -12.8462 0
    endloop
  endfacet
  facet normal 0 0 -1
    outer loop
      vertex 3.03889 -12.8462 0
      vertex 2.67827 -9.48343 0
      vertex 2.95494 -4.80733 0
    endloop
  endfacet
  facet normal 0 0 -1
    outer loop
      vertex 2.63437 -8.93649 0
      vertex 2.95494 -4.80733 0
      vertex 2.67827 -9.48343 0
    endloop
  endfacet
  facet normal 0 0 -1
    outer loop
      vertex 2.50262 -8.47371 0
      vertex 2.95494 -4.80733 0
      vertex 2.63437 -8.93649 0
    endloop
  endfacet
  facet normal 0 0 -1
    outer loop
      vertex 2.28305 -8.09506 0
      vertex 2.95494 -4.80733 0
      vertex 2.50262 -8.47371 0
    endloop
  endfacet
  facet normal 0 0 -1
    outer loop
      vertex 1.97566 -7.80057 0
      vertex 2.95494 -4.80733 0
      vertex 2.28305 -8.09506 0
    endloop
  endfacet
  facet normal 0 0 -1
    outer loop
      vertex 1.58044 -7.59021 0
      vertex 2.95494 -4.80733 0
      vertex 1.97566 -7.80057 0
    endloop
  endfacet
  facet normal -0 0 -1
    outer loop
      vertex 2.95494 -4.80733 0
      vertex 1.58044 -7.59021 0
      vertex 2.29114 -4.69229 0
    endloop
  endfacet
  facet normal 0 0 -1
    outer loop
      vertex 1.58044 -7.59021 0
      vertex 1.57185 -4.62326 0
      vertex 2.29114 -4.69229 0
    endloop
  endfacet
  facet normal 0 0 -1
    outer loop
      vertex 1.0974 -7.46399 0
      vertex 1.57185 -4.62326 0
      vertex 1.58044 -7.59021 0
    endloop
  endfacet
  facet normal 0 0 -1
    outer loop
      vertex 1.0974 -7.46399 0
      vertex 0.797089 -4.60025 0
      vertex 1.57185 -4.62326 0
    endloop
  endfacet
  facet normal 0 0 -1
    outer loop
      vertex 0.52652 -7.42192 0
      vertex 0.797089 -4.60025 0
      vertex 1.0974 -7.46399 0
    endloop
  endfacet
  facet normal 0 0 -1
    outer loop
      vertex -2.16634 -7.42192 0
      vertex 0.797089 -4.60025 0
      vertex 0.52652 -7.42192 0
    endloop
  endfacet
  facet normal 0 0 -1
    outer loop
      vertex -2.16634 -7.42192 0
      vertex -5.96729 -4.60025 0
      vertex 0.797089 -4.60025 0
    endloop
  endfacet
  facet normal 0 0 -1
    outer loop
      vertex -2.16634 -11.532 0
      vertex -5.96729 -4.60025 0
      vertex -2.16634 -7.42192 0
    endloop
  endfacet
  facet normal 0 0 -1
    outer loop
      vertex 3.97293 -12.5806 0
      vertex 6.50487 -8.96796 0
      vertex 6.48752 -9.38173 0
    endloop
  endfacet
  facet normal 0 0 -1
    outer loop
      vertex 4.38393 -12.4088 0
      vertex 6.48752 -9.38173 0
      vertex 6.43546 -9.77629 0
    endloop
  endfacet
  facet normal -0 0 -1
    outer loop
      vertex 6.50487 -8.96796 0
      vertex 3.97293 -12.5806 0
      vertex 6.4753 -8.38435 0
    endloop
  endfacet
  facet normal 0 0 -1
    outer loop
      vertex 4.38393 -12.4088 0
      vertex 6.43546 -9.77629 0
      vertex 6.34868 -10.1517 0
    endloop
  endfacet
  facet normal 0 -0 -1
    outer loop
      vertex 4.11612 -5.17546 0
      vertex 6.4753 -8.38435 0
      vertex 3.97293 -12.5806 0
    endloop
  endfacet
  facet normal 0 0 -1
    outer loop
      vertex 4.75758 -12.2109 0
      vertex 6.34868 -10.1517 0
      vertex 6.22717 -10.5078 0
    endloop
  endfacet
  facet normal 0 0 -1
    outer loop
      vertex 4.75758 -12.2109 0
      vertex 6.22717 -10.5078 0
      vertex 6.07098 -10.8448 0
    endloop
  endfacet
  facet normal 0 0 -1
    outer loop
      vertex 6.48752 -9.38173 0
      vertex 4.38393 -12.4088 0
      vertex 3.97293 -12.5806 0
    endloop
  endfacet
  facet normal 0 0 -1
    outer loop
      vertex 4.75758 -12.2109 0
      vertex 6.07098 -10.8448 0
      vertex 5.88007 -11.1626 0
    endloop
  endfacet
  facet normal 0 0 -1
    outer loop
      vertex 6.4753 -8.38435 0
      vertex 4.11612 -5.17546 0
      vertex 6.38655 -7.841 0
    endloop
  endfacet
  facet normal 0 0 -1
    outer loop
      vertex 4.75758 -12.2109 0
      vertex 5.88007 -11.1626 0
      vertex 5.65443 -11.4611 0
    endloop
  endfacet
  facet normal 0 0 -1
    outer loop
      vertex 6.34868 -10.1517 0
      vertex 4.75758 -12.2109 0
      vertex 4.38393 -12.4088 0
    endloop
  endfacet
  facet normal 0 0 -1
    outer loop
      vertex 5.09389 -11.987 0
      vertex 5.65443 -11.4611 0
      vertex 5.39284 -11.7371 0
    endloop
  endfacet
  facet normal 0 0 -1
    outer loop
      vertex 4.75758 -12.2109 0
      vertex 5.65443 -11.4611 0
      vertex 5.09389 -11.987 0
    endloop
  endfacet
  facet normal 0 0 -1
    outer loop
      vertex 6.38655 -7.841 0
      vertex 4.61348 -5.42857 0
      vertex 6.23863 -7.33788 0
    endloop
  endfacet
  facet normal 0 0 -1
    outer loop
      vertex 6.03157 -6.87497 0
      vertex 5.05536 -5.72769 0
      vertex 5.76534 -6.45232 0
    endloop
  endfacet
  facet normal 0 0 -1
    outer loop
      vertex 5.76534 -6.45232 0
      vertex 5.05536 -5.72769 0
      vertex 5.43993 -6.06989 0
    endloop
  endfacet
  facet normal 0 0 -1
    outer loop
      vertex 6.23863 -7.33788 0
      vertex 5.05536 -5.72769 0
      vertex 6.03157 -6.87497 0
    endloop
  endfacet
  facet normal -0 -0 -1
    outer loop
      vertex 5.05536 -5.72769 0
      vertex 6.23863 -7.33788 0
      vertex 4.61348 -5.42857 0
    endloop
  endfacet
  facet normal 0 0 -1
    outer loop
      vertex 6.38655 -7.841 0
      vertex 4.11612 -5.17546 0
      vertex 4.61348 -5.42857 0
    endloop
  endfacet
  facet normal 0 0 -1
    outer loop
      vertex 3.52458 -12.7264 0
      vertex 4.11612 -5.17546 0
      vertex 3.97293 -12.5806 0
    endloop
  endfacet
  facet normal -0 0 -1
    outer loop
      vertex 4.11612 -5.17546 0
      vertex 3.52458 -12.7264 0
      vertex 3.56326 -4.9684 0
    endloop
  endfacet
  facet normal 0 0 -1
    outer loop
      vertex 3.03889 -12.8462 0
      vertex 3.56326 -4.9684 0
      vertex 3.52458 -12.7264 0
    endloop
  endfacet
  facet normal -0 0 -1
    outer loop
      vertex 3.56326 -4.9684 0
      vertex 3.03889 -12.8462 0
      vertex 2.95494 -4.80733 0
    endloop
  endfacet
  facet normal -0 0 1
    outer loop
      vertex 2.63437 -8.93649 1
      vertex 6.50487 -8.96796 1
      vertex 6.4753 -8.38435 1
    endloop
  endfacet
  facet normal 0 -0 1
    outer loop
      vertex 2.67827 -9.48343 1
      vertex 6.50487 -8.96796 1
      vertex 2.63437 -8.93649 1
    endloop
  endfacet
  facet normal 0 0 1
    outer loop
      vertex 2.63437 -8.93649 1
      vertex 6.4753 -8.38435 1
      vertex 6.38655 -7.841 1
    endloop
  endfacet
  facet normal 0 0 1
    outer loop
      vertex 6.50487 -8.96796 1
      vertex 2.67827 -9.48343 1
      vertex 6.48752 -9.38173 1
    endloop
  endfacet
  facet normal 0 0 1
    outer loop
      vertex 2.50262 -8.47371 1
      vertex 6.38655 -7.841 1
      vertex 6.23863 -7.33788 1
    endloop
  endfacet
  facet normal 0 0 1
    outer loop
      vertex 6.48752 -9.38173 1
      vertex 2.67827 -9.48343 1
      vertex 6.43546 -9.77629 1
    endloop
  endfacet
  facet normal 0 0 1
    outer loop
      vertex 6.43546 -9.77629 1
      vertex 2.67827 -9.48343 1
      vertex 6.34868 -10.1517 1
    endloop
  endfacet
  facet normal 0 0 1
    outer loop
      vertex 2.50262 -8.47371 1
      vertex 6.23863 -7.33788 1
      vertex 6.03157 -6.87497 1
    endloop
  endfacet
  facet normal 0 0 1
    outer loop
      vertex 6.34868 -10.1517 1
      vertex 2.67827 -9.48343 1
      vertex 6.22717 -10.5078 1
    endloop
  endfacet
  facet normal 0 0 1
    outer loop
      vertex 2.50262 -8.47371 1
      vertex 6.03157 -6.87497 1
      vertex 5.76534 -6.45232 1
    endloop
  endfacet
  facet normal 0 0 1
    outer loop
      vertex 6.22717 -10.5078 1
      vertex 2.67827 -9.48343 1
      vertex 6.07098 -10.8448 1
    endloop
  endfacet
  facet normal 0 0 1
    outer loop
      vertex 2.50262 -8.47371 1
      vertex 5.76534 -6.45232 1
      vertex 5.43993 -6.06989 1
    endloop
  endfacet
  facet normal -0 0 1
    outer loop
      vertex 2.63489 -10.0269 1
      vertex 6.07098 -10.8448 1
      vertex 2.67827 -9.48343 1
    endloop
  endfacet
  facet normal 0 0 1
    outer loop
      vertex 6.07098 -10.8448 1
      vertex 2.63489 -10.0269 1
      vertex 5.88007 -11.1626 1
    endloop
  endfacet
  facet normal 0 0 1
    outer loop
      vertex 2.28305 -8.09506 1
      vertex 5.43993 -6.06989 1
      vertex 5.05536 -5.72769 1
    endloop
  endfacet
  facet normal 0 0 1
    outer loop
      vertex 5.88007 -11.1626 1
      vertex 2.63489 -10.0269 1
      vertex 5.65443 -11.4611 1
    endloop
  endfacet
  facet normal 0 0 1
    outer loop
      vertex 2.28305 -8.09506 1
      vertex 5.05536 -5.72769 1
      vertex 4.61348 -5.42857 1
    endloop
  endfacet
  facet normal 0 0 1
    outer loop
      vertex 5.65443 -11.4611 1
      vertex 2.63489 -10.0269 1
      vertex 5.39284 -11.7371 1
    endloop
  endfacet
  facet normal 0 0 1
    outer loop
      vertex 2.28305 -8.09506 1
      vertex 4.61348 -5.42857 1
      vertex 4.11612 -5.17546 1
    endloop
  endfacet
  facet normal 0 0 1
    outer loop
      vertex 5.39284 -11.7371 1
      vertex 2.63489 -10.0269 1
      vertex 5.09389 -11.987 1
    endloop
  endfacet
  facet normal 0 0 1
    outer loop
      vertex 1.97566 -7.80057 1
      vertex 4.11612 -5.17546 1
      vertex 3.56326 -4.9684 1
    endloop
  endfacet
  facet normal -0 0 1
    outer loop
      vertex 2.50471 -10.4868 1
      vertex 5.09389 -11.987 1
      vertex 2.63489 -10.0269 1
    endloop
  endfacet
  facet normal 0 0 1
    outer loop
      vertex 4.75758 -12.2109 1
      vertex 2.50471 -10.4868 1
      vertex 4.38393 -12.4088 1
    endloop
  endfacet
  facet normal 0 0 1
    outer loop
      vertex 1.97566 -7.80057 1
      vertex 3.56326 -4.9684 1
      vertex 2.95494 -4.80733 1
    endloop
  endfacet
  facet normal 0 0 1
    outer loop
      vertex 4.38393 -12.4088 1
      vertex 2.50471 -10.4868 1
      vertex 3.97293 -12.5806 1
    endloop
  endfacet
  facet normal -0 0 1
    outer loop
      vertex 2.28777 -10.8631 1
      vertex 3.97293 -12.5806 1
      vertex 2.50471 -10.4868 1
    endloop
  endfacet
  facet normal 0 0 1
    outer loop
      vertex 3.97293 -12.5806 1
      vertex 2.28777 -10.8631 1
      vertex 3.52458 -12.7264 1
    endloop
  endfacet
  facet normal 0 0 1
    outer loop
      vertex 5.09389 -11.987 1
      vertex 2.50471 -10.4868 1
      vertex 4.75758 -12.2109 1
    endloop
  endfacet
  facet normal 0 0 1
    outer loop
      vertex 6.38655 -7.841 1
      vertex 2.50262 -8.47371 1
      vertex 2.63437 -8.93649 1
    endloop
  endfacet
  facet normal 0 0 1
    outer loop
      vertex 1.58044 -7.59021 1
      vertex 2.95494 -4.80733 1
      vertex 2.29114 -4.69229 1
    endloop
  endfacet
  facet normal 0 0 1
    outer loop
      vertex 5.43993 -6.06989 1
      vertex 2.28305 -8.09506 1
      vertex 2.50262 -8.47371 1
    endloop
  endfacet
  facet normal 0 0 1
    outer loop
      vertex 4.11612 -5.17546 1
      vertex 1.97566 -7.80057 1
      vertex 2.28305 -8.09506 1
    endloop
  endfacet
  facet normal 0 0 1
    outer loop
      vertex 2.95494 -4.80733 1
      vertex 1.58044 -7.59021 1
      vertex 1.97566 -7.80057 1
    endloop
  endfacet
  facet normal 0 0 1
    outer loop
      vertex 1.57185 -4.62326 1
      vertex 1.58044 -7.59021 1
      vertex 2.29114 -4.69229 1
    endloop
  endfacet
  facet normal 0 0 1
    outer loop
      vertex 1.57185 -4.62326 1
      vertex 1.0974 -7.46399 1
      vertex 1.58044 -7.59021 1
    endloop
  endfacet
  facet normal 0 0 1
    outer loop
      vertex 0.797089 -4.60025 1
      vertex 1.0974 -7.46399 1
      vertex 1.57185 -4.62326 1
    endloop
  endfacet
  facet normal 0 0 1
    outer loop
      vertex 0.797089 -4.60025 1
      vertex 0.52652 -7.42192 1
      vertex 1.0974 -7.46399 1
    endloop
  endfacet
  facet normal 0 0 1
    outer loop
      vertex 0.797089 -4.60025 1
      vertex -2.16634 -7.42192 1
      vertex 0.52652 -7.42192 1
    endloop
  endfacet
  facet normal 0 0 1
    outer loop
      vertex -5.96729 -4.60025 1
      vertex -2.16634 -11.532 1
      vertex -2.16634 -7.42192 1
    endloop
  endfacet
  facet normal 0 0 1
    outer loop
      vertex -2.16634 -11.532 1
      vertex -5.96729 -4.60025 1
      vertex -2.16634 -14.3408 1
    endloop
  endfacet
  facet normal 0 0 1
    outer loop
      vertex -5.96729 -21.9812 1
      vertex -2.16634 -14.3408 1
      vertex -5.96729 -4.60025 1
    endloop
  endfacet
  facet normal -0 0 1
    outer loop
      vertex -5.96729 -4.60025 1
      vertex -2.16634 -7.42192 1
      vertex 0.797089 -4.60025 1
    endloop
  endfacet
  facet normal -0 0 1
    outer loop
      vertex 3.72176 -16.6987 1
      vertex 7.54854 -17.0207 1
      vertex 7.52501 -16.5269 1
    endloop
  endfacet
  facet normal 0 0 1
    outer loop
      vertex 3.72176 -16.6987 1
      vertex 7.52501 -16.5269 1
      vertex 7.45439 -16.0615 1
    endloop
  endfacet
  facet normal 0 0 1
    outer loop
      vertex 3.66917 -17.3516 1
      vertex 7.54854 -17.0207 1
      vertex 3.72176 -16.6987 1
    endloop
  endfacet
  facet normal 0 0 1
    outer loop
      vertex 3.70782 -16.3853 1
      vertex 7.45439 -16.0615 1
      vertex 7.33672 -15.6245 1
    endloop
  endfacet
  facet normal 0 0 1
    outer loop
      vertex 7.54854 -17.0207 1
      vertex 3.66917 -17.3516 1
      vertex 7.51595 -17.6663 1
    endloop
  endfacet
  facet normal 0 0 1
    outer loop
      vertex 3.70782 -16.3853 1
      vertex 7.33672 -15.6245 1
      vertex 7.17195 -15.2159 1
    endloop
  endfacet
  facet normal 0 0 1
    outer loop
      vertex 7.51595 -17.6663 1
      vertex 3.66917 -17.3516 1
      vertex 7.41812 -18.2702 1
    endloop
  endfacet
  facet normal 0 0 1
    outer loop
      vertex 3.66602 -16.0933 1
      vertex 7.17195 -15.2159 1
      vertex 6.96013 -14.8357 1
    endloop
  endfacet
  facet normal 0 0 1
    outer loop
      vertex 7.41812 -18.2702 1
      vertex 3.66917 -17.3516 1
      vertex 7.25508 -18.8327 1
    endloop
  endfacet
  facet normal 0 0 1
    outer loop
      vertex 3.66602 -16.0933 1
      vertex 6.96013 -14.8357 1
      vertex 6.70122 -14.4839 1
    endloop
  endfacet
  facet normal 0 0 1
    outer loop
      vertex 3.59633 -15.8226 1
      vertex 6.70122 -14.4839 1
      vertex 6.39525 -14.1605 1
    endloop
  endfacet
  facet normal -0 0 1
    outer loop
      vertex 3.5114 -17.904 1
      vertex 7.25508 -18.8327 1
      vertex 3.66917 -17.3516 1
    endloop
  endfacet
  facet normal 0 0 1
    outer loop
      vertex 3.59633 -15.8226 1
      vertex 6.39525 -14.1605 1
      vertex 6.04436 -13.8686 1
    endloop
  endfacet
  facet normal 0 0 1
    outer loop
      vertex 7.25508 -18.8327 1
      vertex 3.5114 -17.904 1
      vertex 7.02684 -19.3536 1
    endloop
  endfacet
  facet normal 0 0 1
    outer loop
      vertex 3.49878 -15.5732 1
      vertex 6.04436 -13.8686 1
      vertex 5.6506 -13.6115 1
    endloop
  endfacet
  facet normal 0 0 1
    outer loop
      vertex 7.02684 -19.3536 1
      vertex 3.5114 -17.904 1
      vertex 6.73338 -19.8329 1
    endloop
  endfacet
  facet normal 0 0 1
    outer loop
      vertex 3.49878 -15.5732 1
      vertex 5.6506 -13.6115 1
      vertex 5.21399 -13.389 1
    endloop
  endfacet
  facet normal 0 0 1
    outer loop
      vertex 6.73338 -19.8329 1
      vertex 3.5114 -17.904 1
      vertex 6.37471 -20.2708 1
    endloop
  endfacet
  facet normal 0 0 1
    outer loop
      vertex 3.37335 -15.3451 1
      vertex 5.21399 -13.389 1
      vertex 4.73451 -13.2012 1
    endloop
  endfacet
  facet normal -0 0 1
    outer loop
      vertex 3.24847 -18.356 1
      vertex 6.37471 -20.2708 1
      vertex 3.5114 -17.904 1
    endloop
  endfacet
  facet normal 0 0 1
    outer loop
      vertex 3.22006 -15.1383 1
      vertex 4.73451 -13.2012 1
      vertex 4.21216 -13.0482 1
    endloop
  endfacet
  facet normal 0 0 1
    outer loop
      vertex 6.37471 -20.2708 1
      vertex 3.24847 -18.356 1
      vertex 5.95084 -20.667 1
    endloop
  endfacet
  facet normal 0 0 1
    outer loop
      vertex 5.95084 -20.667 1
      vertex 3.24847 -18.356 1
      vertex 5.46936 -21.0157 1
    endloop
  endfacet
  facet normal 0 0 1
    outer loop
      vertex 7.45439 -16.0615 1
      vertex 3.70782 -16.3853 1
      vertex 3.72176 -16.6987 1
    endloop
  endfacet
  facet normal 0 0 1
    outer loop
      vertex 7.17195 -15.2159 1
      vertex 3.66602 -16.0933 1
      vertex 3.70782 -16.3853 1
    endloop
  endfacet
  facet normal 0 0 1
    outer loop
      vertex 3.03889 -14.9528 1
      vertex 4.21216 -13.0482 1
      vertex 3.64696 -12.9299 1
    endloop
  endfacet
  facet normal 0 0 1
    outer loop
      vertex 6.70122 -14.4839 1
      vertex 3.59633 -15.8226 1
      vertex 3.66602 -16.0933 1
    endloop
  endfacet
  facet normal 0 0 1
    outer loop
      vertex 6.04436 -13.8686 1
      vertex 3.49878 -15.5732 1
      vertex 3.59633 -15.8226 1
    endloop
  endfacet
  facet normal 0 0 1
    outer loop
      vertex 5.21399 -13.389 1
      vertex 3.37335 -15.3451 1
      vertex 3.49878 -15.5732 1
    endloop
  endfacet
  facet normal 0 0 1
    outer loop
      vertex 4.73451 -13.2012 1
      vertex 3.22006 -15.1383 1
      vertex 3.37335 -15.3451 1
    endloop
  endfacet
  facet normal 0 0 1
    outer loop
      vertex 3.03889 -14.9528 1
      vertex 3.64696 -12.9299 1
      vertex 3.03889 -12.8462 1
    endloop
  endfacet
  facet normal 0 0 1
    outer loop
      vertex 4.21216 -13.0482 1
      vertex 3.03889 -14.9528 1
      vertex 3.22006 -15.1383 1
    endloop
  endfacet
  facet normal 0 0 1
    outer loop
      vertex 5.46936 -21.0157 1
      vertex 3.24847 -18.356 1
      vertex 4.93794 -21.3107 1
    endloop
  endfacet
  facet normal -0 0 1
    outer loop
      vertex 2.88036 -18.7076 1
      vertex 4.93794 -21.3107 1
      vertex 3.24847 -18.356 1
    endloop
  endfacet
  facet normal 0 0 1
    outer loop
      vertex 4.93794 -21.3107 1
      vertex 2.88036 -18.7076 1
      vertex 4.35655 -21.5521 1
    endloop
  endfacet
  facet normal 0 0 1
    outer loop
      vertex 4.35655 -21.5521 1
      vertex 2.88036 -18.7076 1
      vertex 3.72522 -21.7399 1
    endloop
  endfacet
  facet normal -0 0 1
    outer loop
      vertex 2.40707 -18.9587 1
      vertex 3.72522 -21.7399 1
      vertex 2.88036 -18.7076 1
    endloop
  endfacet
  facet normal 0 0 1
    outer loop
      vertex 3.72522 -21.7399 1
      vertex 2.40707 -18.9587 1
      vertex 3.04391 -21.874 1
    endloop
  endfacet
  facet normal 0 0 1
    outer loop
      vertex 2.40707 -18.9587 1
      vertex 2.31265 -21.9544 1
      vertex 3.04391 -21.874 1
    endloop
  endfacet
  facet normal -0 0 1
    outer loop
      vertex 1.82861 -19.1093 1
      vertex 2.31265 -21.9544 1
      vertex 2.40707 -18.9587 1
    endloop
  endfacet
  facet normal 0 0 1
    outer loop
      vertex 1.82861 -19.1093 1
      vertex 1.53143 -21.9812 1
      vertex 2.31265 -21.9544 1
    endloop
  endfacet
  facet normal -0 0 1
    outer loop
      vertex 1.14497 -19.1595 1
      vertex 1.53143 -21.9812 1
      vertex 1.82861 -19.1093 1
    endloop
  endfacet
  facet normal -0 0 1
    outer loop
      vertex -2.16634 -19.1595 1
      vertex 1.53143 -21.9812 1
      vertex 1.14497 -19.1595 1
    endloop
  endfacet
  facet normal 0 0 1
    outer loop
      vertex -2.16634 -19.1595 1
      vertex -5.96729 -21.9812 1
      vertex 1.53143 -21.9812 1
    endloop
  endfacet
  facet normal 0 0 1
    outer loop
      vertex -2.16634 -14.3408 1
      vertex -5.96729 -21.9812 1
      vertex -2.16634 -19.1595 1
    endloop
  endfacet
  facet normal 0 0 1
    outer loop
      vertex 3.52458 -12.7264 1
      vertex 2.28777 -10.8631 1
      vertex 3.03889 -12.8462 1
    endloop
  endfacet
  facet normal -0 0 1
    outer loop
      vertex 1.98404 -11.1557 1
      vertex 3.03889 -12.8462 1
      vertex 2.28777 -10.8631 1
    endloop
  endfacet
  facet normal 0 0 1
    outer loop
      vertex 3.03889 -12.8462 1
      vertex 2.83118 -14.7904 1
      vertex 3.03889 -14.9528 1
    endloop
  endfacet
  facet normal 0 0 1
    outer loop
      vertex 3.03889 -12.8462 1
      vertex 2.59821 -14.653 1
      vertex 2.83118 -14.7904 1
    endloop
  endfacet
  facet normal -0 0 1
    outer loop
      vertex 1.59354 -11.3648 1
      vertex 3.03889 -12.8462 1
      vertex 1.98404 -11.1557 1
    endloop
  endfacet
  facet normal 0 0 1
    outer loop
      vertex 3.03889 -12.8462 1
      vertex 2.34 -14.5406 1
      vertex 2.59821 -14.653 1
    endloop
  endfacet
  facet normal 0 0 1
    outer loop
      vertex 3.03889 -12.8462 1
      vertex 2.05653 -14.4532 1
      vertex 2.34 -14.5406 1
    endloop
  endfacet
  facet normal -0 0 1
    outer loop
      vertex 1.11624 -11.4902 1
      vertex 3.03889 -12.8462 1
      vertex 1.59354 -11.3648 1
    endloop
  endfacet
  facet normal 0 0 1
    outer loop
      vertex 3.03889 -12.8462 1
      vertex 1.74785 -14.3907 1
      vertex 2.05653 -14.4532 1
    endloop
  endfacet
  facet normal 0 0 1
    outer loop
      vertex 3.03889 -12.8462 1
      vertex 1.41391 -14.3533 1
      vertex 1.74785 -14.3907 1
    endloop
  endfacet
  facet normal 0 0 1
    outer loop
      vertex 3.03889 -12.8462 1
      vertex 1.11624 -11.4902 1
      vertex 1.41391 -14.3533 1
    endloop
  endfacet
  facet normal 0 0 1
    outer loop
      vertex 1.11624 -11.4902 1
      vertex 1.05472 -14.3408 1
      vertex 1.41391 -14.3533 1
    endloop
  endfacet
  facet normal -0 0 1
    outer loop
      vertex 0.55217 -11.532 1
      vertex 1.05472 -14.3408 1
      vertex 1.11624 -11.4902 1
    endloop
  endfacet
  facet normal 0 0 1
    outer loop
      vertex -2.16634 -14.3408 1
      vertex 0.55217 -11.532 1
      vertex -2.16634 -11.532 1
    endloop
  endfacet
  facet normal 0 0 1
    outer loop
      vertex 0.55217 -11.532 1
      vertex -2.16634 -14.3408 1
      vertex 1.05472 -14.3408 1
    endloop
  endfacet
  facet normal 0.109289 -0.99401 0
    outer loop
      vertex 2.31265 -21.9544 0
      vertex 3.04391 -21.874 1
      vertex 2.31265 -21.9544 1
    endloop
  endfacet
  facet normal 0.109289 -0.99401 0
    outer loop
      vertex 3.04391 -21.874 1
      vertex 2.31265 -21.9544 0
      vertex 3.04391 -21.874 0
    endloop
  endfacet
  facet normal 0.193121 -0.981175 0
    outer loop
      vertex 3.04391 -21.874 0
      vertex 3.72522 -21.7399 1
      vertex 3.04391 -21.874 1
    endloop
  endfacet
  facet normal 0.193121 -0.981175 0
    outer loop
      vertex 3.72522 -21.7399 1
      vertex 3.04391 -21.874 0
      vertex 3.72522 -21.7399 0
    endloop
  endfacet
  facet normal 0.28512 -0.958492 0
    outer loop
      vertex 3.72522 -21.7399 0
      vertex 4.35655 -21.5521 1
      vertex 3.72522 -21.7399 1
    endloop
  endfacet
  facet normal 0.28512 -0.958492 0
    outer loop
      vertex 4.35655 -21.5521 1
      vertex 3.72522 -21.7399 0
      vertex 4.35655 -21.5521 0
    endloop
  endfacet
  facet normal 0.38347 -0.923553 0
    outer loop
      vertex 4.35655 -21.5521 0
      vertex 4.93794 -21.3107 1
      vertex 4.35655 -21.5521 1
    endloop
  endfacet
  facet normal 0.38347 -0.923553 0
    outer loop
      vertex 4.93794 -21.3107 1
      vertex 4.35655 -21.5521 0
      vertex 4.93794 -21.3107 0
    endloop
  endfacet
  facet normal 0.48535 -0.87432 0
    outer loop
      vertex 4.93794 -21.3107 0
      vertex 5.46936 -21.0157 1
      vertex 4.93794 -21.3107 1
    endloop
  endfacet
  facet normal 0.48535 -0.87432 0
    outer loop
      vertex 5.46936 -21.0157 1
      vertex 4.93794 -21.3107 0
      vertex 5.46936 -21.0157 0
    endloop
  endfacet
  facet normal 0.586556 -0.809909 0
    outer loop
      vertex 5.46936 -21.0157 0
      vertex 5.95084 -20.667 1
      vertex 5.46936 -21.0157 1
    endloop
  endfacet
  facet normal 0.586556 -0.809909 0
    outer loop
      vertex 5.95084 -20.667 1
      vertex 5.46936 -21.0157 0
      vertex 5.95084 -20.667 0
    endloop
  endfacet
  facet normal 0.68286 -0.73055 0
    outer loop
      vertex 5.95084 -20.667 0
      vertex 6.37471 -20.2708 1
      vertex 5.95084 -20.667 1
    endloop
  endfacet
  facet normal 0.68286 -0.73055 0
    outer loop
      vertex 6.37471 -20.2708 1
      vertex 5.95084 -20.667 0
      vertex 6.37471 -20.2708 0
    endloop
  endfacet
  facet normal 0.773621 -0.633648 0
    outer loop
      vertex 6.37471 -20.2708 1
      vertex 6.73338 -19.8329 0
      vertex 6.73338 -19.8329 1
    endloop
  endfacet
  facet normal 0.773621 -0.633648 0
    outer loop
      vertex 6.73338 -19.8329 0
      vertex 6.37471 -20.2708 1
      vertex 6.37471 -20.2708 0
    endloop
  endfacet
  facet normal 0.852843 -0.522168 0
    outer loop
      vertex 6.73338 -19.8329 1
      vertex 7.02684 -19.3536 0
      vertex 7.02684 -19.3536 1
    endloop
  endfacet
  facet normal 0.852843 -0.522168 0
    outer loop
      vertex 7.02684 -19.3536 0
      vertex 6.73338 -19.8329 1
      vertex 6.73338 -19.8329 0
    endloop
  endfacet
  facet normal 0.915934 -0.40133 0
    outer loop
      vertex 7.02684 -19.3536 1
      vertex 7.25508 -18.8327 0
      vertex 7.25508 -18.8327 1
    endloop
  endfacet
  facet normal 0.915934 -0.40133 0
    outer loop
      vertex 7.25508 -18.8327 0
      vertex 7.02684 -19.3536 1
      vertex 7.02684 -19.3536 0
    endloop
  endfacet
  facet normal 0.960468 -0.278391 0
    outer loop
      vertex 7.25508 -18.8327 1
      vertex 7.41812 -18.2702 0
      vertex 7.41812 -18.2702 1
    endloop
  endfacet
  facet normal 0.960468 -0.278391 0
    outer loop
      vertex 7.41812 -18.2702 0
      vertex 7.25508 -18.8327 1
      vertex 7.25508 -18.8327 0
    endloop
  endfacet
  facet normal 0.987131 -0.159912 0
    outer loop
      vertex 7.41812 -18.2702 1
      vertex 7.51595 -17.6663 0
      vertex 7.51595 -17.6663 1
    endloop
  endfacet
  facet normal 0.987131 -0.159912 0
    outer loop
      vertex 7.51595 -17.6663 0
      vertex 7.41812 -18.2702 1
      vertex 7.41812 -18.2702 0
    endloop
  endfacet
  facet normal 0.998728 -0.050416 0
    outer loop
      vertex 7.51595 -17.6663 1
      vertex 7.54854 -17.0207 0
      vertex 7.54854 -17.0207 1
    endloop
  endfacet
  facet normal 0.998728 -0.050416 0
    outer loop
      vertex 7.54854 -17.0207 0
      vertex 7.51595 -17.6663 1
      vertex 7.51595 -17.6663 0
    endloop
  endfacet
  facet normal 0.998867 0.0475969 0
    outer loop
      vertex 7.54854 -17.0207 1
      vertex 7.52501 -16.5269 0
      vertex 7.52501 -16.5269 1
    endloop
  endfacet
  facet normal 0.998867 0.0475969 0
    outer loop
      vertex 7.52501 -16.5269 0
      vertex 7.54854 -17.0207 1
      vertex 7.54854 -17.0207 0
    endloop
  endfacet
  facet normal 0.988682 0.150023 0
    outer loop
      vertex 7.52501 -16.5269 1
      vertex 7.45439 -16.0615 0
      vertex 7.45439 -16.0615 1
    endloop
  endfacet
  facet normal 0.988682 0.150023 0
    outer loop
      vertex 7.45439 -16.0615 0
      vertex 7.52501 -16.5269 1
      vertex 7.52501 -16.5269 0
    endloop
  endfacet
  facet normal 0.965607 0.260007 0
    outer loop
      vertex 7.45439 -16.0615 1
      vertex 7.33672 -15.6245 0
      vertex 7.33672 -15.6245 1
    endloop
  endfacet
  facet normal 0.965607 0.260007 0
    outer loop
      vertex 7.33672 -15.6245 0
      vertex 7.45439 -16.0615 1
      vertex 7.45439 -16.0615 0
    endloop
  endfacet
  facet normal 0.927432 0.373992 0
    outer loop
      vertex 7.33672 -15.6245 1
      vertex 7.17195 -15.2159 0
      vertex 7.17195 -15.2159 1
    endloop
  endfacet
  facet normal 0.927432 0.373992 0
    outer loop
      vertex 7.17195 -15.2159 0
      vertex 7.33672 -15.6245 1
      vertex 7.33672 -15.6245 0
    endloop
  endfacet
  facet normal 0.873574 0.486692 0
    outer loop
      vertex 7.17195 -15.2159 1
      vertex 6.96013 -14.8357 0
      vertex 6.96013 -14.8357 1
    endloop
  endfacet
  facet normal 0.873574 0.486692 0
    outer loop
      vertex 6.96013 -14.8357 0
      vertex 7.17195 -15.2159 1
      vertex 7.17195 -15.2159 0
    endloop
  endfacet
  facet normal 0.805396 0.592737 0
    outer loop
      vertex 6.96013 -14.8357 1
      vertex 6.70122 -14.4839 0
      vertex 6.70122 -14.4839 1
    endloop
  endfacet
  facet normal 0.805396 0.592737 0
    outer loop
      vertex 6.70122 -14.4839 0
      vertex 6.96013 -14.8357 1
      vertex 6.96013 -14.8357 0
    endloop
  endfacet
  facet normal 0.726411 0.68726 0
    outer loop
      vertex 6.70122 -14.4839 1
      vertex 6.39525 -14.1605 0
      vertex 6.39525 -14.1605 1
    endloop
  endfacet
  facet normal 0.726411 0.68726 0
    outer loop
      vertex 6.39525 -14.1605 0
      vertex 6.70122 -14.4839 1
      vertex 6.70122 -14.4839 0
    endloop
  endfacet
  facet normal 0.639527 0.768769 -0
    outer loop
      vertex 6.39525 -14.1605 0
      vertex 6.04436 -13.8686 1
      vertex 6.39525 -14.1605 1
    endloop
  endfacet
  facet normal 0.639527 0.768769 0
    outer loop
      vertex 6.04436 -13.8686 1
      vertex 6.39525 -14.1605 0
      vertex 6.04436 -13.8686 0
    endloop
  endfacet
  facet normal 0.546715 0.837319 -0
    outer loop
      vertex 6.04436 -13.8686 0
      vertex 5.6506 -13.6115 1
      vertex 6.04436 -13.8686 1
    endloop
  endfacet
  facet normal 0.546715 0.837319 0
    outer loop
      vertex 5.6506 -13.6115 1
      vertex 6.04436 -13.8686 0
      vertex 5.6506 -13.6115 0
    endloop
  endfacet
  facet normal 0.454049 0.890977 -0
    outer loop
      vertex 5.6506 -13.6115 0
      vertex 5.21399 -13.389 1
      vertex 5.6506 -13.6115 1
    endloop
  endfacet
  facet normal 0.454049 0.890977 0
    outer loop
      vertex 5.21399 -13.389 1
      vertex 5.6506 -13.6115 0
      vertex 5.21399 -13.389 0
    endloop
  endfacet
  facet normal 0.364698 0.931126 -0
    outer loop
      vertex 5.21399 -13.389 0
      vertex 4.73451 -13.2012 1
      vertex 5.21399 -13.389 1
    endloop
  endfacet
  facet normal 0.364698 0.931126 0
    outer loop
      vertex 4.73451 -13.2012 1
      vertex 5.21399 -13.389 0
      vertex 4.73451 -13.2012 0
    endloop
  endfacet
  facet normal 0.281097 0.959679 -0
    outer loop
      vertex 4.73451 -13.2012 0
      vertex 4.21216 -13.0482 1
      vertex 4.73451 -13.2012 1
    endloop
  endfacet
  facet normal 0.281097 0.959679 0
    outer loop
      vertex 4.21216 -13.0482 1
      vertex 4.73451 -13.2012 0
      vertex 4.21216 -13.0482 0
    endloop
  endfacet
  facet normal 0.204867 0.97879 -0
    outer loop
      vertex 4.21216 -13.0482 0
      vertex 3.64696 -12.9299 1
      vertex 4.21216 -13.0482 1
    endloop
  endfacet
  facet normal 0.204867 0.97879 0
    outer loop
      vertex 3.64696 -12.9299 1
      vertex 4.21216 -13.0482 0
      vertex 3.64696 -12.9299 0
    endloop
  endfacet
  facet normal 0.136363 0.990659 -0
    outer loop
      vertex 3.64696 -12.9299 0
      vertex 3.03889 -12.8462 1
      vertex 3.64696 -12.9299 1
    endloop
  endfacet
  facet normal 0.136363 0.990659 0
    outer loop
      vertex 3.03889 -12.8462 1
      vertex 3.64696 -12.9299 0
      vertex 3.03889 -12.8462 0
    endloop
  endfacet
  facet normal 0.239482 -0.970901 0
    outer loop
      vertex 3.03889 -12.8462 0
      vertex 3.52458 -12.7264 1
      vertex 3.03889 -12.8462 1
    endloop
  endfacet
  facet normal 0.239482 -0.970901 0
    outer loop
      vertex 3.52458 -12.7264 1
      vertex 3.03889 -12.8462 0
      vertex 3.52458 -12.7264 0
    endloop
  endfacet
  facet normal 0.309252 -0.95098 0
    outer loop
      vertex 3.52458 -12.7264 0
      vertex 3.97293 -12.5806 1
      vertex 3.52458 -12.7264 1
    endloop
  endfacet
  facet normal 0.309252 -0.95098 0
    outer loop
      vertex 3.97293 -12.5806 1
      vertex 3.52458 -12.7264 0
      vertex 3.97293 -12.5806 0
    endloop
  endfacet
  facet normal 0.385667 -0.922638 0
    outer loop
      vertex 3.97293 -12.5806 0
      vertex 4.38393 -12.4088 1
      vertex 3.97293 -12.5806 1
    endloop
  endfacet
  facet normal 0.385667 -0.922638 0
    outer loop
      vertex 4.38393 -12.4088 1
      vertex 3.97293 -12.5806 0
      vertex 4.38393 -12.4088 0
    endloop
  endfacet
  facet normal 0.468045 -0.883704 0
    outer loop
      vertex 4.38393 -12.4088 0
      vertex 4.75758 -12.2109 1
      vertex 4.38393 -12.4088 1
    endloop
  endfacet
  facet normal 0.468045 -0.883704 0
    outer loop
      vertex 4.75758 -12.2109 1
      vertex 4.38393 -12.4088 0
      vertex 4.75758 -12.2109 0
    endloop
  endfacet
  facet normal 0.554175 -0.8324 0
    outer loop
      vertex 4.75758 -12.2109 0
      vertex 5.09389 -11.987 1
      vertex 4.75758 -12.2109 1
    endloop
  endfacet
  facet normal 0.554175 -0.8324 0
    outer loop
      vertex 5.09389 -11.987 1
      vertex 4.75758 -12.2109 0
      vertex 5.09389 -11.987 0
    endloop
  endfacet
  facet normal 0.641357 -0.767242 0
    outer loop
      vertex 5.09389 -11.987 0
      vertex 5.39284 -11.7371 1
      vertex 5.09389 -11.987 1
    endloop
  endfacet
  facet normal 0.641357 -0.767242 0
    outer loop
      vertex 5.39284 -11.7371 1
      vertex 5.09389 -11.987 0
      vertex 5.39284 -11.7371 0
    endloop
  endfacet
  facet normal 0.7258 -0.687906 0
    outer loop
      vertex 5.39284 -11.7371 1
      vertex 5.65443 -11.4611 0
      vertex 5.65443 -11.4611 1
    endloop
  endfacet
  facet normal 0.7258 -0.687906 0
    outer loop
      vertex 5.65443 -11.4611 0
      vertex 5.39284 -11.7371 1
      vertex 5.39284 -11.7371 0
    endloop
  endfacet
  facet normal 0.79773 -0.603015 0
    outer loop
      vertex 5.65443 -11.4611 1
      vertex 5.88007 -11.1626 0
      vertex 5.88007 -11.1626 1
    endloop
  endfacet
  facet normal 0.79773 -0.603015 0
    outer loop
      vertex 5.88007 -11.1626 0
      vertex 5.65443 -11.4611 1
      vertex 5.65443 -11.4611 0
    endloop
  endfacet
  facet normal 0.857219 -0.514952 0
    outer loop
      vertex 5.88007 -11.1626 1
      vertex 6.07098 -10.8448 0
      vertex 6.07098 -10.8448 1
    endloop
  endfacet
  facet normal 0.857219 -0.514952 0
    outer loop
      vertex 6.07098 -10.8448 0
      vertex 5.88007 -11.1626 1
      vertex 5.88007 -11.1626 0
    endloop
  endfacet
  facet normal 0.907291 -0.420504 0
    outer loop
      vertex 6.07098 -10.8448 1
      vertex 6.22717 -10.5078 0
      vertex 6.22717 -10.5078 1
    endloop
  endfacet
  facet normal 0.907291 -0.420504 0
    outer loop
      vertex 6.22717 -10.5078 0
      vertex 6.07098 -10.8448 1
      vertex 6.07098 -10.8448 0
    endloop
  endfacet
  facet normal 0.946419 -0.322941 0
    outer loop
      vertex 6.22717 -10.5078 1
      vertex 6.34868 -10.1517 0
      vertex 6.34868 -10.1517 1
    endloop
  endfacet
  facet normal 0.946419 -0.322941 0
    outer loop
      vertex 6.34868 -10.1517 0
      vertex 6.22717 -10.5078 1
      vertex 6.22717 -10.5078 0
    endloop
  endfacet
  facet normal 0.974308 -0.225222 0
    outer loop
      vertex 6.34868 -10.1517 1
      vertex 6.43546 -9.77629 0
      vertex 6.43546 -9.77629 1
    endloop
  endfacet
  facet normal 0.974308 -0.225222 0
    outer loop
      vertex 6.43546 -9.77629 0
      vertex 6.34868 -10.1517 1
      vertex 6.34868 -10.1517 0
    endloop
  endfacet
  facet normal 0.991407 -0.130811 0
    outer loop
      vertex 6.43546 -9.77629 1
      vertex 6.48752 -9.38173 0
      vertex 6.48752 -9.38173 1
    endloop
  endfacet
  facet normal 0.991407 -0.130811 0
    outer loop
      vertex 6.48752 -9.38173 0
      vertex 6.43546 -9.77629 1
      vertex 6.43546 -9.77629 0
    endloop
  endfacet
  facet normal 0.999122 -0.0418947 0
    outer loop
      vertex 6.48752 -9.38173 1
      vertex 6.50487 -8.96796 0
      vertex 6.50487 -8.96796 1
    endloop
  endfacet
  facet normal 0.999122 -0.0418947 0
    outer loop
      vertex 6.50487 -8.96796 0
      vertex 6.48752 -9.38173 1
      vertex 6.48752 -9.38173 0
    endloop
  endfacet
  facet normal 0.998719 0.0506025 0
    outer loop
      vertex 6.50487 -8.96796 1
      vertex 6.4753 -8.38435 0
      vertex 6.4753 -8.38435 1
    endloop
  endfacet
  facet normal 0.998719 0.0506025 0
    outer loop
      vertex 6.4753 -8.38435 0
      vertex 6.50487 -8.96796 1
      vertex 6.50487 -8.96796 0
    endloop
  endfacet
  facet normal 0.986921 0.161202 0
    outer loop
      vertex 6.4753 -8.38435 1
      vertex 6.38655 -7.841 0
      vertex 6.38655 -7.841 1
    endloop
  endfacet
  facet normal 0.986921 0.161202 0
    outer loop
      vertex 6.38655 -7.841 0
      vertex 6.4753 -8.38435 1
      vertex 6.4753 -8.38435 0
    endloop
  endfacet
  facet normal 0.959395 0.282067 0
    outer loop
      vertex 6.38655 -7.841 1
      vertex 6.23863 -7.33788 0
      vertex 6.23863 -7.33788 1
    endloop
  endfacet
  facet normal 0.959395 0.282067 0
    outer loop
      vertex 6.23863 -7.33788 0
      vertex 6.38655 -7.841 1
      vertex 6.38655 -7.841 0
    endloop
  endfacet
  facet normal 0.912841 0.408315 0
    outer loop
      vertex 6.23863 -7.33788 1
      vertex 6.03157 -6.87497 0
      vertex 6.03157 -6.87497 1
    endloop
  endfacet
  facet normal 0.912841 0.408315 0
    outer loop
      vertex 6.03157 -6.87497 0
      vertex 6.23863 -7.33788 1
      vertex 6.23863 -7.33788 0
    endloop
  endfacet
  facet normal 0.846127 0.532981 0
    outer loop
      vertex 6.03157 -6.87497 1
      vertex 5.76534 -6.45232 0
      vertex 5.76534 -6.45232 1
    endloop
  endfacet
  facet normal 0.846127 0.532981 0
    outer loop
      vertex 5.76534 -6.45232 0
      vertex 6.03157 -6.87497 1
      vertex 6.03157 -6.87497 0
    endloop
  endfacet
  facet normal 0.761601 0.648047 0
    outer loop
      vertex 5.76534 -6.45232 1
      vertex 5.43993 -6.06989 0
      vertex 5.43993 -6.06989 1
    endloop
  endfacet
  facet normal 0.761601 0.648047 0
    outer loop
      vertex 5.43993 -6.06989 0
      vertex 5.76534 -6.45232 1
      vertex 5.76534 -6.45232 0
    endloop
  endfacet
  facet normal 0.664754 0.747062 -0
    outer loop
      vertex 5.43993 -6.06989 0
      vertex 5.05536 -5.72769 1
      vertex 5.43993 -6.06989 1
    endloop
  endfacet
  facet normal 0.664754 0.747062 0
    outer loop
      vertex 5.05536 -5.72769 1
      vertex 5.43993 -6.06989 0
      vertex 5.05536 -5.72769 0
    endloop
  endfacet
  facet normal 0.560568 0.828108 -0
    outer loop
      vertex 5.05536 -5.72769 0
      vertex 4.61348 -5.42857 1
      vertex 5.05536 -5.72769 1
    endloop
  endfacet
  facet normal 0.560568 0.828108 0
    outer loop
      vertex 4.61348 -5.42857 1
      vertex 5.05536 -5.72769 0
      vertex 4.61348 -5.42857 0
    endloop
  endfacet
  facet normal 0.453553 0.891229 -0
    outer loop
      vertex 4.61348 -5.42857 0
      vertex 4.11612 -5.17546 1
      vertex 4.61348 -5.42857 1
    endloop
  endfacet
  facet normal 0.453553 0.891229 0
    outer loop
      vertex 4.11612 -5.17546 1
      vertex 4.61348 -5.42857 0
      vertex 4.11612 -5.17546 0
    endloop
  endfacet
  facet normal 0.350734 0.936475 -0
    outer loop
      vertex 4.11612 -5.17546 0
      vertex 3.56326 -4.9684 1
      vertex 4.11612 -5.17546 1
    endloop
  endfacet
  facet normal 0.350734 0.936475 0
    outer loop
      vertex 3.56326 -4.9684 1
      vertex 4.11612 -5.17546 0
      vertex 3.56326 -4.9684 0
    endloop
  endfacet
  facet normal 0.255958 0.966688 -0
    outer loop
      vertex 3.56326 -4.9684 0
      vertex 2.95494 -4.80733 1
      vertex 3.56326 -4.9684 1
    endloop
  endfacet
  facet normal 0.255958 0.966688 0
    outer loop
      vertex 2.95494 -4.80733 1
      vertex 3.56326 -4.9684 0
      vertex 2.95494 -4.80733 0
    endloop
  endfacet
  facet normal 0.17076 0.985313 -0
    outer loop
      vertex 2.95494 -4.80733 0
      vertex 2.29114 -4.69229 1
      vertex 2.95494 -4.80733 1
    endloop
  endfacet
  facet normal 0.17076 0.985313 0
    outer loop
      vertex 2.29114 -4.69229 1
      vertex 2.95494 -4.80733 0
      vertex 2.29114 -4.69229 0
    endloop
  endfacet
  facet normal 0.0955307 0.995426 -0
    outer loop
      vertex 2.29114 -4.69229 0
      vertex 1.57185 -4.62326 1
      vertex 2.29114 -4.69229 1
    endloop
  endfacet
  facet normal 0.0955307 0.995426 0
    outer loop
      vertex 1.57185 -4.62326 1
      vertex 2.29114 -4.69229 0
      vertex 1.57185 -4.62326 0
    endloop
  endfacet
  facet normal 0.0296864 0.999559 -0
    outer loop
      vertex 1.57185 -4.62326 0
      vertex 0.797089 -4.60025 1
      vertex 1.57185 -4.62326 1
    endloop
  endfacet
  facet normal 0.0296864 0.999559 0
    outer loop
      vertex 0.797089 -4.60025 1
      vertex 1.57185 -4.62326 0
      vertex 0.797089 -4.60025 0
    endloop
  endfacet
  facet normal 0 1 -0
    outer loop
      vertex 0.797089 -4.60025 0
      vertex -5.96729 -4.60025 1
      vertex 0.797089 -4.60025 1
    endloop
  endfacet
  facet normal 0 1 0
    outer loop
      vertex -5.96729 -4.60025 1
      vertex 0.797089 -4.60025 0
      vertex -5.96729 -4.60025 0
    endloop
  endfacet
  facet normal -1 0 0
    outer loop
      vertex -5.96729 -21.9812 0
      vertex -5.96729 -4.60025 1
      vertex -5.96729 -4.60025 0
    endloop
  endfacet
  facet normal -1 -0 0
    outer loop
      vertex -5.96729 -4.60025 1
      vertex -5.96729 -21.9812 0
      vertex -5.96729 -21.9812 1
    endloop
  endfacet
  facet normal 0 -1 0
    outer loop
      vertex -5.96729 -21.9812 0
      vertex 1.53143 -21.9812 1
      vertex -5.96729 -21.9812 1
    endloop
  endfacet
  facet normal 0 -1 -0
    outer loop
      vertex 1.53143 -21.9812 1
      vertex -5.96729 -21.9812 0
      vertex 1.53143 -21.9812 0
    endloop
  endfacet
  facet normal 0.0342851 -0.999412 0
    outer loop
      vertex 1.53143 -21.9812 0
      vertex 2.31265 -21.9544 1
      vertex 1.53143 -21.9812 1
    endloop
  endfacet
  facet normal 0.0342851 -0.999412 0
    outer loop
      vertex 2.31265 -21.9544 1
      vertex 1.53143 -21.9812 0
      vertex 2.31265 -21.9544 0
    endloop
  endfacet
  facet normal 1 -0 0
    outer loop
      vertex -2.16634 -11.532 1
      vertex -2.16634 -7.42192 0
      vertex -2.16634 -7.42192 1
    endloop
  endfacet
  facet normal 1 0 0
    outer loop
      vertex -2.16634 -7.42192 0
      vertex -2.16634 -11.532 1
      vertex -2.16634 -11.532 0
    endloop
  endfacet
  facet normal 0 -1 0
    outer loop
      vertex -2.16634 -7.42192 0
      vertex 0.52652 -7.42192 1
      vertex -2.16634 -7.42192 1
    endloop
  endfacet
  facet normal 0 -1 -0
    outer loop
      vertex 0.52652 -7.42192 1
      vertex -2.16634 -7.42192 0
      vertex 0.52652 -7.42192 0
    endloop
  endfacet
  facet normal -0.073494 -0.997296 0
    outer loop
      vertex 0.52652 -7.42192 0
      vertex 1.0974 -7.46399 1
      vertex 0.52652 -7.42192 1
    endloop
  endfacet
  facet normal -0.073494 -0.997296 -0
    outer loop
      vertex 1.0974 -7.46399 1
      vertex 0.52652 -7.42192 0
      vertex 1.0974 -7.46399 0
    endloop
  endfacet
  facet normal -0.252815 -0.967515 0
    outer loop
      vertex 1.0974 -7.46399 0
      vertex 1.58044 -7.59021 1
      vertex 1.0974 -7.46399 1
    endloop
  endfacet
  facet normal -0.252815 -0.967515 -0
    outer loop
      vertex 1.58044 -7.59021 1
      vertex 1.0974 -7.46399 0
      vertex 1.58044 -7.59021 0
    endloop
  endfacet
  facet normal -0.469851 -0.882746 0
    outer loop
      vertex 1.58044 -7.59021 0
      vertex 1.97566 -7.80057 1
      vertex 1.58044 -7.59021 1
    endloop
  endfacet
  facet normal -0.469851 -0.882746 -0
    outer loop
      vertex 1.97566 -7.80057 1
      vertex 1.58044 -7.59021 0
      vertex 1.97566 -7.80057 0
    endloop
  endfacet
  facet normal -0.691793 -0.722096 0
    outer loop
      vertex 1.97566 -7.80057 0
      vertex 2.28305 -8.09506 1
      vertex 1.97566 -7.80057 1
    endloop
  endfacet
  facet normal -0.691793 -0.722096 -0
    outer loop
      vertex 2.28305 -8.09506 1
      vertex 1.97566 -7.80057 0
      vertex 2.28305 -8.09506 0
    endloop
  endfacet
  facet normal -0.865078 -0.501638 0
    outer loop
      vertex 2.50262 -8.47371 0
      vertex 2.28305 -8.09506 1
      vertex 2.28305 -8.09506 0
    endloop
  endfacet
  facet normal -0.865078 -0.501638 0
    outer loop
      vertex 2.28305 -8.09506 1
      vertex 2.50262 -8.47371 0
      vertex 2.50262 -8.47371 1
    endloop
  endfacet
  facet normal -0.961783 -0.273812 0
    outer loop
      vertex 2.63437 -8.93649 0
      vertex 2.50262 -8.47371 1
      vertex 2.50262 -8.47371 0
    endloop
  endfacet
  facet normal -0.961783 -0.273812 0
    outer loop
      vertex 2.50262 -8.47371 1
      vertex 2.63437 -8.93649 0
      vertex 2.63437 -8.93649 1
    endloop
  endfacet
  facet normal -0.996794 -0.0800074 0
    outer loop
      vertex 2.67827 -9.48343 0
      vertex 2.63437 -8.93649 1
      vertex 2.63437 -8.93649 0
    endloop
  endfacet
  facet normal -0.996794 -0.0800074 0
    outer loop
      vertex 2.63437 -8.93649 1
      vertex 2.67827 -9.48343 0
      vertex 2.67827 -9.48343 1
    endloop
  endfacet
  facet normal -0.996829 0.0795673 0
    outer loop
      vertex 2.63489 -10.0269 0
      vertex 2.67827 -9.48343 1
      vertex 2.67827 -9.48343 0
    endloop
  endfacet
  facet normal -0.996829 0.0795673 0
    outer loop
      vertex 2.67827 -9.48343 1
      vertex 2.63489 -10.0269 0
      vertex 2.63489 -10.0269 1
    endloop
  endfacet
  facet normal -0.962195 0.27236 0
    outer loop
      vertex 2.50471 -10.4868 0
      vertex 2.63489 -10.0269 1
      vertex 2.63489 -10.0269 0
    endloop
  endfacet
  facet normal -0.962195 0.27236 0
    outer loop
      vertex 2.63489 -10.0269 1
      vertex 2.50471 -10.4868 0
      vertex 2.50471 -10.4868 1
    endloop
  endfacet
  facet normal -0.866341 0.499453 0
    outer loop
      vertex 2.28777 -10.8631 0
      vertex 2.50471 -10.4868 1
      vertex 2.50471 -10.4868 0
    endloop
  endfacet
  facet normal -0.866341 0.499453 0
    outer loop
      vertex 2.50471 -10.4868 1
      vertex 2.28777 -10.8631 0
      vertex 2.28777 -10.8631 1
    endloop
  endfacet
  facet normal -0.693788 0.720179 0
    outer loop
      vertex 2.28777 -10.8631 0
      vertex 1.98404 -11.1557 1
      vertex 2.28777 -10.8631 1
    endloop
  endfacet
  facet normal -0.693788 0.720179 0
    outer loop
      vertex 1.98404 -11.1557 1
      vertex 2.28777 -10.8631 0
      vertex 1.98404 -11.1557 0
    endloop
  endfacet
  facet normal -0.472052 0.881571 0
    outer loop
      vertex 1.98404 -11.1557 0
      vertex 1.59354 -11.3648 1
      vertex 1.98404 -11.1557 1
    endloop
  endfacet
  facet normal -0.472052 0.881571 0
    outer loop
      vertex 1.59354 -11.3648 1
      vertex 1.98404 -11.1557 0
      vertex 1.59354 -11.3648 0
    endloop
  endfacet
  facet normal -0.254104 0.967177 0
    outer loop
      vertex 1.59354 -11.3648 0
      vertex 1.11624 -11.4902 1
      vertex 1.59354 -11.3648 1
    endloop
  endfacet
  facet normal -0.254104 0.967177 0
    outer loop
      vertex 1.11624 -11.4902 1
      vertex 1.59354 -11.3648 0
      vertex 1.11624 -11.4902 0
    endloop
  endfacet
  facet normal -0.0739016 0.997266 0
    outer loop
      vertex 1.11624 -11.4902 0
      vertex 0.55217 -11.532 1
      vertex 1.11624 -11.4902 1
    endloop
  endfacet
  facet normal -0.0739016 0.997266 0
    outer loop
      vertex 0.55217 -11.532 1
      vertex 1.11624 -11.4902 0
      vertex 0.55217 -11.532 0
    endloop
  endfacet
  facet normal 0 1 -0
    outer loop
      vertex 0.55217 -11.532 0
      vertex -2.16634 -11.532 1
      vertex 0.55217 -11.532 1
    endloop
  endfacet
  facet normal 0 1 0
    outer loop
      vertex -2.16634 -11.532 1
      vertex 0.55217 -11.532 0
      vertex -2.16634 -11.532 0
    endloop
  endfacet
  facet normal 1 -0 0
    outer loop
      vertex -2.16634 -19.1595 1
      vertex -2.16634 -14.3408 0
      vertex -2.16634 -14.3408 1
    endloop
  endfacet
  facet normal 1 0 0
    outer loop
      vertex -2.16634 -14.3408 0
      vertex -2.16634 -19.1595 1
      vertex -2.16634 -19.1595 0
    endloop
  endfacet
  facet normal 0 -1 0
    outer loop
      vertex -2.16634 -14.3408 0
      vertex 1.05472 -14.3408 1
      vertex -2.16634 -14.3408 1
    endloop
  endfacet
  facet normal 0 -1 -0
    outer loop
      vertex 1.05472 -14.3408 1
      vertex -2.16634 -14.3408 0
      vertex 1.05472 -14.3408 0
    endloop
  endfacet
  facet normal -0.0347795 -0.999395 0
    outer loop
      vertex 1.05472 -14.3408 0
      vertex 1.41391 -14.3533 1
      vertex 1.05472 -14.3408 1
    endloop
  endfacet
  facet normal -0.0347795 -0.999395 -0
    outer loop
      vertex 1.41391 -14.3533 1
      vertex 1.05472 -14.3408 0
      vertex 1.41391 -14.3533 0
    endloop
  endfacet
  facet normal -0.1113 -0.993787 0
    outer loop
      vertex 1.41391 -14.3533 0
      vertex 1.74785 -14.3907 1
      vertex 1.41391 -14.3533 1
    endloop
  endfacet
  facet normal -0.1113 -0.993787 -0
    outer loop
      vertex 1.74785 -14.3907 1
      vertex 1.41391 -14.3533 0
      vertex 1.74785 -14.3907 0
    endloop
  endfacet
  facet normal -0.198448 -0.980111 0
    outer loop
      vertex 1.74785 -14.3907 0
      vertex 2.05653 -14.4532 1
      vertex 1.74785 -14.3907 1
    endloop
  endfacet
  facet normal -0.198448 -0.980111 -0
    outer loop
      vertex 2.05653 -14.4532 1
      vertex 1.74785 -14.3907 0
      vertex 2.05653 -14.4532 0
    endloop
  endfacet
  facet normal -0.294635 -0.95561 0
    outer loop
      vertex 2.05653 -14.4532 0
      vertex 2.34 -14.5406 1
      vertex 2.05653 -14.4532 1
    endloop
  endfacet
  facet normal -0.294635 -0.95561 -0
    outer loop
      vertex 2.34 -14.5406 1
      vertex 2.05653 -14.4532 0
      vertex 2.34 -14.5406 0
    endloop
  endfacet
  facet normal -0.399129 -0.916895 0
    outer loop
      vertex 2.34 -14.5406 0
      vertex 2.59821 -14.653 1
      vertex 2.34 -14.5406 1
    endloop
  endfacet
  facet normal -0.399129 -0.916895 -0
    outer loop
      vertex 2.59821 -14.653 1
      vertex 2.34 -14.5406 0
      vertex 2.59821 -14.653 0
    endloop
  endfacet
  facet normal -0.508005 -0.861354 0
    outer loop
      vertex 2.59821 -14.653 0
      vertex 2.83118 -14.7904 1
      vertex 2.59821 -14.653 1
    endloop
  endfacet
  facet normal -0.508005 -0.861354 -0
    outer loop
      vertex 2.83118 -14.7904 1
      vertex 2.59821 -14.653 0
      vertex 2.83118 -14.7904 0
    endloop
  endfacet
  facet normal -0.615942 -0.787791 0
    outer loop
      vertex 2.83118 -14.7904 0
      vertex 3.03889 -14.9528 1
      vertex 2.83118 -14.7904 1
    endloop
  endfacet
  facet normal -0.615942 -0.787791 -0
    outer loop
      vertex 3.03889 -14.9528 1
      vertex 2.83118 -14.7904 0
      vertex 3.03889 -14.9528 0
    endloop
  endfacet
  facet normal -0.715407 -0.698708 0
    outer loop
      vertex 3.22006 -15.1383 0
      vertex 3.03889 -14.9528 1
      vertex 3.03889 -14.9528 0
    endloop
  endfacet
  facet normal -0.715407 -0.698708 0
    outer loop
      vertex 3.03889 -14.9528 1
      vertex 3.22006 -15.1383 0
      vertex 3.22006 -15.1383 1
    endloop
  endfacet
  facet normal -0.803362 -0.59549 0
    outer loop
      vertex 3.37335 -15.3451 0
      vertex 3.22006 -15.1383 1
      vertex 3.22006 -15.1383 0
    endloop
  endfacet
  facet normal -0.803362 -0.59549 0
    outer loop
      vertex 3.22006 -15.1383 1
      vertex 3.37335 -15.3451 0
      vertex 3.37335 -15.3451 1
    endloop
  endfacet
  facet normal -0.876256 -0.481845 0
    outer loop
      vertex 3.49878 -15.5732 0
      vertex 3.37335 -15.3451 1
      vertex 3.37335 -15.3451 0
    endloop
  endfacet
  facet normal -0.876256 -0.481845 0
    outer loop
      vertex 3.37335 -15.3451 1
      vertex 3.49878 -15.5732 0
      vertex 3.49878 -15.5732 1
    endloop
  endfacet
  facet normal -0.931295 -0.364266 0
    outer loop
      vertex 3.59633 -15.8226 0
      vertex 3.49878 -15.5732 1
      vertex 3.49878 -15.5732 0
    endloop
  endfacet
  facet normal -0.931295 -0.364266 0
    outer loop
      vertex 3.49878 -15.5732 1
      vertex 3.59633 -15.8226 0
      vertex 3.59633 -15.8226 1
    endloop
  endfacet
  facet normal -0.968423 -0.249314 0
    outer loop
      vertex 3.66602 -16.0933 0
      vertex 3.59633 -15.8226 1
      vertex 3.59633 -15.8226 0
    endloop
  endfacet
  facet normal -0.968423 -0.249314 0
    outer loop
      vertex 3.59633 -15.8226 1
      vertex 3.66602 -16.0933 0
      vertex 3.66602 -16.0933 1
    endloop
  endfacet
  facet normal -0.989909 -0.141706 0
    outer loop
      vertex 3.70782 -16.3853 0
      vertex 3.66602 -16.0933 1
      vertex 3.66602 -16.0933 0
    endloop
  endfacet
  facet normal -0.989909 -0.141706 0
    outer loop
      vertex 3.66602 -16.0933 1
      vertex 3.70782 -16.3853 0
      vertex 3.70782 -16.3853 1
    endloop
  endfacet
  facet normal -0.999012 -0.044436 0
    outer loop
      vertex 3.72176 -16.6987 0
      vertex 3.70782 -16.3853 1
      vertex 3.70782 -16.3853 0
    endloop
  endfacet
  facet normal -0.999012 -0.044436 0
    outer loop
      vertex 3.70782 -16.3853 1
      vertex 3.72176 -16.6987 0
      vertex 3.72176 -16.6987 1
    endloop
  endfacet
  facet normal -0.996772 0.0802883 0
    outer loop
      vertex 3.66917 -17.3516 0
      vertex 3.72176 -16.6987 1
      vertex 3.72176 -16.6987 0
    endloop
  endfacet
  facet normal -0.996772 0.0802883 0
    outer loop
      vertex 3.72176 -16.6987 1
      vertex 3.66917 -17.3516 0
      vertex 3.66917 -17.3516 1
    endloop
  endfacet
  facet normal -0.961551 0.274627 0
    outer loop
      vertex 3.5114 -17.904 0
      vertex 3.66917 -17.3516 1
      vertex 3.66917 -17.3516 0
    endloop
  endfacet
  facet normal -0.961551 0.274627 0
    outer loop
      vertex 3.66917 -17.3516 1
      vertex 3.5114 -17.904 0
      vertex 3.5114 -17.904 1
    endloop
  endfacet
  facet normal -0.864391 0.50282 0
    outer loop
      vertex 3.24847 -18.356 0
      vertex 3.5114 -17.904 1
      vertex 3.5114 -17.904 0
    endloop
  endfacet
  facet normal -0.864391 0.50282 0
    outer loop
      vertex 3.5114 -17.904 1
      vertex 3.24847 -18.356 0
      vertex 3.24847 -18.356 1
    endloop
  endfacet
  facet normal -0.690704 0.723137 0
    outer loop
      vertex 3.24847 -18.356 0
      vertex 2.88036 -18.7076 1
      vertex 3.24847 -18.356 1
    endloop
  endfacet
  facet normal -0.690704 0.723137 0
    outer loop
      vertex 2.88036 -18.7076 1
      vertex 3.24847 -18.356 0
      vertex 2.88036 -18.7076 0
    endloop
  endfacet
  facet normal -0.468667 0.883375 0
    outer loop
      vertex 2.88036 -18.7076 0
      vertex 2.40707 -18.9587 1
      vertex 2.88036 -18.7076 1
    endloop
  endfacet
  facet normal -0.468667 0.883375 0
    outer loop
      vertex 2.40707 -18.9587 1
      vertex 2.88036 -18.7076 0
      vertex 2.40707 -18.9587 0
    endloop
  endfacet
  facet normal -0.251948 0.967741 0
    outer loop
      vertex 2.40707 -18.9587 0
      vertex 1.82861 -19.1093 1
      vertex 2.40707 -18.9587 1
    endloop
  endfacet
  facet normal -0.251948 0.967741 0
    outer loop
      vertex 1.82861 -19.1093 1
      vertex 2.40707 -18.9587 0
      vertex 1.82861 -19.1093 0
    endloop
  endfacet
  facet normal -0.0732333 0.997315 0
    outer loop
      vertex 1.82861 -19.1093 0
      vertex 1.14497 -19.1595 1
      vertex 1.82861 -19.1093 1
    endloop
  endfacet
  facet normal -0.0732333 0.997315 0
    outer loop
      vertex 1.14497 -19.1595 1
      vertex 1.82861 -19.1093 0
      vertex 1.14497 -19.1595 0
    endloop
  endfacet
  facet normal 0 1 -0
    outer loop
      vertex 1.14497 -19.1595 0
      vertex -2.16634 -19.1595 1
      vertex 1.14497 -19.1595 1
    endloop
  endfacet
  facet normal 0 1 0
    outer loop
      vertex -2.16634 -19.1595 1
      vertex 1.14497 -19.1595 0
      vertex -2.16634 -19.1595 0
    endloop
  endfacet
endsolid OpenSCAD_Model
