solid OpenSCAD_Model
  facet normal 0 0 -1
    outer loop
      vertex 6.09258 -21.9812 0
      vertex 2.08548 -19.0437 0
      vertex 6.09258 -19.0437 0
    endloop
  endfacet
  facet normal 0 0 -1
    outer loop
      vertex 2.08548 -19.0437 0
      vertex -1.70255 -19.0437 0
      vertex 2.08548 -7.53783 0
    endloop
  endfacet
  facet normal 0 0 -1
    outer loop
      vertex 6.09258 -21.9812 0
      vertex -1.70255 -19.0437 0
      vertex 2.08548 -19.0437 0
    endloop
  endfacet
  facet normal 0 0 -1
    outer loop
      vertex -5.70946 -21.9812 0
      vertex -1.70255 -19.0437 0
      vertex 6.09258 -21.9812 0
    endloop
  endfacet
  facet normal -0 0 -1
    outer loop
      vertex -1.70255 -19.0437 0
      vertex -5.70946 -21.9812 0
      vertex -5.70946 -19.0437 0
    endloop
  endfacet
  facet normal 0 0 -1
    outer loop
      vertex 2.08548 -7.53783 0
      vertex 6.09258 -4.60025 0
      vertex 6.09258 -7.53783 0
    endloop
  endfacet
  facet normal 0 0 -1
    outer loop
      vertex -1.70255 -7.53783 0
      vertex 2.08548 -7.53783 0
      vertex -1.70255 -19.0437 0
    endloop
  endfacet
  facet normal 0 0 -1
    outer loop
      vertex -1.70255 -7.53783 0
      vertex 6.09258 -4.60025 0
      vertex 2.08548 -7.53783 0
    endloop
  endfacet
  facet normal 0 0 -1
    outer loop
      vertex -5.70946 -4.60025 0
      vertex -1.70255 -7.53783 0
      vertex -5.70946 -7.53783 0
    endloop
  endfacet
  facet normal 0 0 -1
    outer loop
      vertex -1.70255 -7.53783 0
      vertex -5.70946 -4.60025 0
      vertex 6.09258 -4.60025 0
    endloop
  endfacet
  facet normal 0 0 1
    outer loop
      vertex 6.09258 -4.60025 1
      vertex 2.08548 -7.53783 1
      vertex 6.09258 -7.53783 1
    endloop
  endfacet
  facet normal 0 0 1
    outer loop
      vertex 2.08548 -7.53783 1
      vertex -1.70255 -7.53783 1
      vertex 2.08548 -19.0437 1
    endloop
  endfacet
  facet normal 0 0 1
    outer loop
      vertex 6.09258 -4.60025 1
      vertex -1.70255 -7.53783 1
      vertex 2.08548 -7.53783 1
    endloop
  endfacet
  facet normal -0 0 1
    outer loop
      vertex -5.70946 -4.60025 1
      vertex -1.70255 -7.53783 1
      vertex 6.09258 -4.60025 1
    endloop
  endfacet
  facet normal 0 0 1
    outer loop
      vertex -1.70255 -7.53783 1
      vertex -5.70946 -4.60025 1
      vertex -5.70946 -7.53783 1
    endloop
  endfacet
  facet normal -0 0 1
    outer loop
      vertex 2.08548 -19.0437 1
      vertex 6.09258 -21.9812 1
      vertex 6.09258 -19.0437 1
    endloop
  endfacet
  facet normal 0 0 1
    outer loop
      vertex -1.70255 -19.0437 1
      vertex 2.08548 -19.0437 1
      vertex -1.70255 -7.53783 1
    endloop
  endfacet
  facet normal -0 0 1
    outer loop
      vertex -1.70255 -19.0437 1
      vertex 6.09258 -21.9812 1
      vertex 2.08548 -19.0437 1
    endloop
  endfacet
  facet normal 0 0 1
    outer loop
      vertex -5.70946 -21.9812 1
      vertex -1.70255 -19.0437 1
      vertex -5.70946 -19.0437 1
    endloop
  endfacet
  facet normal 0 0 1
    outer loop
      vertex -1.70255 -19.0437 1
      vertex -5.70946 -21.9812 1
      vertex 6.09258 -21.9812 1
    endloop
  endfacet
  facet normal 0 1 -0
    outer loop
      vertex 6.09258 -19.0437 0
      vertex 2.08548 -19.0437 1
      vertex 6.09258 -19.0437 1
    endloop
  endfacet
  facet normal 0 1 0
    outer loop
      vertex 2.08548 -19.0437 1
      vertex 6.09258 -19.0437 0
      vertex 2.08548 -19.0437 0
    endloop
  endfacet
  facet normal 1 -0 0
    outer loop
      vertex 2.08548 -19.0437 1
      vertex 2.08548 -7.53783 0
      vertex 2.08548 -7.53783 1
    endloop
  endfacet
  facet normal 1 0 0
    outer loop
      vertex 2.08548 -7.53783 0
      vertex 2.08548 -19.0437 1
      vertex 2.08548 -19.0437 0
    endloop
  endfacet
  facet normal 0 -1 0
    outer loop
      vertex 2.08548 -7.53783 0
      vertex 6.09258 -7.53783 1
      vertex 2.08548 -7.53783 1
    endloop
  endfacet
  facet normal 0 -1 -0
    outer loop
      vertex 6.09258 -7.53783 1
      vertex 2.08548 -7.53783 0
      vertex 6.09258 -7.53783 0
    endloop
  endfacet
  facet normal 1 -0 0
    outer loop
      vertex 6.09258 -7.53783 1
      vertex 6.09258 -4.60025 0
      vertex 6.09258 -4.60025 1
    endloop
  endfacet
  facet normal 1 0 0
    outer loop
      vertex 6.09258 -4.60025 0
      vertex 6.09258 -7.53783 1
      vertex 6.09258 -7.53783 0
    endloop
  endfacet
  facet normal 0 1 -0
    outer loop
      vertex 6.09258 -4.60025 0
      vertex -5.70946 -4.60025 1
      vertex 6.09258 -4.60025 1
    endloop
  endfacet
  facet normal 0 1 0
    outer loop
      vertex -5.70946 -4.60025 1
      vertex 6.09258 -4.60025 0
      vertex -5.70946 -4.60025 0
    endloop
  endfacet
  facet normal -1 0 0
    outer loop
      vertex -5.70946 -7.53783 0
      vertex -5.70946 -4.60025 1
      vertex -5.70946 -4.60025 0
    endloop
  endfacet
  facet normal -1 -0 0
    outer loop
      vertex -5.70946 -4.60025 1
      vertex -5.70946 -7.53783 0
      vertex -5.70946 -7.53783 1
    endloop
  endfacet
  facet normal 0 -1 0
    outer loop
      vertex -5.70946 -7.53783 0
      vertex -1.70255 -7.53783 1
      vertex -5.70946 -7.53783 1
    endloop
  endfacet
  facet normal 0 -1 -0
    outer loop
      vertex -1.70255 -7.53783 1
      vertex -5.70946 -7.53783 0
      vertex -1.70255 -7.53783 0
    endloop
  endfacet
  facet normal -1 0 0
    outer loop
      vertex -1.70255 -19.0437 0
      vertex -1.70255 -7.53783 1
      vertex -1.70255 -7.53783 0
    endloop
  endfacet
  facet normal -1 -0 0
    outer loop
      vertex -1.70255 -7.53783 1
      vertex -1.70255 -19.0437 0
      vertex -1.70255 -19.0437 1
    endloop
  endfacet
  facet normal 0 1 -0
    outer loop
      vertex -1.70255 -19.0437 0
      vertex -5.70946 -19.0437 1
      vertex -1.70255 -19.0437 1
    endloop
  endfacet
  facet normal 0 1 0
    outer loop
      vertex -5.70946 -19.0437 1
      vertex -1.70255 -19.0437 0
      vertex -5.70946 -19.0437 0
    endloop
  endfacet
  facet normal -1 0 0
    outer loop
      vertex -5.70946 -21.9812 0
      vertex -5.70946 -19.0437 1
      vertex -5.70946 -19.0437 0
    endloop
  endfacet
  facet normal -1 -0 0
    outer loop
      vertex -5.70946 -19.0437 1
      vertex -5.70946 -21.9812 0
      vertex -5.70946 -21.9812 1
    endloop
  endfacet
  facet normal 0 -1 0
    outer loop
      vertex -5.70946 -21.9812 0
      vertex 6.09258 -21.9812 1
      vertex -5.70946 -21.9812 1
    endloop
  endfacet
  facet normal 0 -1 -0
    outer loop
      vertex 6.09258 -21.9812 1
      vertex -5.70946 -21.9812 0
      vertex 6.09258 -21.9812 0
    endloop
  endfacet
  facet normal 1 -0 0
    outer loop
      vertex 6.09258 -21.9812 1
      vertex 6.09258 -19.0437 0
      vertex 6.09258 -19.0437 1
    endloop
  endfacet
  facet normal 1 0 0
    outer loop
      vertex 6.09258 -19.0437 0
      vertex 6.09258 -21.9812 1
      vertex 6.09258 -21.9812 0
    endloop
  endfacet
endsolid OpenSCAD_Model
