<?xml version="1.0" standalone="no"?>
<!DOCTYPE svg PUBLIC "-//W3C//DTD SVG 1.1//EN" "http://www.w3.org/Graphics/SVG/1.1/DTD/svg11.dtd">
<svg width="66mm" height="89mm" viewBox="-32 -2 66 89" xmlns="http://www.w3.org/2000/svg" version="1.1">
<title>OpenSCAD Model</title>
<path d="
M 2.94574,86.1162 L 5.72708,85.8816 L 8.39929,85.4906 L 10.9624,84.9431 L 13.4164,84.2392 L 15.7612,83.3789
 L 17.997,82.3621 L 20.1046,81.2038 L 22.0649,79.9193 L 23.8779,78.5085 L 25.5437,76.9716 L 27.0621,75.3084
 L 28.4333,73.519 L 29.6573,71.6034 L 30.7254,69.582 L 31.6293,67.475 L 32.3688,65.2827 L 32.9439,63.0049
 L 33.3547,60.6416 L 33.6012,58.1928 L 33.6834,55.6586 L 33.525,52.0266 L 33.0497,48.6037 L 32.2576,45.3898
 L 31.1487,42.385 L 29.723,39.5891 L 27.9804,37.0024 L 25.921,34.6246 L 23.5973,32.5138 L 21.0618,30.7277
 L 18.3147,29.2664 L 15.3559,28.1297 L 12.1853,27.3179 L 8.80304,26.8308 L 5.20906,26.6684 L 2.46002,26.7867
 L -0.154907,27.1418 L -2.63576,27.7335 L -4.98253,28.5619 L -7.19522,29.627 L -9.27382,30.9287 L -11.2183,32.4672
 L -9.73633,11.4655 L 28.4014,11.4655 L 28.4014,-1.99879 L -26.1637,-1.99879 L -29.3206,47.1551 L -11.6696,47.1551
 L -10.2508,45.5998 L -8.71892,44.2837 L -7.07404,43.207 L -5.31613,42.3695 L -3.44521,41.7713 L -1.46123,41.4123
 L 0.635757,41.2927 L 2.52499,41.3749 L 4.29065,41.6214 L 5.93274,42.0322 L 7.45125,42.6073 L 8.84618,43.3468
 L 10.1175,44.2506 L 11.2653,45.3188 L 12.2737,46.5237 L 13.127,47.8377 L 13.8251,49.2609 L 14.3681,50.7933
 L 14.756,52.4348 L 14.9887,54.1854 L 15.0663,56.0452 L 14.9861,58.1291 L 14.7454,60.0735 L 14.3444,61.8787
 L 13.7829,63.5444 L 13.0611,65.0708 L 12.1788,66.4579 L 11.1361,67.7055 L 9.95166,68.7994 L 8.64362,69.725
 L 7.21194,70.4823 L 5.65666,71.0713 L 3.97775,71.492 L 2.17523,71.7444 L 0.2491,71.8285 L -1.27728,71.7746
 L -2.72745,71.6129 L -4.10138,71.3435 L -5.39908,70.9662 L -6.62054,70.4811 L -7.76578,69.8882 L -8.83478,69.1875
 L -9.82071,68.3683 L -10.7173,67.4202 L -11.5244,66.3434 L -12.2422,65.1377 L -12.8706,63.8032 L -13.4097,62.3399
 L -13.8593,60.7477 L -31.9616,62.2297 L -31.2813,65.4489 L -30.3446,68.4431 L -29.1516,71.2126 L -27.7022,73.7572
 L -25.9964,76.0771 L -24.0342,78.1721 L -21.8156,80.0422 L -19.3577,81.6745 L -16.6777,83.0556 L -13.7754,84.1856
 L -10.651,85.0645 L -7.30443,85.6922 L -3.73564,86.0689 L 0.0552979,86.1944 z
" stroke="black" fill="lightgray" stroke-width="0.5"/>
</svg>
