solid OpenSCAD_Model
  facet normal 0 0 -1
    outer loop
      vertex -5.58063 -21.9812 0
      vertex -1.77988 -15.423 0
      vertex -1.77988 -21.9812 0
    endloop
  endfacet
  facet normal -0 0 -1
    outer loop
      vertex -1.77988 -15.423 0
      vertex -5.58063 -21.9812 0
      vertex -1.77988 -12.4854 0
    endloop
  endfacet
  facet normal 0 0 -1
    outer loop
      vertex -5.58063 -4.60025 0
      vertex -1.77988 -12.4854 0
      vertex -5.58063 -21.9812 0
    endloop
  endfacet
  facet normal 0 0 -1
    outer loop
      vertex -1.77988 -15.423 0
      vertex 6.22139 -12.4854 0
      vertex 6.22139 -15.423 0
    endloop
  endfacet
  facet normal -0 0 -1
    outer loop
      vertex 6.22139 -12.4854 0
      vertex -1.77988 -15.423 0
      vertex -1.77988 -12.4854 0
    endloop
  endfacet
  facet normal 0 0 -1
    outer loop
      vertex -1.77988 -7.53783 0
      vertex 6.51779 -4.60025 0
      vertex 6.51779 -7.53783 0
    endloop
  endfacet
  facet normal 0 0 -1
    outer loop
      vertex -1.77988 -7.53783 0
      vertex -5.58063 -4.60025 0
      vertex 6.51779 -4.60025 0
    endloop
  endfacet
  facet normal 0 0 -1
    outer loop
      vertex -1.77988 -12.4854 0
      vertex -5.58063 -4.60025 0
      vertex -1.77988 -7.53783 0
    endloop
  endfacet
  facet normal 0 0 1
    outer loop
      vertex 6.51779 -4.60025 1
      vertex -1.77988 -7.53783 1
      vertex 6.51779 -7.53783 1
    endloop
  endfacet
  facet normal 0 0 1
    outer loop
      vertex -5.58063 -4.60025 1
      vertex -1.77988 -12.4854 1
      vertex -1.77988 -7.53783 1
    endloop
  endfacet
  facet normal 0 0 1
    outer loop
      vertex -5.58063 -21.9812 1
      vertex -1.77988 -12.4854 1
      vertex -5.58063 -4.60025 1
    endloop
  endfacet
  facet normal -0 0 1
    outer loop
      vertex -5.58063 -4.60025 1
      vertex -1.77988 -7.53783 1
      vertex 6.51779 -4.60025 1
    endloop
  endfacet
  facet normal 0 0 1
    outer loop
      vertex -1.77988 -12.4854 1
      vertex -5.58063 -21.9812 1
      vertex -1.77988 -15.423 1
    endloop
  endfacet
  facet normal 0 0 1
    outer loop
      vertex -1.77988 -15.423 1
      vertex -5.58063 -21.9812 1
      vertex -1.77988 -21.9812 1
    endloop
  endfacet
  facet normal -0 0 1
    outer loop
      vertex -1.77988 -12.4854 1
      vertex 6.22139 -15.423 1
      vertex 6.22139 -12.4854 1
    endloop
  endfacet
  facet normal 0 0 1
    outer loop
      vertex 6.22139 -15.423 1
      vertex -1.77988 -12.4854 1
      vertex -1.77988 -15.423 1
    endloop
  endfacet
  facet normal 0 -1 0
    outer loop
      vertex -1.77988 -15.423 0
      vertex 6.22139 -15.423 1
      vertex -1.77988 -15.423 1
    endloop
  endfacet
  facet normal 0 -1 -0
    outer loop
      vertex 6.22139 -15.423 1
      vertex -1.77988 -15.423 0
      vertex 6.22139 -15.423 0
    endloop
  endfacet
  facet normal 1 -0 0
    outer loop
      vertex 6.22139 -15.423 1
      vertex 6.22139 -12.4854 0
      vertex 6.22139 -12.4854 1
    endloop
  endfacet
  facet normal 1 0 0
    outer loop
      vertex 6.22139 -12.4854 0
      vertex 6.22139 -15.423 1
      vertex 6.22139 -15.423 0
    endloop
  endfacet
  facet normal 0 1 -0
    outer loop
      vertex 6.22139 -12.4854 0
      vertex -1.77988 -12.4854 1
      vertex 6.22139 -12.4854 1
    endloop
  endfacet
  facet normal 0 1 0
    outer loop
      vertex -1.77988 -12.4854 1
      vertex 6.22139 -12.4854 0
      vertex -1.77988 -12.4854 0
    endloop
  endfacet
  facet normal 1 -0 0
    outer loop
      vertex -1.77988 -12.4854 1
      vertex -1.77988 -7.53783 0
      vertex -1.77988 -7.53783 1
    endloop
  endfacet
  facet normal 1 0 0
    outer loop
      vertex -1.77988 -7.53783 0
      vertex -1.77988 -12.4854 1
      vertex -1.77988 -12.4854 0
    endloop
  endfacet
  facet normal 0 -1 0
    outer loop
      vertex -1.77988 -7.53783 0
      vertex 6.51779 -7.53783 1
      vertex -1.77988 -7.53783 1
    endloop
  endfacet
  facet normal 0 -1 -0
    outer loop
      vertex 6.51779 -7.53783 1
      vertex -1.77988 -7.53783 0
      vertex 6.51779 -7.53783 0
    endloop
  endfacet
  facet normal 1 -0 0
    outer loop
      vertex 6.51779 -7.53783 1
      vertex 6.51779 -4.60025 0
      vertex 6.51779 -4.60025 1
    endloop
  endfacet
  facet normal 1 0 0
    outer loop
      vertex 6.51779 -4.60025 0
      vertex 6.51779 -7.53783 1
      vertex 6.51779 -7.53783 0
    endloop
  endfacet
  facet normal 0 1 -0
    outer loop
      vertex 6.51779 -4.60025 0
      vertex -5.58063 -4.60025 1
      vertex 6.51779 -4.60025 1
    endloop
  endfacet
  facet normal 0 1 0
    outer loop
      vertex -5.58063 -4.60025 1
      vertex 6.51779 -4.60025 0
      vertex -5.58063 -4.60025 0
    endloop
  endfacet
  facet normal -1 0 0
    outer loop
      vertex -5.58063 -21.9812 0
      vertex -5.58063 -4.60025 1
      vertex -5.58063 -4.60025 0
    endloop
  endfacet
  facet normal -1 -0 0
    outer loop
      vertex -5.58063 -4.60025 1
      vertex -5.58063 -21.9812 0
      vertex -5.58063 -21.9812 1
    endloop
  endfacet
  facet normal 0 -1 0
    outer loop
      vertex -5.58063 -21.9812 0
      vertex -1.77988 -21.9812 1
      vertex -5.58063 -21.9812 1
    endloop
  endfacet
  facet normal 0 -1 -0
    outer loop
      vertex -1.77988 -21.9812 1
      vertex -5.58063 -21.9812 0
      vertex -1.77988 -21.9812 0
    endloop
  endfacet
  facet normal 1 -0 0
    outer loop
      vertex -1.77988 -21.9812 1
      vertex -1.77988 -15.423 0
      vertex -1.77988 -15.423 1
    endloop
  endfacet
  facet normal 1 0 0
    outer loop
      vertex -1.77988 -15.423 0
      vertex -1.77988 -21.9812 1
      vertex -1.77988 -21.9812 0
    endloop
  endfacet
endsolid OpenSCAD_Model
