<?xml version="1.0" standalone="no"?>
<!DOCTYPE svg PUBLIC "-//W3C//DTD SVG 1.1//EN" "http://www.w3.org/Graphics/SVG/1.1/DTD/svg11.dtd">
<svg width="39mm" height="53mm" viewBox="-18 3 39 53" xmlns="http://www.w3.org/2000/svg" version="1.1">
<title>OpenSCAD Model</title>
<path d="
M -6.53777,37.5447 L 1.07684,37.5447 L 2.81903,37.5013 L 4.48941,37.3712 L 6.08798,37.1543 L 7.61478,36.8507
 L 9.06976,36.4603 L 10.453,35.9831 L 11.7643,35.4192 L 12.997,34.7751 L 14.1436,34.0576 L 15.2043,33.2667
 L 16.1789,32.4025 L 17.0675,31.465 L 17.8701,30.454 L 18.5867,29.3698 L 19.2123,28.2232 L 19.7417,27.0253
 L 20.1748,25.7762 L 20.5117,24.4758 L 20.7523,23.1241 L 20.8967,21.7211 L 20.9448,20.2669 L 20.8387,18.038
 L 20.5204,15.9677 L 19.9899,14.0559 L 19.2471,12.3028 L 18.2922,10.7082 L 17.1251,9.2722 L 15.7458,7.99477
 L 14.1638,6.88206 L 12.3885,5.94054 L 10.42,5.1702 L 8.25818,4.57106 L 5.90318,4.1431 L 3.35493,3.88632
 L 0.613434,3.80072 L -17.94,3.80072 L -17.94,55.9437 L -6.53777,55.9437 z
M -6.53777,28.7707 L -6.53777,12.6522 L -0.662201,12.6522 L 0.732773,12.6889 L 2.02446,12.799 L 3.21281,12.9825
 L 4.29785,13.2393 L 5.27957,13.5695 L 6.15796,13.9731 L 6.93303,14.45 L 7.60477,15.0128 L 8.17316,15.6742
 L 8.63821,16.4342 L 8.99992,17.2928 L 9.25829,18.2499 L 9.4133,19.3057 L 9.46497,20.4601 L 9.41684,21.5901
 L 9.27248,22.6389 L 9.03185,23.6064 L 8.69498,24.4926 L 8.26186,25.2977 L 7.7325,26.0214 L 7.10687,26.664
 L 6.37714,27.2229 L 5.5354,27.6958 L 4.58167,28.0828 L 3.51593,28.3838 L 2.3382,28.5987 L 1.04845,28.7277
 L -0.353271,28.7707 z
" stroke="black" fill="lightgray" stroke-width="0.5"/>
</svg>
