solid OpenSCAD_Model
  facet normal 0 0 -1
    outer loop
      vertex 7.03308 -21.9812 0
      vertex -2.16634 -19.0437 0
      vertex 7.03308 -19.0437 0
    endloop
  endfacet
  facet normal 0 0 -1
    outer loop
      vertex -5.96729 -21.9812 0
      vertex -2.16634 -14.6501 0
      vertex -2.16634 -19.0437 0
    endloop
  endfacet
  facet normal 0 0 -1
    outer loop
      vertex -5.96729 -4.60025 0
      vertex -2.16634 -14.6501 0
      vertex -5.96729 -21.9812 0
    endloop
  endfacet
  facet normal 0 0 -1
    outer loop
      vertex -2.16634 -14.6501 0
      vertex -5.96729 -4.60025 0
      vertex -2.16634 -11.7123 0
    endloop
  endfacet
  facet normal 0 0 -1
    outer loop
      vertex -5.96729 -21.9812 0
      vertex -2.16634 -19.0437 0
      vertex 7.03308 -21.9812 0
    endloop
  endfacet
  facet normal 0 0 -1
    outer loop
      vertex -2.16634 -14.6501 0
      vertex 5.71884 -11.7123 0
      vertex 5.71884 -14.6501 0
    endloop
  endfacet
  facet normal -0 0 -1
    outer loop
      vertex 5.71884 -11.7123 0
      vertex -2.16634 -14.6501 0
      vertex -2.16634 -11.7123 0
    endloop
  endfacet
  facet normal 0 0 -1
    outer loop
      vertex -2.16634 -7.53783 0
      vertex 6.50487 -4.60025 0
      vertex 6.50487 -7.53783 0
    endloop
  endfacet
  facet normal 0 0 -1
    outer loop
      vertex -2.16634 -7.53783 0
      vertex -5.96729 -4.60025 0
      vertex 6.50487 -4.60025 0
    endloop
  endfacet
  facet normal 0 0 -1
    outer loop
      vertex -2.16634 -11.7123 0
      vertex -5.96729 -4.60025 0
      vertex -2.16634 -7.53783 0
    endloop
  endfacet
  facet normal 0 0 1
    outer loop
      vertex 6.50487 -4.60025 1
      vertex -2.16634 -7.53783 1
      vertex 6.50487 -7.53783 1
    endloop
  endfacet
  facet normal 0 0 1
    outer loop
      vertex -5.96729 -4.60025 1
      vertex -2.16634 -11.7123 1
      vertex -2.16634 -7.53783 1
    endloop
  endfacet
  facet normal 0 0 1
    outer loop
      vertex -2.16634 -11.7123 1
      vertex -5.96729 -4.60025 1
      vertex -2.16634 -14.6501 1
    endloop
  endfacet
  facet normal 0 0 1
    outer loop
      vertex -5.96729 -21.9812 1
      vertex -2.16634 -14.6501 1
      vertex -5.96729 -4.60025 1
    endloop
  endfacet
  facet normal -0 0 1
    outer loop
      vertex -5.96729 -4.60025 1
      vertex -2.16634 -7.53783 1
      vertex 6.50487 -4.60025 1
    endloop
  endfacet
  facet normal -0 0 1
    outer loop
      vertex -2.16634 -11.7123 1
      vertex 5.71884 -14.6501 1
      vertex 5.71884 -11.7123 1
    endloop
  endfacet
  facet normal 0 0 1
    outer loop
      vertex 5.71884 -14.6501 1
      vertex -2.16634 -11.7123 1
      vertex -2.16634 -14.6501 1
    endloop
  endfacet
  facet normal -0 0 1
    outer loop
      vertex -2.16634 -19.0437 1
      vertex 7.03308 -21.9812 1
      vertex 7.03308 -19.0437 1
    endloop
  endfacet
  facet normal 0 0 1
    outer loop
      vertex -2.16634 -19.0437 1
      vertex -5.96729 -21.9812 1
      vertex 7.03308 -21.9812 1
    endloop
  endfacet
  facet normal 0 0 1
    outer loop
      vertex -2.16634 -14.6501 1
      vertex -5.96729 -21.9812 1
      vertex -2.16634 -19.0437 1
    endloop
  endfacet
  facet normal 0 1 -0
    outer loop
      vertex 7.03308 -19.0437 0
      vertex -2.16634 -19.0437 1
      vertex 7.03308 -19.0437 1
    endloop
  endfacet
  facet normal 0 1 0
    outer loop
      vertex -2.16634 -19.0437 1
      vertex 7.03308 -19.0437 0
      vertex -2.16634 -19.0437 0
    endloop
  endfacet
  facet normal 1 -0 0
    outer loop
      vertex -2.16634 -19.0437 1
      vertex -2.16634 -14.6501 0
      vertex -2.16634 -14.6501 1
    endloop
  endfacet
  facet normal 1 0 0
    outer loop
      vertex -2.16634 -14.6501 0
      vertex -2.16634 -19.0437 1
      vertex -2.16634 -19.0437 0
    endloop
  endfacet
  facet normal 0 -1 0
    outer loop
      vertex -2.16634 -14.6501 0
      vertex 5.71884 -14.6501 1
      vertex -2.16634 -14.6501 1
    endloop
  endfacet
  facet normal 0 -1 -0
    outer loop
      vertex 5.71884 -14.6501 1
      vertex -2.16634 -14.6501 0
      vertex 5.71884 -14.6501 0
    endloop
  endfacet
  facet normal 1 -0 0
    outer loop
      vertex 5.71884 -14.6501 1
      vertex 5.71884 -11.7123 0
      vertex 5.71884 -11.7123 1
    endloop
  endfacet
  facet normal 1 0 0
    outer loop
      vertex 5.71884 -11.7123 0
      vertex 5.71884 -14.6501 1
      vertex 5.71884 -14.6501 0
    endloop
  endfacet
  facet normal 0 1 -0
    outer loop
      vertex 5.71884 -11.7123 0
      vertex -2.16634 -11.7123 1
      vertex 5.71884 -11.7123 1
    endloop
  endfacet
  facet normal 0 1 0
    outer loop
      vertex -2.16634 -11.7123 1
      vertex 5.71884 -11.7123 0
      vertex -2.16634 -11.7123 0
    endloop
  endfacet
  facet normal 1 -0 0
    outer loop
      vertex -2.16634 -11.7123 1
      vertex -2.16634 -7.53783 0
      vertex -2.16634 -7.53783 1
    endloop
  endfacet
  facet normal 1 0 0
    outer loop
      vertex -2.16634 -7.53783 0
      vertex -2.16634 -11.7123 1
      vertex -2.16634 -11.7123 0
    endloop
  endfacet
  facet normal 0 -1 0
    outer loop
      vertex -2.16634 -7.53783 0
      vertex 6.50487 -7.53783 1
      vertex -2.16634 -7.53783 1
    endloop
  endfacet
  facet normal 0 -1 -0
    outer loop
      vertex 6.50487 -7.53783 1
      vertex -2.16634 -7.53783 0
      vertex 6.50487 -7.53783 0
    endloop
  endfacet
  facet normal 1 -0 0
    outer loop
      vertex 6.50487 -7.53783 1
      vertex 6.50487 -4.60025 0
      vertex 6.50487 -4.60025 1
    endloop
  endfacet
  facet normal 1 0 0
    outer loop
      vertex 6.50487 -4.60025 0
      vertex 6.50487 -7.53783 1
      vertex 6.50487 -7.53783 0
    endloop
  endfacet
  facet normal 0 1 -0
    outer loop
      vertex 6.50487 -4.60025 0
      vertex -5.96729 -4.60025 1
      vertex 6.50487 -4.60025 1
    endloop
  endfacet
  facet normal 0 1 0
    outer loop
      vertex -5.96729 -4.60025 1
      vertex 6.50487 -4.60025 0
      vertex -5.96729 -4.60025 0
    endloop
  endfacet
  facet normal -1 0 0
    outer loop
      vertex -5.96729 -21.9812 0
      vertex -5.96729 -4.60025 1
      vertex -5.96729 -4.60025 0
    endloop
  endfacet
  facet normal -1 -0 0
    outer loop
      vertex -5.96729 -4.60025 1
      vertex -5.96729 -21.9812 0
      vertex -5.96729 -21.9812 1
    endloop
  endfacet
  facet normal 0 -1 0
    outer loop
      vertex -5.96729 -21.9812 0
      vertex 7.03308 -21.9812 1
      vertex -5.96729 -21.9812 1
    endloop
  endfacet
  facet normal 0 -1 -0
    outer loop
      vertex 7.03308 -21.9812 1
      vertex -5.96729 -21.9812 0
      vertex 7.03308 -21.9812 0
    endloop
  endfacet
  facet normal 1 -0 0
    outer loop
      vertex 7.03308 -21.9812 1
      vertex 7.03308 -19.0437 0
      vertex 7.03308 -19.0437 1
    endloop
  endfacet
  facet normal 1 0 0
    outer loop
      vertex 7.03308 -19.0437 0
      vertex 7.03308 -21.9812 1
      vertex 7.03308 -21.9812 0
    endloop
  endfacet
endsolid OpenSCAD_Model
