solid OpenSCAD_Model
  facet normal 0 0 -1
    outer loop
      vertex 16.2253 -40.7768 0
      vertex 35.3592 -40.7768 0
      vertex 35.1567 -46.6506 0
    endloop
  endfacet
  facet normal 0 0 -1
    outer loop
      vertex 15.8045 -48.5878 0
      vertex 35.1567 -46.6506 0
      vertex 34.5493 -52.1234 0
    endloop
  endfacet
  facet normal 0 0 -1
    outer loop
      vertex 16.1128 -36.7598 0
      vertex 35.3592 -40.7768 0
      vertex 16.2253 -40.7768 0
    endloop
  endfacet
  facet normal 0 0 -1
    outer loop
      vertex 15.8045 -48.5878 0
      vertex 34.5493 -52.1234 0
      vertex 33.5368 -57.1952 0
    endloop
  endfacet
  facet normal 0 0 -1
    outer loop
      vertex 35.3592 -40.7768 0
      vertex 16.1128 -36.7598 0
      vertex 35.1456 -34.835 0
    endloop
  endfacet
  facet normal 0 0 -1
    outer loop
      vertex 14.5424 -55.1971 0
      vertex 33.5368 -57.1952 0
      vertex 32.1194 -61.8659 0
    endloop
  endfacet
  facet normal 0 0 -1
    outer loop
      vertex 15.7756 -33.0649 0
      vertex 35.1456 -34.835 0
      vertex 16.1128 -36.7598 0
    endloop
  endfacet
  facet normal 0 0 -1
    outer loop
      vertex 14.5424 -55.1971 0
      vertex 32.1194 -61.8659 0
      vertex 30.2971 -66.1356 0
    endloop
  endfacet
  facet normal 0 0 -1
    outer loop
      vertex 35.1456 -34.835 0
      vertex 15.7756 -33.0649 0
      vertex 34.5046 -29.3414 0
    endloop
  endfacet
  facet normal 0 0 -1
    outer loop
      vertex 12.4388 -60.6048 0
      vertex 30.2971 -66.1356 0
      vertex 28.0697 -70.0043 0
    endloop
  endfacet
  facet normal 0 0 -1
    outer loop
      vertex 15.2136 -29.692 0
      vertex 34.5046 -29.3414 0
      vertex 15.7756 -33.0649 0
    endloop
  endfacet
  facet normal 0 0 -1
    outer loop
      vertex 12.4388 -60.6048 0
      vertex 28.0697 -70.0043 0
      vertex 25.4374 -73.472 0
    endloop
  endfacet
  facet normal -0 0 -1
    outer loop
      vertex 34.5046 -29.3414 0
      vertex 15.2136 -29.692 0
      vertex 33.4363 -24.2962 0
    endloop
  endfacet
  facet normal 0 0 -1
    outer loop
      vertex 9.49382 -64.8107 0
      vertex 25.4374 -73.472 0
      vertex 22.4306 -76.5056 0
    endloop
  endfacet
  facet normal 0 0 -1
    outer loop
      vertex 14.4267 -26.6413 0
      vertex 33.4363 -24.2962 0
      vertex 15.2136 -29.692 0
    endloop
  endfacet
  facet normal 0 0 -1
    outer loop
      vertex 9.49382 -64.8107 0
      vertex 22.4306 -76.5056 0
      vertex 19.0795 -79.0725 0
    endloop
  endfacet
  facet normal -0 0 -1
    outer loop
      vertex 33.4363 -24.2962 0
      vertex 14.4267 -26.6413 0
      vertex 31.9408 -19.6992 0
    endloop
  endfacet
  facet normal 0 0 -1
    outer loop
      vertex 13.415 -23.9127 0
      vertex 31.9408 -19.6992 0
      vertex 14.4267 -26.6413 0
    endloop
  endfacet
  facet normal -0 0 -1
    outer loop
      vertex 35.1567 -46.6506 0
      vertex 15.8045 -48.5878 0
      vertex 16.2253 -40.7768 0
    endloop
  endfacet
  facet normal 0 0 -1
    outer loop
      vertex 9.49382 -64.8107 0
      vertex 19.0795 -79.0725 0
      vertex 15.3838 -81.1726 0
    endloop
  endfacet
  facet normal 0 0 -1
    outer loop
      vertex 33.5368 -57.1952 0
      vertex 14.5424 -55.1971 0
      vertex 15.8045 -48.5878 0
    endloop
  endfacet
  facet normal 0 0 -1
    outer loop
      vertex 30.2971 -66.1356 0
      vertex 12.4388 -60.6048 0
      vertex 14.5424 -55.1971 0
    endloop
  endfacet
  facet normal 0 0 -1
    outer loop
      vertex 5.7074 -67.8149 0
      vertex 15.3838 -81.1726 0
      vertex 11.3438 -82.8061 0
    endloop
  endfacet
  facet normal 0 0 -1
    outer loop
      vertex 25.4374 -73.472 0
      vertex 9.49382 -64.8107 0
      vertex 12.4388 -60.6048 0
    endloop
  endfacet
  facet normal 0 0 -1
    outer loop
      vertex 5.7074 -67.8149 0
      vertex 11.3438 -82.8061 0
      vertex 6.95923 -83.9728 0
    endloop
  endfacet
  facet normal 0 0 -1
    outer loop
      vertex 15.3838 -81.1726 0
      vertex 5.7074 -67.8149 0
      vertex 9.49382 -64.8107 0
    endloop
  endfacet
  facet normal 0 0 -1
    outer loop
      vertex 1.07954 -69.6174 0
      vertex 6.95923 -83.9728 0
      vertex 2.23026 -84.6729 0
    endloop
  endfacet
  facet normal 0 0 -1
    outer loop
      vertex 6.95923 -83.9728 0
      vertex 1.07954 -69.6174 0
      vertex 5.7074 -67.8149 0
    endloop
  endfacet
  facet normal 0 0 -1
    outer loop
      vertex -2.84312 -84.9062 0
      vertex 1.07954 -69.6174 0
      vertex 2.23026 -84.6729 0
    endloop
  endfacet
  facet normal 0 0 -1
    outer loop
      vertex -2.84312 -84.9062 0
      vertex -4.38972 -70.2183 0
      vertex 1.07954 -69.6174 0
    endloop
  endfacet
  facet normal 0 0 -1
    outer loop
      vertex -2.84312 -84.9062 0
      vertex -10.9609 -70.2183 0
      vertex -4.38972 -70.2183 0
    endloop
  endfacet
  facet normal -0 0 -1
    outer loop
      vertex -10.9609 -70.2183 0
      vertex -29.9647 -84.9062 0
      vertex -10.9609 -12.6891 0
    endloop
  endfacet
  facet normal 0 0 -1
    outer loop
      vertex -29.9647 -84.9062 0
      vertex -10.9609 -70.2183 0
      vertex -2.84312 -84.9062 0
    endloop
  endfacet
  facet normal -0 0 -1
    outer loop
      vertex 31.9408 -19.6992 0
      vertex 13.415 -23.9127 0
      vertex 30.0179 -15.5507 0
    endloop
  endfacet
  facet normal -0 0 -1
    outer loop
      vertex 30.0179 -15.5507 0
      vertex 13.415 -23.9127 0
      vertex 27.6677 -11.8504 0
    endloop
  endfacet
  facet normal 0 0 -1
    outer loop
      vertex 12.1785 -21.5062 0
      vertex 27.6677 -11.8504 0
      vertex 13.415 -23.9127 0
    endloop
  endfacet
  facet normal -0 0 -1
    outer loop
      vertex 27.6677 -11.8504 0
      vertex 12.1785 -21.5062 0
      vertex 24.8902 -8.59845 0
    endloop
  endfacet
  facet normal 0 0 -1
    outer loop
      vertex 10.7171 -19.4218 0
      vertex 24.8902 -8.59845 0
      vertex 12.1785 -21.5062 0
    endloop
  endfacet
  facet normal -0 0 -1
    outer loop
      vertex 24.8902 -8.59845 0
      vertex 10.7171 -19.4218 0
      vertex 21.6817 -5.78693 0
    endloop
  endfacet
  facet normal 0 0 -1
    outer loop
      vertex 9.00603 -17.6356 0
      vertex 21.6817 -5.78693 0
      vertex 10.7171 -19.4218 0
    endloop
  endfacet
  facet normal -0 0 -1
    outer loop
      vertex 21.6817 -5.78693 0
      vertex 9.00603 -17.6356 0
      vertex 18.038 -3.40796 0
    endloop
  endfacet
  facet normal 0 0 -1
    outer loop
      vertex 7.02014 -16.1242 0
      vertex 18.038 -3.40796 0
      vertex 9.00603 -17.6356 0
    endloop
  endfacet
  facet normal -0 0 -1
    outer loop
      vertex 18.038 -3.40796 0
      vertex 7.02014 -16.1242 0
      vertex 13.9591 -1.46152 0
    endloop
  endfacet
  facet normal 0 0 -1
    outer loop
      vertex 4.75949 -14.8876 0
      vertex 13.9591 -1.46152 0
      vertex 7.02014 -16.1242 0
    endloop
  endfacet
  facet normal -0 0 -1
    outer loop
      vertex 13.9591 -1.46152 0
      vertex 4.75949 -14.8876 0
      vertex 9.44499 0.0523529 0
    endloop
  endfacet
  facet normal 0 0 -1
    outer loop
      vertex 2.22408 -13.9258 0
      vertex 9.44499 0.0523529 0
      vertex 4.75949 -14.8876 0
    endloop
  endfacet
  facet normal -0 0 -1
    outer loop
      vertex 9.44499 0.0523529 0
      vertex 2.22408 -13.9258 0
      vertex 4.49564 1.13371 0
    endloop
  endfacet
  facet normal 0 0 -1
    outer loop
      vertex -0.58609 -13.2387 0
      vertex 4.49564 1.13371 0
      vertex 2.22408 -13.9258 0
    endloop
  endfacet
  facet normal 0 0 -1
    outer loop
      vertex -0.58609 -13.2387 0
      vertex -0.888901 1.78252 0
      vertex 4.49564 1.13371 0
    endloop
  endfacet
  facet normal 0 0 -1
    outer loop
      vertex -3.67102 -12.8265 0
      vertex -0.888901 1.78252 0
      vertex -0.58609 -13.2387 0
    endloop
  endfacet
  facet normal 0 0 -1
    outer loop
      vertex -3.67102 -12.8265 0
      vertex -6.70868 1.99879 0
      vertex -0.888901 1.78252 0
    endloop
  endfacet
  facet normal 0 0 -1
    outer loop
      vertex -7.03073 -12.6891 0
      vertex -6.70868 1.99879 0
      vertex -3.67102 -12.8265 0
    endloop
  endfacet
  facet normal 0 0 -1
    outer loop
      vertex -10.9609 -12.6891 0
      vertex -6.70868 1.99879 0
      vertex -7.03073 -12.6891 0
    endloop
  endfacet
  facet normal 0 0 -1
    outer loop
      vertex -10.9609 -12.6891 0
      vertex -29.9647 1.99879 0
      vertex -6.70868 1.99879 0
    endloop
  endfacet
  facet normal 0 0 -1
    outer loop
      vertex -29.9647 1.99879 0
      vertex -10.9609 -12.6891 0
      vertex -29.9647 -84.9062 0
    endloop
  endfacet
  facet normal 0 0 1
    outer loop
      vertex 35.3592 -40.7768 1
      vertex 16.1128 -36.7598 1
      vertex 16.2253 -40.7768 1
    endloop
  endfacet
  facet normal 0 0 1
    outer loop
      vertex 21.6817 -5.78693 1
      vertex 15.7756 -33.0649 1
      vertex 16.1128 -36.7598 1
    endloop
  endfacet
  facet normal 0 0 1
    outer loop
      vertex 21.6817 -5.78693 1
      vertex 15.2136 -29.692 1
      vertex 15.7756 -33.0649 1
    endloop
  endfacet
  facet normal 0 0 1
    outer loop
      vertex 21.6817 -5.78693 1
      vertex 14.4267 -26.6413 1
      vertex 15.2136 -29.692 1
    endloop
  endfacet
  facet normal 0 0 1
    outer loop
      vertex 7.02014 -16.1242 1
      vertex 18.038 -3.40796 1
      vertex 13.9591 -1.46152 1
    endloop
  endfacet
  facet normal 0 0 1
    outer loop
      vertex 21.6817 -5.78693 1
      vertex 13.415 -23.9127 1
      vertex 14.4267 -26.6413 1
    endloop
  endfacet
  facet normal 0 0 1
    outer loop
      vertex 21.6817 -5.78693 1
      vertex 12.1785 -21.5062 1
      vertex 13.415 -23.9127 1
    endloop
  endfacet
  facet normal 0 0 1
    outer loop
      vertex 21.6817 -5.78693 1
      vertex 10.7171 -19.4218 1
      vertex 12.1785 -21.5062 1
    endloop
  endfacet
  facet normal 0 0 1
    outer loop
      vertex 4.75949 -14.8876 1
      vertex 13.9591 -1.46152 1
      vertex 9.44499 0.0523529 1
    endloop
  endfacet
  facet normal 0 0 1
    outer loop
      vertex 21.6817 -5.78693 1
      vertex 9.00603 -17.6356 1
      vertex 10.7171 -19.4218 1
    endloop
  endfacet
  facet normal 0 0 1
    outer loop
      vertex 18.038 -3.40796 1
      vertex 7.02014 -16.1242 1
      vertex 9.00603 -17.6356 1
    endloop
  endfacet
  facet normal 0 0 1
    outer loop
      vertex 13.9591 -1.46152 1
      vertex 4.75949 -14.8876 1
      vertex 7.02014 -16.1242 1
    endloop
  endfacet
  facet normal 0 0 1
    outer loop
      vertex 2.22408 -13.9258 1
      vertex 9.44499 0.0523529 1
      vertex 4.49564 1.13371 1
    endloop
  endfacet
  facet normal 0 0 1
    outer loop
      vertex 9.44499 0.0523529 1
      vertex 2.22408 -13.9258 1
      vertex 4.75949 -14.8876 1
    endloop
  endfacet
  facet normal 0 0 1
    outer loop
      vertex 4.49564 1.13371 1
      vertex -0.58609 -13.2387 1
      vertex 2.22408 -13.9258 1
    endloop
  endfacet
  facet normal 0 0 1
    outer loop
      vertex -0.888901 1.78252 1
      vertex -0.58609 -13.2387 1
      vertex 4.49564 1.13371 1
    endloop
  endfacet
  facet normal 0 0 1
    outer loop
      vertex -0.888901 1.78252 1
      vertex -3.67102 -12.8265 1
      vertex -0.58609 -13.2387 1
    endloop
  endfacet
  facet normal 0 0 1
    outer loop
      vertex -6.70868 1.99879 1
      vertex -3.67102 -12.8265 1
      vertex -0.888901 1.78252 1
    endloop
  endfacet
  facet normal 0 0 1
    outer loop
      vertex -6.70868 1.99879 1
      vertex -7.03073 -12.6891 1
      vertex -3.67102 -12.8265 1
    endloop
  endfacet
  facet normal 0 0 1
    outer loop
      vertex -6.70868 1.99879 1
      vertex -10.9609 -12.6891 1
      vertex -7.03073 -12.6891 1
    endloop
  endfacet
  facet normal 0 0 1
    outer loop
      vertex -10.9609 -12.6891 1
      vertex -29.9647 1.99879 1
      vertex -10.9609 -70.2183 1
    endloop
  endfacet
  facet normal -0 0 1
    outer loop
      vertex -29.9647 1.99879 1
      vertex -10.9609 -12.6891 1
      vertex -6.70868 1.99879 1
    endloop
  endfacet
  facet normal -0 0 1
    outer loop
      vertex 16.1128 -36.7598 1
      vertex 35.3592 -40.7768 1
      vertex 35.1456 -34.835 1
    endloop
  endfacet
  facet normal 0 0 1
    outer loop
      vertex 35.3592 -40.7768 1
      vertex 16.2253 -40.7768 1
      vertex 35.1567 -46.6506 1
    endloop
  endfacet
  facet normal 0 0 1
    outer loop
      vertex 16.1128 -36.7598 1
      vertex 35.1456 -34.835 1
      vertex 34.5046 -29.3414 1
    endloop
  endfacet
  facet normal 0 0 1
    outer loop
      vertex 15.8045 -48.5878 1
      vertex 35.1567 -46.6506 1
      vertex 16.2253 -40.7768 1
    endloop
  endfacet
  facet normal 0 0 1
    outer loop
      vertex 16.1128 -36.7598 1
      vertex 34.5046 -29.3414 1
      vertex 33.4363 -24.2962 1
    endloop
  endfacet
  facet normal 0 0 1
    outer loop
      vertex 35.1567 -46.6506 1
      vertex 15.8045 -48.5878 1
      vertex 34.5493 -52.1234 1
    endloop
  endfacet
  facet normal 0 0 1
    outer loop
      vertex 16.1128 -36.7598 1
      vertex 33.4363 -24.2962 1
      vertex 31.9408 -19.6992 1
    endloop
  endfacet
  facet normal 0 0 1
    outer loop
      vertex 34.5493 -52.1234 1
      vertex 15.8045 -48.5878 1
      vertex 33.5368 -57.1952 1
    endloop
  endfacet
  facet normal 0 0 1
    outer loop
      vertex 16.1128 -36.7598 1
      vertex 31.9408 -19.6992 1
      vertex 30.0179 -15.5507 1
    endloop
  endfacet
  facet normal -0 0 1
    outer loop
      vertex 14.5424 -55.1971 1
      vertex 33.5368 -57.1952 1
      vertex 15.8045 -48.5878 1
    endloop
  endfacet
  facet normal 0 0 1
    outer loop
      vertex 16.1128 -36.7598 1
      vertex 30.0179 -15.5507 1
      vertex 27.6677 -11.8504 1
    endloop
  endfacet
  facet normal 0 0 1
    outer loop
      vertex 33.5368 -57.1952 1
      vertex 14.5424 -55.1971 1
      vertex 32.1194 -61.8659 1
    endloop
  endfacet
  facet normal 0 0 1
    outer loop
      vertex 16.1128 -36.7598 1
      vertex 27.6677 -11.8504 1
      vertex 24.8902 -8.59845 1
    endloop
  endfacet
  facet normal 0 0 1
    outer loop
      vertex 32.1194 -61.8659 1
      vertex 14.5424 -55.1971 1
      vertex 30.2971 -66.1356 1
    endloop
  endfacet
  facet normal 0 0 1
    outer loop
      vertex 16.1128 -36.7598 1
      vertex 24.8902 -8.59845 1
      vertex 21.6817 -5.78693 1
    endloop
  endfacet
  facet normal -0 0 1
    outer loop
      vertex 12.4388 -60.6048 1
      vertex 30.2971 -66.1356 1
      vertex 14.5424 -55.1971 1
    endloop
  endfacet
  facet normal 0 0 1
    outer loop
      vertex 9.00603 -17.6356 1
      vertex 21.6817 -5.78693 1
      vertex 18.038 -3.40796 1
    endloop
  endfacet
  facet normal 0 0 1
    outer loop
      vertex 30.2971 -66.1356 1
      vertex 12.4388 -60.6048 1
      vertex 28.0697 -70.0043 1
    endloop
  endfacet
  facet normal 0 0 1
    outer loop
      vertex 28.0697 -70.0043 1
      vertex 12.4388 -60.6048 1
      vertex 25.4374 -73.472 1
    endloop
  endfacet
  facet normal -0 0 1
    outer loop
      vertex 9.49382 -64.8107 1
      vertex 25.4374 -73.472 1
      vertex 12.4388 -60.6048 1
    endloop
  endfacet
  facet normal 0 0 1
    outer loop
      vertex 25.4374 -73.472 1
      vertex 9.49382 -64.8107 1
      vertex 22.4306 -76.5056 1
    endloop
  endfacet
  facet normal 0 0 1
    outer loop
      vertex 22.4306 -76.5056 1
      vertex 9.49382 -64.8107 1
      vertex 19.0795 -79.0725 1
    endloop
  endfacet
  facet normal 0 0 1
    outer loop
      vertex 19.0795 -79.0725 1
      vertex 9.49382 -64.8107 1
      vertex 15.3838 -81.1726 1
    endloop
  endfacet
  facet normal -0 0 1
    outer loop
      vertex 5.7074 -67.8149 1
      vertex 15.3838 -81.1726 1
      vertex 9.49382 -64.8107 1
    endloop
  endfacet
  facet normal 0 0 1
    outer loop
      vertex 15.3838 -81.1726 1
      vertex 5.7074 -67.8149 1
      vertex 11.3438 -82.8061 1
    endloop
  endfacet
  facet normal 0 0 1
    outer loop
      vertex 11.3438 -82.8061 1
      vertex 5.7074 -67.8149 1
      vertex 6.95923 -83.9728 1
    endloop
  endfacet
  facet normal -0 0 1
    outer loop
      vertex 1.07954 -69.6174 1
      vertex 6.95923 -83.9728 1
      vertex 5.7074 -67.8149 1
    endloop
  endfacet
  facet normal 0 0 1
    outer loop
      vertex 6.95923 -83.9728 1
      vertex 1.07954 -69.6174 1
      vertex 2.23026 -84.6729 1
    endloop
  endfacet
  facet normal 0 0 1
    outer loop
      vertex 1.07954 -69.6174 1
      vertex -2.84312 -84.9062 1
      vertex 2.23026 -84.6729 1
    endloop
  endfacet
  facet normal -0 0 1
    outer loop
      vertex -4.38972 -70.2183 1
      vertex -2.84312 -84.9062 1
      vertex 1.07954 -69.6174 1
    endloop
  endfacet
  facet normal -0 0 1
    outer loop
      vertex -10.9609 -70.2183 1
      vertex -2.84312 -84.9062 1
      vertex -4.38972 -70.2183 1
    endloop
  endfacet
  facet normal 0 0 1
    outer loop
      vertex -10.9609 -70.2183 1
      vertex -29.9647 -84.9062 1
      vertex -2.84312 -84.9062 1
    endloop
  endfacet
  facet normal 0 0 1
    outer loop
      vertex -29.9647 -84.9062 1
      vertex -10.9609 -70.2183 1
      vertex -29.9647 1.99879 1
    endloop
  endfacet
  facet normal 0.146449 -0.989218 0
    outer loop
      vertex 2.23026 -84.6729 0
      vertex 6.95923 -83.9728 1
      vertex 2.23026 -84.6729 1
    endloop
  endfacet
  facet normal 0.146449 -0.989218 0
    outer loop
      vertex 6.95923 -83.9728 1
      vertex 2.23026 -84.6729 0
      vertex 6.95923 -83.9728 0
    endloop
  endfacet
  facet normal 0.257144 -0.966373 0
    outer loop
      vertex 6.95923 -83.9728 0
      vertex 11.3438 -82.8061 1
      vertex 6.95923 -83.9728 1
    endloop
  endfacet
  facet normal 0.257144 -0.966373 0
    outer loop
      vertex 11.3438 -82.8061 1
      vertex 6.95923 -83.9728 0
      vertex 11.3438 -82.8061 0
    endloop
  endfacet
  facet normal 0.37485 -0.927085 0
    outer loop
      vertex 11.3438 -82.8061 0
      vertex 15.3838 -81.1726 1
      vertex 11.3438 -82.8061 1
    endloop
  endfacet
  facet normal 0.37485 -0.927085 0
    outer loop
      vertex 15.3838 -81.1726 1
      vertex 11.3438 -82.8061 0
      vertex 15.3838 -81.1726 0
    endloop
  endfacet
  facet normal 0.494058 -0.869429 0
    outer loop
      vertex 15.3838 -81.1726 0
      vertex 19.0795 -79.0725 1
      vertex 15.3838 -81.1726 1
    endloop
  endfacet
  facet normal 0.494058 -0.869429 0
    outer loop
      vertex 19.0795 -79.0725 1
      vertex 15.3838 -81.1726 0
      vertex 19.0795 -79.0725 0
    endloop
  endfacet
  facet normal 0.608092 -0.793867 0
    outer loop
      vertex 19.0795 -79.0725 0
      vertex 22.4306 -76.5056 1
      vertex 19.0795 -79.0725 1
    endloop
  endfacet
  facet normal 0.608092 -0.793867 0
    outer loop
      vertex 22.4306 -76.5056 1
      vertex 19.0795 -79.0725 0
      vertex 22.4306 -76.5056 0
    endloop
  endfacet
  facet normal 0.710237 -0.703963 0
    outer loop
      vertex 22.4306 -76.5056 1
      vertex 25.4374 -73.472 0
      vertex 25.4374 -73.472 1
    endloop
  endfacet
  facet normal 0.710237 -0.703963 0
    outer loop
      vertex 25.4374 -73.472 0
      vertex 22.4306 -76.5056 1
      vertex 22.4306 -76.5056 0
    endloop
  endfacet
  facet normal 0.796511 -0.604624 0
    outer loop
      vertex 25.4374 -73.472 1
      vertex 28.0697 -70.0043 0
      vertex 28.0697 -70.0043 1
    endloop
  endfacet
  facet normal 0.796511 -0.604624 0
    outer loop
      vertex 28.0697 -70.0043 0
      vertex 25.4374 -73.472 1
      vertex 25.4374 -73.472 0
    endloop
  endfacet
  facet normal 0.866626 -0.498959 0
    outer loop
      vertex 28.0697 -70.0043 1
      vertex 30.2971 -66.1356 0
      vertex 30.2971 -66.1356 1
    endloop
  endfacet
  facet normal 0.866626 -0.498959 0
    outer loop
      vertex 30.2971 -66.1356 0
      vertex 28.0697 -70.0043 1
      vertex 28.0697 -70.0043 0
    endloop
  endfacet
  facet normal 0.919735 -0.392541 0
    outer loop
      vertex 30.2971 -66.1356 1
      vertex 32.1194 -61.8659 0
      vertex 32.1194 -61.8659 1
    endloop
  endfacet
  facet normal 0.919735 -0.392541 0
    outer loop
      vertex 32.1194 -61.8659 0
      vertex 30.2971 -66.1356 1
      vertex 30.2971 -66.1356 0
    endloop
  endfacet
  facet normal 0.956909 -0.290389 0
    outer loop
      vertex 32.1194 -61.8659 1
      vertex 33.5368 -57.1952 0
      vertex 33.5368 -57.1952 1
    endloop
  endfacet
  facet normal 0.956909 -0.290389 0
    outer loop
      vertex 33.5368 -57.1952 0
      vertex 32.1194 -61.8659 1
      vertex 32.1194 -61.8659 0
    endloop
  endfacet
  facet normal 0.98065 -0.19577 0
    outer loop
      vertex 33.5368 -57.1952 1
      vertex 34.5493 -52.1234 0
      vertex 34.5493 -52.1234 1
    endloop
  endfacet
  facet normal 0.98065 -0.19577 0
    outer loop
      vertex 34.5493 -52.1234 0
      vertex 33.5368 -57.1952 1
      vertex 33.5368 -57.1952 0
    endloop
  endfacet
  facet normal 0.993897 -0.110308 0
    outer loop
      vertex 34.5493 -52.1234 1
      vertex 35.1567 -46.6506 0
      vertex 35.1567 -46.6506 1
    endloop
  endfacet
  facet normal 0.993897 -0.110308 0
    outer loop
      vertex 35.1567 -46.6506 0
      vertex 34.5493 -52.1234 1
      vertex 34.5493 -52.1234 0
    endloop
  endfacet
  facet normal 0.999406 -0.0344547 0
    outer loop
      vertex 35.1567 -46.6506 1
      vertex 35.3592 -40.7768 0
      vertex 35.3592 -40.7768 1
    endloop
  endfacet
  facet normal 0.999406 -0.0344547 0
    outer loop
      vertex 35.3592 -40.7768 0
      vertex 35.1567 -46.6506 1
      vertex 35.1567 -46.6506 0
    endloop
  endfacet
  facet normal 0.999354 0.0359255 0
    outer loop
      vertex 35.3592 -40.7768 1
      vertex 35.1456 -34.835 0
      vertex 35.1456 -34.835 1
    endloop
  endfacet
  facet normal 0.999354 0.0359255 0
    outer loop
      vertex 35.1456 -34.835 0
      vertex 35.3592 -40.7768 1
      vertex 35.3592 -40.7768 0
    endloop
  endfacet
  facet normal 0.993261 0.115895 0
    outer loop
      vertex 35.1456 -34.835 1
      vertex 34.5046 -29.3414 0
      vertex 34.5046 -29.3414 1
    endloop
  endfacet
  facet normal 0.993261 0.115895 0
    outer loop
      vertex 34.5046 -29.3414 0
      vertex 35.1456 -34.835 1
      vertex 35.1456 -34.835 0
    endloop
  endfacet
  facet normal 0.978309 0.207153 0
    outer loop
      vertex 34.5046 -29.3414 1
      vertex 33.4363 -24.2962 0
      vertex 33.4363 -24.2962 1
    endloop
  endfacet
  facet normal 0.978309 0.207153 0
    outer loop
      vertex 33.4363 -24.2962 0
      vertex 34.5046 -29.3414 1
      vertex 34.5046 -29.3414 0
    endloop
  endfacet
  facet normal 0.950944 0.309362 0
    outer loop
      vertex 33.4363 -24.2962 1
      vertex 31.9408 -19.6992 0
      vertex 31.9408 -19.6992 1
    endloop
  endfacet
  facet normal 0.950944 0.309362 0
    outer loop
      vertex 31.9408 -19.6992 0
      vertex 33.4363 -24.2962 1
      vertex 33.4363 -24.2962 0
    endloop
  endfacet
  facet normal 0.907275 0.420537 0
    outer loop
      vertex 31.9408 -19.6992 1
      vertex 30.0179 -15.5507 0
      vertex 30.0179 -15.5507 1
    endloop
  endfacet
  facet normal 0.907275 0.420537 0
    outer loop
      vertex 30.0179 -15.5507 0
      vertex 31.9408 -19.6992 1
      vertex 31.9408 -19.6992 0
    endloop
  endfacet
  facet normal 0.84413 0.536139 0
    outer loop
      vertex 30.0179 -15.5507 1
      vertex 27.6677 -11.8504 0
      vertex 27.6677 -11.8504 1
    endloop
  endfacet
  facet normal 0.84413 0.536139 0
    outer loop
      vertex 27.6677 -11.8504 0
      vertex 30.0179 -15.5507 1
      vertex 30.0179 -15.5507 0
    endloop
  endfacet
  facet normal 0.760398 0.649458 0
    outer loop
      vertex 27.6677 -11.8504 1
      vertex 24.8902 -8.59845 0
      vertex 24.8902 -8.59845 1
    endloop
  endfacet
  facet normal 0.760398 0.649458 0
    outer loop
      vertex 24.8902 -8.59845 0
      vertex 27.6677 -11.8504 1
      vertex 27.6677 -11.8504 0
    endloop
  endfacet
  facet normal 0.659046 0.752102 -0
    outer loop
      vertex 24.8902 -8.59845 0
      vertex 21.6817 -5.78693 1
      vertex 24.8902 -8.59845 1
    endloop
  endfacet
  facet normal 0.659046 0.752102 0
    outer loop
      vertex 21.6817 -5.78693 1
      vertex 24.8902 -8.59845 0
      vertex 21.6817 -5.78693 0
    endloop
  endfacet
  facet normal 0.546694 0.837332 -0
    outer loop
      vertex 21.6817 -5.78693 0
      vertex 18.038 -3.40796 1
      vertex 21.6817 -5.78693 1
    endloop
  endfacet
  facet normal 0.546694 0.837332 0
    outer loop
      vertex 18.038 -3.40796 1
      vertex 21.6817 -5.78693 0
      vertex 18.038 -3.40796 0
    endloop
  endfacet
  facet normal 0.430674 0.902508 -0
    outer loop
      vertex 18.038 -3.40796 0
      vertex 13.9591 -1.46152 1
      vertex 18.038 -3.40796 1
    endloop
  endfacet
  facet normal 0.430674 0.902508 0
    outer loop
      vertex 13.9591 -1.46152 1
      vertex 18.038 -3.40796 0
      vertex 13.9591 -1.46152 0
    endloop
  endfacet
  facet normal 0.317961 0.948104 -0
    outer loop
      vertex 13.9591 -1.46152 0
      vertex 9.44499 0.0523529 1
      vertex 13.9591 -1.46152 1
    endloop
  endfacet
  facet normal 0.317961 0.948104 0
    outer loop
      vertex 9.44499 0.0523529 1
      vertex 13.9591 -1.46152 0
      vertex 9.44499 0.0523529 0
    endloop
  endfacet
  facet normal 0.213449 0.976954 -0
    outer loop
      vertex 9.44499 0.0523529 0
      vertex 4.49564 1.13371 1
      vertex 9.44499 0.0523529 1
    endloop
  endfacet
  facet normal 0.213449 0.976954 0
    outer loop
      vertex 4.49564 1.13371 1
      vertex 9.44499 0.0523529 0
      vertex 4.49564 1.13371 0
    endloop
  endfacet
  facet normal 0.11963 0.992819 -0
    outer loop
      vertex 4.49564 1.13371 0
      vertex -0.888901 1.78252 1
      vertex 4.49564 1.13371 1
    endloop
  endfacet
  facet normal 0.11963 0.992819 0
    outer loop
      vertex -0.888901 1.78252 1
      vertex 4.49564 1.13371 0
      vertex -0.888901 1.78252 0
    endloop
  endfacet
  facet normal 0.0371356 0.99931 -0
    outer loop
      vertex -0.888901 1.78252 0
      vertex -6.70868 1.99879 1
      vertex -0.888901 1.78252 1
    endloop
  endfacet
  facet normal 0.0371356 0.99931 0
    outer loop
      vertex -6.70868 1.99879 1
      vertex -0.888901 1.78252 0
      vertex -6.70868 1.99879 0
    endloop
  endfacet
  facet normal 0 1 -0
    outer loop
      vertex -6.70868 1.99879 0
      vertex -29.9647 1.99879 1
      vertex -6.70868 1.99879 1
    endloop
  endfacet
  facet normal 0 1 0
    outer loop
      vertex -29.9647 1.99879 1
      vertex -6.70868 1.99879 0
      vertex -29.9647 1.99879 0
    endloop
  endfacet
  facet normal -1 0 0
    outer loop
      vertex -29.9647 -84.9062 0
      vertex -29.9647 1.99879 1
      vertex -29.9647 1.99879 0
    endloop
  endfacet
  facet normal -1 -0 0
    outer loop
      vertex -29.9647 1.99879 1
      vertex -29.9647 -84.9062 0
      vertex -29.9647 -84.9062 1
    endloop
  endfacet
  facet normal 0 -1 0
    outer loop
      vertex -29.9647 -84.9062 0
      vertex -2.84312 -84.9062 1
      vertex -29.9647 -84.9062 1
    endloop
  endfacet
  facet normal 0 -1 -0
    outer loop
      vertex -2.84312 -84.9062 1
      vertex -29.9647 -84.9062 0
      vertex -2.84312 -84.9062 0
    endloop
  endfacet
  facet normal 0.0459366 -0.998944 0
    outer loop
      vertex -2.84312 -84.9062 0
      vertex 2.23026 -84.6729 1
      vertex -2.84312 -84.9062 1
    endloop
  endfacet
  facet normal 0.0459366 -0.998944 0
    outer loop
      vertex 2.23026 -84.6729 1
      vertex -2.84312 -84.9062 0
      vertex 2.23026 -84.6729 0
    endloop
  endfacet
  facet normal 1 -0 0
    outer loop
      vertex -10.9609 -70.2183 1
      vertex -10.9609 -12.6891 0
      vertex -10.9609 -12.6891 1
    endloop
  endfacet
  facet normal 1 0 0
    outer loop
      vertex -10.9609 -12.6891 0
      vertex -10.9609 -70.2183 1
      vertex -10.9609 -70.2183 0
    endloop
  endfacet
  facet normal 0 -1 0
    outer loop
      vertex -10.9609 -12.6891 0
      vertex -7.03073 -12.6891 1
      vertex -10.9609 -12.6891 1
    endloop
  endfacet
  facet normal 0 -1 -0
    outer loop
      vertex -7.03073 -12.6891 1
      vertex -10.9609 -12.6891 0
      vertex -7.03073 -12.6891 0
    endloop
  endfacet
  facet normal -0.0408622 -0.999165 0
    outer loop
      vertex -7.03073 -12.6891 0
      vertex -3.67102 -12.8265 1
      vertex -7.03073 -12.6891 1
    endloop
  endfacet
  facet normal -0.0408622 -0.999165 -0
    outer loop
      vertex -3.67102 -12.8265 1
      vertex -7.03073 -12.6891 0
      vertex -3.67102 -12.8265 0
    endloop
  endfacet
  facet normal -0.13244 -0.991191 0
    outer loop
      vertex -3.67102 -12.8265 0
      vertex -0.58609 -13.2387 1
      vertex -3.67102 -12.8265 1
    endloop
  endfacet
  facet normal -0.13244 -0.991191 -0
    outer loop
      vertex -0.58609 -13.2387 1
      vertex -3.67102 -12.8265 0
      vertex -0.58609 -13.2387 0
    endloop
  endfacet
  facet normal -0.237508 -0.971385 0
    outer loop
      vertex -0.58609 -13.2387 0
      vertex 2.22408 -13.9258 1
      vertex -0.58609 -13.2387 1
    endloop
  endfacet
  facet normal -0.237508 -0.971385 -0
    outer loop
      vertex 2.22408 -13.9258 1
      vertex -0.58609 -13.2387 0
      vertex 2.22408 -13.9258 0
    endloop
  endfacet
  facet normal -0.354684 -0.934986 0
    outer loop
      vertex 2.22408 -13.9258 0
      vertex 4.75949 -14.8876 1
      vertex 2.22408 -13.9258 1
    endloop
  endfacet
  facet normal -0.354684 -0.934986 -0
    outer loop
      vertex 4.75949 -14.8876 1
      vertex 2.22408 -13.9258 0
      vertex 4.75949 -14.8876 0
    endloop
  endfacet
  facet normal -0.479904 -0.877321 0
    outer loop
      vertex 4.75949 -14.8876 0
      vertex 7.02014 -16.1242 1
      vertex 4.75949 -14.8876 1
    endloop
  endfacet
  facet normal -0.479904 -0.877321 -0
    outer loop
      vertex 7.02014 -16.1242 1
      vertex 4.75949 -14.8876 0
      vertex 7.02014 -16.1242 0
    endloop
  endfacet
  facet normal -0.605623 -0.795752 0
    outer loop
      vertex 7.02014 -16.1242 0
      vertex 9.00603 -17.6356 1
      vertex 7.02014 -16.1242 1
    endloop
  endfacet
  facet normal -0.605623 -0.795752 -0
    outer loop
      vertex 9.00603 -17.6356 1
      vertex 7.02014 -16.1242 0
      vertex 9.00603 -17.6356 0
    endloop
  endfacet
  facet normal -0.722131 -0.691757 0
    outer loop
      vertex 10.7171 -19.4218 0
      vertex 9.00603 -17.6356 1
      vertex 9.00603 -17.6356 0
    endloop
  endfacet
  facet normal -0.722131 -0.691757 0
    outer loop
      vertex 9.00603 -17.6356 1
      vertex 10.7171 -19.4218 0
      vertex 10.7171 -19.4218 1
    endloop
  endfacet
  facet normal -0.818804 -0.574074 0
    outer loop
      vertex 12.1785 -21.5062 0
      vertex 10.7171 -19.4218 1
      vertex 10.7171 -19.4218 0
    endloop
  endfacet
  facet normal -0.818804 -0.574074 0
    outer loop
      vertex 10.7171 -19.4218 1
      vertex 12.1785 -21.5062 0
      vertex 12.1785 -21.5062 1
    endloop
  endfacet
  facet normal -0.889457 -0.457018 0
    outer loop
      vertex 13.415 -23.9127 0
      vertex 12.1785 -21.5062 1
      vertex 12.1785 -21.5062 0
    endloop
  endfacet
  facet normal -0.889457 -0.457018 0
    outer loop
      vertex 12.1785 -21.5062 1
      vertex 13.415 -23.9127 0
      vertex 13.415 -23.9127 1
    endloop
  endfacet
  facet normal -0.937625 -0.347649 0
    outer loop
      vertex 14.4267 -26.6413 0
      vertex 13.415 -23.9127 1
      vertex 13.415 -23.9127 0
    endloop
  endfacet
  facet normal -0.937625 -0.347649 0
    outer loop
      vertex 13.415 -23.9127 1
      vertex 14.4267 -26.6413 0
      vertex 14.4267 -26.6413 1
    endloop
  endfacet
  facet normal -0.968306 -0.249766 0
    outer loop
      vertex 15.2136 -29.692 0
      vertex 14.4267 -26.6413 1
      vertex 14.4267 -26.6413 0
    endloop
  endfacet
  facet normal -0.968306 -0.249766 0
    outer loop
      vertex 14.4267 -26.6413 1
      vertex 15.2136 -29.692 0
      vertex 15.2136 -29.692 1
    endloop
  endfacet
  facet normal -0.986401 -0.164356 0
    outer loop
      vertex 15.7756 -33.0649 0
      vertex 15.2136 -29.692 1
      vertex 15.2136 -29.692 0
    endloop
  endfacet
  facet normal -0.986401 -0.164356 0
    outer loop
      vertex 15.2136 -29.692 1
      vertex 15.7756 -33.0649 0
      vertex 15.7756 -33.0649 1
    endloop
  endfacet
  facet normal -0.995862 -0.0908832 0
    outer loop
      vertex 16.1128 -36.7598 0
      vertex 15.7756 -33.0649 1
      vertex 15.7756 -33.0649 0
    endloop
  endfacet
  facet normal -0.995862 -0.0908832 0
    outer loop
      vertex 15.7756 -33.0649 1
      vertex 16.1128 -36.7598 0
      vertex 16.1128 -36.7598 1
    endloop
  endfacet
  facet normal -0.999608 -0.027995 0
    outer loop
      vertex 16.2253 -40.7768 0
      vertex 16.1128 -36.7598 1
      vertex 16.1128 -36.7598 0
    endloop
  endfacet
  facet normal -0.999608 -0.027995 0
    outer loop
      vertex 16.1128 -36.7598 1
      vertex 16.2253 -40.7768 0
      vertex 16.2253 -40.7768 1
    endloop
  endfacet
  facet normal -0.998552 0.0537947 0
    outer loop
      vertex 15.8045 -48.5878 0
      vertex 16.2253 -40.7768 1
      vertex 16.2253 -40.7768 0
    endloop
  endfacet
  facet normal -0.998552 0.0537947 0
    outer loop
      vertex 16.2253 -40.7768 1
      vertex 15.8045 -48.5878 0
      vertex 15.8045 -48.5878 1
    endloop
  endfacet
  facet normal -0.982251 0.187569 0
    outer loop
      vertex 14.5424 -55.1971 0
      vertex 15.8045 -48.5878 1
      vertex 15.8045 -48.5878 0
    endloop
  endfacet
  facet normal -0.982251 0.187569 0
    outer loop
      vertex 15.8045 -48.5878 1
      vertex 14.5424 -55.1971 0
      vertex 14.5424 -55.1971 1
    endloop
  endfacet
  facet normal -0.931969 0.362537 0
    outer loop
      vertex 12.4388 -60.6048 0
      vertex 14.5424 -55.1971 1
      vertex 14.5424 -55.1971 0
    endloop
  endfacet
  facet normal -0.931969 0.362537 0
    outer loop
      vertex 14.5424 -55.1971 1
      vertex 12.4388 -60.6048 0
      vertex 12.4388 -60.6048 1
    endloop
  endfacet
  facet normal -0.819154 0.573573 0
    outer loop
      vertex 9.49382 -64.8107 0
      vertex 12.4388 -60.6048 1
      vertex 12.4388 -60.6048 0
    endloop
  endfacet
  facet normal -0.819154 0.573573 0
    outer loop
      vertex 12.4388 -60.6048 1
      vertex 9.49382 -64.8107 0
      vertex 9.49382 -64.8107 1
    endloop
  endfacet
  facet normal -0.621544 0.783379 0
    outer loop
      vertex 9.49382 -64.8107 0
      vertex 5.7074 -67.8149 1
      vertex 9.49382 -64.8107 1
    endloop
  endfacet
  facet normal -0.621544 0.783379 0
    outer loop
      vertex 5.7074 -67.8149 1
      vertex 9.49382 -64.8107 0
      vertex 5.7074 -67.8149 0
    endloop
  endfacet
  facet normal -0.362932 0.931816 0
    outer loop
      vertex 5.7074 -67.8149 0
      vertex 1.07954 -69.6174 1
      vertex 5.7074 -67.8149 1
    endloop
  endfacet
  facet normal -0.362932 0.931816 0
    outer loop
      vertex 1.07954 -69.6174 1
      vertex 5.7074 -67.8149 0
      vertex 1.07954 -69.6174 0
    endloop
  endfacet
  facet normal -0.109211 0.994019 0
    outer loop
      vertex 1.07954 -69.6174 0
      vertex -4.38972 -70.2183 1
      vertex 1.07954 -69.6174 1
    endloop
  endfacet
  facet normal -0.109211 0.994019 0
    outer loop
      vertex -4.38972 -70.2183 1
      vertex 1.07954 -69.6174 0
      vertex -4.38972 -70.2183 0
    endloop
  endfacet
  facet normal 0 1 -0
    outer loop
      vertex -4.38972 -70.2183 0
      vertex -10.9609 -70.2183 1
      vertex -4.38972 -70.2183 1
    endloop
  endfacet
  facet normal 0 1 0
    outer loop
      vertex -10.9609 -70.2183 1
      vertex -4.38972 -70.2183 0
      vertex -10.9609 -70.2183 0
    endloop
  endfacet
endsolid OpenSCAD_Model
