solid OpenSCAD_Model
  facet normal 0 0 -1
    outer loop
      vertex 18.3513 -42.7747 0
      vertex 40.4483 1.99879 0
      vertex 26.9194 -84.9062 0
    endloop
  endfacet
  facet normal -0 0 -1
    outer loop
      vertex 40.4483 1.99879 0
      vertex 18.3513 -42.7747 0
      vertex 23.7626 1.99879 0
    endloop
  endfacet
  facet normal 0 0 -1
    outer loop
      vertex 26.9194 -84.9062 0
      vertex 18.1726 -44.3194 0
      vertex 18.3513 -42.7747 0
    endloop
  endfacet
  facet normal 0 0 -1
    outer loop
      vertex 26.9194 -84.9062 0
      vertex 18.0043 -46.0824 0
      vertex 18.1726 -44.3194 0
    endloop
  endfacet
  facet normal 0 0 -1
    outer loop
      vertex 26.9194 -84.9062 0
      vertex 17.8466 -48.0637 0
      vertex 18.0043 -46.0824 0
    endloop
  endfacet
  facet normal 0 0 -1
    outer loop
      vertex 26.9194 -84.9062 0
      vertex 17.6993 -50.2632 0
      vertex 17.8466 -48.0637 0
    endloop
  endfacet
  facet normal 0 0 -1
    outer loop
      vertex 26.9194 -84.9062 0
      vertex 17.5626 -52.681 0
      vertex 17.6993 -50.2632 0
    endloop
  endfacet
  facet normal 0 0 -1
    outer loop
      vertex 26.9194 -84.9062 0
      vertex 17.4363 -55.317 0
      vertex 17.5626 -52.681 0
    endloop
  endfacet
  facet normal 0 0 -1
    outer loop
      vertex 26.9194 -84.9062 0
      vertex 17.3206 -58.1713 0
      vertex 17.4363 -55.317 0
    endloop
  endfacet
  facet normal 0 0 -1
    outer loop
      vertex 26.9194 -84.9062 0
      vertex 17.1914 -59.9108 0
      vertex 17.3206 -58.1713 0
    endloop
  endfacet
  facet normal 0 0 -1
    outer loop
      vertex 5.03209 -60.7951 0
      vertex 16.786 -57.9393 0
      vertex 17.1914 -59.9108 0
    endloop
  endfacet
  facet normal -0 0 -1
    outer loop
      vertex 16.786 -57.9393 0
      vertex 5.03209 -60.7951 0
      vertex 16.416 -56.148 0
    endloop
  endfacet
  facet normal 0 0 -1
    outer loop
      vertex 4.17749 -57.3755 0
      vertex 16.416 -56.148 0
      vertex 5.03209 -60.7951 0
    endloop
  endfacet
  facet normal -0 0 -1
    outer loop
      vertex 16.416 -56.148 0
      vertex 4.17749 -57.3755 0
      vertex 16.0814 -54.5368 0
    endloop
  endfacet
  facet normal 0 0 -1
    outer loop
      vertex 3.34923 -53.9795 0
      vertex 15.7823 -53.1057 0
      vertex 4.17749 -57.3755 0
    endloop
  endfacet
  facet normal -0 0 -1
    outer loop
      vertex 15.7823 -53.1057 0
      vertex 3.34923 -53.9795 0
      vertex 15.5186 -51.8547 0
    endloop
  endfacet
  facet normal -0 0 -1
    outer loop
      vertex 15.5186 -51.8547 0
      vertex 3.34923 -53.9795 0
      vertex 15.2904 -50.7838 0
    endloop
  endfacet
  facet normal -0 0 -1
    outer loop
      vertex 15.2904 -50.7838 0
      vertex 3.34923 -53.9795 0
      vertex 15.0976 -49.893 0
    endloop
  endfacet
  facet normal -0 0 -1
    outer loop
      vertex 15.0976 -49.893 0
      vertex 3.34923 -53.9795 0
      vertex 14.9182 -49.0903 0
    endloop
  endfacet
  facet normal 0 0 -1
    outer loop
      vertex 2.54729 -50.6072 0
      vertex 14.9182 -49.0903 0
      vertex 3.34923 -53.9795 0
    endloop
  endfacet
  facet normal -0 0 -1
    outer loop
      vertex 14.9182 -49.0903 0
      vertex 2.54729 -50.6072 0
      vertex 14.7296 -48.2837 0
    endloop
  endfacet
  facet normal -0 0 -1
    outer loop
      vertex 14.5318 -47.4731 0
      vertex 2.54729 -50.6072 0
      vertex 14.3249 -46.6585 0
    endloop
  endfacet
  facet normal -0 0 -1
    outer loop
      vertex 14.3249 -46.6585 0
      vertex 2.54729 -50.6072 0
      vertex 14.1087 -45.84 0
    endloop
  endfacet
  facet normal 0 0 -1
    outer loop
      vertex 6.82025 -67.7055 0
      vertex 26.9194 -84.9062 0
      vertex 10.9433 -84.9062 0
    endloop
  endfacet
  facet normal 0 0 -1
    outer loop
      vertex 26.9194 -84.9062 0
      vertex 6.82025 -67.7055 0
      vertex 17.1914 -59.9108 0
    endloop
  endfacet
  facet normal 0 0 -1
    outer loop
      vertex 5.91301 -64.2385 0
      vertex 17.1914 -59.9108 0
      vertex 6.82025 -67.7055 0
    endloop
  endfacet
  facet normal 0 0 -1
    outer loop
      vertex 5.03209 -60.7951 0
      vertex 17.1914 -59.9108 0
      vertex 5.91301 -64.2385 0
    endloop
  endfacet
  facet normal -0 0 -1
    outer loop
      vertex 16.0814 -54.5368 0
      vertex 4.17749 -57.3755 0
      vertex 15.7823 -53.1057 0
    endloop
  endfacet
  facet normal -0 0 -1
    outer loop
      vertex 14.7296 -48.2837 0
      vertex 2.54729 -50.6072 0
      vertex 14.5318 -47.4731 0
    endloop
  endfacet
  facet normal 0 0 -1
    outer loop
      vertex 1.77168 -47.2586 0
      vertex 14.1087 -45.84 0
      vertex 2.54729 -50.6072 0
    endloop
  endfacet
  facet normal -0 0 -1
    outer loop
      vertex 14.1087 -45.84 0
      vertex 1.77168 -47.2586 0
      vertex 13.8834 -45.0176 0
    endloop
  endfacet
  facet normal -0 0 -1
    outer loop
      vertex 13.8834 -45.0176 0
      vertex 1.77168 -47.2586 0
      vertex 13.6488 -44.1911 0
    endloop
  endfacet
  facet normal 0 0 -1
    outer loop
      vertex 1.0224 -43.9337 0
      vertex 13.6488 -44.1911 0
      vertex 1.77168 -47.2586 0
    endloop
  endfacet
  facet normal 0 0 -1
    outer loop
      vertex 13.6488 -44.1911 0
      vertex 1.0224 -43.9337 0
      vertex 7.27055 -22.3525 0
    endloop
  endfacet
  facet normal 0 0 -1
    outer loop
      vertex -14.246 -55.0145 0
      vertex -1.23288 -53.4042 0
      vertex -4.06769 -64.8061 0
    endloop
  endfacet
  facet normal 0 0 -1
    outer loop
      vertex 1.0224 -43.9337 0
      vertex -5.29128 -22.3525 0
      vertex 7.27055 -22.3525 0
    endloop
  endfacet
  facet normal 0 -0 -1
    outer loop
      vertex -11.6696 -44.1911 0
      vertex -1.23288 -53.4042 0
      vertex -14.246 -55.0145 0
    endloop
  endfacet
  facet normal 0 0 -1
    outer loop
      vertex -15.2121 -59.9108 0
      vertex -4.06769 -64.8061 0
      vertex -9.09222 -84.9062 0
    endloop
  endfacet
  facet normal -0 0 -1
    outer loop
      vertex 1.0224 -43.9337 0
      vertex -11.6696 -44.1911 0
      vertex -5.29128 -22.3525 0
    endloop
  endfacet
  facet normal 0 0 -1
    outer loop
      vertex -1.23288 -53.4042 0
      vertex -11.6696 -44.1911 0
      vertex 1.0224 -43.9337 0
    endloop
  endfacet
  facet normal 0 0 -1
    outer loop
      vertex -4.06769 -64.8061 0
      vertex -15.2121 -59.9108 0
      vertex -14.246 -55.0145 0
    endloop
  endfacet
  facet normal 0 0 -1
    outer loop
      vertex -25.0693 -84.9062 0
      vertex -15.2962 -56.8791 0
      vertex -15.2121 -59.9108 0
    endloop
  endfacet
  facet normal -0 0 -1
    outer loop
      vertex -15.2962 -56.8791 0
      vertex -25.0693 -84.9062 0
      vertex -15.4014 -54.0419 0
    endloop
  endfacet
  facet normal -0 0 -1
    outer loop
      vertex -15.4014 -54.0419 0
      vertex -25.0693 -84.9062 0
      vertex -15.5276 -51.3993 0
    endloop
  endfacet
  facet normal -0 0 -1
    outer loop
      vertex -15.5276 -51.3993 0
      vertex -25.0693 -84.9062 0
      vertex -15.6748 -48.9513 0
    endloop
  endfacet
  facet normal -0 0 -1
    outer loop
      vertex -15.6748 -48.9513 0
      vertex -25.0693 -84.9062 0
      vertex -15.8431 -46.6978 0
    endloop
  endfacet
  facet normal -0 0 -1
    outer loop
      vertex -15.8431 -46.6978 0
      vertex -25.0693 -84.9062 0
      vertex -16.0325 -44.639 0
    endloop
  endfacet
  facet normal -0 0 -1
    outer loop
      vertex -16.0325 -44.639 0
      vertex -25.0693 -84.9062 0
      vertex -16.2429 -42.7747 0
    endloop
  endfacet
  facet normal 0 0 -1
    outer loop
      vertex -25.0693 -84.9062 0
      vertex -15.2121 -59.9108 0
      vertex -9.09222 -84.9062 0
    endloop
  endfacet
  facet normal -0 0 -1
    outer loop
      vertex -16.2429 -42.7747 0
      vertex -25.0693 -84.9062 0
      vertex -38.6619 1.99879 0
    endloop
  endfacet
  facet normal 0 0 -1
    outer loop
      vertex -16.2429 -42.7747 0
      vertex -38.6619 1.99879 0
      vertex -21.9771 1.99879 0
    endloop
  endfacet
  facet normal 0 0 1
    outer loop
      vertex 18.3513 -42.7747 1
      vertex 40.4483 1.99879 1
      vertex 23.7626 1.99879 1
    endloop
  endfacet
  facet normal 0 0 1
    outer loop
      vertex 40.4483 1.99879 1
      vertex 18.3513 -42.7747 1
      vertex 26.9194 -84.9062 1
    endloop
  endfacet
  facet normal -0 0 1
    outer loop
      vertex 18.1726 -44.3194 1
      vertex 26.9194 -84.9062 1
      vertex 18.3513 -42.7747 1
    endloop
  endfacet
  facet normal -0 0 1
    outer loop
      vertex 18.0043 -46.0824 1
      vertex 26.9194 -84.9062 1
      vertex 18.1726 -44.3194 1
    endloop
  endfacet
  facet normal -0 0 1
    outer loop
      vertex 17.8466 -48.0637 1
      vertex 26.9194 -84.9062 1
      vertex 18.0043 -46.0824 1
    endloop
  endfacet
  facet normal -0 0 1
    outer loop
      vertex 17.6993 -50.2632 1
      vertex 26.9194 -84.9062 1
      vertex 17.8466 -48.0637 1
    endloop
  endfacet
  facet normal -0 0 1
    outer loop
      vertex 17.5626 -52.681 1
      vertex 26.9194 -84.9062 1
      vertex 17.6993 -50.2632 1
    endloop
  endfacet
  facet normal -0 0 1
    outer loop
      vertex 17.4363 -55.317 1
      vertex 26.9194 -84.9062 1
      vertex 17.5626 -52.681 1
    endloop
  endfacet
  facet normal -0 0 1
    outer loop
      vertex 17.3206 -58.1713 1
      vertex 26.9194 -84.9062 1
      vertex 17.4363 -55.317 1
    endloop
  endfacet
  facet normal -0 0 1
    outer loop
      vertex 17.1914 -59.9108 1
      vertex 26.9194 -84.9062 1
      vertex 17.3206 -58.1713 1
    endloop
  endfacet
  facet normal 0 0 1
    outer loop
      vertex 5.03209 -60.7951 1
      vertex 16.786 -57.9393 1
      vertex 16.416 -56.148 1
    endloop
  endfacet
  facet normal 0 0 1
    outer loop
      vertex 4.17749 -57.3755 1
      vertex 16.416 -56.148 1
      vertex 16.0814 -54.5368 1
    endloop
  endfacet
  facet normal 0 0 1
    outer loop
      vertex 4.17749 -57.3755 1
      vertex 16.0814 -54.5368 1
      vertex 15.7823 -53.1057 1
    endloop
  endfacet
  facet normal 0 0 1
    outer loop
      vertex 3.34923 -53.9795 1
      vertex 15.7823 -53.1057 1
      vertex 15.5186 -51.8547 1
    endloop
  endfacet
  facet normal 0 0 1
    outer loop
      vertex 3.34923 -53.9795 1
      vertex 15.5186 -51.8547 1
      vertex 15.2904 -50.7838 1
    endloop
  endfacet
  facet normal 0 0 1
    outer loop
      vertex 3.34923 -53.9795 1
      vertex 15.2904 -50.7838 1
      vertex 15.0976 -49.893 1
    endloop
  endfacet
  facet normal 0 0 1
    outer loop
      vertex 3.34923 -53.9795 1
      vertex 15.0976 -49.893 1
      vertex 14.9182 -49.0903 1
    endloop
  endfacet
  facet normal 0 0 1
    outer loop
      vertex 2.54729 -50.6072 1
      vertex 14.9182 -49.0903 1
      vertex 14.7296 -48.2837 1
    endloop
  endfacet
  facet normal 0 0 1
    outer loop
      vertex 2.54729 -50.6072 1
      vertex 14.7296 -48.2837 1
      vertex 14.5318 -47.4731 1
    endloop
  endfacet
  facet normal 0 0 1
    outer loop
      vertex 2.54729 -50.6072 1
      vertex 14.5318 -47.4731 1
      vertex 14.3249 -46.6585 1
    endloop
  endfacet
  facet normal 0 0 1
    outer loop
      vertex 2.54729 -50.6072 1
      vertex 14.3249 -46.6585 1
      vertex 14.1087 -45.84 1
    endloop
  endfacet
  facet normal 0 0 1
    outer loop
      vertex 1.77168 -47.2586 1
      vertex 14.1087 -45.84 1
      vertex 13.8834 -45.0176 1
    endloop
  endfacet
  facet normal 0 0 1
    outer loop
      vertex 1.77168 -47.2586 1
      vertex 13.8834 -45.0176 1
      vertex 13.6488 -44.1911 1
    endloop
  endfacet
  facet normal -0 0 1
    outer loop
      vertex 6.82025 -67.7055 1
      vertex 26.9194 -84.9062 1
      vertex 17.1914 -59.9108 1
    endloop
  endfacet
  facet normal 0 0 1
    outer loop
      vertex 15.7823 -53.1057 1
      vertex 3.34923 -53.9795 1
      vertex 4.17749 -57.3755 1
    endloop
  endfacet
  facet normal -0 0 1
    outer loop
      vertex 1.0224 -43.9337 1
      vertex 13.6488 -44.1911 1
      vertex 7.27055 -22.3525 1
    endloop
  endfacet
  facet normal 0 0 1
    outer loop
      vertex 26.9194 -84.9062 1
      vertex 6.82025 -67.7055 1
      vertex 10.9433 -84.9062 1
    endloop
  endfacet
  facet normal 0 0 1
    outer loop
      vertex 17.1914 -59.9108 1
      vertex 5.91301 -64.2385 1
      vertex 6.82025 -67.7055 1
    endloop
  endfacet
  facet normal 0 0 1
    outer loop
      vertex 17.1914 -59.9108 1
      vertex 5.03209 -60.7951 1
      vertex 5.91301 -64.2385 1
    endloop
  endfacet
  facet normal 0 0 1
    outer loop
      vertex 16.786 -57.9393 1
      vertex 5.03209 -60.7951 1
      vertex 17.1914 -59.9108 1
    endloop
  endfacet
  facet normal 0 0 1
    outer loop
      vertex 16.416 -56.148 1
      vertex 4.17749 -57.3755 1
      vertex 5.03209 -60.7951 1
    endloop
  endfacet
  facet normal 0 0 1
    outer loop
      vertex 14.9182 -49.0903 1
      vertex 2.54729 -50.6072 1
      vertex 3.34923 -53.9795 1
    endloop
  endfacet
  facet normal 0 0 1
    outer loop
      vertex 14.1087 -45.84 1
      vertex 1.77168 -47.2586 1
      vertex 2.54729 -50.6072 1
    endloop
  endfacet
  facet normal 0 0 1
    outer loop
      vertex 13.6488 -44.1911 1
      vertex 1.0224 -43.9337 1
      vertex 1.77168 -47.2586 1
    endloop
  endfacet
  facet normal -0 0 1
    outer loop
      vertex -11.6696 -44.1911 1
      vertex -1.23288 -53.4042 1
      vertex 1.0224 -43.9337 1
    endloop
  endfacet
  facet normal -0 0 1
    outer loop
      vertex -5.29128 -22.3525 1
      vertex 1.0224 -43.9337 1
      vertex 7.27055 -22.3525 1
    endloop
  endfacet
  facet normal 0 0 1
    outer loop
      vertex -11.6696 -44.1911 1
      vertex 1.0224 -43.9337 1
      vertex -5.29128 -22.3525 1
    endloop
  endfacet
  facet normal 0 0 1
    outer loop
      vertex -1.23288 -53.4042 1
      vertex -11.6696 -44.1911 1
      vertex -14.246 -55.0145 1
    endloop
  endfacet
  facet normal 0 0 1
    outer loop
      vertex -1.23288 -53.4042 1
      vertex -14.246 -55.0145 1
      vertex -4.06769 -64.8061 1
    endloop
  endfacet
  facet normal -0 0 1
    outer loop
      vertex -15.2121 -59.9108 1
      vertex -4.06769 -64.8061 1
      vertex -14.246 -55.0145 1
    endloop
  endfacet
  facet normal 0 0 1
    outer loop
      vertex -4.06769 -64.8061 1
      vertex -15.2121 -59.9108 1
      vertex -9.09222 -84.9062 1
    endloop
  endfacet
  facet normal 0 0 1
    outer loop
      vertex -25.0693 -84.9062 1
      vertex -15.2962 -56.8791 1
      vertex -15.4014 -54.0419 1
    endloop
  endfacet
  facet normal 0 0 1
    outer loop
      vertex -25.0693 -84.9062 1
      vertex -15.4014 -54.0419 1
      vertex -15.5276 -51.3993 1
    endloop
  endfacet
  facet normal 0 0 1
    outer loop
      vertex -25.0693 -84.9062 1
      vertex -15.5276 -51.3993 1
      vertex -15.6748 -48.9513 1
    endloop
  endfacet
  facet normal 0 0 1
    outer loop
      vertex -25.0693 -84.9062 1
      vertex -15.6748 -48.9513 1
      vertex -15.8431 -46.6978 1
    endloop
  endfacet
  facet normal 0 0 1
    outer loop
      vertex -25.0693 -84.9062 1
      vertex -15.8431 -46.6978 1
      vertex -16.0325 -44.639 1
    endloop
  endfacet
  facet normal 0 0 1
    outer loop
      vertex -25.0693 -84.9062 1
      vertex -16.0325 -44.639 1
      vertex -16.2429 -42.7747 1
    endloop
  endfacet
  facet normal -0 0 1
    outer loop
      vertex -38.6619 1.99879 1
      vertex -16.2429 -42.7747 1
      vertex -21.9771 1.99879 1
    endloop
  endfacet
  facet normal 0 0 1
    outer loop
      vertex -15.2121 -59.9108 1
      vertex -25.0693 -84.9062 1
      vertex -9.09222 -84.9062 1
    endloop
  endfacet
  facet normal 0 -0 1
    outer loop
      vertex -25.0693 -84.9062 1
      vertex -16.2429 -42.7747 1
      vertex -38.6619 1.99879 1
    endloop
  endfacet
  facet normal 0 0 1
    outer loop
      vertex -15.2962 -56.8791 1
      vertex -25.0693 -84.9062 1
      vertex -15.2121 -59.9108 1
    endloop
  endfacet
  facet normal 0.970455 -0.241281 0
    outer loop
      vertex -4.06769 -64.8061 1
      vertex -1.23288 -53.4042 0
      vertex -1.23288 -53.4042 1
    endloop
  endfacet
  facet normal 0.970455 -0.241281 0
    outer loop
      vertex -1.23288 -53.4042 0
      vertex -4.06769 -64.8061 1
      vertex -4.06769 -64.8061 0
    endloop
  endfacet
  facet normal 0.972797 -0.231659 0
    outer loop
      vertex -1.23288 -53.4042 1
      vertex 1.0224 -43.9337 0
      vertex 1.0224 -43.9337 1
    endloop
  endfacet
  facet normal 0.972797 -0.231659 0
    outer loop
      vertex 1.0224 -43.9337 0
      vertex -1.23288 -53.4042 1
      vertex -1.23288 -53.4042 0
    endloop
  endfacet
  facet normal -0.975536 -0.219841 0
    outer loop
      vertex 1.77168 -47.2586 0
      vertex 1.0224 -43.9337 1
      vertex 1.0224 -43.9337 0
    endloop
  endfacet
  facet normal -0.975536 -0.219841 0
    outer loop
      vertex 1.0224 -43.9337 1
      vertex 1.77168 -47.2586 0
      vertex 1.77168 -47.2586 1
    endloop
  endfacet
  facet normal -0.974209 -0.225648 0
    outer loop
      vertex 2.54729 -50.6072 0
      vertex 1.77168 -47.2586 1
      vertex 1.77168 -47.2586 0
    endloop
  endfacet
  facet normal -0.974209 -0.225648 0
    outer loop
      vertex 1.77168 -47.2586 1
      vertex 2.54729 -50.6072 0
      vertex 2.54729 -50.6072 1
    endloop
  endfacet
  facet normal -0.97287 -0.231351 0
    outer loop
      vertex 3.34923 -53.9795 0
      vertex 2.54729 -50.6072 1
      vertex 2.54729 -50.6072 0
    endloop
  endfacet
  facet normal -0.97287 -0.231351 0
    outer loop
      vertex 2.54729 -50.6072 1
      vertex 3.34923 -53.9795 0
      vertex 3.34923 -53.9795 1
    endloop
  endfacet
  facet normal -0.971522 -0.236947 0
    outer loop
      vertex 4.17749 -57.3755 0
      vertex 3.34923 -53.9795 1
      vertex 3.34923 -53.9795 0
    endloop
  endfacet
  facet normal -0.971522 -0.236947 0
    outer loop
      vertex 3.34923 -53.9795 1
      vertex 4.17749 -57.3755 0
      vertex 4.17749 -57.3755 1
    endloop
  endfacet
  facet normal -0.970163 -0.242456 0
    outer loop
      vertex 5.03209 -60.7951 0
      vertex 4.17749 -57.3755 1
      vertex 4.17749 -57.3755 0
    endloop
  endfacet
  facet normal -0.970163 -0.242456 0
    outer loop
      vertex 4.17749 -57.3755 1
      vertex 5.03209 -60.7951 0
      vertex 5.03209 -60.7951 1
    endloop
  endfacet
  facet normal -0.968799 -0.247847 0
    outer loop
      vertex 5.91301 -64.2385 0
      vertex 5.03209 -60.7951 1
      vertex 5.03209 -60.7951 0
    endloop
  endfacet
  facet normal -0.968799 -0.247847 0
    outer loop
      vertex 5.03209 -60.7951 1
      vertex 5.91301 -64.2385 0
      vertex 5.91301 -64.2385 1
    endloop
  endfacet
  facet normal -0.967426 -0.253155 0
    outer loop
      vertex 6.82025 -67.7055 0
      vertex 5.91301 -64.2385 1
      vertex 5.91301 -64.2385 0
    endloop
  endfacet
  facet normal -0.967426 -0.253155 0
    outer loop
      vertex 5.91301 -64.2385 1
      vertex 6.82025 -67.7055 0
      vertex 6.82025 -67.7055 1
    endloop
  endfacet
  facet normal -0.972453 -0.233099 0
    outer loop
      vertex 10.9433 -84.9062 0
      vertex 6.82025 -67.7055 1
      vertex 6.82025 -67.7055 0
    endloop
  endfacet
  facet normal -0.972453 -0.233099 0
    outer loop
      vertex 6.82025 -67.7055 1
      vertex 10.9433 -84.9062 0
      vertex 10.9433 -84.9062 1
    endloop
  endfacet
  facet normal 0 -1 0
    outer loop
      vertex 10.9433 -84.9062 0
      vertex 26.9194 -84.9062 1
      vertex 10.9433 -84.9062 1
    endloop
  endfacet
  facet normal 0 -1 -0
    outer loop
      vertex 26.9194 -84.9062 1
      vertex 10.9433 -84.9062 0
      vertex 26.9194 -84.9062 0
    endloop
  endfacet
  facet normal 0.988099 -0.153822 0
    outer loop
      vertex 26.9194 -84.9062 1
      vertex 40.4483 1.99879 0
      vertex 40.4483 1.99879 1
    endloop
  endfacet
  facet normal 0.988099 -0.153822 0
    outer loop
      vertex 40.4483 1.99879 0
      vertex 26.9194 -84.9062 1
      vertex 26.9194 -84.9062 0
    endloop
  endfacet
  facet normal 0 1 -0
    outer loop
      vertex 40.4483 1.99879 0
      vertex 23.7626 1.99879 1
      vertex 40.4483 1.99879 1
    endloop
  endfacet
  facet normal 0 1 0
    outer loop
      vertex 23.7626 1.99879 1
      vertex 40.4483 1.99879 0
      vertex 23.7626 1.99879 0
    endloop
  endfacet
  facet normal -0.992776 0.119986 0
    outer loop
      vertex 18.3513 -42.7747 0
      vertex 23.7626 1.99879 1
      vertex 23.7626 1.99879 0
    endloop
  endfacet
  facet normal -0.992776 0.119986 0
    outer loop
      vertex 23.7626 1.99879 1
      vertex 18.3513 -42.7747 0
      vertex 18.3513 -42.7747 1
    endloop
  endfacet
  facet normal -0.993375 0.114919 0
    outer loop
      vertex 18.1726 -44.3194 0
      vertex 18.3513 -42.7747 1
      vertex 18.3513 -42.7747 0
    endloop
  endfacet
  facet normal -0.993375 0.114919 0
    outer loop
      vertex 18.3513 -42.7747 1
      vertex 18.1726 -44.3194 0
      vertex 18.1726 -44.3194 1
    endloop
  endfacet
  facet normal -0.995474 0.0950303 0
    outer loop
      vertex 18.0043 -46.0824 0
      vertex 18.1726 -44.3194 1
      vertex 18.1726 -44.3194 0
    endloop
  endfacet
  facet normal -0.995474 0.0950303 0
    outer loop
      vertex 18.1726 -44.3194 1
      vertex 18.0043 -46.0824 0
      vertex 18.0043 -46.0824 1
    endloop
  endfacet
  facet normal -0.996847 0.0793433 0
    outer loop
      vertex 17.8466 -48.0637 0
      vertex 18.0043 -46.0824 1
      vertex 18.0043 -46.0824 0
    endloop
  endfacet
  facet normal -0.996847 0.0793433 0
    outer loop
      vertex 18.0043 -46.0824 1
      vertex 17.8466 -48.0637 0
      vertex 17.8466 -48.0637 1
    endloop
  endfacet
  facet normal -0.997765 0.0668201 0
    outer loop
      vertex 17.6993 -50.2632 0
      vertex 17.8466 -48.0637 1
      vertex 17.8466 -48.0637 0
    endloop
  endfacet
  facet normal -0.997765 0.0668201 0
    outer loop
      vertex 17.8466 -48.0637 1
      vertex 17.6993 -50.2632 0
      vertex 17.6993 -50.2632 1
    endloop
  endfacet
  facet normal -0.998405 0.0564489 0
    outer loop
      vertex 17.5626 -52.681 0
      vertex 17.6993 -50.2632 1
      vertex 17.6993 -50.2632 0
    endloop
  endfacet
  facet normal -0.998405 0.0564489 0
    outer loop
      vertex 17.6993 -50.2632 1
      vertex 17.5626 -52.681 0
      vertex 17.5626 -52.681 1
    endloop
  endfacet
  facet normal -0.998854 0.0478586 0
    outer loop
      vertex 17.4363 -55.317 0
      vertex 17.5626 -52.681 1
      vertex 17.5626 -52.681 0
    endloop
  endfacet
  facet normal -0.998854 0.0478586 0
    outer loop
      vertex 17.5626 -52.681 1
      vertex 17.4363 -55.317 0
      vertex 17.4363 -55.317 1
    endloop
  endfacet
  facet normal -0.999179 0.0405021 0
    outer loop
      vertex 17.3206 -58.1713 0
      vertex 17.4363 -55.317 1
      vertex 17.4363 -55.317 0
    endloop
  endfacet
  facet normal -0.999179 0.0405021 0
    outer loop
      vertex 17.4363 -55.317 1
      vertex 17.3206 -58.1713 0
      vertex 17.3206 -58.1713 1
    endloop
  endfacet
  facet normal -0.997253 0.0740702 0
    outer loop
      vertex 17.1914 -59.9108 0
      vertex 17.3206 -58.1713 1
      vertex 17.3206 -58.1713 0
    endloop
  endfacet
  facet normal -0.997253 0.0740702 0
    outer loop
      vertex 17.3206 -58.1713 1
      vertex 17.1914 -59.9108 0
      vertex 17.1914 -59.9108 1
    endloop
  endfacet
  facet normal 0.979506 0.201416 0
    outer loop
      vertex 17.1914 -59.9108 1
      vertex 16.786 -57.9393 0
      vertex 16.786 -57.9393 1
    endloop
  endfacet
  facet normal 0.979506 0.201416 0
    outer loop
      vertex 16.786 -57.9393 0
      vertex 17.1914 -59.9108 1
      vertex 17.1914 -59.9108 0
    endloop
  endfacet
  facet normal 0.979327 0.202284 0
    outer loop
      vertex 16.786 -57.9393 1
      vertex 16.416 -56.148 0
      vertex 16.416 -56.148 1
    endloop
  endfacet
  facet normal 0.979327 0.202284 0
    outer loop
      vertex 16.416 -56.148 0
      vertex 16.786 -57.9393 1
      vertex 16.786 -57.9393 0
    endloop
  endfacet
  facet normal 0.97911 0.203333 0
    outer loop
      vertex 16.416 -56.148 1
      vertex 16.0814 -54.5368 0
      vertex 16.0814 -54.5368 1
    endloop
  endfacet
  facet normal 0.97911 0.203333 0
    outer loop
      vertex 16.0814 -54.5368 0
      vertex 16.416 -56.148 1
      vertex 16.416 -56.148 0
    endloop
  endfacet
  facet normal 0.97885 0.20458 0
    outer loop
      vertex 16.0814 -54.5368 1
      vertex 15.7823 -53.1057 0
      vertex 15.7823 -53.1057 1
    endloop
  endfacet
  facet normal 0.97885 0.20458 0
    outer loop
      vertex 15.7823 -53.1057 0
      vertex 16.0814 -54.5368 1
      vertex 16.0814 -54.5368 0
    endloop
  endfacet
  facet normal 0.978497 0.206259 0
    outer loop
      vertex 15.7823 -53.1057 1
      vertex 15.5186 -51.8547 0
      vertex 15.5186 -51.8547 1
    endloop
  endfacet
  facet normal 0.978497 0.206259 0
    outer loop
      vertex 15.5186 -51.8547 0
      vertex 15.7823 -53.1057 1
      vertex 15.7823 -53.1057 0
    endloop
  endfacet
  facet normal 0.978041 0.208413 0
    outer loop
      vertex 15.5186 -51.8547 1
      vertex 15.2904 -50.7838 0
      vertex 15.2904 -50.7838 1
    endloop
  endfacet
  facet normal 0.978041 0.208413 0
    outer loop
      vertex 15.2904 -50.7838 0
      vertex 15.5186 -51.8547 1
      vertex 15.5186 -51.8547 0
    endloop
  endfacet
  facet normal 0.97737 0.211537 0
    outer loop
      vertex 15.2904 -50.7838 1
      vertex 15.0976 -49.893 0
      vertex 15.0976 -49.893 1
    endloop
  endfacet
  facet normal 0.97737 0.211537 0
    outer loop
      vertex 15.0976 -49.893 0
      vertex 15.2904 -50.7838 1
      vertex 15.2904 -50.7838 0
    endloop
  endfacet
  facet normal 0.975923 0.218115 0
    outer loop
      vertex 15.0976 -49.893 1
      vertex 14.9182 -49.0903 0
      vertex 14.9182 -49.0903 1
    endloop
  endfacet
  facet normal 0.975923 0.218115 0
    outer loop
      vertex 14.9182 -49.0903 0
      vertex 15.0976 -49.893 1
      vertex 15.0976 -49.893 0
    endloop
  endfacet
  facet normal 0.973736 0.22768 0
    outer loop
      vertex 14.9182 -49.0903 1
      vertex 14.7296 -48.2837 0
      vertex 14.7296 -48.2837 1
    endloop
  endfacet
  facet normal 0.973736 0.22768 0
    outer loop
      vertex 14.7296 -48.2837 0
      vertex 14.9182 -49.0903 1
      vertex 14.9182 -49.0903 0
    endloop
  endfacet
  facet normal 0.971495 0.237061 0
    outer loop
      vertex 14.7296 -48.2837 1
      vertex 14.5318 -47.4731 0
      vertex 14.5318 -47.4731 1
    endloop
  endfacet
  facet normal 0.971495 0.237061 0
    outer loop
      vertex 14.5318 -47.4731 0
      vertex 14.7296 -48.2837 1
      vertex 14.7296 -48.2837 0
    endloop
  endfacet
  facet normal 0.969226 0.246173 0
    outer loop
      vertex 14.5318 -47.4731 1
      vertex 14.3249 -46.6585 0
      vertex 14.3249 -46.6585 1
    endloop
  endfacet
  facet normal 0.969226 0.246173 0
    outer loop
      vertex 14.3249 -46.6585 0
      vertex 14.5318 -47.4731 1
      vertex 14.5318 -47.4731 0
    endloop
  endfacet
  facet normal 0.96684 0.255383 0
    outer loop
      vertex 14.3249 -46.6585 1
      vertex 14.1087 -45.84 0
      vertex 14.1087 -45.84 1
    endloop
  endfacet
  facet normal 0.96684 0.255383 0
    outer loop
      vertex 14.1087 -45.84 0
      vertex 14.3249 -46.6585 1
      vertex 14.3249 -46.6585 0
    endloop
  endfacet
  facet normal 0.964463 0.264219 0
    outer loop
      vertex 14.1087 -45.84 1
      vertex 13.8834 -45.0176 0
      vertex 13.8834 -45.0176 1
    endloop
  endfacet
  facet normal 0.964463 0.264219 0
    outer loop
      vertex 13.8834 -45.0176 0
      vertex 14.1087 -45.84 1
      vertex 14.1087 -45.84 0
    endloop
  endfacet
  facet normal 0.961997 0.27306 0
    outer loop
      vertex 13.8834 -45.0176 1
      vertex 13.6488 -44.1911 0
      vertex 13.6488 -44.1911 1
    endloop
  endfacet
  facet normal 0.961997 0.27306 0
    outer loop
      vertex 13.6488 -44.1911 0
      vertex 13.8834 -45.0176 1
      vertex 13.8834 -45.0176 0
    endloop
  endfacet
  facet normal 0.959898 0.280351 0
    outer loop
      vertex 13.6488 -44.1911 1
      vertex 7.27055 -22.3525 0
      vertex 7.27055 -22.3525 1
    endloop
  endfacet
  facet normal 0.959898 0.280351 0
    outer loop
      vertex 7.27055 -22.3525 0
      vertex 13.6488 -44.1911 1
      vertex 13.6488 -44.1911 0
    endloop
  endfacet
  facet normal 0 1 -0
    outer loop
      vertex 7.27055 -22.3525 0
      vertex -5.29128 -22.3525 1
      vertex 7.27055 -22.3525 1
    endloop
  endfacet
  facet normal 0 1 0
    outer loop
      vertex -5.29128 -22.3525 1
      vertex 7.27055 -22.3525 0
      vertex -5.29128 -22.3525 0
    endloop
  endfacet
  facet normal -0.959897 0.280354 0
    outer loop
      vertex -11.6696 -44.1911 0
      vertex -5.29128 -22.3525 1
      vertex -5.29128 -22.3525 0
    endloop
  endfacet
  facet normal -0.959897 0.280354 0
    outer loop
      vertex -5.29128 -22.3525 1
      vertex -11.6696 -44.1911 0
      vertex -11.6696 -44.1911 1
    endloop
  endfacet
  facet normal -0.972818 0.231569 0
    outer loop
      vertex -14.246 -55.0145 0
      vertex -11.6696 -44.1911 1
      vertex -11.6696 -44.1911 0
    endloop
  endfacet
  facet normal -0.972818 0.231569 0
    outer loop
      vertex -11.6696 -44.1911 1
      vertex -14.246 -55.0145 0
      vertex -14.246 -55.0145 1
    endloop
  endfacet
  facet normal -0.981084 0.19358 0
    outer loop
      vertex -15.2121 -59.9108 0
      vertex -14.246 -55.0145 1
      vertex -14.246 -55.0145 0
    endloop
  endfacet
  facet normal -0.981084 0.19358 0
    outer loop
      vertex -14.246 -55.0145 1
      vertex -15.2121 -59.9108 0
      vertex -15.2121 -59.9108 1
    endloop
  endfacet
  facet normal 0.999615 0.0277295 0
    outer loop
      vertex -15.2121 -59.9108 1
      vertex -15.2962 -56.8791 0
      vertex -15.2962 -56.8791 1
    endloop
  endfacet
  facet normal 0.999615 0.0277295 0
    outer loop
      vertex -15.2962 -56.8791 0
      vertex -15.2121 -59.9108 1
      vertex -15.2121 -59.9108 0
    endloop
  endfacet
  facet normal 0.999313 0.0370533 0
    outer loop
      vertex -15.2962 -56.8791 1
      vertex -15.4014 -54.0419 0
      vertex -15.4014 -54.0419 1
    endloop
  endfacet
  facet normal 0.999313 0.0370533 0
    outer loop
      vertex -15.4014 -54.0419 0
      vertex -15.2962 -56.8791 1
      vertex -15.2962 -56.8791 0
    endloop
  endfacet
  facet normal 0.998862 0.0477016 0
    outer loop
      vertex -15.4014 -54.0419 1
      vertex -15.5276 -51.3993 0
      vertex -15.5276 -51.3993 1
    endloop
  endfacet
  facet normal 0.998862 0.0477016 0
    outer loop
      vertex -15.5276 -51.3993 0
      vertex -15.4014 -54.0419 1
      vertex -15.4014 -54.0419 0
    endloop
  endfacet
  facet normal 0.998197 0.0600223 0
    outer loop
      vertex -15.5276 -51.3993 1
      vertex -15.6748 -48.9513 0
      vertex -15.6748 -48.9513 1
    endloop
  endfacet
  facet normal 0.998197 0.0600223 0
    outer loop
      vertex -15.6748 -48.9513 0
      vertex -15.5276 -51.3993 1
      vertex -15.5276 -51.3993 0
    endloop
  endfacet
  facet normal 0.997223 0.0744764 0
    outer loop
      vertex -15.6748 -48.9513 1
      vertex -15.8431 -46.6978 0
      vertex -15.8431 -46.6978 1
    endloop
  endfacet
  facet normal 0.997223 0.0744764 0
    outer loop
      vertex -15.8431 -46.6978 0
      vertex -15.6748 -48.9513 1
      vertex -15.6748 -48.9513 0
    endloop
  endfacet
  facet normal 0.995795 0.0916085 0
    outer loop
      vertex -15.8431 -46.6978 1
      vertex -16.0325 -44.639 0
      vertex -16.0325 -44.639 1
    endloop
  endfacet
  facet normal 0.995795 0.0916085 0
    outer loop
      vertex -16.0325 -44.639 0
      vertex -15.8431 -46.6978 1
      vertex -15.8431 -46.6978 0
    endloop
  endfacet
  facet normal 0.993692 0.112145 0
    outer loop
      vertex -16.0325 -44.639 1
      vertex -16.2429 -42.7747 0
      vertex -16.2429 -42.7747 1
    endloop
  endfacet
  facet normal 0.993692 0.112145 0
    outer loop
      vertex -16.2429 -42.7747 0
      vertex -16.0325 -44.639 1
      vertex -16.0325 -44.639 0
    endloop
  endfacet
  facet normal 0.991898 0.127034 0
    outer loop
      vertex -16.2429 -42.7747 1
      vertex -21.9771 1.99879 0
      vertex -21.9771 1.99879 1
    endloop
  endfacet
  facet normal 0.991898 0.127034 0
    outer loop
      vertex -21.9771 1.99879 0
      vertex -16.2429 -42.7747 1
      vertex -16.2429 -42.7747 0
    endloop
  endfacet
  facet normal 0 1 -0
    outer loop
      vertex -21.9771 1.99879 0
      vertex -38.6619 1.99879 1
      vertex -21.9771 1.99879 1
    endloop
  endfacet
  facet normal 0 1 0
    outer loop
      vertex -38.6619 1.99879 1
      vertex -21.9771 1.99879 0
      vertex -38.6619 1.99879 0
    endloop
  endfacet
  facet normal -0.987988 -0.154529 0
    outer loop
      vertex -25.0693 -84.9062 0
      vertex -38.6619 1.99879 1
      vertex -38.6619 1.99879 0
    endloop
  endfacet
  facet normal -0.987988 -0.154529 0
    outer loop
      vertex -38.6619 1.99879 1
      vertex -25.0693 -84.9062 0
      vertex -25.0693 -84.9062 1
    endloop
  endfacet
  facet normal 0 -1 0
    outer loop
      vertex -25.0693 -84.9062 0
      vertex -9.09222 -84.9062 1
      vertex -25.0693 -84.9062 1
    endloop
  endfacet
  facet normal 0 -1 -0
    outer loop
      vertex -9.09222 -84.9062 1
      vertex -25.0693 -84.9062 0
      vertex -9.09222 -84.9062 0
    endloop
  endfacet
  facet normal 0.970148 -0.242513 0
    outer loop
      vertex -9.09222 -84.9062 1
      vertex -4.06769 -64.8061 0
      vertex -4.06769 -64.8061 1
    endloop
  endfacet
  facet normal 0.970148 -0.242513 0
    outer loop
      vertex -4.06769 -64.8061 0
      vertex -9.09222 -84.9062 1
      vertex -9.09222 -84.9062 0
    endloop
  endfacet
endsolid OpenSCAD_Model
