  0
SECTION
  2
BLOCKS
  0
ENDSEC
  0
SECTION
  2
ENTITIES
  0
LINE
  8
0
 10
-4.06769
 20
-64.8061
 11
-1.23288
 21
-53.4042
  0
LINE
  8
0
 10
-1.23288
 20
-53.4042
 11
1.0224
 21
-43.9337
  0
LINE
  8
0
 10
1.0224
 20
-43.9337
 11
1.77168
 21
-47.2586
  0
LINE
  8
0
 10
1.77168
 20
-47.2586
 11
2.54729
 21
-50.6072
  0
LINE
  8
0
 10
2.54729
 20
-50.6072
 11
3.34923
 21
-53.9795
  0
LINE
  8
0
 10
3.34923
 20
-53.9795
 11
4.17749
 21
-57.3755
  0
LINE
  8
0
 10
4.17749
 20
-57.3755
 11
5.03209
 21
-60.7951
  0
LINE
  8
0
 10
5.03209
 20
-60.7951
 11
5.91301
 21
-64.2385
  0
LINE
  8
0
 10
5.91301
 20
-64.2385
 11
6.82025
 21
-67.7055
  0
LINE
  8
0
 10
6.82025
 20
-67.7055
 11
10.9433
 21
-84.9062
  0
LINE
  8
0
 10
10.9433
 20
-84.9062
 11
26.9194
 21
-84.9062
  0
LINE
  8
0
 10
26.9194
 20
-84.9062
 11
40.4483
 21
1.99879
  0
LINE
  8
0
 10
40.4483
 20
1.99879
 11
23.7626
 21
1.99879
  0
LINE
  8
0
 10
23.7626
 20
1.99879
 11
18.3513
 21
-42.7747
  0
LINE
  8
0
 10
18.3513
 20
-42.7747
 11
18.1726
 21
-44.3194
  0
LINE
  8
0
 10
18.1726
 20
-44.3194
 11
18.0043
 21
-46.0824
  0
LINE
  8
0
 10
18.0043
 20
-46.0824
 11
17.8466
 21
-48.0637
  0
LINE
  8
0
 10
17.8466
 20
-48.0637
 11
17.6993
 21
-50.2632
  0
LINE
  8
0
 10
17.6993
 20
-50.2632
 11
17.5626
 21
-52.681
  0
LINE
  8
0
 10
17.5626
 20
-52.681
 11
17.4363
 21
-55.317
  0
LINE
  8
0
 10
17.4363
 20
-55.317
 11
17.3206
 21
-58.1713
  0
LINE
  8
0
 10
17.3206
 20
-58.1713
 11
17.1914
 21
-59.9108
  0
LINE
  8
0
 10
17.1914
 20
-59.9108
 11
16.786
 21
-57.9393
  0
LINE
  8
0
 10
16.786
 20
-57.9393
 11
16.416
 21
-56.148
  0
LINE
  8
0
 10
16.416
 20
-56.148
 11
16.0814
 21
-54.5368
  0
LINE
  8
0
 10
16.0814
 20
-54.5368
 11
15.7823
 21
-53.1057
  0
LINE
  8
0
 10
15.7823
 20
-53.1057
 11
15.5186
 21
-51.8547
  0
LINE
  8
0
 10
15.5186
 20
-51.8547
 11
15.2904
 21
-50.7838
  0
LINE
  8
0
 10
15.2904
 20
-50.7838
 11
15.0976
 21
-49.893
  0
LINE
  8
0
 10
15.0976
 20
-49.893
 11
14.9182
 21
-49.0903
  0
LINE
  8
0
 10
14.9182
 20
-49.0903
 11
14.7296
 21
-48.2837
  0
LINE
  8
0
 10
14.7296
 20
-48.2837
 11
14.5318
 21
-47.4731
  0
LINE
  8
0
 10
14.5318
 20
-47.4731
 11
14.3249
 21
-46.6585
  0
LINE
  8
0
 10
14.3249
 20
-46.6585
 11
14.1087
 21
-45.84
  0
LINE
  8
0
 10
14.1087
 20
-45.84
 11
13.8834
 21
-45.0176
  0
LINE
  8
0
 10
13.8834
 20
-45.0176
 11
13.6488
 21
-44.1911
  0
LINE
  8
0
 10
13.6488
 20
-44.1911
 11
7.27055
 21
-22.3525
  0
LINE
  8
0
 10
7.27055
 20
-22.3525
 11
-5.29128
 21
-22.3525
  0
LINE
  8
0
 10
-5.29128
 20
-22.3525
 11
-11.6696
 21
-44.1911
  0
LINE
  8
0
 10
-11.6696
 20
-44.1911
 11
-14.246
 21
-55.0145
  0
LINE
  8
0
 10
-14.246
 20
-55.0145
 11
-15.2121
 21
-59.9108
  0
LINE
  8
0
 10
-15.2121
 20
-59.9108
 11
-15.2962
 21
-56.8791
  0
LINE
  8
0
 10
-15.2962
 20
-56.8791
 11
-15.4014
 21
-54.0419
  0
LINE
  8
0
 10
-15.4014
 20
-54.0419
 11
-15.5276
 21
-51.3993
  0
LINE
  8
0
 10
-15.5276
 20
-51.3993
 11
-15.6748
 21
-48.9513
  0
LINE
  8
0
 10
-15.6748
 20
-48.9513
 11
-15.8431
 21
-46.6978
  0
LINE
  8
0
 10
-15.8431
 20
-46.6978
 11
-16.0325
 21
-44.639
  0
LINE
  8
0
 10
-16.0325
 20
-44.639
 11
-16.2429
 21
-42.7747
  0
LINE
  8
0
 10
-16.2429
 20
-42.7747
 11
-21.9771
 21
1.99879
  0
LINE
  8
0
 10
-21.9771
 20
1.99879
 11
-38.6619
 21
1.99879
  0
LINE
  8
0
 10
-38.6619
 20
1.99879
 11
-25.0693
 21
-84.9062
  0
LINE
  8
0
 10
-25.0693
 20
-84.9062
 11
-9.09222
 21
-84.9062
  0
LINE
  8
0
 10
-9.09222
 20
-84.9062
 11
-4.06769
 21
-64.8061
  0
ENDSEC
  0
SECTION
  2
OBJECTS
  0
DICTIONARY
  0
ENDSEC
  0
EOF
