<?xml version="1.0" standalone="no"?>
<!DOCTYPE svg PUBLIC "-//W3C//DTD SVG 1.1//EN" "http://www.w3.org/Graphics/SVG/1.1/DTD/svg11.dtd">
<svg width="80mm" height="87mm" viewBox="-39 -2 80 87" xmlns="http://www.w3.org/2000/svg" version="1.1">
<title>OpenSCAD Model</title>
<path d="
M -4.06769,64.8061 L -1.23288,53.4042 L 1.0224,43.9337 L 1.77168,47.2586 L 2.54729,50.6072 L 3.34923,53.9795
 L 4.17749,57.3755 L 5.03209,60.7951 L 5.91301,64.2385 L 6.82025,67.7055 L 10.9433,84.9062 L 26.9194,84.9062
 L 40.4483,-1.99879 L 23.7626,-1.99879 L 18.3513,42.7747 L 18.1726,44.3194 L 18.0043,46.0824 L 17.8466,48.0637
 L 17.6993,50.2632 L 17.5626,52.681 L 17.4363,55.317 L 17.3206,58.1713 L 17.1914,59.9108 L 16.786,57.9393
 L 16.416,56.148 L 16.0814,54.5368 L 15.7823,53.1057 L 15.5186,51.8547 L 15.2904,50.7838 L 15.0976,49.893
 L 14.9182,49.0903 L 14.7296,48.2837 L 14.5318,47.4731 L 14.3249,46.6585 L 14.1087,45.84 L 13.8834,45.0176
 L 13.6488,44.1911 L 7.27055,22.3525 L -5.29128,22.3525 L -11.6696,44.1911 L -14.246,55.0145 L -15.2121,59.9108
 L -15.2962,56.8791 L -15.4014,54.0419 L -15.5276,51.3993 L -15.6748,48.9513 L -15.8431,46.6978 L -16.0325,44.639
 L -16.2429,42.7747 L -21.9771,-1.99879 L -38.6619,-1.99879 L -25.0693,84.9062 L -9.09222,84.9062 z
" stroke="black" fill="lightgray" stroke-width="0.5"/>
</svg>
