  0
SECTION
  2
BLOCKS
  0
ENDSEC
  0
SECTION
  2
ENTITIES
  0
LINE
  8
0
 10
-2.16634
 20
-15.3459
 11
0.0627289
 21
-15.3459
  0
LINE
  8
0
 10
0.0627289
 20
-15.3459
 11
3.79909
 21
-21.9812
  0
LINE
  8
0
 10
3.79909
 20
-21.9812
 11
8.07675
 21
-21.9812
  0
LINE
  8
0
 10
8.07675
 20
-21.9812
 11
3.58002
 21
-14.4954
  0
LINE
  8
0
 10
3.58002
 20
-14.4954
 11
4.0473
 21
-14.3369
  0
LINE
  8
0
 10
4.0473
 20
-14.3369
 11
4.4846
 21
-14.1483
  0
LINE
  8
0
 10
4.4846
 20
-14.1483
 11
4.89192
 21
-13.9298
  0
LINE
  8
0
 10
4.89192
 20
-13.9298
 11
5.26926
 21
-13.6813
  0
LINE
  8
0
 10
5.26926
 20
-13.6813
 11
5.61662
 21
-13.4028
  0
LINE
  8
0
 10
5.61662
 20
-13.4028
 11
5.93401
 21
-13.0944
  0
LINE
  8
0
 10
5.93401
 20
-13.0944
 11
6.22139
 21
-12.756
  0
LINE
  8
0
 10
6.22139
 20
-12.756
 11
6.47435
 21
-12.3918
  0
LINE
  8
0
 10
6.47435
 20
-12.3918
 11
6.68837
 21
-12.0061
  0
LINE
  8
0
 10
6.68837
 20
-12.0061
 11
6.86349
 21
-11.5988
  0
LINE
  8
0
 10
6.86349
 20
-11.5988
 11
6.99969
 21
-11.1699
  0
LINE
  8
0
 10
6.99969
 20
-11.1699
 11
7.09698
 21
-10.7195
  0
LINE
  8
0
 10
7.09698
 20
-10.7195
 11
7.15535
 21
-10.2475
  0
LINE
  8
0
 10
7.15535
 20
-10.2475
 11
7.17482
 21
-9.75398
  0
LINE
  8
0
 10
7.17482
 20
-9.75398
 11
7.14037
 21
-9.06374
  0
LINE
  8
0
 10
7.14037
 20
-9.06374
 11
7.03702
 21
-8.42134
  0
LINE
  8
0
 10
7.03702
 20
-8.42134
 11
6.86478
 21
-7.82683
  0
LINE
  8
0
 10
6.86478
 20
-7.82683
 11
6.62364
 21
-7.28017
  0
LINE
  8
0
 10
6.62364
 20
-7.28017
 11
6.31361
 21
-6.78137
  0
LINE
  8
0
 10
6.31361
 20
-6.78137
 11
5.93468
 21
-6.33044
  0
LINE
  8
0
 10
5.93468
 20
-6.33044
 11
5.48686
 21
-5.92738
  0
LINE
  8
0
 10
5.48686
 20
-5.92738
 11
4.96967
 21
-5.57529
  0
LINE
  8
0
 10
4.96967
 20
-5.57529
 11
4.38252
 21
-5.27734
  0
LINE
  8
0
 10
4.38252
 20
-5.27734
 11
3.72545
 21
-5.03358
  0
LINE
  8
0
 10
3.72545
 20
-5.03358
 11
2.99843
 21
-4.84401
  0
LINE
  8
0
 10
2.99843
 20
-4.84401
 11
2.20146
 21
-4.70859
  0
LINE
  8
0
 10
2.20146
 20
-4.70859
 11
1.33455
 21
-4.62733
  0
LINE
  8
0
 10
1.33455
 20
-4.62733
 11
0.397705
 21
-4.60025
  0
LINE
  8
0
 10
0.397705
 20
-4.60025
 11
-5.96729
 21
-4.60025
  0
LINE
  8
0
 10
-5.96729
 20
-4.60025
 11
-5.96729
 21
-21.9812
  0
LINE
  8
0
 10
-5.96729
 20
-21.9812
 11
-2.16634
 21
-21.9812
  0
LINE
  8
0
 10
-2.16634
 20
-21.9812
 11
-2.16634
 21
-15.3459
  0
LINE
  8
0
 10
-2.16634
 20
-12.3952
 11
-2.16634
 21
-7.55074
  0
LINE
  8
0
 10
-2.16634
 20
-7.55074
 11
-0.00166321
 21
-7.55074
  0
LINE
  8
0
 10
-0.00166321
 20
-7.55074
 11
0.479492
 21
-7.56244
  0
LINE
  8
0
 10
0.479492
 20
-7.56244
 11
0.921738
 21
-7.59755
  0
LINE
  8
0
 10
0.921738
 20
-7.59755
 11
1.32507
 21
-7.65607
  0
LINE
  8
0
 10
1.32507
 20
-7.65607
 11
1.6895
 21
-7.73798
  0
LINE
  8
0
 10
1.6895
 20
-7.73798
 11
2.015
 21
-7.84331
  0
LINE
  8
0
 10
2.015
 20
-7.84331
 11
2.30159
 21
-7.97203
  0
LINE
  8
0
 10
2.30159
 20
-7.97203
 11
2.54927
 21
-8.12416
  0
LINE
  8
0
 10
2.54927
 20
-8.12416
 11
2.76123
 21
-8.30096
  0
LINE
  8
0
 10
2.76123
 20
-8.30096
 11
2.94058
 21
-8.5038
  0
LINE
  8
0
 10
2.94058
 20
-8.5038
 11
3.08733
 21
-8.7327
  0
LINE
  8
0
 10
3.08733
 20
-8.7327
 11
3.20146
 21
-8.98761
  0
LINE
  8
0
 10
3.20146
 20
-8.98761
 11
3.28299
 21
-9.26859
  0
LINE
  8
0
 10
3.28299
 20
-9.26859
 11
3.33191
 21
-9.57559
  0
LINE
  8
0
 10
3.33191
 20
-9.57559
 11
3.34822
 21
-9.90865
  0
LINE
  8
0
 10
3.34822
 20
-9.90865
 11
3.28195
 21
-10.5683
  0
LINE
  8
0
 10
3.28195
 20
-10.5683
 11
3.08316
 21
-11.1265
  0
LINE
  8
0
 10
3.08316
 20
-11.1265
 11
2.75185
 21
-11.5832
  0
LINE
  8
0
 10
2.75185
 20
-11.5832
 11
2.28799
 21
-11.9385
  0
LINE
  8
0
 10
2.28799
 20
-11.9385
 11
1.69164
 21
-12.1922
  0
LINE
  8
0
 10
1.69164
 20
-12.1922
 11
0.962723
 21
-12.3444
  0
LINE
  8
0
 10
0.962723
 20
-12.3444
 11
0.101303
 21
-12.3952
  0
LINE
  8
0
 10
0.101303
 20
-12.3952
 11
-2.16634
 21
-12.3952
  0
ENDSEC
  0
SECTION
  2
OBJECTS
  0
DICTIONARY
  0
ENDSEC
  0
EOF
