solid OpenSCAD_Model
  facet normal 0 0 -1
    outer loop
      vertex 16.0949 -41.038 0
      vertex 4.79239 -40.1495 0
      vertex 4.82631 -38.9748 0
    endloop
  endfacet
  facet normal 0 0 -1
    outer loop
      vertex 6.85106 -55.1517 0
      vertex 4.69063 -41.2437 0
      vertex 4.79239 -40.1495 0
    endloop
  endfacet
  facet normal 0 0 -1
    outer loop
      vertex 6.85106 -55.1517 0
      vertex 4.52103 -42.2574 0
      vertex 4.69063 -41.2437 0
    endloop
  endfacet
  facet normal 0 0 -1
    outer loop
      vertex 6.85106 -55.1517 0
      vertex 4.28357 -43.1907 0
      vertex 4.52103 -42.2574 0
    endloop
  endfacet
  facet normal 0 0 -1
    outer loop
      vertex 6.85106 -55.1517 0
      vertex 3.97829 -44.0435 0
      vertex 4.28357 -43.1907 0
    endloop
  endfacet
  facet normal 0 0 -1
    outer loop
      vertex 6.85106 -55.1517 0
      vertex 3.60516 -44.8158 0
      vertex 3.97829 -44.0435 0
    endloop
  endfacet
  facet normal 0 0 -1
    outer loop
      vertex 6.85106 -55.1517 0
      vertex 3.16418 -45.5076 0
      vertex 3.60516 -44.8158 0
    endloop
  endfacet
  facet normal 0 0 -1
    outer loop
      vertex 0.886047 -47.3693 0
      vertex 5.00679 -55.8364 0
      vertex 3.01736 -56.3254 0
    endloop
  endfacet
  facet normal 0 0 -1
    outer loop
      vertex 6.85106 -55.1517 0
      vertex 2.66563 -46.1127 0
      vertex 3.16418 -45.5076 0
    endloop
  endfacet
  facet normal 0 0 -1
    outer loop
      vertex 6.85106 -55.1517 0
      vertex 2.11977 -46.6246 0
      vertex 2.66563 -46.1127 0
    endloop
  endfacet
  facet normal 0 0 -1
    outer loop
      vertex 6.85106 -55.1517 0
      vertex 1.52657 -47.0435 0
      vertex 2.11977 -46.6246 0
    endloop
  endfacet
  facet normal 0 0 -1
    outer loop
      vertex 5.00679 -55.8364 0
      vertex 0.886047 -47.3693 0
      vertex 1.52657 -47.0435 0
    endloop
  endfacet
  facet normal 0 0 -1
    outer loop
      vertex 0.198212 -47.602 0
      vertex 3.01736 -56.3254 0
      vertex 0.882782 -56.6189 0
    endloop
  endfacet
  facet normal 0 0 -1
    outer loop
      vertex 3.01736 -56.3254 0
      vertex 0.198212 -47.602 0
      vertex 0.886047 -47.3693 0
    endloop
  endfacet
  facet normal 0 0 -1
    outer loop
      vertex 0.882782 -56.6189 0
      vertex -0.536926 -47.7416 0
      vertex 0.198212 -47.602 0
    endloop
  endfacet
  facet normal 0 0 -1
    outer loop
      vertex -1.39694 -56.7167 0
      vertex -0.536926 -47.7416 0
      vertex 0.882782 -56.6189 0
    endloop
  endfacet
  facet normal 0 0 -1
    outer loop
      vertex -0.536926 -47.7416 0
      vertex -1.39694 -56.7167 0
      vertex -1.31941 -47.7882 0
    endloop
  endfacet
  facet normal 0 0 -1
    outer loop
      vertex -1.39694 -56.7167 0
      vertex -2.00095 -47.7424 0
      vertex -1.31941 -47.7882 0
    endloop
  endfacet
  facet normal 0 0 -1
    outer loop
      vertex -3.49994 -56.6307 0
      vertex -2.00095 -47.7424 0
      vertex -1.39694 -56.7167 0
    endloop
  endfacet
  facet normal -0 0 -1
    outer loop
      vertex -2.00095 -47.7424 0
      vertex -3.49994 -56.6307 0
      vertex -2.6541 -47.6052 0
    endloop
  endfacet
  facet normal 0 0 -1
    outer loop
      vertex -5.4799 -56.3728 0
      vertex -2.6541 -47.6052 0
      vertex -3.49994 -56.6307 0
    endloop
  endfacet
  facet normal -0 0 -1
    outer loop
      vertex -2.6541 -47.6052 0
      vertex -5.4799 -56.3728 0
      vertex -3.27887 -47.3764 0
    endloop
  endfacet
  facet normal 0 0 -1
    outer loop
      vertex -7.33681 -55.9429 0
      vertex -3.27887 -47.3764 0
      vertex -5.4799 -56.3728 0
    endloop
  endfacet
  facet normal -0 0 -1
    outer loop
      vertex -3.27887 -47.3764 0
      vertex -7.33681 -55.9429 0
      vertex -3.87524 -47.0562 0
    endloop
  endfacet
  facet normal 0 0 -1
    outer loop
      vertex -9.07066 -55.341 0
      vertex -3.87524 -47.0562 0
      vertex -7.33681 -55.9429 0
    endloop
  endfacet
  facet normal -0 0 -1
    outer loop
      vertex -3.87524 -47.0562 0
      vertex -9.07066 -55.341 0
      vertex -4.44325 -46.6444 0
    endloop
  endfacet
  facet normal 0 0 -1
    outer loop
      vertex -10.6815 -54.5672 0
      vertex -4.44325 -46.6444 0
      vertex -9.07066 -55.341 0
    endloop
  endfacet
  facet normal -0 0 -1
    outer loop
      vertex -4.44325 -46.6444 0
      vertex -10.6815 -54.5672 0
      vertex -4.98286 -46.1411 0
    endloop
  endfacet
  facet normal 0 0 -1
    outer loop
      vertex -12.1692 -53.6215 0
      vertex -4.98286 -46.1411 0
      vertex -10.6815 -54.5672 0
    endloop
  endfacet
  facet normal -0 0 -1
    outer loop
      vertex -4.98286 -46.1411 0
      vertex -12.1692 -53.6215 0
      vertex -5.49409 -45.5464 0
    endloop
  endfacet
  facet normal 0 0 -1
    outer loop
      vertex -13.534 -52.5038 0
      vertex -5.49409 -45.5464 0
      vertex -12.1692 -53.6215 0
    endloop
  endfacet
  facet normal -0 0 -1
    outer loop
      vertex -5.49409 -45.5464 0
      vertex -13.534 -52.5038 0
      vertex -5.97127 -44.8584 0
    endloop
  endfacet
  facet normal 0 0 -1
    outer loop
      vertex -14.7677 -51.225 0
      vertex -5.97127 -44.8584 0
      vertex -13.534 -52.5038 0
    endloop
  endfacet
  facet normal -0 0 -1
    outer loop
      vertex -5.97127 -44.8584 0
      vertex -14.7677 -51.225 0
      vertex -6.40903 -44.0757 0
    endloop
  endfacet
  facet normal 0 0 -1
    outer loop
      vertex -15.8626 -49.7964 0
      vertex -6.40903 -44.0757 0
      vertex -14.7677 -51.225 0
    endloop
  endfacet
  facet normal 0 0 -1
    outer loop
      vertex -16.8187 -48.2178 0
      vertex -6.40903 -44.0757 0
      vertex -15.8626 -49.7964 0
    endloop
  endfacet
  facet normal -0 0 -1
    outer loop
      vertex -6.40903 -44.0757 0
      vertex -16.8187 -48.2178 0
      vertex -6.80737 -43.1984 0
    endloop
  endfacet
  facet normal 0 0 -1
    outer loop
      vertex -17.6359 -46.4894 0
      vertex -6.80737 -43.1984 0
      vertex -16.8187 -48.2178 0
    endloop
  endfacet
  facet normal -0 0 -1
    outer loop
      vertex -6.80737 -43.1984 0
      vertex -17.6359 -46.4894 0
      vertex -7.16631 -42.2265 0
    endloop
  endfacet
  facet normal 0 0 -1
    outer loop
      vertex -18.3143 -44.6112 0
      vertex -7.16631 -42.2265 0
      vertex -17.6359 -46.4894 0
    endloop
  endfacet
  facet normal -0 0 -1
    outer loop
      vertex -7.16631 -42.2265 0
      vertex -18.3143 -44.6112 0
      vertex -7.48584 -41.1599 0
    endloop
  endfacet
  facet normal 0 0 -1
    outer loop
      vertex -18.8538 -42.583 0
      vertex -7.48584 -41.1599 0
      vertex -18.3143 -44.6112 0
    endloop
  endfacet
  facet normal -0 0 -1
    outer loop
      vertex -7.48584 -41.1599 0
      vertex -18.8538 -42.583 0
      vertex -7.76595 -39.9987 0
    endloop
  endfacet
  facet normal -0 0 -1
    outer loop
      vertex -7.76595 -39.9987 0
      vertex -18.8538 -42.583 0
      vertex -8.00665 -38.7429 0
    endloop
  endfacet
  facet normal 0 0 -1
    outer loop
      vertex -8.00665 -38.7429 0
      vertex -18.8538 -42.583 0
      vertex -19.2545 -40.405 0
    endloop
  endfacet
  facet normal 0 0 -1
    outer loop
      vertex 4.82631 -38.9748 0
      vertex 16.1904 -38.7047 0
      vertex 16.0949 -41.038 0
    endloop
  endfacet
  facet normal 0 0 -1
    outer loop
      vertex 4.79239 -40.1495 0
      vertex 16.0949 -41.038 0
      vertex 15.8086 -43.2231 0
    endloop
  endfacet
  facet normal 0 0 -1
    outer loop
      vertex 4.79239 -40.1495 0
      vertex 15.8086 -43.2231 0
      vertex 15.3313 -45.2599 0
    endloop
  endfacet
  facet normal 0 0 -1
    outer loop
      vertex 4.79239 -40.1495 0
      vertex 15.3313 -45.2599 0
      vertex 14.6631 -47.1484 0
    endloop
  endfacet
  facet normal 0 0 -1
    outer loop
      vertex 4.79239 -40.1495 0
      vertex 14.6631 -47.1484 0
      vertex 13.804 -48.8886 0
    endloop
  endfacet
  facet normal 0 0 -1
    outer loop
      vertex 4.79239 -40.1495 0
      vertex 13.804 -48.8886 0
      vertex 12.7539 -50.4805 0
    endloop
  endfacet
  facet normal 0 0 -1
    outer loop
      vertex 4.79239 -40.1495 0
      vertex 12.7539 -50.4805 0
      vertex 11.513 -51.9241 0
    endloop
  endfacet
  facet normal 0 0 -1
    outer loop
      vertex 4.79239 -40.1495 0
      vertex 11.513 -51.9241 0
      vertex 10.1042 -53.1956 0
    endloop
  endfacet
  facet normal 0 0 -1
    outer loop
      vertex 4.79239 -40.1495 0
      vertex 10.1042 -53.1956 0
      vertex 8.55019 -54.2715 0
    endloop
  endfacet
  facet normal 0 0 -1
    outer loop
      vertex 4.79239 -40.1495 0
      vertex 8.55019 -54.2715 0
      vertex 6.85106 -55.1517 0
    endloop
  endfacet
  facet normal 0 0 -1
    outer loop
      vertex 1.52657 -47.0435 0
      vertex 6.85106 -55.1517 0
      vertex 5.00679 -55.8364 0
    endloop
  endfacet
  facet normal -0 0 -1
    outer loop
      vertex 16.1904 -38.7047 0
      vertex 4.82631 -38.9748 0
      vertex 4.82631 -12.7298 0
    endloop
  endfacet
  facet normal 0 0 -1
    outer loop
      vertex 16.1904 -38.7047 0
      vertex 4.82631 -12.7298 0
      vertex 16.1904 -3.80072 0
    endloop
  endfacet
  facet normal 0 0 -1
    outer loop
      vertex -6.80795 -3.80072 0
      vertex 4.82631 -12.7298 0
      vertex -6.80795 -12.7298 0
    endloop
  endfacet
  facet normal 0 0 -1
    outer loop
      vertex 4.82631 -12.7298 0
      vertex -6.80795 -3.80072 0
      vertex 16.1904 -3.80072 0
    endloop
  endfacet
  facet normal -0 0 1
    outer loop
      vertex 4.82631 -12.7298 1
      vertex 16.1904 -38.7047 1
      vertex 16.1904 -3.80072 1
    endloop
  endfacet
  facet normal 0 0 1
    outer loop
      vertex 4.82631 -38.9748 1
      vertex 16.1904 -38.7047 1
      vertex 4.82631 -12.7298 1
    endloop
  endfacet
  facet normal 0 0 1
    outer loop
      vertex 16.1904 -38.7047 1
      vertex 4.82631 -38.9748 1
      vertex 16.0949 -41.038 1
    endloop
  endfacet
  facet normal -0 0 1
    outer loop
      vertex 4.79239 -40.1495 1
      vertex 16.0949 -41.038 1
      vertex 4.82631 -38.9748 1
    endloop
  endfacet
  facet normal 0 0 1
    outer loop
      vertex 16.0949 -41.038 1
      vertex 4.69063 -41.2437 1
      vertex 15.8086 -43.2231 1
    endloop
  endfacet
  facet normal -0 0 1
    outer loop
      vertex 4.52103 -42.2574 1
      vertex 15.8086 -43.2231 1
      vertex 4.69063 -41.2437 1
    endloop
  endfacet
  facet normal 0 0 1
    outer loop
      vertex 15.8086 -43.2231 1
      vertex 4.52103 -42.2574 1
      vertex 15.3313 -45.2599 1
    endloop
  endfacet
  facet normal -0 0 1
    outer loop
      vertex 4.28357 -43.1907 1
      vertex 15.3313 -45.2599 1
      vertex 4.52103 -42.2574 1
    endloop
  endfacet
  facet normal 0 0 1
    outer loop
      vertex 15.3313 -45.2599 1
      vertex 4.28357 -43.1907 1
      vertex 14.6631 -47.1484 1
    endloop
  endfacet
  facet normal -0 0 1
    outer loop
      vertex 3.97829 -44.0435 1
      vertex 14.6631 -47.1484 1
      vertex 4.28357 -43.1907 1
    endloop
  endfacet
  facet normal 0 0 1
    outer loop
      vertex 14.6631 -47.1484 1
      vertex 3.97829 -44.0435 1
      vertex 13.804 -48.8886 1
    endloop
  endfacet
  facet normal 0 0 1
    outer loop
      vertex 4.69063 -41.2437 1
      vertex 16.0949 -41.038 1
      vertex 4.79239 -40.1495 1
    endloop
  endfacet
  facet normal -0 0 1
    outer loop
      vertex -6.80795 -3.80072 1
      vertex 4.82631 -12.7298 1
      vertex 16.1904 -3.80072 1
    endloop
  endfacet
  facet normal 0 0 1
    outer loop
      vertex 4.82631 -12.7298 1
      vertex -6.80795 -3.80072 1
      vertex -6.80795 -12.7298 1
    endloop
  endfacet
  facet normal 0 0 1
    outer loop
      vertex 13.804 -48.8886 1
      vertex 3.97829 -44.0435 1
      vertex 12.7539 -50.4805 1
    endloop
  endfacet
  facet normal -0 0 1
    outer loop
      vertex 3.60516 -44.8158 1
      vertex 12.7539 -50.4805 1
      vertex 3.97829 -44.0435 1
    endloop
  endfacet
  facet normal 0 0 1
    outer loop
      vertex 12.7539 -50.4805 1
      vertex 3.60516 -44.8158 1
      vertex 11.513 -51.9241 1
    endloop
  endfacet
  facet normal -0 0 1
    outer loop
      vertex 3.16418 -45.5076 1
      vertex 11.513 -51.9241 1
      vertex 3.60516 -44.8158 1
    endloop
  endfacet
  facet normal 0 0 1
    outer loop
      vertex 11.513 -51.9241 1
      vertex 3.16418 -45.5076 1
      vertex 10.1042 -53.1956 1
    endloop
  endfacet
  facet normal -0 0 1
    outer loop
      vertex 2.66563 -46.1127 1
      vertex 10.1042 -53.1956 1
      vertex 3.16418 -45.5076 1
    endloop
  endfacet
  facet normal 0 0 1
    outer loop
      vertex 10.1042 -53.1956 1
      vertex 2.66563 -46.1127 1
      vertex 8.55019 -54.2715 1
    endloop
  endfacet
  facet normal -0 0 1
    outer loop
      vertex 2.11977 -46.6246 1
      vertex 8.55019 -54.2715 1
      vertex 2.66563 -46.1127 1
    endloop
  endfacet
  facet normal 0 0 1
    outer loop
      vertex 8.55019 -54.2715 1
      vertex 2.11977 -46.6246 1
      vertex 6.85106 -55.1517 1
    endloop
  endfacet
  facet normal -0 0 1
    outer loop
      vertex 1.52657 -47.0435 1
      vertex 6.85106 -55.1517 1
      vertex 2.11977 -46.6246 1
    endloop
  endfacet
  facet normal 0 0 1
    outer loop
      vertex 6.85106 -55.1517 1
      vertex 1.52657 -47.0435 1
      vertex 5.00679 -55.8364 1
    endloop
  endfacet
  facet normal -0 0 1
    outer loop
      vertex 0.886047 -47.3693 1
      vertex 5.00679 -55.8364 1
      vertex 1.52657 -47.0435 1
    endloop
  endfacet
  facet normal 0 0 1
    outer loop
      vertex 5.00679 -55.8364 1
      vertex 0.886047 -47.3693 1
      vertex 3.01736 -56.3254 1
    endloop
  endfacet
  facet normal -0 0 1
    outer loop
      vertex 0.198212 -47.602 1
      vertex 3.01736 -56.3254 1
      vertex 0.886047 -47.3693 1
    endloop
  endfacet
  facet normal 0 0 1
    outer loop
      vertex 3.01736 -56.3254 1
      vertex 0.198212 -47.602 1
      vertex 0.882782 -56.6189 1
    endloop
  endfacet
  facet normal -0 0 1
    outer loop
      vertex -0.536926 -47.7416 1
      vertex 0.882782 -56.6189 1
      vertex 0.198212 -47.602 1
    endloop
  endfacet
  facet normal 0 0 1
    outer loop
      vertex -1.39694 -56.7167 1
      vertex -0.536926 -47.7416 1
      vertex -1.31941 -47.7882 1
    endloop
  endfacet
  facet normal 0 0 1
    outer loop
      vertex -0.536926 -47.7416 1
      vertex -1.39694 -56.7167 1
      vertex 0.882782 -56.6189 1
    endloop
  endfacet
  facet normal 0 0 1
    outer loop
      vertex -2.00095 -47.7424 1
      vertex -1.39694 -56.7167 1
      vertex -1.31941 -47.7882 1
    endloop
  endfacet
  facet normal 0 0 1
    outer loop
      vertex -3.49994 -56.6307 1
      vertex -2.00095 -47.7424 1
      vertex -2.6541 -47.6052 1
    endloop
  endfacet
  facet normal 0 0 1
    outer loop
      vertex -5.4799 -56.3728 1
      vertex -2.6541 -47.6052 1
      vertex -3.27887 -47.3764 1
    endloop
  endfacet
  facet normal 0 0 1
    outer loop
      vertex -2.00095 -47.7424 1
      vertex -3.49994 -56.6307 1
      vertex -1.39694 -56.7167 1
    endloop
  endfacet
  facet normal 0 0 1
    outer loop
      vertex -7.33681 -55.9429 1
      vertex -3.27887 -47.3764 1
      vertex -3.87524 -47.0562 1
    endloop
  endfacet
  facet normal 0 0 1
    outer loop
      vertex -9.07066 -55.341 1
      vertex -3.87524 -47.0562 1
      vertex -4.44325 -46.6444 1
    endloop
  endfacet
  facet normal 0 0 1
    outer loop
      vertex -10.6815 -54.5672 1
      vertex -4.44325 -46.6444 1
      vertex -4.98286 -46.1411 1
    endloop
  endfacet
  facet normal 0 0 1
    outer loop
      vertex -2.6541 -47.6052 1
      vertex -5.4799 -56.3728 1
      vertex -3.49994 -56.6307 1
    endloop
  endfacet
  facet normal 0 0 1
    outer loop
      vertex -12.1692 -53.6215 1
      vertex -4.98286 -46.1411 1
      vertex -5.49409 -45.5464 1
    endloop
  endfacet
  facet normal 0 0 1
    outer loop
      vertex -13.534 -52.5038 1
      vertex -5.49409 -45.5464 1
      vertex -5.97127 -44.8584 1
    endloop
  endfacet
  facet normal 0 0 1
    outer loop
      vertex -14.7677 -51.225 1
      vertex -5.97127 -44.8584 1
      vertex -6.40903 -44.0757 1
    endloop
  endfacet
  facet normal 0 0 1
    outer loop
      vertex -16.8187 -48.2178 1
      vertex -6.40903 -44.0757 1
      vertex -6.80737 -43.1984 1
    endloop
  endfacet
  facet normal 0 0 1
    outer loop
      vertex -17.6359 -46.4894 1
      vertex -6.80737 -43.1984 1
      vertex -7.16631 -42.2265 1
    endloop
  endfacet
  facet normal 0 0 1
    outer loop
      vertex -3.27887 -47.3764 1
      vertex -7.33681 -55.9429 1
      vertex -5.4799 -56.3728 1
    endloop
  endfacet
  facet normal 0 0 1
    outer loop
      vertex -18.3143 -44.6112 1
      vertex -7.16631 -42.2265 1
      vertex -7.48584 -41.1599 1
    endloop
  endfacet
  facet normal 0 0 1
    outer loop
      vertex -18.8538 -42.583 1
      vertex -7.48584 -41.1599 1
      vertex -7.76595 -39.9987 1
    endloop
  endfacet
  facet normal 0 0 1
    outer loop
      vertex -18.8538 -42.583 1
      vertex -7.76595 -39.9987 1
      vertex -8.00665 -38.7429 1
    endloop
  endfacet
  facet normal 0 0 1
    outer loop
      vertex -3.87524 -47.0562 1
      vertex -9.07066 -55.341 1
      vertex -7.33681 -55.9429 1
    endloop
  endfacet
  facet normal 0 0 1
    outer loop
      vertex -4.44325 -46.6444 1
      vertex -10.6815 -54.5672 1
      vertex -9.07066 -55.341 1
    endloop
  endfacet
  facet normal 0 0 1
    outer loop
      vertex -4.98286 -46.1411 1
      vertex -12.1692 -53.6215 1
      vertex -10.6815 -54.5672 1
    endloop
  endfacet
  facet normal 0 0 1
    outer loop
      vertex -5.49409 -45.5464 1
      vertex -13.534 -52.5038 1
      vertex -12.1692 -53.6215 1
    endloop
  endfacet
  facet normal 0 0 1
    outer loop
      vertex -5.97127 -44.8584 1
      vertex -14.7677 -51.225 1
      vertex -13.534 -52.5038 1
    endloop
  endfacet
  facet normal 0 0 1
    outer loop
      vertex -6.40903 -44.0757 1
      vertex -15.8626 -49.7964 1
      vertex -14.7677 -51.225 1
    endloop
  endfacet
  facet normal 0 0 1
    outer loop
      vertex -6.40903 -44.0757 1
      vertex -16.8187 -48.2178 1
      vertex -15.8626 -49.7964 1
    endloop
  endfacet
  facet normal 0 0 1
    outer loop
      vertex -6.80737 -43.1984 1
      vertex -17.6359 -46.4894 1
      vertex -16.8187 -48.2178 1
    endloop
  endfacet
  facet normal 0 0 1
    outer loop
      vertex -7.16631 -42.2265 1
      vertex -18.3143 -44.6112 1
      vertex -17.6359 -46.4894 1
    endloop
  endfacet
  facet normal 0 0 1
    outer loop
      vertex -7.48584 -41.1599 1
      vertex -18.8538 -42.583 1
      vertex -18.3143 -44.6112 1
    endloop
  endfacet
  facet normal 0 -0 1
    outer loop
      vertex -18.8538 -42.583 1
      vertex -8.00665 -38.7429 1
      vertex -19.2545 -40.405 1
    endloop
  endfacet
  facet normal 0.136216 -0.990679 0
    outer loop
      vertex 0.882782 -56.6189 0
      vertex 3.01736 -56.3254 1
      vertex 0.882782 -56.6189 1
    endloop
  endfacet
  facet normal 0.136216 -0.990679 0
    outer loop
      vertex 3.01736 -56.3254 1
      vertex 0.882782 -56.6189 0
      vertex 3.01736 -56.3254 0
    endloop
  endfacet
  facet normal 0.238694 -0.971095 0
    outer loop
      vertex 3.01736 -56.3254 0
      vertex 5.00679 -55.8364 1
      vertex 3.01736 -56.3254 1
    endloop
  endfacet
  facet normal 0.238694 -0.971095 0
    outer loop
      vertex 5.00679 -55.8364 1
      vertex 3.01736 -56.3254 0
      vertex 5.00679 -55.8364 0
    endloop
  endfacet
  facet normal 0.348046 -0.937477 0
    outer loop
      vertex 5.00679 -55.8364 0
      vertex 6.85106 -55.1517 1
      vertex 5.00679 -55.8364 1
    endloop
  endfacet
  facet normal 0.348046 -0.937477 0
    outer loop
      vertex 6.85106 -55.1517 1
      vertex 5.00679 -55.8364 0
      vertex 6.85106 -55.1517 0
    endloop
  endfacet
  facet normal 0.459975 -0.887932 0
    outer loop
      vertex 6.85106 -55.1517 0
      vertex 8.55019 -54.2715 1
      vertex 6.85106 -55.1517 1
    endloop
  endfacet
  facet normal 0.459975 -0.887932 0
    outer loop
      vertex 8.55019 -54.2715 1
      vertex 6.85106 -55.1517 0
      vertex 8.55019 -54.2715 0
    endloop
  endfacet
  facet normal 0.569227 -0.822181 0
    outer loop
      vertex 8.55019 -54.2715 0
      vertex 10.1042 -53.1956 1
      vertex 8.55019 -54.2715 1
    endloop
  endfacet
  facet normal 0.569227 -0.822181 0
    outer loop
      vertex 10.1042 -53.1956 1
      vertex 8.55019 -54.2715 0
      vertex 10.1042 -53.1956 0
    endloop
  endfacet
  facet normal 0.670006 -0.742355 0
    outer loop
      vertex 10.1042 -53.1956 0
      vertex 11.513 -51.9241 1
      vertex 10.1042 -53.1956 1
    endloop
  endfacet
  facet normal 0.670006 -0.742355 0
    outer loop
      vertex 11.513 -51.9241 1
      vertex 10.1042 -53.1956 0
      vertex 11.513 -51.9241 0
    endloop
  endfacet
  facet normal 0.75834 -0.651859 0
    outer loop
      vertex 11.513 -51.9241 1
      vertex 12.7539 -50.4805 0
      vertex 12.7539 -50.4805 1
    endloop
  endfacet
  facet normal 0.75834 -0.651859 0
    outer loop
      vertex 12.7539 -50.4805 0
      vertex 11.513 -51.9241 1
      vertex 11.513 -51.9241 0
    endloop
  endfacet
  facet normal 0.834743 -0.55064 0
    outer loop
      vertex 12.7539 -50.4805 1
      vertex 13.804 -48.8886 0
      vertex 13.804 -48.8886 1
    endloop
  endfacet
  facet normal 0.834743 -0.55064 0
    outer loop
      vertex 13.804 -48.8886 0
      vertex 12.7539 -50.4805 1
      vertex 12.7539 -50.4805 0
    endloop
  endfacet
  facet normal 0.896683 -0.442673 0
    outer loop
      vertex 13.804 -48.8886 1
      vertex 14.6631 -47.1484 0
      vertex 14.6631 -47.1484 1
    endloop
  endfacet
  facet normal 0.896683 -0.442673 0
    outer loop
      vertex 14.6631 -47.1484 0
      vertex 13.804 -48.8886 1
      vertex 13.804 -48.8886 0
    endloop
  endfacet
  facet normal 0.942728 -0.333562 0
    outer loop
      vertex 14.6631 -47.1484 1
      vertex 15.3313 -45.2599 0
      vertex 15.3313 -45.2599 1
    endloop
  endfacet
  facet normal 0.942728 -0.333562 0
    outer loop
      vertex 15.3313 -45.2599 0
      vertex 14.6631 -47.1484 1
      vertex 14.6631 -47.1484 0
    endloop
  endfacet
  facet normal 0.973624 -0.228157 0
    outer loop
      vertex 15.3313 -45.2599 1
      vertex 15.8086 -43.2231 0
      vertex 15.8086 -43.2231 1
    endloop
  endfacet
  facet normal 0.973624 -0.228157 0
    outer loop
      vertex 15.8086 -43.2231 0
      vertex 15.3313 -45.2599 1
      vertex 15.3313 -45.2599 0
    endloop
  endfacet
  facet normal 0.991525 -0.129913 0
    outer loop
      vertex 15.8086 -43.2231 1
      vertex 16.0949 -41.038 0
      vertex 16.0949 -41.038 1
    endloop
  endfacet
  facet normal 0.991525 -0.129913 0
    outer loop
      vertex 16.0949 -41.038 0
      vertex 15.8086 -43.2231 1
      vertex 15.8086 -43.2231 0
    endloop
  endfacet
  facet normal 0.999163 -0.0408949 0
    outer loop
      vertex 16.0949 -41.038 1
      vertex 16.1904 -38.7047 0
      vertex 16.1904 -38.7047 1
    endloop
  endfacet
  facet normal 0.999163 -0.0408949 0
    outer loop
      vertex 16.1904 -38.7047 0
      vertex 16.0949 -41.038 1
      vertex 16.0949 -41.038 0
    endloop
  endfacet
  facet normal 1 -0 0
    outer loop
      vertex 16.1904 -38.7047 1
      vertex 16.1904 -3.80072 0
      vertex 16.1904 -3.80072 1
    endloop
  endfacet
  facet normal 1 0 0
    outer loop
      vertex 16.1904 -3.80072 0
      vertex 16.1904 -38.7047 1
      vertex 16.1904 -38.7047 0
    endloop
  endfacet
  facet normal 0 1 -0
    outer loop
      vertex 16.1904 -3.80072 0
      vertex -6.80795 -3.80072 1
      vertex 16.1904 -3.80072 1
    endloop
  endfacet
  facet normal 0 1 0
    outer loop
      vertex -6.80795 -3.80072 1
      vertex 16.1904 -3.80072 0
      vertex -6.80795 -3.80072 0
    endloop
  endfacet
  facet normal -1 0 0
    outer loop
      vertex -6.80795 -12.7298 0
      vertex -6.80795 -3.80072 1
      vertex -6.80795 -3.80072 0
    endloop
  endfacet
  facet normal -1 -0 0
    outer loop
      vertex -6.80795 -3.80072 1
      vertex -6.80795 -12.7298 0
      vertex -6.80795 -12.7298 1
    endloop
  endfacet
  facet normal 0 -1 0
    outer loop
      vertex -6.80795 -12.7298 0
      vertex 4.82631 -12.7298 1
      vertex -6.80795 -12.7298 1
    endloop
  endfacet
  facet normal 0 -1 -0
    outer loop
      vertex 4.82631 -12.7298 1
      vertex -6.80795 -12.7298 0
      vertex 4.82631 -12.7298 0
    endloop
  endfacet
  facet normal -1 0 0
    outer loop
      vertex 4.82631 -38.9748 0
      vertex 4.82631 -12.7298 1
      vertex 4.82631 -12.7298 0
    endloop
  endfacet
  facet normal -1 -0 0
    outer loop
      vertex 4.82631 -12.7298 1
      vertex 4.82631 -38.9748 0
      vertex 4.82631 -38.9748 1
    endloop
  endfacet
  facet normal -0.999583 0.0288634 0
    outer loop
      vertex 4.79239 -40.1495 0
      vertex 4.82631 -38.9748 1
      vertex 4.82631 -38.9748 0
    endloop
  endfacet
  facet normal -0.999583 0.0288634 0
    outer loop
      vertex 4.82631 -38.9748 1
      vertex 4.79239 -40.1495 0
      vertex 4.79239 -40.1495 1
    endloop
  endfacet
  facet normal -0.995703 0.0925999 0
    outer loop
      vertex 4.69063 -41.2437 0
      vertex 4.79239 -40.1495 1
      vertex 4.79239 -40.1495 0
    endloop
  endfacet
  facet normal -0.995703 0.0925999 0
    outer loop
      vertex 4.79239 -40.1495 1
      vertex 4.69063 -41.2437 0
      vertex 4.69063 -41.2437 1
    endloop
  endfacet
  facet normal -0.986291 0.165014 0
    outer loop
      vertex 4.52103 -42.2574 0
      vertex 4.69063 -41.2437 1
      vertex 4.69063 -41.2437 0
    endloop
  endfacet
  facet normal -0.986291 0.165014 0
    outer loop
      vertex 4.69063 -41.2437 1
      vertex 4.52103 -42.2574 0
      vertex 4.52103 -42.2574 1
    endloop
  endfacet
  facet normal -0.969124 0.246575 0
    outer loop
      vertex 4.28357 -43.1907 0
      vertex 4.52103 -42.2574 1
      vertex 4.52103 -42.2574 0
    endloop
  endfacet
  facet normal -0.969124 0.246575 0
    outer loop
      vertex 4.52103 -42.2574 1
      vertex 4.28357 -43.1907 0
      vertex 4.28357 -43.1907 1
    endloop
  endfacet
  facet normal -0.941494 0.33703 0
    outer loop
      vertex 3.97829 -44.0435 0
      vertex 4.28357 -43.1907 1
      vertex 4.28357 -43.1907 0
    endloop
  endfacet
  facet normal -0.941494 0.33703 0
    outer loop
      vertex 4.28357 -43.1907 1
      vertex 3.97829 -44.0435 0
      vertex 3.97829 -44.0435 1
    endloop
  endfacet
  facet normal -0.900417 0.435028 0
    outer loop
      vertex 3.60516 -44.8158 0
      vertex 3.97829 -44.0435 1
      vertex 3.97829 -44.0435 0
    endloop
  endfacet
  facet normal -0.900417 0.435028 0
    outer loop
      vertex 3.97829 -44.0435 1
      vertex 3.60516 -44.8158 0
      vertex 3.60516 -44.8158 1
    endloop
  endfacet
  facet normal -0.843251 0.537521 0
    outer loop
      vertex 3.16418 -45.5076 0
      vertex 3.60516 -44.8158 1
      vertex 3.60516 -44.8158 0
    endloop
  endfacet
  facet normal -0.843251 0.537521 0
    outer loop
      vertex 3.60516 -44.8158 1
      vertex 3.16418 -45.5076 0
      vertex 3.16418 -45.5076 1
    endloop
  endfacet
  facet normal -0.771785 0.635884 0
    outer loop
      vertex 2.66563 -46.1127 0
      vertex 3.16418 -45.5076 1
      vertex 3.16418 -45.5076 0
    endloop
  endfacet
  facet normal -0.771785 0.635884 0
    outer loop
      vertex 3.16418 -45.5076 1
      vertex 2.66563 -46.1127 0
      vertex 2.66563 -46.1127 1
    endloop
  endfacet
  facet normal -0.684052 0.729433 0
    outer loop
      vertex 2.66563 -46.1127 0
      vertex 2.11977 -46.6246 1
      vertex 2.66563 -46.1127 1
    endloop
  endfacet
  facet normal -0.684052 0.729433 0
    outer loop
      vertex 2.11977 -46.6246 1
      vertex 2.66563 -46.1127 0
      vertex 2.11977 -46.6246 0
    endloop
  endfacet
  facet normal -0.57684 0.816857 0
    outer loop
      vertex 2.11977 -46.6246 0
      vertex 1.52657 -47.0435 1
      vertex 2.11977 -46.6246 1
    endloop
  endfacet
  facet normal -0.57684 0.816857 0
    outer loop
      vertex 1.52657 -47.0435 1
      vertex 2.11977 -46.6246 0
      vertex 1.52657 -47.0435 0
    endloop
  endfacet
  facet normal -0.453369 0.891323 0
    outer loop
      vertex 1.52657 -47.0435 0
      vertex 0.886047 -47.3693 1
      vertex 1.52657 -47.0435 1
    endloop
  endfacet
  facet normal -0.453369 0.891323 0
    outer loop
      vertex 0.886047 -47.3693 1
      vertex 1.52657 -47.0435 0
      vertex 0.886047 -47.3693 0
    endloop
  endfacet
  facet normal -0.320466 0.94726 0
    outer loop
      vertex 0.886047 -47.3693 0
      vertex 0.198212 -47.602 1
      vertex 0.886047 -47.3693 1
    endloop
  endfacet
  facet normal -0.320466 0.94726 0
    outer loop
      vertex 0.198212 -47.602 1
      vertex 0.886047 -47.3693 0
      vertex 0.198212 -47.602 0
    endloop
  endfacet
  facet normal -0.186562 0.982443 0
    outer loop
      vertex 0.198212 -47.602 0
      vertex -0.536926 -47.7416 1
      vertex 0.198212 -47.602 1
    endloop
  endfacet
  facet normal -0.186562 0.982443 0
    outer loop
      vertex -0.536926 -47.7416 1
      vertex 0.198212 -47.602 0
      vertex -0.536926 -47.7416 0
    endloop
  endfacet
  facet normal -0.0594486 0.998231 0
    outer loop
      vertex -0.536926 -47.7416 0
      vertex -1.31941 -47.7882 1
      vertex -0.536926 -47.7416 1
    endloop
  endfacet
  facet normal -0.0594486 0.998231 0
    outer loop
      vertex -1.31941 -47.7882 1
      vertex -0.536926 -47.7416 0
      vertex -1.31941 -47.7882 0
    endloop
  endfacet
  facet normal 0.0670495 0.99775 -0
    outer loop
      vertex -1.31941 -47.7882 0
      vertex -2.00095 -47.7424 1
      vertex -1.31941 -47.7882 1
    endloop
  endfacet
  facet normal 0.0670495 0.99775 0
    outer loop
      vertex -2.00095 -47.7424 1
      vertex -1.31941 -47.7882 0
      vertex -2.00095 -47.7424 0
    endloop
  endfacet
  facet normal 0.205572 0.978642 -0
    outer loop
      vertex -2.00095 -47.7424 0
      vertex -2.6541 -47.6052 1
      vertex -2.00095 -47.7424 1
    endloop
  endfacet
  facet normal 0.205572 0.978642 0
    outer loop
      vertex -2.6541 -47.6052 1
      vertex -2.00095 -47.7424 0
      vertex -2.6541 -47.6052 0
    endloop
  endfacet
  facet normal 0.343881 0.939013 -0
    outer loop
      vertex -2.6541 -47.6052 0
      vertex -3.27887 -47.3764 1
      vertex -2.6541 -47.6052 1
    endloop
  endfacet
  facet normal 0.343881 0.939013 0
    outer loop
      vertex -3.27887 -47.3764 1
      vertex -2.6541 -47.6052 0
      vertex -3.27887 -47.3764 0
    endloop
  endfacet
  facet normal 0.473043 0.881039 -0
    outer loop
      vertex -3.27887 -47.3764 0
      vertex -3.87524 -47.0562 1
      vertex -3.27887 -47.3764 1
    endloop
  endfacet
  facet normal 0.473043 0.881039 0
    outer loop
      vertex -3.87524 -47.0562 1
      vertex -3.27887 -47.3764 0
      vertex -3.87524 -47.0562 0
    endloop
  endfacet
  facet normal 0.586961 0.809615 -0
    outer loop
      vertex -3.87524 -47.0562 0
      vertex -4.44325 -46.6444 1
      vertex -3.87524 -47.0562 1
    endloop
  endfacet
  facet normal 0.586961 0.809615 0
    outer loop
      vertex -4.44325 -46.6444 1
      vertex -3.87524 -47.0562 0
      vertex -4.44325 -46.6444 0
    endloop
  endfacet
  facet normal 0.682075 0.731282 -0
    outer loop
      vertex -4.44325 -46.6444 0
      vertex -4.98286 -46.1411 1
      vertex -4.44325 -46.6444 1
    endloop
  endfacet
  facet normal 0.682075 0.731282 0
    outer loop
      vertex -4.98286 -46.1411 1
      vertex -4.44325 -46.6444 0
      vertex -4.98286 -46.1411 0
    endloop
  endfacet
  facet normal 0.758319 0.651884 0
    outer loop
      vertex -4.98286 -46.1411 1
      vertex -5.49409 -45.5464 0
      vertex -5.49409 -45.5464 1
    endloop
  endfacet
  facet normal 0.758319 0.651884 0
    outer loop
      vertex -5.49409 -45.5464 0
      vertex -4.98286 -46.1411 1
      vertex -4.98286 -46.1411 0
    endloop
  endfacet
  facet normal 0.821704 0.569914 0
    outer loop
      vertex -5.49409 -45.5464 1
      vertex -5.97127 -44.8584 0
      vertex -5.97127 -44.8584 1
    endloop
  endfacet
  facet normal 0.821704 0.569914 0
    outer loop
      vertex -5.97127 -44.8584 0
      vertex -5.49409 -45.5464 1
      vertex -5.49409 -45.5464 0
    endloop
  endfacet
  facet normal 0.872768 0.488135 0
    outer loop
      vertex -5.97127 -44.8584 1
      vertex -6.40903 -44.0757 0
      vertex -6.40903 -44.0757 1
    endloop
  endfacet
  facet normal 0.872768 0.488135 0
    outer loop
      vertex -6.40903 -44.0757 0
      vertex -5.97127 -44.8584 1
      vertex -5.97127 -44.8584 0
    endloop
  endfacet
  facet normal 0.910536 0.413431 0
    outer loop
      vertex -6.40903 -44.0757 1
      vertex -6.80737 -43.1984 0
      vertex -6.80737 -43.1984 1
    endloop
  endfacet
  facet normal 0.910536 0.413431 0
    outer loop
      vertex -6.80737 -43.1984 0
      vertex -6.40903 -44.0757 1
      vertex -6.40903 -44.0757 0
    endloop
  endfacet
  facet normal 0.93807 0.346446 0
    outer loop
      vertex -6.80737 -43.1984 1
      vertex -7.16631 -42.2265 0
      vertex -7.16631 -42.2265 1
    endloop
  endfacet
  facet normal 0.93807 0.346446 0
    outer loop
      vertex -7.16631 -42.2265 0
      vertex -6.80737 -43.1984 1
      vertex -6.80737 -43.1984 0
    endloop
  endfacet
  facet normal 0.957937 0.286977 0
    outer loop
      vertex -7.16631 -42.2265 1
      vertex -7.48584 -41.1599 0
      vertex -7.48584 -41.1599 1
    endloop
  endfacet
  facet normal 0.957937 0.286977 0
    outer loop
      vertex -7.48584 -41.1599 0
      vertex -7.16631 -42.2265 1
      vertex -7.16631 -42.2265 0
    endloop
  endfacet
  facet normal 0.972117 0.234498 0
    outer loop
      vertex -7.48584 -41.1599 1
      vertex -7.76595 -39.9987 0
      vertex -7.76595 -39.9987 1
    endloop
  endfacet
  facet normal 0.972117 0.234498 0
    outer loop
      vertex -7.76595 -39.9987 0
      vertex -7.48584 -41.1599 1
      vertex -7.48584 -41.1599 0
    endloop
  endfacet
  facet normal 0.982122 0.188244 0
    outer loop
      vertex -7.76595 -39.9987 1
      vertex -8.00665 -38.7429 0
      vertex -8.00665 -38.7429 1
    endloop
  endfacet
  facet normal 0.982122 0.188244 0
    outer loop
      vertex -8.00665 -38.7429 0
      vertex -7.76595 -39.9987 1
      vertex -7.76595 -39.9987 0
    endloop
  endfacet
  facet normal -0.146183 0.989258 0
    outer loop
      vertex -8.00665 -38.7429 0
      vertex -19.2545 -40.405 1
      vertex -8.00665 -38.7429 1
    endloop
  endfacet
  facet normal -0.146183 0.989258 0
    outer loop
      vertex -19.2545 -40.405 1
      vertex -8.00665 -38.7429 0
      vertex -19.2545 -40.405 0
    endloop
  endfacet
  facet normal -0.983494 -0.180939 0
    outer loop
      vertex -18.8538 -42.583 0
      vertex -19.2545 -40.405 1
      vertex -19.2545 -40.405 0
    endloop
  endfacet
  facet normal -0.983494 -0.180939 0
    outer loop
      vertex -19.2545 -40.405 1
      vertex -18.8538 -42.583 0
      vertex -18.8538 -42.583 1
    endloop
  endfacet
  facet normal -0.966395 -0.257061 0
    outer loop
      vertex -18.3143 -44.6112 0
      vertex -18.8538 -42.583 1
      vertex -18.8538 -42.583 0
    endloop
  endfacet
  facet normal -0.966395 -0.257061 0
    outer loop
      vertex -18.8538 -42.583 1
      vertex -18.3143 -44.6112 0
      vertex -18.3143 -44.6112 1
    endloop
  endfacet
  facet normal -0.940528 -0.339716 0
    outer loop
      vertex -17.6359 -46.4894 0
      vertex -18.3143 -44.6112 1
      vertex -18.3143 -44.6112 0
    endloop
  endfacet
  facet normal -0.940528 -0.339716 0
    outer loop
      vertex -18.3143 -44.6112 1
      vertex -17.6359 -46.4894 0
      vertex -17.6359 -46.4894 1
    endloop
  endfacet
  facet normal -0.904044 -0.427439 0
    outer loop
      vertex -16.8187 -48.2178 0
      vertex -17.6359 -46.4894 1
      vertex -17.6359 -46.4894 0
    endloop
  endfacet
  facet normal -0.904044 -0.427439 0
    outer loop
      vertex -17.6359 -46.4894 1
      vertex -16.8187 -48.2178 0
      vertex -16.8187 -48.2178 1
    endloop
  endfacet
  facet normal -0.855348 -0.518053 0
    outer loop
      vertex -15.8626 -49.7964 0
      vertex -16.8187 -48.2178 1
      vertex -16.8187 -48.2178 0
    endloop
  endfacet
  facet normal -0.855348 -0.518053 0
    outer loop
      vertex -16.8187 -48.2178 1
      vertex -15.8626 -49.7964 0
      vertex -15.8626 -49.7964 1
    endloop
  endfacet
  facet normal -0.793703 -0.608306 0
    outer loop
      vertex -14.7677 -51.225 0
      vertex -15.8626 -49.7964 1
      vertex -15.8626 -49.7964 0
    endloop
  endfacet
  facet normal -0.793703 -0.608306 0
    outer loop
      vertex -15.8626 -49.7964 1
      vertex -14.7677 -51.225 0
      vertex -14.7677 -51.225 1
    endloop
  endfacet
  facet normal -0.719684 -0.694302 0
    outer loop
      vertex -13.534 -52.5038 0
      vertex -14.7677 -51.225 1
      vertex -14.7677 -51.225 0
    endloop
  endfacet
  facet normal -0.719684 -0.694302 0
    outer loop
      vertex -14.7677 -51.225 1
      vertex -13.534 -52.5038 0
      vertex -13.534 -52.5038 1
    endloop
  endfacet
  facet normal -0.633593 -0.773667 0
    outer loop
      vertex -13.534 -52.5038 0
      vertex -12.1692 -53.6215 1
      vertex -13.534 -52.5038 1
    endloop
  endfacet
  facet normal -0.633593 -0.773667 -0
    outer loop
      vertex -12.1692 -53.6215 1
      vertex -13.534 -52.5038 0
      vertex -12.1692 -53.6215 0
    endloop
  endfacet
  facet normal -0.536464 -0.843923 0
    outer loop
      vertex -12.1692 -53.6215 0
      vertex -10.6815 -54.5672 1
      vertex -12.1692 -53.6215 1
    endloop
  endfacet
  facet normal -0.536464 -0.843923 -0
    outer loop
      vertex -10.6815 -54.5672 1
      vertex -12.1692 -53.6215 0
      vertex -10.6815 -54.5672 0
    endloop
  endfacet
  facet normal -0.433002 -0.901393 0
    outer loop
      vertex -10.6815 -54.5672 0
      vertex -9.07066 -55.341 1
      vertex -10.6815 -54.5672 1
    endloop
  endfacet
  facet normal -0.433002 -0.901393 -0
    outer loop
      vertex -9.07066 -55.341 1
      vertex -10.6815 -54.5672 0
      vertex -9.07066 -55.341 0
    endloop
  endfacet
  facet normal -0.327948 -0.944696 0
    outer loop
      vertex -9.07066 -55.341 0
      vertex -7.33681 -55.9429 1
      vertex -9.07066 -55.341 1
    endloop
  endfacet
  facet normal -0.327948 -0.944696 -0
    outer loop
      vertex -7.33681 -55.9429 1
      vertex -9.07066 -55.341 0
      vertex -7.33681 -55.9429 0
    endloop
  endfacet
  facet normal -0.225548 -0.974232 0
    outer loop
      vertex -7.33681 -55.9429 0
      vertex -5.4799 -56.3728 1
      vertex -7.33681 -55.9429 1
    endloop
  endfacet
  facet normal -0.225548 -0.974232 -0
    outer loop
      vertex -5.4799 -56.3728 1
      vertex -7.33681 -55.9429 0
      vertex -5.4799 -56.3728 0
    endloop
  endfacet
  facet normal -0.129164 -0.991623 0
    outer loop
      vertex -5.4799 -56.3728 0
      vertex -3.49994 -56.6307 1
      vertex -5.4799 -56.3728 1
    endloop
  endfacet
  facet normal -0.129164 -0.991623 -0
    outer loop
      vertex -3.49994 -56.6307 1
      vertex -5.4799 -56.3728 0
      vertex -3.49994 -56.6307 0
    endloop
  endfacet
  facet normal -0.0408598 -0.999165 0
    outer loop
      vertex -3.49994 -56.6307 0
      vertex -1.39694 -56.7167 1
      vertex -3.49994 -56.6307 1
    endloop
  endfacet
  facet normal -0.0408598 -0.999165 -0
    outer loop
      vertex -1.39694 -56.7167 1
      vertex -3.49994 -56.6307 0
      vertex -1.39694 -56.7167 0
    endloop
  endfacet
  facet normal 0.0428605 -0.999081 0
    outer loop
      vertex -1.39694 -56.7167 0
      vertex 0.882782 -56.6189 1
      vertex -1.39694 -56.7167 1
    endloop
  endfacet
  facet normal 0.0428605 -0.999081 0
    outer loop
      vertex 0.882782 -56.6189 1
      vertex -1.39694 -56.7167 0
      vertex 0.882782 -56.6189 0
    endloop
  endfacet
endsolid OpenSCAD_Model
