  0
SECTION
  2
BLOCKS
  0
ENDSEC
  0
SECTION
  2
ENTITIES
  0
LINE
  8
0
 10
0.882782
 20
-56.6189
 11
3.01736
 21
-56.3254
  0
LINE
  8
0
 10
3.01736
 20
-56.3254
 11
5.00679
 21
-55.8364
  0
LINE
  8
0
 10
5.00679
 20
-55.8364
 11
6.85106
 21
-55.1517
  0
LINE
  8
0
 10
6.85106
 20
-55.1517
 11
8.55019
 21
-54.2715
  0
LINE
  8
0
 10
8.55019
 20
-54.2715
 11
10.1042
 21
-53.1956
  0
LINE
  8
0
 10
10.1042
 20
-53.1956
 11
11.513
 21
-51.9241
  0
LINE
  8
0
 10
11.513
 20
-51.9241
 11
12.7539
 21
-50.4805
  0
LINE
  8
0
 10
12.7539
 20
-50.4805
 11
13.804
 21
-48.8886
  0
LINE
  8
0
 10
13.804
 20
-48.8886
 11
14.6631
 21
-47.1484
  0
LINE
  8
0
 10
14.6631
 20
-47.1484
 11
15.3313
 21
-45.2599
  0
LINE
  8
0
 10
15.3313
 20
-45.2599
 11
15.8086
 21
-43.2231
  0
LINE
  8
0
 10
15.8086
 20
-43.2231
 11
16.0949
 21
-41.038
  0
LINE
  8
0
 10
16.0949
 20
-41.038
 11
16.1904
 21
-38.7047
  0
LINE
  8
0
 10
16.1904
 20
-38.7047
 11
16.1904
 21
-3.80072
  0
LINE
  8
0
 10
16.1904
 20
-3.80072
 11
-6.80795
 21
-3.80072
  0
LINE
  8
0
 10
-6.80795
 20
-3.80072
 11
-6.80795
 21
-12.7298
  0
LINE
  8
0
 10
-6.80795
 20
-12.7298
 11
4.82631
 21
-12.7298
  0
LINE
  8
0
 10
4.82631
 20
-12.7298
 11
4.82631
 21
-38.9748
  0
LINE
  8
0
 10
4.82631
 20
-38.9748
 11
4.79239
 21
-40.1495
  0
LINE
  8
0
 10
4.79239
 20
-40.1495
 11
4.69063
 21
-41.2437
  0
LINE
  8
0
 10
4.69063
 20
-41.2437
 11
4.52103
 21
-42.2574
  0
LINE
  8
0
 10
4.52103
 20
-42.2574
 11
4.28357
 21
-43.1907
  0
LINE
  8
0
 10
4.28357
 20
-43.1907
 11
3.97829
 21
-44.0435
  0
LINE
  8
0
 10
3.97829
 20
-44.0435
 11
3.60516
 21
-44.8158
  0
LINE
  8
0
 10
3.60516
 20
-44.8158
 11
3.16418
 21
-45.5076
  0
LINE
  8
0
 10
3.16418
 20
-45.5076
 11
2.66563
 21
-46.1127
  0
LINE
  8
0
 10
2.66563
 20
-46.1127
 11
2.11977
 21
-46.6246
  0
LINE
  8
0
 10
2.11977
 20
-46.6246
 11
1.52657
 21
-47.0435
  0
LINE
  8
0
 10
1.52657
 20
-47.0435
 11
0.886047
 21
-47.3693
  0
LINE
  8
0
 10
0.886047
 20
-47.3693
 11
0.198212
 21
-47.602
  0
LINE
  8
0
 10
0.198212
 20
-47.602
 11
-0.536926
 21
-47.7416
  0
LINE
  8
0
 10
-0.536926
 20
-47.7416
 11
-1.31941
 21
-47.7882
  0
LINE
  8
0
 10
-1.31941
 20
-47.7882
 11
-2.00095
 21
-47.7424
  0
LINE
  8
0
 10
-2.00095
 20
-47.7424
 11
-2.6541
 21
-47.6052
  0
LINE
  8
0
 10
-2.6541
 20
-47.6052
 11
-3.27887
 21
-47.3764
  0
LINE
  8
0
 10
-3.27887
 20
-47.3764
 11
-3.87524
 21
-47.0562
  0
LINE
  8
0
 10
-3.87524
 20
-47.0562
 11
-4.44325
 21
-46.6444
  0
LINE
  8
0
 10
-4.44325
 20
-46.6444
 11
-4.98286
 21
-46.1411
  0
LINE
  8
0
 10
-4.98286
 20
-46.1411
 11
-5.49409
 21
-45.5464
  0
LINE
  8
0
 10
-5.49409
 20
-45.5464
 11
-5.97127
 21
-44.8584
  0
LINE
  8
0
 10
-5.97127
 20
-44.8584
 11
-6.40903
 21
-44.0757
  0
LINE
  8
0
 10
-6.40903
 20
-44.0757
 11
-6.80737
 21
-43.1984
  0
LINE
  8
0
 10
-6.80737
 20
-43.1984
 11
-7.16631
 21
-42.2265
  0
LINE
  8
0
 10
-7.16631
 20
-42.2265
 11
-7.48584
 21
-41.1599
  0
LINE
  8
0
 10
-7.48584
 20
-41.1599
 11
-7.76595
 21
-39.9987
  0
LINE
  8
0
 10
-7.76595
 20
-39.9987
 11
-8.00665
 21
-38.7429
  0
LINE
  8
0
 10
-8.00665
 20
-38.7429
 11
-19.2545
 21
-40.405
  0
LINE
  8
0
 10
-19.2545
 20
-40.405
 11
-18.8538
 21
-42.583
  0
LINE
  8
0
 10
-18.8538
 20
-42.583
 11
-18.3143
 21
-44.6112
  0
LINE
  8
0
 10
-18.3143
 20
-44.6112
 11
-17.6359
 21
-46.4894
  0
LINE
  8
0
 10
-17.6359
 20
-46.4894
 11
-16.8187
 21
-48.2178
  0
LINE
  8
0
 10
-16.8187
 20
-48.2178
 11
-15.8626
 21
-49.7964
  0
LINE
  8
0
 10
-15.8626
 20
-49.7964
 11
-14.7677
 21
-51.225
  0
LINE
  8
0
 10
-14.7677
 20
-51.225
 11
-13.534
 21
-52.5038
  0
LINE
  8
0
 10
-13.534
 20
-52.5038
 11
-12.1692
 21
-53.6215
  0
LINE
  8
0
 10
-12.1692
 20
-53.6215
 11
-10.6815
 21
-54.5672
  0
LINE
  8
0
 10
-10.6815
 20
-54.5672
 11
-9.07066
 21
-55.341
  0
LINE
  8
0
 10
-9.07066
 20
-55.341
 11
-7.33681
 21
-55.9429
  0
LINE
  8
0
 10
-7.33681
 20
-55.9429
 11
-5.4799
 21
-56.3728
  0
LINE
  8
0
 10
-5.4799
 20
-56.3728
 11
-3.49994
 21
-56.6307
  0
LINE
  8
0
 10
-3.49994
 20
-56.6307
 11
-1.39694
 21
-56.7167
  0
LINE
  8
0
 10
-1.39694
 20
-56.7167
 11
0.882782
 21
-56.6189
  0
ENDSEC
  0
SECTION
  2
OBJECTS
  0
DICTIONARY
  0
ENDSEC
  0
EOF
