solid OpenSCAD_Model
  facet normal 0 0 -1
    outer loop
      vertex 2.08548 -21.9812 0
      vertex -1.71545 -21.9812 0
      vertex 2.08548 -7.53783 0
    endloop
  endfacet
  facet normal 0 0 -1
    outer loop
      vertex 2.08548 -7.53783 0
      vertex 7.31656 -4.60025 0
      vertex 7.31656 -7.53783 0
    endloop
  endfacet
  facet normal 0 0 -1
    outer loop
      vertex -1.71545 -7.53783 0
      vertex 2.08548 -7.53783 0
      vertex -1.71545 -21.9812 0
    endloop
  endfacet
  facet normal 0 0 -1
    outer loop
      vertex -1.71545 -7.53783 0
      vertex 7.31656 -4.60025 0
      vertex 2.08548 -7.53783 0
    endloop
  endfacet
  facet normal 0 0 -1
    outer loop
      vertex -6.94635 -4.60025 0
      vertex -1.71545 -7.53783 0
      vertex -6.94635 -7.53783 0
    endloop
  endfacet
  facet normal 0 0 -1
    outer loop
      vertex -1.71545 -7.53783 0
      vertex -6.94635 -4.60025 0
      vertex 7.31656 -4.60025 0
    endloop
  endfacet
  facet normal 0 0 1
    outer loop
      vertex 7.31656 -4.60025 1
      vertex 2.08548 -7.53783 1
      vertex 7.31656 -7.53783 1
    endloop
  endfacet
  facet normal 0 0 1
    outer loop
      vertex 2.08548 -7.53783 1
      vertex -1.71545 -7.53783 1
      vertex 2.08548 -21.9812 1
    endloop
  endfacet
  facet normal 0 0 1
    outer loop
      vertex 7.31656 -4.60025 1
      vertex -1.71545 -7.53783 1
      vertex 2.08548 -7.53783 1
    endloop
  endfacet
  facet normal -0 0 1
    outer loop
      vertex -6.94635 -4.60025 1
      vertex -1.71545 -7.53783 1
      vertex 7.31656 -4.60025 1
    endloop
  endfacet
  facet normal 0 0 1
    outer loop
      vertex -1.71545 -7.53783 1
      vertex -6.94635 -4.60025 1
      vertex -6.94635 -7.53783 1
    endloop
  endfacet
  facet normal 0 0 1
    outer loop
      vertex 2.08548 -21.9812 1
      vertex -1.71545 -7.53783 1
      vertex -1.71545 -21.9812 1
    endloop
  endfacet
  facet normal 0 -1 0
    outer loop
      vertex 2.08548 -7.53783 0
      vertex 7.31656 -7.53783 1
      vertex 2.08548 -7.53783 1
    endloop
  endfacet
  facet normal 0 -1 -0
    outer loop
      vertex 7.31656 -7.53783 1
      vertex 2.08548 -7.53783 0
      vertex 7.31656 -7.53783 0
    endloop
  endfacet
  facet normal 1 -0 0
    outer loop
      vertex 7.31656 -7.53783 1
      vertex 7.31656 -4.60025 0
      vertex 7.31656 -4.60025 1
    endloop
  endfacet
  facet normal 1 0 0
    outer loop
      vertex 7.31656 -4.60025 0
      vertex 7.31656 -7.53783 1
      vertex 7.31656 -7.53783 0
    endloop
  endfacet
  facet normal 0 1 -0
    outer loop
      vertex 7.31656 -4.60025 0
      vertex -6.94635 -4.60025 1
      vertex 7.31656 -4.60025 1
    endloop
  endfacet
  facet normal 0 1 0
    outer loop
      vertex -6.94635 -4.60025 1
      vertex 7.31656 -4.60025 0
      vertex -6.94635 -4.60025 0
    endloop
  endfacet
  facet normal -1 0 0
    outer loop
      vertex -6.94635 -7.53783 0
      vertex -6.94635 -4.60025 1
      vertex -6.94635 -4.60025 0
    endloop
  endfacet
  facet normal -1 -0 0
    outer loop
      vertex -6.94635 -4.60025 1
      vertex -6.94635 -7.53783 0
      vertex -6.94635 -7.53783 1
    endloop
  endfacet
  facet normal 0 -1 0
    outer loop
      vertex -6.94635 -7.53783 0
      vertex -1.71545 -7.53783 1
      vertex -6.94635 -7.53783 1
    endloop
  endfacet
  facet normal 0 -1 -0
    outer loop
      vertex -1.71545 -7.53783 1
      vertex -6.94635 -7.53783 0
      vertex -1.71545 -7.53783 0
    endloop
  endfacet
  facet normal -1 0 0
    outer loop
      vertex -1.71545 -21.9812 0
      vertex -1.71545 -7.53783 1
      vertex -1.71545 -7.53783 0
    endloop
  endfacet
  facet normal -1 -0 0
    outer loop
      vertex -1.71545 -7.53783 1
      vertex -1.71545 -21.9812 0
      vertex -1.71545 -21.9812 1
    endloop
  endfacet
  facet normal 0 -1 0
    outer loop
      vertex -1.71545 -21.9812 0
      vertex 2.08548 -21.9812 1
      vertex -1.71545 -21.9812 1
    endloop
  endfacet
  facet normal 0 -1 -0
    outer loop
      vertex 2.08548 -21.9812 1
      vertex -1.71545 -21.9812 0
      vertex 2.08548 -21.9812 0
    endloop
  endfacet
  facet normal 1 -0 0
    outer loop
      vertex 2.08548 -21.9812 1
      vertex 2.08548 -7.53783 0
      vertex 2.08548 -7.53783 1
    endloop
  endfacet
  facet normal 1 0 0
    outer loop
      vertex 2.08548 -7.53783 0
      vertex 2.08548 -21.9812 1
      vertex 2.08548 -21.9812 0
    endloop
  endfacet
endsolid OpenSCAD_Model
