solid OpenSCAD_Model
  facet normal 0 0 -1
    outer loop
      vertex 36.5828 -110.371 0
      vertex 35.1906 -97.5799 0
      vertex 36.5828 -97.3579 0
    endloop
  endfacet
  facet normal 0 0 -1
    outer loop
      vertex 33.8851 -97.7678 0
      vertex 36.5828 -110.371 0
      vertex 34.2768 -110.849 0
    endloop
  endfacet
  facet normal 0 0 -1
    outer loop
      vertex 36.5828 -110.371 0
      vertex 33.8851 -97.7678 0
      vertex 35.1906 -97.5799 0
    endloop
  endfacet
  facet normal 0 0 -1
    outer loop
      vertex 34.2768 -110.849 0
      vertex 32.6664 -97.9216 0
      vertex 33.8851 -97.7678 0
    endloop
  endfacet
  facet normal 0 0 -1
    outer loop
      vertex 31.5344 -98.0411 0
      vertex 34.2768 -110.849 0
      vertex 31.9971 -111.254 0
    endloop
  endfacet
  facet normal 0 0 -1
    outer loop
      vertex 34.2768 -110.849 0
      vertex 31.5344 -98.0411 0
      vertex 32.6664 -97.9216 0
    endloop
  endfacet
  facet normal 0 0 -1
    outer loop
      vertex 31.9971 -111.254 0
      vertex 30.4891 -98.1265 0
      vertex 31.5344 -98.0411 0
    endloop
  endfacet
  facet normal 0 0 -1
    outer loop
      vertex 29.5306 -98.1778 0
      vertex 31.9971 -111.254 0
      vertex 29.7437 -111.585 0
    endloop
  endfacet
  facet normal 0 0 -1
    outer loop
      vertex 31.9971 -111.254 0
      vertex 29.5306 -98.1778 0
      vertex 30.4891 -98.1265 0
    endloop
  endfacet
  facet normal 0 0 -1
    outer loop
      vertex 29.7437 -111.585 0
      vertex 28.6589 -98.1948 0
      vertex 29.5306 -98.1778 0
    endloop
  endfacet
  facet normal 0 0 -1
    outer loop
      vertex 27.5165 -111.843 0
      vertex 28.6589 -98.1948 0
      vertex 29.7437 -111.585 0
    endloop
  endfacet
  facet normal 0 0 -1
    outer loop
      vertex 27.5165 -111.843 0
      vertex 26.7815 -98.1363 0
      vertex 28.6589 -98.1948 0
    endloop
  endfacet
  facet normal 0 0 -1
    outer loop
      vertex 25.3155 -112.027 0
      vertex 26.7815 -98.1363 0
      vertex 27.5165 -111.843 0
    endloop
  endfacet
  facet normal 0 0 -1
    outer loop
      vertex 25.3155 -112.027 0
      vertex 25.0145 -97.9608 0
      vertex 26.7815 -98.1363 0
    endloop
  endfacet
  facet normal 0 0 -1
    outer loop
      vertex 23.1408 -112.137 0
      vertex 25.0145 -97.9608 0
      vertex 25.3155 -112.027 0
    endloop
  endfacet
  facet normal -0 0 -1
    outer loop
      vertex 25.0145 -97.9608 0
      vertex 23.1408 -112.137 0
      vertex 23.3579 -97.6682 0
    endloop
  endfacet
  facet normal 0 0 -1
    outer loop
      vertex 20.9924 -112.174 0
      vertex 23.3579 -97.6682 0
      vertex 23.1408 -112.137 0
    endloop
  endfacet
  facet normal -0 0 -1
    outer loop
      vertex 23.3579 -97.6682 0
      vertex 20.9924 -112.174 0
      vertex 21.8117 -97.2587 0
    endloop
  endfacet
  facet normal 0 0 -1
    outer loop
      vertex 18.0487 -112.052 0
      vertex 21.8117 -97.2587 0
      vertex 20.9924 -112.174 0
    endloop
  endfacet
  facet normal -0 0 -1
    outer loop
      vertex 21.8117 -97.2587 0
      vertex 18.0487 -112.052 0
      vertex 20.3759 -96.732 0
    endloop
  endfacet
  facet normal 0 0 -1
    outer loop
      vertex 15.255 -111.688 0
      vertex 20.3759 -96.732 0
      vertex 18.0487 -112.052 0
    endloop
  endfacet
  facet normal -0 0 -1
    outer loop
      vertex 20.3759 -96.732 0
      vertex 15.255 -111.688 0
      vertex 19.0505 -96.0884 0
    endloop
  endfacet
  facet normal 0 0 -1
    outer loop
      vertex 12.6111 -111.08 0
      vertex 19.0505 -96.0884 0
      vertex 15.255 -111.688 0
    endloop
  endfacet
  facet normal -0 0 -1
    outer loop
      vertex 19.0505 -96.0884 0
      vertex 12.6111 -111.08 0
      vertex 17.8355 -95.3277 0
    endloop
  endfacet
  facet normal 0 0 -1
    outer loop
      vertex 10.1171 -110.228 0
      vertex 17.8355 -95.3277 0
      vertex 12.6111 -111.08 0
    endloop
  endfacet
  facet normal 0 0 -1
    outer loop
      vertex 7.7729 -109.134 0
      vertex 17.8355 -95.3277 0
      vertex 10.1171 -110.228 0
    endloop
  endfacet
  facet normal -0 0 -1
    outer loop
      vertex 17.8355 -95.3277 0
      vertex 7.7729 -109.134 0
      vertex 16.7128 -94.4398 0
    endloop
  endfacet
  facet normal 0 0 -1
    outer loop
      vertex 5.57863 -107.796 0
      vertex 16.7128 -94.4398 0
      vertex 7.7729 -109.134 0
    endloop
  endfacet
  facet normal -0 0 -1
    outer loop
      vertex 16.7128 -94.4398 0
      vertex 5.57863 -107.796 0
      vertex 15.6637 -93.4138 0
    endloop
  endfacet
  facet normal 0 0 -1
    outer loop
      vertex 3.53421 -106.215 0
      vertex 15.6637 -93.4138 0
      vertex 5.57863 -107.796 0
    endloop
  endfacet
  facet normal 0 0 -1
    outer loop
      vertex 1.61864 -104.357 0
      vertex 15.6637 -93.4138 0
      vertex 3.53421 -106.215 0
    endloop
  endfacet
  facet normal 0 0 -1
    outer loop
      vertex 23.2815 -79.9547 0
      vertex 10.1209 -68.6603 0
      vertex 11.4802 -66.9465 0
    endloop
  endfacet
  facet normal -0 0 -1
    outer loop
      vertex 15.6637 -93.4138 0
      vertex 1.61864 -104.357 0
      vertex 14.6882 -92.2497 0
    endloop
  endfacet
  facet normal 0 0 -1
    outer loop
      vertex -0.189087 -102.187 0
      vertex 14.6882 -92.2497 0
      vertex 1.61864 -104.357 0
    endloop
  endfacet
  facet normal 0 0 -1
    outer loop
      vertex 14.8115 -85.1174 0
      vertex 8.60387 -70.0625 0
      vertex 10.1209 -68.6603 0
    endloop
  endfacet
  facet normal -0 0 -1
    outer loop
      vertex 14.6882 -92.2497 0
      vertex -0.189087 -102.187 0
      vertex 13.7864 -90.9475 0
    endloop
  endfacet
  facet normal 0 0 -1
    outer loop
      vertex 14.8115 -85.1174 0
      vertex 6.92902 -71.1531 0
      vertex 8.60387 -70.0625 0
    endloop
  endfacet
  facet normal 0 0 -1
    outer loop
      vertex -1.88898 -99.7053 0
      vertex 13.7864 -90.9475 0
      vertex -0.189087 -102.187 0
    endloop
  endfacet
  facet normal -0 0 -1
    outer loop
      vertex 13.7864 -90.9475 0
      vertex -1.88898 -99.7053 0
      vertex 12.9582 -89.5072 0
    endloop
  endfacet
  facet normal 0 0 -1
    outer loop
      vertex -3.48105 -96.9123 0
      vertex 12.9582 -89.5072 0
      vertex -1.88898 -99.7053 0
    endloop
  endfacet
  facet normal -0 0 -1
    outer loop
      vertex 12.9582 -89.5072 0
      vertex -3.48105 -96.9123 0
      vertex 12.2037 -87.9289 0
    endloop
  endfacet
  facet normal 0 0 -1
    outer loop
      vertex -4.96527 -93.8077 0
      vertex 12.2037 -87.9289 0
      vertex -3.48105 -96.9123 0
    endloop
  endfacet
  facet normal -0 0 -1
    outer loop
      vertex 12.2037 -87.9289 0
      vertex -4.96527 -93.8077 0
      vertex 11.5228 -86.2125 0
    endloop
  endfacet
  facet normal 0 0 -1
    outer loop
      vertex 11.5228 -86.2125 0
      vertex 5.09639 -71.9321 0
      vertex 6.92902 -71.1531 0
    endloop
  endfacet
  facet normal 0 0 -1
    outer loop
      vertex -6.34167 -90.3915 0
      vertex 11.5228 -86.2125 0
      vertex -4.96527 -93.8077 0
    endloop
  endfacet
  facet normal 0 0 -1
    outer loop
      vertex -7.61023 -86.6637 0
      vertex 11.5228 -86.2125 0
      vertex -6.34167 -90.3915 0
    endloop
  endfacet
  facet normal 0 0 -1
    outer loop
      vertex 11.5228 -86.2125 0
      vertex 3.10599 -72.3995 0
      vertex 5.09639 -71.9321 0
    endloop
  endfacet
  facet normal 0 -0 -1
    outer loop
      vertex 0.957809 -72.5553 0
      vertex 11.5228 -86.2125 0
      vertex -7.61023 -86.6637 0
    endloop
  endfacet
  facet normal 0 0 -1
    outer loop
      vertex 11.5228 -86.2125 0
      vertex 0.957809 -72.5553 0
      vertex 3.10599 -72.3995 0
    endloop
  endfacet
  facet normal -0 0 -1
    outer loop
      vertex 0.957809 -72.5553 0
      vertex -7.61023 -86.6637 0
      vertex -1.1913 -72.3995 0
    endloop
  endfacet
  facet normal -0 0 -1
    outer loop
      vertex -1.1913 -72.3995 0
      vertex -7.61023 -86.6637 0
      vertex -3.18394 -71.9321 0
    endloop
  endfacet
  facet normal -0 0 -1
    outer loop
      vertex -3.18394 -71.9321 0
      vertex -7.61023 -86.6637 0
      vertex -5.02014 -71.1531 0
    endloop
  endfacet
  facet normal 0 0 -1
    outer loop
      vertex -11.1667 -85.7198 0
      vertex -5.02014 -71.1531 0
      vertex -7.61023 -86.6637 0
    endloop
  endfacet
  facet normal 0 0 -1
    outer loop
      vertex -14.4733 -84.434 0
      vertex -5.02014 -71.1531 0
      vertex -11.1667 -85.7198 0
    endloop
  endfacet
  facet normal -0 0 -1
    outer loop
      vertex -5.02014 -71.1531 0
      vertex -14.4733 -84.434 0
      vertex -6.69987 -70.0625 0
    endloop
  endfacet
  facet normal 0 0 -1
    outer loop
      vertex -17.5302 -82.8064 0
      vertex -6.69987 -70.0625 0
      vertex -14.4733 -84.434 0
    endloop
  endfacet
  facet normal -0 0 -1
    outer loop
      vertex -6.69987 -70.0625 0
      vertex -17.5302 -82.8064 0
      vertex -8.22316 -68.6603 0
    endloop
  endfacet
  facet normal 0 0 -1
    outer loop
      vertex -20.3371 -80.8369 0
      vertex -8.22316 -68.6603 0
      vertex -17.5302 -82.8064 0
    endloop
  endfacet
  facet normal -0 0 -1
    outer loop
      vertex -8.22316 -68.6603 0
      vertex -20.3371 -80.8369 0
      vertex -9.58997 -66.9465 0
    endloop
  endfacet
  facet normal 0 0 -1
    outer loop
      vertex -22.8943 -78.5255 0
      vertex -9.58997 -66.9465 0
      vertex -20.3371 -80.8369 0
    endloop
  endfacet
  facet normal 0 0 -1
    outer loop
      vertex -25.2016 -75.8724 0
      vertex -9.58997 -66.9465 0
      vertex -22.8943 -78.5255 0
    endloop
  endfacet
  facet normal -0 0 -1
    outer loop
      vertex -9.58997 -66.9465 0
      vertex -25.2016 -75.8724 0
      vertex -10.8003 -64.9211 0
    endloop
  endfacet
  facet normal 0 0 -1
    outer loop
      vertex -27.2591 -72.8773 0
      vertex -10.8003 -64.9211 0
      vertex -25.2016 -75.8724 0
    endloop
  endfacet
  facet normal -0 0 -1
    outer loop
      vertex -10.8003 -64.9211 0
      vertex -27.2591 -72.8773 0
      vertex -11.8513 -62.5933 0
    endloop
  endfacet
  facet normal 0 0 -1
    outer loop
      vertex -29.0536 -69.5431 0
      vertex -11.8513 -62.5933 0
      vertex -27.2591 -72.8773 0
    endloop
  endfacet
  facet normal -0 0 -1
    outer loop
      vertex -11.8513 -62.5933 0
      vertex -29.0536 -69.5431 0
      vertex -12.7407 -59.9723 0
    endloop
  endfacet
  facet normal 0 0 -1
    outer loop
      vertex -30.5721 -65.8723 0
      vertex -12.7407 -59.9723 0
      vertex -29.0536 -69.5431 0
    endloop
  endfacet
  facet normal 0 -0 -1
    outer loop
      vertex -33.8384 -36.3458 0
      vertex -14.7618 -42.4697 0
      vertex -34.0231 -42.4697 0
    endloop
  endfacet
  facet normal 0 0 -1
    outer loop
      vertex -31.8144 -61.8649 0
      vertex -12.7407 -59.9723 0
      vertex -30.5721 -65.8723 0
    endloop
  endfacet
  facet normal 0 -0 -1
    outer loop
      vertex -33.2843 -30.6741 0
      vertex -14.7618 -42.4697 0
      vertex -33.8384 -36.3458 0
    endloop
  endfacet
  facet normal -0 0 -1
    outer loop
      vertex -12.7407 -59.9723 0
      vertex -31.8144 -61.8649 0
      vertex -13.4683 -57.0582 0
    endloop
  endfacet
  facet normal 0 -0 -1
    outer loop
      vertex -32.3607 -25.4548 0
      vertex -14.7618 -42.4697 0
      vertex -33.2843 -30.6741 0
    endloop
  endfacet
  facet normal 0 0 -1
    outer loop
      vertex -32.7807 -57.521 0
      vertex -13.4683 -57.0582 0
      vertex -31.8144 -61.8649 0
    endloop
  endfacet
  facet normal -0 0 -1
    outer loop
      vertex -13.4683 -57.0582 0
      vertex -32.7807 -57.521 0
      vertex -14.0342 -53.8508 0
    endloop
  endfacet
  facet normal 0 -0 -1
    outer loop
      vertex -31.0678 -20.6877 0
      vertex -14.7618 -42.4697 0
      vertex -32.3607 -25.4548 0
    endloop
  endfacet
  facet normal 0 0 -1
    outer loop
      vertex -33.4709 -52.8405 0
      vertex -14.0342 -53.8508 0
      vertex -32.7807 -57.521 0
    endloop
  endfacet
  facet normal 0 -0 -1
    outer loop
      vertex -29.4054 -16.3728 0
      vertex -14.7618 -42.4697 0
      vertex -31.0678 -20.6877 0
    endloop
  endfacet
  facet normal 0 0 -1
    outer loop
      vertex -14.0342 -53.8508 0
      vertex -33.4709 -52.8405 0
      vertex -14.4384 -50.3503 0
    endloop
  endfacet
  facet normal 0 0 -1
    outer loop
      vertex -14.681 -46.5566 0
      vertex -34.0231 -42.4697 0
      vertex -14.7618 -42.4697 0
    endloop
  endfacet
  facet normal 0 0 -1
    outer loop
      vertex -33.885 -47.8234 0
      vertex -14.4384 -50.3503 0
      vertex -33.4709 -52.8405 0
    endloop
  endfacet
  facet normal 0 0 -1
    outer loop
      vertex -14.4384 -50.3503 0
      vertex -33.885 -47.8234 0
      vertex -14.681 -46.5566 0
    endloop
  endfacet
  facet normal 0 0 -1
    outer loop
      vertex -34.0231 -42.4697 0
      vertex -14.681 -46.5566 0
      vertex -33.885 -47.8234 0
    endloop
  endfacet
  facet normal 0 0 -1
    outer loop
      vertex -14.7618 -42.4697 0
      vertex -27.3736 -12.5103 0
      vertex -24.9724 -9.10004 0
    endloop
  endfacet
  facet normal 0 -0 -1
    outer loop
      vertex -27.3736 -12.5103 0
      vertex -14.7618 -42.4697 0
      vertex -29.4054 -16.3728 0
    endloop
  endfacet
  facet normal 0 0 -1
    outer loop
      vertex -14.7618 -42.4697 0
      vertex -24.9724 -9.10004 0
      vertex -22.2265 -6.1431 0
    endloop
  endfacet
  facet normal 0 0 -1
    outer loop
      vertex -14.7618 -42.4697 0
      vertex -19.1611 -3.64107 0
      vertex -15.7763 -1.59396 0
    endloop
  endfacet
  facet normal 0 0 -1
    outer loop
      vertex -14.7618 -42.4697 0
      vertex -22.2265 -6.1431 0
      vertex -19.1611 -3.64107 0
    endloop
  endfacet
  facet normal 0 0 -1
    outer loop
      vertex 16.5317 -46.5566 0
      vertex 35.8741 -42.4697 0
      vertex 35.7472 -47.6156 0
    endloop
  endfacet
  facet normal 0 0 -1
    outer loop
      vertex 16.2911 -50.3503 0
      vertex 35.7472 -47.6156 0
      vertex 35.3666 -52.4513 0
    endloop
  endfacet
  facet normal 0 0 -1
    outer loop
      vertex 35.8741 -42.4697 0
      vertex 16.6119 -42.4697 0
      vertex 35.69 -36.3458 0
    endloop
  endfacet
  facet normal 0 0 -1
    outer loop
      vertex 15.89 -53.8508 0
      vertex 35.3666 -52.4513 0
      vertex 34.7322 -56.9767 0
    endloop
  endfacet
  facet normal 0 0 -1
    outer loop
      vertex 16.2924 -34.6247 0
      vertex 35.69 -36.3458 0
      vertex 16.6119 -42.4697 0
    endloop
  endfacet
  facet normal 0 0 -1
    outer loop
      vertex 15.89 -53.8508 0
      vertex 34.7322 -56.9767 0
      vertex 33.8441 -61.1918 0
    endloop
  endfacet
  facet normal 0 0 -1
    outer loop
      vertex 35.69 -36.3458 0
      vertex 16.2924 -34.6247 0
      vertex 35.1378 -30.6741 0
    endloop
  endfacet
  facet normal 0 0 -1
    outer loop
      vertex 15.3286 -57.0582 0
      vertex 33.8441 -61.1918 0
      vertex 32.7023 -65.0967 0
    endloop
  endfacet
  facet normal 0 0 -1
    outer loop
      vertex 14.6067 -59.9723 0
      vertex 32.7023 -65.0967 0
      vertex 31.3067 -68.6914 0
    endloop
  endfacet
  facet normal 0 0 -1
    outer loop
      vertex 15.334 -27.9866 0
      vertex 35.1378 -30.6741 0
      vertex 16.2924 -34.6247 0
    endloop
  endfacet
  facet normal 0 0 -1
    outer loop
      vertex 13.7244 -62.5933 0
      vertex 31.3067 -68.6914 0
      vertex 29.6573 -71.9758 0
    endloop
  endfacet
  facet normal 0 0 -1
    outer loop
      vertex 35.1378 -30.6741 0
      vertex 15.334 -27.9866 0
      vertex 34.2175 -25.4548 0
    endloop
  endfacet
  facet normal 0 0 -1
    outer loop
      vertex 12.6817 -64.9211 0
      vertex 29.6573 -71.9758 0
      vertex 27.7647 -74.9484 0
    endloop
  endfacet
  facet normal -0 0 -1
    outer loop
      vertex 34.2175 -25.4548 0
      vertex 15.334 -27.9866 0
      vertex 32.929 -20.6877 0
    endloop
  endfacet
  facet normal 0 0 -1
    outer loop
      vertex 11.4802 -66.9465 0
      vertex 27.7647 -74.9484 0
      vertex 25.6395 -77.608 0
    endloop
  endfacet
  facet normal 0 0 -1
    outer loop
      vertex 13.7367 -22.5555 0
      vertex 32.929 -20.6877 0
      vertex 15.334 -27.9866 0
    endloop
  endfacet
  facet normal 0 0 -1
    outer loop
      vertex 11.4802 -66.9465 0
      vertex 25.6395 -77.608 0
      vertex 23.2815 -79.9547 0
    endloop
  endfacet
  facet normal -0 0 -1
    outer loop
      vertex 32.929 -20.6877 0
      vertex 13.7367 -22.5555 0
      vertex 31.2724 -16.3728 0
    endloop
  endfacet
  facet normal 0 0 -1
    outer loop
      vertex 10.1209 -68.6603 0
      vertex 23.2815 -79.9547 0
      vertex 20.6909 -81.9886 0
    endloop
  endfacet
  facet normal 0 0 -1
    outer loop
      vertex 10.1209 -68.6603 0
      vertex 20.6909 -81.9886 0
      vertex 17.8675 -83.7095 0
    endloop
  endfacet
  facet normal -0 0 -1
    outer loop
      vertex 35.8741 -42.4697 0
      vertex 16.5317 -46.5566 0
      vertex 16.6119 -42.4697 0
    endloop
  endfacet
  facet normal 0 0 -1
    outer loop
      vertex 11.5004 -18.3312 0
      vertex 29.2477 -12.5103 0
      vertex 13.7367 -22.5555 0
    endloop
  endfacet
  facet normal -0 0 -1
    outer loop
      vertex 31.2724 -16.3728 0
      vertex 13.7367 -22.5555 0
      vertex 29.2477 -12.5103 0
    endloop
  endfacet
  facet normal -0 0 -1
    outer loop
      vertex 35.7472 -47.6156 0
      vertex 16.2911 -50.3503 0
      vertex 16.5317 -46.5566 0
    endloop
  endfacet
  facet normal -0 0 -1
    outer loop
      vertex 35.3666 -52.4513 0
      vertex 15.89 -53.8508 0
      vertex 16.2911 -50.3503 0
    endloop
  endfacet
  facet normal 0 0 -1
    outer loop
      vertex 33.8441 -61.1918 0
      vertex 15.3286 -57.0582 0
      vertex 15.89 -53.8508 0
    endloop
  endfacet
  facet normal 0 0 -1
    outer loop
      vertex 10.1209 -68.6603 0
      vertex 17.8675 -83.7095 0
      vertex 14.8115 -85.1174 0
    endloop
  endfacet
  facet normal 0 0 -1
    outer loop
      vertex 32.7023 -65.0967 0
      vertex 14.6067 -59.9723 0
      vertex 15.3286 -57.0582 0
    endloop
  endfacet
  facet normal 0 0 -1
    outer loop
      vertex 31.3067 -68.6914 0
      vertex 13.7244 -62.5933 0
      vertex 14.6067 -59.9723 0
    endloop
  endfacet
  facet normal 0 0 -1
    outer loop
      vertex 29.6573 -71.9758 0
      vertex 12.6817 -64.9211 0
      vertex 13.7244 -62.5933 0
    endloop
  endfacet
  facet normal 0 0 -1
    outer loop
      vertex 6.92902 -71.1531 0
      vertex 14.8115 -85.1174 0
      vertex 11.5228 -86.2125 0
    endloop
  endfacet
  facet normal 0 0 -1
    outer loop
      vertex 27.7647 -74.9484 0
      vertex 11.4802 -66.9465 0
      vertex 12.6817 -64.9211 0
    endloop
  endfacet
  facet normal -0 0 -1
    outer loop
      vertex 29.2477 -12.5103 0
      vertex 11.5004 -18.3312 0
      vertex 26.8548 -9.10004 0
    endloop
  endfacet
  facet normal -0 0 -1
    outer loop
      vertex 26.8548 -9.10004 0
      vertex 11.5004 -18.3312 0
      vertex 24.1177 -6.1431 0
    endloop
  endfacet
  facet normal -0 0 -1
    outer loop
      vertex 24.1177 -6.1431 0
      vertex 11.5004 -18.3312 0
      vertex 21.0598 -3.64107 0
    endloop
  endfacet
  facet normal 0 0 -1
    outer loop
      vertex 8.62512 -15.3139 0
      vertex 21.0598 -3.64107 0
      vertex 11.5004 -18.3312 0
    endloop
  endfacet
  facet normal -0 0 -1
    outer loop
      vertex 21.0598 -3.64107 0
      vertex 8.62512 -15.3139 0
      vertex 17.6811 -1.59396 0
    endloop
  endfacet
  facet normal -0 0 -1
    outer loop
      vertex 17.6811 -1.59396 0
      vertex 8.62512 -15.3139 0
      vertex 13.9815 -0.00175476 0
    endloop
  endfacet
  facet normal 0 0 -1
    outer loop
      vertex 5.11093 -13.5035 0
      vertex 13.9815 -0.00175476 0
      vertex 8.62512 -15.3139 0
    endloop
  endfacet
  facet normal -0 0 -1
    outer loop
      vertex 13.9815 -0.00175476 0
      vertex 5.11093 -13.5035 0
      vertex 9.96109 1.13551 0
    endloop
  endfacet
  facet normal -0 0 -1
    outer loop
      vertex 9.96109 1.13551 0
      vertex 5.11093 -13.5035 0
      vertex 5.61986 1.81789 0
    endloop
  endfacet
  facet normal 0 0 -1
    outer loop
      vertex 0.957809 -12.9 0
      vertex 5.61986 1.81789 0
      vertex 5.11093 -13.5035 0
    endloop
  endfacet
  facet normal 0 0 -1
    outer loop
      vertex 0.957809 -12.9 0
      vertex 0.957809 2.04535 0
      vertex 5.61986 1.81789 0
    endloop
  endfacet
  facet normal 0 0 -1
    outer loop
      vertex -3.70491 1.81789 0
      vertex 0.957809 -12.9 0
      vertex -3.21271 -13.5035 0
    endloop
  endfacet
  facet normal 0 0 -1
    outer loop
      vertex 0.957809 -12.9 0
      vertex -3.70491 1.81789 0
      vertex 0.957809 2.04535 0
    endloop
  endfacet
  facet normal 0 0 -1
    outer loop
      vertex -12.072 -0.00175476 0
      vertex -3.21271 -13.5035 0
      vertex -6.74161 -15.3139 0
    endloop
  endfacet
  facet normal 0 0 -1
    outer loop
      vertex -3.21271 -13.5035 0
      vertex -8.04819 1.13551 0
      vertex -3.70491 1.81789 0
    endloop
  endfacet
  facet normal 0 0 -1
    outer loop
      vertex -15.7763 -1.59396 0
      vertex -6.74161 -15.3139 0
      vertex -9.62889 -18.3312 0
    endloop
  endfacet
  facet normal 0 0 -1
    outer loop
      vertex -15.7763 -1.59396 0
      vertex -9.62889 -18.3312 0
      vertex -11.8745 -22.5555 0
    endloop
  endfacet
  facet normal 0 0 -1
    outer loop
      vertex -3.21271 -13.5035 0
      vertex -12.072 -0.00175476 0
      vertex -8.04819 1.13551 0
    endloop
  endfacet
  facet normal 0 0 -1
    outer loop
      vertex -15.7763 -1.59396 0
      vertex -11.8745 -22.5555 0
      vertex -13.4786 -27.9866 0
    endloop
  endfacet
  facet normal 0 0 -1
    outer loop
      vertex -15.7763 -1.59396 0
      vertex -13.4786 -27.9866 0
      vertex -14.441 -34.6247 0
    endloop
  endfacet
  facet normal 0 0 -1
    outer loop
      vertex -6.74161 -15.3139 0
      vertex -15.7763 -1.59396 0
      vertex -12.072 -0.00175476 0
    endloop
  endfacet
  facet normal 0 0 -1
    outer loop
      vertex -15.7763 -1.59396 0
      vertex -14.441 -34.6247 0
      vertex -14.7618 -42.4697 0
    endloop
  endfacet
  facet normal 0 0 1
    outer loop
      vertex 35.69 -36.3458 1
      vertex 16.2924 -34.6247 1
      vertex 16.6119 -42.4697 1
    endloop
  endfacet
  facet normal 0 0 1
    outer loop
      vertex 21.0598 -3.64107 1
      vertex 15.334 -27.9866 1
      vertex 16.2924 -34.6247 1
    endloop
  endfacet
  facet normal 0 0 1
    outer loop
      vertex 8.62512 -15.3139 1
      vertex 17.6811 -1.59396 1
      vertex 13.9815 -0.00175476 1
    endloop
  endfacet
  facet normal 0 0 1
    outer loop
      vertex 21.0598 -3.64107 1
      vertex 13.7367 -22.5555 1
      vertex 15.334 -27.9866 1
    endloop
  endfacet
  facet normal 0 0 1
    outer loop
      vertex 21.0598 -3.64107 1
      vertex 11.5004 -18.3312 1
      vertex 13.7367 -22.5555 1
    endloop
  endfacet
  facet normal 0 0 1
    outer loop
      vertex 5.11093 -13.5035 1
      vertex 13.9815 -0.00175476 1
      vertex 9.96109 1.13551 1
    endloop
  endfacet
  facet normal 0 0 1
    outer loop
      vertex 21.0598 -3.64107 1
      vertex 8.62512 -15.3139 1
      vertex 11.5004 -18.3312 1
    endloop
  endfacet
  facet normal 0 0 1
    outer loop
      vertex 5.11093 -13.5035 1
      vertex 9.96109 1.13551 1
      vertex 5.61986 1.81789 1
    endloop
  endfacet
  facet normal 0 0 1
    outer loop
      vertex 13.9815 -0.00175476 1
      vertex 5.11093 -13.5035 1
      vertex 8.62512 -15.3139 1
    endloop
  endfacet
  facet normal 0 0 1
    outer loop
      vertex 0.957809 -12.9 1
      vertex 5.61986 1.81789 1
      vertex 0.957809 2.04535 1
    endloop
  endfacet
  facet normal 0 0 1
    outer loop
      vertex 5.61986 1.81789 1
      vertex 0.957809 -12.9 1
      vertex 5.11093 -13.5035 1
    endloop
  endfacet
  facet normal -0 0 1
    outer loop
      vertex -3.70491 1.81789 1
      vertex 0.957809 -12.9 1
      vertex 0.957809 2.04535 1
    endloop
  endfacet
  facet normal 0 0 1
    outer loop
      vertex 0.957809 -12.9 1
      vertex -3.70491 1.81789 1
      vertex -3.21271 -13.5035 1
    endloop
  endfacet
  facet normal -0 0 1
    outer loop
      vertex -8.04819 1.13551 1
      vertex -3.21271 -13.5035 1
      vertex -3.70491 1.81789 1
    endloop
  endfacet
  facet normal -0 0 1
    outer loop
      vertex -12.072 -0.00175476 1
      vertex -3.21271 -13.5035 1
      vertex -8.04819 1.13551 1
    endloop
  endfacet
  facet normal 0 0 1
    outer loop
      vertex -3.21271 -13.5035 1
      vertex -12.072 -0.00175476 1
      vertex -6.74161 -15.3139 1
    endloop
  endfacet
  facet normal -0 0 1
    outer loop
      vertex -15.7763 -1.59396 1
      vertex -6.74161 -15.3139 1
      vertex -12.072 -0.00175476 1
    endloop
  endfacet
  facet normal -0 0 1
    outer loop
      vertex -19.1611 -3.64107 1
      vertex -6.74161 -15.3139 1
      vertex -15.7763 -1.59396 1
    endloop
  endfacet
  facet normal 0 0 1
    outer loop
      vertex -6.74161 -15.3139 1
      vertex -19.1611 -3.64107 1
      vertex -9.62889 -18.3312 1
    endloop
  endfacet
  facet normal -0 0 1
    outer loop
      vertex -22.2265 -6.1431 1
      vertex -9.62889 -18.3312 1
      vertex -19.1611 -3.64107 1
    endloop
  endfacet
  facet normal -0 0 1
    outer loop
      vertex -27.3736 -12.5103 1
      vertex -9.62889 -18.3312 1
      vertex -24.9724 -9.10004 1
    endloop
  endfacet
  facet normal -0 0 1
    outer loop
      vertex -24.9724 -9.10004 1
      vertex -9.62889 -18.3312 1
      vertex -22.2265 -6.1431 1
    endloop
  endfacet
  facet normal 0 0 1
    outer loop
      vertex 16.6119 -42.4697 1
      vertex 35.8741 -42.4697 1
      vertex 35.69 -36.3458 1
    endloop
  endfacet
  facet normal 0 0 1
    outer loop
      vertex 16.5317 -46.5566 1
      vertex 35.8741 -42.4697 1
      vertex 16.6119 -42.4697 1
    endloop
  endfacet
  facet normal -0 0 1
    outer loop
      vertex 16.2924 -34.6247 1
      vertex 35.69 -36.3458 1
      vertex 35.1378 -30.6741 1
    endloop
  endfacet
  facet normal 0 0 1
    outer loop
      vertex 35.8741 -42.4697 1
      vertex 16.5317 -46.5566 1
      vertex 35.7472 -47.6156 1
    endloop
  endfacet
  facet normal 0 0 1
    outer loop
      vertex 16.2924 -34.6247 1
      vertex 35.1378 -30.6741 1
      vertex 34.2175 -25.4548 1
    endloop
  endfacet
  facet normal 0 0 1
    outer loop
      vertex 16.2911 -50.3503 1
      vertex 35.7472 -47.6156 1
      vertex 16.5317 -46.5566 1
    endloop
  endfacet
  facet normal 0 0 1
    outer loop
      vertex 16.2924 -34.6247 1
      vertex 34.2175 -25.4548 1
      vertex 32.929 -20.6877 1
    endloop
  endfacet
  facet normal 0 0 1
    outer loop
      vertex 35.7472 -47.6156 1
      vertex 16.2911 -50.3503 1
      vertex 35.3666 -52.4513 1
    endloop
  endfacet
  facet normal 0 0 1
    outer loop
      vertex 15.89 -53.8508 1
      vertex 35.3666 -52.4513 1
      vertex 16.2911 -50.3503 1
    endloop
  endfacet
  facet normal 0 0 1
    outer loop
      vertex 16.2924 -34.6247 1
      vertex 32.929 -20.6877 1
      vertex 31.2724 -16.3728 1
    endloop
  endfacet
  facet normal 0 0 1
    outer loop
      vertex 35.3666 -52.4513 1
      vertex 15.89 -53.8508 1
      vertex 34.7322 -56.9767 1
    endloop
  endfacet
  facet normal 0 0 1
    outer loop
      vertex 16.2924 -34.6247 1
      vertex 31.2724 -16.3728 1
      vertex 29.2477 -12.5103 1
    endloop
  endfacet
  facet normal 0 0 1
    outer loop
      vertex 34.7322 -56.9767 1
      vertex 15.89 -53.8508 1
      vertex 33.8441 -61.1918 1
    endloop
  endfacet
  facet normal 0 0 1
    outer loop
      vertex 16.2924 -34.6247 1
      vertex 29.2477 -12.5103 1
      vertex 26.8548 -9.10004 1
    endloop
  endfacet
  facet normal -0 0 1
    outer loop
      vertex 15.3286 -57.0582 1
      vertex 33.8441 -61.1918 1
      vertex 15.89 -53.8508 1
    endloop
  endfacet
  facet normal 0 0 1
    outer loop
      vertex 16.2924 -34.6247 1
      vertex 26.8548 -9.10004 1
      vertex 24.1177 -6.1431 1
    endloop
  endfacet
  facet normal 0 0 1
    outer loop
      vertex 33.8441 -61.1918 1
      vertex 15.3286 -57.0582 1
      vertex 32.7023 -65.0967 1
    endloop
  endfacet
  facet normal 0 0 1
    outer loop
      vertex 16.2924 -34.6247 1
      vertex 24.1177 -6.1431 1
      vertex 21.0598 -3.64107 1
    endloop
  endfacet
  facet normal -0 0 1
    outer loop
      vertex 14.6067 -59.9723 1
      vertex 32.7023 -65.0967 1
      vertex 15.3286 -57.0582 1
    endloop
  endfacet
  facet normal 0 0 1
    outer loop
      vertex 32.7023 -65.0967 1
      vertex 14.6067 -59.9723 1
      vertex 31.3067 -68.6914 1
    endloop
  endfacet
  facet normal 0 0 1
    outer loop
      vertex 8.62512 -15.3139 1
      vertex 21.0598 -3.64107 1
      vertex 17.6811 -1.59396 1
    endloop
  endfacet
  facet normal -0 0 1
    outer loop
      vertex 13.7244 -62.5933 1
      vertex 31.3067 -68.6914 1
      vertex 14.6067 -59.9723 1
    endloop
  endfacet
  facet normal 0 0 1
    outer loop
      vertex 31.3067 -68.6914 1
      vertex 13.7244 -62.5933 1
      vertex 29.6573 -71.9758 1
    endloop
  endfacet
  facet normal -0 0 1
    outer loop
      vertex 12.6817 -64.9211 1
      vertex 29.6573 -71.9758 1
      vertex 13.7244 -62.5933 1
    endloop
  endfacet
  facet normal 0 0 1
    outer loop
      vertex 29.6573 -71.9758 1
      vertex 12.6817 -64.9211 1
      vertex 27.7647 -74.9484 1
    endloop
  endfacet
  facet normal -0 0 1
    outer loop
      vertex 11.4802 -66.9465 1
      vertex 27.7647 -74.9484 1
      vertex 12.6817 -64.9211 1
    endloop
  endfacet
  facet normal 0 0 1
    outer loop
      vertex 27.7647 -74.9484 1
      vertex 11.4802 -66.9465 1
      vertex 25.6395 -77.608 1
    endloop
  endfacet
  facet normal 0 0 1
    outer loop
      vertex 25.6395 -77.608 1
      vertex 11.4802 -66.9465 1
      vertex 23.2815 -79.9547 1
    endloop
  endfacet
  facet normal -0 0 1
    outer loop
      vertex 10.1209 -68.6603 1
      vertex 23.2815 -79.9547 1
      vertex 11.4802 -66.9465 1
    endloop
  endfacet
  facet normal 0 0 1
    outer loop
      vertex 23.2815 -79.9547 1
      vertex 10.1209 -68.6603 1
      vertex 20.6909 -81.9886 1
    endloop
  endfacet
  facet normal -0 0 1
    outer loop
      vertex 8.60387 -70.0625 1
      vertex 20.6909 -81.9886 1
      vertex 10.1209 -68.6603 1
    endloop
  endfacet
  facet normal 0 0 1
    outer loop
      vertex 20.6909 -81.9886 1
      vertex 8.60387 -70.0625 1
      vertex 17.8675 -83.7095 1
    endloop
  endfacet
  facet normal -0 0 1
    outer loop
      vertex 35.1906 -97.5799 1
      vertex 36.5828 -110.371 1
      vertex 36.5828 -97.3579 1
    endloop
  endfacet
  facet normal -0 0 1
    outer loop
      vertex 33.8851 -97.7678 1
      vertex 36.5828 -110.371 1
      vertex 35.1906 -97.5799 1
    endloop
  endfacet
  facet normal 0 0 1
    outer loop
      vertex 36.5828 -110.371 1
      vertex 33.8851 -97.7678 1
      vertex 34.2768 -110.849 1
    endloop
  endfacet
  facet normal -0 0 1
    outer loop
      vertex 32.6664 -97.9216 1
      vertex 34.2768 -110.849 1
      vertex 33.8851 -97.7678 1
    endloop
  endfacet
  facet normal -0 0 1
    outer loop
      vertex 31.5344 -98.0411 1
      vertex 34.2768 -110.849 1
      vertex 32.6664 -97.9216 1
    endloop
  endfacet
  facet normal 0 0 1
    outer loop
      vertex 34.2768 -110.849 1
      vertex 31.5344 -98.0411 1
      vertex 31.9971 -111.254 1
    endloop
  endfacet
  facet normal -0 0 1
    outer loop
      vertex 30.4891 -98.1265 1
      vertex 31.9971 -111.254 1
      vertex 31.5344 -98.0411 1
    endloop
  endfacet
  facet normal -0 0 1
    outer loop
      vertex 29.5306 -98.1778 1
      vertex 31.9971 -111.254 1
      vertex 30.4891 -98.1265 1
    endloop
  endfacet
  facet normal 0 0 1
    outer loop
      vertex 31.9971 -111.254 1
      vertex 29.5306 -98.1778 1
      vertex 29.7437 -111.585 1
    endloop
  endfacet
  facet normal -0 0 1
    outer loop
      vertex 28.6589 -98.1948 1
      vertex 29.7437 -111.585 1
      vertex 29.5306 -98.1778 1
    endloop
  endfacet
  facet normal 0 0 1
    outer loop
      vertex 28.6589 -98.1948 1
      vertex 27.5165 -111.843 1
      vertex 29.7437 -111.585 1
    endloop
  endfacet
  facet normal 0 0 1
    outer loop
      vertex 26.7815 -98.1363 1
      vertex 27.5165 -111.843 1
      vertex 28.6589 -98.1948 1
    endloop
  endfacet
  facet normal 0 0 1
    outer loop
      vertex 26.7815 -98.1363 1
      vertex 25.3155 -112.027 1
      vertex 27.5165 -111.843 1
    endloop
  endfacet
  facet normal 0 0 1
    outer loop
      vertex 25.0145 -97.9608 1
      vertex 25.3155 -112.027 1
      vertex 26.7815 -98.1363 1
    endloop
  endfacet
  facet normal 0 0 1
    outer loop
      vertex 23.1408 -112.137 1
      vertex 25.0145 -97.9608 1
      vertex 23.3579 -97.6682 1
    endloop
  endfacet
  facet normal 0 0 1
    outer loop
      vertex 25.0145 -97.9608 1
      vertex 23.1408 -112.137 1
      vertex 25.3155 -112.027 1
    endloop
  endfacet
  facet normal 0 0 1
    outer loop
      vertex 20.9924 -112.174 1
      vertex 23.3579 -97.6682 1
      vertex 21.8117 -97.2587 1
    endloop
  endfacet
  facet normal 0 0 1
    outer loop
      vertex 23.3579 -97.6682 1
      vertex 20.9924 -112.174 1
      vertex 23.1408 -112.137 1
    endloop
  endfacet
  facet normal 0 0 1
    outer loop
      vertex 18.0487 -112.052 1
      vertex 21.8117 -97.2587 1
      vertex 20.3759 -96.732 1
    endloop
  endfacet
  facet normal 0 0 1
    outer loop
      vertex 15.255 -111.688 1
      vertex 20.3759 -96.732 1
      vertex 19.0505 -96.0884 1
    endloop
  endfacet
  facet normal 0 0 1
    outer loop
      vertex 21.8117 -97.2587 1
      vertex 18.0487 -112.052 1
      vertex 20.9924 -112.174 1
    endloop
  endfacet
  facet normal 0 0 1
    outer loop
      vertex 12.6111 -111.08 1
      vertex 19.0505 -96.0884 1
      vertex 17.8355 -95.3277 1
    endloop
  endfacet
  facet normal 0 0 1
    outer loop
      vertex 7.7729 -109.134 1
      vertex 17.8355 -95.3277 1
      vertex 16.7128 -94.4398 1
    endloop
  endfacet
  facet normal 0 0 1
    outer loop
      vertex 5.57863 -107.796 1
      vertex 16.7128 -94.4398 1
      vertex 15.6637 -93.4138 1
    endloop
  endfacet
  facet normal 0 0 1
    outer loop
      vertex 20.3759 -96.732 1
      vertex 15.255 -111.688 1
      vertex 18.0487 -112.052 1
    endloop
  endfacet
  facet normal 0 0 1
    outer loop
      vertex 1.61864 -104.357 1
      vertex 15.6637 -93.4138 1
      vertex 14.6882 -92.2497 1
    endloop
  endfacet
  facet normal 0 0 1
    outer loop
      vertex -0.189087 -102.187 1
      vertex 14.6882 -92.2497 1
      vertex 13.7864 -90.9475 1
    endloop
  endfacet
  facet normal 0 0 1
    outer loop
      vertex -1.88898 -99.7053 1
      vertex 13.7864 -90.9475 1
      vertex 12.9582 -89.5072 1
    endloop
  endfacet
  facet normal 0 0 1
    outer loop
      vertex 19.0505 -96.0884 1
      vertex 12.6111 -111.08 1
      vertex 15.255 -111.688 1
    endloop
  endfacet
  facet normal 0 0 1
    outer loop
      vertex -3.48105 -96.9123 1
      vertex 12.9582 -89.5072 1
      vertex 12.2037 -87.9289 1
    endloop
  endfacet
  facet normal 0 0 1
    outer loop
      vertex -4.96527 -93.8077 1
      vertex 12.2037 -87.9289 1
      vertex 11.5228 -86.2125 1
    endloop
  endfacet
  facet normal 0 0 1
    outer loop
      vertex 17.8675 -83.7095 1
      vertex 8.60387 -70.0625 1
      vertex 14.8115 -85.1174 1
    endloop
  endfacet
  facet normal -0 0 1
    outer loop
      vertex 6.92902 -71.1531 1
      vertex 14.8115 -85.1174 1
      vertex 8.60387 -70.0625 1
    endloop
  endfacet
  facet normal 0 0 1
    outer loop
      vertex 14.8115 -85.1174 1
      vertex 6.92902 -71.1531 1
      vertex 11.5228 -86.2125 1
    endloop
  endfacet
  facet normal -0 0 1
    outer loop
      vertex 5.09639 -71.9321 1
      vertex 11.5228 -86.2125 1
      vertex 6.92902 -71.1531 1
    endloop
  endfacet
  facet normal 0 0 1
    outer loop
      vertex 17.8355 -95.3277 1
      vertex 10.1171 -110.228 1
      vertex 12.6111 -111.08 1
    endloop
  endfacet
  facet normal 0 0 1
    outer loop
      vertex 17.8355 -95.3277 1
      vertex 7.7729 -109.134 1
      vertex 10.1171 -110.228 1
    endloop
  endfacet
  facet normal 0 0 1
    outer loop
      vertex 16.7128 -94.4398 1
      vertex 5.57863 -107.796 1
      vertex 7.7729 -109.134 1
    endloop
  endfacet
  facet normal -0 0 1
    outer loop
      vertex 3.10599 -72.3995 1
      vertex 11.5228 -86.2125 1
      vertex 5.09639 -71.9321 1
    endloop
  endfacet
  facet normal 0 0 1
    outer loop
      vertex 15.6637 -93.4138 1
      vertex 3.53421 -106.215 1
      vertex 5.57863 -107.796 1
    endloop
  endfacet
  facet normal -0 0 1
    outer loop
      vertex 0.957809 -72.5553 1
      vertex 11.5228 -86.2125 1
      vertex 3.10599 -72.3995 1
    endloop
  endfacet
  facet normal 0 0 1
    outer loop
      vertex 15.6637 -93.4138 1
      vertex 1.61864 -104.357 1
      vertex 3.53421 -106.215 1
    endloop
  endfacet
  facet normal 0 0 1
    outer loop
      vertex 11.5228 -86.2125 1
      vertex 0.957809 -72.5553 1
      vertex -7.61023 -86.6637 1
    endloop
  endfacet
  facet normal 0 0 1
    outer loop
      vertex 14.6882 -92.2497 1
      vertex -0.189087 -102.187 1
      vertex 1.61864 -104.357 1
    endloop
  endfacet
  facet normal 0 0 1
    outer loop
      vertex -7.61023 -86.6637 1
      vertex 0.957809 -72.5553 1
      vertex -1.1913 -72.3995 1
    endloop
  endfacet
  facet normal 0 0 1
    outer loop
      vertex 13.7864 -90.9475 1
      vertex -1.88898 -99.7053 1
      vertex -0.189087 -102.187 1
    endloop
  endfacet
  facet normal 0 0 1
    outer loop
      vertex -7.61023 -86.6637 1
      vertex -1.1913 -72.3995 1
      vertex -3.18394 -71.9321 1
    endloop
  endfacet
  facet normal 0 0 1
    outer loop
      vertex 12.9582 -89.5072 1
      vertex -3.48105 -96.9123 1
      vertex -1.88898 -99.7053 1
    endloop
  endfacet
  facet normal 0 0 1
    outer loop
      vertex 12.2037 -87.9289 1
      vertex -4.96527 -93.8077 1
      vertex -3.48105 -96.9123 1
    endloop
  endfacet
  facet normal 0 0 1
    outer loop
      vertex -7.61023 -86.6637 1
      vertex -3.18394 -71.9321 1
      vertex -5.02014 -71.1531 1
    endloop
  endfacet
  facet normal 0 0 1
    outer loop
      vertex 11.5228 -86.2125 1
      vertex -6.34167 -90.3915 1
      vertex -4.96527 -93.8077 1
    endloop
  endfacet
  facet normal 0 0 1
    outer loop
      vertex -14.4733 -84.434 1
      vertex -5.02014 -71.1531 1
      vertex -6.69987 -70.0625 1
    endloop
  endfacet
  facet normal 0 0 1
    outer loop
      vertex 11.5228 -86.2125 1
      vertex -7.61023 -86.6637 1
      vertex -6.34167 -90.3915 1
    endloop
  endfacet
  facet normal 0 0 1
    outer loop
      vertex -17.5302 -82.8064 1
      vertex -6.69987 -70.0625 1
      vertex -8.22316 -68.6603 1
    endloop
  endfacet
  facet normal 0 0 1
    outer loop
      vertex -20.3371 -80.8369 1
      vertex -8.22316 -68.6603 1
      vertex -9.58997 -66.9465 1
    endloop
  endfacet
  facet normal 0 0 1
    outer loop
      vertex -25.2016 -75.8724 1
      vertex -9.58997 -66.9465 1
      vertex -10.8003 -64.9211 1
    endloop
  endfacet
  facet normal 0 0 1
    outer loop
      vertex -5.02014 -71.1531 1
      vertex -11.1667 -85.7198 1
      vertex -7.61023 -86.6637 1
    endloop
  endfacet
  facet normal 0 0 1
    outer loop
      vertex -27.2591 -72.8773 1
      vertex -10.8003 -64.9211 1
      vertex -11.8513 -62.5933 1
    endloop
  endfacet
  facet normal 0 0 1
    outer loop
      vertex -29.0536 -69.5431 1
      vertex -11.8513 -62.5933 1
      vertex -12.7407 -59.9723 1
    endloop
  endfacet
  facet normal 0 0 1
    outer loop
      vertex -31.8144 -61.8649 1
      vertex -12.7407 -59.9723 1
      vertex -13.4683 -57.0582 1
    endloop
  endfacet
  facet normal 0 0 1
    outer loop
      vertex -32.7807 -57.521 1
      vertex -13.4683 -57.0582 1
      vertex -14.0342 -53.8508 1
    endloop
  endfacet
  facet normal -0 0 1
    outer loop
      vertex -33.4709 -52.8405 1
      vertex -14.0342 -53.8508 1
      vertex -14.4384 -50.3503 1
    endloop
  endfacet
  facet normal 0 0 1
    outer loop
      vertex -5.02014 -71.1531 1
      vertex -14.4733 -84.434 1
      vertex -11.1667 -85.7198 1
    endloop
  endfacet
  facet normal -0 0 1
    outer loop
      vertex -33.885 -47.8234 1
      vertex -14.4384 -50.3503 1
      vertex -14.681 -46.5566 1
    endloop
  endfacet
  facet normal -0 0 1
    outer loop
      vertex -34.0231 -42.4697 1
      vertex -14.681 -46.5566 1
      vertex -14.7618 -42.4697 1
    endloop
  endfacet
  facet normal 0 0 1
    outer loop
      vertex -9.62889 -18.3312 1
      vertex -27.3736 -12.5103 1
      vertex -11.8745 -22.5555 1
    endloop
  endfacet
  facet normal 0 0 1
    outer loop
      vertex -14.681 -46.5566 1
      vertex -34.0231 -42.4697 1
      vertex -33.885 -47.8234 1
    endloop
  endfacet
  facet normal -0 0 1
    outer loop
      vertex -29.4054 -16.3728 1
      vertex -11.8745 -22.5555 1
      vertex -27.3736 -12.5103 1
    endloop
  endfacet
  facet normal 0 0 1
    outer loop
      vertex -14.4384 -50.3503 1
      vertex -33.885 -47.8234 1
      vertex -33.4709 -52.8405 1
    endloop
  endfacet
  facet normal -0 0 1
    outer loop
      vertex -31.0678 -20.6877 1
      vertex -11.8745 -22.5555 1
      vertex -29.4054 -16.3728 1
    endloop
  endfacet
  facet normal 0 0 1
    outer loop
      vertex -14.0342 -53.8508 1
      vertex -33.4709 -52.8405 1
      vertex -32.7807 -57.521 1
    endloop
  endfacet
  facet normal 0 0 1
    outer loop
      vertex -11.8745 -22.5555 1
      vertex -31.0678 -20.6877 1
      vertex -13.4786 -27.9866 1
    endloop
  endfacet
  facet normal 0 0 1
    outer loop
      vertex -13.4683 -57.0582 1
      vertex -32.7807 -57.521 1
      vertex -31.8144 -61.8649 1
    endloop
  endfacet
  facet normal 0 0 1
    outer loop
      vertex -12.7407 -59.9723 1
      vertex -31.8144 -61.8649 1
      vertex -30.5721 -65.8723 1
    endloop
  endfacet
  facet normal -0 0 1
    outer loop
      vertex -32.3607 -25.4548 1
      vertex -13.4786 -27.9866 1
      vertex -31.0678 -20.6877 1
    endloop
  endfacet
  facet normal 0 0 1
    outer loop
      vertex -12.7407 -59.9723 1
      vertex -30.5721 -65.8723 1
      vertex -29.0536 -69.5431 1
    endloop
  endfacet
  facet normal 0 0 1
    outer loop
      vertex -33.2843 -30.6741 1
      vertex -13.4786 -27.9866 1
      vertex -32.3607 -25.4548 1
    endloop
  endfacet
  facet normal 0 0 1
    outer loop
      vertex -11.8513 -62.5933 1
      vertex -29.0536 -69.5431 1
      vertex -27.2591 -72.8773 1
    endloop
  endfacet
  facet normal 0 0 1
    outer loop
      vertex -13.4786 -27.9866 1
      vertex -33.2843 -30.6741 1
      vertex -14.441 -34.6247 1
    endloop
  endfacet
  facet normal 0 0 1
    outer loop
      vertex -6.69987 -70.0625 1
      vertex -17.5302 -82.8064 1
      vertex -14.4733 -84.434 1
    endloop
  endfacet
  facet normal 0 0 1
    outer loop
      vertex -33.8384 -36.3458 1
      vertex -14.441 -34.6247 1
      vertex -33.2843 -30.6741 1
    endloop
  endfacet
  facet normal 0 0 1
    outer loop
      vertex -9.58997 -66.9465 1
      vertex -25.2016 -75.8724 1
      vertex -22.8943 -78.5255 1
    endloop
  endfacet
  facet normal 0 0 1
    outer loop
      vertex -14.441 -34.6247 1
      vertex -33.8384 -36.3458 1
      vertex -14.7618 -42.4697 1
    endloop
  endfacet
  facet normal 0 0 1
    outer loop
      vertex -9.58997 -66.9465 1
      vertex -22.8943 -78.5255 1
      vertex -20.3371 -80.8369 1
    endloop
  endfacet
  facet normal 0 0 1
    outer loop
      vertex -14.7618 -42.4697 1
      vertex -33.8384 -36.3458 1
      vertex -34.0231 -42.4697 1
    endloop
  endfacet
  facet normal 0 0 1
    outer loop
      vertex -8.22316 -68.6603 1
      vertex -20.3371 -80.8369 1
      vertex -17.5302 -82.8064 1
    endloop
  endfacet
  facet normal 0 0 1
    outer loop
      vertex -10.8003 -64.9211 1
      vertex -27.2591 -72.8773 1
      vertex -25.2016 -75.8724 1
    endloop
  endfacet
  facet normal 0.0505171 -0.998723 0
    outer loop
      vertex 23.1408 -112.137 0
      vertex 25.3155 -112.027 1
      vertex 23.1408 -112.137 1
    endloop
  endfacet
  facet normal 0.0505171 -0.998723 0
    outer loop
      vertex 25.3155 -112.027 1
      vertex 23.1408 -112.137 0
      vertex 25.3155 -112.027 0
    endloop
  endfacet
  facet normal 0.0833078 -0.996524 0
    outer loop
      vertex 25.3155 -112.027 0
      vertex 27.5165 -111.843 1
      vertex 25.3155 -112.027 1
    endloop
  endfacet
  facet normal 0.0833078 -0.996524 0
    outer loop
      vertex 27.5165 -111.843 1
      vertex 25.3155 -112.027 0
      vertex 27.5165 -111.843 0
    endloop
  endfacet
  facet normal 0.115071 -0.993357 0
    outer loop
      vertex 27.5165 -111.843 0
      vertex 29.7437 -111.585 1
      vertex 27.5165 -111.843 1
    endloop
  endfacet
  facet normal 0.115071 -0.993357 0
    outer loop
      vertex 29.7437 -111.585 1
      vertex 27.5165 -111.843 0
      vertex 29.7437 -111.585 0
    endloop
  endfacet
  facet normal 0.14533 -0.989383 0
    outer loop
      vertex 29.7437 -111.585 0
      vertex 31.9971 -111.254 1
      vertex 29.7437 -111.585 1
    endloop
  endfacet
  facet normal 0.14533 -0.989383 0
    outer loop
      vertex 31.9971 -111.254 1
      vertex 29.7437 -111.585 0
      vertex 31.9971 -111.254 0
    endloop
  endfacet
  facet normal 0.174916 -0.984583 0
    outer loop
      vertex 31.9971 -111.254 0
      vertex 34.2768 -110.849 1
      vertex 31.9971 -111.254 1
    endloop
  endfacet
  facet normal 0.174916 -0.984583 0
    outer loop
      vertex 34.2768 -110.849 1
      vertex 31.9971 -111.254 0
      vertex 34.2768 -110.849 0
    endloop
  endfacet
  facet normal 0.202971 -0.979185 0
    outer loop
      vertex 34.2768 -110.849 0
      vertex 36.5828 -110.371 1
      vertex 34.2768 -110.849 1
    endloop
  endfacet
  facet normal 0.202971 -0.979185 0
    outer loop
      vertex 36.5828 -110.371 1
      vertex 34.2768 -110.849 0
      vertex 36.5828 -110.371 0
    endloop
  endfacet
  facet normal 1 -0 0
    outer loop
      vertex 36.5828 -110.371 1
      vertex 36.5828 -97.3579 0
      vertex 36.5828 -97.3579 1
    endloop
  endfacet
  facet normal 1 0 0
    outer loop
      vertex 36.5828 -97.3579 0
      vertex 36.5828 -110.371 1
      vertex 36.5828 -110.371 0
    endloop
  endfacet
  facet normal -0.15747 0.987524 0
    outer loop
      vertex 36.5828 -97.3579 0
      vertex 35.1906 -97.5799 1
      vertex 36.5828 -97.3579 1
    endloop
  endfacet
  facet normal -0.15747 0.987524 0
    outer loop
      vertex 35.1906 -97.5799 1
      vertex 36.5828 -97.3579 0
      vertex 35.1906 -97.5799 0
    endloop
  endfacet
  facet normal -0.142461 0.9898 0
    outer loop
      vertex 35.1906 -97.5799 0
      vertex 33.8851 -97.7678 1
      vertex 35.1906 -97.5799 1
    endloop
  endfacet
  facet normal -0.142461 0.9898 0
    outer loop
      vertex 33.8851 -97.7678 1
      vertex 35.1906 -97.5799 0
      vertex 33.8851 -97.7678 0
    endloop
  endfacet
  facet normal -0.125207 0.992131 0
    outer loop
      vertex 33.8851 -97.7678 0
      vertex 32.6664 -97.9216 1
      vertex 33.8851 -97.7678 1
    endloop
  endfacet
  facet normal -0.125207 0.992131 0
    outer loop
      vertex 32.6664 -97.9216 1
      vertex 33.8851 -97.7678 0
      vertex 32.6664 -97.9216 0
    endloop
  endfacet
  facet normal -0.104982 0.994474 0
    outer loop
      vertex 32.6664 -97.9216 0
      vertex 31.5344 -98.0411 1
      vertex 32.6664 -97.9216 1
    endloop
  endfacet
  facet normal -0.104982 0.994474 0
    outer loop
      vertex 31.5344 -98.0411 1
      vertex 32.6664 -97.9216 0
      vertex 31.5344 -98.0411 0
    endloop
  endfacet
  facet normal -0.0814277 0.996679 0
    outer loop
      vertex 31.5344 -98.0411 0
      vertex 30.4891 -98.1265 1
      vertex 31.5344 -98.0411 1
    endloop
  endfacet
  facet normal -0.0814277 0.996679 0
    outer loop
      vertex 30.4891 -98.1265 1
      vertex 31.5344 -98.0411 0
      vertex 30.4891 -98.1265 0
    endloop
  endfacet
  facet normal -0.0534446 0.998571 0
    outer loop
      vertex 30.4891 -98.1265 0
      vertex 29.5306 -98.1778 1
      vertex 30.4891 -98.1265 1
    endloop
  endfacet
  facet normal -0.0534446 0.998571 0
    outer loop
      vertex 29.5306 -98.1778 1
      vertex 30.4891 -98.1265 0
      vertex 29.5306 -98.1778 0
    endloop
  endfacet
  facet normal -0.0194984 0.99981 0
    outer loop
      vertex 29.5306 -98.1778 0
      vertex 28.6589 -98.1948 1
      vertex 29.5306 -98.1778 1
    endloop
  endfacet
  facet normal -0.0194984 0.99981 0
    outer loop
      vertex 28.6589 -98.1948 1
      vertex 29.5306 -98.1778 0
      vertex 28.6589 -98.1948 0
    endloop
  endfacet
  facet normal 0.031145 0.999515 -0
    outer loop
      vertex 28.6589 -98.1948 0
      vertex 26.7815 -98.1363 1
      vertex 28.6589 -98.1948 1
    endloop
  endfacet
  facet normal 0.031145 0.999515 0
    outer loop
      vertex 26.7815 -98.1363 1
      vertex 28.6589 -98.1948 0
      vertex 26.7815 -98.1363 0
    endloop
  endfacet
  facet normal 0.0988346 0.995104 -0
    outer loop
      vertex 26.7815 -98.1363 0
      vertex 25.0145 -97.9608 1
      vertex 26.7815 -98.1363 1
    endloop
  endfacet
  facet normal 0.0988346 0.995104 0
    outer loop
      vertex 25.0145 -97.9608 1
      vertex 26.7815 -98.1363 0
      vertex 25.0145 -97.9608 0
    endloop
  endfacet
  facet normal 0.173935 0.984757 -0
    outer loop
      vertex 25.0145 -97.9608 0
      vertex 23.3579 -97.6682 1
      vertex 25.0145 -97.9608 1
    endloop
  endfacet
  facet normal 0.173935 0.984757 0
    outer loop
      vertex 23.3579 -97.6682 1
      vertex 25.0145 -97.9608 0
      vertex 23.3579 -97.6682 0
    endloop
  endfacet
  facet normal 0.256016 0.966672 -0
    outer loop
      vertex 23.3579 -97.6682 0
      vertex 21.8117 -97.2587 1
      vertex 23.3579 -97.6682 1
    endloop
  endfacet
  facet normal 0.256016 0.966672 0
    outer loop
      vertex 21.8117 -97.2587 1
      vertex 23.3579 -97.6682 0
      vertex 21.8117 -97.2587 0
    endloop
  endfacet
  facet normal 0.344393 0.938826 -0
    outer loop
      vertex 21.8117 -97.2587 0
      vertex 20.3759 -96.732 1
      vertex 21.8117 -97.2587 1
    endloop
  endfacet
  facet normal 0.344393 0.938826 0
    outer loop
      vertex 20.3759 -96.732 1
      vertex 21.8117 -97.2587 0
      vertex 20.3759 -96.732 0
    endloop
  endfacet
  facet normal 0.436813 0.899552 -0
    outer loop
      vertex 20.3759 -96.732 0
      vertex 19.0505 -96.0884 1
      vertex 20.3759 -96.732 1
    endloop
  endfacet
  facet normal 0.436813 0.899552 0
    outer loop
      vertex 19.0505 -96.0884 1
      vertex 20.3759 -96.732 0
      vertex 19.0505 -96.0884 0
    endloop
  endfacet
  facet normal 0.530663 0.847583 -0
    outer loop
      vertex 19.0505 -96.0884 0
      vertex 17.8355 -95.3277 1
      vertex 19.0505 -96.0884 1
    endloop
  endfacet
  facet normal 0.530663 0.847583 0
    outer loop
      vertex 17.8355 -95.3277 1
      vertex 19.0505 -96.0884 0
      vertex 17.8355 -95.3277 0
    endloop
  endfacet
  facet normal 0.620315 0.784353 -0
    outer loop
      vertex 17.8355 -95.3277 0
      vertex 16.7128 -94.4398 1
      vertex 17.8355 -95.3277 1
    endloop
  endfacet
  facet normal 0.620315 0.784353 0
    outer loop
      vertex 16.7128 -94.4398 1
      vertex 17.8355 -95.3277 0
      vertex 16.7128 -94.4398 0
    endloop
  endfacet
  facet normal 0.699192 0.714934 -0
    outer loop
      vertex 16.7128 -94.4398 0
      vertex 15.6637 -93.4138 1
      vertex 16.7128 -94.4398 1
    endloop
  endfacet
  facet normal 0.699192 0.714934 0
    outer loop
      vertex 15.6637 -93.4138 1
      vertex 16.7128 -94.4398 0
      vertex 15.6637 -93.4138 0
    endloop
  endfacet
  facet normal 0.766464 0.642287 0
    outer loop
      vertex 15.6637 -93.4138 1
      vertex 14.6882 -92.2497 0
      vertex 14.6882 -92.2497 1
    endloop
  endfacet
  facet normal 0.766464 0.642287 0
    outer loop
      vertex 14.6882 -92.2497 0
      vertex 15.6637 -93.4138 1
      vertex 15.6637 -93.4138 0
    endloop
  endfacet
  facet normal 0.82211 0.569328 0
    outer loop
      vertex 14.6882 -92.2497 1
      vertex 13.7864 -90.9475 0
      vertex 13.7864 -90.9475 1
    endloop
  endfacet
  facet normal 0.82211 0.569328 0
    outer loop
      vertex 13.7864 -90.9475 0
      vertex 14.6882 -92.2497 1
      vertex 14.6882 -92.2497 0
    endloop
  endfacet
  facet normal 0.866899 0.498484 0
    outer loop
      vertex 13.7864 -90.9475 1
      vertex 12.9582 -89.5072 0
      vertex 12.9582 -89.5072 1
    endloop
  endfacet
  facet normal 0.866899 0.498484 0
    outer loop
      vertex 12.9582 -89.5072 0
      vertex 13.7864 -90.9475 1
      vertex 13.7864 -90.9475 0
    endloop
  endfacet
  facet normal 0.90221 0.431298 0
    outer loop
      vertex 12.9582 -89.5072 1
      vertex 12.2037 -87.9289 0
      vertex 12.2037 -87.9289 1
    endloop
  endfacet
  facet normal 0.90221 0.431298 0
    outer loop
      vertex 12.2037 -87.9289 0
      vertex 12.9582 -89.5072 1
      vertex 12.9582 -89.5072 0
    endloop
  endfacet
  facet normal 0.92953 0.368747 0
    outer loop
      vertex 12.2037 -87.9289 1
      vertex 11.5228 -86.2125 0
      vertex 11.5228 -86.2125 1
    endloop
  endfacet
  facet normal 0.92953 0.368747 0
    outer loop
      vertex 11.5228 -86.2125 0
      vertex 12.2037 -87.9289 1
      vertex 12.2037 -87.9289 0
    endloop
  endfacet
  facet normal 0.315933 -0.948781 0
    outer loop
      vertex 11.5228 -86.2125 0
      vertex 14.8115 -85.1174 1
      vertex 11.5228 -86.2125 1
    endloop
  endfacet
  facet normal 0.315933 -0.948781 0
    outer loop
      vertex 14.8115 -85.1174 1
      vertex 11.5228 -86.2125 0
      vertex 14.8115 -85.1174 0
    endloop
  endfacet
  facet normal 0.41843 -0.908249 0
    outer loop
      vertex 14.8115 -85.1174 0
      vertex 17.8675 -83.7095 1
      vertex 14.8115 -85.1174 1
    endloop
  endfacet
  facet normal 0.41843 -0.908249 0
    outer loop
      vertex 17.8675 -83.7095 1
      vertex 14.8115 -85.1174 0
      vertex 17.8675 -83.7095 0
    endloop
  endfacet
  facet normal 0.520456 -0.853888 0
    outer loop
      vertex 17.8675 -83.7095 0
      vertex 20.6909 -81.9886 1
      vertex 17.8675 -83.7095 1
    endloop
  endfacet
  facet normal 0.520456 -0.853888 0
    outer loop
      vertex 20.6909 -81.9886 1
      vertex 17.8675 -83.7095 0
      vertex 20.6909 -81.9886 0
    endloop
  endfacet
  facet normal 0.617527 -0.78655 0
    outer loop
      vertex 20.6909 -81.9886 0
      vertex 23.2815 -79.9547 1
      vertex 20.6909 -81.9886 1
    endloop
  endfacet
  facet normal 0.617527 -0.78655 0
    outer loop
      vertex 23.2815 -79.9547 1
      vertex 20.6909 -81.9886 0
      vertex 23.2815 -79.9547 0
    endloop
  endfacet
  facet normal 0.705406 -0.708803 0
    outer loop
      vertex 23.2815 -79.9547 0
      vertex 25.6395 -77.608 1
      vertex 23.2815 -79.9547 1
    endloop
  endfacet
  facet normal 0.705406 -0.708803 0
    outer loop
      vertex 25.6395 -77.608 1
      vertex 23.2815 -79.9547 0
      vertex 25.6395 -77.608 0
    endloop
  endfacet
  facet normal 0.781224 -0.624251 0
    outer loop
      vertex 25.6395 -77.608 1
      vertex 27.7647 -74.9484 0
      vertex 27.7647 -74.9484 1
    endloop
  endfacet
  facet normal 0.781224 -0.624251 0
    outer loop
      vertex 27.7647 -74.9484 0
      vertex 25.6395 -77.608 1
      vertex 25.6395 -77.608 0
    endloop
  endfacet
  facet normal 0.84354 -0.537066 0
    outer loop
      vertex 27.7647 -74.9484 1
      vertex 29.6573 -71.9758 0
      vertex 29.6573 -71.9758 1
    endloop
  endfacet
  facet normal 0.84354 -0.537066 0
    outer loop
      vertex 29.6573 -71.9758 0
      vertex 27.7647 -74.9484 1
      vertex 27.7647 -74.9484 0
    endloop
  endfacet
  facet normal 0.893642 -0.44878 0
    outer loop
      vertex 29.6573 -71.9758 1
      vertex 31.3067 -68.6914 0
      vertex 31.3067 -68.6914 1
    endloop
  endfacet
  facet normal 0.893642 -0.44878 0
    outer loop
      vertex 31.3067 -68.6914 0
      vertex 29.6573 -71.9758 1
      vertex 29.6573 -71.9758 0
    endloop
  endfacet
  facet normal 0.932209 -0.361919 0
    outer loop
      vertex 31.3067 -68.6914 1
      vertex 32.7023 -65.0967 0
      vertex 32.7023 -65.0967 1
    endloop
  endfacet
  facet normal 0.932209 -0.361919 0
    outer loop
      vertex 32.7023 -65.0967 0
      vertex 31.3067 -68.6914 1
      vertex 31.3067 -68.6914 0
    endloop
  endfacet
  facet normal 0.95981 -0.28065 0
    outer loop
      vertex 32.7023 -65.0967 1
      vertex 33.8441 -61.1918 0
      vertex 33.8441 -61.1918 1
    endloop
  endfacet
  facet normal 0.95981 -0.28065 0
    outer loop
      vertex 33.8441 -61.1918 0
      vertex 32.7023 -65.0967 1
      vertex 32.7023 -65.0967 0
    endloop
  endfacet
  facet normal 0.978517 -0.206168 0
    outer loop
      vertex 33.8441 -61.1918 1
      vertex 34.7322 -56.9767 0
      vertex 34.7322 -56.9767 1
    endloop
  endfacet
  facet normal 0.978517 -0.206168 0
    outer loop
      vertex 34.7322 -56.9767 0
      vertex 33.8441 -61.1918 1
      vertex 33.8441 -61.1918 0
    endloop
  endfacet
  facet normal 0.990316 -0.138829 0
    outer loop
      vertex 34.7322 -56.9767 1
      vertex 35.3666 -52.4513 0
      vertex 35.3666 -52.4513 1
    endloop
  endfacet
  facet normal 0.990316 -0.138829 0
    outer loop
      vertex 35.3666 -52.4513 0
      vertex 34.7322 -56.9767 1
      vertex 34.7322 -56.9767 0
    endloop
  endfacet
  facet normal 0.996917 -0.0784636 0
    outer loop
      vertex 35.3666 -52.4513 1
      vertex 35.7472 -47.6156 0
      vertex 35.7472 -47.6156 1
    endloop
  endfacet
  facet normal 0.996917 -0.0784636 0
    outer loop
      vertex 35.7472 -47.6156 0
      vertex 35.3666 -52.4513 1
      vertex 35.3666 -52.4513 0
    endloop
  endfacet
  facet normal 0.999696 -0.0246529 0
    outer loop
      vertex 35.7472 -47.6156 1
      vertex 35.8741 -42.4697 0
      vertex 35.8741 -42.4697 1
    endloop
  endfacet
  facet normal 0.999696 -0.0246529 0
    outer loop
      vertex 35.8741 -42.4697 0
      vertex 35.7472 -47.6156 1
      vertex 35.7472 -47.6156 0
    endloop
  endfacet
  facet normal 0.999548 0.030049 0
    outer loop
      vertex 35.8741 -42.4697 1
      vertex 35.69 -36.3458 0
      vertex 35.69 -36.3458 1
    endloop
  endfacet
  facet normal 0.999548 0.030049 0
    outer loop
      vertex 35.69 -36.3458 0
      vertex 35.8741 -42.4697 1
      vertex 35.8741 -42.4697 0
    endloop
  endfacet
  facet normal 0.995294 0.0969024 0
    outer loop
      vertex 35.69 -36.3458 1
      vertex 35.1378 -30.6741 0
      vertex 35.1378 -30.6741 1
    endloop
  endfacet
  facet normal 0.995294 0.0969024 0
    outer loop
      vertex 35.1378 -30.6741 0
      vertex 35.69 -36.3458 1
      vertex 35.69 -36.3458 0
    endloop
  endfacet
  facet normal 0.984808 0.173648 0
    outer loop
      vertex 35.1378 -30.6741 1
      vertex 34.2175 -25.4548 0
      vertex 34.2175 -25.4548 1
    endloop
  endfacet
  facet normal 0.984808 0.173648 0
    outer loop
      vertex 34.2175 -25.4548 0
      vertex 35.1378 -30.6741 1
      vertex 35.1378 -30.6741 0
    endloop
  endfacet
  facet normal 0.965359 0.260927 0
    outer loop
      vertex 34.2175 -25.4548 1
      vertex 32.929 -20.6877 0
      vertex 32.929 -20.6877 1
    endloop
  endfacet
  facet normal 0.965359 0.260927 0
    outer loop
      vertex 32.929 -20.6877 0
      vertex 34.2175 -25.4548 1
      vertex 34.2175 -25.4548 0
    endloop
  endfacet
  facet normal 0.933561 0.358418 0
    outer loop
      vertex 32.929 -20.6877 1
      vertex 31.2724 -16.3728 0
      vertex 31.2724 -16.3728 1
    endloop
  endfacet
  facet normal 0.933561 0.358418 0
    outer loop
      vertex 31.2724 -16.3728 0
      vertex 32.929 -20.6877 1
      vertex 32.929 -20.6877 0
    endloop
  endfacet
  facet normal 0.885691 0.464274 0
    outer loop
      vertex 31.2724 -16.3728 1
      vertex 29.2477 -12.5103 0
      vertex 29.2477 -12.5103 1
    endloop
  endfacet
  facet normal 0.885691 0.464274 0
    outer loop
      vertex 29.2477 -12.5103 0
      vertex 31.2724 -16.3728 1
      vertex 31.2724 -16.3728 0
    endloop
  endfacet
  facet normal 0.818587 0.574383 0
    outer loop
      vertex 29.2477 -12.5103 1
      vertex 26.8548 -9.10004 0
      vertex 26.8548 -9.10004 1
    endloop
  endfacet
  facet normal 0.818587 0.574383 0
    outer loop
      vertex 26.8548 -9.10004 0
      vertex 29.2477 -12.5103 1
      vertex 29.2477 -12.5103 0
    endloop
  endfacet
  facet normal 0.733861 0.6793 0
    outer loop
      vertex 26.8548 -9.10004 1
      vertex 24.1177 -6.1431 0
      vertex 24.1177 -6.1431 1
    endloop
  endfacet
  facet normal 0.733861 0.6793 0
    outer loop
      vertex 24.1177 -6.1431 0
      vertex 26.8548 -9.10004 1
      vertex 26.8548 -9.10004 0
    endloop
  endfacet
  facet normal 0.633255 0.773943 -0
    outer loop
      vertex 24.1177 -6.1431 0
      vertex 21.0598 -3.64107 1
      vertex 24.1177 -6.1431 1
    endloop
  endfacet
  facet normal 0.633255 0.773943 0
    outer loop
      vertex 21.0598 -3.64107 1
      vertex 24.1177 -6.1431 0
      vertex 21.0598 -3.64107 0
    endloop
  endfacet
  facet normal 0.518193 0.855264 -0
    outer loop
      vertex 21.0598 -3.64107 0
      vertex 17.6811 -1.59396 1
      vertex 21.0598 -3.64107 1
    endloop
  endfacet
  facet normal 0.518193 0.855264 0
    outer loop
      vertex 17.6811 -1.59396 1
      vertex 21.0598 -3.64107 0
      vertex 17.6811 -1.59396 0
    endloop
  endfacet
  facet normal 0.395316 0.918545 -0
    outer loop
      vertex 17.6811 -1.59396 0
      vertex 13.9815 -0.00175476 1
      vertex 17.6811 -1.59396 1
    endloop
  endfacet
  facet normal 0.395316 0.918545 0
    outer loop
      vertex 13.9815 -0.00175476 1
      vertex 17.6811 -1.59396 0
      vertex 13.9815 -0.00175476 0
    endloop
  endfacet
  facet normal 0.272192 0.962243 -0
    outer loop
      vertex 13.9815 -0.00175476 0
      vertex 9.96109 1.13551 1
      vertex 13.9815 -0.00175476 1
    endloop
  endfacet
  facet normal 0.272192 0.962243 0
    outer loop
      vertex 9.96109 1.13551 1
      vertex 13.9815 -0.00175476 0
      vertex 9.96109 1.13551 0
    endloop
  endfacet
  facet normal 0.155279 0.987871 -0
    outer loop
      vertex 9.96109 1.13551 0
      vertex 5.61986 1.81789 1
      vertex 9.96109 1.13551 1
    endloop
  endfacet
  facet normal 0.155279 0.987871 0
    outer loop
      vertex 5.61986 1.81789 1
      vertex 9.96109 1.13551 0
      vertex 5.61986 1.81789 0
    endloop
  endfacet
  facet normal 0.0487317 0.998812 -0
    outer loop
      vertex 5.61986 1.81789 0
      vertex 0.957809 2.04535 1
      vertex 5.61986 1.81789 1
    endloop
  endfacet
  facet normal 0.0487317 0.998812 0
    outer loop
      vertex 0.957809 2.04535 1
      vertex 5.61986 1.81789 0
      vertex 0.957809 2.04535 0
    endloop
  endfacet
  facet normal -0.0487248 0.998812 0
    outer loop
      vertex 0.957809 2.04535 0
      vertex -3.70491 1.81789 1
      vertex 0.957809 2.04535 1
    endloop
  endfacet
  facet normal -0.0487248 0.998812 0
    outer loop
      vertex -3.70491 1.81789 1
      vertex 0.957809 2.04535 0
      vertex -3.70491 1.81789 0
    endloop
  endfacet
  facet normal -0.155208 0.987882 0
    outer loop
      vertex -3.70491 1.81789 0
      vertex -8.04819 1.13551 1
      vertex -3.70491 1.81789 1
    endloop
  endfacet
  facet normal -0.155208 0.987882 0
    outer loop
      vertex -8.04819 1.13551 1
      vertex -3.70491 1.81789 0
      vertex -8.04819 1.13551 0
    endloop
  endfacet
  facet normal -0.271979 0.962303 0
    outer loop
      vertex -8.04819 1.13551 0
      vertex -12.072 -0.00175476 1
      vertex -8.04819 1.13551 1
    endloop
  endfacet
  facet normal -0.271979 0.962303 0
    outer loop
      vertex -12.072 -0.00175476 1
      vertex -8.04819 1.13551 0
      vertex -12.072 -0.00175476 0
    endloop
  endfacet
  facet normal -0.394893 0.918727 0
    outer loop
      vertex -12.072 -0.00175476 0
      vertex -15.7763 -1.59396 1
      vertex -12.072 -0.00175476 1
    endloop
  endfacet
  facet normal -0.394893 0.918727 0
    outer loop
      vertex -15.7763 -1.59396 1
      vertex -12.072 -0.00175476 0
      vertex -15.7763 -1.59396 0
    endloop
  endfacet
  facet normal -0.517509 0.855677 0
    outer loop
      vertex -15.7763 -1.59396 0
      vertex -19.1611 -3.64107 1
      vertex -15.7763 -1.59396 1
    endloop
  endfacet
  facet normal -0.517509 0.855677 0
    outer loop
      vertex -19.1611 -3.64107 1
      vertex -15.7763 -1.59396 0
      vertex -19.1611 -3.64107 0
    endloop
  endfacet
  facet normal -0.632325 0.774703 0
    outer loop
      vertex -19.1611 -3.64107 0
      vertex -22.2265 -6.1431 1
      vertex -19.1611 -3.64107 1
    endloop
  endfacet
  facet normal -0.632325 0.774703 0
    outer loop
      vertex -22.2265 -6.1431 1
      vertex -19.1611 -3.64107 0
      vertex -22.2265 -6.1431 0
    endloop
  endfacet
  facet normal -0.732772 0.680474 0
    outer loop
      vertex -24.9724 -9.10004 0
      vertex -22.2265 -6.1431 1
      vertex -22.2265 -6.1431 0
    endloop
  endfacet
  facet normal -0.732772 0.680474 0
    outer loop
      vertex -22.2265 -6.1431 1
      vertex -24.9724 -9.10004 0
      vertex -24.9724 -9.10004 1
    endloop
  endfacet
  facet normal -0.81765 0.575716 0
    outer loop
      vertex -27.3736 -12.5103 0
      vertex -24.9724 -9.10004 1
      vertex -24.9724 -9.10004 0
    endloop
  endfacet
  facet normal -0.81765 0.575716 0
    outer loop
      vertex -24.9724 -9.10004 1
      vertex -27.3736 -12.5103 0
      vertex -27.3736 -12.5103 1
    endloop
  endfacet
  facet normal -0.885022 0.46555 0
    outer loop
      vertex -29.4054 -16.3728 0
      vertex -27.3736 -12.5103 1
      vertex -27.3736 -12.5103 0
    endloop
  endfacet
  facet normal -0.885022 0.46555 0
    outer loop
      vertex -27.3736 -12.5103 1
      vertex -29.4054 -16.3728 0
      vertex -29.4054 -16.3728 1
    endloop
  endfacet
  facet normal -0.933141 0.359511 0
    outer loop
      vertex -31.0678 -20.6877 0
      vertex -29.4054 -16.3728 1
      vertex -29.4054 -16.3728 0
    endloop
  endfacet
  facet normal -0.933141 0.359511 0
    outer loop
      vertex -29.4054 -16.3728 1
      vertex -31.0678 -20.6877 0
      vertex -31.0678 -20.6877 1
    endloop
  endfacet
  facet normal -0.965134 0.261757 0
    outer loop
      vertex -32.3607 -25.4548 0
      vertex -31.0678 -20.6877 1
      vertex -31.0678 -20.6877 0
    endloop
  endfacet
  facet normal -0.965134 0.261757 0
    outer loop
      vertex -31.0678 -20.6877 1
      vertex -32.3607 -25.4548 0
      vertex -32.3607 -25.4548 1
    endloop
  endfacet
  facet normal -0.984701 0.174251 0
    outer loop
      vertex -33.2843 -30.6741 0
      vertex -32.3607 -25.4548 1
      vertex -32.3607 -25.4548 0
    endloop
  endfacet
  facet normal -0.984701 0.174251 0
    outer loop
      vertex -32.3607 -25.4548 1
      vertex -33.2843 -30.6741 0
      vertex -33.2843 -30.6741 1
    endloop
  endfacet
  facet normal -0.995262 0.0972327 0
    outer loop
      vertex -33.8384 -36.3458 0
      vertex -33.2843 -30.6741 1
      vertex -33.2843 -30.6741 0
    endloop
  endfacet
  facet normal -0.995262 0.0972327 0
    outer loop
      vertex -33.2843 -30.6741 1
      vertex -33.8384 -36.3458 0
      vertex -33.8384 -36.3458 1
    endloop
  endfacet
  facet normal -0.999545 0.0301468 0
    outer loop
      vertex -34.0231 -42.4697 0
      vertex -33.8384 -36.3458 1
      vertex -33.8384 -36.3458 0
    endloop
  endfacet
  facet normal -0.999545 0.0301468 0
    outer loop
      vertex -33.8384 -36.3458 1
      vertex -34.0231 -42.4697 0
      vertex -34.0231 -42.4697 1
    endloop
  endfacet
  facet normal -0.999667 -0.0257867 0
    outer loop
      vertex -33.885 -47.8234 0
      vertex -34.0231 -42.4697 1
      vertex -34.0231 -42.4697 0
    endloop
  endfacet
  facet normal -0.999667 -0.0257867 0
    outer loop
      vertex -34.0231 -42.4697 1
      vertex -33.885 -47.8234 0
      vertex -33.885 -47.8234 1
    endloop
  endfacet
  facet normal -0.996611 -0.082258 0
    outer loop
      vertex -33.4709 -52.8405 0
      vertex -33.885 -47.8234 1
      vertex -33.885 -47.8234 0
    endloop
  endfacet
  facet normal -0.996611 -0.082258 0
    outer loop
      vertex -33.885 -47.8234 1
      vertex -33.4709 -52.8405 0
      vertex -33.4709 -52.8405 1
    endloop
  endfacet
  facet normal -0.989302 -0.145885 0
    outer loop
      vertex -32.7807 -57.521 0
      vertex -33.4709 -52.8405 1
      vertex -33.4709 -52.8405 0
    endloop
  endfacet
  facet normal -0.989302 -0.145885 0
    outer loop
      vertex -33.4709 -52.8405 1
      vertex -32.7807 -57.521 0
      vertex -32.7807 -57.521 1
    endloop
  endfacet
  facet normal -0.97614 -0.217142 0
    outer loop
      vertex -31.8144 -61.8649 0
      vertex -32.7807 -57.521 1
      vertex -32.7807 -57.521 0
    endloop
  endfacet
  facet normal -0.97614 -0.217142 0
    outer loop
      vertex -32.7807 -57.521 1
      vertex -31.8144 -61.8649 0
      vertex -31.8144 -61.8649 1
    endloop
  endfacet
  facet normal -0.955157 -0.2961 0
    outer loop
      vertex -30.5721 -65.8723 0
      vertex -31.8144 -61.8649 1
      vertex -31.8144 -61.8649 0
    endloop
  endfacet
  facet normal -0.955157 -0.2961 0
    outer loop
      vertex -31.8144 -61.8649 1
      vertex -30.5721 -65.8723 0
      vertex -30.5721 -65.8723 1
    endloop
  endfacet
  facet normal -0.924057 -0.382255 0
    outer loop
      vertex -29.0536 -69.5431 0
      vertex -30.5721 -65.8723 1
      vertex -30.5721 -65.8723 0
    endloop
  endfacet
  facet normal -0.924057 -0.382255 0
    outer loop
      vertex -30.5721 -65.8723 1
      vertex -29.0536 -69.5431 0
      vertex -29.0536 -69.5431 1
    endloop
  endfacet
  facet normal -0.880564 -0.473928 0
    outer loop
      vertex -27.2591 -72.8773 0
      vertex -29.0536 -69.5431 1
      vertex -29.0536 -69.5431 0
    endloop
  endfacet
  facet normal -0.880564 -0.473928 0
    outer loop
      vertex -29.0536 -69.5431 1
      vertex -27.2591 -72.8773 0
      vertex -27.2591 -72.8773 1
    endloop
  endfacet
  facet normal -0.824251 -0.566224 0
    outer loop
      vertex -25.2016 -75.8724 0
      vertex -27.2591 -72.8773 1
      vertex -27.2591 -72.8773 0
    endloop
  endfacet
  facet normal -0.824251 -0.566224 0
    outer loop
      vertex -27.2591 -72.8773 1
      vertex -25.2016 -75.8724 0
      vertex -25.2016 -75.8724 1
    endloop
  endfacet
  facet normal -0.754569 -0.65622 0
    outer loop
      vertex -22.8943 -78.5255 0
      vertex -25.2016 -75.8724 1
      vertex -25.2016 -75.8724 0
    endloop
  endfacet
  facet normal -0.754569 -0.65622 0
    outer loop
      vertex -25.2016 -75.8724 1
      vertex -22.8943 -78.5255 0
      vertex -22.8943 -78.5255 1
    endloop
  endfacet
  facet normal -0.670553 -0.741861 0
    outer loop
      vertex -22.8943 -78.5255 0
      vertex -20.3371 -80.8369 1
      vertex -22.8943 -78.5255 1
    endloop
  endfacet
  facet normal -0.670553 -0.741861 -0
    outer loop
      vertex -20.3371 -80.8369 1
      vertex -22.8943 -78.5255 0
      vertex -20.3371 -80.8369 0
    endloop
  endfacet
  facet normal -0.574376 -0.818592 0
    outer loop
      vertex -20.3371 -80.8369 0
      vertex -17.5302 -82.8064 1
      vertex -20.3371 -80.8369 1
    endloop
  endfacet
  facet normal -0.574376 -0.818592 -0
    outer loop
      vertex -17.5302 -82.8064 1
      vertex -20.3371 -80.8369 0
      vertex -17.5302 -82.8064 0
    endloop
  endfacet
  facet normal -0.469971 -0.882682 0
    outer loop
      vertex -17.5302 -82.8064 0
      vertex -14.4733 -84.434 1
      vertex -17.5302 -82.8064 1
    endloop
  endfacet
  facet normal -0.469971 -0.882682 -0
    outer loop
      vertex -14.4733 -84.434 1
      vertex -17.5302 -82.8064 0
      vertex -14.4733 -84.434 0
    endloop
  endfacet
  facet normal -0.362422 -0.932014 0
    outer loop
      vertex -14.4733 -84.434 0
      vertex -11.1667 -85.7198 1
      vertex -14.4733 -84.434 1
    endloop
  endfacet
  facet normal -0.362422 -0.932014 -0
    outer loop
      vertex -11.1667 -85.7198 1
      vertex -14.4733 -84.434 0
      vertex -11.1667 -85.7198 0
    endloop
  endfacet
  facet normal -0.256523 -0.966538 0
    outer loop
      vertex -11.1667 -85.7198 0
      vertex -7.61023 -86.6637 1
      vertex -11.1667 -85.7198 1
    endloop
  endfacet
  facet normal -0.256523 -0.966538 -0
    outer loop
      vertex -7.61023 -86.6637 1
      vertex -11.1667 -85.7198 0
      vertex -7.61023 -86.6637 0
    endloop
  endfacet
  facet normal -0.946687 -0.322155 0
    outer loop
      vertex -6.34167 -90.3915 0
      vertex -7.61023 -86.6637 1
      vertex -7.61023 -86.6637 0
    endloop
  endfacet
  facet normal -0.946687 -0.322155 0
    outer loop
      vertex -7.61023 -86.6637 1
      vertex -6.34167 -90.3915 0
      vertex -6.34167 -90.3915 1
    endloop
  endfacet
  facet normal -0.927545 -0.373711 0
    outer loop
      vertex -4.96527 -93.8077 0
      vertex -6.34167 -90.3915 1
      vertex -6.34167 -90.3915 0
    endloop
  endfacet
  facet normal -0.927545 -0.373711 0
    outer loop
      vertex -6.34167 -90.3915 1
      vertex -4.96527 -93.8077 0
      vertex -4.96527 -93.8077 1
    endloop
  endfacet
  facet normal -0.902201 -0.431316 0
    outer loop
      vertex -3.48105 -96.9123 0
      vertex -4.96527 -93.8077 1
      vertex -4.96527 -93.8077 0
    endloop
  endfacet
  facet normal -0.902201 -0.431316 0
    outer loop
      vertex -4.96527 -93.8077 1
      vertex -3.48105 -96.9123 0
      vertex -3.48105 -96.9123 1
    endloop
  endfacet
  facet normal -0.868769 -0.495217 0
    outer loop
      vertex -1.88898 -99.7053 0
      vertex -3.48105 -96.9123 1
      vertex -3.48105 -96.9123 0
    endloop
  endfacet
  facet normal -0.868769 -0.495217 0
    outer loop
      vertex -3.48105 -96.9123 1
      vertex -1.88898 -99.7053 0
      vertex -1.88898 -99.7053 1
    endloop
  endfacet
  facet normal -0.825015 -0.565111 0
    outer loop
      vertex -0.189087 -102.187 0
      vertex -1.88898 -99.7053 1
      vertex -1.88898 -99.7053 0
    endloop
  endfacet
  facet normal -0.825015 -0.565111 0
    outer loop
      vertex -1.88898 -99.7053 1
      vertex -0.189087 -102.187 0
      vertex -0.189087 -102.187 1
    endloop
  endfacet
  facet normal -0.768327 -0.640058 0
    outer loop
      vertex 1.61864 -104.357 0
      vertex -0.189087 -102.187 1
      vertex -0.189087 -102.187 0
    endloop
  endfacet
  facet normal -0.768327 -0.640058 0
    outer loop
      vertex -0.189087 -102.187 1
      vertex 1.61864 -104.357 0
      vertex 1.61864 -104.357 1
    endloop
  endfacet
  facet normal -0.696238 -0.717811 0
    outer loop
      vertex 1.61864 -104.357 0
      vertex 3.53421 -106.215 1
      vertex 1.61864 -104.357 1
    endloop
  endfacet
  facet normal -0.696238 -0.717811 -0
    outer loop
      vertex 3.53421 -106.215 1
      vertex 1.61864 -104.357 0
      vertex 3.53421 -106.215 0
    endloop
  endfacet
  facet normal -0.611743 -0.791056 0
    outer loop
      vertex 3.53421 -106.215 0
      vertex 5.57863 -107.796 1
      vertex 3.53421 -106.215 1
    endloop
  endfacet
  facet normal -0.611743 -0.791056 -0
    outer loop
      vertex 5.57863 -107.796 1
      vertex 3.53421 -106.215 0
      vertex 5.57863 -107.796 0
    endloop
  endfacet
  facet normal -0.520616 -0.853791 0
    outer loop
      vertex 5.57863 -107.796 0
      vertex 7.7729 -109.134 1
      vertex 5.57863 -107.796 1
    endloop
  endfacet
  facet normal -0.520616 -0.853791 -0
    outer loop
      vertex 7.7729 -109.134 1
      vertex 5.57863 -107.796 0
      vertex 7.7729 -109.134 0
    endloop
  endfacet
  facet normal -0.422898 -0.906177 0
    outer loop
      vertex 7.7729 -109.134 0
      vertex 10.1171 -110.228 1
      vertex 7.7729 -109.134 1
    endloop
  endfacet
  facet normal -0.422898 -0.906177 -0
    outer loop
      vertex 10.1171 -110.228 1
      vertex 7.7729 -109.134 0
      vertex 10.1171 -110.228 0
    endloop
  endfacet
  facet normal -0.323276 -0.946305 0
    outer loop
      vertex 10.1171 -110.228 0
      vertex 12.6111 -111.08 1
      vertex 10.1171 -110.228 1
    endloop
  endfacet
  facet normal -0.323276 -0.946305 -0
    outer loop
      vertex 12.6111 -111.08 1
      vertex 10.1171 -110.228 0
      vertex 12.6111 -111.08 0
    endloop
  endfacet
  facet normal -0.224114 -0.974563 0
    outer loop
      vertex 12.6111 -111.08 0
      vertex 15.255 -111.688 1
      vertex 12.6111 -111.08 1
    endloop
  endfacet
  facet normal -0.224114 -0.974563 -0
    outer loop
      vertex 15.255 -111.688 1
      vertex 12.6111 -111.08 0
      vertex 15.255 -111.688 0
    endloop
  endfacet
  facet normal -0.129201 -0.991618 0
    outer loop
      vertex 15.255 -111.688 0
      vertex 18.0487 -112.052 1
      vertex 15.255 -111.688 1
    endloop
  endfacet
  facet normal -0.129201 -0.991618 -0
    outer loop
      vertex 18.0487 -112.052 1
      vertex 15.255 -111.688 0
      vertex 18.0487 -112.052 0
    endloop
  endfacet
  facet normal -0.0414089 -0.999142 0
    outer loop
      vertex 18.0487 -112.052 0
      vertex 20.9924 -112.174 1
      vertex 18.0487 -112.052 1
    endloop
  endfacet
  facet normal -0.0414089 -0.999142 -0
    outer loop
      vertex 20.9924 -112.174 1
      vertex 18.0487 -112.052 0
      vertex 20.9924 -112.174 0
    endloop
  endfacet
  facet normal 0.0172196 -0.999852 0
    outer loop
      vertex 20.9924 -112.174 0
      vertex 23.1408 -112.137 1
      vertex 20.9924 -112.174 1
    endloop
  endfacet
  facet normal 0.0172196 -0.999852 0
    outer loop
      vertex 23.1408 -112.137 1
      vertex 20.9924 -112.174 0
      vertex 23.1408 -112.137 0
    endloop
  endfacet
  facet normal 0.228365 0.973576 -0
    outer loop
      vertex -1.1913 -72.3995 0
      vertex -3.18394 -71.9321 1
      vertex -1.1913 -72.3995 1
    endloop
  endfacet
  facet normal 0.228365 0.973576 0
    outer loop
      vertex -3.18394 -71.9321 1
      vertex -1.1913 -72.3995 0
      vertex -3.18394 -71.9321 0
    endloop
  endfacet
  facet normal 0.390552 0.920581 -0
    outer loop
      vertex -3.18394 -71.9321 0
      vertex -5.02014 -71.1531 1
      vertex -3.18394 -71.9321 1
    endloop
  endfacet
  facet normal 0.390552 0.920581 0
    outer loop
      vertex -5.02014 -71.1531 1
      vertex -3.18394 -71.9321 0
      vertex -5.02014 -71.1531 0
    endloop
  endfacet
  facet normal 0.544558 0.838723 -0
    outer loop
      vertex -5.02014 -71.1531 0
      vertex -6.69987 -70.0625 1
      vertex -5.02014 -71.1531 1
    endloop
  endfacet
  facet normal 0.544558 0.838723 0
    outer loop
      vertex -6.69987 -70.0625 1
      vertex -5.02014 -71.1531 0
      vertex -6.69987 -70.0625 0
    endloop
  endfacet
  facet normal 0.677259 0.735745 -0
    outer loop
      vertex -6.69987 -70.0625 0
      vertex -8.22316 -68.6603 1
      vertex -6.69987 -70.0625 1
    endloop
  endfacet
  facet normal 0.677259 0.735745 0
    outer loop
      vertex -8.22316 -68.6603 1
      vertex -6.69987 -70.0625 0
      vertex -8.22316 -68.6603 0
    endloop
  endfacet
  facet normal 0.781809 0.623518 0
    outer loop
      vertex -8.22316 -68.6603 1
      vertex -9.58997 -66.9465 0
      vertex -9.58997 -66.9465 1
    endloop
  endfacet
  facet normal 0.781809 0.623518 0
    outer loop
      vertex -9.58997 -66.9465 0
      vertex -8.22316 -68.6603 1
      vertex -8.22316 -68.6603 0
    endloop
  endfacet
  facet normal 0.85841 0.512965 0
    outer loop
      vertex -9.58997 -66.9465 1
      vertex -10.8003 -64.9211 0
      vertex -10.8003 -64.9211 1
    endloop
  endfacet
  facet normal 0.85841 0.512965 0
    outer loop
      vertex -10.8003 -64.9211 0
      vertex -9.58997 -66.9465 1
      vertex -9.58997 -66.9465 0
    endloop
  endfacet
  facet normal 0.911409 0.411501 0
    outer loop
      vertex -10.8003 -64.9211 1
      vertex -11.8513 -62.5933 0
      vertex -11.8513 -62.5933 1
    endloop
  endfacet
  facet normal 0.911409 0.411501 0
    outer loop
      vertex -11.8513 -62.5933 0
      vertex -10.8003 -64.9211 1
      vertex -10.8003 -64.9211 0
    endloop
  endfacet
  facet normal 0.946964 0.321339 0
    outer loop
      vertex -11.8513 -62.5933 1
      vertex -12.7407 -59.9723 0
      vertex -12.7407 -59.9723 1
    endloop
  endfacet
  facet normal 0.946964 0.321339 0
    outer loop
      vertex -12.7407 -59.9723 0
      vertex -11.8513 -62.5933 1
      vertex -11.8513 -62.5933 0
    endloop
  endfacet
  facet normal 0.970215 0.242246 0
    outer loop
      vertex -12.7407 -59.9723 1
      vertex -13.4683 -57.0582 0
      vertex -13.4683 -57.0582 1
    endloop
  endfacet
  facet normal 0.970215 0.242246 0
    outer loop
      vertex -13.4683 -57.0582 0
      vertex -12.7407 -59.9723 1
      vertex -12.7407 -59.9723 0
    endloop
  endfacet
  facet normal 0.984789 0.173752 0
    outer loop
      vertex -13.4683 -57.0582 1
      vertex -14.0342 -53.8508 0
      vertex -14.0342 -53.8508 1
    endloop
  endfacet
  facet normal 0.984789 0.173752 0
    outer loop
      vertex -14.0342 -53.8508 0
      vertex -13.4683 -57.0582 1
      vertex -13.4683 -57.0582 0
    endloop
  endfacet
  facet normal 0.993399 0.114707 0
    outer loop
      vertex -14.0342 -53.8508 1
      vertex -14.4384 -50.3503 0
      vertex -14.4384 -50.3503 1
    endloop
  endfacet
  facet normal 0.993399 0.114707 0
    outer loop
      vertex -14.4384 -50.3503 0
      vertex -14.0342 -53.8508 1
      vertex -14.0342 -53.8508 0
    endloop
  endfacet
  facet normal 0.997962 0.0638178 0
    outer loop
      vertex -14.4384 -50.3503 1
      vertex -14.681 -46.5566 0
      vertex -14.681 -46.5566 1
    endloop
  endfacet
  facet normal 0.997962 0.0638178 0
    outer loop
      vertex -14.681 -46.5566 0
      vertex -14.4384 -50.3503 1
      vertex -14.4384 -50.3503 0
    endloop
  endfacet
  facet normal 0.999805 0.0197666 0
    outer loop
      vertex -14.681 -46.5566 1
      vertex -14.7618 -42.4697 0
      vertex -14.7618 -42.4697 1
    endloop
  endfacet
  facet normal 0.999805 0.0197666 0
    outer loop
      vertex -14.7618 -42.4697 0
      vertex -14.681 -46.5566 1
      vertex -14.681 -46.5566 0
    endloop
  endfacet
  facet normal 0.999165 -0.0408581 0
    outer loop
      vertex -14.7618 -42.4697 1
      vertex -14.441 -34.6247 0
      vertex -14.441 -34.6247 1
    endloop
  endfacet
  facet normal 0.999165 -0.0408581 0
    outer loop
      vertex -14.441 -34.6247 0
      vertex -14.7618 -42.4697 1
      vertex -14.7618 -42.4697 0
    endloop
  endfacet
  facet normal 0.989653 -0.143481 0
    outer loop
      vertex -14.441 -34.6247 1
      vertex -13.4786 -27.9866 0
      vertex -13.4786 -27.9866 1
    endloop
  endfacet
  facet normal 0.989653 -0.143481 0
    outer loop
      vertex -13.4786 -27.9866 0
      vertex -14.441 -34.6247 1
      vertex -14.441 -34.6247 0
    endloop
  endfacet
  facet normal 0.959044 -0.283258 0
    outer loop
      vertex -13.4786 -27.9866 1
      vertex -11.8745 -22.5555 0
      vertex -11.8745 -22.5555 1
    endloop
  endfacet
  facet normal 0.959044 -0.283258 0
    outer loop
      vertex -11.8745 -22.5555 0
      vertex -13.4786 -27.9866 1
      vertex -13.4786 -27.9866 0
    endloop
  endfacet
  facet normal 0.88299 -0.469392 0
    outer loop
      vertex -11.8745 -22.5555 1
      vertex -9.62889 -18.3312 0
      vertex -9.62889 -18.3312 1
    endloop
  endfacet
  facet normal 0.88299 -0.469392 0
    outer loop
      vertex -9.62889 -18.3312 0
      vertex -11.8745 -22.5555 1
      vertex -11.8745 -22.5555 0
    endloop
  endfacet
  facet normal 0.722502 -0.691369 0
    outer loop
      vertex -9.62889 -18.3312 1
      vertex -6.74161 -15.3139 0
      vertex -6.74161 -15.3139 1
    endloop
  endfacet
  facet normal 0.722502 -0.691369 0
    outer loop
      vertex -6.74161 -15.3139 0
      vertex -9.62889 -18.3312 1
      vertex -9.62889 -18.3312 0
    endloop
  endfacet
  facet normal 0.456458 -0.889745 0
    outer loop
      vertex -6.74161 -15.3139 0
      vertex -3.21271 -13.5035 1
      vertex -6.74161 -15.3139 1
    endloop
  endfacet
  facet normal 0.456458 -0.889745 0
    outer loop
      vertex -3.21271 -13.5035 1
      vertex -6.74161 -15.3139 0
      vertex -3.21271 -13.5035 0
    endloop
  endfacet
  facet normal 0.143215 -0.989692 0
    outer loop
      vertex -3.21271 -13.5035 0
      vertex 0.957809 -12.9 1
      vertex -3.21271 -13.5035 1
    endloop
  endfacet
  facet normal 0.143215 -0.989692 0
    outer loop
      vertex 0.957809 -12.9 1
      vertex -3.21271 -13.5035 0
      vertex 0.957809 -12.9 0
    endloop
  endfacet
  facet normal -0.143802 -0.989606 0
    outer loop
      vertex 0.957809 -12.9 0
      vertex 5.11093 -13.5035 1
      vertex 0.957809 -12.9 1
    endloop
  endfacet
  facet normal -0.143802 -0.989606 -0
    outer loop
      vertex 5.11093 -13.5035 1
      vertex 0.957809 -12.9 0
      vertex 5.11093 -13.5035 0
    endloop
  endfacet
  facet normal -0.457969 -0.888968 0
    outer loop
      vertex 5.11093 -13.5035 0
      vertex 8.62512 -15.3139 1
      vertex 5.11093 -13.5035 1
    endloop
  endfacet
  facet normal -0.457969 -0.888968 -0
    outer loop
      vertex 8.62512 -15.3139 1
      vertex 5.11093 -13.5035 0
      vertex 8.62512 -15.3139 0
    endloop
  endfacet
  facet normal -0.723939 -0.689864 0
    outer loop
      vertex 11.5004 -18.3312 0
      vertex 8.62512 -15.3139 1
      vertex 8.62512 -15.3139 0
    endloop
  endfacet
  facet normal -0.723939 -0.689864 0
    outer loop
      vertex 8.62512 -15.3139 1
      vertex 11.5004 -18.3312 0
      vertex 11.5004 -18.3312 1
    endloop
  endfacet
  facet normal -0.883796 -0.467872 0
    outer loop
      vertex 13.7367 -22.5555 0
      vertex 11.5004 -18.3312 1
      vertex 11.5004 -18.3312 0
    endloop
  endfacet
  facet normal -0.883796 -0.467872 0
    outer loop
      vertex 11.5004 -18.3312 1
      vertex 13.7367 -22.5555 0
      vertex 13.7367 -22.5555 1
    endloop
  endfacet
  facet normal -0.959369 -0.282153 0
    outer loop
      vertex 15.334 -27.9866 0
      vertex 13.7367 -22.5555 1
      vertex 13.7367 -22.5555 0
    endloop
  endfacet
  facet normal -0.959369 -0.282153 0
    outer loop
      vertex 13.7367 -22.5555 1
      vertex 15.334 -27.9866 0
      vertex 15.334 -27.9866 1
    endloop
  endfacet
  facet normal -0.989738 -0.142897 0
    outer loop
      vertex 16.2924 -34.6247 0
      vertex 15.334 -27.9866 1
      vertex 15.334 -27.9866 0
    endloop
  endfacet
  facet normal -0.989738 -0.142897 0
    outer loop
      vertex 15.334 -27.9866 1
      vertex 16.2924 -34.6247 0
      vertex 16.2924 -34.6247 1
    endloop
  endfacet
  facet normal -0.999172 -0.0406928 0
    outer loop
      vertex 16.6119 -42.4697 0
      vertex 16.2924 -34.6247 1
      vertex 16.2924 -34.6247 0
    endloop
  endfacet
  facet normal -0.999172 -0.0406928 0
    outer loop
      vertex 16.2924 -34.6247 1
      vertex 16.6119 -42.4697 0
      vertex 16.6119 -42.4697 1
    endloop
  endfacet
  facet normal -0.999808 0.0196199 0
    outer loop
      vertex 16.5317 -46.5566 0
      vertex 16.6119 -42.4697 1
      vertex 16.6119 -42.4697 0
    endloop
  endfacet
  facet normal -0.999808 0.0196199 0
    outer loop
      vertex 16.6119 -42.4697 1
      vertex 16.5317 -46.5566 0
      vertex 16.5317 -46.5566 1
    endloop
  endfacet
  facet normal -0.997995 0.0632938 0
    outer loop
      vertex 16.2911 -50.3503 0
      vertex 16.5317 -46.5566 1
      vertex 16.5317 -46.5566 0
    endloop
  endfacet
  facet normal -0.997995 0.0632938 0
    outer loop
      vertex 16.5317 -46.5566 1
      vertex 16.2911 -50.3503 0
      vertex 16.2911 -50.3503 1
    endloop
  endfacet
  facet normal -0.993499 0.113839 0
    outer loop
      vertex 15.89 -53.8508 0
      vertex 16.2911 -50.3503 1
      vertex 16.2911 -50.3503 0
    endloop
  endfacet
  facet normal -0.993499 0.113839 0
    outer loop
      vertex 16.2911 -50.3503 1
      vertex 15.89 -53.8508 0
      vertex 15.89 -53.8508 1
    endloop
  endfacet
  facet normal -0.985025 0.172412 0
    outer loop
      vertex 15.3286 -57.0582 0
      vertex 15.89 -53.8508 1
      vertex 15.89 -53.8508 0
    endloop
  endfacet
  facet normal -0.985025 0.172412 0
    outer loop
      vertex 15.89 -53.8508 1
      vertex 15.3286 -57.0582 0
      vertex 15.3286 -57.0582 1
    endloop
  endfacet
  facet normal -0.97066 0.240458 0
    outer loop
      vertex 14.6067 -59.9723 0
      vertex 15.3286 -57.0582 1
      vertex 15.3286 -57.0582 0
    endloop
  endfacet
  facet normal -0.97066 0.240458 0
    outer loop
      vertex 15.3286 -57.0582 1
      vertex 14.6067 -59.9723 0
      vertex 14.6067 -59.9723 1
    endloop
  endfacet
  facet normal -0.947743 0.319036 0
    outer loop
      vertex 13.7244 -62.5933 0
      vertex 14.6067 -59.9723 1
      vertex 14.6067 -59.9723 0
    endloop
  endfacet
  facet normal -0.947743 0.319036 0
    outer loop
      vertex 14.6067 -59.9723 1
      vertex 13.7244 -62.5933 0
      vertex 13.7244 -62.5933 1
    endloop
  endfacet
  facet normal -0.912626 0.408796 0
    outer loop
      vertex 12.6817 -64.9211 0
      vertex 13.7244 -62.5933 1
      vertex 13.7244 -62.5933 0
    endloop
  endfacet
  facet normal -0.912626 0.408796 0
    outer loop
      vertex 13.7244 -62.5933 1
      vertex 12.6817 -64.9211 0
      vertex 12.6817 -64.9211 1
    endloop
  endfacet
  facet normal -0.860056 0.510199 0
    outer loop
      vertex 11.4802 -66.9465 0
      vertex 12.6817 -64.9211 1
      vertex 12.6817 -64.9211 0
    endloop
  endfacet
  facet normal -0.860056 0.510199 0
    outer loop
      vertex 12.6817 -64.9211 1
      vertex 11.4802 -66.9465 0
      vertex 11.4802 -66.9465 1
    endloop
  endfacet
  facet normal -0.78348 0.621417 0
    outer loop
      vertex 10.1209 -68.6603 0
      vertex 11.4802 -66.9465 1
      vertex 11.4802 -66.9465 0
    endloop
  endfacet
  facet normal -0.78348 0.621417 0
    outer loop
      vertex 11.4802 -66.9465 1
      vertex 10.1209 -68.6603 0
      vertex 10.1209 -68.6603 1
    endloop
  endfacet
  facet normal -0.678767 0.734353 0
    outer loop
      vertex 10.1209 -68.6603 0
      vertex 8.60387 -70.0625 1
      vertex 10.1209 -68.6603 1
    endloop
  endfacet
  facet normal -0.678767 0.734353 0
    outer loop
      vertex 8.60387 -70.0625 1
      vertex 10.1209 -68.6603 0
      vertex 8.60387 -70.0625 0
    endloop
  endfacet
  facet normal -0.545673 0.837998 0
    outer loop
      vertex 8.60387 -70.0625 0
      vertex 6.92902 -71.1531 1
      vertex 8.60387 -70.0625 1
    endloop
  endfacet
  facet normal -0.545673 0.837998 0
    outer loop
      vertex 6.92902 -71.1531 1
      vertex 8.60387 -70.0625 0
      vertex 6.92902 -71.1531 0
    endloop
  endfacet
  facet normal -0.391197 0.920307 0
    outer loop
      vertex 6.92902 -71.1531 0
      vertex 5.09639 -71.9321 1
      vertex 6.92902 -71.1531 1
    endloop
  endfacet
  facet normal -0.391197 0.920307 0
    outer loop
      vertex 5.09639 -71.9321 1
      vertex 6.92902 -71.1531 0
      vertex 5.09639 -71.9321 0
    endloop
  endfacet
  facet normal -0.228609 0.973518 0
    outer loop
      vertex 5.09639 -71.9321 0
      vertex 3.10599 -72.3995 1
      vertex 5.09639 -71.9321 1
    endloop
  endfacet
  facet normal -0.228609 0.973518 0
    outer loop
      vertex 3.10599 -72.3995 1
      vertex 5.09639 -71.9321 0
      vertex 3.10599 -72.3995 0
    endloop
  endfacet
  facet normal -0.0723365 0.99738 0
    outer loop
      vertex 3.10599 -72.3995 0
      vertex 0.957809 -72.5553 1
      vertex 3.10599 -72.3995 1
    endloop
  endfacet
  facet normal -0.0723365 0.99738 0
    outer loop
      vertex 0.957809 -72.5553 1
      vertex 3.10599 -72.3995 0
      vertex 0.957809 -72.5553 0
    endloop
  endfacet
  facet normal 0.0723054 0.997383 -0
    outer loop
      vertex 0.957809 -72.5553 0
      vertex -1.1913 -72.3995 1
      vertex 0.957809 -72.5553 1
    endloop
  endfacet
  facet normal 0.0723054 0.997383 0
    outer loop
      vertex -1.1913 -72.3995 1
      vertex 0.957809 -72.5553 0
      vertex -1.1913 -72.3995 0
    endloop
  endfacet
endsolid OpenSCAD_Model
