<?xml version="1.0" standalone="no"?>
<!DOCTYPE svg PUBLIC "-//W3C//DTD SVG 1.1//EN" "http://www.w3.org/Graphics/SVG/1.1/DTD/svg11.dtd">
<svg width="65mm" height="91mm" viewBox="-31 -3 65 91" xmlns="http://www.w3.org/2000/svg" version="1.1">
<title>OpenSCAD Model</title>
<path d="
M 6.55981,87.337 L 10.2424,86.846 L 13.6805,86.0276 L 16.874,84.8819 L 19.8229,83.4089 L 22.5273,81.6085
 L 24.9871,79.4808 L 27.1577,77.0675 L 28.9943,74.4111 L 30.497,71.5114 L 31.6658,68.3685 L 32.5006,64.9824
 L 33.0015,61.3532 L 33.1685,57.4807 L 33.0213,53.9434 L 32.5795,50.6204 L 31.8432,47.5117 L 30.8125,44.6173
 L 29.4873,41.9372 L 27.8675,39.4715 L 25.9532,37.22 L 23.7958,35.2287 L 21.4464,33.5437 L 18.905,32.165
 L 16.1717,31.0927 L 13.2465,30.3268 L 10.1293,29.8673 L 6.82025,29.7141 L 4.98885,29.7667 L 3.21266,29.9245
 L 1.49168,30.1875 L -0.174057,30.5557 L -1.78459,31.0291 L -3.33992,31.6077 L -4.84003,32.2914 L -6.26653,33.0736
 L -7.601,33.9478 L -8.84346,34.914 L -9.99391,35.9723 L -11.0524,37.1227 L -12.0188,38.3651 L -12.8932,39.6995
 L -12.809,35.985 L -12.5566,32.5346 L -12.1359,29.3485 L -11.5469,26.4265 L -10.7896,23.7688 L -9.86404,21.3753
 L -8.77019,19.246 L -7.52644,17.3915 L -6.1512,15.8223 L -4.64449,14.5384 L -3.00627,13.5398 L -1.23659,12.8266
 L 0.664581,12.3986 L 2.69725,12.2559 L 5.00323,12.4387 L 7.06206,12.9869 L 8.87373,13.9007 L 10.4382,15.1799
 L 11.7556,16.8247 L 12.8258,18.8349 L 13.6488,21.2106 L 30.7204,18.8271 L 29.8493,15.886 L 28.8192,13.1737
 L 27.63,10.6902 L 26.2816,8.43541 L 24.7742,6.40942 L 23.1077,4.61223 L 21.2821,3.04379 L 19.278,1.6936
 L 17.0753,0.551147 L 14.6741,-0.383575 L 12.0743,-1.1106 L 9.27605,-1.6299 L 6.27924,-1.94148 L 3.08391,-2.04535
 L -1.40137,-1.8192 L -5.58031,-1.14079 L -9.45294,-0.0100861 L -13.0192,1.57286 L -16.2792,3.60811 L -19.2329,6.09564
 L -21.8802,9.03545 L -24.1959,12.4404 L -26.1554,16.324 L -27.7586,20.6862 L -29.0056,25.527 L -29.8962,30.8464
 L -30.4306,36.6444 L -30.6088,42.921 L -30.4306,48.717 L -29.8962,54.1409 L -29.0056,59.1928 L -27.7586,63.8726
 L -26.1554,68.1804 L -24.1959,72.1162 L -21.8802,75.6798 L -19.2421,78.816 L -16.3161,81.4697 L -13.1021,83.6408
 L -9.60028,85.3295 L -5.81055,86.5357 L -1.73289,87.2594 L 2.63266,87.5007 z
M 0.36882,73.2897 L -1.22343,72.9821 L -2.72366,72.4694 L -4.13184,71.7516 L -5.44795,70.8287 L -6.67201,69.7007
 L -7.80403,68.3677 L -8.81244,66.8861 L -9.66573,65.3124 L -10.3639,63.6467 L -10.9068,61.8889 L -11.2947,60.0391
 L -11.5274,58.0972 L -11.605,56.0633 L -11.5294,54.435 L -11.3026,52.9001 L -10.9247,51.4585 L -10.3955,50.1103
 L -9.71516,48.8555 L -8.88364,47.6941 L -7.90092,46.626 L -6.79965,45.6773 L -5.61295,44.8746 L -4.34082,44.2178
 L -2.98326,43.707 L -1.5403,43.3421 L -0.0119019,43.1232 L 1.6019,43.0502 L 3.33278,43.1311 L 4.95451,43.3737
 L 6.46709,43.778 L 7.87051,44.3441 L 9.16478,45.0719 L 10.3499,45.9614 L 11.4259,47.0126 L 12.3745,48.207
 L 13.1773,49.5262 L 13.834,50.9702 L 14.3449,52.5392 L 14.7097,54.2331 L 14.9287,56.0519 L 15.0016,57.9956
 L 14.9306,59.9769 L 14.7177,61.8345 L 14.3627,63.5686 L 13.8657,65.1791 L 13.2267,66.6661 L 12.4457,68.0294
 L 11.5228,69.2692 L 10.4775,70.3631 L 9.32977,71.2887 L 8.07948,72.046 L 6.72668,72.635 L 5.27136,73.0557
 L 3.71352,73.3081 L 2.05315,73.3922 z
" stroke="black" fill="lightgray" stroke-width="0.5"/>
</svg>
