  0
SECTION
  2
BLOCKS
  0
ENDSEC
  0
SECTION
  2
ENTITIES
  0
LINE
  8
0
 10
6.55981
 20
-87.337
 11
10.2424
 21
-86.846
  0
LINE
  8
0
 10
10.2424
 20
-86.846
 11
13.6805
 21
-86.0276
  0
LINE
  8
0
 10
13.6805
 20
-86.0276
 11
16.874
 21
-84.8819
  0
LINE
  8
0
 10
16.874
 20
-84.8819
 11
19.8229
 21
-83.4089
  0
LINE
  8
0
 10
19.8229
 20
-83.4089
 11
22.5273
 21
-81.6085
  0
LINE
  8
0
 10
22.5273
 20
-81.6085
 11
24.9871
 21
-79.4808
  0
LINE
  8
0
 10
24.9871
 20
-79.4808
 11
27.1577
 21
-77.0675
  0
LINE
  8
0
 10
27.1577
 20
-77.0675
 11
28.9943
 21
-74.4111
  0
LINE
  8
0
 10
28.9943
 20
-74.4111
 11
30.497
 21
-71.5114
  0
LINE
  8
0
 10
30.497
 20
-71.5114
 11
31.6658
 21
-68.3685
  0
LINE
  8
0
 10
31.6658
 20
-68.3685
 11
32.5006
 21
-64.9824
  0
LINE
  8
0
 10
32.5006
 20
-64.9824
 11
33.0015
 21
-61.3532
  0
LINE
  8
0
 10
33.0015
 20
-61.3532
 11
33.1685
 21
-57.4807
  0
LINE
  8
0
 10
33.1685
 20
-57.4807
 11
33.0213
 21
-53.9434
  0
LINE
  8
0
 10
33.0213
 20
-53.9434
 11
32.5795
 21
-50.6204
  0
LINE
  8
0
 10
32.5795
 20
-50.6204
 11
31.8432
 21
-47.5117
  0
LINE
  8
0
 10
31.8432
 20
-47.5117
 11
30.8125
 21
-44.6173
  0
LINE
  8
0
 10
30.8125
 20
-44.6173
 11
29.4873
 21
-41.9372
  0
LINE
  8
0
 10
29.4873
 20
-41.9372
 11
27.8675
 21
-39.4715
  0
LINE
  8
0
 10
27.8675
 20
-39.4715
 11
25.9532
 21
-37.22
  0
LINE
  8
0
 10
25.9532
 20
-37.22
 11
23.7958
 21
-35.2287
  0
LINE
  8
0
 10
23.7958
 20
-35.2287
 11
21.4464
 21
-33.5437
  0
LINE
  8
0
 10
21.4464
 20
-33.5437
 11
18.905
 21
-32.165
  0
LINE
  8
0
 10
18.905
 20
-32.165
 11
16.1717
 21
-31.0927
  0
LINE
  8
0
 10
16.1717
 20
-31.0927
 11
13.2465
 21
-30.3268
  0
LINE
  8
0
 10
13.2465
 20
-30.3268
 11
10.1293
 21
-29.8673
  0
LINE
  8
0
 10
10.1293
 20
-29.8673
 11
6.82025
 21
-29.7141
  0
LINE
  8
0
 10
6.82025
 20
-29.7141
 11
4.98885
 21
-29.7667
  0
LINE
  8
0
 10
4.98885
 20
-29.7667
 11
3.21266
 21
-29.9245
  0
LINE
  8
0
 10
3.21266
 20
-29.9245
 11
1.49168
 21
-30.1875
  0
LINE
  8
0
 10
1.49168
 20
-30.1875
 11
-0.174057
 21
-30.5557
  0
LINE
  8
0
 10
-0.174057
 20
-30.5557
 11
-1.78459
 21
-31.0291
  0
LINE
  8
0
 10
-1.78459
 20
-31.0291
 11
-3.33992
 21
-31.6077
  0
LINE
  8
0
 10
-3.33992
 20
-31.6077
 11
-4.84003
 21
-32.2914
  0
LINE
  8
0
 10
-4.84003
 20
-32.2914
 11
-6.26653
 21
-33.0736
  0
LINE
  8
0
 10
-6.26653
 20
-33.0736
 11
-7.601
 21
-33.9478
  0
LINE
  8
0
 10
-7.601
 20
-33.9478
 11
-8.84346
 21
-34.914
  0
LINE
  8
0
 10
-8.84346
 20
-34.914
 11
-9.99391
 21
-35.9723
  0
LINE
  8
0
 10
-9.99391
 20
-35.9723
 11
-11.0524
 21
-37.1227
  0
LINE
  8
0
 10
-11.0524
 20
-37.1227
 11
-12.0188
 21
-38.3651
  0
LINE
  8
0
 10
-12.0188
 20
-38.3651
 11
-12.8932
 21
-39.6995
  0
LINE
  8
0
 10
-12.8932
 20
-39.6995
 11
-12.809
 21
-35.985
  0
LINE
  8
0
 10
-12.809
 20
-35.985
 11
-12.5566
 21
-32.5346
  0
LINE
  8
0
 10
-12.5566
 20
-32.5346
 11
-12.1359
 21
-29.3485
  0
LINE
  8
0
 10
-12.1359
 20
-29.3485
 11
-11.5469
 21
-26.4265
  0
LINE
  8
0
 10
-11.5469
 20
-26.4265
 11
-10.7896
 21
-23.7688
  0
LINE
  8
0
 10
-10.7896
 20
-23.7688
 11
-9.86404
 21
-21.3753
  0
LINE
  8
0
 10
-9.86404
 20
-21.3753
 11
-8.77019
 21
-19.246
  0
LINE
  8
0
 10
-8.77019
 20
-19.246
 11
-7.52644
 21
-17.3915
  0
LINE
  8
0
 10
-7.52644
 20
-17.3915
 11
-6.1512
 21
-15.8223
  0
LINE
  8
0
 10
-6.1512
 20
-15.8223
 11
-4.64449
 21
-14.5384
  0
LINE
  8
0
 10
-4.64449
 20
-14.5384
 11
-3.00627
 21
-13.5398
  0
LINE
  8
0
 10
-3.00627
 20
-13.5398
 11
-1.23659
 21
-12.8266
  0
LINE
  8
0
 10
-1.23659
 20
-12.8266
 11
0.664581
 21
-12.3986
  0
LINE
  8
0
 10
0.664581
 20
-12.3986
 11
2.69725
 21
-12.2559
  0
LINE
  8
0
 10
2.69725
 20
-12.2559
 11
5.00323
 21
-12.4387
  0
LINE
  8
0
 10
5.00323
 20
-12.4387
 11
7.06206
 21
-12.9869
  0
LINE
  8
0
 10
7.06206
 20
-12.9869
 11
8.87373
 21
-13.9007
  0
LINE
  8
0
 10
8.87373
 20
-13.9007
 11
10.4382
 21
-15.1799
  0
LINE
  8
0
 10
10.4382
 20
-15.1799
 11
11.7556
 21
-16.8247
  0
LINE
  8
0
 10
11.7556
 20
-16.8247
 11
12.8258
 21
-18.8349
  0
LINE
  8
0
 10
12.8258
 20
-18.8349
 11
13.6488
 21
-21.2106
  0
LINE
  8
0
 10
13.6488
 20
-21.2106
 11
30.7204
 21
-18.8271
  0
LINE
  8
0
 10
30.7204
 20
-18.8271
 11
29.8493
 21
-15.886
  0
LINE
  8
0
 10
29.8493
 20
-15.886
 11
28.8192
 21
-13.1737
  0
LINE
  8
0
 10
28.8192
 20
-13.1737
 11
27.63
 21
-10.6902
  0
LINE
  8
0
 10
27.63
 20
-10.6902
 11
26.2816
 21
-8.43541
  0
LINE
  8
0
 10
26.2816
 20
-8.43541
 11
24.7742
 21
-6.40942
  0
LINE
  8
0
 10
24.7742
 20
-6.40942
 11
23.1077
 21
-4.61223
  0
LINE
  8
0
 10
23.1077
 20
-4.61223
 11
21.2821
 21
-3.04379
  0
LINE
  8
0
 10
21.2821
 20
-3.04379
 11
19.278
 21
-1.6936
  0
LINE
  8
0
 10
19.278
 20
-1.6936
 11
17.0753
 21
-0.551147
  0
LINE
  8
0
 10
17.0753
 20
-0.551147
 11
14.6741
 21
0.383575
  0
LINE
  8
0
 10
14.6741
 20
0.383575
 11
12.0743
 21
1.1106
  0
LINE
  8
0
 10
12.0743
 20
1.1106
 11
9.27605
 21
1.6299
  0
LINE
  8
0
 10
9.27605
 20
1.6299
 11
6.27924
 21
1.94148
  0
LINE
  8
0
 10
6.27924
 20
1.94148
 11
3.08391
 21
2.04535
  0
LINE
  8
0
 10
3.08391
 20
2.04535
 11
-1.40137
 21
1.8192
  0
LINE
  8
0
 10
-1.40137
 20
1.8192
 11
-5.58031
 21
1.14079
  0
LINE
  8
0
 10
-5.58031
 20
1.14079
 11
-9.45294
 21
0.0100861
  0
LINE
  8
0
 10
-9.45294
 20
0.0100861
 11
-13.0192
 21
-1.57286
  0
LINE
  8
0
 10
-13.0192
 20
-1.57286
 11
-16.2792
 21
-3.60811
  0
LINE
  8
0
 10
-16.2792
 20
-3.60811
 11
-19.2329
 21
-6.09564
  0
LINE
  8
0
 10
-19.2329
 20
-6.09564
 11
-21.8802
 21
-9.03545
  0
LINE
  8
0
 10
-21.8802
 20
-9.03545
 11
-24.1959
 21
-12.4404
  0
LINE
  8
0
 10
-24.1959
 20
-12.4404
 11
-26.1554
 21
-16.324
  0
LINE
  8
0
 10
-26.1554
 20
-16.324
 11
-27.7586
 21
-20.6862
  0
LINE
  8
0
 10
-27.7586
 20
-20.6862
 11
-29.0056
 21
-25.527
  0
LINE
  8
0
 10
-29.0056
 20
-25.527
 11
-29.8962
 21
-30.8464
  0
LINE
  8
0
 10
-29.8962
 20
-30.8464
 11
-30.4306
 21
-36.6444
  0
LINE
  8
0
 10
-30.4306
 20
-36.6444
 11
-30.6088
 21
-42.921
  0
LINE
  8
0
 10
-30.6088
 20
-42.921
 11
-30.4306
 21
-48.717
  0
LINE
  8
0
 10
-30.4306
 20
-48.717
 11
-29.8962
 21
-54.1409
  0
LINE
  8
0
 10
-29.8962
 20
-54.1409
 11
-29.0056
 21
-59.1928
  0
LINE
  8
0
 10
-29.0056
 20
-59.1928
 11
-27.7586
 21
-63.8726
  0
LINE
  8
0
 10
-27.7586
 20
-63.8726
 11
-26.1554
 21
-68.1804
  0
LINE
  8
0
 10
-26.1554
 20
-68.1804
 11
-24.1959
 21
-72.1162
  0
LINE
  8
0
 10
-24.1959
 20
-72.1162
 11
-21.8802
 21
-75.6798
  0
LINE
  8
0
 10
-21.8802
 20
-75.6798
 11
-19.2421
 21
-78.816
  0
LINE
  8
0
 10
-19.2421
 20
-78.816
 11
-16.3161
 21
-81.4697
  0
LINE
  8
0
 10
-16.3161
 20
-81.4697
 11
-13.1021
 21
-83.6408
  0
LINE
  8
0
 10
-13.1021
 20
-83.6408
 11
-9.60028
 21
-85.3295
  0
LINE
  8
0
 10
-9.60028
 20
-85.3295
 11
-5.81055
 21
-86.5357
  0
LINE
  8
0
 10
-5.81055
 20
-86.5357
 11
-1.73289
 21
-87.2594
  0
LINE
  8
0
 10
-1.73289
 20
-87.2594
 11
2.63266
 21
-87.5007
  0
LINE
  8
0
 10
2.63266
 20
-87.5007
 11
6.55981
 21
-87.337
  0
LINE
  8
0
 10
0.36882
 20
-73.2897
 11
-1.22343
 21
-72.9821
  0
LINE
  8
0
 10
-1.22343
 20
-72.9821
 11
-2.72366
 21
-72.4694
  0
LINE
  8
0
 10
-2.72366
 20
-72.4694
 11
-4.13184
 21
-71.7516
  0
LINE
  8
0
 10
-4.13184
 20
-71.7516
 11
-5.44795
 21
-70.8287
  0
LINE
  8
0
 10
-5.44795
 20
-70.8287
 11
-6.67201
 21
-69.7007
  0
LINE
  8
0
 10
-6.67201
 20
-69.7007
 11
-7.80403
 21
-68.3677
  0
LINE
  8
0
 10
-7.80403
 20
-68.3677
 11
-8.81244
 21
-66.8861
  0
LINE
  8
0
 10
-8.81244
 20
-66.8861
 11
-9.66573
 21
-65.3124
  0
LINE
  8
0
 10
-9.66573
 20
-65.3124
 11
-10.3639
 21
-63.6467
  0
LINE
  8
0
 10
-10.3639
 20
-63.6467
 11
-10.9068
 21
-61.8889
  0
LINE
  8
0
 10
-10.9068
 20
-61.8889
 11
-11.2947
 21
-60.0391
  0
LINE
  8
0
 10
-11.2947
 20
-60.0391
 11
-11.5274
 21
-58.0972
  0
LINE
  8
0
 10
-11.5274
 20
-58.0972
 11
-11.605
 21
-56.0633
  0
LINE
  8
0
 10
-11.605
 20
-56.0633
 11
-11.5294
 21
-54.435
  0
LINE
  8
0
 10
-11.5294
 20
-54.435
 11
-11.3026
 21
-52.9001
  0
LINE
  8
0
 10
-11.3026
 20
-52.9001
 11
-10.9247
 21
-51.4585
  0
LINE
  8
0
 10
-10.9247
 20
-51.4585
 11
-10.3955
 21
-50.1103
  0
LINE
  8
0
 10
-10.3955
 20
-50.1103
 11
-9.71516
 21
-48.8555
  0
LINE
  8
0
 10
-9.71516
 20
-48.8555
 11
-8.88364
 21
-47.6941
  0
LINE
  8
0
 10
-8.88364
 20
-47.6941
 11
-7.90092
 21
-46.626
  0
LINE
  8
0
 10
-7.90092
 20
-46.626
 11
-6.79965
 21
-45.6773
  0
LINE
  8
0
 10
-6.79965
 20
-45.6773
 11
-5.61295
 21
-44.8746
  0
LINE
  8
0
 10
-5.61295
 20
-44.8746
 11
-4.34082
 21
-44.2178
  0
LINE
  8
0
 10
-4.34082
 20
-44.2178
 11
-2.98326
 21
-43.707
  0
LINE
  8
0
 10
-2.98326
 20
-43.707
 11
-1.5403
 21
-43.3421
  0
LINE
  8
0
 10
-1.5403
 20
-43.3421
 11
-0.0119019
 21
-43.1232
  0
LINE
  8
0
 10
-0.0119019
 20
-43.1232
 11
1.6019
 21
-43.0502
  0
LINE
  8
0
 10
1.6019
 20
-43.0502
 11
3.33278
 21
-43.1311
  0
LINE
  8
0
 10
3.33278
 20
-43.1311
 11
4.95451
 21
-43.3737
  0
LINE
  8
0
 10
4.95451
 20
-43.3737
 11
6.46709
 21
-43.778
  0
LINE
  8
0
 10
6.46709
 20
-43.778
 11
7.87051
 21
-44.3441
  0
LINE
  8
0
 10
7.87051
 20
-44.3441
 11
9.16478
 21
-45.0719
  0
LINE
  8
0
 10
9.16478
 20
-45.0719
 11
10.3499
 21
-45.9614
  0
LINE
  8
0
 10
10.3499
 20
-45.9614
 11
11.4259
 21
-47.0126
  0
LINE
  8
0
 10
11.4259
 20
-47.0126
 11
12.3745
 21
-48.207
  0
LINE
  8
0
 10
12.3745
 20
-48.207
 11
13.1773
 21
-49.5262
  0
LINE
  8
0
 10
13.1773
 20
-49.5262
 11
13.834
 21
-50.9702
  0
LINE
  8
0
 10
13.834
 20
-50.9702
 11
14.3449
 21
-52.5392
  0
LINE
  8
0
 10
14.3449
 20
-52.5392
 11
14.7097
 21
-54.2331
  0
LINE
  8
0
 10
14.7097
 20
-54.2331
 11
14.9287
 21
-56.0519
  0
LINE
  8
0
 10
14.9287
 20
-56.0519
 11
15.0016
 21
-57.9956
  0
LINE
  8
0
 10
15.0016
 20
-57.9956
 11
14.9306
 21
-59.9769
  0
LINE
  8
0
 10
14.9306
 20
-59.9769
 11
14.7177
 21
-61.8345
  0
LINE
  8
0
 10
14.7177
 20
-61.8345
 11
14.3627
 21
-63.5686
  0
LINE
  8
0
 10
14.3627
 20
-63.5686
 11
13.8657
 21
-65.1791
  0
LINE
  8
0
 10
13.8657
 20
-65.1791
 11
13.2267
 21
-66.6661
  0
LINE
  8
0
 10
13.2267
 20
-66.6661
 11
12.4457
 21
-68.0294
  0
LINE
  8
0
 10
12.4457
 20
-68.0294
 11
11.5228
 21
-69.2692
  0
LINE
  8
0
 10
11.5228
 20
-69.2692
 11
10.4775
 21
-70.3631
  0
LINE
  8
0
 10
10.4775
 20
-70.3631
 11
9.32977
 21
-71.2887
  0
LINE
  8
0
 10
9.32977
 20
-71.2887
 11
8.07948
 21
-72.046
  0
LINE
  8
0
 10
8.07948
 20
-72.046
 11
6.72668
 21
-72.635
  0
LINE
  8
0
 10
6.72668
 20
-72.635
 11
5.27136
 21
-73.0557
  0
LINE
  8
0
 10
5.27136
 20
-73.0557
 11
3.71352
 21
-73.3081
  0
LINE
  8
0
 10
3.71352
 20
-73.3081
 11
2.05315
 21
-73.3922
  0
LINE
  8
0
 10
2.05315
 20
-73.3922
 11
0.36882
 21
-73.2897
  0
ENDSEC
  0
SECTION
  2
OBJECTS
  0
DICTIONARY
  0
ENDSEC
  0
EOF
