<?xml version="1.0" standalone="no"?>
<!DOCTYPE svg PUBLIC "-//W3C//DTD SVG 1.1//EN" "http://www.w3.org/Graphics/SVG/1.1/DTD/svg11.dtd">
<svg width="39mm" height="53mm" viewBox="-19 3 39 53" xmlns="http://www.w3.org/2000/svg" version="1.1">
<title>OpenSCAD Model</title>
<path d="
M 1.19765,53.1126 L 1.44374,50.2736 L 1.85391,47.4267 L 2.42815,44.5719 L 3.16644,41.7092 L 4.06882,38.8386
 L 5.13525,35.9601 L 6.40298,33.0091 L 7.90894,29.9208 L 9.65311,26.6952 L 11.6355,23.3324 L 13.8561,19.8323
 L 16.3149,16.1949 L 19.0119,12.4203 L 19.0119,3.80072 L -18.1339,3.80072 L -18.1339,12.7298 L 8.92346,12.7298
 L 6.20393,16.1347 L 3.69975,19.4805 L 1.41092,22.7671 L -0.662567,25.9946 L -2.52072,29.163 L -4.16353,32.2722
 L -5.59099,35.3223 L -6.81636,38.3321 L -7.85323,41.3207 L -8.70155,44.2879 L -9.36137,47.2338 L -9.83267,50.1584
 L -10.1154,53.0618 L -10.2097,55.9437 L 1.11562,55.9437 z
" stroke="black" fill="lightgray" stroke-width="0.5"/>
</svg>
