  0
SECTION
  2
BLOCKS
  0
ENDSEC
  0
SECTION
  2
ENTITIES
  0
LINE
  8
0
 10
1.19765
 20
-53.1126
 11
1.44374
 21
-50.2736
  0
LINE
  8
0
 10
1.44374
 20
-50.2736
 11
1.85391
 21
-47.4267
  0
LINE
  8
0
 10
1.85391
 20
-47.4267
 11
2.42815
 21
-44.5719
  0
LINE
  8
0
 10
2.42815
 20
-44.5719
 11
3.16644
 21
-41.7092
  0
LINE
  8
0
 10
3.16644
 20
-41.7092
 11
4.06882
 21
-38.8386
  0
LINE
  8
0
 10
4.06882
 20
-38.8386
 11
5.13525
 21
-35.9601
  0
LINE
  8
0
 10
5.13525
 20
-35.9601
 11
6.40298
 21
-33.0091
  0
LINE
  8
0
 10
6.40298
 20
-33.0091
 11
7.90894
 21
-29.9208
  0
LINE
  8
0
 10
7.90894
 20
-29.9208
 11
9.65311
 21
-26.6952
  0
LINE
  8
0
 10
9.65311
 20
-26.6952
 11
11.6355
 21
-23.3324
  0
LINE
  8
0
 10
11.6355
 20
-23.3324
 11
13.8561
 21
-19.8323
  0
LINE
  8
0
 10
13.8561
 20
-19.8323
 11
16.3149
 21
-16.1949
  0
LINE
  8
0
 10
16.3149
 20
-16.1949
 11
19.0119
 21
-12.4203
  0
LINE
  8
0
 10
19.0119
 20
-12.4203
 11
19.0119
 21
-3.80072
  0
LINE
  8
0
 10
19.0119
 20
-3.80072
 11
-18.1339
 21
-3.80072
  0
LINE
  8
0
 10
-18.1339
 20
-3.80072
 11
-18.1339
 21
-12.7298
  0
LINE
  8
0
 10
-18.1339
 20
-12.7298
 11
8.92346
 21
-12.7298
  0
LINE
  8
0
 10
8.92346
 20
-12.7298
 11
6.20393
 21
-16.1347
  0
LINE
  8
0
 10
6.20393
 20
-16.1347
 11
3.69975
 21
-19.4805
  0
LINE
  8
0
 10
3.69975
 20
-19.4805
 11
1.41092
 21
-22.7671
  0
LINE
  8
0
 10
1.41092
 20
-22.7671
 11
-0.662567
 21
-25.9946
  0
LINE
  8
0
 10
-0.662567
 20
-25.9946
 11
-2.52072
 21
-29.163
  0
LINE
  8
0
 10
-2.52072
 20
-29.163
 11
-4.16353
 21
-32.2722
  0
LINE
  8
0
 10
-4.16353
 20
-32.2722
 11
-5.59099
 21
-35.3223
  0
LINE
  8
0
 10
-5.59099
 20
-35.3223
 11
-6.81636
 21
-38.3321
  0
LINE
  8
0
 10
-6.81636
 20
-38.3321
 11
-7.85323
 21
-41.3207
  0
LINE
  8
0
 10
-7.85323
 20
-41.3207
 11
-8.70155
 21
-44.2879
  0
LINE
  8
0
 10
-8.70155
 20
-44.2879
 11
-9.36137
 21
-47.2338
  0
LINE
  8
0
 10
-9.36137
 20
-47.2338
 11
-9.83267
 21
-50.1584
  0
LINE
  8
0
 10
-9.83267
 20
-50.1584
 11
-10.1154
 21
-53.0618
  0
LINE
  8
0
 10
-10.1154
 20
-53.0618
 11
-10.2097
 21
-55.9437
  0
LINE
  8
0
 10
-10.2097
 20
-55.9437
 11
1.11562
 21
-55.9437
  0
LINE
  8
0
 10
1.11562
 20
-55.9437
 11
1.19765
 21
-53.1126
  0
ENDSEC
  0
SECTION
  2
OBJECTS
  0
DICTIONARY
  0
ENDSEC
  0
EOF
