solid OpenSCAD_Model
  facet normal 0 0 -1
    outer loop
      vertex -5.99294 -21.9812 0
      vertex -2.68161 -13.5291 0
      vertex -2.68161 -21.9812 0
    endloop
  endfacet
  facet normal -0 0 -1
    outer loop
      vertex -2.68161 -13.5291 0
      vertex -5.99294 -21.9812 0
      vertex -2.68898 -13.1142 0
    endloop
  endfacet
  facet normal -0 0 -1
    outer loop
      vertex -2.68898 -13.1142 0
      vertex -5.99294 -21.9812 0
      vertex -2.71106 -12.6203 0
    endloop
  endfacet
  facet normal -0 0 -1
    outer loop
      vertex -2.71106 -12.6203 0
      vertex -5.99294 -21.9812 0
      vertex -2.74788 -12.0476 0
    endloop
  endfacet
  facet normal 0 0 -1
    outer loop
      vertex -5.99294 -4.60025 0
      vertex -2.74788 -12.0476 0
      vertex -5.99294 -21.9812 0
    endloop
  endfacet
  facet normal 0 0 -1
    outer loop
      vertex -2.74788 -12.0476 0
      vertex -5.99294 -4.60025 0
      vertex -2.79942 -11.396 0
    endloop
  endfacet
  facet normal 0 0 -1
    outer loop
      vertex -2.79942 -11.396 0
      vertex -5.99294 -4.60025 0
      vertex -2.86569 -10.6656 0
    endloop
  endfacet
  facet normal 0 0 -1
    outer loop
      vertex -2.86569 -10.6656 0
      vertex -5.99294 -4.60025 0
      vertex -2.9467 -9.8562 0
    endloop
  endfacet
  facet normal 0 0 -1
    outer loop
      vertex 3.31689 -17.1238 0
      vertex 6.36313 -21.9812 0
      vertex 3.41263 -17.9612 0
    endloop
  endfacet
  facet normal 0 0 -1
    outer loop
      vertex 1.90517 -21.9812 0
      vertex 3.41263 -17.9612 0
      vertex 6.36313 -21.9812 0
    endloop
  endfacet
  facet normal 0 0 -1
    outer loop
      vertex -3.04242 -8.96796 0
      vertex 3.41263 -17.9612 0
      vertex 1.90517 -21.9812 0
    endloop
  endfacet
  facet normal 0 0 -1
    outer loop
      vertex 3.41263 -17.9612 0
      vertex -3.04242 -8.96796 0
      vertex -1.65086 -4.60025 0
    endloop
  endfacet
  facet normal 0 0 -1
    outer loop
      vertex -3.04242 -8.96796 0
      vertex -5.99294 -4.60025 0
      vertex -1.65086 -4.60025 0
    endloop
  endfacet
  facet normal 0 0 -1
    outer loop
      vertex -2.9467 -9.8562 0
      vertex -5.99294 -4.60025 0
      vertex -3.04242 -8.96796 0
    endloop
  endfacet
  facet normal 0 0 -1
    outer loop
      vertex 3.2359 -16.3416 0
      vertex 6.36313 -21.9812 0
      vertex 3.31689 -17.1238 0
    endloop
  endfacet
  facet normal 0 0 -1
    outer loop
      vertex 3.16963 -15.6145 0
      vertex 6.36313 -21.9812 0
      vertex 3.2359 -16.3416 0
    endloop
  endfacet
  facet normal 0 0 -1
    outer loop
      vertex 3.11809 -14.9427 0
      vertex 6.36313 -21.9812 0
      vertex 3.16963 -15.6145 0
    endloop
  endfacet
  facet normal 0 0 -1
    outer loop
      vertex 3.08127 -14.3261 0
      vertex 6.36313 -21.9812 0
      vertex 3.11809 -14.9427 0
    endloop
  endfacet
  facet normal 0 0 -1
    outer loop
      vertex 3.05917 -13.7647 0
      vertex 6.36313 -21.9812 0
      vertex 3.08127 -14.3261 0
    endloop
  endfacet
  facet normal 0 0 -1
    outer loop
      vertex 6.36313 -21.9812 0
      vertex 3.05917 -13.7647 0
      vertex 6.36313 -4.60025 0
    endloop
  endfacet
  facet normal 0 0 -1
    outer loop
      vertex 3.05182 -13.2585 0
      vertex 6.36313 -4.60025 0
      vertex 3.05917 -13.7647 0
    endloop
  endfacet
  facet normal -0 0 -1
    outer loop
      vertex 6.36313 -4.60025 0
      vertex 3.05182 -13.2585 0
      vertex 3.05182 -4.60025 0
    endloop
  endfacet
  facet normal -0 0 1
    outer loop
      vertex 3.05917 -13.7647 1
      vertex 6.36313 -21.9812 1
      vertex 6.36313 -4.60025 1
    endloop
  endfacet
  facet normal 0 0 1
    outer loop
      vertex 6.36313 -21.9812 1
      vertex 3.31689 -17.1238 1
      vertex 3.41263 -17.9612 1
    endloop
  endfacet
  facet normal 0 0 1
    outer loop
      vertex 6.36313 -21.9812 1
      vertex 3.2359 -16.3416 1
      vertex 3.31689 -17.1238 1
    endloop
  endfacet
  facet normal 0 0 1
    outer loop
      vertex 6.36313 -21.9812 1
      vertex 3.16963 -15.6145 1
      vertex 3.2359 -16.3416 1
    endloop
  endfacet
  facet normal 0 0 1
    outer loop
      vertex 6.36313 -21.9812 1
      vertex 3.11809 -14.9427 1
      vertex 3.16963 -15.6145 1
    endloop
  endfacet
  facet normal 0 0 1
    outer loop
      vertex 6.36313 -21.9812 1
      vertex 3.08127 -14.3261 1
      vertex 3.11809 -14.9427 1
    endloop
  endfacet
  facet normal 0 0 1
    outer loop
      vertex 6.36313 -21.9812 1
      vertex 3.05917 -13.7647 1
      vertex 3.08127 -14.3261 1
    endloop
  endfacet
  facet normal 0 0 1
    outer loop
      vertex 3.05182 -13.2585 1
      vertex 6.36313 -4.60025 1
      vertex 3.05182 -4.60025 1
    endloop
  endfacet
  facet normal 0 0 1
    outer loop
      vertex 6.36313 -4.60025 1
      vertex 3.05182 -13.2585 1
      vertex 3.05917 -13.7647 1
    endloop
  endfacet
  facet normal 0 0 1
    outer loop
      vertex 3.41263 -17.9612 1
      vertex 1.90517 -21.9812 1
      vertex 6.36313 -21.9812 1
    endloop
  endfacet
  facet normal -0 0 1
    outer loop
      vertex -3.04242 -8.96796 1
      vertex 3.41263 -17.9612 1
      vertex -1.65086 -4.60025 1
    endloop
  endfacet
  facet normal 0 0 1
    outer loop
      vertex 3.41263 -17.9612 1
      vertex -3.04242 -8.96796 1
      vertex 1.90517 -21.9812 1
    endloop
  endfacet
  facet normal 0 -0 1
    outer loop
      vertex -3.04242 -8.96796 1
      vertex -1.65086 -4.60025 1
      vertex -5.99294 -4.60025 1
    endloop
  endfacet
  facet normal 0 0 1
    outer loop
      vertex -5.99294 -21.9812 1
      vertex -2.68161 -13.5291 1
      vertex -2.68898 -13.1142 1
    endloop
  endfacet
  facet normal 0 0 1
    outer loop
      vertex -5.99294 -21.9812 1
      vertex -2.68898 -13.1142 1
      vertex -2.71106 -12.6203 1
    endloop
  endfacet
  facet normal 0 0 1
    outer loop
      vertex -5.99294 -21.9812 1
      vertex -2.71106 -12.6203 1
      vertex -2.74788 -12.0476 1
    endloop
  endfacet
  facet normal 0 0 1
    outer loop
      vertex -5.99294 -4.60025 1
      vertex -2.74788 -12.0476 1
      vertex -2.79942 -11.396 1
    endloop
  endfacet
  facet normal 0 0 1
    outer loop
      vertex -5.99294 -4.60025 1
      vertex -2.79942 -11.396 1
      vertex -2.86569 -10.6656 1
    endloop
  endfacet
  facet normal 0 0 1
    outer loop
      vertex -5.99294 -4.60025 1
      vertex -2.86569 -10.6656 1
      vertex -2.9467 -9.8562 1
    endloop
  endfacet
  facet normal 0 0 1
    outer loop
      vertex -5.99294 -4.60025 1
      vertex -2.9467 -9.8562 1
      vertex -3.04242 -8.96796 1
    endloop
  endfacet
  facet normal 0 0 1
    outer loop
      vertex -2.74788 -12.0476 1
      vertex -5.99294 -4.60025 1
      vertex -5.99294 -21.9812 1
    endloop
  endfacet
  facet normal 0 0 1
    outer loop
      vertex -2.68161 -13.5291 1
      vertex -5.99294 -21.9812 1
      vertex -2.68161 -21.9812 1
    endloop
  endfacet
  facet normal 0.999842 0.0177605 0
    outer loop
      vertex -2.68161 -13.5291 1
      vertex -2.68898 -13.1142 0
      vertex -2.68898 -13.1142 1
    endloop
  endfacet
  facet normal 0.999842 0.0177605 0
    outer loop
      vertex -2.68898 -13.1142 0
      vertex -2.68161 -13.5291 1
      vertex -2.68161 -13.5291 0
    endloop
  endfacet
  facet normal 0.999002 0.0446608 0
    outer loop
      vertex -2.68898 -13.1142 1
      vertex -2.71106 -12.6203 0
      vertex -2.71106 -12.6203 1
    endloop
  endfacet
  facet normal 0.999002 0.0446608 0
    outer loop
      vertex -2.71106 -12.6203 0
      vertex -2.68898 -13.1142 1
      vertex -2.68898 -13.1142 0
    endloop
  endfacet
  facet normal 0.99794 0.0641595 0
    outer loop
      vertex -2.71106 -12.6203 1
      vertex -2.74788 -12.0476 0
      vertex -2.74788 -12.0476 1
    endloop
  endfacet
  facet normal 0.99794 0.0641595 0
    outer loop
      vertex -2.74788 -12.0476 0
      vertex -2.71106 -12.6203 1
      vertex -2.71106 -12.6203 0
    endloop
  endfacet
  facet normal 0.996886 0.0788513 0
    outer loop
      vertex -2.74788 -12.0476 1
      vertex -2.79942 -11.396 0
      vertex -2.79942 -11.396 1
    endloop
  endfacet
  facet normal 0.996886 0.0788513 0
    outer loop
      vertex -2.79942 -11.396 0
      vertex -2.74788 -12.0476 1
      vertex -2.74788 -12.0476 0
    endloop
  endfacet
  facet normal 0.995909 0.0903599 0
    outer loop
      vertex -2.79942 -11.396 1
      vertex -2.86569 -10.6656 0
      vertex -2.86569 -10.6656 1
    endloop
  endfacet
  facet normal 0.995909 0.0903599 0
    outer loop
      vertex -2.86569 -10.6656 0
      vertex -2.79942 -11.396 1
      vertex -2.79942 -11.396 0
    endloop
  endfacet
  facet normal 0.995029 0.0995889 0
    outer loop
      vertex -2.86569 -10.6656 1
      vertex -2.9467 -9.8562 0
      vertex -2.9467 -9.8562 1
    endloop
  endfacet
  facet normal 0.995029 0.0995889 0
    outer loop
      vertex -2.9467 -9.8562 0
      vertex -2.86569 -10.6656 1
      vertex -2.86569 -10.6656 0
    endloop
  endfacet
  facet normal 0.994244 0.107143 0
    outer loop
      vertex -2.9467 -9.8562 1
      vertex -3.04242 -8.96796 0
      vertex -3.04242 -8.96796 1
    endloop
  endfacet
  facet normal 0.994244 0.107143 0
    outer loop
      vertex -3.04242 -8.96796 0
      vertex -2.9467 -9.8562 1
      vertex -2.9467 -9.8562 0
    endloop
  endfacet
  facet normal -0.934723 -0.355378 0
    outer loop
      vertex 1.90517 -21.9812 0
      vertex -3.04242 -8.96796 1
      vertex -3.04242 -8.96796 0
    endloop
  endfacet
  facet normal -0.934723 -0.355378 0
    outer loop
      vertex -3.04242 -8.96796 1
      vertex 1.90517 -21.9812 0
      vertex 1.90517 -21.9812 1
    endloop
  endfacet
  facet normal 0 -1 0
    outer loop
      vertex 1.90517 -21.9812 0
      vertex 6.36313 -21.9812 1
      vertex 1.90517 -21.9812 1
    endloop
  endfacet
  facet normal 0 -1 -0
    outer loop
      vertex 6.36313 -21.9812 1
      vertex 1.90517 -21.9812 0
      vertex 6.36313 -21.9812 0
    endloop
  endfacet
  facet normal 1 -0 0
    outer loop
      vertex 6.36313 -21.9812 1
      vertex 6.36313 -4.60025 0
      vertex 6.36313 -4.60025 1
    endloop
  endfacet
  facet normal 1 0 0
    outer loop
      vertex 6.36313 -4.60025 0
      vertex 6.36313 -21.9812 1
      vertex 6.36313 -21.9812 0
    endloop
  endfacet
  facet normal 0 1 -0
    outer loop
      vertex 6.36313 -4.60025 0
      vertex 3.05182 -4.60025 1
      vertex 6.36313 -4.60025 1
    endloop
  endfacet
  facet normal 0 1 0
    outer loop
      vertex 3.05182 -4.60025 1
      vertex 6.36313 -4.60025 0
      vertex 3.05182 -4.60025 0
    endloop
  endfacet
  facet normal -1 0 0
    outer loop
      vertex 3.05182 -13.2585 0
      vertex 3.05182 -4.60025 1
      vertex 3.05182 -4.60025 0
    endloop
  endfacet
  facet normal -1 -0 0
    outer loop
      vertex 3.05182 -4.60025 1
      vertex 3.05182 -13.2585 0
      vertex 3.05182 -13.2585 1
    endloop
  endfacet
  facet normal -0.999895 -0.0145184 0
    outer loop
      vertex 3.05917 -13.7647 0
      vertex 3.05182 -13.2585 1
      vertex 3.05182 -13.2585 0
    endloop
  endfacet
  facet normal -0.999895 -0.0145184 0
    outer loop
      vertex 3.05182 -13.2585 1
      vertex 3.05917 -13.7647 0
      vertex 3.05917 -13.7647 1
    endloop
  endfacet
  facet normal -0.999226 -0.0393354 0
    outer loop
      vertex 3.08127 -14.3261 0
      vertex 3.05917 -13.7647 1
      vertex 3.05917 -13.7647 0
    endloop
  endfacet
  facet normal -0.999226 -0.0393354 0
    outer loop
      vertex 3.05917 -13.7647 1
      vertex 3.08127 -14.3261 0
      vertex 3.08127 -14.3261 1
    endloop
  endfacet
  facet normal -0.998222 -0.0596084 0
    outer loop
      vertex 3.11809 -14.9427 0
      vertex 3.08127 -14.3261 1
      vertex 3.08127 -14.3261 0
    endloop
  endfacet
  facet normal -0.998222 -0.0596084 0
    outer loop
      vertex 3.08127 -14.3261 1
      vertex 3.11809 -14.9427 0
      vertex 3.11809 -14.9427 1
    endloop
  endfacet
  facet normal -0.99707 -0.0764945 0
    outer loop
      vertex 3.16963 -15.6145 0
      vertex 3.11809 -14.9427 1
      vertex 3.11809 -14.9427 0
    endloop
  endfacet
  facet normal -0.99707 -0.0764945 0
    outer loop
      vertex 3.11809 -14.9427 1
      vertex 3.16963 -15.6145 0
      vertex 3.16963 -15.6145 1
    endloop
  endfacet
  facet normal -0.995872 -0.0907667 0
    outer loop
      vertex 3.2359 -16.3416 0
      vertex 3.16963 -15.6145 1
      vertex 3.16963 -15.6145 0
    endloop
  endfacet
  facet normal -0.995872 -0.0907667 0
    outer loop
      vertex 3.16963 -15.6145 1
      vertex 3.2359 -16.3416 0
      vertex 3.2359 -16.3416 1
    endloop
  endfacet
  facet normal -0.994682 -0.102991 0
    outer loop
      vertex 3.31689 -17.1238 0
      vertex 3.2359 -16.3416 1
      vertex 3.2359 -16.3416 0
    endloop
  endfacet
  facet normal -0.994682 -0.102991 0
    outer loop
      vertex 3.2359 -16.3416 1
      vertex 3.31689 -17.1238 0
      vertex 3.31689 -17.1238 1
    endloop
  endfacet
  facet normal -0.993528 -0.11359 0
    outer loop
      vertex 3.41263 -17.9612 0
      vertex 3.31689 -17.1238 1
      vertex 3.31689 -17.1238 0
    endloop
  endfacet
  facet normal -0.993528 -0.11359 0
    outer loop
      vertex 3.31689 -17.1238 1
      vertex 3.41263 -17.9612 0
      vertex 3.41263 -17.9612 1
    endloop
  endfacet
  facet normal 0.935101 0.354382 0
    outer loop
      vertex 3.41263 -17.9612 1
      vertex -1.65086 -4.60025 0
      vertex -1.65086 -4.60025 1
    endloop
  endfacet
  facet normal 0.935101 0.354382 0
    outer loop
      vertex -1.65086 -4.60025 0
      vertex 3.41263 -17.9612 1
      vertex 3.41263 -17.9612 0
    endloop
  endfacet
  facet normal 0 1 -0
    outer loop
      vertex -1.65086 -4.60025 0
      vertex -5.99294 -4.60025 1
      vertex -1.65086 -4.60025 1
    endloop
  endfacet
  facet normal 0 1 0
    outer loop
      vertex -5.99294 -4.60025 1
      vertex -1.65086 -4.60025 0
      vertex -5.99294 -4.60025 0
    endloop
  endfacet
  facet normal -1 0 0
    outer loop
      vertex -5.99294 -21.9812 0
      vertex -5.99294 -4.60025 1
      vertex -5.99294 -4.60025 0
    endloop
  endfacet
  facet normal -1 -0 0
    outer loop
      vertex -5.99294 -4.60025 1
      vertex -5.99294 -21.9812 0
      vertex -5.99294 -21.9812 1
    endloop
  endfacet
  facet normal 0 -1 0
    outer loop
      vertex -5.99294 -21.9812 0
      vertex -2.68161 -21.9812 1
      vertex -5.99294 -21.9812 1
    endloop
  endfacet
  facet normal 0 -1 -0
    outer loop
      vertex -2.68161 -21.9812 1
      vertex -5.99294 -21.9812 0
      vertex -2.68161 -21.9812 0
    endloop
  endfacet
  facet normal 1 -0 0
    outer loop
      vertex -2.68161 -21.9812 1
      vertex -2.68161 -13.5291 0
      vertex -2.68161 -13.5291 1
    endloop
  endfacet
  facet normal 1 0 0
    outer loop
      vertex -2.68161 -13.5291 0
      vertex -2.68161 -21.9812 1
      vertex -2.68161 -21.9812 0
    endloop
  endfacet
endsolid OpenSCAD_Model
